<?xml version="1.0" encoding="UTF-8"?>
<svg xmlns="http://www.w3.org/2000/svg" xmlns:xlink="http://www.w3.org/1999/xlink" width="600pt" height="15pt" viewBox="0 0 600 15" version="1.1" shape-rendering="crispEdges">
<defs>
<linearGradient id="linear0" gradientUnits="userSpaceOnUse" x1="0" y1="0" x2="16.666667" y2="0" >
<stop offset="0" style="stop-color:rgb(100%,0%,0%);stop-opacity:1;"/>
<stop offset="1" style="stop-color:rgb(100%,0%,0%);stop-opacity:0.5;"/>
</linearGradient>
<linearGradient id="linear1" gradientUnits="userSpaceOnUse" x1="16.666667" y1="0" x2="33.333333" y2="0" >
<stop offset="0" style="stop-color:rgb(100%,64.705882%,0%);stop-opacity:1;"/>
<stop offset="1" style="stop-color:rgb(100%,64.705882%,0%);stop-opacity:0.5;"/>
</linearGradient>
<linearGradient id="linear2" gradientUnits="userSpaceOnUse" x1="33.333333" y1="0" x2="50" y2="0" >
<stop offset="0" style="stop-color:rgb(100%,100%,0%);stop-opacity:1;"/>
<stop offset="1" style="stop-color:rgb(100%,100%,0%);stop-opacity:0.5;"/>
</linearGradient>
<linearGradient id="linear3" gradientUnits="userSpaceOnUse" x1="50" y1="0" x2="66.666667" y2="0" >
<stop offset="0" style="stop-color:rgb(100%,0%,0%);stop-opacity:1;"/>
<stop offset="1" style="stop-color:rgb(100%,0%,0%);stop-opacity:0.5;"/>
</linearGradient>
<linearGradient id="linear4" gradientUnits="userSpaceOnUse" x1="66.666667" y1="0" x2="83.333333" y2="0" >
<stop offset="0" style="stop-color:rgb(100%,64.705882%,0%);stop-opacity:1;"/>
<stop offset="1" style="stop-color:rgb(100%,64.705882%,0%);stop-opacity:0.5;"/>
</linearGradient>
<linearGradient id="linear5" gradientUnits="userSpaceOnUse" x1="83.333333" y1="0" x2="100" y2="0" >
<stop offset="0" style="stop-color:rgb(100%,100%,0%);stop-opacity:1;"/>
<stop offset="1" style="stop-color:rgb(100%,100%,0%);stop-opacity:0.5;"/>
</linearGradient>
<linearGradient id="linear6" gradientUnits="userSpaceOnUse" x1="100" y1="0" x2="116.666667" y2="0" >
<stop offset="0" style="stop-color:rgb(100%,0%,0%);stop-opacity:1;"/>
<stop offset="1" style="stop-color:rgb(100%,0%,0%);stop-opacity:0.5;"/>
</linearGradient>
<linearGradient id="linear7" gradientUnits="userSpaceOnUse" x1="116.666667" y1="0" x2="133.333333" y2="0" >
<stop offset="0" style="stop-color:rgb(100%,64.705882%,0%);stop-opacity:1;"/>
<stop offset="1" style="stop-color:rgb(100%,64.705882%,0%);stop-opacity:0.5;"/>
</linearGradient>
<linearGradient id="linear8" gradientUnits="userSpaceOnUse" x1="133.333333" y1="0" x2="150" y2="0" >
<stop offset="0" style="stop-color:rgb(100%,100%,0%);stop-opacity:1;"/>
<stop offset="1" style="stop-color:rgb(100%,100%,0%);stop-opacity:0.5;"/>
</linearGradient>
<linearGradient id="linear9" gradientUnits="userSpaceOnUse" x1="150" y1="0" x2="166.666667" y2="0" >
<stop offset="0" style="stop-color:rgb(100%,0%,0%);stop-opacity:1;"/>
<stop offset="1" style="stop-color:rgb(100%,0%,0%);stop-opacity:0.5;"/>
</linearGradient>
<linearGradient id="linear10" gradientUnits="userSpaceOnUse" x1="166.666667" y1="0" x2="183.333333" y2="0" >
<stop offset="0" style="stop-color:rgb(100%,64.705882%,0%);stop-opacity:1;"/>
<stop offset="1" style="stop-color:rgb(100%,64.705882%,0%);stop-opacity:0.5;"/>
</linearGradient>
<linearGradient id="linear11" gradientUnits="userSpaceOnUse" x1="183.333333" y1="0" x2="200" y2="0" >
<stop offset="0" style="stop-color:rgb(100%,100%,0%);stop-opacity:1;"/>
<stop offset="1" style="stop-color:rgb(100%,100%,0%);stop-opacity:0.5;"/>
</linearGradient>
<linearGradient id="linear12" gradientUnits="userSpaceOnUse" x1="200" y1="0" x2="216.666667" y2="0" >
<stop offset="0" style="stop-color:rgb(100%,0%,0%);stop-opacity:1;"/>
<stop offset="1" style="stop-color:rgb(100%,0%,0%);stop-opacity:0.5;"/>
</linearGradient>
<linearGradient id="linear13" gradientUnits="userSpaceOnUse" x1="216.666667" y1="0" x2="233.333333" y2="0" >
<stop offset="0" style="stop-color:rgb(100%,64.705882%,0%);stop-opacity:1;"/>
<stop offset="1" style="stop-color:rgb(100%,64.705882%,0%);stop-opacity:0.5;"/>
</linearGradient>
<linearGradient id="linear14" gradientUnits="userSpaceOnUse" x1="233.333333" y1="0" x2="250" y2="0" >
<stop offset="0" style="stop-color:rgb(100%,100%,0%);stop-opacity:1;"/>
<stop offset="1" style="stop-color:rgb(100%,100%,0%);stop-opacity:0.5;"/>
</linearGradient>
<linearGradient id="linear15" gradientUnits="userSpaceOnUse" x1="250" y1="0" x2="266.666667" y2="0" >
<stop offset="0" style="stop-color:rgb(100%,0%,0%);stop-opacity:1;"/>
<stop offset="1" style="stop-color:rgb(100%,0%,0%);stop-opacity:0.5;"/>
</linearGradient>
<linearGradient id="linear16" gradientUnits="userSpaceOnUse" x1="266.666667" y1="0" x2="283.333333" y2="0" >
<stop offset="0" style="stop-color:rgb(100%,64.705882%,0%);stop-opacity:1;"/>
<stop offset="1" style="stop-color:rgb(100%,64.705882%,0%);stop-opacity:0.5;"/>
</linearGradient>
<linearGradient id="linear17" gradientUnits="userSpaceOnUse" x1="283.333333" y1="0" x2="300" y2="0" >
<stop offset="0" style="stop-color:rgb(100%,100%,0%);stop-opacity:1;"/>
<stop offset="1" style="stop-color:rgb(100%,100%,0%);stop-opacity:0.5;"/>
</linearGradient>
<linearGradient id="linear18" gradientUnits="userSpaceOnUse" x1="300" y1="0" x2="316.666667" y2="0" >
<stop offset="0" style="stop-color:rgb(100%,0%,0%);stop-opacity:1;"/>
<stop offset="1" style="stop-color:rgb(100%,0%,0%);stop-opacity:0.5;"/>
</linearGradient>
<linearGradient id="linear19" gradientUnits="userSpaceOnUse" x1="316.666667" y1="0" x2="333.333333" y2="0" >
<stop offset="0" style="stop-color:rgb(100%,64.705882%,0%);stop-opacity:1;"/>
<stop offset="1" style="stop-color:rgb(100%,64.705882%,0%);stop-opacity:0.5;"/>
</linearGradient>
<linearGradient id="linear20" gradientUnits="userSpaceOnUse" x1="333.333333" y1="0" x2="350" y2="0" >
<stop offset="0" style="stop-color:rgb(100%,100%,0%);stop-opacity:1;"/>
<stop offset="1" style="stop-color:rgb(100%,100%,0%);stop-opacity:0.5;"/>
</linearGradient>
<linearGradient id="linear21" gradientUnits="userSpaceOnUse" x1="350" y1="0" x2="366.666667" y2="0" >
<stop offset="0" style="stop-color:rgb(100%,0%,0%);stop-opacity:1;"/>
<stop offset="1" style="stop-color:rgb(100%,0%,0%);stop-opacity:0.5;"/>
</linearGradient>
<linearGradient id="linear22" gradientUnits="userSpaceOnUse" x1="366.666667" y1="0" x2="383.333333" y2="0" >
<stop offset="0" style="stop-color:rgb(100%,64.705882%,0%);stop-opacity:1;"/>
<stop offset="1" style="stop-color:rgb(100%,64.705882%,0%);stop-opacity:0.5;"/>
</linearGradient>
<linearGradient id="linear23" gradientUnits="userSpaceOnUse" x1="383.333333" y1="0" x2="400" y2="0" >
<stop offset="0" style="stop-color:rgb(100%,100%,0%);stop-opacity:1;"/>
<stop offset="1" style="stop-color:rgb(100%,100%,0%);stop-opacity:0.5;"/>
</linearGradient>
<linearGradient id="linear24" gradientUnits="userSpaceOnUse" x1="400" y1="0" x2="416.666667" y2="0" >
<stop offset="0" style="stop-color:rgb(100%,0%,0%);stop-opacity:1;"/>
<stop offset="1" style="stop-color:rgb(100%,0%,0%);stop-opacity:0.5;"/>
</linearGradient>
<linearGradient id="linear25" gradientUnits="userSpaceOnUse" x1="416.666667" y1="0" x2="433.333333" y2="0" >
<stop offset="0" style="stop-color:rgb(100%,64.705882%,0%);stop-opacity:1;"/>
<stop offset="1" style="stop-color:rgb(100%,64.705882%,0%);stop-opacity:0.5;"/>
</linearGradient>
<linearGradient id="linear26" gradientUnits="userSpaceOnUse" x1="433.333333" y1="0" x2="450" y2="0" >
<stop offset="0" style="stop-color:rgb(100%,100%,0%);stop-opacity:1;"/>
<stop offset="1" style="stop-color:rgb(100%,100%,0%);stop-opacity:0.5;"/>
</linearGradient>
<linearGradient id="linear27" gradientUnits="userSpaceOnUse" x1="450" y1="0" x2="466.666667" y2="0" >
<stop offset="0" style="stop-color:rgb(100%,0%,0%);stop-opacity:1;"/>
<stop offset="1" style="stop-color:rgb(100%,0%,0%);stop-opacity:0.5;"/>
</linearGradient>
<linearGradient id="linear28" gradientUnits="userSpaceOnUse" x1="466.666667" y1="0" x2="483.333333" y2="0" >
<stop offset="0" style="stop-color:rgb(100%,64.705882%,0%);stop-opacity:1;"/>
<stop offset="1" style="stop-color:rgb(100%,64.705882%,0%);stop-opacity:0.5;"/>
</linearGradient>
<linearGradient id="linear29" gradientUnits="userSpaceOnUse" x1="483.333333" y1="0" x2="500" y2="0" >
<stop offset="0" style="stop-color:rgb(100%,100%,0%);stop-opacity:1;"/>
<stop offset="1" style="stop-color:rgb(100%,100%,0%);stop-opacity:0.5;"/>
</linearGradient>
<linearGradient id="linear30" gradientUnits="userSpaceOnUse" x1="500" y1="0" x2="516.666667" y2="0" >
<stop offset="0" style="stop-color:rgb(100%,0%,0%);stop-opacity:1;"/>
<stop offset="1" style="stop-color:rgb(100%,0%,0%);stop-opacity:0.5;"/>
</linearGradient>
<linearGradient id="linear31" gradientUnits="userSpaceOnUse" x1="516.666667" y1="0" x2="533.333333" y2="0" >
<stop offset="0" style="stop-color:rgb(100%,64.705882%,0%);stop-opacity:1;"/>
<stop offset="1" style="stop-color:rgb(100%,64.705882%,0%);stop-opacity:0.5;"/>
</linearGradient>
<linearGradient id="linear32" gradientUnits="userSpaceOnUse" x1="533.333333" y1="0" x2="550" y2="0" >
<stop offset="0" style="stop-color:rgb(100%,100%,0%);stop-opacity:1;"/>
<stop offset="1" style="stop-color:rgb(100%,100%,0%);stop-opacity:0.5;"/>
</linearGradient>
<linearGradient id="linear33" gradientUnits="userSpaceOnUse" x1="550" y1="0" x2="566.666667" y2="0" >
<stop offset="0" style="stop-color:rgb(100%,0%,0%);stop-opacity:1;"/>
<stop offset="1" style="stop-color:rgb(100%,0%,0%);stop-opacity:0.5;"/>
</linearGradient>
<linearGradient id="linear34" gradientUnits="userSpaceOnUse" x1="566.666667" y1="0" x2="583.333333" y2="0" >
<stop offset="0" style="stop-color:rgb(100%,64.705882%,0%);stop-opacity:1;"/>
<stop offset="1" style="stop-color:rgb(100%,64.705882%,0%);stop-opacity:0.5;"/>
</linearGradient>
<linearGradient id="linear35" gradientUnits="userSpaceOnUse" x1="583.333333" y1="0" x2="600" y2="0" >
<stop offset="0" style="stop-color:rgb(100%,100%,0%);stop-opacity:1;"/>
<stop offset="1" style="stop-color:rgb(100%,100%,0%);stop-opacity:0.5;"/>
</linearGradient>
</defs>
<g id="surface29">
<path style=" stroke:none;fill-rule:nonzero;fill:url(#linear0);" d="M 0 0 L 16.667969 0 L 16.667969 15 L 0 15 Z M 0 0 "/>
<path style=" stroke:none;fill-rule:nonzero;fill:url(#linear1);" d="M 16.667969 0 L 33.335938 0 L 33.335938 15 L 16.667969 15 Z M 16.667969 0 "/>
<path style=" stroke:none;fill-rule:nonzero;fill:url(#linear2);" d="M 33.332031 0 L 50 0 L 50 15 L 33.332031 15 Z M 33.332031 0 "/>
<path style=" stroke:none;fill-rule:nonzero;fill:url(#linear3);" d="M 50 0 L 66.667969 0 L 66.667969 15 L 50 15 Z M 50 0 "/>
<path style=" stroke:none;fill-rule:nonzero;fill:url(#linear4);" d="M 66.667969 0 L 83.335938 0 L 83.335938 15 L 66.667969 15 Z M 66.667969 0 "/>
<path style=" stroke:none;fill-rule:nonzero;fill:url(#linear5);" d="M 83.332031 0 L 100 0 L 100 15 L 83.332031 15 Z M 83.332031 0 "/>
<path style=" stroke:none;fill-rule:nonzero;fill:url(#linear6);" d="M 100 0 L 116.667969 0 L 116.667969 15 L 100 15 Z M 100 0 "/>
<path style=" stroke:none;fill-rule:nonzero;fill:url(#linear7);" d="M 116.667969 0 L 133.335938 0 L 133.335938 15 L 116.667969 15 Z M 116.667969 0 "/>
<path style=" stroke:none;fill-rule:nonzero;fill:url(#linear8);" d="M 133.332031 0 L 150 0 L 150 15 L 133.332031 15 Z M 133.332031 0 "/>
<path style=" stroke:none;fill-rule:nonzero;fill:url(#linear9);" d="M 150 0 L 166.667969 0 L 166.667969 15 L 150 15 Z M 150 0 "/>
<path style=" stroke:none;fill-rule:nonzero;fill:url(#linear10);" d="M 166.667969 0 L 183.335938 0 L 183.335938 15 L 166.667969 15 Z M 166.667969 0 "/>
<path style=" stroke:none;fill-rule:nonzero;fill:url(#linear11);" d="M 183.332031 0 L 200 0 L 200 15 L 183.332031 15 Z M 183.332031 0 "/>
<path style=" stroke:none;fill-rule:nonzero;fill:url(#linear12);" d="M 200 0 L 216.667969 0 L 216.667969 15 L 200 15 Z M 200 0 "/>
<path style=" stroke:none;fill-rule:nonzero;fill:url(#linear13);" d="M 216.667969 0 L 233.335938 0 L 233.335938 15 L 216.667969 15 Z M 216.667969 0 "/>
<path style=" stroke:none;fill-rule:nonzero;fill:url(#linear14);" d="M 233.332031 0 L 250 0 L 250 15 L 233.332031 15 Z M 233.332031 0 "/>
<path style=" stroke:none;fill-rule:nonzero;fill:url(#linear15);" d="M 250 0 L 266.667969 0 L 266.667969 15 L 250 15 Z M 250 0 "/>
<path style=" stroke:none;fill-rule:nonzero;fill:url(#linear16);" d="M 266.667969 0 L 283.335938 0 L 283.335938 15 L 266.667969 15 Z M 266.667969 0 "/>
<path style=" stroke:none;fill-rule:nonzero;fill:url(#linear17);" d="M 283.332031 0 L 300 0 L 300 15 L 283.332031 15 Z M 283.332031 0 "/>
<path style=" stroke:none;fill-rule:nonzero;fill:url(#linear18);" d="M 300 0 L 316.667969 0 L 316.667969 15 L 300 15 Z M 300 0 "/>
<path style=" stroke:none;fill-rule:nonzero;fill:url(#linear19);" d="M 316.667969 0 L 333.335938 0 L 333.335938 15 L 316.667969 15 Z M 316.667969 0 "/>
<path style=" stroke:none;fill-rule:nonzero;fill:url(#linear20);" d="M 333.332031 0 L 350 0 L 350 15 L 333.332031 15 Z M 333.332031 0 "/>
<path style=" stroke:none;fill-rule:nonzero;fill:url(#linear21);" d="M 350 0 L 366.667969 0 L 366.667969 15 L 350 15 Z M 350 0 "/>
<path style=" stroke:none;fill-rule:nonzero;fill:url(#linear22);" d="M 366.667969 0 L 383.335938 0 L 383.335938 15 L 366.667969 15 Z M 366.667969 0 "/>
<path style=" stroke:none;fill-rule:nonzero;fill:url(#linear23);" d="M 383.332031 0 L 400 0 L 400 15 L 383.332031 15 Z M 383.332031 0 "/>
<path style=" stroke:none;fill-rule:nonzero;fill:url(#linear24);" d="M 400 0 L 416.667969 0 L 416.667969 15 L 400 15 Z M 400 0 "/>
<path style=" stroke:none;fill-rule:nonzero;fill:url(#linear25);" d="M 416.667969 0 L 433.335938 0 L 433.335938 15 L 416.667969 15 Z M 416.667969 0 "/>
<path style=" stroke:none;fill-rule:nonzero;fill:url(#linear26);" d="M 433.332031 0 L 450 0 L 450 15 L 433.332031 15 Z M 433.332031 0 "/>
<path style=" stroke:none;fill-rule:nonzero;fill:url(#linear27);" d="M 450 0 L 466.667969 0 L 466.667969 15 L 450 15 Z M 450 0 "/>
<path style=" stroke:none;fill-rule:nonzero;fill:url(#linear28);" d="M 466.667969 0 L 483.335938 0 L 483.335938 15 L 466.667969 15 Z M 466.667969 0 "/>
<path style=" stroke:none;fill-rule:nonzero;fill:url(#linear29);" d="M 483.332031 0 L 500 0 L 500 15 L 483.332031 15 Z M 483.332031 0 "/>
<path style=" stroke:none;fill-rule:nonzero;fill:url(#linear30);" d="M 500 0 L 516.667969 0 L 516.667969 15 L 500 15 Z M 500 0 "/>
<path style=" stroke:none;fill-rule:nonzero;fill:url(#linear31);" d="M 516.667969 0 L 533.335938 0 L 533.335938 15 L 516.667969 15 Z M 516.667969 0 "/>
<path style=" stroke:none;fill-rule:nonzero;fill:url(#linear32);" d="M 533.332031 0 L 550 0 L 550 15 L 533.332031 15 Z M 533.332031 0 "/>
<path style=" stroke:none;fill-rule:nonzero;fill:url(#linear33);" d="M 550 0 L 566.667969 0 L 566.667969 15 L 550 15 Z M 550 0 "/>
<path style=" stroke:none;fill-rule:nonzero;fill:url(#linear34);" d="M 566.667969 0 L 583.335938 0 L 583.335938 15 L 566.667969 15 Z M 566.667969 0 "/>
<path style=" stroke:none;fill-rule:nonzero;fill:url(#linear35);" d="M 583.332031 0 L 600 0 L 600 15 L 583.332031 15 Z M 583.332031 0 "/>
</g>
</svg>
