<?xml version="1.0" encoding="UTF-8"?>
<svg xmlns="http://www.w3.org/2000/svg" xmlns:xlink="http://www.w3.org/1999/xlink" width="600pt" height="15pt" viewBox="0 0 600 15" version="1.1" shape-rendering="crispEdges">
<defs>
<linearGradient id="linear0" gradientUnits="userSpaceOnUse" x1="0" y1="0" x2="25" y2="0" >
<stop offset="0" style="stop-color:rgb(100%,0%,0%);stop-opacity:1;"/>
<stop offset="1" style="stop-color:rgb(100%,0%,0%);stop-opacity:0.5;"/>
</linearGradient>
<linearGradient id="linear1" gradientUnits="userSpaceOnUse" x1="25" y1="0" x2="50" y2="0" >
<stop offset="0" style="stop-color:rgb(100%,64.705882%,0%);stop-opacity:1;"/>
<stop offset="1" style="stop-color:rgb(100%,64.705882%,0%);stop-opacity:0.5;"/>
</linearGradient>
<linearGradient id="linear2" gradientUnits="userSpaceOnUse" x1="75" y1="0" x2="100" y2="0" >
<stop offset="0" style="stop-color:rgb(100%,0%,0%);stop-opacity:1;"/>
<stop offset="1" style="stop-color:rgb(100%,0%,0%);stop-opacity:0.5;"/>
</linearGradient>
<linearGradient id="linear3" gradientUnits="userSpaceOnUse" x1="50" y1="0" x2="75" y2="0" >
<stop offset="0" style="stop-color:rgb(100%,64.705882%,0%);stop-opacity:1;"/>
<stop offset="1" style="stop-color:rgb(100%,64.705882%,0%);stop-opacity:0.5;"/>
</linearGradient>
<linearGradient id="linear4" gradientUnits="userSpaceOnUse" x1="100" y1="0" x2="125" y2="0" >
<stop offset="0" style="stop-color:rgb(100%,0%,0%);stop-opacity:1;"/>
<stop offset="1" style="stop-color:rgb(100%,0%,0%);stop-opacity:0.5;"/>
</linearGradient>
<linearGradient id="linear5" gradientUnits="userSpaceOnUse" x1="125" y1="0" x2="150" y2="0" >
<stop offset="0" style="stop-color:rgb(100%,64.705882%,0%);stop-opacity:1;"/>
<stop offset="1" style="stop-color:rgb(100%,64.705882%,0%);stop-opacity:0.5;"/>
</linearGradient>
<linearGradient id="linear6" gradientUnits="userSpaceOnUse" x1="175" y1="0" x2="200" y2="0" >
<stop offset="0" style="stop-color:rgb(100%,0%,0%);stop-opacity:1;"/>
<stop offset="1" style="stop-color:rgb(100%,0%,0%);stop-opacity:0.5;"/>
</linearGradient>
<linearGradient id="linear7" gradientUnits="userSpaceOnUse" x1="150" y1="0" x2="175" y2="0" >
<stop offset="0" style="stop-color:rgb(100%,64.705882%,0%);stop-opacity:1;"/>
<stop offset="1" style="stop-color:rgb(100%,64.705882%,0%);stop-opacity:0.5;"/>
</linearGradient>
<linearGradient id="linear8" gradientUnits="userSpaceOnUse" x1="200" y1="0" x2="225" y2="0" >
<stop offset="0" style="stop-color:rgb(100%,0%,0%);stop-opacity:1;"/>
<stop offset="1" style="stop-color:rgb(100%,0%,0%);stop-opacity:0.5;"/>
</linearGradient>
<linearGradient id="linear9" gradientUnits="userSpaceOnUse" x1="225" y1="0" x2="250" y2="0" >
<stop offset="0" style="stop-color:rgb(100%,64.705882%,0%);stop-opacity:1;"/>
<stop offset="1" style="stop-color:rgb(100%,64.705882%,0%);stop-opacity:0.5;"/>
</linearGradient>
<linearGradient id="linear10" gradientUnits="userSpaceOnUse" x1="275" y1="0" x2="300" y2="0" >
<stop offset="0" style="stop-color:rgb(100%,0%,0%);stop-opacity:1;"/>
<stop offset="1" style="stop-color:rgb(100%,0%,0%);stop-opacity:0.5;"/>
</linearGradient>
<linearGradient id="linear11" gradientUnits="userSpaceOnUse" x1="250" y1="0" x2="275" y2="0" >
<stop offset="0" style="stop-color:rgb(100%,64.705882%,0%);stop-opacity:1;"/>
<stop offset="1" style="stop-color:rgb(100%,64.705882%,0%);stop-opacity:0.5;"/>
</linearGradient>
<linearGradient id="linear12" gradientUnits="userSpaceOnUse" x1="300" y1="0" x2="325" y2="0" >
<stop offset="0" style="stop-color:rgb(100%,0%,0%);stop-opacity:1;"/>
<stop offset="1" style="stop-color:rgb(100%,0%,0%);stop-opacity:0.5;"/>
</linearGradient>
<linearGradient id="linear13" gradientUnits="userSpaceOnUse" x1="325" y1="0" x2="350" y2="0" >
<stop offset="0" style="stop-color:rgb(100%,64.705882%,0%);stop-opacity:1;"/>
<stop offset="1" style="stop-color:rgb(100%,64.705882%,0%);stop-opacity:0.5;"/>
</linearGradient>
<linearGradient id="linear14" gradientUnits="userSpaceOnUse" x1="375" y1="0" x2="400" y2="0" >
<stop offset="0" style="stop-color:rgb(100%,0%,0%);stop-opacity:1;"/>
<stop offset="1" style="stop-color:rgb(100%,0%,0%);stop-opacity:0.5;"/>
</linearGradient>
<linearGradient id="linear15" gradientUnits="userSpaceOnUse" x1="350" y1="0" x2="375" y2="0" >
<stop offset="0" style="stop-color:rgb(100%,64.705882%,0%);stop-opacity:1;"/>
<stop offset="1" style="stop-color:rgb(100%,64.705882%,0%);stop-opacity:0.5;"/>
</linearGradient>
<linearGradient id="linear16" gradientUnits="userSpaceOnUse" x1="400" y1="0" x2="425" y2="0" >
<stop offset="0" style="stop-color:rgb(100%,0%,0%);stop-opacity:1;"/>
<stop offset="1" style="stop-color:rgb(100%,0%,0%);stop-opacity:0.5;"/>
</linearGradient>
<linearGradient id="linear17" gradientUnits="userSpaceOnUse" x1="425" y1="0" x2="450" y2="0" >
<stop offset="0" style="stop-color:rgb(100%,64.705882%,0%);stop-opacity:1;"/>
<stop offset="1" style="stop-color:rgb(100%,64.705882%,0%);stop-opacity:0.5;"/>
</linearGradient>
<linearGradient id="linear18" gradientUnits="userSpaceOnUse" x1="475" y1="0" x2="500" y2="0" >
<stop offset="0" style="stop-color:rgb(100%,0%,0%);stop-opacity:1;"/>
<stop offset="1" style="stop-color:rgb(100%,0%,0%);stop-opacity:0.5;"/>
</linearGradient>
<linearGradient id="linear19" gradientUnits="userSpaceOnUse" x1="450" y1="0" x2="475" y2="0" >
<stop offset="0" style="stop-color:rgb(100%,64.705882%,0%);stop-opacity:1;"/>
<stop offset="1" style="stop-color:rgb(100%,64.705882%,0%);stop-opacity:0.5;"/>
</linearGradient>
<linearGradient id="linear20" gradientUnits="userSpaceOnUse" x1="500" y1="0" x2="525" y2="0" >
<stop offset="0" style="stop-color:rgb(100%,0%,0%);stop-opacity:1;"/>
<stop offset="1" style="stop-color:rgb(100%,0%,0%);stop-opacity:0.5;"/>
</linearGradient>
<linearGradient id="linear21" gradientUnits="userSpaceOnUse" x1="525" y1="0" x2="550" y2="0" >
<stop offset="0" style="stop-color:rgb(100%,64.705882%,0%);stop-opacity:1;"/>
<stop offset="1" style="stop-color:rgb(100%,64.705882%,0%);stop-opacity:0.5;"/>
</linearGradient>
<linearGradient id="linear22" gradientUnits="userSpaceOnUse" x1="575" y1="0" x2="600" y2="0" >
<stop offset="0" style="stop-color:rgb(100%,0%,0%);stop-opacity:1;"/>
<stop offset="1" style="stop-color:rgb(100%,0%,0%);stop-opacity:0.5;"/>
</linearGradient>
<linearGradient id="linear23" gradientUnits="userSpaceOnUse" x1="550" y1="0" x2="575" y2="0" >
<stop offset="0" style="stop-color:rgb(100%,64.705882%,0%);stop-opacity:1;"/>
<stop offset="1" style="stop-color:rgb(100%,64.705882%,0%);stop-opacity:0.5;"/>
</linearGradient>
</defs>
<g id="surface21">
<path style=" stroke:none;fill-rule:nonzero;fill:url(#linear0);" d="M 0 0 L 25 0 L 25 15 L 0 15 Z M 0 0 "/>
<path style=" stroke:none;fill-rule:nonzero;fill:url(#linear1);" d="M 25 0 L 50 0 L 50 15 L 25 15 Z M 25 0 "/>
<path style=" stroke:none;fill-rule:nonzero;fill:url(#linear2);" d="M 75 0 L 100 0 L 100 15 L 75 15 Z M 75 0 "/>
<path style=" stroke:none;fill-rule:nonzero;fill:url(#linear3);" d="M 50 0 L 75 0 L 75 15 L 50 15 Z M 50 0 "/>
<path style=" stroke:none;fill-rule:nonzero;fill:url(#linear4);" d="M 100 0 L 125 0 L 125 15 L 100 15 Z M 100 0 "/>
<path style=" stroke:none;fill-rule:nonzero;fill:url(#linear5);" d="M 125 0 L 150 0 L 150 15 L 125 15 Z M 125 0 "/>
<path style=" stroke:none;fill-rule:nonzero;fill:url(#linear6);" d="M 175 0 L 200 0 L 200 15 L 175 15 Z M 175 0 "/>
<path style=" stroke:none;fill-rule:nonzero;fill:url(#linear7);" d="M 150 0 L 175 0 L 175 15 L 150 15 Z M 150 0 "/>
<path style=" stroke:none;fill-rule:nonzero;fill:url(#linear8);" d="M 200 0 L 225 0 L 225 15 L 200 15 Z M 200 0 "/>
<path style=" stroke:none;fill-rule:nonzero;fill:url(#linear9);" d="M 225 0 L 250 0 L 250 15 L 225 15 Z M 225 0 "/>
<path style=" stroke:none;fill-rule:nonzero;fill:url(#linear10);" d="M 275 0 L 300 0 L 300 15 L 275 15 Z M 275 0 "/>
<path style=" stroke:none;fill-rule:nonzero;fill:url(#linear11);" d="M 250 0 L 275 0 L 275 15 L 250 15 Z M 250 0 "/>
<path style=" stroke:none;fill-rule:nonzero;fill:url(#linear12);" d="M 300 0 L 325 0 L 325 15 L 300 15 Z M 300 0 "/>
<path style=" stroke:none;fill-rule:nonzero;fill:url(#linear13);" d="M 325 0 L 350 0 L 350 15 L 325 15 Z M 325 0 "/>
<path style=" stroke:none;fill-rule:nonzero;fill:url(#linear14);" d="M 375 0 L 400 0 L 400 15 L 375 15 Z M 375 0 "/>
<path style=" stroke:none;fill-rule:nonzero;fill:url(#linear15);" d="M 350 0 L 375 0 L 375 15 L 350 15 Z M 350 0 "/>
<path style=" stroke:none;fill-rule:nonzero;fill:url(#linear16);" d="M 400 0 L 425 0 L 425 15 L 400 15 Z M 400 0 "/>
<path style=" stroke:none;fill-rule:nonzero;fill:url(#linear17);" d="M 425 0 L 450 0 L 450 15 L 425 15 Z M 425 0 "/>
<path style=" stroke:none;fill-rule:nonzero;fill:url(#linear18);" d="M 475 0 L 500 0 L 500 15 L 475 15 Z M 475 0 "/>
<path style=" stroke:none;fill-rule:nonzero;fill:url(#linear19);" d="M 450 0 L 475 0 L 475 15 L 450 15 Z M 450 0 "/>
<path style=" stroke:none;fill-rule:nonzero;fill:url(#linear20);" d="M 500 0 L 525 0 L 525 15 L 500 15 Z M 500 0 "/>
<path style=" stroke:none;fill-rule:nonzero;fill:url(#linear21);" d="M 525 0 L 550 0 L 550 15 L 525 15 Z M 525 0 "/>
<path style=" stroke:none;fill-rule:nonzero;fill:url(#linear22);" d="M 575 0 L 600 0 L 600 15 L 575 15 Z M 575 0 "/>
<path style=" stroke:none;fill-rule:nonzero;fill:url(#linear23);" d="M 550 0 L 575 0 L 575 15 L 550 15 Z M 550 0 "/>
</g>
</svg>
