<?xml version="1.0" encoding="UTF-8"?>
<svg xmlns="http://www.w3.org/2000/svg" xmlns:xlink="http://www.w3.org/1999/xlink" width="400pt" height="400pt" viewBox="0 0 400 400" version="1.1" shape-rendering="crispEdges">
<g id="surface5">
<path style=" stroke:none;fill-rule:nonzero;fill:rgb(0%,0%,0%);fill-opacity:1;" d="M 0 0 L 400 0 L 400 40 L 0 40 Z M 0 0 "/>
<path style=" stroke:none;fill-rule:nonzero;fill:rgb(50.196078%,50.196078%,50.196078%);fill-opacity:1;" d="M 0 0 L 40 0 L 40 40 L 0 40 Z M 0 0 "/>
<path style=" stroke:none;fill-rule:nonzero;fill:rgb(50.196078%,50.196078%,50.196078%);fill-opacity:1;" d="M 40 0 L 80 0 L 80 40 L 40 40 Z M 40 0 "/>
<path style=" stroke:none;fill-rule:nonzero;fill:rgb(50.196078%,50.196078%,50.196078%);fill-opacity:1;" d="M 80 0 L 120 0 L 120 40 L 80 40 Z M 80 0 "/>
<path style=" stroke:none;fill-rule:nonzero;fill:rgb(50.196078%,50.196078%,50.196078%);fill-opacity:1;" d="M 120 0 L 160 0 L 160 40 L 120 40 Z M 120 0 "/>
<path style=" stroke:none;fill-rule:nonzero;fill:rgb(50.196078%,50.196078%,50.196078%);fill-opacity:1;" d="M 160 0 L 200 0 L 200 40 L 160 40 Z M 160 0 "/>
<path style=" stroke:none;fill-rule:nonzero;fill:rgb(50.196078%,50.196078%,50.196078%);fill-opacity:1;" d="M 200 0 L 240 0 L 240 40 L 200 40 Z M 200 0 "/>
<path style=" stroke:none;fill-rule:nonzero;fill:rgb(50.196078%,50.196078%,50.196078%);fill-opacity:1;" d="M 240 0 L 280 0 L 280 40 L 240 40 Z M 240 0 "/>
<path style=" stroke:none;fill-rule:nonzero;fill:rgb(50.196078%,50.196078%,50.196078%);fill-opacity:1;" d="M 280 0 L 320 0 L 320 40 L 280 40 Z M 280 0 "/>
<path style=" stroke:none;fill-rule:nonzero;fill:rgb(50.196078%,50.196078%,50.196078%);fill-opacity:1;" d="M 320 0 L 360 0 L 360 40 L 320 40 Z M 320 0 "/>
<path style=" stroke:none;fill-rule:nonzero;fill:rgb(50.196078%,50.196078%,50.196078%);fill-opacity:1;" d="M 360 0 L 400 0 L 400 40 L 360 40 Z M 360 0 "/>
<path style=" stroke:none;fill-rule:nonzero;fill:rgb(50.196078%,50.196078%,50.196078%);fill-opacity:1;" d="M 0 40 L 40 40 L 40 80 L 0 80 Z M 0 40 "/>
<path style=" stroke:none;fill-rule:nonzero;fill:rgb(50.196078%,50.196078%,50.196078%);fill-opacity:1;" d="M 40 40 L 80 40 L 80 80 L 40 80 Z M 40 40 "/>
<path style=" stroke:none;fill-rule:nonzero;fill:rgb(50.196078%,50.196078%,50.196078%);fill-opacity:1;" d="M 80 40 L 120 40 L 120 80 L 80 80 Z M 80 40 "/>
<path style=" stroke:none;fill-rule:nonzero;fill:rgb(50.196078%,50.196078%,50.196078%);fill-opacity:1;" d="M 120 40 L 160 40 L 160 80 L 120 80 Z M 120 40 "/>
<path style=" stroke:none;fill-rule:nonzero;fill:rgb(50.196078%,50.196078%,50.196078%);fill-opacity:1;" d="M 160 40 L 200 40 L 200 80 L 160 80 Z M 160 40 "/>
<path style=" stroke:none;fill-rule:nonzero;fill:rgb(50.196078%,50.196078%,50.196078%);fill-opacity:1;" d="M 200 40 L 240 40 L 240 80 L 200 80 Z M 200 40 "/>
<path style=" stroke:none;fill-rule:nonzero;fill:rgb(50.196078%,50.196078%,50.196078%);fill-opacity:1;" d="M 240 40 L 280 40 L 280 80 L 240 80 Z M 240 40 "/>
<path style=" stroke:none;fill-rule:nonzero;fill:rgb(50.196078%,50.196078%,50.196078%);fill-opacity:1;" d="M 280 40 L 320 40 L 320 80 L 280 80 Z M 280 40 "/>
<path style=" stroke:none;fill-rule:nonzero;fill:rgb(50.196078%,50.196078%,50.196078%);fill-opacity:1;" d="M 320 40 L 360 40 L 360 80 L 320 80 Z M 320 40 "/>
<path style=" stroke:none;fill-rule:nonzero;fill:rgb(50.196078%,50.196078%,50.196078%);fill-opacity:1;" d="M 360 40 L 400 40 L 400 80 L 360 80 Z M 360 40 "/>
<path style=" stroke:none;fill-rule:nonzero;fill:rgb(50.196078%,50.196078%,50.196078%);fill-opacity:1;" d="M 0 80 L 40 80 L 40 120 L 0 120 Z M 0 80 "/>
<path style=" stroke:none;fill-rule:nonzero;fill:rgb(50.196078%,50.196078%,50.196078%);fill-opacity:1;" d="M 40 80 L 80 80 L 80 120 L 40 120 Z M 40 80 "/>
<path style=" stroke:none;fill-rule:nonzero;fill:rgb(50.196078%,50.196078%,50.196078%);fill-opacity:1;" d="M 80 80 L 120 80 L 120 120 L 80 120 Z M 80 80 "/>
<path style=" stroke:none;fill-rule:nonzero;fill:rgb(50.196078%,50.196078%,50.196078%);fill-opacity:1;" d="M 120 80 L 160 80 L 160 120 L 120 120 Z M 120 80 "/>
<path style=" stroke:none;fill-rule:nonzero;fill:rgb(50.196078%,50.196078%,50.196078%);fill-opacity:1;" d="M 160 80 L 200 80 L 200 120 L 160 120 Z M 160 80 "/>
<path style=" stroke:none;fill-rule:nonzero;fill:rgb(50.196078%,50.196078%,50.196078%);fill-opacity:1;" d="M 200 80 L 240 80 L 240 120 L 200 120 Z M 200 80 "/>
<path style=" stroke:none;fill-rule:nonzero;fill:rgb(50.196078%,50.196078%,50.196078%);fill-opacity:1;" d="M 240 80 L 280 80 L 280 120 L 240 120 Z M 240 80 "/>
<path style=" stroke:none;fill-rule:nonzero;fill:rgb(50.196078%,50.196078%,50.196078%);fill-opacity:1;" d="M 280 80 L 320 80 L 320 120 L 280 120 Z M 280 80 "/>
<path style=" stroke:none;fill-rule:nonzero;fill:rgb(50.196078%,50.196078%,50.196078%);fill-opacity:1;" d="M 320 80 L 360 80 L 360 120 L 320 120 Z M 320 80 "/>
<path style=" stroke:none;fill-rule:nonzero;fill:rgb(50.196078%,50.196078%,50.196078%);fill-opacity:1;" d="M 360 80 L 400 80 L 400 120 L 360 120 Z M 360 80 "/>
<path style=" stroke:none;fill-rule:nonzero;fill:rgb(50.196078%,50.196078%,50.196078%);fill-opacity:1;" d="M 0 120 L 40 120 L 40 160 L 0 160 Z M 0 120 "/>
<path style=" stroke:none;fill-rule:nonzero;fill:rgb(50.196078%,50.196078%,50.196078%);fill-opacity:1;" d="M 40 120 L 80 120 L 80 160 L 40 160 Z M 40 120 "/>
<path style=" stroke:none;fill-rule:nonzero;fill:rgb(50.196078%,50.196078%,50.196078%);fill-opacity:1;" d="M 80 120 L 120 120 L 120 160 L 80 160 Z M 80 120 "/>
<path style=" stroke:none;fill-rule:nonzero;fill:rgb(50.196078%,50.196078%,50.196078%);fill-opacity:1;" d="M 120 120 L 160 120 L 160 160 L 120 160 Z M 120 120 "/>
<path style=" stroke:none;fill-rule:nonzero;fill:rgb(50.196078%,50.196078%,50.196078%);fill-opacity:1;" d="M 160 120 L 200 120 L 200 160 L 160 160 Z M 160 120 "/>
<path style=" stroke:none;fill-rule:nonzero;fill:rgb(50.196078%,50.196078%,50.196078%);fill-opacity:1;" d="M 200 120 L 240 120 L 240 160 L 200 160 Z M 200 120 "/>
<path style=" stroke:none;fill-rule:nonzero;fill:rgb(50.196078%,50.196078%,50.196078%);fill-opacity:1;" d="M 240 120 L 280 120 L 280 160 L 240 160 Z M 240 120 "/>
<path style=" stroke:none;fill-rule:nonzero;fill:rgb(50.196078%,50.196078%,50.196078%);fill-opacity:1;" d="M 280 120 L 320 120 L 320 160 L 280 160 Z M 280 120 "/>
<path style=" stroke:none;fill-rule:nonzero;fill:rgb(50.196078%,50.196078%,50.196078%);fill-opacity:1;" d="M 320 120 L 360 120 L 360 160 L 320 160 Z M 320 120 "/>
<path style=" stroke:none;fill-rule:nonzero;fill:rgb(50.196078%,50.196078%,50.196078%);fill-opacity:1;" d="M 360 120 L 400 120 L 400 160 L 360 160 Z M 360 120 "/>
<path style=" stroke:none;fill-rule:nonzero;fill:rgb(50.196078%,50.196078%,50.196078%);fill-opacity:1;" d="M 0 160 L 40 160 L 40 200 L 0 200 Z M 0 160 "/>
<path style=" stroke:none;fill-rule:nonzero;fill:rgb(50.196078%,50.196078%,50.196078%);fill-opacity:1;" d="M 40 160 L 80 160 L 80 200 L 40 200 Z M 40 160 "/>
<path style=" stroke:none;fill-rule:nonzero;fill:rgb(50.196078%,50.196078%,50.196078%);fill-opacity:1;" d="M 80 160 L 120 160 L 120 200 L 80 200 Z M 80 160 "/>
<path style=" stroke:none;fill-rule:nonzero;fill:rgb(50.196078%,50.196078%,50.196078%);fill-opacity:1;" d="M 120 160 L 160 160 L 160 200 L 120 200 Z M 120 160 "/>
<path style=" stroke:none;fill-rule:nonzero;fill:rgb(50.196078%,50.196078%,50.196078%);fill-opacity:1;" d="M 160 160 L 200 160 L 200 200 L 160 200 Z M 160 160 "/>
<path style=" stroke:none;fill-rule:nonzero;fill:rgb(50.196078%,50.196078%,50.196078%);fill-opacity:1;" d="M 200 160 L 240 160 L 240 200 L 200 200 Z M 200 160 "/>
<path style=" stroke:none;fill-rule:nonzero;fill:rgb(50.196078%,50.196078%,50.196078%);fill-opacity:1;" d="M 240 160 L 280 160 L 280 200 L 240 200 Z M 240 160 "/>
<path style=" stroke:none;fill-rule:nonzero;fill:rgb(50.196078%,50.196078%,50.196078%);fill-opacity:1;" d="M 280 160 L 320 160 L 320 200 L 280 200 Z M 280 160 "/>
<path style=" stroke:none;fill-rule:nonzero;fill:rgb(50.196078%,50.196078%,50.196078%);fill-opacity:1;" d="M 320 160 L 360 160 L 360 200 L 320 200 Z M 320 160 "/>
<path style=" stroke:none;fill-rule:nonzero;fill:rgb(50.196078%,50.196078%,50.196078%);fill-opacity:1;" d="M 360 160 L 400 160 L 400 200 L 360 200 Z M 360 160 "/>
<path style=" stroke:none;fill-rule:nonzero;fill:rgb(50.196078%,50.196078%,50.196078%);fill-opacity:1;" d="M 0 200 L 40 200 L 40 240 L 0 240 Z M 0 200 "/>
<path style=" stroke:none;fill-rule:nonzero;fill:rgb(50.196078%,50.196078%,50.196078%);fill-opacity:1;" d="M 40 200 L 80 200 L 80 240 L 40 240 Z M 40 200 "/>
<path style=" stroke:none;fill-rule:nonzero;fill:rgb(50.196078%,50.196078%,50.196078%);fill-opacity:1;" d="M 80 200 L 120 200 L 120 240 L 80 240 Z M 80 200 "/>
<path style=" stroke:none;fill-rule:nonzero;fill:rgb(50.196078%,50.196078%,50.196078%);fill-opacity:1;" d="M 120 200 L 160 200 L 160 240 L 120 240 Z M 120 200 "/>
<path style=" stroke:none;fill-rule:nonzero;fill:rgb(50.196078%,50.196078%,50.196078%);fill-opacity:1;" d="M 160 200 L 200 200 L 200 240 L 160 240 Z M 160 200 "/>
<path style=" stroke:none;fill-rule:nonzero;fill:rgb(50.196078%,50.196078%,50.196078%);fill-opacity:1;" d="M 200 200 L 240 200 L 240 240 L 200 240 Z M 200 200 "/>
<path style=" stroke:none;fill-rule:nonzero;fill:rgb(50.196078%,50.196078%,50.196078%);fill-opacity:1;" d="M 240 200 L 280 200 L 280 240 L 240 240 Z M 240 200 "/>
<path style=" stroke:none;fill-rule:nonzero;fill:rgb(50.196078%,50.196078%,50.196078%);fill-opacity:1;" d="M 280 200 L 320 200 L 320 240 L 280 240 Z M 280 200 "/>
<path style=" stroke:none;fill-rule:nonzero;fill:rgb(50.196078%,50.196078%,50.196078%);fill-opacity:1;" d="M 320 200 L 360 200 L 360 240 L 320 240 Z M 320 200 "/>
<path style=" stroke:none;fill-rule:nonzero;fill:rgb(50.196078%,50.196078%,50.196078%);fill-opacity:1;" d="M 360 200 L 400 200 L 400 240 L 360 240 Z M 360 200 "/>
<path style=" stroke:none;fill-rule:nonzero;fill:rgb(50.196078%,50.196078%,50.196078%);fill-opacity:1;" d="M 0 240 L 40 240 L 40 280 L 0 280 Z M 0 240 "/>
<path style=" stroke:none;fill-rule:nonzero;fill:rgb(50.196078%,50.196078%,50.196078%);fill-opacity:1;" d="M 40 240 L 80 240 L 80 280 L 40 280 Z M 40 240 "/>
<path style=" stroke:none;fill-rule:nonzero;fill:rgb(50.196078%,50.196078%,50.196078%);fill-opacity:1;" d="M 80 240 L 120 240 L 120 280 L 80 280 Z M 80 240 "/>
<path style=" stroke:none;fill-rule:nonzero;fill:rgb(50.196078%,50.196078%,50.196078%);fill-opacity:1;" d="M 120 240 L 160 240 L 160 280 L 120 280 Z M 120 240 "/>
<path style=" stroke:none;fill-rule:nonzero;fill:rgb(50.196078%,50.196078%,50.196078%);fill-opacity:1;" d="M 160 240 L 200 240 L 200 280 L 160 280 Z M 160 240 "/>
<path style=" stroke:none;fill-rule:nonzero;fill:rgb(50.196078%,50.196078%,50.196078%);fill-opacity:1;" d="M 200 240 L 240 240 L 240 280 L 200 280 Z M 200 240 "/>
<path style=" stroke:none;fill-rule:nonzero;fill:rgb(50.196078%,50.196078%,50.196078%);fill-opacity:1;" d="M 240 240 L 280 240 L 280 280 L 240 280 Z M 240 240 "/>
<path style=" stroke:none;fill-rule:nonzero;fill:rgb(50.196078%,50.196078%,50.196078%);fill-opacity:1;" d="M 280 240 L 320 240 L 320 280 L 280 280 Z M 280 240 "/>
<path style=" stroke:none;fill-rule:nonzero;fill:rgb(50.196078%,50.196078%,50.196078%);fill-opacity:1;" d="M 320 240 L 360 240 L 360 280 L 320 280 Z M 320 240 "/>
<path style=" stroke:none;fill-rule:nonzero;fill:rgb(50.196078%,50.196078%,50.196078%);fill-opacity:1;" d="M 360 240 L 400 240 L 400 280 L 360 280 Z M 360 240 "/>
<path style=" stroke:none;fill-rule:nonzero;fill:rgb(50.196078%,50.196078%,50.196078%);fill-opacity:1;" d="M 0 280 L 40 280 L 40 320 L 0 320 Z M 0 280 "/>
<path style=" stroke:none;fill-rule:nonzero;fill:rgb(50.196078%,50.196078%,50.196078%);fill-opacity:1;" d="M 40 280 L 80 280 L 80 320 L 40 320 Z M 40 280 "/>
<path style=" stroke:none;fill-rule:nonzero;fill:rgb(50.196078%,50.196078%,50.196078%);fill-opacity:1;" d="M 80 280 L 120 280 L 120 320 L 80 320 Z M 80 280 "/>
<path style=" stroke:none;fill-rule:nonzero;fill:rgb(50.196078%,50.196078%,50.196078%);fill-opacity:1;" d="M 120 280 L 160 280 L 160 320 L 120 320 Z M 120 280 "/>
<path style=" stroke:none;fill-rule:nonzero;fill:rgb(50.196078%,50.196078%,50.196078%);fill-opacity:1;" d="M 160 280 L 200 280 L 200 320 L 160 320 Z M 160 280 "/>
<path style=" stroke:none;fill-rule:nonzero;fill:rgb(50.196078%,50.196078%,50.196078%);fill-opacity:1;" d="M 200 280 L 240 280 L 240 320 L 200 320 Z M 200 280 "/>
<path style=" stroke:none;fill-rule:nonzero;fill:rgb(50.196078%,50.196078%,50.196078%);fill-opacity:1;" d="M 240 280 L 280 280 L 280 320 L 240 320 Z M 240 280 "/>
<path style=" stroke:none;fill-rule:nonzero;fill:rgb(50.196078%,50.196078%,50.196078%);fill-opacity:1;" d="M 280 280 L 320 280 L 320 320 L 280 320 Z M 280 280 "/>
<path style=" stroke:none;fill-rule:nonzero;fill:rgb(50.196078%,50.196078%,50.196078%);fill-opacity:1;" d="M 320 280 L 360 280 L 360 320 L 320 320 Z M 320 280 "/>
<path style=" stroke:none;fill-rule:nonzero;fill:rgb(50.196078%,50.196078%,50.196078%);fill-opacity:1;" d="M 360 280 L 400 280 L 400 320 L 360 320 Z M 360 280 "/>
<path style=" stroke:none;fill-rule:nonzero;fill:rgb(50.196078%,50.196078%,50.196078%);fill-opacity:1;" d="M 0 320 L 40 320 L 40 360 L 0 360 Z M 0 320 "/>
<path style=" stroke:none;fill-rule:nonzero;fill:rgb(50.196078%,50.196078%,50.196078%);fill-opacity:1;" d="M 40 320 L 80 320 L 80 360 L 40 360 Z M 40 320 "/>
<path style=" stroke:none;fill-rule:nonzero;fill:rgb(50.196078%,50.196078%,50.196078%);fill-opacity:1;" d="M 80 320 L 120 320 L 120 360 L 80 360 Z M 80 320 "/>
<path style=" stroke:none;fill-rule:nonzero;fill:rgb(50.196078%,50.196078%,50.196078%);fill-opacity:1;" d="M 120 320 L 160 320 L 160 360 L 120 360 Z M 120 320 "/>
<path style=" stroke:none;fill-rule:nonzero;fill:rgb(50.196078%,50.196078%,50.196078%);fill-opacity:1;" d="M 160 320 L 200 320 L 200 360 L 160 360 Z M 160 320 "/>
<path style=" stroke:none;fill-rule:nonzero;fill:rgb(50.196078%,50.196078%,50.196078%);fill-opacity:1;" d="M 200 320 L 240 320 L 240 360 L 200 360 Z M 200 320 "/>
<path style=" stroke:none;fill-rule:nonzero;fill:rgb(50.196078%,50.196078%,50.196078%);fill-opacity:1;" d="M 240 320 L 280 320 L 280 360 L 240 360 Z M 240 320 "/>
<path style=" stroke:none;fill-rule:nonzero;fill:rgb(50.196078%,50.196078%,50.196078%);fill-opacity:1;" d="M 280 320 L 320 320 L 320 360 L 280 360 Z M 280 320 "/>
<path style=" stroke:none;fill-rule:nonzero;fill:rgb(50.196078%,50.196078%,50.196078%);fill-opacity:1;" d="M 320 320 L 360 320 L 360 360 L 320 360 Z M 320 320 "/>
<path style=" stroke:none;fill-rule:nonzero;fill:rgb(50.196078%,50.196078%,50.196078%);fill-opacity:1;" d="M 360 320 L 400 320 L 400 360 L 360 360 Z M 360 320 "/>
<path style=" stroke:none;fill-rule:nonzero;fill:rgb(50.196078%,50.196078%,50.196078%);fill-opacity:1;" d="M 0 360 L 40 360 L 40 400 L 0 400 Z M 0 360 "/>
<path style=" stroke:none;fill-rule:nonzero;fill:rgb(50.196078%,50.196078%,50.196078%);fill-opacity:1;" d="M 40 360 L 80 360 L 80 400 L 40 400 Z M 40 360 "/>
<path style=" stroke:none;fill-rule:nonzero;fill:rgb(50.196078%,50.196078%,50.196078%);fill-opacity:1;" d="M 80 360 L 120 360 L 120 400 L 80 400 Z M 80 360 "/>
<path style=" stroke:none;fill-rule:nonzero;fill:rgb(50.196078%,50.196078%,50.196078%);fill-opacity:1;" d="M 120 360 L 160 360 L 160 400 L 120 400 Z M 120 360 "/>
<path style=" stroke:none;fill-rule:nonzero;fill:rgb(50.196078%,50.196078%,50.196078%);fill-opacity:1;" d="M 160 360 L 200 360 L 200 400 L 160 400 Z M 160 360 "/>
<path style=" stroke:none;fill-rule:nonzero;fill:rgb(50.196078%,50.196078%,50.196078%);fill-opacity:1;" d="M 200 360 L 240 360 L 240 400 L 200 400 Z M 200 360 "/>
<path style=" stroke:none;fill-rule:nonzero;fill:rgb(50.196078%,50.196078%,50.196078%);fill-opacity:1;" d="M 240 360 L 280 360 L 280 400 L 240 400 Z M 240 360 "/>
<path style=" stroke:none;fill-rule:nonzero;fill:rgb(50.196078%,50.196078%,50.196078%);fill-opacity:1;" d="M 280 360 L 320 360 L 320 400 L 280 400 Z M 280 360 "/>
<path style=" stroke:none;fill-rule:nonzero;fill:rgb(50.196078%,50.196078%,50.196078%);fill-opacity:1;" d="M 320 360 L 360 360 L 360 400 L 320 400 Z M 320 360 "/>
<path style=" stroke:none;fill-rule:nonzero;fill:rgb(50.196078%,50.196078%,50.196078%);fill-opacity:1;" d="M 360 360 L 400 360 L 400 400 L 360 400 Z M 360 360 "/>
</g>
</svg>
