<?xml version="1.0" encoding="UTF-8"?>
<svg xmlns="http://www.w3.org/2000/svg" xmlns:xlink="http://www.w3.org/1999/xlink" width="600pt" height="30pt" viewBox="0 0 600 30" version="1.1" shape-rendering="crispEdges">
<defs>
<linearGradient id="linear0" gradientUnits="userSpaceOnUse" x1="197.916667" y1="0" x2="206.25" y2="0" >
<stop offset="0" style="stop-color:rgb(0%,0%,100%);stop-opacity:1;"/>
<stop offset="1" style="stop-color:rgb(0%,0%,100%);stop-opacity:0.5;"/>
</linearGradient>
<linearGradient id="linear1" gradientUnits="userSpaceOnUse" x1="397.916667" y1="0" x2="406.25" y2="0" >
<stop offset="0" style="stop-color:rgb(0%,0%,100%);stop-opacity:1;"/>
<stop offset="1" style="stop-color:rgb(0%,0%,100%);stop-opacity:0.5;"/>
</linearGradient>
<linearGradient id="linear2" gradientUnits="userSpaceOnUse" x1="597.916667" y1="0" x2="606.25" y2="0" >
<stop offset="0" style="stop-color:rgb(0%,0%,100%);stop-opacity:1;"/>
<stop offset="1" style="stop-color:rgb(0%,0%,100%);stop-opacity:0.5;"/>
</linearGradient>
<linearGradient id="linear3" gradientUnits="userSpaceOnUse" x1="70.833333" y1="0" x2="79.166667" y2="0" >
<stop offset="0" style="stop-color:rgb(0%,50.196078%,0%);stop-opacity:1;"/>
<stop offset="1" style="stop-color:rgb(0%,50.196078%,0%);stop-opacity:0.5;"/>
</linearGradient>
<linearGradient id="linear4" gradientUnits="userSpaceOnUse" x1="37.5" y1="0" x2="54.166667" y2="0" >
<stop offset="0" style="stop-color:rgb(100%,0%,0%);stop-opacity:1;"/>
<stop offset="1" style="stop-color:rgb(100%,0%,0%);stop-opacity:0.5;"/>
</linearGradient>
<linearGradient id="linear5" gradientUnits="userSpaceOnUse" x1="145.833333" y1="0" x2="154.166667" y2="0" >
<stop offset="0" style="stop-color:rgb(0%,50.196078%,0%);stop-opacity:1;"/>
<stop offset="1" style="stop-color:rgb(0%,50.196078%,0%);stop-opacity:0.5;"/>
</linearGradient>
<linearGradient id="linear6" gradientUnits="userSpaceOnUse" x1="270.833333" y1="0" x2="279.166667" y2="0" >
<stop offset="0" style="stop-color:rgb(0%,50.196078%,0%);stop-opacity:1;"/>
<stop offset="1" style="stop-color:rgb(0%,50.196078%,0%);stop-opacity:0.5;"/>
</linearGradient>
<linearGradient id="linear7" gradientUnits="userSpaceOnUse" x1="237.5" y1="0" x2="254.166667" y2="0" >
<stop offset="0" style="stop-color:rgb(100%,0%,0%);stop-opacity:1;"/>
<stop offset="1" style="stop-color:rgb(100%,0%,0%);stop-opacity:0.5;"/>
</linearGradient>
<linearGradient id="linear8" gradientUnits="userSpaceOnUse" x1="345.833333" y1="0" x2="354.166667" y2="0" >
<stop offset="0" style="stop-color:rgb(0%,50.196078%,0%);stop-opacity:1;"/>
<stop offset="1" style="stop-color:rgb(0%,50.196078%,0%);stop-opacity:0.5;"/>
</linearGradient>
<linearGradient id="linear9" gradientUnits="userSpaceOnUse" x1="470.833333" y1="0" x2="479.166667" y2="0" >
<stop offset="0" style="stop-color:rgb(0%,50.196078%,0%);stop-opacity:1;"/>
<stop offset="1" style="stop-color:rgb(0%,50.196078%,0%);stop-opacity:0.5;"/>
</linearGradient>
<linearGradient id="linear10" gradientUnits="userSpaceOnUse" x1="437.5" y1="0" x2="454.166667" y2="0" >
<stop offset="0" style="stop-color:rgb(100%,0%,0%);stop-opacity:1;"/>
<stop offset="1" style="stop-color:rgb(100%,0%,0%);stop-opacity:0.5;"/>
</linearGradient>
<linearGradient id="linear11" gradientUnits="userSpaceOnUse" x1="545.833333" y1="0" x2="554.166667" y2="0" >
<stop offset="0" style="stop-color:rgb(0%,50.196078%,0%);stop-opacity:1;"/>
<stop offset="1" style="stop-color:rgb(0%,50.196078%,0%);stop-opacity:0.5;"/>
</linearGradient>
<linearGradient id="linear12" gradientUnits="userSpaceOnUse" x1="72.916667" y1="0" x2="81.25" y2="0" >
<stop offset="0" style="stop-color:rgb(0%,0%,100%);stop-opacity:1;"/>
<stop offset="1" style="stop-color:rgb(0%,0%,100%);stop-opacity:0.5;"/>
</linearGradient>
<linearGradient id="linear13" gradientUnits="userSpaceOnUse" x1="272.916667" y1="0" x2="281.25" y2="0" >
<stop offset="0" style="stop-color:rgb(0%,0%,100%);stop-opacity:1;"/>
<stop offset="1" style="stop-color:rgb(0%,0%,100%);stop-opacity:0.5;"/>
</linearGradient>
<linearGradient id="linear14" gradientUnits="userSpaceOnUse" x1="472.916667" y1="0" x2="481.25" y2="0" >
<stop offset="0" style="stop-color:rgb(0%,0%,100%);stop-opacity:1;"/>
<stop offset="1" style="stop-color:rgb(0%,0%,100%);stop-opacity:0.5;"/>
</linearGradient>
<linearGradient id="linear15" gradientUnits="userSpaceOnUse" x1="0" y1="0" x2="8.333333" y2="0" >
<stop offset="0" style="stop-color:rgb(100%,0%,0%);stop-opacity:1;"/>
<stop offset="1" style="stop-color:rgb(100%,0%,0%);stop-opacity:0.5;"/>
</linearGradient>
<linearGradient id="linear16" gradientUnits="userSpaceOnUse" x1="8.333333" y1="0" x2="16.666667" y2="0" >
<stop offset="0" style="stop-color:rgb(0%,50.196078%,0%);stop-opacity:1;"/>
<stop offset="1" style="stop-color:rgb(0%,50.196078%,0%);stop-opacity:0.5;"/>
</linearGradient>
<linearGradient id="linear17" gradientUnits="userSpaceOnUse" x1="127.083333" y1="0" x2="135.416667" y2="0" >
<stop offset="0" style="stop-color:rgb(0%,50.196078%,0%);stop-opacity:1;"/>
<stop offset="1" style="stop-color:rgb(0%,50.196078%,0%);stop-opacity:0.5;"/>
</linearGradient>
<linearGradient id="linear18" gradientUnits="userSpaceOnUse" x1="91.666667" y1="0" x2="108.333333" y2="0" >
<stop offset="0" style="stop-color:rgb(0%,50.196078%,0%);stop-opacity:1;"/>
<stop offset="1" style="stop-color:rgb(0%,50.196078%,0%);stop-opacity:0.5;"/>
</linearGradient>
<linearGradient id="linear19" gradientUnits="userSpaceOnUse" x1="141.666667" y1="0" x2="158.333333" y2="0" >
<stop offset="0" style="stop-color:rgb(0%,50.196078%,0%);stop-opacity:1;"/>
<stop offset="1" style="stop-color:rgb(0%,50.196078%,0%);stop-opacity:0.5;"/>
</linearGradient>
<linearGradient id="linear20" gradientUnits="userSpaceOnUse" x1="200" y1="0" x2="208.333333" y2="0" >
<stop offset="0" style="stop-color:rgb(100%,0%,0%);stop-opacity:1;"/>
<stop offset="1" style="stop-color:rgb(100%,0%,0%);stop-opacity:0.5;"/>
</linearGradient>
<linearGradient id="linear21" gradientUnits="userSpaceOnUse" x1="208.333333" y1="0" x2="216.666667" y2="0" >
<stop offset="0" style="stop-color:rgb(0%,50.196078%,0%);stop-opacity:1;"/>
<stop offset="1" style="stop-color:rgb(0%,50.196078%,0%);stop-opacity:0.5;"/>
</linearGradient>
<linearGradient id="linear22" gradientUnits="userSpaceOnUse" x1="327.083333" y1="0" x2="335.416667" y2="0" >
<stop offset="0" style="stop-color:rgb(0%,50.196078%,0%);stop-opacity:1;"/>
<stop offset="1" style="stop-color:rgb(0%,50.196078%,0%);stop-opacity:0.5;"/>
</linearGradient>
<linearGradient id="linear23" gradientUnits="userSpaceOnUse" x1="291.666667" y1="0" x2="308.333333" y2="0" >
<stop offset="0" style="stop-color:rgb(0%,50.196078%,0%);stop-opacity:1;"/>
<stop offset="1" style="stop-color:rgb(0%,50.196078%,0%);stop-opacity:0.5;"/>
</linearGradient>
<linearGradient id="linear24" gradientUnits="userSpaceOnUse" x1="341.666667" y1="0" x2="358.333333" y2="0" >
<stop offset="0" style="stop-color:rgb(0%,50.196078%,0%);stop-opacity:1;"/>
<stop offset="1" style="stop-color:rgb(0%,50.196078%,0%);stop-opacity:0.5;"/>
</linearGradient>
<linearGradient id="linear25" gradientUnits="userSpaceOnUse" x1="400" y1="0" x2="408.333333" y2="0" >
<stop offset="0" style="stop-color:rgb(100%,0%,0%);stop-opacity:1;"/>
<stop offset="1" style="stop-color:rgb(100%,0%,0%);stop-opacity:0.5;"/>
</linearGradient>
<linearGradient id="linear26" gradientUnits="userSpaceOnUse" x1="408.333333" y1="0" x2="416.666667" y2="0" >
<stop offset="0" style="stop-color:rgb(0%,50.196078%,0%);stop-opacity:1;"/>
<stop offset="1" style="stop-color:rgb(0%,50.196078%,0%);stop-opacity:0.5;"/>
</linearGradient>
<linearGradient id="linear27" gradientUnits="userSpaceOnUse" x1="527.083333" y1="0" x2="535.416667" y2="0" >
<stop offset="0" style="stop-color:rgb(0%,50.196078%,0%);stop-opacity:1;"/>
<stop offset="1" style="stop-color:rgb(0%,50.196078%,0%);stop-opacity:0.5;"/>
</linearGradient>
<linearGradient id="linear28" gradientUnits="userSpaceOnUse" x1="491.666667" y1="0" x2="508.333333" y2="0" >
<stop offset="0" style="stop-color:rgb(0%,50.196078%,0%);stop-opacity:1;"/>
<stop offset="1" style="stop-color:rgb(0%,50.196078%,0%);stop-opacity:0.5;"/>
</linearGradient>
<linearGradient id="linear29" gradientUnits="userSpaceOnUse" x1="541.666667" y1="0" x2="558.333333" y2="0" >
<stop offset="0" style="stop-color:rgb(0%,50.196078%,0%);stop-opacity:1;"/>
<stop offset="1" style="stop-color:rgb(0%,50.196078%,0%);stop-opacity:0.5;"/>
</linearGradient>
<linearGradient id="linear30" gradientUnits="userSpaceOnUse" x1="87.5" y1="0" x2="104.166667" y2="0" >
<stop offset="0" style="stop-color:rgb(100%,0%,0%);stop-opacity:1;"/>
<stop offset="1" style="stop-color:rgb(100%,0%,0%);stop-opacity:0.5;"/>
</linearGradient>
<linearGradient id="linear31" gradientUnits="userSpaceOnUse" x1="287.5" y1="0" x2="304.166667" y2="0" >
<stop offset="0" style="stop-color:rgb(100%,0%,0%);stop-opacity:1;"/>
<stop offset="1" style="stop-color:rgb(100%,0%,0%);stop-opacity:0.5;"/>
</linearGradient>
<linearGradient id="linear32" gradientUnits="userSpaceOnUse" x1="487.5" y1="0" x2="504.166667" y2="0" >
<stop offset="0" style="stop-color:rgb(100%,0%,0%);stop-opacity:1;"/>
<stop offset="1" style="stop-color:rgb(100%,0%,0%);stop-opacity:0.5;"/>
</linearGradient>
<linearGradient id="linear33" gradientUnits="userSpaceOnUse" x1="16.666667" y1="0" x2="33.333333" y2="0" >
<stop offset="0" style="stop-color:rgb(0%,50.196078%,0%);stop-opacity:1;"/>
<stop offset="1" style="stop-color:rgb(0%,50.196078%,0%);stop-opacity:0.5;"/>
</linearGradient>
<linearGradient id="linear34" gradientUnits="userSpaceOnUse" x1="33.333333" y1="0" x2="50" y2="0" >
<stop offset="0" style="stop-color:rgb(0%,0%,100%);stop-opacity:1;"/>
<stop offset="1" style="stop-color:rgb(0%,0%,100%);stop-opacity:0.5;"/>
</linearGradient>
<linearGradient id="linear35" gradientUnits="userSpaceOnUse" x1="54.166667" y1="0" x2="70.833333" y2="0" >
<stop offset="0" style="stop-color:rgb(0%,50.196078%,0%);stop-opacity:1;"/>
<stop offset="1" style="stop-color:rgb(0%,50.196078%,0%);stop-opacity:0.5;"/>
</linearGradient>
<linearGradient id="linear36" gradientUnits="userSpaceOnUse" x1="108.333333" y1="0" x2="125" y2="0" >
<stop offset="0" style="stop-color:rgb(0%,0%,100%);stop-opacity:1;"/>
<stop offset="1" style="stop-color:rgb(0%,0%,100%);stop-opacity:0.5;"/>
</linearGradient>
<linearGradient id="linear37" gradientUnits="userSpaceOnUse" x1="162.5" y1="0" x2="179.166667" y2="0" >
<stop offset="0" style="stop-color:rgb(100%,0%,0%);stop-opacity:1;"/>
<stop offset="1" style="stop-color:rgb(100%,0%,0%);stop-opacity:0.5;"/>
</linearGradient>
<linearGradient id="linear38" gradientUnits="userSpaceOnUse" x1="179.166667" y1="0" x2="195.833333" y2="0" >
<stop offset="0" style="stop-color:rgb(0%,50.196078%,0%);stop-opacity:1;"/>
<stop offset="1" style="stop-color:rgb(0%,50.196078%,0%);stop-opacity:0.5;"/>
</linearGradient>
<linearGradient id="linear39" gradientUnits="userSpaceOnUse" x1="216.666667" y1="0" x2="233.333333" y2="0" >
<stop offset="0" style="stop-color:rgb(0%,50.196078%,0%);stop-opacity:1;"/>
<stop offset="1" style="stop-color:rgb(0%,50.196078%,0%);stop-opacity:0.5;"/>
</linearGradient>
<linearGradient id="linear40" gradientUnits="userSpaceOnUse" x1="233.333333" y1="0" x2="250" y2="0" >
<stop offset="0" style="stop-color:rgb(0%,0%,100%);stop-opacity:1;"/>
<stop offset="1" style="stop-color:rgb(0%,0%,100%);stop-opacity:0.5;"/>
</linearGradient>
<linearGradient id="linear41" gradientUnits="userSpaceOnUse" x1="254.166667" y1="0" x2="270.833333" y2="0" >
<stop offset="0" style="stop-color:rgb(0%,50.196078%,0%);stop-opacity:1;"/>
<stop offset="1" style="stop-color:rgb(0%,50.196078%,0%);stop-opacity:0.5;"/>
</linearGradient>
<linearGradient id="linear42" gradientUnits="userSpaceOnUse" x1="308.333333" y1="0" x2="325" y2="0" >
<stop offset="0" style="stop-color:rgb(0%,0%,100%);stop-opacity:1;"/>
<stop offset="1" style="stop-color:rgb(0%,0%,100%);stop-opacity:0.5;"/>
</linearGradient>
<linearGradient id="linear43" gradientUnits="userSpaceOnUse" x1="362.5" y1="0" x2="379.166667" y2="0" >
<stop offset="0" style="stop-color:rgb(100%,0%,0%);stop-opacity:1;"/>
<stop offset="1" style="stop-color:rgb(100%,0%,0%);stop-opacity:0.5;"/>
</linearGradient>
<linearGradient id="linear44" gradientUnits="userSpaceOnUse" x1="379.166667" y1="0" x2="395.833333" y2="0" >
<stop offset="0" style="stop-color:rgb(0%,50.196078%,0%);stop-opacity:1;"/>
<stop offset="1" style="stop-color:rgb(0%,50.196078%,0%);stop-opacity:0.5;"/>
</linearGradient>
<linearGradient id="linear45" gradientUnits="userSpaceOnUse" x1="416.666667" y1="0" x2="433.333333" y2="0" >
<stop offset="0" style="stop-color:rgb(0%,50.196078%,0%);stop-opacity:1;"/>
<stop offset="1" style="stop-color:rgb(0%,50.196078%,0%);stop-opacity:0.5;"/>
</linearGradient>
<linearGradient id="linear46" gradientUnits="userSpaceOnUse" x1="433.333333" y1="0" x2="450" y2="0" >
<stop offset="0" style="stop-color:rgb(0%,0%,100%);stop-opacity:1;"/>
<stop offset="1" style="stop-color:rgb(0%,0%,100%);stop-opacity:0.5;"/>
</linearGradient>
<linearGradient id="linear47" gradientUnits="userSpaceOnUse" x1="454.166667" y1="0" x2="470.833333" y2="0" >
<stop offset="0" style="stop-color:rgb(0%,50.196078%,0%);stop-opacity:1;"/>
<stop offset="1" style="stop-color:rgb(0%,50.196078%,0%);stop-opacity:0.5;"/>
</linearGradient>
<linearGradient id="linear48" gradientUnits="userSpaceOnUse" x1="508.333333" y1="0" x2="525" y2="0" >
<stop offset="0" style="stop-color:rgb(0%,0%,100%);stop-opacity:1;"/>
<stop offset="1" style="stop-color:rgb(0%,0%,100%);stop-opacity:0.5;"/>
</linearGradient>
<linearGradient id="linear49" gradientUnits="userSpaceOnUse" x1="562.5" y1="0" x2="579.166667" y2="0" >
<stop offset="0" style="stop-color:rgb(100%,0%,0%);stop-opacity:1;"/>
<stop offset="1" style="stop-color:rgb(100%,0%,0%);stop-opacity:0.5;"/>
</linearGradient>
<linearGradient id="linear50" gradientUnits="userSpaceOnUse" x1="579.166667" y1="0" x2="595.833333" y2="0" >
<stop offset="0" style="stop-color:rgb(0%,50.196078%,0%);stop-opacity:1;"/>
<stop offset="1" style="stop-color:rgb(0%,50.196078%,0%);stop-opacity:0.5;"/>
</linearGradient>
<linearGradient id="linear51" gradientUnits="userSpaceOnUse" x1="62.5" y1="0" x2="70.833333" y2="0" >
<stop offset="0" style="stop-color:rgb(100%,0%,0%);stop-opacity:1;"/>
<stop offset="1" style="stop-color:rgb(100%,0%,0%);stop-opacity:0.5;"/>
</linearGradient>
<linearGradient id="linear52" gradientUnits="userSpaceOnUse" x1="135.416667" y1="0" x2="143.75" y2="0" >
<stop offset="0" style="stop-color:rgb(0%,0%,100%);stop-opacity:1;"/>
<stop offset="1" style="stop-color:rgb(0%,0%,100%);stop-opacity:0.5;"/>
</linearGradient>
<linearGradient id="linear53" gradientUnits="userSpaceOnUse" x1="189.583333" y1="0" x2="197.916667" y2="0" >
<stop offset="0" style="stop-color:rgb(0%,50.196078%,0%);stop-opacity:1;"/>
<stop offset="1" style="stop-color:rgb(0%,50.196078%,0%);stop-opacity:0.5;"/>
</linearGradient>
<linearGradient id="linear54" gradientUnits="userSpaceOnUse" x1="262.5" y1="0" x2="270.833333" y2="0" >
<stop offset="0" style="stop-color:rgb(100%,0%,0%);stop-opacity:1;"/>
<stop offset="1" style="stop-color:rgb(100%,0%,0%);stop-opacity:0.5;"/>
</linearGradient>
<linearGradient id="linear55" gradientUnits="userSpaceOnUse" x1="335.416667" y1="0" x2="343.75" y2="0" >
<stop offset="0" style="stop-color:rgb(0%,0%,100%);stop-opacity:1;"/>
<stop offset="1" style="stop-color:rgb(0%,0%,100%);stop-opacity:0.5;"/>
</linearGradient>
<linearGradient id="linear56" gradientUnits="userSpaceOnUse" x1="389.583333" y1="0" x2="397.916667" y2="0" >
<stop offset="0" style="stop-color:rgb(0%,50.196078%,0%);stop-opacity:1;"/>
<stop offset="1" style="stop-color:rgb(0%,50.196078%,0%);stop-opacity:0.5;"/>
</linearGradient>
<linearGradient id="linear57" gradientUnits="userSpaceOnUse" x1="462.5" y1="0" x2="470.833333" y2="0" >
<stop offset="0" style="stop-color:rgb(100%,0%,0%);stop-opacity:1;"/>
<stop offset="1" style="stop-color:rgb(100%,0%,0%);stop-opacity:0.5;"/>
</linearGradient>
<linearGradient id="linear58" gradientUnits="userSpaceOnUse" x1="535.416667" y1="0" x2="543.75" y2="0" >
<stop offset="0" style="stop-color:rgb(0%,0%,100%);stop-opacity:1;"/>
<stop offset="1" style="stop-color:rgb(0%,0%,100%);stop-opacity:0.5;"/>
</linearGradient>
<linearGradient id="linear59" gradientUnits="userSpaceOnUse" x1="589.583333" y1="0" x2="597.916667" y2="0" >
<stop offset="0" style="stop-color:rgb(0%,50.196078%,0%);stop-opacity:1;"/>
<stop offset="1" style="stop-color:rgb(0%,50.196078%,0%);stop-opacity:0.5;"/>
</linearGradient>
</defs>
<g id="surface57">
<path style=" stroke:none;fill-rule:nonzero;fill:url(#linear0);" d="M 197.917969 0 L 200 0 L 200 15 L 197.917969 15 Z M 197.917969 0 "/>
<path style=" stroke:none;fill-rule:nonzero;fill:url(#linear1);" d="M 397.917969 0 L 400 0 L 400 15 L 397.917969 15 Z M 397.917969 0 "/>
<path style=" stroke:none;fill-rule:nonzero;fill:url(#linear2);" d="M 597.917969 0 L 600 0 L 600 15 L 597.917969 15 Z M 597.917969 0 "/>
<path style=" stroke:none;fill-rule:nonzero;fill:url(#linear3);" d="M 70.832031 0 L 75 0 L 75 15 L 70.832031 15 Z M 70.832031 0 "/>
<path style=" stroke:none;fill-rule:nonzero;fill:url(#linear4);" d="M 50 0 L 54.167969 0 L 54.167969 15 L 50 15 Z M 50 0 "/>
<path style=" stroke:none;fill-rule:nonzero;fill:url(#linear5);" d="M 150 0 L 154.167969 0 L 154.167969 15 L 150 15 Z M 150 0 "/>
<path style=" stroke:none;fill-rule:nonzero;fill:url(#linear6);" d="M 270.832031 0 L 275 0 L 275 15 L 270.832031 15 Z M 270.832031 0 "/>
<path style=" stroke:none;fill-rule:nonzero;fill:url(#linear7);" d="M 250 0 L 254.167969 0 L 254.167969 15 L 250 15 Z M 250 0 "/>
<path style=" stroke:none;fill-rule:nonzero;fill:url(#linear8);" d="M 350 0 L 354.167969 0 L 354.167969 15 L 350 15 Z M 350 0 "/>
<path style=" stroke:none;fill-rule:nonzero;fill:url(#linear9);" d="M 470.832031 0 L 475 0 L 475 15 L 470.832031 15 Z M 470.832031 0 "/>
<path style=" stroke:none;fill-rule:nonzero;fill:url(#linear10);" d="M 450 0 L 454.167969 0 L 454.167969 15 L 450 15 Z M 450 0 "/>
<path style=" stroke:none;fill-rule:nonzero;fill:url(#linear11);" d="M 550 0 L 554.167969 0 L 554.167969 15 L 550 15 Z M 550 0 "/>
<path style=" stroke:none;fill-rule:nonzero;fill:url(#linear12);" d="M 75 0 L 81.25 0 L 81.25 15 L 75 15 Z M 75 0 "/>
<path style=" stroke:none;fill-rule:nonzero;fill:url(#linear13);" d="M 275 0 L 281.25 0 L 281.25 15 L 275 15 Z M 275 0 "/>
<path style=" stroke:none;fill-rule:nonzero;fill:url(#linear14);" d="M 475 0 L 481.25 0 L 481.25 15 L 475 15 Z M 475 0 "/>
<path style=" stroke:none;fill-rule:nonzero;fill:url(#linear15);" d="M 0 0 L 8.332031 0 L 8.332031 15 L 0 15 Z M 0 0 "/>
<path style=" stroke:none;fill-rule:nonzero;fill:url(#linear16);" d="M 8.332031 0 L 16.664062 0 L 16.664062 15 L 8.332031 15 Z M 8.332031 0 "/>
<path style=" stroke:none;fill-rule:nonzero;fill:url(#linear17);" d="M 127.082031 0 L 135.414062 0 L 135.414062 15 L 127.082031 15 Z M 127.082031 0 "/>
<path style=" stroke:none;fill-rule:nonzero;fill:url(#linear18);" d="M 100 0 L 108.332031 0 L 108.332031 15 L 100 15 Z M 100 0 "/>
<path style=" stroke:none;fill-rule:nonzero;fill:url(#linear19);" d="M 141.667969 0 L 150 0 L 150 15 L 141.667969 15 Z M 141.667969 0 "/>
<path style=" stroke:none;fill-rule:nonzero;fill:url(#linear20);" d="M 200 0 L 208.332031 0 L 208.332031 15 L 200 15 Z M 200 0 "/>
<path style=" stroke:none;fill-rule:nonzero;fill:url(#linear21);" d="M 208.332031 0 L 216.664062 0 L 216.664062 15 L 208.332031 15 Z M 208.332031 0 "/>
<path style=" stroke:none;fill-rule:nonzero;fill:url(#linear22);" d="M 327.082031 0 L 335.414062 0 L 335.414062 15 L 327.082031 15 Z M 327.082031 0 "/>
<path style=" stroke:none;fill-rule:nonzero;fill:url(#linear23);" d="M 300 0 L 308.332031 0 L 308.332031 15 L 300 15 Z M 300 0 "/>
<path style=" stroke:none;fill-rule:nonzero;fill:url(#linear24);" d="M 341.667969 0 L 350 0 L 350 15 L 341.667969 15 Z M 341.667969 0 "/>
<path style=" stroke:none;fill-rule:nonzero;fill:url(#linear25);" d="M 400 0 L 408.332031 0 L 408.332031 15 L 400 15 Z M 400 0 "/>
<path style=" stroke:none;fill-rule:nonzero;fill:url(#linear26);" d="M 408.332031 0 L 416.664062 0 L 416.664062 15 L 408.332031 15 Z M 408.332031 0 "/>
<path style=" stroke:none;fill-rule:nonzero;fill:url(#linear27);" d="M 527.082031 0 L 535.414062 0 L 535.414062 15 L 527.082031 15 Z M 527.082031 0 "/>
<path style=" stroke:none;fill-rule:nonzero;fill:url(#linear28);" d="M 500 0 L 508.332031 0 L 508.332031 15 L 500 15 Z M 500 0 "/>
<path style=" stroke:none;fill-rule:nonzero;fill:url(#linear29);" d="M 541.667969 0 L 550 0 L 550 15 L 541.667969 15 Z M 541.667969 0 "/>
<path style=" stroke:none;fill-rule:nonzero;fill:url(#linear30);" d="M 87.5 0 L 100 0 L 100 15 L 87.5 15 Z M 87.5 0 "/>
<path style=" stroke:none;fill-rule:nonzero;fill:url(#linear31);" d="M 287.5 0 L 300 0 L 300 15 L 287.5 15 Z M 287.5 0 "/>
<path style=" stroke:none;fill-rule:nonzero;fill:url(#linear32);" d="M 487.5 0 L 500 0 L 500 15 L 487.5 15 Z M 487.5 0 "/>
<path style=" stroke:none;fill-rule:nonzero;fill:url(#linear33);" d="M 16.667969 0 L 33.335938 0 L 33.335938 15 L 16.667969 15 Z M 16.667969 0 "/>
<path style=" stroke:none;fill-rule:nonzero;fill:url(#linear34);" d="M 33.332031 0 L 50 0 L 50 15 L 33.332031 15 Z M 33.332031 0 "/>
<path style=" stroke:none;fill-rule:nonzero;fill:url(#linear35);" d="M 54.167969 0 L 70.835938 0 L 70.835938 15 L 54.167969 15 Z M 54.167969 0 "/>
<path style=" stroke:none;fill-rule:nonzero;fill:url(#linear36);" d="M 108.332031 0 L 125 0 L 125 15 L 108.332031 15 Z M 108.332031 0 "/>
<path style=" stroke:none;fill-rule:nonzero;fill:url(#linear37);" d="M 162.5 0 L 179.167969 0 L 179.167969 15 L 162.5 15 Z M 162.5 0 "/>
<path style=" stroke:none;fill-rule:nonzero;fill:url(#linear38);" d="M 179.167969 0 L 195.835938 0 L 195.835938 15 L 179.167969 15 Z M 179.167969 0 "/>
<path style=" stroke:none;fill-rule:nonzero;fill:url(#linear39);" d="M 216.667969 0 L 233.335938 0 L 233.335938 15 L 216.667969 15 Z M 216.667969 0 "/>
<path style=" stroke:none;fill-rule:nonzero;fill:url(#linear40);" d="M 233.332031 0 L 250 0 L 250 15 L 233.332031 15 Z M 233.332031 0 "/>
<path style=" stroke:none;fill-rule:nonzero;fill:url(#linear41);" d="M 254.167969 0 L 270.835938 0 L 270.835938 15 L 254.167969 15 Z M 254.167969 0 "/>
<path style=" stroke:none;fill-rule:nonzero;fill:url(#linear42);" d="M 308.332031 0 L 325 0 L 325 15 L 308.332031 15 Z M 308.332031 0 "/>
<path style=" stroke:none;fill-rule:nonzero;fill:url(#linear43);" d="M 362.5 0 L 379.167969 0 L 379.167969 15 L 362.5 15 Z M 362.5 0 "/>
<path style=" stroke:none;fill-rule:nonzero;fill:url(#linear44);" d="M 379.167969 0 L 395.835938 0 L 395.835938 15 L 379.167969 15 Z M 379.167969 0 "/>
<path style=" stroke:none;fill-rule:nonzero;fill:url(#linear45);" d="M 416.667969 0 L 433.335938 0 L 433.335938 15 L 416.667969 15 Z M 416.667969 0 "/>
<path style=" stroke:none;fill-rule:nonzero;fill:url(#linear46);" d="M 433.332031 0 L 450 0 L 450 15 L 433.332031 15 Z M 433.332031 0 "/>
<path style=" stroke:none;fill-rule:nonzero;fill:url(#linear47);" d="M 454.167969 0 L 470.835938 0 L 470.835938 15 L 454.167969 15 Z M 454.167969 0 "/>
<path style=" stroke:none;fill-rule:nonzero;fill:url(#linear48);" d="M 508.332031 0 L 525 0 L 525 15 L 508.332031 15 Z M 508.332031 0 "/>
<path style=" stroke:none;fill-rule:nonzero;fill:url(#linear49);" d="M 562.5 0 L 579.167969 0 L 579.167969 15 L 562.5 15 Z M 562.5 0 "/>
<path style=" stroke:none;fill-rule:nonzero;fill:url(#linear50);" d="M 579.167969 0 L 595.835938 0 L 595.835938 15 L 579.167969 15 Z M 579.167969 0 "/>
<path style=" stroke:none;fill-rule:nonzero;fill:url(#linear51);" d="M 62.5 15 L 70.832031 15 L 70.832031 30 L 62.5 30 Z M 62.5 15 "/>
<path style=" stroke:none;fill-rule:nonzero;fill:url(#linear52);" d="M 135.417969 15 L 143.75 15 L 143.75 30 L 135.417969 30 Z M 135.417969 15 "/>
<path style=" stroke:none;fill-rule:nonzero;fill:url(#linear53);" d="M 189.582031 15 L 197.914062 15 L 197.914062 30 L 189.582031 30 Z M 189.582031 15 "/>
<path style=" stroke:none;fill-rule:nonzero;fill:url(#linear54);" d="M 262.5 15 L 270.832031 15 L 270.832031 30 L 262.5 30 Z M 262.5 15 "/>
<path style=" stroke:none;fill-rule:nonzero;fill:url(#linear55);" d="M 335.417969 15 L 343.75 15 L 343.75 30 L 335.417969 30 Z M 335.417969 15 "/>
<path style=" stroke:none;fill-rule:nonzero;fill:url(#linear56);" d="M 389.582031 15 L 397.914062 15 L 397.914062 30 L 389.582031 30 Z M 389.582031 15 "/>
<path style=" stroke:none;fill-rule:nonzero;fill:url(#linear57);" d="M 462.5 15 L 470.832031 15 L 470.832031 30 L 462.5 30 Z M 462.5 15 "/>
<path style=" stroke:none;fill-rule:nonzero;fill:url(#linear58);" d="M 535.417969 15 L 543.75 15 L 543.75 30 L 535.417969 30 Z M 535.417969 15 "/>
<path style=" stroke:none;fill-rule:nonzero;fill:url(#linear59);" d="M 589.582031 15 L 597.914062 15 L 597.914062 30 L 589.582031 30 Z M 589.582031 15 "/>
</g>
</svg>
