<?xml version="1.0" encoding="UTF-8"?>
<svg xmlns="http://www.w3.org/2000/svg" xmlns:xlink="http://www.w3.org/1999/xlink" width="600pt" height="30pt" viewBox="0 0 600 30" version="1.1" shape-rendering="crispEdges">
<defs>
<linearGradient id="linear0" gradientUnits="userSpaceOnUse" x1="37.5" y1="0" x2="50" y2="0" >
<stop offset="0" style="stop-color:rgb(0%,50.196078%,0%);stop-opacity:1;"/>
<stop offset="1" style="stop-color:rgb(0%,50.196078%,0%);stop-opacity:0.5;"/>
</linearGradient>
<linearGradient id="linear1" gradientUnits="userSpaceOnUse" x1="75" y1="0" x2="87.5" y2="0" >
<stop offset="0" style="stop-color:rgb(50.196078%,50.196078%,50.196078%);stop-opacity:1;"/>
<stop offset="1" style="stop-color:rgb(50.196078%,50.196078%,50.196078%);stop-opacity:0.5;"/>
</linearGradient>
<linearGradient id="linear2" gradientUnits="userSpaceOnUse" x1="112.5" y1="0" x2="125" y2="0" >
<stop offset="0" style="stop-color:rgb(0%,0%,100%);stop-opacity:1;"/>
<stop offset="1" style="stop-color:rgb(0%,0%,100%);stop-opacity:0.5;"/>
</linearGradient>
<linearGradient id="linear3" gradientUnits="userSpaceOnUse" x1="150" y1="0" x2="162.5" y2="0" >
<stop offset="0" style="stop-color:rgb(100%,0%,0%);stop-opacity:1;"/>
<stop offset="1" style="stop-color:rgb(100%,0%,0%);stop-opacity:0.5;"/>
</linearGradient>
<linearGradient id="linear4" gradientUnits="userSpaceOnUse" x1="237.5" y1="0" x2="250" y2="0" >
<stop offset="0" style="stop-color:rgb(0%,50.196078%,0%);stop-opacity:1;"/>
<stop offset="1" style="stop-color:rgb(0%,50.196078%,0%);stop-opacity:0.5;"/>
</linearGradient>
<linearGradient id="linear5" gradientUnits="userSpaceOnUse" x1="275" y1="0" x2="287.5" y2="0" >
<stop offset="0" style="stop-color:rgb(50.196078%,50.196078%,50.196078%);stop-opacity:1;"/>
<stop offset="1" style="stop-color:rgb(50.196078%,50.196078%,50.196078%);stop-opacity:0.5;"/>
</linearGradient>
<linearGradient id="linear6" gradientUnits="userSpaceOnUse" x1="312.5" y1="0" x2="325" y2="0" >
<stop offset="0" style="stop-color:rgb(0%,0%,100%);stop-opacity:1;"/>
<stop offset="1" style="stop-color:rgb(0%,0%,100%);stop-opacity:0.5;"/>
</linearGradient>
<linearGradient id="linear7" gradientUnits="userSpaceOnUse" x1="350" y1="0" x2="362.5" y2="0" >
<stop offset="0" style="stop-color:rgb(100%,0%,0%);stop-opacity:1;"/>
<stop offset="1" style="stop-color:rgb(100%,0%,0%);stop-opacity:0.5;"/>
</linearGradient>
<linearGradient id="linear8" gradientUnits="userSpaceOnUse" x1="437.5" y1="0" x2="450" y2="0" >
<stop offset="0" style="stop-color:rgb(0%,50.196078%,0%);stop-opacity:1;"/>
<stop offset="1" style="stop-color:rgb(0%,50.196078%,0%);stop-opacity:0.5;"/>
</linearGradient>
<linearGradient id="linear9" gradientUnits="userSpaceOnUse" x1="475" y1="0" x2="487.5" y2="0" >
<stop offset="0" style="stop-color:rgb(50.196078%,50.196078%,50.196078%);stop-opacity:1;"/>
<stop offset="1" style="stop-color:rgb(50.196078%,50.196078%,50.196078%);stop-opacity:0.5;"/>
</linearGradient>
<linearGradient id="linear10" gradientUnits="userSpaceOnUse" x1="512.5" y1="0" x2="525" y2="0" >
<stop offset="0" style="stop-color:rgb(0%,0%,100%);stop-opacity:1;"/>
<stop offset="1" style="stop-color:rgb(0%,0%,100%);stop-opacity:0.5;"/>
</linearGradient>
<linearGradient id="linear11" gradientUnits="userSpaceOnUse" x1="550" y1="0" x2="562.5" y2="0" >
<stop offset="0" style="stop-color:rgb(100%,0%,0%);stop-opacity:1;"/>
<stop offset="1" style="stop-color:rgb(100%,0%,0%);stop-opacity:0.5;"/>
</linearGradient>
<linearGradient id="linear12" gradientUnits="userSpaceOnUse" x1="0" y1="0" x2="12.5" y2="0" >
<stop offset="0" style="stop-color:rgb(100%,0%,0%);stop-opacity:1;"/>
<stop offset="1" style="stop-color:rgb(100%,0%,0%);stop-opacity:0.5;"/>
</linearGradient>
<linearGradient id="linear13" gradientUnits="userSpaceOnUse" x1="12.5" y1="0" x2="25" y2="0" >
<stop offset="0" style="stop-color:rgb(0%,0%,100%);stop-opacity:1;"/>
<stop offset="1" style="stop-color:rgb(0%,0%,100%);stop-opacity:0.5;"/>
</linearGradient>
<linearGradient id="linear14" gradientUnits="userSpaceOnUse" x1="25" y1="0" x2="37.5" y2="0" >
<stop offset="0" style="stop-color:rgb(50.196078%,50.196078%,50.196078%);stop-opacity:1;"/>
<stop offset="1" style="stop-color:rgb(50.196078%,50.196078%,50.196078%);stop-opacity:0.5;"/>
</linearGradient>
<linearGradient id="linear15" gradientUnits="userSpaceOnUse" x1="50" y1="0" x2="62.5" y2="0" >
<stop offset="0" style="stop-color:rgb(100%,0%,0%);stop-opacity:1;"/>
<stop offset="1" style="stop-color:rgb(100%,0%,0%);stop-opacity:0.5;"/>
</linearGradient>
<linearGradient id="linear16" gradientUnits="userSpaceOnUse" x1="62.5" y1="0" x2="75" y2="0" >
<stop offset="0" style="stop-color:rgb(0%,0%,100%);stop-opacity:1;"/>
<stop offset="1" style="stop-color:rgb(0%,0%,100%);stop-opacity:0.5;"/>
</linearGradient>
<linearGradient id="linear17" gradientUnits="userSpaceOnUse" x1="87.5" y1="0" x2="100" y2="0" >
<stop offset="0" style="stop-color:rgb(0%,50.196078%,0%);stop-opacity:1;"/>
<stop offset="1" style="stop-color:rgb(0%,50.196078%,0%);stop-opacity:0.5;"/>
</linearGradient>
<linearGradient id="linear18" gradientUnits="userSpaceOnUse" x1="100" y1="0" x2="112.5" y2="0" >
<stop offset="0" style="stop-color:rgb(100%,0%,0%);stop-opacity:1;"/>
<stop offset="1" style="stop-color:rgb(100%,0%,0%);stop-opacity:0.5;"/>
</linearGradient>
<linearGradient id="linear19" gradientUnits="userSpaceOnUse" x1="125" y1="0" x2="137.5" y2="0" >
<stop offset="0" style="stop-color:rgb(50.196078%,50.196078%,50.196078%);stop-opacity:1;"/>
<stop offset="1" style="stop-color:rgb(50.196078%,50.196078%,50.196078%);stop-opacity:0.5;"/>
</linearGradient>
<linearGradient id="linear20" gradientUnits="userSpaceOnUse" x1="137.5" y1="0" x2="150" y2="0" >
<stop offset="0" style="stop-color:rgb(0%,50.196078%,0%);stop-opacity:1;"/>
<stop offset="1" style="stop-color:rgb(0%,50.196078%,0%);stop-opacity:0.5;"/>
</linearGradient>
<linearGradient id="linear21" gradientUnits="userSpaceOnUse" x1="162.5" y1="0" x2="175" y2="0" >
<stop offset="0" style="stop-color:rgb(0%,0%,100%);stop-opacity:1;"/>
<stop offset="1" style="stop-color:rgb(0%,0%,100%);stop-opacity:0.5;"/>
</linearGradient>
<linearGradient id="linear22" gradientUnits="userSpaceOnUse" x1="175" y1="0" x2="187.5" y2="0" >
<stop offset="0" style="stop-color:rgb(50.196078%,50.196078%,50.196078%);stop-opacity:1;"/>
<stop offset="1" style="stop-color:rgb(50.196078%,50.196078%,50.196078%);stop-opacity:0.5;"/>
</linearGradient>
<linearGradient id="linear23" gradientUnits="userSpaceOnUse" x1="187.5" y1="0" x2="200" y2="0" >
<stop offset="0" style="stop-color:rgb(0%,50.196078%,0%);stop-opacity:1;"/>
<stop offset="1" style="stop-color:rgb(0%,50.196078%,0%);stop-opacity:0.5;"/>
</linearGradient>
<linearGradient id="linear24" gradientUnits="userSpaceOnUse" x1="200" y1="0" x2="212.5" y2="0" >
<stop offset="0" style="stop-color:rgb(100%,0%,0%);stop-opacity:1;"/>
<stop offset="1" style="stop-color:rgb(100%,0%,0%);stop-opacity:0.5;"/>
</linearGradient>
<linearGradient id="linear25" gradientUnits="userSpaceOnUse" x1="212.5" y1="0" x2="225" y2="0" >
<stop offset="0" style="stop-color:rgb(0%,0%,100%);stop-opacity:1;"/>
<stop offset="1" style="stop-color:rgb(0%,0%,100%);stop-opacity:0.5;"/>
</linearGradient>
<linearGradient id="linear26" gradientUnits="userSpaceOnUse" x1="225" y1="0" x2="237.5" y2="0" >
<stop offset="0" style="stop-color:rgb(50.196078%,50.196078%,50.196078%);stop-opacity:1;"/>
<stop offset="1" style="stop-color:rgb(50.196078%,50.196078%,50.196078%);stop-opacity:0.5;"/>
</linearGradient>
<linearGradient id="linear27" gradientUnits="userSpaceOnUse" x1="250" y1="0" x2="262.5" y2="0" >
<stop offset="0" style="stop-color:rgb(100%,0%,0%);stop-opacity:1;"/>
<stop offset="1" style="stop-color:rgb(100%,0%,0%);stop-opacity:0.5;"/>
</linearGradient>
<linearGradient id="linear28" gradientUnits="userSpaceOnUse" x1="262.5" y1="0" x2="275" y2="0" >
<stop offset="0" style="stop-color:rgb(0%,0%,100%);stop-opacity:1;"/>
<stop offset="1" style="stop-color:rgb(0%,0%,100%);stop-opacity:0.5;"/>
</linearGradient>
<linearGradient id="linear29" gradientUnits="userSpaceOnUse" x1="287.5" y1="0" x2="300" y2="0" >
<stop offset="0" style="stop-color:rgb(0%,50.196078%,0%);stop-opacity:1;"/>
<stop offset="1" style="stop-color:rgb(0%,50.196078%,0%);stop-opacity:0.5;"/>
</linearGradient>
<linearGradient id="linear30" gradientUnits="userSpaceOnUse" x1="300" y1="0" x2="312.5" y2="0" >
<stop offset="0" style="stop-color:rgb(100%,0%,0%);stop-opacity:1;"/>
<stop offset="1" style="stop-color:rgb(100%,0%,0%);stop-opacity:0.5;"/>
</linearGradient>
<linearGradient id="linear31" gradientUnits="userSpaceOnUse" x1="325" y1="0" x2="337.5" y2="0" >
<stop offset="0" style="stop-color:rgb(50.196078%,50.196078%,50.196078%);stop-opacity:1;"/>
<stop offset="1" style="stop-color:rgb(50.196078%,50.196078%,50.196078%);stop-opacity:0.5;"/>
</linearGradient>
<linearGradient id="linear32" gradientUnits="userSpaceOnUse" x1="337.5" y1="0" x2="350" y2="0" >
<stop offset="0" style="stop-color:rgb(0%,50.196078%,0%);stop-opacity:1;"/>
<stop offset="1" style="stop-color:rgb(0%,50.196078%,0%);stop-opacity:0.5;"/>
</linearGradient>
<linearGradient id="linear33" gradientUnits="userSpaceOnUse" x1="362.5" y1="0" x2="375" y2="0" >
<stop offset="0" style="stop-color:rgb(0%,0%,100%);stop-opacity:1;"/>
<stop offset="1" style="stop-color:rgb(0%,0%,100%);stop-opacity:0.5;"/>
</linearGradient>
<linearGradient id="linear34" gradientUnits="userSpaceOnUse" x1="375" y1="0" x2="387.5" y2="0" >
<stop offset="0" style="stop-color:rgb(50.196078%,50.196078%,50.196078%);stop-opacity:1;"/>
<stop offset="1" style="stop-color:rgb(50.196078%,50.196078%,50.196078%);stop-opacity:0.5;"/>
</linearGradient>
<linearGradient id="linear35" gradientUnits="userSpaceOnUse" x1="387.5" y1="0" x2="400" y2="0" >
<stop offset="0" style="stop-color:rgb(0%,50.196078%,0%);stop-opacity:1;"/>
<stop offset="1" style="stop-color:rgb(0%,50.196078%,0%);stop-opacity:0.5;"/>
</linearGradient>
<linearGradient id="linear36" gradientUnits="userSpaceOnUse" x1="400" y1="0" x2="412.5" y2="0" >
<stop offset="0" style="stop-color:rgb(100%,0%,0%);stop-opacity:1;"/>
<stop offset="1" style="stop-color:rgb(100%,0%,0%);stop-opacity:0.5;"/>
</linearGradient>
<linearGradient id="linear37" gradientUnits="userSpaceOnUse" x1="412.5" y1="0" x2="425" y2="0" >
<stop offset="0" style="stop-color:rgb(0%,0%,100%);stop-opacity:1;"/>
<stop offset="1" style="stop-color:rgb(0%,0%,100%);stop-opacity:0.5;"/>
</linearGradient>
<linearGradient id="linear38" gradientUnits="userSpaceOnUse" x1="425" y1="0" x2="437.5" y2="0" >
<stop offset="0" style="stop-color:rgb(50.196078%,50.196078%,50.196078%);stop-opacity:1;"/>
<stop offset="1" style="stop-color:rgb(50.196078%,50.196078%,50.196078%);stop-opacity:0.5;"/>
</linearGradient>
<linearGradient id="linear39" gradientUnits="userSpaceOnUse" x1="450" y1="0" x2="462.5" y2="0" >
<stop offset="0" style="stop-color:rgb(100%,0%,0%);stop-opacity:1;"/>
<stop offset="1" style="stop-color:rgb(100%,0%,0%);stop-opacity:0.5;"/>
</linearGradient>
<linearGradient id="linear40" gradientUnits="userSpaceOnUse" x1="462.5" y1="0" x2="475" y2="0" >
<stop offset="0" style="stop-color:rgb(0%,0%,100%);stop-opacity:1;"/>
<stop offset="1" style="stop-color:rgb(0%,0%,100%);stop-opacity:0.5;"/>
</linearGradient>
<linearGradient id="linear41" gradientUnits="userSpaceOnUse" x1="487.5" y1="0" x2="500" y2="0" >
<stop offset="0" style="stop-color:rgb(0%,50.196078%,0%);stop-opacity:1;"/>
<stop offset="1" style="stop-color:rgb(0%,50.196078%,0%);stop-opacity:0.5;"/>
</linearGradient>
<linearGradient id="linear42" gradientUnits="userSpaceOnUse" x1="500" y1="0" x2="512.5" y2="0" >
<stop offset="0" style="stop-color:rgb(100%,0%,0%);stop-opacity:1;"/>
<stop offset="1" style="stop-color:rgb(100%,0%,0%);stop-opacity:0.5;"/>
</linearGradient>
<linearGradient id="linear43" gradientUnits="userSpaceOnUse" x1="525" y1="0" x2="537.5" y2="0" >
<stop offset="0" style="stop-color:rgb(50.196078%,50.196078%,50.196078%);stop-opacity:1;"/>
<stop offset="1" style="stop-color:rgb(50.196078%,50.196078%,50.196078%);stop-opacity:0.5;"/>
</linearGradient>
<linearGradient id="linear44" gradientUnits="userSpaceOnUse" x1="537.5" y1="0" x2="550" y2="0" >
<stop offset="0" style="stop-color:rgb(0%,50.196078%,0%);stop-opacity:1;"/>
<stop offset="1" style="stop-color:rgb(0%,50.196078%,0%);stop-opacity:0.5;"/>
</linearGradient>
<linearGradient id="linear45" gradientUnits="userSpaceOnUse" x1="562.5" y1="0" x2="575" y2="0" >
<stop offset="0" style="stop-color:rgb(0%,0%,100%);stop-opacity:1;"/>
<stop offset="1" style="stop-color:rgb(0%,0%,100%);stop-opacity:0.5;"/>
</linearGradient>
<linearGradient id="linear46" gradientUnits="userSpaceOnUse" x1="575" y1="0" x2="587.5" y2="0" >
<stop offset="0" style="stop-color:rgb(50.196078%,50.196078%,50.196078%);stop-opacity:1;"/>
<stop offset="1" style="stop-color:rgb(50.196078%,50.196078%,50.196078%);stop-opacity:0.5;"/>
</linearGradient>
<linearGradient id="linear47" gradientUnits="userSpaceOnUse" x1="587.5" y1="0" x2="600" y2="0" >
<stop offset="0" style="stop-color:rgb(0%,50.196078%,0%);stop-opacity:1;"/>
<stop offset="1" style="stop-color:rgb(0%,50.196078%,0%);stop-opacity:0.5;"/>
</linearGradient>
<linearGradient id="linear48" gradientUnits="userSpaceOnUse" x1="0" y1="0" x2="6.25" y2="0" >
<stop offset="0" style="stop-color:rgb(100%,0%,0%);stop-opacity:1;"/>
<stop offset="1" style="stop-color:rgb(100%,0%,0%);stop-opacity:0.5;"/>
</linearGradient>
<linearGradient id="linear49" gradientUnits="userSpaceOnUse" x1="6.25" y1="0" x2="12.5" y2="0" >
<stop offset="0" style="stop-color:rgb(0%,0%,100%);stop-opacity:1;"/>
<stop offset="1" style="stop-color:rgb(0%,0%,100%);stop-opacity:0.5;"/>
</linearGradient>
<linearGradient id="linear50" gradientUnits="userSpaceOnUse" x1="62.5" y1="0" x2="68.75" y2="0" >
<stop offset="0" style="stop-color:rgb(50.196078%,50.196078%,50.196078%);stop-opacity:1;"/>
<stop offset="1" style="stop-color:rgb(50.196078%,50.196078%,50.196078%);stop-opacity:0.5;"/>
</linearGradient>
<linearGradient id="linear51" gradientUnits="userSpaceOnUse" x1="68.75" y1="0" x2="75" y2="0" >
<stop offset="0" style="stop-color:rgb(0%,50.196078%,0%);stop-opacity:1;"/>
<stop offset="1" style="stop-color:rgb(0%,50.196078%,0%);stop-opacity:0.5;"/>
</linearGradient>
<linearGradient id="linear52" gradientUnits="userSpaceOnUse" x1="125" y1="0" x2="131.25" y2="0" >
<stop offset="0" style="stop-color:rgb(100%,0%,0%);stop-opacity:1;"/>
<stop offset="1" style="stop-color:rgb(100%,0%,0%);stop-opacity:0.5;"/>
</linearGradient>
<linearGradient id="linear53" gradientUnits="userSpaceOnUse" x1="131.25" y1="0" x2="137.5" y2="0" >
<stop offset="0" style="stop-color:rgb(0%,0%,100%);stop-opacity:1;"/>
<stop offset="1" style="stop-color:rgb(0%,0%,100%);stop-opacity:0.5;"/>
</linearGradient>
<linearGradient id="linear54" gradientUnits="userSpaceOnUse" x1="187.5" y1="0" x2="193.75" y2="0" >
<stop offset="0" style="stop-color:rgb(50.196078%,50.196078%,50.196078%);stop-opacity:1;"/>
<stop offset="1" style="stop-color:rgb(50.196078%,50.196078%,50.196078%);stop-opacity:0.5;"/>
</linearGradient>
<linearGradient id="linear55" gradientUnits="userSpaceOnUse" x1="193.75" y1="0" x2="200" y2="0" >
<stop offset="0" style="stop-color:rgb(0%,50.196078%,0%);stop-opacity:1;"/>
<stop offset="1" style="stop-color:rgb(0%,50.196078%,0%);stop-opacity:0.5;"/>
</linearGradient>
<linearGradient id="linear56" gradientUnits="userSpaceOnUse" x1="200" y1="0" x2="206.25" y2="0" >
<stop offset="0" style="stop-color:rgb(100%,0%,0%);stop-opacity:1;"/>
<stop offset="1" style="stop-color:rgb(100%,0%,0%);stop-opacity:0.5;"/>
</linearGradient>
<linearGradient id="linear57" gradientUnits="userSpaceOnUse" x1="206.25" y1="0" x2="212.5" y2="0" >
<stop offset="0" style="stop-color:rgb(0%,0%,100%);stop-opacity:1;"/>
<stop offset="1" style="stop-color:rgb(0%,0%,100%);stop-opacity:0.5;"/>
</linearGradient>
<linearGradient id="linear58" gradientUnits="userSpaceOnUse" x1="262.5" y1="0" x2="268.75" y2="0" >
<stop offset="0" style="stop-color:rgb(50.196078%,50.196078%,50.196078%);stop-opacity:1;"/>
<stop offset="1" style="stop-color:rgb(50.196078%,50.196078%,50.196078%);stop-opacity:0.5;"/>
</linearGradient>
<linearGradient id="linear59" gradientUnits="userSpaceOnUse" x1="268.75" y1="0" x2="275" y2="0" >
<stop offset="0" style="stop-color:rgb(0%,50.196078%,0%);stop-opacity:1;"/>
<stop offset="1" style="stop-color:rgb(0%,50.196078%,0%);stop-opacity:0.5;"/>
</linearGradient>
<linearGradient id="linear60" gradientUnits="userSpaceOnUse" x1="325" y1="0" x2="331.25" y2="0" >
<stop offset="0" style="stop-color:rgb(100%,0%,0%);stop-opacity:1;"/>
<stop offset="1" style="stop-color:rgb(100%,0%,0%);stop-opacity:0.5;"/>
</linearGradient>
<linearGradient id="linear61" gradientUnits="userSpaceOnUse" x1="331.25" y1="0" x2="337.5" y2="0" >
<stop offset="0" style="stop-color:rgb(0%,0%,100%);stop-opacity:1;"/>
<stop offset="1" style="stop-color:rgb(0%,0%,100%);stop-opacity:0.5;"/>
</linearGradient>
<linearGradient id="linear62" gradientUnits="userSpaceOnUse" x1="387.5" y1="0" x2="393.75" y2="0" >
<stop offset="0" style="stop-color:rgb(50.196078%,50.196078%,50.196078%);stop-opacity:1;"/>
<stop offset="1" style="stop-color:rgb(50.196078%,50.196078%,50.196078%);stop-opacity:0.5;"/>
</linearGradient>
<linearGradient id="linear63" gradientUnits="userSpaceOnUse" x1="393.75" y1="0" x2="400" y2="0" >
<stop offset="0" style="stop-color:rgb(0%,50.196078%,0%);stop-opacity:1;"/>
<stop offset="1" style="stop-color:rgb(0%,50.196078%,0%);stop-opacity:0.5;"/>
</linearGradient>
<linearGradient id="linear64" gradientUnits="userSpaceOnUse" x1="400" y1="0" x2="406.25" y2="0" >
<stop offset="0" style="stop-color:rgb(100%,0%,0%);stop-opacity:1;"/>
<stop offset="1" style="stop-color:rgb(100%,0%,0%);stop-opacity:0.5;"/>
</linearGradient>
<linearGradient id="linear65" gradientUnits="userSpaceOnUse" x1="406.25" y1="0" x2="412.5" y2="0" >
<stop offset="0" style="stop-color:rgb(0%,0%,100%);stop-opacity:1;"/>
<stop offset="1" style="stop-color:rgb(0%,0%,100%);stop-opacity:0.5;"/>
</linearGradient>
<linearGradient id="linear66" gradientUnits="userSpaceOnUse" x1="462.5" y1="0" x2="468.75" y2="0" >
<stop offset="0" style="stop-color:rgb(50.196078%,50.196078%,50.196078%);stop-opacity:1;"/>
<stop offset="1" style="stop-color:rgb(50.196078%,50.196078%,50.196078%);stop-opacity:0.5;"/>
</linearGradient>
<linearGradient id="linear67" gradientUnits="userSpaceOnUse" x1="468.75" y1="0" x2="475" y2="0" >
<stop offset="0" style="stop-color:rgb(0%,50.196078%,0%);stop-opacity:1;"/>
<stop offset="1" style="stop-color:rgb(0%,50.196078%,0%);stop-opacity:0.5;"/>
</linearGradient>
<linearGradient id="linear68" gradientUnits="userSpaceOnUse" x1="525" y1="0" x2="531.25" y2="0" >
<stop offset="0" style="stop-color:rgb(100%,0%,0%);stop-opacity:1;"/>
<stop offset="1" style="stop-color:rgb(100%,0%,0%);stop-opacity:0.5;"/>
</linearGradient>
<linearGradient id="linear69" gradientUnits="userSpaceOnUse" x1="531.25" y1="0" x2="537.5" y2="0" >
<stop offset="0" style="stop-color:rgb(0%,0%,100%);stop-opacity:1;"/>
<stop offset="1" style="stop-color:rgb(0%,0%,100%);stop-opacity:0.5;"/>
</linearGradient>
<linearGradient id="linear70" gradientUnits="userSpaceOnUse" x1="587.5" y1="0" x2="593.75" y2="0" >
<stop offset="0" style="stop-color:rgb(50.196078%,50.196078%,50.196078%);stop-opacity:1;"/>
<stop offset="1" style="stop-color:rgb(50.196078%,50.196078%,50.196078%);stop-opacity:0.5;"/>
</linearGradient>
<linearGradient id="linear71" gradientUnits="userSpaceOnUse" x1="593.75" y1="0" x2="600" y2="0" >
<stop offset="0" style="stop-color:rgb(0%,50.196078%,0%);stop-opacity:1;"/>
<stop offset="1" style="stop-color:rgb(0%,50.196078%,0%);stop-opacity:0.5;"/>
</linearGradient>
<linearGradient id="linear72" gradientUnits="userSpaceOnUse" x1="37.5" y1="0" x2="43.75" y2="0" >
<stop offset="0" style="stop-color:rgb(50.196078%,50.196078%,50.196078%);stop-opacity:1;"/>
<stop offset="1" style="stop-color:rgb(50.196078%,50.196078%,50.196078%);stop-opacity:0.5;"/>
</linearGradient>
<linearGradient id="linear73" gradientUnits="userSpaceOnUse" x1="43.75" y1="0" x2="50" y2="0" >
<stop offset="0" style="stop-color:rgb(0%,50.196078%,0%);stop-opacity:1;"/>
<stop offset="1" style="stop-color:rgb(0%,50.196078%,0%);stop-opacity:0.5;"/>
</linearGradient>
<linearGradient id="linear74" gradientUnits="userSpaceOnUse" x1="75" y1="0" x2="81.25" y2="0" >
<stop offset="0" style="stop-color:rgb(100%,0%,0%);stop-opacity:1;"/>
<stop offset="1" style="stop-color:rgb(100%,0%,0%);stop-opacity:0.5;"/>
</linearGradient>
<linearGradient id="linear75" gradientUnits="userSpaceOnUse" x1="81.25" y1="0" x2="87.5" y2="0" >
<stop offset="0" style="stop-color:rgb(0%,0%,100%);stop-opacity:1;"/>
<stop offset="1" style="stop-color:rgb(0%,0%,100%);stop-opacity:0.5;"/>
</linearGradient>
<linearGradient id="linear76" gradientUnits="userSpaceOnUse" x1="112.5" y1="0" x2="118.75" y2="0" >
<stop offset="0" style="stop-color:rgb(50.196078%,50.196078%,50.196078%);stop-opacity:1;"/>
<stop offset="1" style="stop-color:rgb(50.196078%,50.196078%,50.196078%);stop-opacity:0.5;"/>
</linearGradient>
<linearGradient id="linear77" gradientUnits="userSpaceOnUse" x1="118.75" y1="0" x2="125" y2="0" >
<stop offset="0" style="stop-color:rgb(0%,50.196078%,0%);stop-opacity:1;"/>
<stop offset="1" style="stop-color:rgb(0%,50.196078%,0%);stop-opacity:0.5;"/>
</linearGradient>
<linearGradient id="linear78" gradientUnits="userSpaceOnUse" x1="150" y1="0" x2="156.25" y2="0" >
<stop offset="0" style="stop-color:rgb(100%,0%,0%);stop-opacity:1;"/>
<stop offset="1" style="stop-color:rgb(100%,0%,0%);stop-opacity:0.5;"/>
</linearGradient>
<linearGradient id="linear79" gradientUnits="userSpaceOnUse" x1="156.25" y1="0" x2="162.5" y2="0" >
<stop offset="0" style="stop-color:rgb(0%,0%,100%);stop-opacity:1;"/>
<stop offset="1" style="stop-color:rgb(0%,0%,100%);stop-opacity:0.5;"/>
</linearGradient>
<linearGradient id="linear80" gradientUnits="userSpaceOnUse" x1="237.5" y1="0" x2="243.75" y2="0" >
<stop offset="0" style="stop-color:rgb(50.196078%,50.196078%,50.196078%);stop-opacity:1;"/>
<stop offset="1" style="stop-color:rgb(50.196078%,50.196078%,50.196078%);stop-opacity:0.5;"/>
</linearGradient>
<linearGradient id="linear81" gradientUnits="userSpaceOnUse" x1="243.75" y1="0" x2="250" y2="0" >
<stop offset="0" style="stop-color:rgb(0%,50.196078%,0%);stop-opacity:1;"/>
<stop offset="1" style="stop-color:rgb(0%,50.196078%,0%);stop-opacity:0.5;"/>
</linearGradient>
<linearGradient id="linear82" gradientUnits="userSpaceOnUse" x1="275" y1="0" x2="281.25" y2="0" >
<stop offset="0" style="stop-color:rgb(100%,0%,0%);stop-opacity:1;"/>
<stop offset="1" style="stop-color:rgb(100%,0%,0%);stop-opacity:0.5;"/>
</linearGradient>
<linearGradient id="linear83" gradientUnits="userSpaceOnUse" x1="281.25" y1="0" x2="287.5" y2="0" >
<stop offset="0" style="stop-color:rgb(0%,0%,100%);stop-opacity:1;"/>
<stop offset="1" style="stop-color:rgb(0%,0%,100%);stop-opacity:0.5;"/>
</linearGradient>
<linearGradient id="linear84" gradientUnits="userSpaceOnUse" x1="312.5" y1="0" x2="318.75" y2="0" >
<stop offset="0" style="stop-color:rgb(50.196078%,50.196078%,50.196078%);stop-opacity:1;"/>
<stop offset="1" style="stop-color:rgb(50.196078%,50.196078%,50.196078%);stop-opacity:0.5;"/>
</linearGradient>
<linearGradient id="linear85" gradientUnits="userSpaceOnUse" x1="318.75" y1="0" x2="325" y2="0" >
<stop offset="0" style="stop-color:rgb(0%,50.196078%,0%);stop-opacity:1;"/>
<stop offset="1" style="stop-color:rgb(0%,50.196078%,0%);stop-opacity:0.5;"/>
</linearGradient>
<linearGradient id="linear86" gradientUnits="userSpaceOnUse" x1="350" y1="0" x2="356.25" y2="0" >
<stop offset="0" style="stop-color:rgb(100%,0%,0%);stop-opacity:1;"/>
<stop offset="1" style="stop-color:rgb(100%,0%,0%);stop-opacity:0.5;"/>
</linearGradient>
<linearGradient id="linear87" gradientUnits="userSpaceOnUse" x1="356.25" y1="0" x2="362.5" y2="0" >
<stop offset="0" style="stop-color:rgb(0%,0%,100%);stop-opacity:1;"/>
<stop offset="1" style="stop-color:rgb(0%,0%,100%);stop-opacity:0.5;"/>
</linearGradient>
<linearGradient id="linear88" gradientUnits="userSpaceOnUse" x1="437.5" y1="0" x2="443.75" y2="0" >
<stop offset="0" style="stop-color:rgb(50.196078%,50.196078%,50.196078%);stop-opacity:1;"/>
<stop offset="1" style="stop-color:rgb(50.196078%,50.196078%,50.196078%);stop-opacity:0.5;"/>
</linearGradient>
<linearGradient id="linear89" gradientUnits="userSpaceOnUse" x1="443.75" y1="0" x2="450" y2="0" >
<stop offset="0" style="stop-color:rgb(0%,50.196078%,0%);stop-opacity:1;"/>
<stop offset="1" style="stop-color:rgb(0%,50.196078%,0%);stop-opacity:0.5;"/>
</linearGradient>
<linearGradient id="linear90" gradientUnits="userSpaceOnUse" x1="475" y1="0" x2="481.25" y2="0" >
<stop offset="0" style="stop-color:rgb(100%,0%,0%);stop-opacity:1;"/>
<stop offset="1" style="stop-color:rgb(100%,0%,0%);stop-opacity:0.5;"/>
</linearGradient>
<linearGradient id="linear91" gradientUnits="userSpaceOnUse" x1="481.25" y1="0" x2="487.5" y2="0" >
<stop offset="0" style="stop-color:rgb(0%,0%,100%);stop-opacity:1;"/>
<stop offset="1" style="stop-color:rgb(0%,0%,100%);stop-opacity:0.5;"/>
</linearGradient>
<linearGradient id="linear92" gradientUnits="userSpaceOnUse" x1="512.5" y1="0" x2="518.75" y2="0" >
<stop offset="0" style="stop-color:rgb(50.196078%,50.196078%,50.196078%);stop-opacity:1;"/>
<stop offset="1" style="stop-color:rgb(50.196078%,50.196078%,50.196078%);stop-opacity:0.5;"/>
</linearGradient>
<linearGradient id="linear93" gradientUnits="userSpaceOnUse" x1="518.75" y1="0" x2="525" y2="0" >
<stop offset="0" style="stop-color:rgb(0%,50.196078%,0%);stop-opacity:1;"/>
<stop offset="1" style="stop-color:rgb(0%,50.196078%,0%);stop-opacity:0.5;"/>
</linearGradient>
<linearGradient id="linear94" gradientUnits="userSpaceOnUse" x1="550" y1="0" x2="556.25" y2="0" >
<stop offset="0" style="stop-color:rgb(100%,0%,0%);stop-opacity:1;"/>
<stop offset="1" style="stop-color:rgb(100%,0%,0%);stop-opacity:0.5;"/>
</linearGradient>
<linearGradient id="linear95" gradientUnits="userSpaceOnUse" x1="556.25" y1="0" x2="562.5" y2="0" >
<stop offset="0" style="stop-color:rgb(0%,0%,100%);stop-opacity:1;"/>
<stop offset="1" style="stop-color:rgb(0%,0%,100%);stop-opacity:0.5;"/>
</linearGradient>
<linearGradient id="linear96" gradientUnits="userSpaceOnUse" x1="12.5" y1="0" x2="25" y2="0" >
<stop offset="0" style="stop-color:rgb(0%,0%,100%);stop-opacity:1;"/>
<stop offset="1" style="stop-color:rgb(0%,0%,100%);stop-opacity:0.5;"/>
</linearGradient>
<linearGradient id="linear97" gradientUnits="userSpaceOnUse" x1="25" y1="0" x2="37.5" y2="0" >
<stop offset="0" style="stop-color:rgb(50.196078%,50.196078%,50.196078%);stop-opacity:1;"/>
<stop offset="1" style="stop-color:rgb(50.196078%,50.196078%,50.196078%);stop-opacity:0.5;"/>
</linearGradient>
<linearGradient id="linear98" gradientUnits="userSpaceOnUse" x1="50" y1="0" x2="62.5" y2="0" >
<stop offset="0" style="stop-color:rgb(100%,0%,0%);stop-opacity:1;"/>
<stop offset="1" style="stop-color:rgb(100%,0%,0%);stop-opacity:0.5;"/>
</linearGradient>
<linearGradient id="linear99" gradientUnits="userSpaceOnUse" x1="87.5" y1="0" x2="100" y2="0" >
<stop offset="0" style="stop-color:rgb(0%,50.196078%,0%);stop-opacity:1;"/>
<stop offset="1" style="stop-color:rgb(0%,50.196078%,0%);stop-opacity:0.5;"/>
</linearGradient>
<linearGradient id="linear100" gradientUnits="userSpaceOnUse" x1="100" y1="0" x2="112.5" y2="0" >
<stop offset="0" style="stop-color:rgb(100%,0%,0%);stop-opacity:1;"/>
<stop offset="1" style="stop-color:rgb(100%,0%,0%);stop-opacity:0.5;"/>
</linearGradient>
<linearGradient id="linear101" gradientUnits="userSpaceOnUse" x1="137.5" y1="0" x2="150" y2="0" >
<stop offset="0" style="stop-color:rgb(0%,50.196078%,0%);stop-opacity:1;"/>
<stop offset="1" style="stop-color:rgb(0%,50.196078%,0%);stop-opacity:0.5;"/>
</linearGradient>
<linearGradient id="linear102" gradientUnits="userSpaceOnUse" x1="162.5" y1="0" x2="175" y2="0" >
<stop offset="0" style="stop-color:rgb(0%,0%,100%);stop-opacity:1;"/>
<stop offset="1" style="stop-color:rgb(0%,0%,100%);stop-opacity:0.5;"/>
</linearGradient>
<linearGradient id="linear103" gradientUnits="userSpaceOnUse" x1="175" y1="0" x2="187.5" y2="0" >
<stop offset="0" style="stop-color:rgb(50.196078%,50.196078%,50.196078%);stop-opacity:1;"/>
<stop offset="1" style="stop-color:rgb(50.196078%,50.196078%,50.196078%);stop-opacity:0.5;"/>
</linearGradient>
<linearGradient id="linear104" gradientUnits="userSpaceOnUse" x1="212.5" y1="0" x2="225" y2="0" >
<stop offset="0" style="stop-color:rgb(0%,0%,100%);stop-opacity:1;"/>
<stop offset="1" style="stop-color:rgb(0%,0%,100%);stop-opacity:0.5;"/>
</linearGradient>
<linearGradient id="linear105" gradientUnits="userSpaceOnUse" x1="225" y1="0" x2="237.5" y2="0" >
<stop offset="0" style="stop-color:rgb(50.196078%,50.196078%,50.196078%);stop-opacity:1;"/>
<stop offset="1" style="stop-color:rgb(50.196078%,50.196078%,50.196078%);stop-opacity:0.5;"/>
</linearGradient>
<linearGradient id="linear106" gradientUnits="userSpaceOnUse" x1="250" y1="0" x2="262.5" y2="0" >
<stop offset="0" style="stop-color:rgb(100%,0%,0%);stop-opacity:1;"/>
<stop offset="1" style="stop-color:rgb(100%,0%,0%);stop-opacity:0.5;"/>
</linearGradient>
<linearGradient id="linear107" gradientUnits="userSpaceOnUse" x1="287.5" y1="0" x2="300" y2="0" >
<stop offset="0" style="stop-color:rgb(0%,50.196078%,0%);stop-opacity:1;"/>
<stop offset="1" style="stop-color:rgb(0%,50.196078%,0%);stop-opacity:0.5;"/>
</linearGradient>
<linearGradient id="linear108" gradientUnits="userSpaceOnUse" x1="300" y1="0" x2="312.5" y2="0" >
<stop offset="0" style="stop-color:rgb(100%,0%,0%);stop-opacity:1;"/>
<stop offset="1" style="stop-color:rgb(100%,0%,0%);stop-opacity:0.5;"/>
</linearGradient>
<linearGradient id="linear109" gradientUnits="userSpaceOnUse" x1="337.5" y1="0" x2="350" y2="0" >
<stop offset="0" style="stop-color:rgb(0%,50.196078%,0%);stop-opacity:1;"/>
<stop offset="1" style="stop-color:rgb(0%,50.196078%,0%);stop-opacity:0.5;"/>
</linearGradient>
<linearGradient id="linear110" gradientUnits="userSpaceOnUse" x1="362.5" y1="0" x2="375" y2="0" >
<stop offset="0" style="stop-color:rgb(0%,0%,100%);stop-opacity:1;"/>
<stop offset="1" style="stop-color:rgb(0%,0%,100%);stop-opacity:0.5;"/>
</linearGradient>
<linearGradient id="linear111" gradientUnits="userSpaceOnUse" x1="375" y1="0" x2="387.5" y2="0" >
<stop offset="0" style="stop-color:rgb(50.196078%,50.196078%,50.196078%);stop-opacity:1;"/>
<stop offset="1" style="stop-color:rgb(50.196078%,50.196078%,50.196078%);stop-opacity:0.5;"/>
</linearGradient>
<linearGradient id="linear112" gradientUnits="userSpaceOnUse" x1="412.5" y1="0" x2="425" y2="0" >
<stop offset="0" style="stop-color:rgb(0%,0%,100%);stop-opacity:1;"/>
<stop offset="1" style="stop-color:rgb(0%,0%,100%);stop-opacity:0.5;"/>
</linearGradient>
<linearGradient id="linear113" gradientUnits="userSpaceOnUse" x1="425" y1="0" x2="437.5" y2="0" >
<stop offset="0" style="stop-color:rgb(50.196078%,50.196078%,50.196078%);stop-opacity:1;"/>
<stop offset="1" style="stop-color:rgb(50.196078%,50.196078%,50.196078%);stop-opacity:0.5;"/>
</linearGradient>
<linearGradient id="linear114" gradientUnits="userSpaceOnUse" x1="450" y1="0" x2="462.5" y2="0" >
<stop offset="0" style="stop-color:rgb(100%,0%,0%);stop-opacity:1;"/>
<stop offset="1" style="stop-color:rgb(100%,0%,0%);stop-opacity:0.5;"/>
</linearGradient>
<linearGradient id="linear115" gradientUnits="userSpaceOnUse" x1="487.5" y1="0" x2="500" y2="0" >
<stop offset="0" style="stop-color:rgb(0%,50.196078%,0%);stop-opacity:1;"/>
<stop offset="1" style="stop-color:rgb(0%,50.196078%,0%);stop-opacity:0.5;"/>
</linearGradient>
<linearGradient id="linear116" gradientUnits="userSpaceOnUse" x1="500" y1="0" x2="512.5" y2="0" >
<stop offset="0" style="stop-color:rgb(100%,0%,0%);stop-opacity:1;"/>
<stop offset="1" style="stop-color:rgb(100%,0%,0%);stop-opacity:0.5;"/>
</linearGradient>
<linearGradient id="linear117" gradientUnits="userSpaceOnUse" x1="537.5" y1="0" x2="550" y2="0" >
<stop offset="0" style="stop-color:rgb(0%,50.196078%,0%);stop-opacity:1;"/>
<stop offset="1" style="stop-color:rgb(0%,50.196078%,0%);stop-opacity:0.5;"/>
</linearGradient>
<linearGradient id="linear118" gradientUnits="userSpaceOnUse" x1="562.5" y1="0" x2="575" y2="0" >
<stop offset="0" style="stop-color:rgb(0%,0%,100%);stop-opacity:1;"/>
<stop offset="1" style="stop-color:rgb(0%,0%,100%);stop-opacity:0.5;"/>
</linearGradient>
<linearGradient id="linear119" gradientUnits="userSpaceOnUse" x1="575" y1="0" x2="587.5" y2="0" >
<stop offset="0" style="stop-color:rgb(50.196078%,50.196078%,50.196078%);stop-opacity:1;"/>
<stop offset="1" style="stop-color:rgb(50.196078%,50.196078%,50.196078%);stop-opacity:0.5;"/>
</linearGradient>
</defs>
<g id="surface81">
<path style=" stroke:none;fill-rule:nonzero;fill:url(#linear0);" d="M 37.5 0 L 50 0 L 50 15 L 37.5 15 Z M 37.5 0 "/>
<path style=" stroke:none;fill-rule:nonzero;fill:url(#linear1);" d="M 75 0 L 87.5 0 L 87.5 15 L 75 15 Z M 75 0 "/>
<path style=" stroke:none;fill-rule:nonzero;fill:url(#linear2);" d="M 112.5 0 L 125 0 L 125 15 L 112.5 15 Z M 112.5 0 "/>
<path style=" stroke:none;fill-rule:nonzero;fill:url(#linear3);" d="M 150 0 L 162.5 0 L 162.5 15 L 150 15 Z M 150 0 "/>
<path style=" stroke:none;fill-rule:nonzero;fill:url(#linear4);" d="M 237.5 0 L 250 0 L 250 15 L 237.5 15 Z M 237.5 0 "/>
<path style=" stroke:none;fill-rule:nonzero;fill:url(#linear5);" d="M 275 0 L 287.5 0 L 287.5 15 L 275 15 Z M 275 0 "/>
<path style=" stroke:none;fill-rule:nonzero;fill:url(#linear6);" d="M 312.5 0 L 325 0 L 325 15 L 312.5 15 Z M 312.5 0 "/>
<path style=" stroke:none;fill-rule:nonzero;fill:url(#linear7);" d="M 350 0 L 362.5 0 L 362.5 15 L 350 15 Z M 350 0 "/>
<path style=" stroke:none;fill-rule:nonzero;fill:url(#linear8);" d="M 437.5 0 L 450 0 L 450 15 L 437.5 15 Z M 437.5 0 "/>
<path style=" stroke:none;fill-rule:nonzero;fill:url(#linear9);" d="M 475 0 L 487.5 0 L 487.5 15 L 475 15 Z M 475 0 "/>
<path style=" stroke:none;fill-rule:nonzero;fill:url(#linear10);" d="M 512.5 0 L 525 0 L 525 15 L 512.5 15 Z M 512.5 0 "/>
<path style=" stroke:none;fill-rule:nonzero;fill:url(#linear11);" d="M 550 0 L 562.5 0 L 562.5 15 L 550 15 Z M 550 0 "/>
<path style=" stroke:none;fill-rule:nonzero;fill:url(#linear12);" d="M 0 0 L 12.5 0 L 12.5 15 L 0 15 Z M 0 0 "/>
<path style=" stroke:none;fill-rule:nonzero;fill:url(#linear13);" d="M 12.5 0 L 25 0 L 25 15 L 12.5 15 Z M 12.5 0 "/>
<path style=" stroke:none;fill-rule:nonzero;fill:url(#linear14);" d="M 25 0 L 37.5 0 L 37.5 15 L 25 15 Z M 25 0 "/>
<path style=" stroke:none;fill-rule:nonzero;fill:url(#linear15);" d="M 50 0 L 62.5 0 L 62.5 15 L 50 15 Z M 50 0 "/>
<path style=" stroke:none;fill-rule:nonzero;fill:url(#linear16);" d="M 62.5 0 L 75 0 L 75 15 L 62.5 15 Z M 62.5 0 "/>
<path style=" stroke:none;fill-rule:nonzero;fill:url(#linear17);" d="M 87.5 0 L 100 0 L 100 15 L 87.5 15 Z M 87.5 0 "/>
<path style=" stroke:none;fill-rule:nonzero;fill:url(#linear18);" d="M 100 0 L 112.5 0 L 112.5 15 L 100 15 Z M 100 0 "/>
<path style=" stroke:none;fill-rule:nonzero;fill:url(#linear19);" d="M 125 0 L 137.5 0 L 137.5 15 L 125 15 Z M 125 0 "/>
<path style=" stroke:none;fill-rule:nonzero;fill:url(#linear20);" d="M 137.5 0 L 150 0 L 150 15 L 137.5 15 Z M 137.5 0 "/>
<path style=" stroke:none;fill-rule:nonzero;fill:url(#linear21);" d="M 162.5 0 L 175 0 L 175 15 L 162.5 15 Z M 162.5 0 "/>
<path style=" stroke:none;fill-rule:nonzero;fill:url(#linear22);" d="M 175 0 L 187.5 0 L 187.5 15 L 175 15 Z M 175 0 "/>
<path style=" stroke:none;fill-rule:nonzero;fill:url(#linear23);" d="M 187.5 0 L 200 0 L 200 15 L 187.5 15 Z M 187.5 0 "/>
<path style=" stroke:none;fill-rule:nonzero;fill:url(#linear24);" d="M 200 0 L 212.5 0 L 212.5 15 L 200 15 Z M 200 0 "/>
<path style=" stroke:none;fill-rule:nonzero;fill:url(#linear25);" d="M 212.5 0 L 225 0 L 225 15 L 212.5 15 Z M 212.5 0 "/>
<path style=" stroke:none;fill-rule:nonzero;fill:url(#linear26);" d="M 225 0 L 237.5 0 L 237.5 15 L 225 15 Z M 225 0 "/>
<path style=" stroke:none;fill-rule:nonzero;fill:url(#linear27);" d="M 250 0 L 262.5 0 L 262.5 15 L 250 15 Z M 250 0 "/>
<path style=" stroke:none;fill-rule:nonzero;fill:url(#linear28);" d="M 262.5 0 L 275 0 L 275 15 L 262.5 15 Z M 262.5 0 "/>
<path style=" stroke:none;fill-rule:nonzero;fill:url(#linear29);" d="M 287.5 0 L 300 0 L 300 15 L 287.5 15 Z M 287.5 0 "/>
<path style=" stroke:none;fill-rule:nonzero;fill:url(#linear30);" d="M 300 0 L 312.5 0 L 312.5 15 L 300 15 Z M 300 0 "/>
<path style=" stroke:none;fill-rule:nonzero;fill:url(#linear31);" d="M 325 0 L 337.5 0 L 337.5 15 L 325 15 Z M 325 0 "/>
<path style=" stroke:none;fill-rule:nonzero;fill:url(#linear32);" d="M 337.5 0 L 350 0 L 350 15 L 337.5 15 Z M 337.5 0 "/>
<path style=" stroke:none;fill-rule:nonzero;fill:url(#linear33);" d="M 362.5 0 L 375 0 L 375 15 L 362.5 15 Z M 362.5 0 "/>
<path style=" stroke:none;fill-rule:nonzero;fill:url(#linear34);" d="M 375 0 L 387.5 0 L 387.5 15 L 375 15 Z M 375 0 "/>
<path style=" stroke:none;fill-rule:nonzero;fill:url(#linear35);" d="M 387.5 0 L 400 0 L 400 15 L 387.5 15 Z M 387.5 0 "/>
<path style=" stroke:none;fill-rule:nonzero;fill:url(#linear36);" d="M 400 0 L 412.5 0 L 412.5 15 L 400 15 Z M 400 0 "/>
<path style=" stroke:none;fill-rule:nonzero;fill:url(#linear37);" d="M 412.5 0 L 425 0 L 425 15 L 412.5 15 Z M 412.5 0 "/>
<path style=" stroke:none;fill-rule:nonzero;fill:url(#linear38);" d="M 425 0 L 437.5 0 L 437.5 15 L 425 15 Z M 425 0 "/>
<path style=" stroke:none;fill-rule:nonzero;fill:url(#linear39);" d="M 450 0 L 462.5 0 L 462.5 15 L 450 15 Z M 450 0 "/>
<path style=" stroke:none;fill-rule:nonzero;fill:url(#linear40);" d="M 462.5 0 L 475 0 L 475 15 L 462.5 15 Z M 462.5 0 "/>
<path style=" stroke:none;fill-rule:nonzero;fill:url(#linear41);" d="M 487.5 0 L 500 0 L 500 15 L 487.5 15 Z M 487.5 0 "/>
<path style=" stroke:none;fill-rule:nonzero;fill:url(#linear42);" d="M 500 0 L 512.5 0 L 512.5 15 L 500 15 Z M 500 0 "/>
<path style=" stroke:none;fill-rule:nonzero;fill:url(#linear43);" d="M 525 0 L 537.5 0 L 537.5 15 L 525 15 Z M 525 0 "/>
<path style=" stroke:none;fill-rule:nonzero;fill:url(#linear44);" d="M 537.5 0 L 550 0 L 550 15 L 537.5 15 Z M 537.5 0 "/>
<path style=" stroke:none;fill-rule:nonzero;fill:url(#linear45);" d="M 562.5 0 L 575 0 L 575 15 L 562.5 15 Z M 562.5 0 "/>
<path style=" stroke:none;fill-rule:nonzero;fill:url(#linear46);" d="M 575 0 L 587.5 0 L 587.5 15 L 575 15 Z M 575 0 "/>
<path style=" stroke:none;fill-rule:nonzero;fill:url(#linear47);" d="M 587.5 0 L 600 0 L 600 15 L 587.5 15 Z M 587.5 0 "/>
<path style=" stroke:none;fill-rule:nonzero;fill:url(#linear48);" d="M 0 15 L 6.25 15 L 6.25 30 L 0 30 Z M 0 15 "/>
<path style=" stroke:none;fill-rule:nonzero;fill:url(#linear49);" d="M 6.25 15 L 12.5 15 L 12.5 30 L 6.25 30 Z M 6.25 15 "/>
<path style=" stroke:none;fill-rule:nonzero;fill:url(#linear50);" d="M 62.5 15 L 68.75 15 L 68.75 30 L 62.5 30 Z M 62.5 15 "/>
<path style=" stroke:none;fill-rule:nonzero;fill:url(#linear51);" d="M 68.75 15 L 75 15 L 75 30 L 68.75 30 Z M 68.75 15 "/>
<path style=" stroke:none;fill-rule:nonzero;fill:url(#linear52);" d="M 125 15 L 131.25 15 L 131.25 30 L 125 30 Z M 125 15 "/>
<path style=" stroke:none;fill-rule:nonzero;fill:url(#linear53);" d="M 131.25 15 L 137.5 15 L 137.5 30 L 131.25 30 Z M 131.25 15 "/>
<path style=" stroke:none;fill-rule:nonzero;fill:url(#linear54);" d="M 187.5 15 L 193.75 15 L 193.75 30 L 187.5 30 Z M 187.5 15 "/>
<path style=" stroke:none;fill-rule:nonzero;fill:url(#linear55);" d="M 193.75 15 L 200 15 L 200 30 L 193.75 30 Z M 193.75 15 "/>
<path style=" stroke:none;fill-rule:nonzero;fill:url(#linear56);" d="M 200 15 L 206.25 15 L 206.25 30 L 200 30 Z M 200 15 "/>
<path style=" stroke:none;fill-rule:nonzero;fill:url(#linear57);" d="M 206.25 15 L 212.5 15 L 212.5 30 L 206.25 30 Z M 206.25 15 "/>
<path style=" stroke:none;fill-rule:nonzero;fill:url(#linear58);" d="M 262.5 15 L 268.75 15 L 268.75 30 L 262.5 30 Z M 262.5 15 "/>
<path style=" stroke:none;fill-rule:nonzero;fill:url(#linear59);" d="M 268.75 15 L 275 15 L 275 30 L 268.75 30 Z M 268.75 15 "/>
<path style=" stroke:none;fill-rule:nonzero;fill:url(#linear60);" d="M 325 15 L 331.25 15 L 331.25 30 L 325 30 Z M 325 15 "/>
<path style=" stroke:none;fill-rule:nonzero;fill:url(#linear61);" d="M 331.25 15 L 337.5 15 L 337.5 30 L 331.25 30 Z M 331.25 15 "/>
<path style=" stroke:none;fill-rule:nonzero;fill:url(#linear62);" d="M 387.5 15 L 393.75 15 L 393.75 30 L 387.5 30 Z M 387.5 15 "/>
<path style=" stroke:none;fill-rule:nonzero;fill:url(#linear63);" d="M 393.75 15 L 400 15 L 400 30 L 393.75 30 Z M 393.75 15 "/>
<path style=" stroke:none;fill-rule:nonzero;fill:url(#linear64);" d="M 400 15 L 406.25 15 L 406.25 30 L 400 30 Z M 400 15 "/>
<path style=" stroke:none;fill-rule:nonzero;fill:url(#linear65);" d="M 406.25 15 L 412.5 15 L 412.5 30 L 406.25 30 Z M 406.25 15 "/>
<path style=" stroke:none;fill-rule:nonzero;fill:url(#linear66);" d="M 462.5 15 L 468.75 15 L 468.75 30 L 462.5 30 Z M 462.5 15 "/>
<path style=" stroke:none;fill-rule:nonzero;fill:url(#linear67);" d="M 468.75 15 L 475 15 L 475 30 L 468.75 30 Z M 468.75 15 "/>
<path style=" stroke:none;fill-rule:nonzero;fill:url(#linear68);" d="M 525 15 L 531.25 15 L 531.25 30 L 525 30 Z M 525 15 "/>
<path style=" stroke:none;fill-rule:nonzero;fill:url(#linear69);" d="M 531.25 15 L 537.5 15 L 537.5 30 L 531.25 30 Z M 531.25 15 "/>
<path style=" stroke:none;fill-rule:nonzero;fill:url(#linear70);" d="M 587.5 15 L 593.75 15 L 593.75 30 L 587.5 30 Z M 587.5 15 "/>
<path style=" stroke:none;fill-rule:nonzero;fill:url(#linear71);" d="M 593.75 15 L 600 15 L 600 30 L 593.75 30 Z M 593.75 15 "/>
<path style=" stroke:none;fill-rule:nonzero;fill:url(#linear72);" d="M 37.5 15 L 43.75 15 L 43.75 30 L 37.5 30 Z M 37.5 15 "/>
<path style=" stroke:none;fill-rule:nonzero;fill:url(#linear73);" d="M 43.75 15 L 50 15 L 50 30 L 43.75 30 Z M 43.75 15 "/>
<path style=" stroke:none;fill-rule:nonzero;fill:url(#linear74);" d="M 75 15 L 81.25 15 L 81.25 30 L 75 30 Z M 75 15 "/>
<path style=" stroke:none;fill-rule:nonzero;fill:url(#linear75);" d="M 81.25 15 L 87.5 15 L 87.5 30 L 81.25 30 Z M 81.25 15 "/>
<path style=" stroke:none;fill-rule:nonzero;fill:url(#linear76);" d="M 112.5 15 L 118.75 15 L 118.75 30 L 112.5 30 Z M 112.5 15 "/>
<path style=" stroke:none;fill-rule:nonzero;fill:url(#linear77);" d="M 118.75 15 L 125 15 L 125 30 L 118.75 30 Z M 118.75 15 "/>
<path style=" stroke:none;fill-rule:nonzero;fill:url(#linear78);" d="M 150 15 L 156.25 15 L 156.25 30 L 150 30 Z M 150 15 "/>
<path style=" stroke:none;fill-rule:nonzero;fill:url(#linear79);" d="M 156.25 15 L 162.5 15 L 162.5 30 L 156.25 30 Z M 156.25 15 "/>
<path style=" stroke:none;fill-rule:nonzero;fill:url(#linear80);" d="M 237.5 15 L 243.75 15 L 243.75 30 L 237.5 30 Z M 237.5 15 "/>
<path style=" stroke:none;fill-rule:nonzero;fill:url(#linear81);" d="M 243.75 15 L 250 15 L 250 30 L 243.75 30 Z M 243.75 15 "/>
<path style=" stroke:none;fill-rule:nonzero;fill:url(#linear82);" d="M 275 15 L 281.25 15 L 281.25 30 L 275 30 Z M 275 15 "/>
<path style=" stroke:none;fill-rule:nonzero;fill:url(#linear83);" d="M 281.25 15 L 287.5 15 L 287.5 30 L 281.25 30 Z M 281.25 15 "/>
<path style=" stroke:none;fill-rule:nonzero;fill:url(#linear84);" d="M 312.5 15 L 318.75 15 L 318.75 30 L 312.5 30 Z M 312.5 15 "/>
<path style=" stroke:none;fill-rule:nonzero;fill:url(#linear85);" d="M 318.75 15 L 325 15 L 325 30 L 318.75 30 Z M 318.75 15 "/>
<path style=" stroke:none;fill-rule:nonzero;fill:url(#linear86);" d="M 350 15 L 356.25 15 L 356.25 30 L 350 30 Z M 350 15 "/>
<path style=" stroke:none;fill-rule:nonzero;fill:url(#linear87);" d="M 356.25 15 L 362.5 15 L 362.5 30 L 356.25 30 Z M 356.25 15 "/>
<path style=" stroke:none;fill-rule:nonzero;fill:url(#linear88);" d="M 437.5 15 L 443.75 15 L 443.75 30 L 437.5 30 Z M 437.5 15 "/>
<path style=" stroke:none;fill-rule:nonzero;fill:url(#linear89);" d="M 443.75 15 L 450 15 L 450 30 L 443.75 30 Z M 443.75 15 "/>
<path style=" stroke:none;fill-rule:nonzero;fill:url(#linear90);" d="M 475 15 L 481.25 15 L 481.25 30 L 475 30 Z M 475 15 "/>
<path style=" stroke:none;fill-rule:nonzero;fill:url(#linear91);" d="M 481.25 15 L 487.5 15 L 487.5 30 L 481.25 30 Z M 481.25 15 "/>
<path style=" stroke:none;fill-rule:nonzero;fill:url(#linear92);" d="M 512.5 15 L 518.75 15 L 518.75 30 L 512.5 30 Z M 512.5 15 "/>
<path style=" stroke:none;fill-rule:nonzero;fill:url(#linear93);" d="M 518.75 15 L 525 15 L 525 30 L 518.75 30 Z M 518.75 15 "/>
<path style=" stroke:none;fill-rule:nonzero;fill:url(#linear94);" d="M 550 15 L 556.25 15 L 556.25 30 L 550 30 Z M 550 15 "/>
<path style=" stroke:none;fill-rule:nonzero;fill:url(#linear95);" d="M 556.25 15 L 562.5 15 L 562.5 30 L 556.25 30 Z M 556.25 15 "/>
<path style=" stroke:none;fill-rule:nonzero;fill:url(#linear96);" d="M 12.5 15 L 25 15 L 25 30 L 12.5 30 Z M 12.5 15 "/>
<path style=" stroke:none;fill-rule:nonzero;fill:url(#linear97);" d="M 25 15 L 37.5 15 L 37.5 30 L 25 30 Z M 25 15 "/>
<path style=" stroke:none;fill-rule:nonzero;fill:url(#linear98);" d="M 50 15 L 62.5 15 L 62.5 30 L 50 30 Z M 50 15 "/>
<path style=" stroke:none;fill-rule:nonzero;fill:url(#linear99);" d="M 87.5 15 L 100 15 L 100 30 L 87.5 30 Z M 87.5 15 "/>
<path style=" stroke:none;fill-rule:nonzero;fill:url(#linear100);" d="M 100 15 L 112.5 15 L 112.5 30 L 100 30 Z M 100 15 "/>
<path style=" stroke:none;fill-rule:nonzero;fill:url(#linear101);" d="M 137.5 15 L 150 15 L 150 30 L 137.5 30 Z M 137.5 15 "/>
<path style=" stroke:none;fill-rule:nonzero;fill:url(#linear102);" d="M 162.5 15 L 175 15 L 175 30 L 162.5 30 Z M 162.5 15 "/>
<path style=" stroke:none;fill-rule:nonzero;fill:url(#linear103);" d="M 175 15 L 187.5 15 L 187.5 30 L 175 30 Z M 175 15 "/>
<path style=" stroke:none;fill-rule:nonzero;fill:url(#linear104);" d="M 212.5 15 L 225 15 L 225 30 L 212.5 30 Z M 212.5 15 "/>
<path style=" stroke:none;fill-rule:nonzero;fill:url(#linear105);" d="M 225 15 L 237.5 15 L 237.5 30 L 225 30 Z M 225 15 "/>
<path style=" stroke:none;fill-rule:nonzero;fill:url(#linear106);" d="M 250 15 L 262.5 15 L 262.5 30 L 250 30 Z M 250 15 "/>
<path style=" stroke:none;fill-rule:nonzero;fill:url(#linear107);" d="M 287.5 15 L 300 15 L 300 30 L 287.5 30 Z M 287.5 15 "/>
<path style=" stroke:none;fill-rule:nonzero;fill:url(#linear108);" d="M 300 15 L 312.5 15 L 312.5 30 L 300 30 Z M 300 15 "/>
<path style=" stroke:none;fill-rule:nonzero;fill:url(#linear109);" d="M 337.5 15 L 350 15 L 350 30 L 337.5 30 Z M 337.5 15 "/>
<path style=" stroke:none;fill-rule:nonzero;fill:url(#linear110);" d="M 362.5 15 L 375 15 L 375 30 L 362.5 30 Z M 362.5 15 "/>
<path style=" stroke:none;fill-rule:nonzero;fill:url(#linear111);" d="M 375 15 L 387.5 15 L 387.5 30 L 375 30 Z M 375 15 "/>
<path style=" stroke:none;fill-rule:nonzero;fill:url(#linear112);" d="M 412.5 15 L 425 15 L 425 30 L 412.5 30 Z M 412.5 15 "/>
<path style=" stroke:none;fill-rule:nonzero;fill:url(#linear113);" d="M 425 15 L 437.5 15 L 437.5 30 L 425 30 Z M 425 15 "/>
<path style=" stroke:none;fill-rule:nonzero;fill:url(#linear114);" d="M 450 15 L 462.5 15 L 462.5 30 L 450 30 Z M 450 15 "/>
<path style=" stroke:none;fill-rule:nonzero;fill:url(#linear115);" d="M 487.5 15 L 500 15 L 500 30 L 487.5 30 Z M 487.5 15 "/>
<path style=" stroke:none;fill-rule:nonzero;fill:url(#linear116);" d="M 500 15 L 512.5 15 L 512.5 30 L 500 30 Z M 500 15 "/>
<path style=" stroke:none;fill-rule:nonzero;fill:url(#linear117);" d="M 537.5 15 L 550 15 L 550 30 L 537.5 30 Z M 537.5 15 "/>
<path style=" stroke:none;fill-rule:nonzero;fill:url(#linear118);" d="M 562.5 15 L 575 15 L 575 30 L 562.5 30 Z M 562.5 15 "/>
<path style=" stroke:none;fill-rule:nonzero;fill:url(#linear119);" d="M 575 15 L 587.5 15 L 587.5 30 L 575 30 Z M 575 15 "/>
</g>
</svg>
