<?xml version="1.0" encoding="UTF-8"?>
<svg xmlns="http://www.w3.org/2000/svg" xmlns:xlink="http://www.w3.org/1999/xlink" width="600pt" height="30pt" viewBox="0 0 600 30" version="1.1" shape-rendering="crispEdges">
<defs>
<linearGradient id="linear0" gradientUnits="userSpaceOnUse" x1="68.75" y1="0" x2="77.083333" y2="0" >
<stop offset="0" style="stop-color:rgb(100%,0%,0%);stop-opacity:1;"/>
<stop offset="1" style="stop-color:rgb(100%,0%,0%);stop-opacity:0.5;"/>
</linearGradient>
<linearGradient id="linear1" gradientUnits="userSpaceOnUse" x1="397.916667" y1="0" x2="406.25" y2="0" >
<stop offset="0" style="stop-color:rgb(0%,0%,100%);stop-opacity:1;"/>
<stop offset="1" style="stop-color:rgb(0%,0%,100%);stop-opacity:0.5;"/>
</linearGradient>
<linearGradient id="linear2" gradientUnits="userSpaceOnUse" x1="187.5" y1="0" x2="204.166667" y2="0" >
<stop offset="0" style="stop-color:rgb(100%,0%,0%);stop-opacity:1;"/>
<stop offset="1" style="stop-color:rgb(100%,0%,0%);stop-opacity:0.5;"/>
</linearGradient>
<linearGradient id="linear3" gradientUnits="userSpaceOnUse" x1="270.833333" y1="0" x2="279.166667" y2="0" >
<stop offset="0" style="stop-color:rgb(0%,50.196078%,0%);stop-opacity:1;"/>
<stop offset="1" style="stop-color:rgb(0%,50.196078%,0%);stop-opacity:0.5;"/>
</linearGradient>
<linearGradient id="linear4" gradientUnits="userSpaceOnUse" x1="237.5" y1="0" x2="254.166667" y2="0" >
<stop offset="0" style="stop-color:rgb(100%,0%,0%);stop-opacity:1;"/>
<stop offset="1" style="stop-color:rgb(100%,0%,0%);stop-opacity:0.5;"/>
</linearGradient>
<linearGradient id="linear5" gradientUnits="userSpaceOnUse" x1="287.5" y1="0" x2="304.166667" y2="0" >
<stop offset="0" style="stop-color:rgb(100%,0%,0%);stop-opacity:1;"/>
<stop offset="1" style="stop-color:rgb(100%,0%,0%);stop-opacity:0.5;"/>
</linearGradient>
<linearGradient id="linear6" gradientUnits="userSpaceOnUse" x1="345.833333" y1="0" x2="354.166667" y2="0" >
<stop offset="0" style="stop-color:rgb(0%,50.196078%,0%);stop-opacity:1;"/>
<stop offset="1" style="stop-color:rgb(0%,50.196078%,0%);stop-opacity:0.5;"/>
</linearGradient>
<linearGradient id="linear7" gradientUnits="userSpaceOnUse" x1="272.916667" y1="0" x2="281.25" y2="0" >
<stop offset="0" style="stop-color:rgb(0%,0%,100%);stop-opacity:1;"/>
<stop offset="1" style="stop-color:rgb(0%,0%,100%);stop-opacity:0.5;"/>
</linearGradient>
<linearGradient id="linear8" gradientUnits="userSpaceOnUse" x1="593.75" y1="0" x2="602.083333" y2="0" >
<stop offset="0" style="stop-color:rgb(100%,0%,0%);stop-opacity:1;"/>
<stop offset="1" style="stop-color:rgb(100%,0%,0%);stop-opacity:0.5;"/>
</linearGradient>
<linearGradient id="linear9" gradientUnits="userSpaceOnUse" x1="0" y1="0" x2="8.333333" y2="0" >
<stop offset="0" style="stop-color:rgb(100%,0%,0%);stop-opacity:1;"/>
<stop offset="1" style="stop-color:rgb(100%,0%,0%);stop-opacity:0.5;"/>
</linearGradient>
<linearGradient id="linear10" gradientUnits="userSpaceOnUse" x1="8.333333" y1="0" x2="16.666667" y2="0" >
<stop offset="0" style="stop-color:rgb(0%,50.196078%,0%);stop-opacity:1;"/>
<stop offset="1" style="stop-color:rgb(0%,50.196078%,0%);stop-opacity:0.5;"/>
</linearGradient>
<linearGradient id="linear11" gradientUnits="userSpaceOnUse" x1="66.666667" y1="0" x2="75" y2="0" >
<stop offset="0" style="stop-color:rgb(0%,0%,100%);stop-opacity:1;"/>
<stop offset="1" style="stop-color:rgb(0%,0%,100%);stop-opacity:0.5;"/>
</linearGradient>
<linearGradient id="linear12" gradientUnits="userSpaceOnUse" x1="135.416667" y1="0" x2="143.75" y2="0" >
<stop offset="0" style="stop-color:rgb(0%,0%,100%);stop-opacity:1;"/>
<stop offset="1" style="stop-color:rgb(0%,0%,100%);stop-opacity:0.5;"/>
</linearGradient>
<linearGradient id="linear13" gradientUnits="userSpaceOnUse" x1="204.166667" y1="0" x2="212.5" y2="0" >
<stop offset="0" style="stop-color:rgb(0%,0%,100%);stop-opacity:1;"/>
<stop offset="1" style="stop-color:rgb(0%,0%,100%);stop-opacity:0.5;"/>
</linearGradient>
<linearGradient id="linear14" gradientUnits="userSpaceOnUse" x1="389.583333" y1="0" x2="397.916667" y2="0" >
<stop offset="0" style="stop-color:rgb(0%,50.196078%,0%);stop-opacity:1;"/>
<stop offset="1" style="stop-color:rgb(0%,50.196078%,0%);stop-opacity:0.5;"/>
</linearGradient>
<linearGradient id="linear15" gradientUnits="userSpaceOnUse" x1="408.333333" y1="0" x2="416.666667" y2="0" >
<stop offset="0" style="stop-color:rgb(0%,50.196078%,0%);stop-opacity:1;"/>
<stop offset="1" style="stop-color:rgb(0%,50.196078%,0%);stop-opacity:0.5;"/>
</linearGradient>
<linearGradient id="linear16" gradientUnits="userSpaceOnUse" x1="391.666667" y1="0" x2="408.333333" y2="0" >
<stop offset="0" style="stop-color:rgb(0%,50.196078%,0%);stop-opacity:1;"/>
<stop offset="1" style="stop-color:rgb(0%,50.196078%,0%);stop-opacity:0.5;"/>
</linearGradient>
<linearGradient id="linear17" gradientUnits="userSpaceOnUse" x1="441.666667" y1="0" x2="458.333333" y2="0" >
<stop offset="0" style="stop-color:rgb(0%,50.196078%,0%);stop-opacity:1;"/>
<stop offset="1" style="stop-color:rgb(0%,50.196078%,0%);stop-opacity:0.5;"/>
</linearGradient>
<linearGradient id="linear18" gradientUnits="userSpaceOnUse" x1="441.666667" y1="0" x2="458.333333" y2="0" >
<stop offset="0" style="stop-color:rgb(0%,50.196078%,0%);stop-opacity:1;"/>
<stop offset="1" style="stop-color:rgb(0%,50.196078%,0%);stop-opacity:0.5;"/>
</linearGradient>
<linearGradient id="linear19" gradientUnits="userSpaceOnUse" x1="491.666667" y1="0" x2="508.333333" y2="0" >
<stop offset="0" style="stop-color:rgb(0%,50.196078%,0%);stop-opacity:1;"/>
<stop offset="1" style="stop-color:rgb(0%,50.196078%,0%);stop-opacity:0.5;"/>
</linearGradient>
<linearGradient id="linear20" gradientUnits="userSpaceOnUse" x1="527.083333" y1="0" x2="535.416667" y2="0" >
<stop offset="0" style="stop-color:rgb(0%,50.196078%,0%);stop-opacity:1;"/>
<stop offset="1" style="stop-color:rgb(0%,50.196078%,0%);stop-opacity:0.5;"/>
</linearGradient>
<linearGradient id="linear21" gradientUnits="userSpaceOnUse" x1="491.666667" y1="0" x2="508.333333" y2="0" >
<stop offset="0" style="stop-color:rgb(0%,50.196078%,0%);stop-opacity:1;"/>
<stop offset="1" style="stop-color:rgb(0%,50.196078%,0%);stop-opacity:0.5;"/>
</linearGradient>
<linearGradient id="linear22" gradientUnits="userSpaceOnUse" x1="541.666667" y1="0" x2="558.333333" y2="0" >
<stop offset="0" style="stop-color:rgb(0%,50.196078%,0%);stop-opacity:1;"/>
<stop offset="1" style="stop-color:rgb(0%,50.196078%,0%);stop-opacity:0.5;"/>
</linearGradient>
<linearGradient id="linear23" gradientUnits="userSpaceOnUse" x1="237.5" y1="0" x2="254.166667" y2="0" >
<stop offset="0" style="stop-color:rgb(100%,0%,0%);stop-opacity:1;"/>
<stop offset="1" style="stop-color:rgb(100%,0%,0%);stop-opacity:0.5;"/>
</linearGradient>
<linearGradient id="linear24" gradientUnits="userSpaceOnUse" x1="287.5" y1="0" x2="304.166667" y2="0" >
<stop offset="0" style="stop-color:rgb(100%,0%,0%);stop-opacity:1;"/>
<stop offset="1" style="stop-color:rgb(100%,0%,0%);stop-opacity:0.5;"/>
</linearGradient>
<linearGradient id="linear25" gradientUnits="userSpaceOnUse" x1="337.5" y1="0" x2="354.166667" y2="0" >
<stop offset="0" style="stop-color:rgb(100%,0%,0%);stop-opacity:1;"/>
<stop offset="1" style="stop-color:rgb(100%,0%,0%);stop-opacity:0.5;"/>
</linearGradient>
<linearGradient id="linear26" gradientUnits="userSpaceOnUse" x1="16.666667" y1="0" x2="33.333333" y2="0" >
<stop offset="0" style="stop-color:rgb(0%,50.196078%,0%);stop-opacity:1;"/>
<stop offset="1" style="stop-color:rgb(0%,50.196078%,0%);stop-opacity:0.5;"/>
</linearGradient>
<linearGradient id="linear27" gradientUnits="userSpaceOnUse" x1="33.333333" y1="0" x2="50" y2="0" >
<stop offset="0" style="stop-color:rgb(0%,0%,100%);stop-opacity:1;"/>
<stop offset="1" style="stop-color:rgb(0%,0%,100%);stop-opacity:0.5;"/>
</linearGradient>
<linearGradient id="linear28" gradientUnits="userSpaceOnUse" x1="50" y1="0" x2="66.666667" y2="0" >
<stop offset="0" style="stop-color:rgb(100%,0%,0%);stop-opacity:1;"/>
<stop offset="1" style="stop-color:rgb(100%,0%,0%);stop-opacity:0.5;"/>
</linearGradient>
<linearGradient id="linear29" gradientUnits="userSpaceOnUse" x1="83.333333" y1="0" x2="100" y2="0" >
<stop offset="0" style="stop-color:rgb(0%,0%,100%);stop-opacity:1;"/>
<stop offset="1" style="stop-color:rgb(0%,0%,100%);stop-opacity:0.5;"/>
</linearGradient>
<linearGradient id="linear30" gradientUnits="userSpaceOnUse" x1="100" y1="0" x2="116.666667" y2="0" >
<stop offset="0" style="stop-color:rgb(100%,0%,0%);stop-opacity:1;"/>
<stop offset="1" style="stop-color:rgb(100%,0%,0%);stop-opacity:0.5;"/>
</linearGradient>
<linearGradient id="linear31" gradientUnits="userSpaceOnUse" x1="116.666667" y1="0" x2="133.333333" y2="0" >
<stop offset="0" style="stop-color:rgb(0%,50.196078%,0%);stop-opacity:1;"/>
<stop offset="1" style="stop-color:rgb(0%,50.196078%,0%);stop-opacity:0.5;"/>
</linearGradient>
<linearGradient id="linear32" gradientUnits="userSpaceOnUse" x1="150" y1="0" x2="166.666667" y2="0" >
<stop offset="0" style="stop-color:rgb(100%,0%,0%);stop-opacity:1;"/>
<stop offset="1" style="stop-color:rgb(100%,0%,0%);stop-opacity:0.5;"/>
</linearGradient>
<linearGradient id="linear33" gradientUnits="userSpaceOnUse" x1="166.666667" y1="0" x2="183.333333" y2="0" >
<stop offset="0" style="stop-color:rgb(0%,50.196078%,0%);stop-opacity:1;"/>
<stop offset="1" style="stop-color:rgb(0%,50.196078%,0%);stop-opacity:0.5;"/>
</linearGradient>
<linearGradient id="linear34" gradientUnits="userSpaceOnUse" x1="183.333333" y1="0" x2="200" y2="0" >
<stop offset="0" style="stop-color:rgb(0%,0%,100%);stop-opacity:1;"/>
<stop offset="1" style="stop-color:rgb(0%,0%,100%);stop-opacity:0.5;"/>
</linearGradient>
<linearGradient id="linear35" gradientUnits="userSpaceOnUse" x1="220.833333" y1="0" x2="237.5" y2="0" >
<stop offset="0" style="stop-color:rgb(0%,0%,100%);stop-opacity:1;"/>
<stop offset="1" style="stop-color:rgb(0%,0%,100%);stop-opacity:0.5;"/>
</linearGradient>
<linearGradient id="linear36" gradientUnits="userSpaceOnUse" x1="254.166667" y1="0" x2="270.833333" y2="0" >
<stop offset="0" style="stop-color:rgb(0%,50.196078%,0%);stop-opacity:1;"/>
<stop offset="1" style="stop-color:rgb(0%,50.196078%,0%);stop-opacity:0.5;"/>
</linearGradient>
<linearGradient id="linear37" gradientUnits="userSpaceOnUse" x1="304.166667" y1="0" x2="320.833333" y2="0" >
<stop offset="0" style="stop-color:rgb(0%,50.196078%,0%);stop-opacity:1;"/>
<stop offset="1" style="stop-color:rgb(0%,50.196078%,0%);stop-opacity:0.5;"/>
</linearGradient>
<linearGradient id="linear38" gradientUnits="userSpaceOnUse" x1="320.833333" y1="0" x2="337.5" y2="0" >
<stop offset="0" style="stop-color:rgb(0%,0%,100%);stop-opacity:1;"/>
<stop offset="1" style="stop-color:rgb(0%,0%,100%);stop-opacity:0.5;"/>
</linearGradient>
<linearGradient id="linear39" gradientUnits="userSpaceOnUse" x1="354.166667" y1="0" x2="370.833333" y2="0" >
<stop offset="0" style="stop-color:rgb(0%,50.196078%,0%);stop-opacity:1;"/>
<stop offset="1" style="stop-color:rgb(0%,50.196078%,0%);stop-opacity:0.5;"/>
</linearGradient>
<linearGradient id="linear40" gradientUnits="userSpaceOnUse" x1="370.833333" y1="0" x2="387.5" y2="0" >
<stop offset="0" style="stop-color:rgb(0%,0%,100%);stop-opacity:1;"/>
<stop offset="1" style="stop-color:rgb(0%,0%,100%);stop-opacity:0.5;"/>
</linearGradient>
<linearGradient id="linear41" gradientUnits="userSpaceOnUse" x1="425" y1="0" x2="441.666667" y2="0" >
<stop offset="0" style="stop-color:rgb(100%,0%,0%);stop-opacity:1;"/>
<stop offset="1" style="stop-color:rgb(100%,0%,0%);stop-opacity:0.5;"/>
</linearGradient>
<linearGradient id="linear42" gradientUnits="userSpaceOnUse" x1="458.333333" y1="0" x2="475" y2="0" >
<stop offset="0" style="stop-color:rgb(0%,0%,100%);stop-opacity:1;"/>
<stop offset="1" style="stop-color:rgb(0%,0%,100%);stop-opacity:0.5;"/>
</linearGradient>
<linearGradient id="linear43" gradientUnits="userSpaceOnUse" x1="475" y1="0" x2="491.666667" y2="0" >
<stop offset="0" style="stop-color:rgb(100%,0%,0%);stop-opacity:1;"/>
<stop offset="1" style="stop-color:rgb(100%,0%,0%);stop-opacity:0.5;"/>
</linearGradient>
<linearGradient id="linear44" gradientUnits="userSpaceOnUse" x1="508.333333" y1="0" x2="525" y2="0" >
<stop offset="0" style="stop-color:rgb(0%,0%,100%);stop-opacity:1;"/>
<stop offset="1" style="stop-color:rgb(0%,0%,100%);stop-opacity:0.5;"/>
</linearGradient>
<linearGradient id="linear45" gradientUnits="userSpaceOnUse" x1="558.333333" y1="0" x2="575" y2="0" >
<stop offset="0" style="stop-color:rgb(0%,0%,100%);stop-opacity:1;"/>
<stop offset="1" style="stop-color:rgb(0%,0%,100%);stop-opacity:0.5;"/>
</linearGradient>
<linearGradient id="linear46" gradientUnits="userSpaceOnUse" x1="575" y1="0" x2="591.666667" y2="0" >
<stop offset="0" style="stop-color:rgb(100%,0%,0%);stop-opacity:1;"/>
<stop offset="1" style="stop-color:rgb(100%,0%,0%);stop-opacity:0.5;"/>
</linearGradient>
<linearGradient id="linear47" gradientUnits="userSpaceOnUse" x1="468.75" y1="0" x2="477.083333" y2="0" >
<stop offset="0" style="stop-color:rgb(100%,0%,0%);stop-opacity:1;"/>
<stop offset="1" style="stop-color:rgb(100%,0%,0%);stop-opacity:0.5;"/>
</linearGradient>
<linearGradient id="linear48" gradientUnits="userSpaceOnUse" x1="193.75" y1="0" x2="202.083333" y2="0" >
<stop offset="0" style="stop-color:rgb(100%,0%,0%);stop-opacity:1;"/>
<stop offset="1" style="stop-color:rgb(100%,0%,0%);stop-opacity:0.5;"/>
</linearGradient>
<linearGradient id="linear49" gradientUnits="userSpaceOnUse" x1="127.083333" y1="0" x2="135.416667" y2="0" >
<stop offset="0" style="stop-color:rgb(0%,50.196078%,0%);stop-opacity:1;"/>
<stop offset="1" style="stop-color:rgb(0%,50.196078%,0%);stop-opacity:0.5;"/>
</linearGradient>
<linearGradient id="linear50" gradientUnits="userSpaceOnUse" x1="262.5" y1="0" x2="270.833333" y2="0" >
<stop offset="0" style="stop-color:rgb(100%,0%,0%);stop-opacity:1;"/>
<stop offset="1" style="stop-color:rgb(100%,0%,0%);stop-opacity:0.5;"/>
</linearGradient>
<linearGradient id="linear51" gradientUnits="userSpaceOnUse" x1="331.25" y1="0" x2="339.583333" y2="0" >
<stop offset="0" style="stop-color:rgb(100%,0%,0%);stop-opacity:1;"/>
<stop offset="1" style="stop-color:rgb(100%,0%,0%);stop-opacity:0.5;"/>
</linearGradient>
<linearGradient id="linear52" gradientUnits="userSpaceOnUse" x1="400" y1="0" x2="408.333333" y2="0" >
<stop offset="0" style="stop-color:rgb(100%,0%,0%);stop-opacity:1;"/>
<stop offset="1" style="stop-color:rgb(100%,0%,0%);stop-opacity:0.5;"/>
</linearGradient>
<linearGradient id="linear53" gradientUnits="userSpaceOnUse" x1="466.666667" y1="0" x2="475" y2="0" >
<stop offset="0" style="stop-color:rgb(0%,0%,100%);stop-opacity:1;"/>
<stop offset="1" style="stop-color:rgb(0%,0%,100%);stop-opacity:0.5;"/>
</linearGradient>
<linearGradient id="linear54" gradientUnits="userSpaceOnUse" x1="535.416667" y1="0" x2="543.75" y2="0" >
<stop offset="0" style="stop-color:rgb(0%,0%,100%);stop-opacity:1;"/>
<stop offset="1" style="stop-color:rgb(0%,0%,100%);stop-opacity:0.5;"/>
</linearGradient>
</defs>
<g id="surface61">
<path style=" stroke:none;fill-rule:nonzero;fill:url(#linear0);" d="M 75 0 L 77.082031 0 L 77.082031 15 L 75 15 Z M 75 0 "/>
<path style=" stroke:none;fill-rule:nonzero;fill:url(#linear1);" d="M 397.917969 0 L 400 0 L 400 15 L 397.917969 15 Z M 397.917969 0 "/>
<path style=" stroke:none;fill-rule:nonzero;fill:url(#linear2);" d="M 200 0 L 204.167969 0 L 204.167969 15 L 200 15 Z M 200 0 "/>
<path style=" stroke:none;fill-rule:nonzero;fill:url(#linear3);" d="M 270.832031 0 L 275 0 L 275 15 L 270.832031 15 Z M 270.832031 0 "/>
<path style=" stroke:none;fill-rule:nonzero;fill:url(#linear4);" d="M 250 0 L 254.167969 0 L 254.167969 15 L 250 15 Z M 250 0 "/>
<path style=" stroke:none;fill-rule:nonzero;fill:url(#linear5);" d="M 300 0 L 304.167969 0 L 304.167969 15 L 300 15 Z M 300 0 "/>
<path style=" stroke:none;fill-rule:nonzero;fill:url(#linear6);" d="M 350 0 L 354.167969 0 L 354.167969 15 L 350 15 Z M 350 0 "/>
<path style=" stroke:none;fill-rule:nonzero;fill:url(#linear7);" d="M 275 0 L 281.25 0 L 281.25 15 L 275 15 Z M 275 0 "/>
<path style=" stroke:none;fill-rule:nonzero;fill:url(#linear8);" d="M 593.75 0 L 600 0 L 600 15 L 593.75 15 Z M 593.75 0 "/>
<path style=" stroke:none;fill-rule:nonzero;fill:url(#linear9);" d="M 0 0 L 8.332031 0 L 8.332031 15 L 0 15 Z M 0 0 "/>
<path style=" stroke:none;fill-rule:nonzero;fill:url(#linear10);" d="M 8.332031 0 L 16.664062 0 L 16.664062 15 L 8.332031 15 Z M 8.332031 0 "/>
<path style=" stroke:none;fill-rule:nonzero;fill:url(#linear11);" d="M 66.667969 0 L 75 0 L 75 15 L 66.667969 15 Z M 66.667969 0 "/>
<path style=" stroke:none;fill-rule:nonzero;fill:url(#linear12);" d="M 135.417969 0 L 143.75 0 L 143.75 15 L 135.417969 15 Z M 135.417969 0 "/>
<path style=" stroke:none;fill-rule:nonzero;fill:url(#linear13);" d="M 204.167969 0 L 212.5 0 L 212.5 15 L 204.167969 15 Z M 204.167969 0 "/>
<path style=" stroke:none;fill-rule:nonzero;fill:url(#linear14);" d="M 389.582031 0 L 397.914062 0 L 397.914062 15 L 389.582031 15 Z M 389.582031 0 "/>
<path style=" stroke:none;fill-rule:nonzero;fill:url(#linear15);" d="M 408.332031 0 L 416.664062 0 L 416.664062 15 L 408.332031 15 Z M 408.332031 0 "/>
<path style=" stroke:none;fill-rule:nonzero;fill:url(#linear16);" d="M 400 0 L 408.332031 0 L 408.332031 15 L 400 15 Z M 400 0 "/>
<path style=" stroke:none;fill-rule:nonzero;fill:url(#linear17);" d="M 441.667969 0 L 450 0 L 450 15 L 441.667969 15 Z M 441.667969 0 "/>
<path style=" stroke:none;fill-rule:nonzero;fill:url(#linear18);" d="M 450 0 L 458.332031 0 L 458.332031 15 L 450 15 Z M 450 0 "/>
<path style=" stroke:none;fill-rule:nonzero;fill:url(#linear19);" d="M 491.667969 0 L 500 0 L 500 15 L 491.667969 15 Z M 491.667969 0 "/>
<path style=" stroke:none;fill-rule:nonzero;fill:url(#linear20);" d="M 527.082031 0 L 535.414062 0 L 535.414062 15 L 527.082031 15 Z M 527.082031 0 "/>
<path style=" stroke:none;fill-rule:nonzero;fill:url(#linear21);" d="M 500 0 L 508.332031 0 L 508.332031 15 L 500 15 Z M 500 0 "/>
<path style=" stroke:none;fill-rule:nonzero;fill:url(#linear22);" d="M 541.667969 0 L 550 0 L 550 15 L 541.667969 15 Z M 541.667969 0 "/>
<path style=" stroke:none;fill-rule:nonzero;fill:url(#linear23);" d="M 237.5 0 L 250 0 L 250 15 L 237.5 15 Z M 237.5 0 "/>
<path style=" stroke:none;fill-rule:nonzero;fill:url(#linear24);" d="M 287.5 0 L 300 0 L 300 15 L 287.5 15 Z M 287.5 0 "/>
<path style=" stroke:none;fill-rule:nonzero;fill:url(#linear25);" d="M 337.5 0 L 350 0 L 350 15 L 337.5 15 Z M 337.5 0 "/>
<path style=" stroke:none;fill-rule:nonzero;fill:url(#linear26);" d="M 16.667969 0 L 33.335938 0 L 33.335938 15 L 16.667969 15 Z M 16.667969 0 "/>
<path style=" stroke:none;fill-rule:nonzero;fill:url(#linear27);" d="M 33.332031 0 L 50 0 L 50 15 L 33.332031 15 Z M 33.332031 0 "/>
<path style=" stroke:none;fill-rule:nonzero;fill:url(#linear28);" d="M 50 0 L 66.667969 0 L 66.667969 15 L 50 15 Z M 50 0 "/>
<path style=" stroke:none;fill-rule:nonzero;fill:url(#linear29);" d="M 83.332031 0 L 100 0 L 100 15 L 83.332031 15 Z M 83.332031 0 "/>
<path style=" stroke:none;fill-rule:nonzero;fill:url(#linear30);" d="M 100 0 L 116.667969 0 L 116.667969 15 L 100 15 Z M 100 0 "/>
<path style=" stroke:none;fill-rule:nonzero;fill:url(#linear31);" d="M 116.667969 0 L 133.335938 0 L 133.335938 15 L 116.667969 15 Z M 116.667969 0 "/>
<path style=" stroke:none;fill-rule:nonzero;fill:url(#linear32);" d="M 150 0 L 166.667969 0 L 166.667969 15 L 150 15 Z M 150 0 "/>
<path style=" stroke:none;fill-rule:nonzero;fill:url(#linear33);" d="M 166.667969 0 L 183.335938 0 L 183.335938 15 L 166.667969 15 Z M 166.667969 0 "/>
<path style=" stroke:none;fill-rule:nonzero;fill:url(#linear34);" d="M 183.332031 0 L 200 0 L 200 15 L 183.332031 15 Z M 183.332031 0 "/>
<path style=" stroke:none;fill-rule:nonzero;fill:url(#linear35);" d="M 220.832031 0 L 237.5 0 L 237.5 15 L 220.832031 15 Z M 220.832031 0 "/>
<path style=" stroke:none;fill-rule:nonzero;fill:url(#linear36);" d="M 254.167969 0 L 270.835938 0 L 270.835938 15 L 254.167969 15 Z M 254.167969 0 "/>
<path style=" stroke:none;fill-rule:nonzero;fill:url(#linear37);" d="M 304.167969 0 L 320.835938 0 L 320.835938 15 L 304.167969 15 Z M 304.167969 0 "/>
<path style=" stroke:none;fill-rule:nonzero;fill:url(#linear38);" d="M 320.832031 0 L 337.5 0 L 337.5 15 L 320.832031 15 Z M 320.832031 0 "/>
<path style=" stroke:none;fill-rule:nonzero;fill:url(#linear39);" d="M 354.167969 0 L 370.835938 0 L 370.835938 15 L 354.167969 15 Z M 354.167969 0 "/>
<path style=" stroke:none;fill-rule:nonzero;fill:url(#linear40);" d="M 370.832031 0 L 387.5 0 L 387.5 15 L 370.832031 15 Z M 370.832031 0 "/>
<path style=" stroke:none;fill-rule:nonzero;fill:url(#linear41);" d="M 425 0 L 441.667969 0 L 441.667969 15 L 425 15 Z M 425 0 "/>
<path style=" stroke:none;fill-rule:nonzero;fill:url(#linear42);" d="M 458.332031 0 L 475 0 L 475 15 L 458.332031 15 Z M 458.332031 0 "/>
<path style=" stroke:none;fill-rule:nonzero;fill:url(#linear43);" d="M 475 0 L 491.667969 0 L 491.667969 15 L 475 15 Z M 475 0 "/>
<path style=" stroke:none;fill-rule:nonzero;fill:url(#linear44);" d="M 508.332031 0 L 525 0 L 525 15 L 508.332031 15 Z M 508.332031 0 "/>
<path style=" stroke:none;fill-rule:nonzero;fill:url(#linear45);" d="M 558.332031 0 L 575 0 L 575 15 L 558.332031 15 Z M 558.332031 0 "/>
<path style=" stroke:none;fill-rule:nonzero;fill:url(#linear46);" d="M 575 0 L 591.667969 0 L 591.667969 15 L 575 15 Z M 575 0 "/>
<path style=" stroke:none;fill-rule:nonzero;fill:url(#linear47);" d="M 475 15 L 477.082031 15 L 477.082031 30 L 475 30 Z M 475 15 "/>
<path style=" stroke:none;fill-rule:nonzero;fill:url(#linear48);" d="M 193.75 15 L 200 15 L 200 30 L 193.75 30 Z M 193.75 15 "/>
<path style=" stroke:none;fill-rule:nonzero;fill:url(#linear49);" d="M 127.082031 15 L 135.414062 15 L 135.414062 30 L 127.082031 30 Z M 127.082031 15 "/>
<path style=" stroke:none;fill-rule:nonzero;fill:url(#linear50);" d="M 262.5 15 L 270.832031 15 L 270.832031 30 L 262.5 30 Z M 262.5 15 "/>
<path style=" stroke:none;fill-rule:nonzero;fill:url(#linear51);" d="M 331.25 15 L 339.582031 15 L 339.582031 30 L 331.25 30 Z M 331.25 15 "/>
<path style=" stroke:none;fill-rule:nonzero;fill:url(#linear52);" d="M 400 15 L 408.332031 15 L 408.332031 30 L 400 30 Z M 400 15 "/>
<path style=" stroke:none;fill-rule:nonzero;fill:url(#linear53);" d="M 466.667969 15 L 475 15 L 475 30 L 466.667969 30 Z M 466.667969 15 "/>
<path style=" stroke:none;fill-rule:nonzero;fill:url(#linear54);" d="M 535.417969 15 L 543.75 15 L 543.75 30 L 535.417969 30 Z M 535.417969 15 "/>
</g>
</svg>
