<?xml version="1.0" encoding="UTF-8"?>
<svg xmlns="http://www.w3.org/2000/svg" xmlns:xlink="http://www.w3.org/1999/xlink" width="384pt" height="288pt" viewBox="0 0 384 288" version="1.1">
<g id="surface117">
<path style=" stroke:none;fill-rule:nonzero;fill:rgb(0%,0%,0%);fill-opacity:1;" d="M 0 0 L 284 0 L 284 288 L 0 288 Z M 0 0 "/>
<path style=" stroke:none;fill-rule:nonzero;fill:rgb(50.196078%,50.196078%,50.196078%);fill-opacity:1;" d="M 0 0 L 35.5 0 L 35.5 288 L 0 288 Z M 0 0 "/>
<path style=" stroke:none;fill-rule:nonzero;fill:rgb(0%,0%,0%);fill-opacity:1;" d="M 35.5 0 L 71 0 L 71 288 L 35.5 288 Z M 35.5 0 "/>
<path style=" stroke:none;fill-rule:nonzero;fill:rgb(50.196078%,50.196078%,50.196078%);fill-opacity:1;" d="M 71 0 L 106.5 0 L 106.5 288 L 71 288 Z M 71 0 "/>
<path style=" stroke:none;fill-rule:nonzero;fill:rgb(0%,0%,0%);fill-opacity:1;" d="M 106.5 0 L 142 0 L 142 288 L 106.5 288 Z M 106.5 0 "/>
<path style=" stroke:none;fill-rule:nonzero;fill:rgb(50.196078%,50.196078%,50.196078%);fill-opacity:1;" d="M 142 0 L 177.5 0 L 177.5 288 L 142 288 Z M 142 0 "/>
<path style=" stroke:none;fill-rule:nonzero;fill:rgb(0%,0%,0%);fill-opacity:1;" d="M 177.5 0 L 213 0 L 213 288 L 177.5 288 Z M 177.5 0 "/>
<path style=" stroke:none;fill-rule:nonzero;fill:rgb(50.196078%,50.196078%,50.196078%);fill-opacity:1;" d="M 213 0 L 248.5 0 L 248.5 288 L 213 288 Z M 213 0 "/>
<path style=" stroke:none;fill-rule:nonzero;fill:rgb(0%,0%,0%);fill-opacity:1;" d="M 248.5 0 L 284 0 L 284 288 L 248.5 288 Z M 248.5 0 "/>
<path style=" stroke:none;fill-rule:nonzero;fill:rgb(0%,0%,0%);fill-opacity:1;" d="M 10.6875 50.421875 L 16.171875 46.890625 C 16.703125 46.558594 17.265625 46.449219 17.859375 46.5625 C 18.453125 46.679688 18.898438 46.976562 19.203125 47.453125 L 19.4375 47.8125 C 19.5 47.917969 19.515625 48.027344 19.484375 48.140625 C 19.453125 48.257812 19.382812 48.34375 19.28125 48.40625 C 19.1875 48.46875 19.082031 48.496094 18.96875 48.484375 C 18.851562 48.464844 18.765625 48.402344 18.703125 48.296875 L 18.5625 48.078125 C 18.363281 47.765625 18.09375 47.578125 17.75 47.515625 C 17.414062 47.445312 17.085938 47.507812 16.765625 47.703125 L 15.703125 48.375 L 16.59375 49.75 C 16.644531 49.824219 16.65625 49.90625 16.625 50 C 16.59375 50.09375 16.53125 50.164062 16.4375 50.21875 C 16.351562 50.28125 16.257812 50.304688 16.15625 50.296875 C 16.0625 50.285156 15.988281 50.242188 15.9375 50.171875 L 15.046875 48.796875 L 11.21875 51.265625 C 11.132812 51.316406 11.035156 51.316406 10.921875 51.265625 C 10.816406 51.222656 10.726562 51.140625 10.65625 51.015625 C 10.582031 50.898438 10.546875 50.785156 10.546875 50.671875 C 10.546875 50.566406 10.59375 50.484375 10.6875 50.421875 Z M 14.183594 52.382812 L 15.214844 51.726562 C 15.734375 51.394531 16.3125 51.300781 16.949219 51.445312 C 17.582031 51.59375 18.074219 51.9375 18.417969 52.476562 C 18.769531 53.007812 18.878906 53.59375 18.746094 54.242188 C 18.621094 54.886719 18.296875 55.382812 17.777344 55.726562 L 16.746094 56.382812 C 16.234375 56.714844 15.652344 56.804688 14.996094 56.648438 C 14.339844 56.492188 13.839844 56.148438 13.496094 55.617188 C 13.160156 55.09375 13.0625 54.507812 13.199219 53.851562 C 13.34375 53.203125 13.671875 52.71875 14.183594 52.382812 Z M 14.714844 53.226562 C 14.402344 53.421875 14.191406 53.714844 14.089844 54.101562 C 13.996094 54.484375 14.050781 54.835938 14.261719 55.148438 C 14.457031 55.460938 14.753906 55.652344 15.152344 55.726562 C 15.546875 55.796875 15.894531 55.734375 16.199219 55.539062 L 17.230469 54.882812 C 17.53125 54.683594 17.730469 54.390625 17.824219 54.007812 C 17.925781 53.621094 17.875 53.273438 17.667969 52.960938 C 17.46875 52.648438 17.171875 52.457031 16.777344 52.382812 C 16.390625 52.3125 16.046875 52.375 15.746094 52.570312 Z M 15.871094 58.496094 L 22.949219 53.949219 C 23.03125 53.886719 23.125 53.878906 23.230469 53.917969 C 23.34375 53.960938 23.4375 54.042969 23.511719 54.167969 C 23.59375 54.285156 23.628906 54.402344 23.621094 54.527344 C 23.621094 54.644531 23.578125 54.730469 23.496094 54.792969 L 16.417969 59.339844 C 16.355469 59.378906 16.261719 59.378906 16.136719 59.339844 C 16.011719 59.296875 15.910156 59.21875 15.839844 59.105469 C 15.765625 58.988281 15.734375 58.871094 15.746094 58.746094 C 15.753906 58.621094 15.796875 58.535156 15.871094 58.496094 Z M 18.695312 59.410156 L 19.726562 58.753906 C 20.257812 58.410156 20.824219 58.296875 21.429688 58.410156 C 22.042969 58.527344 22.507812 58.828125 22.820312 59.316406 C 23.015625 59.628906 23.117188 59.941406 23.117188 60.253906 C 23.117188 60.574219 23.046875 60.871094 22.914062 61.144531 L 26.210938 59.019531 C 26.292969 58.957031 26.386719 58.949219 26.492188 58.988281 C 26.605469 59.03125 26.699219 59.113281 26.773438 59.238281 C 26.855469 59.363281 26.890625 59.484375 26.882812 59.597656 C 26.871094 59.703125 26.824219 59.785156 26.742188 59.847656 L 19.664062 64.394531 C 19.589844 64.433594 19.496094 64.433594 19.382812 64.394531 C 19.265625 64.363281 19.171875 64.289062 19.101562 64.175781 C 19.039062 64.070312 19.011719 63.960938 19.023438 63.847656 C 19.042969 63.730469 19.089844 63.652344 19.164062 63.613281 L 19.570312 63.347656 C 19.265625 63.367188 18.960938 63.292969 18.648438 63.128906 C 18.335938 62.972656 18.078125 62.746094 17.882812 62.457031 C 17.578125 61.976562 17.511719 61.429688 17.679688 60.816406 C 17.84375 60.210938 18.183594 59.746094 18.695312 59.410156 Z M 19.226562 60.253906 C 18.921875 60.449219 18.71875 60.742188 18.617188 61.128906 C 18.511719 61.511719 18.558594 61.855469 18.757812 62.160156 C 18.953125 62.460938 19.242188 62.652344 19.617188 62.738281 C 20 62.832031 20.277344 62.824219 20.445312 62.722656 L 21.742188 61.894531 C 22.09375 61.664062 22.304688 61.363281 22.367188 60.988281 C 22.4375 60.621094 22.382812 60.289062 22.195312 59.988281 C 21.984375 59.675781 21.683594 59.484375 21.289062 59.410156 C 20.902344 59.339844 20.558594 59.402344 20.257812 59.597656 Z M 20.523438 65.726562 L 27.304688 61.367188 C 27.398438 61.304688 27.492188 61.300781 27.585938 61.351562 C 27.6875 61.394531 27.773438 61.46875 27.835938 61.570312 L 30.148438 65.148438 C 30.210938 65.25 30.21875 65.351562 30.179688 65.445312 C 30.148438 65.539062 30.074219 65.617188 29.960938 65.679688 C 29.855469 65.75 29.746094 65.78125 29.632812 65.773438 C 29.515625 65.773438 29.433594 65.726562 29.382812 65.632812 L 27.367188 62.507812 L 24.804688 64.164062 L 25.820312 65.742188 C 25.882812 65.835938 25.890625 65.929688 25.851562 66.023438 C 25.820312 66.117188 25.75 66.199219 25.648438 66.273438 C 25.554688 66.324219 25.453125 66.34375 25.351562 66.335938 C 25.257812 66.335938 25.179688 66.289062 25.117188 66.195312 L 24.101562 64.617188 L 21.523438 66.273438 L 23.539062 69.398438 C 23.589844 69.492188 23.59375 69.585938 23.554688 69.679688 C 23.511719 69.78125 23.4375 69.871094 23.335938 69.945312 C 23.230469 70.007812 23.125 70.039062 23.023438 70.039062 C 22.917969 70.039062 22.835938 69.984375 22.773438 69.882812 L 20.460938 66.304688 C 20.398438 66.199219 20.367188 66.089844 20.367188 65.976562 C 20.375 65.871094 20.429688 65.789062 20.523438 65.726562 Z M 27.605469 67.652344 C 27.707031 67.589844 27.832031 67.597656 27.980469 67.667969 C 28.125 67.730469 28.238281 67.824219 28.324219 67.949219 C 28.417969 68.097656 28.417969 68.226562 28.324219 68.339844 L 25.714844 71.808594 L 29.933594 70.902344 C 30.097656 70.859375 30.222656 70.90625 30.308594 71.042969 C 30.371094 71.144531 30.40625 71.28125 30.417969 71.449219 C 30.425781 71.625 30.378906 71.746094 30.277344 71.808594 C 30.222656 71.847656 30.167969 71.875 30.105469 71.886719 L 24.839844 72.917969 C 24.683594 72.949219 24.542969 72.859375 24.417969 72.652344 C 24.28125 72.441406 24.261719 72.269531 24.355469 72.136719 L 27.464844 67.792969 C 27.535156 67.722656 27.582031 67.675781 27.605469 67.652344 Z M 28.066406 74.003906 L 29.128906 73.332031 C 29.648438 72.988281 30.222656 72.894531 30.847656 73.050781 C 31.472656 73.207031 31.960938 73.5625 32.316406 74.113281 C 32.660156 74.636719 32.773438 75.195312 32.660156 75.800781 C 32.554688 76.414062 32.238281 76.894531 31.707031 77.238281 C 31.507812 77.363281 31.335938 77.441406 31.191406 77.472656 C 31.042969 77.503906 30.917969 77.488281 30.816406 77.425781 C 30.710938 77.363281 30.621094 77.289062 30.550781 77.207031 C 30.476562 77.132812 30.394531 77.019531 30.300781 76.863281 L 28.878906 74.660156 L 28.582031 74.863281 C 28.195312 75.101562 27.976562 75.425781 27.925781 75.832031 C 27.882812 76.238281 27.996094 76.652344 28.269531 77.082031 C 28.414062 77.308594 28.570312 77.480469 28.738281 77.597656 C 28.914062 77.722656 29.070312 77.808594 29.207031 77.863281 C 29.339844 77.925781 29.425781 77.988281 29.457031 78.050781 C 29.519531 78.144531 29.527344 78.253906 29.488281 78.378906 C 29.445312 78.503906 29.378906 78.589844 29.285156 78.644531 C 29.136719 78.738281 28.882812 78.679688 28.519531 78.472656 C 28.164062 78.273438 27.839844 77.949219 27.550781 77.503906 C 27.132812 76.847656 26.964844 76.191406 27.050781 75.535156 C 27.144531 74.886719 27.480469 74.378906 28.066406 74.003906 Z M 29.441406 74.300781 L 30.644531 76.160156 C 30.757812 76.335938 30.855469 76.441406 30.941406 76.472656 C 31.023438 76.511719 31.121094 76.492188 31.238281 76.410156 C 31.550781 76.210938 31.746094 75.925781 31.832031 75.550781 C 31.925781 75.183594 31.867188 74.847656 31.660156 74.535156 C 31.449219 74.214844 31.164062 74.003906 30.800781 73.910156 C 30.445312 73.816406 30.113281 73.875 29.800781 74.082031 Z M 29.609375 79.902344 L 33.8125 77.199219 C 33.894531 77.148438 33.988281 77.144531 34.09375 77.183594 C 34.195312 77.226562 34.289062 77.308594 34.375 77.433594 C 34.4375 77.539062 34.460938 77.648438 34.453125 77.761719 C 34.453125 77.867188 34.410156 77.945312 34.328125 77.996094 L 33.84375 78.308594 C 34.15625 78.289062 34.46875 78.347656 34.78125 78.480469 C 35.09375 78.605469 35.34375 78.816406 35.53125 79.105469 L 35.75 79.449219 C 35.800781 79.53125 35.804688 79.625 35.765625 79.730469 C 35.734375 79.84375 35.664062 79.933594 35.5625 79.996094 C 35.46875 80.066406 35.363281 80.09375 35.25 80.074219 C 35.132812 80.0625 35.050781 80.015625 35 79.933594 L 34.78125 79.589844 C 34.550781 79.246094 34.21875 79.039062 33.78125 78.964844 C 33.34375 78.882812 32.90625 78.980469 32.46875 79.261719 L 30.15625 80.746094 C 30.09375 80.785156 30 80.785156 29.875 80.746094 C 29.757812 80.703125 29.664062 80.625 29.59375 80.511719 C 29.519531 80.394531 29.484375 80.277344 29.484375 80.152344 C 29.492188 80.027344 29.535156 79.941406 29.609375 79.902344 Z M 35.683594 80.234375 C 35.796875 80.171875 35.933594 80.179688 36.089844 80.25 C 36.246094 80.3125 36.363281 80.40625 36.449219 80.53125 C 36.53125 80.667969 36.53125 80.792969 36.449219 80.90625 L 33.777344 84.5 L 38.089844 83.4375 C 38.222656 83.414062 38.328125 83.46875 38.402344 83.59375 C 38.472656 83.707031 38.511719 83.851562 38.511719 84.03125 C 38.519531 84.207031 38.46875 84.332031 38.355469 84.40625 C 38.3125 84.425781 38.269531 84.4375 38.230469 84.4375 L 33.136719 85.546875 L 32.496094 85.6875 C 32.390625 85.695312 32.1875 85.722656 31.886719 85.765625 C 31.59375 85.816406 31.375 85.84375 31.230469 85.84375 C 31.085938 85.84375 30.894531 85.832031 30.652344 85.8125 C 30.414062 85.800781 30.222656 85.765625 30.074219 85.703125 C 29.929688 85.640625 29.773438 85.546875 29.605469 85.421875 C 29.441406 85.296875 29.304688 85.148438 29.199219 84.984375 C 29.023438 84.710938 29.058594 84.492188 29.308594 84.328125 C 29.550781 84.179688 29.722656 84.191406 29.824219 84.359375 C 30.023438 84.660156 30.386719 84.84375 30.917969 84.90625 C 31.4375 84.976562 31.996094 84.894531 32.589844 84.65625 L 35.589844 80.34375 C 35.621094 80.304688 35.652344 80.265625 35.683594 80.234375 Z M 35.800781 90.011719 L 43.191406 85.261719 C 43.273438 85.210938 43.367188 85.207031 43.472656 85.246094 C 43.574219 85.289062 43.660156 85.355469 43.722656 85.449219 L 44.785156 87.105469 C 44.835938 87.199219 44.839844 87.300781 44.800781 87.402344 C 44.769531 87.496094 44.699219 87.582031 44.597656 87.652344 C 44.492188 87.714844 44.382812 87.746094 44.269531 87.746094 C 44.164062 87.746094 44.085938 87.699219 44.035156 87.605469 L 43.269531 86.417969 L 36.800781 90.558594 L 37.566406 91.746094 C 37.617188 91.839844 37.628906 91.933594 37.597656 92.027344 C 37.566406 92.121094 37.492188 92.207031 37.378906 92.292969 C 37.285156 92.34375 37.179688 92.371094 37.066406 92.371094 C 36.960938 92.371094 36.882812 92.324219 36.832031 92.230469 L 35.769531 90.574219 C 35.707031 90.480469 35.675781 90.375 35.675781 90.261719 C 35.675781 90.144531 35.714844 90.0625 35.800781 90.011719 Z M 39.164062 91.773438 C 39.320312 91.671875 39.4375 91.632812 39.523438 91.664062 C 39.617188 91.6875 39.710938 91.769531 39.804688 91.914062 C 39.90625 92.070312 39.953125 92.203125 39.945312 92.304688 C 39.933594 92.398438 39.871094 92.484375 39.757812 92.554688 C 39.496094 92.71875 39.328125 92.980469 39.257812 93.335938 C 39.195312 93.6875 39.304688 94.089844 39.585938 94.539062 C 40.167969 95.433594 40.929688 95.585938 41.867188 94.992188 L 42.039062 94.867188 C 42.871094 94.335938 42.996094 93.621094 42.414062 92.726562 C 42.289062 92.519531 42.339844 92.34375 42.570312 92.195312 C 42.808594 92.039062 42.992188 92.066406 43.117188 92.273438 C 43.367188 92.65625 43.640625 92.890625 43.945312 92.976562 C 44.257812 93.058594 44.636719 92.953125 45.085938 92.664062 C 45.875 92.164062 46.027344 91.535156 45.539062 90.773438 C 45.257812 90.335938 44.960938 90.09375 44.648438 90.039062 C 44.34375 89.988281 44.0625 90.050781 43.804688 90.226562 C 43.554688 90.382812 43.34375 90.328125 43.179688 90.054688 C 43.054688 89.867188 43 89.726562 43.023438 89.632812 C 43.042969 89.539062 43.136719 89.441406 43.304688 89.335938 C 43.480469 89.222656 43.679688 89.144531 43.898438 89.101562 C 44.125 89.050781 44.371094 89.035156 44.632812 89.054688 C 44.902344 89.078125 45.183594 89.195312 45.476562 89.414062 C 45.777344 89.625 46.054688 89.921875 46.304688 90.304688 C 47.125 91.597656 46.945312 92.621094 45.757812 93.382812 C 45.328125 93.652344 44.921875 93.808594 44.539062 93.851562 C 44.152344 93.890625 43.820312 93.828125 43.539062 93.664062 C 43.703125 94.515625 43.386719 95.199219 42.585938 95.710938 L 42.414062 95.835938 C 41.664062 96.304688 40.980469 96.449219 40.367188 96.273438 C 39.761719 96.105469 39.246094 95.695312 38.820312 95.039062 C 38.371094 94.339844 38.203125 93.6875 38.320312 93.085938 C 38.445312 92.492188 38.726562 92.054688 39.164062 91.773438 Z M 41.246094 97.667969 C 41.402344 97.574219 41.5625 97.542969 41.730469 97.574219 C 41.894531 97.59375 42.027344 97.675781 42.121094 97.824219 C 42.214844 97.96875 42.246094 98.125 42.214844 98.292969 C 42.183594 98.457031 42.082031 98.59375 41.917969 98.699219 C 41.8125 98.769531 41.3125 98.886719 40.417969 99.042969 C 40.304688 99.0625 40.214844 99.019531 40.152344 98.917969 C 40.101562 98.832031 40.082031 98.746094 40.089844 98.652344 C 40.089844 98.566406 40.128906 98.503906 40.199219 98.464844 C 40.242188 98.433594 40.285156 98.410156 40.324219 98.402344 L 40.964844 98.292969 C 40.921875 98.03125 41.015625 97.824219 41.246094 97.667969 Z M 43.542969 98.539062 C 43.8125 98.363281 44.035156 98.421875 44.214844 98.710938 C 44.402344 98.992188 44.378906 99.207031 44.152344 99.351562 C 43.828125 99.558594 43.652344 99.84375 43.621094 100.210938 C 43.597656 100.585938 43.707031 100.960938 43.949219 101.335938 C 44.230469 101.761719 44.5625 102.015625 44.949219 102.101562 C 45.34375 102.183594 45.769531 102.074219 46.230469 101.773438 L 46.433594 101.648438 C 46.890625 101.355469 47.15625 101.015625 47.230469 100.632812 C 47.3125 100.246094 47.21875 99.84375 46.949219 99.429688 L 46.027344 97.992188 C 45.859375 97.734375 45.886719 97.535156 46.105469 97.398438 C 46.175781 97.347656 46.261719 97.300781 46.355469 97.257812 L 49.324219 95.664062 C 49.519531 95.550781 49.667969 95.5625 49.761719 95.695312 L 51.621094 98.601562 C 51.683594 98.695312 51.691406 98.789062 51.652344 98.882812 C 51.609375 98.976562 51.535156 99.0625 51.433594 99.132812 C 51.328125 99.195312 51.21875 99.226562 51.105469 99.226562 C 51 99.226562 50.917969 99.179688 50.855469 99.085938 L 49.324219 96.695312 L 47.011719 97.960938 L 47.667969 98.976562 C 48.082031 99.632812 48.25 100.265625 48.167969 100.882812 C 48.082031 101.496094 47.683594 102.03125 46.964844 102.492188 L 46.761719 102.617188 C 46.019531 103.09375 45.34375 103.25 44.730469 103.085938 C 44.125 102.917969 43.613281 102.507812 43.199219 101.851562 C 42.761719 101.171875 42.582031 100.527344 42.667969 99.914062 C 42.761719 99.3125 43.050781 98.851562 43.542969 98.539062 Z M 45.125 104.359375 C 45.238281 104.273438 45.34375 104.242188 45.4375 104.25 C 45.539062 104.261719 45.617188 104.304688 45.671875 104.390625 L 46.453125 105.59375 L 52.921875 101.453125 L 52.140625 100.25 C 52.085938 100.167969 52.082031 100.074219 52.125 99.96875 C 52.164062 99.867188 52.238281 99.78125 52.34375 99.71875 C 52.445312 99.648438 52.550781 99.617188 52.65625 99.625 C 52.757812 99.625 52.835938 99.667969 52.890625 99.75 L 53.96875 101.40625 C 54.03125 101.511719 54.054688 101.621094 54.046875 101.734375 C 54.046875 101.851562 54.003906 101.933594 53.921875 101.984375 L 46.53125 106.734375 C 46.445312 106.785156 46.351562 106.789062 46.25 106.75 C 46.15625 106.707031 46.078125 106.632812 46.015625 106.53125 L 44.9375 104.875 C 44.882812 104.789062 44.878906 104.695312 44.921875 104.59375 C 44.960938 104.488281 45.03125 104.410156 45.125 104.359375 Z M 50.113281 109.035156 L 54.394531 106.285156 C 54.925781 105.941406 55.496094 105.847656 56.113281 106.003906 C 56.738281 106.152344 57.214844 106.484375 57.550781 107.003906 C 57.726562 107.277344 57.691406 107.496094 57.441406 107.660156 C 57.324219 107.734375 57.214844 107.769531 57.113281 107.769531 C 57.019531 107.761719 56.941406 107.714844 56.878906 107.628906 C 56.636719 107.265625 56.324219 107.042969 55.941406 106.957031 C 55.566406 106.875 55.226562 106.933594 54.925781 107.128906 L 50.644531 109.878906 C 50.277344 110.105469 50.097656 110.394531 50.097656 110.738281 C 50.105469 111.082031 50.214844 111.417969 50.425781 111.753906 C 50.550781 111.941406 50.488281 112.117188 50.238281 112.285156 C 49.988281 112.441406 49.769531 112.378906 49.582031 112.097656 C 49.238281 111.554688 49.097656 110.996094 49.160156 110.425781 C 49.230469 109.851562 49.550781 109.390625 50.113281 109.035156 Z M 51.0625 112.445312 C 51.144531 112.394531 51.242188 112.367188 51.359375 112.367188 C 51.484375 112.367188 51.570312 112.410156 51.625 112.492188 C 51.664062 112.546875 51.675781 112.640625 51.65625 112.789062 C 51.644531 112.945312 51.660156 113.140625 51.703125 113.382812 C 51.753906 113.632812 51.859375 113.886719 52.015625 114.148438 C 52.234375 114.480469 52.453125 114.683594 52.671875 114.757812 C 52.890625 114.828125 53.09375 114.804688 53.28125 114.679688 C 53.5 114.542969 53.617188 114.34375 53.640625 114.085938 C 53.660156 113.824219 53.625 113.554688 53.53125 113.273438 C 53.445312 112.992188 53.367188 112.703125 53.296875 112.414062 C 53.222656 112.125 53.222656 111.832031 53.296875 111.539062 C 53.378906 111.25 53.578125 111.003906 53.890625 110.804688 C 54.273438 110.554688 54.691406 110.476562 55.140625 110.570312 C 55.597656 110.664062 56.003906 110.992188 56.359375 111.554688 C 56.597656 111.910156 56.753906 112.269531 56.828125 112.632812 C 56.910156 113.007812 56.878906 113.234375 56.734375 113.320312 C 56.660156 113.371094 56.550781 113.398438 56.40625 113.398438 C 56.257812 113.40625 56.15625 113.367188 56.09375 113.273438 C 56.082031 113.242188 56.050781 113.078125 56 112.789062 C 55.945312 112.5 55.847656 112.238281 55.703125 112.007812 C 55.503906 111.695312 55.28125 111.515625 55.03125 111.460938 C 54.789062 111.398438 54.578125 111.425781 54.390625 111.539062 C 54.210938 111.65625 54.125 111.832031 54.125 112.070312 C 54.125 112.3125 54.171875 112.570312 54.265625 112.851562 C 54.367188 113.140625 54.453125 113.433594 54.515625 113.726562 C 54.585938 114.027344 54.570312 114.328125 54.46875 114.632812 C 54.363281 114.933594 54.144531 115.195312 53.8125 115.414062 C 53.382812 115.683594 52.953125 115.746094 52.515625 115.601562 C 52.085938 115.464844 51.707031 115.125 51.375 114.585938 C 51.070312 114.136719 50.894531 113.695312 50.84375 113.257812 C 50.800781 112.828125 50.875 112.5625 51.0625 112.445312 Z M 53.460938 117.042969 L 60.539062 112.496094 C 60.621094 112.433594 60.714844 112.425781 60.820312 112.464844 C 60.933594 112.507812 61.027344 112.589844 61.101562 112.714844 C 61.183594 112.832031 61.21875 112.949219 61.210938 113.074219 C 61.210938 113.191406 61.167969 113.277344 61.085938 113.339844 L 54.007812 117.886719 C 53.945312 117.925781 53.851562 117.925781 53.726562 117.886719 C 53.601562 117.84375 53.5 117.765625 53.429688 117.652344 C 53.355469 117.535156 53.324219 117.417969 53.335938 117.292969 C 53.34375 117.167969 53.386719 117.082031 53.460938 117.042969 Z M 56.289062 117.957031 L 57.320312 117.300781 C 57.839844 116.96875 58.417969 116.875 59.054688 117.019531 C 59.6875 117.167969 60.179688 117.511719 60.523438 118.050781 C 60.875 118.582031 60.984375 119.167969 60.851562 119.816406 C 60.726562 120.460938 60.402344 120.957031 59.882812 121.300781 L 58.851562 121.957031 C 58.339844 122.289062 57.757812 122.378906 57.101562 122.222656 C 56.445312 122.066406 55.945312 121.722656 55.601562 121.191406 C 55.265625 120.667969 55.167969 120.082031 55.304688 119.425781 C 55.449219 118.777344 55.777344 118.292969 56.289062 117.957031 Z M 56.820312 118.800781 C 56.507812 118.996094 56.296875 119.289062 56.195312 119.675781 C 56.101562 120.058594 56.15625 120.410156 56.367188 120.722656 C 56.5625 121.035156 56.859375 121.226562 57.257812 121.300781 C 57.652344 121.371094 58 121.308594 58.304688 121.113281 L 59.335938 120.457031 C 59.636719 120.257812 59.835938 119.964844 59.929688 119.582031 C 60.03125 119.195312 59.980469 118.847656 59.773438 118.535156 C 59.574219 118.222656 59.277344 118.03125 58.882812 117.957031 C 58.496094 117.886719 58.152344 117.949219 57.851562 118.144531 Z M 61.769531 120.851562 C 61.871094 120.789062 61.992188 120.789062 62.128906 120.851562 C 62.273438 120.914062 62.386719 121.007812 62.472656 121.132812 C 62.566406 121.28125 62.566406 121.410156 62.472656 121.523438 L 59.878906 124.929688 L 63.550781 123.914062 C 63.707031 123.871094 63.835938 123.933594 63.941406 124.101562 C 64.054688 124.265625 64.054688 124.414062 63.941406 124.539062 L 61.457031 127.460938 L 65.675781 126.492188 C 65.800781 126.4375 65.910156 126.484375 66.003906 126.632812 C 66.074219 126.757812 66.113281 126.898438 66.113281 127.054688 C 66.113281 127.210938 66.058594 127.320312 65.957031 127.382812 C 65.902344 127.421875 65.847656 127.449219 65.785156 127.460938 L 60.597656 128.585938 C 60.429688 128.617188 60.292969 128.542969 60.191406 128.367188 C 60.066406 128.179688 60.050781 128.023438 60.144531 127.898438 L 62.488281 125.023438 L 58.941406 125.945312 C 58.761719 125.984375 58.613281 125.914062 58.488281 125.726562 C 58.371094 125.546875 58.371094 125.386719 58.488281 125.242188 L 61.644531 121.007812 C 61.707031 120.925781 61.746094 120.875 61.769531 120.851562 Z M 63.429688 132.546875 L 64.414062 131.90625 C 64.714844 131.71875 65.085938 131.648438 65.523438 131.6875 C 65.960938 131.730469 66.402344 131.839844 66.851562 132.015625 L 68.210938 132.53125 C 68.65625 132.707031 69.101562 132.816406 69.539062 132.859375 C 69.984375 132.898438 70.355469 132.828125 70.648438 132.640625 C 70.96875 132.429688 71.183594 132.148438 71.289062 131.78125 C 71.402344 131.40625 71.335938 131.023438 71.085938 130.625 C 70.867188 130.292969 70.589844 130.085938 70.257812 130 C 69.933594 129.90625 69.601562 129.96875 69.257812 130.1875 C 69.164062 130.25 69.054688 130.261719 68.929688 130.21875 C 68.8125 130.179688 68.714844 130.09375 68.632812 129.96875 C 68.464844 129.710938 68.546875 129.476562 68.882812 129.265625 C 69.390625 128.933594 69.929688 128.855469 70.492188 129.03125 C 71.054688 129.210938 71.511719 129.574219 71.867188 130.125 C 72.242188 130.71875 72.371094 131.335938 72.257812 131.96875 C 72.140625 132.601562 71.804688 133.097656 71.242188 133.453125 C 70.898438 133.671875 70.515625 133.796875 70.101562 133.828125 C 69.695312 133.859375 69.304688 133.820312 68.929688 133.71875 C 68.554688 133.613281 68.167969 133.484375 67.773438 133.328125 L 66.679688 132.90625 C 66.355469 132.769531 66.039062 132.679688 65.726562 132.640625 C 65.414062 132.609375 65.15625 132.65625 64.960938 132.78125 L 64.445312 133.125 L 66.445312 136.21875 C 66.496094 136.300781 66.5 136.394531 66.460938 136.5 C 66.417969 136.601562 66.34375 136.6875 66.242188 136.75 C 66.148438 136.8125 66.042969 136.835938 65.929688 136.828125 C 65.8125 136.828125 65.730469 136.785156 65.679688 136.703125 L 63.367188 133.109375 C 63.3125 133.023438 63.289062 132.921875 63.289062 132.796875 C 63.296875 132.679688 63.34375 132.597656 63.429688 132.546875 Z M 66.347656 137.371094 C 66.597656 137.207031 66.777344 137.214844 66.894531 137.402344 C 67.113281 137.734375 67.378906 137.972656 67.691406 138.121094 C 68.003906 138.265625 68.339844 138.222656 68.707031 137.996094 L 72.988281 135.246094 C 73.289062 135.050781 73.480469 134.769531 73.566406 134.402344 C 73.660156 134.027344 73.585938 133.652344 73.347656 133.277344 C 73.292969 133.195312 73.285156 133.105469 73.316406 133.011719 C 73.355469 132.910156 73.433594 132.820312 73.550781 132.746094 C 73.800781 132.582031 74.007812 132.632812 74.175781 132.902344 C 74.519531 133.425781 74.628906 134.003906 74.503906 134.636719 C 74.386719 135.261719 74.066406 135.746094 73.535156 136.089844 L 69.253906 138.839844 C 68.691406 139.191406 68.132812 139.28125 67.582031 139.105469 C 67.039062 138.9375 66.589844 138.578125 66.238281 138.027344 C 66.058594 137.746094 66.097656 137.527344 66.347656 137.371094 Z M 70.75 142.054688 C 70.863281 141.984375 70.992188 141.957031 71.140625 141.976562 C 71.285156 141.988281 71.390625 142.035156 71.453125 142.117188 C 71.484375 142.171875 71.488281 142.273438 71.46875 142.429688 C 71.445312 142.574219 71.421875 142.726562 71.390625 142.882812 C 71.359375 143.039062 71.367188 143.246094 71.421875 143.507812 C 71.472656 143.777344 71.570312 144.054688 71.71875 144.335938 L 74.40625 142.601562 L 74.25 141.929688 C 74.21875 141.773438 74.191406 141.5625 74.171875 141.289062 C 74.160156 141.007812 74.179688 140.785156 74.234375 140.617188 C 74.296875 140.441406 74.398438 140.25 74.546875 140.039062 C 74.703125 139.820312 74.898438 139.632812 75.140625 139.476562 C 75.453125 139.28125 75.753906 139.164062 76.046875 139.132812 C 76.347656 139.09375 76.625 139.125 76.875 139.226562 C 77.132812 139.332031 77.363281 139.460938 77.5625 139.617188 C 77.769531 139.773438 77.96875 139.96875 78.15625 140.195312 L 78.453125 140.007812 C 78.503906 139.976562 78.566406 139.972656 78.640625 139.992188 C 78.710938 140.003906 78.773438 140.050781 78.828125 140.132812 C 78.859375 140.195312 78.867188 140.273438 78.859375 140.367188 C 78.859375 140.453125 78.832031 140.507812 78.78125 140.539062 L 78.484375 140.726562 C 78.734375 141.132812 78.90625 141.539062 79 141.945312 C 79.09375 142.34375 79.046875 142.601562 78.859375 142.726562 C 78.765625 142.789062 78.640625 142.820312 78.484375 142.820312 C 78.335938 142.828125 78.226562 142.777344 78.15625 142.664062 C 78.132812 142.632812 78.101562 142.453125 78.0625 142.132812 C 78.019531 141.8125 77.914062 141.503906 77.75 141.210938 L 75.421875 142.695312 C 75.515625 143.007812 75.566406 143.277344 75.578125 143.507812 C 75.597656 143.734375 75.59375 143.996094 75.5625 144.289062 C 75.53125 144.589844 75.421875 144.867188 75.234375 145.117188 C 75.046875 145.367188 74.785156 145.601562 74.453125 145.820312 C 73.867188 146.195312 73.300781 146.335938 72.75 146.242188 C 72.195312 146.148438 71.707031 145.851562 71.28125 145.351562 L 70.921875 145.585938 C 70.867188 145.617188 70.800781 145.617188 70.71875 145.585938 C 70.632812 145.5625 70.578125 145.523438 70.546875 145.460938 C 70.492188 145.375 70.472656 145.292969 70.484375 145.210938 C 70.503906 145.136719 70.539062 145.085938 70.59375 145.054688 L 70.9375 144.835938 C 70.5625 144.25 70.375 143.679688 70.375 143.117188 C 70.382812 142.5625 70.507812 142.210938 70.75 142.054688 Z M 75.734375 140.242188 C 75.421875 140.453125 75.242188 140.695312 75.203125 140.976562 C 75.171875 141.257812 75.203125 141.628906 75.296875 142.085938 L 77.421875 140.726562 C 76.867188 140.039062 76.304688 139.878906 75.734375 140.242188 Z M 72.0625 144.789062 C 72.59375 145.390625 73.191406 145.480469 73.859375 145.054688 C 74.210938 144.824219 74.429688 144.558594 74.515625 144.257812 C 74.597656 143.964844 74.601562 143.617188 74.53125 143.210938 Z M 76.074219 148.777344 L 77.105469 148.121094 C 77.636719 147.777344 78.203125 147.664062 78.808594 147.777344 C 79.421875 147.894531 79.886719 148.195312 80.199219 148.683594 C 80.394531 148.996094 80.496094 149.308594 80.496094 149.621094 C 80.496094 149.941406 80.425781 150.238281 80.292969 150.511719 L 83.589844 148.386719 C 83.671875 148.324219 83.765625 148.316406 83.871094 148.355469 C 83.984375 148.398438 84.078125 148.480469 84.152344 148.605469 C 84.234375 148.730469 84.269531 148.851562 84.261719 148.964844 C 84.25 149.070312 84.203125 149.152344 84.121094 149.214844 L 77.042969 153.761719 C 76.96875 153.800781 76.875 153.800781 76.761719 153.761719 C 76.644531 153.730469 76.550781 153.65625 76.480469 153.542969 C 76.417969 153.4375 76.390625 153.328125 76.402344 153.214844 C 76.421875 153.097656 76.46875 153.019531 76.542969 152.980469 L 76.949219 152.714844 C 76.644531 152.734375 76.339844 152.660156 76.027344 152.496094 C 75.714844 152.339844 75.457031 152.113281 75.261719 151.824219 C 74.957031 151.34375 74.890625 150.796875 75.058594 150.183594 C 75.222656 149.578125 75.5625 149.113281 76.074219 148.777344 Z M 76.605469 149.621094 C 76.300781 149.816406 76.097656 150.109375 75.996094 150.496094 C 75.890625 150.878906 75.9375 151.222656 76.136719 151.527344 C 76.332031 151.828125 76.621094 152.019531 76.996094 152.105469 C 77.378906 152.199219 77.65625 152.191406 77.824219 152.089844 L 79.121094 151.261719 C 79.472656 151.03125 79.683594 150.730469 79.746094 150.355469 C 79.816406 149.988281 79.761719 149.65625 79.574219 149.355469 C 79.363281 149.042969 79.0625 148.851562 78.667969 148.777344 C 78.28125 148.707031 77.9375 148.769531 77.636719 148.964844 Z M 79.277344 153.765625 L 80.339844 153.09375 C 80.859375 152.75 81.433594 152.65625 82.058594 152.8125 C 82.683594 152.96875 83.171875 153.324219 83.527344 153.875 C 83.871094 154.398438 83.984375 154.957031 83.871094 155.5625 C 83.765625 156.175781 83.449219 156.65625 82.917969 157 C 82.71875 157.125 82.546875 157.203125 82.402344 157.234375 C 82.253906 157.265625 82.128906 157.25 82.027344 157.1875 C 81.921875 157.125 81.832031 157.050781 81.761719 156.96875 C 81.6875 156.894531 81.605469 156.78125 81.511719 156.625 L 80.089844 154.421875 L 79.792969 154.625 C 79.40625 154.863281 79.1875 155.1875 79.136719 155.59375 C 79.09375 156 79.207031 156.414062 79.480469 156.84375 C 79.625 157.070312 79.78125 157.242188 79.949219 157.359375 C 80.125 157.484375 80.28125 157.570312 80.417969 157.625 C 80.550781 157.6875 80.636719 157.75 80.667969 157.8125 C 80.730469 157.90625 80.738281 158.015625 80.699219 158.140625 C 80.65625 158.265625 80.589844 158.351562 80.496094 158.40625 C 80.347656 158.5 80.09375 158.441406 79.730469 158.234375 C 79.375 158.035156 79.050781 157.710938 78.761719 157.265625 C 78.34375 156.609375 78.175781 155.953125 78.261719 155.296875 C 78.355469 154.648438 78.691406 154.140625 79.277344 153.765625 Z M 80.652344 154.0625 L 81.855469 155.921875 C 81.96875 156.097656 82.066406 156.203125 82.152344 156.234375 C 82.234375 156.273438 82.332031 156.253906 82.449219 156.171875 C 82.761719 155.972656 82.957031 155.6875 83.042969 155.3125 C 83.136719 154.945312 83.078125 154.609375 82.871094 154.296875 C 82.660156 153.976562 82.375 153.765625 82.011719 153.671875 C 81.65625 153.578125 81.324219 153.636719 81.011719 153.84375 Z M 80.824219 159.664062 L 85.027344 156.960938 C 85.109375 156.910156 85.203125 156.90625 85.308594 156.945312 C 85.410156 156.988281 85.503906 157.070312 85.589844 157.195312 C 85.652344 157.289062 85.675781 157.394531 85.667969 157.507812 C 85.65625 157.625 85.613281 157.707031 85.542969 157.757812 L 85.121094 158.039062 C 85.410156 158 85.703125 158.054688 85.996094 158.210938 C 86.296875 158.359375 86.550781 158.585938 86.761719 158.898438 C 87.0625 159.367188 87.136719 159.898438 86.980469 160.492188 C 86.832031 161.09375 86.496094 161.570312 85.964844 161.914062 L 83.355469 163.585938 C 83.261719 163.648438 83.160156 163.652344 83.058594 163.601562 C 82.953125 163.546875 82.863281 163.46875 82.792969 163.367188 C 82.71875 163.25 82.675781 163.136719 82.667969 163.023438 C 82.667969 162.90625 82.714844 162.820312 82.808594 162.757812 L 85.417969 161.085938 C 85.71875 160.886719 85.917969 160.59375 86.011719 160.210938 C 86.113281 159.824219 86.066406 159.476562 85.871094 159.164062 C 85.683594 158.882812 85.40625 158.703125 85.042969 158.617188 C 84.6875 158.535156 84.332031 158.609375 83.980469 158.835938 L 81.371094 160.507812 C 81.308594 160.546875 81.214844 160.542969 81.089844 160.492188 C 80.964844 160.449219 80.871094 160.375 80.808594 160.273438 C 80.734375 160.15625 80.699219 160.039062 80.699219 159.914062 C 80.707031 159.789062 80.75 159.703125 80.824219 159.664062 Z M 84.289062 164.195312 C 84.371094 164.144531 84.46875 164.117188 84.585938 164.117188 C 84.710938 164.117188 84.796875 164.160156 84.851562 164.242188 C 84.890625 164.296875 84.902344 164.390625 84.882812 164.539062 C 84.871094 164.695312 84.886719 164.890625 84.929688 165.132812 C 84.980469 165.382812 85.085938 165.636719 85.242188 165.898438 C 85.460938 166.230469 85.679688 166.433594 85.898438 166.507812 C 86.117188 166.578125 86.320312 166.554688 86.507812 166.429688 C 86.726562 166.292969 86.84375 166.09375 86.867188 165.835938 C 86.886719 165.574219 86.851562 165.304688 86.757812 165.023438 C 86.671875 164.742188 86.59375 164.453125 86.523438 164.164062 C 86.449219 163.875 86.449219 163.582031 86.523438 163.289062 C 86.605469 163 86.804688 162.753906 87.117188 162.554688 C 87.5 162.304688 87.917969 162.226562 88.367188 162.320312 C 88.824219 162.414062 89.230469 162.742188 89.585938 163.304688 C 89.824219 163.660156 89.980469 164.019531 90.054688 164.382812 C 90.136719 164.757812 90.105469 164.984375 89.960938 165.070312 C 89.886719 165.121094 89.777344 165.148438 89.632812 165.148438 C 89.484375 165.15625 89.382812 165.117188 89.320312 165.023438 C 89.308594 164.992188 89.277344 164.828125 89.226562 164.539062 C 89.171875 164.25 89.074219 163.988281 88.929688 163.757812 C 88.730469 163.445312 88.507812 163.265625 88.257812 163.210938 C 88.015625 163.148438 87.804688 163.175781 87.617188 163.289062 C 87.4375 163.40625 87.351562 163.582031 87.351562 163.820312 C 87.351562 164.0625 87.398438 164.320312 87.492188 164.601562 C 87.59375 164.890625 87.679688 165.183594 87.742188 165.476562 C 87.8125 165.777344 87.796875 166.078125 87.695312 166.382812 C 87.589844 166.683594 87.371094 166.945312 87.039062 167.164062 C 86.609375 167.433594 86.179688 167.496094 85.742188 167.351562 C 85.3125 167.214844 84.933594 166.875 84.601562 166.335938 C 84.296875 165.886719 84.121094 165.445312 84.070312 165.007812 C 84.027344 164.578125 84.101562 164.3125 84.289062 164.195312 Z M 92.613281 164.917969 C 92.644531 164.753906 92.722656 164.632812 92.847656 164.558594 C 92.972656 164.476562 93.113281 164.457031 93.269531 164.496094 C 93.433594 164.527344 93.570312 164.621094 93.675781 164.777344 C 93.757812 164.914062 93.785156 165.066406 93.753906 165.230469 C 93.722656 165.398438 93.644531 165.523438 93.519531 165.605469 C 93.394531 165.679688 93.246094 165.695312 93.082031 165.652344 C 92.914062 165.613281 92.785156 165.523438 92.691406 165.386719 C 92.605469 165.242188 92.582031 165.085938 92.613281 164.917969 Z M 86.628906 168.699219 L 90.832031 165.996094 C 90.914062 165.945312 91.007812 165.945312 91.113281 165.996094 C 91.226562 166.039062 91.320312 166.117188 91.394531 166.230469 C 91.464844 166.355469 91.503906 166.476562 91.503906 166.589844 C 91.503906 166.707031 91.460938 166.789062 91.378906 166.839844 L 87.175781 169.542969 C 87.113281 169.582031 87.019531 169.582031 86.894531 169.542969 C 86.777344 169.5 86.683594 169.421875 86.613281 169.308594 C 86.539062 169.191406 86.503906 169.074219 86.503906 168.949219 C 86.511719 168.824219 86.554688 168.738281 86.628906 168.699219 Z M 89.164062 169.917969 L 94.351562 166.589844 C 94.433594 166.539062 94.53125 166.539062 94.648438 166.589844 C 94.761719 166.632812 94.851562 166.699219 94.914062 166.792969 C 94.984375 166.910156 95.015625 167.035156 95.007812 167.167969 C 95.007812 167.292969 94.964844 167.382812 94.882812 167.433594 L 92.945312 168.667969 L 93.757812 169.933594 C 93.808594 170.007812 93.8125 170.089844 93.773438 170.183594 C 93.742188 170.269531 93.679688 170.332031 93.585938 170.386719 C 93.5 170.449219 93.414062 170.472656 93.320312 170.464844 C 93.226562 170.464844 93.152344 170.425781 93.101562 170.355469 L 92.289062 169.089844 L 89.695312 170.761719 C 89.402344 170.949219 89.234375 171.140625 89.195312 171.339844 C 89.152344 171.535156 89.230469 171.792969 89.429688 172.105469 L 89.632812 172.417969 C 89.703125 172.53125 89.726562 172.640625 89.695312 172.746094 C 89.671875 172.859375 89.609375 172.949219 89.507812 173.011719 C 89.402344 173.082031 89.292969 173.105469 89.179688 173.074219 C 89.0625 173.050781 88.96875 172.988281 88.898438 172.886719 L 88.695312 172.574219 C 87.984375 171.457031 88.140625 170.574219 89.164062 169.917969 Z M 93.785156 170.71875 C 93.898438 170.65625 94.035156 170.664062 94.191406 170.734375 C 94.347656 170.796875 94.464844 170.890625 94.550781 171.015625 C 94.632812 171.152344 94.632812 171.277344 94.550781 171.390625 L 91.878906 174.984375 L 96.191406 173.921875 C 96.324219 173.898438 96.429688 173.953125 96.503906 174.078125 C 96.574219 174.191406 96.613281 174.335938 96.613281 174.515625 C 96.621094 174.691406 96.570312 174.816406 96.457031 174.890625 C 96.414062 174.910156 96.371094 174.921875 96.332031 174.921875 L 91.238281 176.03125 L 90.597656 176.171875 C 90.492188 176.179688 90.289062 176.207031 89.988281 176.25 C 89.695312 176.300781 89.476562 176.328125 89.332031 176.328125 C 89.1875 176.328125 88.996094 176.316406 88.753906 176.296875 C 88.515625 176.285156 88.324219 176.25 88.175781 176.1875 C 88.03125 176.125 87.875 176.03125 87.707031 175.90625 C 87.542969 175.78125 87.40625 175.632812 87.300781 175.46875 C 87.125 175.195312 87.160156 174.976562 87.410156 174.8125 C 87.652344 174.664062 87.824219 174.675781 87.925781 174.84375 C 88.125 175.144531 88.488281 175.328125 89.019531 175.390625 C 89.539062 175.460938 90.097656 175.378906 90.691406 175.140625 L 93.691406 170.828125 C 93.722656 170.789062 93.753906 170.75 93.785156 170.71875 Z M 99.273438 176.246094 C 99.40625 176.164062 99.558594 176.152344 99.726562 176.214844 L 101.414062 176.433594 C 101.570312 176.457031 101.671875 176.507812 101.726562 176.589844 C 101.789062 176.695312 101.820312 176.804688 101.820312 176.917969 C 101.820312 177.035156 101.773438 177.121094 101.679688 177.183594 L 94.882812 181.542969 C 94.789062 181.605469 94.683594 181.609375 94.570312 181.558594 C 94.464844 181.503906 94.375 181.417969 94.304688 181.292969 C 94.230469 181.175781 94.195312 181.0625 94.195312 180.949219 C 94.195312 180.832031 94.242188 180.746094 94.335938 180.683594 L 100.148438 176.949219 L 99.351562 176.933594 C 99.234375 176.914062 99.15625 176.867188 99.117188 176.792969 C 99.054688 176.710938 99.039062 176.617188 99.070312 176.511719 C 99.109375 176.398438 99.179688 176.308594 99.273438 176.246094 Z M 97.507812 181.5625 L 100.554688 179.609375 C 101.3125 179.121094 101.996094 178.96875 102.601562 179.15625 C 103.203125 179.335938 103.71875 179.757812 104.148438 180.421875 C 104.585938 181.089844 104.75 181.726562 104.648438 182.328125 C 104.554688 182.929688 104.265625 183.382812 103.789062 183.6875 C 103.539062 183.84375 103.324219 183.789062 103.148438 183.53125 C 102.960938 183.238281 102.980469 183.019531 103.210938 182.875 C 103.511719 182.675781 103.671875 182.390625 103.695312 182.015625 C 103.726562 181.640625 103.621094 181.265625 103.382812 180.890625 C 102.808594 179.996094 102.046875 179.855469 101.101562 180.46875 L 99.679688 181.375 C 100.304688 181.4375 100.824219 181.796875 101.242188 182.453125 C 102.117188 183.804688 101.875 184.914062 100.523438 185.78125 L 100.304688 185.921875 C 99.542969 186.410156 98.855469 186.570312 98.242188 186.40625 C 97.636719 186.238281 97.121094 185.828125 96.695312 185.171875 C 96.277344 184.515625 96.117188 183.867188 96.210938 183.234375 C 96.3125 182.609375 96.746094 182.054688 97.507812 181.5625 Z M 98.023438 182.453125 C 97.0625 183.054688 96.867188 183.800781 97.429688 184.6875 C 98 185.570312 98.765625 185.710938 99.726562 185.109375 L 99.929688 184.96875 C 100.84375 184.382812 101.015625 183.648438 100.445312 182.765625 C 99.882812 181.882812 99.171875 181.710938 98.320312 182.25 Z M 101.105469 189.332031 C 101.21875 189.261719 101.347656 189.234375 101.496094 189.253906 C 101.640625 189.265625 101.746094 189.3125 101.808594 189.394531 C 101.839844 189.449219 101.84375 189.550781 101.824219 189.707031 C 101.800781 189.851562 101.777344 190.003906 101.746094 190.160156 C 101.714844 190.316406 101.722656 190.523438 101.777344 190.785156 C 101.828125 191.054688 101.925781 191.332031 102.074219 191.613281 L 104.761719 189.878906 L 104.605469 189.207031 C 104.574219 189.050781 104.546875 188.839844 104.527344 188.566406 C 104.515625 188.285156 104.535156 188.0625 104.589844 187.894531 C 104.652344 187.71875 104.753906 187.527344 104.902344 187.316406 C 105.058594 187.097656 105.253906 186.910156 105.496094 186.753906 C 105.808594 186.558594 106.109375 186.441406 106.402344 186.410156 C 106.703125 186.371094 106.980469 186.402344 107.230469 186.503906 C 107.488281 186.609375 107.71875 186.738281 107.917969 186.894531 C 108.125 187.050781 108.324219 187.246094 108.511719 187.472656 L 108.808594 187.285156 C 108.859375 187.253906 108.921875 187.25 108.996094 187.269531 C 109.066406 187.28125 109.128906 187.328125 109.183594 187.410156 C 109.214844 187.472656 109.222656 187.550781 109.214844 187.644531 C 109.214844 187.730469 109.1875 187.785156 109.136719 187.816406 L 108.839844 188.003906 C 109.089844 188.410156 109.261719 188.816406 109.355469 189.222656 C 109.449219 189.621094 109.402344 189.878906 109.214844 190.003906 C 109.121094 190.066406 108.996094 190.097656 108.839844 190.097656 C 108.691406 190.105469 108.582031 190.054688 108.511719 189.941406 C 108.488281 189.910156 108.457031 189.730469 108.417969 189.410156 C 108.375 189.089844 108.269531 188.78125 108.105469 188.488281 L 105.777344 189.972656 C 105.871094 190.285156 105.921875 190.554688 105.933594 190.785156 C 105.953125 191.011719 105.949219 191.273438 105.917969 191.566406 C 105.886719 191.867188 105.777344 192.144531 105.589844 192.394531 C 105.402344 192.644531 105.140625 192.878906 104.808594 193.097656 C 104.222656 193.472656 103.65625 193.613281 103.105469 193.519531 C 102.550781 193.425781 102.0625 193.128906 101.636719 192.628906 L 101.277344 192.863281 C 101.222656 192.894531 101.15625 192.894531 101.074219 192.863281 C 100.988281 192.839844 100.933594 192.800781 100.902344 192.738281 C 100.847656 192.652344 100.828125 192.570312 100.839844 192.488281 C 100.859375 192.414062 100.894531 192.363281 100.949219 192.332031 L 101.292969 192.113281 C 100.917969 191.527344 100.730469 190.957031 100.730469 190.394531 C 100.738281 189.839844 100.863281 189.488281 101.105469 189.332031 Z M 106.089844 187.519531 C 105.777344 187.730469 105.597656 187.972656 105.558594 188.253906 C 105.527344 188.535156 105.558594 188.90625 105.652344 189.363281 L 107.777344 188.003906 C 107.222656 187.316406 106.660156 187.15625 106.089844 187.519531 Z M 102.417969 192.066406 C 102.949219 192.667969 103.546875 192.757812 104.214844 192.332031 C 104.566406 192.101562 104.785156 191.835938 104.871094 191.535156 C 104.953125 191.242188 104.957031 190.894531 104.886719 190.488281 Z M 112.027344 192.382812 C 112.097656 192.34375 112.183594 192.34375 112.277344 192.382812 C 112.371094 192.425781 112.441406 192.492188 112.496094 192.585938 C 112.558594 192.679688 112.589844 192.785156 112.589844 192.898438 C 112.597656 193.003906 112.566406 193.078125 112.496094 193.117188 L 110.964844 193.960938 C 110.890625 194.003906 110.8125 194.023438 110.730469 194.023438 C 110.644531 194.015625 110.578125 193.960938 110.527344 193.867188 C 110.410156 193.691406 110.441406 193.546875 110.621094 193.429688 Z M 112.902344 193.742188 C 112.972656 193.703125 113.058594 193.707031 113.152344 193.757812 C 113.246094 193.800781 113.324219 193.867188 113.386719 193.960938 C 113.449219 194.054688 113.480469 194.15625 113.480469 194.257812 C 113.480469 194.363281 113.441406 194.4375 113.371094 194.476562 L 111.839844 195.335938 C 111.765625 195.378906 111.6875 195.394531 111.605469 195.382812 C 111.519531 195.375 111.453125 195.328125 111.402344 195.242188 C 111.285156 195.066406 111.316406 194.921875 111.496094 194.804688 Z M 105.289062 200.496094 C 105.789062 200.183594 106.335938 200.21875 106.929688 200.605469 C 106.835938 200.1875 106.949219 199.875 107.273438 199.667969 C 107.574219 199.472656 107.929688 199.476562 108.335938 199.683594 C 108.398438 199.101562 108.703125 198.636719 109.257812 198.292969 L 109.585938 198.074219 C 110.074219 197.761719 110.574219 197.675781 111.085938 197.808594 C 111.605469 197.945312 112.039062 198.277344 112.382812 198.808594 C 112.671875 199.269531 112.796875 199.746094 112.757812 200.246094 C 113.320312 200.160156 113.683594 200.246094 113.851562 200.496094 C 113.921875 200.609375 113.949219 200.71875 113.929688 200.824219 C 113.90625 200.9375 113.855469 201.019531 113.773438 201.074219 C 113.667969 201.136719 113.554688 201.128906 113.429688 201.058594 C 113.21875 200.859375 112.964844 200.765625 112.664062 200.777344 C 112.539062 201.140625 112.28125 201.449219 111.898438 201.699219 L 111.570312 201.917969 C 111.070312 202.230469 110.554688 202.3125 110.023438 202.167969 C 109.492188 202.03125 109.054688 201.699219 108.710938 201.167969 C 108.542969 200.894531 108.4375 200.609375 108.398438 200.308594 C 108.179688 200.214844 108 200.207031 107.867188 200.292969 C 107.742188 200.375 107.695312 200.515625 107.726562 200.714844 C 107.765625 200.910156 107.851562 201.128906 107.976562 201.371094 C 108.109375 201.609375 108.234375 201.875 108.351562 202.167969 C 108.476562 202.46875 108.574219 202.761719 108.648438 203.042969 C 108.71875 203.324219 108.710938 203.597656 108.617188 203.871094 C 108.53125 204.152344 108.34375 204.386719 108.054688 204.574219 C 107.585938 204.875 107.101562 204.917969 106.601562 204.699219 C 106.101562 204.480469 105.660156 204.066406 105.273438 203.464844 C 104.890625 202.859375 104.691406 202.28125 104.679688 201.730469 C 104.671875 201.175781 104.875 200.765625 105.289062 200.496094 Z M 105.898438 201.246094 C 105.640625 201.410156 105.507812 201.660156 105.507812 201.996094 C 105.5 202.328125 105.617188 202.6875 105.867188 203.074219 C 106.105469 203.449219 106.375 203.699219 106.679688 203.824219 C 106.980469 203.949219 107.261719 203.925781 107.523438 203.761719 C 107.625 203.699219 107.703125 203.621094 107.757812 203.527344 C 107.820312 203.441406 107.851562 203.339844 107.851562 203.214844 C 107.851562 203.097656 107.839844 202.988281 107.820312 202.886719 C 107.808594 202.78125 107.773438 202.65625 107.710938 202.511719 C 107.65625 202.363281 107.609375 202.246094 107.570312 202.152344 C 107.527344 202.066406 107.464844 201.953125 107.382812 201.808594 C 107.308594 201.660156 107.261719 201.558594 107.242188 201.496094 C 106.71875 201.089844 106.273438 201.003906 105.898438 201.246094 Z M 109.773438 199.121094 C 109.4375 199.332031 109.226562 199.585938 109.132812 199.886719 C 109.046875 200.1875 109.105469 200.5 109.304688 200.824219 C 109.5 201.113281 109.757812 201.285156 110.070312 201.339844 C 110.390625 201.390625 110.71875 201.3125 111.054688 201.105469 L 111.382812 200.886719 C 111.683594 200.6875 111.882812 200.425781 111.976562 200.105469 C 112.070312 199.792969 112.015625 199.488281 111.820312 199.183594 C 111.621094 198.871094 111.359375 198.699219 111.039062 198.667969 C 110.726562 198.628906 110.414062 198.707031 110.101562 198.902344 Z M 109.734375 204.6875 L 113.9375 201.984375 C 114.019531 201.933594 114.113281 201.929688 114.21875 201.96875 C 114.320312 202.011719 114.414062 202.09375 114.5 202.21875 C 114.5625 202.324219 114.585938 202.433594 114.578125 202.546875 C 114.578125 202.652344 114.535156 202.730469 114.453125 202.78125 L 113.96875 203.09375 C 114.28125 203.074219 114.59375 203.132812 114.90625 203.265625 C 115.21875 203.390625 115.46875 203.601562 115.65625 203.890625 L 115.875 204.234375 C 115.925781 204.316406 115.929688 204.410156 115.890625 204.515625 C 115.859375 204.628906 115.789062 204.71875 115.6875 204.78125 C 115.59375 204.851562 115.488281 204.878906 115.375 204.859375 C 115.257812 204.847656 115.175781 204.800781 115.125 204.71875 L 114.90625 204.375 C 114.675781 204.03125 114.34375 203.824219 113.90625 203.75 C 113.46875 203.667969 113.03125 203.765625 112.59375 204.046875 L 110.28125 205.53125 C 110.21875 205.570312 110.125 205.570312 110 205.53125 C 109.882812 205.488281 109.789062 205.410156 109.71875 205.296875 C 109.644531 205.179688 109.609375 205.0625 109.609375 204.9375 C 109.617188 204.8125 109.660156 204.726562 109.734375 204.6875 Z M 113.433594 206.960938 L 114.496094 206.289062 C 115.015625 205.945312 115.589844 205.851562 116.214844 206.007812 C 116.839844 206.164062 117.328125 206.519531 117.683594 207.070312 C 118.027344 207.59375 118.140625 208.152344 118.027344 208.757812 C 117.921875 209.371094 117.605469 209.851562 117.074219 210.195312 C 116.875 210.320312 116.703125 210.398438 116.558594 210.429688 C 116.410156 210.460938 116.285156 210.445312 116.183594 210.382812 C 116.078125 210.320312 115.988281 210.246094 115.917969 210.164062 C 115.84375 210.089844 115.761719 209.976562 115.667969 209.820312 L 114.246094 207.617188 L 113.949219 207.820312 C 113.5625 208.058594 113.34375 208.382812 113.292969 208.789062 C 113.25 209.195312 113.363281 209.609375 113.636719 210.039062 C 113.78125 210.265625 113.9375 210.4375 114.105469 210.554688 C 114.28125 210.679688 114.4375 210.765625 114.574219 210.820312 C 114.707031 210.882812 114.792969 210.945312 114.824219 211.007812 C 114.886719 211.101562 114.894531 211.210938 114.855469 211.335938 C 114.8125 211.460938 114.746094 211.546875 114.652344 211.601562 C 114.503906 211.695312 114.25 211.636719 113.886719 211.429688 C 113.53125 211.230469 113.207031 210.90625 112.917969 210.460938 C 112.5 209.804688 112.332031 209.148438 112.417969 208.492188 C 112.511719 207.84375 112.847656 207.335938 113.433594 206.960938 Z M 114.808594 207.257812 L 116.011719 209.117188 C 116.125 209.292969 116.222656 209.398438 116.308594 209.429688 C 116.390625 209.46875 116.488281 209.449219 116.605469 209.367188 C 116.917969 209.167969 117.113281 208.882812 117.199219 208.507812 C 117.292969 208.140625 117.234375 207.804688 117.027344 207.492188 C 116.816406 207.171875 116.53125 206.960938 116.167969 206.867188 C 115.8125 206.773438 115.480469 206.832031 115.167969 207.039062 Z M 118.824219 209.71875 C 118.9375 209.65625 119.074219 209.664062 119.230469 209.734375 C 119.386719 209.796875 119.503906 209.890625 119.589844 210.015625 C 119.671875 210.152344 119.671875 210.277344 119.589844 210.390625 L 116.917969 213.984375 L 121.230469 212.921875 C 121.363281 212.898438 121.46875 212.953125 121.542969 213.078125 C 121.613281 213.191406 121.652344 213.335938 121.652344 213.515625 C 121.660156 213.691406 121.609375 213.816406 121.496094 213.890625 C 121.453125 213.910156 121.410156 213.921875 121.371094 213.921875 L 116.277344 215.03125 L 115.636719 215.171875 C 115.53125 215.179688 115.328125 215.207031 115.027344 215.25 C 114.734375 215.300781 114.515625 215.328125 114.371094 215.328125 C 114.226562 215.328125 114.035156 215.316406 113.792969 215.296875 C 113.554688 215.285156 113.363281 215.25 113.214844 215.1875 C 113.070312 215.125 112.914062 215.03125 112.746094 214.90625 C 112.582031 214.78125 112.445312 214.632812 112.339844 214.46875 C 112.164062 214.195312 112.199219 213.976562 112.449219 213.8125 C 112.691406 213.664062 112.863281 213.675781 112.964844 213.84375 C 113.164062 214.144531 113.527344 214.328125 114.058594 214.390625 C 114.578125 214.460938 115.136719 214.378906 115.730469 214.140625 L 118.730469 209.828125 C 118.761719 209.789062 118.792969 209.75 118.824219 209.71875 Z M 119.128906 219.304688 L 126.207031 214.757812 C 126.289062 214.695312 126.382812 214.6875 126.488281 214.726562 C 126.601562 214.769531 126.695312 214.851562 126.769531 214.976562 C 126.839844 215.09375 126.871094 215.210938 126.863281 215.335938 C 126.863281 215.453125 126.820312 215.539062 126.738281 215.601562 L 123.441406 217.726562 C 123.742188 217.695312 124.039062 217.75 124.332031 217.882812 C 124.621094 218.019531 124.863281 218.238281 125.050781 218.539062 C 125.371094 219.027344 125.457031 219.574219 125.300781 220.179688 C 125.152344 220.78125 124.816406 221.257812 124.285156 221.601562 L 123.253906 222.257812 C 122.742188 222.589844 122.175781 222.699219 121.550781 222.585938 C 120.925781 222.480469 120.460938 222.195312 120.160156 221.726562 C 119.960938 221.421875 119.855469 221.09375 119.847656 220.742188 C 119.835938 220.386719 119.902344 220.085938 120.050781 219.835938 L 119.644531 220.101562 C 119.570312 220.140625 119.476562 220.140625 119.363281 220.101562 C 119.246094 220.070312 119.160156 220.007812 119.097656 219.914062 C 119.023438 219.796875 118.992188 219.679688 119.003906 219.554688 C 119.011719 219.429688 119.054688 219.34375 119.128906 219.304688 Z M 120.972656 219.304688 C 120.804688 219.40625 120.683594 219.648438 120.613281 220.023438 C 120.539062 220.40625 120.589844 220.746094 120.769531 221.039062 C 120.964844 221.339844 121.261719 221.527344 121.660156 221.601562 C 122.054688 221.671875 122.402344 221.609375 122.707031 221.414062 L 123.738281 220.757812 C 124.039062 220.558594 124.238281 220.265625 124.332031 219.882812 C 124.433594 219.496094 124.386719 219.152344 124.191406 218.851562 C 124.003906 218.539062 123.722656 218.34375 123.347656 218.257812 C 122.980469 218.175781 122.621094 218.25 122.269531 218.476562 Z M 122.375 224.371094 L 129.453125 219.824219 C 129.535156 219.761719 129.628906 219.753906 129.734375 219.792969 C 129.847656 219.835938 129.941406 219.917969 130.015625 220.042969 C 130.097656 220.160156 130.132812 220.277344 130.125 220.402344 C 130.125 220.519531 130.082031 220.605469 130 220.667969 L 122.921875 225.214844 C 122.859375 225.253906 122.765625 225.253906 122.640625 225.214844 C 122.515625 225.171875 122.414062 225.09375 122.34375 224.980469 C 122.269531 224.863281 122.238281 224.746094 122.25 224.621094 C 122.257812 224.496094 122.300781 224.410156 122.375 224.371094 Z M 124.515625 225.570312 C 125.035156 225.238281 125.53125 225.207031 126 225.476562 C 126.46875 225.738281 126.945312 226.246094 127.4375 227.007812 L 127.75 227.492188 L 127.953125 227.367188 C 128.285156 227.148438 128.515625 226.867188 128.640625 226.523438 C 128.773438 226.179688 128.722656 225.828125 128.484375 225.460938 C 128.296875 225.171875 128.085938 224.953125 127.859375 224.804688 C 127.628906 224.648438 127.507812 224.5625 127.5 224.539062 C 127.4375 224.445312 127.429688 224.34375 127.484375 224.226562 C 127.535156 224.113281 127.613281 224.023438 127.71875 223.960938 C 127.875 223.859375 128.109375 223.925781 128.421875 224.164062 C 128.734375 224.394531 129 224.675781 129.21875 225.007812 C 129.632812 225.675781 129.753906 226.28125 129.578125 226.835938 C 129.410156 227.386719 129.050781 227.839844 128.5 228.195312 L 125.90625 229.867188 C 125.820312 229.917969 125.722656 229.921875 125.609375 229.882812 C 125.503906 229.839844 125.414062 229.757812 125.34375 229.632812 C 125.269531 229.527344 125.238281 229.417969 125.25 229.304688 C 125.257812 229.199219 125.304688 229.121094 125.390625 229.070312 L 125.796875 228.804688 C 124.984375 228.679688 124.398438 228.335938 124.046875 227.773438 C 123.785156 227.367188 123.6875 226.964844 123.75 226.570312 C 123.820312 226.183594 124.078125 225.851562 124.515625 225.570312 Z M 125.140625 226.335938 C 124.878906 226.5 124.734375 226.695312 124.703125 226.914062 C 124.671875 227.140625 124.726562 227.375 124.875 227.617188 C 125.0625 227.898438 125.351562 228.09375 125.75 228.210938 C 126.15625 228.335938 126.472656 228.320312 126.703125 228.164062 L 127.234375 227.820312 L 127 227.476562 C 126.875 227.277344 126.757812 227.109375 126.65625 226.976562 C 126.550781 226.851562 126.4375 226.71875 126.3125 226.585938 C 126.1875 226.460938 126.0625 226.367188 125.9375 226.304688 C 125.820312 226.242188 125.691406 226.210938 125.546875 226.210938 C 125.410156 226.210938 125.273438 226.25 125.140625 226.335938 Z M 128.109375 229.828125 L 129.125 229.171875 C 129.707031 228.796875 130.285156 228.667969 130.859375 228.78125 C 131.441406 228.898438 131.945312 229.28125 132.375 229.9375 C 132.644531 230.355469 132.796875 230.75 132.828125 231.125 C 132.867188 231.507812 132.804688 231.753906 132.640625 231.859375 C 132.546875 231.921875 132.425781 231.945312 132.28125 231.9375 C 132.144531 231.925781 132.046875 231.875 131.984375 231.78125 C 131.972656 231.757812 131.957031 231.601562 131.9375 231.3125 C 131.925781 231.03125 131.835938 230.753906 131.671875 230.484375 C 131.410156 230.078125 131.101562 229.839844 130.75 229.765625 C 130.40625 229.695312 130.046875 229.777344 129.671875 230.015625 L 128.65625 230.671875 C 127.851562 231.179688 127.71875 231.847656 128.25 232.671875 C 128.425781 232.960938 128.640625 233.171875 128.890625 233.296875 C 129.148438 233.421875 129.289062 233.503906 129.3125 233.546875 C 129.382812 233.648438 129.398438 233.765625 129.359375 233.890625 C 129.328125 234.023438 129.257812 234.125 129.15625 234.1875 C 128.988281 234.289062 128.734375 234.242188 128.390625 234.046875 C 128.046875 233.847656 127.734375 233.535156 127.453125 233.109375 C 127.023438 232.441406 126.878906 231.820312 127.015625 231.25 C 127.160156 230.675781 127.523438 230.203125 128.109375 229.828125 Z M 129.359375 235.242188 L 136.4375 230.695312 C 136.519531 230.632812 136.613281 230.625 136.71875 230.664062 C 136.832031 230.707031 136.925781 230.789062 137 230.914062 C 137.070312 231.03125 137.101562 231.148438 137.09375 231.273438 C 137.09375 231.390625 137.050781 231.476562 136.96875 231.539062 L 132.25 234.570312 L 135.8125 235.523438 C 135.90625 235.554688 135.972656 235.601562 136.015625 235.664062 C 136.066406 235.757812 136.082031 235.875 136.0625 236.023438 C 136.039062 236.179688 135.984375 236.28125 135.890625 236.335938 C 135.796875 236.398438 135.703125 236.414062 135.609375 236.382812 L 133.46875 235.773438 L 132.109375 239.007812 C 132.085938 239.078125 132.050781 239.132812 132 239.164062 C 131.90625 239.226562 131.773438 239.234375 131.609375 239.195312 C 131.453125 239.152344 131.335938 239.074219 131.265625 238.960938 C 131.210938 238.875 131.210938 238.773438 131.265625 238.648438 L 132.59375 235.539062 L 131.296875 235.179688 L 129.890625 236.085938 C 129.828125 236.125 129.734375 236.125 129.609375 236.085938 C 129.492188 236.042969 129.398438 235.964844 129.328125 235.851562 C 129.253906 235.734375 129.222656 235.617188 129.234375 235.492188 C 129.242188 235.367188 129.285156 235.28125 129.359375 235.242188 Z M 139.433594 235.066406 C 139.503906 235.027344 139.589844 235.027344 139.683594 235.066406 C 139.777344 235.109375 139.847656 235.175781 139.902344 235.269531 C 139.964844 235.363281 139.996094 235.46875 139.996094 235.582031 C 140.003906 235.6875 139.972656 235.761719 139.902344 235.800781 L 138.371094 236.644531 C 138.296875 236.6875 138.21875 236.707031 138.136719 236.707031 C 138.050781 236.699219 137.984375 236.644531 137.933594 236.550781 C 137.816406 236.375 137.847656 236.230469 138.027344 236.113281 Z M 140.308594 236.425781 C 140.378906 236.386719 140.464844 236.390625 140.558594 236.441406 C 140.652344 236.484375 140.730469 236.550781 140.792969 236.644531 C 140.855469 236.738281 140.886719 236.839844 140.886719 236.941406 C 140.886719 237.046875 140.847656 237.121094 140.777344 237.160156 L 139.246094 238.019531 C 139.171875 238.0625 139.09375 238.078125 139.011719 238.066406 C 138.925781 238.058594 138.859375 238.011719 138.808594 237.925781 C 138.691406 237.75 138.722656 237.605469 138.902344 237.488281 Z M 133.507812 242.351562 "/>
</g>
</svg>
