<?xml version="1.0" encoding="UTF-8"?>
<svg xmlns="http://www.w3.org/2000/svg" xmlns:xlink="http://www.w3.org/1999/xlink" width="384pt" height="288pt" viewBox="0 0 384 288" version="1.1">
<g id="surface157">
<path style=" stroke:none;fill-rule:nonzero;fill:rgb(0%,0%,0%);fill-opacity:1;" d="M 0 0 L 284 0 L 284 288 L 0 288 Z M 0 0 "/>
<path style=" stroke:none;fill-rule:nonzero;fill:rgb(50.196078%,50.196078%,50.196078%);fill-opacity:1;" d="M 0 0 L 35.5 0 L 35.5 288 L 0 288 Z M 0 0 "/>
<path style=" stroke:none;fill-rule:nonzero;fill:rgb(0%,0%,0%);fill-opacity:1;" d="M 35.5 0 L 71 0 L 71 288 L 35.5 288 Z M 35.5 0 "/>
<path style=" stroke:none;fill-rule:nonzero;fill:rgb(50.196078%,50.196078%,50.196078%);fill-opacity:1;" d="M 71 0 L 106.5 0 L 106.5 288 L 71 288 Z M 71 0 "/>
<path style=" stroke:none;fill-rule:nonzero;fill:rgb(0%,0%,0%);fill-opacity:1;" d="M 106.5 0 L 142 0 L 142 288 L 106.5 288 Z M 106.5 0 "/>
<path style=" stroke:none;fill-rule:nonzero;fill:rgb(50.196078%,50.196078%,50.196078%);fill-opacity:1;" d="M 142 0 L 177.5 0 L 177.5 288 L 142 288 Z M 142 0 "/>
<path style=" stroke:none;fill-rule:nonzero;fill:rgb(0%,0%,0%);fill-opacity:1;" d="M 177.5 0 L 213 0 L 213 288 L 177.5 288 Z M 177.5 0 "/>
<path style=" stroke:none;fill-rule:nonzero;fill:rgb(50.196078%,50.196078%,50.196078%);fill-opacity:1;" d="M 213 0 L 248.5 0 L 248.5 288 L 213 288 Z M 213 0 "/>
<path style=" stroke:none;fill-rule:nonzero;fill:rgb(0%,0%,0%);fill-opacity:1;" d="M 248.5 0 L 284 0 L 284 288 L 248.5 288 Z M 248.5 0 "/>
<path style=" stroke:none;fill-rule:nonzero;fill:rgb(0%,0%,0%);fill-opacity:1;" d="M 300.34375 50.71875 L 306.875 50.71875 C 307.5 50.71875 308.03125 50.925781 308.46875 51.34375 C 308.90625 51.769531 309.125 52.269531 309.125 52.84375 L 309.125 53.265625 C 309.125 53.390625 309.078125 53.488281 308.984375 53.5625 C 308.898438 53.632812 308.796875 53.671875 308.671875 53.671875 C 308.554688 53.671875 308.457031 53.632812 308.375 53.5625 C 308.289062 53.488281 308.25 53.390625 308.25 53.265625 L 308.25 53.015625 C 308.25 52.640625 308.125 52.332031 307.875 52.09375 C 307.625 51.851562 307.316406 51.726562 306.953125 51.71875 L 305.6875 51.71875 L 305.6875 53.359375 C 305.6875 53.453125 305.644531 53.523438 305.5625 53.578125 C 305.488281 53.640625 305.398438 53.671875 305.296875 53.671875 C 305.191406 53.671875 305.097656 53.640625 305.015625 53.578125 C 304.941406 53.523438 304.90625 53.453125 304.90625 53.359375 L 304.90625 51.71875 L 300.34375 51.71875 C 300.25 51.71875 300.164062 51.664062 300.09375 51.5625 C 300.03125 51.46875 300 51.347656 300 51.203125 C 300 51.066406 300.03125 50.953125 300.09375 50.859375 C 300.15625 50.765625 300.238281 50.71875 300.34375 50.71875 Z M 302.234375 54.265625 L 303.453125 54.265625 C 304.066406 54.265625 304.601562 54.5 305.0625 54.96875 C 305.53125 55.4375 305.765625 55.988281 305.765625 56.625 C 305.765625 57.269531 305.535156 57.828125 305.078125 58.296875 C 304.617188 58.773438 304.078125 59.015625 303.453125 59.015625 L 302.234375 59.015625 C 301.617188 59.015625 301.078125 58.773438 300.609375 58.296875 C 300.140625 57.816406 299.90625 57.257812 299.90625 56.625 C 299.90625 56 300.140625 55.445312 300.609375 54.96875 C 301.078125 54.5 301.617188 54.265625 302.234375 54.265625 Z M 302.234375 55.265625 C 301.859375 55.265625 301.523438 55.398438 301.234375 55.671875 C 300.941406 55.941406 300.796875 56.265625 300.796875 56.640625 C 300.796875 57.015625 300.941406 57.335938 301.234375 57.609375 C 301.535156 57.878906 301.867188 58.015625 302.234375 58.015625 L 303.453125 58.015625 C 303.816406 58.015625 304.140625 57.878906 304.421875 57.609375 C 304.710938 57.335938 304.859375 57.015625 304.859375 56.640625 C 304.859375 56.265625 304.710938 55.941406 304.421875 55.671875 C 304.140625 55.398438 303.816406 55.265625 303.453125 55.265625 Z M 300.359375 60.316406 L 308.765625 60.316406 C 308.867188 60.316406 308.953125 60.363281 309.015625 60.457031 C 309.085938 60.550781 309.125 60.667969 309.125 60.816406 C 309.125 60.960938 309.085938 61.082031 309.015625 61.175781 C 308.953125 61.269531 308.867188 61.316406 308.765625 61.316406 L 300.359375 61.316406 C 300.273438 61.316406 300.191406 61.261719 300.109375 61.160156 C 300.035156 61.066406 300 60.949219 300 60.816406 C 300 60.679688 300.035156 60.558594 300.109375 60.457031 C 300.179688 60.363281 300.265625 60.316406 300.359375 60.316406 Z M 302.234375 62.617188 L 303.453125 62.617188 C 304.085938 62.617188 304.628906 62.828125 305.078125 63.257812 C 305.535156 63.683594 305.765625 64.1875 305.765625 64.773438 C 305.765625 65.136719 305.675781 65.453125 305.5 65.726562 C 305.320312 65.996094 305.101562 66.203125 304.84375 66.351562 L 308.765625 66.351562 C 308.867188 66.351562 308.953125 66.398438 309.015625 66.492188 C 309.085938 66.585938 309.125 66.703125 309.125 66.851562 C 309.125 66.996094 309.085938 67.109375 309.015625 67.195312 C 308.953125 67.289062 308.867188 67.335938 308.765625 67.335938 L 300.359375 67.335938 C 300.265625 67.335938 300.179688 67.289062 300.109375 67.195312 C 300.035156 67.101562 300 66.984375 300 66.851562 C 300 66.726562 300.035156 66.617188 300.109375 66.523438 C 300.179688 66.4375 300.265625 66.398438 300.359375 66.398438 L 300.84375 66.398438 C 300.582031 66.261719 300.359375 66.039062 300.171875 65.726562 C 299.996094 65.421875 299.90625 65.09375 299.90625 64.742188 C 299.90625 64.179688 300.140625 63.683594 300.609375 63.257812 C 301.078125 62.828125 301.617188 62.617188 302.234375 62.617188 Z M 302.234375 63.617188 C 301.867188 63.617188 301.535156 63.75 301.234375 64.023438 C 300.941406 64.292969 300.796875 64.609375 300.796875 64.976562 C 300.796875 65.328125 300.929688 65.648438 301.203125 65.929688 C 301.472656 66.210938 301.707031 66.351562 301.90625 66.351562 L 303.453125 66.351562 C 303.867188 66.351562 304.207031 66.210938 304.46875 65.929688 C 304.726562 65.65625 304.859375 65.34375 304.859375 64.992188 C 304.859375 64.617188 304.710938 64.292969 304.421875 64.023438 C 304.140625 63.75 303.816406 63.617188 303.453125 63.617188 Z M 300.359375 68.917969 L 308.40625 68.917969 C 308.519531 68.917969 308.609375 68.957031 308.671875 69.042969 C 308.734375 69.136719 308.765625 69.246094 308.765625 69.371094 L 308.765625 73.636719 C 308.765625 73.75 308.722656 73.832031 308.640625 73.886719 C 308.554688 73.949219 308.453125 73.980469 308.328125 73.980469 C 308.203125 73.980469 308.09375 73.949219 308 73.886719 C 307.90625 73.824219 307.859375 73.738281 307.859375 73.636719 L 307.859375 69.917969 L 304.8125 69.917969 L 304.8125 71.792969 C 304.8125 71.894531 304.769531 71.980469 304.6875 72.042969 C 304.601562 72.105469 304.5 72.136719 304.375 72.136719 C 304.269531 72.136719 304.175781 72.105469 304.09375 72.042969 C 304.007812 71.988281 303.96875 71.90625 303.96875 71.792969 L 303.96875 69.917969 L 300.90625 69.917969 L 300.90625 73.636719 C 300.90625 73.738281 300.859375 73.824219 300.765625 73.886719 C 300.679688 73.949219 300.570312 73.980469 300.4375 73.980469 C 300.320312 73.980469 300.21875 73.949219 300.125 73.886719 C 300.039062 73.832031 300 73.75 300 73.636719 L 300 69.371094 C 300 69.246094 300.03125 69.136719 300.09375 69.042969 C 300.15625 68.957031 300.242188 68.917969 300.359375 68.917969 Z M 305.28125 74.367188 C 305.394531 74.367188 305.492188 74.433594 305.578125 74.570312 C 305.671875 74.714844 305.71875 74.859375 305.71875 75.007812 C 305.71875 75.171875 305.648438 75.28125 305.515625 75.335938 L 301.4375 76.851562 L 305.46875 78.351562 C 305.632812 78.414062 305.71875 78.523438 305.71875 78.679688 C 305.71875 78.804688 305.671875 78.9375 305.578125 79.085938 C 305.492188 79.242188 305.394531 79.320312 305.28125 79.320312 C 305.21875 79.320312 305.15625 79.304688 305.09375 79.273438 L 300.109375 77.304688 C 299.964844 77.242188 299.890625 77.089844 299.890625 76.851562 C 299.890625 76.601562 299.964844 76.445312 300.109375 76.382812 L 305.09375 74.414062 C 305.1875 74.382812 305.25 74.367188 305.28125 74.367188 Z M 302.234375 79.957031 L 303.484375 79.957031 C 304.109375 79.957031 304.644531 80.191406 305.09375 80.660156 C 305.539062 81.128906 305.765625 81.691406 305.765625 82.347656 C 305.765625 82.972656 305.550781 83.511719 305.125 83.972656 C 304.707031 84.429688 304.179688 84.660156 303.546875 84.660156 C 303.316406 84.660156 303.128906 84.628906 302.984375 84.566406 C 302.847656 84.511719 302.75 84.429688 302.6875 84.316406 C 302.632812 84.199219 302.597656 84.089844 302.578125 83.988281 C 302.566406 83.894531 302.5625 83.757812 302.5625 83.582031 L 302.5625 80.957031 L 302.203125 80.957031 C 301.753906 80.957031 301.398438 81.113281 301.140625 81.425781 C 300.878906 81.746094 300.75 82.160156 300.75 82.660156 C 300.75 82.929688 300.785156 83.160156 300.859375 83.347656 C 300.941406 83.542969 301.019531 83.699219 301.09375 83.816406 C 301.175781 83.941406 301.21875 84.039062 301.21875 84.113281 C 301.21875 84.226562 301.164062 84.320312 301.0625 84.394531 C 300.957031 84.476562 300.851562 84.519531 300.75 84.519531 C 300.570312 84.519531 300.382812 84.335938 300.1875 83.972656 C 300 83.605469 299.90625 83.160156 299.90625 82.628906 C 299.90625 81.847656 300.117188 81.207031 300.546875 80.707031 C 300.972656 80.207031 301.535156 79.957031 302.234375 79.957031 Z M 303.234375 80.957031 L 303.234375 83.175781 C 303.234375 83.382812 303.257812 83.523438 303.3125 83.597656 C 303.363281 83.667969 303.460938 83.707031 303.609375 83.707031 C 303.972656 83.707031 304.289062 83.570312 304.5625 83.300781 C 304.832031 83.039062 304.96875 82.722656 304.96875 82.347656 C 304.96875 81.960938 304.84375 81.632812 304.59375 81.363281 C 304.34375 81.089844 304.03125 80.957031 303.65625 80.957031 Z M 300.359375 85.753906 L 305.34375 85.753906 C 305.445312 85.753906 305.53125 85.800781 305.59375 85.894531 C 305.65625 85.988281 305.6875 86.105469 305.6875 86.253906 C 305.6875 86.378906 305.65625 86.480469 305.59375 86.566406 C 305.53125 86.660156 305.445312 86.707031 305.34375 86.707031 L 304.78125 86.707031 C 305.050781 86.851562 305.28125 87.066406 305.46875 87.347656 C 305.664062 87.628906 305.765625 87.941406 305.765625 88.285156 L 305.765625 88.691406 C 305.765625 88.792969 305.71875 88.882812 305.625 88.957031 C 305.53125 89.027344 305.421875 89.066406 305.296875 89.066406 C 305.179688 89.066406 305.078125 89.027344 304.984375 88.957031 C 304.898438 88.882812 304.859375 88.792969 304.859375 88.691406 L 304.859375 88.285156 C 304.859375 87.867188 304.691406 87.507812 304.359375 87.207031 C 304.035156 86.902344 303.613281 86.753906 303.09375 86.753906 L 300.359375 86.753906 C 300.273438 86.753906 300.191406 86.699219 300.109375 86.597656 C 300.035156 86.503906 300 86.386719 300 86.253906 C 300 86.117188 300.035156 85.996094 300.109375 85.894531 C 300.179688 85.800781 300.265625 85.753906 300.359375 85.753906 Z M 305.28125 89.320312 C 305.40625 89.320312 305.515625 89.390625 305.609375 89.539062 C 305.710938 89.683594 305.765625 89.828125 305.765625 89.976562 C 305.765625 90.140625 305.695312 90.246094 305.5625 90.289062 L 301.375 91.882812 L 305.5625 93.304688 C 305.695312 93.367188 305.765625 93.46875 305.765625 93.617188 C 305.765625 93.75 305.710938 93.890625 305.609375 94.039062 C 305.515625 94.195312 305.398438 94.273438 305.265625 94.273438 C 305.222656 94.273438 305.179688 94.257812 305.140625 94.226562 L 300.265625 92.414062 L 299.65625 92.179688 C 299.554688 92.136719 299.367188 92.054688 299.09375 91.929688 C 298.824219 91.8125 298.625 91.714844 298.5 91.632812 C 298.375 91.558594 298.21875 91.449219 298.03125 91.304688 C 297.835938 91.15625 297.695312 91.015625 297.609375 90.882812 C 297.515625 90.746094 297.433594 90.585938 297.359375 90.398438 C 297.289062 90.210938 297.25 90.011719 297.25 89.804688 C 297.25 89.492188 297.402344 89.335938 297.703125 89.335938 C 297.984375 89.335938 298.125 89.429688 298.125 89.617188 C 298.125 89.980469 298.328125 90.328125 298.734375 90.664062 C 299.140625 91.007812 299.65625 91.242188 300.28125 91.367188 L 305.140625 89.367188 C 305.191406 89.335938 305.238281 89.320312 305.28125 89.320312 Z M 300.09375 97.605469 L 308.875 97.605469 C 308.976562 97.605469 309.0625 97.652344 309.125 97.746094 C 309.1875 97.839844 309.21875 97.941406 309.21875 98.058594 L 309.21875 100.027344 C 309.21875 100.128906 309.171875 100.214844 309.078125 100.277344 C 308.992188 100.339844 308.890625 100.371094 308.765625 100.371094 C 308.640625 100.371094 308.53125 100.339844 308.4375 100.277344 C 308.351562 100.214844 308.3125 100.128906 308.3125 100.027344 L 308.3125 98.605469 L 300.640625 98.605469 L 300.640625 100.027344 C 300.640625 100.128906 300.597656 100.214844 300.515625 100.277344 C 300.429688 100.339844 300.320312 100.371094 300.1875 100.371094 C 300.070312 100.371094 299.976562 100.339844 299.890625 100.277344 C 299.796875 100.214844 299.75 100.128906 299.75 100.027344 L 299.75 98.058594 C 299.75 97.941406 299.78125 97.839844 299.84375 97.746094 C 299.90625 97.652344 299.992188 97.605469 300.09375 97.605469 Z M 301.96875 100.90625 C 302.15625 100.90625 302.28125 100.9375 302.34375 101 C 302.40625 101.070312 302.4375 101.195312 302.4375 101.375 C 302.4375 101.5625 302.40625 101.691406 302.34375 101.765625 C 302.28125 101.847656 302.179688 101.890625 302.046875 101.890625 C 301.734375 101.890625 301.453125 102.019531 301.203125 102.28125 C 300.960938 102.539062 300.84375 102.9375 300.84375 103.46875 C 300.84375 104.53125 301.394531 105.0625 302.5 105.0625 L 302.71875 105.0625 C 303.695312 105.0625 304.1875 104.53125 304.1875 103.46875 C 304.1875 103.226562 304.328125 103.109375 304.609375 103.109375 C 304.890625 103.109375 305.03125 103.226562 305.03125 103.46875 C 305.03125 103.925781 305.132812 104.269531 305.34375 104.5 C 305.550781 104.738281 305.925781 104.859375 306.46875 104.859375 C 307.40625 104.859375 307.875 104.410156 307.875 103.515625 C 307.875 102.992188 307.757812 102.628906 307.53125 102.421875 C 307.300781 102.210938 307.03125 102.109375 306.71875 102.109375 C 306.425781 102.109375 306.28125 101.945312 306.28125 101.625 C 306.28125 101.40625 306.3125 101.257812 306.375 101.1875 C 306.445312 101.125 306.582031 101.09375 306.78125 101.09375 C 306.988281 101.09375 307.195312 101.128906 307.40625 101.203125 C 307.625 101.285156 307.835938 101.410156 308.046875 101.578125 C 308.253906 101.742188 308.425781 101.992188 308.5625 102.328125 C 308.695312 102.671875 308.765625 103.070312 308.765625 103.53125 C 308.765625 105.0625 308.054688 105.828125 306.640625 105.828125 C 306.140625 105.828125 305.710938 105.738281 305.359375 105.5625 C 305.015625 105.382812 304.769531 105.148438 304.625 104.859375 C 304.300781 105.671875 303.664062 106.078125 302.71875 106.078125 L 302.5 106.078125 C 301.613281 106.078125 300.960938 105.835938 300.546875 105.359375 C 300.128906 104.878906 299.921875 104.25 299.921875 103.46875 C 299.921875 102.632812 300.128906 102 300.546875 101.5625 C 300.972656 101.125 301.445312 100.90625 301.96875 100.90625 Z M 300.546875 106.992188 C 300.722656 106.992188 300.875 107.046875 301 107.164062 C 301.125 107.277344 301.1875 107.421875 301.1875 107.601562 C 301.1875 107.765625 301.125 107.914062 301 108.039062 C 300.882812 108.164062 300.734375 108.226562 300.546875 108.226562 C 300.410156 108.226562 299.929688 108.054688 299.09375 107.710938 C 298.992188 107.65625 298.9375 107.570312 298.9375 107.445312 C 298.9375 107.351562 298.964844 107.265625 299.015625 107.195312 C 299.070312 107.132812 299.136719 107.101562 299.21875 107.101562 C 299.273438 107.101562 299.320312 107.105469 299.359375 107.117188 L 299.96875 107.367188 C 300.070312 107.117188 300.265625 106.992188 300.546875 106.992188 Z M 302 108.964844 C 302.320312 108.964844 302.484375 109.128906 302.484375 109.464844 C 302.484375 109.808594 302.347656 109.980469 302.078125 109.980469 C 301.691406 109.980469 301.390625 110.125 301.171875 110.417969 C 300.953125 110.71875 300.84375 111.09375 300.84375 111.542969 C 300.84375 112.050781 300.984375 112.441406 301.265625 112.714844 C 301.546875 112.996094 301.960938 113.136719 302.515625 113.136719 L 302.75 113.136719 C 303.289062 113.136719 303.695312 112.996094 303.96875 112.714844 C 304.25 112.441406 304.390625 112.058594 304.390625 111.558594 L 304.390625 109.855469 C 304.390625 109.542969 304.519531 109.386719 304.78125 109.386719 C 304.863281 109.386719 304.953125 109.394531 305.046875 109.417969 L 308.40625 109.667969 C 308.644531 109.675781 308.765625 109.765625 308.765625 109.933594 L 308.765625 113.386719 C 308.765625 113.488281 308.71875 113.566406 308.625 113.621094 C 308.539062 113.683594 308.4375 113.714844 308.3125 113.714844 C 308.195312 113.714844 308.09375 113.683594 308 113.621094 C 307.90625 113.566406 307.859375 113.488281 307.859375 113.386719 L 307.859375 110.542969 L 305.234375 110.355469 L 305.234375 111.558594 C 305.234375 112.339844 305.03125 112.964844 304.625 113.433594 C 304.226562 113.902344 303.601562 114.136719 302.75 114.136719 L 302.515625 114.136719 C 301.628906 114.136719 300.972656 113.902344 300.546875 113.433594 C 300.128906 112.964844 299.921875 112.339844 299.921875 111.558594 C 299.921875 110.753906 300.125 110.121094 300.53125 109.652344 C 300.9375 109.191406 301.425781 108.964844 302 108.964844 Z M 300.1875 114.707031 C 300.320312 114.707031 300.429688 114.738281 300.515625 114.800781 C 300.597656 114.863281 300.640625 114.945312 300.640625 115.050781 L 300.640625 116.472656 L 308.3125 116.472656 L 308.3125 115.050781 C 308.3125 114.945312 308.351562 114.863281 308.4375 114.800781 C 308.53125 114.738281 308.640625 114.707031 308.765625 114.707031 C 308.890625 114.707031 308.992188 114.738281 309.078125 114.800781 C 309.171875 114.863281 309.21875 114.945312 309.21875 115.050781 L 309.21875 117.019531 C 309.21875 117.144531 309.1875 117.246094 309.125 117.332031 C 309.0625 117.425781 308.976562 117.472656 308.875 117.472656 L 300.09375 117.472656 C 299.992188 117.472656 299.90625 117.425781 299.84375 117.332031 C 299.78125 117.246094 299.75 117.144531 299.75 117.019531 L 299.75 115.050781 C 299.75 114.945312 299.796875 114.863281 299.890625 114.800781 C 299.976562 114.738281 300.070312 114.707031 300.1875 114.707031 Z M 301.859375 121.34375 L 306.953125 121.34375 C 307.578125 121.34375 308.109375 121.570312 308.546875 122.03125 C 308.992188 122.5 309.21875 123.046875 309.21875 123.671875 C 309.21875 123.992188 309.066406 124.15625 308.765625 124.15625 C 308.628906 124.15625 308.519531 124.125 308.4375 124.0625 C 308.351562 124 308.3125 123.914062 308.3125 123.8125 C 308.3125 123.375 308.171875 123.019531 307.890625 122.75 C 307.617188 122.476562 307.304688 122.34375 306.953125 122.34375 L 301.859375 122.34375 C 301.421875 122.34375 301.109375 122.488281 300.921875 122.78125 C 300.742188 123.070312 300.65625 123.414062 300.65625 123.8125 C 300.65625 124.039062 300.503906 124.15625 300.203125 124.15625 C 299.914062 124.15625 299.765625 123.984375 299.765625 123.640625 C 299.765625 122.992188 299.949219 122.445312 300.3125 122 C 300.675781 121.5625 301.191406 121.34375 301.859375 121.34375 Z M 300.8125 124.734375 C 300.914062 124.734375 301.015625 124.765625 301.109375 124.828125 C 301.210938 124.898438 301.265625 124.984375 301.265625 125.078125 C 301.265625 125.140625 301.21875 125.226562 301.125 125.34375 C 301.03125 125.46875 300.9375 125.644531 300.84375 125.875 C 300.75 126.101562 300.703125 126.367188 300.703125 126.671875 C 300.703125 127.066406 300.773438 127.351562 300.921875 127.53125 C 301.066406 127.71875 301.25 127.8125 301.46875 127.8125 C 301.726562 127.8125 301.9375 127.707031 302.09375 127.5 C 302.25 127.300781 302.363281 127.054688 302.4375 126.765625 C 302.519531 126.484375 302.609375 126.195312 302.703125 125.90625 C 302.804688 125.625 302.96875 125.378906 303.1875 125.171875 C 303.414062 124.972656 303.710938 124.875 304.078125 124.875 C 304.535156 124.875 304.929688 125.035156 305.265625 125.359375 C 305.597656 125.679688 305.765625 126.175781 305.765625 126.84375 C 305.765625 127.269531 305.695312 127.65625 305.5625 128 C 305.425781 128.351562 305.273438 128.53125 305.109375 128.53125 C 305.015625 128.53125 304.90625 128.492188 304.78125 128.421875 C 304.664062 128.347656 304.609375 128.253906 304.609375 128.140625 C 304.609375 128.109375 304.664062 127.953125 304.78125 127.671875 C 304.894531 127.398438 304.953125 127.128906 304.953125 126.859375 C 304.953125 126.492188 304.863281 126.21875 304.6875 126.03125 C 304.519531 125.851562 304.328125 125.765625 304.109375 125.765625 C 303.890625 125.765625 303.710938 125.863281 303.578125 126.0625 C 303.453125 126.257812 303.351562 126.503906 303.28125 126.796875 C 303.21875 127.097656 303.132812 127.390625 303.03125 127.671875 C 302.925781 127.960938 302.742188 128.207031 302.484375 128.40625 C 302.234375 128.601562 301.910156 128.703125 301.515625 128.703125 C 301.015625 128.703125 300.617188 128.523438 300.328125 128.171875 C 300.046875 127.828125 299.90625 127.335938 299.90625 126.703125 C 299.90625 126.160156 300 125.695312 300.1875 125.3125 C 300.382812 124.925781 300.59375 124.734375 300.8125 124.734375 Z M 300.359375 129.894531 L 308.765625 129.894531 C 308.867188 129.894531 308.953125 129.941406 309.015625 130.035156 C 309.085938 130.128906 309.125 130.246094 309.125 130.394531 C 309.125 130.539062 309.085938 130.660156 309.015625 130.753906 C 308.953125 130.847656 308.867188 130.894531 308.765625 130.894531 L 300.359375 130.894531 C 300.273438 130.894531 300.191406 130.839844 300.109375 130.738281 C 300.035156 130.644531 300 130.527344 300 130.394531 C 300 130.257812 300.035156 130.136719 300.109375 130.035156 C 300.179688 129.941406 300.265625 129.894531 300.359375 129.894531 Z M 302.234375 132.191406 L 303.453125 132.191406 C 304.066406 132.191406 304.601562 132.425781 305.0625 132.894531 C 305.53125 133.363281 305.765625 133.914062 305.765625 134.550781 C 305.765625 135.195312 305.535156 135.753906 305.078125 136.222656 C 304.617188 136.699219 304.078125 136.941406 303.453125 136.941406 L 302.234375 136.941406 C 301.617188 136.941406 301.078125 136.699219 300.609375 136.222656 C 300.140625 135.742188 299.90625 135.183594 299.90625 134.550781 C 299.90625 133.925781 300.140625 133.371094 300.609375 132.894531 C 301.078125 132.425781 301.617188 132.191406 302.234375 132.191406 Z M 302.234375 133.191406 C 301.859375 133.191406 301.523438 133.324219 301.234375 133.597656 C 300.941406 133.867188 300.796875 134.191406 300.796875 134.566406 C 300.796875 134.941406 300.941406 135.261719 301.234375 135.535156 C 301.535156 135.804688 301.867188 135.941406 302.234375 135.941406 L 303.453125 135.941406 C 303.816406 135.941406 304.140625 135.804688 304.421875 135.535156 C 304.710938 135.261719 304.859375 134.941406 304.859375 134.566406 C 304.859375 134.191406 304.710938 133.867188 304.421875 133.597656 C 304.140625 133.324219 303.816406 133.191406 303.453125 133.191406 Z M 305.28125 137.605469 C 305.394531 137.605469 305.492188 137.667969 305.578125 137.792969 C 305.671875 137.925781 305.71875 138.066406 305.71875 138.214844 C 305.71875 138.378906 305.648438 138.488281 305.515625 138.542969 L 301.484375 139.996094 L 305.125 141.121094 C 305.28125 141.171875 305.359375 141.296875 305.359375 141.496094 C 305.359375 141.691406 305.28125 141.816406 305.125 141.871094 L 301.453125 142.980469 L 305.515625 144.449219 C 305.648438 144.480469 305.71875 144.578125 305.71875 144.746094 C 305.71875 144.890625 305.671875 145.03125 305.578125 145.167969 C 305.492188 145.300781 305.394531 145.371094 305.28125 145.371094 C 305.21875 145.371094 305.15625 145.355469 305.09375 145.324219 L 300.109375 143.464844 C 299.964844 143.402344 299.890625 143.265625 299.890625 143.058594 C 299.890625 142.839844 299.964844 142.703125 300.109375 142.652344 L 303.640625 141.496094 L 300.140625 140.355469 C 299.976562 140.292969 299.890625 140.144531 299.890625 139.917969 C 299.890625 139.707031 299.976562 139.574219 300.140625 139.511719 L 305.09375 137.652344 C 305.1875 137.621094 305.25 137.605469 305.28125 137.605469 Z M 300.359375 148.324219 L 301.53125 148.324219 C 301.882812 148.324219 302.234375 148.457031 302.578125 148.730469 C 302.929688 149.011719 303.25 149.34375 303.53125 149.730469 L 304.390625 150.902344 C 304.671875 151.285156 304.984375 151.613281 305.328125 151.886719 C 305.679688 152.167969 306.035156 152.308594 306.390625 152.308594 C 306.773438 152.308594 307.113281 152.183594 307.40625 151.933594 C 307.695312 151.683594 307.84375 151.324219 307.84375 150.855469 C 307.84375 150.449219 307.726562 150.121094 307.5 149.871094 C 307.269531 149.621094 306.945312 149.496094 306.53125 149.496094 C 306.425781 149.496094 306.332031 149.441406 306.25 149.339844 C 306.164062 149.246094 306.125 149.121094 306.125 148.964844 C 306.125 148.660156 306.320312 148.511719 306.71875 148.511719 C 307.320312 148.511719 307.8125 148.734375 308.1875 149.183594 C 308.570312 149.640625 308.765625 150.199219 308.765625 150.855469 C 308.765625 151.550781 308.539062 152.136719 308.09375 152.605469 C 307.65625 153.082031 307.101562 153.324219 306.4375 153.324219 C 306.03125 153.324219 305.644531 153.222656 305.28125 153.027344 C 304.914062 152.828125 304.601562 152.582031 304.34375 152.292969 C 304.082031 152 303.828125 151.683594 303.578125 151.339844 L 302.890625 150.386719 C 302.691406 150.09375 302.472656 149.847656 302.234375 149.652344 C 301.992188 149.453125 301.757812 149.355469 301.53125 149.355469 L 300.90625 149.355469 L 300.90625 153.042969 C 300.90625 153.136719 300.859375 153.214844 300.765625 153.277344 C 300.679688 153.347656 300.578125 153.386719 300.453125 153.386719 C 300.335938 153.386719 300.234375 153.347656 300.140625 153.277344 C 300.046875 153.214844 300 153.136719 300 153.042969 L 300 148.777344 C 300 148.671875 300.03125 148.566406 300.09375 148.464844 C 300.164062 148.371094 300.253906 148.324219 300.359375 148.324219 Z M 300.203125 153.960938 C 300.503906 153.960938 300.65625 154.074219 300.65625 154.304688 C 300.65625 154.699219 300.742188 155.042969 300.921875 155.335938 C 301.109375 155.625 301.421875 155.773438 301.859375 155.773438 L 306.953125 155.773438 C 307.304688 155.773438 307.617188 155.636719 307.890625 155.367188 C 308.171875 155.09375 308.3125 154.742188 308.3125 154.304688 C 308.3125 154.199219 308.351562 154.117188 308.4375 154.054688 C 308.519531 153.992188 308.628906 153.960938 308.765625 153.960938 C 309.066406 153.960938 309.21875 154.121094 309.21875 154.445312 C 309.21875 155.070312 308.992188 155.609375 308.546875 156.070312 C 308.109375 156.539062 307.578125 156.773438 306.953125 156.773438 L 301.859375 156.773438 C 301.191406 156.773438 300.675781 156.546875 300.3125 156.101562 C 299.949219 155.664062 299.765625 155.117188 299.765625 154.460938 C 299.765625 154.125 299.914062 153.960938 300.203125 153.960938 Z M 301.375 160.28125 C 301.507812 160.28125 301.632812 160.328125 301.75 160.421875 C 301.875 160.515625 301.9375 160.613281 301.9375 160.71875 C 301.9375 160.78125 301.882812 160.867188 301.78125 160.984375 C 301.6875 161.097656 301.582031 161.210938 301.46875 161.328125 C 301.351562 161.441406 301.242188 161.625 301.140625 161.875 C 301.046875 162.125 300.988281 162.40625 300.96875 162.71875 L 304.15625 162.71875 L 304.40625 162.0625 C 304.457031 161.914062 304.550781 161.722656 304.6875 161.484375 C 304.820312 161.242188 304.957031 161.066406 305.09375 160.953125 C 305.238281 160.835938 305.429688 160.734375 305.671875 160.640625 C 305.910156 160.546875 306.175781 160.5 306.46875 160.5 C 306.832031 160.5 307.148438 160.5625 307.421875 160.6875 C 307.703125 160.8125 307.921875 160.984375 308.078125 161.203125 C 308.234375 161.429688 308.351562 161.664062 308.4375 161.90625 C 308.519531 162.15625 308.578125 162.425781 308.609375 162.71875 L 308.96875 162.71875 C 309.03125 162.71875 309.085938 162.742188 309.140625 162.796875 C 309.191406 162.859375 309.21875 162.9375 309.21875 163.03125 C 309.21875 163.101562 309.191406 163.171875 309.140625 163.234375 C 309.085938 163.304688 309.03125 163.34375 308.96875 163.34375 L 308.625 163.34375 C 308.601562 163.820312 308.519531 164.253906 308.375 164.640625 C 308.238281 165.035156 308.0625 165.234375 307.84375 165.234375 C 307.726562 165.234375 307.601562 165.191406 307.46875 165.109375 C 307.34375 165.035156 307.28125 164.929688 307.28125 164.796875 C 307.28125 164.765625 307.347656 164.597656 307.484375 164.296875 C 307.628906 164.003906 307.710938 163.6875 307.734375 163.34375 L 304.984375 163.34375 C 304.878906 163.65625 304.769531 163.910156 304.65625 164.109375 C 304.550781 164.316406 304.40625 164.535156 304.21875 164.765625 C 304.03125 164.992188 303.789062 165.164062 303.5 165.28125 C 303.207031 165.394531 302.863281 165.453125 302.46875 165.453125 C 301.769531 165.453125 301.210938 165.257812 300.796875 164.875 C 300.390625 164.5 300.144531 163.988281 300.0625 163.34375 L 299.625 163.34375 C 299.5625 163.34375 299.507812 163.304688 299.453125 163.234375 C 299.402344 163.171875 299.375 163.101562 299.375 163.03125 C 299.375 162.9375 299.402344 162.859375 299.453125 162.796875 C 299.507812 162.742188 299.5625 162.71875 299.625 162.71875 L 300.03125 162.71875 C 300.03125 162.03125 300.179688 161.453125 300.484375 160.984375 C 300.796875 160.515625 301.09375 160.28125 301.375 160.28125 Z M 306.5625 161.453125 C 306.1875 161.453125 305.90625 161.5625 305.71875 161.78125 C 305.53125 162 305.359375 162.328125 305.203125 162.765625 L 307.71875 162.765625 C 307.625 161.890625 307.238281 161.453125 306.5625 161.453125 Z M 301 163.296875 C 301.125 164.085938 301.582031 164.484375 302.375 164.484375 C 302.789062 164.484375 303.113281 164.378906 303.34375 164.171875 C 303.582031 163.972656 303.78125 163.679688 303.9375 163.296875 Z M 302.234375 168.816406 L 303.453125 168.816406 C 304.085938 168.816406 304.628906 169.027344 305.078125 169.457031 C 305.535156 169.882812 305.765625 170.386719 305.765625 170.972656 C 305.765625 171.335938 305.675781 171.652344 305.5 171.925781 C 305.320312 172.195312 305.101562 172.402344 304.84375 172.550781 L 308.765625 172.550781 C 308.867188 172.550781 308.953125 172.597656 309.015625 172.691406 C 309.085938 172.785156 309.125 172.902344 309.125 173.050781 C 309.125 173.195312 309.085938 173.308594 309.015625 173.394531 C 308.953125 173.488281 308.867188 173.535156 308.765625 173.535156 L 300.359375 173.535156 C 300.265625 173.535156 300.179688 173.488281 300.109375 173.394531 C 300.035156 173.300781 300 173.183594 300 173.050781 C 300 172.925781 300.035156 172.816406 300.109375 172.722656 C 300.179688 172.636719 300.265625 172.597656 300.359375 172.597656 L 300.84375 172.597656 C 300.582031 172.460938 300.359375 172.238281 300.171875 171.925781 C 299.996094 171.621094 299.90625 171.292969 299.90625 170.941406 C 299.90625 170.378906 300.140625 169.882812 300.609375 169.457031 C 301.078125 169.027344 301.617188 168.816406 302.234375 168.816406 Z M 302.234375 169.816406 C 301.867188 169.816406 301.535156 169.949219 301.234375 170.222656 C 300.941406 170.492188 300.796875 170.808594 300.796875 171.175781 C 300.796875 171.527344 300.929688 171.847656 301.203125 172.128906 C 301.472656 172.410156 301.707031 172.550781 301.90625 172.550781 L 303.453125 172.550781 C 303.867188 172.550781 304.207031 172.410156 304.46875 172.128906 C 304.726562 171.855469 304.859375 171.542969 304.859375 171.191406 C 304.859375 170.816406 304.710938 170.492188 304.421875 170.222656 C 304.140625 169.949219 303.816406 169.816406 303.453125 169.816406 Z M 302.234375 174.746094 L 303.484375 174.746094 C 304.109375 174.746094 304.644531 174.980469 305.09375 175.449219 C 305.539062 175.917969 305.765625 176.480469 305.765625 177.136719 C 305.765625 177.761719 305.550781 178.300781 305.125 178.761719 C 304.707031 179.21875 304.179688 179.449219 303.546875 179.449219 C 303.316406 179.449219 303.128906 179.417969 302.984375 179.355469 C 302.847656 179.300781 302.75 179.21875 302.6875 179.105469 C 302.632812 178.988281 302.597656 178.878906 302.578125 178.777344 C 302.566406 178.683594 302.5625 178.546875 302.5625 178.371094 L 302.5625 175.746094 L 302.203125 175.746094 C 301.753906 175.746094 301.398438 175.902344 301.140625 176.214844 C 300.878906 176.535156 300.75 176.949219 300.75 177.449219 C 300.75 177.71875 300.785156 177.949219 300.859375 178.136719 C 300.941406 178.332031 301.019531 178.488281 301.09375 178.605469 C 301.175781 178.730469 301.21875 178.828125 301.21875 178.902344 C 301.21875 179.015625 301.164062 179.109375 301.0625 179.183594 C 300.957031 179.265625 300.851562 179.308594 300.75 179.308594 C 300.570312 179.308594 300.382812 179.125 300.1875 178.761719 C 300 178.394531 299.90625 177.949219 299.90625 177.417969 C 299.90625 176.636719 300.117188 175.996094 300.546875 175.496094 C 300.972656 174.996094 301.535156 174.746094 302.234375 174.746094 Z M 303.234375 175.746094 L 303.234375 177.964844 C 303.234375 178.171875 303.257812 178.3125 303.3125 178.386719 C 303.363281 178.457031 303.460938 178.496094 303.609375 178.496094 C 303.972656 178.496094 304.289062 178.359375 304.5625 178.089844 C 304.832031 177.828125 304.96875 177.511719 304.96875 177.136719 C 304.96875 176.75 304.84375 176.421875 304.59375 176.152344 C 304.34375 175.878906 304.03125 175.746094 303.65625 175.746094 Z M 300.359375 180.542969 L 305.34375 180.542969 C 305.445312 180.542969 305.53125 180.589844 305.59375 180.683594 C 305.65625 180.777344 305.6875 180.894531 305.6875 181.042969 C 305.6875 181.15625 305.648438 181.261719 305.578125 181.355469 C 305.515625 181.449219 305.4375 181.496094 305.34375 181.496094 L 304.84375 181.496094 C 305.101562 181.621094 305.320312 181.824219 305.5 182.105469 C 305.675781 182.394531 305.765625 182.730469 305.765625 183.105469 C 305.765625 183.667969 305.535156 184.15625 305.078125 184.574219 C 304.628906 185 304.085938 185.214844 303.453125 185.214844 L 300.359375 185.214844 C 300.242188 185.214844 300.15625 185.160156 300.09375 185.058594 C 300.03125 184.964844 300 184.847656 300 184.714844 C 300 184.589844 300.03125 184.472656 300.09375 184.371094 C 300.15625 184.265625 300.242188 184.214844 300.359375 184.214844 L 303.453125 184.214844 C 303.816406 184.214844 304.140625 184.078125 304.421875 183.808594 C 304.710938 183.535156 304.859375 183.21875 304.859375 182.855469 C 304.859375 182.511719 304.726562 182.203125 304.46875 181.933594 C 304.207031 181.671875 303.867188 181.542969 303.453125 181.542969 L 300.359375 181.542969 C 300.273438 181.542969 300.191406 181.488281 300.109375 181.386719 C 300.035156 181.28125 300 181.167969 300 181.042969 C 300 180.90625 300.035156 180.785156 300.109375 180.683594 C 300.179688 180.589844 300.265625 180.542969 300.359375 180.542969 Z M 300.8125 186.238281 C 300.914062 186.238281 301.015625 186.269531 301.109375 186.332031 C 301.210938 186.402344 301.265625 186.488281 301.265625 186.582031 C 301.265625 186.644531 301.21875 186.730469 301.125 186.847656 C 301.03125 186.972656 300.9375 187.148438 300.84375 187.378906 C 300.75 187.605469 300.703125 187.871094 300.703125 188.175781 C 300.703125 188.570312 300.773438 188.855469 300.921875 189.035156 C 301.066406 189.222656 301.25 189.316406 301.46875 189.316406 C 301.726562 189.316406 301.9375 189.210938 302.09375 189.003906 C 302.25 188.804688 302.363281 188.558594 302.4375 188.269531 C 302.519531 187.988281 302.609375 187.699219 302.703125 187.410156 C 302.804688 187.128906 302.96875 186.882812 303.1875 186.675781 C 303.414062 186.476562 303.710938 186.378906 304.078125 186.378906 C 304.535156 186.378906 304.929688 186.539062 305.265625 186.863281 C 305.597656 187.183594 305.765625 187.679688 305.765625 188.347656 C 305.765625 188.773438 305.695312 189.160156 305.5625 189.503906 C 305.425781 189.855469 305.273438 190.035156 305.109375 190.035156 C 305.015625 190.035156 304.90625 189.996094 304.78125 189.925781 C 304.664062 189.851562 304.609375 189.757812 304.609375 189.644531 C 304.609375 189.613281 304.664062 189.457031 304.78125 189.175781 C 304.894531 188.902344 304.953125 188.632812 304.953125 188.363281 C 304.953125 187.996094 304.863281 187.722656 304.6875 187.535156 C 304.519531 187.355469 304.328125 187.269531 304.109375 187.269531 C 303.890625 187.269531 303.710938 187.367188 303.578125 187.566406 C 303.453125 187.761719 303.351562 188.007812 303.28125 188.300781 C 303.21875 188.601562 303.132812 188.894531 303.03125 189.175781 C 302.925781 189.464844 302.742188 189.710938 302.484375 189.910156 C 302.234375 190.105469 301.910156 190.207031 301.515625 190.207031 C 301.015625 190.207031 300.617188 190.027344 300.328125 189.675781 C 300.046875 189.332031 299.90625 188.839844 299.90625 188.207031 C 299.90625 187.664062 300 187.199219 300.1875 186.816406 C 300.382812 186.429688 300.59375 186.238281 300.8125 186.238281 Z M 307.421875 191.347656 C 307.535156 191.222656 307.664062 191.160156 307.8125 191.160156 C 307.96875 191.160156 308.101562 191.214844 308.21875 191.332031 C 308.332031 191.457031 308.390625 191.605469 308.390625 191.785156 C 308.390625 191.949219 308.332031 192.089844 308.21875 192.207031 C 308.101562 192.332031 307.96875 192.394531 307.8125 192.394531 C 307.664062 192.394531 307.535156 192.332031 307.421875 192.207031 C 307.304688 192.089844 307.25 191.949219 307.25 191.785156 C 307.25 191.617188 307.304688 191.472656 307.421875 191.347656 Z M 300.359375 191.285156 L 305.34375 191.285156 C 305.445312 191.285156 305.53125 191.332031 305.59375 191.425781 C 305.65625 191.527344 305.6875 191.648438 305.6875 191.785156 C 305.6875 191.929688 305.65625 192.050781 305.59375 192.144531 C 305.53125 192.238281 305.445312 192.285156 305.34375 192.285156 L 300.359375 192.285156 C 300.273438 192.285156 300.191406 192.230469 300.109375 192.128906 C 300.035156 192.035156 300 191.917969 300 191.785156 C 300 191.648438 300.035156 191.527344 300.109375 191.425781 C 300.179688 191.332031 300.265625 191.285156 300.359375 191.285156 Z M 301.8125 193.679688 L 307.984375 193.679688 C 308.085938 193.679688 308.171875 193.730469 308.234375 193.835938 C 308.304688 193.9375 308.34375 194.046875 308.34375 194.164062 C 308.34375 194.296875 308.304688 194.417969 308.234375 194.523438 C 308.171875 194.625 308.085938 194.679688 307.984375 194.679688 L 305.6875 194.679688 L 305.6875 196.179688 C 305.6875 196.273438 305.644531 196.34375 305.5625 196.398438 C 305.488281 196.449219 305.398438 196.476562 305.296875 196.476562 C 305.191406 196.476562 305.097656 196.449219 305.015625 196.398438 C 304.941406 196.34375 304.90625 196.273438 304.90625 196.179688 L 304.90625 194.679688 L 301.8125 194.679688 C 301.46875 194.679688 301.222656 194.75 301.078125 194.898438 C 300.941406 195.042969 300.875 195.296875 300.875 195.664062 L 300.875 196.039062 C 300.875 196.171875 300.832031 196.277344 300.75 196.351562 C 300.664062 196.433594 300.5625 196.476562 300.4375 196.476562 C 300.320312 196.476562 300.21875 196.433594 300.125 196.351562 C 300.039062 196.265625 300 196.164062 300 196.039062 L 300 195.664062 C 300 194.339844 300.601562 193.679688 301.8125 193.679688 Z M 305.28125 196.855469 C 305.40625 196.855469 305.515625 196.925781 305.609375 197.074219 C 305.710938 197.21875 305.765625 197.363281 305.765625 197.511719 C 305.765625 197.675781 305.695312 197.78125 305.5625 197.824219 L 301.375 199.417969 L 305.5625 200.839844 C 305.695312 200.902344 305.765625 201.003906 305.765625 201.152344 C 305.765625 201.285156 305.710938 201.425781 305.609375 201.574219 C 305.515625 201.730469 305.398438 201.808594 305.265625 201.808594 C 305.222656 201.808594 305.179688 201.792969 305.140625 201.761719 L 300.265625 199.949219 L 299.65625 199.714844 C 299.554688 199.671875 299.367188 199.589844 299.09375 199.464844 C 298.824219 199.347656 298.625 199.25 298.5 199.167969 C 298.375 199.09375 298.21875 198.984375 298.03125 198.839844 C 297.835938 198.691406 297.695312 198.550781 297.609375 198.417969 C 297.515625 198.28125 297.433594 198.121094 297.359375 197.933594 C 297.289062 197.746094 297.25 197.546875 297.25 197.339844 C 297.25 197.027344 297.402344 196.871094 297.703125 196.871094 C 297.984375 196.871094 298.125 196.964844 298.125 197.152344 C 298.125 197.515625 298.328125 197.863281 298.734375 198.199219 C 299.140625 198.542969 299.65625 198.777344 300.28125 198.902344 L 305.140625 196.902344 C 305.191406 196.871094 305.238281 196.855469 305.28125 196.855469 Z M 306.90625 204.464844 C 307.070312 204.464844 307.207031 204.535156 307.3125 204.683594 L 308.625 205.777344 C 308.726562 205.878906 308.78125 205.984375 308.78125 206.089844 C 308.78125 206.203125 308.75 206.308594 308.6875 206.402344 C 308.625 206.496094 308.535156 206.542969 308.421875 206.542969 L 300.359375 206.542969 C 300.242188 206.542969 300.15625 206.488281 300.09375 206.386719 C 300.03125 206.292969 300 206.171875 300 206.027344 C 300 205.890625 300.03125 205.769531 300.09375 205.667969 C 300.15625 205.574219 300.242188 205.527344 300.359375 205.527344 L 307.265625 205.527344 L 306.609375 205.089844 C 306.523438 205.003906 306.484375 204.921875 306.484375 204.839844 C 306.484375 204.734375 306.523438 204.644531 306.609375 204.574219 C 306.691406 204.5 306.789062 204.464844 306.90625 204.464844 Z M 302.546875 207.988281 L 306.15625 207.988281 C 307.0625 207.988281 307.722656 208.226562 308.140625 208.707031 C 308.554688 209.183594 308.765625 209.820312 308.765625 210.613281 C 308.765625 211.414062 308.554688 212.039062 308.140625 212.488281 C 307.734375 212.933594 307.25 213.160156 306.6875 213.160156 C 306.382812 213.160156 306.234375 213.003906 306.234375 212.691406 C 306.234375 212.347656 306.367188 212.175781 306.640625 212.175781 C 307.003906 212.175781 307.296875 212.023438 307.515625 211.722656 C 307.742188 211.417969 307.859375 211.042969 307.859375 210.597656 C 307.859375 209.535156 307.289062 209.003906 306.15625 209.003906 L 304.46875 209.003906 C 304.96875 209.386719 305.21875 209.972656 305.21875 210.753906 C 305.21875 212.355469 304.410156 213.160156 302.796875 213.160156 L 302.546875 213.160156 C 301.640625 213.160156 300.972656 212.925781 300.546875 212.457031 C 300.128906 211.988281 299.921875 211.363281 299.921875 210.582031 C 299.921875 209.800781 300.128906 209.167969 300.546875 208.691406 C 300.972656 208.222656 301.640625 207.988281 302.546875 207.988281 Z M 302.5 209.003906 C 301.363281 209.003906 300.796875 209.527344 300.796875 210.582031 C 300.796875 211.632812 301.363281 212.160156 302.5 212.160156 L 302.75 212.160156 C 303.832031 212.160156 304.375 211.632812 304.375 210.582031 C 304.375 209.527344 303.867188 209.003906 302.859375 209.003906 Z M 301.375 216.46875 C 301.507812 216.46875 301.632812 216.515625 301.75 216.609375 C 301.875 216.703125 301.9375 216.800781 301.9375 216.90625 C 301.9375 216.96875 301.882812 217.054688 301.78125 217.171875 C 301.6875 217.285156 301.582031 217.398438 301.46875 217.515625 C 301.351562 217.628906 301.242188 217.8125 301.140625 218.0625 C 301.046875 218.3125 300.988281 218.59375 300.96875 218.90625 L 304.15625 218.90625 L 304.40625 218.25 C 304.457031 218.101562 304.550781 217.910156 304.6875 217.671875 C 304.820312 217.429688 304.957031 217.253906 305.09375 217.140625 C 305.238281 217.023438 305.429688 216.921875 305.671875 216.828125 C 305.910156 216.734375 306.175781 216.6875 306.46875 216.6875 C 306.832031 216.6875 307.148438 216.75 307.421875 216.875 C 307.703125 217 307.921875 217.171875 308.078125 217.390625 C 308.234375 217.617188 308.351562 217.851562 308.4375 218.09375 C 308.519531 218.34375 308.578125 218.613281 308.609375 218.90625 L 308.96875 218.90625 C 309.03125 218.90625 309.085938 218.929688 309.140625 218.984375 C 309.191406 219.046875 309.21875 219.125 309.21875 219.21875 C 309.21875 219.289062 309.191406 219.359375 309.140625 219.421875 C 309.085938 219.492188 309.03125 219.53125 308.96875 219.53125 L 308.625 219.53125 C 308.601562 220.007812 308.519531 220.441406 308.375 220.828125 C 308.238281 221.222656 308.0625 221.421875 307.84375 221.421875 C 307.726562 221.421875 307.601562 221.378906 307.46875 221.296875 C 307.34375 221.222656 307.28125 221.117188 307.28125 220.984375 C 307.28125 220.953125 307.347656 220.785156 307.484375 220.484375 C 307.628906 220.191406 307.710938 219.875 307.734375 219.53125 L 304.984375 219.53125 C 304.878906 219.84375 304.769531 220.097656 304.65625 220.296875 C 304.550781 220.503906 304.40625 220.722656 304.21875 220.953125 C 304.03125 221.179688 303.789062 221.351562 303.5 221.46875 C 303.207031 221.582031 302.863281 221.640625 302.46875 221.640625 C 301.769531 221.640625 301.210938 221.445312 300.796875 221.0625 C 300.390625 220.6875 300.144531 220.175781 300.0625 219.53125 L 299.625 219.53125 C 299.5625 219.53125 299.507812 219.492188 299.453125 219.421875 C 299.402344 219.359375 299.375 219.289062 299.375 219.21875 C 299.375 219.125 299.402344 219.046875 299.453125 218.984375 C 299.507812 218.929688 299.5625 218.90625 299.625 218.90625 L 300.03125 218.90625 C 300.03125 218.21875 300.179688 217.640625 300.484375 217.171875 C 300.796875 216.703125 301.09375 216.46875 301.375 216.46875 Z M 306.5625 217.640625 C 306.1875 217.640625 305.90625 217.75 305.71875 217.96875 C 305.53125 218.1875 305.359375 218.515625 305.203125 218.953125 L 307.71875 218.953125 C 307.625 218.078125 307.238281 217.640625 306.5625 217.640625 Z M 301 219.484375 C 301.125 220.273438 301.582031 220.671875 302.375 220.671875 C 302.789062 220.671875 303.113281 220.566406 303.34375 220.359375 C 303.582031 220.160156 303.78125 219.867188 303.9375 219.484375 Z M 308.921875 224.9375 C 309.003906 224.9375 309.070312 224.976562 309.125 225.0625 C 309.1875 225.15625 309.21875 225.253906 309.21875 225.359375 C 309.21875 225.472656 309.1875 225.578125 309.125 225.671875 C 309.070312 225.765625 309.003906 225.8125 308.921875 225.8125 L 307.171875 225.6875 C 307.085938 225.6875 307.015625 225.660156 306.953125 225.609375 C 306.890625 225.554688 306.859375 225.476562 306.859375 225.375 C 306.859375 225.164062 306.960938 225.0625 307.171875 225.0625 Z M 308.921875 226.5625 C 309.003906 226.5625 309.070312 226.601562 309.125 226.6875 C 309.1875 226.78125 309.21875 226.882812 309.21875 227 C 309.21875 227.113281 309.1875 227.210938 309.125 227.296875 C 309.070312 227.390625 309.003906 227.4375 308.921875 227.4375 L 307.171875 227.328125 C 307.085938 227.328125 307.015625 227.296875 306.953125 227.234375 C 306.890625 227.179688 306.859375 227.101562 306.859375 227 C 306.859375 226.789062 306.960938 226.6875 307.171875 226.6875 Z M 298.875 228.132812 C 299.460938 228.132812 299.898438 228.453125 300.1875 229.101562 C 300.332031 228.695312 300.597656 228.492188 300.984375 228.492188 C 301.347656 228.492188 301.644531 228.6875 301.875 229.085938 C 302.238281 228.636719 302.742188 228.414062 303.390625 228.414062 L 303.78125 228.414062 C 304.363281 228.414062 304.835938 228.605469 305.203125 228.992188 C 305.578125 229.386719 305.765625 229.902344 305.765625 230.539062 C 305.765625 231.078125 305.609375 231.546875 305.296875 231.945312 C 305.816406 232.183594 306.078125 232.453125 306.078125 232.757812 C 306.078125 232.890625 306.035156 232.996094 305.953125 233.070312 C 305.878906 233.152344 305.796875 233.195312 305.703125 233.195312 C 305.578125 233.195312 305.484375 233.125 305.421875 232.992188 C 305.347656 232.71875 305.179688 232.5 304.921875 232.335938 C 304.617188 232.585938 304.238281 232.710938 303.78125 232.710938 L 303.390625 232.710938 C 302.804688 232.710938 302.328125 232.507812 301.953125 232.101562 C 301.578125 231.695312 301.390625 231.171875 301.390625 230.539062 C 301.390625 230.214844 301.453125 229.917969 301.578125 229.648438 C 301.453125 229.449219 301.3125 229.351562 301.15625 229.351562 C 301.007812 229.351562 300.894531 229.445312 300.8125 229.632812 C 300.726562 229.820312 300.675781 230.046875 300.65625 230.320312 C 300.632812 230.589844 300.59375 230.882812 300.53125 231.195312 C 300.476562 231.515625 300.40625 231.8125 300.3125 232.085938 C 300.226562 232.355469 300.078125 232.585938 299.859375 232.773438 C 299.632812 232.960938 299.34375 233.054688 299 233.054688 C 298.4375 233.054688 298.007812 232.824219 297.703125 232.367188 C 297.402344 231.917969 297.25 231.335938 297.25 230.617188 C 297.25 229.898438 297.398438 229.304688 297.6875 228.835938 C 297.980469 228.367188 298.375 228.132812 298.875 228.132812 Z M 298.984375 229.085938 C 298.671875 229.085938 298.421875 229.21875 298.234375 229.492188 C 298.046875 229.773438 297.953125 230.140625 297.953125 230.601562 C 297.953125 231.046875 298.046875 231.40625 298.234375 231.679688 C 298.421875 231.949219 298.671875 232.085938 298.984375 232.085938 C 299.109375 232.085938 299.21875 232.058594 299.3125 232.007812 C 299.40625 231.964844 299.492188 231.898438 299.5625 231.804688 C 299.625 231.710938 299.679688 231.609375 299.71875 231.507812 C 299.761719 231.414062 299.796875 231.289062 299.828125 231.132812 C 299.859375 230.984375 299.882812 230.859375 299.890625 230.757812 C 299.902344 230.664062 299.917969 230.53125 299.9375 230.367188 C 299.949219 230.199219 299.960938 230.085938 299.96875 230.023438 C 299.761719 229.398438 299.433594 229.085938 298.984375 229.085938 Z M 303.390625 229.382812 C 303.003906 229.382812 302.6875 229.484375 302.4375 229.695312 C 302.195312 229.902344 302.078125 230.195312 302.078125 230.570312 C 302.078125 230.921875 302.195312 231.203125 302.4375 231.414062 C 302.6875 231.632812 303.003906 231.742188 303.390625 231.742188 L 303.78125 231.742188 C 304.144531 231.742188 304.453125 231.632812 304.703125 231.414062 C 304.953125 231.203125 305.078125 230.917969 305.078125 230.554688 C 305.078125 230.1875 304.953125 229.902344 304.703125 229.695312 C 304.460938 229.484375 304.15625 229.382812 303.78125 229.382812 Z M 300.359375 234.050781 L 305.34375 234.050781 C 305.445312 234.050781 305.53125 234.097656 305.59375 234.191406 C 305.65625 234.285156 305.6875 234.402344 305.6875 234.550781 C 305.6875 234.675781 305.65625 234.777344 305.59375 234.863281 C 305.53125 234.957031 305.445312 235.003906 305.34375 235.003906 L 304.78125 235.003906 C 305.050781 235.148438 305.28125 235.363281 305.46875 235.644531 C 305.664062 235.925781 305.765625 236.238281 305.765625 236.582031 L 305.765625 236.988281 C 305.765625 237.089844 305.71875 237.179688 305.625 237.253906 C 305.53125 237.324219 305.421875 237.363281 305.296875 237.363281 C 305.179688 237.363281 305.078125 237.324219 304.984375 237.253906 C 304.898438 237.179688 304.859375 237.089844 304.859375 236.988281 L 304.859375 236.582031 C 304.859375 236.164062 304.691406 235.804688 304.359375 235.503906 C 304.035156 235.199219 303.613281 235.050781 303.09375 235.050781 L 300.359375 235.050781 C 300.273438 235.050781 300.191406 234.996094 300.109375 234.894531 C 300.035156 234.800781 300 234.683594 300 234.550781 C 300 234.414062 300.035156 234.292969 300.109375 234.191406 C 300.179688 234.097656 300.265625 234.050781 300.359375 234.050781 Z M 302.234375 237.960938 L 303.484375 237.960938 C 304.109375 237.960938 304.644531 238.195312 305.09375 238.664062 C 305.539062 239.132812 305.765625 239.695312 305.765625 240.351562 C 305.765625 240.976562 305.550781 241.515625 305.125 241.976562 C 304.707031 242.433594 304.179688 242.664062 303.546875 242.664062 C 303.316406 242.664062 303.128906 242.632812 302.984375 242.570312 C 302.847656 242.515625 302.75 242.433594 302.6875 242.320312 C 302.632812 242.203125 302.597656 242.09375 302.578125 241.992188 C 302.566406 241.898438 302.5625 241.761719 302.5625 241.585938 L 302.5625 238.960938 L 302.203125 238.960938 C 301.753906 238.960938 301.398438 239.117188 301.140625 239.429688 C 300.878906 239.75 300.75 240.164062 300.75 240.664062 C 300.75 240.933594 300.785156 241.164062 300.859375 241.351562 C 300.941406 241.546875 301.019531 241.703125 301.09375 241.820312 C 301.175781 241.945312 301.21875 242.042969 301.21875 242.117188 C 301.21875 242.230469 301.164062 242.324219 301.0625 242.398438 C 300.957031 242.480469 300.851562 242.523438 300.75 242.523438 C 300.570312 242.523438 300.382812 242.339844 300.1875 241.976562 C 300 241.609375 299.90625 241.164062 299.90625 240.632812 C 299.90625 239.851562 300.117188 239.210938 300.546875 238.710938 C 300.972656 238.210938 301.535156 237.960938 302.234375 237.960938 Z M 303.234375 238.960938 L 303.234375 241.179688 C 303.234375 241.386719 303.257812 241.527344 303.3125 241.601562 C 303.363281 241.671875 303.460938 241.710938 303.609375 241.710938 C 303.972656 241.710938 304.289062 241.574219 304.5625 241.304688 C 304.832031 241.042969 304.96875 240.726562 304.96875 240.351562 C 304.96875 239.964844 304.84375 239.636719 304.59375 239.367188 C 304.34375 239.09375 304.03125 238.960938 303.65625 238.960938 Z M 305.28125 243.199219 C 305.40625 243.199219 305.515625 243.269531 305.609375 243.417969 C 305.710938 243.5625 305.765625 243.707031 305.765625 243.855469 C 305.765625 244.019531 305.695312 244.125 305.5625 244.167969 L 301.375 245.761719 L 305.5625 247.183594 C 305.695312 247.246094 305.765625 247.347656 305.765625 247.496094 C 305.765625 247.628906 305.710938 247.769531 305.609375 247.917969 C 305.515625 248.074219 305.398438 248.152344 305.265625 248.152344 C 305.222656 248.152344 305.179688 248.136719 305.140625 248.105469 L 300.265625 246.292969 L 299.65625 246.058594 C 299.554688 246.015625 299.367188 245.933594 299.09375 245.808594 C 298.824219 245.691406 298.625 245.59375 298.5 245.511719 C 298.375 245.4375 298.21875 245.328125 298.03125 245.183594 C 297.835938 245.035156 297.695312 244.894531 297.609375 244.761719 C 297.515625 244.625 297.433594 244.464844 297.359375 244.277344 C 297.289062 244.089844 297.25 243.890625 297.25 243.683594 C 297.25 243.371094 297.402344 243.214844 297.703125 243.214844 C 297.984375 243.214844 298.125 243.308594 298.125 243.496094 C 298.125 243.859375 298.328125 244.207031 298.734375 244.542969 C 299.140625 244.886719 299.65625 245.121094 300.28125 245.246094 L 305.140625 243.246094 C 305.191406 243.214844 305.238281 243.199219 305.28125 243.199219 Z M 300.359375 251.421875 L 308.765625 251.421875 C 308.867188 251.421875 308.953125 251.46875 309.015625 251.5625 C 309.085938 251.65625 309.125 251.769531 309.125 251.90625 C 309.125 252.050781 309.085938 252.171875 309.015625 252.265625 C 308.953125 252.367188 308.867188 252.421875 308.765625 252.421875 L 304.84375 252.421875 C 305.101562 252.566406 305.320312 252.773438 305.5 253.046875 C 305.675781 253.316406 305.765625 253.628906 305.765625 253.984375 C 305.765625 254.566406 305.535156 255.070312 305.078125 255.5 C 304.628906 255.925781 304.085938 256.140625 303.453125 256.140625 L 302.234375 256.140625 C 301.617188 256.140625 301.078125 255.925781 300.609375 255.5 C 300.140625 255.070312 299.90625 254.582031 299.90625 254.03125 C 299.90625 253.664062 299.996094 253.332031 300.171875 253.03125 C 300.359375 252.726562 300.582031 252.507812 300.84375 252.375 L 300.359375 252.375 C 300.265625 252.375 300.179688 252.328125 300.109375 252.234375 C 300.035156 252.140625 300 252.035156 300 251.921875 C 300 251.785156 300.035156 251.664062 300.109375 251.5625 C 300.179688 251.46875 300.265625 251.421875 300.359375 251.421875 Z M 301.90625 252.421875 C 301.707031 252.421875 301.472656 252.5625 301.203125 252.84375 C 300.929688 253.125 300.796875 253.4375 300.796875 253.78125 C 300.796875 254.144531 300.941406 254.460938 301.234375 254.734375 C 301.535156 255.003906 301.867188 255.140625 302.234375 255.140625 L 303.453125 255.140625 C 303.816406 255.140625 304.140625 255.003906 304.421875 254.734375 C 304.710938 254.460938 304.859375 254.144531 304.859375 253.78125 C 304.859375 253.414062 304.726562 253.097656 304.46875 252.828125 C 304.207031 252.554688 303.867188 252.421875 303.453125 252.421875 Z M 300.359375 257.441406 L 308.765625 257.441406 C 308.867188 257.441406 308.953125 257.488281 309.015625 257.582031 C 309.085938 257.675781 309.125 257.792969 309.125 257.941406 C 309.125 258.085938 309.085938 258.207031 309.015625 258.300781 C 308.953125 258.394531 308.867188 258.441406 308.765625 258.441406 L 300.359375 258.441406 C 300.273438 258.441406 300.191406 258.386719 300.109375 258.285156 C 300.035156 258.191406 300 258.074219 300 257.941406 C 300 257.804688 300.035156 257.683594 300.109375 257.582031 C 300.179688 257.488281 300.265625 257.441406 300.359375 257.441406 Z M 301.5 259.601562 C 302.125 259.601562 302.554688 259.839844 302.796875 260.320312 C 303.046875 260.796875 303.171875 261.492188 303.171875 262.398438 L 303.171875 262.976562 L 303.421875 262.976562 C 303.816406 262.976562 304.160156 262.867188 304.453125 262.648438 C 304.753906 262.429688 304.90625 262.101562 304.90625 261.664062 C 304.90625 261.320312 304.847656 261.015625 304.734375 260.757812 C 304.617188 260.507812 304.5625 260.371094 304.5625 260.351562 C 304.5625 260.234375 304.613281 260.140625 304.71875 260.070312 C 304.832031 260.007812 304.945312 259.976562 305.0625 259.976562 C 305.25 259.976562 305.410156 260.15625 305.546875 260.523438 C 305.691406 260.886719 305.765625 261.273438 305.765625 261.679688 C 305.765625 262.460938 305.539062 263.039062 305.09375 263.414062 C 304.644531 263.789062 304.09375 263.976562 303.4375 263.976562 L 300.359375 263.976562 C 300.253906 263.976562 300.164062 263.929688 300.09375 263.835938 C 300.03125 263.742188 300 263.621094 300 263.476562 C 300 263.351562 300.03125 263.242188 300.09375 263.148438 C 300.164062 263.0625 300.253906 263.023438 300.359375 263.023438 L 300.84375 263.023438 C 300.21875 262.480469 299.90625 261.875 299.90625 261.210938 C 299.90625 260.730469 300.039062 260.339844 300.3125 260.039062 C 300.582031 259.746094 300.976562 259.601562 301.5 259.601562 Z M 301.609375 260.601562 C 301.304688 260.601562 301.078125 260.683594 300.921875 260.851562 C 300.773438 261.015625 300.703125 261.242188 300.703125 261.523438 C 300.703125 261.855469 300.835938 262.179688 301.109375 262.492188 C 301.378906 262.8125 301.65625 262.976562 301.9375 262.976562 L 302.5625 262.976562 L 302.5625 262.554688 C 302.5625 262.324219 302.550781 262.125 302.53125 261.960938 C 302.519531 261.792969 302.492188 261.617188 302.453125 261.429688 C 302.421875 261.25 302.367188 261.105469 302.296875 260.992188 C 302.234375 260.875 302.144531 260.78125 302.03125 260.710938 C 301.914062 260.636719 301.773438 260.601562 301.609375 260.601562 Z M 302.234375 265.132812 L 303.4375 265.132812 C 304.125 265.132812 304.679688 265.335938 305.109375 265.742188 C 305.546875 266.148438 305.765625 266.742188 305.765625 267.523438 C 305.765625 268.023438 305.675781 268.4375 305.5 268.773438 C 305.320312 269.117188 305.132812 269.289062 304.9375 269.289062 C 304.820312 269.289062 304.707031 269.246094 304.59375 269.164062 C 304.488281 269.078125 304.4375 268.980469 304.4375 268.867188 C 304.4375 268.835938 304.503906 268.695312 304.640625 268.445312 C 304.785156 268.203125 304.859375 267.921875 304.859375 267.601562 C 304.859375 267.121094 304.734375 266.757812 304.484375 266.507812 C 304.234375 266.257812 303.882812 266.132812 303.4375 266.132812 L 302.234375 266.132812 C 301.273438 266.132812 300.796875 266.621094 300.796875 267.601562 C 300.796875 267.945312 300.867188 268.234375 301.015625 268.476562 C 301.160156 268.726562 301.234375 268.871094 301.234375 268.914062 C 301.234375 269.039062 301.179688 269.140625 301.078125 269.226562 C 300.972656 269.320312 300.863281 269.367188 300.75 269.367188 C 300.550781 269.367188 300.359375 269.1875 300.171875 268.835938 C 299.996094 268.480469 299.90625 268.046875 299.90625 267.539062 C 299.90625 266.746094 300.117188 266.148438 300.546875 265.742188 C 300.972656 265.335938 301.535156 265.132812 302.234375 265.132812 Z M 300.359375 270.355469 L 308.765625 270.355469 C 308.867188 270.355469 308.953125 270.402344 309.015625 270.496094 C 309.085938 270.589844 309.125 270.703125 309.125 270.839844 C 309.125 270.984375 309.085938 271.105469 309.015625 271.199219 C 308.953125 271.300781 308.867188 271.355469 308.765625 271.355469 L 303.15625 271.355469 L 305.625 274.089844 C 305.6875 274.160156 305.71875 274.234375 305.71875 274.308594 C 305.71875 274.421875 305.664062 274.53125 305.5625 274.636719 C 305.46875 274.75 305.363281 274.808594 305.25 274.808594 C 305.144531 274.808594 305.0625 274.769531 305 274.699219 L 303.53125 273.027344 L 300.640625 275.027344 C 300.578125 275.066406 300.515625 275.089844 300.453125 275.089844 C 300.335938 275.089844 300.222656 275.027344 300.109375 274.902344 C 300.003906 274.785156 299.953125 274.660156 299.953125 274.527344 C 299.953125 274.421875 300.003906 274.332031 300.109375 274.261719 L 302.90625 272.355469 L 302.015625 271.355469 L 300.359375 271.355469 C 300.273438 271.355469 300.191406 271.300781 300.109375 271.199219 C 300.035156 271.105469 300 270.988281 300 270.855469 C 300 270.71875 300.035156 270.597656 300.109375 270.496094 C 300.179688 270.402344 300.265625 270.355469 300.359375 270.355469 Z M 308.921875 275.664062 C 309.003906 275.664062 309.070312 275.703125 309.125 275.789062 C 309.1875 275.882812 309.21875 275.980469 309.21875 276.085938 C 309.21875 276.199219 309.1875 276.304688 309.125 276.398438 C 309.070312 276.492188 309.003906 276.539062 308.921875 276.539062 L 307.171875 276.414062 C 307.085938 276.414062 307.015625 276.386719 306.953125 276.335938 C 306.890625 276.28125 306.859375 276.203125 306.859375 276.101562 C 306.859375 275.890625 306.960938 275.789062 307.171875 275.789062 Z M 308.921875 277.289062 C 309.003906 277.289062 309.070312 277.328125 309.125 277.414062 C 309.1875 277.507812 309.21875 277.609375 309.21875 277.726562 C 309.21875 277.839844 309.1875 277.9375 309.125 278.023438 C 309.070312 278.117188 309.003906 278.164062 308.921875 278.164062 L 307.171875 278.054688 C 307.085938 278.054688 307.015625 278.023438 306.953125 277.960938 C 306.890625 277.90625 306.859375 277.828125 306.859375 277.726562 C 306.859375 277.515625 306.960938 277.414062 307.171875 277.414062 Z M 300 278.589844 "/>
</g>
</svg>
