<?xml version="1.0" encoding="UTF-8"?>
<svg xmlns="http://www.w3.org/2000/svg" xmlns:xlink="http://www.w3.org/1999/xlink" width="136pt" height="566pt" viewBox="0 0 136 566" version="1.1">
<g id="surface217">
<path style=" stroke:none;fill-rule:nonzero;fill:rgb(0%,0%,0%);fill-opacity:1;" d="M 0 0 L 96 0 L 96 566 L 0 566 Z M 0 0 "/>
<path style=" stroke:none;fill-rule:nonzero;fill:rgb(50.196078%,50.196078%,50.196078%);fill-opacity:1;" d="M 0 0 L 12 0 L 12 566 L 0 566 Z M 0 0 "/>
<path style=" stroke:none;fill-rule:nonzero;fill:rgb(0%,0%,0%);fill-opacity:1;" d="M 12 0 L 24 0 L 24 566 L 12 566 Z M 12 0 "/>
<path style=" stroke:none;fill-rule:nonzero;fill:rgb(50.196078%,50.196078%,50.196078%);fill-opacity:1;" d="M 24 0 L 36 0 L 36 566 L 24 566 Z M 24 0 "/>
<path style=" stroke:none;fill-rule:nonzero;fill:rgb(0%,0%,0%);fill-opacity:1;" d="M 36 0 L 48 0 L 48 566 L 36 566 Z M 36 0 "/>
<path style=" stroke:none;fill-rule:nonzero;fill:rgb(50.196078%,50.196078%,50.196078%);fill-opacity:1;" d="M 48 0 L 60 0 L 60 566 L 48 566 Z M 48 0 "/>
<path style=" stroke:none;fill-rule:nonzero;fill:rgb(0%,0%,0%);fill-opacity:1;" d="M 60 0 L 72 0 L 72 566 L 60 566 Z M 60 0 "/>
<path style=" stroke:none;fill-rule:nonzero;fill:rgb(50.196078%,50.196078%,50.196078%);fill-opacity:1;" d="M 72 0 L 84 0 L 84 566 L 72 566 Z M 72 0 "/>
<path style=" stroke:none;fill-rule:nonzero;fill:rgb(0%,0%,0%);fill-opacity:1;" d="M 84 0 L 96 0 L 96 566 L 84 566 Z M 84 0 "/>
<path style=" stroke:none;fill-rule:nonzero;fill:rgb(0%,0%,0%);fill-opacity:1;" d="M 116.578125 11.203125 L 127.453125 11.203125 C 128.492188 11.203125 129.378906 11.550781 130.109375 12.25 C 130.835938 12.945312 131.203125 13.773438 131.203125 14.734375 L 131.203125 15.4375 C 131.203125 15.65625 131.128906 15.820312 130.984375 15.9375 C 130.835938 16.0625 130.660156 16.125 130.453125 16.125 C 130.253906 16.125 130.082031 16.0625 129.9375 15.9375 C 129.800781 15.820312 129.734375 15.65625 129.734375 15.4375 L 129.734375 15.015625 C 129.734375 14.398438 129.523438 13.890625 129.109375 13.484375 C 128.703125 13.078125 128.195312 12.867188 127.59375 12.859375 L 125.484375 12.859375 L 125.484375 15.59375 C 125.484375 15.757812 125.414062 15.890625 125.28125 15.984375 C 125.144531 16.078125 124.988281 16.125 124.8125 16.125 C 124.644531 16.125 124.5 16.078125 124.375 15.984375 C 124.25 15.890625 124.1875 15.757812 124.1875 15.59375 L 124.1875 12.859375 L 116.578125 12.859375 C 116.421875 12.859375 116.285156 12.773438 116.171875 12.609375 C 116.054688 12.441406 116 12.238281 116 12 C 116 11.769531 116.050781 11.578125 116.15625 11.421875 C 116.257812 11.273438 116.398438 11.203125 116.578125 11.203125 Z M 119.71875 17.113281 L 121.765625 17.113281 C 122.785156 17.113281 123.675781 17.503906 124.4375 18.285156 C 125.207031 19.066406 125.59375 19.988281 125.59375 21.050781 C 125.59375 22.121094 125.210938 23.050781 124.453125 23.832031 C 123.691406 24.621094 122.796875 25.019531 121.765625 25.019531 L 119.71875 25.019531 C 118.707031 25.019531 117.804688 24.621094 117.015625 23.832031 C 116.234375 23.039062 115.84375 22.117188 115.84375 21.066406 C 115.84375 20.011719 116.234375 19.089844 117.015625 18.300781 C 117.796875 17.507812 118.695312 17.113281 119.71875 17.113281 Z M 119.71875 18.785156 C 119.09375 18.785156 118.539062 19.007812 118.0625 19.457031 C 117.582031 19.914062 117.34375 20.449219 117.34375 21.066406 C 117.34375 21.691406 117.582031 22.226562 118.0625 22.675781 C 118.550781 23.132812 119.101562 23.363281 119.71875 23.363281 L 121.765625 23.363281 C 122.359375 23.363281 122.894531 23.132812 123.375 22.675781 C 123.851562 22.226562 124.09375 21.683594 124.09375 21.050781 C 124.09375 20.425781 123.851562 19.886719 123.375 19.441406 C 122.894531 19.003906 122.359375 18.785156 121.765625 18.785156 Z M 116.59375 27.199219 L 130.625 27.199219 C 130.789062 27.199219 130.925781 27.269531 131.03125 27.417969 C 131.144531 27.574219 131.203125 27.769531 131.203125 28.011719 C 131.203125 28.261719 131.144531 28.464844 131.03125 28.621094 C 130.925781 28.777344 130.789062 28.855469 130.625 28.855469 L 116.59375 28.855469 C 116.445312 28.855469 116.3125 28.769531 116.1875 28.605469 C 116.0625 28.4375 116 28.238281 116 28.011719 C 116 27.792969 116.054688 27.597656 116.171875 27.433594 C 116.296875 27.277344 116.4375 27.199219 116.59375 27.199219 Z M 119.71875 31.03125 L 121.765625 31.03125 C 122.816406 31.03125 123.71875 31.382812 124.46875 32.09375 C 125.21875 32.800781 125.59375 33.644531 125.59375 34.625 C 125.59375 35.21875 125.445312 35.738281 125.15625 36.1875 C 124.863281 36.644531 124.503906 36.992188 124.078125 37.234375 L 130.625 37.234375 C 130.789062 37.234375 130.925781 37.3125 131.03125 37.46875 C 131.144531 37.632812 131.203125 37.835938 131.203125 38.078125 C 131.203125 38.316406 131.144531 38.515625 131.03125 38.671875 C 130.925781 38.828125 130.789062 38.90625 130.625 38.90625 L 116.59375 38.90625 C 116.4375 38.90625 116.296875 38.820312 116.171875 38.65625 C 116.054688 38.5 116 38.304688 116 38.078125 C 116 37.878906 116.054688 37.703125 116.171875 37.546875 C 116.296875 37.390625 116.4375 37.3125 116.59375 37.3125 L 117.40625 37.3125 C 116.976562 37.09375 116.609375 36.726562 116.296875 36.21875 C 115.996094 35.707031 115.84375 35.15625 115.84375 34.5625 C 115.84375 33.625 116.234375 32.800781 117.015625 32.09375 C 117.804688 31.382812 118.707031 31.03125 119.71875 31.03125 Z M 119.71875 32.703125 C 119.101562 32.703125 118.550781 32.925781 118.0625 33.375 C 117.582031 33.832031 117.34375 34.359375 117.34375 34.953125 C 117.34375 35.546875 117.566406 36.070312 118.015625 36.53125 C 118.460938 37 118.851562 37.234375 119.1875 37.234375 L 121.765625 37.234375 C 122.453125 37.234375 123.007812 37.003906 123.4375 36.546875 C 123.875 36.097656 124.09375 35.578125 124.09375 34.984375 C 124.09375 34.367188 123.851562 33.832031 123.375 33.375 C 122.894531 32.925781 122.359375 32.703125 121.765625 32.703125 Z M 116.59375 41.523438 L 130.015625 41.523438 C 130.203125 41.523438 130.347656 41.59375 130.453125 41.742188 C 130.566406 41.898438 130.625 42.078125 130.625 42.289062 L 130.625 49.398438 C 130.625 49.585938 130.550781 49.726562 130.40625 49.820312 C 130.257812 49.921875 130.082031 49.976562 129.875 49.976562 C 129.664062 49.976562 129.484375 49.921875 129.328125 49.820312 C 129.171875 49.714844 129.09375 49.574219 129.09375 49.398438 L 129.09375 43.195312 L 124.015625 43.195312 L 124.015625 46.320312 C 124.015625 46.496094 123.941406 46.636719 123.796875 46.742188 C 123.660156 46.84375 123.492188 46.898438 123.296875 46.898438 C 123.128906 46.898438 122.972656 46.84375 122.828125 46.742188 C 122.691406 46.648438 122.625 46.507812 122.625 46.320312 L 122.625 43.195312 L 117.515625 43.195312 L 117.515625 49.398438 C 117.515625 49.574219 117.4375 49.714844 117.28125 49.820312 C 117.132812 49.921875 116.953125 49.976562 116.734375 49.976562 C 116.535156 49.976562 116.363281 49.921875 116.21875 49.820312 C 116.070312 49.726562 116 49.585938 116 49.398438 L 116 42.289062 C 116 42.078125 116.050781 41.898438 116.15625 41.742188 C 116.257812 41.59375 116.40625 41.523438 116.59375 41.523438 Z M 124.796875 50.613281 C 124.984375 50.613281 125.148438 50.726562 125.296875 50.957031 C 125.441406 51.195312 125.515625 51.433594 125.515625 51.675781 C 125.515625 51.957031 125.410156 52.136719 125.203125 52.222656 L 118.40625 54.753906 L 125.125 57.253906 C 125.382812 57.367188 125.515625 57.550781 125.515625 57.800781 C 125.515625 58.007812 125.441406 58.238281 125.296875 58.488281 C 125.148438 58.746094 124.984375 58.878906 124.796875 58.878906 C 124.691406 58.878906 124.585938 58.851562 124.484375 58.800781 L 116.1875 55.519531 C 115.9375 55.414062 115.8125 55.160156 115.8125 54.753906 C 115.8125 54.347656 115.9375 54.085938 116.1875 53.972656 L 124.484375 50.691406 C 124.640625 50.636719 124.742188 50.613281 124.796875 50.613281 Z M 119.71875 59.933594 L 121.8125 59.933594 C 122.84375 59.933594 123.726562 60.324219 124.46875 61.105469 C 125.21875 61.886719 125.59375 62.824219 125.59375 63.917969 C 125.59375 64.957031 125.242188 65.859375 124.546875 66.621094 C 123.847656 67.378906 122.972656 67.761719 121.921875 67.761719 C 121.535156 67.761719 121.222656 67.714844 120.984375 67.621094 C 120.753906 67.527344 120.585938 67.378906 120.484375 67.183594 C 120.390625 66.996094 120.328125 66.816406 120.296875 66.652344 C 120.273438 66.484375 120.265625 66.261719 120.265625 65.980469 L 120.265625 61.605469 L 119.65625 61.605469 C 118.925781 61.605469 118.335938 61.863281 117.890625 62.386719 C 117.453125 62.917969 117.234375 63.597656 117.234375 64.433594 C 117.234375 64.878906 117.300781 65.265625 117.4375 65.589844 C 117.570312 65.910156 117.703125 66.171875 117.828125 66.371094 C 117.953125 66.578125 118.015625 66.738281 118.015625 66.855469 C 118.015625 67.042969 117.929688 67.203125 117.765625 67.339844 C 117.597656 67.472656 117.429688 67.542969 117.265625 67.542969 C 116.953125 67.542969 116.632812 67.234375 116.3125 66.621094 C 116 66.015625 115.84375 65.269531 115.84375 64.386719 C 115.84375 63.074219 116.195312 62 116.90625 61.167969 C 117.625 60.34375 118.5625 59.933594 119.71875 59.933594 Z M 121.375 61.605469 L 121.375 65.308594 C 121.375 65.652344 121.414062 65.878906 121.5 65.996094 C 121.59375 66.121094 121.765625 66.183594 122.015625 66.183594 C 122.617188 66.183594 123.144531 65.957031 123.59375 65.511719 C 124.050781 65.074219 124.28125 64.535156 124.28125 63.902344 C 124.28125 63.277344 124.066406 62.734375 123.640625 62.277344 C 123.222656 61.828125 122.707031 61.605469 122.09375 61.605469 Z M 116.59375 69.609375 L 124.90625 69.609375 C 125.070312 69.609375 125.207031 69.679688 125.3125 69.828125 C 125.425781 69.984375 125.484375 70.179688 125.484375 70.421875 C 125.484375 70.628906 125.425781 70.804688 125.3125 70.953125 C 125.207031 71.109375 125.070312 71.1875 124.90625 71.1875 L 123.953125 71.1875 C 124.410156 71.425781 124.796875 71.773438 125.109375 72.234375 C 125.429688 72.703125 125.59375 73.222656 125.59375 73.796875 L 125.59375 74.484375 C 125.59375 74.648438 125.515625 74.796875 125.359375 74.921875 C 125.210938 75.054688 125.039062 75.125 124.84375 75.125 C 124.644531 75.125 124.46875 75.054688 124.3125 74.921875 C 124.164062 74.796875 124.09375 74.648438 124.09375 74.484375 L 124.09375 73.796875 C 124.09375 73.117188 123.816406 72.523438 123.265625 72.015625 C 122.722656 71.515625 122.019531 71.265625 121.15625 71.265625 L 116.59375 71.265625 C 116.445312 71.265625 116.3125 71.179688 116.1875 71.015625 C 116.0625 70.847656 116 70.648438 116 70.421875 C 116 70.191406 116.054688 70 116.171875 69.84375 C 116.296875 69.6875 116.4375 69.609375 116.59375 69.609375 Z M 124.796875 75.535156 C 125.015625 75.535156 125.203125 75.652344 125.359375 75.894531 C 125.515625 76.132812 125.59375 76.371094 125.59375 76.613281 C 125.59375 76.894531 125.484375 77.074219 125.265625 77.160156 L 118.296875 79.800781 L 125.265625 82.175781 C 125.484375 82.269531 125.59375 82.445312 125.59375 82.707031 C 125.59375 82.925781 125.515625 83.160156 125.359375 83.410156 C 125.203125 83.660156 125.007812 83.785156 124.78125 83.785156 C 124.71875 83.785156 124.648438 83.761719 124.578125 83.722656 L 116.4375 80.675781 L 115.4375 80.300781 C 115.25 80.238281 114.933594 80.101562 114.484375 79.894531 C 114.027344 79.695312 113.699219 79.527344 113.5 79.394531 C 113.304688 79.269531 113.042969 79.085938 112.71875 78.847656 C 112.386719 78.605469 112.148438 78.371094 112 78.144531 C 111.855469 77.914062 111.726562 77.644531 111.609375 77.332031 C 111.484375 77.019531 111.421875 76.691406 111.421875 76.347656 C 111.421875 75.824219 111.667969 75.566406 112.15625 75.566406 C 112.636719 75.566406 112.875 75.722656 112.875 76.035156 C 112.875 76.636719 113.214844 77.222656 113.890625 77.785156 C 114.570312 78.355469 115.433594 78.742188 116.484375 78.941406 L 124.578125 75.613281 C 124.660156 75.558594 124.734375 75.535156 124.796875 75.535156 Z M 116.15625 89.335938 L 130.78125 89.335938 C 130.957031 89.335938 131.097656 89.414062 131.203125 89.570312 C 131.304688 89.726562 131.359375 89.902344 131.359375 90.101562 L 131.359375 93.382812 C 131.359375 93.546875 131.285156 93.683594 131.140625 93.789062 C 130.992188 93.902344 130.820312 93.960938 130.625 93.960938 C 130.40625 93.960938 130.222656 93.902344 130.078125 93.789062 C 129.929688 93.683594 129.859375 93.546875 129.859375 93.382812 L 129.859375 91.023438 L 117.078125 91.023438 L 117.078125 93.382812 C 117.078125 93.546875 117.003906 93.683594 116.859375 93.789062 C 116.710938 93.902344 116.53125 93.960938 116.3125 93.960938 C 116.113281 93.960938 115.945312 93.902344 115.796875 93.789062 C 115.652344 93.683594 115.578125 93.546875 115.578125 93.382812 L 115.578125 90.101562 C 115.578125 89.902344 115.636719 89.726562 115.75 89.570312 C 115.855469 89.414062 115.992188 89.335938 116.15625 89.335938 Z M 119.28125 94.835938 C 119.582031 94.835938 119.785156 94.890625 119.890625 95.007812 C 120.003906 95.121094 120.0625 95.324219 120.0625 95.617188 C 120.0625 95.9375 120.003906 96.164062 119.890625 96.289062 C 119.785156 96.414062 119.625 96.476562 119.40625 96.476562 C 118.894531 96.476562 118.429688 96.6875 118.015625 97.117188 C 117.609375 97.554688 117.40625 98.214844 117.40625 99.101562 C 117.40625 100.882812 118.320312 101.773438 120.15625 101.773438 L 120.546875 101.773438 C 122.171875 101.773438 122.984375 100.882812 122.984375 99.101562 C 122.984375 98.714844 123.210938 98.523438 123.671875 98.523438 C 124.140625 98.523438 124.375 98.714844 124.375 99.101562 C 124.375 99.871094 124.546875 100.449219 124.890625 100.835938 C 125.242188 101.21875 125.875 101.414062 126.78125 101.414062 C 128.34375 101.414062 129.125 100.667969 129.125 99.179688 C 129.125 98.324219 128.929688 97.71875 128.546875 97.367188 C 128.171875 97.011719 127.722656 96.835938 127.203125 96.835938 C 126.703125 96.835938 126.453125 96.570312 126.453125 96.039062 C 126.453125 95.683594 126.507812 95.449219 126.625 95.335938 C 126.75 95.21875 126.976562 95.164062 127.3125 95.164062 C 127.644531 95.164062 127.988281 95.226562 128.34375 95.351562 C 128.695312 95.476562 129.050781 95.679688 129.40625 95.960938 C 129.757812 96.242188 130.050781 96.664062 130.28125 97.226562 C 130.507812 97.796875 130.625 98.464844 130.625 99.226562 C 130.625 101.765625 129.441406 103.039062 127.078125 103.039062 C 126.234375 103.039062 125.519531 102.890625 124.9375 102.601562 C 124.351562 102.308594 123.945312 101.914062 123.71875 101.414062 C 123.175781 102.777344 122.117188 103.460938 120.546875 103.460938 L 120.15625 103.460938 C 118.6875 103.460938 117.601562 103.058594 116.90625 102.257812 C 116.21875 101.453125 115.875 100.402344 115.875 99.101562 C 115.875 97.726562 116.222656 96.667969 116.921875 95.929688 C 117.628906 95.199219 118.414062 94.835938 119.28125 94.835938 Z M 116.921875 104.980469 C 117.210938 104.980469 117.460938 105.074219 117.671875 105.261719 C 117.878906 105.457031 117.984375 105.703125 117.984375 105.996094 C 117.984375 106.277344 117.878906 106.519531 117.671875 106.730469 C 117.472656 106.9375 117.222656 107.042969 116.921875 107.042969 C 116.679688 107.042969 115.875 106.753906 114.5 106.183594 C 114.3125 106.097656 114.21875 105.953125 114.21875 105.746094 C 114.21875 105.597656 114.265625 105.464844 114.359375 105.339844 C 114.445312 105.222656 114.558594 105.167969 114.703125 105.167969 C 114.796875 105.167969 114.871094 105.175781 114.921875 105.199219 L 115.953125 105.621094 C 116.128906 105.191406 116.453125 104.980469 116.921875 104.980469 Z M 119.34375 108.28125 C 119.875 108.28125 120.140625 108.5625 120.140625 109.125 C 120.140625 109.6875 119.910156 109.96875 119.453125 109.96875 C 118.816406 109.96875 118.316406 110.210938 117.953125 110.703125 C 117.585938 111.191406 117.40625 111.816406 117.40625 112.578125 C 117.40625 113.421875 117.632812 114.070312 118.09375 114.53125 C 118.5625 114.988281 119.265625 115.21875 120.203125 115.21875 L 120.578125 115.21875 C 121.484375 115.21875 122.164062 114.988281 122.625 114.53125 C 123.082031 114.070312 123.3125 113.425781 123.3125 112.59375 L 123.3125 109.765625 C 123.3125 109.242188 123.535156 108.984375 123.984375 108.984375 C 124.117188 108.984375 124.265625 108.992188 124.421875 109.015625 L 130.015625 109.4375 C 130.421875 109.46875 130.625 109.613281 130.625 109.875 L 130.625 115.640625 C 130.625 115.816406 130.546875 115.953125 130.390625 116.046875 C 130.234375 116.140625 130.054688 116.1875 129.859375 116.1875 C 129.660156 116.1875 129.484375 116.140625 129.328125 116.046875 C 129.171875 115.953125 129.09375 115.816406 129.09375 115.640625 L 129.09375 110.90625 L 124.71875 110.59375 L 124.71875 112.59375 C 124.71875 113.90625 124.382812 114.953125 123.71875 115.734375 C 123.050781 116.515625 122.003906 116.90625 120.578125 116.90625 L 120.203125 116.90625 C 118.722656 116.90625 117.628906 116.507812 116.921875 115.71875 C 116.222656 114.9375 115.875 113.894531 115.875 112.59375 C 115.875 111.257812 116.210938 110.207031 116.890625 109.4375 C 117.566406 108.664062 118.382812 108.28125 119.34375 108.28125 Z M 116.3125 117.839844 C 116.53125 117.839844 116.710938 117.890625 116.859375 117.996094 C 117.003906 118.109375 117.078125 118.25 117.078125 118.417969 L 117.078125 120.777344 L 129.859375 120.777344 L 129.859375 118.417969 C 129.859375 118.25 129.929688 118.109375 130.078125 117.996094 C 130.222656 117.890625 130.40625 117.839844 130.625 117.839844 C 130.820312 117.839844 130.992188 117.890625 131.140625 117.996094 C 131.285156 118.109375 131.359375 118.25 131.359375 118.417969 L 131.359375 121.699219 C 131.359375 121.894531 131.304688 122.074219 131.203125 122.230469 C 131.097656 122.386719 130.957031 122.464844 130.78125 122.464844 L 116.15625 122.464844 C 115.992188 122.464844 115.855469 122.386719 115.75 122.230469 C 115.636719 122.074219 115.578125 121.894531 115.578125 121.699219 L 115.578125 118.417969 C 115.578125 118.25 115.652344 118.109375 115.796875 117.996094 C 115.945312 117.890625 116.113281 117.839844 116.3125 117.839844 Z M 119.09375 128.902344 L 127.578125 128.902344 C 128.628906 128.902344 129.519531 129.285156 130.25 130.058594 C 130.988281 130.828125 131.359375 131.734375 131.359375 132.777344 C 131.359375 133.328125 131.113281 133.605469 130.625 133.605469 C 130.394531 133.605469 130.207031 133.546875 130.0625 133.433594 C 129.925781 133.328125 129.859375 133.191406 129.859375 133.027344 C 129.859375 132.285156 129.628906 131.691406 129.171875 131.246094 C 128.710938 130.796875 128.179688 130.574219 127.578125 130.574219 L 119.09375 130.574219 C 118.363281 130.574219 117.847656 130.8125 117.546875 131.292969 C 117.242188 131.78125 117.09375 132.359375 117.09375 133.027344 C 117.09375 133.410156 116.84375 133.605469 116.34375 133.605469 C 115.84375 133.605469 115.59375 133.316406 115.59375 132.746094 C 115.59375 131.660156 115.898438 130.75 116.5 130.011719 C 117.113281 129.269531 117.976562 128.902344 119.09375 128.902344 Z M 117.359375 134.554688 C 117.535156 134.554688 117.707031 134.609375 117.875 134.726562 C 118.039062 134.839844 118.125 134.980469 118.125 135.148438 C 118.125 135.25 118.039062 135.402344 117.875 135.601562 C 117.71875 135.796875 117.5625 136.085938 117.40625 136.460938 C 117.257812 136.835938 117.1875 137.273438 117.1875 137.773438 C 117.1875 138.4375 117.304688 138.921875 117.546875 139.226562 C 117.785156 139.527344 118.082031 139.679688 118.4375 139.679688 C 118.875 139.679688 119.222656 139.511719 119.484375 139.179688 C 119.742188 138.84375 119.941406 138.4375 120.078125 137.960938 C 120.210938 137.480469 120.359375 137 120.515625 136.523438 C 120.679688 136.042969 120.945312 135.636719 121.3125 135.304688 C 121.6875 134.96875 122.179688 134.804688 122.796875 134.804688 C 123.554688 134.804688 124.210938 135.070312 124.765625 135.601562 C 125.316406 136.140625 125.59375 136.96875 125.59375 138.085938 C 125.59375 138.792969 125.484375 139.4375 125.265625 140.023438 C 125.046875 140.605469 124.796875 140.898438 124.515625 140.898438 C 124.359375 140.898438 124.179688 140.835938 123.984375 140.710938 C 123.785156 140.585938 123.6875 140.429688 123.6875 140.242188 C 123.6875 140.1875 123.78125 139.929688 123.96875 139.460938 C 124.164062 139 124.265625 138.546875 124.265625 138.101562 C 124.265625 137.484375 124.117188 137.027344 123.828125 136.726562 C 123.546875 136.421875 123.222656 136.273438 122.859375 136.273438 C 122.484375 136.273438 122.1875 136.4375 121.96875 136.773438 C 121.757812 137.105469 121.59375 137.515625 121.46875 138.007812 C 121.351562 138.496094 121.207031 138.980469 121.03125 139.460938 C 120.863281 139.9375 120.566406 140.34375 120.140625 140.679688 C 119.722656 141.011719 119.179688 141.179688 118.515625 141.179688 C 117.691406 141.179688 117.039062 140.882812 116.5625 140.289062 C 116.082031 139.703125 115.84375 138.886719 115.84375 137.835938 C 115.84375 136.929688 116.003906 136.152344 116.328125 135.507812 C 116.648438 134.871094 116.992188 134.554688 117.359375 134.554688 Z M 116.59375 143.160156 L 130.625 143.160156 C 130.789062 143.160156 130.925781 143.230469 131.03125 143.378906 C 131.144531 143.535156 131.203125 143.730469 131.203125 143.972656 C 131.203125 144.222656 131.144531 144.425781 131.03125 144.582031 C 130.925781 144.738281 130.789062 144.816406 130.625 144.816406 L 116.59375 144.816406 C 116.445312 144.816406 116.3125 144.730469 116.1875 144.566406 C 116.0625 144.398438 116 144.199219 116 143.972656 C 116 143.753906 116.054688 143.558594 116.171875 143.394531 C 116.296875 143.238281 116.4375 143.160156 116.59375 143.160156 Z M 119.71875 146.992188 L 121.765625 146.992188 C 122.785156 146.992188 123.675781 147.382812 124.4375 148.164062 C 125.207031 148.945312 125.59375 149.867188 125.59375 150.929688 C 125.59375 152 125.210938 152.929688 124.453125 153.710938 C 123.691406 154.5 122.796875 154.898438 121.765625 154.898438 L 119.71875 154.898438 C 118.707031 154.898438 117.804688 154.5 117.015625 153.710938 C 116.234375 152.917969 115.84375 151.996094 115.84375 150.945312 C 115.84375 149.890625 116.234375 148.96875 117.015625 148.179688 C 117.796875 147.386719 118.695312 146.992188 119.71875 146.992188 Z M 119.71875 148.664062 C 119.09375 148.664062 118.539062 148.886719 118.0625 149.335938 C 117.582031 149.792969 117.34375 150.328125 117.34375 150.945312 C 117.34375 151.570312 117.582031 152.105469 118.0625 152.554688 C 118.550781 153.011719 119.101562 153.242188 119.71875 153.242188 L 121.765625 153.242188 C 122.359375 153.242188 122.894531 153.011719 123.375 152.554688 C 123.851562 152.105469 124.09375 151.5625 124.09375 150.929688 C 124.09375 150.304688 123.851562 149.765625 123.375 149.320312 C 122.894531 148.882812 122.359375 148.664062 121.765625 148.664062 Z M 124.796875 156 C 124.992188 156 125.160156 156.109375 125.296875 156.328125 C 125.441406 156.546875 125.515625 156.773438 125.515625 157.015625 C 125.515625 157.296875 125.410156 157.476562 125.203125 157.5625 L 118.484375 159.984375 L 124.546875 161.859375 C 124.804688 161.953125 124.9375 162.160156 124.9375 162.484375 C 124.9375 162.816406 124.804688 163.03125 124.546875 163.125 L 118.421875 164.953125 L 125.203125 167.40625 C 125.410156 167.46875 125.515625 167.640625 125.515625 167.921875 C 125.515625 168.160156 125.441406 168.390625 125.296875 168.609375 C 125.160156 168.835938 124.992188 168.953125 124.796875 168.953125 C 124.691406 168.953125 124.585938 168.925781 124.484375 168.875 L 116.1875 165.765625 C 115.9375 165.671875 115.8125 165.445312 115.8125 165.09375 C 115.8125 164.738281 115.9375 164.515625 116.1875 164.421875 L 122.0625 162.484375 L 116.234375 160.578125 C 115.953125 160.484375 115.8125 160.242188 115.8125 159.859375 C 115.8125 159.515625 115.953125 159.285156 116.234375 159.171875 L 124.484375 156.078125 C 124.640625 156.023438 124.742188 156 124.796875 156 Z M 116.59375 173.859375 L 118.546875 173.859375 C 119.140625 173.859375 119.726562 174.085938 120.3125 174.546875 C 120.894531 175.003906 121.414062 175.5625 121.875 176.21875 L 123.3125 178.15625 C 123.78125 178.8125 124.304688 179.367188 124.890625 179.828125 C 125.472656 180.285156 126.0625 180.515625 126.65625 180.515625 C 127.300781 180.515625 127.863281 180.304688 128.34375 179.890625 C 128.820312 179.472656 129.0625 178.867188 129.0625 178.078125 C 129.0625 177.410156 128.875 176.863281 128.5 176.4375 C 128.125 176.019531 127.582031 175.8125 126.875 175.8125 C 126.707031 175.8125 126.554688 175.734375 126.421875 175.578125 C 126.285156 175.421875 126.21875 175.207031 126.21875 174.9375 C 126.21875 174.425781 126.546875 174.171875 127.203125 174.171875 C 128.203125 174.171875 129.019531 174.546875 129.65625 175.296875 C 130.300781 176.054688 130.625 176.984375 130.625 178.078125 C 130.625 179.253906 130.253906 180.234375 129.515625 181.015625 C 128.773438 181.804688 127.84375 182.203125 126.71875 182.203125 C 126.050781 182.203125 125.410156 182.035156 124.796875 181.703125 C 124.179688 181.378906 123.660156 180.972656 123.234375 180.484375 C 122.804688 180.003906 122.378906 179.476562 121.953125 178.90625 L 120.8125 177.296875 C 120.476562 176.816406 120.113281 176.410156 119.71875 176.078125 C 119.320312 175.753906 118.929688 175.59375 118.546875 175.59375 L 117.515625 175.59375 L 117.515625 181.734375 C 117.515625 181.898438 117.441406 182.035156 117.296875 182.140625 C 117.148438 182.253906 116.972656 182.3125 116.765625 182.3125 C 116.554688 182.3125 116.375 182.253906 116.21875 182.140625 C 116.070312 182.035156 116 181.898438 116 181.734375 L 116 174.625 C 116 174.445312 116.054688 174.273438 116.171875 174.109375 C 116.285156 173.941406 116.425781 173.859375 116.59375 173.859375 Z M 116.34375 183.257812 C 116.84375 183.257812 117.09375 183.449219 117.09375 183.835938 C 117.09375 184.5 117.242188 185.074219 117.546875 185.554688 C 117.847656 186.03125 118.363281 186.273438 119.09375 186.273438 L 127.578125 186.273438 C 128.179688 186.273438 128.710938 186.046875 129.171875 185.601562 C 129.628906 185.164062 129.859375 184.574219 129.859375 183.835938 C 129.859375 183.667969 129.925781 183.527344 130.0625 183.414062 C 130.207031 183.308594 130.394531 183.257812 130.625 183.257812 C 131.113281 183.257812 131.359375 183.53125 131.359375 184.085938 C 131.359375 185.117188 130.988281 186.015625 130.25 186.789062 C 129.519531 187.570312 128.628906 187.960938 127.578125 187.960938 L 119.09375 187.960938 C 117.976562 187.960938 117.113281 187.589844 116.5 186.851562 C 115.898438 186.109375 115.59375 185.195312 115.59375 184.101562 C 115.59375 183.539062 115.84375 183.257812 116.34375 183.257812 Z M 118.296875 193.804688 C 118.515625 193.804688 118.722656 193.875 118.921875 194.023438 C 119.117188 194.179688 119.21875 194.351562 119.21875 194.539062 C 119.21875 194.640625 119.132812 194.789062 118.96875 194.976562 C 118.8125 195.164062 118.632812 195.351562 118.4375 195.539062 C 118.25 195.734375 118.070312 196.042969 117.90625 196.460938 C 117.738281 196.875 117.644531 197.34375 117.625 197.867188 L 122.9375 197.867188 L 123.34375 196.789062 C 123.4375 196.527344 123.59375 196.199219 123.8125 195.804688 C 124.039062 195.417969 124.269531 195.125 124.5 194.929688 C 124.738281 194.742188 125.054688 194.5625 125.453125 194.398438 C 125.847656 194.242188 126.289062 194.164062 126.78125 194.164062 C 127.382812 194.164062 127.914062 194.265625 128.375 194.476562 C 128.832031 194.695312 129.191406 194.984375 129.453125 195.351562 C 129.722656 195.714844 129.925781 196.105469 130.0625 196.523438 C 130.207031 196.9375 130.300781 197.386719 130.34375 197.867188 L 130.9375 197.867188 C 131.039062 197.867188 131.132812 197.914062 131.21875 198.007812 C 131.3125 198.109375 131.359375 198.234375 131.359375 198.382812 C 131.359375 198.515625 131.3125 198.636719 131.21875 198.742188 C 131.132812 198.84375 131.039062 198.898438 130.9375 198.898438 L 130.375 198.898438 C 130.332031 199.699219 130.195312 200.421875 129.96875 201.070312 C 129.738281 201.726562 129.4375 202.054688 129.0625 202.054688 C 128.875 202.054688 128.671875 201.984375 128.453125 201.851562 C 128.242188 201.726562 128.140625 201.554688 128.140625 201.335938 C 128.140625 201.273438 128.253906 200.992188 128.484375 200.492188 C 128.722656 200 128.851562 199.46875 128.875 198.898438 L 124.3125 198.898438 C 124.132812 199.417969 123.953125 199.84375 123.765625 200.179688 C 123.585938 200.523438 123.34375 200.882812 123.03125 201.257812 C 122.71875 201.640625 122.316406 201.929688 121.828125 202.117188 C 121.335938 202.3125 120.769531 202.414062 120.125 202.414062 C 118.945312 202.414062 118.015625 202.09375 117.328125 201.460938 C 116.648438 200.835938 116.238281 199.980469 116.09375 198.898438 L 115.375 198.898438 C 115.273438 198.898438 115.179688 198.84375 115.09375 198.742188 C 115 198.636719 114.953125 198.515625 114.953125 198.382812 C 114.953125 198.234375 115 198.109375 115.09375 198.007812 C 115.179688 197.914062 115.273438 197.867188 115.375 197.867188 L 116.046875 197.867188 C 116.054688 196.71875 116.3125 195.757812 116.8125 194.976562 C 117.320312 194.195312 117.816406 193.804688 118.296875 193.804688 Z M 126.9375 195.757812 C 126.3125 195.757812 125.84375 195.933594 125.53125 196.289062 C 125.21875 196.652344 124.925781 197.203125 124.65625 197.945312 L 128.859375 197.945312 C 128.710938 196.484375 128.070312 195.757812 126.9375 195.757812 Z M 117.65625 198.820312 C 117.875 200.152344 118.640625 200.820312 119.953125 200.820312 C 120.648438 200.820312 121.191406 200.648438 121.578125 200.304688 C 121.960938 199.960938 122.289062 199.464844 122.5625 198.820312 Z M 119.71875 208.03125 L 121.765625 208.03125 C 122.816406 208.03125 123.71875 208.382812 124.46875 209.09375 C 125.21875 209.800781 125.59375 210.644531 125.59375 211.625 C 125.59375 212.21875 125.445312 212.738281 125.15625 213.1875 C 124.863281 213.644531 124.503906 213.992188 124.078125 214.234375 L 130.625 214.234375 C 130.789062 214.234375 130.925781 214.3125 131.03125 214.46875 C 131.144531 214.632812 131.203125 214.835938 131.203125 215.078125 C 131.203125 215.316406 131.144531 215.515625 131.03125 215.671875 C 130.925781 215.828125 130.789062 215.90625 130.625 215.90625 L 116.59375 215.90625 C 116.4375 215.90625 116.296875 215.820312 116.171875 215.65625 C 116.054688 215.5 116 215.304688 116 215.078125 C 116 214.878906 116.054688 214.703125 116.171875 214.546875 C 116.296875 214.390625 116.4375 214.3125 116.59375 214.3125 L 117.40625 214.3125 C 116.976562 214.09375 116.609375 213.726562 116.296875 213.21875 C 115.996094 212.707031 115.84375 212.15625 115.84375 211.5625 C 115.84375 210.625 116.234375 209.800781 117.015625 209.09375 C 117.804688 208.382812 118.707031 208.03125 119.71875 208.03125 Z M 119.71875 209.703125 C 119.101562 209.703125 118.550781 209.925781 118.0625 210.375 C 117.582031 210.832031 117.34375 211.359375 117.34375 211.953125 C 117.34375 212.546875 117.566406 213.070312 118.015625 213.53125 C 118.460938 214 118.851562 214.234375 119.1875 214.234375 L 121.765625 214.234375 C 122.453125 214.234375 123.007812 214.003906 123.4375 213.546875 C 123.875 213.097656 124.09375 212.578125 124.09375 211.984375 C 124.09375 211.367188 123.851562 210.832031 123.375 210.375 C 122.894531 209.925781 122.359375 209.703125 121.765625 209.703125 Z M 119.71875 217.914062 L 121.8125 217.914062 C 122.84375 217.914062 123.726562 218.304688 124.46875 219.085938 C 125.21875 219.867188 125.59375 220.804688 125.59375 221.898438 C 125.59375 222.9375 125.242188 223.839844 124.546875 224.601562 C 123.847656 225.359375 122.972656 225.742188 121.921875 225.742188 C 121.535156 225.742188 121.222656 225.695312 120.984375 225.601562 C 120.753906 225.507812 120.585938 225.359375 120.484375 225.164062 C 120.390625 224.976562 120.328125 224.796875 120.296875 224.632812 C 120.273438 224.464844 120.265625 224.242188 120.265625 223.960938 L 120.265625 219.585938 L 119.65625 219.585938 C 118.925781 219.585938 118.335938 219.84375 117.890625 220.367188 C 117.453125 220.898438 117.234375 221.578125 117.234375 222.414062 C 117.234375 222.859375 117.300781 223.246094 117.4375 223.570312 C 117.570312 223.890625 117.703125 224.152344 117.828125 224.351562 C 117.953125 224.558594 118.015625 224.71875 118.015625 224.835938 C 118.015625 225.023438 117.929688 225.183594 117.765625 225.320312 C 117.597656 225.453125 117.429688 225.523438 117.265625 225.523438 C 116.953125 225.523438 116.632812 225.214844 116.3125 224.601562 C 116 223.996094 115.84375 223.25 115.84375 222.367188 C 115.84375 221.054688 116.195312 219.980469 116.90625 219.148438 C 117.625 218.324219 118.5625 217.914062 119.71875 217.914062 Z M 121.375 219.585938 L 121.375 223.289062 C 121.375 223.632812 121.414062 223.859375 121.5 223.976562 C 121.59375 224.101562 121.765625 224.164062 122.015625 224.164062 C 122.617188 224.164062 123.144531 223.9375 123.59375 223.492188 C 124.050781 223.054688 124.28125 222.515625 124.28125 221.882812 C 124.28125 221.257812 124.066406 220.714844 123.640625 220.257812 C 123.222656 219.808594 122.707031 219.585938 122.09375 219.585938 Z M 116.59375 227.585938 L 124.90625 227.585938 C 125.070312 227.585938 125.207031 227.65625 125.3125 227.804688 C 125.425781 227.960938 125.484375 228.15625 125.484375 228.398438 C 125.484375 228.59375 125.425781 228.773438 125.3125 228.929688 C 125.195312 229.085938 125.0625 229.164062 124.90625 229.164062 L 124.078125 229.164062 C 124.503906 229.371094 124.863281 229.710938 125.15625 230.179688 C 125.445312 230.65625 125.59375 231.210938 125.59375 231.835938 C 125.59375 232.78125 125.21875 233.605469 124.46875 234.304688 C 123.71875 235 122.816406 235.351562 121.765625 235.351562 L 116.59375 235.351562 C 116.40625 235.351562 116.257812 235.265625 116.15625 235.101562 C 116.050781 234.933594 116 234.742188 116 234.523438 C 116 234.304688 116.050781 234.109375 116.15625 233.945312 C 116.257812 233.777344 116.40625 233.695312 116.59375 233.695312 L 121.765625 233.695312 C 122.359375 233.695312 122.894531 233.464844 123.375 233.007812 C 123.851562 232.558594 124.09375 232.027344 124.09375 231.414062 C 124.09375 230.839844 123.875 230.335938 123.4375 229.898438 C 123.007812 229.460938 122.453125 229.242188 121.765625 229.242188 L 116.59375 229.242188 C 116.445312 229.242188 116.3125 229.152344 116.1875 228.976562 C 116.0625 228.796875 116 228.605469 116 228.398438 C 116 228.167969 116.054688 227.976562 116.171875 227.820312 C 116.296875 227.664062 116.4375 227.585938 116.59375 227.585938 Z M 117.359375 237.054688 C 117.535156 237.054688 117.707031 237.109375 117.875 237.226562 C 118.039062 237.339844 118.125 237.480469 118.125 237.648438 C 118.125 237.75 118.039062 237.902344 117.875 238.101562 C 117.71875 238.296875 117.5625 238.585938 117.40625 238.960938 C 117.257812 239.335938 117.1875 239.773438 117.1875 240.273438 C 117.1875 240.9375 117.304688 241.421875 117.546875 241.726562 C 117.785156 242.027344 118.082031 242.179688 118.4375 242.179688 C 118.875 242.179688 119.222656 242.011719 119.484375 241.679688 C 119.742188 241.34375 119.941406 240.9375 120.078125 240.460938 C 120.210938 239.980469 120.359375 239.5 120.515625 239.023438 C 120.679688 238.542969 120.945312 238.136719 121.3125 237.804688 C 121.6875 237.46875 122.179688 237.304688 122.796875 237.304688 C 123.554688 237.304688 124.210938 237.570312 124.765625 238.101562 C 125.316406 238.640625 125.59375 239.46875 125.59375 240.585938 C 125.59375 241.292969 125.484375 241.9375 125.265625 242.523438 C 125.046875 243.105469 124.796875 243.398438 124.515625 243.398438 C 124.359375 243.398438 124.179688 243.335938 123.984375 243.210938 C 123.785156 243.085938 123.6875 242.929688 123.6875 242.742188 C 123.6875 242.6875 123.78125 242.429688 123.96875 241.960938 C 124.164062 241.5 124.265625 241.046875 124.265625 240.601562 C 124.265625 239.984375 124.117188 239.527344 123.828125 239.226562 C 123.546875 238.921875 123.222656 238.773438 122.859375 238.773438 C 122.484375 238.773438 122.1875 238.9375 121.96875 239.273438 C 121.757812 239.605469 121.59375 240.015625 121.46875 240.507812 C 121.351562 240.996094 121.207031 241.480469 121.03125 241.960938 C 120.863281 242.4375 120.566406 242.84375 120.140625 243.179688 C 119.722656 243.511719 119.179688 243.679688 118.515625 243.679688 C 117.691406 243.679688 117.039062 243.382812 116.5625 242.789062 C 116.082031 242.203125 115.84375 241.386719 115.84375 240.335938 C 115.84375 239.429688 116.003906 238.652344 116.328125 238.007812 C 116.648438 237.371094 116.992188 237.054688 117.359375 237.054688 Z M 128.359375 245.566406 C 128.554688 245.355469 128.78125 245.253906 129.03125 245.253906 C 129.289062 245.253906 129.515625 245.351562 129.703125 245.550781 C 129.890625 245.757812 129.984375 246.007812 129.984375 246.300781 C 129.984375 246.582031 129.890625 246.820312 129.703125 247.019531 C 129.515625 247.214844 129.289062 247.316406 129.03125 247.316406 C 128.78125 247.316406 128.554688 247.214844 128.359375 247.019531 C 128.171875 246.820312 128.078125 246.582031 128.078125 246.300781 C 128.078125 246.019531 128.171875 245.773438 128.359375 245.566406 Z M 116.59375 245.488281 L 124.90625 245.488281 C 125.070312 245.488281 125.207031 245.566406 125.3125 245.722656 C 125.425781 245.878906 125.484375 246.070312 125.484375 246.300781 C 125.484375 246.539062 125.425781 246.738281 125.3125 246.894531 C 125.207031 247.058594 125.070312 247.144531 124.90625 247.144531 L 116.59375 247.144531 C 116.445312 247.144531 116.3125 247.058594 116.1875 246.894531 C 116.0625 246.726562 116 246.527344 116 246.300781 C 116 246.070312 116.054688 245.878906 116.171875 245.722656 C 116.296875 245.566406 116.4375 245.488281 116.59375 245.488281 Z M 119.015625 249.460938 L 129.3125 249.460938 C 129.476562 249.460938 129.617188 249.542969 129.734375 249.710938 C 129.847656 249.886719 129.90625 250.074219 129.90625 250.273438 C 129.90625 250.492188 129.847656 250.683594 129.734375 250.851562 C 129.617188 251.027344 129.476562 251.117188 129.3125 251.117188 L 125.484375 251.117188 L 125.484375 253.632812 C 125.484375 253.789062 125.414062 253.90625 125.28125 253.992188 C 125.144531 254.085938 124.988281 254.132812 124.8125 254.132812 C 124.644531 254.132812 124.5 254.085938 124.375 253.992188 C 124.25 253.90625 124.1875 253.789062 124.1875 253.632812 L 124.1875 251.117188 L 119.015625 251.117188 C 118.441406 251.117188 118.035156 251.242188 117.796875 251.492188 C 117.566406 251.742188 117.453125 252.167969 117.453125 252.773438 L 117.453125 253.398438 C 117.453125 253.625 117.382812 253.804688 117.25 253.929688 C 117.113281 254.054688 116.941406 254.117188 116.734375 254.117188 C 116.535156 254.117188 116.363281 254.046875 116.21875 253.914062 C 116.070312 253.789062 116 253.617188 116 253.398438 L 116 252.773438 C 116 250.5625 117.003906 249.460938 119.015625 249.460938 Z M 124.796875 254.753906 C 125.015625 254.753906 125.203125 254.871094 125.359375 255.113281 C 125.515625 255.351562 125.59375 255.589844 125.59375 255.832031 C 125.59375 256.113281 125.484375 256.292969 125.265625 256.378906 L 118.296875 259.019531 L 125.265625 261.394531 C 125.484375 261.488281 125.59375 261.664062 125.59375 261.925781 C 125.59375 262.144531 125.515625 262.378906 125.359375 262.628906 C 125.203125 262.878906 125.007812 263.003906 124.78125 263.003906 C 124.71875 263.003906 124.648438 262.980469 124.578125 262.941406 L 116.4375 259.894531 L 115.4375 259.519531 C 115.25 259.457031 114.933594 259.320312 114.484375 259.113281 C 114.027344 258.914062 113.699219 258.746094 113.5 258.613281 C 113.304688 258.488281 113.042969 258.304688 112.71875 258.066406 C 112.386719 257.824219 112.148438 257.589844 112 257.363281 C 111.855469 257.132812 111.726562 256.863281 111.609375 256.550781 C 111.484375 256.238281 111.421875 255.910156 111.421875 255.566406 C 111.421875 255.042969 111.667969 254.785156 112.15625 254.785156 C 112.636719 254.785156 112.875 254.941406 112.875 255.253906 C 112.875 255.855469 113.214844 256.441406 113.890625 257.003906 C 114.570312 257.574219 115.433594 257.960938 116.484375 258.160156 L 124.578125 254.832031 C 124.660156 254.777344 124.734375 254.753906 124.796875 254.753906 Z M 127.5 267.449219 C 127.78125 267.449219 128.015625 267.566406 128.203125 267.808594 L 130.375 269.636719 C 130.550781 269.8125 130.640625 269.988281 130.640625 270.167969 C 130.640625 270.355469 130.582031 270.519531 130.46875 270.667969 C 130.363281 270.824219 130.222656 270.902344 130.046875 270.902344 L 116.59375 270.902344 C 116.40625 270.902344 116.257812 270.816406 116.15625 270.652344 C 116.050781 270.484375 116 270.285156 116 270.058594 C 116 269.828125 116.050781 269.628906 116.15625 269.464844 C 116.257812 269.296875 116.40625 269.214844 116.59375 269.214844 L 128.125 269.214844 L 127.015625 268.480469 C 126.867188 268.34375 126.796875 268.203125 126.796875 268.058594 C 126.796875 267.890625 126.863281 267.746094 127 267.621094 C 127.144531 267.503906 127.3125 267.449219 127.5 267.449219 Z M 120.234375 273.3125 L 126.265625 273.3125 C 127.765625 273.3125 128.863281 273.707031 129.5625 274.5 C 130.269531 275.300781 130.625 276.367188 130.625 277.703125 C 130.625 279.035156 130.273438 280.070312 129.578125 280.8125 C 128.890625 281.5625 128.078125 281.9375 127.140625 281.9375 C 126.648438 281.9375 126.40625 281.675781 126.40625 281.15625 C 126.40625 280.570312 126.625 280.28125 127.0625 280.28125 C 127.675781 280.28125 128.164062 280.03125 128.53125 279.53125 C 128.90625 279.03125 129.09375 278.40625 129.09375 277.65625 C 129.09375 275.882812 128.148438 275 126.265625 275 L 123.453125 275 C 124.285156 275.632812 124.703125 276.609375 124.703125 277.921875 C 124.703125 280.597656 123.351562 281.9375 120.65625 281.9375 L 120.234375 281.9375 C 118.734375 281.9375 117.628906 281.546875 116.921875 280.765625 C 116.222656 279.984375 115.875 278.9375 115.875 277.625 C 115.875 276.320312 116.222656 275.273438 116.921875 274.484375 C 117.628906 273.703125 118.734375 273.3125 120.234375 273.3125 Z M 120.15625 275 C 118.257812 275 117.3125 275.878906 117.3125 277.640625 C 117.3125 279.390625 118.257812 280.265625 120.15625 280.265625 L 120.578125 280.265625 C 122.390625 280.265625 123.296875 279.390625 123.296875 277.640625 C 123.296875 275.878906 122.453125 275 120.765625 275 Z M 116 286.738281 "/>
<path style=" stroke:none;fill-rule:nonzero;fill:rgb(0%,0%,0%);fill-opacity:1;" d="M 98.296875 10.703125 C 98.515625 10.703125 98.722656 10.773438 98.921875 10.921875 C 99.117188 11.078125 99.21875 11.25 99.21875 11.4375 C 99.21875 11.539062 99.132812 11.6875 98.96875 11.875 C 98.8125 12.0625 98.632812 12.25 98.4375 12.4375 C 98.25 12.632812 98.070312 12.941406 97.90625 13.359375 C 97.738281 13.773438 97.644531 14.242188 97.625 14.765625 L 102.9375 14.765625 L 103.34375 13.6875 C 103.4375 13.425781 103.59375 13.097656 103.8125 12.703125 C 104.039062 12.316406 104.269531 12.023438 104.5 11.828125 C 104.738281 11.640625 105.054688 11.460938 105.453125 11.296875 C 105.847656 11.140625 106.289062 11.0625 106.78125 11.0625 C 107.382812 11.0625 107.914062 11.164062 108.375 11.375 C 108.832031 11.59375 109.191406 11.882812 109.453125 12.25 C 109.722656 12.613281 109.925781 13.003906 110.0625 13.421875 C 110.207031 13.835938 110.300781 14.285156 110.34375 14.765625 L 110.9375 14.765625 C 111.039062 14.765625 111.132812 14.8125 111.21875 14.90625 C 111.3125 15.007812 111.359375 15.132812 111.359375 15.28125 C 111.359375 15.414062 111.3125 15.535156 111.21875 15.640625 C 111.132812 15.742188 111.039062 15.796875 110.9375 15.796875 L 110.375 15.796875 C 110.332031 16.597656 110.195312 17.320312 109.96875 17.96875 C 109.738281 18.625 109.4375 18.953125 109.0625 18.953125 C 108.875 18.953125 108.671875 18.882812 108.453125 18.75 C 108.242188 18.625 108.140625 18.453125 108.140625 18.234375 C 108.140625 18.171875 108.253906 17.890625 108.484375 17.390625 C 108.722656 16.898438 108.851562 16.367188 108.875 15.796875 L 104.3125 15.796875 C 104.132812 16.316406 103.953125 16.742188 103.765625 17.078125 C 103.585938 17.421875 103.34375 17.78125 103.03125 18.15625 C 102.71875 18.539062 102.316406 18.828125 101.828125 19.015625 C 101.335938 19.210938 100.769531 19.3125 100.125 19.3125 C 98.945312 19.3125 98.015625 18.992188 97.328125 18.359375 C 96.648438 17.734375 96.238281 16.878906 96.09375 15.796875 L 95.375 15.796875 C 95.273438 15.796875 95.179688 15.742188 95.09375 15.640625 C 95 15.535156 94.953125 15.414062 94.953125 15.28125 C 94.953125 15.132812 95 15.007812 95.09375 14.90625 C 95.179688 14.8125 95.273438 14.765625 95.375 14.765625 L 96.046875 14.765625 C 96.054688 13.617188 96.3125 12.65625 96.8125 11.875 C 97.320312 11.09375 97.816406 10.703125 98.296875 10.703125 Z M 106.9375 12.65625 C 106.3125 12.65625 105.84375 12.832031 105.53125 13.1875 C 105.21875 13.550781 104.925781 14.101562 104.65625 14.84375 L 108.859375 14.84375 C 108.710938 13.382812 108.070312 12.65625 106.9375 12.65625 Z M 97.65625 15.71875 C 97.875 17.050781 98.640625 17.71875 99.953125 17.71875 C 100.648438 17.71875 101.191406 17.546875 101.578125 17.203125 C 101.960938 16.859375 102.289062 16.363281 102.5625 15.71875 Z M 110.859375 24.824219 C 111.003906 24.824219 111.125 24.894531 111.21875 25.042969 C 111.3125 25.1875 111.359375 25.355469 111.359375 25.542969 C 111.359375 25.730469 111.3125 25.894531 111.21875 26.042969 C 111.125 26.199219 111.003906 26.277344 110.859375 26.277344 L 107.953125 26.074219 C 107.804688 26.074219 107.679688 26.027344 107.578125 25.933594 C 107.484375 25.847656 107.4375 25.71875 107.4375 25.542969 C 107.4375 25.199219 107.609375 25.027344 107.953125 25.027344 Z M 110.859375 27.542969 C 111.003906 27.542969 111.125 27.613281 111.21875 27.761719 C 111.3125 27.90625 111.359375 28.074219 111.359375 28.261719 C 111.359375 28.449219 111.3125 28.613281 111.21875 28.761719 C 111.125 28.917969 111.003906 28.996094 110.859375 28.996094 L 107.953125 28.808594 C 107.804688 28.808594 107.679688 28.761719 107.578125 28.667969 C 107.484375 28.574219 107.4375 28.4375 107.4375 28.261719 C 107.4375 27.917969 107.609375 27.746094 107.953125 27.746094 Z M 94.125 30.136719 C 95.09375 30.136719 95.820312 30.675781 96.296875 31.761719 C 96.554688 31.082031 97.003906 30.746094 97.640625 30.746094 C 98.253906 30.746094 98.75 31.078125 99.125 31.746094 C 99.738281 30.984375 100.578125 30.605469 101.640625 30.605469 L 102.296875 30.605469 C 103.273438 30.605469 104.066406 30.925781 104.671875 31.574219 C 105.285156 32.230469 105.59375 33.089844 105.59375 34.152344 C 105.59375 35.058594 105.332031 35.839844 104.8125 36.496094 C 105.6875 36.902344 106.125 37.355469 106.125 37.855469 C 106.125 38.074219 106.054688 38.246094 105.921875 38.371094 C 105.796875 38.503906 105.65625 38.574219 105.5 38.574219 C 105.300781 38.574219 105.148438 38.464844 105.046875 38.246094 C 104.921875 37.785156 104.640625 37.421875 104.203125 37.152344 C 103.703125 37.566406 103.066406 37.777344 102.296875 37.777344 L 101.640625 37.777344 C 100.679688 37.777344 99.882812 37.4375 99.25 36.761719 C 98.625 36.082031 98.3125 35.214844 98.3125 34.152344 C 98.3125 33.609375 98.414062 33.121094 98.625 32.683594 C 98.414062 32.347656 98.1875 32.183594 97.9375 32.183594 C 97.6875 32.183594 97.488281 32.332031 97.34375 32.636719 C 97.207031 32.949219 97.125 33.328125 97.09375 33.777344 C 97.0625 34.234375 97 34.730469 96.90625 35.261719 C 96.8125 35.792969 96.6875 36.28125 96.53125 36.730469 C 96.382812 37.1875 96.128906 37.566406 95.765625 37.871094 C 95.390625 38.183594 94.917969 38.339844 94.34375 38.339844 C 93.398438 38.339844 92.671875 37.957031 92.171875 37.199219 C 91.671875 36.449219 91.421875 35.472656 91.421875 34.277344 C 91.421875 33.078125 91.667969 32.089844 92.15625 31.308594 C 92.636719 30.527344 93.292969 30.136719 94.125 30.136719 Z M 94.296875 31.714844 C 93.777344 31.714844 93.359375 31.941406 93.046875 32.402344 C 92.734375 32.871094 92.578125 33.488281 92.578125 34.261719 C 92.578125 35.011719 92.734375 35.605469 93.046875 36.042969 C 93.359375 36.488281 93.777344 36.714844 94.296875 36.714844 C 94.515625 36.714844 94.703125 36.675781 94.859375 36.605469 C 95.015625 36.53125 95.152344 36.410156 95.265625 36.246094 C 95.371094 36.089844 95.460938 35.933594 95.53125 35.777344 C 95.605469 35.621094 95.667969 35.410156 95.71875 35.152344 C 95.761719 34.902344 95.792969 34.691406 95.8125 34.527344 C 95.835938 34.359375 95.859375 34.140625 95.890625 33.871094 C 95.914062 33.597656 95.929688 33.40625 95.9375 33.292969 C 95.59375 32.238281 95.046875 31.714844 94.296875 31.714844 Z M 101.65625 32.214844 C 101.019531 32.214844 100.492188 32.390625 100.078125 32.746094 C 99.660156 33.097656 99.453125 33.582031 99.453125 34.199219 C 99.453125 34.78125 99.65625 35.25 100.0625 35.605469 C 100.476562 35.96875 101.003906 36.152344 101.640625 36.152344 L 102.296875 36.152344 C 102.910156 36.152344 103.421875 35.96875 103.828125 35.605469 C 104.242188 35.25 104.453125 34.777344 104.453125 34.183594 C 104.453125 33.566406 104.25 33.082031 103.84375 32.730469 C 103.4375 32.386719 102.921875 32.214844 102.296875 32.214844 Z M 96.59375 40.027344 L 104.90625 40.027344 C 105.070312 40.027344 105.207031 40.097656 105.3125 40.246094 C 105.425781 40.402344 105.484375 40.597656 105.484375 40.839844 C 105.484375 41.046875 105.425781 41.222656 105.3125 41.371094 C 105.207031 41.527344 105.070312 41.605469 104.90625 41.605469 L 103.953125 41.605469 C 104.410156 41.84375 104.796875 42.191406 105.109375 42.652344 C 105.429688 43.121094 105.59375 43.640625 105.59375 44.214844 L 105.59375 44.902344 C 105.59375 45.066406 105.515625 45.214844 105.359375 45.339844 C 105.210938 45.472656 105.039062 45.542969 104.84375 45.542969 C 104.644531 45.542969 104.46875 45.472656 104.3125 45.339844 C 104.164062 45.214844 104.09375 45.066406 104.09375 44.902344 L 104.09375 44.214844 C 104.09375 43.535156 103.816406 42.941406 103.265625 42.433594 C 102.722656 41.933594 102.019531 41.683594 101.15625 41.683594 L 96.59375 41.683594 C 96.445312 41.683594 96.3125 41.597656 96.1875 41.433594 C 96.0625 41.265625 96 41.066406 96 40.839844 C 96 40.609375 96.054688 40.417969 96.171875 40.261719 C 96.296875 40.105469 96.4375 40.027344 96.59375 40.027344 Z M 99.71875 46.53125 L 101.8125 46.53125 C 102.84375 46.53125 103.726562 46.921875 104.46875 47.703125 C 105.21875 48.484375 105.59375 49.421875 105.59375 50.515625 C 105.59375 51.554688 105.242188 52.457031 104.546875 53.21875 C 103.847656 53.976562 102.972656 54.359375 101.921875 54.359375 C 101.535156 54.359375 101.222656 54.3125 100.984375 54.21875 C 100.753906 54.125 100.585938 53.976562 100.484375 53.78125 C 100.390625 53.59375 100.328125 53.414062 100.296875 53.25 C 100.273438 53.082031 100.265625 52.859375 100.265625 52.578125 L 100.265625 48.203125 L 99.65625 48.203125 C 98.925781 48.203125 98.335938 48.460938 97.890625 48.984375 C 97.453125 49.515625 97.234375 50.195312 97.234375 51.03125 C 97.234375 51.476562 97.300781 51.863281 97.4375 52.1875 C 97.570312 52.507812 97.703125 52.769531 97.828125 52.96875 C 97.953125 53.175781 98.015625 53.335938 98.015625 53.453125 C 98.015625 53.640625 97.929688 53.800781 97.765625 53.9375 C 97.597656 54.070312 97.429688 54.140625 97.265625 54.140625 C 96.953125 54.140625 96.632812 53.832031 96.3125 53.21875 C 96 52.613281 95.84375 51.867188 95.84375 50.984375 C 95.84375 49.671875 96.195312 48.597656 96.90625 47.765625 C 97.625 46.941406 98.5625 46.53125 99.71875 46.53125 Z M 101.375 48.203125 L 101.375 51.90625 C 101.375 52.25 101.414062 52.476562 101.5 52.59375 C 101.59375 52.71875 101.765625 52.78125 102.015625 52.78125 C 102.617188 52.78125 103.144531 52.554688 103.59375 52.109375 C 104.050781 51.671875 104.28125 51.132812 104.28125 50.5 C 104.28125 49.875 104.066406 49.332031 103.640625 48.875 C 103.222656 48.425781 102.707031 48.203125 102.09375 48.203125 Z M 104.796875 55.253906 C 105.015625 55.253906 105.203125 55.371094 105.359375 55.613281 C 105.515625 55.851562 105.59375 56.089844 105.59375 56.332031 C 105.59375 56.613281 105.484375 56.792969 105.265625 56.878906 L 98.296875 59.519531 L 105.265625 61.894531 C 105.484375 61.988281 105.59375 62.164062 105.59375 62.425781 C 105.59375 62.644531 105.515625 62.878906 105.359375 63.128906 C 105.203125 63.378906 105.007812 63.503906 104.78125 63.503906 C 104.71875 63.503906 104.648438 63.480469 104.578125 63.441406 L 96.4375 60.394531 L 95.4375 60.019531 C 95.25 59.957031 94.933594 59.820312 94.484375 59.613281 C 94.027344 59.414062 93.699219 59.246094 93.5 59.113281 C 93.304688 58.988281 93.042969 58.804688 92.71875 58.566406 C 92.386719 58.324219 92.148438 58.089844 92 57.863281 C 91.855469 57.632812 91.726562 57.363281 91.609375 57.050781 C 91.484375 56.738281 91.421875 56.410156 91.421875 56.066406 C 91.421875 55.542969 91.667969 55.285156 92.15625 55.285156 C 92.636719 55.285156 92.875 55.441406 92.875 55.753906 C 92.875 56.355469 93.214844 56.941406 93.890625 57.503906 C 94.570312 58.074219 95.433594 58.460938 96.484375 58.660156 L 104.578125 55.332031 C 104.660156 55.277344 104.734375 55.253906 104.796875 55.253906 Z M 96.59375 68.964844 L 110.625 68.964844 C 110.789062 68.964844 110.925781 69.035156 111.03125 69.183594 C 111.144531 69.339844 111.203125 69.535156 111.203125 69.777344 C 111.203125 70.015625 111.144531 70.214844 111.03125 70.371094 C 110.925781 70.535156 110.789062 70.621094 110.625 70.621094 L 104.078125 70.621094 C 104.503906 70.859375 104.863281 71.203125 105.15625 71.652344 C 105.445312 72.109375 105.59375 72.640625 105.59375 73.246094 C 105.59375 74.214844 105.21875 75.050781 104.46875 75.761719 C 103.71875 76.46875 102.816406 76.824219 101.765625 76.824219 L 99.71875 76.824219 C 98.707031 76.824219 97.804688 76.46875 97.015625 75.761719 C 96.234375 75.050781 95.84375 74.234375 95.84375 73.308594 C 95.84375 72.703125 95.996094 72.144531 96.296875 71.636719 C 96.609375 71.136719 96.976562 70.769531 97.40625 70.542969 L 96.59375 70.542969 C 96.4375 70.542969 96.296875 70.464844 96.171875 70.308594 C 96.054688 70.152344 96 69.972656 96 69.777344 C 96 69.558594 96.054688 69.363281 96.171875 69.199219 C 96.296875 69.042969 96.4375 68.964844 96.59375 68.964844 Z M 99.1875 70.621094 C 98.851562 70.621094 98.460938 70.855469 98.015625 71.324219 C 97.566406 71.792969 97.34375 72.316406 97.34375 72.902344 C 97.34375 73.503906 97.582031 74.03125 98.0625 74.480469 C 98.550781 74.9375 99.101562 75.167969 99.71875 75.167969 L 101.765625 75.167969 C 102.359375 75.167969 102.894531 74.9375 103.375 74.480469 C 103.851562 74.03125 104.09375 73.5 104.09375 72.886719 C 104.09375 72.28125 103.875 71.75 103.4375 71.292969 C 103.007812 70.84375 102.453125 70.621094 101.765625 70.621094 Z M 96.59375 79 L 110.625 79 C 110.789062 79 110.925781 79.070312 111.03125 79.21875 C 111.144531 79.375 111.203125 79.570312 111.203125 79.8125 C 111.203125 80.0625 111.144531 80.265625 111.03125 80.421875 C 110.925781 80.578125 110.789062 80.65625 110.625 80.65625 L 96.59375 80.65625 C 96.445312 80.65625 96.3125 80.570312 96.1875 80.40625 C 96.0625 80.238281 96 80.039062 96 79.8125 C 96 79.59375 96.054688 79.398438 96.171875 79.234375 C 96.296875 79.078125 96.4375 79 96.59375 79 Z M 98.5 82.582031 C 99.539062 82.582031 100.265625 82.976562 100.671875 83.769531 C 101.078125 84.570312 101.28125 85.730469 101.28125 87.253906 L 101.28125 88.222656 L 101.703125 88.222656 C 102.367188 88.222656 102.945312 88.035156 103.4375 87.660156 C 103.9375 87.292969 104.1875 86.746094 104.1875 86.019531 C 104.1875 85.457031 104.085938 84.960938 103.890625 84.535156 C 103.691406 84.105469 103.59375 83.871094 103.59375 83.832031 C 103.59375 83.652344 103.679688 83.507812 103.859375 83.394531 C 104.046875 83.277344 104.238281 83.222656 104.4375 83.222656 C 104.75 83.222656 105.019531 83.523438 105.25 84.128906 C 105.476562 84.730469 105.59375 85.378906 105.59375 86.066406 C 105.59375 87.367188 105.222656 88.324219 104.484375 88.941406 C 103.742188 89.566406 102.820312 89.878906 101.71875 89.878906 L 96.59375 89.878906 C 96.425781 89.878906 96.285156 89.800781 96.171875 89.644531 C 96.054688 89.496094 96 89.304688 96 89.066406 C 96 88.847656 96.054688 88.664062 96.171875 88.519531 C 96.285156 88.371094 96.425781 88.300781 96.59375 88.300781 L 97.40625 88.300781 C 96.363281 87.394531 95.84375 86.386719 95.84375 85.285156 C 95.84375 84.480469 96.066406 83.832031 96.515625 83.332031 C 96.972656 82.832031 97.632812 82.582031 98.5 82.582031 Z M 98.6875 84.253906 C 98.1875 84.253906 97.8125 84.394531 97.5625 84.675781 C 97.3125 84.957031 97.1875 85.332031 97.1875 85.800781 C 97.1875 86.363281 97.40625 86.902344 97.84375 87.425781 C 98.289062 87.957031 98.75 88.222656 99.21875 88.222656 L 100.265625 88.222656 L 100.265625 87.519531 C 100.265625 87.132812 100.253906 86.800781 100.234375 86.519531 C 100.210938 86.238281 100.171875 85.945312 100.109375 85.644531 C 100.046875 85.351562 99.957031 85.105469 99.84375 84.910156 C 99.738281 84.710938 99.585938 84.550781 99.390625 84.425781 C 99.191406 84.308594 98.957031 84.253906 98.6875 84.253906 Z M 99.71875 91.824219 L 101.71875 91.824219 C 102.863281 91.824219 103.796875 92.15625 104.515625 92.824219 C 105.234375 93.5 105.59375 94.488281 105.59375 95.792969 C 105.59375 96.625 105.445312 97.324219 105.15625 97.886719 C 104.863281 98.457031 104.550781 98.746094 104.21875 98.746094 C 104.03125 98.746094 103.847656 98.671875 103.671875 98.527344 C 103.492188 98.390625 103.40625 98.230469 103.40625 98.042969 C 103.40625 97.988281 103.519531 97.761719 103.75 97.355469 C 103.976562 96.949219 104.09375 96.46875 104.09375 95.917969 C 104.09375 95.113281 103.882812 94.503906 103.46875 94.089844 C 103.0625 93.683594 102.476562 93.480469 101.71875 93.480469 L 99.71875 93.480469 C 98.132812 93.480469 97.34375 94.296875 97.34375 95.933594 C 97.34375 96.496094 97.460938 96.984375 97.703125 97.402344 C 97.941406 97.816406 98.0625 98.058594 98.0625 98.121094 C 98.0625 98.328125 97.972656 98.5 97.796875 98.636719 C 97.628906 98.78125 97.453125 98.855469 97.265625 98.855469 C 96.929688 98.855469 96.609375 98.5625 96.296875 97.980469 C 95.996094 97.394531 95.84375 96.675781 95.84375 95.824219 C 95.84375 94.5 96.195312 93.5 96.90625 92.824219 C 97.625 92.15625 98.5625 91.824219 99.71875 91.824219 Z M 96.59375 100.523438 L 110.625 100.523438 C 110.789062 100.523438 110.925781 100.59375 111.03125 100.742188 C 111.144531 100.898438 111.203125 101.09375 111.203125 101.335938 C 111.203125 101.574219 111.144531 101.773438 111.03125 101.929688 C 110.925781 102.09375 110.789062 102.179688 110.625 102.179688 L 101.265625 102.179688 L 105.375 106.742188 C 105.46875 106.855469 105.515625 106.976562 105.515625 107.101562 C 105.515625 107.296875 105.4375 107.484375 105.28125 107.664062 C 105.125 107.851562 104.941406 107.945312 104.734375 107.945312 C 104.578125 107.945312 104.445312 107.882812 104.34375 107.757812 L 101.875 104.976562 L 97.0625 108.304688 C 96.957031 108.367188 96.859375 108.398438 96.765625 108.398438 C 96.554688 108.398438 96.363281 108.296875 96.1875 108.101562 C 96.007812 107.902344 95.921875 107.695312 95.921875 107.476562 C 95.921875 107.289062 96.007812 107.136719 96.1875 107.023438 L 100.84375 103.835938 L 99.359375 102.179688 L 96.59375 102.179688 C 96.445312 102.179688 96.3125 102.09375 96.1875 101.929688 C 96.0625 101.761719 96 101.5625 96 101.335938 C 96 101.117188 96.054688 100.921875 96.171875 100.757812 C 96.296875 100.601562 96.4375 100.523438 96.59375 100.523438 Z M 110.859375 109.363281 C 111.003906 109.363281 111.125 109.433594 111.21875 109.582031 C 111.3125 109.726562 111.359375 109.894531 111.359375 110.082031 C 111.359375 110.269531 111.3125 110.433594 111.21875 110.582031 C 111.125 110.738281 111.003906 110.816406 110.859375 110.816406 L 107.953125 110.613281 C 107.804688 110.613281 107.679688 110.566406 107.578125 110.472656 C 107.484375 110.386719 107.4375 110.257812 107.4375 110.082031 C 107.4375 109.738281 107.609375 109.566406 107.953125 109.566406 Z M 110.859375 112.082031 C 111.003906 112.082031 111.125 112.152344 111.21875 112.300781 C 111.3125 112.445312 111.359375 112.613281 111.359375 112.800781 C 111.359375 112.988281 111.3125 113.152344 111.21875 113.300781 C 111.125 113.457031 111.003906 113.535156 110.859375 113.535156 L 107.953125 113.347656 C 107.804688 113.347656 107.679688 113.300781 107.578125 113.207031 C 107.484375 113.113281 107.4375 112.976562 107.4375 112.800781 C 107.4375 112.457031 107.609375 112.285156 107.953125 112.285156 Z M 96 114.238281 "/>
</g>
</svg>
