<?xml version="1.0" encoding="UTF-8"?>
<svg xmlns="http://www.w3.org/2000/svg" xmlns:xlink="http://www.w3.org/1999/xlink" width="384pt" height="288pt" viewBox="0 0 384 288" version="1.1">
<g id="surface97">
<path style=" stroke:none;fill-rule:nonzero;fill:rgb(0%,0%,0%);fill-opacity:1;" d="M 0 0 L 284 0 L 284 288 L 0 288 Z M 0 0 "/>
<path style=" stroke:none;fill-rule:nonzero;fill:rgb(50.196078%,50.196078%,50.196078%);fill-opacity:1;" d="M 0 0 L 35.5 0 L 35.5 288 L 0 288 Z M 0 0 "/>
<path style=" stroke:none;fill-rule:nonzero;fill:rgb(0%,0%,0%);fill-opacity:1;" d="M 35.5 0 L 71 0 L 71 288 L 35.5 288 Z M 35.5 0 "/>
<path style=" stroke:none;fill-rule:nonzero;fill:rgb(50.196078%,50.196078%,50.196078%);fill-opacity:1;" d="M 71 0 L 106.5 0 L 106.5 288 L 71 288 Z M 71 0 "/>
<path style=" stroke:none;fill-rule:nonzero;fill:rgb(0%,0%,0%);fill-opacity:1;" d="M 106.5 0 L 142 0 L 142 288 L 106.5 288 Z M 106.5 0 "/>
<path style=" stroke:none;fill-rule:nonzero;fill:rgb(50.196078%,50.196078%,50.196078%);fill-opacity:1;" d="M 142 0 L 177.5 0 L 177.5 288 L 142 288 Z M 142 0 "/>
<path style=" stroke:none;fill-rule:nonzero;fill:rgb(0%,0%,0%);fill-opacity:1;" d="M 177.5 0 L 213 0 L 213 288 L 177.5 288 Z M 177.5 0 "/>
<path style=" stroke:none;fill-rule:nonzero;fill:rgb(50.196078%,50.196078%,50.196078%);fill-opacity:1;" d="M 213 0 L 248.5 0 L 248.5 288 L 213 288 Z M 213 0 "/>
<path style=" stroke:none;fill-rule:nonzero;fill:rgb(0%,0%,0%);fill-opacity:1;" d="M 248.5 0 L 284 0 L 284 288 L 248.5 288 Z M 248.5 0 "/>
<path style=" stroke:none;fill-rule:nonzero;fill:rgb(0%,0%,0%);fill-opacity:1;" d="M -14.398438 48.71875 L -11.273438 42.984375 C -10.972656 42.433594 -10.535156 42.070312 -9.960938 41.890625 C -9.378906 41.703125 -8.832031 41.746094 -8.320312 42.015625 L -7.960938 42.21875 C -7.847656 42.28125 -7.78125 42.371094 -7.757812 42.484375 C -7.738281 42.601562 -7.757812 42.714844 -7.820312 42.828125 C -7.875 42.933594 -7.953125 43.007812 -8.054688 43.046875 C -8.160156 43.078125 -8.269531 43.0625 -8.382812 43 L -8.601562 42.890625 C -8.925781 42.703125 -9.253906 42.664062 -9.585938 42.765625 C -9.921875 42.871094 -10.175781 43.078125 -10.351562 43.390625 L -10.945312 44.515625 L -9.507812 45.296875 C -9.425781 45.339844 -9.382812 45.414062 -9.382812 45.515625 C -9.375 45.609375 -9.394531 45.703125 -9.445312 45.796875 C -9.488281 45.882812 -9.550781 45.945312 -9.632812 45.984375 C -9.71875 46.015625 -9.800781 46.011719 -9.882812 45.96875 L -11.320312 45.1875 L -13.507812 49.203125 C -13.5625 49.285156 -13.648438 49.332031 -13.773438 49.34375 C -13.890625 49.351562 -14.007812 49.320312 -14.132812 49.25 C -14.257812 49.1875 -14.347656 49.101562 -14.398438 49 C -14.453125 48.894531 -14.453125 48.800781 -14.398438 48.71875 Z M -10.378906 48.765625 L -9.800781 47.6875 C -9.511719 47.148438 -9.046875 46.789062 -8.410156 46.609375 C -7.777344 46.421875 -7.175781 46.484375 -6.613281 46.796875 C -6.050781 47.101562 -5.671875 47.570312 -5.472656 48.203125 C -5.277344 48.828125 -5.328125 49.417969 -5.628906 49.96875 L -6.207031 51.046875 C -6.511719 51.578125 -6.984375 51.929688 -7.628906 52.109375 C -8.277344 52.285156 -8.875 52.222656 -9.425781 51.921875 C -9.980469 51.617188 -10.355469 51.148438 -10.550781 50.515625 C -10.738281 49.882812 -10.683594 49.296875 -10.378906 48.765625 Z M -9.503906 49.25 C -9.691406 49.574219 -9.738281 49.929688 -9.644531 50.3125 C -9.542969 50.6875 -9.324219 50.96875 -8.988281 51.15625 C -8.667969 51.332031 -8.3125 51.351562 -7.925781 51.21875 C -7.542969 51.09375 -7.261719 50.875 -7.082031 50.5625 L -6.503906 49.484375 C -6.328125 49.164062 -6.292969 48.8125 -6.394531 48.4375 C -6.5 48.054688 -6.71875 47.773438 -7.050781 47.59375 C -7.375 47.40625 -7.722656 47.375 -8.097656 47.5 C -8.472656 47.625 -8.75 47.851562 -8.925781 48.171875 Z M -5.964844 53.304688 L -1.933594 45.929688 C -1.882812 45.835938 -1.804688 45.785156 -1.699219 45.773438 C -1.585938 45.753906 -1.464844 45.78125 -1.339844 45.851562 C -1.207031 45.914062 -1.113281 46.003906 -1.058594 46.117188 C -1.007812 46.222656 -1.007812 46.320312 -1.058594 46.414062 L -5.089844 53.789062 C -5.132812 53.859375 -5.214844 53.90625 -5.339844 53.929688 C -5.464844 53.949219 -5.589844 53.921875 -5.714844 53.851562 C -5.832031 53.789062 -5.914062 53.699219 -5.964844 53.585938 C -6.007812 53.480469 -6.007812 53.386719 -5.964844 53.304688 Z M -3.046875 52.769531 L -2.46875 51.691406 C -2.167969 51.140625 -1.71875 50.765625 -1.125 50.566406 C -0.53125 50.371094 0.0195312 50.410156 0.53125 50.691406 C 0.851562 50.871094 1.09375 51.105469 1.25 51.394531 C 1.40625 51.675781 1.484375 51.964844 1.484375 52.253906 L 3.359375 48.816406 C 3.410156 48.722656 3.492188 48.671875 3.609375 48.660156 C 3.722656 48.640625 3.84375 48.667969 3.96875 48.738281 C 4.09375 48.800781 4.175781 48.890625 4.21875 49.003906 C 4.269531 49.109375 4.269531 49.207031 4.21875 49.300781 L 0.1875 56.675781 C 0.144531 56.757812 0.0625 56.804688 -0.0625 56.816406 C -0.179688 56.835938 -0.292969 56.816406 -0.40625 56.753906 C -0.523438 56.691406 -0.601562 56.605469 -0.640625 56.503906 C -0.671875 56.398438 -0.667969 56.304688 -0.625 56.222656 L -0.390625 55.800781 C -0.640625 55.964844 -0.949219 56.050781 -1.3125 56.050781 C -1.667969 56.058594 -1.996094 55.980469 -2.296875 55.816406 C -2.796875 55.542969 -3.125 55.101562 -3.28125 54.488281 C -3.429688 53.875 -3.351562 53.300781 -3.046875 52.769531 Z M -2.171875 53.253906 C -2.351562 53.566406 -2.390625 53.917969 -2.296875 54.300781 C -2.203125 54.683594 -1.996094 54.964844 -1.671875 55.144531 C -1.359375 55.320312 -1.015625 55.355469 -0.640625 55.253906 C -0.265625 55.148438 -0.03125 55.007812 0.0625 54.832031 L 0.8125 53.472656 C 1.007812 53.109375 1.046875 52.75 0.921875 52.394531 C 0.804688 52.03125 0.597656 51.765625 0.296875 51.597656 C -0.0390625 51.410156 -0.390625 51.378906 -0.765625 51.503906 C -1.140625 51.628906 -1.417969 51.855469 -1.59375 52.175781 Z M 1.574219 57.425781 L 5.433594 50.363281 C 5.484375 50.261719 5.5625 50.207031 5.667969 50.207031 C 5.78125 50.199219 5.894531 50.21875 6.011719 50.269531 L 9.746094 52.316406 C 9.847656 52.371094 9.90625 52.449219 9.917969 52.550781 C 9.925781 52.65625 9.90625 52.761719 9.855469 52.863281 C 9.792969 52.980469 9.707031 53.0625 9.605469 53.113281 C 9.5 53.167969 9.402344 53.167969 9.308594 53.113281 L 6.042969 51.332031 L 4.589844 54.003906 L 6.246094 54.910156 C 6.339844 54.953125 6.390625 55.027344 6.402344 55.128906 C 6.410156 55.234375 6.386719 55.339844 6.324219 55.441406 C 6.269531 55.535156 6.199219 55.609375 6.105469 55.660156 C 6.019531 55.703125 5.933594 55.699219 5.839844 55.644531 L 4.183594 54.738281 L 2.714844 57.425781 L 5.980469 59.207031 C 6.074219 59.257812 6.125 59.335938 6.136719 59.441406 C 6.15625 59.554688 6.128906 59.667969 6.058594 59.785156 C 6.003906 59.886719 5.933594 59.960938 5.839844 60.003906 C 5.746094 60.054688 5.644531 60.054688 5.542969 60.003906 L 1.808594 57.957031 C 1.691406 57.902344 1.609375 57.824219 1.558594 57.722656 C 1.515625 57.617188 1.519531 57.519531 1.574219 57.425781 Z M 8.722656 55.710938 C 8.773438 55.617188 8.882812 55.566406 9.050781 55.554688 C 9.214844 55.546875 9.363281 55.578125 9.488281 55.648438 C 9.632812 55.734375 9.695312 55.84375 9.675781 55.976562 L 9.050781 60.289062 L 12.316406 57.476562 C 12.441406 57.351562 12.570312 57.332031 12.707031 57.414062 C 12.820312 57.46875 12.917969 57.570312 13.003906 57.726562 C 13.097656 57.875 13.117188 57.992188 13.066406 58.085938 C 13.035156 58.148438 12.988281 58.203125 12.925781 58.242188 L 8.816406 61.664062 C 8.699219 61.765625 8.535156 61.761719 8.316406 61.648438 C 8.097656 61.523438 7.992188 61.382812 8.003906 61.226562 L 8.675781 55.914062 C 8.695312 55.8125 8.710938 55.742188 8.722656 55.710938 Z M 12.167969 61.082031 L 12.761719 59.972656 C 13.0625 59.433594 13.527344 59.078125 14.152344 58.910156 C 14.777344 58.734375 15.375 58.800781 15.949219 59.113281 C 16.5 59.417969 16.875 59.863281 17.074219 60.457031 C 17.269531 61.042969 17.21875 61.613281 16.917969 62.175781 C 16.800781 62.375 16.6875 62.527344 16.574219 62.628906 C 16.457031 62.722656 16.332031 62.765625 16.199219 62.753906 C 16.074219 62.746094 15.964844 62.722656 15.871094 62.691406 C 15.785156 62.660156 15.667969 62.605469 15.511719 62.519531 L 13.199219 61.269531 L 13.027344 61.582031 C 12.808594 61.980469 12.777344 62.371094 12.933594 62.753906 C 13.089844 63.128906 13.386719 63.433594 13.824219 63.675781 C 14.0625 63.800781 14.28125 63.871094 14.480469 63.894531 C 14.6875 63.925781 14.859375 63.933594 14.996094 63.925781 C 15.140625 63.914062 15.25 63.925781 15.324219 63.957031 C 15.417969 64.019531 15.472656 64.113281 15.496094 64.238281 C 15.515625 64.363281 15.5 64.472656 15.449219 64.566406 C 15.363281 64.722656 15.113281 64.792969 14.699219 64.785156 C 14.292969 64.773438 13.855469 64.644531 13.386719 64.394531 C 12.699219 64.019531 12.234375 63.523438 11.996094 62.910156 C 11.765625 62.296875 11.824219 61.6875 12.167969 61.082031 Z M 13.511719 60.675781 L 15.464844 61.738281 C 15.652344 61.832031 15.785156 61.878906 15.871094 61.878906 C 15.964844 61.871094 16.046875 61.796875 16.121094 61.660156 C 16.296875 61.347656 16.328125 61.011719 16.214844 60.644531 C 16.109375 60.269531 15.890625 59.996094 15.558594 59.816406 C 15.222656 59.628906 14.875 59.582031 14.511719 59.675781 C 14.15625 59.769531 13.890625 59.984375 13.714844 60.316406 Z M 16.347656 65.507812 L 18.738281 61.132812 C 18.789062 61.039062 18.871094 60.988281 18.988281 60.976562 C 19.101562 60.96875 19.226562 61 19.363281 61.070312 C 19.464844 61.132812 19.539062 61.210938 19.582031 61.304688 C 19.632812 61.398438 19.632812 61.492188 19.582031 61.585938 L 19.316406 62.070312 C 19.566406 61.914062 19.863281 61.816406 20.207031 61.773438 C 20.550781 61.734375 20.871094 61.796875 21.175781 61.960938 L 21.519531 62.164062 C 21.613281 62.207031 21.667969 62.289062 21.691406 62.414062 C 21.710938 62.53125 21.691406 62.640625 21.628906 62.742188 C 21.574219 62.847656 21.492188 62.921875 21.378906 62.960938 C 21.273438 63.003906 21.175781 63.003906 21.082031 62.960938 L 20.738281 62.757812 C 20.371094 62.5625 19.976562 62.535156 19.550781 62.679688 C 19.132812 62.816406 18.800781 63.113281 18.550781 63.570312 L 17.238281 65.976562 C 17.195312 66.046875 17.113281 66.09375 16.988281 66.117188 C 16.863281 66.136719 16.738281 66.117188 16.613281 66.054688 C 16.496094 65.992188 16.414062 65.902344 16.363281 65.789062 C 16.308594 65.683594 16.304688 65.589844 16.347656 65.507812 Z M 21.84375 62.878906 C 21.90625 62.777344 22.019531 62.71875 22.1875 62.707031 C 22.363281 62.6875 22.519531 62.707031 22.65625 62.769531 C 22.800781 62.855469 22.859375 62.96875 22.828125 63.113281 L 22.21875 67.550781 L 25.484375 64.566406 C 25.597656 64.464844 25.71875 64.449219 25.84375 64.519531 C 25.96875 64.582031 26.070312 64.699219 26.15625 64.863281 C 26.238281 65.019531 26.25 65.15625 26.1875 65.269531 C 26.164062 65.3125 26.128906 65.34375 26.078125 65.363281 L 22.15625 68.769531 L 21.640625 69.191406 C 21.566406 69.261719 21.410156 69.386719 21.171875 69.566406 C 20.941406 69.753906 20.757812 69.882812 20.625 69.957031 C 20.5 70.027344 20.320312 70.113281 20.09375 70.207031 C 19.875 70.300781 19.679688 70.351562 19.515625 70.363281 C 19.359375 70.382812 19.1875 70.378906 19 70.347656 C 18.804688 70.324219 18.609375 70.261719 18.421875 70.160156 C 18.152344 70.011719 18.089844 69.808594 18.234375 69.550781 C 18.359375 69.300781 18.507812 69.214844 18.671875 69.300781 C 18.984375 69.476562 19.382812 69.464844 19.875 69.269531 C 20.375 69.082031 20.832031 68.742188 21.25 68.253906 L 21.828125 63.035156 C 21.816406 62.972656 21.820312 62.921875 21.84375 62.878906 Z M 26.632812 71.417969 L 30.835938 63.714844 C 30.886719 63.621094 30.96875 63.570312 31.085938 63.558594 C 31.199219 63.550781 31.304688 63.570312 31.398438 63.621094 L 33.132812 64.558594 C 33.226562 64.613281 33.277344 64.695312 33.289062 64.808594 C 33.296875 64.914062 33.273438 65.023438 33.210938 65.136719 C 33.148438 65.242188 33.070312 65.320312 32.976562 65.371094 C 32.882812 65.414062 32.789062 65.410156 32.695312 65.355469 L 31.445312 64.683594 L 27.773438 71.417969 L 29.023438 72.089844 C 29.117188 72.140625 29.167969 72.21875 29.179688 72.324219 C 29.1875 72.425781 29.164062 72.535156 29.101562 72.652344 C 29.039062 72.753906 28.960938 72.828125 28.867188 72.871094 C 28.773438 72.921875 28.679688 72.921875 28.585938 72.871094 L 26.851562 71.933594 C 26.757812 71.878906 26.683594 71.800781 26.632812 71.699219 C 26.578125 71.605469 26.578125 71.511719 26.632812 71.417969 Z M 30.421875 71.347656 C 30.515625 71.191406 30.601562 71.105469 30.6875 71.082031 C 30.78125 71.050781 30.90625 71.078125 31.0625 71.160156 C 31.226562 71.253906 31.328125 71.347656 31.359375 71.441406 C 31.398438 71.535156 31.390625 71.640625 31.328125 71.753906 C 31.171875 72.027344 31.148438 72.332031 31.265625 72.675781 C 31.378906 73.019531 31.664062 73.316406 32.125 73.566406 C 33.0625 74.074219 33.796875 73.847656 34.328125 72.878906 L 34.421875 72.675781 C 34.890625 71.824219 34.65625 71.140625 33.71875 70.628906 C 33.507812 70.515625 33.472656 70.332031 33.609375 70.082031 C 33.742188 69.832031 33.914062 69.765625 34.125 69.878906 C 34.53125 70.097656 34.890625 70.175781 35.203125 70.113281 C 35.515625 70.042969 35.796875 69.769531 36.046875 69.300781 C 36.503906 68.480469 36.335938 67.855469 35.546875 67.425781 C 35.085938 67.175781 34.710938 67.105469 34.421875 67.207031 C 34.128906 67.300781 33.90625 67.488281 33.75 67.769531 C 33.613281 68.019531 33.40625 68.066406 33.125 67.910156 C 32.925781 67.808594 32.8125 67.707031 32.78125 67.613281 C 32.757812 67.519531 32.796875 67.386719 32.890625 67.207031 C 32.992188 67.03125 33.128906 66.871094 33.296875 66.722656 C 33.460938 66.578125 33.664062 66.453125 33.90625 66.347656 C 34.15625 66.234375 34.460938 66.203125 34.828125 66.253906 C 35.191406 66.296875 35.578125 66.425781 35.984375 66.644531 C 37.328125 67.386719 37.660156 68.375 36.984375 69.613281 C 36.742188 70.050781 36.460938 70.378906 36.140625 70.597656 C 35.816406 70.816406 35.492188 70.921875 35.171875 70.910156 C 35.722656 71.578125 35.769531 72.328125 35.3125 73.160156 L 35.21875 73.363281 C 34.789062 74.132812 34.265625 74.585938 33.640625 74.722656 C 33.023438 74.855469 32.375 74.738281 31.6875 74.363281 C 30.957031 73.964844 30.5 73.480469 30.3125 72.910156 C 30.132812 72.328125 30.171875 71.808594 30.421875 71.347656 Z M 35.09375 75.503906 C 35.175781 75.347656 35.296875 75.246094 35.453125 75.191406 C 35.609375 75.140625 35.765625 75.15625 35.921875 75.238281 C 36.066406 75.324219 36.164062 75.449219 36.21875 75.613281 C 36.269531 75.769531 36.253906 75.929688 36.171875 76.097656 C 36.109375 76.222656 35.722656 76.566406 35.015625 77.128906 C 34.921875 77.199219 34.816406 77.207031 34.703125 77.144531 C 34.617188 77.101562 34.5625 77.039062 34.53125 76.957031 C 34.5 76.882812 34.503906 76.808594 34.546875 76.738281 C 34.566406 76.683594 34.59375 76.644531 34.625 76.613281 L 35.140625 76.207031 C 34.972656 75.988281 34.957031 75.753906 35.09375 75.503906 Z M 37.511719 75.191406 C 37.667969 74.902344 37.890625 74.839844 38.183594 75.003906 C 38.484375 75.160156 38.574219 75.359375 38.449219 75.597656 C 38.261719 75.941406 38.246094 76.285156 38.402344 76.628906 C 38.558594 76.960938 38.828125 77.230469 39.214844 77.441406 C 39.660156 77.691406 40.074219 77.753906 40.449219 77.628906 C 40.832031 77.511719 41.15625 77.214844 41.417969 76.738281 L 41.527344 76.535156 C 41.785156 76.058594 41.859375 75.628906 41.746094 75.253906 C 41.640625 74.878906 41.371094 74.574219 40.933594 74.332031 L 39.449219 73.503906 C 39.167969 73.359375 39.089844 73.171875 39.214844 72.941406 C 39.253906 72.871094 39.308594 72.800781 39.371094 72.738281 L 41.199219 69.910156 C 41.324219 69.703125 41.457031 69.640625 41.605469 69.722656 L 44.636719 71.378906 C 44.730469 71.433594 44.777344 71.511719 44.777344 71.613281 C 44.785156 71.71875 44.761719 71.824219 44.699219 71.925781 C 44.644531 72.03125 44.574219 72.113281 44.480469 72.175781 C 44.386719 72.230469 44.292969 72.230469 44.199219 72.175781 L 41.699219 70.816406 L 40.292969 73.019531 L 41.339844 73.597656 C 42.027344 73.972656 42.480469 74.453125 42.699219 75.035156 C 42.917969 75.609375 42.816406 76.269531 42.402344 77.019531 L 42.292969 77.222656 C 41.863281 77.992188 41.34375 78.449219 40.730469 78.597656 C 40.125 78.742188 39.480469 78.628906 38.792969 78.253906 C 38.09375 77.867188 37.636719 77.382812 37.417969 76.800781 C 37.207031 76.230469 37.238281 75.691406 37.511719 75.191406 Z M 41.679688 79.527344 C 41.742188 79.414062 41.820312 79.335938 41.914062 79.292969 C 42.015625 79.242188 42.117188 79.242188 42.210938 79.292969 L 43.445312 79.980469 L 47.117188 73.246094 L 45.882812 72.558594 C 45.789062 72.507812 45.730469 72.429688 45.710938 72.324219 C 45.699219 72.222656 45.726562 72.117188 45.789062 72.011719 C 45.851562 71.898438 45.929688 71.816406 46.023438 71.761719 C 46.125 71.710938 46.226562 71.710938 46.320312 71.761719 L 48.039062 72.714844 C 48.152344 72.769531 48.230469 72.847656 48.273438 72.949219 C 48.324219 73.054688 48.324219 73.152344 48.273438 73.246094 L 44.070312 80.949219 C 44.015625 81.042969 43.933594 81.089844 43.820312 81.089844 C 43.714844 81.097656 43.605469 81.078125 43.492188 81.027344 L 41.773438 80.074219 C 41.679688 80.019531 41.621094 79.941406 41.601562 79.839844 C 41.589844 79.734375 41.617188 79.628906 41.679688 79.527344 Z M 48.3125 81.25 L 50.75 76.765625 C 51.050781 76.226562 51.507812 75.871094 52.125 75.703125 C 52.75 75.539062 53.332031 75.605469 53.875 75.90625 C 54.164062 76.054688 54.238281 76.261719 54.09375 76.53125 C 54.03125 76.648438 53.945312 76.730469 53.84375 76.78125 C 53.75 76.824219 53.65625 76.820312 53.5625 76.765625 C 53.175781 76.558594 52.800781 76.511719 52.4375 76.625 C 52.070312 76.742188 51.800781 76.949219 51.625 77.25 L 49.1875 81.734375 C 48.976562 82.109375 48.957031 82.449219 49.125 82.75 C 49.289062 83.050781 49.546875 83.296875 49.890625 83.484375 C 50.097656 83.585938 50.128906 83.773438 49.984375 84.046875 C 49.847656 84.296875 49.628906 84.34375 49.328125 84.1875 C 48.753906 83.875 48.359375 83.453125 48.140625 82.921875 C 47.929688 82.390625 47.988281 81.835938 48.3125 81.25 Z M 50.78125 83.78125 C 50.832031 83.699219 50.910156 83.632812 51.015625 83.578125 C 51.128906 83.515625 51.222656 83.511719 51.296875 83.5625 C 51.359375 83.585938 51.414062 83.667969 51.46875 83.8125 C 51.53125 83.949219 51.640625 84.117188 51.796875 84.3125 C 51.960938 84.507812 52.175781 84.675781 52.4375 84.8125 C 52.78125 85.007812 53.066406 85.082031 53.296875 85.03125 C 53.523438 84.988281 53.691406 84.875 53.796875 84.6875 C 53.921875 84.457031 53.929688 84.230469 53.828125 84 C 53.722656 83.761719 53.566406 83.539062 53.359375 83.328125 C 53.148438 83.121094 52.941406 82.90625 52.734375 82.6875 C 52.523438 82.460938 52.382812 82.199219 52.3125 81.90625 C 52.238281 81.617188 52.289062 81.308594 52.46875 80.984375 C 52.6875 80.578125 53.015625 80.308594 53.453125 80.171875 C 53.898438 80.039062 54.421875 80.132812 55.015625 80.453125 C 55.390625 80.652344 55.691406 80.898438 55.921875 81.1875 C 56.160156 81.480469 56.242188 81.699219 56.171875 81.84375 C 56.117188 81.929688 56.03125 82.007812 55.90625 82.078125 C 55.789062 82.140625 55.679688 82.148438 55.578125 82.09375 C 55.554688 82.074219 55.453125 81.949219 55.265625 81.71875 C 55.078125 81.492188 54.867188 81.308594 54.640625 81.171875 C 54.316406 80.996094 54.03125 80.945312 53.78125 81.015625 C 53.539062 81.078125 53.367188 81.203125 53.265625 81.390625 C 53.160156 81.589844 53.160156 81.792969 53.265625 82 C 53.378906 82.210938 53.550781 82.414062 53.78125 82.609375 C 54.007812 82.808594 54.222656 83.027344 54.421875 83.265625 C 54.628906 83.496094 54.757812 83.773438 54.8125 84.09375 C 54.863281 84.40625 54.796875 84.734375 54.609375 85.078125 C 54.359375 85.515625 54.007812 85.773438 53.5625 85.859375 C 53.125 85.941406 52.628906 85.828125 52.078125 85.515625 C 51.597656 85.265625 51.234375 84.960938 50.984375 84.609375 C 50.742188 84.257812 50.675781 83.980469 50.78125 83.78125 Z M 55.09375 86.664062 L 59.125 79.289062 C 59.175781 79.195312 59.253906 79.144531 59.359375 79.132812 C 59.472656 79.113281 59.59375 79.140625 59.71875 79.210938 C 59.851562 79.273438 59.945312 79.363281 60 79.476562 C 60.050781 79.582031 60.050781 79.679688 60 79.773438 L 55.96875 87.148438 C 55.925781 87.21875 55.84375 87.265625 55.71875 87.289062 C 55.59375 87.308594 55.46875 87.28125 55.34375 87.210938 C 55.226562 87.148438 55.144531 87.058594 55.09375 86.945312 C 55.050781 86.839844 55.050781 86.746094 55.09375 86.664062 Z M 58.011719 86.125 L 58.589844 85.046875 C 58.878906 84.507812 59.34375 84.148438 59.980469 83.96875 C 60.613281 83.78125 61.214844 83.84375 61.777344 84.15625 C 62.339844 84.460938 62.71875 84.929688 62.917969 85.5625 C 63.113281 86.1875 63.0625 86.777344 62.761719 87.328125 L 62.183594 88.40625 C 61.878906 88.9375 61.40625 89.289062 60.761719 89.46875 C 60.113281 89.644531 59.515625 89.582031 58.964844 89.28125 C 58.410156 88.976562 58.035156 88.507812 57.839844 87.875 C 57.652344 87.242188 57.707031 86.65625 58.011719 86.125 Z M 58.886719 86.609375 C 58.699219 86.933594 58.652344 87.289062 58.746094 87.671875 C 58.847656 88.046875 59.066406 88.328125 59.402344 88.515625 C 59.722656 88.691406 60.078125 88.710938 60.464844 88.578125 C 60.847656 88.453125 61.128906 88.234375 61.308594 87.921875 L 61.886719 86.84375 C 62.0625 86.523438 62.097656 86.171875 61.996094 85.796875 C 61.890625 85.414062 61.671875 85.132812 61.339844 84.953125 C 61.015625 84.765625 60.667969 84.734375 60.292969 84.859375 C 59.917969 84.984375 59.640625 85.210938 59.464844 85.53125 Z M 64.222656 86.027344 C 64.273438 85.933594 64.378906 85.882812 64.535156 85.871094 C 64.691406 85.851562 64.832031 85.878906 64.957031 85.949219 C 65.101562 86.035156 65.164062 86.144531 65.144531 86.277344 L 64.503906 90.527344 L 67.222656 87.855469 C 67.335938 87.753906 67.480469 87.746094 67.660156 87.839844 C 67.835938 87.933594 67.910156 88.058594 67.878906 88.214844 L 67.113281 91.964844 L 70.332031 89.105469 C 70.425781 89.011719 70.542969 89.003906 70.691406 89.074219 C 70.816406 89.148438 70.914062 89.257812 70.988281 89.402344 C 71.070312 89.550781 71.085938 89.667969 71.035156 89.761719 C 71.003906 89.824219 70.957031 89.871094 70.894531 89.902344 L 66.878906 93.386719 C 66.753906 93.480469 66.601562 93.480469 66.425781 93.386719 C 66.226562 93.28125 66.136719 93.152344 66.160156 92.996094 L 66.847656 89.355469 L 64.160156 91.871094 C 64.035156 91.984375 63.871094 91.984375 63.675781 91.871094 C 63.488281 91.777344 63.402344 91.640625 63.425781 91.464844 L 64.160156 86.230469 C 64.191406 86.128906 64.210938 86.058594 64.222656 86.027344 Z M 71.265625 95.5 L 71.828125 94.46875 C 71.992188 94.15625 72.28125 93.914062 72.6875 93.734375 C 73.09375 93.558594 73.535156 93.445312 74.015625 93.390625 L 75.46875 93.1875 C 75.9375 93.136719 76.375 93.023438 76.78125 92.84375 C 77.195312 92.667969 77.488281 92.421875 77.65625 92.109375 C 77.84375 91.777344 77.894531 91.421875 77.8125 91.046875 C 77.738281 90.664062 77.492188 90.359375 77.078125 90.140625 C 76.722656 89.945312 76.378906 89.886719 76.046875 89.96875 C 75.722656 90.054688 75.457031 90.277344 75.25 90.640625 C 75.207031 90.734375 75.117188 90.796875 74.984375 90.828125 C 74.859375 90.851562 74.726562 90.824219 74.59375 90.75 C 74.320312 90.605469 74.28125 90.359375 74.46875 90.015625 C 74.757812 89.484375 75.195312 89.164062 75.78125 89.046875 C 76.363281 88.921875 76.941406 89.023438 77.515625 89.34375 C 78.128906 89.679688 78.535156 90.152344 78.734375 90.765625 C 78.941406 91.371094 78.890625 91.964844 78.578125 92.546875 C 78.378906 92.914062 78.101562 93.210938 77.75 93.4375 C 77.394531 93.65625 77.023438 93.8125 76.640625 93.90625 C 76.265625 93.992188 75.867188 94.0625 75.453125 94.125 L 74.296875 94.265625 C 73.941406 94.296875 73.617188 94.375 73.328125 94.5 C 73.046875 94.617188 72.847656 94.773438 72.734375 94.96875 L 72.4375 95.515625 L 75.671875 97.28125 C 75.753906 97.320312 75.800781 97.394531 75.8125 97.5 C 75.832031 97.613281 75.8125 97.726562 75.75 97.84375 C 75.695312 97.9375 75.617188 98.007812 75.515625 98.0625 C 75.410156 98.113281 75.316406 98.117188 75.234375 98.078125 L 71.484375 96.03125 C 71.398438 95.976562 71.328125 95.898438 71.265625 95.796875 C 71.210938 95.691406 71.210938 95.59375 71.265625 95.5 Z M 76.128906 98.34375 C 76.273438 98.074219 76.449219 97.992188 76.660156 98.09375 C 77.003906 98.28125 77.347656 98.367188 77.691406 98.34375 C 78.035156 98.324219 78.308594 98.125 78.519531 97.75 L 80.957031 93.265625 C 81.132812 92.964844 81.164062 92.625 81.050781 92.25 C 80.945312 91.875 80.707031 91.585938 80.332031 91.375 C 80.238281 91.324219 80.179688 91.25 80.160156 91.15625 C 80.148438 91.054688 80.175781 90.945312 80.238281 90.828125 C 80.382812 90.558594 80.597656 90.5 80.878906 90.65625 C 81.429688 90.949219 81.800781 91.402344 81.988281 92.015625 C 82.183594 92.632812 82.132812 93.210938 81.832031 93.75 L 79.394531 98.234375 C 79.070312 98.816406 78.628906 99.160156 78.066406 99.265625 C 77.511719 99.367188 76.945312 99.265625 76.363281 98.953125 C 76.070312 98.796875 75.992188 98.59375 76.128906 98.34375 Z M 82.246094 100.34375 C 82.308594 100.21875 82.40625 100.132812 82.542969 100.078125 C 82.675781 100.015625 82.792969 100.007812 82.886719 100.046875 C 82.949219 100.078125 83.003906 100.167969 83.058594 100.3125 C 83.109375 100.460938 83.15625 100.609375 83.199219 100.765625 C 83.25 100.914062 83.359375 101.089844 83.527344 101.296875 C 83.703125 101.503906 83.925781 101.695312 84.199219 101.875 L 85.730469 99.078125 L 85.261719 98.546875 C 85.15625 98.421875 85.03125 98.246094 84.886719 98.015625 C 84.738281 97.777344 84.652344 97.570312 84.621094 97.390625 C 84.589844 97.214844 84.589844 97 84.621094 96.75 C 84.652344 96.492188 84.734375 96.234375 84.871094 95.984375 C 85.046875 95.664062 85.253906 95.40625 85.496094 95.21875 C 85.746094 95.03125 86.003906 94.929688 86.277344 94.90625 C 86.546875 94.875 86.808594 94.882812 87.058594 94.921875 C 87.316406 94.964844 87.582031 95.042969 87.855469 95.15625 L 88.027344 94.84375 C 88.058594 94.792969 88.109375 94.757812 88.183594 94.734375 C 88.253906 94.714844 88.332031 94.726562 88.417969 94.765625 C 88.480469 94.808594 88.527344 94.871094 88.558594 94.953125 C 88.597656 95.027344 88.605469 95.089844 88.574219 95.140625 L 88.417969 95.453125 C 88.824219 95.695312 89.160156 95.96875 89.433594 96.28125 C 89.714844 96.59375 89.800781 96.84375 89.699219 97.03125 C 89.636719 97.136719 89.535156 97.230469 89.402344 97.3125 C 89.277344 97.386719 89.152344 97.386719 89.027344 97.3125 C 89.003906 97.304688 88.894531 97.167969 88.699219 96.90625 C 88.511719 96.636719 88.269531 96.414062 87.980469 96.234375 L 86.667969 98.640625 C 86.886719 98.882812 87.058594 99.101562 87.183594 99.296875 C 87.308594 99.484375 87.425781 99.71875 87.542969 100 C 87.65625 100.273438 87.691406 100.5625 87.652344 100.875 C 87.609375 101.1875 87.496094 101.515625 87.308594 101.859375 C 86.972656 102.472656 86.542969 102.867188 86.011719 103.046875 C 85.480469 103.222656 84.910156 103.191406 84.308594 102.953125 L 84.089844 103.34375 C 84.066406 103.394531 84.011719 103.425781 83.917969 103.4375 C 83.832031 103.457031 83.761719 103.445312 83.699219 103.40625 C 83.613281 103.363281 83.5625 103.304688 83.542969 103.234375 C 83.519531 103.160156 83.519531 103.097656 83.542969 103.046875 L 83.746094 102.6875 C 83.140625 102.351562 82.703125 101.9375 82.433594 101.4375 C 82.171875 100.949219 82.109375 100.585938 82.246094 100.34375 Z M 85.761719 96.34375 C 85.582031 96.679688 85.542969 96.980469 85.636719 97.25 C 85.738281 97.523438 85.949219 97.828125 86.261719 98.171875 L 87.464844 95.953125 C 86.660156 95.621094 86.09375 95.75 85.761719 96.34375 Z M 84.714844 102.109375 C 85.464844 102.378906 86.03125 102.171875 86.417969 101.484375 C 86.613281 101.121094 86.683594 100.789062 86.621094 100.484375 C 86.558594 100.171875 86.390625 99.855469 86.121094 99.53125 Z M 90.152344 103.683594 L 90.730469 102.605469 C 91.03125 102.054688 91.480469 101.679688 92.074219 101.480469 C 92.667969 101.285156 93.21875 101.324219 93.730469 101.605469 C 94.050781 101.785156 94.292969 102.019531 94.449219 102.308594 C 94.605469 102.589844 94.683594 102.878906 94.683594 103.167969 L 96.558594 99.730469 C 96.609375 99.636719 96.691406 99.585938 96.808594 99.574219 C 96.921875 99.554688 97.042969 99.582031 97.167969 99.652344 C 97.292969 99.714844 97.375 99.804688 97.417969 99.917969 C 97.46875 100.023438 97.46875 100.121094 97.417969 100.214844 L 93.386719 107.589844 C 93.34375 107.671875 93.261719 107.71875 93.136719 107.730469 C 93.019531 107.75 92.90625 107.730469 92.792969 107.667969 C 92.675781 107.605469 92.597656 107.519531 92.558594 107.417969 C 92.527344 107.3125 92.53125 107.21875 92.574219 107.136719 L 92.808594 106.714844 C 92.558594 106.878906 92.25 106.964844 91.886719 106.964844 C 91.53125 106.972656 91.203125 106.894531 90.902344 106.730469 C 90.402344 106.457031 90.074219 106.015625 89.917969 105.402344 C 89.769531 104.789062 89.847656 104.214844 90.152344 103.683594 Z M 91.027344 104.167969 C 90.847656 104.480469 90.808594 104.832031 90.902344 105.214844 C 90.996094 105.597656 91.203125 105.878906 91.527344 106.058594 C 91.839844 106.234375 92.183594 106.269531 92.558594 106.167969 C 92.933594 106.0625 93.167969 105.921875 93.261719 105.746094 L 94.011719 104.386719 C 94.207031 104.023438 94.246094 103.664062 94.121094 103.308594 C 94.003906 102.945312 93.796875 102.679688 93.496094 102.511719 C 93.160156 102.324219 92.808594 102.292969 92.433594 102.417969 C 92.058594 102.542969 91.78125 102.769531 91.605469 103.089844 Z M 95.355469 106.527344 L 95.949219 105.417969 C 96.25 104.878906 96.714844 104.523438 97.339844 104.355469 C 97.964844 104.179688 98.5625 104.246094 99.136719 104.558594 C 99.6875 104.863281 100.0625 105.308594 100.261719 105.902344 C 100.457031 106.488281 100.40625 107.058594 100.105469 107.621094 C 99.988281 107.820312 99.875 107.972656 99.761719 108.074219 C 99.644531 108.167969 99.519531 108.210938 99.386719 108.199219 C 99.261719 108.191406 99.152344 108.167969 99.058594 108.136719 C 98.972656 108.105469 98.855469 108.050781 98.699219 107.964844 L 96.386719 106.714844 L 96.214844 107.027344 C 95.996094 107.425781 95.964844 107.816406 96.121094 108.199219 C 96.277344 108.574219 96.574219 108.878906 97.011719 109.121094 C 97.25 109.246094 97.46875 109.316406 97.667969 109.339844 C 97.875 109.371094 98.046875 109.378906 98.183594 109.371094 C 98.328125 109.359375 98.4375 109.371094 98.511719 109.402344 C 98.605469 109.464844 98.660156 109.558594 98.683594 109.683594 C 98.703125 109.808594 98.6875 109.917969 98.636719 110.011719 C 98.550781 110.167969 98.300781 110.238281 97.886719 110.230469 C 97.480469 110.21875 97.042969 110.089844 96.574219 109.839844 C 95.886719 109.464844 95.421875 108.96875 95.183594 108.355469 C 94.953125 107.742188 95.011719 107.132812 95.355469 106.527344 Z M 96.699219 106.121094 L 98.652344 107.183594 C 98.839844 107.277344 98.972656 107.324219 99.058594 107.324219 C 99.152344 107.316406 99.234375 107.242188 99.308594 107.105469 C 99.484375 106.792969 99.515625 106.457031 99.402344 106.089844 C 99.296875 105.714844 99.078125 105.441406 98.746094 105.261719 C 98.410156 105.074219 98.0625 105.027344 97.699219 105.121094 C 97.34375 105.214844 97.078125 105.429688 96.902344 105.761719 Z M 99.53125 110.953125 L 101.921875 106.578125 C 101.972656 106.484375 102.054688 106.433594 102.171875 106.421875 C 102.285156 106.414062 102.410156 106.445312 102.546875 106.515625 C 102.640625 106.570312 102.707031 106.648438 102.75 106.75 C 102.800781 106.855469 102.804688 106.949219 102.765625 107.03125 L 102.53125 107.46875 C 102.769531 107.304688 103.054688 107.210938 103.390625 107.1875 C 103.722656 107.167969 104.050781 107.246094 104.375 107.421875 C 104.875 107.695312 105.195312 108.132812 105.34375 108.734375 C 105.5 109.339844 105.425781 109.917969 105.125 110.46875 L 103.640625 113.1875 C 103.585938 113.28125 103.5 113.332031 103.375 113.34375 C 103.257812 113.351562 103.144531 113.328125 103.03125 113.265625 C 102.914062 113.203125 102.828125 113.113281 102.765625 113 C 102.710938 112.894531 102.710938 112.796875 102.765625 112.703125 L 104.25 109.984375 C 104.425781 109.664062 104.460938 109.3125 104.359375 108.9375 C 104.253906 108.554688 104.039062 108.277344 103.71875 108.109375 C 103.414062 107.945312 103.085938 107.914062 102.734375 108.015625 C 102.378906 108.109375 102.101562 108.339844 101.90625 108.703125 L 100.421875 111.421875 C 100.378906 111.492188 100.289062 111.539062 100.15625 111.5625 C 100.03125 111.582031 99.914062 111.5625 99.8125 111.5 C 99.6875 111.4375 99.597656 111.347656 99.546875 111.234375 C 99.492188 111.128906 99.488281 111.035156 99.53125 110.953125 Z M 104.75 113.269531 C 104.800781 113.1875 104.878906 113.121094 104.984375 113.066406 C 105.097656 113.003906 105.191406 113 105.265625 113.050781 C 105.328125 113.074219 105.382812 113.15625 105.4375 113.300781 C 105.5 113.4375 105.609375 113.605469 105.765625 113.800781 C 105.929688 113.996094 106.144531 114.164062 106.40625 114.300781 C 106.75 114.496094 107.035156 114.570312 107.265625 114.519531 C 107.492188 114.476562 107.660156 114.363281 107.765625 114.175781 C 107.890625 113.945312 107.898438 113.71875 107.796875 113.488281 C 107.691406 113.25 107.535156 113.027344 107.328125 112.816406 C 107.117188 112.609375 106.910156 112.394531 106.703125 112.175781 C 106.492188 111.949219 106.351562 111.6875 106.28125 111.394531 C 106.207031 111.105469 106.257812 110.796875 106.4375 110.472656 C 106.65625 110.066406 106.984375 109.796875 107.421875 109.660156 C 107.867188 109.527344 108.390625 109.621094 108.984375 109.941406 C 109.359375 110.140625 109.660156 110.386719 109.890625 110.675781 C 110.128906 110.96875 110.210938 111.1875 110.140625 111.332031 C 110.085938 111.417969 110 111.496094 109.875 111.566406 C 109.757812 111.628906 109.648438 111.636719 109.546875 111.582031 C 109.523438 111.5625 109.421875 111.4375 109.234375 111.207031 C 109.046875 110.980469 108.835938 110.796875 108.609375 110.660156 C 108.285156 110.484375 108 110.433594 107.75 110.503906 C 107.507812 110.566406 107.335938 110.691406 107.234375 110.878906 C 107.128906 111.078125 107.128906 111.28125 107.234375 111.488281 C 107.347656 111.699219 107.519531 111.902344 107.75 112.097656 C 107.976562 112.296875 108.191406 112.515625 108.390625 112.753906 C 108.597656 112.984375 108.726562 113.261719 108.78125 113.582031 C 108.832031 113.894531 108.765625 114.222656 108.578125 114.566406 C 108.328125 115.003906 107.976562 115.261719 107.53125 115.347656 C 107.09375 115.429688 106.597656 115.316406 106.046875 115.003906 C 105.566406 114.753906 105.203125 114.449219 104.953125 114.097656 C 104.710938 113.746094 104.644531 113.46875 104.75 113.269531 Z M 112.394531 109.929688 C 112.339844 109.765625 112.351562 109.617188 112.425781 109.492188 C 112.496094 109.359375 112.613281 109.269531 112.769531 109.226562 C 112.933594 109.1875 113.097656 109.207031 113.253906 109.289062 C 113.398438 109.375 113.496094 109.492188 113.550781 109.648438 C 113.601562 109.804688 113.589844 109.953125 113.519531 110.085938 C 113.445312 110.210938 113.324219 110.300781 113.160156 110.351562 C 113.003906 110.394531 112.851562 110.375 112.707031 110.289062 C 112.558594 110.207031 112.457031 110.085938 112.394531 109.929688 Z M 108.957031 116.101562 L 111.347656 111.726562 C 111.398438 111.632812 111.480469 111.585938 111.597656 111.585938 C 111.722656 111.578125 111.847656 111.601562 111.972656 111.664062 C 112.097656 111.738281 112.183594 111.820312 112.238281 111.914062 C 112.289062 112.007812 112.289062 112.101562 112.238281 112.195312 L 109.847656 116.570312 C 109.804688 116.640625 109.722656 116.6875 109.597656 116.710938 C 109.472656 116.730469 109.347656 116.710938 109.222656 116.648438 C 109.105469 116.585938 109.023438 116.496094 108.972656 116.382812 C 108.917969 116.277344 108.914062 116.183594 108.957031 116.101562 Z M 111.777344 115.960938 L 114.730469 110.554688 C 114.78125 110.460938 114.863281 110.410156 114.980469 110.398438 C 115.105469 110.390625 115.21875 110.410156 115.324219 110.460938 C 115.4375 110.523438 115.527344 110.613281 115.589844 110.726562 C 115.652344 110.84375 115.65625 110.945312 115.605469 111.039062 L 114.511719 113.054688 L 115.824219 113.773438 C 115.90625 113.816406 115.949219 113.882812 115.949219 113.976562 C 115.957031 114.070312 115.9375 114.164062 115.886719 114.257812 C 115.84375 114.34375 115.78125 114.40625 115.699219 114.445312 C 115.613281 114.488281 115.53125 114.488281 115.449219 114.445312 L 114.136719 113.726562 L 112.652344 116.445312 C 112.484375 116.75 112.425781 117 112.480469 117.195312 C 112.542969 117.382812 112.734375 117.5625 113.058594 117.742188 L 113.386719 117.914062 C 113.511719 117.984375 113.582031 118.074219 113.605469 118.179688 C 113.636719 118.292969 113.621094 118.402344 113.558594 118.507812 C 113.503906 118.609375 113.421875 118.679688 113.308594 118.710938 C 113.191406 118.75 113.078125 118.742188 112.964844 118.679688 L 112.636719 118.507812 C 111.480469 117.871094 111.191406 117.023438 111.777344 115.960938 Z M 116.214844 114.433594 C 116.277344 114.332031 116.390625 114.273438 116.558594 114.261719 C 116.734375 114.242188 116.890625 114.261719 117.027344 114.324219 C 117.171875 114.410156 117.230469 114.523438 117.199219 114.667969 L 116.589844 119.105469 L 119.855469 116.121094 C 119.96875 116.019531 120.089844 116.003906 120.214844 116.074219 C 120.339844 116.136719 120.441406 116.253906 120.527344 116.417969 C 120.609375 116.574219 120.621094 116.710938 120.558594 116.824219 C 120.535156 116.867188 120.5 116.898438 120.449219 116.917969 L 116.527344 120.324219 L 116.011719 120.746094 C 115.9375 120.816406 115.78125 120.941406 115.542969 121.121094 C 115.3125 121.308594 115.128906 121.4375 114.996094 121.511719 C 114.871094 121.582031 114.691406 121.667969 114.464844 121.761719 C 114.246094 121.855469 114.050781 121.90625 113.886719 121.917969 C 113.730469 121.9375 113.558594 121.933594 113.371094 121.902344 C 113.175781 121.878906 112.980469 121.816406 112.792969 121.714844 C 112.523438 121.566406 112.460938 121.363281 112.605469 121.105469 C 112.730469 120.855469 112.878906 120.769531 113.042969 120.855469 C 113.355469 121.03125 113.753906 121.019531 114.246094 120.824219 C 114.746094 120.636719 115.203125 120.296875 115.621094 119.808594 L 116.199219 114.589844 C 116.1875 114.527344 116.191406 114.476562 116.214844 114.433594 Z M 123.671875 116.660156 C 123.753906 116.515625 123.878906 116.433594 124.046875 116.410156 L 125.65625 115.800781 C 125.789062 115.75 125.898438 115.75 125.984375 115.800781 C 126.085938 115.855469 126.164062 115.933594 126.21875 116.035156 C 126.28125 116.128906 126.28125 116.230469 126.21875 116.332031 L 122.359375 123.410156 C 122.304688 123.503906 122.21875 123.554688 122.09375 123.566406 C 121.976562 123.574219 121.859375 123.542969 121.734375 123.472656 C 121.609375 123.410156 121.519531 123.324219 121.46875 123.222656 C 121.414062 123.117188 121.414062 123.019531 121.46875 122.925781 L 124.78125 116.863281 L 124.078125 117.238281 C 123.960938 117.269531 123.867188 117.265625 123.796875 117.222656 C 123.703125 117.171875 123.644531 117.09375 123.625 116.988281 C 123.601562 116.875 123.617188 116.765625 123.671875 116.660156 Z M 124.675781 122.179688 L 126.410156 119.007812 C 126.847656 118.21875 127.371094 117.753906 127.988281 117.617188 C 128.613281 117.484375 129.273438 117.609375 129.972656 117.992188 C 130.667969 118.378906 131.113281 118.859375 131.300781 119.429688 C 131.496094 120.003906 131.460938 120.535156 131.191406 121.023438 C 131.042969 121.296875 130.835938 121.351562 130.566406 121.195312 C 130.261719 121.039062 130.179688 120.84375 130.316406 120.601562 C 130.492188 120.28125 130.496094 119.953125 130.332031 119.617188 C 130.175781 119.273438 129.898438 118.992188 129.503906 118.773438 C 128.574219 118.265625 127.839844 118.503906 127.300781 119.492188 L 126.488281 120.976562 C 127.058594 120.726562 127.691406 120.789062 128.378906 121.164062 C 129.785156 121.9375 130.101562 123.03125 129.332031 124.445312 L 129.207031 124.664062 C 128.769531 125.453125 128.242188 125.921875 127.628906 126.070312 C 127.023438 126.214844 126.378906 126.101562 125.691406 125.726562 C 125.011719 125.351562 124.566406 124.859375 124.347656 124.257812 C 124.128906 123.664062 124.238281 122.972656 124.675781 122.179688 Z M 125.550781 122.710938 C 124.996094 123.703125 125.183594 124.449219 126.113281 124.960938 C 127.027344 125.460938 127.761719 125.214844 128.316406 124.226562 L 128.425781 124.007812 C 128.945312 123.050781 128.746094 122.320312 127.832031 121.820312 C 126.902344 121.3125 126.199219 121.5 125.722656 122.382812 Z M 131.554688 127.277344 C 131.617188 127.152344 131.714844 127.066406 131.851562 127.011719 C 131.984375 126.949219 132.101562 126.941406 132.195312 126.980469 C 132.257812 127.011719 132.3125 127.101562 132.367188 127.246094 C 132.417969 127.394531 132.464844 127.542969 132.507812 127.699219 C 132.558594 127.847656 132.667969 128.023438 132.835938 128.230469 C 133.011719 128.4375 133.234375 128.628906 133.507812 128.808594 L 135.039062 126.011719 L 134.570312 125.480469 C 134.464844 125.355469 134.339844 125.179688 134.195312 124.949219 C 134.046875 124.710938 133.960938 124.503906 133.929688 124.324219 C 133.898438 124.148438 133.898438 123.933594 133.929688 123.683594 C 133.960938 123.425781 134.042969 123.167969 134.179688 122.917969 C 134.355469 122.597656 134.5625 122.339844 134.804688 122.152344 C 135.054688 121.964844 135.3125 121.863281 135.585938 121.839844 C 135.855469 121.808594 136.117188 121.816406 136.367188 121.855469 C 136.625 121.898438 136.890625 121.976562 137.164062 122.089844 L 137.335938 121.777344 C 137.367188 121.726562 137.417969 121.691406 137.492188 121.667969 C 137.5625 121.648438 137.640625 121.660156 137.726562 121.699219 C 137.789062 121.742188 137.835938 121.804688 137.867188 121.886719 C 137.90625 121.960938 137.914062 122.023438 137.882812 122.074219 L 137.726562 122.386719 C 138.132812 122.628906 138.46875 122.902344 138.742188 123.214844 C 139.023438 123.527344 139.109375 123.777344 139.007812 123.964844 C 138.945312 124.070312 138.84375 124.164062 138.710938 124.246094 C 138.585938 124.320312 138.460938 124.320312 138.335938 124.246094 C 138.3125 124.238281 138.203125 124.101562 138.007812 123.839844 C 137.820312 123.570312 137.578125 123.347656 137.289062 123.167969 L 135.976562 125.574219 C 136.195312 125.816406 136.367188 126.035156 136.492188 126.230469 C 136.617188 126.417969 136.734375 126.652344 136.851562 126.933594 C 136.964844 127.207031 137 127.496094 136.960938 127.808594 C 136.917969 128.121094 136.804688 128.449219 136.617188 128.792969 C 136.28125 129.40625 135.851562 129.800781 135.320312 129.980469 C 134.789062 130.15625 134.21875 130.125 133.617188 129.886719 L 133.398438 130.277344 C 133.375 130.328125 133.320312 130.359375 133.226562 130.371094 C 133.140625 130.390625 133.070312 130.378906 133.007812 130.339844 C 132.921875 130.296875 132.871094 130.238281 132.851562 130.167969 C 132.828125 130.09375 132.828125 130.03125 132.851562 129.980469 L 133.054688 129.621094 C 132.449219 129.285156 132.011719 128.871094 131.742188 128.371094 C 131.480469 127.882812 131.417969 127.519531 131.554688 127.277344 Z M 135.070312 123.277344 C 134.890625 123.613281 134.851562 123.914062 134.945312 124.183594 C 135.046875 124.457031 135.257812 124.761719 135.570312 125.105469 L 136.773438 122.886719 C 135.96875 122.554688 135.402344 122.683594 135.070312 123.277344 Z M 134.023438 129.042969 C 134.773438 129.3125 135.339844 129.105469 135.726562 128.417969 C 135.921875 128.054688 135.992188 127.722656 135.929688 127.417969 C 135.867188 127.105469 135.699219 126.789062 135.429688 126.464844 Z M 142.613281 124.714844 C 142.652344 124.644531 142.726562 124.601562 142.832031 124.589844 C 142.933594 124.582031 143.035156 124.601562 143.128906 124.652344 C 143.222656 124.707031 143.292969 124.785156 143.347656 124.886719 C 143.410156 124.980469 143.417969 125.066406 143.378906 125.136719 L 142.425781 126.605469 C 142.382812 126.679688 142.320312 126.730469 142.238281 126.761719 C 142.164062 126.792969 142.082031 126.785156 141.988281 126.730469 C 141.808594 126.636719 141.773438 126.496094 141.878906 126.308594 Z M 144.035156 125.496094 C 144.074219 125.425781 144.148438 125.382812 144.253906 125.371094 C 144.355469 125.363281 144.457031 125.386719 144.550781 125.449219 C 144.652344 125.503906 144.730469 125.574219 144.785156 125.667969 C 144.835938 125.761719 144.839844 125.847656 144.800781 125.917969 L 143.863281 127.386719 C 143.820312 127.460938 143.757812 127.511719 143.675781 127.542969 C 143.589844 127.574219 143.507812 127.566406 143.425781 127.511719 C 143.238281 127.417969 143.195312 127.277344 143.300781 127.089844 Z M 140.582031 135.054688 C 140.863281 134.542969 141.355469 134.3125 142.066406 134.367188 C 141.773438 134.042969 141.722656 133.71875 141.910156 133.382812 C 142.085938 133.0625 142.402344 132.894531 142.863281 132.882812 C 142.644531 132.351562 142.691406 131.804688 143.003906 131.242188 L 143.191406 130.898438 C 143.472656 130.378906 143.871094 130.050781 144.394531 129.914062 C 144.914062 129.78125 145.449219 129.863281 146.003906 130.164062 C 146.480469 130.425781 146.820312 130.789062 147.019531 131.257812 C 147.464844 130.914062 147.824219 130.816406 148.097656 130.960938 C 148.210938 131.023438 148.285156 131.109375 148.316406 131.210938 C 148.347656 131.316406 148.339844 131.410156 148.300781 131.492188 C 148.238281 131.597656 148.132812 131.644531 147.988281 131.632812 C 147.714844 131.582031 147.445312 131.628906 147.175781 131.773438 C 147.246094 132.160156 147.175781 132.554688 146.957031 132.960938 L 146.769531 133.304688 C 146.488281 133.816406 146.082031 134.132812 145.550781 134.257812 C 145.019531 134.390625 144.472656 134.308594 143.910156 134.007812 C 143.628906 133.851562 143.394531 133.65625 143.207031 133.414062 C 142.976562 133.4375 142.824219 133.515625 142.753906 133.648438 C 142.679688 133.773438 142.707031 133.914062 142.832031 134.070312 C 142.957031 134.234375 143.132812 134.390625 143.363281 134.539062 C 143.589844 134.695312 143.832031 134.871094 144.082031 135.070312 C 144.332031 135.277344 144.554688 135.480469 144.753906 135.679688 C 144.949219 135.886719 145.074219 136.132812 145.128906 136.414062 C 145.179688 136.703125 145.121094 137 144.957031 137.304688 C 144.683594 137.804688 144.277344 138.074219 143.738281 138.117188 C 143.207031 138.15625 142.621094 138.007812 141.988281 137.664062 C 141.363281 137.320312 140.914062 136.90625 140.644531 136.429688 C 140.363281 135.949219 140.34375 135.492188 140.582031 135.054688 Z M 141.472656 135.414062 C 141.316406 135.683594 141.316406 135.96875 141.472656 136.273438 C 141.628906 136.574219 141.910156 136.835938 142.316406 137.054688 C 142.699219 137.273438 143.054688 137.359375 143.378906 137.320312 C 143.710938 137.277344 143.957031 137.121094 144.113281 136.851562 C 144.175781 136.746094 144.207031 136.640625 144.207031 136.539062 C 144.207031 136.433594 144.179688 136.324219 144.128906 136.210938 C 144.074219 136.105469 144.019531 136.011719 143.957031 135.929688 C 143.894531 135.84375 143.800781 135.75 143.675781 135.648438 C 143.558594 135.554688 143.460938 135.476562 143.378906 135.414062 C 143.292969 135.359375 143.183594 135.289062 143.050781 135.195312 C 142.914062 135.109375 142.820312 135.046875 142.769531 135.007812 C 142.113281 134.882812 141.679688 135.015625 141.472656 135.414062 Z M 143.847656 131.710938 C 143.660156 132.046875 143.597656 132.367188 143.660156 132.679688 C 143.730469 132.992188 143.933594 133.238281 144.269531 133.414062 C 144.582031 133.582031 144.886719 133.613281 145.191406 133.507812 C 145.492188 133.394531 145.738281 133.171875 145.925781 132.835938 L 146.113281 132.492188 C 146.289062 132.171875 146.339844 131.847656 146.269531 131.523438 C 146.207031 131.203125 146.011719 130.953125 145.691406 130.773438 C 145.367188 130.609375 145.054688 130.582031 144.753906 130.695312 C 144.449219 130.8125 144.210938 131.035156 144.035156 131.367188 Z M 146.488281 136.605469 L 148.878906 132.230469 C 148.929688 132.136719 149.011719 132.085938 149.128906 132.074219 C 149.242188 132.066406 149.367188 132.097656 149.503906 132.167969 C 149.605469 132.230469 149.679688 132.308594 149.722656 132.402344 C 149.773438 132.496094 149.773438 132.589844 149.722656 132.683594 L 149.457031 133.167969 C 149.707031 133.011719 150.003906 132.914062 150.347656 132.871094 C 150.691406 132.832031 151.011719 132.894531 151.316406 133.058594 L 151.660156 133.261719 C 151.753906 133.304688 151.808594 133.386719 151.832031 133.511719 C 151.851562 133.628906 151.832031 133.738281 151.769531 133.839844 C 151.714844 133.945312 151.632812 134.019531 151.519531 134.058594 C 151.414062 134.101562 151.316406 134.101562 151.222656 134.058594 L 150.878906 133.855469 C 150.511719 133.660156 150.117188 133.632812 149.691406 133.777344 C 149.273438 133.914062 148.941406 134.210938 148.691406 134.667969 L 147.378906 137.074219 C 147.335938 137.144531 147.253906 137.191406 147.128906 137.214844 C 147.003906 137.234375 146.878906 137.214844 146.753906 137.152344 C 146.636719 137.089844 146.554688 137 146.503906 136.886719 C 146.449219 136.78125 146.445312 136.6875 146.488281 136.605469 Z M 150.832031 136.835938 L 151.425781 135.726562 C 151.726562 135.1875 152.191406 134.832031 152.816406 134.664062 C 153.441406 134.488281 154.039062 134.554688 154.613281 134.867188 C 155.164062 135.171875 155.539062 135.617188 155.738281 136.210938 C 155.933594 136.796875 155.882812 137.367188 155.582031 137.929688 C 155.464844 138.128906 155.351562 138.28125 155.238281 138.382812 C 155.121094 138.476562 154.996094 138.519531 154.863281 138.507812 C 154.738281 138.5 154.628906 138.476562 154.535156 138.445312 C 154.449219 138.414062 154.332031 138.359375 154.175781 138.273438 L 151.863281 137.023438 L 151.691406 137.335938 C 151.472656 137.734375 151.441406 138.125 151.597656 138.507812 C 151.753906 138.882812 152.050781 139.1875 152.488281 139.429688 C 152.726562 139.554688 152.945312 139.625 153.144531 139.648438 C 153.351562 139.679688 153.523438 139.6875 153.660156 139.679688 C 153.804688 139.667969 153.914062 139.679688 153.988281 139.710938 C 154.082031 139.773438 154.136719 139.867188 154.160156 139.992188 C 154.179688 140.117188 154.164062 140.226562 154.113281 140.320312 C 154.027344 140.476562 153.777344 140.546875 153.363281 140.539062 C 152.957031 140.527344 152.519531 140.398438 152.050781 140.148438 C 151.363281 139.773438 150.898438 139.277344 150.660156 138.664062 C 150.429688 138.050781 150.488281 137.441406 150.832031 136.835938 Z M 152.175781 136.429688 L 154.128906 137.492188 C 154.316406 137.585938 154.449219 137.632812 154.535156 137.632812 C 154.628906 137.625 154.710938 137.550781 154.785156 137.414062 C 154.960938 137.101562 154.992188 136.765625 154.878906 136.398438 C 154.773438 136.023438 154.554688 135.75 154.222656 135.570312 C 153.886719 135.382812 153.539062 135.335938 153.175781 135.429688 C 152.820312 135.523438 152.554688 135.738281 152.378906 136.070312 Z M 156.882812 136.652344 C 156.945312 136.550781 157.058594 136.492188 157.226562 136.480469 C 157.402344 136.460938 157.558594 136.480469 157.695312 136.542969 C 157.839844 136.628906 157.898438 136.742188 157.867188 136.886719 L 157.257812 141.324219 L 160.523438 138.339844 C 160.636719 138.238281 160.757812 138.222656 160.882812 138.292969 C 161.007812 138.355469 161.109375 138.472656 161.195312 138.636719 C 161.277344 138.792969 161.289062 138.929688 161.226562 139.042969 C 161.203125 139.085938 161.167969 139.117188 161.117188 139.136719 L 157.195312 142.542969 L 156.679688 142.964844 C 156.605469 143.035156 156.449219 143.160156 156.210938 143.339844 C 155.980469 143.527344 155.796875 143.65625 155.664062 143.730469 C 155.539062 143.800781 155.359375 143.886719 155.132812 143.980469 C 154.914062 144.074219 154.71875 144.125 154.554688 144.136719 C 154.398438 144.15625 154.226562 144.152344 154.039062 144.121094 C 153.84375 144.097656 153.648438 144.035156 153.460938 143.933594 C 153.191406 143.785156 153.128906 143.582031 153.273438 143.324219 C 153.398438 143.074219 153.546875 142.988281 153.710938 143.074219 C 154.023438 143.25 154.421875 143.238281 154.914062 143.042969 C 155.414062 142.855469 155.871094 142.515625 156.289062 142.027344 L 156.867188 136.808594 C 156.855469 136.746094 156.859375 136.695312 156.882812 136.652344 Z M 161.734375 144.925781 L 165.765625 137.550781 C 165.816406 137.457031 165.898438 137.40625 166.015625 137.394531 C 166.128906 137.375 166.25 137.402344 166.375 137.472656 C 166.5 137.535156 166.585938 137.625 166.640625 137.738281 C 166.703125 137.84375 166.707031 137.941406 166.65625 138.035156 L 164.78125 141.472656 C 165.03125 141.308594 165.3125 141.214844 165.625 141.191406 C 165.945312 141.160156 166.265625 141.234375 166.578125 141.410156 C 167.085938 141.691406 167.421875 142.136719 167.578125 142.738281 C 167.734375 143.34375 167.660156 143.921875 167.359375 144.472656 L 166.78125 145.550781 C 166.476562 146.082031 166.023438 146.449219 165.421875 146.660156 C 164.828125 146.867188 164.289062 146.835938 163.8125 146.566406 C 163.488281 146.386719 163.238281 146.148438 163.0625 145.847656 C 162.882812 145.554688 162.800781 145.257812 162.8125 144.957031 L 162.578125 145.378906 C 162.535156 145.460938 162.453125 145.511719 162.328125 145.535156 C 162.210938 145.554688 162.101562 145.535156 162 145.472656 C 161.882812 145.410156 161.800781 145.320312 161.75 145.207031 C 161.695312 145.101562 161.691406 145.007812 161.734375 144.925781 Z M 163.359375 144.050781 C 163.265625 144.230469 163.273438 144.503906 163.390625 144.878906 C 163.503906 145.242188 163.710938 145.503906 164.015625 145.660156 C 164.335938 145.835938 164.6875 145.855469 165.0625 145.722656 C 165.445312 145.597656 165.726562 145.378906 165.90625 145.066406 L 166.484375 143.988281 C 166.660156 143.667969 166.695312 143.316406 166.59375 142.941406 C 166.5 142.558594 166.289062 142.277344 165.96875 142.097656 C 165.644531 141.933594 165.300781 141.902344 164.9375 142.003906 C 164.582031 142.097656 164.304688 142.328125 164.109375 142.691406 Z M 167.03125 147.8125 L 171.0625 140.4375 C 171.113281 140.34375 171.191406 140.292969 171.296875 140.28125 C 171.410156 140.261719 171.53125 140.289062 171.65625 140.359375 C 171.789062 140.421875 171.882812 140.511719 171.9375 140.625 C 171.988281 140.730469 171.988281 140.828125 171.9375 140.921875 L 167.90625 148.296875 C 167.863281 148.367188 167.78125 148.414062 167.65625 148.4375 C 167.53125 148.457031 167.40625 148.429688 167.28125 148.359375 C 167.164062 148.296875 167.082031 148.207031 167.03125 148.09375 C 166.988281 147.988281 166.988281 147.894531 167.03125 147.8125 Z M 169.460938 147.855469 C 169.761719 147.304688 170.179688 147.039062 170.710938 147.058594 C 171.25 147.070312 171.917969 147.289062 172.710938 147.714844 L 173.226562 147.996094 L 173.351562 147.777344 C 173.539062 147.425781 173.605469 147.066406 173.554688 146.699219 C 173.511719 146.335938 173.296875 146.050781 172.914062 145.839844 C 172.609375 145.675781 172.320312 145.585938 172.039062 145.574219 C 171.757812 145.554688 171.605469 145.539062 171.585938 145.527344 C 171.492188 145.464844 171.4375 145.371094 171.429688 145.246094 C 171.417969 145.113281 171.4375 144.996094 171.492188 144.902344 C 171.585938 144.738281 171.824219 144.679688 172.210938 144.730469 C 172.605469 144.785156 172.980469 144.902344 173.335938 145.089844 C 174.023438 145.464844 174.421875 145.945312 174.539062 146.527344 C 174.652344 147.101562 174.546875 147.675781 174.226562 148.246094 L 172.757812 150.949219 C 172.703125 151.042969 172.621094 151.09375 172.507812 151.105469 C 172.390625 151.113281 172.273438 151.082031 172.148438 151.011719 C 172.03125 150.957031 171.949219 150.878906 171.898438 150.777344 C 171.855469 150.683594 171.859375 150.589844 171.914062 150.496094 L 172.148438 150.074219 C 171.375 150.355469 170.699219 150.332031 170.117188 150.011719 C 169.6875 149.78125 169.40625 149.480469 169.273438 149.105469 C 169.148438 148.730469 169.210938 148.316406 169.460938 147.855469 Z M 170.382812 148.230469 C 170.234375 148.492188 170.203125 148.730469 170.289062 148.949219 C 170.371094 149.167969 170.53125 149.34375 170.773438 149.480469 C 171.0625 149.636719 171.414062 149.667969 171.820312 149.574219 C 172.234375 149.488281 172.507812 149.324219 172.632812 149.074219 L 172.945312 148.527344 L 172.570312 148.324219 C 172.371094 148.222656 172.195312 148.136719 172.039062 148.074219 C 171.882812 148.003906 171.714844 147.941406 171.539062 147.886719 C 171.359375 147.824219 171.203125 147.800781 171.070312 147.808594 C 170.945312 147.808594 170.820312 147.847656 170.695312 147.917969 C 170.570312 147.980469 170.464844 148.085938 170.382812 148.230469 Z M 174.679688 149.855469 L 175.242188 148.792969 C 175.574219 148.191406 176.023438 147.800781 176.585938 147.621094 C 177.15625 147.433594 177.78125 147.527344 178.460938 147.902344 C 178.898438 148.144531 179.226562 148.425781 179.445312 148.746094 C 179.664062 149.058594 179.71875 149.304688 179.617188 149.480469 C 179.5625 149.574219 179.46875 149.652344 179.335938 149.714844 C 179.210938 149.769531 179.101562 149.769531 179.007812 149.714844 C 178.976562 149.695312 178.886719 149.566406 178.742188 149.324219 C 178.59375 149.085938 178.382812 148.886719 178.101562 148.730469 C 177.671875 148.503906 177.289062 148.441406 176.945312 148.542969 C 176.609375 148.636719 176.335938 148.882812 176.117188 149.277344 L 175.554688 150.339844 C 175.085938 151.175781 175.28125 151.824219 176.148438 152.292969 C 176.449219 152.457031 176.742188 152.535156 177.023438 152.527344 C 177.3125 152.515625 177.476562 152.519531 177.507812 152.542969 C 177.621094 152.605469 177.6875 152.699219 177.710938 152.824219 C 177.742188 152.957031 177.730469 153.078125 177.679688 153.183594 C 177.585938 153.359375 177.335938 153.441406 176.929688 153.433594 C 176.53125 153.421875 176.109375 153.292969 175.664062 153.042969 C 174.976562 152.667969 174.554688 152.191406 174.398438 151.621094 C 174.242188 151.050781 174.335938 150.460938 174.679688 149.855469 Z M 178.351562 154.003906 L 182.382812 146.628906 C 182.433594 146.535156 182.515625 146.484375 182.632812 146.472656 C 182.746094 146.453125 182.867188 146.480469 182.992188 146.550781 C 183.117188 146.613281 183.203125 146.703125 183.257812 146.816406 C 183.320312 146.921875 183.324219 147.019531 183.273438 147.113281 L 180.585938 152.035156 L 184.164062 151.175781 C 184.246094 151.15625 184.320312 151.160156 184.382812 151.191406 C 184.484375 151.253906 184.558594 151.355469 184.601562 151.488281 C 184.652344 151.625 184.652344 151.746094 184.601562 151.847656 C 184.546875 151.941406 184.476562 151.996094 184.382812 152.003906 L 182.210938 152.503906 L 182.601562 155.988281 C 182.601562 156.058594 182.585938 156.128906 182.554688 156.191406 C 182.5 156.285156 182.398438 156.351562 182.242188 156.394531 C 182.085938 156.433594 181.949219 156.425781 181.835938 156.363281 C 181.742188 156.308594 181.683594 156.222656 181.664062 156.097656 L 181.335938 152.722656 L 180.039062 153.035156 L 179.242188 154.488281 C 179.199219 154.558594 179.117188 154.605469 178.992188 154.628906 C 178.867188 154.648438 178.742188 154.621094 178.617188 154.550781 C 178.5 154.488281 178.417969 154.398438 178.367188 154.285156 C 178.3125 154.179688 178.308594 154.085938 178.351562 154.003906 Z M 187.128906 149.035156 C 187.167969 148.964844 187.242188 148.921875 187.347656 148.910156 C 187.449219 148.902344 187.550781 148.921875 187.644531 148.972656 C 187.738281 149.027344 187.808594 149.105469 187.863281 149.207031 C 187.925781 149.300781 187.933594 149.386719 187.894531 149.457031 L 186.941406 150.925781 C 186.898438 151 186.835938 151.050781 186.753906 151.082031 C 186.679688 151.113281 186.597656 151.105469 186.503906 151.050781 C 186.324219 150.957031 186.289062 150.816406 186.394531 150.628906 Z M 188.550781 149.816406 C 188.589844 149.746094 188.664062 149.703125 188.769531 149.691406 C 188.871094 149.683594 188.972656 149.707031 189.066406 149.769531 C 189.167969 149.824219 189.246094 149.894531 189.300781 149.988281 C 189.351562 150.082031 189.355469 150.167969 189.316406 150.238281 L 188.378906 151.707031 C 188.335938 151.78125 188.273438 151.832031 188.191406 151.863281 C 188.105469 151.894531 188.023438 151.886719 187.941406 151.832031 C 187.753906 151.738281 187.710938 151.597656 187.816406 151.410156 Z M 185.410156 158.261719 "/>
</g>
</svg>
