<?xml version="1.0" encoding="UTF-8"?>
<svg xmlns="http://www.w3.org/2000/svg" xmlns:xlink="http://www.w3.org/1999/xlink" width="136pt" height="566pt" viewBox="0 0 136 566" version="1.1">
<g id="surface205">
<path style=" stroke:none;fill-rule:nonzero;fill:rgb(0%,0%,0%);fill-opacity:1;" d="M 0 0 L 96 0 L 96 566 L 0 566 Z M 0 0 "/>
<path style=" stroke:none;fill-rule:nonzero;fill:rgb(50.196078%,50.196078%,50.196078%);fill-opacity:1;" d="M 0 0 L 12 0 L 12 566 L 0 566 Z M 0 0 "/>
<path style=" stroke:none;fill-rule:nonzero;fill:rgb(0%,0%,0%);fill-opacity:1;" d="M 12 0 L 24 0 L 24 566 L 12 566 Z M 12 0 "/>
<path style=" stroke:none;fill-rule:nonzero;fill:rgb(50.196078%,50.196078%,50.196078%);fill-opacity:1;" d="M 24 0 L 36 0 L 36 566 L 24 566 Z M 24 0 "/>
<path style=" stroke:none;fill-rule:nonzero;fill:rgb(0%,0%,0%);fill-opacity:1;" d="M 36 0 L 48 0 L 48 566 L 36 566 Z M 36 0 "/>
<path style=" stroke:none;fill-rule:nonzero;fill:rgb(50.196078%,50.196078%,50.196078%);fill-opacity:1;" d="M 48 0 L 60 0 L 60 566 L 48 566 Z M 48 0 "/>
<path style=" stroke:none;fill-rule:nonzero;fill:rgb(0%,0%,0%);fill-opacity:1;" d="M 60 0 L 72 0 L 72 566 L 60 566 Z M 60 0 "/>
<path style=" stroke:none;fill-rule:nonzero;fill:rgb(50.196078%,50.196078%,50.196078%);fill-opacity:1;" d="M 72 0 L 84 0 L 84 566 L 72 566 Z M 72 0 "/>
<path style=" stroke:none;fill-rule:nonzero;fill:rgb(0%,0%,0%);fill-opacity:1;" d="M 84 0 L 96 0 L 96 566 L 84 566 Z M 84 0 "/>
<path style=" stroke:none;fill-rule:nonzero;fill:rgb(0%,0%,0%);fill-opacity:1;" d="M 36.578125 11.203125 L 47.453125 11.203125 C 48.492188 11.203125 49.378906 11.550781 50.109375 12.25 C 50.835938 12.945312 51.203125 13.773438 51.203125 14.734375 L 51.203125 15.4375 C 51.203125 15.65625 51.128906 15.820312 50.984375 15.9375 C 50.835938 16.0625 50.660156 16.125 50.453125 16.125 C 50.253906 16.125 50.082031 16.0625 49.9375 15.9375 C 49.800781 15.820312 49.734375 15.65625 49.734375 15.4375 L 49.734375 15.015625 C 49.734375 14.398438 49.523438 13.890625 49.109375 13.484375 C 48.703125 13.078125 48.195312 12.867188 47.59375 12.859375 L 45.484375 12.859375 L 45.484375 15.59375 C 45.484375 15.757812 45.414062 15.890625 45.28125 15.984375 C 45.144531 16.078125 44.988281 16.125 44.8125 16.125 C 44.644531 16.125 44.5 16.078125 44.375 15.984375 C 44.25 15.890625 44.1875 15.757812 44.1875 15.59375 L 44.1875 12.859375 L 36.578125 12.859375 C 36.421875 12.859375 36.285156 12.773438 36.171875 12.609375 C 36.054688 12.441406 36 12.238281 36 12 C 36 11.769531 36.050781 11.578125 36.15625 11.421875 C 36.257812 11.273438 36.398438 11.203125 36.578125 11.203125 Z M 39.71875 17.113281 L 41.765625 17.113281 C 42.785156 17.113281 43.675781 17.503906 44.4375 18.285156 C 45.207031 19.066406 45.59375 19.988281 45.59375 21.050781 C 45.59375 22.121094 45.210938 23.050781 44.453125 23.832031 C 43.691406 24.621094 42.796875 25.019531 41.765625 25.019531 L 39.71875 25.019531 C 38.707031 25.019531 37.804688 24.621094 37.015625 23.832031 C 36.234375 23.039062 35.84375 22.117188 35.84375 21.066406 C 35.84375 20.011719 36.234375 19.089844 37.015625 18.300781 C 37.796875 17.507812 38.695312 17.113281 39.71875 17.113281 Z M 39.71875 18.785156 C 39.09375 18.785156 38.539062 19.007812 38.0625 19.457031 C 37.582031 19.914062 37.34375 20.449219 37.34375 21.066406 C 37.34375 21.691406 37.582031 22.226562 38.0625 22.675781 C 38.550781 23.132812 39.101562 23.363281 39.71875 23.363281 L 41.765625 23.363281 C 42.359375 23.363281 42.894531 23.132812 43.375 22.675781 C 43.851562 22.226562 44.09375 21.683594 44.09375 21.050781 C 44.09375 20.425781 43.851562 19.886719 43.375 19.441406 C 42.894531 19.003906 42.359375 18.785156 41.765625 18.785156 Z M 36.59375 27.199219 L 50.625 27.199219 C 50.789062 27.199219 50.925781 27.269531 51.03125 27.417969 C 51.144531 27.574219 51.203125 27.769531 51.203125 28.011719 C 51.203125 28.261719 51.144531 28.464844 51.03125 28.621094 C 50.925781 28.777344 50.789062 28.855469 50.625 28.855469 L 36.59375 28.855469 C 36.445312 28.855469 36.3125 28.769531 36.1875 28.605469 C 36.0625 28.4375 36 28.238281 36 28.011719 C 36 27.792969 36.054688 27.597656 36.171875 27.433594 C 36.296875 27.277344 36.4375 27.199219 36.59375 27.199219 Z M 39.71875 31.03125 L 41.765625 31.03125 C 42.816406 31.03125 43.71875 31.382812 44.46875 32.09375 C 45.21875 32.800781 45.59375 33.644531 45.59375 34.625 C 45.59375 35.21875 45.445312 35.738281 45.15625 36.1875 C 44.863281 36.644531 44.503906 36.992188 44.078125 37.234375 L 50.625 37.234375 C 50.789062 37.234375 50.925781 37.3125 51.03125 37.46875 C 51.144531 37.632812 51.203125 37.835938 51.203125 38.078125 C 51.203125 38.316406 51.144531 38.515625 51.03125 38.671875 C 50.925781 38.828125 50.789062 38.90625 50.625 38.90625 L 36.59375 38.90625 C 36.4375 38.90625 36.296875 38.820312 36.171875 38.65625 C 36.054688 38.5 36 38.304688 36 38.078125 C 36 37.878906 36.054688 37.703125 36.171875 37.546875 C 36.296875 37.390625 36.4375 37.3125 36.59375 37.3125 L 37.40625 37.3125 C 36.976562 37.09375 36.609375 36.726562 36.296875 36.21875 C 35.996094 35.707031 35.84375 35.15625 35.84375 34.5625 C 35.84375 33.625 36.234375 32.800781 37.015625 32.09375 C 37.804688 31.382812 38.707031 31.03125 39.71875 31.03125 Z M 39.71875 32.703125 C 39.101562 32.703125 38.550781 32.925781 38.0625 33.375 C 37.582031 33.832031 37.34375 34.359375 37.34375 34.953125 C 37.34375 35.546875 37.566406 36.070312 38.015625 36.53125 C 38.460938 37 38.851562 37.234375 39.1875 37.234375 L 41.765625 37.234375 C 42.453125 37.234375 43.007812 37.003906 43.4375 36.546875 C 43.875 36.097656 44.09375 35.578125 44.09375 34.984375 C 44.09375 34.367188 43.851562 33.832031 43.375 33.375 C 42.894531 32.925781 42.359375 32.703125 41.765625 32.703125 Z M 36.59375 41.523438 L 50.015625 41.523438 C 50.203125 41.523438 50.347656 41.59375 50.453125 41.742188 C 50.566406 41.898438 50.625 42.078125 50.625 42.289062 L 50.625 49.398438 C 50.625 49.585938 50.550781 49.726562 50.40625 49.820312 C 50.257812 49.921875 50.082031 49.976562 49.875 49.976562 C 49.664062 49.976562 49.484375 49.921875 49.328125 49.820312 C 49.171875 49.714844 49.09375 49.574219 49.09375 49.398438 L 49.09375 43.195312 L 44.015625 43.195312 L 44.015625 46.320312 C 44.015625 46.496094 43.941406 46.636719 43.796875 46.742188 C 43.660156 46.84375 43.492188 46.898438 43.296875 46.898438 C 43.128906 46.898438 42.972656 46.84375 42.828125 46.742188 C 42.691406 46.648438 42.625 46.507812 42.625 46.320312 L 42.625 43.195312 L 37.515625 43.195312 L 37.515625 49.398438 C 37.515625 49.574219 37.4375 49.714844 37.28125 49.820312 C 37.132812 49.921875 36.953125 49.976562 36.734375 49.976562 C 36.535156 49.976562 36.363281 49.921875 36.21875 49.820312 C 36.070312 49.726562 36 49.585938 36 49.398438 L 36 42.289062 C 36 42.078125 36.050781 41.898438 36.15625 41.742188 C 36.257812 41.59375 36.40625 41.523438 36.59375 41.523438 Z M 44.796875 50.613281 C 44.984375 50.613281 45.148438 50.726562 45.296875 50.957031 C 45.441406 51.195312 45.515625 51.433594 45.515625 51.675781 C 45.515625 51.957031 45.410156 52.136719 45.203125 52.222656 L 38.40625 54.753906 L 45.125 57.253906 C 45.382812 57.367188 45.515625 57.550781 45.515625 57.800781 C 45.515625 58.007812 45.441406 58.238281 45.296875 58.488281 C 45.148438 58.746094 44.984375 58.878906 44.796875 58.878906 C 44.691406 58.878906 44.585938 58.851562 44.484375 58.800781 L 36.1875 55.519531 C 35.9375 55.414062 35.8125 55.160156 35.8125 54.753906 C 35.8125 54.347656 35.9375 54.085938 36.1875 53.972656 L 44.484375 50.691406 C 44.640625 50.636719 44.742188 50.613281 44.796875 50.613281 Z M 39.71875 59.933594 L 41.8125 59.933594 C 42.84375 59.933594 43.726562 60.324219 44.46875 61.105469 C 45.21875 61.886719 45.59375 62.824219 45.59375 63.917969 C 45.59375 64.957031 45.242188 65.859375 44.546875 66.621094 C 43.847656 67.378906 42.972656 67.761719 41.921875 67.761719 C 41.535156 67.761719 41.222656 67.714844 40.984375 67.621094 C 40.753906 67.527344 40.585938 67.378906 40.484375 67.183594 C 40.390625 66.996094 40.328125 66.816406 40.296875 66.652344 C 40.273438 66.484375 40.265625 66.261719 40.265625 65.980469 L 40.265625 61.605469 L 39.65625 61.605469 C 38.925781 61.605469 38.335938 61.863281 37.890625 62.386719 C 37.453125 62.917969 37.234375 63.597656 37.234375 64.433594 C 37.234375 64.878906 37.300781 65.265625 37.4375 65.589844 C 37.570312 65.910156 37.703125 66.171875 37.828125 66.371094 C 37.953125 66.578125 38.015625 66.738281 38.015625 66.855469 C 38.015625 67.042969 37.929688 67.203125 37.765625 67.339844 C 37.597656 67.472656 37.429688 67.542969 37.265625 67.542969 C 36.953125 67.542969 36.632812 67.234375 36.3125 66.621094 C 36 66.015625 35.84375 65.269531 35.84375 64.386719 C 35.84375 63.074219 36.195312 62 36.90625 61.167969 C 37.625 60.34375 38.5625 59.933594 39.71875 59.933594 Z M 41.375 61.605469 L 41.375 65.308594 C 41.375 65.652344 41.414062 65.878906 41.5 65.996094 C 41.59375 66.121094 41.765625 66.183594 42.015625 66.183594 C 42.617188 66.183594 43.144531 65.957031 43.59375 65.511719 C 44.050781 65.074219 44.28125 64.535156 44.28125 63.902344 C 44.28125 63.277344 44.066406 62.734375 43.640625 62.277344 C 43.222656 61.828125 42.707031 61.605469 42.09375 61.605469 Z M 36.59375 69.609375 L 44.90625 69.609375 C 45.070312 69.609375 45.207031 69.679688 45.3125 69.828125 C 45.425781 69.984375 45.484375 70.179688 45.484375 70.421875 C 45.484375 70.628906 45.425781 70.804688 45.3125 70.953125 C 45.207031 71.109375 45.070312 71.1875 44.90625 71.1875 L 43.953125 71.1875 C 44.410156 71.425781 44.796875 71.773438 45.109375 72.234375 C 45.429688 72.703125 45.59375 73.222656 45.59375 73.796875 L 45.59375 74.484375 C 45.59375 74.648438 45.515625 74.796875 45.359375 74.921875 C 45.210938 75.054688 45.039062 75.125 44.84375 75.125 C 44.644531 75.125 44.46875 75.054688 44.3125 74.921875 C 44.164062 74.796875 44.09375 74.648438 44.09375 74.484375 L 44.09375 73.796875 C 44.09375 73.117188 43.816406 72.523438 43.265625 72.015625 C 42.722656 71.515625 42.019531 71.265625 41.15625 71.265625 L 36.59375 71.265625 C 36.445312 71.265625 36.3125 71.179688 36.1875 71.015625 C 36.0625 70.847656 36 70.648438 36 70.421875 C 36 70.191406 36.054688 70 36.171875 69.84375 C 36.296875 69.6875 36.4375 69.609375 36.59375 69.609375 Z M 44.796875 75.535156 C 45.015625 75.535156 45.203125 75.652344 45.359375 75.894531 C 45.515625 76.132812 45.59375 76.371094 45.59375 76.613281 C 45.59375 76.894531 45.484375 77.074219 45.265625 77.160156 L 38.296875 79.800781 L 45.265625 82.175781 C 45.484375 82.269531 45.59375 82.445312 45.59375 82.707031 C 45.59375 82.925781 45.515625 83.160156 45.359375 83.410156 C 45.203125 83.660156 45.007812 83.785156 44.78125 83.785156 C 44.71875 83.785156 44.648438 83.761719 44.578125 83.722656 L 36.4375 80.675781 L 35.4375 80.300781 C 35.25 80.238281 34.933594 80.101562 34.484375 79.894531 C 34.027344 79.695312 33.699219 79.527344 33.5 79.394531 C 33.304688 79.269531 33.042969 79.085938 32.71875 78.847656 C 32.386719 78.605469 32.148438 78.371094 32 78.144531 C 31.855469 77.914062 31.726562 77.644531 31.609375 77.332031 C 31.484375 77.019531 31.421875 76.691406 31.421875 76.347656 C 31.421875 75.824219 31.667969 75.566406 32.15625 75.566406 C 32.636719 75.566406 32.875 75.722656 32.875 76.035156 C 32.875 76.636719 33.214844 77.222656 33.890625 77.785156 C 34.570312 78.355469 35.433594 78.742188 36.484375 78.941406 L 44.578125 75.613281 C 44.660156 75.558594 44.734375 75.535156 44.796875 75.535156 Z M 36.15625 89.335938 L 50.78125 89.335938 C 50.957031 89.335938 51.097656 89.414062 51.203125 89.570312 C 51.304688 89.726562 51.359375 89.902344 51.359375 90.101562 L 51.359375 93.382812 C 51.359375 93.546875 51.285156 93.683594 51.140625 93.789062 C 50.992188 93.902344 50.820312 93.960938 50.625 93.960938 C 50.40625 93.960938 50.222656 93.902344 50.078125 93.789062 C 49.929688 93.683594 49.859375 93.546875 49.859375 93.382812 L 49.859375 91.023438 L 37.078125 91.023438 L 37.078125 93.382812 C 37.078125 93.546875 37.003906 93.683594 36.859375 93.789062 C 36.710938 93.902344 36.53125 93.960938 36.3125 93.960938 C 36.113281 93.960938 35.945312 93.902344 35.796875 93.789062 C 35.652344 93.683594 35.578125 93.546875 35.578125 93.382812 L 35.578125 90.101562 C 35.578125 89.902344 35.636719 89.726562 35.75 89.570312 C 35.855469 89.414062 35.992188 89.335938 36.15625 89.335938 Z M 39.28125 94.835938 C 39.582031 94.835938 39.785156 94.890625 39.890625 95.007812 C 40.003906 95.121094 40.0625 95.324219 40.0625 95.617188 C 40.0625 95.9375 40.003906 96.164062 39.890625 96.289062 C 39.785156 96.414062 39.625 96.476562 39.40625 96.476562 C 38.894531 96.476562 38.429688 96.6875 38.015625 97.117188 C 37.609375 97.554688 37.40625 98.214844 37.40625 99.101562 C 37.40625 100.882812 38.320312 101.773438 40.15625 101.773438 L 40.546875 101.773438 C 42.171875 101.773438 42.984375 100.882812 42.984375 99.101562 C 42.984375 98.714844 43.210938 98.523438 43.671875 98.523438 C 44.140625 98.523438 44.375 98.714844 44.375 99.101562 C 44.375 99.871094 44.546875 100.449219 44.890625 100.835938 C 45.242188 101.21875 45.875 101.414062 46.78125 101.414062 C 48.34375 101.414062 49.125 100.667969 49.125 99.179688 C 49.125 98.324219 48.929688 97.71875 48.546875 97.367188 C 48.171875 97.011719 47.722656 96.835938 47.203125 96.835938 C 46.703125 96.835938 46.453125 96.570312 46.453125 96.039062 C 46.453125 95.683594 46.507812 95.449219 46.625 95.335938 C 46.75 95.21875 46.976562 95.164062 47.3125 95.164062 C 47.644531 95.164062 47.988281 95.226562 48.34375 95.351562 C 48.695312 95.476562 49.050781 95.679688 49.40625 95.960938 C 49.757812 96.242188 50.050781 96.664062 50.28125 97.226562 C 50.507812 97.796875 50.625 98.464844 50.625 99.226562 C 50.625 101.765625 49.441406 103.039062 47.078125 103.039062 C 46.234375 103.039062 45.519531 102.890625 44.9375 102.601562 C 44.351562 102.308594 43.945312 101.914062 43.71875 101.414062 C 43.175781 102.777344 42.117188 103.460938 40.546875 103.460938 L 40.15625 103.460938 C 38.6875 103.460938 37.601562 103.058594 36.90625 102.257812 C 36.21875 101.453125 35.875 100.402344 35.875 99.101562 C 35.875 97.726562 36.222656 96.667969 36.921875 95.929688 C 37.628906 95.199219 38.414062 94.835938 39.28125 94.835938 Z M 36.921875 104.980469 C 37.210938 104.980469 37.460938 105.074219 37.671875 105.261719 C 37.878906 105.457031 37.984375 105.703125 37.984375 105.996094 C 37.984375 106.277344 37.878906 106.519531 37.671875 106.730469 C 37.472656 106.9375 37.222656 107.042969 36.921875 107.042969 C 36.679688 107.042969 35.875 106.753906 34.5 106.183594 C 34.3125 106.097656 34.21875 105.953125 34.21875 105.746094 C 34.21875 105.597656 34.265625 105.464844 34.359375 105.339844 C 34.445312 105.222656 34.558594 105.167969 34.703125 105.167969 C 34.796875 105.167969 34.871094 105.175781 34.921875 105.199219 L 35.953125 105.621094 C 36.128906 105.191406 36.453125 104.980469 36.921875 104.980469 Z M 39.34375 108.28125 C 39.875 108.28125 40.140625 108.5625 40.140625 109.125 C 40.140625 109.6875 39.910156 109.96875 39.453125 109.96875 C 38.816406 109.96875 38.316406 110.210938 37.953125 110.703125 C 37.585938 111.191406 37.40625 111.816406 37.40625 112.578125 C 37.40625 113.421875 37.632812 114.070312 38.09375 114.53125 C 38.5625 114.988281 39.265625 115.21875 40.203125 115.21875 L 40.578125 115.21875 C 41.484375 115.21875 42.164062 114.988281 42.625 114.53125 C 43.082031 114.070312 43.3125 113.425781 43.3125 112.59375 L 43.3125 109.765625 C 43.3125 109.242188 43.535156 108.984375 43.984375 108.984375 C 44.117188 108.984375 44.265625 108.992188 44.421875 109.015625 L 50.015625 109.4375 C 50.421875 109.46875 50.625 109.613281 50.625 109.875 L 50.625 115.640625 C 50.625 115.816406 50.546875 115.953125 50.390625 116.046875 C 50.234375 116.140625 50.054688 116.1875 49.859375 116.1875 C 49.660156 116.1875 49.484375 116.140625 49.328125 116.046875 C 49.171875 115.953125 49.09375 115.816406 49.09375 115.640625 L 49.09375 110.90625 L 44.71875 110.59375 L 44.71875 112.59375 C 44.71875 113.90625 44.382812 114.953125 43.71875 115.734375 C 43.050781 116.515625 42.003906 116.90625 40.578125 116.90625 L 40.203125 116.90625 C 38.722656 116.90625 37.628906 116.507812 36.921875 115.71875 C 36.222656 114.9375 35.875 113.894531 35.875 112.59375 C 35.875 111.257812 36.210938 110.207031 36.890625 109.4375 C 37.566406 108.664062 38.382812 108.28125 39.34375 108.28125 Z M 36.3125 117.839844 C 36.53125 117.839844 36.710938 117.890625 36.859375 117.996094 C 37.003906 118.109375 37.078125 118.25 37.078125 118.417969 L 37.078125 120.777344 L 49.859375 120.777344 L 49.859375 118.417969 C 49.859375 118.25 49.929688 118.109375 50.078125 117.996094 C 50.222656 117.890625 50.40625 117.839844 50.625 117.839844 C 50.820312 117.839844 50.992188 117.890625 51.140625 117.996094 C 51.285156 118.109375 51.359375 118.25 51.359375 118.417969 L 51.359375 121.699219 C 51.359375 121.894531 51.304688 122.074219 51.203125 122.230469 C 51.097656 122.386719 50.957031 122.464844 50.78125 122.464844 L 36.15625 122.464844 C 35.992188 122.464844 35.855469 122.386719 35.75 122.230469 C 35.636719 122.074219 35.578125 121.894531 35.578125 121.699219 L 35.578125 118.417969 C 35.578125 118.25 35.652344 118.109375 35.796875 117.996094 C 35.945312 117.890625 36.113281 117.839844 36.3125 117.839844 Z M 39.09375 128.902344 L 47.578125 128.902344 C 48.628906 128.902344 49.519531 129.285156 50.25 130.058594 C 50.988281 130.828125 51.359375 131.734375 51.359375 132.777344 C 51.359375 133.328125 51.113281 133.605469 50.625 133.605469 C 50.394531 133.605469 50.207031 133.546875 50.0625 133.433594 C 49.925781 133.328125 49.859375 133.191406 49.859375 133.027344 C 49.859375 132.285156 49.628906 131.691406 49.171875 131.246094 C 48.710938 130.796875 48.179688 130.574219 47.578125 130.574219 L 39.09375 130.574219 C 38.363281 130.574219 37.847656 130.8125 37.546875 131.292969 C 37.242188 131.78125 37.09375 132.359375 37.09375 133.027344 C 37.09375 133.410156 36.84375 133.605469 36.34375 133.605469 C 35.84375 133.605469 35.59375 133.316406 35.59375 132.746094 C 35.59375 131.660156 35.898438 130.75 36.5 130.011719 C 37.113281 129.269531 37.976562 128.902344 39.09375 128.902344 Z M 37.359375 134.554688 C 37.535156 134.554688 37.707031 134.609375 37.875 134.726562 C 38.039062 134.839844 38.125 134.980469 38.125 135.148438 C 38.125 135.25 38.039062 135.402344 37.875 135.601562 C 37.71875 135.796875 37.5625 136.085938 37.40625 136.460938 C 37.257812 136.835938 37.1875 137.273438 37.1875 137.773438 C 37.1875 138.4375 37.304688 138.921875 37.546875 139.226562 C 37.785156 139.527344 38.082031 139.679688 38.4375 139.679688 C 38.875 139.679688 39.222656 139.511719 39.484375 139.179688 C 39.742188 138.84375 39.941406 138.4375 40.078125 137.960938 C 40.210938 137.480469 40.359375 137 40.515625 136.523438 C 40.679688 136.042969 40.945312 135.636719 41.3125 135.304688 C 41.6875 134.96875 42.179688 134.804688 42.796875 134.804688 C 43.554688 134.804688 44.210938 135.070312 44.765625 135.601562 C 45.316406 136.140625 45.59375 136.96875 45.59375 138.085938 C 45.59375 138.792969 45.484375 139.4375 45.265625 140.023438 C 45.046875 140.605469 44.796875 140.898438 44.515625 140.898438 C 44.359375 140.898438 44.179688 140.835938 43.984375 140.710938 C 43.785156 140.585938 43.6875 140.429688 43.6875 140.242188 C 43.6875 140.1875 43.78125 139.929688 43.96875 139.460938 C 44.164062 139 44.265625 138.546875 44.265625 138.101562 C 44.265625 137.484375 44.117188 137.027344 43.828125 136.726562 C 43.546875 136.421875 43.222656 136.273438 42.859375 136.273438 C 42.484375 136.273438 42.1875 136.4375 41.96875 136.773438 C 41.757812 137.105469 41.59375 137.515625 41.46875 138.007812 C 41.351562 138.496094 41.207031 138.980469 41.03125 139.460938 C 40.863281 139.9375 40.566406 140.34375 40.140625 140.679688 C 39.722656 141.011719 39.179688 141.179688 38.515625 141.179688 C 37.691406 141.179688 37.039062 140.882812 36.5625 140.289062 C 36.082031 139.703125 35.84375 138.886719 35.84375 137.835938 C 35.84375 136.929688 36.003906 136.152344 36.328125 135.507812 C 36.648438 134.871094 36.992188 134.554688 37.359375 134.554688 Z M 36.59375 143.160156 L 50.625 143.160156 C 50.789062 143.160156 50.925781 143.230469 51.03125 143.378906 C 51.144531 143.535156 51.203125 143.730469 51.203125 143.972656 C 51.203125 144.222656 51.144531 144.425781 51.03125 144.582031 C 50.925781 144.738281 50.789062 144.816406 50.625 144.816406 L 36.59375 144.816406 C 36.445312 144.816406 36.3125 144.730469 36.1875 144.566406 C 36.0625 144.398438 36 144.199219 36 143.972656 C 36 143.753906 36.054688 143.558594 36.171875 143.394531 C 36.296875 143.238281 36.4375 143.160156 36.59375 143.160156 Z M 39.71875 146.992188 L 41.765625 146.992188 C 42.785156 146.992188 43.675781 147.382812 44.4375 148.164062 C 45.207031 148.945312 45.59375 149.867188 45.59375 150.929688 C 45.59375 152 45.210938 152.929688 44.453125 153.710938 C 43.691406 154.5 42.796875 154.898438 41.765625 154.898438 L 39.71875 154.898438 C 38.707031 154.898438 37.804688 154.5 37.015625 153.710938 C 36.234375 152.917969 35.84375 151.996094 35.84375 150.945312 C 35.84375 149.890625 36.234375 148.96875 37.015625 148.179688 C 37.796875 147.386719 38.695312 146.992188 39.71875 146.992188 Z M 39.71875 148.664062 C 39.09375 148.664062 38.539062 148.886719 38.0625 149.335938 C 37.582031 149.792969 37.34375 150.328125 37.34375 150.945312 C 37.34375 151.570312 37.582031 152.105469 38.0625 152.554688 C 38.550781 153.011719 39.101562 153.242188 39.71875 153.242188 L 41.765625 153.242188 C 42.359375 153.242188 42.894531 153.011719 43.375 152.554688 C 43.851562 152.105469 44.09375 151.5625 44.09375 150.929688 C 44.09375 150.304688 43.851562 149.765625 43.375 149.320312 C 42.894531 148.882812 42.359375 148.664062 41.765625 148.664062 Z M 44.796875 156 C 44.992188 156 45.160156 156.109375 45.296875 156.328125 C 45.441406 156.546875 45.515625 156.773438 45.515625 157.015625 C 45.515625 157.296875 45.410156 157.476562 45.203125 157.5625 L 38.484375 159.984375 L 44.546875 161.859375 C 44.804688 161.953125 44.9375 162.160156 44.9375 162.484375 C 44.9375 162.816406 44.804688 163.03125 44.546875 163.125 L 38.421875 164.953125 L 45.203125 167.40625 C 45.410156 167.46875 45.515625 167.640625 45.515625 167.921875 C 45.515625 168.160156 45.441406 168.390625 45.296875 168.609375 C 45.160156 168.835938 44.992188 168.953125 44.796875 168.953125 C 44.691406 168.953125 44.585938 168.925781 44.484375 168.875 L 36.1875 165.765625 C 35.9375 165.671875 35.8125 165.445312 35.8125 165.09375 C 35.8125 164.738281 35.9375 164.515625 36.1875 164.421875 L 42.0625 162.484375 L 36.234375 160.578125 C 35.953125 160.484375 35.8125 160.242188 35.8125 159.859375 C 35.8125 159.515625 35.953125 159.285156 36.234375 159.171875 L 44.484375 156.078125 C 44.640625 156.023438 44.742188 156 44.796875 156 Z M 36.59375 173.859375 L 38.546875 173.859375 C 39.140625 173.859375 39.726562 174.085938 40.3125 174.546875 C 40.894531 175.003906 41.414062 175.5625 41.875 176.21875 L 43.3125 178.15625 C 43.78125 178.8125 44.304688 179.367188 44.890625 179.828125 C 45.472656 180.285156 46.0625 180.515625 46.65625 180.515625 C 47.300781 180.515625 47.863281 180.304688 48.34375 179.890625 C 48.820312 179.472656 49.0625 178.867188 49.0625 178.078125 C 49.0625 177.410156 48.875 176.863281 48.5 176.4375 C 48.125 176.019531 47.582031 175.8125 46.875 175.8125 C 46.707031 175.8125 46.554688 175.734375 46.421875 175.578125 C 46.285156 175.421875 46.21875 175.207031 46.21875 174.9375 C 46.21875 174.425781 46.546875 174.171875 47.203125 174.171875 C 48.203125 174.171875 49.019531 174.546875 49.65625 175.296875 C 50.300781 176.054688 50.625 176.984375 50.625 178.078125 C 50.625 179.253906 50.253906 180.234375 49.515625 181.015625 C 48.773438 181.804688 47.84375 182.203125 46.71875 182.203125 C 46.050781 182.203125 45.410156 182.035156 44.796875 181.703125 C 44.179688 181.378906 43.660156 180.972656 43.234375 180.484375 C 42.804688 180.003906 42.378906 179.476562 41.953125 178.90625 L 40.8125 177.296875 C 40.476562 176.816406 40.113281 176.410156 39.71875 176.078125 C 39.320312 175.753906 38.929688 175.59375 38.546875 175.59375 L 37.515625 175.59375 L 37.515625 181.734375 C 37.515625 181.898438 37.441406 182.035156 37.296875 182.140625 C 37.148438 182.253906 36.972656 182.3125 36.765625 182.3125 C 36.554688 182.3125 36.375 182.253906 36.21875 182.140625 C 36.070312 182.035156 36 181.898438 36 181.734375 L 36 174.625 C 36 174.445312 36.054688 174.273438 36.171875 174.109375 C 36.285156 173.941406 36.425781 173.859375 36.59375 173.859375 Z M 36.34375 183.257812 C 36.84375 183.257812 37.09375 183.449219 37.09375 183.835938 C 37.09375 184.5 37.242188 185.074219 37.546875 185.554688 C 37.847656 186.03125 38.363281 186.273438 39.09375 186.273438 L 47.578125 186.273438 C 48.179688 186.273438 48.710938 186.046875 49.171875 185.601562 C 49.628906 185.164062 49.859375 184.574219 49.859375 183.835938 C 49.859375 183.667969 49.925781 183.527344 50.0625 183.414062 C 50.207031 183.308594 50.394531 183.257812 50.625 183.257812 C 51.113281 183.257812 51.359375 183.53125 51.359375 184.085938 C 51.359375 185.117188 50.988281 186.015625 50.25 186.789062 C 49.519531 187.570312 48.628906 187.960938 47.578125 187.960938 L 39.09375 187.960938 C 37.976562 187.960938 37.113281 187.589844 36.5 186.851562 C 35.898438 186.109375 35.59375 185.195312 35.59375 184.101562 C 35.59375 183.539062 35.84375 183.257812 36.34375 183.257812 Z M 38.296875 193.804688 C 38.515625 193.804688 38.722656 193.875 38.921875 194.023438 C 39.117188 194.179688 39.21875 194.351562 39.21875 194.539062 C 39.21875 194.640625 39.132812 194.789062 38.96875 194.976562 C 38.8125 195.164062 38.632812 195.351562 38.4375 195.539062 C 38.25 195.734375 38.070312 196.042969 37.90625 196.460938 C 37.738281 196.875 37.644531 197.34375 37.625 197.867188 L 42.9375 197.867188 L 43.34375 196.789062 C 43.4375 196.527344 43.59375 196.199219 43.8125 195.804688 C 44.039062 195.417969 44.269531 195.125 44.5 194.929688 C 44.738281 194.742188 45.054688 194.5625 45.453125 194.398438 C 45.847656 194.242188 46.289062 194.164062 46.78125 194.164062 C 47.382812 194.164062 47.914062 194.265625 48.375 194.476562 C 48.832031 194.695312 49.191406 194.984375 49.453125 195.351562 C 49.722656 195.714844 49.925781 196.105469 50.0625 196.523438 C 50.207031 196.9375 50.300781 197.386719 50.34375 197.867188 L 50.9375 197.867188 C 51.039062 197.867188 51.132812 197.914062 51.21875 198.007812 C 51.3125 198.109375 51.359375 198.234375 51.359375 198.382812 C 51.359375 198.515625 51.3125 198.636719 51.21875 198.742188 C 51.132812 198.84375 51.039062 198.898438 50.9375 198.898438 L 50.375 198.898438 C 50.332031 199.699219 50.195312 200.421875 49.96875 201.070312 C 49.738281 201.726562 49.4375 202.054688 49.0625 202.054688 C 48.875 202.054688 48.671875 201.984375 48.453125 201.851562 C 48.242188 201.726562 48.140625 201.554688 48.140625 201.335938 C 48.140625 201.273438 48.253906 200.992188 48.484375 200.492188 C 48.722656 200 48.851562 199.46875 48.875 198.898438 L 44.3125 198.898438 C 44.132812 199.417969 43.953125 199.84375 43.765625 200.179688 C 43.585938 200.523438 43.34375 200.882812 43.03125 201.257812 C 42.71875 201.640625 42.316406 201.929688 41.828125 202.117188 C 41.335938 202.3125 40.769531 202.414062 40.125 202.414062 C 38.945312 202.414062 38.015625 202.09375 37.328125 201.460938 C 36.648438 200.835938 36.238281 199.980469 36.09375 198.898438 L 35.375 198.898438 C 35.273438 198.898438 35.179688 198.84375 35.09375 198.742188 C 35 198.636719 34.953125 198.515625 34.953125 198.382812 C 34.953125 198.234375 35 198.109375 35.09375 198.007812 C 35.179688 197.914062 35.273438 197.867188 35.375 197.867188 L 36.046875 197.867188 C 36.054688 196.71875 36.3125 195.757812 36.8125 194.976562 C 37.320312 194.195312 37.816406 193.804688 38.296875 193.804688 Z M 46.9375 195.757812 C 46.3125 195.757812 45.84375 195.933594 45.53125 196.289062 C 45.21875 196.652344 44.925781 197.203125 44.65625 197.945312 L 48.859375 197.945312 C 48.710938 196.484375 48.070312 195.757812 46.9375 195.757812 Z M 37.65625 198.820312 C 37.875 200.152344 38.640625 200.820312 39.953125 200.820312 C 40.648438 200.820312 41.191406 200.648438 41.578125 200.304688 C 41.960938 199.960938 42.289062 199.464844 42.5625 198.820312 Z M 39.71875 208.03125 L 41.765625 208.03125 C 42.816406 208.03125 43.71875 208.382812 44.46875 209.09375 C 45.21875 209.800781 45.59375 210.644531 45.59375 211.625 C 45.59375 212.21875 45.445312 212.738281 45.15625 213.1875 C 44.863281 213.644531 44.503906 213.992188 44.078125 214.234375 L 50.625 214.234375 C 50.789062 214.234375 50.925781 214.3125 51.03125 214.46875 C 51.144531 214.632812 51.203125 214.835938 51.203125 215.078125 C 51.203125 215.316406 51.144531 215.515625 51.03125 215.671875 C 50.925781 215.828125 50.789062 215.90625 50.625 215.90625 L 36.59375 215.90625 C 36.4375 215.90625 36.296875 215.820312 36.171875 215.65625 C 36.054688 215.5 36 215.304688 36 215.078125 C 36 214.878906 36.054688 214.703125 36.171875 214.546875 C 36.296875 214.390625 36.4375 214.3125 36.59375 214.3125 L 37.40625 214.3125 C 36.976562 214.09375 36.609375 213.726562 36.296875 213.21875 C 35.996094 212.707031 35.84375 212.15625 35.84375 211.5625 C 35.84375 210.625 36.234375 209.800781 37.015625 209.09375 C 37.804688 208.382812 38.707031 208.03125 39.71875 208.03125 Z M 39.71875 209.703125 C 39.101562 209.703125 38.550781 209.925781 38.0625 210.375 C 37.582031 210.832031 37.34375 211.359375 37.34375 211.953125 C 37.34375 212.546875 37.566406 213.070312 38.015625 213.53125 C 38.460938 214 38.851562 214.234375 39.1875 214.234375 L 41.765625 214.234375 C 42.453125 214.234375 43.007812 214.003906 43.4375 213.546875 C 43.875 213.097656 44.09375 212.578125 44.09375 211.984375 C 44.09375 211.367188 43.851562 210.832031 43.375 210.375 C 42.894531 209.925781 42.359375 209.703125 41.765625 209.703125 Z M 39.71875 217.914062 L 41.8125 217.914062 C 42.84375 217.914062 43.726562 218.304688 44.46875 219.085938 C 45.21875 219.867188 45.59375 220.804688 45.59375 221.898438 C 45.59375 222.9375 45.242188 223.839844 44.546875 224.601562 C 43.847656 225.359375 42.972656 225.742188 41.921875 225.742188 C 41.535156 225.742188 41.222656 225.695312 40.984375 225.601562 C 40.753906 225.507812 40.585938 225.359375 40.484375 225.164062 C 40.390625 224.976562 40.328125 224.796875 40.296875 224.632812 C 40.273438 224.464844 40.265625 224.242188 40.265625 223.960938 L 40.265625 219.585938 L 39.65625 219.585938 C 38.925781 219.585938 38.335938 219.84375 37.890625 220.367188 C 37.453125 220.898438 37.234375 221.578125 37.234375 222.414062 C 37.234375 222.859375 37.300781 223.246094 37.4375 223.570312 C 37.570312 223.890625 37.703125 224.152344 37.828125 224.351562 C 37.953125 224.558594 38.015625 224.71875 38.015625 224.835938 C 38.015625 225.023438 37.929688 225.183594 37.765625 225.320312 C 37.597656 225.453125 37.429688 225.523438 37.265625 225.523438 C 36.953125 225.523438 36.632812 225.214844 36.3125 224.601562 C 36 223.996094 35.84375 223.25 35.84375 222.367188 C 35.84375 221.054688 36.195312 219.980469 36.90625 219.148438 C 37.625 218.324219 38.5625 217.914062 39.71875 217.914062 Z M 41.375 219.585938 L 41.375 223.289062 C 41.375 223.632812 41.414062 223.859375 41.5 223.976562 C 41.59375 224.101562 41.765625 224.164062 42.015625 224.164062 C 42.617188 224.164062 43.144531 223.9375 43.59375 223.492188 C 44.050781 223.054688 44.28125 222.515625 44.28125 221.882812 C 44.28125 221.257812 44.066406 220.714844 43.640625 220.257812 C 43.222656 219.808594 42.707031 219.585938 42.09375 219.585938 Z M 36.59375 227.585938 L 44.90625 227.585938 C 45.070312 227.585938 45.207031 227.65625 45.3125 227.804688 C 45.425781 227.960938 45.484375 228.15625 45.484375 228.398438 C 45.484375 228.59375 45.425781 228.773438 45.3125 228.929688 C 45.195312 229.085938 45.0625 229.164062 44.90625 229.164062 L 44.078125 229.164062 C 44.503906 229.371094 44.863281 229.710938 45.15625 230.179688 C 45.445312 230.65625 45.59375 231.210938 45.59375 231.835938 C 45.59375 232.78125 45.21875 233.605469 44.46875 234.304688 C 43.71875 235 42.816406 235.351562 41.765625 235.351562 L 36.59375 235.351562 C 36.40625 235.351562 36.257812 235.265625 36.15625 235.101562 C 36.050781 234.933594 36 234.742188 36 234.523438 C 36 234.304688 36.050781 234.109375 36.15625 233.945312 C 36.257812 233.777344 36.40625 233.695312 36.59375 233.695312 L 41.765625 233.695312 C 42.359375 233.695312 42.894531 233.464844 43.375 233.007812 C 43.851562 232.558594 44.09375 232.027344 44.09375 231.414062 C 44.09375 230.839844 43.875 230.335938 43.4375 229.898438 C 43.007812 229.460938 42.453125 229.242188 41.765625 229.242188 L 36.59375 229.242188 C 36.445312 229.242188 36.3125 229.152344 36.1875 228.976562 C 36.0625 228.796875 36 228.605469 36 228.398438 C 36 228.167969 36.054688 227.976562 36.171875 227.820312 C 36.296875 227.664062 36.4375 227.585938 36.59375 227.585938 Z M 37.359375 237.054688 C 37.535156 237.054688 37.707031 237.109375 37.875 237.226562 C 38.039062 237.339844 38.125 237.480469 38.125 237.648438 C 38.125 237.75 38.039062 237.902344 37.875 238.101562 C 37.71875 238.296875 37.5625 238.585938 37.40625 238.960938 C 37.257812 239.335938 37.1875 239.773438 37.1875 240.273438 C 37.1875 240.9375 37.304688 241.421875 37.546875 241.726562 C 37.785156 242.027344 38.082031 242.179688 38.4375 242.179688 C 38.875 242.179688 39.222656 242.011719 39.484375 241.679688 C 39.742188 241.34375 39.941406 240.9375 40.078125 240.460938 C 40.210938 239.980469 40.359375 239.5 40.515625 239.023438 C 40.679688 238.542969 40.945312 238.136719 41.3125 237.804688 C 41.6875 237.46875 42.179688 237.304688 42.796875 237.304688 C 43.554688 237.304688 44.210938 237.570312 44.765625 238.101562 C 45.316406 238.640625 45.59375 239.46875 45.59375 240.585938 C 45.59375 241.292969 45.484375 241.9375 45.265625 242.523438 C 45.046875 243.105469 44.796875 243.398438 44.515625 243.398438 C 44.359375 243.398438 44.179688 243.335938 43.984375 243.210938 C 43.785156 243.085938 43.6875 242.929688 43.6875 242.742188 C 43.6875 242.6875 43.78125 242.429688 43.96875 241.960938 C 44.164062 241.5 44.265625 241.046875 44.265625 240.601562 C 44.265625 239.984375 44.117188 239.527344 43.828125 239.226562 C 43.546875 238.921875 43.222656 238.773438 42.859375 238.773438 C 42.484375 238.773438 42.1875 238.9375 41.96875 239.273438 C 41.757812 239.605469 41.59375 240.015625 41.46875 240.507812 C 41.351562 240.996094 41.207031 241.480469 41.03125 241.960938 C 40.863281 242.4375 40.566406 242.84375 40.140625 243.179688 C 39.722656 243.511719 39.179688 243.679688 38.515625 243.679688 C 37.691406 243.679688 37.039062 243.382812 36.5625 242.789062 C 36.082031 242.203125 35.84375 241.386719 35.84375 240.335938 C 35.84375 239.429688 36.003906 238.652344 36.328125 238.007812 C 36.648438 237.371094 36.992188 237.054688 37.359375 237.054688 Z M 48.359375 245.566406 C 48.554688 245.355469 48.78125 245.253906 49.03125 245.253906 C 49.289062 245.253906 49.515625 245.351562 49.703125 245.550781 C 49.890625 245.757812 49.984375 246.007812 49.984375 246.300781 C 49.984375 246.582031 49.890625 246.820312 49.703125 247.019531 C 49.515625 247.214844 49.289062 247.316406 49.03125 247.316406 C 48.78125 247.316406 48.554688 247.214844 48.359375 247.019531 C 48.171875 246.820312 48.078125 246.582031 48.078125 246.300781 C 48.078125 246.019531 48.171875 245.773438 48.359375 245.566406 Z M 36.59375 245.488281 L 44.90625 245.488281 C 45.070312 245.488281 45.207031 245.566406 45.3125 245.722656 C 45.425781 245.878906 45.484375 246.070312 45.484375 246.300781 C 45.484375 246.539062 45.425781 246.738281 45.3125 246.894531 C 45.207031 247.058594 45.070312 247.144531 44.90625 247.144531 L 36.59375 247.144531 C 36.445312 247.144531 36.3125 247.058594 36.1875 246.894531 C 36.0625 246.726562 36 246.527344 36 246.300781 C 36 246.070312 36.054688 245.878906 36.171875 245.722656 C 36.296875 245.566406 36.4375 245.488281 36.59375 245.488281 Z M 39.015625 249.460938 L 49.3125 249.460938 C 49.476562 249.460938 49.617188 249.542969 49.734375 249.710938 C 49.847656 249.886719 49.90625 250.074219 49.90625 250.273438 C 49.90625 250.492188 49.847656 250.683594 49.734375 250.851562 C 49.617188 251.027344 49.476562 251.117188 49.3125 251.117188 L 45.484375 251.117188 L 45.484375 253.632812 C 45.484375 253.789062 45.414062 253.90625 45.28125 253.992188 C 45.144531 254.085938 44.988281 254.132812 44.8125 254.132812 C 44.644531 254.132812 44.5 254.085938 44.375 253.992188 C 44.25 253.90625 44.1875 253.789062 44.1875 253.632812 L 44.1875 251.117188 L 39.015625 251.117188 C 38.441406 251.117188 38.035156 251.242188 37.796875 251.492188 C 37.566406 251.742188 37.453125 252.167969 37.453125 252.773438 L 37.453125 253.398438 C 37.453125 253.625 37.382812 253.804688 37.25 253.929688 C 37.113281 254.054688 36.941406 254.117188 36.734375 254.117188 C 36.535156 254.117188 36.363281 254.046875 36.21875 253.914062 C 36.070312 253.789062 36 253.617188 36 253.398438 L 36 252.773438 C 36 250.5625 37.003906 249.460938 39.015625 249.460938 Z M 44.796875 254.753906 C 45.015625 254.753906 45.203125 254.871094 45.359375 255.113281 C 45.515625 255.351562 45.59375 255.589844 45.59375 255.832031 C 45.59375 256.113281 45.484375 256.292969 45.265625 256.378906 L 38.296875 259.019531 L 45.265625 261.394531 C 45.484375 261.488281 45.59375 261.664062 45.59375 261.925781 C 45.59375 262.144531 45.515625 262.378906 45.359375 262.628906 C 45.203125 262.878906 45.007812 263.003906 44.78125 263.003906 C 44.71875 263.003906 44.648438 262.980469 44.578125 262.941406 L 36.4375 259.894531 L 35.4375 259.519531 C 35.25 259.457031 34.933594 259.320312 34.484375 259.113281 C 34.027344 258.914062 33.699219 258.746094 33.5 258.613281 C 33.304688 258.488281 33.042969 258.304688 32.71875 258.066406 C 32.386719 257.824219 32.148438 257.589844 32 257.363281 C 31.855469 257.132812 31.726562 256.863281 31.609375 256.550781 C 31.484375 256.238281 31.421875 255.910156 31.421875 255.566406 C 31.421875 255.042969 31.667969 254.785156 32.15625 254.785156 C 32.636719 254.785156 32.875 254.941406 32.875 255.253906 C 32.875 255.855469 33.214844 256.441406 33.890625 257.003906 C 34.570312 257.574219 35.433594 257.960938 36.484375 258.160156 L 44.578125 254.832031 C 44.660156 254.777344 44.734375 254.753906 44.796875 254.753906 Z M 47.5 267.449219 C 47.78125 267.449219 48.015625 267.566406 48.203125 267.808594 L 50.375 269.636719 C 50.550781 269.8125 50.640625 269.988281 50.640625 270.167969 C 50.640625 270.355469 50.582031 270.519531 50.46875 270.667969 C 50.363281 270.824219 50.222656 270.902344 50.046875 270.902344 L 36.59375 270.902344 C 36.40625 270.902344 36.257812 270.816406 36.15625 270.652344 C 36.050781 270.484375 36 270.285156 36 270.058594 C 36 269.828125 36.050781 269.628906 36.15625 269.464844 C 36.257812 269.296875 36.40625 269.214844 36.59375 269.214844 L 48.125 269.214844 L 47.015625 268.480469 C 46.867188 268.34375 46.796875 268.203125 46.796875 268.058594 C 46.796875 267.890625 46.863281 267.746094 47 267.621094 C 47.144531 267.503906 47.3125 267.449219 47.5 267.449219 Z M 40.234375 273.3125 L 46.265625 273.3125 C 47.765625 273.3125 48.863281 273.707031 49.5625 274.5 C 50.269531 275.300781 50.625 276.367188 50.625 277.703125 C 50.625 279.035156 50.273438 280.070312 49.578125 280.8125 C 48.890625 281.5625 48.078125 281.9375 47.140625 281.9375 C 46.648438 281.9375 46.40625 281.675781 46.40625 281.15625 C 46.40625 280.570312 46.625 280.28125 47.0625 280.28125 C 47.675781 280.28125 48.164062 280.03125 48.53125 279.53125 C 48.90625 279.03125 49.09375 278.40625 49.09375 277.65625 C 49.09375 275.882812 48.148438 275 46.265625 275 L 43.453125 275 C 44.285156 275.632812 44.703125 276.609375 44.703125 277.921875 C 44.703125 280.597656 43.351562 281.9375 40.65625 281.9375 L 40.234375 281.9375 C 38.734375 281.9375 37.628906 281.546875 36.921875 280.765625 C 36.222656 279.984375 35.875 278.9375 35.875 277.625 C 35.875 276.320312 36.222656 275.273438 36.921875 274.484375 C 37.628906 273.703125 38.734375 273.3125 40.234375 273.3125 Z M 40.15625 275 C 38.257812 275 37.3125 275.878906 37.3125 277.640625 C 37.3125 279.390625 38.257812 280.265625 40.15625 280.265625 L 40.578125 280.265625 C 42.390625 280.265625 43.296875 279.390625 43.296875 277.640625 C 43.296875 275.878906 42.453125 275 40.765625 275 Z M 36 286.738281 "/>
<path style=" stroke:none;fill-rule:nonzero;fill:rgb(0%,0%,0%);fill-opacity:1;" d="M 18.296875 10.703125 C 18.515625 10.703125 18.722656 10.773438 18.921875 10.921875 C 19.117188 11.078125 19.21875 11.25 19.21875 11.4375 C 19.21875 11.539062 19.132812 11.6875 18.96875 11.875 C 18.8125 12.0625 18.632812 12.25 18.4375 12.4375 C 18.25 12.632812 18.070312 12.941406 17.90625 13.359375 C 17.738281 13.773438 17.644531 14.242188 17.625 14.765625 L 22.9375 14.765625 L 23.34375 13.6875 C 23.4375 13.425781 23.59375 13.097656 23.8125 12.703125 C 24.039062 12.316406 24.269531 12.023438 24.5 11.828125 C 24.738281 11.640625 25.054688 11.460938 25.453125 11.296875 C 25.847656 11.140625 26.289062 11.0625 26.78125 11.0625 C 27.382812 11.0625 27.914062 11.164062 28.375 11.375 C 28.832031 11.59375 29.191406 11.882812 29.453125 12.25 C 29.722656 12.613281 29.925781 13.003906 30.0625 13.421875 C 30.207031 13.835938 30.300781 14.285156 30.34375 14.765625 L 30.9375 14.765625 C 31.039062 14.765625 31.132812 14.8125 31.21875 14.90625 C 31.3125 15.007812 31.359375 15.132812 31.359375 15.28125 C 31.359375 15.414062 31.3125 15.535156 31.21875 15.640625 C 31.132812 15.742188 31.039062 15.796875 30.9375 15.796875 L 30.375 15.796875 C 30.332031 16.597656 30.195312 17.320312 29.96875 17.96875 C 29.738281 18.625 29.4375 18.953125 29.0625 18.953125 C 28.875 18.953125 28.671875 18.882812 28.453125 18.75 C 28.242188 18.625 28.140625 18.453125 28.140625 18.234375 C 28.140625 18.171875 28.253906 17.890625 28.484375 17.390625 C 28.722656 16.898438 28.851562 16.367188 28.875 15.796875 L 24.3125 15.796875 C 24.132812 16.316406 23.953125 16.742188 23.765625 17.078125 C 23.585938 17.421875 23.34375 17.78125 23.03125 18.15625 C 22.71875 18.539062 22.316406 18.828125 21.828125 19.015625 C 21.335938 19.210938 20.769531 19.3125 20.125 19.3125 C 18.945312 19.3125 18.015625 18.992188 17.328125 18.359375 C 16.648438 17.734375 16.238281 16.878906 16.09375 15.796875 L 15.375 15.796875 C 15.273438 15.796875 15.179688 15.742188 15.09375 15.640625 C 15 15.535156 14.953125 15.414062 14.953125 15.28125 C 14.953125 15.132812 15 15.007812 15.09375 14.90625 C 15.179688 14.8125 15.273438 14.765625 15.375 14.765625 L 16.046875 14.765625 C 16.054688 13.617188 16.3125 12.65625 16.8125 11.875 C 17.320312 11.09375 17.816406 10.703125 18.296875 10.703125 Z M 26.9375 12.65625 C 26.3125 12.65625 25.84375 12.832031 25.53125 13.1875 C 25.21875 13.550781 24.925781 14.101562 24.65625 14.84375 L 28.859375 14.84375 C 28.710938 13.382812 28.070312 12.65625 26.9375 12.65625 Z M 17.65625 15.71875 C 17.875 17.050781 18.640625 17.71875 19.953125 17.71875 C 20.648438 17.71875 21.191406 17.546875 21.578125 17.203125 C 21.960938 16.859375 22.289062 16.363281 22.5625 15.71875 Z M 30.859375 24.824219 C 31.003906 24.824219 31.125 24.894531 31.21875 25.042969 C 31.3125 25.1875 31.359375 25.355469 31.359375 25.542969 C 31.359375 25.730469 31.3125 25.894531 31.21875 26.042969 C 31.125 26.199219 31.003906 26.277344 30.859375 26.277344 L 27.953125 26.074219 C 27.804688 26.074219 27.679688 26.027344 27.578125 25.933594 C 27.484375 25.847656 27.4375 25.71875 27.4375 25.542969 C 27.4375 25.199219 27.609375 25.027344 27.953125 25.027344 Z M 30.859375 27.542969 C 31.003906 27.542969 31.125 27.613281 31.21875 27.761719 C 31.3125 27.90625 31.359375 28.074219 31.359375 28.261719 C 31.359375 28.449219 31.3125 28.613281 31.21875 28.761719 C 31.125 28.917969 31.003906 28.996094 30.859375 28.996094 L 27.953125 28.808594 C 27.804688 28.808594 27.679688 28.761719 27.578125 28.667969 C 27.484375 28.574219 27.4375 28.4375 27.4375 28.261719 C 27.4375 27.917969 27.609375 27.746094 27.953125 27.746094 Z M 14.125 30.136719 C 15.09375 30.136719 15.820312 30.675781 16.296875 31.761719 C 16.554688 31.082031 17.003906 30.746094 17.640625 30.746094 C 18.253906 30.746094 18.75 31.078125 19.125 31.746094 C 19.738281 30.984375 20.578125 30.605469 21.640625 30.605469 L 22.296875 30.605469 C 23.273438 30.605469 24.066406 30.925781 24.671875 31.574219 C 25.285156 32.230469 25.59375 33.089844 25.59375 34.152344 C 25.59375 35.058594 25.332031 35.839844 24.8125 36.496094 C 25.6875 36.902344 26.125 37.355469 26.125 37.855469 C 26.125 38.074219 26.054688 38.246094 25.921875 38.371094 C 25.796875 38.503906 25.65625 38.574219 25.5 38.574219 C 25.300781 38.574219 25.148438 38.464844 25.046875 38.246094 C 24.921875 37.785156 24.640625 37.421875 24.203125 37.152344 C 23.703125 37.566406 23.066406 37.777344 22.296875 37.777344 L 21.640625 37.777344 C 20.679688 37.777344 19.882812 37.4375 19.25 36.761719 C 18.625 36.082031 18.3125 35.214844 18.3125 34.152344 C 18.3125 33.609375 18.414062 33.121094 18.625 32.683594 C 18.414062 32.347656 18.1875 32.183594 17.9375 32.183594 C 17.6875 32.183594 17.488281 32.332031 17.34375 32.636719 C 17.207031 32.949219 17.125 33.328125 17.09375 33.777344 C 17.0625 34.234375 17 34.730469 16.90625 35.261719 C 16.8125 35.792969 16.6875 36.28125 16.53125 36.730469 C 16.382812 37.1875 16.128906 37.566406 15.765625 37.871094 C 15.390625 38.183594 14.917969 38.339844 14.34375 38.339844 C 13.398438 38.339844 12.671875 37.957031 12.171875 37.199219 C 11.671875 36.449219 11.421875 35.472656 11.421875 34.277344 C 11.421875 33.078125 11.667969 32.089844 12.15625 31.308594 C 12.636719 30.527344 13.292969 30.136719 14.125 30.136719 Z M 14.296875 31.714844 C 13.777344 31.714844 13.359375 31.941406 13.046875 32.402344 C 12.734375 32.871094 12.578125 33.488281 12.578125 34.261719 C 12.578125 35.011719 12.734375 35.605469 13.046875 36.042969 C 13.359375 36.488281 13.777344 36.714844 14.296875 36.714844 C 14.515625 36.714844 14.703125 36.675781 14.859375 36.605469 C 15.015625 36.53125 15.152344 36.410156 15.265625 36.246094 C 15.371094 36.089844 15.460938 35.933594 15.53125 35.777344 C 15.605469 35.621094 15.667969 35.410156 15.71875 35.152344 C 15.761719 34.902344 15.792969 34.691406 15.8125 34.527344 C 15.835938 34.359375 15.859375 34.140625 15.890625 33.871094 C 15.914062 33.597656 15.929688 33.40625 15.9375 33.292969 C 15.59375 32.238281 15.046875 31.714844 14.296875 31.714844 Z M 21.65625 32.214844 C 21.019531 32.214844 20.492188 32.390625 20.078125 32.746094 C 19.660156 33.097656 19.453125 33.582031 19.453125 34.199219 C 19.453125 34.78125 19.65625 35.25 20.0625 35.605469 C 20.476562 35.96875 21.003906 36.152344 21.640625 36.152344 L 22.296875 36.152344 C 22.910156 36.152344 23.421875 35.96875 23.828125 35.605469 C 24.242188 35.25 24.453125 34.777344 24.453125 34.183594 C 24.453125 33.566406 24.25 33.082031 23.84375 32.730469 C 23.4375 32.386719 22.921875 32.214844 22.296875 32.214844 Z M 16.59375 40.027344 L 24.90625 40.027344 C 25.070312 40.027344 25.207031 40.097656 25.3125 40.246094 C 25.425781 40.402344 25.484375 40.597656 25.484375 40.839844 C 25.484375 41.046875 25.425781 41.222656 25.3125 41.371094 C 25.207031 41.527344 25.070312 41.605469 24.90625 41.605469 L 23.953125 41.605469 C 24.410156 41.84375 24.796875 42.191406 25.109375 42.652344 C 25.429688 43.121094 25.59375 43.640625 25.59375 44.214844 L 25.59375 44.902344 C 25.59375 45.066406 25.515625 45.214844 25.359375 45.339844 C 25.210938 45.472656 25.039062 45.542969 24.84375 45.542969 C 24.644531 45.542969 24.46875 45.472656 24.3125 45.339844 C 24.164062 45.214844 24.09375 45.066406 24.09375 44.902344 L 24.09375 44.214844 C 24.09375 43.535156 23.816406 42.941406 23.265625 42.433594 C 22.722656 41.933594 22.019531 41.683594 21.15625 41.683594 L 16.59375 41.683594 C 16.445312 41.683594 16.3125 41.597656 16.1875 41.433594 C 16.0625 41.265625 16 41.066406 16 40.839844 C 16 40.609375 16.054688 40.417969 16.171875 40.261719 C 16.296875 40.105469 16.4375 40.027344 16.59375 40.027344 Z M 19.71875 46.53125 L 21.8125 46.53125 C 22.84375 46.53125 23.726562 46.921875 24.46875 47.703125 C 25.21875 48.484375 25.59375 49.421875 25.59375 50.515625 C 25.59375 51.554688 25.242188 52.457031 24.546875 53.21875 C 23.847656 53.976562 22.972656 54.359375 21.921875 54.359375 C 21.535156 54.359375 21.222656 54.3125 20.984375 54.21875 C 20.753906 54.125 20.585938 53.976562 20.484375 53.78125 C 20.390625 53.59375 20.328125 53.414062 20.296875 53.25 C 20.273438 53.082031 20.265625 52.859375 20.265625 52.578125 L 20.265625 48.203125 L 19.65625 48.203125 C 18.925781 48.203125 18.335938 48.460938 17.890625 48.984375 C 17.453125 49.515625 17.234375 50.195312 17.234375 51.03125 C 17.234375 51.476562 17.300781 51.863281 17.4375 52.1875 C 17.570312 52.507812 17.703125 52.769531 17.828125 52.96875 C 17.953125 53.175781 18.015625 53.335938 18.015625 53.453125 C 18.015625 53.640625 17.929688 53.800781 17.765625 53.9375 C 17.597656 54.070312 17.429688 54.140625 17.265625 54.140625 C 16.953125 54.140625 16.632812 53.832031 16.3125 53.21875 C 16 52.613281 15.84375 51.867188 15.84375 50.984375 C 15.84375 49.671875 16.195312 48.597656 16.90625 47.765625 C 17.625 46.941406 18.5625 46.53125 19.71875 46.53125 Z M 21.375 48.203125 L 21.375 51.90625 C 21.375 52.25 21.414062 52.476562 21.5 52.59375 C 21.59375 52.71875 21.765625 52.78125 22.015625 52.78125 C 22.617188 52.78125 23.144531 52.554688 23.59375 52.109375 C 24.050781 51.671875 24.28125 51.132812 24.28125 50.5 C 24.28125 49.875 24.066406 49.332031 23.640625 48.875 C 23.222656 48.425781 22.707031 48.203125 22.09375 48.203125 Z M 24.796875 55.253906 C 25.015625 55.253906 25.203125 55.371094 25.359375 55.613281 C 25.515625 55.851562 25.59375 56.089844 25.59375 56.332031 C 25.59375 56.613281 25.484375 56.792969 25.265625 56.878906 L 18.296875 59.519531 L 25.265625 61.894531 C 25.484375 61.988281 25.59375 62.164062 25.59375 62.425781 C 25.59375 62.644531 25.515625 62.878906 25.359375 63.128906 C 25.203125 63.378906 25.007812 63.503906 24.78125 63.503906 C 24.71875 63.503906 24.648438 63.480469 24.578125 63.441406 L 16.4375 60.394531 L 15.4375 60.019531 C 15.25 59.957031 14.933594 59.820312 14.484375 59.613281 C 14.027344 59.414062 13.699219 59.246094 13.5 59.113281 C 13.304688 58.988281 13.042969 58.804688 12.71875 58.566406 C 12.386719 58.324219 12.148438 58.089844 12 57.863281 C 11.855469 57.632812 11.726562 57.363281 11.609375 57.050781 C 11.484375 56.738281 11.421875 56.410156 11.421875 56.066406 C 11.421875 55.542969 11.667969 55.285156 12.15625 55.285156 C 12.636719 55.285156 12.875 55.441406 12.875 55.753906 C 12.875 56.355469 13.214844 56.941406 13.890625 57.503906 C 14.570312 58.074219 15.433594 58.460938 16.484375 58.660156 L 24.578125 55.332031 C 24.660156 55.277344 24.734375 55.253906 24.796875 55.253906 Z M 16.59375 68.964844 L 30.625 68.964844 C 30.789062 68.964844 30.925781 69.035156 31.03125 69.183594 C 31.144531 69.339844 31.203125 69.535156 31.203125 69.777344 C 31.203125 70.015625 31.144531 70.214844 31.03125 70.371094 C 30.925781 70.535156 30.789062 70.621094 30.625 70.621094 L 24.078125 70.621094 C 24.503906 70.859375 24.863281 71.203125 25.15625 71.652344 C 25.445312 72.109375 25.59375 72.640625 25.59375 73.246094 C 25.59375 74.214844 25.21875 75.050781 24.46875 75.761719 C 23.71875 76.46875 22.816406 76.824219 21.765625 76.824219 L 19.71875 76.824219 C 18.707031 76.824219 17.804688 76.46875 17.015625 75.761719 C 16.234375 75.050781 15.84375 74.234375 15.84375 73.308594 C 15.84375 72.703125 15.996094 72.144531 16.296875 71.636719 C 16.609375 71.136719 16.976562 70.769531 17.40625 70.542969 L 16.59375 70.542969 C 16.4375 70.542969 16.296875 70.464844 16.171875 70.308594 C 16.054688 70.152344 16 69.972656 16 69.777344 C 16 69.558594 16.054688 69.363281 16.171875 69.199219 C 16.296875 69.042969 16.4375 68.964844 16.59375 68.964844 Z M 19.1875 70.621094 C 18.851562 70.621094 18.460938 70.855469 18.015625 71.324219 C 17.566406 71.792969 17.34375 72.316406 17.34375 72.902344 C 17.34375 73.503906 17.582031 74.03125 18.0625 74.480469 C 18.550781 74.9375 19.101562 75.167969 19.71875 75.167969 L 21.765625 75.167969 C 22.359375 75.167969 22.894531 74.9375 23.375 74.480469 C 23.851562 74.03125 24.09375 73.5 24.09375 72.886719 C 24.09375 72.28125 23.875 71.75 23.4375 71.292969 C 23.007812 70.84375 22.453125 70.621094 21.765625 70.621094 Z M 16.59375 79 L 30.625 79 C 30.789062 79 30.925781 79.070312 31.03125 79.21875 C 31.144531 79.375 31.203125 79.570312 31.203125 79.8125 C 31.203125 80.0625 31.144531 80.265625 31.03125 80.421875 C 30.925781 80.578125 30.789062 80.65625 30.625 80.65625 L 16.59375 80.65625 C 16.445312 80.65625 16.3125 80.570312 16.1875 80.40625 C 16.0625 80.238281 16 80.039062 16 79.8125 C 16 79.59375 16.054688 79.398438 16.171875 79.234375 C 16.296875 79.078125 16.4375 79 16.59375 79 Z M 18.5 82.582031 C 19.539062 82.582031 20.265625 82.976562 20.671875 83.769531 C 21.078125 84.570312 21.28125 85.730469 21.28125 87.253906 L 21.28125 88.222656 L 21.703125 88.222656 C 22.367188 88.222656 22.945312 88.035156 23.4375 87.660156 C 23.9375 87.292969 24.1875 86.746094 24.1875 86.019531 C 24.1875 85.457031 24.085938 84.960938 23.890625 84.535156 C 23.691406 84.105469 23.59375 83.871094 23.59375 83.832031 C 23.59375 83.652344 23.679688 83.507812 23.859375 83.394531 C 24.046875 83.277344 24.238281 83.222656 24.4375 83.222656 C 24.75 83.222656 25.019531 83.523438 25.25 84.128906 C 25.476562 84.730469 25.59375 85.378906 25.59375 86.066406 C 25.59375 87.367188 25.222656 88.324219 24.484375 88.941406 C 23.742188 89.566406 22.820312 89.878906 21.71875 89.878906 L 16.59375 89.878906 C 16.425781 89.878906 16.285156 89.800781 16.171875 89.644531 C 16.054688 89.496094 16 89.304688 16 89.066406 C 16 88.847656 16.054688 88.664062 16.171875 88.519531 C 16.285156 88.371094 16.425781 88.300781 16.59375 88.300781 L 17.40625 88.300781 C 16.363281 87.394531 15.84375 86.386719 15.84375 85.285156 C 15.84375 84.480469 16.066406 83.832031 16.515625 83.332031 C 16.972656 82.832031 17.632812 82.582031 18.5 82.582031 Z M 18.6875 84.253906 C 18.1875 84.253906 17.8125 84.394531 17.5625 84.675781 C 17.3125 84.957031 17.1875 85.332031 17.1875 85.800781 C 17.1875 86.363281 17.40625 86.902344 17.84375 87.425781 C 18.289062 87.957031 18.75 88.222656 19.21875 88.222656 L 20.265625 88.222656 L 20.265625 87.519531 C 20.265625 87.132812 20.253906 86.800781 20.234375 86.519531 C 20.210938 86.238281 20.171875 85.945312 20.109375 85.644531 C 20.046875 85.351562 19.957031 85.105469 19.84375 84.910156 C 19.738281 84.710938 19.585938 84.550781 19.390625 84.425781 C 19.191406 84.308594 18.957031 84.253906 18.6875 84.253906 Z M 19.71875 91.824219 L 21.71875 91.824219 C 22.863281 91.824219 23.796875 92.15625 24.515625 92.824219 C 25.234375 93.5 25.59375 94.488281 25.59375 95.792969 C 25.59375 96.625 25.445312 97.324219 25.15625 97.886719 C 24.863281 98.457031 24.550781 98.746094 24.21875 98.746094 C 24.03125 98.746094 23.847656 98.671875 23.671875 98.527344 C 23.492188 98.390625 23.40625 98.230469 23.40625 98.042969 C 23.40625 97.988281 23.519531 97.761719 23.75 97.355469 C 23.976562 96.949219 24.09375 96.46875 24.09375 95.917969 C 24.09375 95.113281 23.882812 94.503906 23.46875 94.089844 C 23.0625 93.683594 22.476562 93.480469 21.71875 93.480469 L 19.71875 93.480469 C 18.132812 93.480469 17.34375 94.296875 17.34375 95.933594 C 17.34375 96.496094 17.460938 96.984375 17.703125 97.402344 C 17.941406 97.816406 18.0625 98.058594 18.0625 98.121094 C 18.0625 98.328125 17.972656 98.5 17.796875 98.636719 C 17.628906 98.78125 17.453125 98.855469 17.265625 98.855469 C 16.929688 98.855469 16.609375 98.5625 16.296875 97.980469 C 15.996094 97.394531 15.84375 96.675781 15.84375 95.824219 C 15.84375 94.5 16.195312 93.5 16.90625 92.824219 C 17.625 92.15625 18.5625 91.824219 19.71875 91.824219 Z M 16.59375 100.523438 L 30.625 100.523438 C 30.789062 100.523438 30.925781 100.59375 31.03125 100.742188 C 31.144531 100.898438 31.203125 101.09375 31.203125 101.335938 C 31.203125 101.574219 31.144531 101.773438 31.03125 101.929688 C 30.925781 102.09375 30.789062 102.179688 30.625 102.179688 L 21.265625 102.179688 L 25.375 106.742188 C 25.46875 106.855469 25.515625 106.976562 25.515625 107.101562 C 25.515625 107.296875 25.4375 107.484375 25.28125 107.664062 C 25.125 107.851562 24.941406 107.945312 24.734375 107.945312 C 24.578125 107.945312 24.445312 107.882812 24.34375 107.757812 L 21.875 104.976562 L 17.0625 108.304688 C 16.957031 108.367188 16.859375 108.398438 16.765625 108.398438 C 16.554688 108.398438 16.363281 108.296875 16.1875 108.101562 C 16.007812 107.902344 15.921875 107.695312 15.921875 107.476562 C 15.921875 107.289062 16.007812 107.136719 16.1875 107.023438 L 20.84375 103.835938 L 19.359375 102.179688 L 16.59375 102.179688 C 16.445312 102.179688 16.3125 102.09375 16.1875 101.929688 C 16.0625 101.761719 16 101.5625 16 101.335938 C 16 101.117188 16.054688 100.921875 16.171875 100.757812 C 16.296875 100.601562 16.4375 100.523438 16.59375 100.523438 Z M 30.859375 109.363281 C 31.003906 109.363281 31.125 109.433594 31.21875 109.582031 C 31.3125 109.726562 31.359375 109.894531 31.359375 110.082031 C 31.359375 110.269531 31.3125 110.433594 31.21875 110.582031 C 31.125 110.738281 31.003906 110.816406 30.859375 110.816406 L 27.953125 110.613281 C 27.804688 110.613281 27.679688 110.566406 27.578125 110.472656 C 27.484375 110.386719 27.4375 110.257812 27.4375 110.082031 C 27.4375 109.738281 27.609375 109.566406 27.953125 109.566406 Z M 30.859375 112.082031 C 31.003906 112.082031 31.125 112.152344 31.21875 112.300781 C 31.3125 112.445312 31.359375 112.613281 31.359375 112.800781 C 31.359375 112.988281 31.3125 113.152344 31.21875 113.300781 C 31.125 113.457031 31.003906 113.535156 30.859375 113.535156 L 27.953125 113.347656 C 27.804688 113.347656 27.679688 113.300781 27.578125 113.207031 C 27.484375 113.113281 27.4375 112.976562 27.4375 112.800781 C 27.4375 112.457031 27.609375 112.285156 27.953125 112.285156 Z M 16 114.238281 "/>
</g>
</svg>
