<?xml version="1.0" encoding="UTF-8"?>
<svg xmlns="http://www.w3.org/2000/svg" xmlns:xlink="http://www.w3.org/1999/xlink" width="136pt" height="566pt" viewBox="0 0 136 566" version="1.1">
<g id="surface229">
<path style=" stroke:none;fill-rule:nonzero;fill:rgb(0%,0%,0%);fill-opacity:1;" d="M 0 0 L 96 0 L 96 566 L 0 566 Z M 0 0 "/>
<path style=" stroke:none;fill-rule:nonzero;fill:rgb(50.196078%,50.196078%,50.196078%);fill-opacity:1;" d="M 0 0 L 12 0 L 12 566 L 0 566 Z M 0 0 "/>
<path style=" stroke:none;fill-rule:nonzero;fill:rgb(0%,0%,0%);fill-opacity:1;" d="M 12 0 L 24 0 L 24 566 L 12 566 Z M 12 0 "/>
<path style=" stroke:none;fill-rule:nonzero;fill:rgb(50.196078%,50.196078%,50.196078%);fill-opacity:1;" d="M 24 0 L 36 0 L 36 566 L 24 566 Z M 24 0 "/>
<path style=" stroke:none;fill-rule:nonzero;fill:rgb(0%,0%,0%);fill-opacity:1;" d="M 36 0 L 48 0 L 48 566 L 36 566 Z M 36 0 "/>
<path style=" stroke:none;fill-rule:nonzero;fill:rgb(50.196078%,50.196078%,50.196078%);fill-opacity:1;" d="M 48 0 L 60 0 L 60 566 L 48 566 Z M 48 0 "/>
<path style=" stroke:none;fill-rule:nonzero;fill:rgb(0%,0%,0%);fill-opacity:1;" d="M 60 0 L 72 0 L 72 566 L 60 566 Z M 60 0 "/>
<path style=" stroke:none;fill-rule:nonzero;fill:rgb(50.196078%,50.196078%,50.196078%);fill-opacity:1;" d="M 72 0 L 84 0 L 84 566 L 72 566 Z M 72 0 "/>
<path style=" stroke:none;fill-rule:nonzero;fill:rgb(0%,0%,0%);fill-opacity:1;" d="M 84 0 L 96 0 L 96 566 L 84 566 Z M 84 0 "/>
<path style=" stroke:none;fill-rule:nonzero;fill:rgb(0%,0%,0%);fill-opacity:1;" d="M 116.34375 10.71875 L 122.875 10.71875 C 123.5 10.71875 124.03125 10.925781 124.46875 11.34375 C 124.90625 11.769531 125.125 12.269531 125.125 12.84375 L 125.125 13.265625 C 125.125 13.390625 125.078125 13.488281 124.984375 13.5625 C 124.898438 13.632812 124.796875 13.671875 124.671875 13.671875 C 124.554688 13.671875 124.457031 13.632812 124.375 13.5625 C 124.289062 13.488281 124.25 13.390625 124.25 13.265625 L 124.25 13.015625 C 124.25 12.640625 124.125 12.332031 123.875 12.09375 C 123.625 11.851562 123.316406 11.726562 122.953125 11.71875 L 121.6875 11.71875 L 121.6875 13.359375 C 121.6875 13.453125 121.644531 13.523438 121.5625 13.578125 C 121.488281 13.640625 121.398438 13.671875 121.296875 13.671875 C 121.191406 13.671875 121.097656 13.640625 121.015625 13.578125 C 120.941406 13.523438 120.90625 13.453125 120.90625 13.359375 L 120.90625 11.71875 L 116.34375 11.71875 C 116.25 11.71875 116.164062 11.664062 116.09375 11.5625 C 116.03125 11.46875 116 11.347656 116 11.203125 C 116 11.066406 116.03125 10.953125 116.09375 10.859375 C 116.15625 10.765625 116.238281 10.71875 116.34375 10.71875 Z M 118.234375 14.265625 L 119.453125 14.265625 C 120.066406 14.265625 120.601562 14.5 121.0625 14.96875 C 121.53125 15.4375 121.765625 15.988281 121.765625 16.625 C 121.765625 17.269531 121.535156 17.828125 121.078125 18.296875 C 120.617188 18.773438 120.078125 19.015625 119.453125 19.015625 L 118.234375 19.015625 C 117.617188 19.015625 117.078125 18.773438 116.609375 18.296875 C 116.140625 17.816406 115.90625 17.257812 115.90625 16.625 C 115.90625 16 116.140625 15.445312 116.609375 14.96875 C 117.078125 14.5 117.617188 14.265625 118.234375 14.265625 Z M 118.234375 15.265625 C 117.859375 15.265625 117.523438 15.398438 117.234375 15.671875 C 116.941406 15.941406 116.796875 16.265625 116.796875 16.640625 C 116.796875 17.015625 116.941406 17.335938 117.234375 17.609375 C 117.535156 17.878906 117.867188 18.015625 118.234375 18.015625 L 119.453125 18.015625 C 119.816406 18.015625 120.140625 17.878906 120.421875 17.609375 C 120.710938 17.335938 120.859375 17.015625 120.859375 16.640625 C 120.859375 16.265625 120.710938 15.941406 120.421875 15.671875 C 120.140625 15.398438 119.816406 15.265625 119.453125 15.265625 Z M 116.359375 20.316406 L 124.765625 20.316406 C 124.867188 20.316406 124.953125 20.363281 125.015625 20.457031 C 125.085938 20.550781 125.125 20.667969 125.125 20.816406 C 125.125 20.960938 125.085938 21.082031 125.015625 21.175781 C 124.953125 21.269531 124.867188 21.316406 124.765625 21.316406 L 116.359375 21.316406 C 116.273438 21.316406 116.191406 21.261719 116.109375 21.160156 C 116.035156 21.066406 116 20.949219 116 20.816406 C 116 20.679688 116.035156 20.558594 116.109375 20.457031 C 116.179688 20.363281 116.265625 20.316406 116.359375 20.316406 Z M 118.234375 22.617188 L 119.453125 22.617188 C 120.085938 22.617188 120.628906 22.828125 121.078125 23.257812 C 121.535156 23.683594 121.765625 24.1875 121.765625 24.773438 C 121.765625 25.136719 121.675781 25.453125 121.5 25.726562 C 121.320312 25.996094 121.101562 26.203125 120.84375 26.351562 L 124.765625 26.351562 C 124.867188 26.351562 124.953125 26.398438 125.015625 26.492188 C 125.085938 26.585938 125.125 26.703125 125.125 26.851562 C 125.125 26.996094 125.085938 27.109375 125.015625 27.195312 C 124.953125 27.289062 124.867188 27.335938 124.765625 27.335938 L 116.359375 27.335938 C 116.265625 27.335938 116.179688 27.289062 116.109375 27.195312 C 116.035156 27.101562 116 26.984375 116 26.851562 C 116 26.726562 116.035156 26.617188 116.109375 26.523438 C 116.179688 26.4375 116.265625 26.398438 116.359375 26.398438 L 116.84375 26.398438 C 116.582031 26.261719 116.359375 26.039062 116.171875 25.726562 C 115.996094 25.421875 115.90625 25.09375 115.90625 24.742188 C 115.90625 24.179688 116.140625 23.683594 116.609375 23.257812 C 117.078125 22.828125 117.617188 22.617188 118.234375 22.617188 Z M 118.234375 23.617188 C 117.867188 23.617188 117.535156 23.75 117.234375 24.023438 C 116.941406 24.292969 116.796875 24.609375 116.796875 24.976562 C 116.796875 25.328125 116.929688 25.648438 117.203125 25.929688 C 117.472656 26.210938 117.707031 26.351562 117.90625 26.351562 L 119.453125 26.351562 C 119.867188 26.351562 120.207031 26.210938 120.46875 25.929688 C 120.726562 25.65625 120.859375 25.34375 120.859375 24.992188 C 120.859375 24.617188 120.710938 24.292969 120.421875 24.023438 C 120.140625 23.75 119.816406 23.617188 119.453125 23.617188 Z M 116.359375 28.917969 L 124.40625 28.917969 C 124.519531 28.917969 124.609375 28.957031 124.671875 29.042969 C 124.734375 29.136719 124.765625 29.246094 124.765625 29.371094 L 124.765625 33.636719 C 124.765625 33.75 124.722656 33.832031 124.640625 33.886719 C 124.554688 33.949219 124.453125 33.980469 124.328125 33.980469 C 124.203125 33.980469 124.09375 33.949219 124 33.886719 C 123.90625 33.824219 123.859375 33.738281 123.859375 33.636719 L 123.859375 29.917969 L 120.8125 29.917969 L 120.8125 31.792969 C 120.8125 31.894531 120.769531 31.980469 120.6875 32.042969 C 120.601562 32.105469 120.5 32.136719 120.375 32.136719 C 120.269531 32.136719 120.175781 32.105469 120.09375 32.042969 C 120.007812 31.988281 119.96875 31.90625 119.96875 31.792969 L 119.96875 29.917969 L 116.90625 29.917969 L 116.90625 33.636719 C 116.90625 33.738281 116.859375 33.824219 116.765625 33.886719 C 116.679688 33.949219 116.570312 33.980469 116.4375 33.980469 C 116.320312 33.980469 116.21875 33.949219 116.125 33.886719 C 116.039062 33.832031 116 33.75 116 33.636719 L 116 29.371094 C 116 29.246094 116.03125 29.136719 116.09375 29.042969 C 116.15625 28.957031 116.242188 28.917969 116.359375 28.917969 Z M 121.28125 34.367188 C 121.394531 34.367188 121.492188 34.433594 121.578125 34.570312 C 121.671875 34.714844 121.71875 34.859375 121.71875 35.007812 C 121.71875 35.171875 121.648438 35.28125 121.515625 35.335938 L 117.4375 36.851562 L 121.46875 38.351562 C 121.632812 38.414062 121.71875 38.523438 121.71875 38.679688 C 121.71875 38.804688 121.671875 38.9375 121.578125 39.085938 C 121.492188 39.242188 121.394531 39.320312 121.28125 39.320312 C 121.21875 39.320312 121.15625 39.304688 121.09375 39.273438 L 116.109375 37.304688 C 115.964844 37.242188 115.890625 37.089844 115.890625 36.851562 C 115.890625 36.601562 115.964844 36.445312 116.109375 36.382812 L 121.09375 34.414062 C 121.1875 34.382812 121.25 34.367188 121.28125 34.367188 Z M 118.234375 39.957031 L 119.484375 39.957031 C 120.109375 39.957031 120.644531 40.191406 121.09375 40.660156 C 121.539062 41.128906 121.765625 41.691406 121.765625 42.347656 C 121.765625 42.972656 121.550781 43.511719 121.125 43.972656 C 120.707031 44.429688 120.179688 44.660156 119.546875 44.660156 C 119.316406 44.660156 119.128906 44.628906 118.984375 44.566406 C 118.847656 44.511719 118.75 44.429688 118.6875 44.316406 C 118.632812 44.199219 118.597656 44.089844 118.578125 43.988281 C 118.566406 43.894531 118.5625 43.757812 118.5625 43.582031 L 118.5625 40.957031 L 118.203125 40.957031 C 117.753906 40.957031 117.398438 41.113281 117.140625 41.425781 C 116.878906 41.746094 116.75 42.160156 116.75 42.660156 C 116.75 42.929688 116.785156 43.160156 116.859375 43.347656 C 116.941406 43.542969 117.019531 43.699219 117.09375 43.816406 C 117.175781 43.941406 117.21875 44.039062 117.21875 44.113281 C 117.21875 44.226562 117.164062 44.320312 117.0625 44.394531 C 116.957031 44.476562 116.851562 44.519531 116.75 44.519531 C 116.570312 44.519531 116.382812 44.335938 116.1875 43.972656 C 116 43.605469 115.90625 43.160156 115.90625 42.628906 C 115.90625 41.847656 116.117188 41.207031 116.546875 40.707031 C 116.972656 40.207031 117.535156 39.957031 118.234375 39.957031 Z M 119.234375 40.957031 L 119.234375 43.175781 C 119.234375 43.382812 119.257812 43.523438 119.3125 43.597656 C 119.363281 43.667969 119.460938 43.707031 119.609375 43.707031 C 119.972656 43.707031 120.289062 43.570312 120.5625 43.300781 C 120.832031 43.039062 120.96875 42.722656 120.96875 42.347656 C 120.96875 41.960938 120.84375 41.632812 120.59375 41.363281 C 120.34375 41.089844 120.03125 40.957031 119.65625 40.957031 Z M 116.359375 45.753906 L 121.34375 45.753906 C 121.445312 45.753906 121.53125 45.800781 121.59375 45.894531 C 121.65625 45.988281 121.6875 46.105469 121.6875 46.253906 C 121.6875 46.378906 121.65625 46.480469 121.59375 46.566406 C 121.53125 46.660156 121.445312 46.707031 121.34375 46.707031 L 120.78125 46.707031 C 121.050781 46.851562 121.28125 47.066406 121.46875 47.347656 C 121.664062 47.628906 121.765625 47.941406 121.765625 48.285156 L 121.765625 48.691406 C 121.765625 48.792969 121.71875 48.882812 121.625 48.957031 C 121.53125 49.027344 121.421875 49.066406 121.296875 49.066406 C 121.179688 49.066406 121.078125 49.027344 120.984375 48.957031 C 120.898438 48.882812 120.859375 48.792969 120.859375 48.691406 L 120.859375 48.285156 C 120.859375 47.867188 120.691406 47.507812 120.359375 47.207031 C 120.035156 46.902344 119.613281 46.753906 119.09375 46.753906 L 116.359375 46.753906 C 116.273438 46.753906 116.191406 46.699219 116.109375 46.597656 C 116.035156 46.503906 116 46.386719 116 46.253906 C 116 46.117188 116.035156 45.996094 116.109375 45.894531 C 116.179688 45.800781 116.265625 45.753906 116.359375 45.753906 Z M 121.28125 49.320312 C 121.40625 49.320312 121.515625 49.390625 121.609375 49.539062 C 121.710938 49.683594 121.765625 49.828125 121.765625 49.976562 C 121.765625 50.140625 121.695312 50.246094 121.5625 50.289062 L 117.375 51.882812 L 121.5625 53.304688 C 121.695312 53.367188 121.765625 53.46875 121.765625 53.617188 C 121.765625 53.75 121.710938 53.890625 121.609375 54.039062 C 121.515625 54.195312 121.398438 54.273438 121.265625 54.273438 C 121.222656 54.273438 121.179688 54.257812 121.140625 54.226562 L 116.265625 52.414062 L 115.65625 52.179688 C 115.554688 52.136719 115.367188 52.054688 115.09375 51.929688 C 114.824219 51.8125 114.625 51.714844 114.5 51.632812 C 114.375 51.558594 114.21875 51.449219 114.03125 51.304688 C 113.835938 51.15625 113.695312 51.015625 113.609375 50.882812 C 113.515625 50.746094 113.433594 50.585938 113.359375 50.398438 C 113.289062 50.210938 113.25 50.011719 113.25 49.804688 C 113.25 49.492188 113.402344 49.335938 113.703125 49.335938 C 113.984375 49.335938 114.125 49.429688 114.125 49.617188 C 114.125 49.980469 114.328125 50.328125 114.734375 50.664062 C 115.140625 51.007812 115.65625 51.242188 116.28125 51.367188 L 121.140625 49.367188 C 121.191406 49.335938 121.238281 49.320312 121.28125 49.320312 Z M 116.09375 57.605469 L 124.875 57.605469 C 124.976562 57.605469 125.0625 57.652344 125.125 57.746094 C 125.1875 57.839844 125.21875 57.941406 125.21875 58.058594 L 125.21875 60.027344 C 125.21875 60.128906 125.171875 60.214844 125.078125 60.277344 C 124.992188 60.339844 124.890625 60.371094 124.765625 60.371094 C 124.640625 60.371094 124.53125 60.339844 124.4375 60.277344 C 124.351562 60.214844 124.3125 60.128906 124.3125 60.027344 L 124.3125 58.605469 L 116.640625 58.605469 L 116.640625 60.027344 C 116.640625 60.128906 116.597656 60.214844 116.515625 60.277344 C 116.429688 60.339844 116.320312 60.371094 116.1875 60.371094 C 116.070312 60.371094 115.976562 60.339844 115.890625 60.277344 C 115.796875 60.214844 115.75 60.128906 115.75 60.027344 L 115.75 58.058594 C 115.75 57.941406 115.78125 57.839844 115.84375 57.746094 C 115.90625 57.652344 115.992188 57.605469 116.09375 57.605469 Z M 117.96875 60.90625 C 118.15625 60.90625 118.28125 60.9375 118.34375 61 C 118.40625 61.070312 118.4375 61.195312 118.4375 61.375 C 118.4375 61.5625 118.40625 61.691406 118.34375 61.765625 C 118.28125 61.847656 118.179688 61.890625 118.046875 61.890625 C 117.734375 61.890625 117.453125 62.019531 117.203125 62.28125 C 116.960938 62.539062 116.84375 62.9375 116.84375 63.46875 C 116.84375 64.53125 117.394531 65.0625 118.5 65.0625 L 118.71875 65.0625 C 119.695312 65.0625 120.1875 64.53125 120.1875 63.46875 C 120.1875 63.226562 120.328125 63.109375 120.609375 63.109375 C 120.890625 63.109375 121.03125 63.226562 121.03125 63.46875 C 121.03125 63.925781 121.132812 64.269531 121.34375 64.5 C 121.550781 64.738281 121.925781 64.859375 122.46875 64.859375 C 123.40625 64.859375 123.875 64.410156 123.875 63.515625 C 123.875 62.992188 123.757812 62.628906 123.53125 62.421875 C 123.300781 62.210938 123.03125 62.109375 122.71875 62.109375 C 122.425781 62.109375 122.28125 61.945312 122.28125 61.625 C 122.28125 61.40625 122.3125 61.257812 122.375 61.1875 C 122.445312 61.125 122.582031 61.09375 122.78125 61.09375 C 122.988281 61.09375 123.195312 61.128906 123.40625 61.203125 C 123.625 61.285156 123.835938 61.410156 124.046875 61.578125 C 124.253906 61.742188 124.425781 61.992188 124.5625 62.328125 C 124.695312 62.671875 124.765625 63.070312 124.765625 63.53125 C 124.765625 65.0625 124.054688 65.828125 122.640625 65.828125 C 122.140625 65.828125 121.710938 65.738281 121.359375 65.5625 C 121.015625 65.382812 120.769531 65.148438 120.625 64.859375 C 120.300781 65.671875 119.664062 66.078125 118.71875 66.078125 L 118.5 66.078125 C 117.613281 66.078125 116.960938 65.835938 116.546875 65.359375 C 116.128906 64.878906 115.921875 64.25 115.921875 63.46875 C 115.921875 62.632812 116.128906 62 116.546875 61.5625 C 116.972656 61.125 117.445312 60.90625 117.96875 60.90625 Z M 116.546875 66.992188 C 116.722656 66.992188 116.875 67.046875 117 67.164062 C 117.125 67.277344 117.1875 67.421875 117.1875 67.601562 C 117.1875 67.765625 117.125 67.914062 117 68.039062 C 116.882812 68.164062 116.734375 68.226562 116.546875 68.226562 C 116.410156 68.226562 115.929688 68.054688 115.09375 67.710938 C 114.992188 67.65625 114.9375 67.570312 114.9375 67.445312 C 114.9375 67.351562 114.964844 67.265625 115.015625 67.195312 C 115.070312 67.132812 115.136719 67.101562 115.21875 67.101562 C 115.273438 67.101562 115.320312 67.105469 115.359375 67.117188 L 115.96875 67.367188 C 116.070312 67.117188 116.265625 66.992188 116.546875 66.992188 Z M 118 68.964844 C 118.320312 68.964844 118.484375 69.128906 118.484375 69.464844 C 118.484375 69.808594 118.347656 69.980469 118.078125 69.980469 C 117.691406 69.980469 117.390625 70.125 117.171875 70.417969 C 116.953125 70.71875 116.84375 71.09375 116.84375 71.542969 C 116.84375 72.050781 116.984375 72.441406 117.265625 72.714844 C 117.546875 72.996094 117.960938 73.136719 118.515625 73.136719 L 118.75 73.136719 C 119.289062 73.136719 119.695312 72.996094 119.96875 72.714844 C 120.25 72.441406 120.390625 72.058594 120.390625 71.558594 L 120.390625 69.855469 C 120.390625 69.542969 120.519531 69.386719 120.78125 69.386719 C 120.863281 69.386719 120.953125 69.394531 121.046875 69.417969 L 124.40625 69.667969 C 124.644531 69.675781 124.765625 69.765625 124.765625 69.933594 L 124.765625 73.386719 C 124.765625 73.488281 124.71875 73.566406 124.625 73.621094 C 124.539062 73.683594 124.4375 73.714844 124.3125 73.714844 C 124.195312 73.714844 124.09375 73.683594 124 73.621094 C 123.90625 73.566406 123.859375 73.488281 123.859375 73.386719 L 123.859375 70.542969 L 121.234375 70.355469 L 121.234375 71.558594 C 121.234375 72.339844 121.03125 72.964844 120.625 73.433594 C 120.226562 73.902344 119.601562 74.136719 118.75 74.136719 L 118.515625 74.136719 C 117.628906 74.136719 116.972656 73.902344 116.546875 73.433594 C 116.128906 72.964844 115.921875 72.339844 115.921875 71.558594 C 115.921875 70.753906 116.125 70.121094 116.53125 69.652344 C 116.9375 69.191406 117.425781 68.964844 118 68.964844 Z M 116.1875 74.707031 C 116.320312 74.707031 116.429688 74.738281 116.515625 74.800781 C 116.597656 74.863281 116.640625 74.945312 116.640625 75.050781 L 116.640625 76.472656 L 124.3125 76.472656 L 124.3125 75.050781 C 124.3125 74.945312 124.351562 74.863281 124.4375 74.800781 C 124.53125 74.738281 124.640625 74.707031 124.765625 74.707031 C 124.890625 74.707031 124.992188 74.738281 125.078125 74.800781 C 125.171875 74.863281 125.21875 74.945312 125.21875 75.050781 L 125.21875 77.019531 C 125.21875 77.144531 125.1875 77.246094 125.125 77.332031 C 125.0625 77.425781 124.976562 77.472656 124.875 77.472656 L 116.09375 77.472656 C 115.992188 77.472656 115.90625 77.425781 115.84375 77.332031 C 115.78125 77.246094 115.75 77.144531 115.75 77.019531 L 115.75 75.050781 C 115.75 74.945312 115.796875 74.863281 115.890625 74.800781 C 115.976562 74.738281 116.070312 74.707031 116.1875 74.707031 Z M 117.859375 81.34375 L 122.953125 81.34375 C 123.578125 81.34375 124.109375 81.570312 124.546875 82.03125 C 124.992188 82.5 125.21875 83.046875 125.21875 83.671875 C 125.21875 83.992188 125.066406 84.15625 124.765625 84.15625 C 124.628906 84.15625 124.519531 84.125 124.4375 84.0625 C 124.351562 84 124.3125 83.914062 124.3125 83.8125 C 124.3125 83.375 124.171875 83.019531 123.890625 82.75 C 123.617188 82.476562 123.304688 82.34375 122.953125 82.34375 L 117.859375 82.34375 C 117.421875 82.34375 117.109375 82.488281 116.921875 82.78125 C 116.742188 83.070312 116.65625 83.414062 116.65625 83.8125 C 116.65625 84.039062 116.503906 84.15625 116.203125 84.15625 C 115.914062 84.15625 115.765625 83.984375 115.765625 83.640625 C 115.765625 82.992188 115.949219 82.445312 116.3125 82 C 116.675781 81.5625 117.191406 81.34375 117.859375 81.34375 Z M 116.8125 84.734375 C 116.914062 84.734375 117.015625 84.765625 117.109375 84.828125 C 117.210938 84.898438 117.265625 84.984375 117.265625 85.078125 C 117.265625 85.140625 117.21875 85.226562 117.125 85.34375 C 117.03125 85.46875 116.9375 85.644531 116.84375 85.875 C 116.75 86.101562 116.703125 86.367188 116.703125 86.671875 C 116.703125 87.066406 116.773438 87.351562 116.921875 87.53125 C 117.066406 87.71875 117.25 87.8125 117.46875 87.8125 C 117.726562 87.8125 117.9375 87.707031 118.09375 87.5 C 118.25 87.300781 118.363281 87.054688 118.4375 86.765625 C 118.519531 86.484375 118.609375 86.195312 118.703125 85.90625 C 118.804688 85.625 118.96875 85.378906 119.1875 85.171875 C 119.414062 84.972656 119.710938 84.875 120.078125 84.875 C 120.535156 84.875 120.929688 85.035156 121.265625 85.359375 C 121.597656 85.679688 121.765625 86.175781 121.765625 86.84375 C 121.765625 87.269531 121.695312 87.65625 121.5625 88 C 121.425781 88.351562 121.273438 88.53125 121.109375 88.53125 C 121.015625 88.53125 120.90625 88.492188 120.78125 88.421875 C 120.664062 88.347656 120.609375 88.253906 120.609375 88.140625 C 120.609375 88.109375 120.664062 87.953125 120.78125 87.671875 C 120.894531 87.398438 120.953125 87.128906 120.953125 86.859375 C 120.953125 86.492188 120.863281 86.21875 120.6875 86.03125 C 120.519531 85.851562 120.328125 85.765625 120.109375 85.765625 C 119.890625 85.765625 119.710938 85.863281 119.578125 86.0625 C 119.453125 86.257812 119.351562 86.503906 119.28125 86.796875 C 119.21875 87.097656 119.132812 87.390625 119.03125 87.671875 C 118.925781 87.960938 118.742188 88.207031 118.484375 88.40625 C 118.234375 88.601562 117.910156 88.703125 117.515625 88.703125 C 117.015625 88.703125 116.617188 88.523438 116.328125 88.171875 C 116.046875 87.828125 115.90625 87.335938 115.90625 86.703125 C 115.90625 86.160156 116 85.695312 116.1875 85.3125 C 116.382812 84.925781 116.59375 84.734375 116.8125 84.734375 Z M 116.359375 89.894531 L 124.765625 89.894531 C 124.867188 89.894531 124.953125 89.941406 125.015625 90.035156 C 125.085938 90.128906 125.125 90.246094 125.125 90.394531 C 125.125 90.539062 125.085938 90.660156 125.015625 90.753906 C 124.953125 90.847656 124.867188 90.894531 124.765625 90.894531 L 116.359375 90.894531 C 116.273438 90.894531 116.191406 90.839844 116.109375 90.738281 C 116.035156 90.644531 116 90.527344 116 90.394531 C 116 90.257812 116.035156 90.136719 116.109375 90.035156 C 116.179688 89.941406 116.265625 89.894531 116.359375 89.894531 Z M 118.234375 92.191406 L 119.453125 92.191406 C 120.066406 92.191406 120.601562 92.425781 121.0625 92.894531 C 121.53125 93.363281 121.765625 93.914062 121.765625 94.550781 C 121.765625 95.195312 121.535156 95.753906 121.078125 96.222656 C 120.617188 96.699219 120.078125 96.941406 119.453125 96.941406 L 118.234375 96.941406 C 117.617188 96.941406 117.078125 96.699219 116.609375 96.222656 C 116.140625 95.742188 115.90625 95.183594 115.90625 94.550781 C 115.90625 93.925781 116.140625 93.371094 116.609375 92.894531 C 117.078125 92.425781 117.617188 92.191406 118.234375 92.191406 Z M 118.234375 93.191406 C 117.859375 93.191406 117.523438 93.324219 117.234375 93.597656 C 116.941406 93.867188 116.796875 94.191406 116.796875 94.566406 C 116.796875 94.941406 116.941406 95.261719 117.234375 95.535156 C 117.535156 95.804688 117.867188 95.941406 118.234375 95.941406 L 119.453125 95.941406 C 119.816406 95.941406 120.140625 95.804688 120.421875 95.535156 C 120.710938 95.261719 120.859375 94.941406 120.859375 94.566406 C 120.859375 94.191406 120.710938 93.867188 120.421875 93.597656 C 120.140625 93.324219 119.816406 93.191406 119.453125 93.191406 Z M 121.28125 97.605469 C 121.394531 97.605469 121.492188 97.667969 121.578125 97.792969 C 121.671875 97.925781 121.71875 98.066406 121.71875 98.214844 C 121.71875 98.378906 121.648438 98.488281 121.515625 98.542969 L 117.484375 99.996094 L 121.125 101.121094 C 121.28125 101.171875 121.359375 101.296875 121.359375 101.496094 C 121.359375 101.691406 121.28125 101.816406 121.125 101.871094 L 117.453125 102.980469 L 121.515625 104.449219 C 121.648438 104.480469 121.71875 104.578125 121.71875 104.746094 C 121.71875 104.890625 121.671875 105.03125 121.578125 105.167969 C 121.492188 105.300781 121.394531 105.371094 121.28125 105.371094 C 121.21875 105.371094 121.15625 105.355469 121.09375 105.324219 L 116.109375 103.464844 C 115.964844 103.402344 115.890625 103.265625 115.890625 103.058594 C 115.890625 102.839844 115.964844 102.703125 116.109375 102.652344 L 119.640625 101.496094 L 116.140625 100.355469 C 115.976562 100.292969 115.890625 100.144531 115.890625 99.917969 C 115.890625 99.707031 115.976562 99.574219 116.140625 99.511719 L 121.09375 97.652344 C 121.1875 97.621094 121.25 97.605469 121.28125 97.605469 Z M 116.359375 108.324219 L 117.53125 108.324219 C 117.882812 108.324219 118.234375 108.457031 118.578125 108.730469 C 118.929688 109.011719 119.25 109.34375 119.53125 109.730469 L 120.390625 110.902344 C 120.671875 111.285156 120.984375 111.613281 121.328125 111.886719 C 121.679688 112.167969 122.035156 112.308594 122.390625 112.308594 C 122.773438 112.308594 123.113281 112.183594 123.40625 111.933594 C 123.695312 111.683594 123.84375 111.324219 123.84375 110.855469 C 123.84375 110.449219 123.726562 110.121094 123.5 109.871094 C 123.269531 109.621094 122.945312 109.496094 122.53125 109.496094 C 122.425781 109.496094 122.332031 109.441406 122.25 109.339844 C 122.164062 109.246094 122.125 109.121094 122.125 108.964844 C 122.125 108.660156 122.320312 108.511719 122.71875 108.511719 C 123.320312 108.511719 123.8125 108.734375 124.1875 109.183594 C 124.570312 109.640625 124.765625 110.199219 124.765625 110.855469 C 124.765625 111.550781 124.539062 112.136719 124.09375 112.605469 C 123.65625 113.082031 123.101562 113.324219 122.4375 113.324219 C 122.03125 113.324219 121.644531 113.222656 121.28125 113.027344 C 120.914062 112.828125 120.601562 112.582031 120.34375 112.292969 C 120.082031 112 119.828125 111.683594 119.578125 111.339844 L 118.890625 110.386719 C 118.691406 110.09375 118.472656 109.847656 118.234375 109.652344 C 117.992188 109.453125 117.757812 109.355469 117.53125 109.355469 L 116.90625 109.355469 L 116.90625 113.042969 C 116.90625 113.136719 116.859375 113.214844 116.765625 113.277344 C 116.679688 113.347656 116.578125 113.386719 116.453125 113.386719 C 116.335938 113.386719 116.234375 113.347656 116.140625 113.277344 C 116.046875 113.214844 116 113.136719 116 113.042969 L 116 108.777344 C 116 108.671875 116.03125 108.566406 116.09375 108.464844 C 116.164062 108.371094 116.253906 108.324219 116.359375 108.324219 Z M 116.203125 113.960938 C 116.503906 113.960938 116.65625 114.074219 116.65625 114.304688 C 116.65625 114.699219 116.742188 115.042969 116.921875 115.335938 C 117.109375 115.625 117.421875 115.773438 117.859375 115.773438 L 122.953125 115.773438 C 123.304688 115.773438 123.617188 115.636719 123.890625 115.367188 C 124.171875 115.09375 124.3125 114.742188 124.3125 114.304688 C 124.3125 114.199219 124.351562 114.117188 124.4375 114.054688 C 124.519531 113.992188 124.628906 113.960938 124.765625 113.960938 C 125.066406 113.960938 125.21875 114.121094 125.21875 114.445312 C 125.21875 115.070312 124.992188 115.609375 124.546875 116.070312 C 124.109375 116.539062 123.578125 116.773438 122.953125 116.773438 L 117.859375 116.773438 C 117.191406 116.773438 116.675781 116.546875 116.3125 116.101562 C 115.949219 115.664062 115.765625 115.117188 115.765625 114.460938 C 115.765625 114.125 115.914062 113.960938 116.203125 113.960938 Z M 117.375 120.28125 C 117.507812 120.28125 117.632812 120.328125 117.75 120.421875 C 117.875 120.515625 117.9375 120.613281 117.9375 120.71875 C 117.9375 120.78125 117.882812 120.867188 117.78125 120.984375 C 117.6875 121.097656 117.582031 121.210938 117.46875 121.328125 C 117.351562 121.441406 117.242188 121.625 117.140625 121.875 C 117.046875 122.125 116.988281 122.40625 116.96875 122.71875 L 120.15625 122.71875 L 120.40625 122.0625 C 120.457031 121.914062 120.550781 121.722656 120.6875 121.484375 C 120.820312 121.242188 120.957031 121.066406 121.09375 120.953125 C 121.238281 120.835938 121.429688 120.734375 121.671875 120.640625 C 121.910156 120.546875 122.175781 120.5 122.46875 120.5 C 122.832031 120.5 123.148438 120.5625 123.421875 120.6875 C 123.703125 120.8125 123.921875 120.984375 124.078125 121.203125 C 124.234375 121.429688 124.351562 121.664062 124.4375 121.90625 C 124.519531 122.15625 124.578125 122.425781 124.609375 122.71875 L 124.96875 122.71875 C 125.03125 122.71875 125.085938 122.742188 125.140625 122.796875 C 125.191406 122.859375 125.21875 122.9375 125.21875 123.03125 C 125.21875 123.101562 125.191406 123.171875 125.140625 123.234375 C 125.085938 123.304688 125.03125 123.34375 124.96875 123.34375 L 124.625 123.34375 C 124.601562 123.820312 124.519531 124.253906 124.375 124.640625 C 124.238281 125.035156 124.0625 125.234375 123.84375 125.234375 C 123.726562 125.234375 123.601562 125.191406 123.46875 125.109375 C 123.34375 125.035156 123.28125 124.929688 123.28125 124.796875 C 123.28125 124.765625 123.347656 124.597656 123.484375 124.296875 C 123.628906 124.003906 123.710938 123.6875 123.734375 123.34375 L 120.984375 123.34375 C 120.878906 123.65625 120.769531 123.910156 120.65625 124.109375 C 120.550781 124.316406 120.40625 124.535156 120.21875 124.765625 C 120.03125 124.992188 119.789062 125.164062 119.5 125.28125 C 119.207031 125.394531 118.863281 125.453125 118.46875 125.453125 C 117.769531 125.453125 117.210938 125.257812 116.796875 124.875 C 116.390625 124.5 116.144531 123.988281 116.0625 123.34375 L 115.625 123.34375 C 115.5625 123.34375 115.507812 123.304688 115.453125 123.234375 C 115.402344 123.171875 115.375 123.101562 115.375 123.03125 C 115.375 122.9375 115.402344 122.859375 115.453125 122.796875 C 115.507812 122.742188 115.5625 122.71875 115.625 122.71875 L 116.03125 122.71875 C 116.03125 122.03125 116.179688 121.453125 116.484375 120.984375 C 116.796875 120.515625 117.09375 120.28125 117.375 120.28125 Z M 122.5625 121.453125 C 122.1875 121.453125 121.90625 121.5625 121.71875 121.78125 C 121.53125 122 121.359375 122.328125 121.203125 122.765625 L 123.71875 122.765625 C 123.625 121.890625 123.238281 121.453125 122.5625 121.453125 Z M 117 123.296875 C 117.125 124.085938 117.582031 124.484375 118.375 124.484375 C 118.789062 124.484375 119.113281 124.378906 119.34375 124.171875 C 119.582031 123.972656 119.78125 123.679688 119.9375 123.296875 Z M 118.234375 128.816406 L 119.453125 128.816406 C 120.085938 128.816406 120.628906 129.027344 121.078125 129.457031 C 121.535156 129.882812 121.765625 130.386719 121.765625 130.972656 C 121.765625 131.335938 121.675781 131.652344 121.5 131.925781 C 121.320312 132.195312 121.101562 132.402344 120.84375 132.550781 L 124.765625 132.550781 C 124.867188 132.550781 124.953125 132.597656 125.015625 132.691406 C 125.085938 132.785156 125.125 132.902344 125.125 133.050781 C 125.125 133.195312 125.085938 133.308594 125.015625 133.394531 C 124.953125 133.488281 124.867188 133.535156 124.765625 133.535156 L 116.359375 133.535156 C 116.265625 133.535156 116.179688 133.488281 116.109375 133.394531 C 116.035156 133.300781 116 133.183594 116 133.050781 C 116 132.925781 116.035156 132.816406 116.109375 132.722656 C 116.179688 132.636719 116.265625 132.597656 116.359375 132.597656 L 116.84375 132.597656 C 116.582031 132.460938 116.359375 132.238281 116.171875 131.925781 C 115.996094 131.621094 115.90625 131.292969 115.90625 130.941406 C 115.90625 130.378906 116.140625 129.882812 116.609375 129.457031 C 117.078125 129.027344 117.617188 128.816406 118.234375 128.816406 Z M 118.234375 129.816406 C 117.867188 129.816406 117.535156 129.949219 117.234375 130.222656 C 116.941406 130.492188 116.796875 130.808594 116.796875 131.175781 C 116.796875 131.527344 116.929688 131.847656 117.203125 132.128906 C 117.472656 132.410156 117.707031 132.550781 117.90625 132.550781 L 119.453125 132.550781 C 119.867188 132.550781 120.207031 132.410156 120.46875 132.128906 C 120.726562 131.855469 120.859375 131.542969 120.859375 131.191406 C 120.859375 130.816406 120.710938 130.492188 120.421875 130.222656 C 120.140625 129.949219 119.816406 129.816406 119.453125 129.816406 Z M 118.234375 134.746094 L 119.484375 134.746094 C 120.109375 134.746094 120.644531 134.980469 121.09375 135.449219 C 121.539062 135.917969 121.765625 136.480469 121.765625 137.136719 C 121.765625 137.761719 121.550781 138.300781 121.125 138.761719 C 120.707031 139.21875 120.179688 139.449219 119.546875 139.449219 C 119.316406 139.449219 119.128906 139.417969 118.984375 139.355469 C 118.847656 139.300781 118.75 139.21875 118.6875 139.105469 C 118.632812 138.988281 118.597656 138.878906 118.578125 138.777344 C 118.566406 138.683594 118.5625 138.546875 118.5625 138.371094 L 118.5625 135.746094 L 118.203125 135.746094 C 117.753906 135.746094 117.398438 135.902344 117.140625 136.214844 C 116.878906 136.535156 116.75 136.949219 116.75 137.449219 C 116.75 137.71875 116.785156 137.949219 116.859375 138.136719 C 116.941406 138.332031 117.019531 138.488281 117.09375 138.605469 C 117.175781 138.730469 117.21875 138.828125 117.21875 138.902344 C 117.21875 139.015625 117.164062 139.109375 117.0625 139.183594 C 116.957031 139.265625 116.851562 139.308594 116.75 139.308594 C 116.570312 139.308594 116.382812 139.125 116.1875 138.761719 C 116 138.394531 115.90625 137.949219 115.90625 137.417969 C 115.90625 136.636719 116.117188 135.996094 116.546875 135.496094 C 116.972656 134.996094 117.535156 134.746094 118.234375 134.746094 Z M 119.234375 135.746094 L 119.234375 137.964844 C 119.234375 138.171875 119.257812 138.3125 119.3125 138.386719 C 119.363281 138.457031 119.460938 138.496094 119.609375 138.496094 C 119.972656 138.496094 120.289062 138.359375 120.5625 138.089844 C 120.832031 137.828125 120.96875 137.511719 120.96875 137.136719 C 120.96875 136.75 120.84375 136.421875 120.59375 136.152344 C 120.34375 135.878906 120.03125 135.746094 119.65625 135.746094 Z M 116.359375 140.542969 L 121.34375 140.542969 C 121.445312 140.542969 121.53125 140.589844 121.59375 140.683594 C 121.65625 140.777344 121.6875 140.894531 121.6875 141.042969 C 121.6875 141.15625 121.648438 141.261719 121.578125 141.355469 C 121.515625 141.449219 121.4375 141.496094 121.34375 141.496094 L 120.84375 141.496094 C 121.101562 141.621094 121.320312 141.824219 121.5 142.105469 C 121.675781 142.394531 121.765625 142.730469 121.765625 143.105469 C 121.765625 143.667969 121.535156 144.15625 121.078125 144.574219 C 120.628906 145 120.085938 145.214844 119.453125 145.214844 L 116.359375 145.214844 C 116.242188 145.214844 116.15625 145.160156 116.09375 145.058594 C 116.03125 144.964844 116 144.847656 116 144.714844 C 116 144.589844 116.03125 144.472656 116.09375 144.371094 C 116.15625 144.265625 116.242188 144.214844 116.359375 144.214844 L 119.453125 144.214844 C 119.816406 144.214844 120.140625 144.078125 120.421875 143.808594 C 120.710938 143.535156 120.859375 143.21875 120.859375 142.855469 C 120.859375 142.511719 120.726562 142.203125 120.46875 141.933594 C 120.207031 141.671875 119.867188 141.542969 119.453125 141.542969 L 116.359375 141.542969 C 116.273438 141.542969 116.191406 141.488281 116.109375 141.386719 C 116.035156 141.28125 116 141.167969 116 141.042969 C 116 140.90625 116.035156 140.785156 116.109375 140.683594 C 116.179688 140.589844 116.265625 140.542969 116.359375 140.542969 Z M 116.8125 146.238281 C 116.914062 146.238281 117.015625 146.269531 117.109375 146.332031 C 117.210938 146.402344 117.265625 146.488281 117.265625 146.582031 C 117.265625 146.644531 117.21875 146.730469 117.125 146.847656 C 117.03125 146.972656 116.9375 147.148438 116.84375 147.378906 C 116.75 147.605469 116.703125 147.871094 116.703125 148.175781 C 116.703125 148.570312 116.773438 148.855469 116.921875 149.035156 C 117.066406 149.222656 117.25 149.316406 117.46875 149.316406 C 117.726562 149.316406 117.9375 149.210938 118.09375 149.003906 C 118.25 148.804688 118.363281 148.558594 118.4375 148.269531 C 118.519531 147.988281 118.609375 147.699219 118.703125 147.410156 C 118.804688 147.128906 118.96875 146.882812 119.1875 146.675781 C 119.414062 146.476562 119.710938 146.378906 120.078125 146.378906 C 120.535156 146.378906 120.929688 146.539062 121.265625 146.863281 C 121.597656 147.183594 121.765625 147.679688 121.765625 148.347656 C 121.765625 148.773438 121.695312 149.160156 121.5625 149.503906 C 121.425781 149.855469 121.273438 150.035156 121.109375 150.035156 C 121.015625 150.035156 120.90625 149.996094 120.78125 149.925781 C 120.664062 149.851562 120.609375 149.757812 120.609375 149.644531 C 120.609375 149.613281 120.664062 149.457031 120.78125 149.175781 C 120.894531 148.902344 120.953125 148.632812 120.953125 148.363281 C 120.953125 147.996094 120.863281 147.722656 120.6875 147.535156 C 120.519531 147.355469 120.328125 147.269531 120.109375 147.269531 C 119.890625 147.269531 119.710938 147.367188 119.578125 147.566406 C 119.453125 147.761719 119.351562 148.007812 119.28125 148.300781 C 119.21875 148.601562 119.132812 148.894531 119.03125 149.175781 C 118.925781 149.464844 118.742188 149.710938 118.484375 149.910156 C 118.234375 150.105469 117.910156 150.207031 117.515625 150.207031 C 117.015625 150.207031 116.617188 150.027344 116.328125 149.675781 C 116.046875 149.332031 115.90625 148.839844 115.90625 148.207031 C 115.90625 147.664062 116 147.199219 116.1875 146.816406 C 116.382812 146.429688 116.59375 146.238281 116.8125 146.238281 Z M 123.421875 151.347656 C 123.535156 151.222656 123.664062 151.160156 123.8125 151.160156 C 123.96875 151.160156 124.101562 151.214844 124.21875 151.332031 C 124.332031 151.457031 124.390625 151.605469 124.390625 151.785156 C 124.390625 151.949219 124.332031 152.089844 124.21875 152.207031 C 124.101562 152.332031 123.96875 152.394531 123.8125 152.394531 C 123.664062 152.394531 123.535156 152.332031 123.421875 152.207031 C 123.304688 152.089844 123.25 151.949219 123.25 151.785156 C 123.25 151.617188 123.304688 151.472656 123.421875 151.347656 Z M 116.359375 151.285156 L 121.34375 151.285156 C 121.445312 151.285156 121.53125 151.332031 121.59375 151.425781 C 121.65625 151.527344 121.6875 151.648438 121.6875 151.785156 C 121.6875 151.929688 121.65625 152.050781 121.59375 152.144531 C 121.53125 152.238281 121.445312 152.285156 121.34375 152.285156 L 116.359375 152.285156 C 116.273438 152.285156 116.191406 152.230469 116.109375 152.128906 C 116.035156 152.035156 116 151.917969 116 151.785156 C 116 151.648438 116.035156 151.527344 116.109375 151.425781 C 116.179688 151.332031 116.265625 151.285156 116.359375 151.285156 Z M 117.8125 153.679688 L 123.984375 153.679688 C 124.085938 153.679688 124.171875 153.730469 124.234375 153.835938 C 124.304688 153.9375 124.34375 154.046875 124.34375 154.164062 C 124.34375 154.296875 124.304688 154.417969 124.234375 154.523438 C 124.171875 154.625 124.085938 154.679688 123.984375 154.679688 L 121.6875 154.679688 L 121.6875 156.179688 C 121.6875 156.273438 121.644531 156.34375 121.5625 156.398438 C 121.488281 156.449219 121.398438 156.476562 121.296875 156.476562 C 121.191406 156.476562 121.097656 156.449219 121.015625 156.398438 C 120.941406 156.34375 120.90625 156.273438 120.90625 156.179688 L 120.90625 154.679688 L 117.8125 154.679688 C 117.46875 154.679688 117.222656 154.75 117.078125 154.898438 C 116.941406 155.042969 116.875 155.296875 116.875 155.664062 L 116.875 156.039062 C 116.875 156.171875 116.832031 156.277344 116.75 156.351562 C 116.664062 156.433594 116.5625 156.476562 116.4375 156.476562 C 116.320312 156.476562 116.21875 156.433594 116.125 156.351562 C 116.039062 156.265625 116 156.164062 116 156.039062 L 116 155.664062 C 116 154.339844 116.601562 153.679688 117.8125 153.679688 Z M 121.28125 156.855469 C 121.40625 156.855469 121.515625 156.925781 121.609375 157.074219 C 121.710938 157.21875 121.765625 157.363281 121.765625 157.511719 C 121.765625 157.675781 121.695312 157.78125 121.5625 157.824219 L 117.375 159.417969 L 121.5625 160.839844 C 121.695312 160.902344 121.765625 161.003906 121.765625 161.152344 C 121.765625 161.285156 121.710938 161.425781 121.609375 161.574219 C 121.515625 161.730469 121.398438 161.808594 121.265625 161.808594 C 121.222656 161.808594 121.179688 161.792969 121.140625 161.761719 L 116.265625 159.949219 L 115.65625 159.714844 C 115.554688 159.671875 115.367188 159.589844 115.09375 159.464844 C 114.824219 159.347656 114.625 159.25 114.5 159.167969 C 114.375 159.09375 114.21875 158.984375 114.03125 158.839844 C 113.835938 158.691406 113.695312 158.550781 113.609375 158.417969 C 113.515625 158.28125 113.433594 158.121094 113.359375 157.933594 C 113.289062 157.746094 113.25 157.546875 113.25 157.339844 C 113.25 157.027344 113.402344 156.871094 113.703125 156.871094 C 113.984375 156.871094 114.125 156.964844 114.125 157.152344 C 114.125 157.515625 114.328125 157.863281 114.734375 158.199219 C 115.140625 158.542969 115.65625 158.777344 116.28125 158.902344 L 121.140625 156.902344 C 121.191406 156.871094 121.238281 156.855469 121.28125 156.855469 Z M 122.90625 164.464844 C 123.070312 164.464844 123.207031 164.535156 123.3125 164.683594 L 124.625 165.777344 C 124.726562 165.878906 124.78125 165.984375 124.78125 166.089844 C 124.78125 166.203125 124.75 166.308594 124.6875 166.402344 C 124.625 166.496094 124.535156 166.542969 124.421875 166.542969 L 116.359375 166.542969 C 116.242188 166.542969 116.15625 166.488281 116.09375 166.386719 C 116.03125 166.292969 116 166.171875 116 166.027344 C 116 165.890625 116.03125 165.769531 116.09375 165.667969 C 116.15625 165.574219 116.242188 165.527344 116.359375 165.527344 L 123.265625 165.527344 L 122.609375 165.089844 C 122.523438 165.003906 122.484375 164.921875 122.484375 164.839844 C 122.484375 164.734375 122.523438 164.644531 122.609375 164.574219 C 122.691406 164.5 122.789062 164.464844 122.90625 164.464844 Z M 118.546875 167.988281 L 122.15625 167.988281 C 123.0625 167.988281 123.722656 168.226562 124.140625 168.707031 C 124.554688 169.183594 124.765625 169.820312 124.765625 170.613281 C 124.765625 171.414062 124.554688 172.039062 124.140625 172.488281 C 123.734375 172.933594 123.25 173.160156 122.6875 173.160156 C 122.382812 173.160156 122.234375 173.003906 122.234375 172.691406 C 122.234375 172.347656 122.367188 172.175781 122.640625 172.175781 C 123.003906 172.175781 123.296875 172.023438 123.515625 171.722656 C 123.742188 171.417969 123.859375 171.042969 123.859375 170.597656 C 123.859375 169.535156 123.289062 169.003906 122.15625 169.003906 L 120.46875 169.003906 C 120.96875 169.386719 121.21875 169.972656 121.21875 170.753906 C 121.21875 172.355469 120.410156 173.160156 118.796875 173.160156 L 118.546875 173.160156 C 117.640625 173.160156 116.972656 172.925781 116.546875 172.457031 C 116.128906 171.988281 115.921875 171.363281 115.921875 170.582031 C 115.921875 169.800781 116.128906 169.167969 116.546875 168.691406 C 116.972656 168.222656 117.640625 167.988281 118.546875 167.988281 Z M 118.5 169.003906 C 117.363281 169.003906 116.796875 169.527344 116.796875 170.582031 C 116.796875 171.632812 117.363281 172.160156 118.5 172.160156 L 118.75 172.160156 C 119.832031 172.160156 120.375 171.632812 120.375 170.582031 C 120.375 169.527344 119.867188 169.003906 118.859375 169.003906 Z M 117.375 176.46875 C 117.507812 176.46875 117.632812 176.515625 117.75 176.609375 C 117.875 176.703125 117.9375 176.800781 117.9375 176.90625 C 117.9375 176.96875 117.882812 177.054688 117.78125 177.171875 C 117.6875 177.285156 117.582031 177.398438 117.46875 177.515625 C 117.351562 177.628906 117.242188 177.8125 117.140625 178.0625 C 117.046875 178.3125 116.988281 178.59375 116.96875 178.90625 L 120.15625 178.90625 L 120.40625 178.25 C 120.457031 178.101562 120.550781 177.910156 120.6875 177.671875 C 120.820312 177.429688 120.957031 177.253906 121.09375 177.140625 C 121.238281 177.023438 121.429688 176.921875 121.671875 176.828125 C 121.910156 176.734375 122.175781 176.6875 122.46875 176.6875 C 122.832031 176.6875 123.148438 176.75 123.421875 176.875 C 123.703125 177 123.921875 177.171875 124.078125 177.390625 C 124.234375 177.617188 124.351562 177.851562 124.4375 178.09375 C 124.519531 178.34375 124.578125 178.613281 124.609375 178.90625 L 124.96875 178.90625 C 125.03125 178.90625 125.085938 178.929688 125.140625 178.984375 C 125.191406 179.046875 125.21875 179.125 125.21875 179.21875 C 125.21875 179.289062 125.191406 179.359375 125.140625 179.421875 C 125.085938 179.492188 125.03125 179.53125 124.96875 179.53125 L 124.625 179.53125 C 124.601562 180.007812 124.519531 180.441406 124.375 180.828125 C 124.238281 181.222656 124.0625 181.421875 123.84375 181.421875 C 123.726562 181.421875 123.601562 181.378906 123.46875 181.296875 C 123.34375 181.222656 123.28125 181.117188 123.28125 180.984375 C 123.28125 180.953125 123.347656 180.785156 123.484375 180.484375 C 123.628906 180.191406 123.710938 179.875 123.734375 179.53125 L 120.984375 179.53125 C 120.878906 179.84375 120.769531 180.097656 120.65625 180.296875 C 120.550781 180.503906 120.40625 180.722656 120.21875 180.953125 C 120.03125 181.179688 119.789062 181.351562 119.5 181.46875 C 119.207031 181.582031 118.863281 181.640625 118.46875 181.640625 C 117.769531 181.640625 117.210938 181.445312 116.796875 181.0625 C 116.390625 180.6875 116.144531 180.175781 116.0625 179.53125 L 115.625 179.53125 C 115.5625 179.53125 115.507812 179.492188 115.453125 179.421875 C 115.402344 179.359375 115.375 179.289062 115.375 179.21875 C 115.375 179.125 115.402344 179.046875 115.453125 178.984375 C 115.507812 178.929688 115.5625 178.90625 115.625 178.90625 L 116.03125 178.90625 C 116.03125 178.21875 116.179688 177.640625 116.484375 177.171875 C 116.796875 176.703125 117.09375 176.46875 117.375 176.46875 Z M 122.5625 177.640625 C 122.1875 177.640625 121.90625 177.75 121.71875 177.96875 C 121.53125 178.1875 121.359375 178.515625 121.203125 178.953125 L 123.71875 178.953125 C 123.625 178.078125 123.238281 177.640625 122.5625 177.640625 Z M 117 179.484375 C 117.125 180.273438 117.582031 180.671875 118.375 180.671875 C 118.789062 180.671875 119.113281 180.566406 119.34375 180.359375 C 119.582031 180.160156 119.78125 179.867188 119.9375 179.484375 Z M 124.921875 184.9375 C 125.003906 184.9375 125.070312 184.976562 125.125 185.0625 C 125.1875 185.15625 125.21875 185.253906 125.21875 185.359375 C 125.21875 185.472656 125.1875 185.578125 125.125 185.671875 C 125.070312 185.765625 125.003906 185.8125 124.921875 185.8125 L 123.171875 185.6875 C 123.085938 185.6875 123.015625 185.660156 122.953125 185.609375 C 122.890625 185.554688 122.859375 185.476562 122.859375 185.375 C 122.859375 185.164062 122.960938 185.0625 123.171875 185.0625 Z M 124.921875 186.5625 C 125.003906 186.5625 125.070312 186.601562 125.125 186.6875 C 125.1875 186.78125 125.21875 186.882812 125.21875 187 C 125.21875 187.113281 125.1875 187.210938 125.125 187.296875 C 125.070312 187.390625 125.003906 187.4375 124.921875 187.4375 L 123.171875 187.328125 C 123.085938 187.328125 123.015625 187.296875 122.953125 187.234375 C 122.890625 187.179688 122.859375 187.101562 122.859375 187 C 122.859375 186.789062 122.960938 186.6875 123.171875 186.6875 Z M 114.875 188.132812 C 115.460938 188.132812 115.898438 188.453125 116.1875 189.101562 C 116.332031 188.695312 116.597656 188.492188 116.984375 188.492188 C 117.347656 188.492188 117.644531 188.6875 117.875 189.085938 C 118.238281 188.636719 118.742188 188.414062 119.390625 188.414062 L 119.78125 188.414062 C 120.363281 188.414062 120.835938 188.605469 121.203125 188.992188 C 121.578125 189.386719 121.765625 189.902344 121.765625 190.539062 C 121.765625 191.078125 121.609375 191.546875 121.296875 191.945312 C 121.816406 192.183594 122.078125 192.453125 122.078125 192.757812 C 122.078125 192.890625 122.035156 192.996094 121.953125 193.070312 C 121.878906 193.152344 121.796875 193.195312 121.703125 193.195312 C 121.578125 193.195312 121.484375 193.125 121.421875 192.992188 C 121.347656 192.71875 121.179688 192.5 120.921875 192.335938 C 120.617188 192.585938 120.238281 192.710938 119.78125 192.710938 L 119.390625 192.710938 C 118.804688 192.710938 118.328125 192.507812 117.953125 192.101562 C 117.578125 191.695312 117.390625 191.171875 117.390625 190.539062 C 117.390625 190.214844 117.453125 189.917969 117.578125 189.648438 C 117.453125 189.449219 117.3125 189.351562 117.15625 189.351562 C 117.007812 189.351562 116.894531 189.445312 116.8125 189.632812 C 116.726562 189.820312 116.675781 190.046875 116.65625 190.320312 C 116.632812 190.589844 116.59375 190.882812 116.53125 191.195312 C 116.476562 191.515625 116.40625 191.8125 116.3125 192.085938 C 116.226562 192.355469 116.078125 192.585938 115.859375 192.773438 C 115.632812 192.960938 115.34375 193.054688 115 193.054688 C 114.4375 193.054688 114.007812 192.824219 113.703125 192.367188 C 113.402344 191.917969 113.25 191.335938 113.25 190.617188 C 113.25 189.898438 113.398438 189.304688 113.6875 188.835938 C 113.980469 188.367188 114.375 188.132812 114.875 188.132812 Z M 114.984375 189.085938 C 114.671875 189.085938 114.421875 189.21875 114.234375 189.492188 C 114.046875 189.773438 113.953125 190.140625 113.953125 190.601562 C 113.953125 191.046875 114.046875 191.40625 114.234375 191.679688 C 114.421875 191.949219 114.671875 192.085938 114.984375 192.085938 C 115.109375 192.085938 115.21875 192.058594 115.3125 192.007812 C 115.40625 191.964844 115.492188 191.898438 115.5625 191.804688 C 115.625 191.710938 115.679688 191.609375 115.71875 191.507812 C 115.761719 191.414062 115.796875 191.289062 115.828125 191.132812 C 115.859375 190.984375 115.882812 190.859375 115.890625 190.757812 C 115.902344 190.664062 115.917969 190.53125 115.9375 190.367188 C 115.949219 190.199219 115.960938 190.085938 115.96875 190.023438 C 115.761719 189.398438 115.433594 189.085938 114.984375 189.085938 Z M 119.390625 189.382812 C 119.003906 189.382812 118.6875 189.484375 118.4375 189.695312 C 118.195312 189.902344 118.078125 190.195312 118.078125 190.570312 C 118.078125 190.921875 118.195312 191.203125 118.4375 191.414062 C 118.6875 191.632812 119.003906 191.742188 119.390625 191.742188 L 119.78125 191.742188 C 120.144531 191.742188 120.453125 191.632812 120.703125 191.414062 C 120.953125 191.203125 121.078125 190.917969 121.078125 190.554688 C 121.078125 190.1875 120.953125 189.902344 120.703125 189.695312 C 120.460938 189.484375 120.15625 189.382812 119.78125 189.382812 Z M 116.359375 194.050781 L 121.34375 194.050781 C 121.445312 194.050781 121.53125 194.097656 121.59375 194.191406 C 121.65625 194.285156 121.6875 194.402344 121.6875 194.550781 C 121.6875 194.675781 121.65625 194.777344 121.59375 194.863281 C 121.53125 194.957031 121.445312 195.003906 121.34375 195.003906 L 120.78125 195.003906 C 121.050781 195.148438 121.28125 195.363281 121.46875 195.644531 C 121.664062 195.925781 121.765625 196.238281 121.765625 196.582031 L 121.765625 196.988281 C 121.765625 197.089844 121.71875 197.179688 121.625 197.253906 C 121.53125 197.324219 121.421875 197.363281 121.296875 197.363281 C 121.179688 197.363281 121.078125 197.324219 120.984375 197.253906 C 120.898438 197.179688 120.859375 197.089844 120.859375 196.988281 L 120.859375 196.582031 C 120.859375 196.164062 120.691406 195.804688 120.359375 195.503906 C 120.035156 195.199219 119.613281 195.050781 119.09375 195.050781 L 116.359375 195.050781 C 116.273438 195.050781 116.191406 194.996094 116.109375 194.894531 C 116.035156 194.800781 116 194.683594 116 194.550781 C 116 194.414062 116.035156 194.292969 116.109375 194.191406 C 116.179688 194.097656 116.265625 194.050781 116.359375 194.050781 Z M 118.234375 197.960938 L 119.484375 197.960938 C 120.109375 197.960938 120.644531 198.195312 121.09375 198.664062 C 121.539062 199.132812 121.765625 199.695312 121.765625 200.351562 C 121.765625 200.976562 121.550781 201.515625 121.125 201.976562 C 120.707031 202.433594 120.179688 202.664062 119.546875 202.664062 C 119.316406 202.664062 119.128906 202.632812 118.984375 202.570312 C 118.847656 202.515625 118.75 202.433594 118.6875 202.320312 C 118.632812 202.203125 118.597656 202.09375 118.578125 201.992188 C 118.566406 201.898438 118.5625 201.761719 118.5625 201.585938 L 118.5625 198.960938 L 118.203125 198.960938 C 117.753906 198.960938 117.398438 199.117188 117.140625 199.429688 C 116.878906 199.75 116.75 200.164062 116.75 200.664062 C 116.75 200.933594 116.785156 201.164062 116.859375 201.351562 C 116.941406 201.546875 117.019531 201.703125 117.09375 201.820312 C 117.175781 201.945312 117.21875 202.042969 117.21875 202.117188 C 117.21875 202.230469 117.164062 202.324219 117.0625 202.398438 C 116.957031 202.480469 116.851562 202.523438 116.75 202.523438 C 116.570312 202.523438 116.382812 202.339844 116.1875 201.976562 C 116 201.609375 115.90625 201.164062 115.90625 200.632812 C 115.90625 199.851562 116.117188 199.210938 116.546875 198.710938 C 116.972656 198.210938 117.535156 197.960938 118.234375 197.960938 Z M 119.234375 198.960938 L 119.234375 201.179688 C 119.234375 201.386719 119.257812 201.527344 119.3125 201.601562 C 119.363281 201.671875 119.460938 201.710938 119.609375 201.710938 C 119.972656 201.710938 120.289062 201.574219 120.5625 201.304688 C 120.832031 201.042969 120.96875 200.726562 120.96875 200.351562 C 120.96875 199.964844 120.84375 199.636719 120.59375 199.367188 C 120.34375 199.09375 120.03125 198.960938 119.65625 198.960938 Z M 121.28125 203.199219 C 121.40625 203.199219 121.515625 203.269531 121.609375 203.417969 C 121.710938 203.5625 121.765625 203.707031 121.765625 203.855469 C 121.765625 204.019531 121.695312 204.125 121.5625 204.167969 L 117.375 205.761719 L 121.5625 207.183594 C 121.695312 207.246094 121.765625 207.347656 121.765625 207.496094 C 121.765625 207.628906 121.710938 207.769531 121.609375 207.917969 C 121.515625 208.074219 121.398438 208.152344 121.265625 208.152344 C 121.222656 208.152344 121.179688 208.136719 121.140625 208.105469 L 116.265625 206.292969 L 115.65625 206.058594 C 115.554688 206.015625 115.367188 205.933594 115.09375 205.808594 C 114.824219 205.691406 114.625 205.59375 114.5 205.511719 C 114.375 205.4375 114.21875 205.328125 114.03125 205.183594 C 113.835938 205.035156 113.695312 204.894531 113.609375 204.761719 C 113.515625 204.625 113.433594 204.464844 113.359375 204.277344 C 113.289062 204.089844 113.25 203.890625 113.25 203.683594 C 113.25 203.371094 113.402344 203.214844 113.703125 203.214844 C 113.984375 203.214844 114.125 203.308594 114.125 203.496094 C 114.125 203.859375 114.328125 204.207031 114.734375 204.542969 C 115.140625 204.886719 115.65625 205.121094 116.28125 205.246094 L 121.140625 203.246094 C 121.191406 203.214844 121.238281 203.199219 121.28125 203.199219 Z M 116.359375 211.421875 L 124.765625 211.421875 C 124.867188 211.421875 124.953125 211.46875 125.015625 211.5625 C 125.085938 211.65625 125.125 211.769531 125.125 211.90625 C 125.125 212.050781 125.085938 212.171875 125.015625 212.265625 C 124.953125 212.367188 124.867188 212.421875 124.765625 212.421875 L 120.84375 212.421875 C 121.101562 212.566406 121.320312 212.773438 121.5 213.046875 C 121.675781 213.316406 121.765625 213.628906 121.765625 213.984375 C 121.765625 214.566406 121.535156 215.070312 121.078125 215.5 C 120.628906 215.925781 120.085938 216.140625 119.453125 216.140625 L 118.234375 216.140625 C 117.617188 216.140625 117.078125 215.925781 116.609375 215.5 C 116.140625 215.070312 115.90625 214.582031 115.90625 214.03125 C 115.90625 213.664062 115.996094 213.332031 116.171875 213.03125 C 116.359375 212.726562 116.582031 212.507812 116.84375 212.375 L 116.359375 212.375 C 116.265625 212.375 116.179688 212.328125 116.109375 212.234375 C 116.035156 212.140625 116 212.035156 116 211.921875 C 116 211.785156 116.035156 211.664062 116.109375 211.5625 C 116.179688 211.46875 116.265625 211.421875 116.359375 211.421875 Z M 117.90625 212.421875 C 117.707031 212.421875 117.472656 212.5625 117.203125 212.84375 C 116.929688 213.125 116.796875 213.4375 116.796875 213.78125 C 116.796875 214.144531 116.941406 214.460938 117.234375 214.734375 C 117.535156 215.003906 117.867188 215.140625 118.234375 215.140625 L 119.453125 215.140625 C 119.816406 215.140625 120.140625 215.003906 120.421875 214.734375 C 120.710938 214.460938 120.859375 214.144531 120.859375 213.78125 C 120.859375 213.414062 120.726562 213.097656 120.46875 212.828125 C 120.207031 212.554688 119.867188 212.421875 119.453125 212.421875 Z M 116.359375 217.441406 L 124.765625 217.441406 C 124.867188 217.441406 124.953125 217.488281 125.015625 217.582031 C 125.085938 217.675781 125.125 217.792969 125.125 217.941406 C 125.125 218.085938 125.085938 218.207031 125.015625 218.300781 C 124.953125 218.394531 124.867188 218.441406 124.765625 218.441406 L 116.359375 218.441406 C 116.273438 218.441406 116.191406 218.386719 116.109375 218.285156 C 116.035156 218.191406 116 218.074219 116 217.941406 C 116 217.804688 116.035156 217.683594 116.109375 217.582031 C 116.179688 217.488281 116.265625 217.441406 116.359375 217.441406 Z M 117.5 219.601562 C 118.125 219.601562 118.554688 219.839844 118.796875 220.320312 C 119.046875 220.796875 119.171875 221.492188 119.171875 222.398438 L 119.171875 222.976562 L 119.421875 222.976562 C 119.816406 222.976562 120.160156 222.867188 120.453125 222.648438 C 120.753906 222.429688 120.90625 222.101562 120.90625 221.664062 C 120.90625 221.320312 120.847656 221.015625 120.734375 220.757812 C 120.617188 220.507812 120.5625 220.371094 120.5625 220.351562 C 120.5625 220.234375 120.613281 220.140625 120.71875 220.070312 C 120.832031 220.007812 120.945312 219.976562 121.0625 219.976562 C 121.25 219.976562 121.410156 220.15625 121.546875 220.523438 C 121.691406 220.886719 121.765625 221.273438 121.765625 221.679688 C 121.765625 222.460938 121.539062 223.039062 121.09375 223.414062 C 120.644531 223.789062 120.09375 223.976562 119.4375 223.976562 L 116.359375 223.976562 C 116.253906 223.976562 116.164062 223.929688 116.09375 223.835938 C 116.03125 223.742188 116 223.621094 116 223.476562 C 116 223.351562 116.03125 223.242188 116.09375 223.148438 C 116.164062 223.0625 116.253906 223.023438 116.359375 223.023438 L 116.84375 223.023438 C 116.21875 222.480469 115.90625 221.875 115.90625 221.210938 C 115.90625 220.730469 116.039062 220.339844 116.3125 220.039062 C 116.582031 219.746094 116.976562 219.601562 117.5 219.601562 Z M 117.609375 220.601562 C 117.304688 220.601562 117.078125 220.683594 116.921875 220.851562 C 116.773438 221.015625 116.703125 221.242188 116.703125 221.523438 C 116.703125 221.855469 116.835938 222.179688 117.109375 222.492188 C 117.378906 222.8125 117.65625 222.976562 117.9375 222.976562 L 118.5625 222.976562 L 118.5625 222.554688 C 118.5625 222.324219 118.550781 222.125 118.53125 221.960938 C 118.519531 221.792969 118.492188 221.617188 118.453125 221.429688 C 118.421875 221.25 118.367188 221.105469 118.296875 220.992188 C 118.234375 220.875 118.144531 220.78125 118.03125 220.710938 C 117.914062 220.636719 117.773438 220.601562 117.609375 220.601562 Z M 118.234375 225.132812 L 119.4375 225.132812 C 120.125 225.132812 120.679688 225.335938 121.109375 225.742188 C 121.546875 226.148438 121.765625 226.742188 121.765625 227.523438 C 121.765625 228.023438 121.675781 228.4375 121.5 228.773438 C 121.320312 229.117188 121.132812 229.289062 120.9375 229.289062 C 120.820312 229.289062 120.707031 229.246094 120.59375 229.164062 C 120.488281 229.078125 120.4375 228.980469 120.4375 228.867188 C 120.4375 228.835938 120.503906 228.695312 120.640625 228.445312 C 120.785156 228.203125 120.859375 227.921875 120.859375 227.601562 C 120.859375 227.121094 120.734375 226.757812 120.484375 226.507812 C 120.234375 226.257812 119.882812 226.132812 119.4375 226.132812 L 118.234375 226.132812 C 117.273438 226.132812 116.796875 226.621094 116.796875 227.601562 C 116.796875 227.945312 116.867188 228.234375 117.015625 228.476562 C 117.160156 228.726562 117.234375 228.871094 117.234375 228.914062 C 117.234375 229.039062 117.179688 229.140625 117.078125 229.226562 C 116.972656 229.320312 116.863281 229.367188 116.75 229.367188 C 116.550781 229.367188 116.359375 229.1875 116.171875 228.835938 C 115.996094 228.480469 115.90625 228.046875 115.90625 227.539062 C 115.90625 226.746094 116.117188 226.148438 116.546875 225.742188 C 116.972656 225.335938 117.535156 225.132812 118.234375 225.132812 Z M 116.359375 230.355469 L 124.765625 230.355469 C 124.867188 230.355469 124.953125 230.402344 125.015625 230.496094 C 125.085938 230.589844 125.125 230.703125 125.125 230.839844 C 125.125 230.984375 125.085938 231.105469 125.015625 231.199219 C 124.953125 231.300781 124.867188 231.355469 124.765625 231.355469 L 119.15625 231.355469 L 121.625 234.089844 C 121.6875 234.160156 121.71875 234.234375 121.71875 234.308594 C 121.71875 234.421875 121.664062 234.53125 121.5625 234.636719 C 121.46875 234.75 121.363281 234.808594 121.25 234.808594 C 121.144531 234.808594 121.0625 234.769531 121 234.699219 L 119.53125 233.027344 L 116.640625 235.027344 C 116.578125 235.066406 116.515625 235.089844 116.453125 235.089844 C 116.335938 235.089844 116.222656 235.027344 116.109375 234.902344 C 116.003906 234.785156 115.953125 234.660156 115.953125 234.527344 C 115.953125 234.421875 116.003906 234.332031 116.109375 234.261719 L 118.90625 232.355469 L 118.015625 231.355469 L 116.359375 231.355469 C 116.273438 231.355469 116.191406 231.300781 116.109375 231.199219 C 116.035156 231.105469 116 230.988281 116 230.855469 C 116 230.71875 116.035156 230.597656 116.109375 230.496094 C 116.179688 230.402344 116.265625 230.355469 116.359375 230.355469 Z M 124.921875 235.664062 C 125.003906 235.664062 125.070312 235.703125 125.125 235.789062 C 125.1875 235.882812 125.21875 235.980469 125.21875 236.085938 C 125.21875 236.199219 125.1875 236.304688 125.125 236.398438 C 125.070312 236.492188 125.003906 236.539062 124.921875 236.539062 L 123.171875 236.414062 C 123.085938 236.414062 123.015625 236.386719 122.953125 236.335938 C 122.890625 236.28125 122.859375 236.203125 122.859375 236.101562 C 122.859375 235.890625 122.960938 235.789062 123.171875 235.789062 Z M 124.921875 237.289062 C 125.003906 237.289062 125.070312 237.328125 125.125 237.414062 C 125.1875 237.507812 125.21875 237.609375 125.21875 237.726562 C 125.21875 237.839844 125.1875 237.9375 125.125 238.023438 C 125.070312 238.117188 125.003906 238.164062 124.921875 238.164062 L 123.171875 238.054688 C 123.085938 238.054688 123.015625 238.023438 122.953125 237.960938 C 122.890625 237.90625 122.859375 237.828125 122.859375 237.726562 C 122.859375 237.515625 122.960938 237.414062 123.171875 237.414062 Z M 116 238.589844 "/>
</g>
</svg>
