<?xml version="1.0" encoding="UTF-8"?>
<svg xmlns="http://www.w3.org/2000/svg" xmlns:xlink="http://www.w3.org/1999/xlink" width="384pt" height="288pt" viewBox="0 0 384 288" version="1.1">
<g id="surface9">
<path style=" stroke:none;fill-rule:nonzero;fill:rgb(0%,0%,0%);fill-opacity:1;" d="M 0 0 L 288 0 L 288 288 L 0 288 Z M 0 0 "/>
<path style=" stroke:none;fill-rule:nonzero;fill:rgb(50.196078%,50.196078%,50.196078%);fill-opacity:1;" d="M 0 0 L 36 0 L 36 288 L 0 288 Z M 0 0 "/>
<path style=" stroke:none;fill-rule:nonzero;fill:rgb(0%,0%,0%);fill-opacity:1;" d="M 36 0 L 72 0 L 72 288 L 36 288 Z M 36 0 "/>
<path style=" stroke:none;fill-rule:nonzero;fill:rgb(50.196078%,50.196078%,50.196078%);fill-opacity:1;" d="M 72 0 L 108 0 L 108 288 L 72 288 Z M 72 0 "/>
<path style=" stroke:none;fill-rule:nonzero;fill:rgb(0%,0%,0%);fill-opacity:1;" d="M 108 0 L 144 0 L 144 288 L 108 288 Z M 108 0 "/>
<path style=" stroke:none;fill-rule:nonzero;fill:rgb(50.196078%,50.196078%,50.196078%);fill-opacity:1;" d="M 144 0 L 180 0 L 180 288 L 144 288 Z M 144 0 "/>
<path style=" stroke:none;fill-rule:nonzero;fill:rgb(0%,0%,0%);fill-opacity:1;" d="M 180 0 L 216 0 L 216 288 L 180 288 Z M 180 0 "/>
<path style=" stroke:none;fill-rule:nonzero;fill:rgb(50.196078%,50.196078%,50.196078%);fill-opacity:1;" d="M 216 0 L 252 0 L 252 288 L 216 288 Z M 216 0 "/>
<path style=" stroke:none;fill-rule:nonzero;fill:rgb(0%,0%,0%);fill-opacity:1;" d="M 252 0 L 288 0 L 288 288 L 252 288 Z M 252 0 "/>
<path style=" stroke:none;fill-rule:nonzero;fill:rgb(0%,0%,0%);fill-opacity:1;" d="M 365.578125 11.203125 L 376.453125 11.203125 C 377.492188 11.203125 378.378906 11.550781 379.109375 12.25 C 379.835938 12.945312 380.203125 13.773438 380.203125 14.734375 L 380.203125 15.4375 C 380.203125 15.65625 380.128906 15.820312 379.984375 15.9375 C 379.835938 16.0625 379.660156 16.125 379.453125 16.125 C 379.253906 16.125 379.082031 16.0625 378.9375 15.9375 C 378.800781 15.820312 378.734375 15.65625 378.734375 15.4375 L 378.734375 15.015625 C 378.734375 14.398438 378.523438 13.890625 378.109375 13.484375 C 377.703125 13.078125 377.195312 12.867188 376.59375 12.859375 L 374.484375 12.859375 L 374.484375 15.59375 C 374.484375 15.757812 374.414062 15.890625 374.28125 15.984375 C 374.144531 16.078125 373.988281 16.125 373.8125 16.125 C 373.644531 16.125 373.5 16.078125 373.375 15.984375 C 373.25 15.890625 373.1875 15.757812 373.1875 15.59375 L 373.1875 12.859375 L 365.578125 12.859375 C 365.421875 12.859375 365.285156 12.773438 365.171875 12.609375 C 365.054688 12.441406 365 12.238281 365 12 C 365 11.769531 365.050781 11.578125 365.15625 11.421875 C 365.257812 11.273438 365.398438 11.203125 365.578125 11.203125 Z M 368.71875 17.113281 L 370.765625 17.113281 C 371.785156 17.113281 372.675781 17.503906 373.4375 18.285156 C 374.207031 19.066406 374.59375 19.988281 374.59375 21.050781 C 374.59375 22.121094 374.210938 23.050781 373.453125 23.832031 C 372.691406 24.621094 371.796875 25.019531 370.765625 25.019531 L 368.71875 25.019531 C 367.707031 25.019531 366.804688 24.621094 366.015625 23.832031 C 365.234375 23.039062 364.84375 22.117188 364.84375 21.066406 C 364.84375 20.011719 365.234375 19.089844 366.015625 18.300781 C 366.796875 17.507812 367.695312 17.113281 368.71875 17.113281 Z M 368.71875 18.785156 C 368.09375 18.785156 367.539062 19.007812 367.0625 19.457031 C 366.582031 19.914062 366.34375 20.449219 366.34375 21.066406 C 366.34375 21.691406 366.582031 22.226562 367.0625 22.675781 C 367.550781 23.132812 368.101562 23.363281 368.71875 23.363281 L 370.765625 23.363281 C 371.359375 23.363281 371.894531 23.132812 372.375 22.675781 C 372.851562 22.226562 373.09375 21.683594 373.09375 21.050781 C 373.09375 20.425781 372.851562 19.886719 372.375 19.441406 C 371.894531 19.003906 371.359375 18.785156 370.765625 18.785156 Z M 365.59375 27.199219 L 379.625 27.199219 C 379.789062 27.199219 379.925781 27.269531 380.03125 27.417969 C 380.144531 27.574219 380.203125 27.769531 380.203125 28.011719 C 380.203125 28.261719 380.144531 28.464844 380.03125 28.621094 C 379.925781 28.777344 379.789062 28.855469 379.625 28.855469 L 365.59375 28.855469 C 365.445312 28.855469 365.3125 28.769531 365.1875 28.605469 C 365.0625 28.4375 365 28.238281 365 28.011719 C 365 27.792969 365.054688 27.597656 365.171875 27.433594 C 365.296875 27.277344 365.4375 27.199219 365.59375 27.199219 Z M 368.71875 31.03125 L 370.765625 31.03125 C 371.816406 31.03125 372.71875 31.382812 373.46875 32.09375 C 374.21875 32.800781 374.59375 33.644531 374.59375 34.625 C 374.59375 35.21875 374.445312 35.738281 374.15625 36.1875 C 373.863281 36.644531 373.503906 36.992188 373.078125 37.234375 L 379.625 37.234375 C 379.789062 37.234375 379.925781 37.3125 380.03125 37.46875 C 380.144531 37.632812 380.203125 37.835938 380.203125 38.078125 C 380.203125 38.316406 380.144531 38.515625 380.03125 38.671875 C 379.925781 38.828125 379.789062 38.90625 379.625 38.90625 L 365.59375 38.90625 C 365.4375 38.90625 365.296875 38.820312 365.171875 38.65625 C 365.054688 38.5 365 38.304688 365 38.078125 C 365 37.878906 365.054688 37.703125 365.171875 37.546875 C 365.296875 37.390625 365.4375 37.3125 365.59375 37.3125 L 366.40625 37.3125 C 365.976562 37.09375 365.609375 36.726562 365.296875 36.21875 C 364.996094 35.707031 364.84375 35.15625 364.84375 34.5625 C 364.84375 33.625 365.234375 32.800781 366.015625 32.09375 C 366.804688 31.382812 367.707031 31.03125 368.71875 31.03125 Z M 368.71875 32.703125 C 368.101562 32.703125 367.550781 32.925781 367.0625 33.375 C 366.582031 33.832031 366.34375 34.359375 366.34375 34.953125 C 366.34375 35.546875 366.566406 36.070312 367.015625 36.53125 C 367.460938 37 367.851562 37.234375 368.1875 37.234375 L 370.765625 37.234375 C 371.453125 37.234375 372.007812 37.003906 372.4375 36.546875 C 372.875 36.097656 373.09375 35.578125 373.09375 34.984375 C 373.09375 34.367188 372.851562 33.832031 372.375 33.375 C 371.894531 32.925781 371.359375 32.703125 370.765625 32.703125 Z M 365.59375 41.523438 L 379.015625 41.523438 C 379.203125 41.523438 379.347656 41.59375 379.453125 41.742188 C 379.566406 41.898438 379.625 42.078125 379.625 42.289062 L 379.625 49.398438 C 379.625 49.585938 379.550781 49.726562 379.40625 49.820312 C 379.257812 49.921875 379.082031 49.976562 378.875 49.976562 C 378.664062 49.976562 378.484375 49.921875 378.328125 49.820312 C 378.171875 49.714844 378.09375 49.574219 378.09375 49.398438 L 378.09375 43.195312 L 373.015625 43.195312 L 373.015625 46.320312 C 373.015625 46.496094 372.941406 46.636719 372.796875 46.742188 C 372.660156 46.84375 372.492188 46.898438 372.296875 46.898438 C 372.128906 46.898438 371.972656 46.84375 371.828125 46.742188 C 371.691406 46.648438 371.625 46.507812 371.625 46.320312 L 371.625 43.195312 L 366.515625 43.195312 L 366.515625 49.398438 C 366.515625 49.574219 366.4375 49.714844 366.28125 49.820312 C 366.132812 49.921875 365.953125 49.976562 365.734375 49.976562 C 365.535156 49.976562 365.363281 49.921875 365.21875 49.820312 C 365.070312 49.726562 365 49.585938 365 49.398438 L 365 42.289062 C 365 42.078125 365.050781 41.898438 365.15625 41.742188 C 365.257812 41.59375 365.40625 41.523438 365.59375 41.523438 Z M 373.796875 50.613281 C 373.984375 50.613281 374.148438 50.726562 374.296875 50.957031 C 374.441406 51.195312 374.515625 51.433594 374.515625 51.675781 C 374.515625 51.957031 374.410156 52.136719 374.203125 52.222656 L 367.40625 54.753906 L 374.125 57.253906 C 374.382812 57.367188 374.515625 57.550781 374.515625 57.800781 C 374.515625 58.007812 374.441406 58.238281 374.296875 58.488281 C 374.148438 58.746094 373.984375 58.878906 373.796875 58.878906 C 373.691406 58.878906 373.585938 58.851562 373.484375 58.800781 L 365.1875 55.519531 C 364.9375 55.414062 364.8125 55.160156 364.8125 54.753906 C 364.8125 54.347656 364.9375 54.085938 365.1875 53.972656 L 373.484375 50.691406 C 373.640625 50.636719 373.742188 50.613281 373.796875 50.613281 Z M 368.71875 59.933594 L 370.8125 59.933594 C 371.84375 59.933594 372.726562 60.324219 373.46875 61.105469 C 374.21875 61.886719 374.59375 62.824219 374.59375 63.917969 C 374.59375 64.957031 374.242188 65.859375 373.546875 66.621094 C 372.847656 67.378906 371.972656 67.761719 370.921875 67.761719 C 370.535156 67.761719 370.222656 67.714844 369.984375 67.621094 C 369.753906 67.527344 369.585938 67.378906 369.484375 67.183594 C 369.390625 66.996094 369.328125 66.816406 369.296875 66.652344 C 369.273438 66.484375 369.265625 66.261719 369.265625 65.980469 L 369.265625 61.605469 L 368.65625 61.605469 C 367.925781 61.605469 367.335938 61.863281 366.890625 62.386719 C 366.453125 62.917969 366.234375 63.597656 366.234375 64.433594 C 366.234375 64.878906 366.300781 65.265625 366.4375 65.589844 C 366.570312 65.910156 366.703125 66.171875 366.828125 66.371094 C 366.953125 66.578125 367.015625 66.738281 367.015625 66.855469 C 367.015625 67.042969 366.929688 67.203125 366.765625 67.339844 C 366.597656 67.472656 366.429688 67.542969 366.265625 67.542969 C 365.953125 67.542969 365.632812 67.234375 365.3125 66.621094 C 365 66.015625 364.84375 65.269531 364.84375 64.386719 C 364.84375 63.074219 365.195312 62 365.90625 61.167969 C 366.625 60.34375 367.5625 59.933594 368.71875 59.933594 Z M 370.375 61.605469 L 370.375 65.308594 C 370.375 65.652344 370.414062 65.878906 370.5 65.996094 C 370.59375 66.121094 370.765625 66.183594 371.015625 66.183594 C 371.617188 66.183594 372.144531 65.957031 372.59375 65.511719 C 373.050781 65.074219 373.28125 64.535156 373.28125 63.902344 C 373.28125 63.277344 373.066406 62.734375 372.640625 62.277344 C 372.222656 61.828125 371.707031 61.605469 371.09375 61.605469 Z M 365.59375 69.609375 L 373.90625 69.609375 C 374.070312 69.609375 374.207031 69.679688 374.3125 69.828125 C 374.425781 69.984375 374.484375 70.179688 374.484375 70.421875 C 374.484375 70.628906 374.425781 70.804688 374.3125 70.953125 C 374.207031 71.109375 374.070312 71.1875 373.90625 71.1875 L 372.953125 71.1875 C 373.410156 71.425781 373.796875 71.773438 374.109375 72.234375 C 374.429688 72.703125 374.59375 73.222656 374.59375 73.796875 L 374.59375 74.484375 C 374.59375 74.648438 374.515625 74.796875 374.359375 74.921875 C 374.210938 75.054688 374.039062 75.125 373.84375 75.125 C 373.644531 75.125 373.46875 75.054688 373.3125 74.921875 C 373.164062 74.796875 373.09375 74.648438 373.09375 74.484375 L 373.09375 73.796875 C 373.09375 73.117188 372.816406 72.523438 372.265625 72.015625 C 371.722656 71.515625 371.019531 71.265625 370.15625 71.265625 L 365.59375 71.265625 C 365.445312 71.265625 365.3125 71.179688 365.1875 71.015625 C 365.0625 70.847656 365 70.648438 365 70.421875 C 365 70.191406 365.054688 70 365.171875 69.84375 C 365.296875 69.6875 365.4375 69.609375 365.59375 69.609375 Z M 373.796875 75.535156 C 374.015625 75.535156 374.203125 75.652344 374.359375 75.894531 C 374.515625 76.132812 374.59375 76.371094 374.59375 76.613281 C 374.59375 76.894531 374.484375 77.074219 374.265625 77.160156 L 367.296875 79.800781 L 374.265625 82.175781 C 374.484375 82.269531 374.59375 82.445312 374.59375 82.707031 C 374.59375 82.925781 374.515625 83.160156 374.359375 83.410156 C 374.203125 83.660156 374.007812 83.785156 373.78125 83.785156 C 373.71875 83.785156 373.648438 83.761719 373.578125 83.722656 L 365.4375 80.675781 L 364.4375 80.300781 C 364.25 80.238281 363.933594 80.101562 363.484375 79.894531 C 363.027344 79.695312 362.699219 79.527344 362.5 79.394531 C 362.304688 79.269531 362.042969 79.085938 361.71875 78.847656 C 361.386719 78.605469 361.148438 78.371094 361 78.144531 C 360.855469 77.914062 360.726562 77.644531 360.609375 77.332031 C 360.484375 77.019531 360.421875 76.691406 360.421875 76.347656 C 360.421875 75.824219 360.667969 75.566406 361.15625 75.566406 C 361.636719 75.566406 361.875 75.722656 361.875 76.035156 C 361.875 76.636719 362.214844 77.222656 362.890625 77.785156 C 363.570312 78.355469 364.433594 78.742188 365.484375 78.941406 L 373.578125 75.613281 C 373.660156 75.558594 373.734375 75.535156 373.796875 75.535156 Z M 365.15625 89.335938 L 379.78125 89.335938 C 379.957031 89.335938 380.097656 89.414062 380.203125 89.570312 C 380.304688 89.726562 380.359375 89.902344 380.359375 90.101562 L 380.359375 93.382812 C 380.359375 93.546875 380.285156 93.683594 380.140625 93.789062 C 379.992188 93.902344 379.820312 93.960938 379.625 93.960938 C 379.40625 93.960938 379.222656 93.902344 379.078125 93.789062 C 378.929688 93.683594 378.859375 93.546875 378.859375 93.382812 L 378.859375 91.023438 L 366.078125 91.023438 L 366.078125 93.382812 C 366.078125 93.546875 366.003906 93.683594 365.859375 93.789062 C 365.710938 93.902344 365.53125 93.960938 365.3125 93.960938 C 365.113281 93.960938 364.945312 93.902344 364.796875 93.789062 C 364.652344 93.683594 364.578125 93.546875 364.578125 93.382812 L 364.578125 90.101562 C 364.578125 89.902344 364.636719 89.726562 364.75 89.570312 C 364.855469 89.414062 364.992188 89.335938 365.15625 89.335938 Z M 368.28125 94.835938 C 368.582031 94.835938 368.785156 94.890625 368.890625 95.007812 C 369.003906 95.121094 369.0625 95.324219 369.0625 95.617188 C 369.0625 95.9375 369.003906 96.164062 368.890625 96.289062 C 368.785156 96.414062 368.625 96.476562 368.40625 96.476562 C 367.894531 96.476562 367.429688 96.6875 367.015625 97.117188 C 366.609375 97.554688 366.40625 98.214844 366.40625 99.101562 C 366.40625 100.882812 367.320312 101.773438 369.15625 101.773438 L 369.546875 101.773438 C 371.171875 101.773438 371.984375 100.882812 371.984375 99.101562 C 371.984375 98.714844 372.210938 98.523438 372.671875 98.523438 C 373.140625 98.523438 373.375 98.714844 373.375 99.101562 C 373.375 99.871094 373.546875 100.449219 373.890625 100.835938 C 374.242188 101.21875 374.875 101.414062 375.78125 101.414062 C 377.34375 101.414062 378.125 100.667969 378.125 99.179688 C 378.125 98.324219 377.929688 97.71875 377.546875 97.367188 C 377.171875 97.011719 376.722656 96.835938 376.203125 96.835938 C 375.703125 96.835938 375.453125 96.570312 375.453125 96.039062 C 375.453125 95.683594 375.507812 95.449219 375.625 95.335938 C 375.75 95.21875 375.976562 95.164062 376.3125 95.164062 C 376.644531 95.164062 376.988281 95.226562 377.34375 95.351562 C 377.695312 95.476562 378.050781 95.679688 378.40625 95.960938 C 378.757812 96.242188 379.050781 96.664062 379.28125 97.226562 C 379.507812 97.796875 379.625 98.464844 379.625 99.226562 C 379.625 101.765625 378.441406 103.039062 376.078125 103.039062 C 375.234375 103.039062 374.519531 102.890625 373.9375 102.601562 C 373.351562 102.308594 372.945312 101.914062 372.71875 101.414062 C 372.175781 102.777344 371.117188 103.460938 369.546875 103.460938 L 369.15625 103.460938 C 367.6875 103.460938 366.601562 103.058594 365.90625 102.257812 C 365.21875 101.453125 364.875 100.402344 364.875 99.101562 C 364.875 97.726562 365.222656 96.667969 365.921875 95.929688 C 366.628906 95.199219 367.414062 94.835938 368.28125 94.835938 Z M 365.921875 104.980469 C 366.210938 104.980469 366.460938 105.074219 366.671875 105.261719 C 366.878906 105.457031 366.984375 105.703125 366.984375 105.996094 C 366.984375 106.277344 366.878906 106.519531 366.671875 106.730469 C 366.472656 106.9375 366.222656 107.042969 365.921875 107.042969 C 365.679688 107.042969 364.875 106.753906 363.5 106.183594 C 363.3125 106.097656 363.21875 105.953125 363.21875 105.746094 C 363.21875 105.597656 363.265625 105.464844 363.359375 105.339844 C 363.445312 105.222656 363.558594 105.167969 363.703125 105.167969 C 363.796875 105.167969 363.871094 105.175781 363.921875 105.199219 L 364.953125 105.621094 C 365.128906 105.191406 365.453125 104.980469 365.921875 104.980469 Z M 368.34375 108.28125 C 368.875 108.28125 369.140625 108.5625 369.140625 109.125 C 369.140625 109.6875 368.910156 109.96875 368.453125 109.96875 C 367.816406 109.96875 367.316406 110.210938 366.953125 110.703125 C 366.585938 111.191406 366.40625 111.816406 366.40625 112.578125 C 366.40625 113.421875 366.632812 114.070312 367.09375 114.53125 C 367.5625 114.988281 368.265625 115.21875 369.203125 115.21875 L 369.578125 115.21875 C 370.484375 115.21875 371.164062 114.988281 371.625 114.53125 C 372.082031 114.070312 372.3125 113.425781 372.3125 112.59375 L 372.3125 109.765625 C 372.3125 109.242188 372.535156 108.984375 372.984375 108.984375 C 373.117188 108.984375 373.265625 108.992188 373.421875 109.015625 L 379.015625 109.4375 C 379.421875 109.46875 379.625 109.613281 379.625 109.875 L 379.625 115.640625 C 379.625 115.816406 379.546875 115.953125 379.390625 116.046875 C 379.234375 116.140625 379.054688 116.1875 378.859375 116.1875 C 378.660156 116.1875 378.484375 116.140625 378.328125 116.046875 C 378.171875 115.953125 378.09375 115.816406 378.09375 115.640625 L 378.09375 110.90625 L 373.71875 110.59375 L 373.71875 112.59375 C 373.71875 113.90625 373.382812 114.953125 372.71875 115.734375 C 372.050781 116.515625 371.003906 116.90625 369.578125 116.90625 L 369.203125 116.90625 C 367.722656 116.90625 366.628906 116.507812 365.921875 115.71875 C 365.222656 114.9375 364.875 113.894531 364.875 112.59375 C 364.875 111.257812 365.210938 110.207031 365.890625 109.4375 C 366.566406 108.664062 367.382812 108.28125 368.34375 108.28125 Z M 365.3125 117.839844 C 365.53125 117.839844 365.710938 117.890625 365.859375 117.996094 C 366.003906 118.109375 366.078125 118.25 366.078125 118.417969 L 366.078125 120.777344 L 378.859375 120.777344 L 378.859375 118.417969 C 378.859375 118.25 378.929688 118.109375 379.078125 117.996094 C 379.222656 117.890625 379.40625 117.839844 379.625 117.839844 C 379.820312 117.839844 379.992188 117.890625 380.140625 117.996094 C 380.285156 118.109375 380.359375 118.25 380.359375 118.417969 L 380.359375 121.699219 C 380.359375 121.894531 380.304688 122.074219 380.203125 122.230469 C 380.097656 122.386719 379.957031 122.464844 379.78125 122.464844 L 365.15625 122.464844 C 364.992188 122.464844 364.855469 122.386719 364.75 122.230469 C 364.636719 122.074219 364.578125 121.894531 364.578125 121.699219 L 364.578125 118.417969 C 364.578125 118.25 364.652344 118.109375 364.796875 117.996094 C 364.945312 117.890625 365.113281 117.839844 365.3125 117.839844 Z M 368.09375 128.902344 L 376.578125 128.902344 C 377.628906 128.902344 378.519531 129.285156 379.25 130.058594 C 379.988281 130.828125 380.359375 131.734375 380.359375 132.777344 C 380.359375 133.328125 380.113281 133.605469 379.625 133.605469 C 379.394531 133.605469 379.207031 133.546875 379.0625 133.433594 C 378.925781 133.328125 378.859375 133.191406 378.859375 133.027344 C 378.859375 132.285156 378.628906 131.691406 378.171875 131.246094 C 377.710938 130.796875 377.179688 130.574219 376.578125 130.574219 L 368.09375 130.574219 C 367.363281 130.574219 366.847656 130.8125 366.546875 131.292969 C 366.242188 131.78125 366.09375 132.359375 366.09375 133.027344 C 366.09375 133.410156 365.84375 133.605469 365.34375 133.605469 C 364.84375 133.605469 364.59375 133.316406 364.59375 132.746094 C 364.59375 131.660156 364.898438 130.75 365.5 130.011719 C 366.113281 129.269531 366.976562 128.902344 368.09375 128.902344 Z M 366.359375 134.554688 C 366.535156 134.554688 366.707031 134.609375 366.875 134.726562 C 367.039062 134.839844 367.125 134.980469 367.125 135.148438 C 367.125 135.25 367.039062 135.402344 366.875 135.601562 C 366.71875 135.796875 366.5625 136.085938 366.40625 136.460938 C 366.257812 136.835938 366.1875 137.273438 366.1875 137.773438 C 366.1875 138.4375 366.304688 138.921875 366.546875 139.226562 C 366.785156 139.527344 367.082031 139.679688 367.4375 139.679688 C 367.875 139.679688 368.222656 139.511719 368.484375 139.179688 C 368.742188 138.84375 368.941406 138.4375 369.078125 137.960938 C 369.210938 137.480469 369.359375 137 369.515625 136.523438 C 369.679688 136.042969 369.945312 135.636719 370.3125 135.304688 C 370.6875 134.96875 371.179688 134.804688 371.796875 134.804688 C 372.554688 134.804688 373.210938 135.070312 373.765625 135.601562 C 374.316406 136.140625 374.59375 136.96875 374.59375 138.085938 C 374.59375 138.792969 374.484375 139.4375 374.265625 140.023438 C 374.046875 140.605469 373.796875 140.898438 373.515625 140.898438 C 373.359375 140.898438 373.179688 140.835938 372.984375 140.710938 C 372.785156 140.585938 372.6875 140.429688 372.6875 140.242188 C 372.6875 140.1875 372.78125 139.929688 372.96875 139.460938 C 373.164062 139 373.265625 138.546875 373.265625 138.101562 C 373.265625 137.484375 373.117188 137.027344 372.828125 136.726562 C 372.546875 136.421875 372.222656 136.273438 371.859375 136.273438 C 371.484375 136.273438 371.1875 136.4375 370.96875 136.773438 C 370.757812 137.105469 370.59375 137.515625 370.46875 138.007812 C 370.351562 138.496094 370.207031 138.980469 370.03125 139.460938 C 369.863281 139.9375 369.566406 140.34375 369.140625 140.679688 C 368.722656 141.011719 368.179688 141.179688 367.515625 141.179688 C 366.691406 141.179688 366.039062 140.882812 365.5625 140.289062 C 365.082031 139.703125 364.84375 138.886719 364.84375 137.835938 C 364.84375 136.929688 365.003906 136.152344 365.328125 135.507812 C 365.648438 134.871094 365.992188 134.554688 366.359375 134.554688 Z M 365.59375 143.160156 L 379.625 143.160156 C 379.789062 143.160156 379.925781 143.230469 380.03125 143.378906 C 380.144531 143.535156 380.203125 143.730469 380.203125 143.972656 C 380.203125 144.222656 380.144531 144.425781 380.03125 144.582031 C 379.925781 144.738281 379.789062 144.816406 379.625 144.816406 L 365.59375 144.816406 C 365.445312 144.816406 365.3125 144.730469 365.1875 144.566406 C 365.0625 144.398438 365 144.199219 365 143.972656 C 365 143.753906 365.054688 143.558594 365.171875 143.394531 C 365.296875 143.238281 365.4375 143.160156 365.59375 143.160156 Z M 368.71875 146.992188 L 370.765625 146.992188 C 371.785156 146.992188 372.675781 147.382812 373.4375 148.164062 C 374.207031 148.945312 374.59375 149.867188 374.59375 150.929688 C 374.59375 152 374.210938 152.929688 373.453125 153.710938 C 372.691406 154.5 371.796875 154.898438 370.765625 154.898438 L 368.71875 154.898438 C 367.707031 154.898438 366.804688 154.5 366.015625 153.710938 C 365.234375 152.917969 364.84375 151.996094 364.84375 150.945312 C 364.84375 149.890625 365.234375 148.96875 366.015625 148.179688 C 366.796875 147.386719 367.695312 146.992188 368.71875 146.992188 Z M 368.71875 148.664062 C 368.09375 148.664062 367.539062 148.886719 367.0625 149.335938 C 366.582031 149.792969 366.34375 150.328125 366.34375 150.945312 C 366.34375 151.570312 366.582031 152.105469 367.0625 152.554688 C 367.550781 153.011719 368.101562 153.242188 368.71875 153.242188 L 370.765625 153.242188 C 371.359375 153.242188 371.894531 153.011719 372.375 152.554688 C 372.851562 152.105469 373.09375 151.5625 373.09375 150.929688 C 373.09375 150.304688 372.851562 149.765625 372.375 149.320312 C 371.894531 148.882812 371.359375 148.664062 370.765625 148.664062 Z M 373.796875 156 C 373.992188 156 374.160156 156.109375 374.296875 156.328125 C 374.441406 156.546875 374.515625 156.773438 374.515625 157.015625 C 374.515625 157.296875 374.410156 157.476562 374.203125 157.5625 L 367.484375 159.984375 L 373.546875 161.859375 C 373.804688 161.953125 373.9375 162.160156 373.9375 162.484375 C 373.9375 162.816406 373.804688 163.03125 373.546875 163.125 L 367.421875 164.953125 L 374.203125 167.40625 C 374.410156 167.46875 374.515625 167.640625 374.515625 167.921875 C 374.515625 168.160156 374.441406 168.390625 374.296875 168.609375 C 374.160156 168.835938 373.992188 168.953125 373.796875 168.953125 C 373.691406 168.953125 373.585938 168.925781 373.484375 168.875 L 365.1875 165.765625 C 364.9375 165.671875 364.8125 165.445312 364.8125 165.09375 C 364.8125 164.738281 364.9375 164.515625 365.1875 164.421875 L 371.0625 162.484375 L 365.234375 160.578125 C 364.953125 160.484375 364.8125 160.242188 364.8125 159.859375 C 364.8125 159.515625 364.953125 159.285156 365.234375 159.171875 L 373.484375 156.078125 C 373.640625 156.023438 373.742188 156 373.796875 156 Z M 365.59375 173.859375 L 367.546875 173.859375 C 368.140625 173.859375 368.726562 174.085938 369.3125 174.546875 C 369.894531 175.003906 370.414062 175.5625 370.875 176.21875 L 372.3125 178.15625 C 372.78125 178.8125 373.304688 179.367188 373.890625 179.828125 C 374.472656 180.285156 375.0625 180.515625 375.65625 180.515625 C 376.300781 180.515625 376.863281 180.304688 377.34375 179.890625 C 377.820312 179.472656 378.0625 178.867188 378.0625 178.078125 C 378.0625 177.410156 377.875 176.863281 377.5 176.4375 C 377.125 176.019531 376.582031 175.8125 375.875 175.8125 C 375.707031 175.8125 375.554688 175.734375 375.421875 175.578125 C 375.285156 175.421875 375.21875 175.207031 375.21875 174.9375 C 375.21875 174.425781 375.546875 174.171875 376.203125 174.171875 C 377.203125 174.171875 378.019531 174.546875 378.65625 175.296875 C 379.300781 176.054688 379.625 176.984375 379.625 178.078125 C 379.625 179.253906 379.253906 180.234375 378.515625 181.015625 C 377.773438 181.804688 376.84375 182.203125 375.71875 182.203125 C 375.050781 182.203125 374.410156 182.035156 373.796875 181.703125 C 373.179688 181.378906 372.660156 180.972656 372.234375 180.484375 C 371.804688 180.003906 371.378906 179.476562 370.953125 178.90625 L 369.8125 177.296875 C 369.476562 176.816406 369.113281 176.410156 368.71875 176.078125 C 368.320312 175.753906 367.929688 175.59375 367.546875 175.59375 L 366.515625 175.59375 L 366.515625 181.734375 C 366.515625 181.898438 366.441406 182.035156 366.296875 182.140625 C 366.148438 182.253906 365.972656 182.3125 365.765625 182.3125 C 365.554688 182.3125 365.375 182.253906 365.21875 182.140625 C 365.070312 182.035156 365 181.898438 365 181.734375 L 365 174.625 C 365 174.445312 365.054688 174.273438 365.171875 174.109375 C 365.285156 173.941406 365.425781 173.859375 365.59375 173.859375 Z M 365.34375 183.257812 C 365.84375 183.257812 366.09375 183.449219 366.09375 183.835938 C 366.09375 184.5 366.242188 185.074219 366.546875 185.554688 C 366.847656 186.03125 367.363281 186.273438 368.09375 186.273438 L 376.578125 186.273438 C 377.179688 186.273438 377.710938 186.046875 378.171875 185.601562 C 378.628906 185.164062 378.859375 184.574219 378.859375 183.835938 C 378.859375 183.667969 378.925781 183.527344 379.0625 183.414062 C 379.207031 183.308594 379.394531 183.257812 379.625 183.257812 C 380.113281 183.257812 380.359375 183.53125 380.359375 184.085938 C 380.359375 185.117188 379.988281 186.015625 379.25 186.789062 C 378.519531 187.570312 377.628906 187.960938 376.578125 187.960938 L 368.09375 187.960938 C 366.976562 187.960938 366.113281 187.589844 365.5 186.851562 C 364.898438 186.109375 364.59375 185.195312 364.59375 184.101562 C 364.59375 183.539062 364.84375 183.257812 365.34375 183.257812 Z M 367.296875 193.804688 C 367.515625 193.804688 367.722656 193.875 367.921875 194.023438 C 368.117188 194.179688 368.21875 194.351562 368.21875 194.539062 C 368.21875 194.640625 368.132812 194.789062 367.96875 194.976562 C 367.8125 195.164062 367.632812 195.351562 367.4375 195.539062 C 367.25 195.734375 367.070312 196.042969 366.90625 196.460938 C 366.738281 196.875 366.644531 197.34375 366.625 197.867188 L 371.9375 197.867188 L 372.34375 196.789062 C 372.4375 196.527344 372.59375 196.199219 372.8125 195.804688 C 373.039062 195.417969 373.269531 195.125 373.5 194.929688 C 373.738281 194.742188 374.054688 194.5625 374.453125 194.398438 C 374.847656 194.242188 375.289062 194.164062 375.78125 194.164062 C 376.382812 194.164062 376.914062 194.265625 377.375 194.476562 C 377.832031 194.695312 378.191406 194.984375 378.453125 195.351562 C 378.722656 195.714844 378.925781 196.105469 379.0625 196.523438 C 379.207031 196.9375 379.300781 197.386719 379.34375 197.867188 L 379.9375 197.867188 C 380.039062 197.867188 380.132812 197.914062 380.21875 198.007812 C 380.3125 198.109375 380.359375 198.234375 380.359375 198.382812 C 380.359375 198.515625 380.3125 198.636719 380.21875 198.742188 C 380.132812 198.84375 380.039062 198.898438 379.9375 198.898438 L 379.375 198.898438 C 379.332031 199.699219 379.195312 200.421875 378.96875 201.070312 C 378.738281 201.726562 378.4375 202.054688 378.0625 202.054688 C 377.875 202.054688 377.671875 201.984375 377.453125 201.851562 C 377.242188 201.726562 377.140625 201.554688 377.140625 201.335938 C 377.140625 201.273438 377.253906 200.992188 377.484375 200.492188 C 377.722656 200 377.851562 199.46875 377.875 198.898438 L 373.3125 198.898438 C 373.132812 199.417969 372.953125 199.84375 372.765625 200.179688 C 372.585938 200.523438 372.34375 200.882812 372.03125 201.257812 C 371.71875 201.640625 371.316406 201.929688 370.828125 202.117188 C 370.335938 202.3125 369.769531 202.414062 369.125 202.414062 C 367.945312 202.414062 367.015625 202.09375 366.328125 201.460938 C 365.648438 200.835938 365.238281 199.980469 365.09375 198.898438 L 364.375 198.898438 C 364.273438 198.898438 364.179688 198.84375 364.09375 198.742188 C 364 198.636719 363.953125 198.515625 363.953125 198.382812 C 363.953125 198.234375 364 198.109375 364.09375 198.007812 C 364.179688 197.914062 364.273438 197.867188 364.375 197.867188 L 365.046875 197.867188 C 365.054688 196.71875 365.3125 195.757812 365.8125 194.976562 C 366.320312 194.195312 366.816406 193.804688 367.296875 193.804688 Z M 375.9375 195.757812 C 375.3125 195.757812 374.84375 195.933594 374.53125 196.289062 C 374.21875 196.652344 373.925781 197.203125 373.65625 197.945312 L 377.859375 197.945312 C 377.710938 196.484375 377.070312 195.757812 375.9375 195.757812 Z M 366.65625 198.820312 C 366.875 200.152344 367.640625 200.820312 368.953125 200.820312 C 369.648438 200.820312 370.191406 200.648438 370.578125 200.304688 C 370.960938 199.960938 371.289062 199.464844 371.5625 198.820312 Z M 368.71875 208.03125 L 370.765625 208.03125 C 371.816406 208.03125 372.71875 208.382812 373.46875 209.09375 C 374.21875 209.800781 374.59375 210.644531 374.59375 211.625 C 374.59375 212.21875 374.445312 212.738281 374.15625 213.1875 C 373.863281 213.644531 373.503906 213.992188 373.078125 214.234375 L 379.625 214.234375 C 379.789062 214.234375 379.925781 214.3125 380.03125 214.46875 C 380.144531 214.632812 380.203125 214.835938 380.203125 215.078125 C 380.203125 215.316406 380.144531 215.515625 380.03125 215.671875 C 379.925781 215.828125 379.789062 215.90625 379.625 215.90625 L 365.59375 215.90625 C 365.4375 215.90625 365.296875 215.820312 365.171875 215.65625 C 365.054688 215.5 365 215.304688 365 215.078125 C 365 214.878906 365.054688 214.703125 365.171875 214.546875 C 365.296875 214.390625 365.4375 214.3125 365.59375 214.3125 L 366.40625 214.3125 C 365.976562 214.09375 365.609375 213.726562 365.296875 213.21875 C 364.996094 212.707031 364.84375 212.15625 364.84375 211.5625 C 364.84375 210.625 365.234375 209.800781 366.015625 209.09375 C 366.804688 208.382812 367.707031 208.03125 368.71875 208.03125 Z M 368.71875 209.703125 C 368.101562 209.703125 367.550781 209.925781 367.0625 210.375 C 366.582031 210.832031 366.34375 211.359375 366.34375 211.953125 C 366.34375 212.546875 366.566406 213.070312 367.015625 213.53125 C 367.460938 214 367.851562 214.234375 368.1875 214.234375 L 370.765625 214.234375 C 371.453125 214.234375 372.007812 214.003906 372.4375 213.546875 C 372.875 213.097656 373.09375 212.578125 373.09375 211.984375 C 373.09375 211.367188 372.851562 210.832031 372.375 210.375 C 371.894531 209.925781 371.359375 209.703125 370.765625 209.703125 Z M 368.71875 217.914062 L 370.8125 217.914062 C 371.84375 217.914062 372.726562 218.304688 373.46875 219.085938 C 374.21875 219.867188 374.59375 220.804688 374.59375 221.898438 C 374.59375 222.9375 374.242188 223.839844 373.546875 224.601562 C 372.847656 225.359375 371.972656 225.742188 370.921875 225.742188 C 370.535156 225.742188 370.222656 225.695312 369.984375 225.601562 C 369.753906 225.507812 369.585938 225.359375 369.484375 225.164062 C 369.390625 224.976562 369.328125 224.796875 369.296875 224.632812 C 369.273438 224.464844 369.265625 224.242188 369.265625 223.960938 L 369.265625 219.585938 L 368.65625 219.585938 C 367.925781 219.585938 367.335938 219.84375 366.890625 220.367188 C 366.453125 220.898438 366.234375 221.578125 366.234375 222.414062 C 366.234375 222.859375 366.300781 223.246094 366.4375 223.570312 C 366.570312 223.890625 366.703125 224.152344 366.828125 224.351562 C 366.953125 224.558594 367.015625 224.71875 367.015625 224.835938 C 367.015625 225.023438 366.929688 225.183594 366.765625 225.320312 C 366.597656 225.453125 366.429688 225.523438 366.265625 225.523438 C 365.953125 225.523438 365.632812 225.214844 365.3125 224.601562 C 365 223.996094 364.84375 223.25 364.84375 222.367188 C 364.84375 221.054688 365.195312 219.980469 365.90625 219.148438 C 366.625 218.324219 367.5625 217.914062 368.71875 217.914062 Z M 370.375 219.585938 L 370.375 223.289062 C 370.375 223.632812 370.414062 223.859375 370.5 223.976562 C 370.59375 224.101562 370.765625 224.164062 371.015625 224.164062 C 371.617188 224.164062 372.144531 223.9375 372.59375 223.492188 C 373.050781 223.054688 373.28125 222.515625 373.28125 221.882812 C 373.28125 221.257812 373.066406 220.714844 372.640625 220.257812 C 372.222656 219.808594 371.707031 219.585938 371.09375 219.585938 Z M 365.59375 227.585938 L 373.90625 227.585938 C 374.070312 227.585938 374.207031 227.65625 374.3125 227.804688 C 374.425781 227.960938 374.484375 228.15625 374.484375 228.398438 C 374.484375 228.59375 374.425781 228.773438 374.3125 228.929688 C 374.195312 229.085938 374.0625 229.164062 373.90625 229.164062 L 373.078125 229.164062 C 373.503906 229.371094 373.863281 229.710938 374.15625 230.179688 C 374.445312 230.65625 374.59375 231.210938 374.59375 231.835938 C 374.59375 232.78125 374.21875 233.605469 373.46875 234.304688 C 372.71875 235 371.816406 235.351562 370.765625 235.351562 L 365.59375 235.351562 C 365.40625 235.351562 365.257812 235.265625 365.15625 235.101562 C 365.050781 234.933594 365 234.742188 365 234.523438 C 365 234.304688 365.050781 234.109375 365.15625 233.945312 C 365.257812 233.777344 365.40625 233.695312 365.59375 233.695312 L 370.765625 233.695312 C 371.359375 233.695312 371.894531 233.464844 372.375 233.007812 C 372.851562 232.558594 373.09375 232.027344 373.09375 231.414062 C 373.09375 230.839844 372.875 230.335938 372.4375 229.898438 C 372.007812 229.460938 371.453125 229.242188 370.765625 229.242188 L 365.59375 229.242188 C 365.445312 229.242188 365.3125 229.152344 365.1875 228.976562 C 365.0625 228.796875 365 228.605469 365 228.398438 C 365 228.167969 365.054688 227.976562 365.171875 227.820312 C 365.296875 227.664062 365.4375 227.585938 365.59375 227.585938 Z M 366.359375 237.054688 C 366.535156 237.054688 366.707031 237.109375 366.875 237.226562 C 367.039062 237.339844 367.125 237.480469 367.125 237.648438 C 367.125 237.75 367.039062 237.902344 366.875 238.101562 C 366.71875 238.296875 366.5625 238.585938 366.40625 238.960938 C 366.257812 239.335938 366.1875 239.773438 366.1875 240.273438 C 366.1875 240.9375 366.304688 241.421875 366.546875 241.726562 C 366.785156 242.027344 367.082031 242.179688 367.4375 242.179688 C 367.875 242.179688 368.222656 242.011719 368.484375 241.679688 C 368.742188 241.34375 368.941406 240.9375 369.078125 240.460938 C 369.210938 239.980469 369.359375 239.5 369.515625 239.023438 C 369.679688 238.542969 369.945312 238.136719 370.3125 237.804688 C 370.6875 237.46875 371.179688 237.304688 371.796875 237.304688 C 372.554688 237.304688 373.210938 237.570312 373.765625 238.101562 C 374.316406 238.640625 374.59375 239.46875 374.59375 240.585938 C 374.59375 241.292969 374.484375 241.9375 374.265625 242.523438 C 374.046875 243.105469 373.796875 243.398438 373.515625 243.398438 C 373.359375 243.398438 373.179688 243.335938 372.984375 243.210938 C 372.785156 243.085938 372.6875 242.929688 372.6875 242.742188 C 372.6875 242.6875 372.78125 242.429688 372.96875 241.960938 C 373.164062 241.5 373.265625 241.046875 373.265625 240.601562 C 373.265625 239.984375 373.117188 239.527344 372.828125 239.226562 C 372.546875 238.921875 372.222656 238.773438 371.859375 238.773438 C 371.484375 238.773438 371.1875 238.9375 370.96875 239.273438 C 370.757812 239.605469 370.59375 240.015625 370.46875 240.507812 C 370.351562 240.996094 370.207031 241.480469 370.03125 241.960938 C 369.863281 242.4375 369.566406 242.84375 369.140625 243.179688 C 368.722656 243.511719 368.179688 243.679688 367.515625 243.679688 C 366.691406 243.679688 366.039062 243.382812 365.5625 242.789062 C 365.082031 242.203125 364.84375 241.386719 364.84375 240.335938 C 364.84375 239.429688 365.003906 238.652344 365.328125 238.007812 C 365.648438 237.371094 365.992188 237.054688 366.359375 237.054688 Z M 377.359375 245.566406 C 377.554688 245.355469 377.78125 245.253906 378.03125 245.253906 C 378.289062 245.253906 378.515625 245.351562 378.703125 245.550781 C 378.890625 245.757812 378.984375 246.007812 378.984375 246.300781 C 378.984375 246.582031 378.890625 246.820312 378.703125 247.019531 C 378.515625 247.214844 378.289062 247.316406 378.03125 247.316406 C 377.78125 247.316406 377.554688 247.214844 377.359375 247.019531 C 377.171875 246.820312 377.078125 246.582031 377.078125 246.300781 C 377.078125 246.019531 377.171875 245.773438 377.359375 245.566406 Z M 365.59375 245.488281 L 373.90625 245.488281 C 374.070312 245.488281 374.207031 245.566406 374.3125 245.722656 C 374.425781 245.878906 374.484375 246.070312 374.484375 246.300781 C 374.484375 246.539062 374.425781 246.738281 374.3125 246.894531 C 374.207031 247.058594 374.070312 247.144531 373.90625 247.144531 L 365.59375 247.144531 C 365.445312 247.144531 365.3125 247.058594 365.1875 246.894531 C 365.0625 246.726562 365 246.527344 365 246.300781 C 365 246.070312 365.054688 245.878906 365.171875 245.722656 C 365.296875 245.566406 365.4375 245.488281 365.59375 245.488281 Z M 368.015625 249.460938 L 378.3125 249.460938 C 378.476562 249.460938 378.617188 249.542969 378.734375 249.710938 C 378.847656 249.886719 378.90625 250.074219 378.90625 250.273438 C 378.90625 250.492188 378.847656 250.683594 378.734375 250.851562 C 378.617188 251.027344 378.476562 251.117188 378.3125 251.117188 L 374.484375 251.117188 L 374.484375 253.632812 C 374.484375 253.789062 374.414062 253.90625 374.28125 253.992188 C 374.144531 254.085938 373.988281 254.132812 373.8125 254.132812 C 373.644531 254.132812 373.5 254.085938 373.375 253.992188 C 373.25 253.90625 373.1875 253.789062 373.1875 253.632812 L 373.1875 251.117188 L 368.015625 251.117188 C 367.441406 251.117188 367.035156 251.242188 366.796875 251.492188 C 366.566406 251.742188 366.453125 252.167969 366.453125 252.773438 L 366.453125 253.398438 C 366.453125 253.625 366.382812 253.804688 366.25 253.929688 C 366.113281 254.054688 365.941406 254.117188 365.734375 254.117188 C 365.535156 254.117188 365.363281 254.046875 365.21875 253.914062 C 365.070312 253.789062 365 253.617188 365 253.398438 L 365 252.773438 C 365 250.5625 366.003906 249.460938 368.015625 249.460938 Z M 373.796875 254.753906 C 374.015625 254.753906 374.203125 254.871094 374.359375 255.113281 C 374.515625 255.351562 374.59375 255.589844 374.59375 255.832031 C 374.59375 256.113281 374.484375 256.292969 374.265625 256.378906 L 367.296875 259.019531 L 374.265625 261.394531 C 374.484375 261.488281 374.59375 261.664062 374.59375 261.925781 C 374.59375 262.144531 374.515625 262.378906 374.359375 262.628906 C 374.203125 262.878906 374.007812 263.003906 373.78125 263.003906 C 373.71875 263.003906 373.648438 262.980469 373.578125 262.941406 L 365.4375 259.894531 L 364.4375 259.519531 C 364.25 259.457031 363.933594 259.320312 363.484375 259.113281 C 363.027344 258.914062 362.699219 258.746094 362.5 258.613281 C 362.304688 258.488281 362.042969 258.304688 361.71875 258.066406 C 361.386719 257.824219 361.148438 257.589844 361 257.363281 C 360.855469 257.132812 360.726562 256.863281 360.609375 256.550781 C 360.484375 256.238281 360.421875 255.910156 360.421875 255.566406 C 360.421875 255.042969 360.667969 254.785156 361.15625 254.785156 C 361.636719 254.785156 361.875 254.941406 361.875 255.253906 C 361.875 255.855469 362.214844 256.441406 362.890625 257.003906 C 363.570312 257.574219 364.433594 257.960938 365.484375 258.160156 L 373.578125 254.832031 C 373.660156 254.777344 373.734375 254.753906 373.796875 254.753906 Z M 376.5 267.449219 C 376.78125 267.449219 377.015625 267.566406 377.203125 267.808594 L 379.375 269.636719 C 379.550781 269.8125 379.640625 269.988281 379.640625 270.167969 C 379.640625 270.355469 379.582031 270.519531 379.46875 270.667969 C 379.363281 270.824219 379.222656 270.902344 379.046875 270.902344 L 365.59375 270.902344 C 365.40625 270.902344 365.257812 270.816406 365.15625 270.652344 C 365.050781 270.484375 365 270.285156 365 270.058594 C 365 269.828125 365.050781 269.628906 365.15625 269.464844 C 365.257812 269.296875 365.40625 269.214844 365.59375 269.214844 L 377.125 269.214844 L 376.015625 268.480469 C 375.867188 268.34375 375.796875 268.203125 375.796875 268.058594 C 375.796875 267.890625 375.863281 267.746094 376 267.621094 C 376.144531 267.503906 376.3125 267.449219 376.5 267.449219 Z M 369.234375 273.3125 L 375.265625 273.3125 C 376.765625 273.3125 377.863281 273.707031 378.5625 274.5 C 379.269531 275.300781 379.625 276.367188 379.625 277.703125 C 379.625 279.035156 379.273438 280.070312 378.578125 280.8125 C 377.890625 281.5625 377.078125 281.9375 376.140625 281.9375 C 375.648438 281.9375 375.40625 281.675781 375.40625 281.15625 C 375.40625 280.570312 375.625 280.28125 376.0625 280.28125 C 376.675781 280.28125 377.164062 280.03125 377.53125 279.53125 C 377.90625 279.03125 378.09375 278.40625 378.09375 277.65625 C 378.09375 275.882812 377.148438 275 375.265625 275 L 372.453125 275 C 373.285156 275.632812 373.703125 276.609375 373.703125 277.921875 C 373.703125 280.597656 372.351562 281.9375 369.65625 281.9375 L 369.234375 281.9375 C 367.734375 281.9375 366.628906 281.546875 365.921875 280.765625 C 365.222656 279.984375 364.875 278.9375 364.875 277.625 C 364.875 276.320312 365.222656 275.273438 365.921875 274.484375 C 366.628906 273.703125 367.734375 273.3125 369.234375 273.3125 Z M 369.15625 275 C 367.257812 275 366.3125 275.878906 366.3125 277.640625 C 366.3125 279.390625 367.257812 280.265625 369.15625 280.265625 L 369.578125 280.265625 C 371.390625 280.265625 372.296875 279.390625 372.296875 277.640625 C 372.296875 275.878906 371.453125 275 369.765625 275 Z M 367.296875 287.441406 C 367.515625 287.441406 367.722656 287.511719 367.921875 287.660156 C 368.117188 287.816406 368.21875 287.988281 368.21875 288.175781 C 368.21875 288.277344 368.132812 288.425781 367.96875 288.613281 C 367.8125 288.800781 367.632812 288.988281 367.4375 289.175781 C 367.25 289.371094 367.070312 289.679688 366.90625 290.097656 C 366.738281 290.511719 366.644531 290.980469 366.625 291.503906 L 371.9375 291.503906 L 372.34375 290.425781 C 372.4375 290.164062 372.59375 289.835938 372.8125 289.441406 C 373.039062 289.054688 373.269531 288.761719 373.5 288.566406 C 373.738281 288.378906 374.054688 288.199219 374.453125 288.035156 C 374.847656 287.878906 375.289062 287.800781 375.78125 287.800781 C 376.382812 287.800781 376.914062 287.902344 377.375 288.113281 C 377.832031 288.332031 378.191406 288.621094 378.453125 288.988281 C 378.722656 289.351562 378.925781 289.742188 379.0625 290.160156 C 379.207031 290.574219 379.300781 291.023438 379.34375 291.503906 L 379.9375 291.503906 C 380.039062 291.503906 380.132812 291.550781 380.21875 291.644531 C 380.3125 291.746094 380.359375 291.871094 380.359375 292.019531 C 380.359375 292.152344 380.3125 292.273438 380.21875 292.378906 C 380.132812 292.480469 380.039062 292.535156 379.9375 292.535156 L 379.375 292.535156 C 379.332031 293.335938 379.195312 294.058594 378.96875 294.707031 C 378.738281 295.363281 378.4375 295.691406 378.0625 295.691406 C 377.875 295.691406 377.671875 295.621094 377.453125 295.488281 C 377.242188 295.363281 377.140625 295.191406 377.140625 294.972656 C 377.140625 294.910156 377.253906 294.628906 377.484375 294.128906 C 377.722656 293.636719 377.851562 293.105469 377.875 292.535156 L 373.3125 292.535156 C 373.132812 293.054688 372.953125 293.480469 372.765625 293.816406 C 372.585938 294.160156 372.34375 294.519531 372.03125 294.894531 C 371.71875 295.277344 371.316406 295.566406 370.828125 295.753906 C 370.335938 295.949219 369.769531 296.050781 369.125 296.050781 C 367.945312 296.050781 367.015625 295.730469 366.328125 295.097656 C 365.648438 294.472656 365.238281 293.617188 365.09375 292.535156 L 364.375 292.535156 C 364.273438 292.535156 364.179688 292.480469 364.09375 292.378906 C 364 292.273438 363.953125 292.152344 363.953125 292.019531 C 363.953125 291.871094 364 291.746094 364.09375 291.644531 C 364.179688 291.550781 364.273438 291.503906 364.375 291.503906 L 365.046875 291.503906 C 365.054688 290.355469 365.3125 289.394531 365.8125 288.613281 C 366.320312 287.832031 366.816406 287.441406 367.296875 287.441406 Z M 375.9375 289.394531 C 375.3125 289.394531 374.84375 289.570312 374.53125 289.925781 C 374.21875 290.289062 373.925781 290.839844 373.65625 291.582031 L 377.859375 291.582031 C 377.710938 290.121094 377.070312 289.394531 375.9375 289.394531 Z M 366.65625 292.457031 C 366.875 293.789062 367.640625 294.457031 368.953125 294.457031 C 369.648438 294.457031 370.191406 294.285156 370.578125 293.941406 C 370.960938 293.597656 371.289062 293.101562 371.5625 292.457031 Z M 379.859375 301.5625 C 380.003906 301.5625 380.125 301.632812 380.21875 301.78125 C 380.3125 301.925781 380.359375 302.09375 380.359375 302.28125 C 380.359375 302.46875 380.3125 302.632812 380.21875 302.78125 C 380.125 302.9375 380.003906 303.015625 379.859375 303.015625 L 376.953125 302.8125 C 376.804688 302.8125 376.679688 302.765625 376.578125 302.671875 C 376.484375 302.585938 376.4375 302.457031 376.4375 302.28125 C 376.4375 301.9375 376.609375 301.765625 376.953125 301.765625 Z M 379.859375 304.28125 C 380.003906 304.28125 380.125 304.351562 380.21875 304.5 C 380.3125 304.644531 380.359375 304.8125 380.359375 305 C 380.359375 305.1875 380.3125 305.351562 380.21875 305.5 C 380.125 305.65625 380.003906 305.734375 379.859375 305.734375 L 376.953125 305.546875 C 376.804688 305.546875 376.679688 305.5 376.578125 305.40625 C 376.484375 305.3125 376.4375 305.175781 376.4375 305 C 376.4375 304.65625 376.609375 304.484375 376.953125 304.484375 Z M 363.125 306.878906 C 364.09375 306.878906 364.820312 307.417969 365.296875 308.503906 C 365.554688 307.824219 366.003906 307.488281 366.640625 307.488281 C 367.253906 307.488281 367.75 307.820312 368.125 308.488281 C 368.738281 307.726562 369.578125 307.347656 370.640625 307.347656 L 371.296875 307.347656 C 372.273438 307.347656 373.066406 307.667969 373.671875 308.316406 C 374.285156 308.972656 374.59375 309.832031 374.59375 310.894531 C 374.59375 311.800781 374.332031 312.582031 373.8125 313.238281 C 374.6875 313.644531 375.125 314.097656 375.125 314.597656 C 375.125 314.816406 375.054688 314.988281 374.921875 315.113281 C 374.796875 315.246094 374.65625 315.316406 374.5 315.316406 C 374.300781 315.316406 374.148438 315.207031 374.046875 314.988281 C 373.921875 314.527344 373.640625 314.164062 373.203125 313.894531 C 372.703125 314.308594 372.066406 314.519531 371.296875 314.519531 L 370.640625 314.519531 C 369.679688 314.519531 368.882812 314.179688 368.25 313.503906 C 367.625 312.824219 367.3125 311.957031 367.3125 310.894531 C 367.3125 310.351562 367.414062 309.863281 367.625 309.425781 C 367.414062 309.089844 367.1875 308.925781 366.9375 308.925781 C 366.6875 308.925781 366.488281 309.074219 366.34375 309.378906 C 366.207031 309.691406 366.125 310.070312 366.09375 310.519531 C 366.0625 310.976562 366 311.472656 365.90625 312.003906 C 365.8125 312.535156 365.6875 313.023438 365.53125 313.472656 C 365.382812 313.929688 365.128906 314.308594 364.765625 314.613281 C 364.390625 314.925781 363.917969 315.082031 363.34375 315.082031 C 362.398438 315.082031 361.671875 314.699219 361.171875 313.941406 C 360.671875 313.191406 360.421875 312.214844 360.421875 311.019531 C 360.421875 309.820312 360.667969 308.832031 361.15625 308.050781 C 361.636719 307.269531 362.292969 306.878906 363.125 306.878906 Z M 363.296875 308.457031 C 362.777344 308.457031 362.359375 308.683594 362.046875 309.144531 C 361.734375 309.613281 361.578125 310.230469 361.578125 311.003906 C 361.578125 311.753906 361.734375 312.347656 362.046875 312.785156 C 362.359375 313.230469 362.777344 313.457031 363.296875 313.457031 C 363.515625 313.457031 363.703125 313.417969 363.859375 313.347656 C 364.015625 313.273438 364.152344 313.152344 364.265625 312.988281 C 364.371094 312.832031 364.460938 312.675781 364.53125 312.519531 C 364.605469 312.363281 364.667969 312.152344 364.71875 311.894531 C 364.761719 311.644531 364.792969 311.433594 364.8125 311.269531 C 364.835938 311.101562 364.859375 310.882812 364.890625 310.613281 C 364.914062 310.339844 364.929688 310.148438 364.9375 310.035156 C 364.59375 308.980469 364.046875 308.457031 363.296875 308.457031 Z M 370.65625 308.957031 C 370.019531 308.957031 369.492188 309.132812 369.078125 309.488281 C 368.660156 309.839844 368.453125 310.324219 368.453125 310.941406 C 368.453125 311.523438 368.65625 311.992188 369.0625 312.347656 C 369.476562 312.710938 370.003906 312.894531 370.640625 312.894531 L 371.296875 312.894531 C 371.910156 312.894531 372.421875 312.710938 372.828125 312.347656 C 373.242188 311.992188 373.453125 311.519531 373.453125 310.925781 C 373.453125 310.308594 373.25 309.824219 372.84375 309.472656 C 372.4375 309.128906 371.921875 308.957031 371.296875 308.957031 Z M 365.59375 316.765625 L 373.90625 316.765625 C 374.070312 316.765625 374.207031 316.835938 374.3125 316.984375 C 374.425781 317.140625 374.484375 317.335938 374.484375 317.578125 C 374.484375 317.785156 374.425781 317.960938 374.3125 318.109375 C 374.207031 318.265625 374.070312 318.34375 373.90625 318.34375 L 372.953125 318.34375 C 373.410156 318.582031 373.796875 318.929688 374.109375 319.390625 C 374.429688 319.859375 374.59375 320.378906 374.59375 320.953125 L 374.59375 321.640625 C 374.59375 321.804688 374.515625 321.953125 374.359375 322.078125 C 374.210938 322.210938 374.039062 322.28125 373.84375 322.28125 C 373.644531 322.28125 373.46875 322.210938 373.3125 322.078125 C 373.164062 321.953125 373.09375 321.804688 373.09375 321.640625 L 373.09375 320.953125 C 373.09375 320.273438 372.816406 319.679688 372.265625 319.171875 C 371.722656 318.671875 371.019531 318.421875 370.15625 318.421875 L 365.59375 318.421875 C 365.445312 318.421875 365.3125 318.335938 365.1875 318.171875 C 365.0625 318.003906 365 317.804688 365 317.578125 C 365 317.347656 365.054688 317.15625 365.171875 317 C 365.296875 316.84375 365.4375 316.765625 365.59375 316.765625 Z M 368.71875 323.273438 L 370.8125 323.273438 C 371.84375 323.273438 372.726562 323.664062 373.46875 324.445312 C 374.21875 325.226562 374.59375 326.164062 374.59375 327.257812 C 374.59375 328.296875 374.242188 329.199219 373.546875 329.960938 C 372.847656 330.71875 371.972656 331.101562 370.921875 331.101562 C 370.535156 331.101562 370.222656 331.054688 369.984375 330.960938 C 369.753906 330.867188 369.585938 330.71875 369.484375 330.523438 C 369.390625 330.335938 369.328125 330.15625 369.296875 329.992188 C 369.273438 329.824219 369.265625 329.601562 369.265625 329.320312 L 369.265625 324.945312 L 368.65625 324.945312 C 367.925781 324.945312 367.335938 325.203125 366.890625 325.726562 C 366.453125 326.257812 366.234375 326.9375 366.234375 327.773438 C 366.234375 328.21875 366.300781 328.605469 366.4375 328.929688 C 366.570312 329.25 366.703125 329.511719 366.828125 329.710938 C 366.953125 329.917969 367.015625 330.078125 367.015625 330.195312 C 367.015625 330.382812 366.929688 330.542969 366.765625 330.679688 C 366.597656 330.8125 366.429688 330.882812 366.265625 330.882812 C 365.953125 330.882812 365.632812 330.574219 365.3125 329.960938 C 365 329.355469 364.84375 328.609375 364.84375 327.726562 C 364.84375 326.414062 365.195312 325.339844 365.90625 324.507812 C 366.625 323.683594 367.5625 323.273438 368.71875 323.273438 Z M 370.375 324.945312 L 370.375 328.648438 C 370.375 328.992188 370.414062 329.21875 370.5 329.335938 C 370.59375 329.460938 370.765625 329.523438 371.015625 329.523438 C 371.617188 329.523438 372.144531 329.296875 372.59375 328.851562 C 373.050781 328.414062 373.28125 327.875 373.28125 327.242188 C 373.28125 326.617188 373.066406 326.074219 372.640625 325.617188 C 372.222656 325.167969 371.707031 324.945312 371.09375 324.945312 Z M 373.796875 331.992188 C 374.015625 331.992188 374.203125 332.109375 374.359375 332.351562 C 374.515625 332.589844 374.59375 332.828125 374.59375 333.070312 C 374.59375 333.351562 374.484375 333.53125 374.265625 333.617188 L 367.296875 336.257812 L 374.265625 338.632812 C 374.484375 338.726562 374.59375 338.902344 374.59375 339.164062 C 374.59375 339.382812 374.515625 339.617188 374.359375 339.867188 C 374.203125 340.117188 374.007812 340.242188 373.78125 340.242188 C 373.71875 340.242188 373.648438 340.21875 373.578125 340.179688 L 365.4375 337.132812 L 364.4375 336.757812 C 364.25 336.695312 363.933594 336.558594 363.484375 336.351562 C 363.027344 336.152344 362.699219 335.984375 362.5 335.851562 C 362.304688 335.726562 362.042969 335.542969 361.71875 335.304688 C 361.386719 335.0625 361.148438 334.828125 361 334.601562 C 360.855469 334.371094 360.726562 334.101562 360.609375 333.789062 C 360.484375 333.476562 360.421875 333.148438 360.421875 332.804688 C 360.421875 332.28125 360.667969 332.023438 361.15625 332.023438 C 361.636719 332.023438 361.875 332.179688 361.875 332.492188 C 361.875 333.09375 362.214844 333.679688 362.890625 334.242188 C 363.570312 334.8125 364.433594 335.199219 365.484375 335.398438 L 373.578125 332.070312 C 373.660156 332.015625 373.734375 331.992188 373.796875 331.992188 Z M 365.59375 345.703125 L 379.625 345.703125 C 379.789062 345.703125 379.925781 345.773438 380.03125 345.921875 C 380.144531 346.078125 380.203125 346.273438 380.203125 346.515625 C 380.203125 346.753906 380.144531 346.953125 380.03125 347.109375 C 379.925781 347.273438 379.789062 347.359375 379.625 347.359375 L 373.078125 347.359375 C 373.503906 347.597656 373.863281 347.941406 374.15625 348.390625 C 374.445312 348.847656 374.59375 349.378906 374.59375 349.984375 C 374.59375 350.953125 374.21875 351.789062 373.46875 352.5 C 372.71875 353.207031 371.816406 353.5625 370.765625 353.5625 L 368.71875 353.5625 C 367.707031 353.5625 366.804688 353.207031 366.015625 352.5 C 365.234375 351.789062 364.84375 350.972656 364.84375 350.046875 C 364.84375 349.441406 364.996094 348.882812 365.296875 348.375 C 365.609375 347.875 365.976562 347.507812 366.40625 347.28125 L 365.59375 347.28125 C 365.4375 347.28125 365.296875 347.203125 365.171875 347.046875 C 365.054688 346.890625 365 346.710938 365 346.515625 C 365 346.296875 365.054688 346.101562 365.171875 345.9375 C 365.296875 345.78125 365.4375 345.703125 365.59375 345.703125 Z M 368.1875 347.359375 C 367.851562 347.359375 367.460938 347.59375 367.015625 348.0625 C 366.566406 348.53125 366.34375 349.054688 366.34375 349.640625 C 366.34375 350.242188 366.582031 350.769531 367.0625 351.21875 C 367.550781 351.675781 368.101562 351.90625 368.71875 351.90625 L 370.765625 351.90625 C 371.359375 351.90625 371.894531 351.675781 372.375 351.21875 C 372.851562 350.769531 373.09375 350.238281 373.09375 349.625 C 373.09375 349.019531 372.875 348.488281 372.4375 348.03125 C 372.007812 347.582031 371.453125 347.359375 370.765625 347.359375 Z M 365.59375 355.738281 L 379.625 355.738281 C 379.789062 355.738281 379.925781 355.808594 380.03125 355.957031 C 380.144531 356.113281 380.203125 356.308594 380.203125 356.550781 C 380.203125 356.800781 380.144531 357.003906 380.03125 357.160156 C 379.925781 357.316406 379.789062 357.394531 379.625 357.394531 L 365.59375 357.394531 C 365.445312 357.394531 365.3125 357.308594 365.1875 357.144531 C 365.0625 356.976562 365 356.777344 365 356.550781 C 365 356.332031 365.054688 356.136719 365.171875 355.972656 C 365.296875 355.816406 365.4375 355.738281 365.59375 355.738281 Z M 367.5 359.320312 C 368.539062 359.320312 369.265625 359.714844 369.671875 360.507812 C 370.078125 361.308594 370.28125 362.46875 370.28125 363.992188 L 370.28125 364.960938 L 370.703125 364.960938 C 371.367188 364.960938 371.945312 364.773438 372.4375 364.398438 C 372.9375 364.03125 373.1875 363.484375 373.1875 362.757812 C 373.1875 362.195312 373.085938 361.699219 372.890625 361.273438 C 372.691406 360.84375 372.59375 360.609375 372.59375 360.570312 C 372.59375 360.390625 372.679688 360.246094 372.859375 360.132812 C 373.046875 360.015625 373.238281 359.960938 373.4375 359.960938 C 373.75 359.960938 374.019531 360.261719 374.25 360.867188 C 374.476562 361.46875 374.59375 362.117188 374.59375 362.804688 C 374.59375 364.105469 374.222656 365.0625 373.484375 365.679688 C 372.742188 366.304688 371.820312 366.617188 370.71875 366.617188 L 365.59375 366.617188 C 365.425781 366.617188 365.285156 366.539062 365.171875 366.382812 C 365.054688 366.234375 365 366.042969 365 365.804688 C 365 365.585938 365.054688 365.402344 365.171875 365.257812 C 365.285156 365.109375 365.425781 365.039062 365.59375 365.039062 L 366.40625 365.039062 C 365.363281 364.132812 364.84375 363.125 364.84375 362.023438 C 364.84375 361.21875 365.066406 360.570312 365.515625 360.070312 C 365.972656 359.570312 366.632812 359.320312 367.5 359.320312 Z M 367.6875 360.992188 C 367.1875 360.992188 366.8125 361.132812 366.5625 361.414062 C 366.3125 361.695312 366.1875 362.070312 366.1875 362.539062 C 366.1875 363.101562 366.40625 363.640625 366.84375 364.164062 C 367.289062 364.695312 367.75 364.960938 368.21875 364.960938 L 369.265625 364.960938 L 369.265625 364.257812 C 369.265625 363.871094 369.253906 363.539062 369.234375 363.257812 C 369.210938 362.976562 369.171875 362.683594 369.109375 362.382812 C 369.046875 362.089844 368.957031 361.84375 368.84375 361.648438 C 368.738281 361.449219 368.585938 361.289062 368.390625 361.164062 C 368.191406 361.046875 367.957031 360.992188 367.6875 360.992188 Z M 368.71875 368.5625 L 370.71875 368.5625 C 371.863281 368.5625 372.796875 368.894531 373.515625 369.5625 C 374.234375 370.238281 374.59375 371.226562 374.59375 372.53125 C 374.59375 373.363281 374.445312 374.0625 374.15625 374.625 C 373.863281 375.195312 373.550781 375.484375 373.21875 375.484375 C 373.03125 375.484375 372.847656 375.410156 372.671875 375.265625 C 372.492188 375.128906 372.40625 374.96875 372.40625 374.78125 C 372.40625 374.726562 372.519531 374.5 372.75 374.09375 C 372.976562 373.6875 373.09375 373.207031 373.09375 372.65625 C 373.09375 371.851562 372.882812 371.242188 372.46875 370.828125 C 372.0625 370.421875 371.476562 370.21875 370.71875 370.21875 L 368.71875 370.21875 C 367.132812 370.21875 366.34375 371.035156 366.34375 372.671875 C 366.34375 373.234375 366.460938 373.722656 366.703125 374.140625 C 366.941406 374.554688 367.0625 374.796875 367.0625 374.859375 C 367.0625 375.066406 366.972656 375.238281 366.796875 375.375 C 366.628906 375.519531 366.453125 375.59375 366.265625 375.59375 C 365.929688 375.59375 365.609375 375.300781 365.296875 374.71875 C 364.996094 374.132812 364.84375 373.414062 364.84375 372.5625 C 364.84375 371.238281 365.195312 370.238281 365.90625 369.5625 C 366.625 368.894531 367.5625 368.5625 368.71875 368.5625 Z M 365.59375 377.261719 L 379.625 377.261719 C 379.789062 377.261719 379.925781 377.332031 380.03125 377.480469 C 380.144531 377.636719 380.203125 377.832031 380.203125 378.074219 C 380.203125 378.3125 380.144531 378.511719 380.03125 378.667969 C 379.925781 378.832031 379.789062 378.917969 379.625 378.917969 L 370.265625 378.917969 L 374.375 383.480469 C 374.46875 383.59375 374.515625 383.714844 374.515625 383.839844 C 374.515625 384.035156 374.4375 384.222656 374.28125 384.402344 C 374.125 384.589844 373.941406 384.683594 373.734375 384.683594 C 373.578125 384.683594 373.445312 384.621094 373.34375 384.496094 L 370.875 381.714844 L 366.0625 385.042969 C 365.957031 385.105469 365.859375 385.136719 365.765625 385.136719 C 365.554688 385.136719 365.363281 385.035156 365.1875 384.839844 C 365.007812 384.640625 364.921875 384.433594 364.921875 384.214844 C 364.921875 384.027344 365.007812 383.875 365.1875 383.761719 L 369.84375 380.574219 L 368.359375 378.917969 L 365.59375 378.917969 C 365.445312 378.917969 365.3125 378.832031 365.1875 378.667969 C 365.0625 378.5 365 378.300781 365 378.074219 C 365 377.855469 365.054688 377.660156 365.171875 377.496094 C 365.296875 377.339844 365.4375 377.261719 365.59375 377.261719 Z M 379.859375 386.101562 C 380.003906 386.101562 380.125 386.171875 380.21875 386.320312 C 380.3125 386.464844 380.359375 386.632812 380.359375 386.820312 C 380.359375 387.007812 380.3125 387.171875 380.21875 387.320312 C 380.125 387.476562 380.003906 387.554688 379.859375 387.554688 L 376.953125 387.351562 C 376.804688 387.351562 376.679688 387.304688 376.578125 387.210938 C 376.484375 387.125 376.4375 386.996094 376.4375 386.820312 C 376.4375 386.476562 376.609375 386.304688 376.953125 386.304688 Z M 379.859375 388.820312 C 380.003906 388.820312 380.125 388.890625 380.21875 389.039062 C 380.3125 389.183594 380.359375 389.351562 380.359375 389.539062 C 380.359375 389.726562 380.3125 389.890625 380.21875 390.039062 C 380.125 390.195312 380.003906 390.273438 379.859375 390.273438 L 376.953125 390.085938 C 376.804688 390.085938 376.679688 390.039062 376.578125 389.945312 C 376.484375 389.851562 376.4375 389.714844 376.4375 389.539062 C 376.4375 389.195312 376.609375 389.023438 376.953125 389.023438 Z M 365 390.980469 "/>
</g>
</svg>
