<?xml version="1.0" encoding="UTF-8"?>
<svg xmlns="http://www.w3.org/2000/svg" xmlns:xlink="http://www.w3.org/1999/xlink" width="384pt" height="288pt" viewBox="0 0 384 288" version="1.1">
<g id="surface121">
<path style=" stroke:none;fill-rule:nonzero;fill:rgb(0%,0%,0%);fill-opacity:1;" d="M 0 0 L 284 0 L 284 288 L 0 288 Z M 0 0 "/>
<path style=" stroke:none;fill-rule:nonzero;fill:rgb(50.196078%,50.196078%,50.196078%);fill-opacity:1;" d="M 0 0 L 35.5 0 L 35.5 288 L 0 288 Z M 0 0 "/>
<path style=" stroke:none;fill-rule:nonzero;fill:rgb(0%,0%,0%);fill-opacity:1;" d="M 35.5 0 L 71 0 L 71 288 L 35.5 288 Z M 35.5 0 "/>
<path style=" stroke:none;fill-rule:nonzero;fill:rgb(50.196078%,50.196078%,50.196078%);fill-opacity:1;" d="M 71 0 L 106.5 0 L 106.5 288 L 71 288 Z M 71 0 "/>
<path style=" stroke:none;fill-rule:nonzero;fill:rgb(0%,0%,0%);fill-opacity:1;" d="M 106.5 0 L 142 0 L 142 288 L 106.5 288 Z M 106.5 0 "/>
<path style=" stroke:none;fill-rule:nonzero;fill:rgb(50.196078%,50.196078%,50.196078%);fill-opacity:1;" d="M 142 0 L 177.5 0 L 177.5 288 L 142 288 Z M 142 0 "/>
<path style=" stroke:none;fill-rule:nonzero;fill:rgb(0%,0%,0%);fill-opacity:1;" d="M 177.5 0 L 213 0 L 213 288 L 177.5 288 Z M 177.5 0 "/>
<path style=" stroke:none;fill-rule:nonzero;fill:rgb(50.196078%,50.196078%,50.196078%);fill-opacity:1;" d="M 213 0 L 248.5 0 L 248.5 288 L 213 288 Z M 213 0 "/>
<path style=" stroke:none;fill-rule:nonzero;fill:rgb(0%,0%,0%);fill-opacity:1;" d="M 248.5 0 L 284 0 L 284 288 L 248.5 288 Z M 248.5 0 "/>
<path style=" stroke:none;fill-rule:nonzero;fill:rgb(0%,0%,0%);fill-opacity:1;" d="M 50.6875 50.421875 L 56.171875 46.890625 C 56.703125 46.558594 57.265625 46.449219 57.859375 46.5625 C 58.453125 46.679688 58.898438 46.976562 59.203125 47.453125 L 59.4375 47.8125 C 59.5 47.917969 59.515625 48.027344 59.484375 48.140625 C 59.453125 48.257812 59.382812 48.34375 59.28125 48.40625 C 59.1875 48.46875 59.082031 48.496094 58.96875 48.484375 C 58.851562 48.464844 58.765625 48.402344 58.703125 48.296875 L 58.5625 48.078125 C 58.363281 47.765625 58.09375 47.578125 57.75 47.515625 C 57.414062 47.445312 57.085938 47.507812 56.765625 47.703125 L 55.703125 48.375 L 56.59375 49.75 C 56.644531 49.824219 56.65625 49.90625 56.625 50 C 56.59375 50.09375 56.53125 50.164062 56.4375 50.21875 C 56.351562 50.28125 56.257812 50.304688 56.15625 50.296875 C 56.0625 50.285156 55.988281 50.242188 55.9375 50.171875 L 55.046875 48.796875 L 51.21875 51.265625 C 51.132812 51.316406 51.035156 51.316406 50.921875 51.265625 C 50.816406 51.222656 50.726562 51.140625 50.65625 51.015625 C 50.582031 50.898438 50.546875 50.785156 50.546875 50.671875 C 50.546875 50.566406 50.59375 50.484375 50.6875 50.421875 Z M 54.183594 52.382812 L 55.214844 51.726562 C 55.734375 51.394531 56.3125 51.300781 56.949219 51.445312 C 57.582031 51.59375 58.074219 51.9375 58.417969 52.476562 C 58.769531 53.007812 58.878906 53.59375 58.746094 54.242188 C 58.621094 54.886719 58.296875 55.382812 57.777344 55.726562 L 56.746094 56.382812 C 56.234375 56.714844 55.652344 56.804688 54.996094 56.648438 C 54.339844 56.492188 53.839844 56.148438 53.496094 55.617188 C 53.160156 55.09375 53.0625 54.507812 53.199219 53.851562 C 53.34375 53.203125 53.671875 52.71875 54.183594 52.382812 Z M 54.714844 53.226562 C 54.402344 53.421875 54.191406 53.714844 54.089844 54.101562 C 53.996094 54.484375 54.050781 54.835938 54.261719 55.148438 C 54.457031 55.460938 54.753906 55.652344 55.152344 55.726562 C 55.546875 55.796875 55.894531 55.734375 56.199219 55.539062 L 57.230469 54.882812 C 57.53125 54.683594 57.730469 54.390625 57.824219 54.007812 C 57.925781 53.621094 57.875 53.273438 57.667969 52.960938 C 57.46875 52.648438 57.171875 52.457031 56.777344 52.382812 C 56.390625 52.3125 56.046875 52.375 55.746094 52.570312 Z M 55.871094 58.496094 L 62.949219 53.949219 C 63.03125 53.886719 63.125 53.878906 63.230469 53.917969 C 63.34375 53.960938 63.4375 54.042969 63.511719 54.167969 C 63.59375 54.285156 63.628906 54.402344 63.621094 54.527344 C 63.621094 54.644531 63.578125 54.730469 63.496094 54.792969 L 56.417969 59.339844 C 56.355469 59.378906 56.261719 59.378906 56.136719 59.339844 C 56.011719 59.296875 55.910156 59.21875 55.839844 59.105469 C 55.765625 58.988281 55.734375 58.871094 55.746094 58.746094 C 55.753906 58.621094 55.796875 58.535156 55.871094 58.496094 Z M 58.695312 59.410156 L 59.726562 58.753906 C 60.257812 58.410156 60.824219 58.296875 61.429688 58.410156 C 62.042969 58.527344 62.507812 58.828125 62.820312 59.316406 C 63.015625 59.628906 63.117188 59.941406 63.117188 60.253906 C 63.117188 60.574219 63.046875 60.871094 62.914062 61.144531 L 66.210938 59.019531 C 66.292969 58.957031 66.386719 58.949219 66.492188 58.988281 C 66.605469 59.03125 66.699219 59.113281 66.773438 59.238281 C 66.855469 59.363281 66.890625 59.484375 66.882812 59.597656 C 66.871094 59.703125 66.824219 59.785156 66.742188 59.847656 L 59.664062 64.394531 C 59.589844 64.433594 59.496094 64.433594 59.382812 64.394531 C 59.265625 64.363281 59.171875 64.289062 59.101562 64.175781 C 59.039062 64.070312 59.011719 63.960938 59.023438 63.847656 C 59.042969 63.730469 59.089844 63.652344 59.164062 63.613281 L 59.570312 63.347656 C 59.265625 63.367188 58.960938 63.292969 58.648438 63.128906 C 58.335938 62.972656 58.078125 62.746094 57.882812 62.457031 C 57.578125 61.976562 57.511719 61.429688 57.679688 60.816406 C 57.84375 60.210938 58.183594 59.746094 58.695312 59.410156 Z M 59.226562 60.253906 C 58.921875 60.449219 58.71875 60.742188 58.617188 61.128906 C 58.511719 61.511719 58.558594 61.855469 58.757812 62.160156 C 58.953125 62.460938 59.242188 62.652344 59.617188 62.738281 C 60 62.832031 60.277344 62.824219 60.445312 62.722656 L 61.742188 61.894531 C 62.09375 61.664062 62.304688 61.363281 62.367188 60.988281 C 62.4375 60.621094 62.382812 60.289062 62.195312 59.988281 C 61.984375 59.675781 61.683594 59.484375 61.289062 59.410156 C 60.902344 59.339844 60.558594 59.402344 60.257812 59.597656 Z M 60.523438 65.726562 L 67.304688 61.367188 C 67.398438 61.304688 67.492188 61.300781 67.585938 61.351562 C 67.6875 61.394531 67.773438 61.46875 67.835938 61.570312 L 70.148438 65.148438 C 70.210938 65.25 70.21875 65.351562 70.179688 65.445312 C 70.148438 65.539062 70.074219 65.617188 69.960938 65.679688 C 69.855469 65.75 69.746094 65.78125 69.632812 65.773438 C 69.515625 65.773438 69.433594 65.726562 69.382812 65.632812 L 67.367188 62.507812 L 64.804688 64.164062 L 65.820312 65.742188 C 65.882812 65.835938 65.890625 65.929688 65.851562 66.023438 C 65.820312 66.117188 65.75 66.199219 65.648438 66.273438 C 65.554688 66.324219 65.453125 66.34375 65.351562 66.335938 C 65.257812 66.335938 65.179688 66.289062 65.117188 66.195312 L 64.101562 64.617188 L 61.523438 66.273438 L 63.539062 69.398438 C 63.589844 69.492188 63.59375 69.585938 63.554688 69.679688 C 63.511719 69.78125 63.4375 69.871094 63.335938 69.945312 C 63.230469 70.007812 63.125 70.039062 63.023438 70.039062 C 62.917969 70.039062 62.835938 69.984375 62.773438 69.882812 L 60.460938 66.304688 C 60.398438 66.199219 60.367188 66.089844 60.367188 65.976562 C 60.375 65.871094 60.429688 65.789062 60.523438 65.726562 Z M 67.605469 67.652344 C 67.707031 67.589844 67.832031 67.597656 67.980469 67.667969 C 68.125 67.730469 68.238281 67.824219 68.324219 67.949219 C 68.417969 68.097656 68.417969 68.226562 68.324219 68.339844 L 65.714844 71.808594 L 69.933594 70.902344 C 70.097656 70.859375 70.222656 70.90625 70.308594 71.042969 C 70.371094 71.144531 70.40625 71.28125 70.417969 71.449219 C 70.425781 71.625 70.378906 71.746094 70.277344 71.808594 C 70.222656 71.847656 70.167969 71.875 70.105469 71.886719 L 64.839844 72.917969 C 64.683594 72.949219 64.542969 72.859375 64.417969 72.652344 C 64.28125 72.441406 64.261719 72.269531 64.355469 72.136719 L 67.464844 67.792969 C 67.535156 67.722656 67.582031 67.675781 67.605469 67.652344 Z M 68.066406 74.003906 L 69.128906 73.332031 C 69.648438 72.988281 70.222656 72.894531 70.847656 73.050781 C 71.472656 73.207031 71.960938 73.5625 72.316406 74.113281 C 72.660156 74.636719 72.773438 75.195312 72.660156 75.800781 C 72.554688 76.414062 72.238281 76.894531 71.707031 77.238281 C 71.507812 77.363281 71.335938 77.441406 71.191406 77.472656 C 71.042969 77.503906 70.917969 77.488281 70.816406 77.425781 C 70.710938 77.363281 70.621094 77.289062 70.550781 77.207031 C 70.476562 77.132812 70.394531 77.019531 70.300781 76.863281 L 68.878906 74.660156 L 68.582031 74.863281 C 68.195312 75.101562 67.976562 75.425781 67.925781 75.832031 C 67.882812 76.238281 67.996094 76.652344 68.269531 77.082031 C 68.414062 77.308594 68.570312 77.480469 68.738281 77.597656 C 68.914062 77.722656 69.070312 77.808594 69.207031 77.863281 C 69.339844 77.925781 69.425781 77.988281 69.457031 78.050781 C 69.519531 78.144531 69.527344 78.253906 69.488281 78.378906 C 69.445312 78.503906 69.378906 78.589844 69.285156 78.644531 C 69.136719 78.738281 68.882812 78.679688 68.519531 78.472656 C 68.164062 78.273438 67.839844 77.949219 67.550781 77.503906 C 67.132812 76.847656 66.964844 76.191406 67.050781 75.535156 C 67.144531 74.886719 67.480469 74.378906 68.066406 74.003906 Z M 69.441406 74.300781 L 70.644531 76.160156 C 70.757812 76.335938 70.855469 76.441406 70.941406 76.472656 C 71.023438 76.511719 71.121094 76.492188 71.238281 76.410156 C 71.550781 76.210938 71.746094 75.925781 71.832031 75.550781 C 71.925781 75.183594 71.867188 74.847656 71.660156 74.535156 C 71.449219 74.214844 71.164062 74.003906 70.800781 73.910156 C 70.445312 73.816406 70.113281 73.875 69.800781 74.082031 Z M 69.609375 79.902344 L 73.8125 77.199219 C 73.894531 77.148438 73.988281 77.144531 74.09375 77.183594 C 74.195312 77.226562 74.289062 77.308594 74.375 77.433594 C 74.4375 77.539062 74.460938 77.648438 74.453125 77.761719 C 74.453125 77.867188 74.410156 77.945312 74.328125 77.996094 L 73.84375 78.308594 C 74.15625 78.289062 74.46875 78.347656 74.78125 78.480469 C 75.09375 78.605469 75.34375 78.816406 75.53125 79.105469 L 75.75 79.449219 C 75.800781 79.53125 75.804688 79.625 75.765625 79.730469 C 75.734375 79.84375 75.664062 79.933594 75.5625 79.996094 C 75.46875 80.066406 75.363281 80.09375 75.25 80.074219 C 75.132812 80.0625 75.050781 80.015625 75 79.933594 L 74.78125 79.589844 C 74.550781 79.246094 74.21875 79.039062 73.78125 78.964844 C 73.34375 78.882812 72.90625 78.980469 72.46875 79.261719 L 70.15625 80.746094 C 70.09375 80.785156 70 80.785156 69.875 80.746094 C 69.757812 80.703125 69.664062 80.625 69.59375 80.511719 C 69.519531 80.394531 69.484375 80.277344 69.484375 80.152344 C 69.492188 80.027344 69.535156 79.941406 69.609375 79.902344 Z M 75.683594 80.234375 C 75.796875 80.171875 75.933594 80.179688 76.089844 80.25 C 76.246094 80.3125 76.363281 80.40625 76.449219 80.53125 C 76.53125 80.667969 76.53125 80.792969 76.449219 80.90625 L 73.777344 84.5 L 78.089844 83.4375 C 78.222656 83.414062 78.328125 83.46875 78.402344 83.59375 C 78.472656 83.707031 78.511719 83.851562 78.511719 84.03125 C 78.519531 84.207031 78.46875 84.332031 78.355469 84.40625 C 78.3125 84.425781 78.269531 84.4375 78.230469 84.4375 L 73.136719 85.546875 L 72.496094 85.6875 C 72.390625 85.695312 72.1875 85.722656 71.886719 85.765625 C 71.59375 85.816406 71.375 85.84375 71.230469 85.84375 C 71.085938 85.84375 70.894531 85.832031 70.652344 85.8125 C 70.414062 85.800781 70.222656 85.765625 70.074219 85.703125 C 69.929688 85.640625 69.773438 85.546875 69.605469 85.421875 C 69.441406 85.296875 69.304688 85.148438 69.199219 84.984375 C 69.023438 84.710938 69.058594 84.492188 69.308594 84.328125 C 69.550781 84.179688 69.722656 84.191406 69.824219 84.359375 C 70.023438 84.660156 70.386719 84.84375 70.917969 84.90625 C 71.4375 84.976562 71.996094 84.894531 72.589844 84.65625 L 75.589844 80.34375 C 75.621094 80.304688 75.652344 80.265625 75.683594 80.234375 Z M 75.800781 90.011719 L 83.191406 85.261719 C 83.273438 85.210938 83.367188 85.207031 83.472656 85.246094 C 83.574219 85.289062 83.660156 85.355469 83.722656 85.449219 L 84.785156 87.105469 C 84.835938 87.199219 84.839844 87.300781 84.800781 87.402344 C 84.769531 87.496094 84.699219 87.582031 84.597656 87.652344 C 84.492188 87.714844 84.382812 87.746094 84.269531 87.746094 C 84.164062 87.746094 84.085938 87.699219 84.035156 87.605469 L 83.269531 86.417969 L 76.800781 90.558594 L 77.566406 91.746094 C 77.617188 91.839844 77.628906 91.933594 77.597656 92.027344 C 77.566406 92.121094 77.492188 92.207031 77.378906 92.292969 C 77.285156 92.34375 77.179688 92.371094 77.066406 92.371094 C 76.960938 92.371094 76.882812 92.324219 76.832031 92.230469 L 75.769531 90.574219 C 75.707031 90.480469 75.675781 90.375 75.675781 90.261719 C 75.675781 90.144531 75.714844 90.0625 75.800781 90.011719 Z M 79.164062 91.773438 C 79.320312 91.671875 79.4375 91.632812 79.523438 91.664062 C 79.617188 91.6875 79.710938 91.769531 79.804688 91.914062 C 79.90625 92.070312 79.953125 92.203125 79.945312 92.304688 C 79.933594 92.398438 79.871094 92.484375 79.757812 92.554688 C 79.496094 92.71875 79.328125 92.980469 79.257812 93.335938 C 79.195312 93.6875 79.304688 94.089844 79.585938 94.539062 C 80.167969 95.433594 80.929688 95.585938 81.867188 94.992188 L 82.039062 94.867188 C 82.871094 94.335938 82.996094 93.621094 82.414062 92.726562 C 82.289062 92.519531 82.339844 92.34375 82.570312 92.195312 C 82.808594 92.039062 82.992188 92.066406 83.117188 92.273438 C 83.367188 92.65625 83.640625 92.890625 83.945312 92.976562 C 84.257812 93.058594 84.636719 92.953125 85.085938 92.664062 C 85.875 92.164062 86.027344 91.535156 85.539062 90.773438 C 85.257812 90.335938 84.960938 90.09375 84.648438 90.039062 C 84.34375 89.988281 84.0625 90.050781 83.804688 90.226562 C 83.554688 90.382812 83.34375 90.328125 83.179688 90.054688 C 83.054688 89.867188 83 89.726562 83.023438 89.632812 C 83.042969 89.539062 83.136719 89.441406 83.304688 89.335938 C 83.480469 89.222656 83.679688 89.144531 83.898438 89.101562 C 84.125 89.050781 84.371094 89.035156 84.632812 89.054688 C 84.902344 89.078125 85.183594 89.195312 85.476562 89.414062 C 85.777344 89.625 86.054688 89.921875 86.304688 90.304688 C 87.125 91.597656 86.945312 92.621094 85.757812 93.382812 C 85.328125 93.652344 84.921875 93.808594 84.539062 93.851562 C 84.152344 93.890625 83.820312 93.828125 83.539062 93.664062 C 83.703125 94.515625 83.386719 95.199219 82.585938 95.710938 L 82.414062 95.835938 C 81.664062 96.304688 80.980469 96.449219 80.367188 96.273438 C 79.761719 96.105469 79.246094 95.695312 78.820312 95.039062 C 78.371094 94.339844 78.203125 93.6875 78.320312 93.085938 C 78.445312 92.492188 78.726562 92.054688 79.164062 91.773438 Z M 81.246094 97.667969 C 81.402344 97.574219 81.5625 97.542969 81.730469 97.574219 C 81.894531 97.59375 82.027344 97.675781 82.121094 97.824219 C 82.214844 97.96875 82.246094 98.125 82.214844 98.292969 C 82.183594 98.457031 82.082031 98.59375 81.917969 98.699219 C 81.8125 98.769531 81.3125 98.886719 80.417969 99.042969 C 80.304688 99.0625 80.214844 99.019531 80.152344 98.917969 C 80.101562 98.832031 80.082031 98.746094 80.089844 98.652344 C 80.089844 98.566406 80.128906 98.503906 80.199219 98.464844 C 80.242188 98.433594 80.285156 98.410156 80.324219 98.402344 L 80.964844 98.292969 C 80.921875 98.03125 81.015625 97.824219 81.246094 97.667969 Z M 83.542969 98.539062 C 83.8125 98.363281 84.035156 98.421875 84.214844 98.710938 C 84.402344 98.992188 84.378906 99.207031 84.152344 99.351562 C 83.828125 99.558594 83.652344 99.84375 83.621094 100.210938 C 83.597656 100.585938 83.707031 100.960938 83.949219 101.335938 C 84.230469 101.761719 84.5625 102.015625 84.949219 102.101562 C 85.34375 102.183594 85.769531 102.074219 86.230469 101.773438 L 86.433594 101.648438 C 86.890625 101.355469 87.15625 101.015625 87.230469 100.632812 C 87.3125 100.246094 87.21875 99.84375 86.949219 99.429688 L 86.027344 97.992188 C 85.859375 97.734375 85.886719 97.535156 86.105469 97.398438 C 86.175781 97.347656 86.261719 97.300781 86.355469 97.257812 L 89.324219 95.664062 C 89.519531 95.550781 89.667969 95.5625 89.761719 95.695312 L 91.621094 98.601562 C 91.683594 98.695312 91.691406 98.789062 91.652344 98.882812 C 91.609375 98.976562 91.535156 99.0625 91.433594 99.132812 C 91.328125 99.195312 91.21875 99.226562 91.105469 99.226562 C 91 99.226562 90.917969 99.179688 90.855469 99.085938 L 89.324219 96.695312 L 87.011719 97.960938 L 87.667969 98.976562 C 88.082031 99.632812 88.25 100.265625 88.167969 100.882812 C 88.082031 101.496094 87.683594 102.03125 86.964844 102.492188 L 86.761719 102.617188 C 86.019531 103.09375 85.34375 103.25 84.730469 103.085938 C 84.125 102.917969 83.613281 102.507812 83.199219 101.851562 C 82.761719 101.171875 82.582031 100.527344 82.667969 99.914062 C 82.761719 99.3125 83.050781 98.851562 83.542969 98.539062 Z M 85.125 104.359375 C 85.238281 104.273438 85.34375 104.242188 85.4375 104.25 C 85.539062 104.261719 85.617188 104.304688 85.671875 104.390625 L 86.453125 105.59375 L 92.921875 101.453125 L 92.140625 100.25 C 92.085938 100.167969 92.082031 100.074219 92.125 99.96875 C 92.164062 99.867188 92.238281 99.78125 92.34375 99.71875 C 92.445312 99.648438 92.550781 99.617188 92.65625 99.625 C 92.757812 99.625 92.835938 99.667969 92.890625 99.75 L 93.96875 101.40625 C 94.03125 101.511719 94.054688 101.621094 94.046875 101.734375 C 94.046875 101.851562 94.003906 101.933594 93.921875 101.984375 L 86.53125 106.734375 C 86.445312 106.785156 86.351562 106.789062 86.25 106.75 C 86.15625 106.707031 86.078125 106.632812 86.015625 106.53125 L 84.9375 104.875 C 84.882812 104.789062 84.878906 104.695312 84.921875 104.59375 C 84.960938 104.488281 85.03125 104.410156 85.125 104.359375 Z M 90.113281 109.035156 L 94.394531 106.285156 C 94.925781 105.941406 95.496094 105.847656 96.113281 106.003906 C 96.738281 106.152344 97.214844 106.484375 97.550781 107.003906 C 97.726562 107.277344 97.691406 107.496094 97.441406 107.660156 C 97.324219 107.734375 97.214844 107.769531 97.113281 107.769531 C 97.019531 107.761719 96.941406 107.714844 96.878906 107.628906 C 96.636719 107.265625 96.324219 107.042969 95.941406 106.957031 C 95.566406 106.875 95.226562 106.933594 94.925781 107.128906 L 90.644531 109.878906 C 90.277344 110.105469 90.097656 110.394531 90.097656 110.738281 C 90.105469 111.082031 90.214844 111.417969 90.425781 111.753906 C 90.550781 111.941406 90.488281 112.117188 90.238281 112.285156 C 89.988281 112.441406 89.769531 112.378906 89.582031 112.097656 C 89.238281 111.554688 89.097656 110.996094 89.160156 110.425781 C 89.230469 109.851562 89.550781 109.390625 90.113281 109.035156 Z M 91.0625 112.445312 C 91.144531 112.394531 91.242188 112.367188 91.359375 112.367188 C 91.484375 112.367188 91.570312 112.410156 91.625 112.492188 C 91.664062 112.546875 91.675781 112.640625 91.65625 112.789062 C 91.644531 112.945312 91.660156 113.140625 91.703125 113.382812 C 91.753906 113.632812 91.859375 113.886719 92.015625 114.148438 C 92.234375 114.480469 92.453125 114.683594 92.671875 114.757812 C 92.890625 114.828125 93.09375 114.804688 93.28125 114.679688 C 93.5 114.542969 93.617188 114.34375 93.640625 114.085938 C 93.660156 113.824219 93.625 113.554688 93.53125 113.273438 C 93.445312 112.992188 93.367188 112.703125 93.296875 112.414062 C 93.222656 112.125 93.222656 111.832031 93.296875 111.539062 C 93.378906 111.25 93.578125 111.003906 93.890625 110.804688 C 94.273438 110.554688 94.691406 110.476562 95.140625 110.570312 C 95.597656 110.664062 96.003906 110.992188 96.359375 111.554688 C 96.597656 111.910156 96.753906 112.269531 96.828125 112.632812 C 96.910156 113.007812 96.878906 113.234375 96.734375 113.320312 C 96.660156 113.371094 96.550781 113.398438 96.40625 113.398438 C 96.257812 113.40625 96.15625 113.367188 96.09375 113.273438 C 96.082031 113.242188 96.050781 113.078125 96 112.789062 C 95.945312 112.5 95.847656 112.238281 95.703125 112.007812 C 95.503906 111.695312 95.28125 111.515625 95.03125 111.460938 C 94.789062 111.398438 94.578125 111.425781 94.390625 111.539062 C 94.210938 111.65625 94.125 111.832031 94.125 112.070312 C 94.125 112.3125 94.171875 112.570312 94.265625 112.851562 C 94.367188 113.140625 94.453125 113.433594 94.515625 113.726562 C 94.585938 114.027344 94.570312 114.328125 94.46875 114.632812 C 94.363281 114.933594 94.144531 115.195312 93.8125 115.414062 C 93.382812 115.683594 92.953125 115.746094 92.515625 115.601562 C 92.085938 115.464844 91.707031 115.125 91.375 114.585938 C 91.070312 114.136719 90.894531 113.695312 90.84375 113.257812 C 90.800781 112.828125 90.875 112.5625 91.0625 112.445312 Z M 93.460938 117.042969 L 100.539062 112.496094 C 100.621094 112.433594 100.714844 112.425781 100.820312 112.464844 C 100.933594 112.507812 101.027344 112.589844 101.101562 112.714844 C 101.183594 112.832031 101.21875 112.949219 101.210938 113.074219 C 101.210938 113.191406 101.167969 113.277344 101.085938 113.339844 L 94.007812 117.886719 C 93.945312 117.925781 93.851562 117.925781 93.726562 117.886719 C 93.601562 117.84375 93.5 117.765625 93.429688 117.652344 C 93.355469 117.535156 93.324219 117.417969 93.335938 117.292969 C 93.34375 117.167969 93.386719 117.082031 93.460938 117.042969 Z M 96.289062 117.957031 L 97.320312 117.300781 C 97.839844 116.96875 98.417969 116.875 99.054688 117.019531 C 99.6875 117.167969 100.179688 117.511719 100.523438 118.050781 C 100.875 118.582031 100.984375 119.167969 100.851562 119.816406 C 100.726562 120.460938 100.402344 120.957031 99.882812 121.300781 L 98.851562 121.957031 C 98.339844 122.289062 97.757812 122.378906 97.101562 122.222656 C 96.445312 122.066406 95.945312 121.722656 95.601562 121.191406 C 95.265625 120.667969 95.167969 120.082031 95.304688 119.425781 C 95.449219 118.777344 95.777344 118.292969 96.289062 117.957031 Z M 96.820312 118.800781 C 96.507812 118.996094 96.296875 119.289062 96.195312 119.675781 C 96.101562 120.058594 96.15625 120.410156 96.367188 120.722656 C 96.5625 121.035156 96.859375 121.226562 97.257812 121.300781 C 97.652344 121.371094 98 121.308594 98.304688 121.113281 L 99.335938 120.457031 C 99.636719 120.257812 99.835938 119.964844 99.929688 119.582031 C 100.03125 119.195312 99.980469 118.847656 99.773438 118.535156 C 99.574219 118.222656 99.277344 118.03125 98.882812 117.957031 C 98.496094 117.886719 98.152344 117.949219 97.851562 118.144531 Z M 101.769531 120.851562 C 101.871094 120.789062 101.992188 120.789062 102.128906 120.851562 C 102.273438 120.914062 102.386719 121.007812 102.472656 121.132812 C 102.566406 121.28125 102.566406 121.410156 102.472656 121.523438 L 99.878906 124.929688 L 103.550781 123.914062 C 103.707031 123.871094 103.835938 123.933594 103.941406 124.101562 C 104.054688 124.265625 104.054688 124.414062 103.941406 124.539062 L 101.457031 127.460938 L 105.675781 126.492188 C 105.800781 126.4375 105.910156 126.484375 106.003906 126.632812 C 106.074219 126.757812 106.113281 126.898438 106.113281 127.054688 C 106.113281 127.210938 106.058594 127.320312 105.957031 127.382812 C 105.902344 127.421875 105.847656 127.449219 105.785156 127.460938 L 100.597656 128.585938 C 100.429688 128.617188 100.292969 128.542969 100.191406 128.367188 C 100.066406 128.179688 100.050781 128.023438 100.144531 127.898438 L 102.488281 125.023438 L 98.941406 125.945312 C 98.761719 125.984375 98.613281 125.914062 98.488281 125.726562 C 98.371094 125.546875 98.371094 125.386719 98.488281 125.242188 L 101.644531 121.007812 C 101.707031 120.925781 101.746094 120.875 101.769531 120.851562 Z M 103.429688 132.546875 L 104.414062 131.90625 C 104.714844 131.71875 105.085938 131.648438 105.523438 131.6875 C 105.960938 131.730469 106.402344 131.839844 106.851562 132.015625 L 108.210938 132.53125 C 108.65625 132.707031 109.101562 132.816406 109.539062 132.859375 C 109.984375 132.898438 110.355469 132.828125 110.648438 132.640625 C 110.96875 132.429688 111.183594 132.148438 111.289062 131.78125 C 111.402344 131.40625 111.335938 131.023438 111.085938 130.625 C 110.867188 130.292969 110.589844 130.085938 110.257812 130 C 109.933594 129.90625 109.601562 129.96875 109.257812 130.1875 C 109.164062 130.25 109.054688 130.261719 108.929688 130.21875 C 108.8125 130.179688 108.714844 130.09375 108.632812 129.96875 C 108.464844 129.710938 108.546875 129.476562 108.882812 129.265625 C 109.390625 128.933594 109.929688 128.855469 110.492188 129.03125 C 111.054688 129.210938 111.511719 129.574219 111.867188 130.125 C 112.242188 130.71875 112.371094 131.335938 112.257812 131.96875 C 112.140625 132.601562 111.804688 133.097656 111.242188 133.453125 C 110.898438 133.671875 110.515625 133.796875 110.101562 133.828125 C 109.695312 133.859375 109.304688 133.820312 108.929688 133.71875 C 108.554688 133.613281 108.167969 133.484375 107.773438 133.328125 L 106.679688 132.90625 C 106.355469 132.769531 106.039062 132.679688 105.726562 132.640625 C 105.414062 132.609375 105.15625 132.65625 104.960938 132.78125 L 104.445312 133.125 L 106.445312 136.21875 C 106.496094 136.300781 106.5 136.394531 106.460938 136.5 C 106.417969 136.601562 106.34375 136.6875 106.242188 136.75 C 106.148438 136.8125 106.042969 136.835938 105.929688 136.828125 C 105.8125 136.828125 105.730469 136.785156 105.679688 136.703125 L 103.367188 133.109375 C 103.3125 133.023438 103.289062 132.921875 103.289062 132.796875 C 103.296875 132.679688 103.34375 132.597656 103.429688 132.546875 Z M 106.347656 137.371094 C 106.597656 137.207031 106.777344 137.214844 106.894531 137.402344 C 107.113281 137.734375 107.378906 137.972656 107.691406 138.121094 C 108.003906 138.265625 108.339844 138.222656 108.707031 137.996094 L 112.988281 135.246094 C 113.289062 135.050781 113.480469 134.769531 113.566406 134.402344 C 113.660156 134.027344 113.585938 133.652344 113.347656 133.277344 C 113.292969 133.195312 113.285156 133.105469 113.316406 133.011719 C 113.355469 132.910156 113.433594 132.820312 113.550781 132.746094 C 113.800781 132.582031 114.007812 132.632812 114.175781 132.902344 C 114.519531 133.425781 114.628906 134.003906 114.503906 134.636719 C 114.386719 135.261719 114.066406 135.746094 113.535156 136.089844 L 109.253906 138.839844 C 108.691406 139.191406 108.132812 139.28125 107.582031 139.105469 C 107.039062 138.9375 106.589844 138.578125 106.238281 138.027344 C 106.058594 137.746094 106.097656 137.527344 106.347656 137.371094 Z M 110.75 142.054688 C 110.863281 141.984375 110.992188 141.957031 111.140625 141.976562 C 111.285156 141.988281 111.390625 142.035156 111.453125 142.117188 C 111.484375 142.171875 111.488281 142.273438 111.46875 142.429688 C 111.445312 142.574219 111.421875 142.726562 111.390625 142.882812 C 111.359375 143.039062 111.367188 143.246094 111.421875 143.507812 C 111.472656 143.777344 111.570312 144.054688 111.71875 144.335938 L 114.40625 142.601562 L 114.25 141.929688 C 114.21875 141.773438 114.191406 141.5625 114.171875 141.289062 C 114.160156 141.007812 114.179688 140.785156 114.234375 140.617188 C 114.296875 140.441406 114.398438 140.25 114.546875 140.039062 C 114.703125 139.820312 114.898438 139.632812 115.140625 139.476562 C 115.453125 139.28125 115.753906 139.164062 116.046875 139.132812 C 116.347656 139.09375 116.625 139.125 116.875 139.226562 C 117.132812 139.332031 117.363281 139.460938 117.5625 139.617188 C 117.769531 139.773438 117.96875 139.96875 118.15625 140.195312 L 118.453125 140.007812 C 118.503906 139.976562 118.566406 139.972656 118.640625 139.992188 C 118.710938 140.003906 118.773438 140.050781 118.828125 140.132812 C 118.859375 140.195312 118.867188 140.273438 118.859375 140.367188 C 118.859375 140.453125 118.832031 140.507812 118.78125 140.539062 L 118.484375 140.726562 C 118.734375 141.132812 118.90625 141.539062 119 141.945312 C 119.09375 142.34375 119.046875 142.601562 118.859375 142.726562 C 118.765625 142.789062 118.640625 142.820312 118.484375 142.820312 C 118.335938 142.828125 118.226562 142.777344 118.15625 142.664062 C 118.132812 142.632812 118.101562 142.453125 118.0625 142.132812 C 118.019531 141.8125 117.914062 141.503906 117.75 141.210938 L 115.421875 142.695312 C 115.515625 143.007812 115.566406 143.277344 115.578125 143.507812 C 115.597656 143.734375 115.59375 143.996094 115.5625 144.289062 C 115.53125 144.589844 115.421875 144.867188 115.234375 145.117188 C 115.046875 145.367188 114.785156 145.601562 114.453125 145.820312 C 113.867188 146.195312 113.300781 146.335938 112.75 146.242188 C 112.195312 146.148438 111.707031 145.851562 111.28125 145.351562 L 110.921875 145.585938 C 110.867188 145.617188 110.800781 145.617188 110.71875 145.585938 C 110.632812 145.5625 110.578125 145.523438 110.546875 145.460938 C 110.492188 145.375 110.472656 145.292969 110.484375 145.210938 C 110.503906 145.136719 110.539062 145.085938 110.59375 145.054688 L 110.9375 144.835938 C 110.5625 144.25 110.375 143.679688 110.375 143.117188 C 110.382812 142.5625 110.507812 142.210938 110.75 142.054688 Z M 115.734375 140.242188 C 115.421875 140.453125 115.242188 140.695312 115.203125 140.976562 C 115.171875 141.257812 115.203125 141.628906 115.296875 142.085938 L 117.421875 140.726562 C 116.867188 140.039062 116.304688 139.878906 115.734375 140.242188 Z M 112.0625 144.789062 C 112.59375 145.390625 113.191406 145.480469 113.859375 145.054688 C 114.210938 144.824219 114.429688 144.558594 114.515625 144.257812 C 114.597656 143.964844 114.601562 143.617188 114.53125 143.210938 Z M 116.074219 148.777344 L 117.105469 148.121094 C 117.636719 147.777344 118.203125 147.664062 118.808594 147.777344 C 119.421875 147.894531 119.886719 148.195312 120.199219 148.683594 C 120.394531 148.996094 120.496094 149.308594 120.496094 149.621094 C 120.496094 149.941406 120.425781 150.238281 120.292969 150.511719 L 123.589844 148.386719 C 123.671875 148.324219 123.765625 148.316406 123.871094 148.355469 C 123.984375 148.398438 124.078125 148.480469 124.152344 148.605469 C 124.234375 148.730469 124.269531 148.851562 124.261719 148.964844 C 124.25 149.070312 124.203125 149.152344 124.121094 149.214844 L 117.042969 153.761719 C 116.96875 153.800781 116.875 153.800781 116.761719 153.761719 C 116.644531 153.730469 116.550781 153.65625 116.480469 153.542969 C 116.417969 153.4375 116.390625 153.328125 116.402344 153.214844 C 116.421875 153.097656 116.46875 153.019531 116.542969 152.980469 L 116.949219 152.714844 C 116.644531 152.734375 116.339844 152.660156 116.027344 152.496094 C 115.714844 152.339844 115.457031 152.113281 115.261719 151.824219 C 114.957031 151.34375 114.890625 150.796875 115.058594 150.183594 C 115.222656 149.578125 115.5625 149.113281 116.074219 148.777344 Z M 116.605469 149.621094 C 116.300781 149.816406 116.097656 150.109375 115.996094 150.496094 C 115.890625 150.878906 115.9375 151.222656 116.136719 151.527344 C 116.332031 151.828125 116.621094 152.019531 116.996094 152.105469 C 117.378906 152.199219 117.65625 152.191406 117.824219 152.089844 L 119.121094 151.261719 C 119.472656 151.03125 119.683594 150.730469 119.746094 150.355469 C 119.816406 149.988281 119.761719 149.65625 119.574219 149.355469 C 119.363281 149.042969 119.0625 148.851562 118.667969 148.777344 C 118.28125 148.707031 117.9375 148.769531 117.636719 148.964844 Z M 119.277344 153.765625 L 120.339844 153.09375 C 120.859375 152.75 121.433594 152.65625 122.058594 152.8125 C 122.683594 152.96875 123.171875 153.324219 123.527344 153.875 C 123.871094 154.398438 123.984375 154.957031 123.871094 155.5625 C 123.765625 156.175781 123.449219 156.65625 122.917969 157 C 122.71875 157.125 122.546875 157.203125 122.402344 157.234375 C 122.253906 157.265625 122.128906 157.25 122.027344 157.1875 C 121.921875 157.125 121.832031 157.050781 121.761719 156.96875 C 121.6875 156.894531 121.605469 156.78125 121.511719 156.625 L 120.089844 154.421875 L 119.792969 154.625 C 119.40625 154.863281 119.1875 155.1875 119.136719 155.59375 C 119.09375 156 119.207031 156.414062 119.480469 156.84375 C 119.625 157.070312 119.78125 157.242188 119.949219 157.359375 C 120.125 157.484375 120.28125 157.570312 120.417969 157.625 C 120.550781 157.6875 120.636719 157.75 120.667969 157.8125 C 120.730469 157.90625 120.738281 158.015625 120.699219 158.140625 C 120.65625 158.265625 120.589844 158.351562 120.496094 158.40625 C 120.347656 158.5 120.09375 158.441406 119.730469 158.234375 C 119.375 158.035156 119.050781 157.710938 118.761719 157.265625 C 118.34375 156.609375 118.175781 155.953125 118.261719 155.296875 C 118.355469 154.648438 118.691406 154.140625 119.277344 153.765625 Z M 120.652344 154.0625 L 121.855469 155.921875 C 121.96875 156.097656 122.066406 156.203125 122.152344 156.234375 C 122.234375 156.273438 122.332031 156.253906 122.449219 156.171875 C 122.761719 155.972656 122.957031 155.6875 123.042969 155.3125 C 123.136719 154.945312 123.078125 154.609375 122.871094 154.296875 C 122.660156 153.976562 122.375 153.765625 122.011719 153.671875 C 121.65625 153.578125 121.324219 153.636719 121.011719 153.84375 Z M 120.824219 159.664062 L 125.027344 156.960938 C 125.109375 156.910156 125.203125 156.90625 125.308594 156.945312 C 125.410156 156.988281 125.503906 157.070312 125.589844 157.195312 C 125.652344 157.289062 125.675781 157.394531 125.667969 157.507812 C 125.65625 157.625 125.613281 157.707031 125.542969 157.757812 L 125.121094 158.039062 C 125.410156 158 125.703125 158.054688 125.996094 158.210938 C 126.296875 158.359375 126.550781 158.585938 126.761719 158.898438 C 127.0625 159.367188 127.136719 159.898438 126.980469 160.492188 C 126.832031 161.09375 126.496094 161.570312 125.964844 161.914062 L 123.355469 163.585938 C 123.261719 163.648438 123.160156 163.652344 123.058594 163.601562 C 122.953125 163.546875 122.863281 163.46875 122.792969 163.367188 C 122.71875 163.25 122.675781 163.136719 122.667969 163.023438 C 122.667969 162.90625 122.714844 162.820312 122.808594 162.757812 L 125.417969 161.085938 C 125.71875 160.886719 125.917969 160.59375 126.011719 160.210938 C 126.113281 159.824219 126.066406 159.476562 125.871094 159.164062 C 125.683594 158.882812 125.40625 158.703125 125.042969 158.617188 C 124.6875 158.535156 124.332031 158.609375 123.980469 158.835938 L 121.371094 160.507812 C 121.308594 160.546875 121.214844 160.542969 121.089844 160.492188 C 120.964844 160.449219 120.871094 160.375 120.808594 160.273438 C 120.734375 160.15625 120.699219 160.039062 120.699219 159.914062 C 120.707031 159.789062 120.75 159.703125 120.824219 159.664062 Z M 124.289062 164.195312 C 124.371094 164.144531 124.46875 164.117188 124.585938 164.117188 C 124.710938 164.117188 124.796875 164.160156 124.851562 164.242188 C 124.890625 164.296875 124.902344 164.390625 124.882812 164.539062 C 124.871094 164.695312 124.886719 164.890625 124.929688 165.132812 C 124.980469 165.382812 125.085938 165.636719 125.242188 165.898438 C 125.460938 166.230469 125.679688 166.433594 125.898438 166.507812 C 126.117188 166.578125 126.320312 166.554688 126.507812 166.429688 C 126.726562 166.292969 126.84375 166.09375 126.867188 165.835938 C 126.886719 165.574219 126.851562 165.304688 126.757812 165.023438 C 126.671875 164.742188 126.59375 164.453125 126.523438 164.164062 C 126.449219 163.875 126.449219 163.582031 126.523438 163.289062 C 126.605469 163 126.804688 162.753906 127.117188 162.554688 C 127.5 162.304688 127.917969 162.226562 128.367188 162.320312 C 128.824219 162.414062 129.230469 162.742188 129.585938 163.304688 C 129.824219 163.660156 129.980469 164.019531 130.054688 164.382812 C 130.136719 164.757812 130.105469 164.984375 129.960938 165.070312 C 129.886719 165.121094 129.777344 165.148438 129.632812 165.148438 C 129.484375 165.15625 129.382812 165.117188 129.320312 165.023438 C 129.308594 164.992188 129.277344 164.828125 129.226562 164.539062 C 129.171875 164.25 129.074219 163.988281 128.929688 163.757812 C 128.730469 163.445312 128.507812 163.265625 128.257812 163.210938 C 128.015625 163.148438 127.804688 163.175781 127.617188 163.289062 C 127.4375 163.40625 127.351562 163.582031 127.351562 163.820312 C 127.351562 164.0625 127.398438 164.320312 127.492188 164.601562 C 127.59375 164.890625 127.679688 165.183594 127.742188 165.476562 C 127.8125 165.777344 127.796875 166.078125 127.695312 166.382812 C 127.589844 166.683594 127.371094 166.945312 127.039062 167.164062 C 126.609375 167.433594 126.179688 167.496094 125.742188 167.351562 C 125.3125 167.214844 124.933594 166.875 124.601562 166.335938 C 124.296875 165.886719 124.121094 165.445312 124.070312 165.007812 C 124.027344 164.578125 124.101562 164.3125 124.289062 164.195312 Z M 132.613281 164.917969 C 132.644531 164.753906 132.722656 164.632812 132.847656 164.558594 C 132.972656 164.476562 133.113281 164.457031 133.269531 164.496094 C 133.433594 164.527344 133.570312 164.621094 133.675781 164.777344 C 133.757812 164.914062 133.785156 165.066406 133.753906 165.230469 C 133.722656 165.398438 133.644531 165.523438 133.519531 165.605469 C 133.394531 165.679688 133.246094 165.695312 133.082031 165.652344 C 132.914062 165.613281 132.785156 165.523438 132.691406 165.386719 C 132.605469 165.242188 132.582031 165.085938 132.613281 164.917969 Z M 126.628906 168.699219 L 130.832031 165.996094 C 130.914062 165.945312 131.007812 165.945312 131.113281 165.996094 C 131.226562 166.039062 131.320312 166.117188 131.394531 166.230469 C 131.464844 166.355469 131.503906 166.476562 131.503906 166.589844 C 131.503906 166.707031 131.460938 166.789062 131.378906 166.839844 L 127.175781 169.542969 C 127.113281 169.582031 127.019531 169.582031 126.894531 169.542969 C 126.777344 169.5 126.683594 169.421875 126.613281 169.308594 C 126.539062 169.191406 126.503906 169.074219 126.503906 168.949219 C 126.511719 168.824219 126.554688 168.738281 126.628906 168.699219 Z M 129.164062 169.917969 L 134.351562 166.589844 C 134.433594 166.539062 134.53125 166.539062 134.648438 166.589844 C 134.761719 166.632812 134.851562 166.699219 134.914062 166.792969 C 134.984375 166.910156 135.015625 167.035156 135.007812 167.167969 C 135.007812 167.292969 134.964844 167.382812 134.882812 167.433594 L 132.945312 168.667969 L 133.757812 169.933594 C 133.808594 170.007812 133.8125 170.089844 133.773438 170.183594 C 133.742188 170.269531 133.679688 170.332031 133.585938 170.386719 C 133.5 170.449219 133.414062 170.472656 133.320312 170.464844 C 133.226562 170.464844 133.152344 170.425781 133.101562 170.355469 L 132.289062 169.089844 L 129.695312 170.761719 C 129.402344 170.949219 129.234375 171.140625 129.195312 171.339844 C 129.152344 171.535156 129.230469 171.792969 129.429688 172.105469 L 129.632812 172.417969 C 129.703125 172.53125 129.726562 172.640625 129.695312 172.746094 C 129.671875 172.859375 129.609375 172.949219 129.507812 173.011719 C 129.402344 173.082031 129.292969 173.105469 129.179688 173.074219 C 129.0625 173.050781 128.96875 172.988281 128.898438 172.886719 L 128.695312 172.574219 C 127.984375 171.457031 128.140625 170.574219 129.164062 169.917969 Z M 133.785156 170.71875 C 133.898438 170.65625 134.035156 170.664062 134.191406 170.734375 C 134.347656 170.796875 134.464844 170.890625 134.550781 171.015625 C 134.632812 171.152344 134.632812 171.277344 134.550781 171.390625 L 131.878906 174.984375 L 136.191406 173.921875 C 136.324219 173.898438 136.429688 173.953125 136.503906 174.078125 C 136.574219 174.191406 136.613281 174.335938 136.613281 174.515625 C 136.621094 174.691406 136.570312 174.816406 136.457031 174.890625 C 136.414062 174.910156 136.371094 174.921875 136.332031 174.921875 L 131.238281 176.03125 L 130.597656 176.171875 C 130.492188 176.179688 130.289062 176.207031 129.988281 176.25 C 129.695312 176.300781 129.476562 176.328125 129.332031 176.328125 C 129.1875 176.328125 128.996094 176.316406 128.753906 176.296875 C 128.515625 176.285156 128.324219 176.25 128.175781 176.1875 C 128.03125 176.125 127.875 176.03125 127.707031 175.90625 C 127.542969 175.78125 127.40625 175.632812 127.300781 175.46875 C 127.125 175.195312 127.160156 174.976562 127.410156 174.8125 C 127.652344 174.664062 127.824219 174.675781 127.925781 174.84375 C 128.125 175.144531 128.488281 175.328125 129.019531 175.390625 C 129.539062 175.460938 130.097656 175.378906 130.691406 175.140625 L 133.691406 170.828125 C 133.722656 170.789062 133.753906 170.75 133.785156 170.71875 Z M 139.273438 176.246094 C 139.40625 176.164062 139.558594 176.152344 139.726562 176.214844 L 141.414062 176.433594 C 141.570312 176.457031 141.671875 176.507812 141.726562 176.589844 C 141.789062 176.695312 141.820312 176.804688 141.820312 176.917969 C 141.820312 177.035156 141.773438 177.121094 141.679688 177.183594 L 134.882812 181.542969 C 134.789062 181.605469 134.683594 181.609375 134.570312 181.558594 C 134.464844 181.503906 134.375 181.417969 134.304688 181.292969 C 134.230469 181.175781 134.195312 181.0625 134.195312 180.949219 C 134.195312 180.832031 134.242188 180.746094 134.335938 180.683594 L 140.148438 176.949219 L 139.351562 176.933594 C 139.234375 176.914062 139.15625 176.867188 139.117188 176.792969 C 139.054688 176.710938 139.039062 176.617188 139.070312 176.511719 C 139.109375 176.398438 139.179688 176.308594 139.273438 176.246094 Z M 137.507812 181.5625 L 140.554688 179.609375 C 141.3125 179.121094 141.996094 178.96875 142.601562 179.15625 C 143.203125 179.335938 143.71875 179.757812 144.148438 180.421875 C 144.585938 181.089844 144.75 181.726562 144.648438 182.328125 C 144.554688 182.929688 144.265625 183.382812 143.789062 183.6875 C 143.539062 183.84375 143.324219 183.789062 143.148438 183.53125 C 142.960938 183.238281 142.980469 183.019531 143.210938 182.875 C 143.511719 182.675781 143.671875 182.390625 143.695312 182.015625 C 143.726562 181.640625 143.621094 181.265625 143.382812 180.890625 C 142.808594 179.996094 142.046875 179.855469 141.101562 180.46875 L 139.679688 181.375 C 140.304688 181.4375 140.824219 181.796875 141.242188 182.453125 C 142.117188 183.804688 141.875 184.914062 140.523438 185.78125 L 140.304688 185.921875 C 139.542969 186.410156 138.855469 186.570312 138.242188 186.40625 C 137.636719 186.238281 137.121094 185.828125 136.695312 185.171875 C 136.277344 184.515625 136.117188 183.867188 136.210938 183.234375 C 136.3125 182.609375 136.746094 182.054688 137.507812 181.5625 Z M 138.023438 182.453125 C 137.0625 183.054688 136.867188 183.800781 137.429688 184.6875 C 138 185.570312 138.765625 185.710938 139.726562 185.109375 L 139.929688 184.96875 C 140.84375 184.382812 141.015625 183.648438 140.445312 182.765625 C 139.882812 181.882812 139.171875 181.710938 138.320312 182.25 Z M 141.105469 189.332031 C 141.21875 189.261719 141.347656 189.234375 141.496094 189.253906 C 141.640625 189.265625 141.746094 189.3125 141.808594 189.394531 C 141.839844 189.449219 141.84375 189.550781 141.824219 189.707031 C 141.800781 189.851562 141.777344 190.003906 141.746094 190.160156 C 141.714844 190.316406 141.722656 190.523438 141.777344 190.785156 C 141.828125 191.054688 141.925781 191.332031 142.074219 191.613281 L 144.761719 189.878906 L 144.605469 189.207031 C 144.574219 189.050781 144.546875 188.839844 144.527344 188.566406 C 144.515625 188.285156 144.535156 188.0625 144.589844 187.894531 C 144.652344 187.71875 144.753906 187.527344 144.902344 187.316406 C 145.058594 187.097656 145.253906 186.910156 145.496094 186.753906 C 145.808594 186.558594 146.109375 186.441406 146.402344 186.410156 C 146.703125 186.371094 146.980469 186.402344 147.230469 186.503906 C 147.488281 186.609375 147.71875 186.738281 147.917969 186.894531 C 148.125 187.050781 148.324219 187.246094 148.511719 187.472656 L 148.808594 187.285156 C 148.859375 187.253906 148.921875 187.25 148.996094 187.269531 C 149.066406 187.28125 149.128906 187.328125 149.183594 187.410156 C 149.214844 187.472656 149.222656 187.550781 149.214844 187.644531 C 149.214844 187.730469 149.1875 187.785156 149.136719 187.816406 L 148.839844 188.003906 C 149.089844 188.410156 149.261719 188.816406 149.355469 189.222656 C 149.449219 189.621094 149.402344 189.878906 149.214844 190.003906 C 149.121094 190.066406 148.996094 190.097656 148.839844 190.097656 C 148.691406 190.105469 148.582031 190.054688 148.511719 189.941406 C 148.488281 189.910156 148.457031 189.730469 148.417969 189.410156 C 148.375 189.089844 148.269531 188.78125 148.105469 188.488281 L 145.777344 189.972656 C 145.871094 190.285156 145.921875 190.554688 145.933594 190.785156 C 145.953125 191.011719 145.949219 191.273438 145.917969 191.566406 C 145.886719 191.867188 145.777344 192.144531 145.589844 192.394531 C 145.402344 192.644531 145.140625 192.878906 144.808594 193.097656 C 144.222656 193.472656 143.65625 193.613281 143.105469 193.519531 C 142.550781 193.425781 142.0625 193.128906 141.636719 192.628906 L 141.277344 192.863281 C 141.222656 192.894531 141.15625 192.894531 141.074219 192.863281 C 140.988281 192.839844 140.933594 192.800781 140.902344 192.738281 C 140.847656 192.652344 140.828125 192.570312 140.839844 192.488281 C 140.859375 192.414062 140.894531 192.363281 140.949219 192.332031 L 141.292969 192.113281 C 140.917969 191.527344 140.730469 190.957031 140.730469 190.394531 C 140.738281 189.839844 140.863281 189.488281 141.105469 189.332031 Z M 146.089844 187.519531 C 145.777344 187.730469 145.597656 187.972656 145.558594 188.253906 C 145.527344 188.535156 145.558594 188.90625 145.652344 189.363281 L 147.777344 188.003906 C 147.222656 187.316406 146.660156 187.15625 146.089844 187.519531 Z M 142.417969 192.066406 C 142.949219 192.667969 143.546875 192.757812 144.214844 192.332031 C 144.566406 192.101562 144.785156 191.835938 144.871094 191.535156 C 144.953125 191.242188 144.957031 190.894531 144.886719 190.488281 Z M 152.027344 192.382812 C 152.097656 192.34375 152.183594 192.34375 152.277344 192.382812 C 152.371094 192.425781 152.441406 192.492188 152.496094 192.585938 C 152.558594 192.679688 152.589844 192.785156 152.589844 192.898438 C 152.597656 193.003906 152.566406 193.078125 152.496094 193.117188 L 150.964844 193.960938 C 150.890625 194.003906 150.8125 194.023438 150.730469 194.023438 C 150.644531 194.015625 150.578125 193.960938 150.527344 193.867188 C 150.410156 193.691406 150.441406 193.546875 150.621094 193.429688 Z M 152.902344 193.742188 C 152.972656 193.703125 153.058594 193.707031 153.152344 193.757812 C 153.246094 193.800781 153.324219 193.867188 153.386719 193.960938 C 153.449219 194.054688 153.480469 194.15625 153.480469 194.257812 C 153.480469 194.363281 153.441406 194.4375 153.371094 194.476562 L 151.839844 195.335938 C 151.765625 195.378906 151.6875 195.394531 151.605469 195.382812 C 151.519531 195.375 151.453125 195.328125 151.402344 195.242188 C 151.285156 195.066406 151.316406 194.921875 151.496094 194.804688 Z M 145.289062 200.496094 C 145.789062 200.183594 146.335938 200.21875 146.929688 200.605469 C 146.835938 200.1875 146.949219 199.875 147.273438 199.667969 C 147.574219 199.472656 147.929688 199.476562 148.335938 199.683594 C 148.398438 199.101562 148.703125 198.636719 149.257812 198.292969 L 149.585938 198.074219 C 150.074219 197.761719 150.574219 197.675781 151.085938 197.808594 C 151.605469 197.945312 152.039062 198.277344 152.382812 198.808594 C 152.671875 199.269531 152.796875 199.746094 152.757812 200.246094 C 153.320312 200.160156 153.683594 200.246094 153.851562 200.496094 C 153.921875 200.609375 153.949219 200.71875 153.929688 200.824219 C 153.90625 200.9375 153.855469 201.019531 153.773438 201.074219 C 153.667969 201.136719 153.554688 201.128906 153.429688 201.058594 C 153.21875 200.859375 152.964844 200.765625 152.664062 200.777344 C 152.539062 201.140625 152.28125 201.449219 151.898438 201.699219 L 151.570312 201.917969 C 151.070312 202.230469 150.554688 202.3125 150.023438 202.167969 C 149.492188 202.03125 149.054688 201.699219 148.710938 201.167969 C 148.542969 200.894531 148.4375 200.609375 148.398438 200.308594 C 148.179688 200.214844 148 200.207031 147.867188 200.292969 C 147.742188 200.375 147.695312 200.515625 147.726562 200.714844 C 147.765625 200.910156 147.851562 201.128906 147.976562 201.371094 C 148.109375 201.609375 148.234375 201.875 148.351562 202.167969 C 148.476562 202.46875 148.574219 202.761719 148.648438 203.042969 C 148.71875 203.324219 148.710938 203.597656 148.617188 203.871094 C 148.53125 204.152344 148.34375 204.386719 148.054688 204.574219 C 147.585938 204.875 147.101562 204.917969 146.601562 204.699219 C 146.101562 204.480469 145.660156 204.066406 145.273438 203.464844 C 144.890625 202.859375 144.691406 202.28125 144.679688 201.730469 C 144.671875 201.175781 144.875 200.765625 145.289062 200.496094 Z M 145.898438 201.246094 C 145.640625 201.410156 145.507812 201.660156 145.507812 201.996094 C 145.5 202.328125 145.617188 202.6875 145.867188 203.074219 C 146.105469 203.449219 146.375 203.699219 146.679688 203.824219 C 146.980469 203.949219 147.261719 203.925781 147.523438 203.761719 C 147.625 203.699219 147.703125 203.621094 147.757812 203.527344 C 147.820312 203.441406 147.851562 203.339844 147.851562 203.214844 C 147.851562 203.097656 147.839844 202.988281 147.820312 202.886719 C 147.808594 202.78125 147.773438 202.65625 147.710938 202.511719 C 147.65625 202.363281 147.609375 202.246094 147.570312 202.152344 C 147.527344 202.066406 147.464844 201.953125 147.382812 201.808594 C 147.308594 201.660156 147.261719 201.558594 147.242188 201.496094 C 146.71875 201.089844 146.273438 201.003906 145.898438 201.246094 Z M 149.773438 199.121094 C 149.4375 199.332031 149.226562 199.585938 149.132812 199.886719 C 149.046875 200.1875 149.105469 200.5 149.304688 200.824219 C 149.5 201.113281 149.757812 201.285156 150.070312 201.339844 C 150.390625 201.390625 150.71875 201.3125 151.054688 201.105469 L 151.382812 200.886719 C 151.683594 200.6875 151.882812 200.425781 151.976562 200.105469 C 152.070312 199.792969 152.015625 199.488281 151.820312 199.183594 C 151.621094 198.871094 151.359375 198.699219 151.039062 198.667969 C 150.726562 198.628906 150.414062 198.707031 150.101562 198.902344 Z M 149.734375 204.6875 L 153.9375 201.984375 C 154.019531 201.933594 154.113281 201.929688 154.21875 201.96875 C 154.320312 202.011719 154.414062 202.09375 154.5 202.21875 C 154.5625 202.324219 154.585938 202.433594 154.578125 202.546875 C 154.578125 202.652344 154.535156 202.730469 154.453125 202.78125 L 153.96875 203.09375 C 154.28125 203.074219 154.59375 203.132812 154.90625 203.265625 C 155.21875 203.390625 155.46875 203.601562 155.65625 203.890625 L 155.875 204.234375 C 155.925781 204.316406 155.929688 204.410156 155.890625 204.515625 C 155.859375 204.628906 155.789062 204.71875 155.6875 204.78125 C 155.59375 204.851562 155.488281 204.878906 155.375 204.859375 C 155.257812 204.847656 155.175781 204.800781 155.125 204.71875 L 154.90625 204.375 C 154.675781 204.03125 154.34375 203.824219 153.90625 203.75 C 153.46875 203.667969 153.03125 203.765625 152.59375 204.046875 L 150.28125 205.53125 C 150.21875 205.570312 150.125 205.570312 150 205.53125 C 149.882812 205.488281 149.789062 205.410156 149.71875 205.296875 C 149.644531 205.179688 149.609375 205.0625 149.609375 204.9375 C 149.617188 204.8125 149.660156 204.726562 149.734375 204.6875 Z M 153.433594 206.960938 L 154.496094 206.289062 C 155.015625 205.945312 155.589844 205.851562 156.214844 206.007812 C 156.839844 206.164062 157.328125 206.519531 157.683594 207.070312 C 158.027344 207.59375 158.140625 208.152344 158.027344 208.757812 C 157.921875 209.371094 157.605469 209.851562 157.074219 210.195312 C 156.875 210.320312 156.703125 210.398438 156.558594 210.429688 C 156.410156 210.460938 156.285156 210.445312 156.183594 210.382812 C 156.078125 210.320312 155.988281 210.246094 155.917969 210.164062 C 155.84375 210.089844 155.761719 209.976562 155.667969 209.820312 L 154.246094 207.617188 L 153.949219 207.820312 C 153.5625 208.058594 153.34375 208.382812 153.292969 208.789062 C 153.25 209.195312 153.363281 209.609375 153.636719 210.039062 C 153.78125 210.265625 153.9375 210.4375 154.105469 210.554688 C 154.28125 210.679688 154.4375 210.765625 154.574219 210.820312 C 154.707031 210.882812 154.792969 210.945312 154.824219 211.007812 C 154.886719 211.101562 154.894531 211.210938 154.855469 211.335938 C 154.8125 211.460938 154.746094 211.546875 154.652344 211.601562 C 154.503906 211.695312 154.25 211.636719 153.886719 211.429688 C 153.53125 211.230469 153.207031 210.90625 152.917969 210.460938 C 152.5 209.804688 152.332031 209.148438 152.417969 208.492188 C 152.511719 207.84375 152.847656 207.335938 153.433594 206.960938 Z M 154.808594 207.257812 L 156.011719 209.117188 C 156.125 209.292969 156.222656 209.398438 156.308594 209.429688 C 156.390625 209.46875 156.488281 209.449219 156.605469 209.367188 C 156.917969 209.167969 157.113281 208.882812 157.199219 208.507812 C 157.292969 208.140625 157.234375 207.804688 157.027344 207.492188 C 156.816406 207.171875 156.53125 206.960938 156.167969 206.867188 C 155.8125 206.773438 155.480469 206.832031 155.167969 207.039062 Z M 158.824219 209.71875 C 158.9375 209.65625 159.074219 209.664062 159.230469 209.734375 C 159.386719 209.796875 159.503906 209.890625 159.589844 210.015625 C 159.671875 210.152344 159.671875 210.277344 159.589844 210.390625 L 156.917969 213.984375 L 161.230469 212.921875 C 161.363281 212.898438 161.46875 212.953125 161.542969 213.078125 C 161.613281 213.191406 161.652344 213.335938 161.652344 213.515625 C 161.660156 213.691406 161.609375 213.816406 161.496094 213.890625 C 161.453125 213.910156 161.410156 213.921875 161.371094 213.921875 L 156.277344 215.03125 L 155.636719 215.171875 C 155.53125 215.179688 155.328125 215.207031 155.027344 215.25 C 154.734375 215.300781 154.515625 215.328125 154.371094 215.328125 C 154.226562 215.328125 154.035156 215.316406 153.792969 215.296875 C 153.554688 215.285156 153.363281 215.25 153.214844 215.1875 C 153.070312 215.125 152.914062 215.03125 152.746094 214.90625 C 152.582031 214.78125 152.445312 214.632812 152.339844 214.46875 C 152.164062 214.195312 152.199219 213.976562 152.449219 213.8125 C 152.691406 213.664062 152.863281 213.675781 152.964844 213.84375 C 153.164062 214.144531 153.527344 214.328125 154.058594 214.390625 C 154.578125 214.460938 155.136719 214.378906 155.730469 214.140625 L 158.730469 209.828125 C 158.761719 209.789062 158.792969 209.75 158.824219 209.71875 Z M 159.128906 219.304688 L 166.207031 214.757812 C 166.289062 214.695312 166.382812 214.6875 166.488281 214.726562 C 166.601562 214.769531 166.695312 214.851562 166.769531 214.976562 C 166.839844 215.09375 166.871094 215.210938 166.863281 215.335938 C 166.863281 215.453125 166.820312 215.539062 166.738281 215.601562 L 163.441406 217.726562 C 163.742188 217.695312 164.039062 217.75 164.332031 217.882812 C 164.621094 218.019531 164.863281 218.238281 165.050781 218.539062 C 165.371094 219.027344 165.457031 219.574219 165.300781 220.179688 C 165.152344 220.78125 164.816406 221.257812 164.285156 221.601562 L 163.253906 222.257812 C 162.742188 222.589844 162.175781 222.699219 161.550781 222.585938 C 160.925781 222.480469 160.460938 222.195312 160.160156 221.726562 C 159.960938 221.421875 159.855469 221.09375 159.847656 220.742188 C 159.835938 220.386719 159.902344 220.085938 160.050781 219.835938 L 159.644531 220.101562 C 159.570312 220.140625 159.476562 220.140625 159.363281 220.101562 C 159.246094 220.070312 159.160156 220.007812 159.097656 219.914062 C 159.023438 219.796875 158.992188 219.679688 159.003906 219.554688 C 159.011719 219.429688 159.054688 219.34375 159.128906 219.304688 Z M 160.972656 219.304688 C 160.804688 219.40625 160.683594 219.648438 160.613281 220.023438 C 160.539062 220.40625 160.589844 220.746094 160.769531 221.039062 C 160.964844 221.339844 161.261719 221.527344 161.660156 221.601562 C 162.054688 221.671875 162.402344 221.609375 162.707031 221.414062 L 163.738281 220.757812 C 164.039062 220.558594 164.238281 220.265625 164.332031 219.882812 C 164.433594 219.496094 164.386719 219.152344 164.191406 218.851562 C 164.003906 218.539062 163.722656 218.34375 163.347656 218.257812 C 162.980469 218.175781 162.621094 218.25 162.269531 218.476562 Z M 162.375 224.371094 L 169.453125 219.824219 C 169.535156 219.761719 169.628906 219.753906 169.734375 219.792969 C 169.847656 219.835938 169.941406 219.917969 170.015625 220.042969 C 170.097656 220.160156 170.132812 220.277344 170.125 220.402344 C 170.125 220.519531 170.082031 220.605469 170 220.667969 L 162.921875 225.214844 C 162.859375 225.253906 162.765625 225.253906 162.640625 225.214844 C 162.515625 225.171875 162.414062 225.09375 162.34375 224.980469 C 162.269531 224.863281 162.238281 224.746094 162.25 224.621094 C 162.257812 224.496094 162.300781 224.410156 162.375 224.371094 Z M 164.515625 225.570312 C 165.035156 225.238281 165.53125 225.207031 166 225.476562 C 166.46875 225.738281 166.945312 226.246094 167.4375 227.007812 L 167.75 227.492188 L 167.953125 227.367188 C 168.285156 227.148438 168.515625 226.867188 168.640625 226.523438 C 168.773438 226.179688 168.722656 225.828125 168.484375 225.460938 C 168.296875 225.171875 168.085938 224.953125 167.859375 224.804688 C 167.628906 224.648438 167.507812 224.5625 167.5 224.539062 C 167.4375 224.445312 167.429688 224.34375 167.484375 224.226562 C 167.535156 224.113281 167.613281 224.023438 167.71875 223.960938 C 167.875 223.859375 168.109375 223.925781 168.421875 224.164062 C 168.734375 224.394531 169 224.675781 169.21875 225.007812 C 169.632812 225.675781 169.753906 226.28125 169.578125 226.835938 C 169.410156 227.386719 169.050781 227.839844 168.5 228.195312 L 165.90625 229.867188 C 165.820312 229.917969 165.722656 229.921875 165.609375 229.882812 C 165.503906 229.839844 165.414062 229.757812 165.34375 229.632812 C 165.269531 229.527344 165.238281 229.417969 165.25 229.304688 C 165.257812 229.199219 165.304688 229.121094 165.390625 229.070312 L 165.796875 228.804688 C 164.984375 228.679688 164.398438 228.335938 164.046875 227.773438 C 163.785156 227.367188 163.6875 226.964844 163.75 226.570312 C 163.820312 226.183594 164.078125 225.851562 164.515625 225.570312 Z M 165.140625 226.335938 C 164.878906 226.5 164.734375 226.695312 164.703125 226.914062 C 164.671875 227.140625 164.726562 227.375 164.875 227.617188 C 165.0625 227.898438 165.351562 228.09375 165.75 228.210938 C 166.15625 228.335938 166.472656 228.320312 166.703125 228.164062 L 167.234375 227.820312 L 167 227.476562 C 166.875 227.277344 166.757812 227.109375 166.65625 226.976562 C 166.550781 226.851562 166.4375 226.71875 166.3125 226.585938 C 166.1875 226.460938 166.0625 226.367188 165.9375 226.304688 C 165.820312 226.242188 165.691406 226.210938 165.546875 226.210938 C 165.410156 226.210938 165.273438 226.25 165.140625 226.335938 Z M 168.109375 229.828125 L 169.125 229.171875 C 169.707031 228.796875 170.285156 228.667969 170.859375 228.78125 C 171.441406 228.898438 171.945312 229.28125 172.375 229.9375 C 172.644531 230.355469 172.796875 230.75 172.828125 231.125 C 172.867188 231.507812 172.804688 231.753906 172.640625 231.859375 C 172.546875 231.921875 172.425781 231.945312 172.28125 231.9375 C 172.144531 231.925781 172.046875 231.875 171.984375 231.78125 C 171.972656 231.757812 171.957031 231.601562 171.9375 231.3125 C 171.925781 231.03125 171.835938 230.753906 171.671875 230.484375 C 171.410156 230.078125 171.101562 229.839844 170.75 229.765625 C 170.40625 229.695312 170.046875 229.777344 169.671875 230.015625 L 168.65625 230.671875 C 167.851562 231.179688 167.71875 231.847656 168.25 232.671875 C 168.425781 232.960938 168.640625 233.171875 168.890625 233.296875 C 169.148438 233.421875 169.289062 233.503906 169.3125 233.546875 C 169.382812 233.648438 169.398438 233.765625 169.359375 233.890625 C 169.328125 234.023438 169.257812 234.125 169.15625 234.1875 C 168.988281 234.289062 168.734375 234.242188 168.390625 234.046875 C 168.046875 233.847656 167.734375 233.535156 167.453125 233.109375 C 167.023438 232.441406 166.878906 231.820312 167.015625 231.25 C 167.160156 230.675781 167.523438 230.203125 168.109375 229.828125 Z M 169.359375 235.242188 L 176.4375 230.695312 C 176.519531 230.632812 176.613281 230.625 176.71875 230.664062 C 176.832031 230.707031 176.925781 230.789062 177 230.914062 C 177.070312 231.03125 177.101562 231.148438 177.09375 231.273438 C 177.09375 231.390625 177.050781 231.476562 176.96875 231.539062 L 172.25 234.570312 L 175.8125 235.523438 C 175.90625 235.554688 175.972656 235.601562 176.015625 235.664062 C 176.066406 235.757812 176.082031 235.875 176.0625 236.023438 C 176.039062 236.179688 175.984375 236.28125 175.890625 236.335938 C 175.796875 236.398438 175.703125 236.414062 175.609375 236.382812 L 173.46875 235.773438 L 172.109375 239.007812 C 172.085938 239.078125 172.050781 239.132812 172 239.164062 C 171.90625 239.226562 171.773438 239.234375 171.609375 239.195312 C 171.453125 239.152344 171.335938 239.074219 171.265625 238.960938 C 171.210938 238.875 171.210938 238.773438 171.265625 238.648438 L 172.59375 235.539062 L 171.296875 235.179688 L 169.890625 236.085938 C 169.828125 236.125 169.734375 236.125 169.609375 236.085938 C 169.492188 236.042969 169.398438 235.964844 169.328125 235.851562 C 169.253906 235.734375 169.222656 235.617188 169.234375 235.492188 C 169.242188 235.367188 169.285156 235.28125 169.359375 235.242188 Z M 179.433594 235.066406 C 179.503906 235.027344 179.589844 235.027344 179.683594 235.066406 C 179.777344 235.109375 179.847656 235.175781 179.902344 235.269531 C 179.964844 235.363281 179.996094 235.46875 179.996094 235.582031 C 180.003906 235.6875 179.972656 235.761719 179.902344 235.800781 L 178.371094 236.644531 C 178.296875 236.6875 178.21875 236.707031 178.136719 236.707031 C 178.050781 236.699219 177.984375 236.644531 177.933594 236.550781 C 177.816406 236.375 177.847656 236.230469 178.027344 236.113281 Z M 180.308594 236.425781 C 180.378906 236.386719 180.464844 236.390625 180.558594 236.441406 C 180.652344 236.484375 180.730469 236.550781 180.792969 236.644531 C 180.855469 236.738281 180.886719 236.839844 180.886719 236.941406 C 180.886719 237.046875 180.847656 237.121094 180.777344 237.160156 L 179.246094 238.019531 C 179.171875 238.0625 179.09375 238.078125 179.011719 238.066406 C 178.925781 238.058594 178.859375 238.011719 178.808594 237.925781 C 178.691406 237.75 178.722656 237.605469 178.902344 237.488281 Z M 173.507812 242.351562 "/>
</g>
</svg>
