<?xml version="1.0" encoding="UTF-8"?>
<svg xmlns="http://www.w3.org/2000/svg" xmlns:xlink="http://www.w3.org/1999/xlink" width="384pt" height="288pt" viewBox="0 0 384 288" version="1.1">
<g id="surface197">
<path style=" stroke:none;fill-rule:nonzero;fill:rgb(0%,0%,0%);fill-opacity:1;" d="M 0 0 L 288 0 L 288 288 L 0 288 Z M 0 0 "/>
<path style=" stroke:none;fill-rule:nonzero;fill:rgb(50.196078%,50.196078%,50.196078%);fill-opacity:1;" d="M 0 0 L 36 0 L 36 288 L 0 288 Z M 0 0 "/>
<path style=" stroke:none;fill-rule:nonzero;fill:rgb(0%,0%,0%);fill-opacity:1;" d="M 36 0 L 72 0 L 72 288 L 36 288 Z M 36 0 "/>
<path style=" stroke:none;fill-rule:nonzero;fill:rgb(50.196078%,50.196078%,50.196078%);fill-opacity:1;" d="M 72 0 L 108 0 L 108 288 L 72 288 Z M 72 0 "/>
<path style=" stroke:none;fill-rule:nonzero;fill:rgb(0%,0%,0%);fill-opacity:1;" d="M 108 0 L 144 0 L 144 288 L 108 288 Z M 108 0 "/>
<path style=" stroke:none;fill-rule:nonzero;fill:rgb(50.196078%,50.196078%,50.196078%);fill-opacity:1;" d="M 144 0 L 180 0 L 180 288 L 144 288 Z M 144 0 "/>
<path style=" stroke:none;fill-rule:nonzero;fill:rgb(0%,0%,0%);fill-opacity:1;" d="M 180 0 L 216 0 L 216 288 L 180 288 Z M 180 0 "/>
<path style=" stroke:none;fill-rule:nonzero;fill:rgb(50.196078%,50.196078%,50.196078%);fill-opacity:1;" d="M 216 0 L 252 0 L 252 288 L 216 288 Z M 216 0 "/>
<path style=" stroke:none;fill-rule:nonzero;fill:rgb(0%,0%,0%);fill-opacity:1;" d="M 252 0 L 288 0 L 288 288 L 252 288 Z M 252 0 "/>
<path style=" stroke:none;fill-rule:nonzero;fill:rgb(0%,0%,0%);fill-opacity:1;" d="M 365.34375 10.71875 L 371.875 10.71875 C 372.5 10.71875 373.03125 10.925781 373.46875 11.34375 C 373.90625 11.769531 374.125 12.269531 374.125 12.84375 L 374.125 13.265625 C 374.125 13.390625 374.078125 13.488281 373.984375 13.5625 C 373.898438 13.632812 373.796875 13.671875 373.671875 13.671875 C 373.554688 13.671875 373.457031 13.632812 373.375 13.5625 C 373.289062 13.488281 373.25 13.390625 373.25 13.265625 L 373.25 13.015625 C 373.25 12.640625 373.125 12.332031 372.875 12.09375 C 372.625 11.851562 372.316406 11.726562 371.953125 11.71875 L 370.6875 11.71875 L 370.6875 13.359375 C 370.6875 13.453125 370.644531 13.523438 370.5625 13.578125 C 370.488281 13.640625 370.398438 13.671875 370.296875 13.671875 C 370.191406 13.671875 370.097656 13.640625 370.015625 13.578125 C 369.941406 13.523438 369.90625 13.453125 369.90625 13.359375 L 369.90625 11.71875 L 365.34375 11.71875 C 365.25 11.71875 365.164062 11.664062 365.09375 11.5625 C 365.03125 11.46875 365 11.347656 365 11.203125 C 365 11.066406 365.03125 10.953125 365.09375 10.859375 C 365.15625 10.765625 365.238281 10.71875 365.34375 10.71875 Z M 367.234375 14.265625 L 368.453125 14.265625 C 369.066406 14.265625 369.601562 14.5 370.0625 14.96875 C 370.53125 15.4375 370.765625 15.988281 370.765625 16.625 C 370.765625 17.269531 370.535156 17.828125 370.078125 18.296875 C 369.617188 18.773438 369.078125 19.015625 368.453125 19.015625 L 367.234375 19.015625 C 366.617188 19.015625 366.078125 18.773438 365.609375 18.296875 C 365.140625 17.816406 364.90625 17.257812 364.90625 16.625 C 364.90625 16 365.140625 15.445312 365.609375 14.96875 C 366.078125 14.5 366.617188 14.265625 367.234375 14.265625 Z M 367.234375 15.265625 C 366.859375 15.265625 366.523438 15.398438 366.234375 15.671875 C 365.941406 15.941406 365.796875 16.265625 365.796875 16.640625 C 365.796875 17.015625 365.941406 17.335938 366.234375 17.609375 C 366.535156 17.878906 366.867188 18.015625 367.234375 18.015625 L 368.453125 18.015625 C 368.816406 18.015625 369.140625 17.878906 369.421875 17.609375 C 369.710938 17.335938 369.859375 17.015625 369.859375 16.640625 C 369.859375 16.265625 369.710938 15.941406 369.421875 15.671875 C 369.140625 15.398438 368.816406 15.265625 368.453125 15.265625 Z M 365.359375 20.316406 L 373.765625 20.316406 C 373.867188 20.316406 373.953125 20.363281 374.015625 20.457031 C 374.085938 20.550781 374.125 20.667969 374.125 20.816406 C 374.125 20.960938 374.085938 21.082031 374.015625 21.175781 C 373.953125 21.269531 373.867188 21.316406 373.765625 21.316406 L 365.359375 21.316406 C 365.273438 21.316406 365.191406 21.261719 365.109375 21.160156 C 365.035156 21.066406 365 20.949219 365 20.816406 C 365 20.679688 365.035156 20.558594 365.109375 20.457031 C 365.179688 20.363281 365.265625 20.316406 365.359375 20.316406 Z M 367.234375 22.617188 L 368.453125 22.617188 C 369.085938 22.617188 369.628906 22.828125 370.078125 23.257812 C 370.535156 23.683594 370.765625 24.1875 370.765625 24.773438 C 370.765625 25.136719 370.675781 25.453125 370.5 25.726562 C 370.320312 25.996094 370.101562 26.203125 369.84375 26.351562 L 373.765625 26.351562 C 373.867188 26.351562 373.953125 26.398438 374.015625 26.492188 C 374.085938 26.585938 374.125 26.703125 374.125 26.851562 C 374.125 26.996094 374.085938 27.109375 374.015625 27.195312 C 373.953125 27.289062 373.867188 27.335938 373.765625 27.335938 L 365.359375 27.335938 C 365.265625 27.335938 365.179688 27.289062 365.109375 27.195312 C 365.035156 27.101562 365 26.984375 365 26.851562 C 365 26.726562 365.035156 26.617188 365.109375 26.523438 C 365.179688 26.4375 365.265625 26.398438 365.359375 26.398438 L 365.84375 26.398438 C 365.582031 26.261719 365.359375 26.039062 365.171875 25.726562 C 364.996094 25.421875 364.90625 25.09375 364.90625 24.742188 C 364.90625 24.179688 365.140625 23.683594 365.609375 23.257812 C 366.078125 22.828125 366.617188 22.617188 367.234375 22.617188 Z M 367.234375 23.617188 C 366.867188 23.617188 366.535156 23.75 366.234375 24.023438 C 365.941406 24.292969 365.796875 24.609375 365.796875 24.976562 C 365.796875 25.328125 365.929688 25.648438 366.203125 25.929688 C 366.472656 26.210938 366.707031 26.351562 366.90625 26.351562 L 368.453125 26.351562 C 368.867188 26.351562 369.207031 26.210938 369.46875 25.929688 C 369.726562 25.65625 369.859375 25.34375 369.859375 24.992188 C 369.859375 24.617188 369.710938 24.292969 369.421875 24.023438 C 369.140625 23.75 368.816406 23.617188 368.453125 23.617188 Z M 365.359375 28.917969 L 373.40625 28.917969 C 373.519531 28.917969 373.609375 28.957031 373.671875 29.042969 C 373.734375 29.136719 373.765625 29.246094 373.765625 29.371094 L 373.765625 33.636719 C 373.765625 33.75 373.722656 33.832031 373.640625 33.886719 C 373.554688 33.949219 373.453125 33.980469 373.328125 33.980469 C 373.203125 33.980469 373.09375 33.949219 373 33.886719 C 372.90625 33.824219 372.859375 33.738281 372.859375 33.636719 L 372.859375 29.917969 L 369.8125 29.917969 L 369.8125 31.792969 C 369.8125 31.894531 369.769531 31.980469 369.6875 32.042969 C 369.601562 32.105469 369.5 32.136719 369.375 32.136719 C 369.269531 32.136719 369.175781 32.105469 369.09375 32.042969 C 369.007812 31.988281 368.96875 31.90625 368.96875 31.792969 L 368.96875 29.917969 L 365.90625 29.917969 L 365.90625 33.636719 C 365.90625 33.738281 365.859375 33.824219 365.765625 33.886719 C 365.679688 33.949219 365.570312 33.980469 365.4375 33.980469 C 365.320312 33.980469 365.21875 33.949219 365.125 33.886719 C 365.039062 33.832031 365 33.75 365 33.636719 L 365 29.371094 C 365 29.246094 365.03125 29.136719 365.09375 29.042969 C 365.15625 28.957031 365.242188 28.917969 365.359375 28.917969 Z M 370.28125 34.367188 C 370.394531 34.367188 370.492188 34.433594 370.578125 34.570312 C 370.671875 34.714844 370.71875 34.859375 370.71875 35.007812 C 370.71875 35.171875 370.648438 35.28125 370.515625 35.335938 L 366.4375 36.851562 L 370.46875 38.351562 C 370.632812 38.414062 370.71875 38.523438 370.71875 38.679688 C 370.71875 38.804688 370.671875 38.9375 370.578125 39.085938 C 370.492188 39.242188 370.394531 39.320312 370.28125 39.320312 C 370.21875 39.320312 370.15625 39.304688 370.09375 39.273438 L 365.109375 37.304688 C 364.964844 37.242188 364.890625 37.089844 364.890625 36.851562 C 364.890625 36.601562 364.964844 36.445312 365.109375 36.382812 L 370.09375 34.414062 C 370.1875 34.382812 370.25 34.367188 370.28125 34.367188 Z M 367.234375 39.957031 L 368.484375 39.957031 C 369.109375 39.957031 369.644531 40.191406 370.09375 40.660156 C 370.539062 41.128906 370.765625 41.691406 370.765625 42.347656 C 370.765625 42.972656 370.550781 43.511719 370.125 43.972656 C 369.707031 44.429688 369.179688 44.660156 368.546875 44.660156 C 368.316406 44.660156 368.128906 44.628906 367.984375 44.566406 C 367.847656 44.511719 367.75 44.429688 367.6875 44.316406 C 367.632812 44.199219 367.597656 44.089844 367.578125 43.988281 C 367.566406 43.894531 367.5625 43.757812 367.5625 43.582031 L 367.5625 40.957031 L 367.203125 40.957031 C 366.753906 40.957031 366.398438 41.113281 366.140625 41.425781 C 365.878906 41.746094 365.75 42.160156 365.75 42.660156 C 365.75 42.929688 365.785156 43.160156 365.859375 43.347656 C 365.941406 43.542969 366.019531 43.699219 366.09375 43.816406 C 366.175781 43.941406 366.21875 44.039062 366.21875 44.113281 C 366.21875 44.226562 366.164062 44.320312 366.0625 44.394531 C 365.957031 44.476562 365.851562 44.519531 365.75 44.519531 C 365.570312 44.519531 365.382812 44.335938 365.1875 43.972656 C 365 43.605469 364.90625 43.160156 364.90625 42.628906 C 364.90625 41.847656 365.117188 41.207031 365.546875 40.707031 C 365.972656 40.207031 366.535156 39.957031 367.234375 39.957031 Z M 368.234375 40.957031 L 368.234375 43.175781 C 368.234375 43.382812 368.257812 43.523438 368.3125 43.597656 C 368.363281 43.667969 368.460938 43.707031 368.609375 43.707031 C 368.972656 43.707031 369.289062 43.570312 369.5625 43.300781 C 369.832031 43.039062 369.96875 42.722656 369.96875 42.347656 C 369.96875 41.960938 369.84375 41.632812 369.59375 41.363281 C 369.34375 41.089844 369.03125 40.957031 368.65625 40.957031 Z M 365.359375 45.753906 L 370.34375 45.753906 C 370.445312 45.753906 370.53125 45.800781 370.59375 45.894531 C 370.65625 45.988281 370.6875 46.105469 370.6875 46.253906 C 370.6875 46.378906 370.65625 46.480469 370.59375 46.566406 C 370.53125 46.660156 370.445312 46.707031 370.34375 46.707031 L 369.78125 46.707031 C 370.050781 46.851562 370.28125 47.066406 370.46875 47.347656 C 370.664062 47.628906 370.765625 47.941406 370.765625 48.285156 L 370.765625 48.691406 C 370.765625 48.792969 370.71875 48.882812 370.625 48.957031 C 370.53125 49.027344 370.421875 49.066406 370.296875 49.066406 C 370.179688 49.066406 370.078125 49.027344 369.984375 48.957031 C 369.898438 48.882812 369.859375 48.792969 369.859375 48.691406 L 369.859375 48.285156 C 369.859375 47.867188 369.691406 47.507812 369.359375 47.207031 C 369.035156 46.902344 368.613281 46.753906 368.09375 46.753906 L 365.359375 46.753906 C 365.273438 46.753906 365.191406 46.699219 365.109375 46.597656 C 365.035156 46.503906 365 46.386719 365 46.253906 C 365 46.117188 365.035156 45.996094 365.109375 45.894531 C 365.179688 45.800781 365.265625 45.753906 365.359375 45.753906 Z M 370.28125 49.320312 C 370.40625 49.320312 370.515625 49.390625 370.609375 49.539062 C 370.710938 49.683594 370.765625 49.828125 370.765625 49.976562 C 370.765625 50.140625 370.695312 50.246094 370.5625 50.289062 L 366.375 51.882812 L 370.5625 53.304688 C 370.695312 53.367188 370.765625 53.46875 370.765625 53.617188 C 370.765625 53.75 370.710938 53.890625 370.609375 54.039062 C 370.515625 54.195312 370.398438 54.273438 370.265625 54.273438 C 370.222656 54.273438 370.179688 54.257812 370.140625 54.226562 L 365.265625 52.414062 L 364.65625 52.179688 C 364.554688 52.136719 364.367188 52.054688 364.09375 51.929688 C 363.824219 51.8125 363.625 51.714844 363.5 51.632812 C 363.375 51.558594 363.21875 51.449219 363.03125 51.304688 C 362.835938 51.15625 362.695312 51.015625 362.609375 50.882812 C 362.515625 50.746094 362.433594 50.585938 362.359375 50.398438 C 362.289062 50.210938 362.25 50.011719 362.25 49.804688 C 362.25 49.492188 362.402344 49.335938 362.703125 49.335938 C 362.984375 49.335938 363.125 49.429688 363.125 49.617188 C 363.125 49.980469 363.328125 50.328125 363.734375 50.664062 C 364.140625 51.007812 364.65625 51.242188 365.28125 51.367188 L 370.140625 49.367188 C 370.191406 49.335938 370.238281 49.320312 370.28125 49.320312 Z M 365.09375 57.605469 L 373.875 57.605469 C 373.976562 57.605469 374.0625 57.652344 374.125 57.746094 C 374.1875 57.839844 374.21875 57.941406 374.21875 58.058594 L 374.21875 60.027344 C 374.21875 60.128906 374.171875 60.214844 374.078125 60.277344 C 373.992188 60.339844 373.890625 60.371094 373.765625 60.371094 C 373.640625 60.371094 373.53125 60.339844 373.4375 60.277344 C 373.351562 60.214844 373.3125 60.128906 373.3125 60.027344 L 373.3125 58.605469 L 365.640625 58.605469 L 365.640625 60.027344 C 365.640625 60.128906 365.597656 60.214844 365.515625 60.277344 C 365.429688 60.339844 365.320312 60.371094 365.1875 60.371094 C 365.070312 60.371094 364.976562 60.339844 364.890625 60.277344 C 364.796875 60.214844 364.75 60.128906 364.75 60.027344 L 364.75 58.058594 C 364.75 57.941406 364.78125 57.839844 364.84375 57.746094 C 364.90625 57.652344 364.992188 57.605469 365.09375 57.605469 Z M 366.96875 60.90625 C 367.15625 60.90625 367.28125 60.9375 367.34375 61 C 367.40625 61.070312 367.4375 61.195312 367.4375 61.375 C 367.4375 61.5625 367.40625 61.691406 367.34375 61.765625 C 367.28125 61.847656 367.179688 61.890625 367.046875 61.890625 C 366.734375 61.890625 366.453125 62.019531 366.203125 62.28125 C 365.960938 62.539062 365.84375 62.9375 365.84375 63.46875 C 365.84375 64.53125 366.394531 65.0625 367.5 65.0625 L 367.71875 65.0625 C 368.695312 65.0625 369.1875 64.53125 369.1875 63.46875 C 369.1875 63.226562 369.328125 63.109375 369.609375 63.109375 C 369.890625 63.109375 370.03125 63.226562 370.03125 63.46875 C 370.03125 63.925781 370.132812 64.269531 370.34375 64.5 C 370.550781 64.738281 370.925781 64.859375 371.46875 64.859375 C 372.40625 64.859375 372.875 64.410156 372.875 63.515625 C 372.875 62.992188 372.757812 62.628906 372.53125 62.421875 C 372.300781 62.210938 372.03125 62.109375 371.71875 62.109375 C 371.425781 62.109375 371.28125 61.945312 371.28125 61.625 C 371.28125 61.40625 371.3125 61.257812 371.375 61.1875 C 371.445312 61.125 371.582031 61.09375 371.78125 61.09375 C 371.988281 61.09375 372.195312 61.128906 372.40625 61.203125 C 372.625 61.285156 372.835938 61.410156 373.046875 61.578125 C 373.253906 61.742188 373.425781 61.992188 373.5625 62.328125 C 373.695312 62.671875 373.765625 63.070312 373.765625 63.53125 C 373.765625 65.0625 373.054688 65.828125 371.640625 65.828125 C 371.140625 65.828125 370.710938 65.738281 370.359375 65.5625 C 370.015625 65.382812 369.769531 65.148438 369.625 64.859375 C 369.300781 65.671875 368.664062 66.078125 367.71875 66.078125 L 367.5 66.078125 C 366.613281 66.078125 365.960938 65.835938 365.546875 65.359375 C 365.128906 64.878906 364.921875 64.25 364.921875 63.46875 C 364.921875 62.632812 365.128906 62 365.546875 61.5625 C 365.972656 61.125 366.445312 60.90625 366.96875 60.90625 Z M 365.546875 66.992188 C 365.722656 66.992188 365.875 67.046875 366 67.164062 C 366.125 67.277344 366.1875 67.421875 366.1875 67.601562 C 366.1875 67.765625 366.125 67.914062 366 68.039062 C 365.882812 68.164062 365.734375 68.226562 365.546875 68.226562 C 365.410156 68.226562 364.929688 68.054688 364.09375 67.710938 C 363.992188 67.65625 363.9375 67.570312 363.9375 67.445312 C 363.9375 67.351562 363.964844 67.265625 364.015625 67.195312 C 364.070312 67.132812 364.136719 67.101562 364.21875 67.101562 C 364.273438 67.101562 364.320312 67.105469 364.359375 67.117188 L 364.96875 67.367188 C 365.070312 67.117188 365.265625 66.992188 365.546875 66.992188 Z M 367 68.964844 C 367.320312 68.964844 367.484375 69.128906 367.484375 69.464844 C 367.484375 69.808594 367.347656 69.980469 367.078125 69.980469 C 366.691406 69.980469 366.390625 70.125 366.171875 70.417969 C 365.953125 70.71875 365.84375 71.09375 365.84375 71.542969 C 365.84375 72.050781 365.984375 72.441406 366.265625 72.714844 C 366.546875 72.996094 366.960938 73.136719 367.515625 73.136719 L 367.75 73.136719 C 368.289062 73.136719 368.695312 72.996094 368.96875 72.714844 C 369.25 72.441406 369.390625 72.058594 369.390625 71.558594 L 369.390625 69.855469 C 369.390625 69.542969 369.519531 69.386719 369.78125 69.386719 C 369.863281 69.386719 369.953125 69.394531 370.046875 69.417969 L 373.40625 69.667969 C 373.644531 69.675781 373.765625 69.765625 373.765625 69.933594 L 373.765625 73.386719 C 373.765625 73.488281 373.71875 73.566406 373.625 73.621094 C 373.539062 73.683594 373.4375 73.714844 373.3125 73.714844 C 373.195312 73.714844 373.09375 73.683594 373 73.621094 C 372.90625 73.566406 372.859375 73.488281 372.859375 73.386719 L 372.859375 70.542969 L 370.234375 70.355469 L 370.234375 71.558594 C 370.234375 72.339844 370.03125 72.964844 369.625 73.433594 C 369.226562 73.902344 368.601562 74.136719 367.75 74.136719 L 367.515625 74.136719 C 366.628906 74.136719 365.972656 73.902344 365.546875 73.433594 C 365.128906 72.964844 364.921875 72.339844 364.921875 71.558594 C 364.921875 70.753906 365.125 70.121094 365.53125 69.652344 C 365.9375 69.191406 366.425781 68.964844 367 68.964844 Z M 365.1875 74.707031 C 365.320312 74.707031 365.429688 74.738281 365.515625 74.800781 C 365.597656 74.863281 365.640625 74.945312 365.640625 75.050781 L 365.640625 76.472656 L 373.3125 76.472656 L 373.3125 75.050781 C 373.3125 74.945312 373.351562 74.863281 373.4375 74.800781 C 373.53125 74.738281 373.640625 74.707031 373.765625 74.707031 C 373.890625 74.707031 373.992188 74.738281 374.078125 74.800781 C 374.171875 74.863281 374.21875 74.945312 374.21875 75.050781 L 374.21875 77.019531 C 374.21875 77.144531 374.1875 77.246094 374.125 77.332031 C 374.0625 77.425781 373.976562 77.472656 373.875 77.472656 L 365.09375 77.472656 C 364.992188 77.472656 364.90625 77.425781 364.84375 77.332031 C 364.78125 77.246094 364.75 77.144531 364.75 77.019531 L 364.75 75.050781 C 364.75 74.945312 364.796875 74.863281 364.890625 74.800781 C 364.976562 74.738281 365.070312 74.707031 365.1875 74.707031 Z M 366.859375 81.34375 L 371.953125 81.34375 C 372.578125 81.34375 373.109375 81.570312 373.546875 82.03125 C 373.992188 82.5 374.21875 83.046875 374.21875 83.671875 C 374.21875 83.992188 374.066406 84.15625 373.765625 84.15625 C 373.628906 84.15625 373.519531 84.125 373.4375 84.0625 C 373.351562 84 373.3125 83.914062 373.3125 83.8125 C 373.3125 83.375 373.171875 83.019531 372.890625 82.75 C 372.617188 82.476562 372.304688 82.34375 371.953125 82.34375 L 366.859375 82.34375 C 366.421875 82.34375 366.109375 82.488281 365.921875 82.78125 C 365.742188 83.070312 365.65625 83.414062 365.65625 83.8125 C 365.65625 84.039062 365.503906 84.15625 365.203125 84.15625 C 364.914062 84.15625 364.765625 83.984375 364.765625 83.640625 C 364.765625 82.992188 364.949219 82.445312 365.3125 82 C 365.675781 81.5625 366.191406 81.34375 366.859375 81.34375 Z M 365.8125 84.734375 C 365.914062 84.734375 366.015625 84.765625 366.109375 84.828125 C 366.210938 84.898438 366.265625 84.984375 366.265625 85.078125 C 366.265625 85.140625 366.21875 85.226562 366.125 85.34375 C 366.03125 85.46875 365.9375 85.644531 365.84375 85.875 C 365.75 86.101562 365.703125 86.367188 365.703125 86.671875 C 365.703125 87.066406 365.773438 87.351562 365.921875 87.53125 C 366.066406 87.71875 366.25 87.8125 366.46875 87.8125 C 366.726562 87.8125 366.9375 87.707031 367.09375 87.5 C 367.25 87.300781 367.363281 87.054688 367.4375 86.765625 C 367.519531 86.484375 367.609375 86.195312 367.703125 85.90625 C 367.804688 85.625 367.96875 85.378906 368.1875 85.171875 C 368.414062 84.972656 368.710938 84.875 369.078125 84.875 C 369.535156 84.875 369.929688 85.035156 370.265625 85.359375 C 370.597656 85.679688 370.765625 86.175781 370.765625 86.84375 C 370.765625 87.269531 370.695312 87.65625 370.5625 88 C 370.425781 88.351562 370.273438 88.53125 370.109375 88.53125 C 370.015625 88.53125 369.90625 88.492188 369.78125 88.421875 C 369.664062 88.347656 369.609375 88.253906 369.609375 88.140625 C 369.609375 88.109375 369.664062 87.953125 369.78125 87.671875 C 369.894531 87.398438 369.953125 87.128906 369.953125 86.859375 C 369.953125 86.492188 369.863281 86.21875 369.6875 86.03125 C 369.519531 85.851562 369.328125 85.765625 369.109375 85.765625 C 368.890625 85.765625 368.710938 85.863281 368.578125 86.0625 C 368.453125 86.257812 368.351562 86.503906 368.28125 86.796875 C 368.21875 87.097656 368.132812 87.390625 368.03125 87.671875 C 367.925781 87.960938 367.742188 88.207031 367.484375 88.40625 C 367.234375 88.601562 366.910156 88.703125 366.515625 88.703125 C 366.015625 88.703125 365.617188 88.523438 365.328125 88.171875 C 365.046875 87.828125 364.90625 87.335938 364.90625 86.703125 C 364.90625 86.160156 365 85.695312 365.1875 85.3125 C 365.382812 84.925781 365.59375 84.734375 365.8125 84.734375 Z M 365.359375 89.894531 L 373.765625 89.894531 C 373.867188 89.894531 373.953125 89.941406 374.015625 90.035156 C 374.085938 90.128906 374.125 90.246094 374.125 90.394531 C 374.125 90.539062 374.085938 90.660156 374.015625 90.753906 C 373.953125 90.847656 373.867188 90.894531 373.765625 90.894531 L 365.359375 90.894531 C 365.273438 90.894531 365.191406 90.839844 365.109375 90.738281 C 365.035156 90.644531 365 90.527344 365 90.394531 C 365 90.257812 365.035156 90.136719 365.109375 90.035156 C 365.179688 89.941406 365.265625 89.894531 365.359375 89.894531 Z M 367.234375 92.191406 L 368.453125 92.191406 C 369.066406 92.191406 369.601562 92.425781 370.0625 92.894531 C 370.53125 93.363281 370.765625 93.914062 370.765625 94.550781 C 370.765625 95.195312 370.535156 95.753906 370.078125 96.222656 C 369.617188 96.699219 369.078125 96.941406 368.453125 96.941406 L 367.234375 96.941406 C 366.617188 96.941406 366.078125 96.699219 365.609375 96.222656 C 365.140625 95.742188 364.90625 95.183594 364.90625 94.550781 C 364.90625 93.925781 365.140625 93.371094 365.609375 92.894531 C 366.078125 92.425781 366.617188 92.191406 367.234375 92.191406 Z M 367.234375 93.191406 C 366.859375 93.191406 366.523438 93.324219 366.234375 93.597656 C 365.941406 93.867188 365.796875 94.191406 365.796875 94.566406 C 365.796875 94.941406 365.941406 95.261719 366.234375 95.535156 C 366.535156 95.804688 366.867188 95.941406 367.234375 95.941406 L 368.453125 95.941406 C 368.816406 95.941406 369.140625 95.804688 369.421875 95.535156 C 369.710938 95.261719 369.859375 94.941406 369.859375 94.566406 C 369.859375 94.191406 369.710938 93.867188 369.421875 93.597656 C 369.140625 93.324219 368.816406 93.191406 368.453125 93.191406 Z M 370.28125 97.605469 C 370.394531 97.605469 370.492188 97.667969 370.578125 97.792969 C 370.671875 97.925781 370.71875 98.066406 370.71875 98.214844 C 370.71875 98.378906 370.648438 98.488281 370.515625 98.542969 L 366.484375 99.996094 L 370.125 101.121094 C 370.28125 101.171875 370.359375 101.296875 370.359375 101.496094 C 370.359375 101.691406 370.28125 101.816406 370.125 101.871094 L 366.453125 102.980469 L 370.515625 104.449219 C 370.648438 104.480469 370.71875 104.578125 370.71875 104.746094 C 370.71875 104.890625 370.671875 105.03125 370.578125 105.167969 C 370.492188 105.300781 370.394531 105.371094 370.28125 105.371094 C 370.21875 105.371094 370.15625 105.355469 370.09375 105.324219 L 365.109375 103.464844 C 364.964844 103.402344 364.890625 103.265625 364.890625 103.058594 C 364.890625 102.839844 364.964844 102.703125 365.109375 102.652344 L 368.640625 101.496094 L 365.140625 100.355469 C 364.976562 100.292969 364.890625 100.144531 364.890625 99.917969 C 364.890625 99.707031 364.976562 99.574219 365.140625 99.511719 L 370.09375 97.652344 C 370.1875 97.621094 370.25 97.605469 370.28125 97.605469 Z M 365.359375 108.324219 L 366.53125 108.324219 C 366.882812 108.324219 367.234375 108.457031 367.578125 108.730469 C 367.929688 109.011719 368.25 109.34375 368.53125 109.730469 L 369.390625 110.902344 C 369.671875 111.285156 369.984375 111.613281 370.328125 111.886719 C 370.679688 112.167969 371.035156 112.308594 371.390625 112.308594 C 371.773438 112.308594 372.113281 112.183594 372.40625 111.933594 C 372.695312 111.683594 372.84375 111.324219 372.84375 110.855469 C 372.84375 110.449219 372.726562 110.121094 372.5 109.871094 C 372.269531 109.621094 371.945312 109.496094 371.53125 109.496094 C 371.425781 109.496094 371.332031 109.441406 371.25 109.339844 C 371.164062 109.246094 371.125 109.121094 371.125 108.964844 C 371.125 108.660156 371.320312 108.511719 371.71875 108.511719 C 372.320312 108.511719 372.8125 108.734375 373.1875 109.183594 C 373.570312 109.640625 373.765625 110.199219 373.765625 110.855469 C 373.765625 111.550781 373.539062 112.136719 373.09375 112.605469 C 372.65625 113.082031 372.101562 113.324219 371.4375 113.324219 C 371.03125 113.324219 370.644531 113.222656 370.28125 113.027344 C 369.914062 112.828125 369.601562 112.582031 369.34375 112.292969 C 369.082031 112 368.828125 111.683594 368.578125 111.339844 L 367.890625 110.386719 C 367.691406 110.09375 367.472656 109.847656 367.234375 109.652344 C 366.992188 109.453125 366.757812 109.355469 366.53125 109.355469 L 365.90625 109.355469 L 365.90625 113.042969 C 365.90625 113.136719 365.859375 113.214844 365.765625 113.277344 C 365.679688 113.347656 365.578125 113.386719 365.453125 113.386719 C 365.335938 113.386719 365.234375 113.347656 365.140625 113.277344 C 365.046875 113.214844 365 113.136719 365 113.042969 L 365 108.777344 C 365 108.671875 365.03125 108.566406 365.09375 108.464844 C 365.164062 108.371094 365.253906 108.324219 365.359375 108.324219 Z M 365.203125 113.960938 C 365.503906 113.960938 365.65625 114.074219 365.65625 114.304688 C 365.65625 114.699219 365.742188 115.042969 365.921875 115.335938 C 366.109375 115.625 366.421875 115.773438 366.859375 115.773438 L 371.953125 115.773438 C 372.304688 115.773438 372.617188 115.636719 372.890625 115.367188 C 373.171875 115.09375 373.3125 114.742188 373.3125 114.304688 C 373.3125 114.199219 373.351562 114.117188 373.4375 114.054688 C 373.519531 113.992188 373.628906 113.960938 373.765625 113.960938 C 374.066406 113.960938 374.21875 114.121094 374.21875 114.445312 C 374.21875 115.070312 373.992188 115.609375 373.546875 116.070312 C 373.109375 116.539062 372.578125 116.773438 371.953125 116.773438 L 366.859375 116.773438 C 366.191406 116.773438 365.675781 116.546875 365.3125 116.101562 C 364.949219 115.664062 364.765625 115.117188 364.765625 114.460938 C 364.765625 114.125 364.914062 113.960938 365.203125 113.960938 Z M 366.375 120.28125 C 366.507812 120.28125 366.632812 120.328125 366.75 120.421875 C 366.875 120.515625 366.9375 120.613281 366.9375 120.71875 C 366.9375 120.78125 366.882812 120.867188 366.78125 120.984375 C 366.6875 121.097656 366.582031 121.210938 366.46875 121.328125 C 366.351562 121.441406 366.242188 121.625 366.140625 121.875 C 366.046875 122.125 365.988281 122.40625 365.96875 122.71875 L 369.15625 122.71875 L 369.40625 122.0625 C 369.457031 121.914062 369.550781 121.722656 369.6875 121.484375 C 369.820312 121.242188 369.957031 121.066406 370.09375 120.953125 C 370.238281 120.835938 370.429688 120.734375 370.671875 120.640625 C 370.910156 120.546875 371.175781 120.5 371.46875 120.5 C 371.832031 120.5 372.148438 120.5625 372.421875 120.6875 C 372.703125 120.8125 372.921875 120.984375 373.078125 121.203125 C 373.234375 121.429688 373.351562 121.664062 373.4375 121.90625 C 373.519531 122.15625 373.578125 122.425781 373.609375 122.71875 L 373.96875 122.71875 C 374.03125 122.71875 374.085938 122.742188 374.140625 122.796875 C 374.191406 122.859375 374.21875 122.9375 374.21875 123.03125 C 374.21875 123.101562 374.191406 123.171875 374.140625 123.234375 C 374.085938 123.304688 374.03125 123.34375 373.96875 123.34375 L 373.625 123.34375 C 373.601562 123.820312 373.519531 124.253906 373.375 124.640625 C 373.238281 125.035156 373.0625 125.234375 372.84375 125.234375 C 372.726562 125.234375 372.601562 125.191406 372.46875 125.109375 C 372.34375 125.035156 372.28125 124.929688 372.28125 124.796875 C 372.28125 124.765625 372.347656 124.597656 372.484375 124.296875 C 372.628906 124.003906 372.710938 123.6875 372.734375 123.34375 L 369.984375 123.34375 C 369.878906 123.65625 369.769531 123.910156 369.65625 124.109375 C 369.550781 124.316406 369.40625 124.535156 369.21875 124.765625 C 369.03125 124.992188 368.789062 125.164062 368.5 125.28125 C 368.207031 125.394531 367.863281 125.453125 367.46875 125.453125 C 366.769531 125.453125 366.210938 125.257812 365.796875 124.875 C 365.390625 124.5 365.144531 123.988281 365.0625 123.34375 L 364.625 123.34375 C 364.5625 123.34375 364.507812 123.304688 364.453125 123.234375 C 364.402344 123.171875 364.375 123.101562 364.375 123.03125 C 364.375 122.9375 364.402344 122.859375 364.453125 122.796875 C 364.507812 122.742188 364.5625 122.71875 364.625 122.71875 L 365.03125 122.71875 C 365.03125 122.03125 365.179688 121.453125 365.484375 120.984375 C 365.796875 120.515625 366.09375 120.28125 366.375 120.28125 Z M 371.5625 121.453125 C 371.1875 121.453125 370.90625 121.5625 370.71875 121.78125 C 370.53125 122 370.359375 122.328125 370.203125 122.765625 L 372.71875 122.765625 C 372.625 121.890625 372.238281 121.453125 371.5625 121.453125 Z M 366 123.296875 C 366.125 124.085938 366.582031 124.484375 367.375 124.484375 C 367.789062 124.484375 368.113281 124.378906 368.34375 124.171875 C 368.582031 123.972656 368.78125 123.679688 368.9375 123.296875 Z M 367.234375 128.816406 L 368.453125 128.816406 C 369.085938 128.816406 369.628906 129.027344 370.078125 129.457031 C 370.535156 129.882812 370.765625 130.386719 370.765625 130.972656 C 370.765625 131.335938 370.675781 131.652344 370.5 131.925781 C 370.320312 132.195312 370.101562 132.402344 369.84375 132.550781 L 373.765625 132.550781 C 373.867188 132.550781 373.953125 132.597656 374.015625 132.691406 C 374.085938 132.785156 374.125 132.902344 374.125 133.050781 C 374.125 133.195312 374.085938 133.308594 374.015625 133.394531 C 373.953125 133.488281 373.867188 133.535156 373.765625 133.535156 L 365.359375 133.535156 C 365.265625 133.535156 365.179688 133.488281 365.109375 133.394531 C 365.035156 133.300781 365 133.183594 365 133.050781 C 365 132.925781 365.035156 132.816406 365.109375 132.722656 C 365.179688 132.636719 365.265625 132.597656 365.359375 132.597656 L 365.84375 132.597656 C 365.582031 132.460938 365.359375 132.238281 365.171875 131.925781 C 364.996094 131.621094 364.90625 131.292969 364.90625 130.941406 C 364.90625 130.378906 365.140625 129.882812 365.609375 129.457031 C 366.078125 129.027344 366.617188 128.816406 367.234375 128.816406 Z M 367.234375 129.816406 C 366.867188 129.816406 366.535156 129.949219 366.234375 130.222656 C 365.941406 130.492188 365.796875 130.808594 365.796875 131.175781 C 365.796875 131.527344 365.929688 131.847656 366.203125 132.128906 C 366.472656 132.410156 366.707031 132.550781 366.90625 132.550781 L 368.453125 132.550781 C 368.867188 132.550781 369.207031 132.410156 369.46875 132.128906 C 369.726562 131.855469 369.859375 131.542969 369.859375 131.191406 C 369.859375 130.816406 369.710938 130.492188 369.421875 130.222656 C 369.140625 129.949219 368.816406 129.816406 368.453125 129.816406 Z M 367.234375 134.746094 L 368.484375 134.746094 C 369.109375 134.746094 369.644531 134.980469 370.09375 135.449219 C 370.539062 135.917969 370.765625 136.480469 370.765625 137.136719 C 370.765625 137.761719 370.550781 138.300781 370.125 138.761719 C 369.707031 139.21875 369.179688 139.449219 368.546875 139.449219 C 368.316406 139.449219 368.128906 139.417969 367.984375 139.355469 C 367.847656 139.300781 367.75 139.21875 367.6875 139.105469 C 367.632812 138.988281 367.597656 138.878906 367.578125 138.777344 C 367.566406 138.683594 367.5625 138.546875 367.5625 138.371094 L 367.5625 135.746094 L 367.203125 135.746094 C 366.753906 135.746094 366.398438 135.902344 366.140625 136.214844 C 365.878906 136.535156 365.75 136.949219 365.75 137.449219 C 365.75 137.71875 365.785156 137.949219 365.859375 138.136719 C 365.941406 138.332031 366.019531 138.488281 366.09375 138.605469 C 366.175781 138.730469 366.21875 138.828125 366.21875 138.902344 C 366.21875 139.015625 366.164062 139.109375 366.0625 139.183594 C 365.957031 139.265625 365.851562 139.308594 365.75 139.308594 C 365.570312 139.308594 365.382812 139.125 365.1875 138.761719 C 365 138.394531 364.90625 137.949219 364.90625 137.417969 C 364.90625 136.636719 365.117188 135.996094 365.546875 135.496094 C 365.972656 134.996094 366.535156 134.746094 367.234375 134.746094 Z M 368.234375 135.746094 L 368.234375 137.964844 C 368.234375 138.171875 368.257812 138.3125 368.3125 138.386719 C 368.363281 138.457031 368.460938 138.496094 368.609375 138.496094 C 368.972656 138.496094 369.289062 138.359375 369.5625 138.089844 C 369.832031 137.828125 369.96875 137.511719 369.96875 137.136719 C 369.96875 136.75 369.84375 136.421875 369.59375 136.152344 C 369.34375 135.878906 369.03125 135.746094 368.65625 135.746094 Z M 365.359375 140.542969 L 370.34375 140.542969 C 370.445312 140.542969 370.53125 140.589844 370.59375 140.683594 C 370.65625 140.777344 370.6875 140.894531 370.6875 141.042969 C 370.6875 141.15625 370.648438 141.261719 370.578125 141.355469 C 370.515625 141.449219 370.4375 141.496094 370.34375 141.496094 L 369.84375 141.496094 C 370.101562 141.621094 370.320312 141.824219 370.5 142.105469 C 370.675781 142.394531 370.765625 142.730469 370.765625 143.105469 C 370.765625 143.667969 370.535156 144.15625 370.078125 144.574219 C 369.628906 145 369.085938 145.214844 368.453125 145.214844 L 365.359375 145.214844 C 365.242188 145.214844 365.15625 145.160156 365.09375 145.058594 C 365.03125 144.964844 365 144.847656 365 144.714844 C 365 144.589844 365.03125 144.472656 365.09375 144.371094 C 365.15625 144.265625 365.242188 144.214844 365.359375 144.214844 L 368.453125 144.214844 C 368.816406 144.214844 369.140625 144.078125 369.421875 143.808594 C 369.710938 143.535156 369.859375 143.21875 369.859375 142.855469 C 369.859375 142.511719 369.726562 142.203125 369.46875 141.933594 C 369.207031 141.671875 368.867188 141.542969 368.453125 141.542969 L 365.359375 141.542969 C 365.273438 141.542969 365.191406 141.488281 365.109375 141.386719 C 365.035156 141.28125 365 141.167969 365 141.042969 C 365 140.90625 365.035156 140.785156 365.109375 140.683594 C 365.179688 140.589844 365.265625 140.542969 365.359375 140.542969 Z M 365.8125 146.238281 C 365.914062 146.238281 366.015625 146.269531 366.109375 146.332031 C 366.210938 146.402344 366.265625 146.488281 366.265625 146.582031 C 366.265625 146.644531 366.21875 146.730469 366.125 146.847656 C 366.03125 146.972656 365.9375 147.148438 365.84375 147.378906 C 365.75 147.605469 365.703125 147.871094 365.703125 148.175781 C 365.703125 148.570312 365.773438 148.855469 365.921875 149.035156 C 366.066406 149.222656 366.25 149.316406 366.46875 149.316406 C 366.726562 149.316406 366.9375 149.210938 367.09375 149.003906 C 367.25 148.804688 367.363281 148.558594 367.4375 148.269531 C 367.519531 147.988281 367.609375 147.699219 367.703125 147.410156 C 367.804688 147.128906 367.96875 146.882812 368.1875 146.675781 C 368.414062 146.476562 368.710938 146.378906 369.078125 146.378906 C 369.535156 146.378906 369.929688 146.539062 370.265625 146.863281 C 370.597656 147.183594 370.765625 147.679688 370.765625 148.347656 C 370.765625 148.773438 370.695312 149.160156 370.5625 149.503906 C 370.425781 149.855469 370.273438 150.035156 370.109375 150.035156 C 370.015625 150.035156 369.90625 149.996094 369.78125 149.925781 C 369.664062 149.851562 369.609375 149.757812 369.609375 149.644531 C 369.609375 149.613281 369.664062 149.457031 369.78125 149.175781 C 369.894531 148.902344 369.953125 148.632812 369.953125 148.363281 C 369.953125 147.996094 369.863281 147.722656 369.6875 147.535156 C 369.519531 147.355469 369.328125 147.269531 369.109375 147.269531 C 368.890625 147.269531 368.710938 147.367188 368.578125 147.566406 C 368.453125 147.761719 368.351562 148.007812 368.28125 148.300781 C 368.21875 148.601562 368.132812 148.894531 368.03125 149.175781 C 367.925781 149.464844 367.742188 149.710938 367.484375 149.910156 C 367.234375 150.105469 366.910156 150.207031 366.515625 150.207031 C 366.015625 150.207031 365.617188 150.027344 365.328125 149.675781 C 365.046875 149.332031 364.90625 148.839844 364.90625 148.207031 C 364.90625 147.664062 365 147.199219 365.1875 146.816406 C 365.382812 146.429688 365.59375 146.238281 365.8125 146.238281 Z M 372.421875 151.347656 C 372.535156 151.222656 372.664062 151.160156 372.8125 151.160156 C 372.96875 151.160156 373.101562 151.214844 373.21875 151.332031 C 373.332031 151.457031 373.390625 151.605469 373.390625 151.785156 C 373.390625 151.949219 373.332031 152.089844 373.21875 152.207031 C 373.101562 152.332031 372.96875 152.394531 372.8125 152.394531 C 372.664062 152.394531 372.535156 152.332031 372.421875 152.207031 C 372.304688 152.089844 372.25 151.949219 372.25 151.785156 C 372.25 151.617188 372.304688 151.472656 372.421875 151.347656 Z M 365.359375 151.285156 L 370.34375 151.285156 C 370.445312 151.285156 370.53125 151.332031 370.59375 151.425781 C 370.65625 151.527344 370.6875 151.648438 370.6875 151.785156 C 370.6875 151.929688 370.65625 152.050781 370.59375 152.144531 C 370.53125 152.238281 370.445312 152.285156 370.34375 152.285156 L 365.359375 152.285156 C 365.273438 152.285156 365.191406 152.230469 365.109375 152.128906 C 365.035156 152.035156 365 151.917969 365 151.785156 C 365 151.648438 365.035156 151.527344 365.109375 151.425781 C 365.179688 151.332031 365.265625 151.285156 365.359375 151.285156 Z M 366.8125 153.679688 L 372.984375 153.679688 C 373.085938 153.679688 373.171875 153.730469 373.234375 153.835938 C 373.304688 153.9375 373.34375 154.046875 373.34375 154.164062 C 373.34375 154.296875 373.304688 154.417969 373.234375 154.523438 C 373.171875 154.625 373.085938 154.679688 372.984375 154.679688 L 370.6875 154.679688 L 370.6875 156.179688 C 370.6875 156.273438 370.644531 156.34375 370.5625 156.398438 C 370.488281 156.449219 370.398438 156.476562 370.296875 156.476562 C 370.191406 156.476562 370.097656 156.449219 370.015625 156.398438 C 369.941406 156.34375 369.90625 156.273438 369.90625 156.179688 L 369.90625 154.679688 L 366.8125 154.679688 C 366.46875 154.679688 366.222656 154.75 366.078125 154.898438 C 365.941406 155.042969 365.875 155.296875 365.875 155.664062 L 365.875 156.039062 C 365.875 156.171875 365.832031 156.277344 365.75 156.351562 C 365.664062 156.433594 365.5625 156.476562 365.4375 156.476562 C 365.320312 156.476562 365.21875 156.433594 365.125 156.351562 C 365.039062 156.265625 365 156.164062 365 156.039062 L 365 155.664062 C 365 154.339844 365.601562 153.679688 366.8125 153.679688 Z M 370.28125 156.855469 C 370.40625 156.855469 370.515625 156.925781 370.609375 157.074219 C 370.710938 157.21875 370.765625 157.363281 370.765625 157.511719 C 370.765625 157.675781 370.695312 157.78125 370.5625 157.824219 L 366.375 159.417969 L 370.5625 160.839844 C 370.695312 160.902344 370.765625 161.003906 370.765625 161.152344 C 370.765625 161.285156 370.710938 161.425781 370.609375 161.574219 C 370.515625 161.730469 370.398438 161.808594 370.265625 161.808594 C 370.222656 161.808594 370.179688 161.792969 370.140625 161.761719 L 365.265625 159.949219 L 364.65625 159.714844 C 364.554688 159.671875 364.367188 159.589844 364.09375 159.464844 C 363.824219 159.347656 363.625 159.25 363.5 159.167969 C 363.375 159.09375 363.21875 158.984375 363.03125 158.839844 C 362.835938 158.691406 362.695312 158.550781 362.609375 158.417969 C 362.515625 158.28125 362.433594 158.121094 362.359375 157.933594 C 362.289062 157.746094 362.25 157.546875 362.25 157.339844 C 362.25 157.027344 362.402344 156.871094 362.703125 156.871094 C 362.984375 156.871094 363.125 156.964844 363.125 157.152344 C 363.125 157.515625 363.328125 157.863281 363.734375 158.199219 C 364.140625 158.542969 364.65625 158.777344 365.28125 158.902344 L 370.140625 156.902344 C 370.191406 156.871094 370.238281 156.855469 370.28125 156.855469 Z M 371.90625 164.464844 C 372.070312 164.464844 372.207031 164.535156 372.3125 164.683594 L 373.625 165.777344 C 373.726562 165.878906 373.78125 165.984375 373.78125 166.089844 C 373.78125 166.203125 373.75 166.308594 373.6875 166.402344 C 373.625 166.496094 373.535156 166.542969 373.421875 166.542969 L 365.359375 166.542969 C 365.242188 166.542969 365.15625 166.488281 365.09375 166.386719 C 365.03125 166.292969 365 166.171875 365 166.027344 C 365 165.890625 365.03125 165.769531 365.09375 165.667969 C 365.15625 165.574219 365.242188 165.527344 365.359375 165.527344 L 372.265625 165.527344 L 371.609375 165.089844 C 371.523438 165.003906 371.484375 164.921875 371.484375 164.839844 C 371.484375 164.734375 371.523438 164.644531 371.609375 164.574219 C 371.691406 164.5 371.789062 164.464844 371.90625 164.464844 Z M 367.546875 167.988281 L 371.15625 167.988281 C 372.0625 167.988281 372.722656 168.226562 373.140625 168.707031 C 373.554688 169.183594 373.765625 169.820312 373.765625 170.613281 C 373.765625 171.414062 373.554688 172.039062 373.140625 172.488281 C 372.734375 172.933594 372.25 173.160156 371.6875 173.160156 C 371.382812 173.160156 371.234375 173.003906 371.234375 172.691406 C 371.234375 172.347656 371.367188 172.175781 371.640625 172.175781 C 372.003906 172.175781 372.296875 172.023438 372.515625 171.722656 C 372.742188 171.417969 372.859375 171.042969 372.859375 170.597656 C 372.859375 169.535156 372.289062 169.003906 371.15625 169.003906 L 369.46875 169.003906 C 369.96875 169.386719 370.21875 169.972656 370.21875 170.753906 C 370.21875 172.355469 369.410156 173.160156 367.796875 173.160156 L 367.546875 173.160156 C 366.640625 173.160156 365.972656 172.925781 365.546875 172.457031 C 365.128906 171.988281 364.921875 171.363281 364.921875 170.582031 C 364.921875 169.800781 365.128906 169.167969 365.546875 168.691406 C 365.972656 168.222656 366.640625 167.988281 367.546875 167.988281 Z M 367.5 169.003906 C 366.363281 169.003906 365.796875 169.527344 365.796875 170.582031 C 365.796875 171.632812 366.363281 172.160156 367.5 172.160156 L 367.75 172.160156 C 368.832031 172.160156 369.375 171.632812 369.375 170.582031 C 369.375 169.527344 368.867188 169.003906 367.859375 169.003906 Z M 366.375 176.46875 C 366.507812 176.46875 366.632812 176.515625 366.75 176.609375 C 366.875 176.703125 366.9375 176.800781 366.9375 176.90625 C 366.9375 176.96875 366.882812 177.054688 366.78125 177.171875 C 366.6875 177.285156 366.582031 177.398438 366.46875 177.515625 C 366.351562 177.628906 366.242188 177.8125 366.140625 178.0625 C 366.046875 178.3125 365.988281 178.59375 365.96875 178.90625 L 369.15625 178.90625 L 369.40625 178.25 C 369.457031 178.101562 369.550781 177.910156 369.6875 177.671875 C 369.820312 177.429688 369.957031 177.253906 370.09375 177.140625 C 370.238281 177.023438 370.429688 176.921875 370.671875 176.828125 C 370.910156 176.734375 371.175781 176.6875 371.46875 176.6875 C 371.832031 176.6875 372.148438 176.75 372.421875 176.875 C 372.703125 177 372.921875 177.171875 373.078125 177.390625 C 373.234375 177.617188 373.351562 177.851562 373.4375 178.09375 C 373.519531 178.34375 373.578125 178.613281 373.609375 178.90625 L 373.96875 178.90625 C 374.03125 178.90625 374.085938 178.929688 374.140625 178.984375 C 374.191406 179.046875 374.21875 179.125 374.21875 179.21875 C 374.21875 179.289062 374.191406 179.359375 374.140625 179.421875 C 374.085938 179.492188 374.03125 179.53125 373.96875 179.53125 L 373.625 179.53125 C 373.601562 180.007812 373.519531 180.441406 373.375 180.828125 C 373.238281 181.222656 373.0625 181.421875 372.84375 181.421875 C 372.726562 181.421875 372.601562 181.378906 372.46875 181.296875 C 372.34375 181.222656 372.28125 181.117188 372.28125 180.984375 C 372.28125 180.953125 372.347656 180.785156 372.484375 180.484375 C 372.628906 180.191406 372.710938 179.875 372.734375 179.53125 L 369.984375 179.53125 C 369.878906 179.84375 369.769531 180.097656 369.65625 180.296875 C 369.550781 180.503906 369.40625 180.722656 369.21875 180.953125 C 369.03125 181.179688 368.789062 181.351562 368.5 181.46875 C 368.207031 181.582031 367.863281 181.640625 367.46875 181.640625 C 366.769531 181.640625 366.210938 181.445312 365.796875 181.0625 C 365.390625 180.6875 365.144531 180.175781 365.0625 179.53125 L 364.625 179.53125 C 364.5625 179.53125 364.507812 179.492188 364.453125 179.421875 C 364.402344 179.359375 364.375 179.289062 364.375 179.21875 C 364.375 179.125 364.402344 179.046875 364.453125 178.984375 C 364.507812 178.929688 364.5625 178.90625 364.625 178.90625 L 365.03125 178.90625 C 365.03125 178.21875 365.179688 177.640625 365.484375 177.171875 C 365.796875 176.703125 366.09375 176.46875 366.375 176.46875 Z M 371.5625 177.640625 C 371.1875 177.640625 370.90625 177.75 370.71875 177.96875 C 370.53125 178.1875 370.359375 178.515625 370.203125 178.953125 L 372.71875 178.953125 C 372.625 178.078125 372.238281 177.640625 371.5625 177.640625 Z M 366 179.484375 C 366.125 180.273438 366.582031 180.671875 367.375 180.671875 C 367.789062 180.671875 368.113281 180.566406 368.34375 180.359375 C 368.582031 180.160156 368.78125 179.867188 368.9375 179.484375 Z M 373.921875 184.9375 C 374.003906 184.9375 374.070312 184.976562 374.125 185.0625 C 374.1875 185.15625 374.21875 185.253906 374.21875 185.359375 C 374.21875 185.472656 374.1875 185.578125 374.125 185.671875 C 374.070312 185.765625 374.003906 185.8125 373.921875 185.8125 L 372.171875 185.6875 C 372.085938 185.6875 372.015625 185.660156 371.953125 185.609375 C 371.890625 185.554688 371.859375 185.476562 371.859375 185.375 C 371.859375 185.164062 371.960938 185.0625 372.171875 185.0625 Z M 373.921875 186.5625 C 374.003906 186.5625 374.070312 186.601562 374.125 186.6875 C 374.1875 186.78125 374.21875 186.882812 374.21875 187 C 374.21875 187.113281 374.1875 187.210938 374.125 187.296875 C 374.070312 187.390625 374.003906 187.4375 373.921875 187.4375 L 372.171875 187.328125 C 372.085938 187.328125 372.015625 187.296875 371.953125 187.234375 C 371.890625 187.179688 371.859375 187.101562 371.859375 187 C 371.859375 186.789062 371.960938 186.6875 372.171875 186.6875 Z M 363.875 188.132812 C 364.460938 188.132812 364.898438 188.453125 365.1875 189.101562 C 365.332031 188.695312 365.597656 188.492188 365.984375 188.492188 C 366.347656 188.492188 366.644531 188.6875 366.875 189.085938 C 367.238281 188.636719 367.742188 188.414062 368.390625 188.414062 L 368.78125 188.414062 C 369.363281 188.414062 369.835938 188.605469 370.203125 188.992188 C 370.578125 189.386719 370.765625 189.902344 370.765625 190.539062 C 370.765625 191.078125 370.609375 191.546875 370.296875 191.945312 C 370.816406 192.183594 371.078125 192.453125 371.078125 192.757812 C 371.078125 192.890625 371.035156 192.996094 370.953125 193.070312 C 370.878906 193.152344 370.796875 193.195312 370.703125 193.195312 C 370.578125 193.195312 370.484375 193.125 370.421875 192.992188 C 370.347656 192.71875 370.179688 192.5 369.921875 192.335938 C 369.617188 192.585938 369.238281 192.710938 368.78125 192.710938 L 368.390625 192.710938 C 367.804688 192.710938 367.328125 192.507812 366.953125 192.101562 C 366.578125 191.695312 366.390625 191.171875 366.390625 190.539062 C 366.390625 190.214844 366.453125 189.917969 366.578125 189.648438 C 366.453125 189.449219 366.3125 189.351562 366.15625 189.351562 C 366.007812 189.351562 365.894531 189.445312 365.8125 189.632812 C 365.726562 189.820312 365.675781 190.046875 365.65625 190.320312 C 365.632812 190.589844 365.59375 190.882812 365.53125 191.195312 C 365.476562 191.515625 365.40625 191.8125 365.3125 192.085938 C 365.226562 192.355469 365.078125 192.585938 364.859375 192.773438 C 364.632812 192.960938 364.34375 193.054688 364 193.054688 C 363.4375 193.054688 363.007812 192.824219 362.703125 192.367188 C 362.402344 191.917969 362.25 191.335938 362.25 190.617188 C 362.25 189.898438 362.398438 189.304688 362.6875 188.835938 C 362.980469 188.367188 363.375 188.132812 363.875 188.132812 Z M 363.984375 189.085938 C 363.671875 189.085938 363.421875 189.21875 363.234375 189.492188 C 363.046875 189.773438 362.953125 190.140625 362.953125 190.601562 C 362.953125 191.046875 363.046875 191.40625 363.234375 191.679688 C 363.421875 191.949219 363.671875 192.085938 363.984375 192.085938 C 364.109375 192.085938 364.21875 192.058594 364.3125 192.007812 C 364.40625 191.964844 364.492188 191.898438 364.5625 191.804688 C 364.625 191.710938 364.679688 191.609375 364.71875 191.507812 C 364.761719 191.414062 364.796875 191.289062 364.828125 191.132812 C 364.859375 190.984375 364.882812 190.859375 364.890625 190.757812 C 364.902344 190.664062 364.917969 190.53125 364.9375 190.367188 C 364.949219 190.199219 364.960938 190.085938 364.96875 190.023438 C 364.761719 189.398438 364.433594 189.085938 363.984375 189.085938 Z M 368.390625 189.382812 C 368.003906 189.382812 367.6875 189.484375 367.4375 189.695312 C 367.195312 189.902344 367.078125 190.195312 367.078125 190.570312 C 367.078125 190.921875 367.195312 191.203125 367.4375 191.414062 C 367.6875 191.632812 368.003906 191.742188 368.390625 191.742188 L 368.78125 191.742188 C 369.144531 191.742188 369.453125 191.632812 369.703125 191.414062 C 369.953125 191.203125 370.078125 190.917969 370.078125 190.554688 C 370.078125 190.1875 369.953125 189.902344 369.703125 189.695312 C 369.460938 189.484375 369.15625 189.382812 368.78125 189.382812 Z M 365.359375 194.050781 L 370.34375 194.050781 C 370.445312 194.050781 370.53125 194.097656 370.59375 194.191406 C 370.65625 194.285156 370.6875 194.402344 370.6875 194.550781 C 370.6875 194.675781 370.65625 194.777344 370.59375 194.863281 C 370.53125 194.957031 370.445312 195.003906 370.34375 195.003906 L 369.78125 195.003906 C 370.050781 195.148438 370.28125 195.363281 370.46875 195.644531 C 370.664062 195.925781 370.765625 196.238281 370.765625 196.582031 L 370.765625 196.988281 C 370.765625 197.089844 370.71875 197.179688 370.625 197.253906 C 370.53125 197.324219 370.421875 197.363281 370.296875 197.363281 C 370.179688 197.363281 370.078125 197.324219 369.984375 197.253906 C 369.898438 197.179688 369.859375 197.089844 369.859375 196.988281 L 369.859375 196.582031 C 369.859375 196.164062 369.691406 195.804688 369.359375 195.503906 C 369.035156 195.199219 368.613281 195.050781 368.09375 195.050781 L 365.359375 195.050781 C 365.273438 195.050781 365.191406 194.996094 365.109375 194.894531 C 365.035156 194.800781 365 194.683594 365 194.550781 C 365 194.414062 365.035156 194.292969 365.109375 194.191406 C 365.179688 194.097656 365.265625 194.050781 365.359375 194.050781 Z M 367.234375 197.960938 L 368.484375 197.960938 C 369.109375 197.960938 369.644531 198.195312 370.09375 198.664062 C 370.539062 199.132812 370.765625 199.695312 370.765625 200.351562 C 370.765625 200.976562 370.550781 201.515625 370.125 201.976562 C 369.707031 202.433594 369.179688 202.664062 368.546875 202.664062 C 368.316406 202.664062 368.128906 202.632812 367.984375 202.570312 C 367.847656 202.515625 367.75 202.433594 367.6875 202.320312 C 367.632812 202.203125 367.597656 202.09375 367.578125 201.992188 C 367.566406 201.898438 367.5625 201.761719 367.5625 201.585938 L 367.5625 198.960938 L 367.203125 198.960938 C 366.753906 198.960938 366.398438 199.117188 366.140625 199.429688 C 365.878906 199.75 365.75 200.164062 365.75 200.664062 C 365.75 200.933594 365.785156 201.164062 365.859375 201.351562 C 365.941406 201.546875 366.019531 201.703125 366.09375 201.820312 C 366.175781 201.945312 366.21875 202.042969 366.21875 202.117188 C 366.21875 202.230469 366.164062 202.324219 366.0625 202.398438 C 365.957031 202.480469 365.851562 202.523438 365.75 202.523438 C 365.570312 202.523438 365.382812 202.339844 365.1875 201.976562 C 365 201.609375 364.90625 201.164062 364.90625 200.632812 C 364.90625 199.851562 365.117188 199.210938 365.546875 198.710938 C 365.972656 198.210938 366.535156 197.960938 367.234375 197.960938 Z M 368.234375 198.960938 L 368.234375 201.179688 C 368.234375 201.386719 368.257812 201.527344 368.3125 201.601562 C 368.363281 201.671875 368.460938 201.710938 368.609375 201.710938 C 368.972656 201.710938 369.289062 201.574219 369.5625 201.304688 C 369.832031 201.042969 369.96875 200.726562 369.96875 200.351562 C 369.96875 199.964844 369.84375 199.636719 369.59375 199.367188 C 369.34375 199.09375 369.03125 198.960938 368.65625 198.960938 Z M 370.28125 203.199219 C 370.40625 203.199219 370.515625 203.269531 370.609375 203.417969 C 370.710938 203.5625 370.765625 203.707031 370.765625 203.855469 C 370.765625 204.019531 370.695312 204.125 370.5625 204.167969 L 366.375 205.761719 L 370.5625 207.183594 C 370.695312 207.246094 370.765625 207.347656 370.765625 207.496094 C 370.765625 207.628906 370.710938 207.769531 370.609375 207.917969 C 370.515625 208.074219 370.398438 208.152344 370.265625 208.152344 C 370.222656 208.152344 370.179688 208.136719 370.140625 208.105469 L 365.265625 206.292969 L 364.65625 206.058594 C 364.554688 206.015625 364.367188 205.933594 364.09375 205.808594 C 363.824219 205.691406 363.625 205.59375 363.5 205.511719 C 363.375 205.4375 363.21875 205.328125 363.03125 205.183594 C 362.835938 205.035156 362.695312 204.894531 362.609375 204.761719 C 362.515625 204.625 362.433594 204.464844 362.359375 204.277344 C 362.289062 204.089844 362.25 203.890625 362.25 203.683594 C 362.25 203.371094 362.402344 203.214844 362.703125 203.214844 C 362.984375 203.214844 363.125 203.308594 363.125 203.496094 C 363.125 203.859375 363.328125 204.207031 363.734375 204.542969 C 364.140625 204.886719 364.65625 205.121094 365.28125 205.246094 L 370.140625 203.246094 C 370.191406 203.214844 370.238281 203.199219 370.28125 203.199219 Z M 365.359375 211.421875 L 373.765625 211.421875 C 373.867188 211.421875 373.953125 211.46875 374.015625 211.5625 C 374.085938 211.65625 374.125 211.769531 374.125 211.90625 C 374.125 212.050781 374.085938 212.171875 374.015625 212.265625 C 373.953125 212.367188 373.867188 212.421875 373.765625 212.421875 L 369.84375 212.421875 C 370.101562 212.566406 370.320312 212.773438 370.5 213.046875 C 370.675781 213.316406 370.765625 213.628906 370.765625 213.984375 C 370.765625 214.566406 370.535156 215.070312 370.078125 215.5 C 369.628906 215.925781 369.085938 216.140625 368.453125 216.140625 L 367.234375 216.140625 C 366.617188 216.140625 366.078125 215.925781 365.609375 215.5 C 365.140625 215.070312 364.90625 214.582031 364.90625 214.03125 C 364.90625 213.664062 364.996094 213.332031 365.171875 213.03125 C 365.359375 212.726562 365.582031 212.507812 365.84375 212.375 L 365.359375 212.375 C 365.265625 212.375 365.179688 212.328125 365.109375 212.234375 C 365.035156 212.140625 365 212.035156 365 211.921875 C 365 211.785156 365.035156 211.664062 365.109375 211.5625 C 365.179688 211.46875 365.265625 211.421875 365.359375 211.421875 Z M 366.90625 212.421875 C 366.707031 212.421875 366.472656 212.5625 366.203125 212.84375 C 365.929688 213.125 365.796875 213.4375 365.796875 213.78125 C 365.796875 214.144531 365.941406 214.460938 366.234375 214.734375 C 366.535156 215.003906 366.867188 215.140625 367.234375 215.140625 L 368.453125 215.140625 C 368.816406 215.140625 369.140625 215.003906 369.421875 214.734375 C 369.710938 214.460938 369.859375 214.144531 369.859375 213.78125 C 369.859375 213.414062 369.726562 213.097656 369.46875 212.828125 C 369.207031 212.554688 368.867188 212.421875 368.453125 212.421875 Z M 365.359375 217.441406 L 373.765625 217.441406 C 373.867188 217.441406 373.953125 217.488281 374.015625 217.582031 C 374.085938 217.675781 374.125 217.792969 374.125 217.941406 C 374.125 218.085938 374.085938 218.207031 374.015625 218.300781 C 373.953125 218.394531 373.867188 218.441406 373.765625 218.441406 L 365.359375 218.441406 C 365.273438 218.441406 365.191406 218.386719 365.109375 218.285156 C 365.035156 218.191406 365 218.074219 365 217.941406 C 365 217.804688 365.035156 217.683594 365.109375 217.582031 C 365.179688 217.488281 365.265625 217.441406 365.359375 217.441406 Z M 366.5 219.601562 C 367.125 219.601562 367.554688 219.839844 367.796875 220.320312 C 368.046875 220.796875 368.171875 221.492188 368.171875 222.398438 L 368.171875 222.976562 L 368.421875 222.976562 C 368.816406 222.976562 369.160156 222.867188 369.453125 222.648438 C 369.753906 222.429688 369.90625 222.101562 369.90625 221.664062 C 369.90625 221.320312 369.847656 221.015625 369.734375 220.757812 C 369.617188 220.507812 369.5625 220.371094 369.5625 220.351562 C 369.5625 220.234375 369.613281 220.140625 369.71875 220.070312 C 369.832031 220.007812 369.945312 219.976562 370.0625 219.976562 C 370.25 219.976562 370.410156 220.15625 370.546875 220.523438 C 370.691406 220.886719 370.765625 221.273438 370.765625 221.679688 C 370.765625 222.460938 370.539062 223.039062 370.09375 223.414062 C 369.644531 223.789062 369.09375 223.976562 368.4375 223.976562 L 365.359375 223.976562 C 365.253906 223.976562 365.164062 223.929688 365.09375 223.835938 C 365.03125 223.742188 365 223.621094 365 223.476562 C 365 223.351562 365.03125 223.242188 365.09375 223.148438 C 365.164062 223.0625 365.253906 223.023438 365.359375 223.023438 L 365.84375 223.023438 C 365.21875 222.480469 364.90625 221.875 364.90625 221.210938 C 364.90625 220.730469 365.039062 220.339844 365.3125 220.039062 C 365.582031 219.746094 365.976562 219.601562 366.5 219.601562 Z M 366.609375 220.601562 C 366.304688 220.601562 366.078125 220.683594 365.921875 220.851562 C 365.773438 221.015625 365.703125 221.242188 365.703125 221.523438 C 365.703125 221.855469 365.835938 222.179688 366.109375 222.492188 C 366.378906 222.8125 366.65625 222.976562 366.9375 222.976562 L 367.5625 222.976562 L 367.5625 222.554688 C 367.5625 222.324219 367.550781 222.125 367.53125 221.960938 C 367.519531 221.792969 367.492188 221.617188 367.453125 221.429688 C 367.421875 221.25 367.367188 221.105469 367.296875 220.992188 C 367.234375 220.875 367.144531 220.78125 367.03125 220.710938 C 366.914062 220.636719 366.773438 220.601562 366.609375 220.601562 Z M 367.234375 225.132812 L 368.4375 225.132812 C 369.125 225.132812 369.679688 225.335938 370.109375 225.742188 C 370.546875 226.148438 370.765625 226.742188 370.765625 227.523438 C 370.765625 228.023438 370.675781 228.4375 370.5 228.773438 C 370.320312 229.117188 370.132812 229.289062 369.9375 229.289062 C 369.820312 229.289062 369.707031 229.246094 369.59375 229.164062 C 369.488281 229.078125 369.4375 228.980469 369.4375 228.867188 C 369.4375 228.835938 369.503906 228.695312 369.640625 228.445312 C 369.785156 228.203125 369.859375 227.921875 369.859375 227.601562 C 369.859375 227.121094 369.734375 226.757812 369.484375 226.507812 C 369.234375 226.257812 368.882812 226.132812 368.4375 226.132812 L 367.234375 226.132812 C 366.273438 226.132812 365.796875 226.621094 365.796875 227.601562 C 365.796875 227.945312 365.867188 228.234375 366.015625 228.476562 C 366.160156 228.726562 366.234375 228.871094 366.234375 228.914062 C 366.234375 229.039062 366.179688 229.140625 366.078125 229.226562 C 365.972656 229.320312 365.863281 229.367188 365.75 229.367188 C 365.550781 229.367188 365.359375 229.1875 365.171875 228.835938 C 364.996094 228.480469 364.90625 228.046875 364.90625 227.539062 C 364.90625 226.746094 365.117188 226.148438 365.546875 225.742188 C 365.972656 225.335938 366.535156 225.132812 367.234375 225.132812 Z M 365.359375 230.355469 L 373.765625 230.355469 C 373.867188 230.355469 373.953125 230.402344 374.015625 230.496094 C 374.085938 230.589844 374.125 230.703125 374.125 230.839844 C 374.125 230.984375 374.085938 231.105469 374.015625 231.199219 C 373.953125 231.300781 373.867188 231.355469 373.765625 231.355469 L 368.15625 231.355469 L 370.625 234.089844 C 370.6875 234.160156 370.71875 234.234375 370.71875 234.308594 C 370.71875 234.421875 370.664062 234.53125 370.5625 234.636719 C 370.46875 234.75 370.363281 234.808594 370.25 234.808594 C 370.144531 234.808594 370.0625 234.769531 370 234.699219 L 368.53125 233.027344 L 365.640625 235.027344 C 365.578125 235.066406 365.515625 235.089844 365.453125 235.089844 C 365.335938 235.089844 365.222656 235.027344 365.109375 234.902344 C 365.003906 234.785156 364.953125 234.660156 364.953125 234.527344 C 364.953125 234.421875 365.003906 234.332031 365.109375 234.261719 L 367.90625 232.355469 L 367.015625 231.355469 L 365.359375 231.355469 C 365.273438 231.355469 365.191406 231.300781 365.109375 231.199219 C 365.035156 231.105469 365 230.988281 365 230.855469 C 365 230.71875 365.035156 230.597656 365.109375 230.496094 C 365.179688 230.402344 365.265625 230.355469 365.359375 230.355469 Z M 373.921875 235.664062 C 374.003906 235.664062 374.070312 235.703125 374.125 235.789062 C 374.1875 235.882812 374.21875 235.980469 374.21875 236.085938 C 374.21875 236.199219 374.1875 236.304688 374.125 236.398438 C 374.070312 236.492188 374.003906 236.539062 373.921875 236.539062 L 372.171875 236.414062 C 372.085938 236.414062 372.015625 236.386719 371.953125 236.335938 C 371.890625 236.28125 371.859375 236.203125 371.859375 236.101562 C 371.859375 235.890625 371.960938 235.789062 372.171875 235.789062 Z M 373.921875 237.289062 C 374.003906 237.289062 374.070312 237.328125 374.125 237.414062 C 374.1875 237.507812 374.21875 237.609375 374.21875 237.726562 C 374.21875 237.839844 374.1875 237.9375 374.125 238.023438 C 374.070312 238.117188 374.003906 238.164062 373.921875 238.164062 L 372.171875 238.054688 C 372.085938 238.054688 372.015625 238.023438 371.953125 237.960938 C 371.890625 237.90625 371.859375 237.828125 371.859375 237.726562 C 371.859375 237.515625 371.960938 237.414062 372.171875 237.414062 Z M 365 238.589844 "/>
</g>
</svg>
