<?xml version="1.0" encoding="UTF-8"?>
<svg xmlns="http://www.w3.org/2000/svg" xmlns:xlink="http://www.w3.org/1999/xlink" width="384pt" height="288pt" viewBox="0 0 384 288" version="1.1">
<g id="surface1">
<path style=" stroke:none;fill-rule:nonzero;fill:rgb(0%,0%,0%);fill-opacity:1;" d="M 0 0 L 288 0 L 288 288 L 0 288 Z M 0 0 "/>
<path style=" stroke:none;fill-rule:nonzero;fill:rgb(50.196078%,50.196078%,50.196078%);fill-opacity:1;" d="M 0 0 L 36 0 L 36 288 L 0 288 Z M 0 0 "/>
<path style=" stroke:none;fill-rule:nonzero;fill:rgb(0%,0%,0%);fill-opacity:1;" d="M 36 0 L 72 0 L 72 288 L 36 288 Z M 36 0 "/>
<path style=" stroke:none;fill-rule:nonzero;fill:rgb(50.196078%,50.196078%,50.196078%);fill-opacity:1;" d="M 72 0 L 108 0 L 108 288 L 72 288 Z M 72 0 "/>
<path style=" stroke:none;fill-rule:nonzero;fill:rgb(0%,0%,0%);fill-opacity:1;" d="M 108 0 L 144 0 L 144 288 L 108 288 Z M 108 0 "/>
<path style=" stroke:none;fill-rule:nonzero;fill:rgb(50.196078%,50.196078%,50.196078%);fill-opacity:1;" d="M 144 0 L 180 0 L 180 288 L 144 288 Z M 144 0 "/>
<path style=" stroke:none;fill-rule:nonzero;fill:rgb(0%,0%,0%);fill-opacity:1;" d="M 180 0 L 216 0 L 216 288 L 180 288 Z M 180 0 "/>
<path style=" stroke:none;fill-rule:nonzero;fill:rgb(50.196078%,50.196078%,50.196078%);fill-opacity:1;" d="M 216 0 L 252 0 L 252 288 L 216 288 Z M 216 0 "/>
<path style=" stroke:none;fill-rule:nonzero;fill:rgb(0%,0%,0%);fill-opacity:1;" d="M 252 0 L 288 0 L 288 288 L 252 288 Z M 252 0 "/>
<path style=" stroke:none;fill-rule:nonzero;fill:rgb(0%,0%,0%);fill-opacity:1;" d="M 365.578125 11.203125 L 376.453125 11.203125 C 377.492188 11.203125 378.378906 11.550781 379.109375 12.25 C 379.835938 12.945312 380.203125 13.773438 380.203125 14.734375 L 380.203125 15.4375 C 380.203125 15.65625 380.128906 15.820312 379.984375 15.9375 C 379.835938 16.0625 379.660156 16.125 379.453125 16.125 C 379.253906 16.125 379.082031 16.0625 378.9375 15.9375 C 378.800781 15.820312 378.734375 15.65625 378.734375 15.4375 L 378.734375 15.015625 C 378.734375 14.398438 378.523438 13.890625 378.109375 13.484375 C 377.703125 13.078125 377.195312 12.867188 376.59375 12.859375 L 374.484375 12.859375 L 374.484375 15.59375 C 374.484375 15.757812 374.414062 15.890625 374.28125 15.984375 C 374.144531 16.078125 373.988281 16.125 373.8125 16.125 C 373.644531 16.125 373.5 16.078125 373.375 15.984375 C 373.25 15.890625 373.1875 15.757812 373.1875 15.59375 L 373.1875 12.859375 L 365.578125 12.859375 C 365.421875 12.859375 365.285156 12.773438 365.171875 12.609375 C 365.054688 12.441406 365 12.238281 365 12 C 365 11.769531 365.050781 11.578125 365.15625 11.421875 C 365.257812 11.273438 365.398438 11.203125 365.578125 11.203125 Z M 368.71875 17.113281 L 370.765625 17.113281 C 371.785156 17.113281 372.675781 17.503906 373.4375 18.285156 C 374.207031 19.066406 374.59375 19.988281 374.59375 21.050781 C 374.59375 22.121094 374.210938 23.050781 373.453125 23.832031 C 372.691406 24.621094 371.796875 25.019531 370.765625 25.019531 L 368.71875 25.019531 C 367.707031 25.019531 366.804688 24.621094 366.015625 23.832031 C 365.234375 23.039062 364.84375 22.117188 364.84375 21.066406 C 364.84375 20.011719 365.234375 19.089844 366.015625 18.300781 C 366.796875 17.507812 367.695312 17.113281 368.71875 17.113281 Z M 368.71875 18.785156 C 368.09375 18.785156 367.539062 19.007812 367.0625 19.457031 C 366.582031 19.914062 366.34375 20.449219 366.34375 21.066406 C 366.34375 21.691406 366.582031 22.226562 367.0625 22.675781 C 367.550781 23.132812 368.101562 23.363281 368.71875 23.363281 L 370.765625 23.363281 C 371.359375 23.363281 371.894531 23.132812 372.375 22.675781 C 372.851562 22.226562 373.09375 21.683594 373.09375 21.050781 C 373.09375 20.425781 372.851562 19.886719 372.375 19.441406 C 371.894531 19.003906 371.359375 18.785156 370.765625 18.785156 Z M 365.59375 27.199219 L 379.625 27.199219 C 379.789062 27.199219 379.925781 27.269531 380.03125 27.417969 C 380.144531 27.574219 380.203125 27.769531 380.203125 28.011719 C 380.203125 28.261719 380.144531 28.464844 380.03125 28.621094 C 379.925781 28.777344 379.789062 28.855469 379.625 28.855469 L 365.59375 28.855469 C 365.445312 28.855469 365.3125 28.769531 365.1875 28.605469 C 365.0625 28.4375 365 28.238281 365 28.011719 C 365 27.792969 365.054688 27.597656 365.171875 27.433594 C 365.296875 27.277344 365.4375 27.199219 365.59375 27.199219 Z M 368.71875 31.03125 L 370.765625 31.03125 C 371.816406 31.03125 372.71875 31.382812 373.46875 32.09375 C 374.21875 32.800781 374.59375 33.644531 374.59375 34.625 C 374.59375 35.21875 374.445312 35.738281 374.15625 36.1875 C 373.863281 36.644531 373.503906 36.992188 373.078125 37.234375 L 379.625 37.234375 C 379.789062 37.234375 379.925781 37.3125 380.03125 37.46875 C 380.144531 37.632812 380.203125 37.835938 380.203125 38.078125 C 380.203125 38.316406 380.144531 38.515625 380.03125 38.671875 C 379.925781 38.828125 379.789062 38.90625 379.625 38.90625 L 365.59375 38.90625 C 365.4375 38.90625 365.296875 38.820312 365.171875 38.65625 C 365.054688 38.5 365 38.304688 365 38.078125 C 365 37.878906 365.054688 37.703125 365.171875 37.546875 C 365.296875 37.390625 365.4375 37.3125 365.59375 37.3125 L 366.40625 37.3125 C 365.976562 37.09375 365.609375 36.726562 365.296875 36.21875 C 364.996094 35.707031 364.84375 35.15625 364.84375 34.5625 C 364.84375 33.625 365.234375 32.800781 366.015625 32.09375 C 366.804688 31.382812 367.707031 31.03125 368.71875 31.03125 Z M 368.71875 32.703125 C 368.101562 32.703125 367.550781 32.925781 367.0625 33.375 C 366.582031 33.832031 366.34375 34.359375 366.34375 34.953125 C 366.34375 35.546875 366.566406 36.070312 367.015625 36.53125 C 367.460938 37 367.851562 37.234375 368.1875 37.234375 L 370.765625 37.234375 C 371.453125 37.234375 372.007812 37.003906 372.4375 36.546875 C 372.875 36.097656 373.09375 35.578125 373.09375 34.984375 C 373.09375 34.367188 372.851562 33.832031 372.375 33.375 C 371.894531 32.925781 371.359375 32.703125 370.765625 32.703125 Z M 365.59375 41.523438 L 379.015625 41.523438 C 379.203125 41.523438 379.347656 41.59375 379.453125 41.742188 C 379.566406 41.898438 379.625 42.078125 379.625 42.289062 L 379.625 49.398438 C 379.625 49.585938 379.550781 49.726562 379.40625 49.820312 C 379.257812 49.921875 379.082031 49.976562 378.875 49.976562 C 378.664062 49.976562 378.484375 49.921875 378.328125 49.820312 C 378.171875 49.714844 378.09375 49.574219 378.09375 49.398438 L 378.09375 43.195312 L 373.015625 43.195312 L 373.015625 46.320312 C 373.015625 46.496094 372.941406 46.636719 372.796875 46.742188 C 372.660156 46.84375 372.492188 46.898438 372.296875 46.898438 C 372.128906 46.898438 371.972656 46.84375 371.828125 46.742188 C 371.691406 46.648438 371.625 46.507812 371.625 46.320312 L 371.625 43.195312 L 366.515625 43.195312 L 366.515625 49.398438 C 366.515625 49.574219 366.4375 49.714844 366.28125 49.820312 C 366.132812 49.921875 365.953125 49.976562 365.734375 49.976562 C 365.535156 49.976562 365.363281 49.921875 365.21875 49.820312 C 365.070312 49.726562 365 49.585938 365 49.398438 L 365 42.289062 C 365 42.078125 365.050781 41.898438 365.15625 41.742188 C 365.257812 41.59375 365.40625 41.523438 365.59375 41.523438 Z M 373.796875 50.613281 C 373.984375 50.613281 374.148438 50.726562 374.296875 50.957031 C 374.441406 51.195312 374.515625 51.433594 374.515625 51.675781 C 374.515625 51.957031 374.410156 52.136719 374.203125 52.222656 L 367.40625 54.753906 L 374.125 57.253906 C 374.382812 57.367188 374.515625 57.550781 374.515625 57.800781 C 374.515625 58.007812 374.441406 58.238281 374.296875 58.488281 C 374.148438 58.746094 373.984375 58.878906 373.796875 58.878906 C 373.691406 58.878906 373.585938 58.851562 373.484375 58.800781 L 365.1875 55.519531 C 364.9375 55.414062 364.8125 55.160156 364.8125 54.753906 C 364.8125 54.347656 364.9375 54.085938 365.1875 53.972656 L 373.484375 50.691406 C 373.640625 50.636719 373.742188 50.613281 373.796875 50.613281 Z M 368.71875 59.933594 L 370.8125 59.933594 C 371.84375 59.933594 372.726562 60.324219 373.46875 61.105469 C 374.21875 61.886719 374.59375 62.824219 374.59375 63.917969 C 374.59375 64.957031 374.242188 65.859375 373.546875 66.621094 C 372.847656 67.378906 371.972656 67.761719 370.921875 67.761719 C 370.535156 67.761719 370.222656 67.714844 369.984375 67.621094 C 369.753906 67.527344 369.585938 67.378906 369.484375 67.183594 C 369.390625 66.996094 369.328125 66.816406 369.296875 66.652344 C 369.273438 66.484375 369.265625 66.261719 369.265625 65.980469 L 369.265625 61.605469 L 368.65625 61.605469 C 367.925781 61.605469 367.335938 61.863281 366.890625 62.386719 C 366.453125 62.917969 366.234375 63.597656 366.234375 64.433594 C 366.234375 64.878906 366.300781 65.265625 366.4375 65.589844 C 366.570312 65.910156 366.703125 66.171875 366.828125 66.371094 C 366.953125 66.578125 367.015625 66.738281 367.015625 66.855469 C 367.015625 67.042969 366.929688 67.203125 366.765625 67.339844 C 366.597656 67.472656 366.429688 67.542969 366.265625 67.542969 C 365.953125 67.542969 365.632812 67.234375 365.3125 66.621094 C 365 66.015625 364.84375 65.269531 364.84375 64.386719 C 364.84375 63.074219 365.195312 62 365.90625 61.167969 C 366.625 60.34375 367.5625 59.933594 368.71875 59.933594 Z M 370.375 61.605469 L 370.375 65.308594 C 370.375 65.652344 370.414062 65.878906 370.5 65.996094 C 370.59375 66.121094 370.765625 66.183594 371.015625 66.183594 C 371.617188 66.183594 372.144531 65.957031 372.59375 65.511719 C 373.050781 65.074219 373.28125 64.535156 373.28125 63.902344 C 373.28125 63.277344 373.066406 62.734375 372.640625 62.277344 C 372.222656 61.828125 371.707031 61.605469 371.09375 61.605469 Z M 365.59375 69.609375 L 373.90625 69.609375 C 374.070312 69.609375 374.207031 69.679688 374.3125 69.828125 C 374.425781 69.984375 374.484375 70.179688 374.484375 70.421875 C 374.484375 70.628906 374.425781 70.804688 374.3125 70.953125 C 374.207031 71.109375 374.070312 71.1875 373.90625 71.1875 L 372.953125 71.1875 C 373.410156 71.425781 373.796875 71.773438 374.109375 72.234375 C 374.429688 72.703125 374.59375 73.222656 374.59375 73.796875 L 374.59375 74.484375 C 374.59375 74.648438 374.515625 74.796875 374.359375 74.921875 C 374.210938 75.054688 374.039062 75.125 373.84375 75.125 C 373.644531 75.125 373.46875 75.054688 373.3125 74.921875 C 373.164062 74.796875 373.09375 74.648438 373.09375 74.484375 L 373.09375 73.796875 C 373.09375 73.117188 372.816406 72.523438 372.265625 72.015625 C 371.722656 71.515625 371.019531 71.265625 370.15625 71.265625 L 365.59375 71.265625 C 365.445312 71.265625 365.3125 71.179688 365.1875 71.015625 C 365.0625 70.847656 365 70.648438 365 70.421875 C 365 70.191406 365.054688 70 365.171875 69.84375 C 365.296875 69.6875 365.4375 69.609375 365.59375 69.609375 Z M 373.796875 75.535156 C 374.015625 75.535156 374.203125 75.652344 374.359375 75.894531 C 374.515625 76.132812 374.59375 76.371094 374.59375 76.613281 C 374.59375 76.894531 374.484375 77.074219 374.265625 77.160156 L 367.296875 79.800781 L 374.265625 82.175781 C 374.484375 82.269531 374.59375 82.445312 374.59375 82.707031 C 374.59375 82.925781 374.515625 83.160156 374.359375 83.410156 C 374.203125 83.660156 374.007812 83.785156 373.78125 83.785156 C 373.71875 83.785156 373.648438 83.761719 373.578125 83.722656 L 365.4375 80.675781 L 364.4375 80.300781 C 364.25 80.238281 363.933594 80.101562 363.484375 79.894531 C 363.027344 79.695312 362.699219 79.527344 362.5 79.394531 C 362.304688 79.269531 362.042969 79.085938 361.71875 78.847656 C 361.386719 78.605469 361.148438 78.371094 361 78.144531 C 360.855469 77.914062 360.726562 77.644531 360.609375 77.332031 C 360.484375 77.019531 360.421875 76.691406 360.421875 76.347656 C 360.421875 75.824219 360.667969 75.566406 361.15625 75.566406 C 361.636719 75.566406 361.875 75.722656 361.875 76.035156 C 361.875 76.636719 362.214844 77.222656 362.890625 77.785156 C 363.570312 78.355469 364.433594 78.742188 365.484375 78.941406 L 373.578125 75.613281 C 373.660156 75.558594 373.734375 75.535156 373.796875 75.535156 Z M 365.15625 89.335938 L 379.78125 89.335938 C 379.957031 89.335938 380.097656 89.414062 380.203125 89.570312 C 380.304688 89.726562 380.359375 89.902344 380.359375 90.101562 L 380.359375 93.382812 C 380.359375 93.546875 380.285156 93.683594 380.140625 93.789062 C 379.992188 93.902344 379.820312 93.960938 379.625 93.960938 C 379.40625 93.960938 379.222656 93.902344 379.078125 93.789062 C 378.929688 93.683594 378.859375 93.546875 378.859375 93.382812 L 378.859375 91.023438 L 366.078125 91.023438 L 366.078125 93.382812 C 366.078125 93.546875 366.003906 93.683594 365.859375 93.789062 C 365.710938 93.902344 365.53125 93.960938 365.3125 93.960938 C 365.113281 93.960938 364.945312 93.902344 364.796875 93.789062 C 364.652344 93.683594 364.578125 93.546875 364.578125 93.382812 L 364.578125 90.101562 C 364.578125 89.902344 364.636719 89.726562 364.75 89.570312 C 364.855469 89.414062 364.992188 89.335938 365.15625 89.335938 Z M 368.28125 94.835938 C 368.582031 94.835938 368.785156 94.890625 368.890625 95.007812 C 369.003906 95.121094 369.0625 95.324219 369.0625 95.617188 C 369.0625 95.9375 369.003906 96.164062 368.890625 96.289062 C 368.785156 96.414062 368.625 96.476562 368.40625 96.476562 C 367.894531 96.476562 367.429688 96.6875 367.015625 97.117188 C 366.609375 97.554688 366.40625 98.214844 366.40625 99.101562 C 366.40625 100.882812 367.320312 101.773438 369.15625 101.773438 L 369.546875 101.773438 C 371.171875 101.773438 371.984375 100.882812 371.984375 99.101562 C 371.984375 98.714844 372.210938 98.523438 372.671875 98.523438 C 373.140625 98.523438 373.375 98.714844 373.375 99.101562 C 373.375 99.871094 373.546875 100.449219 373.890625 100.835938 C 374.242188 101.21875 374.875 101.414062 375.78125 101.414062 C 377.34375 101.414062 378.125 100.667969 378.125 99.179688 C 378.125 98.324219 377.929688 97.71875 377.546875 97.367188 C 377.171875 97.011719 376.722656 96.835938 376.203125 96.835938 C 375.703125 96.835938 375.453125 96.570312 375.453125 96.039062 C 375.453125 95.683594 375.507812 95.449219 375.625 95.335938 C 375.75 95.21875 375.976562 95.164062 376.3125 95.164062 C 376.644531 95.164062 376.988281 95.226562 377.34375 95.351562 C 377.695312 95.476562 378.050781 95.679688 378.40625 95.960938 C 378.757812 96.242188 379.050781 96.664062 379.28125 97.226562 C 379.507812 97.796875 379.625 98.464844 379.625 99.226562 C 379.625 101.765625 378.441406 103.039062 376.078125 103.039062 C 375.234375 103.039062 374.519531 102.890625 373.9375 102.601562 C 373.351562 102.308594 372.945312 101.914062 372.71875 101.414062 C 372.175781 102.777344 371.117188 103.460938 369.546875 103.460938 L 369.15625 103.460938 C 367.6875 103.460938 366.601562 103.058594 365.90625 102.257812 C 365.21875 101.453125 364.875 100.402344 364.875 99.101562 C 364.875 97.726562 365.222656 96.667969 365.921875 95.929688 C 366.628906 95.199219 367.414062 94.835938 368.28125 94.835938 Z M 365.921875 104.980469 C 366.210938 104.980469 366.460938 105.074219 366.671875 105.261719 C 366.878906 105.457031 366.984375 105.703125 366.984375 105.996094 C 366.984375 106.277344 366.878906 106.519531 366.671875 106.730469 C 366.472656 106.9375 366.222656 107.042969 365.921875 107.042969 C 365.679688 107.042969 364.875 106.753906 363.5 106.183594 C 363.3125 106.097656 363.21875 105.953125 363.21875 105.746094 C 363.21875 105.597656 363.265625 105.464844 363.359375 105.339844 C 363.445312 105.222656 363.558594 105.167969 363.703125 105.167969 C 363.796875 105.167969 363.871094 105.175781 363.921875 105.199219 L 364.953125 105.621094 C 365.128906 105.191406 365.453125 104.980469 365.921875 104.980469 Z M 368.34375 108.28125 C 368.875 108.28125 369.140625 108.5625 369.140625 109.125 C 369.140625 109.6875 368.910156 109.96875 368.453125 109.96875 C 367.816406 109.96875 367.316406 110.210938 366.953125 110.703125 C 366.585938 111.191406 366.40625 111.816406 366.40625 112.578125 C 366.40625 113.421875 366.632812 114.070312 367.09375 114.53125 C 367.5625 114.988281 368.265625 115.21875 369.203125 115.21875 L 369.578125 115.21875 C 370.484375 115.21875 371.164062 114.988281 371.625 114.53125 C 372.082031 114.070312 372.3125 113.425781 372.3125 112.59375 L 372.3125 109.765625 C 372.3125 109.242188 372.535156 108.984375 372.984375 108.984375 C 373.117188 108.984375 373.265625 108.992188 373.421875 109.015625 L 379.015625 109.4375 C 379.421875 109.46875 379.625 109.613281 379.625 109.875 L 379.625 115.640625 C 379.625 115.816406 379.546875 115.953125 379.390625 116.046875 C 379.234375 116.140625 379.054688 116.1875 378.859375 116.1875 C 378.660156 116.1875 378.484375 116.140625 378.328125 116.046875 C 378.171875 115.953125 378.09375 115.816406 378.09375 115.640625 L 378.09375 110.90625 L 373.71875 110.59375 L 373.71875 112.59375 C 373.71875 113.90625 373.382812 114.953125 372.71875 115.734375 C 372.050781 116.515625 371.003906 116.90625 369.578125 116.90625 L 369.203125 116.90625 C 367.722656 116.90625 366.628906 116.507812 365.921875 115.71875 C 365.222656 114.9375 364.875 113.894531 364.875 112.59375 C 364.875 111.257812 365.210938 110.207031 365.890625 109.4375 C 366.566406 108.664062 367.382812 108.28125 368.34375 108.28125 Z M 365.3125 117.839844 C 365.53125 117.839844 365.710938 117.890625 365.859375 117.996094 C 366.003906 118.109375 366.078125 118.25 366.078125 118.417969 L 366.078125 120.777344 L 378.859375 120.777344 L 378.859375 118.417969 C 378.859375 118.25 378.929688 118.109375 379.078125 117.996094 C 379.222656 117.890625 379.40625 117.839844 379.625 117.839844 C 379.820312 117.839844 379.992188 117.890625 380.140625 117.996094 C 380.285156 118.109375 380.359375 118.25 380.359375 118.417969 L 380.359375 121.699219 C 380.359375 121.894531 380.304688 122.074219 380.203125 122.230469 C 380.097656 122.386719 379.957031 122.464844 379.78125 122.464844 L 365.15625 122.464844 C 364.992188 122.464844 364.855469 122.386719 364.75 122.230469 C 364.636719 122.074219 364.578125 121.894531 364.578125 121.699219 L 364.578125 118.417969 C 364.578125 118.25 364.652344 118.109375 364.796875 117.996094 C 364.945312 117.890625 365.113281 117.839844 365.3125 117.839844 Z M 368.09375 128.902344 L 376.578125 128.902344 C 377.628906 128.902344 378.519531 129.285156 379.25 130.058594 C 379.988281 130.828125 380.359375 131.734375 380.359375 132.777344 C 380.359375 133.328125 380.113281 133.605469 379.625 133.605469 C 379.394531 133.605469 379.207031 133.546875 379.0625 133.433594 C 378.925781 133.328125 378.859375 133.191406 378.859375 133.027344 C 378.859375 132.285156 378.628906 131.691406 378.171875 131.246094 C 377.710938 130.796875 377.179688 130.574219 376.578125 130.574219 L 368.09375 130.574219 C 367.363281 130.574219 366.847656 130.8125 366.546875 131.292969 C 366.242188 131.78125 366.09375 132.359375 366.09375 133.027344 C 366.09375 133.410156 365.84375 133.605469 365.34375 133.605469 C 364.84375 133.605469 364.59375 133.316406 364.59375 132.746094 C 364.59375 131.660156 364.898438 130.75 365.5 130.011719 C 366.113281 129.269531 366.976562 128.902344 368.09375 128.902344 Z M 366.359375 134.554688 C 366.535156 134.554688 366.707031 134.609375 366.875 134.726562 C 367.039062 134.839844 367.125 134.980469 367.125 135.148438 C 367.125 135.25 367.039062 135.402344 366.875 135.601562 C 366.71875 135.796875 366.5625 136.085938 366.40625 136.460938 C 366.257812 136.835938 366.1875 137.273438 366.1875 137.773438 C 366.1875 138.4375 366.304688 138.921875 366.546875 139.226562 C 366.785156 139.527344 367.082031 139.679688 367.4375 139.679688 C 367.875 139.679688 368.222656 139.511719 368.484375 139.179688 C 368.742188 138.84375 368.941406 138.4375 369.078125 137.960938 C 369.210938 137.480469 369.359375 137 369.515625 136.523438 C 369.679688 136.042969 369.945312 135.636719 370.3125 135.304688 C 370.6875 134.96875 371.179688 134.804688 371.796875 134.804688 C 372.554688 134.804688 373.210938 135.070312 373.765625 135.601562 C 374.316406 136.140625 374.59375 136.96875 374.59375 138.085938 C 374.59375 138.792969 374.484375 139.4375 374.265625 140.023438 C 374.046875 140.605469 373.796875 140.898438 373.515625 140.898438 C 373.359375 140.898438 373.179688 140.835938 372.984375 140.710938 C 372.785156 140.585938 372.6875 140.429688 372.6875 140.242188 C 372.6875 140.1875 372.78125 139.929688 372.96875 139.460938 C 373.164062 139 373.265625 138.546875 373.265625 138.101562 C 373.265625 137.484375 373.117188 137.027344 372.828125 136.726562 C 372.546875 136.421875 372.222656 136.273438 371.859375 136.273438 C 371.484375 136.273438 371.1875 136.4375 370.96875 136.773438 C 370.757812 137.105469 370.59375 137.515625 370.46875 138.007812 C 370.351562 138.496094 370.207031 138.980469 370.03125 139.460938 C 369.863281 139.9375 369.566406 140.34375 369.140625 140.679688 C 368.722656 141.011719 368.179688 141.179688 367.515625 141.179688 C 366.691406 141.179688 366.039062 140.882812 365.5625 140.289062 C 365.082031 139.703125 364.84375 138.886719 364.84375 137.835938 C 364.84375 136.929688 365.003906 136.152344 365.328125 135.507812 C 365.648438 134.871094 365.992188 134.554688 366.359375 134.554688 Z M 365.59375 143.160156 L 379.625 143.160156 C 379.789062 143.160156 379.925781 143.230469 380.03125 143.378906 C 380.144531 143.535156 380.203125 143.730469 380.203125 143.972656 C 380.203125 144.222656 380.144531 144.425781 380.03125 144.582031 C 379.925781 144.738281 379.789062 144.816406 379.625 144.816406 L 365.59375 144.816406 C 365.445312 144.816406 365.3125 144.730469 365.1875 144.566406 C 365.0625 144.398438 365 144.199219 365 143.972656 C 365 143.753906 365.054688 143.558594 365.171875 143.394531 C 365.296875 143.238281 365.4375 143.160156 365.59375 143.160156 Z M 368.71875 146.992188 L 370.765625 146.992188 C 371.785156 146.992188 372.675781 147.382812 373.4375 148.164062 C 374.207031 148.945312 374.59375 149.867188 374.59375 150.929688 C 374.59375 152 374.210938 152.929688 373.453125 153.710938 C 372.691406 154.5 371.796875 154.898438 370.765625 154.898438 L 368.71875 154.898438 C 367.707031 154.898438 366.804688 154.5 366.015625 153.710938 C 365.234375 152.917969 364.84375 151.996094 364.84375 150.945312 C 364.84375 149.890625 365.234375 148.96875 366.015625 148.179688 C 366.796875 147.386719 367.695312 146.992188 368.71875 146.992188 Z M 368.71875 148.664062 C 368.09375 148.664062 367.539062 148.886719 367.0625 149.335938 C 366.582031 149.792969 366.34375 150.328125 366.34375 150.945312 C 366.34375 151.570312 366.582031 152.105469 367.0625 152.554688 C 367.550781 153.011719 368.101562 153.242188 368.71875 153.242188 L 370.765625 153.242188 C 371.359375 153.242188 371.894531 153.011719 372.375 152.554688 C 372.851562 152.105469 373.09375 151.5625 373.09375 150.929688 C 373.09375 150.304688 372.851562 149.765625 372.375 149.320312 C 371.894531 148.882812 371.359375 148.664062 370.765625 148.664062 Z M 373.796875 156 C 373.992188 156 374.160156 156.109375 374.296875 156.328125 C 374.441406 156.546875 374.515625 156.773438 374.515625 157.015625 C 374.515625 157.296875 374.410156 157.476562 374.203125 157.5625 L 367.484375 159.984375 L 373.546875 161.859375 C 373.804688 161.953125 373.9375 162.160156 373.9375 162.484375 C 373.9375 162.816406 373.804688 163.03125 373.546875 163.125 L 367.421875 164.953125 L 374.203125 167.40625 C 374.410156 167.46875 374.515625 167.640625 374.515625 167.921875 C 374.515625 168.160156 374.441406 168.390625 374.296875 168.609375 C 374.160156 168.835938 373.992188 168.953125 373.796875 168.953125 C 373.691406 168.953125 373.585938 168.925781 373.484375 168.875 L 365.1875 165.765625 C 364.9375 165.671875 364.8125 165.445312 364.8125 165.09375 C 364.8125 164.738281 364.9375 164.515625 365.1875 164.421875 L 371.0625 162.484375 L 365.234375 160.578125 C 364.953125 160.484375 364.8125 160.242188 364.8125 159.859375 C 364.8125 159.515625 364.953125 159.285156 365.234375 159.171875 L 373.484375 156.078125 C 373.640625 156.023438 373.742188 156 373.796875 156 Z M 365.59375 173.859375 L 367.546875 173.859375 C 368.140625 173.859375 368.726562 174.085938 369.3125 174.546875 C 369.894531 175.003906 370.414062 175.5625 370.875 176.21875 L 372.3125 178.15625 C 372.78125 178.8125 373.304688 179.367188 373.890625 179.828125 C 374.472656 180.285156 375.0625 180.515625 375.65625 180.515625 C 376.300781 180.515625 376.863281 180.304688 377.34375 179.890625 C 377.820312 179.472656 378.0625 178.867188 378.0625 178.078125 C 378.0625 177.410156 377.875 176.863281 377.5 176.4375 C 377.125 176.019531 376.582031 175.8125 375.875 175.8125 C 375.707031 175.8125 375.554688 175.734375 375.421875 175.578125 C 375.285156 175.421875 375.21875 175.207031 375.21875 174.9375 C 375.21875 174.425781 375.546875 174.171875 376.203125 174.171875 C 377.203125 174.171875 378.019531 174.546875 378.65625 175.296875 C 379.300781 176.054688 379.625 176.984375 379.625 178.078125 C 379.625 179.253906 379.253906 180.234375 378.515625 181.015625 C 377.773438 181.804688 376.84375 182.203125 375.71875 182.203125 C 375.050781 182.203125 374.410156 182.035156 373.796875 181.703125 C 373.179688 181.378906 372.660156 180.972656 372.234375 180.484375 C 371.804688 180.003906 371.378906 179.476562 370.953125 178.90625 L 369.8125 177.296875 C 369.476562 176.816406 369.113281 176.410156 368.71875 176.078125 C 368.320312 175.753906 367.929688 175.59375 367.546875 175.59375 L 366.515625 175.59375 L 366.515625 181.734375 C 366.515625 181.898438 366.441406 182.035156 366.296875 182.140625 C 366.148438 182.253906 365.972656 182.3125 365.765625 182.3125 C 365.554688 182.3125 365.375 182.253906 365.21875 182.140625 C 365.070312 182.035156 365 181.898438 365 181.734375 L 365 174.625 C 365 174.445312 365.054688 174.273438 365.171875 174.109375 C 365.285156 173.941406 365.425781 173.859375 365.59375 173.859375 Z M 365.34375 183.257812 C 365.84375 183.257812 366.09375 183.449219 366.09375 183.835938 C 366.09375 184.5 366.242188 185.074219 366.546875 185.554688 C 366.847656 186.03125 367.363281 186.273438 368.09375 186.273438 L 376.578125 186.273438 C 377.179688 186.273438 377.710938 186.046875 378.171875 185.601562 C 378.628906 185.164062 378.859375 184.574219 378.859375 183.835938 C 378.859375 183.667969 378.925781 183.527344 379.0625 183.414062 C 379.207031 183.308594 379.394531 183.257812 379.625 183.257812 C 380.113281 183.257812 380.359375 183.53125 380.359375 184.085938 C 380.359375 185.117188 379.988281 186.015625 379.25 186.789062 C 378.519531 187.570312 377.628906 187.960938 376.578125 187.960938 L 368.09375 187.960938 C 366.976562 187.960938 366.113281 187.589844 365.5 186.851562 C 364.898438 186.109375 364.59375 185.195312 364.59375 184.101562 C 364.59375 183.539062 364.84375 183.257812 365.34375 183.257812 Z M 367.296875 193.804688 C 367.515625 193.804688 367.722656 193.875 367.921875 194.023438 C 368.117188 194.179688 368.21875 194.351562 368.21875 194.539062 C 368.21875 194.640625 368.132812 194.789062 367.96875 194.976562 C 367.8125 195.164062 367.632812 195.351562 367.4375 195.539062 C 367.25 195.734375 367.070312 196.042969 366.90625 196.460938 C 366.738281 196.875 366.644531 197.34375 366.625 197.867188 L 371.9375 197.867188 L 372.34375 196.789062 C 372.4375 196.527344 372.59375 196.199219 372.8125 195.804688 C 373.039062 195.417969 373.269531 195.125 373.5 194.929688 C 373.738281 194.742188 374.054688 194.5625 374.453125 194.398438 C 374.847656 194.242188 375.289062 194.164062 375.78125 194.164062 C 376.382812 194.164062 376.914062 194.265625 377.375 194.476562 C 377.832031 194.695312 378.191406 194.984375 378.453125 195.351562 C 378.722656 195.714844 378.925781 196.105469 379.0625 196.523438 C 379.207031 196.9375 379.300781 197.386719 379.34375 197.867188 L 379.9375 197.867188 C 380.039062 197.867188 380.132812 197.914062 380.21875 198.007812 C 380.3125 198.109375 380.359375 198.234375 380.359375 198.382812 C 380.359375 198.515625 380.3125 198.636719 380.21875 198.742188 C 380.132812 198.84375 380.039062 198.898438 379.9375 198.898438 L 379.375 198.898438 C 379.332031 199.699219 379.195312 200.421875 378.96875 201.070312 C 378.738281 201.726562 378.4375 202.054688 378.0625 202.054688 C 377.875 202.054688 377.671875 201.984375 377.453125 201.851562 C 377.242188 201.726562 377.140625 201.554688 377.140625 201.335938 C 377.140625 201.273438 377.253906 200.992188 377.484375 200.492188 C 377.722656 200 377.851562 199.46875 377.875 198.898438 L 373.3125 198.898438 C 373.132812 199.417969 372.953125 199.84375 372.765625 200.179688 C 372.585938 200.523438 372.34375 200.882812 372.03125 201.257812 C 371.71875 201.640625 371.316406 201.929688 370.828125 202.117188 C 370.335938 202.3125 369.769531 202.414062 369.125 202.414062 C 367.945312 202.414062 367.015625 202.09375 366.328125 201.460938 C 365.648438 200.835938 365.238281 199.980469 365.09375 198.898438 L 364.375 198.898438 C 364.273438 198.898438 364.179688 198.84375 364.09375 198.742188 C 364 198.636719 363.953125 198.515625 363.953125 198.382812 C 363.953125 198.234375 364 198.109375 364.09375 198.007812 C 364.179688 197.914062 364.273438 197.867188 364.375 197.867188 L 365.046875 197.867188 C 365.054688 196.71875 365.3125 195.757812 365.8125 194.976562 C 366.320312 194.195312 366.816406 193.804688 367.296875 193.804688 Z M 375.9375 195.757812 C 375.3125 195.757812 374.84375 195.933594 374.53125 196.289062 C 374.21875 196.652344 373.925781 197.203125 373.65625 197.945312 L 377.859375 197.945312 C 377.710938 196.484375 377.070312 195.757812 375.9375 195.757812 Z M 366.65625 198.820312 C 366.875 200.152344 367.640625 200.820312 368.953125 200.820312 C 369.648438 200.820312 370.191406 200.648438 370.578125 200.304688 C 370.960938 199.960938 371.289062 199.464844 371.5625 198.820312 Z M 368.71875 208.03125 L 370.765625 208.03125 C 371.816406 208.03125 372.71875 208.382812 373.46875 209.09375 C 374.21875 209.800781 374.59375 210.644531 374.59375 211.625 C 374.59375 212.21875 374.445312 212.738281 374.15625 213.1875 C 373.863281 213.644531 373.503906 213.992188 373.078125 214.234375 L 379.625 214.234375 C 379.789062 214.234375 379.925781 214.3125 380.03125 214.46875 C 380.144531 214.632812 380.203125 214.835938 380.203125 215.078125 C 380.203125 215.316406 380.144531 215.515625 380.03125 215.671875 C 379.925781 215.828125 379.789062 215.90625 379.625 215.90625 L 365.59375 215.90625 C 365.4375 215.90625 365.296875 215.820312 365.171875 215.65625 C 365.054688 215.5 365 215.304688 365 215.078125 C 365 214.878906 365.054688 214.703125 365.171875 214.546875 C 365.296875 214.390625 365.4375 214.3125 365.59375 214.3125 L 366.40625 214.3125 C 365.976562 214.09375 365.609375 213.726562 365.296875 213.21875 C 364.996094 212.707031 364.84375 212.15625 364.84375 211.5625 C 364.84375 210.625 365.234375 209.800781 366.015625 209.09375 C 366.804688 208.382812 367.707031 208.03125 368.71875 208.03125 Z M 368.71875 209.703125 C 368.101562 209.703125 367.550781 209.925781 367.0625 210.375 C 366.582031 210.832031 366.34375 211.359375 366.34375 211.953125 C 366.34375 212.546875 366.566406 213.070312 367.015625 213.53125 C 367.460938 214 367.851562 214.234375 368.1875 214.234375 L 370.765625 214.234375 C 371.453125 214.234375 372.007812 214.003906 372.4375 213.546875 C 372.875 213.097656 373.09375 212.578125 373.09375 211.984375 C 373.09375 211.367188 372.851562 210.832031 372.375 210.375 C 371.894531 209.925781 371.359375 209.703125 370.765625 209.703125 Z M 368.71875 217.914062 L 370.8125 217.914062 C 371.84375 217.914062 372.726562 218.304688 373.46875 219.085938 C 374.21875 219.867188 374.59375 220.804688 374.59375 221.898438 C 374.59375 222.9375 374.242188 223.839844 373.546875 224.601562 C 372.847656 225.359375 371.972656 225.742188 370.921875 225.742188 C 370.535156 225.742188 370.222656 225.695312 369.984375 225.601562 C 369.753906 225.507812 369.585938 225.359375 369.484375 225.164062 C 369.390625 224.976562 369.328125 224.796875 369.296875 224.632812 C 369.273438 224.464844 369.265625 224.242188 369.265625 223.960938 L 369.265625 219.585938 L 368.65625 219.585938 C 367.925781 219.585938 367.335938 219.84375 366.890625 220.367188 C 366.453125 220.898438 366.234375 221.578125 366.234375 222.414062 C 366.234375 222.859375 366.300781 223.246094 366.4375 223.570312 C 366.570312 223.890625 366.703125 224.152344 366.828125 224.351562 C 366.953125 224.558594 367.015625 224.71875 367.015625 224.835938 C 367.015625 225.023438 366.929688 225.183594 366.765625 225.320312 C 366.597656 225.453125 366.429688 225.523438 366.265625 225.523438 C 365.953125 225.523438 365.632812 225.214844 365.3125 224.601562 C 365 223.996094 364.84375 223.25 364.84375 222.367188 C 364.84375 221.054688 365.195312 219.980469 365.90625 219.148438 C 366.625 218.324219 367.5625 217.914062 368.71875 217.914062 Z M 370.375 219.585938 L 370.375 223.289062 C 370.375 223.632812 370.414062 223.859375 370.5 223.976562 C 370.59375 224.101562 370.765625 224.164062 371.015625 224.164062 C 371.617188 224.164062 372.144531 223.9375 372.59375 223.492188 C 373.050781 223.054688 373.28125 222.515625 373.28125 221.882812 C 373.28125 221.257812 373.066406 220.714844 372.640625 220.257812 C 372.222656 219.808594 371.707031 219.585938 371.09375 219.585938 Z M 365.59375 227.585938 L 373.90625 227.585938 C 374.070312 227.585938 374.207031 227.65625 374.3125 227.804688 C 374.425781 227.960938 374.484375 228.15625 374.484375 228.398438 C 374.484375 228.59375 374.425781 228.773438 374.3125 228.929688 C 374.195312 229.085938 374.0625 229.164062 373.90625 229.164062 L 373.078125 229.164062 C 373.503906 229.371094 373.863281 229.710938 374.15625 230.179688 C 374.445312 230.65625 374.59375 231.210938 374.59375 231.835938 C 374.59375 232.78125 374.21875 233.605469 373.46875 234.304688 C 372.71875 235 371.816406 235.351562 370.765625 235.351562 L 365.59375 235.351562 C 365.40625 235.351562 365.257812 235.265625 365.15625 235.101562 C 365.050781 234.933594 365 234.742188 365 234.523438 C 365 234.304688 365.050781 234.109375 365.15625 233.945312 C 365.257812 233.777344 365.40625 233.695312 365.59375 233.695312 L 370.765625 233.695312 C 371.359375 233.695312 371.894531 233.464844 372.375 233.007812 C 372.851562 232.558594 373.09375 232.027344 373.09375 231.414062 C 373.09375 230.839844 372.875 230.335938 372.4375 229.898438 C 372.007812 229.460938 371.453125 229.242188 370.765625 229.242188 L 365.59375 229.242188 C 365.445312 229.242188 365.3125 229.152344 365.1875 228.976562 C 365.0625 228.796875 365 228.605469 365 228.398438 C 365 228.167969 365.054688 227.976562 365.171875 227.820312 C 365.296875 227.664062 365.4375 227.585938 365.59375 227.585938 Z M 366.359375 237.054688 C 366.535156 237.054688 366.707031 237.109375 366.875 237.226562 C 367.039062 237.339844 367.125 237.480469 367.125 237.648438 C 367.125 237.75 367.039062 237.902344 366.875 238.101562 C 366.71875 238.296875 366.5625 238.585938 366.40625 238.960938 C 366.257812 239.335938 366.1875 239.773438 366.1875 240.273438 C 366.1875 240.9375 366.304688 241.421875 366.546875 241.726562 C 366.785156 242.027344 367.082031 242.179688 367.4375 242.179688 C 367.875 242.179688 368.222656 242.011719 368.484375 241.679688 C 368.742188 241.34375 368.941406 240.9375 369.078125 240.460938 C 369.210938 239.980469 369.359375 239.5 369.515625 239.023438 C 369.679688 238.542969 369.945312 238.136719 370.3125 237.804688 C 370.6875 237.46875 371.179688 237.304688 371.796875 237.304688 C 372.554688 237.304688 373.210938 237.570312 373.765625 238.101562 C 374.316406 238.640625 374.59375 239.46875 374.59375 240.585938 C 374.59375 241.292969 374.484375 241.9375 374.265625 242.523438 C 374.046875 243.105469 373.796875 243.398438 373.515625 243.398438 C 373.359375 243.398438 373.179688 243.335938 372.984375 243.210938 C 372.785156 243.085938 372.6875 242.929688 372.6875 242.742188 C 372.6875 242.6875 372.78125 242.429688 372.96875 241.960938 C 373.164062 241.5 373.265625 241.046875 373.265625 240.601562 C 373.265625 239.984375 373.117188 239.527344 372.828125 239.226562 C 372.546875 238.921875 372.222656 238.773438 371.859375 238.773438 C 371.484375 238.773438 371.1875 238.9375 370.96875 239.273438 C 370.757812 239.605469 370.59375 240.015625 370.46875 240.507812 C 370.351562 240.996094 370.207031 241.480469 370.03125 241.960938 C 369.863281 242.4375 369.566406 242.84375 369.140625 243.179688 C 368.722656 243.511719 368.179688 243.679688 367.515625 243.679688 C 366.691406 243.679688 366.039062 243.382812 365.5625 242.789062 C 365.082031 242.203125 364.84375 241.386719 364.84375 240.335938 C 364.84375 239.429688 365.003906 238.652344 365.328125 238.007812 C 365.648438 237.371094 365.992188 237.054688 366.359375 237.054688 Z M 377.359375 245.566406 C 377.554688 245.355469 377.78125 245.253906 378.03125 245.253906 C 378.289062 245.253906 378.515625 245.351562 378.703125 245.550781 C 378.890625 245.757812 378.984375 246.007812 378.984375 246.300781 C 378.984375 246.582031 378.890625 246.820312 378.703125 247.019531 C 378.515625 247.214844 378.289062 247.316406 378.03125 247.316406 C 377.78125 247.316406 377.554688 247.214844 377.359375 247.019531 C 377.171875 246.820312 377.078125 246.582031 377.078125 246.300781 C 377.078125 246.019531 377.171875 245.773438 377.359375 245.566406 Z M 365.59375 245.488281 L 373.90625 245.488281 C 374.070312 245.488281 374.207031 245.566406 374.3125 245.722656 C 374.425781 245.878906 374.484375 246.070312 374.484375 246.300781 C 374.484375 246.539062 374.425781 246.738281 374.3125 246.894531 C 374.207031 247.058594 374.070312 247.144531 373.90625 247.144531 L 365.59375 247.144531 C 365.445312 247.144531 365.3125 247.058594 365.1875 246.894531 C 365.0625 246.726562 365 246.527344 365 246.300781 C 365 246.070312 365.054688 245.878906 365.171875 245.722656 C 365.296875 245.566406 365.4375 245.488281 365.59375 245.488281 Z M 368.015625 249.460938 L 378.3125 249.460938 C 378.476562 249.460938 378.617188 249.542969 378.734375 249.710938 C 378.847656 249.886719 378.90625 250.074219 378.90625 250.273438 C 378.90625 250.492188 378.847656 250.683594 378.734375 250.851562 C 378.617188 251.027344 378.476562 251.117188 378.3125 251.117188 L 374.484375 251.117188 L 374.484375 253.632812 C 374.484375 253.789062 374.414062 253.90625 374.28125 253.992188 C 374.144531 254.085938 373.988281 254.132812 373.8125 254.132812 C 373.644531 254.132812 373.5 254.085938 373.375 253.992188 C 373.25 253.90625 373.1875 253.789062 373.1875 253.632812 L 373.1875 251.117188 L 368.015625 251.117188 C 367.441406 251.117188 367.035156 251.242188 366.796875 251.492188 C 366.566406 251.742188 366.453125 252.167969 366.453125 252.773438 L 366.453125 253.398438 C 366.453125 253.625 366.382812 253.804688 366.25 253.929688 C 366.113281 254.054688 365.941406 254.117188 365.734375 254.117188 C 365.535156 254.117188 365.363281 254.046875 365.21875 253.914062 C 365.070312 253.789062 365 253.617188 365 253.398438 L 365 252.773438 C 365 250.5625 366.003906 249.460938 368.015625 249.460938 Z M 373.796875 254.753906 C 374.015625 254.753906 374.203125 254.871094 374.359375 255.113281 C 374.515625 255.351562 374.59375 255.589844 374.59375 255.832031 C 374.59375 256.113281 374.484375 256.292969 374.265625 256.378906 L 367.296875 259.019531 L 374.265625 261.394531 C 374.484375 261.488281 374.59375 261.664062 374.59375 261.925781 C 374.59375 262.144531 374.515625 262.378906 374.359375 262.628906 C 374.203125 262.878906 374.007812 263.003906 373.78125 263.003906 C 373.71875 263.003906 373.648438 262.980469 373.578125 262.941406 L 365.4375 259.894531 L 364.4375 259.519531 C 364.25 259.457031 363.933594 259.320312 363.484375 259.113281 C 363.027344 258.914062 362.699219 258.746094 362.5 258.613281 C 362.304688 258.488281 362.042969 258.304688 361.71875 258.066406 C 361.386719 257.824219 361.148438 257.589844 361 257.363281 C 360.855469 257.132812 360.726562 256.863281 360.609375 256.550781 C 360.484375 256.238281 360.421875 255.910156 360.421875 255.566406 C 360.421875 255.042969 360.667969 254.785156 361.15625 254.785156 C 361.636719 254.785156 361.875 254.941406 361.875 255.253906 C 361.875 255.855469 362.214844 256.441406 362.890625 257.003906 C 363.570312 257.574219 364.433594 257.960938 365.484375 258.160156 L 373.578125 254.832031 C 373.660156 254.777344 373.734375 254.753906 373.796875 254.753906 Z M 376.5 267.449219 C 376.78125 267.449219 377.015625 267.566406 377.203125 267.808594 L 379.375 269.636719 C 379.550781 269.8125 379.640625 269.988281 379.640625 270.167969 C 379.640625 270.355469 379.582031 270.519531 379.46875 270.667969 C 379.363281 270.824219 379.222656 270.902344 379.046875 270.902344 L 365.59375 270.902344 C 365.40625 270.902344 365.257812 270.816406 365.15625 270.652344 C 365.050781 270.484375 365 270.285156 365 270.058594 C 365 269.828125 365.050781 269.628906 365.15625 269.464844 C 365.257812 269.296875 365.40625 269.214844 365.59375 269.214844 L 377.125 269.214844 L 376.015625 268.480469 C 375.867188 268.34375 375.796875 268.203125 375.796875 268.058594 C 375.796875 267.890625 375.863281 267.746094 376 267.621094 C 376.144531 267.503906 376.3125 267.449219 376.5 267.449219 Z M 369.234375 273.3125 L 375.265625 273.3125 C 376.765625 273.3125 377.863281 273.707031 378.5625 274.5 C 379.269531 275.300781 379.625 276.367188 379.625 277.703125 C 379.625 279.035156 379.273438 280.070312 378.578125 280.8125 C 377.890625 281.5625 377.078125 281.9375 376.140625 281.9375 C 375.648438 281.9375 375.40625 281.675781 375.40625 281.15625 C 375.40625 280.570312 375.625 280.28125 376.0625 280.28125 C 376.675781 280.28125 377.164062 280.03125 377.53125 279.53125 C 377.90625 279.03125 378.09375 278.40625 378.09375 277.65625 C 378.09375 275.882812 377.148438 275 375.265625 275 L 372.453125 275 C 373.285156 275.632812 373.703125 276.609375 373.703125 277.921875 C 373.703125 280.597656 372.351562 281.9375 369.65625 281.9375 L 369.234375 281.9375 C 367.734375 281.9375 366.628906 281.546875 365.921875 280.765625 C 365.222656 279.984375 364.875 278.9375 364.875 277.625 C 364.875 276.320312 365.222656 275.273438 365.921875 274.484375 C 366.628906 273.703125 367.734375 273.3125 369.234375 273.3125 Z M 369.15625 275 C 367.257812 275 366.3125 275.878906 366.3125 277.640625 C 366.3125 279.390625 367.257812 280.265625 369.15625 280.265625 L 369.578125 280.265625 C 371.390625 280.265625 372.296875 279.390625 372.296875 277.640625 C 372.296875 275.878906 371.453125 275 369.765625 275 Z M 366.84375 287.691406 C 367 287.691406 367.125 287.730469 367.21875 287.816406 L 369.71875 289.472656 L 372.21875 287.816406 C 372.320312 287.730469 372.445312 287.691406 372.59375 287.691406 C 372.769531 287.691406 372.921875 287.761719 373.046875 287.910156 C 373.171875 288.066406 373.234375 288.238281 373.234375 288.425781 C 373.234375 288.621094 373.140625 288.792969 372.953125 288.941406 L 370.8125 290.285156 L 372.953125 291.613281 C 373.140625 291.738281 373.234375 291.914062 373.234375 292.144531 C 373.234375 292.332031 373.171875 292.492188 373.046875 292.628906 C 372.929688 292.761719 372.78125 292.832031 372.59375 292.832031 C 372.46875 292.832031 372.34375 292.800781 372.21875 292.738281 L 369.71875 291.082031 L 367.21875 292.722656 C 367.101562 292.792969 366.976562 292.832031 366.84375 292.832031 C 366.664062 292.832031 366.515625 292.757812 366.390625 292.613281 C 366.273438 292.464844 366.21875 292.300781 366.21875 292.113281 C 366.21875 291.871094 366.3125 291.699219 366.5 291.597656 L 368.625 290.285156 L 366.5 288.941406 C 366.3125 288.804688 366.21875 288.632812 366.21875 288.425781 C 366.21875 288.238281 366.273438 288.066406 366.390625 287.910156 C 366.515625 287.761719 366.664062 287.691406 366.84375 287.691406 Z M 367.296875 294.503906 C 367.515625 294.503906 367.722656 294.574219 367.921875 294.722656 C 368.117188 294.878906 368.21875 295.050781 368.21875 295.238281 C 368.21875 295.339844 368.132812 295.488281 367.96875 295.675781 C 367.8125 295.863281 367.632812 296.050781 367.4375 296.238281 C 367.25 296.433594 367.070312 296.742188 366.90625 297.160156 C 366.738281 297.574219 366.644531 298.042969 366.625 298.566406 L 371.9375 298.566406 L 372.34375 297.488281 C 372.4375 297.226562 372.59375 296.898438 372.8125 296.503906 C 373.039062 296.117188 373.269531 295.824219 373.5 295.628906 C 373.738281 295.441406 374.054688 295.261719 374.453125 295.097656 C 374.847656 294.941406 375.289062 294.863281 375.78125 294.863281 C 376.382812 294.863281 376.914062 294.964844 377.375 295.175781 C 377.832031 295.394531 378.191406 295.683594 378.453125 296.050781 C 378.722656 296.414062 378.925781 296.804688 379.0625 297.222656 C 379.207031 297.636719 379.300781 298.085938 379.34375 298.566406 L 379.9375 298.566406 C 380.039062 298.566406 380.132812 298.613281 380.21875 298.707031 C 380.3125 298.808594 380.359375 298.933594 380.359375 299.082031 C 380.359375 299.214844 380.3125 299.335938 380.21875 299.441406 C 380.132812 299.542969 380.039062 299.597656 379.9375 299.597656 L 379.375 299.597656 C 379.332031 300.398438 379.195312 301.121094 378.96875 301.769531 C 378.738281 302.425781 378.4375 302.753906 378.0625 302.753906 C 377.875 302.753906 377.671875 302.683594 377.453125 302.550781 C 377.242188 302.425781 377.140625 302.253906 377.140625 302.035156 C 377.140625 301.972656 377.253906 301.691406 377.484375 301.191406 C 377.722656 300.699219 377.851562 300.167969 377.875 299.597656 L 373.3125 299.597656 C 373.132812 300.117188 372.953125 300.542969 372.765625 300.878906 C 372.585938 301.222656 372.34375 301.582031 372.03125 301.957031 C 371.71875 302.339844 371.316406 302.628906 370.828125 302.816406 C 370.335938 303.011719 369.769531 303.113281 369.125 303.113281 C 367.945312 303.113281 367.015625 302.792969 366.328125 302.160156 C 365.648438 301.535156 365.238281 300.679688 365.09375 299.597656 L 364.375 299.597656 C 364.273438 299.597656 364.179688 299.542969 364.09375 299.441406 C 364 299.335938 363.953125 299.214844 363.953125 299.082031 C 363.953125 298.933594 364 298.808594 364.09375 298.707031 C 364.179688 298.613281 364.273438 298.566406 364.375 298.566406 L 365.046875 298.566406 C 365.054688 297.417969 365.3125 296.457031 365.8125 295.675781 C 366.320312 294.894531 366.816406 294.503906 367.296875 294.503906 Z M 375.9375 296.457031 C 375.3125 296.457031 374.84375 296.632812 374.53125 296.988281 C 374.21875 297.351562 373.925781 297.902344 373.65625 298.644531 L 377.859375 298.644531 C 377.710938 297.183594 377.070312 296.457031 375.9375 296.457031 Z M 366.65625 299.519531 C 366.875 300.851562 367.640625 301.519531 368.953125 301.519531 C 369.648438 301.519531 370.191406 301.347656 370.578125 301.003906 C 370.960938 300.660156 371.289062 300.164062 371.5625 299.519531 Z M 379.859375 308.621094 C 380.003906 308.621094 380.125 308.691406 380.21875 308.839844 C 380.3125 308.984375 380.359375 309.152344 380.359375 309.339844 C 380.359375 309.527344 380.3125 309.691406 380.21875 309.839844 C 380.125 309.996094 380.003906 310.074219 379.859375 310.074219 L 376.953125 309.871094 C 376.804688 309.871094 376.679688 309.824219 376.578125 309.730469 C 376.484375 309.644531 376.4375 309.515625 376.4375 309.339844 C 376.4375 308.996094 376.609375 308.824219 376.953125 308.824219 Z M 379.859375 311.339844 C 380.003906 311.339844 380.125 311.410156 380.21875 311.558594 C 380.3125 311.703125 380.359375 311.871094 380.359375 312.058594 C 380.359375 312.246094 380.3125 312.410156 380.21875 312.558594 C 380.125 312.714844 380.003906 312.792969 379.859375 312.792969 L 376.953125 312.605469 C 376.804688 312.605469 376.679688 312.558594 376.578125 312.464844 C 376.484375 312.371094 376.4375 312.234375 376.4375 312.058594 C 376.4375 311.714844 376.609375 311.542969 376.953125 311.542969 Z M 363.125 313.9375 C 364.09375 313.9375 364.820312 314.476562 365.296875 315.5625 C 365.554688 314.882812 366.003906 314.546875 366.640625 314.546875 C 367.253906 314.546875 367.75 314.878906 368.125 315.546875 C 368.738281 314.785156 369.578125 314.40625 370.640625 314.40625 L 371.296875 314.40625 C 372.273438 314.40625 373.066406 314.726562 373.671875 315.375 C 374.285156 316.03125 374.59375 316.890625 374.59375 317.953125 C 374.59375 318.859375 374.332031 319.640625 373.8125 320.296875 C 374.6875 320.703125 375.125 321.15625 375.125 321.65625 C 375.125 321.875 375.054688 322.046875 374.921875 322.171875 C 374.796875 322.304688 374.65625 322.375 374.5 322.375 C 374.300781 322.375 374.148438 322.265625 374.046875 322.046875 C 373.921875 321.585938 373.640625 321.222656 373.203125 320.953125 C 372.703125 321.367188 372.066406 321.578125 371.296875 321.578125 L 370.640625 321.578125 C 369.679688 321.578125 368.882812 321.238281 368.25 320.5625 C 367.625 319.882812 367.3125 319.015625 367.3125 317.953125 C 367.3125 317.410156 367.414062 316.921875 367.625 316.484375 C 367.414062 316.148438 367.1875 315.984375 366.9375 315.984375 C 366.6875 315.984375 366.488281 316.132812 366.34375 316.4375 C 366.207031 316.75 366.125 317.128906 366.09375 317.578125 C 366.0625 318.035156 366 318.53125 365.90625 319.0625 C 365.8125 319.59375 365.6875 320.082031 365.53125 320.53125 C 365.382812 320.988281 365.128906 321.367188 364.765625 321.671875 C 364.390625 321.984375 363.917969 322.140625 363.34375 322.140625 C 362.398438 322.140625 361.671875 321.757812 361.171875 321 C 360.671875 320.25 360.421875 319.273438 360.421875 318.078125 C 360.421875 316.878906 360.667969 315.890625 361.15625 315.109375 C 361.636719 314.328125 362.292969 313.9375 363.125 313.9375 Z M 363.296875 315.515625 C 362.777344 315.515625 362.359375 315.742188 362.046875 316.203125 C 361.734375 316.671875 361.578125 317.289062 361.578125 318.0625 C 361.578125 318.8125 361.734375 319.40625 362.046875 319.84375 C 362.359375 320.289062 362.777344 320.515625 363.296875 320.515625 C 363.515625 320.515625 363.703125 320.476562 363.859375 320.40625 C 364.015625 320.332031 364.152344 320.210938 364.265625 320.046875 C 364.371094 319.890625 364.460938 319.734375 364.53125 319.578125 C 364.605469 319.421875 364.667969 319.210938 364.71875 318.953125 C 364.761719 318.703125 364.792969 318.492188 364.8125 318.328125 C 364.835938 318.160156 364.859375 317.941406 364.890625 317.671875 C 364.914062 317.398438 364.929688 317.207031 364.9375 317.09375 C 364.59375 316.039062 364.046875 315.515625 363.296875 315.515625 Z M 370.65625 316.015625 C 370.019531 316.015625 369.492188 316.191406 369.078125 316.546875 C 368.660156 316.898438 368.453125 317.382812 368.453125 318 C 368.453125 318.582031 368.65625 319.050781 369.0625 319.40625 C 369.476562 319.769531 370.003906 319.953125 370.640625 319.953125 L 371.296875 319.953125 C 371.910156 319.953125 372.421875 319.769531 372.828125 319.40625 C 373.242188 319.050781 373.453125 318.578125 373.453125 317.984375 C 373.453125 317.367188 373.25 316.882812 372.84375 316.53125 C 372.4375 316.1875 371.921875 316.015625 371.296875 316.015625 Z M 365.59375 323.828125 L 373.90625 323.828125 C 374.070312 323.828125 374.207031 323.898438 374.3125 324.046875 C 374.425781 324.203125 374.484375 324.398438 374.484375 324.640625 C 374.484375 324.847656 374.425781 325.023438 374.3125 325.171875 C 374.207031 325.328125 374.070312 325.40625 373.90625 325.40625 L 372.953125 325.40625 C 373.410156 325.644531 373.796875 325.992188 374.109375 326.453125 C 374.429688 326.921875 374.59375 327.441406 374.59375 328.015625 L 374.59375 328.703125 C 374.59375 328.867188 374.515625 329.015625 374.359375 329.140625 C 374.210938 329.273438 374.039062 329.34375 373.84375 329.34375 C 373.644531 329.34375 373.46875 329.273438 373.3125 329.140625 C 373.164062 329.015625 373.09375 328.867188 373.09375 328.703125 L 373.09375 328.015625 C 373.09375 327.335938 372.816406 326.742188 372.265625 326.234375 C 371.722656 325.734375 371.019531 325.484375 370.15625 325.484375 L 365.59375 325.484375 C 365.445312 325.484375 365.3125 325.398438 365.1875 325.234375 C 365.0625 325.066406 365 324.867188 365 324.640625 C 365 324.410156 365.054688 324.21875 365.171875 324.0625 C 365.296875 323.90625 365.4375 323.828125 365.59375 323.828125 Z M 368.71875 330.332031 L 370.8125 330.332031 C 371.84375 330.332031 372.726562 330.722656 373.46875 331.503906 C 374.21875 332.285156 374.59375 333.222656 374.59375 334.316406 C 374.59375 335.355469 374.242188 336.257812 373.546875 337.019531 C 372.847656 337.777344 371.972656 338.160156 370.921875 338.160156 C 370.535156 338.160156 370.222656 338.113281 369.984375 338.019531 C 369.753906 337.925781 369.585938 337.777344 369.484375 337.582031 C 369.390625 337.394531 369.328125 337.214844 369.296875 337.050781 C 369.273438 336.882812 369.265625 336.660156 369.265625 336.378906 L 369.265625 332.003906 L 368.65625 332.003906 C 367.925781 332.003906 367.335938 332.261719 366.890625 332.785156 C 366.453125 333.316406 366.234375 333.996094 366.234375 334.832031 C 366.234375 335.277344 366.300781 335.664062 366.4375 335.988281 C 366.570312 336.308594 366.703125 336.570312 366.828125 336.769531 C 366.953125 336.976562 367.015625 337.136719 367.015625 337.253906 C 367.015625 337.441406 366.929688 337.601562 366.765625 337.738281 C 366.597656 337.871094 366.429688 337.941406 366.265625 337.941406 C 365.953125 337.941406 365.632812 337.632812 365.3125 337.019531 C 365 336.414062 364.84375 335.667969 364.84375 334.785156 C 364.84375 333.472656 365.195312 332.398438 365.90625 331.566406 C 366.625 330.742188 367.5625 330.332031 368.71875 330.332031 Z M 370.375 332.003906 L 370.375 335.707031 C 370.375 336.050781 370.414062 336.277344 370.5 336.394531 C 370.59375 336.519531 370.765625 336.582031 371.015625 336.582031 C 371.617188 336.582031 372.144531 336.355469 372.59375 335.910156 C 373.050781 335.472656 373.28125 334.933594 373.28125 334.300781 C 373.28125 333.675781 373.066406 333.132812 372.640625 332.675781 C 372.222656 332.226562 371.707031 332.003906 371.09375 332.003906 Z M 373.796875 339.054688 C 374.015625 339.054688 374.203125 339.171875 374.359375 339.414062 C 374.515625 339.652344 374.59375 339.890625 374.59375 340.132812 C 374.59375 340.414062 374.484375 340.59375 374.265625 340.679688 L 367.296875 343.320312 L 374.265625 345.695312 C 374.484375 345.789062 374.59375 345.964844 374.59375 346.226562 C 374.59375 346.445312 374.515625 346.679688 374.359375 346.929688 C 374.203125 347.179688 374.007812 347.304688 373.78125 347.304688 C 373.71875 347.304688 373.648438 347.28125 373.578125 347.242188 L 365.4375 344.195312 L 364.4375 343.820312 C 364.25 343.757812 363.933594 343.621094 363.484375 343.414062 C 363.027344 343.214844 362.699219 343.046875 362.5 342.914062 C 362.304688 342.789062 362.042969 342.605469 361.71875 342.367188 C 361.386719 342.125 361.148438 341.890625 361 341.664062 C 360.855469 341.433594 360.726562 341.164062 360.609375 340.851562 C 360.484375 340.539062 360.421875 340.210938 360.421875 339.867188 C 360.421875 339.34375 360.667969 339.085938 361.15625 339.085938 C 361.636719 339.085938 361.875 339.242188 361.875 339.554688 C 361.875 340.15625 362.214844 340.742188 362.890625 341.304688 C 363.570312 341.875 364.433594 342.261719 365.484375 342.460938 L 373.578125 339.132812 C 373.660156 339.078125 373.734375 339.054688 373.796875 339.054688 Z M 365.59375 352.761719 L 379.625 352.761719 C 379.789062 352.761719 379.925781 352.832031 380.03125 352.980469 C 380.144531 353.136719 380.203125 353.332031 380.203125 353.574219 C 380.203125 353.8125 380.144531 354.011719 380.03125 354.167969 C 379.925781 354.332031 379.789062 354.417969 379.625 354.417969 L 373.078125 354.417969 C 373.503906 354.65625 373.863281 355 374.15625 355.449219 C 374.445312 355.90625 374.59375 356.4375 374.59375 357.042969 C 374.59375 358.011719 374.21875 358.847656 373.46875 359.558594 C 372.71875 360.265625 371.816406 360.621094 370.765625 360.621094 L 368.71875 360.621094 C 367.707031 360.621094 366.804688 360.265625 366.015625 359.558594 C 365.234375 358.847656 364.84375 358.03125 364.84375 357.105469 C 364.84375 356.5 364.996094 355.941406 365.296875 355.433594 C 365.609375 354.933594 365.976562 354.566406 366.40625 354.339844 L 365.59375 354.339844 C 365.4375 354.339844 365.296875 354.261719 365.171875 354.105469 C 365.054688 353.949219 365 353.769531 365 353.574219 C 365 353.355469 365.054688 353.160156 365.171875 352.996094 C 365.296875 352.839844 365.4375 352.761719 365.59375 352.761719 Z M 368.1875 354.417969 C 367.851562 354.417969 367.460938 354.652344 367.015625 355.121094 C 366.566406 355.589844 366.34375 356.113281 366.34375 356.699219 C 366.34375 357.300781 366.582031 357.828125 367.0625 358.277344 C 367.550781 358.734375 368.101562 358.964844 368.71875 358.964844 L 370.765625 358.964844 C 371.359375 358.964844 371.894531 358.734375 372.375 358.277344 C 372.851562 357.828125 373.09375 357.296875 373.09375 356.683594 C 373.09375 356.078125 372.875 355.546875 372.4375 355.089844 C 372.007812 354.640625 371.453125 354.417969 370.765625 354.417969 Z M 365.59375 362.800781 L 379.625 362.800781 C 379.789062 362.800781 379.925781 362.871094 380.03125 363.019531 C 380.144531 363.175781 380.203125 363.371094 380.203125 363.613281 C 380.203125 363.863281 380.144531 364.066406 380.03125 364.222656 C 379.925781 364.378906 379.789062 364.457031 379.625 364.457031 L 365.59375 364.457031 C 365.445312 364.457031 365.3125 364.371094 365.1875 364.207031 C 365.0625 364.039062 365 363.839844 365 363.613281 C 365 363.394531 365.054688 363.199219 365.171875 363.035156 C 365.296875 362.878906 365.4375 362.800781 365.59375 362.800781 Z M 367.5 366.382812 C 368.539062 366.382812 369.265625 366.777344 369.671875 367.570312 C 370.078125 368.371094 370.28125 369.53125 370.28125 371.054688 L 370.28125 372.023438 L 370.703125 372.023438 C 371.367188 372.023438 371.945312 371.835938 372.4375 371.460938 C 372.9375 371.09375 373.1875 370.546875 373.1875 369.820312 C 373.1875 369.257812 373.085938 368.761719 372.890625 368.335938 C 372.691406 367.90625 372.59375 367.671875 372.59375 367.632812 C 372.59375 367.453125 372.679688 367.308594 372.859375 367.195312 C 373.046875 367.078125 373.238281 367.023438 373.4375 367.023438 C 373.75 367.023438 374.019531 367.324219 374.25 367.929688 C 374.476562 368.53125 374.59375 369.179688 374.59375 369.867188 C 374.59375 371.167969 374.222656 372.125 373.484375 372.742188 C 372.742188 373.367188 371.820312 373.679688 370.71875 373.679688 L 365.59375 373.679688 C 365.425781 373.679688 365.285156 373.601562 365.171875 373.445312 C 365.054688 373.296875 365 373.105469 365 372.867188 C 365 372.648438 365.054688 372.464844 365.171875 372.320312 C 365.285156 372.171875 365.425781 372.101562 365.59375 372.101562 L 366.40625 372.101562 C 365.363281 371.195312 364.84375 370.1875 364.84375 369.085938 C 364.84375 368.28125 365.066406 367.632812 365.515625 367.132812 C 365.972656 366.632812 366.632812 366.382812 367.5 366.382812 Z M 367.6875 368.054688 C 367.1875 368.054688 366.8125 368.195312 366.5625 368.476562 C 366.3125 368.757812 366.1875 369.132812 366.1875 369.601562 C 366.1875 370.164062 366.40625 370.703125 366.84375 371.226562 C 367.289062 371.757812 367.75 372.023438 368.21875 372.023438 L 369.265625 372.023438 L 369.265625 371.320312 C 369.265625 370.933594 369.253906 370.601562 369.234375 370.320312 C 369.210938 370.039062 369.171875 369.746094 369.109375 369.445312 C 369.046875 369.152344 368.957031 368.90625 368.84375 368.710938 C 368.738281 368.511719 368.585938 368.351562 368.390625 368.226562 C 368.191406 368.109375 367.957031 368.054688 367.6875 368.054688 Z M 368.71875 375.625 L 370.71875 375.625 C 371.863281 375.625 372.796875 375.957031 373.515625 376.625 C 374.234375 377.300781 374.59375 378.289062 374.59375 379.59375 C 374.59375 380.425781 374.445312 381.125 374.15625 381.6875 C 373.863281 382.257812 373.550781 382.546875 373.21875 382.546875 C 373.03125 382.546875 372.847656 382.472656 372.671875 382.328125 C 372.492188 382.191406 372.40625 382.03125 372.40625 381.84375 C 372.40625 381.789062 372.519531 381.5625 372.75 381.15625 C 372.976562 380.75 373.09375 380.269531 373.09375 379.71875 C 373.09375 378.914062 372.882812 378.304688 372.46875 377.890625 C 372.0625 377.484375 371.476562 377.28125 370.71875 377.28125 L 368.71875 377.28125 C 367.132812 377.28125 366.34375 378.097656 366.34375 379.734375 C 366.34375 380.296875 366.460938 380.785156 366.703125 381.203125 C 366.941406 381.617188 367.0625 381.859375 367.0625 381.921875 C 367.0625 382.128906 366.972656 382.300781 366.796875 382.4375 C 366.628906 382.582031 366.453125 382.65625 366.265625 382.65625 C 365.929688 382.65625 365.609375 382.363281 365.296875 381.78125 C 364.996094 381.195312 364.84375 380.476562 364.84375 379.625 C 364.84375 378.300781 365.195312 377.300781 365.90625 376.625 C 366.625 375.957031 367.5625 375.625 368.71875 375.625 Z M 365.59375 384.324219 L 379.625 384.324219 C 379.789062 384.324219 379.925781 384.394531 380.03125 384.542969 C 380.144531 384.699219 380.203125 384.894531 380.203125 385.136719 C 380.203125 385.375 380.144531 385.574219 380.03125 385.730469 C 379.925781 385.894531 379.789062 385.980469 379.625 385.980469 L 370.265625 385.980469 L 374.375 390.542969 C 374.46875 390.65625 374.515625 390.777344 374.515625 390.902344 C 374.515625 391.097656 374.4375 391.285156 374.28125 391.464844 C 374.125 391.652344 373.941406 391.746094 373.734375 391.746094 C 373.578125 391.746094 373.445312 391.683594 373.34375 391.558594 L 370.875 388.777344 L 366.0625 392.105469 C 365.957031 392.167969 365.859375 392.199219 365.765625 392.199219 C 365.554688 392.199219 365.363281 392.097656 365.1875 391.902344 C 365.007812 391.703125 364.921875 391.496094 364.921875 391.277344 C 364.921875 391.089844 365.007812 390.9375 365.1875 390.824219 L 369.84375 387.636719 L 368.359375 385.980469 L 365.59375 385.980469 C 365.445312 385.980469 365.3125 385.894531 365.1875 385.730469 C 365.0625 385.5625 365 385.363281 365 385.136719 C 365 384.917969 365.054688 384.722656 365.171875 384.558594 C 365.296875 384.402344 365.4375 384.324219 365.59375 384.324219 Z M 379.859375 393.164062 C 380.003906 393.164062 380.125 393.234375 380.21875 393.382812 C 380.3125 393.527344 380.359375 393.695312 380.359375 393.882812 C 380.359375 394.070312 380.3125 394.234375 380.21875 394.382812 C 380.125 394.539062 380.003906 394.617188 379.859375 394.617188 L 376.953125 394.414062 C 376.804688 394.414062 376.679688 394.367188 376.578125 394.273438 C 376.484375 394.1875 376.4375 394.058594 376.4375 393.882812 C 376.4375 393.539062 376.609375 393.367188 376.953125 393.367188 Z M 379.859375 395.882812 C 380.003906 395.882812 380.125 395.953125 380.21875 396.101562 C 380.3125 396.246094 380.359375 396.414062 380.359375 396.601562 C 380.359375 396.789062 380.3125 396.953125 380.21875 397.101562 C 380.125 397.257812 380.003906 397.335938 379.859375 397.335938 L 376.953125 397.148438 C 376.804688 397.148438 376.679688 397.101562 376.578125 397.007812 C 376.484375 396.914062 376.4375 396.777344 376.4375 396.601562 C 376.4375 396.257812 376.609375 396.085938 376.953125 396.085938 Z M 366.84375 398.992188 C 367 398.992188 367.125 399.03125 367.21875 399.117188 L 369.71875 400.773438 L 372.21875 399.117188 C 372.320312 399.03125 372.445312 398.992188 372.59375 398.992188 C 372.769531 398.992188 372.921875 399.0625 373.046875 399.210938 C 373.171875 399.367188 373.234375 399.539062 373.234375 399.726562 C 373.234375 399.921875 373.140625 400.09375 372.953125 400.242188 L 370.8125 401.585938 L 372.953125 402.914062 C 373.140625 403.039062 373.234375 403.214844 373.234375 403.445312 C 373.234375 403.632812 373.171875 403.792969 373.046875 403.929688 C 372.929688 404.0625 372.78125 404.132812 372.59375 404.132812 C 372.46875 404.132812 372.34375 404.101562 372.21875 404.039062 L 369.71875 402.382812 L 367.21875 404.023438 C 367.101562 404.09375 366.976562 404.132812 366.84375 404.132812 C 366.664062 404.132812 366.515625 404.058594 366.390625 403.914062 C 366.273438 403.765625 366.21875 403.601562 366.21875 403.414062 C 366.21875 403.171875 366.3125 403 366.5 402.898438 L 368.625 401.585938 L 366.5 400.242188 C 366.3125 400.105469 366.21875 399.933594 366.21875 399.726562 C 366.21875 399.539062 366.273438 399.367188 366.390625 399.210938 C 366.515625 399.0625 366.664062 398.992188 366.84375 398.992188 Z M 365 405.101562 "/>
</g>
</svg>
