<?xml version="1.0" encoding="UTF-8"?>
<svg xmlns="http://www.w3.org/2000/svg" xmlns:xlink="http://www.w3.org/1999/xlink" width="384pt" height="288pt" viewBox="0 0 384 288" version="1.1">
<g id="surface173">
<path style=" stroke:none;fill-rule:nonzero;fill:rgb(0%,0%,0%);fill-opacity:1;" d="M 0 0 L 284 0 L 284 288 L 0 288 Z M 0 0 "/>
<path style=" stroke:none;fill-rule:nonzero;fill:rgb(50.196078%,50.196078%,50.196078%);fill-opacity:1;" d="M 0 0 L 35.5 0 L 35.5 288 L 0 288 Z M 0 0 "/>
<path style=" stroke:none;fill-rule:nonzero;fill:rgb(0%,0%,0%);fill-opacity:1;" d="M 35.5 0 L 71 0 L 71 288 L 35.5 288 Z M 35.5 0 "/>
<path style=" stroke:none;fill-rule:nonzero;fill:rgb(50.196078%,50.196078%,50.196078%);fill-opacity:1;" d="M 71 0 L 106.5 0 L 106.5 288 L 71 288 Z M 71 0 "/>
<path style=" stroke:none;fill-rule:nonzero;fill:rgb(0%,0%,0%);fill-opacity:1;" d="M 106.5 0 L 142 0 L 142 288 L 106.5 288 Z M 106.5 0 "/>
<path style=" stroke:none;fill-rule:nonzero;fill:rgb(50.196078%,50.196078%,50.196078%);fill-opacity:1;" d="M 142 0 L 177.5 0 L 177.5 288 L 142 288 Z M 142 0 "/>
<path style=" stroke:none;fill-rule:nonzero;fill:rgb(0%,0%,0%);fill-opacity:1;" d="M 177.5 0 L 213 0 L 213 288 L 177.5 288 Z M 177.5 0 "/>
<path style=" stroke:none;fill-rule:nonzero;fill:rgb(50.196078%,50.196078%,50.196078%);fill-opacity:1;" d="M 213 0 L 248.5 0 L 248.5 288 L 213 288 Z M 213 0 "/>
<path style=" stroke:none;fill-rule:nonzero;fill:rgb(0%,0%,0%);fill-opacity:1;" d="M 248.5 0 L 284 0 L 284 288 L 248.5 288 Z M 248.5 0 "/>
<path style=" stroke:none;fill-rule:nonzero;fill:rgb(0%,0%,0%);fill-opacity:1;" d="M 350.34375 20.71875 L 356.875 20.71875 C 357.5 20.71875 358.03125 20.925781 358.46875 21.34375 C 358.90625 21.769531 359.125 22.269531 359.125 22.84375 L 359.125 23.265625 C 359.125 23.390625 359.078125 23.488281 358.984375 23.5625 C 358.898438 23.632812 358.796875 23.671875 358.671875 23.671875 C 358.554688 23.671875 358.457031 23.632812 358.375 23.5625 C 358.289062 23.488281 358.25 23.390625 358.25 23.265625 L 358.25 23.015625 C 358.25 22.640625 358.125 22.332031 357.875 22.09375 C 357.625 21.851562 357.316406 21.726562 356.953125 21.71875 L 355.6875 21.71875 L 355.6875 23.359375 C 355.6875 23.453125 355.644531 23.523438 355.5625 23.578125 C 355.488281 23.640625 355.398438 23.671875 355.296875 23.671875 C 355.191406 23.671875 355.097656 23.640625 355.015625 23.578125 C 354.941406 23.523438 354.90625 23.453125 354.90625 23.359375 L 354.90625 21.71875 L 350.34375 21.71875 C 350.25 21.71875 350.164062 21.664062 350.09375 21.5625 C 350.03125 21.46875 350 21.347656 350 21.203125 C 350 21.066406 350.03125 20.953125 350.09375 20.859375 C 350.15625 20.765625 350.238281 20.71875 350.34375 20.71875 Z M 352.234375 24.265625 L 353.453125 24.265625 C 354.066406 24.265625 354.601562 24.5 355.0625 24.96875 C 355.53125 25.4375 355.765625 25.988281 355.765625 26.625 C 355.765625 27.269531 355.535156 27.828125 355.078125 28.296875 C 354.617188 28.773438 354.078125 29.015625 353.453125 29.015625 L 352.234375 29.015625 C 351.617188 29.015625 351.078125 28.773438 350.609375 28.296875 C 350.140625 27.816406 349.90625 27.257812 349.90625 26.625 C 349.90625 26 350.140625 25.445312 350.609375 24.96875 C 351.078125 24.5 351.617188 24.265625 352.234375 24.265625 Z M 352.234375 25.265625 C 351.859375 25.265625 351.523438 25.398438 351.234375 25.671875 C 350.941406 25.941406 350.796875 26.265625 350.796875 26.640625 C 350.796875 27.015625 350.941406 27.335938 351.234375 27.609375 C 351.535156 27.878906 351.867188 28.015625 352.234375 28.015625 L 353.453125 28.015625 C 353.816406 28.015625 354.140625 27.878906 354.421875 27.609375 C 354.710938 27.335938 354.859375 27.015625 354.859375 26.640625 C 354.859375 26.265625 354.710938 25.941406 354.421875 25.671875 C 354.140625 25.398438 353.816406 25.265625 353.453125 25.265625 Z M 350.359375 30.316406 L 358.765625 30.316406 C 358.867188 30.316406 358.953125 30.363281 359.015625 30.457031 C 359.085938 30.550781 359.125 30.667969 359.125 30.816406 C 359.125 30.960938 359.085938 31.082031 359.015625 31.175781 C 358.953125 31.269531 358.867188 31.316406 358.765625 31.316406 L 350.359375 31.316406 C 350.273438 31.316406 350.191406 31.261719 350.109375 31.160156 C 350.035156 31.066406 350 30.949219 350 30.816406 C 350 30.679688 350.035156 30.558594 350.109375 30.457031 C 350.179688 30.363281 350.265625 30.316406 350.359375 30.316406 Z M 352.234375 32.617188 L 353.453125 32.617188 C 354.085938 32.617188 354.628906 32.828125 355.078125 33.257812 C 355.535156 33.683594 355.765625 34.1875 355.765625 34.773438 C 355.765625 35.136719 355.675781 35.453125 355.5 35.726562 C 355.320312 35.996094 355.101562 36.203125 354.84375 36.351562 L 358.765625 36.351562 C 358.867188 36.351562 358.953125 36.398438 359.015625 36.492188 C 359.085938 36.585938 359.125 36.703125 359.125 36.851562 C 359.125 36.996094 359.085938 37.109375 359.015625 37.195312 C 358.953125 37.289062 358.867188 37.335938 358.765625 37.335938 L 350.359375 37.335938 C 350.265625 37.335938 350.179688 37.289062 350.109375 37.195312 C 350.035156 37.101562 350 36.984375 350 36.851562 C 350 36.726562 350.035156 36.617188 350.109375 36.523438 C 350.179688 36.4375 350.265625 36.398438 350.359375 36.398438 L 350.84375 36.398438 C 350.582031 36.261719 350.359375 36.039062 350.171875 35.726562 C 349.996094 35.421875 349.90625 35.09375 349.90625 34.742188 C 349.90625 34.179688 350.140625 33.683594 350.609375 33.257812 C 351.078125 32.828125 351.617188 32.617188 352.234375 32.617188 Z M 352.234375 33.617188 C 351.867188 33.617188 351.535156 33.75 351.234375 34.023438 C 350.941406 34.292969 350.796875 34.609375 350.796875 34.976562 C 350.796875 35.328125 350.929688 35.648438 351.203125 35.929688 C 351.472656 36.210938 351.707031 36.351562 351.90625 36.351562 L 353.453125 36.351562 C 353.867188 36.351562 354.207031 36.210938 354.46875 35.929688 C 354.726562 35.65625 354.859375 35.34375 354.859375 34.992188 C 354.859375 34.617188 354.710938 34.292969 354.421875 34.023438 C 354.140625 33.75 353.816406 33.617188 353.453125 33.617188 Z M 350.359375 38.917969 L 358.40625 38.917969 C 358.519531 38.917969 358.609375 38.957031 358.671875 39.042969 C 358.734375 39.136719 358.765625 39.246094 358.765625 39.371094 L 358.765625 43.636719 C 358.765625 43.75 358.722656 43.832031 358.640625 43.886719 C 358.554688 43.949219 358.453125 43.980469 358.328125 43.980469 C 358.203125 43.980469 358.09375 43.949219 358 43.886719 C 357.90625 43.824219 357.859375 43.738281 357.859375 43.636719 L 357.859375 39.917969 L 354.8125 39.917969 L 354.8125 41.792969 C 354.8125 41.894531 354.769531 41.980469 354.6875 42.042969 C 354.601562 42.105469 354.5 42.136719 354.375 42.136719 C 354.269531 42.136719 354.175781 42.105469 354.09375 42.042969 C 354.007812 41.988281 353.96875 41.90625 353.96875 41.792969 L 353.96875 39.917969 L 350.90625 39.917969 L 350.90625 43.636719 C 350.90625 43.738281 350.859375 43.824219 350.765625 43.886719 C 350.679688 43.949219 350.570312 43.980469 350.4375 43.980469 C 350.320312 43.980469 350.21875 43.949219 350.125 43.886719 C 350.039062 43.832031 350 43.75 350 43.636719 L 350 39.371094 C 350 39.246094 350.03125 39.136719 350.09375 39.042969 C 350.15625 38.957031 350.242188 38.917969 350.359375 38.917969 Z M 355.28125 44.367188 C 355.394531 44.367188 355.492188 44.433594 355.578125 44.570312 C 355.671875 44.714844 355.71875 44.859375 355.71875 45.007812 C 355.71875 45.171875 355.648438 45.28125 355.515625 45.335938 L 351.4375 46.851562 L 355.46875 48.351562 C 355.632812 48.414062 355.71875 48.523438 355.71875 48.679688 C 355.71875 48.804688 355.671875 48.9375 355.578125 49.085938 C 355.492188 49.242188 355.394531 49.320312 355.28125 49.320312 C 355.21875 49.320312 355.15625 49.304688 355.09375 49.273438 L 350.109375 47.304688 C 349.964844 47.242188 349.890625 47.089844 349.890625 46.851562 C 349.890625 46.601562 349.964844 46.445312 350.109375 46.382812 L 355.09375 44.414062 C 355.1875 44.382812 355.25 44.367188 355.28125 44.367188 Z M 352.234375 49.957031 L 353.484375 49.957031 C 354.109375 49.957031 354.644531 50.191406 355.09375 50.660156 C 355.539062 51.128906 355.765625 51.691406 355.765625 52.347656 C 355.765625 52.972656 355.550781 53.511719 355.125 53.972656 C 354.707031 54.429688 354.179688 54.660156 353.546875 54.660156 C 353.316406 54.660156 353.128906 54.628906 352.984375 54.566406 C 352.847656 54.511719 352.75 54.429688 352.6875 54.316406 C 352.632812 54.199219 352.597656 54.089844 352.578125 53.988281 C 352.566406 53.894531 352.5625 53.757812 352.5625 53.582031 L 352.5625 50.957031 L 352.203125 50.957031 C 351.753906 50.957031 351.398438 51.113281 351.140625 51.425781 C 350.878906 51.746094 350.75 52.160156 350.75 52.660156 C 350.75 52.929688 350.785156 53.160156 350.859375 53.347656 C 350.941406 53.542969 351.019531 53.699219 351.09375 53.816406 C 351.175781 53.941406 351.21875 54.039062 351.21875 54.113281 C 351.21875 54.226562 351.164062 54.320312 351.0625 54.394531 C 350.957031 54.476562 350.851562 54.519531 350.75 54.519531 C 350.570312 54.519531 350.382812 54.335938 350.1875 53.972656 C 350 53.605469 349.90625 53.160156 349.90625 52.628906 C 349.90625 51.847656 350.117188 51.207031 350.546875 50.707031 C 350.972656 50.207031 351.535156 49.957031 352.234375 49.957031 Z M 353.234375 50.957031 L 353.234375 53.175781 C 353.234375 53.382812 353.257812 53.523438 353.3125 53.597656 C 353.363281 53.667969 353.460938 53.707031 353.609375 53.707031 C 353.972656 53.707031 354.289062 53.570312 354.5625 53.300781 C 354.832031 53.039062 354.96875 52.722656 354.96875 52.347656 C 354.96875 51.960938 354.84375 51.632812 354.59375 51.363281 C 354.34375 51.089844 354.03125 50.957031 353.65625 50.957031 Z M 350.359375 55.753906 L 355.34375 55.753906 C 355.445312 55.753906 355.53125 55.800781 355.59375 55.894531 C 355.65625 55.988281 355.6875 56.105469 355.6875 56.253906 C 355.6875 56.378906 355.65625 56.480469 355.59375 56.566406 C 355.53125 56.660156 355.445312 56.707031 355.34375 56.707031 L 354.78125 56.707031 C 355.050781 56.851562 355.28125 57.066406 355.46875 57.347656 C 355.664062 57.628906 355.765625 57.941406 355.765625 58.285156 L 355.765625 58.691406 C 355.765625 58.792969 355.71875 58.882812 355.625 58.957031 C 355.53125 59.027344 355.421875 59.066406 355.296875 59.066406 C 355.179688 59.066406 355.078125 59.027344 354.984375 58.957031 C 354.898438 58.882812 354.859375 58.792969 354.859375 58.691406 L 354.859375 58.285156 C 354.859375 57.867188 354.691406 57.507812 354.359375 57.207031 C 354.035156 56.902344 353.613281 56.753906 353.09375 56.753906 L 350.359375 56.753906 C 350.273438 56.753906 350.191406 56.699219 350.109375 56.597656 C 350.035156 56.503906 350 56.386719 350 56.253906 C 350 56.117188 350.035156 55.996094 350.109375 55.894531 C 350.179688 55.800781 350.265625 55.753906 350.359375 55.753906 Z M 355.28125 59.320312 C 355.40625 59.320312 355.515625 59.390625 355.609375 59.539062 C 355.710938 59.683594 355.765625 59.828125 355.765625 59.976562 C 355.765625 60.140625 355.695312 60.246094 355.5625 60.289062 L 351.375 61.882812 L 355.5625 63.304688 C 355.695312 63.367188 355.765625 63.46875 355.765625 63.617188 C 355.765625 63.75 355.710938 63.890625 355.609375 64.039062 C 355.515625 64.195312 355.398438 64.273438 355.265625 64.273438 C 355.222656 64.273438 355.179688 64.257812 355.140625 64.226562 L 350.265625 62.414062 L 349.65625 62.179688 C 349.554688 62.136719 349.367188 62.054688 349.09375 61.929688 C 348.824219 61.8125 348.625 61.714844 348.5 61.632812 C 348.375 61.558594 348.21875 61.449219 348.03125 61.304688 C 347.835938 61.15625 347.695312 61.015625 347.609375 60.882812 C 347.515625 60.746094 347.433594 60.585938 347.359375 60.398438 C 347.289062 60.210938 347.25 60.011719 347.25 59.804688 C 347.25 59.492188 347.402344 59.335938 347.703125 59.335938 C 347.984375 59.335938 348.125 59.429688 348.125 59.617188 C 348.125 59.980469 348.328125 60.328125 348.734375 60.664062 C 349.140625 61.007812 349.65625 61.242188 350.28125 61.367188 L 355.140625 59.367188 C 355.191406 59.335938 355.238281 59.320312 355.28125 59.320312 Z M 350.09375 67.605469 L 358.875 67.605469 C 358.976562 67.605469 359.0625 67.652344 359.125 67.746094 C 359.1875 67.839844 359.21875 67.941406 359.21875 68.058594 L 359.21875 70.027344 C 359.21875 70.128906 359.171875 70.214844 359.078125 70.277344 C 358.992188 70.339844 358.890625 70.371094 358.765625 70.371094 C 358.640625 70.371094 358.53125 70.339844 358.4375 70.277344 C 358.351562 70.214844 358.3125 70.128906 358.3125 70.027344 L 358.3125 68.605469 L 350.640625 68.605469 L 350.640625 70.027344 C 350.640625 70.128906 350.597656 70.214844 350.515625 70.277344 C 350.429688 70.339844 350.320312 70.371094 350.1875 70.371094 C 350.070312 70.371094 349.976562 70.339844 349.890625 70.277344 C 349.796875 70.214844 349.75 70.128906 349.75 70.027344 L 349.75 68.058594 C 349.75 67.941406 349.78125 67.839844 349.84375 67.746094 C 349.90625 67.652344 349.992188 67.605469 350.09375 67.605469 Z M 351.96875 70.90625 C 352.15625 70.90625 352.28125 70.9375 352.34375 71 C 352.40625 71.070312 352.4375 71.195312 352.4375 71.375 C 352.4375 71.5625 352.40625 71.691406 352.34375 71.765625 C 352.28125 71.847656 352.179688 71.890625 352.046875 71.890625 C 351.734375 71.890625 351.453125 72.019531 351.203125 72.28125 C 350.960938 72.539062 350.84375 72.9375 350.84375 73.46875 C 350.84375 74.53125 351.394531 75.0625 352.5 75.0625 L 352.71875 75.0625 C 353.695312 75.0625 354.1875 74.53125 354.1875 73.46875 C 354.1875 73.226562 354.328125 73.109375 354.609375 73.109375 C 354.890625 73.109375 355.03125 73.226562 355.03125 73.46875 C 355.03125 73.925781 355.132812 74.269531 355.34375 74.5 C 355.550781 74.738281 355.925781 74.859375 356.46875 74.859375 C 357.40625 74.859375 357.875 74.410156 357.875 73.515625 C 357.875 72.992188 357.757812 72.628906 357.53125 72.421875 C 357.300781 72.210938 357.03125 72.109375 356.71875 72.109375 C 356.425781 72.109375 356.28125 71.945312 356.28125 71.625 C 356.28125 71.40625 356.3125 71.257812 356.375 71.1875 C 356.445312 71.125 356.582031 71.09375 356.78125 71.09375 C 356.988281 71.09375 357.195312 71.128906 357.40625 71.203125 C 357.625 71.285156 357.835938 71.410156 358.046875 71.578125 C 358.253906 71.742188 358.425781 71.992188 358.5625 72.328125 C 358.695312 72.671875 358.765625 73.070312 358.765625 73.53125 C 358.765625 75.0625 358.054688 75.828125 356.640625 75.828125 C 356.140625 75.828125 355.710938 75.738281 355.359375 75.5625 C 355.015625 75.382812 354.769531 75.148438 354.625 74.859375 C 354.300781 75.671875 353.664062 76.078125 352.71875 76.078125 L 352.5 76.078125 C 351.613281 76.078125 350.960938 75.835938 350.546875 75.359375 C 350.128906 74.878906 349.921875 74.25 349.921875 73.46875 C 349.921875 72.632812 350.128906 72 350.546875 71.5625 C 350.972656 71.125 351.445312 70.90625 351.96875 70.90625 Z M 350.546875 76.992188 C 350.722656 76.992188 350.875 77.046875 351 77.164062 C 351.125 77.277344 351.1875 77.421875 351.1875 77.601562 C 351.1875 77.765625 351.125 77.914062 351 78.039062 C 350.882812 78.164062 350.734375 78.226562 350.546875 78.226562 C 350.410156 78.226562 349.929688 78.054688 349.09375 77.710938 C 348.992188 77.65625 348.9375 77.570312 348.9375 77.445312 C 348.9375 77.351562 348.964844 77.265625 349.015625 77.195312 C 349.070312 77.132812 349.136719 77.101562 349.21875 77.101562 C 349.273438 77.101562 349.320312 77.105469 349.359375 77.117188 L 349.96875 77.367188 C 350.070312 77.117188 350.265625 76.992188 350.546875 76.992188 Z M 352 78.964844 C 352.320312 78.964844 352.484375 79.128906 352.484375 79.464844 C 352.484375 79.808594 352.347656 79.980469 352.078125 79.980469 C 351.691406 79.980469 351.390625 80.125 351.171875 80.417969 C 350.953125 80.71875 350.84375 81.09375 350.84375 81.542969 C 350.84375 82.050781 350.984375 82.441406 351.265625 82.714844 C 351.546875 82.996094 351.960938 83.136719 352.515625 83.136719 L 352.75 83.136719 C 353.289062 83.136719 353.695312 82.996094 353.96875 82.714844 C 354.25 82.441406 354.390625 82.058594 354.390625 81.558594 L 354.390625 79.855469 C 354.390625 79.542969 354.519531 79.386719 354.78125 79.386719 C 354.863281 79.386719 354.953125 79.394531 355.046875 79.417969 L 358.40625 79.667969 C 358.644531 79.675781 358.765625 79.765625 358.765625 79.933594 L 358.765625 83.386719 C 358.765625 83.488281 358.71875 83.566406 358.625 83.621094 C 358.539062 83.683594 358.4375 83.714844 358.3125 83.714844 C 358.195312 83.714844 358.09375 83.683594 358 83.621094 C 357.90625 83.566406 357.859375 83.488281 357.859375 83.386719 L 357.859375 80.542969 L 355.234375 80.355469 L 355.234375 81.558594 C 355.234375 82.339844 355.03125 82.964844 354.625 83.433594 C 354.226562 83.902344 353.601562 84.136719 352.75 84.136719 L 352.515625 84.136719 C 351.628906 84.136719 350.972656 83.902344 350.546875 83.433594 C 350.128906 82.964844 349.921875 82.339844 349.921875 81.558594 C 349.921875 80.753906 350.125 80.121094 350.53125 79.652344 C 350.9375 79.191406 351.425781 78.964844 352 78.964844 Z M 350.1875 84.707031 C 350.320312 84.707031 350.429688 84.738281 350.515625 84.800781 C 350.597656 84.863281 350.640625 84.945312 350.640625 85.050781 L 350.640625 86.472656 L 358.3125 86.472656 L 358.3125 85.050781 C 358.3125 84.945312 358.351562 84.863281 358.4375 84.800781 C 358.53125 84.738281 358.640625 84.707031 358.765625 84.707031 C 358.890625 84.707031 358.992188 84.738281 359.078125 84.800781 C 359.171875 84.863281 359.21875 84.945312 359.21875 85.050781 L 359.21875 87.019531 C 359.21875 87.144531 359.1875 87.246094 359.125 87.332031 C 359.0625 87.425781 358.976562 87.472656 358.875 87.472656 L 350.09375 87.472656 C 349.992188 87.472656 349.90625 87.425781 349.84375 87.332031 C 349.78125 87.246094 349.75 87.144531 349.75 87.019531 L 349.75 85.050781 C 349.75 84.945312 349.796875 84.863281 349.890625 84.800781 C 349.976562 84.738281 350.070312 84.707031 350.1875 84.707031 Z M 351.859375 91.34375 L 356.953125 91.34375 C 357.578125 91.34375 358.109375 91.570312 358.546875 92.03125 C 358.992188 92.5 359.21875 93.046875 359.21875 93.671875 C 359.21875 93.992188 359.066406 94.15625 358.765625 94.15625 C 358.628906 94.15625 358.519531 94.125 358.4375 94.0625 C 358.351562 94 358.3125 93.914062 358.3125 93.8125 C 358.3125 93.375 358.171875 93.019531 357.890625 92.75 C 357.617188 92.476562 357.304688 92.34375 356.953125 92.34375 L 351.859375 92.34375 C 351.421875 92.34375 351.109375 92.488281 350.921875 92.78125 C 350.742188 93.070312 350.65625 93.414062 350.65625 93.8125 C 350.65625 94.039062 350.503906 94.15625 350.203125 94.15625 C 349.914062 94.15625 349.765625 93.984375 349.765625 93.640625 C 349.765625 92.992188 349.949219 92.445312 350.3125 92 C 350.675781 91.5625 351.191406 91.34375 351.859375 91.34375 Z M 350.8125 94.734375 C 350.914062 94.734375 351.015625 94.765625 351.109375 94.828125 C 351.210938 94.898438 351.265625 94.984375 351.265625 95.078125 C 351.265625 95.140625 351.21875 95.226562 351.125 95.34375 C 351.03125 95.46875 350.9375 95.644531 350.84375 95.875 C 350.75 96.101562 350.703125 96.367188 350.703125 96.671875 C 350.703125 97.066406 350.773438 97.351562 350.921875 97.53125 C 351.066406 97.71875 351.25 97.8125 351.46875 97.8125 C 351.726562 97.8125 351.9375 97.707031 352.09375 97.5 C 352.25 97.300781 352.363281 97.054688 352.4375 96.765625 C 352.519531 96.484375 352.609375 96.195312 352.703125 95.90625 C 352.804688 95.625 352.96875 95.378906 353.1875 95.171875 C 353.414062 94.972656 353.710938 94.875 354.078125 94.875 C 354.535156 94.875 354.929688 95.035156 355.265625 95.359375 C 355.597656 95.679688 355.765625 96.175781 355.765625 96.84375 C 355.765625 97.269531 355.695312 97.65625 355.5625 98 C 355.425781 98.351562 355.273438 98.53125 355.109375 98.53125 C 355.015625 98.53125 354.90625 98.492188 354.78125 98.421875 C 354.664062 98.347656 354.609375 98.253906 354.609375 98.140625 C 354.609375 98.109375 354.664062 97.953125 354.78125 97.671875 C 354.894531 97.398438 354.953125 97.128906 354.953125 96.859375 C 354.953125 96.492188 354.863281 96.21875 354.6875 96.03125 C 354.519531 95.851562 354.328125 95.765625 354.109375 95.765625 C 353.890625 95.765625 353.710938 95.863281 353.578125 96.0625 C 353.453125 96.257812 353.351562 96.503906 353.28125 96.796875 C 353.21875 97.097656 353.132812 97.390625 353.03125 97.671875 C 352.925781 97.960938 352.742188 98.207031 352.484375 98.40625 C 352.234375 98.601562 351.910156 98.703125 351.515625 98.703125 C 351.015625 98.703125 350.617188 98.523438 350.328125 98.171875 C 350.046875 97.828125 349.90625 97.335938 349.90625 96.703125 C 349.90625 96.160156 350 95.695312 350.1875 95.3125 C 350.382812 94.925781 350.59375 94.734375 350.8125 94.734375 Z M 350.359375 99.894531 L 358.765625 99.894531 C 358.867188 99.894531 358.953125 99.941406 359.015625 100.035156 C 359.085938 100.128906 359.125 100.246094 359.125 100.394531 C 359.125 100.539062 359.085938 100.660156 359.015625 100.753906 C 358.953125 100.847656 358.867188 100.894531 358.765625 100.894531 L 350.359375 100.894531 C 350.273438 100.894531 350.191406 100.839844 350.109375 100.738281 C 350.035156 100.644531 350 100.527344 350 100.394531 C 350 100.257812 350.035156 100.136719 350.109375 100.035156 C 350.179688 99.941406 350.265625 99.894531 350.359375 99.894531 Z M 352.234375 102.191406 L 353.453125 102.191406 C 354.066406 102.191406 354.601562 102.425781 355.0625 102.894531 C 355.53125 103.363281 355.765625 103.914062 355.765625 104.550781 C 355.765625 105.195312 355.535156 105.753906 355.078125 106.222656 C 354.617188 106.699219 354.078125 106.941406 353.453125 106.941406 L 352.234375 106.941406 C 351.617188 106.941406 351.078125 106.699219 350.609375 106.222656 C 350.140625 105.742188 349.90625 105.183594 349.90625 104.550781 C 349.90625 103.925781 350.140625 103.371094 350.609375 102.894531 C 351.078125 102.425781 351.617188 102.191406 352.234375 102.191406 Z M 352.234375 103.191406 C 351.859375 103.191406 351.523438 103.324219 351.234375 103.597656 C 350.941406 103.867188 350.796875 104.191406 350.796875 104.566406 C 350.796875 104.941406 350.941406 105.261719 351.234375 105.535156 C 351.535156 105.804688 351.867188 105.941406 352.234375 105.941406 L 353.453125 105.941406 C 353.816406 105.941406 354.140625 105.804688 354.421875 105.535156 C 354.710938 105.261719 354.859375 104.941406 354.859375 104.566406 C 354.859375 104.191406 354.710938 103.867188 354.421875 103.597656 C 354.140625 103.324219 353.816406 103.191406 353.453125 103.191406 Z M 355.28125 107.605469 C 355.394531 107.605469 355.492188 107.667969 355.578125 107.792969 C 355.671875 107.925781 355.71875 108.066406 355.71875 108.214844 C 355.71875 108.378906 355.648438 108.488281 355.515625 108.542969 L 351.484375 109.996094 L 355.125 111.121094 C 355.28125 111.171875 355.359375 111.296875 355.359375 111.496094 C 355.359375 111.691406 355.28125 111.816406 355.125 111.871094 L 351.453125 112.980469 L 355.515625 114.449219 C 355.648438 114.480469 355.71875 114.578125 355.71875 114.746094 C 355.71875 114.890625 355.671875 115.03125 355.578125 115.167969 C 355.492188 115.300781 355.394531 115.371094 355.28125 115.371094 C 355.21875 115.371094 355.15625 115.355469 355.09375 115.324219 L 350.109375 113.464844 C 349.964844 113.402344 349.890625 113.265625 349.890625 113.058594 C 349.890625 112.839844 349.964844 112.703125 350.109375 112.652344 L 353.640625 111.496094 L 350.140625 110.355469 C 349.976562 110.292969 349.890625 110.144531 349.890625 109.917969 C 349.890625 109.707031 349.976562 109.574219 350.140625 109.511719 L 355.09375 107.652344 C 355.1875 107.621094 355.25 107.605469 355.28125 107.605469 Z M 350.359375 118.324219 L 351.53125 118.324219 C 351.882812 118.324219 352.234375 118.457031 352.578125 118.730469 C 352.929688 119.011719 353.25 119.34375 353.53125 119.730469 L 354.390625 120.902344 C 354.671875 121.285156 354.984375 121.613281 355.328125 121.886719 C 355.679688 122.167969 356.035156 122.308594 356.390625 122.308594 C 356.773438 122.308594 357.113281 122.183594 357.40625 121.933594 C 357.695312 121.683594 357.84375 121.324219 357.84375 120.855469 C 357.84375 120.449219 357.726562 120.121094 357.5 119.871094 C 357.269531 119.621094 356.945312 119.496094 356.53125 119.496094 C 356.425781 119.496094 356.332031 119.441406 356.25 119.339844 C 356.164062 119.246094 356.125 119.121094 356.125 118.964844 C 356.125 118.660156 356.320312 118.511719 356.71875 118.511719 C 357.320312 118.511719 357.8125 118.734375 358.1875 119.183594 C 358.570312 119.640625 358.765625 120.199219 358.765625 120.855469 C 358.765625 121.550781 358.539062 122.136719 358.09375 122.605469 C 357.65625 123.082031 357.101562 123.324219 356.4375 123.324219 C 356.03125 123.324219 355.644531 123.222656 355.28125 123.027344 C 354.914062 122.828125 354.601562 122.582031 354.34375 122.292969 C 354.082031 122 353.828125 121.683594 353.578125 121.339844 L 352.890625 120.386719 C 352.691406 120.09375 352.472656 119.847656 352.234375 119.652344 C 351.992188 119.453125 351.757812 119.355469 351.53125 119.355469 L 350.90625 119.355469 L 350.90625 123.042969 C 350.90625 123.136719 350.859375 123.214844 350.765625 123.277344 C 350.679688 123.347656 350.578125 123.386719 350.453125 123.386719 C 350.335938 123.386719 350.234375 123.347656 350.140625 123.277344 C 350.046875 123.214844 350 123.136719 350 123.042969 L 350 118.777344 C 350 118.671875 350.03125 118.566406 350.09375 118.464844 C 350.164062 118.371094 350.253906 118.324219 350.359375 118.324219 Z M 350.203125 123.960938 C 350.503906 123.960938 350.65625 124.074219 350.65625 124.304688 C 350.65625 124.699219 350.742188 125.042969 350.921875 125.335938 C 351.109375 125.625 351.421875 125.773438 351.859375 125.773438 L 356.953125 125.773438 C 357.304688 125.773438 357.617188 125.636719 357.890625 125.367188 C 358.171875 125.09375 358.3125 124.742188 358.3125 124.304688 C 358.3125 124.199219 358.351562 124.117188 358.4375 124.054688 C 358.519531 123.992188 358.628906 123.960938 358.765625 123.960938 C 359.066406 123.960938 359.21875 124.121094 359.21875 124.445312 C 359.21875 125.070312 358.992188 125.609375 358.546875 126.070312 C 358.109375 126.539062 357.578125 126.773438 356.953125 126.773438 L 351.859375 126.773438 C 351.191406 126.773438 350.675781 126.546875 350.3125 126.101562 C 349.949219 125.664062 349.765625 125.117188 349.765625 124.460938 C 349.765625 124.125 349.914062 123.960938 350.203125 123.960938 Z M 351.375 130.28125 C 351.507812 130.28125 351.632812 130.328125 351.75 130.421875 C 351.875 130.515625 351.9375 130.613281 351.9375 130.71875 C 351.9375 130.78125 351.882812 130.867188 351.78125 130.984375 C 351.6875 131.097656 351.582031 131.210938 351.46875 131.328125 C 351.351562 131.441406 351.242188 131.625 351.140625 131.875 C 351.046875 132.125 350.988281 132.40625 350.96875 132.71875 L 354.15625 132.71875 L 354.40625 132.0625 C 354.457031 131.914062 354.550781 131.722656 354.6875 131.484375 C 354.820312 131.242188 354.957031 131.066406 355.09375 130.953125 C 355.238281 130.835938 355.429688 130.734375 355.671875 130.640625 C 355.910156 130.546875 356.175781 130.5 356.46875 130.5 C 356.832031 130.5 357.148438 130.5625 357.421875 130.6875 C 357.703125 130.8125 357.921875 130.984375 358.078125 131.203125 C 358.234375 131.429688 358.351562 131.664062 358.4375 131.90625 C 358.519531 132.15625 358.578125 132.425781 358.609375 132.71875 L 358.96875 132.71875 C 359.03125 132.71875 359.085938 132.742188 359.140625 132.796875 C 359.191406 132.859375 359.21875 132.9375 359.21875 133.03125 C 359.21875 133.101562 359.191406 133.171875 359.140625 133.234375 C 359.085938 133.304688 359.03125 133.34375 358.96875 133.34375 L 358.625 133.34375 C 358.601562 133.820312 358.519531 134.253906 358.375 134.640625 C 358.238281 135.035156 358.0625 135.234375 357.84375 135.234375 C 357.726562 135.234375 357.601562 135.191406 357.46875 135.109375 C 357.34375 135.035156 357.28125 134.929688 357.28125 134.796875 C 357.28125 134.765625 357.347656 134.597656 357.484375 134.296875 C 357.628906 134.003906 357.710938 133.6875 357.734375 133.34375 L 354.984375 133.34375 C 354.878906 133.65625 354.769531 133.910156 354.65625 134.109375 C 354.550781 134.316406 354.40625 134.535156 354.21875 134.765625 C 354.03125 134.992188 353.789062 135.164062 353.5 135.28125 C 353.207031 135.394531 352.863281 135.453125 352.46875 135.453125 C 351.769531 135.453125 351.210938 135.257812 350.796875 134.875 C 350.390625 134.5 350.144531 133.988281 350.0625 133.34375 L 349.625 133.34375 C 349.5625 133.34375 349.507812 133.304688 349.453125 133.234375 C 349.402344 133.171875 349.375 133.101562 349.375 133.03125 C 349.375 132.9375 349.402344 132.859375 349.453125 132.796875 C 349.507812 132.742188 349.5625 132.71875 349.625 132.71875 L 350.03125 132.71875 C 350.03125 132.03125 350.179688 131.453125 350.484375 130.984375 C 350.796875 130.515625 351.09375 130.28125 351.375 130.28125 Z M 356.5625 131.453125 C 356.1875 131.453125 355.90625 131.5625 355.71875 131.78125 C 355.53125 132 355.359375 132.328125 355.203125 132.765625 L 357.71875 132.765625 C 357.625 131.890625 357.238281 131.453125 356.5625 131.453125 Z M 351 133.296875 C 351.125 134.085938 351.582031 134.484375 352.375 134.484375 C 352.789062 134.484375 353.113281 134.378906 353.34375 134.171875 C 353.582031 133.972656 353.78125 133.679688 353.9375 133.296875 Z M 352.234375 138.816406 L 353.453125 138.816406 C 354.085938 138.816406 354.628906 139.027344 355.078125 139.457031 C 355.535156 139.882812 355.765625 140.386719 355.765625 140.972656 C 355.765625 141.335938 355.675781 141.652344 355.5 141.925781 C 355.320312 142.195312 355.101562 142.402344 354.84375 142.550781 L 358.765625 142.550781 C 358.867188 142.550781 358.953125 142.597656 359.015625 142.691406 C 359.085938 142.785156 359.125 142.902344 359.125 143.050781 C 359.125 143.195312 359.085938 143.308594 359.015625 143.394531 C 358.953125 143.488281 358.867188 143.535156 358.765625 143.535156 L 350.359375 143.535156 C 350.265625 143.535156 350.179688 143.488281 350.109375 143.394531 C 350.035156 143.300781 350 143.183594 350 143.050781 C 350 142.925781 350.035156 142.816406 350.109375 142.722656 C 350.179688 142.636719 350.265625 142.597656 350.359375 142.597656 L 350.84375 142.597656 C 350.582031 142.460938 350.359375 142.238281 350.171875 141.925781 C 349.996094 141.621094 349.90625 141.292969 349.90625 140.941406 C 349.90625 140.378906 350.140625 139.882812 350.609375 139.457031 C 351.078125 139.027344 351.617188 138.816406 352.234375 138.816406 Z M 352.234375 139.816406 C 351.867188 139.816406 351.535156 139.949219 351.234375 140.222656 C 350.941406 140.492188 350.796875 140.808594 350.796875 141.175781 C 350.796875 141.527344 350.929688 141.847656 351.203125 142.128906 C 351.472656 142.410156 351.707031 142.550781 351.90625 142.550781 L 353.453125 142.550781 C 353.867188 142.550781 354.207031 142.410156 354.46875 142.128906 C 354.726562 141.855469 354.859375 141.542969 354.859375 141.191406 C 354.859375 140.816406 354.710938 140.492188 354.421875 140.222656 C 354.140625 139.949219 353.816406 139.816406 353.453125 139.816406 Z M 352.234375 144.746094 L 353.484375 144.746094 C 354.109375 144.746094 354.644531 144.980469 355.09375 145.449219 C 355.539062 145.917969 355.765625 146.480469 355.765625 147.136719 C 355.765625 147.761719 355.550781 148.300781 355.125 148.761719 C 354.707031 149.21875 354.179688 149.449219 353.546875 149.449219 C 353.316406 149.449219 353.128906 149.417969 352.984375 149.355469 C 352.847656 149.300781 352.75 149.21875 352.6875 149.105469 C 352.632812 148.988281 352.597656 148.878906 352.578125 148.777344 C 352.566406 148.683594 352.5625 148.546875 352.5625 148.371094 L 352.5625 145.746094 L 352.203125 145.746094 C 351.753906 145.746094 351.398438 145.902344 351.140625 146.214844 C 350.878906 146.535156 350.75 146.949219 350.75 147.449219 C 350.75 147.71875 350.785156 147.949219 350.859375 148.136719 C 350.941406 148.332031 351.019531 148.488281 351.09375 148.605469 C 351.175781 148.730469 351.21875 148.828125 351.21875 148.902344 C 351.21875 149.015625 351.164062 149.109375 351.0625 149.183594 C 350.957031 149.265625 350.851562 149.308594 350.75 149.308594 C 350.570312 149.308594 350.382812 149.125 350.1875 148.761719 C 350 148.394531 349.90625 147.949219 349.90625 147.417969 C 349.90625 146.636719 350.117188 145.996094 350.546875 145.496094 C 350.972656 144.996094 351.535156 144.746094 352.234375 144.746094 Z M 353.234375 145.746094 L 353.234375 147.964844 C 353.234375 148.171875 353.257812 148.3125 353.3125 148.386719 C 353.363281 148.457031 353.460938 148.496094 353.609375 148.496094 C 353.972656 148.496094 354.289062 148.359375 354.5625 148.089844 C 354.832031 147.828125 354.96875 147.511719 354.96875 147.136719 C 354.96875 146.75 354.84375 146.421875 354.59375 146.152344 C 354.34375 145.878906 354.03125 145.746094 353.65625 145.746094 Z M 350.359375 150.542969 L 355.34375 150.542969 C 355.445312 150.542969 355.53125 150.589844 355.59375 150.683594 C 355.65625 150.777344 355.6875 150.894531 355.6875 151.042969 C 355.6875 151.15625 355.648438 151.261719 355.578125 151.355469 C 355.515625 151.449219 355.4375 151.496094 355.34375 151.496094 L 354.84375 151.496094 C 355.101562 151.621094 355.320312 151.824219 355.5 152.105469 C 355.675781 152.394531 355.765625 152.730469 355.765625 153.105469 C 355.765625 153.667969 355.535156 154.15625 355.078125 154.574219 C 354.628906 155 354.085938 155.214844 353.453125 155.214844 L 350.359375 155.214844 C 350.242188 155.214844 350.15625 155.160156 350.09375 155.058594 C 350.03125 154.964844 350 154.847656 350 154.714844 C 350 154.589844 350.03125 154.472656 350.09375 154.371094 C 350.15625 154.265625 350.242188 154.214844 350.359375 154.214844 L 353.453125 154.214844 C 353.816406 154.214844 354.140625 154.078125 354.421875 153.808594 C 354.710938 153.535156 354.859375 153.21875 354.859375 152.855469 C 354.859375 152.511719 354.726562 152.203125 354.46875 151.933594 C 354.207031 151.671875 353.867188 151.542969 353.453125 151.542969 L 350.359375 151.542969 C 350.273438 151.542969 350.191406 151.488281 350.109375 151.386719 C 350.035156 151.28125 350 151.167969 350 151.042969 C 350 150.90625 350.035156 150.785156 350.109375 150.683594 C 350.179688 150.589844 350.265625 150.542969 350.359375 150.542969 Z M 350.8125 156.238281 C 350.914062 156.238281 351.015625 156.269531 351.109375 156.332031 C 351.210938 156.402344 351.265625 156.488281 351.265625 156.582031 C 351.265625 156.644531 351.21875 156.730469 351.125 156.847656 C 351.03125 156.972656 350.9375 157.148438 350.84375 157.378906 C 350.75 157.605469 350.703125 157.871094 350.703125 158.175781 C 350.703125 158.570312 350.773438 158.855469 350.921875 159.035156 C 351.066406 159.222656 351.25 159.316406 351.46875 159.316406 C 351.726562 159.316406 351.9375 159.210938 352.09375 159.003906 C 352.25 158.804688 352.363281 158.558594 352.4375 158.269531 C 352.519531 157.988281 352.609375 157.699219 352.703125 157.410156 C 352.804688 157.128906 352.96875 156.882812 353.1875 156.675781 C 353.414062 156.476562 353.710938 156.378906 354.078125 156.378906 C 354.535156 156.378906 354.929688 156.539062 355.265625 156.863281 C 355.597656 157.183594 355.765625 157.679688 355.765625 158.347656 C 355.765625 158.773438 355.695312 159.160156 355.5625 159.503906 C 355.425781 159.855469 355.273438 160.035156 355.109375 160.035156 C 355.015625 160.035156 354.90625 159.996094 354.78125 159.925781 C 354.664062 159.851562 354.609375 159.757812 354.609375 159.644531 C 354.609375 159.613281 354.664062 159.457031 354.78125 159.175781 C 354.894531 158.902344 354.953125 158.632812 354.953125 158.363281 C 354.953125 157.996094 354.863281 157.722656 354.6875 157.535156 C 354.519531 157.355469 354.328125 157.269531 354.109375 157.269531 C 353.890625 157.269531 353.710938 157.367188 353.578125 157.566406 C 353.453125 157.761719 353.351562 158.007812 353.28125 158.300781 C 353.21875 158.601562 353.132812 158.894531 353.03125 159.175781 C 352.925781 159.464844 352.742188 159.710938 352.484375 159.910156 C 352.234375 160.105469 351.910156 160.207031 351.515625 160.207031 C 351.015625 160.207031 350.617188 160.027344 350.328125 159.675781 C 350.046875 159.332031 349.90625 158.839844 349.90625 158.207031 C 349.90625 157.664062 350 157.199219 350.1875 156.816406 C 350.382812 156.429688 350.59375 156.238281 350.8125 156.238281 Z M 357.421875 161.347656 C 357.535156 161.222656 357.664062 161.160156 357.8125 161.160156 C 357.96875 161.160156 358.101562 161.214844 358.21875 161.332031 C 358.332031 161.457031 358.390625 161.605469 358.390625 161.785156 C 358.390625 161.949219 358.332031 162.089844 358.21875 162.207031 C 358.101562 162.332031 357.96875 162.394531 357.8125 162.394531 C 357.664062 162.394531 357.535156 162.332031 357.421875 162.207031 C 357.304688 162.089844 357.25 161.949219 357.25 161.785156 C 357.25 161.617188 357.304688 161.472656 357.421875 161.347656 Z M 350.359375 161.285156 L 355.34375 161.285156 C 355.445312 161.285156 355.53125 161.332031 355.59375 161.425781 C 355.65625 161.527344 355.6875 161.648438 355.6875 161.785156 C 355.6875 161.929688 355.65625 162.050781 355.59375 162.144531 C 355.53125 162.238281 355.445312 162.285156 355.34375 162.285156 L 350.359375 162.285156 C 350.273438 162.285156 350.191406 162.230469 350.109375 162.128906 C 350.035156 162.035156 350 161.917969 350 161.785156 C 350 161.648438 350.035156 161.527344 350.109375 161.425781 C 350.179688 161.332031 350.265625 161.285156 350.359375 161.285156 Z M 351.8125 163.679688 L 357.984375 163.679688 C 358.085938 163.679688 358.171875 163.730469 358.234375 163.835938 C 358.304688 163.9375 358.34375 164.046875 358.34375 164.164062 C 358.34375 164.296875 358.304688 164.417969 358.234375 164.523438 C 358.171875 164.625 358.085938 164.679688 357.984375 164.679688 L 355.6875 164.679688 L 355.6875 166.179688 C 355.6875 166.273438 355.644531 166.34375 355.5625 166.398438 C 355.488281 166.449219 355.398438 166.476562 355.296875 166.476562 C 355.191406 166.476562 355.097656 166.449219 355.015625 166.398438 C 354.941406 166.34375 354.90625 166.273438 354.90625 166.179688 L 354.90625 164.679688 L 351.8125 164.679688 C 351.46875 164.679688 351.222656 164.75 351.078125 164.898438 C 350.941406 165.042969 350.875 165.296875 350.875 165.664062 L 350.875 166.039062 C 350.875 166.171875 350.832031 166.277344 350.75 166.351562 C 350.664062 166.433594 350.5625 166.476562 350.4375 166.476562 C 350.320312 166.476562 350.21875 166.433594 350.125 166.351562 C 350.039062 166.265625 350 166.164062 350 166.039062 L 350 165.664062 C 350 164.339844 350.601562 163.679688 351.8125 163.679688 Z M 355.28125 166.855469 C 355.40625 166.855469 355.515625 166.925781 355.609375 167.074219 C 355.710938 167.21875 355.765625 167.363281 355.765625 167.511719 C 355.765625 167.675781 355.695312 167.78125 355.5625 167.824219 L 351.375 169.417969 L 355.5625 170.839844 C 355.695312 170.902344 355.765625 171.003906 355.765625 171.152344 C 355.765625 171.285156 355.710938 171.425781 355.609375 171.574219 C 355.515625 171.730469 355.398438 171.808594 355.265625 171.808594 C 355.222656 171.808594 355.179688 171.792969 355.140625 171.761719 L 350.265625 169.949219 L 349.65625 169.714844 C 349.554688 169.671875 349.367188 169.589844 349.09375 169.464844 C 348.824219 169.347656 348.625 169.25 348.5 169.167969 C 348.375 169.09375 348.21875 168.984375 348.03125 168.839844 C 347.835938 168.691406 347.695312 168.550781 347.609375 168.417969 C 347.515625 168.28125 347.433594 168.121094 347.359375 167.933594 C 347.289062 167.746094 347.25 167.546875 347.25 167.339844 C 347.25 167.027344 347.402344 166.871094 347.703125 166.871094 C 347.984375 166.871094 348.125 166.964844 348.125 167.152344 C 348.125 167.515625 348.328125 167.863281 348.734375 168.199219 C 349.140625 168.542969 349.65625 168.777344 350.28125 168.902344 L 355.140625 166.902344 C 355.191406 166.871094 355.238281 166.855469 355.28125 166.855469 Z M 356.90625 174.464844 C 357.070312 174.464844 357.207031 174.535156 357.3125 174.683594 L 358.625 175.777344 C 358.726562 175.878906 358.78125 175.984375 358.78125 176.089844 C 358.78125 176.203125 358.75 176.308594 358.6875 176.402344 C 358.625 176.496094 358.535156 176.542969 358.421875 176.542969 L 350.359375 176.542969 C 350.242188 176.542969 350.15625 176.488281 350.09375 176.386719 C 350.03125 176.292969 350 176.171875 350 176.027344 C 350 175.890625 350.03125 175.769531 350.09375 175.667969 C 350.15625 175.574219 350.242188 175.527344 350.359375 175.527344 L 357.265625 175.527344 L 356.609375 175.089844 C 356.523438 175.003906 356.484375 174.921875 356.484375 174.839844 C 356.484375 174.734375 356.523438 174.644531 356.609375 174.574219 C 356.691406 174.5 356.789062 174.464844 356.90625 174.464844 Z M 352.546875 177.988281 L 356.15625 177.988281 C 357.0625 177.988281 357.722656 178.226562 358.140625 178.707031 C 358.554688 179.183594 358.765625 179.820312 358.765625 180.613281 C 358.765625 181.414062 358.554688 182.039062 358.140625 182.488281 C 357.734375 182.933594 357.25 183.160156 356.6875 183.160156 C 356.382812 183.160156 356.234375 183.003906 356.234375 182.691406 C 356.234375 182.347656 356.367188 182.175781 356.640625 182.175781 C 357.003906 182.175781 357.296875 182.023438 357.515625 181.722656 C 357.742188 181.417969 357.859375 181.042969 357.859375 180.597656 C 357.859375 179.535156 357.289062 179.003906 356.15625 179.003906 L 354.46875 179.003906 C 354.96875 179.386719 355.21875 179.972656 355.21875 180.753906 C 355.21875 182.355469 354.410156 183.160156 352.796875 183.160156 L 352.546875 183.160156 C 351.640625 183.160156 350.972656 182.925781 350.546875 182.457031 C 350.128906 181.988281 349.921875 181.363281 349.921875 180.582031 C 349.921875 179.800781 350.128906 179.167969 350.546875 178.691406 C 350.972656 178.222656 351.640625 177.988281 352.546875 177.988281 Z M 352.5 179.003906 C 351.363281 179.003906 350.796875 179.527344 350.796875 180.582031 C 350.796875 181.632812 351.363281 182.160156 352.5 182.160156 L 352.75 182.160156 C 353.832031 182.160156 354.375 181.632812 354.375 180.582031 C 354.375 179.527344 353.867188 179.003906 352.859375 179.003906 Z M 351.375 186.46875 C 351.507812 186.46875 351.632812 186.515625 351.75 186.609375 C 351.875 186.703125 351.9375 186.800781 351.9375 186.90625 C 351.9375 186.96875 351.882812 187.054688 351.78125 187.171875 C 351.6875 187.285156 351.582031 187.398438 351.46875 187.515625 C 351.351562 187.628906 351.242188 187.8125 351.140625 188.0625 C 351.046875 188.3125 350.988281 188.59375 350.96875 188.90625 L 354.15625 188.90625 L 354.40625 188.25 C 354.457031 188.101562 354.550781 187.910156 354.6875 187.671875 C 354.820312 187.429688 354.957031 187.253906 355.09375 187.140625 C 355.238281 187.023438 355.429688 186.921875 355.671875 186.828125 C 355.910156 186.734375 356.175781 186.6875 356.46875 186.6875 C 356.832031 186.6875 357.148438 186.75 357.421875 186.875 C 357.703125 187 357.921875 187.171875 358.078125 187.390625 C 358.234375 187.617188 358.351562 187.851562 358.4375 188.09375 C 358.519531 188.34375 358.578125 188.613281 358.609375 188.90625 L 358.96875 188.90625 C 359.03125 188.90625 359.085938 188.929688 359.140625 188.984375 C 359.191406 189.046875 359.21875 189.125 359.21875 189.21875 C 359.21875 189.289062 359.191406 189.359375 359.140625 189.421875 C 359.085938 189.492188 359.03125 189.53125 358.96875 189.53125 L 358.625 189.53125 C 358.601562 190.007812 358.519531 190.441406 358.375 190.828125 C 358.238281 191.222656 358.0625 191.421875 357.84375 191.421875 C 357.726562 191.421875 357.601562 191.378906 357.46875 191.296875 C 357.34375 191.222656 357.28125 191.117188 357.28125 190.984375 C 357.28125 190.953125 357.347656 190.785156 357.484375 190.484375 C 357.628906 190.191406 357.710938 189.875 357.734375 189.53125 L 354.984375 189.53125 C 354.878906 189.84375 354.769531 190.097656 354.65625 190.296875 C 354.550781 190.503906 354.40625 190.722656 354.21875 190.953125 C 354.03125 191.179688 353.789062 191.351562 353.5 191.46875 C 353.207031 191.582031 352.863281 191.640625 352.46875 191.640625 C 351.769531 191.640625 351.210938 191.445312 350.796875 191.0625 C 350.390625 190.6875 350.144531 190.175781 350.0625 189.53125 L 349.625 189.53125 C 349.5625 189.53125 349.507812 189.492188 349.453125 189.421875 C 349.402344 189.359375 349.375 189.289062 349.375 189.21875 C 349.375 189.125 349.402344 189.046875 349.453125 188.984375 C 349.507812 188.929688 349.5625 188.90625 349.625 188.90625 L 350.03125 188.90625 C 350.03125 188.21875 350.179688 187.640625 350.484375 187.171875 C 350.796875 186.703125 351.09375 186.46875 351.375 186.46875 Z M 356.5625 187.640625 C 356.1875 187.640625 355.90625 187.75 355.71875 187.96875 C 355.53125 188.1875 355.359375 188.515625 355.203125 188.953125 L 357.71875 188.953125 C 357.625 188.078125 357.238281 187.640625 356.5625 187.640625 Z M 351 189.484375 C 351.125 190.273438 351.582031 190.671875 352.375 190.671875 C 352.789062 190.671875 353.113281 190.566406 353.34375 190.359375 C 353.582031 190.160156 353.78125 189.867188 353.9375 189.484375 Z M 358.921875 194.9375 C 359.003906 194.9375 359.070312 194.976562 359.125 195.0625 C 359.1875 195.15625 359.21875 195.253906 359.21875 195.359375 C 359.21875 195.472656 359.1875 195.578125 359.125 195.671875 C 359.070312 195.765625 359.003906 195.8125 358.921875 195.8125 L 357.171875 195.6875 C 357.085938 195.6875 357.015625 195.660156 356.953125 195.609375 C 356.890625 195.554688 356.859375 195.476562 356.859375 195.375 C 356.859375 195.164062 356.960938 195.0625 357.171875 195.0625 Z M 358.921875 196.5625 C 359.003906 196.5625 359.070312 196.601562 359.125 196.6875 C 359.1875 196.78125 359.21875 196.882812 359.21875 197 C 359.21875 197.113281 359.1875 197.210938 359.125 197.296875 C 359.070312 197.390625 359.003906 197.4375 358.921875 197.4375 L 357.171875 197.328125 C 357.085938 197.328125 357.015625 197.296875 356.953125 197.234375 C 356.890625 197.179688 356.859375 197.101562 356.859375 197 C 356.859375 196.789062 356.960938 196.6875 357.171875 196.6875 Z M 348.875 198.132812 C 349.460938 198.132812 349.898438 198.453125 350.1875 199.101562 C 350.332031 198.695312 350.597656 198.492188 350.984375 198.492188 C 351.347656 198.492188 351.644531 198.6875 351.875 199.085938 C 352.238281 198.636719 352.742188 198.414062 353.390625 198.414062 L 353.78125 198.414062 C 354.363281 198.414062 354.835938 198.605469 355.203125 198.992188 C 355.578125 199.386719 355.765625 199.902344 355.765625 200.539062 C 355.765625 201.078125 355.609375 201.546875 355.296875 201.945312 C 355.816406 202.183594 356.078125 202.453125 356.078125 202.757812 C 356.078125 202.890625 356.035156 202.996094 355.953125 203.070312 C 355.878906 203.152344 355.796875 203.195312 355.703125 203.195312 C 355.578125 203.195312 355.484375 203.125 355.421875 202.992188 C 355.347656 202.71875 355.179688 202.5 354.921875 202.335938 C 354.617188 202.585938 354.238281 202.710938 353.78125 202.710938 L 353.390625 202.710938 C 352.804688 202.710938 352.328125 202.507812 351.953125 202.101562 C 351.578125 201.695312 351.390625 201.171875 351.390625 200.539062 C 351.390625 200.214844 351.453125 199.917969 351.578125 199.648438 C 351.453125 199.449219 351.3125 199.351562 351.15625 199.351562 C 351.007812 199.351562 350.894531 199.445312 350.8125 199.632812 C 350.726562 199.820312 350.675781 200.046875 350.65625 200.320312 C 350.632812 200.589844 350.59375 200.882812 350.53125 201.195312 C 350.476562 201.515625 350.40625 201.8125 350.3125 202.085938 C 350.226562 202.355469 350.078125 202.585938 349.859375 202.773438 C 349.632812 202.960938 349.34375 203.054688 349 203.054688 C 348.4375 203.054688 348.007812 202.824219 347.703125 202.367188 C 347.402344 201.917969 347.25 201.335938 347.25 200.617188 C 347.25 199.898438 347.398438 199.304688 347.6875 198.835938 C 347.980469 198.367188 348.375 198.132812 348.875 198.132812 Z M 348.984375 199.085938 C 348.671875 199.085938 348.421875 199.21875 348.234375 199.492188 C 348.046875 199.773438 347.953125 200.140625 347.953125 200.601562 C 347.953125 201.046875 348.046875 201.40625 348.234375 201.679688 C 348.421875 201.949219 348.671875 202.085938 348.984375 202.085938 C 349.109375 202.085938 349.21875 202.058594 349.3125 202.007812 C 349.40625 201.964844 349.492188 201.898438 349.5625 201.804688 C 349.625 201.710938 349.679688 201.609375 349.71875 201.507812 C 349.761719 201.414062 349.796875 201.289062 349.828125 201.132812 C 349.859375 200.984375 349.882812 200.859375 349.890625 200.757812 C 349.902344 200.664062 349.917969 200.53125 349.9375 200.367188 C 349.949219 200.199219 349.960938 200.085938 349.96875 200.023438 C 349.761719 199.398438 349.433594 199.085938 348.984375 199.085938 Z M 353.390625 199.382812 C 353.003906 199.382812 352.6875 199.484375 352.4375 199.695312 C 352.195312 199.902344 352.078125 200.195312 352.078125 200.570312 C 352.078125 200.921875 352.195312 201.203125 352.4375 201.414062 C 352.6875 201.632812 353.003906 201.742188 353.390625 201.742188 L 353.78125 201.742188 C 354.144531 201.742188 354.453125 201.632812 354.703125 201.414062 C 354.953125 201.203125 355.078125 200.917969 355.078125 200.554688 C 355.078125 200.1875 354.953125 199.902344 354.703125 199.695312 C 354.460938 199.484375 354.15625 199.382812 353.78125 199.382812 Z M 350.359375 204.050781 L 355.34375 204.050781 C 355.445312 204.050781 355.53125 204.097656 355.59375 204.191406 C 355.65625 204.285156 355.6875 204.402344 355.6875 204.550781 C 355.6875 204.675781 355.65625 204.777344 355.59375 204.863281 C 355.53125 204.957031 355.445312 205.003906 355.34375 205.003906 L 354.78125 205.003906 C 355.050781 205.148438 355.28125 205.363281 355.46875 205.644531 C 355.664062 205.925781 355.765625 206.238281 355.765625 206.582031 L 355.765625 206.988281 C 355.765625 207.089844 355.71875 207.179688 355.625 207.253906 C 355.53125 207.324219 355.421875 207.363281 355.296875 207.363281 C 355.179688 207.363281 355.078125 207.324219 354.984375 207.253906 C 354.898438 207.179688 354.859375 207.089844 354.859375 206.988281 L 354.859375 206.582031 C 354.859375 206.164062 354.691406 205.804688 354.359375 205.503906 C 354.035156 205.199219 353.613281 205.050781 353.09375 205.050781 L 350.359375 205.050781 C 350.273438 205.050781 350.191406 204.996094 350.109375 204.894531 C 350.035156 204.800781 350 204.683594 350 204.550781 C 350 204.414062 350.035156 204.292969 350.109375 204.191406 C 350.179688 204.097656 350.265625 204.050781 350.359375 204.050781 Z M 352.234375 207.960938 L 353.484375 207.960938 C 354.109375 207.960938 354.644531 208.195312 355.09375 208.664062 C 355.539062 209.132812 355.765625 209.695312 355.765625 210.351562 C 355.765625 210.976562 355.550781 211.515625 355.125 211.976562 C 354.707031 212.433594 354.179688 212.664062 353.546875 212.664062 C 353.316406 212.664062 353.128906 212.632812 352.984375 212.570312 C 352.847656 212.515625 352.75 212.433594 352.6875 212.320312 C 352.632812 212.203125 352.597656 212.09375 352.578125 211.992188 C 352.566406 211.898438 352.5625 211.761719 352.5625 211.585938 L 352.5625 208.960938 L 352.203125 208.960938 C 351.753906 208.960938 351.398438 209.117188 351.140625 209.429688 C 350.878906 209.75 350.75 210.164062 350.75 210.664062 C 350.75 210.933594 350.785156 211.164062 350.859375 211.351562 C 350.941406 211.546875 351.019531 211.703125 351.09375 211.820312 C 351.175781 211.945312 351.21875 212.042969 351.21875 212.117188 C 351.21875 212.230469 351.164062 212.324219 351.0625 212.398438 C 350.957031 212.480469 350.851562 212.523438 350.75 212.523438 C 350.570312 212.523438 350.382812 212.339844 350.1875 211.976562 C 350 211.609375 349.90625 211.164062 349.90625 210.632812 C 349.90625 209.851562 350.117188 209.210938 350.546875 208.710938 C 350.972656 208.210938 351.535156 207.960938 352.234375 207.960938 Z M 353.234375 208.960938 L 353.234375 211.179688 C 353.234375 211.386719 353.257812 211.527344 353.3125 211.601562 C 353.363281 211.671875 353.460938 211.710938 353.609375 211.710938 C 353.972656 211.710938 354.289062 211.574219 354.5625 211.304688 C 354.832031 211.042969 354.96875 210.726562 354.96875 210.351562 C 354.96875 209.964844 354.84375 209.636719 354.59375 209.367188 C 354.34375 209.09375 354.03125 208.960938 353.65625 208.960938 Z M 355.28125 213.199219 C 355.40625 213.199219 355.515625 213.269531 355.609375 213.417969 C 355.710938 213.5625 355.765625 213.707031 355.765625 213.855469 C 355.765625 214.019531 355.695312 214.125 355.5625 214.167969 L 351.375 215.761719 L 355.5625 217.183594 C 355.695312 217.246094 355.765625 217.347656 355.765625 217.496094 C 355.765625 217.628906 355.710938 217.769531 355.609375 217.917969 C 355.515625 218.074219 355.398438 218.152344 355.265625 218.152344 C 355.222656 218.152344 355.179688 218.136719 355.140625 218.105469 L 350.265625 216.292969 L 349.65625 216.058594 C 349.554688 216.015625 349.367188 215.933594 349.09375 215.808594 C 348.824219 215.691406 348.625 215.59375 348.5 215.511719 C 348.375 215.4375 348.21875 215.328125 348.03125 215.183594 C 347.835938 215.035156 347.695312 214.894531 347.609375 214.761719 C 347.515625 214.625 347.433594 214.464844 347.359375 214.277344 C 347.289062 214.089844 347.25 213.890625 347.25 213.683594 C 347.25 213.371094 347.402344 213.214844 347.703125 213.214844 C 347.984375 213.214844 348.125 213.308594 348.125 213.496094 C 348.125 213.859375 348.328125 214.207031 348.734375 214.542969 C 349.140625 214.886719 349.65625 215.121094 350.28125 215.246094 L 355.140625 213.246094 C 355.191406 213.214844 355.238281 213.199219 355.28125 213.199219 Z M 350.359375 221.421875 L 358.765625 221.421875 C 358.867188 221.421875 358.953125 221.46875 359.015625 221.5625 C 359.085938 221.65625 359.125 221.769531 359.125 221.90625 C 359.125 222.050781 359.085938 222.171875 359.015625 222.265625 C 358.953125 222.367188 358.867188 222.421875 358.765625 222.421875 L 354.84375 222.421875 C 355.101562 222.566406 355.320312 222.773438 355.5 223.046875 C 355.675781 223.316406 355.765625 223.628906 355.765625 223.984375 C 355.765625 224.566406 355.535156 225.070312 355.078125 225.5 C 354.628906 225.925781 354.085938 226.140625 353.453125 226.140625 L 352.234375 226.140625 C 351.617188 226.140625 351.078125 225.925781 350.609375 225.5 C 350.140625 225.070312 349.90625 224.582031 349.90625 224.03125 C 349.90625 223.664062 349.996094 223.332031 350.171875 223.03125 C 350.359375 222.726562 350.582031 222.507812 350.84375 222.375 L 350.359375 222.375 C 350.265625 222.375 350.179688 222.328125 350.109375 222.234375 C 350.035156 222.140625 350 222.035156 350 221.921875 C 350 221.785156 350.035156 221.664062 350.109375 221.5625 C 350.179688 221.46875 350.265625 221.421875 350.359375 221.421875 Z M 351.90625 222.421875 C 351.707031 222.421875 351.472656 222.5625 351.203125 222.84375 C 350.929688 223.125 350.796875 223.4375 350.796875 223.78125 C 350.796875 224.144531 350.941406 224.460938 351.234375 224.734375 C 351.535156 225.003906 351.867188 225.140625 352.234375 225.140625 L 353.453125 225.140625 C 353.816406 225.140625 354.140625 225.003906 354.421875 224.734375 C 354.710938 224.460938 354.859375 224.144531 354.859375 223.78125 C 354.859375 223.414062 354.726562 223.097656 354.46875 222.828125 C 354.207031 222.554688 353.867188 222.421875 353.453125 222.421875 Z M 350.359375 227.441406 L 358.765625 227.441406 C 358.867188 227.441406 358.953125 227.488281 359.015625 227.582031 C 359.085938 227.675781 359.125 227.792969 359.125 227.941406 C 359.125 228.085938 359.085938 228.207031 359.015625 228.300781 C 358.953125 228.394531 358.867188 228.441406 358.765625 228.441406 L 350.359375 228.441406 C 350.273438 228.441406 350.191406 228.386719 350.109375 228.285156 C 350.035156 228.191406 350 228.074219 350 227.941406 C 350 227.804688 350.035156 227.683594 350.109375 227.582031 C 350.179688 227.488281 350.265625 227.441406 350.359375 227.441406 Z M 351.5 229.601562 C 352.125 229.601562 352.554688 229.839844 352.796875 230.320312 C 353.046875 230.796875 353.171875 231.492188 353.171875 232.398438 L 353.171875 232.976562 L 353.421875 232.976562 C 353.816406 232.976562 354.160156 232.867188 354.453125 232.648438 C 354.753906 232.429688 354.90625 232.101562 354.90625 231.664062 C 354.90625 231.320312 354.847656 231.015625 354.734375 230.757812 C 354.617188 230.507812 354.5625 230.371094 354.5625 230.351562 C 354.5625 230.234375 354.613281 230.140625 354.71875 230.070312 C 354.832031 230.007812 354.945312 229.976562 355.0625 229.976562 C 355.25 229.976562 355.410156 230.15625 355.546875 230.523438 C 355.691406 230.886719 355.765625 231.273438 355.765625 231.679688 C 355.765625 232.460938 355.539062 233.039062 355.09375 233.414062 C 354.644531 233.789062 354.09375 233.976562 353.4375 233.976562 L 350.359375 233.976562 C 350.253906 233.976562 350.164062 233.929688 350.09375 233.835938 C 350.03125 233.742188 350 233.621094 350 233.476562 C 350 233.351562 350.03125 233.242188 350.09375 233.148438 C 350.164062 233.0625 350.253906 233.023438 350.359375 233.023438 L 350.84375 233.023438 C 350.21875 232.480469 349.90625 231.875 349.90625 231.210938 C 349.90625 230.730469 350.039062 230.339844 350.3125 230.039062 C 350.582031 229.746094 350.976562 229.601562 351.5 229.601562 Z M 351.609375 230.601562 C 351.304688 230.601562 351.078125 230.683594 350.921875 230.851562 C 350.773438 231.015625 350.703125 231.242188 350.703125 231.523438 C 350.703125 231.855469 350.835938 232.179688 351.109375 232.492188 C 351.378906 232.8125 351.65625 232.976562 351.9375 232.976562 L 352.5625 232.976562 L 352.5625 232.554688 C 352.5625 232.324219 352.550781 232.125 352.53125 231.960938 C 352.519531 231.792969 352.492188 231.617188 352.453125 231.429688 C 352.421875 231.25 352.367188 231.105469 352.296875 230.992188 C 352.234375 230.875 352.144531 230.78125 352.03125 230.710938 C 351.914062 230.636719 351.773438 230.601562 351.609375 230.601562 Z M 352.234375 235.132812 L 353.4375 235.132812 C 354.125 235.132812 354.679688 235.335938 355.109375 235.742188 C 355.546875 236.148438 355.765625 236.742188 355.765625 237.523438 C 355.765625 238.023438 355.675781 238.4375 355.5 238.773438 C 355.320312 239.117188 355.132812 239.289062 354.9375 239.289062 C 354.820312 239.289062 354.707031 239.246094 354.59375 239.164062 C 354.488281 239.078125 354.4375 238.980469 354.4375 238.867188 C 354.4375 238.835938 354.503906 238.695312 354.640625 238.445312 C 354.785156 238.203125 354.859375 237.921875 354.859375 237.601562 C 354.859375 237.121094 354.734375 236.757812 354.484375 236.507812 C 354.234375 236.257812 353.882812 236.132812 353.4375 236.132812 L 352.234375 236.132812 C 351.273438 236.132812 350.796875 236.621094 350.796875 237.601562 C 350.796875 237.945312 350.867188 238.234375 351.015625 238.476562 C 351.160156 238.726562 351.234375 238.871094 351.234375 238.914062 C 351.234375 239.039062 351.179688 239.140625 351.078125 239.226562 C 350.972656 239.320312 350.863281 239.367188 350.75 239.367188 C 350.550781 239.367188 350.359375 239.1875 350.171875 238.835938 C 349.996094 238.480469 349.90625 238.046875 349.90625 237.539062 C 349.90625 236.746094 350.117188 236.148438 350.546875 235.742188 C 350.972656 235.335938 351.535156 235.132812 352.234375 235.132812 Z M 350.359375 240.355469 L 358.765625 240.355469 C 358.867188 240.355469 358.953125 240.402344 359.015625 240.496094 C 359.085938 240.589844 359.125 240.703125 359.125 240.839844 C 359.125 240.984375 359.085938 241.105469 359.015625 241.199219 C 358.953125 241.300781 358.867188 241.355469 358.765625 241.355469 L 353.15625 241.355469 L 355.625 244.089844 C 355.6875 244.160156 355.71875 244.234375 355.71875 244.308594 C 355.71875 244.421875 355.664062 244.53125 355.5625 244.636719 C 355.46875 244.75 355.363281 244.808594 355.25 244.808594 C 355.144531 244.808594 355.0625 244.769531 355 244.699219 L 353.53125 243.027344 L 350.640625 245.027344 C 350.578125 245.066406 350.515625 245.089844 350.453125 245.089844 C 350.335938 245.089844 350.222656 245.027344 350.109375 244.902344 C 350.003906 244.785156 349.953125 244.660156 349.953125 244.527344 C 349.953125 244.421875 350.003906 244.332031 350.109375 244.261719 L 352.90625 242.355469 L 352.015625 241.355469 L 350.359375 241.355469 C 350.273438 241.355469 350.191406 241.300781 350.109375 241.199219 C 350.035156 241.105469 350 240.988281 350 240.855469 C 350 240.71875 350.035156 240.597656 350.109375 240.496094 C 350.179688 240.402344 350.265625 240.355469 350.359375 240.355469 Z M 358.921875 245.664062 C 359.003906 245.664062 359.070312 245.703125 359.125 245.789062 C 359.1875 245.882812 359.21875 245.980469 359.21875 246.085938 C 359.21875 246.199219 359.1875 246.304688 359.125 246.398438 C 359.070312 246.492188 359.003906 246.539062 358.921875 246.539062 L 357.171875 246.414062 C 357.085938 246.414062 357.015625 246.386719 356.953125 246.335938 C 356.890625 246.28125 356.859375 246.203125 356.859375 246.101562 C 356.859375 245.890625 356.960938 245.789062 357.171875 245.789062 Z M 358.921875 247.289062 C 359.003906 247.289062 359.070312 247.328125 359.125 247.414062 C 359.1875 247.507812 359.21875 247.609375 359.21875 247.726562 C 359.21875 247.839844 359.1875 247.9375 359.125 248.023438 C 359.070312 248.117188 359.003906 248.164062 358.921875 248.164062 L 357.171875 248.054688 C 357.085938 248.054688 357.015625 248.023438 356.953125 247.960938 C 356.890625 247.90625 356.859375 247.828125 356.859375 247.726562 C 356.859375 247.515625 356.960938 247.414062 357.171875 247.414062 Z M 350 248.589844 "/>
</g>
</svg>
