<?xml version="1.0" encoding="UTF-8"?>
<svg xmlns="http://www.w3.org/2000/svg" xmlns:xlink="http://www.w3.org/1999/xlink" width="136pt" height="566pt" viewBox="0 0 136 566" version="1.1">
<g id="surface225">
<path style=" stroke:none;fill-rule:nonzero;fill:rgb(0%,0%,0%);fill-opacity:1;" d="M 0 0 L 96 0 L 96 566 L 0 566 Z M 0 0 "/>
<path style=" stroke:none;fill-rule:nonzero;fill:rgb(50.196078%,50.196078%,50.196078%);fill-opacity:1;" d="M 0 0 L 12 0 L 12 566 L 0 566 Z M 0 0 "/>
<path style=" stroke:none;fill-rule:nonzero;fill:rgb(0%,0%,0%);fill-opacity:1;" d="M 12 0 L 24 0 L 24 566 L 12 566 Z M 12 0 "/>
<path style=" stroke:none;fill-rule:nonzero;fill:rgb(50.196078%,50.196078%,50.196078%);fill-opacity:1;" d="M 24 0 L 36 0 L 36 566 L 24 566 Z M 24 0 "/>
<path style=" stroke:none;fill-rule:nonzero;fill:rgb(0%,0%,0%);fill-opacity:1;" d="M 36 0 L 48 0 L 48 566 L 36 566 Z M 36 0 "/>
<path style=" stroke:none;fill-rule:nonzero;fill:rgb(50.196078%,50.196078%,50.196078%);fill-opacity:1;" d="M 48 0 L 60 0 L 60 566 L 48 566 Z M 48 0 "/>
<path style=" stroke:none;fill-rule:nonzero;fill:rgb(0%,0%,0%);fill-opacity:1;" d="M 60 0 L 72 0 L 72 566 L 60 566 Z M 60 0 "/>
<path style=" stroke:none;fill-rule:nonzero;fill:rgb(50.196078%,50.196078%,50.196078%);fill-opacity:1;" d="M 72 0 L 84 0 L 84 566 L 72 566 Z M 72 0 "/>
<path style=" stroke:none;fill-rule:nonzero;fill:rgb(0%,0%,0%);fill-opacity:1;" d="M 84 0 L 96 0 L 96 566 L 84 566 Z M 84 0 "/>
<path style=" stroke:none;fill-rule:nonzero;fill:rgb(0%,0%,0%);fill-opacity:1;" d="M 116.34375 10.71875 L 122.875 10.71875 C 123.5 10.71875 124.03125 10.925781 124.46875 11.34375 C 124.90625 11.769531 125.125 12.269531 125.125 12.84375 L 125.125 13.265625 C 125.125 13.390625 125.078125 13.488281 124.984375 13.5625 C 124.898438 13.632812 124.796875 13.671875 124.671875 13.671875 C 124.554688 13.671875 124.457031 13.632812 124.375 13.5625 C 124.289062 13.488281 124.25 13.390625 124.25 13.265625 L 124.25 13.015625 C 124.25 12.640625 124.125 12.332031 123.875 12.09375 C 123.625 11.851562 123.316406 11.726562 122.953125 11.71875 L 121.6875 11.71875 L 121.6875 13.359375 C 121.6875 13.453125 121.644531 13.523438 121.5625 13.578125 C 121.488281 13.640625 121.398438 13.671875 121.296875 13.671875 C 121.191406 13.671875 121.097656 13.640625 121.015625 13.578125 C 120.941406 13.523438 120.90625 13.453125 120.90625 13.359375 L 120.90625 11.71875 L 116.34375 11.71875 C 116.25 11.71875 116.164062 11.664062 116.09375 11.5625 C 116.03125 11.46875 116 11.347656 116 11.203125 C 116 11.066406 116.03125 10.953125 116.09375 10.859375 C 116.15625 10.765625 116.238281 10.71875 116.34375 10.71875 Z M 118.234375 14.265625 L 119.453125 14.265625 C 120.066406 14.265625 120.601562 14.5 121.0625 14.96875 C 121.53125 15.4375 121.765625 15.988281 121.765625 16.625 C 121.765625 17.269531 121.535156 17.828125 121.078125 18.296875 C 120.617188 18.773438 120.078125 19.015625 119.453125 19.015625 L 118.234375 19.015625 C 117.617188 19.015625 117.078125 18.773438 116.609375 18.296875 C 116.140625 17.816406 115.90625 17.257812 115.90625 16.625 C 115.90625 16 116.140625 15.445312 116.609375 14.96875 C 117.078125 14.5 117.617188 14.265625 118.234375 14.265625 Z M 118.234375 15.265625 C 117.859375 15.265625 117.523438 15.398438 117.234375 15.671875 C 116.941406 15.941406 116.796875 16.265625 116.796875 16.640625 C 116.796875 17.015625 116.941406 17.335938 117.234375 17.609375 C 117.535156 17.878906 117.867188 18.015625 118.234375 18.015625 L 119.453125 18.015625 C 119.816406 18.015625 120.140625 17.878906 120.421875 17.609375 C 120.710938 17.335938 120.859375 17.015625 120.859375 16.640625 C 120.859375 16.265625 120.710938 15.941406 120.421875 15.671875 C 120.140625 15.398438 119.816406 15.265625 119.453125 15.265625 Z M 116.359375 20.316406 L 124.765625 20.316406 C 124.867188 20.316406 124.953125 20.363281 125.015625 20.457031 C 125.085938 20.550781 125.125 20.667969 125.125 20.816406 C 125.125 20.960938 125.085938 21.082031 125.015625 21.175781 C 124.953125 21.269531 124.867188 21.316406 124.765625 21.316406 L 116.359375 21.316406 C 116.273438 21.316406 116.191406 21.261719 116.109375 21.160156 C 116.035156 21.066406 116 20.949219 116 20.816406 C 116 20.679688 116.035156 20.558594 116.109375 20.457031 C 116.179688 20.363281 116.265625 20.316406 116.359375 20.316406 Z M 118.234375 22.617188 L 119.453125 22.617188 C 120.085938 22.617188 120.628906 22.828125 121.078125 23.257812 C 121.535156 23.683594 121.765625 24.1875 121.765625 24.773438 C 121.765625 25.136719 121.675781 25.453125 121.5 25.726562 C 121.320312 25.996094 121.101562 26.203125 120.84375 26.351562 L 124.765625 26.351562 C 124.867188 26.351562 124.953125 26.398438 125.015625 26.492188 C 125.085938 26.585938 125.125 26.703125 125.125 26.851562 C 125.125 26.996094 125.085938 27.109375 125.015625 27.195312 C 124.953125 27.289062 124.867188 27.335938 124.765625 27.335938 L 116.359375 27.335938 C 116.265625 27.335938 116.179688 27.289062 116.109375 27.195312 C 116.035156 27.101562 116 26.984375 116 26.851562 C 116 26.726562 116.035156 26.617188 116.109375 26.523438 C 116.179688 26.4375 116.265625 26.398438 116.359375 26.398438 L 116.84375 26.398438 C 116.582031 26.261719 116.359375 26.039062 116.171875 25.726562 C 115.996094 25.421875 115.90625 25.09375 115.90625 24.742188 C 115.90625 24.179688 116.140625 23.683594 116.609375 23.257812 C 117.078125 22.828125 117.617188 22.617188 118.234375 22.617188 Z M 118.234375 23.617188 C 117.867188 23.617188 117.535156 23.75 117.234375 24.023438 C 116.941406 24.292969 116.796875 24.609375 116.796875 24.976562 C 116.796875 25.328125 116.929688 25.648438 117.203125 25.929688 C 117.472656 26.210938 117.707031 26.351562 117.90625 26.351562 L 119.453125 26.351562 C 119.867188 26.351562 120.207031 26.210938 120.46875 25.929688 C 120.726562 25.65625 120.859375 25.34375 120.859375 24.992188 C 120.859375 24.617188 120.710938 24.292969 120.421875 24.023438 C 120.140625 23.75 119.816406 23.617188 119.453125 23.617188 Z M 116.359375 28.917969 L 124.40625 28.917969 C 124.519531 28.917969 124.609375 28.957031 124.671875 29.042969 C 124.734375 29.136719 124.765625 29.246094 124.765625 29.371094 L 124.765625 33.636719 C 124.765625 33.75 124.722656 33.832031 124.640625 33.886719 C 124.554688 33.949219 124.453125 33.980469 124.328125 33.980469 C 124.203125 33.980469 124.09375 33.949219 124 33.886719 C 123.90625 33.824219 123.859375 33.738281 123.859375 33.636719 L 123.859375 29.917969 L 120.8125 29.917969 L 120.8125 31.792969 C 120.8125 31.894531 120.769531 31.980469 120.6875 32.042969 C 120.601562 32.105469 120.5 32.136719 120.375 32.136719 C 120.269531 32.136719 120.175781 32.105469 120.09375 32.042969 C 120.007812 31.988281 119.96875 31.90625 119.96875 31.792969 L 119.96875 29.917969 L 116.90625 29.917969 L 116.90625 33.636719 C 116.90625 33.738281 116.859375 33.824219 116.765625 33.886719 C 116.679688 33.949219 116.570312 33.980469 116.4375 33.980469 C 116.320312 33.980469 116.21875 33.949219 116.125 33.886719 C 116.039062 33.832031 116 33.75 116 33.636719 L 116 29.371094 C 116 29.246094 116.03125 29.136719 116.09375 29.042969 C 116.15625 28.957031 116.242188 28.917969 116.359375 28.917969 Z M 121.28125 34.367188 C 121.394531 34.367188 121.492188 34.433594 121.578125 34.570312 C 121.671875 34.714844 121.71875 34.859375 121.71875 35.007812 C 121.71875 35.171875 121.648438 35.28125 121.515625 35.335938 L 117.4375 36.851562 L 121.46875 38.351562 C 121.632812 38.414062 121.71875 38.523438 121.71875 38.679688 C 121.71875 38.804688 121.671875 38.9375 121.578125 39.085938 C 121.492188 39.242188 121.394531 39.320312 121.28125 39.320312 C 121.21875 39.320312 121.15625 39.304688 121.09375 39.273438 L 116.109375 37.304688 C 115.964844 37.242188 115.890625 37.089844 115.890625 36.851562 C 115.890625 36.601562 115.964844 36.445312 116.109375 36.382812 L 121.09375 34.414062 C 121.1875 34.382812 121.25 34.367188 121.28125 34.367188 Z M 118.234375 39.957031 L 119.484375 39.957031 C 120.109375 39.957031 120.644531 40.191406 121.09375 40.660156 C 121.539062 41.128906 121.765625 41.691406 121.765625 42.347656 C 121.765625 42.972656 121.550781 43.511719 121.125 43.972656 C 120.707031 44.429688 120.179688 44.660156 119.546875 44.660156 C 119.316406 44.660156 119.128906 44.628906 118.984375 44.566406 C 118.847656 44.511719 118.75 44.429688 118.6875 44.316406 C 118.632812 44.199219 118.597656 44.089844 118.578125 43.988281 C 118.566406 43.894531 118.5625 43.757812 118.5625 43.582031 L 118.5625 40.957031 L 118.203125 40.957031 C 117.753906 40.957031 117.398438 41.113281 117.140625 41.425781 C 116.878906 41.746094 116.75 42.160156 116.75 42.660156 C 116.75 42.929688 116.785156 43.160156 116.859375 43.347656 C 116.941406 43.542969 117.019531 43.699219 117.09375 43.816406 C 117.175781 43.941406 117.21875 44.039062 117.21875 44.113281 C 117.21875 44.226562 117.164062 44.320312 117.0625 44.394531 C 116.957031 44.476562 116.851562 44.519531 116.75 44.519531 C 116.570312 44.519531 116.382812 44.335938 116.1875 43.972656 C 116 43.605469 115.90625 43.160156 115.90625 42.628906 C 115.90625 41.847656 116.117188 41.207031 116.546875 40.707031 C 116.972656 40.207031 117.535156 39.957031 118.234375 39.957031 Z M 119.234375 40.957031 L 119.234375 43.175781 C 119.234375 43.382812 119.257812 43.523438 119.3125 43.597656 C 119.363281 43.667969 119.460938 43.707031 119.609375 43.707031 C 119.972656 43.707031 120.289062 43.570312 120.5625 43.300781 C 120.832031 43.039062 120.96875 42.722656 120.96875 42.347656 C 120.96875 41.960938 120.84375 41.632812 120.59375 41.363281 C 120.34375 41.089844 120.03125 40.957031 119.65625 40.957031 Z M 116.359375 45.753906 L 121.34375 45.753906 C 121.445312 45.753906 121.53125 45.800781 121.59375 45.894531 C 121.65625 45.988281 121.6875 46.105469 121.6875 46.253906 C 121.6875 46.378906 121.65625 46.480469 121.59375 46.566406 C 121.53125 46.660156 121.445312 46.707031 121.34375 46.707031 L 120.78125 46.707031 C 121.050781 46.851562 121.28125 47.066406 121.46875 47.347656 C 121.664062 47.628906 121.765625 47.941406 121.765625 48.285156 L 121.765625 48.691406 C 121.765625 48.792969 121.71875 48.882812 121.625 48.957031 C 121.53125 49.027344 121.421875 49.066406 121.296875 49.066406 C 121.179688 49.066406 121.078125 49.027344 120.984375 48.957031 C 120.898438 48.882812 120.859375 48.792969 120.859375 48.691406 L 120.859375 48.285156 C 120.859375 47.867188 120.691406 47.507812 120.359375 47.207031 C 120.035156 46.902344 119.613281 46.753906 119.09375 46.753906 L 116.359375 46.753906 C 116.273438 46.753906 116.191406 46.699219 116.109375 46.597656 C 116.035156 46.503906 116 46.386719 116 46.253906 C 116 46.117188 116.035156 45.996094 116.109375 45.894531 C 116.179688 45.800781 116.265625 45.753906 116.359375 45.753906 Z M 121.28125 49.320312 C 121.40625 49.320312 121.515625 49.390625 121.609375 49.539062 C 121.710938 49.683594 121.765625 49.828125 121.765625 49.976562 C 121.765625 50.140625 121.695312 50.246094 121.5625 50.289062 L 117.375 51.882812 L 121.5625 53.304688 C 121.695312 53.367188 121.765625 53.46875 121.765625 53.617188 C 121.765625 53.75 121.710938 53.890625 121.609375 54.039062 C 121.515625 54.195312 121.398438 54.273438 121.265625 54.273438 C 121.222656 54.273438 121.179688 54.257812 121.140625 54.226562 L 116.265625 52.414062 L 115.65625 52.179688 C 115.554688 52.136719 115.367188 52.054688 115.09375 51.929688 C 114.824219 51.8125 114.625 51.714844 114.5 51.632812 C 114.375 51.558594 114.21875 51.449219 114.03125 51.304688 C 113.835938 51.15625 113.695312 51.015625 113.609375 50.882812 C 113.515625 50.746094 113.433594 50.585938 113.359375 50.398438 C 113.289062 50.210938 113.25 50.011719 113.25 49.804688 C 113.25 49.492188 113.402344 49.335938 113.703125 49.335938 C 113.984375 49.335938 114.125 49.429688 114.125 49.617188 C 114.125 49.980469 114.328125 50.328125 114.734375 50.664062 C 115.140625 51.007812 115.65625 51.242188 116.28125 51.367188 L 121.140625 49.367188 C 121.191406 49.335938 121.238281 49.320312 121.28125 49.320312 Z M 116.09375 57.605469 L 124.875 57.605469 C 124.976562 57.605469 125.0625 57.652344 125.125 57.746094 C 125.1875 57.839844 125.21875 57.941406 125.21875 58.058594 L 125.21875 60.027344 C 125.21875 60.128906 125.171875 60.214844 125.078125 60.277344 C 124.992188 60.339844 124.890625 60.371094 124.765625 60.371094 C 124.640625 60.371094 124.53125 60.339844 124.4375 60.277344 C 124.351562 60.214844 124.3125 60.128906 124.3125 60.027344 L 124.3125 58.605469 L 116.640625 58.605469 L 116.640625 60.027344 C 116.640625 60.128906 116.597656 60.214844 116.515625 60.277344 C 116.429688 60.339844 116.320312 60.371094 116.1875 60.371094 C 116.070312 60.371094 115.976562 60.339844 115.890625 60.277344 C 115.796875 60.214844 115.75 60.128906 115.75 60.027344 L 115.75 58.058594 C 115.75 57.941406 115.78125 57.839844 115.84375 57.746094 C 115.90625 57.652344 115.992188 57.605469 116.09375 57.605469 Z M 117.96875 60.90625 C 118.15625 60.90625 118.28125 60.9375 118.34375 61 C 118.40625 61.070312 118.4375 61.195312 118.4375 61.375 C 118.4375 61.5625 118.40625 61.691406 118.34375 61.765625 C 118.28125 61.847656 118.179688 61.890625 118.046875 61.890625 C 117.734375 61.890625 117.453125 62.019531 117.203125 62.28125 C 116.960938 62.539062 116.84375 62.9375 116.84375 63.46875 C 116.84375 64.53125 117.394531 65.0625 118.5 65.0625 L 118.71875 65.0625 C 119.695312 65.0625 120.1875 64.53125 120.1875 63.46875 C 120.1875 63.226562 120.328125 63.109375 120.609375 63.109375 C 120.890625 63.109375 121.03125 63.226562 121.03125 63.46875 C 121.03125 63.925781 121.132812 64.269531 121.34375 64.5 C 121.550781 64.738281 121.925781 64.859375 122.46875 64.859375 C 123.40625 64.859375 123.875 64.410156 123.875 63.515625 C 123.875 62.992188 123.757812 62.628906 123.53125 62.421875 C 123.300781 62.210938 123.03125 62.109375 122.71875 62.109375 C 122.425781 62.109375 122.28125 61.945312 122.28125 61.625 C 122.28125 61.40625 122.3125 61.257812 122.375 61.1875 C 122.445312 61.125 122.582031 61.09375 122.78125 61.09375 C 122.988281 61.09375 123.195312 61.128906 123.40625 61.203125 C 123.625 61.285156 123.835938 61.410156 124.046875 61.578125 C 124.253906 61.742188 124.425781 61.992188 124.5625 62.328125 C 124.695312 62.671875 124.765625 63.070312 124.765625 63.53125 C 124.765625 65.0625 124.054688 65.828125 122.640625 65.828125 C 122.140625 65.828125 121.710938 65.738281 121.359375 65.5625 C 121.015625 65.382812 120.769531 65.148438 120.625 64.859375 C 120.300781 65.671875 119.664062 66.078125 118.71875 66.078125 L 118.5 66.078125 C 117.613281 66.078125 116.960938 65.835938 116.546875 65.359375 C 116.128906 64.878906 115.921875 64.25 115.921875 63.46875 C 115.921875 62.632812 116.128906 62 116.546875 61.5625 C 116.972656 61.125 117.445312 60.90625 117.96875 60.90625 Z M 116.546875 66.992188 C 116.722656 66.992188 116.875 67.046875 117 67.164062 C 117.125 67.277344 117.1875 67.421875 117.1875 67.601562 C 117.1875 67.765625 117.125 67.914062 117 68.039062 C 116.882812 68.164062 116.734375 68.226562 116.546875 68.226562 C 116.410156 68.226562 115.929688 68.054688 115.09375 67.710938 C 114.992188 67.65625 114.9375 67.570312 114.9375 67.445312 C 114.9375 67.351562 114.964844 67.265625 115.015625 67.195312 C 115.070312 67.132812 115.136719 67.101562 115.21875 67.101562 C 115.273438 67.101562 115.320312 67.105469 115.359375 67.117188 L 115.96875 67.367188 C 116.070312 67.117188 116.265625 66.992188 116.546875 66.992188 Z M 118 68.964844 C 118.320312 68.964844 118.484375 69.128906 118.484375 69.464844 C 118.484375 69.808594 118.347656 69.980469 118.078125 69.980469 C 117.691406 69.980469 117.390625 70.125 117.171875 70.417969 C 116.953125 70.71875 116.84375 71.09375 116.84375 71.542969 C 116.84375 72.050781 116.984375 72.441406 117.265625 72.714844 C 117.546875 72.996094 117.960938 73.136719 118.515625 73.136719 L 118.75 73.136719 C 119.289062 73.136719 119.695312 72.996094 119.96875 72.714844 C 120.25 72.441406 120.390625 72.058594 120.390625 71.558594 L 120.390625 69.855469 C 120.390625 69.542969 120.519531 69.386719 120.78125 69.386719 C 120.863281 69.386719 120.953125 69.394531 121.046875 69.417969 L 124.40625 69.667969 C 124.644531 69.675781 124.765625 69.765625 124.765625 69.933594 L 124.765625 73.386719 C 124.765625 73.488281 124.71875 73.566406 124.625 73.621094 C 124.539062 73.683594 124.4375 73.714844 124.3125 73.714844 C 124.195312 73.714844 124.09375 73.683594 124 73.621094 C 123.90625 73.566406 123.859375 73.488281 123.859375 73.386719 L 123.859375 70.542969 L 121.234375 70.355469 L 121.234375 71.558594 C 121.234375 72.339844 121.03125 72.964844 120.625 73.433594 C 120.226562 73.902344 119.601562 74.136719 118.75 74.136719 L 118.515625 74.136719 C 117.628906 74.136719 116.972656 73.902344 116.546875 73.433594 C 116.128906 72.964844 115.921875 72.339844 115.921875 71.558594 C 115.921875 70.753906 116.125 70.121094 116.53125 69.652344 C 116.9375 69.191406 117.425781 68.964844 118 68.964844 Z M 116.1875 74.707031 C 116.320312 74.707031 116.429688 74.738281 116.515625 74.800781 C 116.597656 74.863281 116.640625 74.945312 116.640625 75.050781 L 116.640625 76.472656 L 124.3125 76.472656 L 124.3125 75.050781 C 124.3125 74.945312 124.351562 74.863281 124.4375 74.800781 C 124.53125 74.738281 124.640625 74.707031 124.765625 74.707031 C 124.890625 74.707031 124.992188 74.738281 125.078125 74.800781 C 125.171875 74.863281 125.21875 74.945312 125.21875 75.050781 L 125.21875 77.019531 C 125.21875 77.144531 125.1875 77.246094 125.125 77.332031 C 125.0625 77.425781 124.976562 77.472656 124.875 77.472656 L 116.09375 77.472656 C 115.992188 77.472656 115.90625 77.425781 115.84375 77.332031 C 115.78125 77.246094 115.75 77.144531 115.75 77.019531 L 115.75 75.050781 C 115.75 74.945312 115.796875 74.863281 115.890625 74.800781 C 115.976562 74.738281 116.070312 74.707031 116.1875 74.707031 Z M 117.859375 81.34375 L 122.953125 81.34375 C 123.578125 81.34375 124.109375 81.570312 124.546875 82.03125 C 124.992188 82.5 125.21875 83.046875 125.21875 83.671875 C 125.21875 83.992188 125.066406 84.15625 124.765625 84.15625 C 124.628906 84.15625 124.519531 84.125 124.4375 84.0625 C 124.351562 84 124.3125 83.914062 124.3125 83.8125 C 124.3125 83.375 124.171875 83.019531 123.890625 82.75 C 123.617188 82.476562 123.304688 82.34375 122.953125 82.34375 L 117.859375 82.34375 C 117.421875 82.34375 117.109375 82.488281 116.921875 82.78125 C 116.742188 83.070312 116.65625 83.414062 116.65625 83.8125 C 116.65625 84.039062 116.503906 84.15625 116.203125 84.15625 C 115.914062 84.15625 115.765625 83.984375 115.765625 83.640625 C 115.765625 82.992188 115.949219 82.445312 116.3125 82 C 116.675781 81.5625 117.191406 81.34375 117.859375 81.34375 Z M 116.8125 84.734375 C 116.914062 84.734375 117.015625 84.765625 117.109375 84.828125 C 117.210938 84.898438 117.265625 84.984375 117.265625 85.078125 C 117.265625 85.140625 117.21875 85.226562 117.125 85.34375 C 117.03125 85.46875 116.9375 85.644531 116.84375 85.875 C 116.75 86.101562 116.703125 86.367188 116.703125 86.671875 C 116.703125 87.066406 116.773438 87.351562 116.921875 87.53125 C 117.066406 87.71875 117.25 87.8125 117.46875 87.8125 C 117.726562 87.8125 117.9375 87.707031 118.09375 87.5 C 118.25 87.300781 118.363281 87.054688 118.4375 86.765625 C 118.519531 86.484375 118.609375 86.195312 118.703125 85.90625 C 118.804688 85.625 118.96875 85.378906 119.1875 85.171875 C 119.414062 84.972656 119.710938 84.875 120.078125 84.875 C 120.535156 84.875 120.929688 85.035156 121.265625 85.359375 C 121.597656 85.679688 121.765625 86.175781 121.765625 86.84375 C 121.765625 87.269531 121.695312 87.65625 121.5625 88 C 121.425781 88.351562 121.273438 88.53125 121.109375 88.53125 C 121.015625 88.53125 120.90625 88.492188 120.78125 88.421875 C 120.664062 88.347656 120.609375 88.253906 120.609375 88.140625 C 120.609375 88.109375 120.664062 87.953125 120.78125 87.671875 C 120.894531 87.398438 120.953125 87.128906 120.953125 86.859375 C 120.953125 86.492188 120.863281 86.21875 120.6875 86.03125 C 120.519531 85.851562 120.328125 85.765625 120.109375 85.765625 C 119.890625 85.765625 119.710938 85.863281 119.578125 86.0625 C 119.453125 86.257812 119.351562 86.503906 119.28125 86.796875 C 119.21875 87.097656 119.132812 87.390625 119.03125 87.671875 C 118.925781 87.960938 118.742188 88.207031 118.484375 88.40625 C 118.234375 88.601562 117.910156 88.703125 117.515625 88.703125 C 117.015625 88.703125 116.617188 88.523438 116.328125 88.171875 C 116.046875 87.828125 115.90625 87.335938 115.90625 86.703125 C 115.90625 86.160156 116 85.695312 116.1875 85.3125 C 116.382812 84.925781 116.59375 84.734375 116.8125 84.734375 Z M 116.359375 89.894531 L 124.765625 89.894531 C 124.867188 89.894531 124.953125 89.941406 125.015625 90.035156 C 125.085938 90.128906 125.125 90.246094 125.125 90.394531 C 125.125 90.539062 125.085938 90.660156 125.015625 90.753906 C 124.953125 90.847656 124.867188 90.894531 124.765625 90.894531 L 116.359375 90.894531 C 116.273438 90.894531 116.191406 90.839844 116.109375 90.738281 C 116.035156 90.644531 116 90.527344 116 90.394531 C 116 90.257812 116.035156 90.136719 116.109375 90.035156 C 116.179688 89.941406 116.265625 89.894531 116.359375 89.894531 Z M 118.234375 92.191406 L 119.453125 92.191406 C 120.066406 92.191406 120.601562 92.425781 121.0625 92.894531 C 121.53125 93.363281 121.765625 93.914062 121.765625 94.550781 C 121.765625 95.195312 121.535156 95.753906 121.078125 96.222656 C 120.617188 96.699219 120.078125 96.941406 119.453125 96.941406 L 118.234375 96.941406 C 117.617188 96.941406 117.078125 96.699219 116.609375 96.222656 C 116.140625 95.742188 115.90625 95.183594 115.90625 94.550781 C 115.90625 93.925781 116.140625 93.371094 116.609375 92.894531 C 117.078125 92.425781 117.617188 92.191406 118.234375 92.191406 Z M 118.234375 93.191406 C 117.859375 93.191406 117.523438 93.324219 117.234375 93.597656 C 116.941406 93.867188 116.796875 94.191406 116.796875 94.566406 C 116.796875 94.941406 116.941406 95.261719 117.234375 95.535156 C 117.535156 95.804688 117.867188 95.941406 118.234375 95.941406 L 119.453125 95.941406 C 119.816406 95.941406 120.140625 95.804688 120.421875 95.535156 C 120.710938 95.261719 120.859375 94.941406 120.859375 94.566406 C 120.859375 94.191406 120.710938 93.867188 120.421875 93.597656 C 120.140625 93.324219 119.816406 93.191406 119.453125 93.191406 Z M 121.28125 97.605469 C 121.394531 97.605469 121.492188 97.667969 121.578125 97.792969 C 121.671875 97.925781 121.71875 98.066406 121.71875 98.214844 C 121.71875 98.378906 121.648438 98.488281 121.515625 98.542969 L 117.484375 99.996094 L 121.125 101.121094 C 121.28125 101.171875 121.359375 101.296875 121.359375 101.496094 C 121.359375 101.691406 121.28125 101.816406 121.125 101.871094 L 117.453125 102.980469 L 121.515625 104.449219 C 121.648438 104.480469 121.71875 104.578125 121.71875 104.746094 C 121.71875 104.890625 121.671875 105.03125 121.578125 105.167969 C 121.492188 105.300781 121.394531 105.371094 121.28125 105.371094 C 121.21875 105.371094 121.15625 105.355469 121.09375 105.324219 L 116.109375 103.464844 C 115.964844 103.402344 115.890625 103.265625 115.890625 103.058594 C 115.890625 102.839844 115.964844 102.703125 116.109375 102.652344 L 119.640625 101.496094 L 116.140625 100.355469 C 115.976562 100.292969 115.890625 100.144531 115.890625 99.917969 C 115.890625 99.707031 115.976562 99.574219 116.140625 99.511719 L 121.09375 97.652344 C 121.1875 97.621094 121.25 97.605469 121.28125 97.605469 Z M 116.359375 108.324219 L 117.53125 108.324219 C 117.882812 108.324219 118.234375 108.457031 118.578125 108.730469 C 118.929688 109.011719 119.25 109.34375 119.53125 109.730469 L 120.390625 110.902344 C 120.671875 111.285156 120.984375 111.613281 121.328125 111.886719 C 121.679688 112.167969 122.035156 112.308594 122.390625 112.308594 C 122.773438 112.308594 123.113281 112.183594 123.40625 111.933594 C 123.695312 111.683594 123.84375 111.324219 123.84375 110.855469 C 123.84375 110.449219 123.726562 110.121094 123.5 109.871094 C 123.269531 109.621094 122.945312 109.496094 122.53125 109.496094 C 122.425781 109.496094 122.332031 109.441406 122.25 109.339844 C 122.164062 109.246094 122.125 109.121094 122.125 108.964844 C 122.125 108.660156 122.320312 108.511719 122.71875 108.511719 C 123.320312 108.511719 123.8125 108.734375 124.1875 109.183594 C 124.570312 109.640625 124.765625 110.199219 124.765625 110.855469 C 124.765625 111.550781 124.539062 112.136719 124.09375 112.605469 C 123.65625 113.082031 123.101562 113.324219 122.4375 113.324219 C 122.03125 113.324219 121.644531 113.222656 121.28125 113.027344 C 120.914062 112.828125 120.601562 112.582031 120.34375 112.292969 C 120.082031 112 119.828125 111.683594 119.578125 111.339844 L 118.890625 110.386719 C 118.691406 110.09375 118.472656 109.847656 118.234375 109.652344 C 117.992188 109.453125 117.757812 109.355469 117.53125 109.355469 L 116.90625 109.355469 L 116.90625 113.042969 C 116.90625 113.136719 116.859375 113.214844 116.765625 113.277344 C 116.679688 113.347656 116.578125 113.386719 116.453125 113.386719 C 116.335938 113.386719 116.234375 113.347656 116.140625 113.277344 C 116.046875 113.214844 116 113.136719 116 113.042969 L 116 108.777344 C 116 108.671875 116.03125 108.566406 116.09375 108.464844 C 116.164062 108.371094 116.253906 108.324219 116.359375 108.324219 Z M 116.203125 113.960938 C 116.503906 113.960938 116.65625 114.074219 116.65625 114.304688 C 116.65625 114.699219 116.742188 115.042969 116.921875 115.335938 C 117.109375 115.625 117.421875 115.773438 117.859375 115.773438 L 122.953125 115.773438 C 123.304688 115.773438 123.617188 115.636719 123.890625 115.367188 C 124.171875 115.09375 124.3125 114.742188 124.3125 114.304688 C 124.3125 114.199219 124.351562 114.117188 124.4375 114.054688 C 124.519531 113.992188 124.628906 113.960938 124.765625 113.960938 C 125.066406 113.960938 125.21875 114.121094 125.21875 114.445312 C 125.21875 115.070312 124.992188 115.609375 124.546875 116.070312 C 124.109375 116.539062 123.578125 116.773438 122.953125 116.773438 L 117.859375 116.773438 C 117.191406 116.773438 116.675781 116.546875 116.3125 116.101562 C 115.949219 115.664062 115.765625 115.117188 115.765625 114.460938 C 115.765625 114.125 115.914062 113.960938 116.203125 113.960938 Z M 117.375 120.28125 C 117.507812 120.28125 117.632812 120.328125 117.75 120.421875 C 117.875 120.515625 117.9375 120.613281 117.9375 120.71875 C 117.9375 120.78125 117.882812 120.867188 117.78125 120.984375 C 117.6875 121.097656 117.582031 121.210938 117.46875 121.328125 C 117.351562 121.441406 117.242188 121.625 117.140625 121.875 C 117.046875 122.125 116.988281 122.40625 116.96875 122.71875 L 120.15625 122.71875 L 120.40625 122.0625 C 120.457031 121.914062 120.550781 121.722656 120.6875 121.484375 C 120.820312 121.242188 120.957031 121.066406 121.09375 120.953125 C 121.238281 120.835938 121.429688 120.734375 121.671875 120.640625 C 121.910156 120.546875 122.175781 120.5 122.46875 120.5 C 122.832031 120.5 123.148438 120.5625 123.421875 120.6875 C 123.703125 120.8125 123.921875 120.984375 124.078125 121.203125 C 124.234375 121.429688 124.351562 121.664062 124.4375 121.90625 C 124.519531 122.15625 124.578125 122.425781 124.609375 122.71875 L 124.96875 122.71875 C 125.03125 122.71875 125.085938 122.742188 125.140625 122.796875 C 125.191406 122.859375 125.21875 122.9375 125.21875 123.03125 C 125.21875 123.101562 125.191406 123.171875 125.140625 123.234375 C 125.085938 123.304688 125.03125 123.34375 124.96875 123.34375 L 124.625 123.34375 C 124.601562 123.820312 124.519531 124.253906 124.375 124.640625 C 124.238281 125.035156 124.0625 125.234375 123.84375 125.234375 C 123.726562 125.234375 123.601562 125.191406 123.46875 125.109375 C 123.34375 125.035156 123.28125 124.929688 123.28125 124.796875 C 123.28125 124.765625 123.347656 124.597656 123.484375 124.296875 C 123.628906 124.003906 123.710938 123.6875 123.734375 123.34375 L 120.984375 123.34375 C 120.878906 123.65625 120.769531 123.910156 120.65625 124.109375 C 120.550781 124.316406 120.40625 124.535156 120.21875 124.765625 C 120.03125 124.992188 119.789062 125.164062 119.5 125.28125 C 119.207031 125.394531 118.863281 125.453125 118.46875 125.453125 C 117.769531 125.453125 117.210938 125.257812 116.796875 124.875 C 116.390625 124.5 116.144531 123.988281 116.0625 123.34375 L 115.625 123.34375 C 115.5625 123.34375 115.507812 123.304688 115.453125 123.234375 C 115.402344 123.171875 115.375 123.101562 115.375 123.03125 C 115.375 122.9375 115.402344 122.859375 115.453125 122.796875 C 115.507812 122.742188 115.5625 122.71875 115.625 122.71875 L 116.03125 122.71875 C 116.03125 122.03125 116.179688 121.453125 116.484375 120.984375 C 116.796875 120.515625 117.09375 120.28125 117.375 120.28125 Z M 122.5625 121.453125 C 122.1875 121.453125 121.90625 121.5625 121.71875 121.78125 C 121.53125 122 121.359375 122.328125 121.203125 122.765625 L 123.71875 122.765625 C 123.625 121.890625 123.238281 121.453125 122.5625 121.453125 Z M 117 123.296875 C 117.125 124.085938 117.582031 124.484375 118.375 124.484375 C 118.789062 124.484375 119.113281 124.378906 119.34375 124.171875 C 119.582031 123.972656 119.78125 123.679688 119.9375 123.296875 Z M 118.234375 128.816406 L 119.453125 128.816406 C 120.085938 128.816406 120.628906 129.027344 121.078125 129.457031 C 121.535156 129.882812 121.765625 130.386719 121.765625 130.972656 C 121.765625 131.335938 121.675781 131.652344 121.5 131.925781 C 121.320312 132.195312 121.101562 132.402344 120.84375 132.550781 L 124.765625 132.550781 C 124.867188 132.550781 124.953125 132.597656 125.015625 132.691406 C 125.085938 132.785156 125.125 132.902344 125.125 133.050781 C 125.125 133.195312 125.085938 133.308594 125.015625 133.394531 C 124.953125 133.488281 124.867188 133.535156 124.765625 133.535156 L 116.359375 133.535156 C 116.265625 133.535156 116.179688 133.488281 116.109375 133.394531 C 116.035156 133.300781 116 133.183594 116 133.050781 C 116 132.925781 116.035156 132.816406 116.109375 132.722656 C 116.179688 132.636719 116.265625 132.597656 116.359375 132.597656 L 116.84375 132.597656 C 116.582031 132.460938 116.359375 132.238281 116.171875 131.925781 C 115.996094 131.621094 115.90625 131.292969 115.90625 130.941406 C 115.90625 130.378906 116.140625 129.882812 116.609375 129.457031 C 117.078125 129.027344 117.617188 128.816406 118.234375 128.816406 Z M 118.234375 129.816406 C 117.867188 129.816406 117.535156 129.949219 117.234375 130.222656 C 116.941406 130.492188 116.796875 130.808594 116.796875 131.175781 C 116.796875 131.527344 116.929688 131.847656 117.203125 132.128906 C 117.472656 132.410156 117.707031 132.550781 117.90625 132.550781 L 119.453125 132.550781 C 119.867188 132.550781 120.207031 132.410156 120.46875 132.128906 C 120.726562 131.855469 120.859375 131.542969 120.859375 131.191406 C 120.859375 130.816406 120.710938 130.492188 120.421875 130.222656 C 120.140625 129.949219 119.816406 129.816406 119.453125 129.816406 Z M 118.234375 134.746094 L 119.484375 134.746094 C 120.109375 134.746094 120.644531 134.980469 121.09375 135.449219 C 121.539062 135.917969 121.765625 136.480469 121.765625 137.136719 C 121.765625 137.761719 121.550781 138.300781 121.125 138.761719 C 120.707031 139.21875 120.179688 139.449219 119.546875 139.449219 C 119.316406 139.449219 119.128906 139.417969 118.984375 139.355469 C 118.847656 139.300781 118.75 139.21875 118.6875 139.105469 C 118.632812 138.988281 118.597656 138.878906 118.578125 138.777344 C 118.566406 138.683594 118.5625 138.546875 118.5625 138.371094 L 118.5625 135.746094 L 118.203125 135.746094 C 117.753906 135.746094 117.398438 135.902344 117.140625 136.214844 C 116.878906 136.535156 116.75 136.949219 116.75 137.449219 C 116.75 137.71875 116.785156 137.949219 116.859375 138.136719 C 116.941406 138.332031 117.019531 138.488281 117.09375 138.605469 C 117.175781 138.730469 117.21875 138.828125 117.21875 138.902344 C 117.21875 139.015625 117.164062 139.109375 117.0625 139.183594 C 116.957031 139.265625 116.851562 139.308594 116.75 139.308594 C 116.570312 139.308594 116.382812 139.125 116.1875 138.761719 C 116 138.394531 115.90625 137.949219 115.90625 137.417969 C 115.90625 136.636719 116.117188 135.996094 116.546875 135.496094 C 116.972656 134.996094 117.535156 134.746094 118.234375 134.746094 Z M 119.234375 135.746094 L 119.234375 137.964844 C 119.234375 138.171875 119.257812 138.3125 119.3125 138.386719 C 119.363281 138.457031 119.460938 138.496094 119.609375 138.496094 C 119.972656 138.496094 120.289062 138.359375 120.5625 138.089844 C 120.832031 137.828125 120.96875 137.511719 120.96875 137.136719 C 120.96875 136.75 120.84375 136.421875 120.59375 136.152344 C 120.34375 135.878906 120.03125 135.746094 119.65625 135.746094 Z M 116.359375 140.542969 L 121.34375 140.542969 C 121.445312 140.542969 121.53125 140.589844 121.59375 140.683594 C 121.65625 140.777344 121.6875 140.894531 121.6875 141.042969 C 121.6875 141.15625 121.648438 141.261719 121.578125 141.355469 C 121.515625 141.449219 121.4375 141.496094 121.34375 141.496094 L 120.84375 141.496094 C 121.101562 141.621094 121.320312 141.824219 121.5 142.105469 C 121.675781 142.394531 121.765625 142.730469 121.765625 143.105469 C 121.765625 143.667969 121.535156 144.15625 121.078125 144.574219 C 120.628906 145 120.085938 145.214844 119.453125 145.214844 L 116.359375 145.214844 C 116.242188 145.214844 116.15625 145.160156 116.09375 145.058594 C 116.03125 144.964844 116 144.847656 116 144.714844 C 116 144.589844 116.03125 144.472656 116.09375 144.371094 C 116.15625 144.265625 116.242188 144.214844 116.359375 144.214844 L 119.453125 144.214844 C 119.816406 144.214844 120.140625 144.078125 120.421875 143.808594 C 120.710938 143.535156 120.859375 143.21875 120.859375 142.855469 C 120.859375 142.511719 120.726562 142.203125 120.46875 141.933594 C 120.207031 141.671875 119.867188 141.542969 119.453125 141.542969 L 116.359375 141.542969 C 116.273438 141.542969 116.191406 141.488281 116.109375 141.386719 C 116.035156 141.28125 116 141.167969 116 141.042969 C 116 140.90625 116.035156 140.785156 116.109375 140.683594 C 116.179688 140.589844 116.265625 140.542969 116.359375 140.542969 Z M 116.8125 146.238281 C 116.914062 146.238281 117.015625 146.269531 117.109375 146.332031 C 117.210938 146.402344 117.265625 146.488281 117.265625 146.582031 C 117.265625 146.644531 117.21875 146.730469 117.125 146.847656 C 117.03125 146.972656 116.9375 147.148438 116.84375 147.378906 C 116.75 147.605469 116.703125 147.871094 116.703125 148.175781 C 116.703125 148.570312 116.773438 148.855469 116.921875 149.035156 C 117.066406 149.222656 117.25 149.316406 117.46875 149.316406 C 117.726562 149.316406 117.9375 149.210938 118.09375 149.003906 C 118.25 148.804688 118.363281 148.558594 118.4375 148.269531 C 118.519531 147.988281 118.609375 147.699219 118.703125 147.410156 C 118.804688 147.128906 118.96875 146.882812 119.1875 146.675781 C 119.414062 146.476562 119.710938 146.378906 120.078125 146.378906 C 120.535156 146.378906 120.929688 146.539062 121.265625 146.863281 C 121.597656 147.183594 121.765625 147.679688 121.765625 148.347656 C 121.765625 148.773438 121.695312 149.160156 121.5625 149.503906 C 121.425781 149.855469 121.273438 150.035156 121.109375 150.035156 C 121.015625 150.035156 120.90625 149.996094 120.78125 149.925781 C 120.664062 149.851562 120.609375 149.757812 120.609375 149.644531 C 120.609375 149.613281 120.664062 149.457031 120.78125 149.175781 C 120.894531 148.902344 120.953125 148.632812 120.953125 148.363281 C 120.953125 147.996094 120.863281 147.722656 120.6875 147.535156 C 120.519531 147.355469 120.328125 147.269531 120.109375 147.269531 C 119.890625 147.269531 119.710938 147.367188 119.578125 147.566406 C 119.453125 147.761719 119.351562 148.007812 119.28125 148.300781 C 119.21875 148.601562 119.132812 148.894531 119.03125 149.175781 C 118.925781 149.464844 118.742188 149.710938 118.484375 149.910156 C 118.234375 150.105469 117.910156 150.207031 117.515625 150.207031 C 117.015625 150.207031 116.617188 150.027344 116.328125 149.675781 C 116.046875 149.332031 115.90625 148.839844 115.90625 148.207031 C 115.90625 147.664062 116 147.199219 116.1875 146.816406 C 116.382812 146.429688 116.59375 146.238281 116.8125 146.238281 Z M 123.421875 151.347656 C 123.535156 151.222656 123.664062 151.160156 123.8125 151.160156 C 123.96875 151.160156 124.101562 151.214844 124.21875 151.332031 C 124.332031 151.457031 124.390625 151.605469 124.390625 151.785156 C 124.390625 151.949219 124.332031 152.089844 124.21875 152.207031 C 124.101562 152.332031 123.96875 152.394531 123.8125 152.394531 C 123.664062 152.394531 123.535156 152.332031 123.421875 152.207031 C 123.304688 152.089844 123.25 151.949219 123.25 151.785156 C 123.25 151.617188 123.304688 151.472656 123.421875 151.347656 Z M 116.359375 151.285156 L 121.34375 151.285156 C 121.445312 151.285156 121.53125 151.332031 121.59375 151.425781 C 121.65625 151.527344 121.6875 151.648438 121.6875 151.785156 C 121.6875 151.929688 121.65625 152.050781 121.59375 152.144531 C 121.53125 152.238281 121.445312 152.285156 121.34375 152.285156 L 116.359375 152.285156 C 116.273438 152.285156 116.191406 152.230469 116.109375 152.128906 C 116.035156 152.035156 116 151.917969 116 151.785156 C 116 151.648438 116.035156 151.527344 116.109375 151.425781 C 116.179688 151.332031 116.265625 151.285156 116.359375 151.285156 Z M 117.8125 153.679688 L 123.984375 153.679688 C 124.085938 153.679688 124.171875 153.730469 124.234375 153.835938 C 124.304688 153.9375 124.34375 154.046875 124.34375 154.164062 C 124.34375 154.296875 124.304688 154.417969 124.234375 154.523438 C 124.171875 154.625 124.085938 154.679688 123.984375 154.679688 L 121.6875 154.679688 L 121.6875 156.179688 C 121.6875 156.273438 121.644531 156.34375 121.5625 156.398438 C 121.488281 156.449219 121.398438 156.476562 121.296875 156.476562 C 121.191406 156.476562 121.097656 156.449219 121.015625 156.398438 C 120.941406 156.34375 120.90625 156.273438 120.90625 156.179688 L 120.90625 154.679688 L 117.8125 154.679688 C 117.46875 154.679688 117.222656 154.75 117.078125 154.898438 C 116.941406 155.042969 116.875 155.296875 116.875 155.664062 L 116.875 156.039062 C 116.875 156.171875 116.832031 156.277344 116.75 156.351562 C 116.664062 156.433594 116.5625 156.476562 116.4375 156.476562 C 116.320312 156.476562 116.21875 156.433594 116.125 156.351562 C 116.039062 156.265625 116 156.164062 116 156.039062 L 116 155.664062 C 116 154.339844 116.601562 153.679688 117.8125 153.679688 Z M 121.28125 156.855469 C 121.40625 156.855469 121.515625 156.925781 121.609375 157.074219 C 121.710938 157.21875 121.765625 157.363281 121.765625 157.511719 C 121.765625 157.675781 121.695312 157.78125 121.5625 157.824219 L 117.375 159.417969 L 121.5625 160.839844 C 121.695312 160.902344 121.765625 161.003906 121.765625 161.152344 C 121.765625 161.285156 121.710938 161.425781 121.609375 161.574219 C 121.515625 161.730469 121.398438 161.808594 121.265625 161.808594 C 121.222656 161.808594 121.179688 161.792969 121.140625 161.761719 L 116.265625 159.949219 L 115.65625 159.714844 C 115.554688 159.671875 115.367188 159.589844 115.09375 159.464844 C 114.824219 159.347656 114.625 159.25 114.5 159.167969 C 114.375 159.09375 114.21875 158.984375 114.03125 158.839844 C 113.835938 158.691406 113.695312 158.550781 113.609375 158.417969 C 113.515625 158.28125 113.433594 158.121094 113.359375 157.933594 C 113.289062 157.746094 113.25 157.546875 113.25 157.339844 C 113.25 157.027344 113.402344 156.871094 113.703125 156.871094 C 113.984375 156.871094 114.125 156.964844 114.125 157.152344 C 114.125 157.515625 114.328125 157.863281 114.734375 158.199219 C 115.140625 158.542969 115.65625 158.777344 116.28125 158.902344 L 121.140625 156.902344 C 121.191406 156.871094 121.238281 156.855469 121.28125 156.855469 Z M 122.90625 164.464844 C 123.070312 164.464844 123.207031 164.535156 123.3125 164.683594 L 124.625 165.777344 C 124.726562 165.878906 124.78125 165.984375 124.78125 166.089844 C 124.78125 166.203125 124.75 166.308594 124.6875 166.402344 C 124.625 166.496094 124.535156 166.542969 124.421875 166.542969 L 116.359375 166.542969 C 116.242188 166.542969 116.15625 166.488281 116.09375 166.386719 C 116.03125 166.292969 116 166.171875 116 166.027344 C 116 165.890625 116.03125 165.769531 116.09375 165.667969 C 116.15625 165.574219 116.242188 165.527344 116.359375 165.527344 L 123.265625 165.527344 L 122.609375 165.089844 C 122.523438 165.003906 122.484375 164.921875 122.484375 164.839844 C 122.484375 164.734375 122.523438 164.644531 122.609375 164.574219 C 122.691406 164.5 122.789062 164.464844 122.90625 164.464844 Z M 118.546875 167.988281 L 122.15625 167.988281 C 123.0625 167.988281 123.722656 168.226562 124.140625 168.707031 C 124.554688 169.183594 124.765625 169.820312 124.765625 170.613281 C 124.765625 171.414062 124.554688 172.039062 124.140625 172.488281 C 123.734375 172.933594 123.25 173.160156 122.6875 173.160156 C 122.382812 173.160156 122.234375 173.003906 122.234375 172.691406 C 122.234375 172.347656 122.367188 172.175781 122.640625 172.175781 C 123.003906 172.175781 123.296875 172.023438 123.515625 171.722656 C 123.742188 171.417969 123.859375 171.042969 123.859375 170.597656 C 123.859375 169.535156 123.289062 169.003906 122.15625 169.003906 L 120.46875 169.003906 C 120.96875 169.386719 121.21875 169.972656 121.21875 170.753906 C 121.21875 172.355469 120.410156 173.160156 118.796875 173.160156 L 118.546875 173.160156 C 117.640625 173.160156 116.972656 172.925781 116.546875 172.457031 C 116.128906 171.988281 115.921875 171.363281 115.921875 170.582031 C 115.921875 169.800781 116.128906 169.167969 116.546875 168.691406 C 116.972656 168.222656 117.640625 167.988281 118.546875 167.988281 Z M 118.5 169.003906 C 117.363281 169.003906 116.796875 169.527344 116.796875 170.582031 C 116.796875 171.632812 117.363281 172.160156 118.5 172.160156 L 118.75 172.160156 C 119.832031 172.160156 120.375 171.632812 120.375 170.582031 C 120.375 169.527344 119.867188 169.003906 118.859375 169.003906 Z M 116 176.046875 "/>
<path style=" stroke:none;fill-rule:nonzero;fill:rgb(0%,0%,0%);fill-opacity:1;" d="M 107.375 10.421875 C 107.507812 10.421875 107.632812 10.46875 107.75 10.5625 C 107.875 10.65625 107.9375 10.753906 107.9375 10.859375 C 107.9375 10.921875 107.882812 11.007812 107.78125 11.125 C 107.6875 11.238281 107.582031 11.351562 107.46875 11.46875 C 107.351562 11.582031 107.242188 11.765625 107.140625 12.015625 C 107.046875 12.265625 106.988281 12.546875 106.96875 12.859375 L 110.15625 12.859375 L 110.40625 12.203125 C 110.457031 12.054688 110.550781 11.863281 110.6875 11.625 C 110.820312 11.382812 110.957031 11.207031 111.09375 11.09375 C 111.238281 10.976562 111.429688 10.875 111.671875 10.78125 C 111.910156 10.6875 112.175781 10.640625 112.46875 10.640625 C 112.832031 10.640625 113.148438 10.703125 113.421875 10.828125 C 113.703125 10.953125 113.921875 11.125 114.078125 11.34375 C 114.234375 11.570312 114.351562 11.804688 114.4375 12.046875 C 114.519531 12.296875 114.578125 12.566406 114.609375 12.859375 L 114.96875 12.859375 C 115.03125 12.859375 115.085938 12.882812 115.140625 12.9375 C 115.191406 13 115.21875 13.078125 115.21875 13.171875 C 115.21875 13.242188 115.191406 13.3125 115.140625 13.375 C 115.085938 13.445312 115.03125 13.484375 114.96875 13.484375 L 114.625 13.484375 C 114.601562 13.960938 114.519531 14.394531 114.375 14.78125 C 114.238281 15.175781 114.0625 15.375 113.84375 15.375 C 113.726562 15.375 113.601562 15.332031 113.46875 15.25 C 113.34375 15.175781 113.28125 15.070312 113.28125 14.9375 C 113.28125 14.90625 113.347656 14.738281 113.484375 14.4375 C 113.628906 14.144531 113.710938 13.828125 113.734375 13.484375 L 110.984375 13.484375 C 110.878906 13.796875 110.769531 14.050781 110.65625 14.25 C 110.550781 14.457031 110.40625 14.675781 110.21875 14.90625 C 110.03125 15.132812 109.789062 15.304688 109.5 15.421875 C 109.207031 15.535156 108.863281 15.59375 108.46875 15.59375 C 107.769531 15.59375 107.210938 15.398438 106.796875 15.015625 C 106.390625 14.640625 106.144531 14.128906 106.0625 13.484375 L 105.625 13.484375 C 105.5625 13.484375 105.507812 13.445312 105.453125 13.375 C 105.402344 13.3125 105.375 13.242188 105.375 13.171875 C 105.375 13.078125 105.402344 13 105.453125 12.9375 C 105.507812 12.882812 105.5625 12.859375 105.625 12.859375 L 106.03125 12.859375 C 106.03125 12.171875 106.179688 11.59375 106.484375 11.125 C 106.796875 10.65625 107.09375 10.421875 107.375 10.421875 Z M 112.5625 11.59375 C 112.1875 11.59375 111.90625 11.703125 111.71875 11.921875 C 111.53125 12.140625 111.359375 12.46875 111.203125 12.90625 L 113.71875 12.90625 C 113.625 12.03125 113.238281 11.59375 112.5625 11.59375 Z M 107 13.4375 C 107.125 14.226562 107.582031 14.625 108.375 14.625 C 108.789062 14.625 109.113281 14.519531 109.34375 14.3125 C 109.582031 14.113281 109.78125 13.820312 109.9375 13.4375 Z M 114.921875 18.894531 C 115.003906 18.894531 115.070312 18.933594 115.125 19.019531 C 115.1875 19.113281 115.21875 19.210938 115.21875 19.316406 C 115.21875 19.429688 115.1875 19.535156 115.125 19.628906 C 115.070312 19.722656 115.003906 19.769531 114.921875 19.769531 L 113.171875 19.644531 C 113.085938 19.644531 113.015625 19.617188 112.953125 19.566406 C 112.890625 19.511719 112.859375 19.433594 112.859375 19.332031 C 112.859375 19.121094 112.960938 19.019531 113.171875 19.019531 Z M 114.921875 20.519531 C 115.003906 20.519531 115.070312 20.558594 115.125 20.644531 C 115.1875 20.738281 115.21875 20.839844 115.21875 20.957031 C 115.21875 21.070312 115.1875 21.167969 115.125 21.253906 C 115.070312 21.347656 115.003906 21.394531 114.921875 21.394531 L 113.171875 21.285156 C 113.085938 21.285156 113.015625 21.253906 112.953125 21.191406 C 112.890625 21.136719 112.859375 21.058594 112.859375 20.957031 C 112.859375 20.746094 112.960938 20.644531 113.171875 20.644531 Z M 104.875 22.085938 C 105.460938 22.085938 105.898438 22.40625 106.1875 23.054688 C 106.332031 22.648438 106.597656 22.445312 106.984375 22.445312 C 107.347656 22.445312 107.644531 22.640625 107.875 23.039062 C 108.238281 22.589844 108.742188 22.367188 109.390625 22.367188 L 109.78125 22.367188 C 110.363281 22.367188 110.835938 22.558594 111.203125 22.945312 C 111.578125 23.339844 111.765625 23.855469 111.765625 24.492188 C 111.765625 25.03125 111.609375 25.5 111.296875 25.898438 C 111.816406 26.136719 112.078125 26.40625 112.078125 26.710938 C 112.078125 26.84375 112.035156 26.949219 111.953125 27.023438 C 111.878906 27.105469 111.796875 27.148438 111.703125 27.148438 C 111.578125 27.148438 111.484375 27.078125 111.421875 26.945312 C 111.347656 26.671875 111.179688 26.453125 110.921875 26.289062 C 110.617188 26.539062 110.238281 26.664062 109.78125 26.664062 L 109.390625 26.664062 C 108.804688 26.664062 108.328125 26.460938 107.953125 26.054688 C 107.578125 25.648438 107.390625 25.125 107.390625 24.492188 C 107.390625 24.167969 107.453125 23.871094 107.578125 23.601562 C 107.453125 23.402344 107.3125 23.304688 107.15625 23.304688 C 107.007812 23.304688 106.894531 23.398438 106.8125 23.585938 C 106.726562 23.773438 106.675781 24 106.65625 24.273438 C 106.632812 24.542969 106.59375 24.835938 106.53125 25.148438 C 106.476562 25.46875 106.40625 25.765625 106.3125 26.039062 C 106.226562 26.308594 106.078125 26.539062 105.859375 26.726562 C 105.632812 26.914062 105.34375 27.007812 105 27.007812 C 104.4375 27.007812 104.007812 26.777344 103.703125 26.320312 C 103.402344 25.871094 103.25 25.289062 103.25 24.570312 C 103.25 23.851562 103.398438 23.257812 103.6875 22.789062 C 103.980469 22.320312 104.375 22.085938 104.875 22.085938 Z M 104.984375 23.039062 C 104.671875 23.039062 104.421875 23.171875 104.234375 23.445312 C 104.046875 23.726562 103.953125 24.09375 103.953125 24.554688 C 103.953125 25 104.046875 25.359375 104.234375 25.632812 C 104.421875 25.902344 104.671875 26.039062 104.984375 26.039062 C 105.109375 26.039062 105.21875 26.011719 105.3125 25.960938 C 105.40625 25.917969 105.492188 25.851562 105.5625 25.757812 C 105.625 25.664062 105.679688 25.5625 105.71875 25.460938 C 105.761719 25.367188 105.796875 25.242188 105.828125 25.085938 C 105.859375 24.9375 105.882812 24.8125 105.890625 24.710938 C 105.902344 24.617188 105.917969 24.484375 105.9375 24.320312 C 105.949219 24.152344 105.960938 24.039062 105.96875 23.976562 C 105.761719 23.351562 105.433594 23.039062 104.984375 23.039062 Z M 109.390625 23.335938 C 109.003906 23.335938 108.6875 23.4375 108.4375 23.648438 C 108.195312 23.855469 108.078125 24.148438 108.078125 24.523438 C 108.078125 24.875 108.195312 25.15625 108.4375 25.367188 C 108.6875 25.585938 109.003906 25.695312 109.390625 25.695312 L 109.78125 25.695312 C 110.144531 25.695312 110.453125 25.585938 110.703125 25.367188 C 110.953125 25.15625 111.078125 24.871094 111.078125 24.507812 C 111.078125 24.140625 110.953125 23.855469 110.703125 23.648438 C 110.460938 23.4375 110.15625 23.335938 109.78125 23.335938 Z M 106.359375 28.007812 L 111.34375 28.007812 C 111.445312 28.007812 111.53125 28.054688 111.59375 28.148438 C 111.65625 28.242188 111.6875 28.359375 111.6875 28.507812 C 111.6875 28.632812 111.65625 28.734375 111.59375 28.820312 C 111.53125 28.914062 111.445312 28.960938 111.34375 28.960938 L 110.78125 28.960938 C 111.050781 29.105469 111.28125 29.320312 111.46875 29.601562 C 111.664062 29.882812 111.765625 30.195312 111.765625 30.539062 L 111.765625 30.945312 C 111.765625 31.046875 111.71875 31.136719 111.625 31.210938 C 111.53125 31.28125 111.421875 31.320312 111.296875 31.320312 C 111.179688 31.320312 111.078125 31.28125 110.984375 31.210938 C 110.898438 31.136719 110.859375 31.046875 110.859375 30.945312 L 110.859375 30.539062 C 110.859375 30.121094 110.691406 29.761719 110.359375 29.460938 C 110.035156 29.15625 109.613281 29.007812 109.09375 29.007812 L 106.359375 29.007812 C 106.273438 29.007812 106.191406 28.953125 106.109375 28.851562 C 106.035156 28.757812 106 28.640625 106 28.507812 C 106 28.371094 106.035156 28.25 106.109375 28.148438 C 106.179688 28.054688 106.265625 28.007812 106.359375 28.007812 Z M 108.234375 31.917969 L 109.484375 31.917969 C 110.109375 31.917969 110.644531 32.152344 111.09375 32.621094 C 111.539062 33.089844 111.765625 33.652344 111.765625 34.308594 C 111.765625 34.933594 111.550781 35.472656 111.125 35.933594 C 110.707031 36.390625 110.179688 36.621094 109.546875 36.621094 C 109.316406 36.621094 109.128906 36.589844 108.984375 36.527344 C 108.847656 36.472656 108.75 36.390625 108.6875 36.277344 C 108.632812 36.160156 108.597656 36.050781 108.578125 35.949219 C 108.566406 35.855469 108.5625 35.71875 108.5625 35.542969 L 108.5625 32.917969 L 108.203125 32.917969 C 107.753906 32.917969 107.398438 33.074219 107.140625 33.386719 C 106.878906 33.707031 106.75 34.121094 106.75 34.621094 C 106.75 34.890625 106.785156 35.121094 106.859375 35.308594 C 106.941406 35.503906 107.019531 35.660156 107.09375 35.777344 C 107.175781 35.902344 107.21875 36 107.21875 36.074219 C 107.21875 36.1875 107.164062 36.28125 107.0625 36.355469 C 106.957031 36.4375 106.851562 36.480469 106.75 36.480469 C 106.570312 36.480469 106.382812 36.296875 106.1875 35.933594 C 106 35.566406 105.90625 35.121094 105.90625 34.589844 C 105.90625 33.808594 106.117188 33.167969 106.546875 32.667969 C 106.972656 32.167969 107.535156 31.917969 108.234375 31.917969 Z M 109.234375 32.917969 L 109.234375 35.136719 C 109.234375 35.34375 109.257812 35.484375 109.3125 35.558594 C 109.363281 35.628906 109.460938 35.667969 109.609375 35.667969 C 109.972656 35.667969 110.289062 35.53125 110.5625 35.261719 C 110.832031 35 110.96875 34.683594 110.96875 34.308594 C 110.96875 33.921875 110.84375 33.59375 110.59375 33.324219 C 110.34375 33.050781 110.03125 32.917969 109.65625 32.917969 Z M 111.28125 37.152344 C 111.40625 37.152344 111.515625 37.222656 111.609375 37.371094 C 111.710938 37.515625 111.765625 37.660156 111.765625 37.808594 C 111.765625 37.972656 111.695312 38.078125 111.5625 38.121094 L 107.375 39.714844 L 111.5625 41.136719 C 111.695312 41.199219 111.765625 41.300781 111.765625 41.449219 C 111.765625 41.582031 111.710938 41.722656 111.609375 41.871094 C 111.515625 42.027344 111.398438 42.105469 111.265625 42.105469 C 111.222656 42.105469 111.179688 42.089844 111.140625 42.058594 L 106.265625 40.246094 L 105.65625 40.011719 C 105.554688 39.96875 105.367188 39.886719 105.09375 39.761719 C 104.824219 39.644531 104.625 39.546875 104.5 39.464844 C 104.375 39.390625 104.21875 39.28125 104.03125 39.136719 C 103.835938 38.988281 103.695312 38.847656 103.609375 38.714844 C 103.515625 38.578125 103.433594 38.417969 103.359375 38.230469 C 103.289062 38.042969 103.25 37.84375 103.25 37.636719 C 103.25 37.324219 103.402344 37.167969 103.703125 37.167969 C 103.984375 37.167969 104.125 37.261719 104.125 37.449219 C 104.125 37.8125 104.328125 38.160156 104.734375 38.496094 C 105.140625 38.839844 105.65625 39.074219 106.28125 39.199219 L 111.140625 37.199219 C 111.191406 37.167969 111.238281 37.152344 111.28125 37.152344 Z M 106.359375 45.375 L 114.765625 45.375 C 114.867188 45.375 114.953125 45.421875 115.015625 45.515625 C 115.085938 45.609375 115.125 45.722656 115.125 45.859375 C 115.125 46.003906 115.085938 46.125 115.015625 46.21875 C 114.953125 46.320312 114.867188 46.375 114.765625 46.375 L 110.84375 46.375 C 111.101562 46.519531 111.320312 46.726562 111.5 47 C 111.675781 47.269531 111.765625 47.582031 111.765625 47.9375 C 111.765625 48.519531 111.535156 49.023438 111.078125 49.453125 C 110.628906 49.878906 110.085938 50.09375 109.453125 50.09375 L 108.234375 50.09375 C 107.617188 50.09375 107.078125 49.878906 106.609375 49.453125 C 106.140625 49.023438 105.90625 48.535156 105.90625 47.984375 C 105.90625 47.617188 105.996094 47.285156 106.171875 46.984375 C 106.359375 46.679688 106.582031 46.460938 106.84375 46.328125 L 106.359375 46.328125 C 106.265625 46.328125 106.179688 46.28125 106.109375 46.1875 C 106.035156 46.09375 106 45.988281 106 45.875 C 106 45.738281 106.035156 45.617188 106.109375 45.515625 C 106.179688 45.421875 106.265625 45.375 106.359375 45.375 Z M 107.90625 46.375 C 107.707031 46.375 107.472656 46.515625 107.203125 46.796875 C 106.929688 47.078125 106.796875 47.390625 106.796875 47.734375 C 106.796875 48.097656 106.941406 48.414062 107.234375 48.6875 C 107.535156 48.957031 107.867188 49.09375 108.234375 49.09375 L 109.453125 49.09375 C 109.816406 49.09375 110.140625 48.957031 110.421875 48.6875 C 110.710938 48.414062 110.859375 48.097656 110.859375 47.734375 C 110.859375 47.367188 110.726562 47.050781 110.46875 46.78125 C 110.207031 46.507812 109.867188 46.375 109.453125 46.375 Z M 106.359375 51.398438 L 114.765625 51.398438 C 114.867188 51.398438 114.953125 51.445312 115.015625 51.539062 C 115.085938 51.632812 115.125 51.75 115.125 51.898438 C 115.125 52.042969 115.085938 52.164062 115.015625 52.257812 C 114.953125 52.351562 114.867188 52.398438 114.765625 52.398438 L 106.359375 52.398438 C 106.273438 52.398438 106.191406 52.34375 106.109375 52.242188 C 106.035156 52.148438 106 52.03125 106 51.898438 C 106 51.761719 106.035156 51.640625 106.109375 51.539062 C 106.179688 51.445312 106.265625 51.398438 106.359375 51.398438 Z M 107.5 53.554688 C 108.125 53.554688 108.554688 53.792969 108.796875 54.273438 C 109.046875 54.75 109.171875 55.445312 109.171875 56.351562 L 109.171875 56.929688 L 109.421875 56.929688 C 109.816406 56.929688 110.160156 56.820312 110.453125 56.601562 C 110.753906 56.382812 110.90625 56.054688 110.90625 55.617188 C 110.90625 55.273438 110.847656 54.96875 110.734375 54.710938 C 110.617188 54.460938 110.5625 54.324219 110.5625 54.304688 C 110.5625 54.1875 110.613281 54.09375 110.71875 54.023438 C 110.832031 53.960938 110.945312 53.929688 111.0625 53.929688 C 111.25 53.929688 111.410156 54.109375 111.546875 54.476562 C 111.691406 54.839844 111.765625 55.226562 111.765625 55.632812 C 111.765625 56.414062 111.539062 56.992188 111.09375 57.367188 C 110.644531 57.742188 110.09375 57.929688 109.4375 57.929688 L 106.359375 57.929688 C 106.253906 57.929688 106.164062 57.882812 106.09375 57.789062 C 106.03125 57.695312 106 57.574219 106 57.429688 C 106 57.304688 106.03125 57.195312 106.09375 57.101562 C 106.164062 57.015625 106.253906 56.976562 106.359375 56.976562 L 106.84375 56.976562 C 106.21875 56.433594 105.90625 55.828125 105.90625 55.164062 C 105.90625 54.683594 106.039062 54.292969 106.3125 53.992188 C 106.582031 53.699219 106.976562 53.554688 107.5 53.554688 Z M 107.609375 54.554688 C 107.304688 54.554688 107.078125 54.636719 106.921875 54.804688 C 106.773438 54.96875 106.703125 55.195312 106.703125 55.476562 C 106.703125 55.808594 106.835938 56.132812 107.109375 56.445312 C 107.378906 56.765625 107.65625 56.929688 107.9375 56.929688 L 108.5625 56.929688 L 108.5625 56.507812 C 108.5625 56.277344 108.550781 56.078125 108.53125 55.914062 C 108.519531 55.746094 108.492188 55.570312 108.453125 55.382812 C 108.421875 55.203125 108.367188 55.058594 108.296875 54.945312 C 108.234375 54.828125 108.144531 54.734375 108.03125 54.664062 C 107.914062 54.589844 107.773438 54.554688 107.609375 54.554688 Z M 108.234375 59.089844 L 109.4375 59.089844 C 110.125 59.089844 110.679688 59.292969 111.109375 59.699219 C 111.546875 60.105469 111.765625 60.699219 111.765625 61.480469 C 111.765625 61.980469 111.675781 62.394531 111.5 62.730469 C 111.320312 63.074219 111.132812 63.246094 110.9375 63.246094 C 110.820312 63.246094 110.707031 63.203125 110.59375 63.121094 C 110.488281 63.035156 110.4375 62.9375 110.4375 62.824219 C 110.4375 62.792969 110.503906 62.652344 110.640625 62.402344 C 110.785156 62.160156 110.859375 61.878906 110.859375 61.558594 C 110.859375 61.078125 110.734375 60.714844 110.484375 60.464844 C 110.234375 60.214844 109.882812 60.089844 109.4375 60.089844 L 108.234375 60.089844 C 107.273438 60.089844 106.796875 60.578125 106.796875 61.558594 C 106.796875 61.902344 106.867188 62.191406 107.015625 62.433594 C 107.160156 62.683594 107.234375 62.828125 107.234375 62.871094 C 107.234375 62.996094 107.179688 63.097656 107.078125 63.183594 C 106.972656 63.277344 106.863281 63.324219 106.75 63.324219 C 106.550781 63.324219 106.359375 63.144531 106.171875 62.792969 C 105.996094 62.4375 105.90625 62.003906 105.90625 61.496094 C 105.90625 60.703125 106.117188 60.105469 106.546875 59.699219 C 106.972656 59.292969 107.535156 59.089844 108.234375 59.089844 Z M 106.359375 64.3125 L 114.765625 64.3125 C 114.867188 64.3125 114.953125 64.359375 115.015625 64.453125 C 115.085938 64.546875 115.125 64.660156 115.125 64.796875 C 115.125 64.941406 115.085938 65.0625 115.015625 65.15625 C 114.953125 65.257812 114.867188 65.3125 114.765625 65.3125 L 109.15625 65.3125 L 111.625 68.046875 C 111.6875 68.117188 111.71875 68.191406 111.71875 68.265625 C 111.71875 68.378906 111.664062 68.488281 111.5625 68.59375 C 111.46875 68.707031 111.363281 68.765625 111.25 68.765625 C 111.144531 68.765625 111.0625 68.726562 111 68.65625 L 109.53125 66.984375 L 106.640625 68.984375 C 106.578125 69.023438 106.515625 69.046875 106.453125 69.046875 C 106.335938 69.046875 106.222656 68.984375 106.109375 68.859375 C 106.003906 68.742188 105.953125 68.617188 105.953125 68.484375 C 105.953125 68.378906 106.003906 68.289062 106.109375 68.21875 L 108.90625 66.3125 L 108.015625 65.3125 L 106.359375 65.3125 C 106.273438 65.3125 106.191406 65.257812 106.109375 65.15625 C 106.035156 65.0625 106 64.945312 106 64.8125 C 106 64.675781 106.035156 64.554688 106.109375 64.453125 C 106.179688 64.359375 106.265625 64.3125 106.359375 64.3125 Z M 114.921875 69.617188 C 115.003906 69.617188 115.070312 69.65625 115.125 69.742188 C 115.1875 69.835938 115.21875 69.933594 115.21875 70.039062 C 115.21875 70.152344 115.1875 70.257812 115.125 70.351562 C 115.070312 70.445312 115.003906 70.492188 114.921875 70.492188 L 113.171875 70.367188 C 113.085938 70.367188 113.015625 70.339844 112.953125 70.289062 C 112.890625 70.234375 112.859375 70.15625 112.859375 70.054688 C 112.859375 69.84375 112.960938 69.742188 113.171875 69.742188 Z M 114.921875 71.242188 C 115.003906 71.242188 115.070312 71.28125 115.125 71.367188 C 115.1875 71.460938 115.21875 71.5625 115.21875 71.679688 C 115.21875 71.792969 115.1875 71.890625 115.125 71.976562 C 115.070312 72.070312 115.003906 72.117188 114.921875 72.117188 L 113.171875 72.007812 C 113.085938 72.007812 113.015625 71.976562 112.953125 71.914062 C 112.890625 71.859375 112.859375 71.78125 112.859375 71.679688 C 112.859375 71.46875 112.960938 71.367188 113.171875 71.367188 Z M 106 72.542969 "/>
</g>
</svg>
