<?xml version="1.0" encoding="UTF-8"?>
<svg xmlns="http://www.w3.org/2000/svg" xmlns:xlink="http://www.w3.org/1999/xlink" width="384pt" height="288pt" viewBox="0 0 384 288" version="1.1">
<g id="surface149">
<path style=" stroke:none;fill-rule:nonzero;fill:rgb(0%,0%,0%);fill-opacity:1;" d="M 0 0 L 284 0 L 284 288 L 0 288 Z M 0 0 "/>
<path style=" stroke:none;fill-rule:nonzero;fill:rgb(50.196078%,50.196078%,50.196078%);fill-opacity:1;" d="M 0 0 L 35.5 0 L 35.5 288 L 0 288 Z M 0 0 "/>
<path style=" stroke:none;fill-rule:nonzero;fill:rgb(0%,0%,0%);fill-opacity:1;" d="M 35.5 0 L 71 0 L 71 288 L 35.5 288 Z M 35.5 0 "/>
<path style=" stroke:none;fill-rule:nonzero;fill:rgb(50.196078%,50.196078%,50.196078%);fill-opacity:1;" d="M 71 0 L 106.5 0 L 106.5 288 L 71 288 Z M 71 0 "/>
<path style=" stroke:none;fill-rule:nonzero;fill:rgb(0%,0%,0%);fill-opacity:1;" d="M 106.5 0 L 142 0 L 142 288 L 106.5 288 Z M 106.5 0 "/>
<path style=" stroke:none;fill-rule:nonzero;fill:rgb(50.196078%,50.196078%,50.196078%);fill-opacity:1;" d="M 142 0 L 177.5 0 L 177.5 288 L 142 288 Z M 142 0 "/>
<path style=" stroke:none;fill-rule:nonzero;fill:rgb(0%,0%,0%);fill-opacity:1;" d="M 177.5 0 L 213 0 L 213 288 L 177.5 288 Z M 177.5 0 "/>
<path style=" stroke:none;fill-rule:nonzero;fill:rgb(50.196078%,50.196078%,50.196078%);fill-opacity:1;" d="M 213 0 L 248.5 0 L 248.5 288 L 213 288 Z M 213 0 "/>
<path style=" stroke:none;fill-rule:nonzero;fill:rgb(0%,0%,0%);fill-opacity:1;" d="M 248.5 0 L 284 0 L 284 288 L 248.5 288 Z M 248.5 0 "/>
<path style=" stroke:none;fill-rule:nonzero;fill:rgb(0%,0%,0%);fill-opacity:1;" d="M 184.34375 50.71875 L 190.875 50.71875 C 191.5 50.71875 192.03125 50.925781 192.46875 51.34375 C 192.90625 51.769531 193.125 52.269531 193.125 52.84375 L 193.125 53.265625 C 193.125 53.390625 193.078125 53.488281 192.984375 53.5625 C 192.898438 53.632812 192.796875 53.671875 192.671875 53.671875 C 192.554688 53.671875 192.457031 53.632812 192.375 53.5625 C 192.289062 53.488281 192.25 53.390625 192.25 53.265625 L 192.25 53.015625 C 192.25 52.640625 192.125 52.332031 191.875 52.09375 C 191.625 51.851562 191.316406 51.726562 190.953125 51.71875 L 189.6875 51.71875 L 189.6875 53.359375 C 189.6875 53.453125 189.644531 53.523438 189.5625 53.578125 C 189.488281 53.640625 189.398438 53.671875 189.296875 53.671875 C 189.191406 53.671875 189.097656 53.640625 189.015625 53.578125 C 188.941406 53.523438 188.90625 53.453125 188.90625 53.359375 L 188.90625 51.71875 L 184.34375 51.71875 C 184.25 51.71875 184.164062 51.664062 184.09375 51.5625 C 184.03125 51.46875 184 51.347656 184 51.203125 C 184 51.066406 184.03125 50.953125 184.09375 50.859375 C 184.15625 50.765625 184.238281 50.71875 184.34375 50.71875 Z M 186.234375 54.265625 L 187.453125 54.265625 C 188.066406 54.265625 188.601562 54.5 189.0625 54.96875 C 189.53125 55.4375 189.765625 55.988281 189.765625 56.625 C 189.765625 57.269531 189.535156 57.828125 189.078125 58.296875 C 188.617188 58.773438 188.078125 59.015625 187.453125 59.015625 L 186.234375 59.015625 C 185.617188 59.015625 185.078125 58.773438 184.609375 58.296875 C 184.140625 57.816406 183.90625 57.257812 183.90625 56.625 C 183.90625 56 184.140625 55.445312 184.609375 54.96875 C 185.078125 54.5 185.617188 54.265625 186.234375 54.265625 Z M 186.234375 55.265625 C 185.859375 55.265625 185.523438 55.398438 185.234375 55.671875 C 184.941406 55.941406 184.796875 56.265625 184.796875 56.640625 C 184.796875 57.015625 184.941406 57.335938 185.234375 57.609375 C 185.535156 57.878906 185.867188 58.015625 186.234375 58.015625 L 187.453125 58.015625 C 187.816406 58.015625 188.140625 57.878906 188.421875 57.609375 C 188.710938 57.335938 188.859375 57.015625 188.859375 56.640625 C 188.859375 56.265625 188.710938 55.941406 188.421875 55.671875 C 188.140625 55.398438 187.816406 55.265625 187.453125 55.265625 Z M 184.359375 60.316406 L 192.765625 60.316406 C 192.867188 60.316406 192.953125 60.363281 193.015625 60.457031 C 193.085938 60.550781 193.125 60.667969 193.125 60.816406 C 193.125 60.960938 193.085938 61.082031 193.015625 61.175781 C 192.953125 61.269531 192.867188 61.316406 192.765625 61.316406 L 184.359375 61.316406 C 184.273438 61.316406 184.191406 61.261719 184.109375 61.160156 C 184.035156 61.066406 184 60.949219 184 60.816406 C 184 60.679688 184.035156 60.558594 184.109375 60.457031 C 184.179688 60.363281 184.265625 60.316406 184.359375 60.316406 Z M 186.234375 62.617188 L 187.453125 62.617188 C 188.085938 62.617188 188.628906 62.828125 189.078125 63.257812 C 189.535156 63.683594 189.765625 64.1875 189.765625 64.773438 C 189.765625 65.136719 189.675781 65.453125 189.5 65.726562 C 189.320312 65.996094 189.101562 66.203125 188.84375 66.351562 L 192.765625 66.351562 C 192.867188 66.351562 192.953125 66.398438 193.015625 66.492188 C 193.085938 66.585938 193.125 66.703125 193.125 66.851562 C 193.125 66.996094 193.085938 67.109375 193.015625 67.195312 C 192.953125 67.289062 192.867188 67.335938 192.765625 67.335938 L 184.359375 67.335938 C 184.265625 67.335938 184.179688 67.289062 184.109375 67.195312 C 184.035156 67.101562 184 66.984375 184 66.851562 C 184 66.726562 184.035156 66.617188 184.109375 66.523438 C 184.179688 66.4375 184.265625 66.398438 184.359375 66.398438 L 184.84375 66.398438 C 184.582031 66.261719 184.359375 66.039062 184.171875 65.726562 C 183.996094 65.421875 183.90625 65.09375 183.90625 64.742188 C 183.90625 64.179688 184.140625 63.683594 184.609375 63.257812 C 185.078125 62.828125 185.617188 62.617188 186.234375 62.617188 Z M 186.234375 63.617188 C 185.867188 63.617188 185.535156 63.75 185.234375 64.023438 C 184.941406 64.292969 184.796875 64.609375 184.796875 64.976562 C 184.796875 65.328125 184.929688 65.648438 185.203125 65.929688 C 185.472656 66.210938 185.707031 66.351562 185.90625 66.351562 L 187.453125 66.351562 C 187.867188 66.351562 188.207031 66.210938 188.46875 65.929688 C 188.726562 65.65625 188.859375 65.34375 188.859375 64.992188 C 188.859375 64.617188 188.710938 64.292969 188.421875 64.023438 C 188.140625 63.75 187.816406 63.617188 187.453125 63.617188 Z M 184.359375 68.917969 L 192.40625 68.917969 C 192.519531 68.917969 192.609375 68.957031 192.671875 69.042969 C 192.734375 69.136719 192.765625 69.246094 192.765625 69.371094 L 192.765625 73.636719 C 192.765625 73.75 192.722656 73.832031 192.640625 73.886719 C 192.554688 73.949219 192.453125 73.980469 192.328125 73.980469 C 192.203125 73.980469 192.09375 73.949219 192 73.886719 C 191.90625 73.824219 191.859375 73.738281 191.859375 73.636719 L 191.859375 69.917969 L 188.8125 69.917969 L 188.8125 71.792969 C 188.8125 71.894531 188.769531 71.980469 188.6875 72.042969 C 188.601562 72.105469 188.5 72.136719 188.375 72.136719 C 188.269531 72.136719 188.175781 72.105469 188.09375 72.042969 C 188.007812 71.988281 187.96875 71.90625 187.96875 71.792969 L 187.96875 69.917969 L 184.90625 69.917969 L 184.90625 73.636719 C 184.90625 73.738281 184.859375 73.824219 184.765625 73.886719 C 184.679688 73.949219 184.570312 73.980469 184.4375 73.980469 C 184.320312 73.980469 184.21875 73.949219 184.125 73.886719 C 184.039062 73.832031 184 73.75 184 73.636719 L 184 69.371094 C 184 69.246094 184.03125 69.136719 184.09375 69.042969 C 184.15625 68.957031 184.242188 68.917969 184.359375 68.917969 Z M 189.28125 74.367188 C 189.394531 74.367188 189.492188 74.433594 189.578125 74.570312 C 189.671875 74.714844 189.71875 74.859375 189.71875 75.007812 C 189.71875 75.171875 189.648438 75.28125 189.515625 75.335938 L 185.4375 76.851562 L 189.46875 78.351562 C 189.632812 78.414062 189.71875 78.523438 189.71875 78.679688 C 189.71875 78.804688 189.671875 78.9375 189.578125 79.085938 C 189.492188 79.242188 189.394531 79.320312 189.28125 79.320312 C 189.21875 79.320312 189.15625 79.304688 189.09375 79.273438 L 184.109375 77.304688 C 183.964844 77.242188 183.890625 77.089844 183.890625 76.851562 C 183.890625 76.601562 183.964844 76.445312 184.109375 76.382812 L 189.09375 74.414062 C 189.1875 74.382812 189.25 74.367188 189.28125 74.367188 Z M 186.234375 79.957031 L 187.484375 79.957031 C 188.109375 79.957031 188.644531 80.191406 189.09375 80.660156 C 189.539062 81.128906 189.765625 81.691406 189.765625 82.347656 C 189.765625 82.972656 189.550781 83.511719 189.125 83.972656 C 188.707031 84.429688 188.179688 84.660156 187.546875 84.660156 C 187.316406 84.660156 187.128906 84.628906 186.984375 84.566406 C 186.847656 84.511719 186.75 84.429688 186.6875 84.316406 C 186.632812 84.199219 186.597656 84.089844 186.578125 83.988281 C 186.566406 83.894531 186.5625 83.757812 186.5625 83.582031 L 186.5625 80.957031 L 186.203125 80.957031 C 185.753906 80.957031 185.398438 81.113281 185.140625 81.425781 C 184.878906 81.746094 184.75 82.160156 184.75 82.660156 C 184.75 82.929688 184.785156 83.160156 184.859375 83.347656 C 184.941406 83.542969 185.019531 83.699219 185.09375 83.816406 C 185.175781 83.941406 185.21875 84.039062 185.21875 84.113281 C 185.21875 84.226562 185.164062 84.320312 185.0625 84.394531 C 184.957031 84.476562 184.851562 84.519531 184.75 84.519531 C 184.570312 84.519531 184.382812 84.335938 184.1875 83.972656 C 184 83.605469 183.90625 83.160156 183.90625 82.628906 C 183.90625 81.847656 184.117188 81.207031 184.546875 80.707031 C 184.972656 80.207031 185.535156 79.957031 186.234375 79.957031 Z M 187.234375 80.957031 L 187.234375 83.175781 C 187.234375 83.382812 187.257812 83.523438 187.3125 83.597656 C 187.363281 83.667969 187.460938 83.707031 187.609375 83.707031 C 187.972656 83.707031 188.289062 83.570312 188.5625 83.300781 C 188.832031 83.039062 188.96875 82.722656 188.96875 82.347656 C 188.96875 81.960938 188.84375 81.632812 188.59375 81.363281 C 188.34375 81.089844 188.03125 80.957031 187.65625 80.957031 Z M 184.359375 85.753906 L 189.34375 85.753906 C 189.445312 85.753906 189.53125 85.800781 189.59375 85.894531 C 189.65625 85.988281 189.6875 86.105469 189.6875 86.253906 C 189.6875 86.378906 189.65625 86.480469 189.59375 86.566406 C 189.53125 86.660156 189.445312 86.707031 189.34375 86.707031 L 188.78125 86.707031 C 189.050781 86.851562 189.28125 87.066406 189.46875 87.347656 C 189.664062 87.628906 189.765625 87.941406 189.765625 88.285156 L 189.765625 88.691406 C 189.765625 88.792969 189.71875 88.882812 189.625 88.957031 C 189.53125 89.027344 189.421875 89.066406 189.296875 89.066406 C 189.179688 89.066406 189.078125 89.027344 188.984375 88.957031 C 188.898438 88.882812 188.859375 88.792969 188.859375 88.691406 L 188.859375 88.285156 C 188.859375 87.867188 188.691406 87.507812 188.359375 87.207031 C 188.035156 86.902344 187.613281 86.753906 187.09375 86.753906 L 184.359375 86.753906 C 184.273438 86.753906 184.191406 86.699219 184.109375 86.597656 C 184.035156 86.503906 184 86.386719 184 86.253906 C 184 86.117188 184.035156 85.996094 184.109375 85.894531 C 184.179688 85.800781 184.265625 85.753906 184.359375 85.753906 Z M 189.28125 89.320312 C 189.40625 89.320312 189.515625 89.390625 189.609375 89.539062 C 189.710938 89.683594 189.765625 89.828125 189.765625 89.976562 C 189.765625 90.140625 189.695312 90.246094 189.5625 90.289062 L 185.375 91.882812 L 189.5625 93.304688 C 189.695312 93.367188 189.765625 93.46875 189.765625 93.617188 C 189.765625 93.75 189.710938 93.890625 189.609375 94.039062 C 189.515625 94.195312 189.398438 94.273438 189.265625 94.273438 C 189.222656 94.273438 189.179688 94.257812 189.140625 94.226562 L 184.265625 92.414062 L 183.65625 92.179688 C 183.554688 92.136719 183.367188 92.054688 183.09375 91.929688 C 182.824219 91.8125 182.625 91.714844 182.5 91.632812 C 182.375 91.558594 182.21875 91.449219 182.03125 91.304688 C 181.835938 91.15625 181.695312 91.015625 181.609375 90.882812 C 181.515625 90.746094 181.433594 90.585938 181.359375 90.398438 C 181.289062 90.210938 181.25 90.011719 181.25 89.804688 C 181.25 89.492188 181.402344 89.335938 181.703125 89.335938 C 181.984375 89.335938 182.125 89.429688 182.125 89.617188 C 182.125 89.980469 182.328125 90.328125 182.734375 90.664062 C 183.140625 91.007812 183.65625 91.242188 184.28125 91.367188 L 189.140625 89.367188 C 189.191406 89.335938 189.238281 89.320312 189.28125 89.320312 Z M 184.09375 97.605469 L 192.875 97.605469 C 192.976562 97.605469 193.0625 97.652344 193.125 97.746094 C 193.1875 97.839844 193.21875 97.941406 193.21875 98.058594 L 193.21875 100.027344 C 193.21875 100.128906 193.171875 100.214844 193.078125 100.277344 C 192.992188 100.339844 192.890625 100.371094 192.765625 100.371094 C 192.640625 100.371094 192.53125 100.339844 192.4375 100.277344 C 192.351562 100.214844 192.3125 100.128906 192.3125 100.027344 L 192.3125 98.605469 L 184.640625 98.605469 L 184.640625 100.027344 C 184.640625 100.128906 184.597656 100.214844 184.515625 100.277344 C 184.429688 100.339844 184.320312 100.371094 184.1875 100.371094 C 184.070312 100.371094 183.976562 100.339844 183.890625 100.277344 C 183.796875 100.214844 183.75 100.128906 183.75 100.027344 L 183.75 98.058594 C 183.75 97.941406 183.78125 97.839844 183.84375 97.746094 C 183.90625 97.652344 183.992188 97.605469 184.09375 97.605469 Z M 185.96875 100.90625 C 186.15625 100.90625 186.28125 100.9375 186.34375 101 C 186.40625 101.070312 186.4375 101.195312 186.4375 101.375 C 186.4375 101.5625 186.40625 101.691406 186.34375 101.765625 C 186.28125 101.847656 186.179688 101.890625 186.046875 101.890625 C 185.734375 101.890625 185.453125 102.019531 185.203125 102.28125 C 184.960938 102.539062 184.84375 102.9375 184.84375 103.46875 C 184.84375 104.53125 185.394531 105.0625 186.5 105.0625 L 186.71875 105.0625 C 187.695312 105.0625 188.1875 104.53125 188.1875 103.46875 C 188.1875 103.226562 188.328125 103.109375 188.609375 103.109375 C 188.890625 103.109375 189.03125 103.226562 189.03125 103.46875 C 189.03125 103.925781 189.132812 104.269531 189.34375 104.5 C 189.550781 104.738281 189.925781 104.859375 190.46875 104.859375 C 191.40625 104.859375 191.875 104.410156 191.875 103.515625 C 191.875 102.992188 191.757812 102.628906 191.53125 102.421875 C 191.300781 102.210938 191.03125 102.109375 190.71875 102.109375 C 190.425781 102.109375 190.28125 101.945312 190.28125 101.625 C 190.28125 101.40625 190.3125 101.257812 190.375 101.1875 C 190.445312 101.125 190.582031 101.09375 190.78125 101.09375 C 190.988281 101.09375 191.195312 101.128906 191.40625 101.203125 C 191.625 101.285156 191.835938 101.410156 192.046875 101.578125 C 192.253906 101.742188 192.425781 101.992188 192.5625 102.328125 C 192.695312 102.671875 192.765625 103.070312 192.765625 103.53125 C 192.765625 105.0625 192.054688 105.828125 190.640625 105.828125 C 190.140625 105.828125 189.710938 105.738281 189.359375 105.5625 C 189.015625 105.382812 188.769531 105.148438 188.625 104.859375 C 188.300781 105.671875 187.664062 106.078125 186.71875 106.078125 L 186.5 106.078125 C 185.613281 106.078125 184.960938 105.835938 184.546875 105.359375 C 184.128906 104.878906 183.921875 104.25 183.921875 103.46875 C 183.921875 102.632812 184.128906 102 184.546875 101.5625 C 184.972656 101.125 185.445312 100.90625 185.96875 100.90625 Z M 184.546875 106.992188 C 184.722656 106.992188 184.875 107.046875 185 107.164062 C 185.125 107.277344 185.1875 107.421875 185.1875 107.601562 C 185.1875 107.765625 185.125 107.914062 185 108.039062 C 184.882812 108.164062 184.734375 108.226562 184.546875 108.226562 C 184.410156 108.226562 183.929688 108.054688 183.09375 107.710938 C 182.992188 107.65625 182.9375 107.570312 182.9375 107.445312 C 182.9375 107.351562 182.964844 107.265625 183.015625 107.195312 C 183.070312 107.132812 183.136719 107.101562 183.21875 107.101562 C 183.273438 107.101562 183.320312 107.105469 183.359375 107.117188 L 183.96875 107.367188 C 184.070312 107.117188 184.265625 106.992188 184.546875 106.992188 Z M 186 108.964844 C 186.320312 108.964844 186.484375 109.128906 186.484375 109.464844 C 186.484375 109.808594 186.347656 109.980469 186.078125 109.980469 C 185.691406 109.980469 185.390625 110.125 185.171875 110.417969 C 184.953125 110.71875 184.84375 111.09375 184.84375 111.542969 C 184.84375 112.050781 184.984375 112.441406 185.265625 112.714844 C 185.546875 112.996094 185.960938 113.136719 186.515625 113.136719 L 186.75 113.136719 C 187.289062 113.136719 187.695312 112.996094 187.96875 112.714844 C 188.25 112.441406 188.390625 112.058594 188.390625 111.558594 L 188.390625 109.855469 C 188.390625 109.542969 188.519531 109.386719 188.78125 109.386719 C 188.863281 109.386719 188.953125 109.394531 189.046875 109.417969 L 192.40625 109.667969 C 192.644531 109.675781 192.765625 109.765625 192.765625 109.933594 L 192.765625 113.386719 C 192.765625 113.488281 192.71875 113.566406 192.625 113.621094 C 192.539062 113.683594 192.4375 113.714844 192.3125 113.714844 C 192.195312 113.714844 192.09375 113.683594 192 113.621094 C 191.90625 113.566406 191.859375 113.488281 191.859375 113.386719 L 191.859375 110.542969 L 189.234375 110.355469 L 189.234375 111.558594 C 189.234375 112.339844 189.03125 112.964844 188.625 113.433594 C 188.226562 113.902344 187.601562 114.136719 186.75 114.136719 L 186.515625 114.136719 C 185.628906 114.136719 184.972656 113.902344 184.546875 113.433594 C 184.128906 112.964844 183.921875 112.339844 183.921875 111.558594 C 183.921875 110.753906 184.125 110.121094 184.53125 109.652344 C 184.9375 109.191406 185.425781 108.964844 186 108.964844 Z M 184.1875 114.707031 C 184.320312 114.707031 184.429688 114.738281 184.515625 114.800781 C 184.597656 114.863281 184.640625 114.945312 184.640625 115.050781 L 184.640625 116.472656 L 192.3125 116.472656 L 192.3125 115.050781 C 192.3125 114.945312 192.351562 114.863281 192.4375 114.800781 C 192.53125 114.738281 192.640625 114.707031 192.765625 114.707031 C 192.890625 114.707031 192.992188 114.738281 193.078125 114.800781 C 193.171875 114.863281 193.21875 114.945312 193.21875 115.050781 L 193.21875 117.019531 C 193.21875 117.144531 193.1875 117.246094 193.125 117.332031 C 193.0625 117.425781 192.976562 117.472656 192.875 117.472656 L 184.09375 117.472656 C 183.992188 117.472656 183.90625 117.425781 183.84375 117.332031 C 183.78125 117.246094 183.75 117.144531 183.75 117.019531 L 183.75 115.050781 C 183.75 114.945312 183.796875 114.863281 183.890625 114.800781 C 183.976562 114.738281 184.070312 114.707031 184.1875 114.707031 Z M 185.859375 121.34375 L 190.953125 121.34375 C 191.578125 121.34375 192.109375 121.570312 192.546875 122.03125 C 192.992188 122.5 193.21875 123.046875 193.21875 123.671875 C 193.21875 123.992188 193.066406 124.15625 192.765625 124.15625 C 192.628906 124.15625 192.519531 124.125 192.4375 124.0625 C 192.351562 124 192.3125 123.914062 192.3125 123.8125 C 192.3125 123.375 192.171875 123.019531 191.890625 122.75 C 191.617188 122.476562 191.304688 122.34375 190.953125 122.34375 L 185.859375 122.34375 C 185.421875 122.34375 185.109375 122.488281 184.921875 122.78125 C 184.742188 123.070312 184.65625 123.414062 184.65625 123.8125 C 184.65625 124.039062 184.503906 124.15625 184.203125 124.15625 C 183.914062 124.15625 183.765625 123.984375 183.765625 123.640625 C 183.765625 122.992188 183.949219 122.445312 184.3125 122 C 184.675781 121.5625 185.191406 121.34375 185.859375 121.34375 Z M 184.8125 124.734375 C 184.914062 124.734375 185.015625 124.765625 185.109375 124.828125 C 185.210938 124.898438 185.265625 124.984375 185.265625 125.078125 C 185.265625 125.140625 185.21875 125.226562 185.125 125.34375 C 185.03125 125.46875 184.9375 125.644531 184.84375 125.875 C 184.75 126.101562 184.703125 126.367188 184.703125 126.671875 C 184.703125 127.066406 184.773438 127.351562 184.921875 127.53125 C 185.066406 127.71875 185.25 127.8125 185.46875 127.8125 C 185.726562 127.8125 185.9375 127.707031 186.09375 127.5 C 186.25 127.300781 186.363281 127.054688 186.4375 126.765625 C 186.519531 126.484375 186.609375 126.195312 186.703125 125.90625 C 186.804688 125.625 186.96875 125.378906 187.1875 125.171875 C 187.414062 124.972656 187.710938 124.875 188.078125 124.875 C 188.535156 124.875 188.929688 125.035156 189.265625 125.359375 C 189.597656 125.679688 189.765625 126.175781 189.765625 126.84375 C 189.765625 127.269531 189.695312 127.65625 189.5625 128 C 189.425781 128.351562 189.273438 128.53125 189.109375 128.53125 C 189.015625 128.53125 188.90625 128.492188 188.78125 128.421875 C 188.664062 128.347656 188.609375 128.253906 188.609375 128.140625 C 188.609375 128.109375 188.664062 127.953125 188.78125 127.671875 C 188.894531 127.398438 188.953125 127.128906 188.953125 126.859375 C 188.953125 126.492188 188.863281 126.21875 188.6875 126.03125 C 188.519531 125.851562 188.328125 125.765625 188.109375 125.765625 C 187.890625 125.765625 187.710938 125.863281 187.578125 126.0625 C 187.453125 126.257812 187.351562 126.503906 187.28125 126.796875 C 187.21875 127.097656 187.132812 127.390625 187.03125 127.671875 C 186.925781 127.960938 186.742188 128.207031 186.484375 128.40625 C 186.234375 128.601562 185.910156 128.703125 185.515625 128.703125 C 185.015625 128.703125 184.617188 128.523438 184.328125 128.171875 C 184.046875 127.828125 183.90625 127.335938 183.90625 126.703125 C 183.90625 126.160156 184 125.695312 184.1875 125.3125 C 184.382812 124.925781 184.59375 124.734375 184.8125 124.734375 Z M 184.359375 129.894531 L 192.765625 129.894531 C 192.867188 129.894531 192.953125 129.941406 193.015625 130.035156 C 193.085938 130.128906 193.125 130.246094 193.125 130.394531 C 193.125 130.539062 193.085938 130.660156 193.015625 130.753906 C 192.953125 130.847656 192.867188 130.894531 192.765625 130.894531 L 184.359375 130.894531 C 184.273438 130.894531 184.191406 130.839844 184.109375 130.738281 C 184.035156 130.644531 184 130.527344 184 130.394531 C 184 130.257812 184.035156 130.136719 184.109375 130.035156 C 184.179688 129.941406 184.265625 129.894531 184.359375 129.894531 Z M 186.234375 132.191406 L 187.453125 132.191406 C 188.066406 132.191406 188.601562 132.425781 189.0625 132.894531 C 189.53125 133.363281 189.765625 133.914062 189.765625 134.550781 C 189.765625 135.195312 189.535156 135.753906 189.078125 136.222656 C 188.617188 136.699219 188.078125 136.941406 187.453125 136.941406 L 186.234375 136.941406 C 185.617188 136.941406 185.078125 136.699219 184.609375 136.222656 C 184.140625 135.742188 183.90625 135.183594 183.90625 134.550781 C 183.90625 133.925781 184.140625 133.371094 184.609375 132.894531 C 185.078125 132.425781 185.617188 132.191406 186.234375 132.191406 Z M 186.234375 133.191406 C 185.859375 133.191406 185.523438 133.324219 185.234375 133.597656 C 184.941406 133.867188 184.796875 134.191406 184.796875 134.566406 C 184.796875 134.941406 184.941406 135.261719 185.234375 135.535156 C 185.535156 135.804688 185.867188 135.941406 186.234375 135.941406 L 187.453125 135.941406 C 187.816406 135.941406 188.140625 135.804688 188.421875 135.535156 C 188.710938 135.261719 188.859375 134.941406 188.859375 134.566406 C 188.859375 134.191406 188.710938 133.867188 188.421875 133.597656 C 188.140625 133.324219 187.816406 133.191406 187.453125 133.191406 Z M 189.28125 137.605469 C 189.394531 137.605469 189.492188 137.667969 189.578125 137.792969 C 189.671875 137.925781 189.71875 138.066406 189.71875 138.214844 C 189.71875 138.378906 189.648438 138.488281 189.515625 138.542969 L 185.484375 139.996094 L 189.125 141.121094 C 189.28125 141.171875 189.359375 141.296875 189.359375 141.496094 C 189.359375 141.691406 189.28125 141.816406 189.125 141.871094 L 185.453125 142.980469 L 189.515625 144.449219 C 189.648438 144.480469 189.71875 144.578125 189.71875 144.746094 C 189.71875 144.890625 189.671875 145.03125 189.578125 145.167969 C 189.492188 145.300781 189.394531 145.371094 189.28125 145.371094 C 189.21875 145.371094 189.15625 145.355469 189.09375 145.324219 L 184.109375 143.464844 C 183.964844 143.402344 183.890625 143.265625 183.890625 143.058594 C 183.890625 142.839844 183.964844 142.703125 184.109375 142.652344 L 187.640625 141.496094 L 184.140625 140.355469 C 183.976562 140.292969 183.890625 140.144531 183.890625 139.917969 C 183.890625 139.707031 183.976562 139.574219 184.140625 139.511719 L 189.09375 137.652344 C 189.1875 137.621094 189.25 137.605469 189.28125 137.605469 Z M 184.359375 148.324219 L 185.53125 148.324219 C 185.882812 148.324219 186.234375 148.457031 186.578125 148.730469 C 186.929688 149.011719 187.25 149.34375 187.53125 149.730469 L 188.390625 150.902344 C 188.671875 151.285156 188.984375 151.613281 189.328125 151.886719 C 189.679688 152.167969 190.035156 152.308594 190.390625 152.308594 C 190.773438 152.308594 191.113281 152.183594 191.40625 151.933594 C 191.695312 151.683594 191.84375 151.324219 191.84375 150.855469 C 191.84375 150.449219 191.726562 150.121094 191.5 149.871094 C 191.269531 149.621094 190.945312 149.496094 190.53125 149.496094 C 190.425781 149.496094 190.332031 149.441406 190.25 149.339844 C 190.164062 149.246094 190.125 149.121094 190.125 148.964844 C 190.125 148.660156 190.320312 148.511719 190.71875 148.511719 C 191.320312 148.511719 191.8125 148.734375 192.1875 149.183594 C 192.570312 149.640625 192.765625 150.199219 192.765625 150.855469 C 192.765625 151.550781 192.539062 152.136719 192.09375 152.605469 C 191.65625 153.082031 191.101562 153.324219 190.4375 153.324219 C 190.03125 153.324219 189.644531 153.222656 189.28125 153.027344 C 188.914062 152.828125 188.601562 152.582031 188.34375 152.292969 C 188.082031 152 187.828125 151.683594 187.578125 151.339844 L 186.890625 150.386719 C 186.691406 150.09375 186.472656 149.847656 186.234375 149.652344 C 185.992188 149.453125 185.757812 149.355469 185.53125 149.355469 L 184.90625 149.355469 L 184.90625 153.042969 C 184.90625 153.136719 184.859375 153.214844 184.765625 153.277344 C 184.679688 153.347656 184.578125 153.386719 184.453125 153.386719 C 184.335938 153.386719 184.234375 153.347656 184.140625 153.277344 C 184.046875 153.214844 184 153.136719 184 153.042969 L 184 148.777344 C 184 148.671875 184.03125 148.566406 184.09375 148.464844 C 184.164062 148.371094 184.253906 148.324219 184.359375 148.324219 Z M 184.203125 153.960938 C 184.503906 153.960938 184.65625 154.074219 184.65625 154.304688 C 184.65625 154.699219 184.742188 155.042969 184.921875 155.335938 C 185.109375 155.625 185.421875 155.773438 185.859375 155.773438 L 190.953125 155.773438 C 191.304688 155.773438 191.617188 155.636719 191.890625 155.367188 C 192.171875 155.09375 192.3125 154.742188 192.3125 154.304688 C 192.3125 154.199219 192.351562 154.117188 192.4375 154.054688 C 192.519531 153.992188 192.628906 153.960938 192.765625 153.960938 C 193.066406 153.960938 193.21875 154.121094 193.21875 154.445312 C 193.21875 155.070312 192.992188 155.609375 192.546875 156.070312 C 192.109375 156.539062 191.578125 156.773438 190.953125 156.773438 L 185.859375 156.773438 C 185.191406 156.773438 184.675781 156.546875 184.3125 156.101562 C 183.949219 155.664062 183.765625 155.117188 183.765625 154.460938 C 183.765625 154.125 183.914062 153.960938 184.203125 153.960938 Z M 185.375 160.28125 C 185.507812 160.28125 185.632812 160.328125 185.75 160.421875 C 185.875 160.515625 185.9375 160.613281 185.9375 160.71875 C 185.9375 160.78125 185.882812 160.867188 185.78125 160.984375 C 185.6875 161.097656 185.582031 161.210938 185.46875 161.328125 C 185.351562 161.441406 185.242188 161.625 185.140625 161.875 C 185.046875 162.125 184.988281 162.40625 184.96875 162.71875 L 188.15625 162.71875 L 188.40625 162.0625 C 188.457031 161.914062 188.550781 161.722656 188.6875 161.484375 C 188.820312 161.242188 188.957031 161.066406 189.09375 160.953125 C 189.238281 160.835938 189.429688 160.734375 189.671875 160.640625 C 189.910156 160.546875 190.175781 160.5 190.46875 160.5 C 190.832031 160.5 191.148438 160.5625 191.421875 160.6875 C 191.703125 160.8125 191.921875 160.984375 192.078125 161.203125 C 192.234375 161.429688 192.351562 161.664062 192.4375 161.90625 C 192.519531 162.15625 192.578125 162.425781 192.609375 162.71875 L 192.96875 162.71875 C 193.03125 162.71875 193.085938 162.742188 193.140625 162.796875 C 193.191406 162.859375 193.21875 162.9375 193.21875 163.03125 C 193.21875 163.101562 193.191406 163.171875 193.140625 163.234375 C 193.085938 163.304688 193.03125 163.34375 192.96875 163.34375 L 192.625 163.34375 C 192.601562 163.820312 192.519531 164.253906 192.375 164.640625 C 192.238281 165.035156 192.0625 165.234375 191.84375 165.234375 C 191.726562 165.234375 191.601562 165.191406 191.46875 165.109375 C 191.34375 165.035156 191.28125 164.929688 191.28125 164.796875 C 191.28125 164.765625 191.347656 164.597656 191.484375 164.296875 C 191.628906 164.003906 191.710938 163.6875 191.734375 163.34375 L 188.984375 163.34375 C 188.878906 163.65625 188.769531 163.910156 188.65625 164.109375 C 188.550781 164.316406 188.40625 164.535156 188.21875 164.765625 C 188.03125 164.992188 187.789062 165.164062 187.5 165.28125 C 187.207031 165.394531 186.863281 165.453125 186.46875 165.453125 C 185.769531 165.453125 185.210938 165.257812 184.796875 164.875 C 184.390625 164.5 184.144531 163.988281 184.0625 163.34375 L 183.625 163.34375 C 183.5625 163.34375 183.507812 163.304688 183.453125 163.234375 C 183.402344 163.171875 183.375 163.101562 183.375 163.03125 C 183.375 162.9375 183.402344 162.859375 183.453125 162.796875 C 183.507812 162.742188 183.5625 162.71875 183.625 162.71875 L 184.03125 162.71875 C 184.03125 162.03125 184.179688 161.453125 184.484375 160.984375 C 184.796875 160.515625 185.09375 160.28125 185.375 160.28125 Z M 190.5625 161.453125 C 190.1875 161.453125 189.90625 161.5625 189.71875 161.78125 C 189.53125 162 189.359375 162.328125 189.203125 162.765625 L 191.71875 162.765625 C 191.625 161.890625 191.238281 161.453125 190.5625 161.453125 Z M 185 163.296875 C 185.125 164.085938 185.582031 164.484375 186.375 164.484375 C 186.789062 164.484375 187.113281 164.378906 187.34375 164.171875 C 187.582031 163.972656 187.78125 163.679688 187.9375 163.296875 Z M 186.234375 168.816406 L 187.453125 168.816406 C 188.085938 168.816406 188.628906 169.027344 189.078125 169.457031 C 189.535156 169.882812 189.765625 170.386719 189.765625 170.972656 C 189.765625 171.335938 189.675781 171.652344 189.5 171.925781 C 189.320312 172.195312 189.101562 172.402344 188.84375 172.550781 L 192.765625 172.550781 C 192.867188 172.550781 192.953125 172.597656 193.015625 172.691406 C 193.085938 172.785156 193.125 172.902344 193.125 173.050781 C 193.125 173.195312 193.085938 173.308594 193.015625 173.394531 C 192.953125 173.488281 192.867188 173.535156 192.765625 173.535156 L 184.359375 173.535156 C 184.265625 173.535156 184.179688 173.488281 184.109375 173.394531 C 184.035156 173.300781 184 173.183594 184 173.050781 C 184 172.925781 184.035156 172.816406 184.109375 172.722656 C 184.179688 172.636719 184.265625 172.597656 184.359375 172.597656 L 184.84375 172.597656 C 184.582031 172.460938 184.359375 172.238281 184.171875 171.925781 C 183.996094 171.621094 183.90625 171.292969 183.90625 170.941406 C 183.90625 170.378906 184.140625 169.882812 184.609375 169.457031 C 185.078125 169.027344 185.617188 168.816406 186.234375 168.816406 Z M 186.234375 169.816406 C 185.867188 169.816406 185.535156 169.949219 185.234375 170.222656 C 184.941406 170.492188 184.796875 170.808594 184.796875 171.175781 C 184.796875 171.527344 184.929688 171.847656 185.203125 172.128906 C 185.472656 172.410156 185.707031 172.550781 185.90625 172.550781 L 187.453125 172.550781 C 187.867188 172.550781 188.207031 172.410156 188.46875 172.128906 C 188.726562 171.855469 188.859375 171.542969 188.859375 171.191406 C 188.859375 170.816406 188.710938 170.492188 188.421875 170.222656 C 188.140625 169.949219 187.816406 169.816406 187.453125 169.816406 Z M 186.234375 174.746094 L 187.484375 174.746094 C 188.109375 174.746094 188.644531 174.980469 189.09375 175.449219 C 189.539062 175.917969 189.765625 176.480469 189.765625 177.136719 C 189.765625 177.761719 189.550781 178.300781 189.125 178.761719 C 188.707031 179.21875 188.179688 179.449219 187.546875 179.449219 C 187.316406 179.449219 187.128906 179.417969 186.984375 179.355469 C 186.847656 179.300781 186.75 179.21875 186.6875 179.105469 C 186.632812 178.988281 186.597656 178.878906 186.578125 178.777344 C 186.566406 178.683594 186.5625 178.546875 186.5625 178.371094 L 186.5625 175.746094 L 186.203125 175.746094 C 185.753906 175.746094 185.398438 175.902344 185.140625 176.214844 C 184.878906 176.535156 184.75 176.949219 184.75 177.449219 C 184.75 177.71875 184.785156 177.949219 184.859375 178.136719 C 184.941406 178.332031 185.019531 178.488281 185.09375 178.605469 C 185.175781 178.730469 185.21875 178.828125 185.21875 178.902344 C 185.21875 179.015625 185.164062 179.109375 185.0625 179.183594 C 184.957031 179.265625 184.851562 179.308594 184.75 179.308594 C 184.570312 179.308594 184.382812 179.125 184.1875 178.761719 C 184 178.394531 183.90625 177.949219 183.90625 177.417969 C 183.90625 176.636719 184.117188 175.996094 184.546875 175.496094 C 184.972656 174.996094 185.535156 174.746094 186.234375 174.746094 Z M 187.234375 175.746094 L 187.234375 177.964844 C 187.234375 178.171875 187.257812 178.3125 187.3125 178.386719 C 187.363281 178.457031 187.460938 178.496094 187.609375 178.496094 C 187.972656 178.496094 188.289062 178.359375 188.5625 178.089844 C 188.832031 177.828125 188.96875 177.511719 188.96875 177.136719 C 188.96875 176.75 188.84375 176.421875 188.59375 176.152344 C 188.34375 175.878906 188.03125 175.746094 187.65625 175.746094 Z M 184.359375 180.542969 L 189.34375 180.542969 C 189.445312 180.542969 189.53125 180.589844 189.59375 180.683594 C 189.65625 180.777344 189.6875 180.894531 189.6875 181.042969 C 189.6875 181.15625 189.648438 181.261719 189.578125 181.355469 C 189.515625 181.449219 189.4375 181.496094 189.34375 181.496094 L 188.84375 181.496094 C 189.101562 181.621094 189.320312 181.824219 189.5 182.105469 C 189.675781 182.394531 189.765625 182.730469 189.765625 183.105469 C 189.765625 183.667969 189.535156 184.15625 189.078125 184.574219 C 188.628906 185 188.085938 185.214844 187.453125 185.214844 L 184.359375 185.214844 C 184.242188 185.214844 184.15625 185.160156 184.09375 185.058594 C 184.03125 184.964844 184 184.847656 184 184.714844 C 184 184.589844 184.03125 184.472656 184.09375 184.371094 C 184.15625 184.265625 184.242188 184.214844 184.359375 184.214844 L 187.453125 184.214844 C 187.816406 184.214844 188.140625 184.078125 188.421875 183.808594 C 188.710938 183.535156 188.859375 183.21875 188.859375 182.855469 C 188.859375 182.511719 188.726562 182.203125 188.46875 181.933594 C 188.207031 181.671875 187.867188 181.542969 187.453125 181.542969 L 184.359375 181.542969 C 184.273438 181.542969 184.191406 181.488281 184.109375 181.386719 C 184.035156 181.28125 184 181.167969 184 181.042969 C 184 180.90625 184.035156 180.785156 184.109375 180.683594 C 184.179688 180.589844 184.265625 180.542969 184.359375 180.542969 Z M 184.8125 186.238281 C 184.914062 186.238281 185.015625 186.269531 185.109375 186.332031 C 185.210938 186.402344 185.265625 186.488281 185.265625 186.582031 C 185.265625 186.644531 185.21875 186.730469 185.125 186.847656 C 185.03125 186.972656 184.9375 187.148438 184.84375 187.378906 C 184.75 187.605469 184.703125 187.871094 184.703125 188.175781 C 184.703125 188.570312 184.773438 188.855469 184.921875 189.035156 C 185.066406 189.222656 185.25 189.316406 185.46875 189.316406 C 185.726562 189.316406 185.9375 189.210938 186.09375 189.003906 C 186.25 188.804688 186.363281 188.558594 186.4375 188.269531 C 186.519531 187.988281 186.609375 187.699219 186.703125 187.410156 C 186.804688 187.128906 186.96875 186.882812 187.1875 186.675781 C 187.414062 186.476562 187.710938 186.378906 188.078125 186.378906 C 188.535156 186.378906 188.929688 186.539062 189.265625 186.863281 C 189.597656 187.183594 189.765625 187.679688 189.765625 188.347656 C 189.765625 188.773438 189.695312 189.160156 189.5625 189.503906 C 189.425781 189.855469 189.273438 190.035156 189.109375 190.035156 C 189.015625 190.035156 188.90625 189.996094 188.78125 189.925781 C 188.664062 189.851562 188.609375 189.757812 188.609375 189.644531 C 188.609375 189.613281 188.664062 189.457031 188.78125 189.175781 C 188.894531 188.902344 188.953125 188.632812 188.953125 188.363281 C 188.953125 187.996094 188.863281 187.722656 188.6875 187.535156 C 188.519531 187.355469 188.328125 187.269531 188.109375 187.269531 C 187.890625 187.269531 187.710938 187.367188 187.578125 187.566406 C 187.453125 187.761719 187.351562 188.007812 187.28125 188.300781 C 187.21875 188.601562 187.132812 188.894531 187.03125 189.175781 C 186.925781 189.464844 186.742188 189.710938 186.484375 189.910156 C 186.234375 190.105469 185.910156 190.207031 185.515625 190.207031 C 185.015625 190.207031 184.617188 190.027344 184.328125 189.675781 C 184.046875 189.332031 183.90625 188.839844 183.90625 188.207031 C 183.90625 187.664062 184 187.199219 184.1875 186.816406 C 184.382812 186.429688 184.59375 186.238281 184.8125 186.238281 Z M 191.421875 191.347656 C 191.535156 191.222656 191.664062 191.160156 191.8125 191.160156 C 191.96875 191.160156 192.101562 191.214844 192.21875 191.332031 C 192.332031 191.457031 192.390625 191.605469 192.390625 191.785156 C 192.390625 191.949219 192.332031 192.089844 192.21875 192.207031 C 192.101562 192.332031 191.96875 192.394531 191.8125 192.394531 C 191.664062 192.394531 191.535156 192.332031 191.421875 192.207031 C 191.304688 192.089844 191.25 191.949219 191.25 191.785156 C 191.25 191.617188 191.304688 191.472656 191.421875 191.347656 Z M 184.359375 191.285156 L 189.34375 191.285156 C 189.445312 191.285156 189.53125 191.332031 189.59375 191.425781 C 189.65625 191.527344 189.6875 191.648438 189.6875 191.785156 C 189.6875 191.929688 189.65625 192.050781 189.59375 192.144531 C 189.53125 192.238281 189.445312 192.285156 189.34375 192.285156 L 184.359375 192.285156 C 184.273438 192.285156 184.191406 192.230469 184.109375 192.128906 C 184.035156 192.035156 184 191.917969 184 191.785156 C 184 191.648438 184.035156 191.527344 184.109375 191.425781 C 184.179688 191.332031 184.265625 191.285156 184.359375 191.285156 Z M 185.8125 193.679688 L 191.984375 193.679688 C 192.085938 193.679688 192.171875 193.730469 192.234375 193.835938 C 192.304688 193.9375 192.34375 194.046875 192.34375 194.164062 C 192.34375 194.296875 192.304688 194.417969 192.234375 194.523438 C 192.171875 194.625 192.085938 194.679688 191.984375 194.679688 L 189.6875 194.679688 L 189.6875 196.179688 C 189.6875 196.273438 189.644531 196.34375 189.5625 196.398438 C 189.488281 196.449219 189.398438 196.476562 189.296875 196.476562 C 189.191406 196.476562 189.097656 196.449219 189.015625 196.398438 C 188.941406 196.34375 188.90625 196.273438 188.90625 196.179688 L 188.90625 194.679688 L 185.8125 194.679688 C 185.46875 194.679688 185.222656 194.75 185.078125 194.898438 C 184.941406 195.042969 184.875 195.296875 184.875 195.664062 L 184.875 196.039062 C 184.875 196.171875 184.832031 196.277344 184.75 196.351562 C 184.664062 196.433594 184.5625 196.476562 184.4375 196.476562 C 184.320312 196.476562 184.21875 196.433594 184.125 196.351562 C 184.039062 196.265625 184 196.164062 184 196.039062 L 184 195.664062 C 184 194.339844 184.601562 193.679688 185.8125 193.679688 Z M 189.28125 196.855469 C 189.40625 196.855469 189.515625 196.925781 189.609375 197.074219 C 189.710938 197.21875 189.765625 197.363281 189.765625 197.511719 C 189.765625 197.675781 189.695312 197.78125 189.5625 197.824219 L 185.375 199.417969 L 189.5625 200.839844 C 189.695312 200.902344 189.765625 201.003906 189.765625 201.152344 C 189.765625 201.285156 189.710938 201.425781 189.609375 201.574219 C 189.515625 201.730469 189.398438 201.808594 189.265625 201.808594 C 189.222656 201.808594 189.179688 201.792969 189.140625 201.761719 L 184.265625 199.949219 L 183.65625 199.714844 C 183.554688 199.671875 183.367188 199.589844 183.09375 199.464844 C 182.824219 199.347656 182.625 199.25 182.5 199.167969 C 182.375 199.09375 182.21875 198.984375 182.03125 198.839844 C 181.835938 198.691406 181.695312 198.550781 181.609375 198.417969 C 181.515625 198.28125 181.433594 198.121094 181.359375 197.933594 C 181.289062 197.746094 181.25 197.546875 181.25 197.339844 C 181.25 197.027344 181.402344 196.871094 181.703125 196.871094 C 181.984375 196.871094 182.125 196.964844 182.125 197.152344 C 182.125 197.515625 182.328125 197.863281 182.734375 198.199219 C 183.140625 198.542969 183.65625 198.777344 184.28125 198.902344 L 189.140625 196.902344 C 189.191406 196.871094 189.238281 196.855469 189.28125 196.855469 Z M 190.90625 204.464844 C 191.070312 204.464844 191.207031 204.535156 191.3125 204.683594 L 192.625 205.777344 C 192.726562 205.878906 192.78125 205.984375 192.78125 206.089844 C 192.78125 206.203125 192.75 206.308594 192.6875 206.402344 C 192.625 206.496094 192.535156 206.542969 192.421875 206.542969 L 184.359375 206.542969 C 184.242188 206.542969 184.15625 206.488281 184.09375 206.386719 C 184.03125 206.292969 184 206.171875 184 206.027344 C 184 205.890625 184.03125 205.769531 184.09375 205.667969 C 184.15625 205.574219 184.242188 205.527344 184.359375 205.527344 L 191.265625 205.527344 L 190.609375 205.089844 C 190.523438 205.003906 190.484375 204.921875 190.484375 204.839844 C 190.484375 204.734375 190.523438 204.644531 190.609375 204.574219 C 190.691406 204.5 190.789062 204.464844 190.90625 204.464844 Z M 186.546875 207.988281 L 190.15625 207.988281 C 191.0625 207.988281 191.722656 208.226562 192.140625 208.707031 C 192.554688 209.183594 192.765625 209.820312 192.765625 210.613281 C 192.765625 211.414062 192.554688 212.039062 192.140625 212.488281 C 191.734375 212.933594 191.25 213.160156 190.6875 213.160156 C 190.382812 213.160156 190.234375 213.003906 190.234375 212.691406 C 190.234375 212.347656 190.367188 212.175781 190.640625 212.175781 C 191.003906 212.175781 191.296875 212.023438 191.515625 211.722656 C 191.742188 211.417969 191.859375 211.042969 191.859375 210.597656 C 191.859375 209.535156 191.289062 209.003906 190.15625 209.003906 L 188.46875 209.003906 C 188.96875 209.386719 189.21875 209.972656 189.21875 210.753906 C 189.21875 212.355469 188.410156 213.160156 186.796875 213.160156 L 186.546875 213.160156 C 185.640625 213.160156 184.972656 212.925781 184.546875 212.457031 C 184.128906 211.988281 183.921875 211.363281 183.921875 210.582031 C 183.921875 209.800781 184.128906 209.167969 184.546875 208.691406 C 184.972656 208.222656 185.640625 207.988281 186.546875 207.988281 Z M 186.5 209.003906 C 185.363281 209.003906 184.796875 209.527344 184.796875 210.582031 C 184.796875 211.632812 185.363281 212.160156 186.5 212.160156 L 186.75 212.160156 C 187.832031 212.160156 188.375 211.632812 188.375 210.582031 C 188.375 209.527344 187.867188 209.003906 186.859375 209.003906 Z M 185.375 216.46875 C 185.507812 216.46875 185.632812 216.515625 185.75 216.609375 C 185.875 216.703125 185.9375 216.800781 185.9375 216.90625 C 185.9375 216.96875 185.882812 217.054688 185.78125 217.171875 C 185.6875 217.285156 185.582031 217.398438 185.46875 217.515625 C 185.351562 217.628906 185.242188 217.8125 185.140625 218.0625 C 185.046875 218.3125 184.988281 218.59375 184.96875 218.90625 L 188.15625 218.90625 L 188.40625 218.25 C 188.457031 218.101562 188.550781 217.910156 188.6875 217.671875 C 188.820312 217.429688 188.957031 217.253906 189.09375 217.140625 C 189.238281 217.023438 189.429688 216.921875 189.671875 216.828125 C 189.910156 216.734375 190.175781 216.6875 190.46875 216.6875 C 190.832031 216.6875 191.148438 216.75 191.421875 216.875 C 191.703125 217 191.921875 217.171875 192.078125 217.390625 C 192.234375 217.617188 192.351562 217.851562 192.4375 218.09375 C 192.519531 218.34375 192.578125 218.613281 192.609375 218.90625 L 192.96875 218.90625 C 193.03125 218.90625 193.085938 218.929688 193.140625 218.984375 C 193.191406 219.046875 193.21875 219.125 193.21875 219.21875 C 193.21875 219.289062 193.191406 219.359375 193.140625 219.421875 C 193.085938 219.492188 193.03125 219.53125 192.96875 219.53125 L 192.625 219.53125 C 192.601562 220.007812 192.519531 220.441406 192.375 220.828125 C 192.238281 221.222656 192.0625 221.421875 191.84375 221.421875 C 191.726562 221.421875 191.601562 221.378906 191.46875 221.296875 C 191.34375 221.222656 191.28125 221.117188 191.28125 220.984375 C 191.28125 220.953125 191.347656 220.785156 191.484375 220.484375 C 191.628906 220.191406 191.710938 219.875 191.734375 219.53125 L 188.984375 219.53125 C 188.878906 219.84375 188.769531 220.097656 188.65625 220.296875 C 188.550781 220.503906 188.40625 220.722656 188.21875 220.953125 C 188.03125 221.179688 187.789062 221.351562 187.5 221.46875 C 187.207031 221.582031 186.863281 221.640625 186.46875 221.640625 C 185.769531 221.640625 185.210938 221.445312 184.796875 221.0625 C 184.390625 220.6875 184.144531 220.175781 184.0625 219.53125 L 183.625 219.53125 C 183.5625 219.53125 183.507812 219.492188 183.453125 219.421875 C 183.402344 219.359375 183.375 219.289062 183.375 219.21875 C 183.375 219.125 183.402344 219.046875 183.453125 218.984375 C 183.507812 218.929688 183.5625 218.90625 183.625 218.90625 L 184.03125 218.90625 C 184.03125 218.21875 184.179688 217.640625 184.484375 217.171875 C 184.796875 216.703125 185.09375 216.46875 185.375 216.46875 Z M 190.5625 217.640625 C 190.1875 217.640625 189.90625 217.75 189.71875 217.96875 C 189.53125 218.1875 189.359375 218.515625 189.203125 218.953125 L 191.71875 218.953125 C 191.625 218.078125 191.238281 217.640625 190.5625 217.640625 Z M 185 219.484375 C 185.125 220.273438 185.582031 220.671875 186.375 220.671875 C 186.789062 220.671875 187.113281 220.566406 187.34375 220.359375 C 187.582031 220.160156 187.78125 219.867188 187.9375 219.484375 Z M 192.921875 224.9375 C 193.003906 224.9375 193.070312 224.976562 193.125 225.0625 C 193.1875 225.15625 193.21875 225.253906 193.21875 225.359375 C 193.21875 225.472656 193.1875 225.578125 193.125 225.671875 C 193.070312 225.765625 193.003906 225.8125 192.921875 225.8125 L 191.171875 225.6875 C 191.085938 225.6875 191.015625 225.660156 190.953125 225.609375 C 190.890625 225.554688 190.859375 225.476562 190.859375 225.375 C 190.859375 225.164062 190.960938 225.0625 191.171875 225.0625 Z M 192.921875 226.5625 C 193.003906 226.5625 193.070312 226.601562 193.125 226.6875 C 193.1875 226.78125 193.21875 226.882812 193.21875 227 C 193.21875 227.113281 193.1875 227.210938 193.125 227.296875 C 193.070312 227.390625 193.003906 227.4375 192.921875 227.4375 L 191.171875 227.328125 C 191.085938 227.328125 191.015625 227.296875 190.953125 227.234375 C 190.890625 227.179688 190.859375 227.101562 190.859375 227 C 190.859375 226.789062 190.960938 226.6875 191.171875 226.6875 Z M 182.875 228.132812 C 183.460938 228.132812 183.898438 228.453125 184.1875 229.101562 C 184.332031 228.695312 184.597656 228.492188 184.984375 228.492188 C 185.347656 228.492188 185.644531 228.6875 185.875 229.085938 C 186.238281 228.636719 186.742188 228.414062 187.390625 228.414062 L 187.78125 228.414062 C 188.363281 228.414062 188.835938 228.605469 189.203125 228.992188 C 189.578125 229.386719 189.765625 229.902344 189.765625 230.539062 C 189.765625 231.078125 189.609375 231.546875 189.296875 231.945312 C 189.816406 232.183594 190.078125 232.453125 190.078125 232.757812 C 190.078125 232.890625 190.035156 232.996094 189.953125 233.070312 C 189.878906 233.152344 189.796875 233.195312 189.703125 233.195312 C 189.578125 233.195312 189.484375 233.125 189.421875 232.992188 C 189.347656 232.71875 189.179688 232.5 188.921875 232.335938 C 188.617188 232.585938 188.238281 232.710938 187.78125 232.710938 L 187.390625 232.710938 C 186.804688 232.710938 186.328125 232.507812 185.953125 232.101562 C 185.578125 231.695312 185.390625 231.171875 185.390625 230.539062 C 185.390625 230.214844 185.453125 229.917969 185.578125 229.648438 C 185.453125 229.449219 185.3125 229.351562 185.15625 229.351562 C 185.007812 229.351562 184.894531 229.445312 184.8125 229.632812 C 184.726562 229.820312 184.675781 230.046875 184.65625 230.320312 C 184.632812 230.589844 184.59375 230.882812 184.53125 231.195312 C 184.476562 231.515625 184.40625 231.8125 184.3125 232.085938 C 184.226562 232.355469 184.078125 232.585938 183.859375 232.773438 C 183.632812 232.960938 183.34375 233.054688 183 233.054688 C 182.4375 233.054688 182.007812 232.824219 181.703125 232.367188 C 181.402344 231.917969 181.25 231.335938 181.25 230.617188 C 181.25 229.898438 181.398438 229.304688 181.6875 228.835938 C 181.980469 228.367188 182.375 228.132812 182.875 228.132812 Z M 182.984375 229.085938 C 182.671875 229.085938 182.421875 229.21875 182.234375 229.492188 C 182.046875 229.773438 181.953125 230.140625 181.953125 230.601562 C 181.953125 231.046875 182.046875 231.40625 182.234375 231.679688 C 182.421875 231.949219 182.671875 232.085938 182.984375 232.085938 C 183.109375 232.085938 183.21875 232.058594 183.3125 232.007812 C 183.40625 231.964844 183.492188 231.898438 183.5625 231.804688 C 183.625 231.710938 183.679688 231.609375 183.71875 231.507812 C 183.761719 231.414062 183.796875 231.289062 183.828125 231.132812 C 183.859375 230.984375 183.882812 230.859375 183.890625 230.757812 C 183.902344 230.664062 183.917969 230.53125 183.9375 230.367188 C 183.949219 230.199219 183.960938 230.085938 183.96875 230.023438 C 183.761719 229.398438 183.433594 229.085938 182.984375 229.085938 Z M 187.390625 229.382812 C 187.003906 229.382812 186.6875 229.484375 186.4375 229.695312 C 186.195312 229.902344 186.078125 230.195312 186.078125 230.570312 C 186.078125 230.921875 186.195312 231.203125 186.4375 231.414062 C 186.6875 231.632812 187.003906 231.742188 187.390625 231.742188 L 187.78125 231.742188 C 188.144531 231.742188 188.453125 231.632812 188.703125 231.414062 C 188.953125 231.203125 189.078125 230.917969 189.078125 230.554688 C 189.078125 230.1875 188.953125 229.902344 188.703125 229.695312 C 188.460938 229.484375 188.15625 229.382812 187.78125 229.382812 Z M 184.359375 234.050781 L 189.34375 234.050781 C 189.445312 234.050781 189.53125 234.097656 189.59375 234.191406 C 189.65625 234.285156 189.6875 234.402344 189.6875 234.550781 C 189.6875 234.675781 189.65625 234.777344 189.59375 234.863281 C 189.53125 234.957031 189.445312 235.003906 189.34375 235.003906 L 188.78125 235.003906 C 189.050781 235.148438 189.28125 235.363281 189.46875 235.644531 C 189.664062 235.925781 189.765625 236.238281 189.765625 236.582031 L 189.765625 236.988281 C 189.765625 237.089844 189.71875 237.179688 189.625 237.253906 C 189.53125 237.324219 189.421875 237.363281 189.296875 237.363281 C 189.179688 237.363281 189.078125 237.324219 188.984375 237.253906 C 188.898438 237.179688 188.859375 237.089844 188.859375 236.988281 L 188.859375 236.582031 C 188.859375 236.164062 188.691406 235.804688 188.359375 235.503906 C 188.035156 235.199219 187.613281 235.050781 187.09375 235.050781 L 184.359375 235.050781 C 184.273438 235.050781 184.191406 234.996094 184.109375 234.894531 C 184.035156 234.800781 184 234.683594 184 234.550781 C 184 234.414062 184.035156 234.292969 184.109375 234.191406 C 184.179688 234.097656 184.265625 234.050781 184.359375 234.050781 Z M 186.234375 237.960938 L 187.484375 237.960938 C 188.109375 237.960938 188.644531 238.195312 189.09375 238.664062 C 189.539062 239.132812 189.765625 239.695312 189.765625 240.351562 C 189.765625 240.976562 189.550781 241.515625 189.125 241.976562 C 188.707031 242.433594 188.179688 242.664062 187.546875 242.664062 C 187.316406 242.664062 187.128906 242.632812 186.984375 242.570312 C 186.847656 242.515625 186.75 242.433594 186.6875 242.320312 C 186.632812 242.203125 186.597656 242.09375 186.578125 241.992188 C 186.566406 241.898438 186.5625 241.761719 186.5625 241.585938 L 186.5625 238.960938 L 186.203125 238.960938 C 185.753906 238.960938 185.398438 239.117188 185.140625 239.429688 C 184.878906 239.75 184.75 240.164062 184.75 240.664062 C 184.75 240.933594 184.785156 241.164062 184.859375 241.351562 C 184.941406 241.546875 185.019531 241.703125 185.09375 241.820312 C 185.175781 241.945312 185.21875 242.042969 185.21875 242.117188 C 185.21875 242.230469 185.164062 242.324219 185.0625 242.398438 C 184.957031 242.480469 184.851562 242.523438 184.75 242.523438 C 184.570312 242.523438 184.382812 242.339844 184.1875 241.976562 C 184 241.609375 183.90625 241.164062 183.90625 240.632812 C 183.90625 239.851562 184.117188 239.210938 184.546875 238.710938 C 184.972656 238.210938 185.535156 237.960938 186.234375 237.960938 Z M 187.234375 238.960938 L 187.234375 241.179688 C 187.234375 241.386719 187.257812 241.527344 187.3125 241.601562 C 187.363281 241.671875 187.460938 241.710938 187.609375 241.710938 C 187.972656 241.710938 188.289062 241.574219 188.5625 241.304688 C 188.832031 241.042969 188.96875 240.726562 188.96875 240.351562 C 188.96875 239.964844 188.84375 239.636719 188.59375 239.367188 C 188.34375 239.09375 188.03125 238.960938 187.65625 238.960938 Z M 189.28125 243.199219 C 189.40625 243.199219 189.515625 243.269531 189.609375 243.417969 C 189.710938 243.5625 189.765625 243.707031 189.765625 243.855469 C 189.765625 244.019531 189.695312 244.125 189.5625 244.167969 L 185.375 245.761719 L 189.5625 247.183594 C 189.695312 247.246094 189.765625 247.347656 189.765625 247.496094 C 189.765625 247.628906 189.710938 247.769531 189.609375 247.917969 C 189.515625 248.074219 189.398438 248.152344 189.265625 248.152344 C 189.222656 248.152344 189.179688 248.136719 189.140625 248.105469 L 184.265625 246.292969 L 183.65625 246.058594 C 183.554688 246.015625 183.367188 245.933594 183.09375 245.808594 C 182.824219 245.691406 182.625 245.59375 182.5 245.511719 C 182.375 245.4375 182.21875 245.328125 182.03125 245.183594 C 181.835938 245.035156 181.695312 244.894531 181.609375 244.761719 C 181.515625 244.625 181.433594 244.464844 181.359375 244.277344 C 181.289062 244.089844 181.25 243.890625 181.25 243.683594 C 181.25 243.371094 181.402344 243.214844 181.703125 243.214844 C 181.984375 243.214844 182.125 243.308594 182.125 243.496094 C 182.125 243.859375 182.328125 244.207031 182.734375 244.542969 C 183.140625 244.886719 183.65625 245.121094 184.28125 245.246094 L 189.140625 243.246094 C 189.191406 243.214844 189.238281 243.199219 189.28125 243.199219 Z M 184.359375 251.421875 L 192.765625 251.421875 C 192.867188 251.421875 192.953125 251.46875 193.015625 251.5625 C 193.085938 251.65625 193.125 251.769531 193.125 251.90625 C 193.125 252.050781 193.085938 252.171875 193.015625 252.265625 C 192.953125 252.367188 192.867188 252.421875 192.765625 252.421875 L 188.84375 252.421875 C 189.101562 252.566406 189.320312 252.773438 189.5 253.046875 C 189.675781 253.316406 189.765625 253.628906 189.765625 253.984375 C 189.765625 254.566406 189.535156 255.070312 189.078125 255.5 C 188.628906 255.925781 188.085938 256.140625 187.453125 256.140625 L 186.234375 256.140625 C 185.617188 256.140625 185.078125 255.925781 184.609375 255.5 C 184.140625 255.070312 183.90625 254.582031 183.90625 254.03125 C 183.90625 253.664062 183.996094 253.332031 184.171875 253.03125 C 184.359375 252.726562 184.582031 252.507812 184.84375 252.375 L 184.359375 252.375 C 184.265625 252.375 184.179688 252.328125 184.109375 252.234375 C 184.035156 252.140625 184 252.035156 184 251.921875 C 184 251.785156 184.035156 251.664062 184.109375 251.5625 C 184.179688 251.46875 184.265625 251.421875 184.359375 251.421875 Z M 185.90625 252.421875 C 185.707031 252.421875 185.472656 252.5625 185.203125 252.84375 C 184.929688 253.125 184.796875 253.4375 184.796875 253.78125 C 184.796875 254.144531 184.941406 254.460938 185.234375 254.734375 C 185.535156 255.003906 185.867188 255.140625 186.234375 255.140625 L 187.453125 255.140625 C 187.816406 255.140625 188.140625 255.003906 188.421875 254.734375 C 188.710938 254.460938 188.859375 254.144531 188.859375 253.78125 C 188.859375 253.414062 188.726562 253.097656 188.46875 252.828125 C 188.207031 252.554688 187.867188 252.421875 187.453125 252.421875 Z M 184.359375 257.441406 L 192.765625 257.441406 C 192.867188 257.441406 192.953125 257.488281 193.015625 257.582031 C 193.085938 257.675781 193.125 257.792969 193.125 257.941406 C 193.125 258.085938 193.085938 258.207031 193.015625 258.300781 C 192.953125 258.394531 192.867188 258.441406 192.765625 258.441406 L 184.359375 258.441406 C 184.273438 258.441406 184.191406 258.386719 184.109375 258.285156 C 184.035156 258.191406 184 258.074219 184 257.941406 C 184 257.804688 184.035156 257.683594 184.109375 257.582031 C 184.179688 257.488281 184.265625 257.441406 184.359375 257.441406 Z M 185.5 259.601562 C 186.125 259.601562 186.554688 259.839844 186.796875 260.320312 C 187.046875 260.796875 187.171875 261.492188 187.171875 262.398438 L 187.171875 262.976562 L 187.421875 262.976562 C 187.816406 262.976562 188.160156 262.867188 188.453125 262.648438 C 188.753906 262.429688 188.90625 262.101562 188.90625 261.664062 C 188.90625 261.320312 188.847656 261.015625 188.734375 260.757812 C 188.617188 260.507812 188.5625 260.371094 188.5625 260.351562 C 188.5625 260.234375 188.613281 260.140625 188.71875 260.070312 C 188.832031 260.007812 188.945312 259.976562 189.0625 259.976562 C 189.25 259.976562 189.410156 260.15625 189.546875 260.523438 C 189.691406 260.886719 189.765625 261.273438 189.765625 261.679688 C 189.765625 262.460938 189.539062 263.039062 189.09375 263.414062 C 188.644531 263.789062 188.09375 263.976562 187.4375 263.976562 L 184.359375 263.976562 C 184.253906 263.976562 184.164062 263.929688 184.09375 263.835938 C 184.03125 263.742188 184 263.621094 184 263.476562 C 184 263.351562 184.03125 263.242188 184.09375 263.148438 C 184.164062 263.0625 184.253906 263.023438 184.359375 263.023438 L 184.84375 263.023438 C 184.21875 262.480469 183.90625 261.875 183.90625 261.210938 C 183.90625 260.730469 184.039062 260.339844 184.3125 260.039062 C 184.582031 259.746094 184.976562 259.601562 185.5 259.601562 Z M 185.609375 260.601562 C 185.304688 260.601562 185.078125 260.683594 184.921875 260.851562 C 184.773438 261.015625 184.703125 261.242188 184.703125 261.523438 C 184.703125 261.855469 184.835938 262.179688 185.109375 262.492188 C 185.378906 262.8125 185.65625 262.976562 185.9375 262.976562 L 186.5625 262.976562 L 186.5625 262.554688 C 186.5625 262.324219 186.550781 262.125 186.53125 261.960938 C 186.519531 261.792969 186.492188 261.617188 186.453125 261.429688 C 186.421875 261.25 186.367188 261.105469 186.296875 260.992188 C 186.234375 260.875 186.144531 260.78125 186.03125 260.710938 C 185.914062 260.636719 185.773438 260.601562 185.609375 260.601562 Z M 186.234375 265.132812 L 187.4375 265.132812 C 188.125 265.132812 188.679688 265.335938 189.109375 265.742188 C 189.546875 266.148438 189.765625 266.742188 189.765625 267.523438 C 189.765625 268.023438 189.675781 268.4375 189.5 268.773438 C 189.320312 269.117188 189.132812 269.289062 188.9375 269.289062 C 188.820312 269.289062 188.707031 269.246094 188.59375 269.164062 C 188.488281 269.078125 188.4375 268.980469 188.4375 268.867188 C 188.4375 268.835938 188.503906 268.695312 188.640625 268.445312 C 188.785156 268.203125 188.859375 267.921875 188.859375 267.601562 C 188.859375 267.121094 188.734375 266.757812 188.484375 266.507812 C 188.234375 266.257812 187.882812 266.132812 187.4375 266.132812 L 186.234375 266.132812 C 185.273438 266.132812 184.796875 266.621094 184.796875 267.601562 C 184.796875 267.945312 184.867188 268.234375 185.015625 268.476562 C 185.160156 268.726562 185.234375 268.871094 185.234375 268.914062 C 185.234375 269.039062 185.179688 269.140625 185.078125 269.226562 C 184.972656 269.320312 184.863281 269.367188 184.75 269.367188 C 184.550781 269.367188 184.359375 269.1875 184.171875 268.835938 C 183.996094 268.480469 183.90625 268.046875 183.90625 267.539062 C 183.90625 266.746094 184.117188 266.148438 184.546875 265.742188 C 184.972656 265.335938 185.535156 265.132812 186.234375 265.132812 Z M 184.359375 270.355469 L 192.765625 270.355469 C 192.867188 270.355469 192.953125 270.402344 193.015625 270.496094 C 193.085938 270.589844 193.125 270.703125 193.125 270.839844 C 193.125 270.984375 193.085938 271.105469 193.015625 271.199219 C 192.953125 271.300781 192.867188 271.355469 192.765625 271.355469 L 187.15625 271.355469 L 189.625 274.089844 C 189.6875 274.160156 189.71875 274.234375 189.71875 274.308594 C 189.71875 274.421875 189.664062 274.53125 189.5625 274.636719 C 189.46875 274.75 189.363281 274.808594 189.25 274.808594 C 189.144531 274.808594 189.0625 274.769531 189 274.699219 L 187.53125 273.027344 L 184.640625 275.027344 C 184.578125 275.066406 184.515625 275.089844 184.453125 275.089844 C 184.335938 275.089844 184.222656 275.027344 184.109375 274.902344 C 184.003906 274.785156 183.953125 274.660156 183.953125 274.527344 C 183.953125 274.421875 184.003906 274.332031 184.109375 274.261719 L 186.90625 272.355469 L 186.015625 271.355469 L 184.359375 271.355469 C 184.273438 271.355469 184.191406 271.300781 184.109375 271.199219 C 184.035156 271.105469 184 270.988281 184 270.855469 C 184 270.71875 184.035156 270.597656 184.109375 270.496094 C 184.179688 270.402344 184.265625 270.355469 184.359375 270.355469 Z M 192.921875 275.664062 C 193.003906 275.664062 193.070312 275.703125 193.125 275.789062 C 193.1875 275.882812 193.21875 275.980469 193.21875 276.085938 C 193.21875 276.199219 193.1875 276.304688 193.125 276.398438 C 193.070312 276.492188 193.003906 276.539062 192.921875 276.539062 L 191.171875 276.414062 C 191.085938 276.414062 191.015625 276.386719 190.953125 276.335938 C 190.890625 276.28125 190.859375 276.203125 190.859375 276.101562 C 190.859375 275.890625 190.960938 275.789062 191.171875 275.789062 Z M 192.921875 277.289062 C 193.003906 277.289062 193.070312 277.328125 193.125 277.414062 C 193.1875 277.507812 193.21875 277.609375 193.21875 277.726562 C 193.21875 277.839844 193.1875 277.9375 193.125 278.023438 C 193.070312 278.117188 193.003906 278.164062 192.921875 278.164062 L 191.171875 278.054688 C 191.085938 278.054688 191.015625 278.023438 190.953125 277.960938 C 190.890625 277.90625 190.859375 277.828125 190.859375 277.726562 C 190.859375 277.515625 190.960938 277.414062 191.171875 277.414062 Z M 184 278.589844 "/>
</g>
</svg>
