<?xml version="1.0" encoding="UTF-8"?>
<svg xmlns="http://www.w3.org/2000/svg" xmlns:xlink="http://www.w3.org/1999/xlink" width="384pt" height="288pt" viewBox="0 0 384 288" version="1.1">
<g id="surface109">
<path style=" stroke:none;fill-rule:nonzero;fill:rgb(0%,0%,0%);fill-opacity:1;" d="M 0 0 L 288 0 L 288 288 L 0 288 Z M 0 0 "/>
<path style=" stroke:none;fill-rule:nonzero;fill:rgb(50.196078%,50.196078%,50.196078%);fill-opacity:1;" d="M 0 0 L 36 0 L 36 288 L 0 288 Z M 0 0 "/>
<path style=" stroke:none;fill-rule:nonzero;fill:rgb(0%,0%,0%);fill-opacity:1;" d="M 36 0 L 72 0 L 72 288 L 36 288 Z M 36 0 "/>
<path style=" stroke:none;fill-rule:nonzero;fill:rgb(50.196078%,50.196078%,50.196078%);fill-opacity:1;" d="M 72 0 L 108 0 L 108 288 L 72 288 Z M 72 0 "/>
<path style=" stroke:none;fill-rule:nonzero;fill:rgb(0%,0%,0%);fill-opacity:1;" d="M 108 0 L 144 0 L 144 288 L 108 288 Z M 108 0 "/>
<path style=" stroke:none;fill-rule:nonzero;fill:rgb(50.196078%,50.196078%,50.196078%);fill-opacity:1;" d="M 144 0 L 180 0 L 180 288 L 144 288 Z M 144 0 "/>
<path style=" stroke:none;fill-rule:nonzero;fill:rgb(0%,0%,0%);fill-opacity:1;" d="M 180 0 L 216 0 L 216 288 L 180 288 Z M 180 0 "/>
<path style=" stroke:none;fill-rule:nonzero;fill:rgb(50.196078%,50.196078%,50.196078%);fill-opacity:1;" d="M 216 0 L 252 0 L 252 288 L 216 288 Z M 216 0 "/>
<path style=" stroke:none;fill-rule:nonzero;fill:rgb(0%,0%,0%);fill-opacity:1;" d="M 252 0 L 288 0 L 288 288 L 252 288 Z M 252 0 "/>
<path style=" stroke:none;fill-rule:nonzero;fill:rgb(0%,0%,0%);fill-opacity:1;" d="M 365.59375 11.203125 L 379.625 11.203125 C 379.789062 11.203125 379.925781 11.273438 380.03125 11.421875 C 380.144531 11.578125 380.203125 11.773438 380.203125 12.015625 C 380.203125 12.253906 380.144531 12.453125 380.03125 12.609375 C 379.925781 12.773438 379.789062 12.859375 379.625 12.859375 L 373.078125 12.859375 C 373.503906 13.085938 373.863281 13.425781 374.15625 13.875 C 374.445312 14.320312 374.59375 14.847656 374.59375 15.453125 C 374.59375 16.398438 374.21875 17.222656 373.46875 17.921875 C 372.71875 18.628906 371.816406 18.984375 370.765625 18.984375 L 365.59375 18.984375 C 365.40625 18.984375 365.257812 18.898438 365.15625 18.734375 C 365.050781 18.566406 365 18.367188 365 18.140625 C 365 17.921875 365.050781 17.726562 365.15625 17.5625 C 365.257812 17.394531 365.40625 17.3125 365.59375 17.3125 L 370.765625 17.3125 C 371.359375 17.3125 371.894531 17.082031 372.375 16.625 C 372.851562 16.175781 373.09375 15.648438 373.09375 15.046875 C 373.09375 14.472656 372.875 13.960938 372.4375 13.515625 C 372.007812 13.078125 371.453125 12.859375 370.765625 12.859375 L 365.59375 12.859375 C 365.445312 12.859375 365.3125 12.773438 365.1875 12.609375 C 365.0625 12.441406 365 12.242188 365 12.015625 C 365 11.796875 365.054688 11.601562 365.171875 11.4375 C 365.296875 11.28125 365.4375 11.203125 365.59375 11.203125 Z M 368.71875 20.890625 L 370.8125 20.890625 C 371.84375 20.890625 372.726562 21.28125 373.46875 22.0625 C 374.21875 22.84375 374.59375 23.78125 374.59375 24.875 C 374.59375 25.914062 374.242188 26.816406 373.546875 27.578125 C 372.847656 28.335938 371.972656 28.71875 370.921875 28.71875 C 370.535156 28.71875 370.222656 28.671875 369.984375 28.578125 C 369.753906 28.484375 369.585938 28.335938 369.484375 28.140625 C 369.390625 27.953125 369.328125 27.773438 369.296875 27.609375 C 369.273438 27.441406 369.265625 27.21875 369.265625 26.9375 L 369.265625 22.5625 L 368.65625 22.5625 C 367.925781 22.5625 367.335938 22.820312 366.890625 23.34375 C 366.453125 23.875 366.234375 24.554688 366.234375 25.390625 C 366.234375 25.835938 366.300781 26.222656 366.4375 26.546875 C 366.570312 26.867188 366.703125 27.128906 366.828125 27.328125 C 366.953125 27.535156 367.015625 27.695312 367.015625 27.8125 C 367.015625 28 366.929688 28.160156 366.765625 28.296875 C 366.597656 28.429688 366.429688 28.5 366.265625 28.5 C 365.953125 28.5 365.632812 28.191406 365.3125 27.578125 C 365 26.972656 364.84375 26.226562 364.84375 25.34375 C 364.84375 24.03125 365.195312 22.957031 365.90625 22.125 C 366.625 21.300781 367.5625 20.890625 368.71875 20.890625 Z M 370.375 22.5625 L 370.375 26.265625 C 370.375 26.609375 370.414062 26.835938 370.5 26.953125 C 370.59375 27.078125 370.765625 27.140625 371.015625 27.140625 C 371.617188 27.140625 372.144531 26.914062 372.59375 26.46875 C 373.050781 26.03125 373.28125 25.492188 373.28125 24.859375 C 373.28125 24.234375 373.066406 23.691406 372.640625 23.234375 C 372.222656 22.785156 371.707031 22.5625 371.09375 22.5625 Z M 365.59375 30.738281 L 379.625 30.738281 C 379.789062 30.738281 379.925781 30.808594 380.03125 30.957031 C 380.144531 31.113281 380.203125 31.308594 380.203125 31.550781 C 380.203125 31.800781 380.144531 32.003906 380.03125 32.160156 C 379.925781 32.316406 379.789062 32.394531 379.625 32.394531 L 365.59375 32.394531 C 365.445312 32.394531 365.3125 32.308594 365.1875 32.144531 C 365.0625 31.976562 365 31.777344 365 31.550781 C 365 31.332031 365.054688 31.136719 365.171875 30.972656 C 365.296875 30.816406 365.4375 30.738281 365.59375 30.738281 Z M 365.59375 35.121094 L 379.625 35.121094 C 379.789062 35.121094 379.925781 35.191406 380.03125 35.339844 C 380.144531 35.496094 380.203125 35.691406 380.203125 35.933594 C 380.203125 36.183594 380.144531 36.386719 380.03125 36.542969 C 379.925781 36.699219 379.789062 36.777344 379.625 36.777344 L 365.59375 36.777344 C 365.445312 36.777344 365.3125 36.691406 365.1875 36.527344 C 365.0625 36.359375 365 36.160156 365 35.933594 C 365 35.714844 365.054688 35.519531 365.171875 35.355469 C 365.296875 35.199219 365.4375 35.121094 365.59375 35.121094 Z M 368.71875 38.953125 L 370.765625 38.953125 C 371.785156 38.953125 372.675781 39.34375 373.4375 40.125 C 374.207031 40.90625 374.59375 41.828125 374.59375 42.890625 C 374.59375 43.960938 374.210938 44.890625 373.453125 45.671875 C 372.691406 46.460938 371.796875 46.859375 370.765625 46.859375 L 368.71875 46.859375 C 367.707031 46.859375 366.804688 46.460938 366.015625 45.671875 C 365.234375 44.878906 364.84375 43.957031 364.84375 42.90625 C 364.84375 41.851562 365.234375 40.929688 366.015625 40.140625 C 366.796875 39.347656 367.695312 38.953125 368.71875 38.953125 Z M 368.71875 40.625 C 368.09375 40.625 367.539062 40.847656 367.0625 41.296875 C 366.582031 41.753906 366.34375 42.289062 366.34375 42.90625 C 366.34375 43.53125 366.582031 44.066406 367.0625 44.515625 C 367.550781 44.972656 368.101562 45.203125 368.71875 45.203125 L 370.765625 45.203125 C 371.359375 45.203125 371.894531 44.972656 372.375 44.515625 C 372.851562 44.066406 373.09375 43.523438 373.09375 42.890625 C 373.09375 42.265625 372.851562 41.726562 372.375 41.28125 C 371.894531 40.84375 371.359375 40.625 370.765625 40.625 Z M 368.015625 52.820312 L 378.3125 52.820312 C 378.476562 52.820312 378.617188 52.902344 378.734375 53.070312 C 378.847656 53.246094 378.90625 53.433594 378.90625 53.632812 C 378.90625 53.851562 378.847656 54.042969 378.734375 54.210938 C 378.617188 54.386719 378.476562 54.476562 378.3125 54.476562 L 374.484375 54.476562 L 374.484375 56.992188 C 374.484375 57.148438 374.414062 57.265625 374.28125 57.351562 C 374.144531 57.445312 373.988281 57.492188 373.8125 57.492188 C 373.644531 57.492188 373.5 57.445312 373.375 57.351562 C 373.25 57.265625 373.1875 57.148438 373.1875 56.992188 L 373.1875 54.476562 L 368.015625 54.476562 C 367.441406 54.476562 367.035156 54.601562 366.796875 54.851562 C 366.566406 55.101562 366.453125 55.527344 366.453125 56.132812 L 366.453125 56.757812 C 366.453125 56.984375 366.382812 57.164062 366.25 57.289062 C 366.113281 57.414062 365.941406 57.476562 365.734375 57.476562 C 365.535156 57.476562 365.363281 57.40625 365.21875 57.273438 C 365.070312 57.148438 365 56.976562 365 56.757812 L 365 56.132812 C 365 53.921875 366.003906 52.820312 368.015625 52.820312 Z M 365.59375 59.082031 L 379.625 59.082031 C 379.789062 59.082031 379.925781 59.152344 380.03125 59.300781 C 380.144531 59.457031 380.203125 59.652344 380.203125 59.894531 C 380.203125 60.132812 380.144531 60.332031 380.03125 60.488281 C 379.925781 60.652344 379.789062 60.738281 379.625 60.738281 L 373.078125 60.738281 C 373.503906 60.964844 373.863281 61.304688 374.15625 61.753906 C 374.445312 62.199219 374.59375 62.726562 374.59375 63.332031 C 374.59375 64.277344 374.21875 65.101562 373.46875 65.800781 C 372.71875 66.507812 371.816406 66.863281 370.765625 66.863281 L 365.59375 66.863281 C 365.40625 66.863281 365.257812 66.777344 365.15625 66.613281 C 365.050781 66.445312 365 66.246094 365 66.019531 C 365 65.800781 365.050781 65.605469 365.15625 65.441406 C 365.257812 65.273438 365.40625 65.191406 365.59375 65.191406 L 370.765625 65.191406 C 371.359375 65.191406 371.894531 64.960938 372.375 64.503906 C 372.851562 64.054688 373.09375 63.527344 373.09375 62.925781 C 373.09375 62.351562 372.875 61.839844 372.4375 61.394531 C 372.007812 60.957031 371.453125 60.738281 370.765625 60.738281 L 365.59375 60.738281 C 365.445312 60.738281 365.3125 60.652344 365.1875 60.488281 C 365.0625 60.320312 365 60.121094 365 59.894531 C 365 59.675781 365.054688 59.480469 365.171875 59.316406 C 365.296875 59.160156 365.4375 59.082031 365.59375 59.082031 Z M 368.71875 68.773438 L 370.8125 68.773438 C 371.84375 68.773438 372.726562 69.164062 373.46875 69.945312 C 374.21875 70.726562 374.59375 71.664062 374.59375 72.757812 C 374.59375 73.796875 374.242188 74.699219 373.546875 75.460938 C 372.847656 76.21875 371.972656 76.601562 370.921875 76.601562 C 370.535156 76.601562 370.222656 76.554688 369.984375 76.460938 C 369.753906 76.367188 369.585938 76.21875 369.484375 76.023438 C 369.390625 75.835938 369.328125 75.65625 369.296875 75.492188 C 369.273438 75.324219 369.265625 75.101562 369.265625 74.820312 L 369.265625 70.445312 L 368.65625 70.445312 C 367.925781 70.445312 367.335938 70.703125 366.890625 71.226562 C 366.453125 71.757812 366.234375 72.4375 366.234375 73.273438 C 366.234375 73.71875 366.300781 74.105469 366.4375 74.429688 C 366.570312 74.75 366.703125 75.011719 366.828125 75.210938 C 366.953125 75.417969 367.015625 75.578125 367.015625 75.695312 C 367.015625 75.882812 366.929688 76.042969 366.765625 76.179688 C 366.597656 76.3125 366.429688 76.382812 366.265625 76.382812 C 365.953125 76.382812 365.632812 76.074219 365.3125 75.460938 C 365 74.855469 364.84375 74.109375 364.84375 73.226562 C 364.84375 71.914062 365.195312 70.839844 365.90625 70.007812 C 366.625 69.183594 367.5625 68.773438 368.71875 68.773438 Z M 370.375 70.445312 L 370.375 74.148438 C 370.375 74.492188 370.414062 74.71875 370.5 74.835938 C 370.59375 74.960938 370.765625 75.023438 371.015625 75.023438 C 371.617188 75.023438 372.144531 74.796875 372.59375 74.351562 C 373.050781 73.914062 373.28125 73.375 373.28125 72.742188 C 373.28125 72.117188 373.066406 71.574219 372.640625 71.117188 C 372.222656 70.667969 371.707031 70.445312 371.09375 70.445312 Z M 365.59375 78.449219 L 373.90625 78.449219 C 374.070312 78.449219 374.207031 78.519531 374.3125 78.667969 C 374.425781 78.824219 374.484375 79.019531 374.484375 79.261719 C 374.484375 79.46875 374.425781 79.644531 374.3125 79.792969 C 374.207031 79.949219 374.070312 80.027344 373.90625 80.027344 L 372.953125 80.027344 C 373.410156 80.265625 373.796875 80.613281 374.109375 81.074219 C 374.429688 81.542969 374.59375 82.0625 374.59375 82.636719 L 374.59375 83.324219 C 374.59375 83.488281 374.515625 83.636719 374.359375 83.761719 C 374.210938 83.894531 374.039062 83.964844 373.84375 83.964844 C 373.644531 83.964844 373.46875 83.894531 373.3125 83.761719 C 373.164062 83.636719 373.09375 83.488281 373.09375 83.324219 L 373.09375 82.636719 C 373.09375 81.957031 372.816406 81.363281 372.265625 80.855469 C 371.722656 80.355469 371.019531 80.105469 370.15625 80.105469 L 365.59375 80.105469 C 365.445312 80.105469 365.3125 80.019531 365.1875 79.855469 C 365.0625 79.6875 365 79.488281 365 79.261719 C 365 79.03125 365.054688 78.839844 365.171875 78.683594 C 365.296875 78.527344 365.4375 78.449219 365.59375 78.449219 Z M 368.71875 84.953125 L 370.8125 84.953125 C 371.84375 84.953125 372.726562 85.34375 373.46875 86.125 C 374.21875 86.90625 374.59375 87.84375 374.59375 88.9375 C 374.59375 89.976562 374.242188 90.878906 373.546875 91.640625 C 372.847656 92.398438 371.972656 92.78125 370.921875 92.78125 C 370.535156 92.78125 370.222656 92.734375 369.984375 92.640625 C 369.753906 92.546875 369.585938 92.398438 369.484375 92.203125 C 369.390625 92.015625 369.328125 91.835938 369.296875 91.671875 C 369.273438 91.503906 369.265625 91.28125 369.265625 91 L 369.265625 86.625 L 368.65625 86.625 C 367.925781 86.625 367.335938 86.882812 366.890625 87.40625 C 366.453125 87.9375 366.234375 88.617188 366.234375 89.453125 C 366.234375 89.898438 366.300781 90.285156 366.4375 90.609375 C 366.570312 90.929688 366.703125 91.191406 366.828125 91.390625 C 366.953125 91.597656 367.015625 91.757812 367.015625 91.875 C 367.015625 92.0625 366.929688 92.222656 366.765625 92.359375 C 366.597656 92.492188 366.429688 92.5625 366.265625 92.5625 C 365.953125 92.5625 365.632812 92.253906 365.3125 91.640625 C 365 91.035156 364.84375 90.289062 364.84375 89.40625 C 364.84375 88.09375 365.195312 87.019531 365.90625 86.1875 C 366.625 85.363281 367.5625 84.953125 368.71875 84.953125 Z M 370.375 86.625 L 370.375 90.328125 C 370.375 90.671875 370.414062 90.898438 370.5 91.015625 C 370.59375 91.140625 370.765625 91.203125 371.015625 91.203125 C 371.617188 91.203125 372.144531 90.976562 372.59375 90.53125 C 373.050781 90.09375 373.28125 89.554688 373.28125 88.921875 C 373.28125 88.296875 373.066406 87.753906 372.640625 87.296875 C 372.222656 86.847656 371.707031 86.625 371.09375 86.625 Z M 365 93.441406 "/>
<path style=" stroke:none;fill-rule:nonzero;fill:rgb(0%,0%,0%);fill-opacity:1;" d="M 300.59375 21.203125 L 314.625 21.203125 C 314.789062 21.203125 314.925781 21.273438 315.03125 21.421875 C 315.144531 21.578125 315.203125 21.773438 315.203125 22.015625 C 315.203125 22.253906 315.144531 22.453125 315.03125 22.609375 C 314.925781 22.773438 314.789062 22.859375 314.625 22.859375 L 308.078125 22.859375 C 308.503906 23.085938 308.863281 23.425781 309.15625 23.875 C 309.445312 24.320312 309.59375 24.847656 309.59375 25.453125 C 309.59375 26.398438 309.21875 27.222656 308.46875 27.921875 C 307.71875 28.628906 306.816406 28.984375 305.765625 28.984375 L 300.59375 28.984375 C 300.40625 28.984375 300.257812 28.898438 300.15625 28.734375 C 300.050781 28.566406 300 28.367188 300 28.140625 C 300 27.921875 300.050781 27.726562 300.15625 27.5625 C 300.257812 27.394531 300.40625 27.3125 300.59375 27.3125 L 305.765625 27.3125 C 306.359375 27.3125 306.894531 27.082031 307.375 26.625 C 307.851562 26.175781 308.09375 25.648438 308.09375 25.046875 C 308.09375 24.472656 307.875 23.960938 307.4375 23.515625 C 307.007812 23.078125 306.453125 22.859375 305.765625 22.859375 L 300.59375 22.859375 C 300.445312 22.859375 300.3125 22.773438 300.1875 22.609375 C 300.0625 22.441406 300 22.242188 300 22.015625 C 300 21.796875 300.054688 21.601562 300.171875 21.4375 C 300.296875 21.28125 300.4375 21.203125 300.59375 21.203125 Z M 303.71875 30.890625 L 305.8125 30.890625 C 306.84375 30.890625 307.726562 31.28125 308.46875 32.0625 C 309.21875 32.84375 309.59375 33.78125 309.59375 34.875 C 309.59375 35.914062 309.242188 36.816406 308.546875 37.578125 C 307.847656 38.335938 306.972656 38.71875 305.921875 38.71875 C 305.535156 38.71875 305.222656 38.671875 304.984375 38.578125 C 304.753906 38.484375 304.585938 38.335938 304.484375 38.140625 C 304.390625 37.953125 304.328125 37.773438 304.296875 37.609375 C 304.273438 37.441406 304.265625 37.21875 304.265625 36.9375 L 304.265625 32.5625 L 303.65625 32.5625 C 302.925781 32.5625 302.335938 32.820312 301.890625 33.34375 C 301.453125 33.875 301.234375 34.554688 301.234375 35.390625 C 301.234375 35.835938 301.300781 36.222656 301.4375 36.546875 C 301.570312 36.867188 301.703125 37.128906 301.828125 37.328125 C 301.953125 37.535156 302.015625 37.695312 302.015625 37.8125 C 302.015625 38 301.929688 38.160156 301.765625 38.296875 C 301.597656 38.429688 301.429688 38.5 301.265625 38.5 C 300.953125 38.5 300.632812 38.191406 300.3125 37.578125 C 300 36.972656 299.84375 36.226562 299.84375 35.34375 C 299.84375 34.03125 300.195312 32.957031 300.90625 32.125 C 301.625 31.300781 302.5625 30.890625 303.71875 30.890625 Z M 305.375 32.5625 L 305.375 36.265625 C 305.375 36.609375 305.414062 36.835938 305.5 36.953125 C 305.59375 37.078125 305.765625 37.140625 306.015625 37.140625 C 306.617188 37.140625 307.144531 36.914062 307.59375 36.46875 C 308.050781 36.03125 308.28125 35.492188 308.28125 34.859375 C 308.28125 34.234375 308.066406 33.691406 307.640625 33.234375 C 307.222656 32.785156 306.707031 32.5625 306.09375 32.5625 Z M 300.59375 40.738281 L 314.625 40.738281 C 314.789062 40.738281 314.925781 40.808594 315.03125 40.957031 C 315.144531 41.113281 315.203125 41.308594 315.203125 41.550781 C 315.203125 41.800781 315.144531 42.003906 315.03125 42.160156 C 314.925781 42.316406 314.789062 42.394531 314.625 42.394531 L 300.59375 42.394531 C 300.445312 42.394531 300.3125 42.308594 300.1875 42.144531 C 300.0625 41.976562 300 41.777344 300 41.550781 C 300 41.332031 300.054688 41.136719 300.171875 40.972656 C 300.296875 40.816406 300.4375 40.738281 300.59375 40.738281 Z M 300.59375 45.121094 L 314.625 45.121094 C 314.789062 45.121094 314.925781 45.191406 315.03125 45.339844 C 315.144531 45.496094 315.203125 45.691406 315.203125 45.933594 C 315.203125 46.183594 315.144531 46.386719 315.03125 46.542969 C 314.925781 46.699219 314.789062 46.777344 314.625 46.777344 L 300.59375 46.777344 C 300.445312 46.777344 300.3125 46.691406 300.1875 46.527344 C 300.0625 46.359375 300 46.160156 300 45.933594 C 300 45.714844 300.054688 45.519531 300.171875 45.355469 C 300.296875 45.199219 300.4375 45.121094 300.59375 45.121094 Z M 303.71875 48.953125 L 305.765625 48.953125 C 306.785156 48.953125 307.675781 49.34375 308.4375 50.125 C 309.207031 50.90625 309.59375 51.828125 309.59375 52.890625 C 309.59375 53.960938 309.210938 54.890625 308.453125 55.671875 C 307.691406 56.460938 306.796875 56.859375 305.765625 56.859375 L 303.71875 56.859375 C 302.707031 56.859375 301.804688 56.460938 301.015625 55.671875 C 300.234375 54.878906 299.84375 53.957031 299.84375 52.90625 C 299.84375 51.851562 300.234375 50.929688 301.015625 50.140625 C 301.796875 49.347656 302.695312 48.953125 303.71875 48.953125 Z M 303.71875 50.625 C 303.09375 50.625 302.539062 50.847656 302.0625 51.296875 C 301.582031 51.753906 301.34375 52.289062 301.34375 52.90625 C 301.34375 53.53125 301.582031 54.066406 302.0625 54.515625 C 302.550781 54.972656 303.101562 55.203125 303.71875 55.203125 L 305.765625 55.203125 C 306.359375 55.203125 306.894531 54.972656 307.375 54.515625 C 307.851562 54.066406 308.09375 53.523438 308.09375 52.890625 C 308.09375 52.265625 307.851562 51.726562 307.375 51.28125 C 306.894531 50.84375 306.359375 50.625 305.765625 50.625 Z M 303.015625 62.820312 L 313.3125 62.820312 C 313.476562 62.820312 313.617188 62.902344 313.734375 63.070312 C 313.847656 63.246094 313.90625 63.433594 313.90625 63.632812 C 313.90625 63.851562 313.847656 64.042969 313.734375 64.210938 C 313.617188 64.386719 313.476562 64.476562 313.3125 64.476562 L 309.484375 64.476562 L 309.484375 66.992188 C 309.484375 67.148438 309.414062 67.265625 309.28125 67.351562 C 309.144531 67.445312 308.988281 67.492188 308.8125 67.492188 C 308.644531 67.492188 308.5 67.445312 308.375 67.351562 C 308.25 67.265625 308.1875 67.148438 308.1875 66.992188 L 308.1875 64.476562 L 303.015625 64.476562 C 302.441406 64.476562 302.035156 64.601562 301.796875 64.851562 C 301.566406 65.101562 301.453125 65.527344 301.453125 66.132812 L 301.453125 66.757812 C 301.453125 66.984375 301.382812 67.164062 301.25 67.289062 C 301.113281 67.414062 300.941406 67.476562 300.734375 67.476562 C 300.535156 67.476562 300.363281 67.40625 300.21875 67.273438 C 300.070312 67.148438 300 66.976562 300 66.757812 L 300 66.132812 C 300 63.921875 301.003906 62.820312 303.015625 62.820312 Z M 300.59375 69.082031 L 314.625 69.082031 C 314.789062 69.082031 314.925781 69.152344 315.03125 69.300781 C 315.144531 69.457031 315.203125 69.652344 315.203125 69.894531 C 315.203125 70.132812 315.144531 70.332031 315.03125 70.488281 C 314.925781 70.652344 314.789062 70.738281 314.625 70.738281 L 308.078125 70.738281 C 308.503906 70.964844 308.863281 71.304688 309.15625 71.753906 C 309.445312 72.199219 309.59375 72.726562 309.59375 73.332031 C 309.59375 74.277344 309.21875 75.101562 308.46875 75.800781 C 307.71875 76.507812 306.816406 76.863281 305.765625 76.863281 L 300.59375 76.863281 C 300.40625 76.863281 300.257812 76.777344 300.15625 76.613281 C 300.050781 76.445312 300 76.246094 300 76.019531 C 300 75.800781 300.050781 75.605469 300.15625 75.441406 C 300.257812 75.273438 300.40625 75.191406 300.59375 75.191406 L 305.765625 75.191406 C 306.359375 75.191406 306.894531 74.960938 307.375 74.503906 C 307.851562 74.054688 308.09375 73.527344 308.09375 72.925781 C 308.09375 72.351562 307.875 71.839844 307.4375 71.394531 C 307.007812 70.957031 306.453125 70.738281 305.765625 70.738281 L 300.59375 70.738281 C 300.445312 70.738281 300.3125 70.652344 300.1875 70.488281 C 300.0625 70.320312 300 70.121094 300 69.894531 C 300 69.675781 300.054688 69.480469 300.171875 69.316406 C 300.296875 69.160156 300.4375 69.082031 300.59375 69.082031 Z M 303.71875 78.773438 L 305.8125 78.773438 C 306.84375 78.773438 307.726562 79.164062 308.46875 79.945312 C 309.21875 80.726562 309.59375 81.664062 309.59375 82.757812 C 309.59375 83.796875 309.242188 84.699219 308.546875 85.460938 C 307.847656 86.21875 306.972656 86.601562 305.921875 86.601562 C 305.535156 86.601562 305.222656 86.554688 304.984375 86.460938 C 304.753906 86.367188 304.585938 86.21875 304.484375 86.023438 C 304.390625 85.835938 304.328125 85.65625 304.296875 85.492188 C 304.273438 85.324219 304.265625 85.101562 304.265625 84.820312 L 304.265625 80.445312 L 303.65625 80.445312 C 302.925781 80.445312 302.335938 80.703125 301.890625 81.226562 C 301.453125 81.757812 301.234375 82.4375 301.234375 83.273438 C 301.234375 83.71875 301.300781 84.105469 301.4375 84.429688 C 301.570312 84.75 301.703125 85.011719 301.828125 85.210938 C 301.953125 85.417969 302.015625 85.578125 302.015625 85.695312 C 302.015625 85.882812 301.929688 86.042969 301.765625 86.179688 C 301.597656 86.3125 301.429688 86.382812 301.265625 86.382812 C 300.953125 86.382812 300.632812 86.074219 300.3125 85.460938 C 300 84.855469 299.84375 84.109375 299.84375 83.226562 C 299.84375 81.914062 300.195312 80.839844 300.90625 80.007812 C 301.625 79.183594 302.5625 78.773438 303.71875 78.773438 Z M 305.375 80.445312 L 305.375 84.148438 C 305.375 84.492188 305.414062 84.71875 305.5 84.835938 C 305.59375 84.960938 305.765625 85.023438 306.015625 85.023438 C 306.617188 85.023438 307.144531 84.796875 307.59375 84.351562 C 308.050781 83.914062 308.28125 83.375 308.28125 82.742188 C 308.28125 82.117188 308.066406 81.574219 307.640625 81.117188 C 307.222656 80.667969 306.707031 80.445312 306.09375 80.445312 Z M 300.59375 88.449219 L 308.90625 88.449219 C 309.070312 88.449219 309.207031 88.519531 309.3125 88.667969 C 309.425781 88.824219 309.484375 89.019531 309.484375 89.261719 C 309.484375 89.46875 309.425781 89.644531 309.3125 89.792969 C 309.207031 89.949219 309.070312 90.027344 308.90625 90.027344 L 307.953125 90.027344 C 308.410156 90.265625 308.796875 90.613281 309.109375 91.074219 C 309.429688 91.542969 309.59375 92.0625 309.59375 92.636719 L 309.59375 93.324219 C 309.59375 93.488281 309.515625 93.636719 309.359375 93.761719 C 309.210938 93.894531 309.039062 93.964844 308.84375 93.964844 C 308.644531 93.964844 308.46875 93.894531 308.3125 93.761719 C 308.164062 93.636719 308.09375 93.488281 308.09375 93.324219 L 308.09375 92.636719 C 308.09375 91.957031 307.816406 91.363281 307.265625 90.855469 C 306.722656 90.355469 306.019531 90.105469 305.15625 90.105469 L 300.59375 90.105469 C 300.445312 90.105469 300.3125 90.019531 300.1875 89.855469 C 300.0625 89.6875 300 89.488281 300 89.261719 C 300 89.03125 300.054688 88.839844 300.171875 88.683594 C 300.296875 88.527344 300.4375 88.449219 300.59375 88.449219 Z M 303.71875 94.953125 L 305.8125 94.953125 C 306.84375 94.953125 307.726562 95.34375 308.46875 96.125 C 309.21875 96.90625 309.59375 97.84375 309.59375 98.9375 C 309.59375 99.976562 309.242188 100.878906 308.546875 101.640625 C 307.847656 102.398438 306.972656 102.78125 305.921875 102.78125 C 305.535156 102.78125 305.222656 102.734375 304.984375 102.640625 C 304.753906 102.546875 304.585938 102.398438 304.484375 102.203125 C 304.390625 102.015625 304.328125 101.835938 304.296875 101.671875 C 304.273438 101.503906 304.265625 101.28125 304.265625 101 L 304.265625 96.625 L 303.65625 96.625 C 302.925781 96.625 302.335938 96.882812 301.890625 97.40625 C 301.453125 97.9375 301.234375 98.617188 301.234375 99.453125 C 301.234375 99.898438 301.300781 100.285156 301.4375 100.609375 C 301.570312 100.929688 301.703125 101.191406 301.828125 101.390625 C 301.953125 101.597656 302.015625 101.757812 302.015625 101.875 C 302.015625 102.0625 301.929688 102.222656 301.765625 102.359375 C 301.597656 102.492188 301.429688 102.5625 301.265625 102.5625 C 300.953125 102.5625 300.632812 102.253906 300.3125 101.640625 C 300 101.035156 299.84375 100.289062 299.84375 99.40625 C 299.84375 98.09375 300.195312 97.019531 300.90625 96.1875 C 301.625 95.363281 302.5625 94.953125 303.71875 94.953125 Z M 305.375 96.625 L 305.375 100.328125 C 305.375 100.671875 305.414062 100.898438 305.5 101.015625 C 305.59375 101.140625 305.765625 101.203125 306.015625 101.203125 C 306.617188 101.203125 307.144531 100.976562 307.59375 100.53125 C 308.050781 100.09375 308.28125 99.554688 308.28125 98.921875 C 308.28125 98.296875 308.066406 97.753906 307.640625 97.296875 C 307.222656 96.847656 306.707031 96.625 306.09375 96.625 Z M 300.59375 104.082031 L 302.546875 104.082031 C 303.140625 104.082031 303.726562 104.308594 304.3125 104.769531 C 304.894531 105.226562 305.414062 105.785156 305.875 106.441406 L 307.3125 108.378906 C 307.78125 109.035156 308.304688 109.589844 308.890625 110.050781 C 309.472656 110.507812 310.0625 110.738281 310.65625 110.738281 C 311.300781 110.738281 311.863281 110.527344 312.34375 110.113281 C 312.820312 109.695312 313.0625 109.089844 313.0625 108.300781 C 313.0625 107.632812 312.875 107.085938 312.5 106.660156 C 312.125 106.242188 311.582031 106.035156 310.875 106.035156 C 310.707031 106.035156 310.554688 105.957031 310.421875 105.800781 C 310.285156 105.644531 310.21875 105.429688 310.21875 105.160156 C 310.21875 104.648438 310.546875 104.394531 311.203125 104.394531 C 312.203125 104.394531 313.019531 104.769531 313.65625 105.519531 C 314.300781 106.277344 314.625 107.207031 314.625 108.300781 C 314.625 109.476562 314.253906 110.457031 313.515625 111.238281 C 312.773438 112.027344 311.84375 112.425781 310.71875 112.425781 C 310.050781 112.425781 309.410156 112.257812 308.796875 111.925781 C 308.179688 111.601562 307.660156 111.195312 307.234375 110.707031 C 306.804688 110.226562 306.378906 109.699219 305.953125 109.128906 L 304.8125 107.519531 C 304.476562 107.039062 304.113281 106.632812 303.71875 106.300781 C 303.320312 105.976562 302.929688 105.816406 302.546875 105.816406 L 301.515625 105.816406 L 301.515625 111.957031 C 301.515625 112.121094 301.441406 112.257812 301.296875 112.363281 C 301.148438 112.476562 300.972656 112.535156 300.765625 112.535156 C 300.554688 112.535156 300.375 112.476562 300.21875 112.363281 C 300.070312 112.257812 300 112.121094 300 111.957031 L 300 104.847656 C 300 104.667969 300.054688 104.496094 300.171875 104.332031 C 300.285156 104.164062 300.425781 104.082031 300.59375 104.082031 Z M 300 113.121094 "/>
</g>
</svg>
