<?xml version="1.0" encoding="UTF-8"?>
<svg xmlns="http://www.w3.org/2000/svg" xmlns:xlink="http://www.w3.org/1999/xlink" width="384pt" height="288pt" viewBox="0 0 384 288" version="1.1">
<g id="surface161">
<path style=" stroke:none;fill-rule:nonzero;fill:rgb(0%,0%,0%);fill-opacity:1;" d="M 0 0 L 288 0 L 288 288 L 0 288 Z M 0 0 "/>
<path style=" stroke:none;fill-rule:nonzero;fill:rgb(50.196078%,50.196078%,50.196078%);fill-opacity:1;" d="M 0 0 L 36 0 L 36 288 L 0 288 Z M 0 0 "/>
<path style=" stroke:none;fill-rule:nonzero;fill:rgb(0%,0%,0%);fill-opacity:1;" d="M 36 0 L 72 0 L 72 288 L 36 288 Z M 36 0 "/>
<path style=" stroke:none;fill-rule:nonzero;fill:rgb(50.196078%,50.196078%,50.196078%);fill-opacity:1;" d="M 72 0 L 108 0 L 108 288 L 72 288 Z M 72 0 "/>
<path style=" stroke:none;fill-rule:nonzero;fill:rgb(0%,0%,0%);fill-opacity:1;" d="M 108 0 L 144 0 L 144 288 L 108 288 Z M 108 0 "/>
<path style=" stroke:none;fill-rule:nonzero;fill:rgb(50.196078%,50.196078%,50.196078%);fill-opacity:1;" d="M 144 0 L 180 0 L 180 288 L 144 288 Z M 144 0 "/>
<path style=" stroke:none;fill-rule:nonzero;fill:rgb(0%,0%,0%);fill-opacity:1;" d="M 180 0 L 216 0 L 216 288 L 180 288 Z M 180 0 "/>
<path style=" stroke:none;fill-rule:nonzero;fill:rgb(50.196078%,50.196078%,50.196078%);fill-opacity:1;" d="M 216 0 L 252 0 L 252 288 L 216 288 Z M 216 0 "/>
<path style=" stroke:none;fill-rule:nonzero;fill:rgb(0%,0%,0%);fill-opacity:1;" d="M 252 0 L 288 0 L 288 288 L 252 288 Z M 252 0 "/>
<path style=" stroke:none;fill-rule:nonzero;fill:rgb(0%,0%,0%);fill-opacity:1;" d="M 345.578125 11.203125 L 356.453125 11.203125 C 357.492188 11.203125 358.378906 11.550781 359.109375 12.25 C 359.835938 12.945312 360.203125 13.773438 360.203125 14.734375 L 360.203125 15.4375 C 360.203125 15.65625 360.128906 15.820312 359.984375 15.9375 C 359.835938 16.0625 359.660156 16.125 359.453125 16.125 C 359.253906 16.125 359.082031 16.0625 358.9375 15.9375 C 358.800781 15.820312 358.734375 15.65625 358.734375 15.4375 L 358.734375 15.015625 C 358.734375 14.398438 358.523438 13.890625 358.109375 13.484375 C 357.703125 13.078125 357.195312 12.867188 356.59375 12.859375 L 354.484375 12.859375 L 354.484375 15.59375 C 354.484375 15.757812 354.414062 15.890625 354.28125 15.984375 C 354.144531 16.078125 353.988281 16.125 353.8125 16.125 C 353.644531 16.125 353.5 16.078125 353.375 15.984375 C 353.25 15.890625 353.1875 15.757812 353.1875 15.59375 L 353.1875 12.859375 L 345.578125 12.859375 C 345.421875 12.859375 345.285156 12.773438 345.171875 12.609375 C 345.054688 12.441406 345 12.238281 345 12 C 345 11.769531 345.050781 11.578125 345.15625 11.421875 C 345.257812 11.273438 345.398438 11.203125 345.578125 11.203125 Z M 348.71875 17.113281 L 350.765625 17.113281 C 351.785156 17.113281 352.675781 17.503906 353.4375 18.285156 C 354.207031 19.066406 354.59375 19.988281 354.59375 21.050781 C 354.59375 22.121094 354.210938 23.050781 353.453125 23.832031 C 352.691406 24.621094 351.796875 25.019531 350.765625 25.019531 L 348.71875 25.019531 C 347.707031 25.019531 346.804688 24.621094 346.015625 23.832031 C 345.234375 23.039062 344.84375 22.117188 344.84375 21.066406 C 344.84375 20.011719 345.234375 19.089844 346.015625 18.300781 C 346.796875 17.507812 347.695312 17.113281 348.71875 17.113281 Z M 348.71875 18.785156 C 348.09375 18.785156 347.539062 19.007812 347.0625 19.457031 C 346.582031 19.914062 346.34375 20.449219 346.34375 21.066406 C 346.34375 21.691406 346.582031 22.226562 347.0625 22.675781 C 347.550781 23.132812 348.101562 23.363281 348.71875 23.363281 L 350.765625 23.363281 C 351.359375 23.363281 351.894531 23.132812 352.375 22.675781 C 352.851562 22.226562 353.09375 21.683594 353.09375 21.050781 C 353.09375 20.425781 352.851562 19.886719 352.375 19.441406 C 351.894531 19.003906 351.359375 18.785156 350.765625 18.785156 Z M 345.59375 27.199219 L 359.625 27.199219 C 359.789062 27.199219 359.925781 27.269531 360.03125 27.417969 C 360.144531 27.574219 360.203125 27.769531 360.203125 28.011719 C 360.203125 28.261719 360.144531 28.464844 360.03125 28.621094 C 359.925781 28.777344 359.789062 28.855469 359.625 28.855469 L 345.59375 28.855469 C 345.445312 28.855469 345.3125 28.769531 345.1875 28.605469 C 345.0625 28.4375 345 28.238281 345 28.011719 C 345 27.792969 345.054688 27.597656 345.171875 27.433594 C 345.296875 27.277344 345.4375 27.199219 345.59375 27.199219 Z M 348.71875 31.03125 L 350.765625 31.03125 C 351.816406 31.03125 352.71875 31.382812 353.46875 32.09375 C 354.21875 32.800781 354.59375 33.644531 354.59375 34.625 C 354.59375 35.21875 354.445312 35.738281 354.15625 36.1875 C 353.863281 36.644531 353.503906 36.992188 353.078125 37.234375 L 359.625 37.234375 C 359.789062 37.234375 359.925781 37.3125 360.03125 37.46875 C 360.144531 37.632812 360.203125 37.835938 360.203125 38.078125 C 360.203125 38.316406 360.144531 38.515625 360.03125 38.671875 C 359.925781 38.828125 359.789062 38.90625 359.625 38.90625 L 345.59375 38.90625 C 345.4375 38.90625 345.296875 38.820312 345.171875 38.65625 C 345.054688 38.5 345 38.304688 345 38.078125 C 345 37.878906 345.054688 37.703125 345.171875 37.546875 C 345.296875 37.390625 345.4375 37.3125 345.59375 37.3125 L 346.40625 37.3125 C 345.976562 37.09375 345.609375 36.726562 345.296875 36.21875 C 344.996094 35.707031 344.84375 35.15625 344.84375 34.5625 C 344.84375 33.625 345.234375 32.800781 346.015625 32.09375 C 346.804688 31.382812 347.707031 31.03125 348.71875 31.03125 Z M 348.71875 32.703125 C 348.101562 32.703125 347.550781 32.925781 347.0625 33.375 C 346.582031 33.832031 346.34375 34.359375 346.34375 34.953125 C 346.34375 35.546875 346.566406 36.070312 347.015625 36.53125 C 347.460938 37 347.851562 37.234375 348.1875 37.234375 L 350.765625 37.234375 C 351.453125 37.234375 352.007812 37.003906 352.4375 36.546875 C 352.875 36.097656 353.09375 35.578125 353.09375 34.984375 C 353.09375 34.367188 352.851562 33.832031 352.375 33.375 C 351.894531 32.925781 351.359375 32.703125 350.765625 32.703125 Z M 345.59375 41.523438 L 359.015625 41.523438 C 359.203125 41.523438 359.347656 41.59375 359.453125 41.742188 C 359.566406 41.898438 359.625 42.078125 359.625 42.289062 L 359.625 49.398438 C 359.625 49.585938 359.550781 49.726562 359.40625 49.820312 C 359.257812 49.921875 359.082031 49.976562 358.875 49.976562 C 358.664062 49.976562 358.484375 49.921875 358.328125 49.820312 C 358.171875 49.714844 358.09375 49.574219 358.09375 49.398438 L 358.09375 43.195312 L 353.015625 43.195312 L 353.015625 46.320312 C 353.015625 46.496094 352.941406 46.636719 352.796875 46.742188 C 352.660156 46.84375 352.492188 46.898438 352.296875 46.898438 C 352.128906 46.898438 351.972656 46.84375 351.828125 46.742188 C 351.691406 46.648438 351.625 46.507812 351.625 46.320312 L 351.625 43.195312 L 346.515625 43.195312 L 346.515625 49.398438 C 346.515625 49.574219 346.4375 49.714844 346.28125 49.820312 C 346.132812 49.921875 345.953125 49.976562 345.734375 49.976562 C 345.535156 49.976562 345.363281 49.921875 345.21875 49.820312 C 345.070312 49.726562 345 49.585938 345 49.398438 L 345 42.289062 C 345 42.078125 345.050781 41.898438 345.15625 41.742188 C 345.257812 41.59375 345.40625 41.523438 345.59375 41.523438 Z M 353.796875 50.613281 C 353.984375 50.613281 354.148438 50.726562 354.296875 50.957031 C 354.441406 51.195312 354.515625 51.433594 354.515625 51.675781 C 354.515625 51.957031 354.410156 52.136719 354.203125 52.222656 L 347.40625 54.753906 L 354.125 57.253906 C 354.382812 57.367188 354.515625 57.550781 354.515625 57.800781 C 354.515625 58.007812 354.441406 58.238281 354.296875 58.488281 C 354.148438 58.746094 353.984375 58.878906 353.796875 58.878906 C 353.691406 58.878906 353.585938 58.851562 353.484375 58.800781 L 345.1875 55.519531 C 344.9375 55.414062 344.8125 55.160156 344.8125 54.753906 C 344.8125 54.347656 344.9375 54.085938 345.1875 53.972656 L 353.484375 50.691406 C 353.640625 50.636719 353.742188 50.613281 353.796875 50.613281 Z M 348.71875 59.933594 L 350.8125 59.933594 C 351.84375 59.933594 352.726562 60.324219 353.46875 61.105469 C 354.21875 61.886719 354.59375 62.824219 354.59375 63.917969 C 354.59375 64.957031 354.242188 65.859375 353.546875 66.621094 C 352.847656 67.378906 351.972656 67.761719 350.921875 67.761719 C 350.535156 67.761719 350.222656 67.714844 349.984375 67.621094 C 349.753906 67.527344 349.585938 67.378906 349.484375 67.183594 C 349.390625 66.996094 349.328125 66.816406 349.296875 66.652344 C 349.273438 66.484375 349.265625 66.261719 349.265625 65.980469 L 349.265625 61.605469 L 348.65625 61.605469 C 347.925781 61.605469 347.335938 61.863281 346.890625 62.386719 C 346.453125 62.917969 346.234375 63.597656 346.234375 64.433594 C 346.234375 64.878906 346.300781 65.265625 346.4375 65.589844 C 346.570312 65.910156 346.703125 66.171875 346.828125 66.371094 C 346.953125 66.578125 347.015625 66.738281 347.015625 66.855469 C 347.015625 67.042969 346.929688 67.203125 346.765625 67.339844 C 346.597656 67.472656 346.429688 67.542969 346.265625 67.542969 C 345.953125 67.542969 345.632812 67.234375 345.3125 66.621094 C 345 66.015625 344.84375 65.269531 344.84375 64.386719 C 344.84375 63.074219 345.195312 62 345.90625 61.167969 C 346.625 60.34375 347.5625 59.933594 348.71875 59.933594 Z M 350.375 61.605469 L 350.375 65.308594 C 350.375 65.652344 350.414062 65.878906 350.5 65.996094 C 350.59375 66.121094 350.765625 66.183594 351.015625 66.183594 C 351.617188 66.183594 352.144531 65.957031 352.59375 65.511719 C 353.050781 65.074219 353.28125 64.535156 353.28125 63.902344 C 353.28125 63.277344 353.066406 62.734375 352.640625 62.277344 C 352.222656 61.828125 351.707031 61.605469 351.09375 61.605469 Z M 345.59375 69.609375 L 353.90625 69.609375 C 354.070312 69.609375 354.207031 69.679688 354.3125 69.828125 C 354.425781 69.984375 354.484375 70.179688 354.484375 70.421875 C 354.484375 70.628906 354.425781 70.804688 354.3125 70.953125 C 354.207031 71.109375 354.070312 71.1875 353.90625 71.1875 L 352.953125 71.1875 C 353.410156 71.425781 353.796875 71.773438 354.109375 72.234375 C 354.429688 72.703125 354.59375 73.222656 354.59375 73.796875 L 354.59375 74.484375 C 354.59375 74.648438 354.515625 74.796875 354.359375 74.921875 C 354.210938 75.054688 354.039062 75.125 353.84375 75.125 C 353.644531 75.125 353.46875 75.054688 353.3125 74.921875 C 353.164062 74.796875 353.09375 74.648438 353.09375 74.484375 L 353.09375 73.796875 C 353.09375 73.117188 352.816406 72.523438 352.265625 72.015625 C 351.722656 71.515625 351.019531 71.265625 350.15625 71.265625 L 345.59375 71.265625 C 345.445312 71.265625 345.3125 71.179688 345.1875 71.015625 C 345.0625 70.847656 345 70.648438 345 70.421875 C 345 70.191406 345.054688 70 345.171875 69.84375 C 345.296875 69.6875 345.4375 69.609375 345.59375 69.609375 Z M 353.796875 75.535156 C 354.015625 75.535156 354.203125 75.652344 354.359375 75.894531 C 354.515625 76.132812 354.59375 76.371094 354.59375 76.613281 C 354.59375 76.894531 354.484375 77.074219 354.265625 77.160156 L 347.296875 79.800781 L 354.265625 82.175781 C 354.484375 82.269531 354.59375 82.445312 354.59375 82.707031 C 354.59375 82.925781 354.515625 83.160156 354.359375 83.410156 C 354.203125 83.660156 354.007812 83.785156 353.78125 83.785156 C 353.71875 83.785156 353.648438 83.761719 353.578125 83.722656 L 345.4375 80.675781 L 344.4375 80.300781 C 344.25 80.238281 343.933594 80.101562 343.484375 79.894531 C 343.027344 79.695312 342.699219 79.527344 342.5 79.394531 C 342.304688 79.269531 342.042969 79.085938 341.71875 78.847656 C 341.386719 78.605469 341.148438 78.371094 341 78.144531 C 340.855469 77.914062 340.726562 77.644531 340.609375 77.332031 C 340.484375 77.019531 340.421875 76.691406 340.421875 76.347656 C 340.421875 75.824219 340.667969 75.566406 341.15625 75.566406 C 341.636719 75.566406 341.875 75.722656 341.875 76.035156 C 341.875 76.636719 342.214844 77.222656 342.890625 77.785156 C 343.570312 78.355469 344.433594 78.742188 345.484375 78.941406 L 353.578125 75.613281 C 353.660156 75.558594 353.734375 75.535156 353.796875 75.535156 Z M 345.15625 89.335938 L 359.78125 89.335938 C 359.957031 89.335938 360.097656 89.414062 360.203125 89.570312 C 360.304688 89.726562 360.359375 89.902344 360.359375 90.101562 L 360.359375 93.382812 C 360.359375 93.546875 360.285156 93.683594 360.140625 93.789062 C 359.992188 93.902344 359.820312 93.960938 359.625 93.960938 C 359.40625 93.960938 359.222656 93.902344 359.078125 93.789062 C 358.929688 93.683594 358.859375 93.546875 358.859375 93.382812 L 358.859375 91.023438 L 346.078125 91.023438 L 346.078125 93.382812 C 346.078125 93.546875 346.003906 93.683594 345.859375 93.789062 C 345.710938 93.902344 345.53125 93.960938 345.3125 93.960938 C 345.113281 93.960938 344.945312 93.902344 344.796875 93.789062 C 344.652344 93.683594 344.578125 93.546875 344.578125 93.382812 L 344.578125 90.101562 C 344.578125 89.902344 344.636719 89.726562 344.75 89.570312 C 344.855469 89.414062 344.992188 89.335938 345.15625 89.335938 Z M 348.28125 94.835938 C 348.582031 94.835938 348.785156 94.890625 348.890625 95.007812 C 349.003906 95.121094 349.0625 95.324219 349.0625 95.617188 C 349.0625 95.9375 349.003906 96.164062 348.890625 96.289062 C 348.785156 96.414062 348.625 96.476562 348.40625 96.476562 C 347.894531 96.476562 347.429688 96.6875 347.015625 97.117188 C 346.609375 97.554688 346.40625 98.214844 346.40625 99.101562 C 346.40625 100.882812 347.320312 101.773438 349.15625 101.773438 L 349.546875 101.773438 C 351.171875 101.773438 351.984375 100.882812 351.984375 99.101562 C 351.984375 98.714844 352.210938 98.523438 352.671875 98.523438 C 353.140625 98.523438 353.375 98.714844 353.375 99.101562 C 353.375 99.871094 353.546875 100.449219 353.890625 100.835938 C 354.242188 101.21875 354.875 101.414062 355.78125 101.414062 C 357.34375 101.414062 358.125 100.667969 358.125 99.179688 C 358.125 98.324219 357.929688 97.71875 357.546875 97.367188 C 357.171875 97.011719 356.722656 96.835938 356.203125 96.835938 C 355.703125 96.835938 355.453125 96.570312 355.453125 96.039062 C 355.453125 95.683594 355.507812 95.449219 355.625 95.335938 C 355.75 95.21875 355.976562 95.164062 356.3125 95.164062 C 356.644531 95.164062 356.988281 95.226562 357.34375 95.351562 C 357.695312 95.476562 358.050781 95.679688 358.40625 95.960938 C 358.757812 96.242188 359.050781 96.664062 359.28125 97.226562 C 359.507812 97.796875 359.625 98.464844 359.625 99.226562 C 359.625 101.765625 358.441406 103.039062 356.078125 103.039062 C 355.234375 103.039062 354.519531 102.890625 353.9375 102.601562 C 353.351562 102.308594 352.945312 101.914062 352.71875 101.414062 C 352.175781 102.777344 351.117188 103.460938 349.546875 103.460938 L 349.15625 103.460938 C 347.6875 103.460938 346.601562 103.058594 345.90625 102.257812 C 345.21875 101.453125 344.875 100.402344 344.875 99.101562 C 344.875 97.726562 345.222656 96.667969 345.921875 95.929688 C 346.628906 95.199219 347.414062 94.835938 348.28125 94.835938 Z M 345.921875 104.980469 C 346.210938 104.980469 346.460938 105.074219 346.671875 105.261719 C 346.878906 105.457031 346.984375 105.703125 346.984375 105.996094 C 346.984375 106.277344 346.878906 106.519531 346.671875 106.730469 C 346.472656 106.9375 346.222656 107.042969 345.921875 107.042969 C 345.679688 107.042969 344.875 106.753906 343.5 106.183594 C 343.3125 106.097656 343.21875 105.953125 343.21875 105.746094 C 343.21875 105.597656 343.265625 105.464844 343.359375 105.339844 C 343.445312 105.222656 343.558594 105.167969 343.703125 105.167969 C 343.796875 105.167969 343.871094 105.175781 343.921875 105.199219 L 344.953125 105.621094 C 345.128906 105.191406 345.453125 104.980469 345.921875 104.980469 Z M 348.34375 108.28125 C 348.875 108.28125 349.140625 108.5625 349.140625 109.125 C 349.140625 109.6875 348.910156 109.96875 348.453125 109.96875 C 347.816406 109.96875 347.316406 110.210938 346.953125 110.703125 C 346.585938 111.191406 346.40625 111.816406 346.40625 112.578125 C 346.40625 113.421875 346.632812 114.070312 347.09375 114.53125 C 347.5625 114.988281 348.265625 115.21875 349.203125 115.21875 L 349.578125 115.21875 C 350.484375 115.21875 351.164062 114.988281 351.625 114.53125 C 352.082031 114.070312 352.3125 113.425781 352.3125 112.59375 L 352.3125 109.765625 C 352.3125 109.242188 352.535156 108.984375 352.984375 108.984375 C 353.117188 108.984375 353.265625 108.992188 353.421875 109.015625 L 359.015625 109.4375 C 359.421875 109.46875 359.625 109.613281 359.625 109.875 L 359.625 115.640625 C 359.625 115.816406 359.546875 115.953125 359.390625 116.046875 C 359.234375 116.140625 359.054688 116.1875 358.859375 116.1875 C 358.660156 116.1875 358.484375 116.140625 358.328125 116.046875 C 358.171875 115.953125 358.09375 115.816406 358.09375 115.640625 L 358.09375 110.90625 L 353.71875 110.59375 L 353.71875 112.59375 C 353.71875 113.90625 353.382812 114.953125 352.71875 115.734375 C 352.050781 116.515625 351.003906 116.90625 349.578125 116.90625 L 349.203125 116.90625 C 347.722656 116.90625 346.628906 116.507812 345.921875 115.71875 C 345.222656 114.9375 344.875 113.894531 344.875 112.59375 C 344.875 111.257812 345.210938 110.207031 345.890625 109.4375 C 346.566406 108.664062 347.382812 108.28125 348.34375 108.28125 Z M 345.3125 117.839844 C 345.53125 117.839844 345.710938 117.890625 345.859375 117.996094 C 346.003906 118.109375 346.078125 118.25 346.078125 118.417969 L 346.078125 120.777344 L 358.859375 120.777344 L 358.859375 118.417969 C 358.859375 118.25 358.929688 118.109375 359.078125 117.996094 C 359.222656 117.890625 359.40625 117.839844 359.625 117.839844 C 359.820312 117.839844 359.992188 117.890625 360.140625 117.996094 C 360.285156 118.109375 360.359375 118.25 360.359375 118.417969 L 360.359375 121.699219 C 360.359375 121.894531 360.304688 122.074219 360.203125 122.230469 C 360.097656 122.386719 359.957031 122.464844 359.78125 122.464844 L 345.15625 122.464844 C 344.992188 122.464844 344.855469 122.386719 344.75 122.230469 C 344.636719 122.074219 344.578125 121.894531 344.578125 121.699219 L 344.578125 118.417969 C 344.578125 118.25 344.652344 118.109375 344.796875 117.996094 C 344.945312 117.890625 345.113281 117.839844 345.3125 117.839844 Z M 348.09375 128.902344 L 356.578125 128.902344 C 357.628906 128.902344 358.519531 129.285156 359.25 130.058594 C 359.988281 130.828125 360.359375 131.734375 360.359375 132.777344 C 360.359375 133.328125 360.113281 133.605469 359.625 133.605469 C 359.394531 133.605469 359.207031 133.546875 359.0625 133.433594 C 358.925781 133.328125 358.859375 133.191406 358.859375 133.027344 C 358.859375 132.285156 358.628906 131.691406 358.171875 131.246094 C 357.710938 130.796875 357.179688 130.574219 356.578125 130.574219 L 348.09375 130.574219 C 347.363281 130.574219 346.847656 130.8125 346.546875 131.292969 C 346.242188 131.78125 346.09375 132.359375 346.09375 133.027344 C 346.09375 133.410156 345.84375 133.605469 345.34375 133.605469 C 344.84375 133.605469 344.59375 133.316406 344.59375 132.746094 C 344.59375 131.660156 344.898438 130.75 345.5 130.011719 C 346.113281 129.269531 346.976562 128.902344 348.09375 128.902344 Z M 346.359375 134.554688 C 346.535156 134.554688 346.707031 134.609375 346.875 134.726562 C 347.039062 134.839844 347.125 134.980469 347.125 135.148438 C 347.125 135.25 347.039062 135.402344 346.875 135.601562 C 346.71875 135.796875 346.5625 136.085938 346.40625 136.460938 C 346.257812 136.835938 346.1875 137.273438 346.1875 137.773438 C 346.1875 138.4375 346.304688 138.921875 346.546875 139.226562 C 346.785156 139.527344 347.082031 139.679688 347.4375 139.679688 C 347.875 139.679688 348.222656 139.511719 348.484375 139.179688 C 348.742188 138.84375 348.941406 138.4375 349.078125 137.960938 C 349.210938 137.480469 349.359375 137 349.515625 136.523438 C 349.679688 136.042969 349.945312 135.636719 350.3125 135.304688 C 350.6875 134.96875 351.179688 134.804688 351.796875 134.804688 C 352.554688 134.804688 353.210938 135.070312 353.765625 135.601562 C 354.316406 136.140625 354.59375 136.96875 354.59375 138.085938 C 354.59375 138.792969 354.484375 139.4375 354.265625 140.023438 C 354.046875 140.605469 353.796875 140.898438 353.515625 140.898438 C 353.359375 140.898438 353.179688 140.835938 352.984375 140.710938 C 352.785156 140.585938 352.6875 140.429688 352.6875 140.242188 C 352.6875 140.1875 352.78125 139.929688 352.96875 139.460938 C 353.164062 139 353.265625 138.546875 353.265625 138.101562 C 353.265625 137.484375 353.117188 137.027344 352.828125 136.726562 C 352.546875 136.421875 352.222656 136.273438 351.859375 136.273438 C 351.484375 136.273438 351.1875 136.4375 350.96875 136.773438 C 350.757812 137.105469 350.59375 137.515625 350.46875 138.007812 C 350.351562 138.496094 350.207031 138.980469 350.03125 139.460938 C 349.863281 139.9375 349.566406 140.34375 349.140625 140.679688 C 348.722656 141.011719 348.179688 141.179688 347.515625 141.179688 C 346.691406 141.179688 346.039062 140.882812 345.5625 140.289062 C 345.082031 139.703125 344.84375 138.886719 344.84375 137.835938 C 344.84375 136.929688 345.003906 136.152344 345.328125 135.507812 C 345.648438 134.871094 345.992188 134.554688 346.359375 134.554688 Z M 345.59375 143.160156 L 359.625 143.160156 C 359.789062 143.160156 359.925781 143.230469 360.03125 143.378906 C 360.144531 143.535156 360.203125 143.730469 360.203125 143.972656 C 360.203125 144.222656 360.144531 144.425781 360.03125 144.582031 C 359.925781 144.738281 359.789062 144.816406 359.625 144.816406 L 345.59375 144.816406 C 345.445312 144.816406 345.3125 144.730469 345.1875 144.566406 C 345.0625 144.398438 345 144.199219 345 143.972656 C 345 143.753906 345.054688 143.558594 345.171875 143.394531 C 345.296875 143.238281 345.4375 143.160156 345.59375 143.160156 Z M 348.71875 146.992188 L 350.765625 146.992188 C 351.785156 146.992188 352.675781 147.382812 353.4375 148.164062 C 354.207031 148.945312 354.59375 149.867188 354.59375 150.929688 C 354.59375 152 354.210938 152.929688 353.453125 153.710938 C 352.691406 154.5 351.796875 154.898438 350.765625 154.898438 L 348.71875 154.898438 C 347.707031 154.898438 346.804688 154.5 346.015625 153.710938 C 345.234375 152.917969 344.84375 151.996094 344.84375 150.945312 C 344.84375 149.890625 345.234375 148.96875 346.015625 148.179688 C 346.796875 147.386719 347.695312 146.992188 348.71875 146.992188 Z M 348.71875 148.664062 C 348.09375 148.664062 347.539062 148.886719 347.0625 149.335938 C 346.582031 149.792969 346.34375 150.328125 346.34375 150.945312 C 346.34375 151.570312 346.582031 152.105469 347.0625 152.554688 C 347.550781 153.011719 348.101562 153.242188 348.71875 153.242188 L 350.765625 153.242188 C 351.359375 153.242188 351.894531 153.011719 352.375 152.554688 C 352.851562 152.105469 353.09375 151.5625 353.09375 150.929688 C 353.09375 150.304688 352.851562 149.765625 352.375 149.320312 C 351.894531 148.882812 351.359375 148.664062 350.765625 148.664062 Z M 353.796875 156 C 353.992188 156 354.160156 156.109375 354.296875 156.328125 C 354.441406 156.546875 354.515625 156.773438 354.515625 157.015625 C 354.515625 157.296875 354.410156 157.476562 354.203125 157.5625 L 347.484375 159.984375 L 353.546875 161.859375 C 353.804688 161.953125 353.9375 162.160156 353.9375 162.484375 C 353.9375 162.816406 353.804688 163.03125 353.546875 163.125 L 347.421875 164.953125 L 354.203125 167.40625 C 354.410156 167.46875 354.515625 167.640625 354.515625 167.921875 C 354.515625 168.160156 354.441406 168.390625 354.296875 168.609375 C 354.160156 168.835938 353.992188 168.953125 353.796875 168.953125 C 353.691406 168.953125 353.585938 168.925781 353.484375 168.875 L 345.1875 165.765625 C 344.9375 165.671875 344.8125 165.445312 344.8125 165.09375 C 344.8125 164.738281 344.9375 164.515625 345.1875 164.421875 L 351.0625 162.484375 L 345.234375 160.578125 C 344.953125 160.484375 344.8125 160.242188 344.8125 159.859375 C 344.8125 159.515625 344.953125 159.285156 345.234375 159.171875 L 353.484375 156.078125 C 353.640625 156.023438 353.742188 156 353.796875 156 Z M 345.59375 173.859375 L 347.546875 173.859375 C 348.140625 173.859375 348.726562 174.085938 349.3125 174.546875 C 349.894531 175.003906 350.414062 175.5625 350.875 176.21875 L 352.3125 178.15625 C 352.78125 178.8125 353.304688 179.367188 353.890625 179.828125 C 354.472656 180.285156 355.0625 180.515625 355.65625 180.515625 C 356.300781 180.515625 356.863281 180.304688 357.34375 179.890625 C 357.820312 179.472656 358.0625 178.867188 358.0625 178.078125 C 358.0625 177.410156 357.875 176.863281 357.5 176.4375 C 357.125 176.019531 356.582031 175.8125 355.875 175.8125 C 355.707031 175.8125 355.554688 175.734375 355.421875 175.578125 C 355.285156 175.421875 355.21875 175.207031 355.21875 174.9375 C 355.21875 174.425781 355.546875 174.171875 356.203125 174.171875 C 357.203125 174.171875 358.019531 174.546875 358.65625 175.296875 C 359.300781 176.054688 359.625 176.984375 359.625 178.078125 C 359.625 179.253906 359.253906 180.234375 358.515625 181.015625 C 357.773438 181.804688 356.84375 182.203125 355.71875 182.203125 C 355.050781 182.203125 354.410156 182.035156 353.796875 181.703125 C 353.179688 181.378906 352.660156 180.972656 352.234375 180.484375 C 351.804688 180.003906 351.378906 179.476562 350.953125 178.90625 L 349.8125 177.296875 C 349.476562 176.816406 349.113281 176.410156 348.71875 176.078125 C 348.320312 175.753906 347.929688 175.59375 347.546875 175.59375 L 346.515625 175.59375 L 346.515625 181.734375 C 346.515625 181.898438 346.441406 182.035156 346.296875 182.140625 C 346.148438 182.253906 345.972656 182.3125 345.765625 182.3125 C 345.554688 182.3125 345.375 182.253906 345.21875 182.140625 C 345.070312 182.035156 345 181.898438 345 181.734375 L 345 174.625 C 345 174.445312 345.054688 174.273438 345.171875 174.109375 C 345.285156 173.941406 345.425781 173.859375 345.59375 173.859375 Z M 345.34375 183.257812 C 345.84375 183.257812 346.09375 183.449219 346.09375 183.835938 C 346.09375 184.5 346.242188 185.074219 346.546875 185.554688 C 346.847656 186.03125 347.363281 186.273438 348.09375 186.273438 L 356.578125 186.273438 C 357.179688 186.273438 357.710938 186.046875 358.171875 185.601562 C 358.628906 185.164062 358.859375 184.574219 358.859375 183.835938 C 358.859375 183.667969 358.925781 183.527344 359.0625 183.414062 C 359.207031 183.308594 359.394531 183.257812 359.625 183.257812 C 360.113281 183.257812 360.359375 183.53125 360.359375 184.085938 C 360.359375 185.117188 359.988281 186.015625 359.25 186.789062 C 358.519531 187.570312 357.628906 187.960938 356.578125 187.960938 L 348.09375 187.960938 C 346.976562 187.960938 346.113281 187.589844 345.5 186.851562 C 344.898438 186.109375 344.59375 185.195312 344.59375 184.101562 C 344.59375 183.539062 344.84375 183.257812 345.34375 183.257812 Z M 347.296875 193.804688 C 347.515625 193.804688 347.722656 193.875 347.921875 194.023438 C 348.117188 194.179688 348.21875 194.351562 348.21875 194.539062 C 348.21875 194.640625 348.132812 194.789062 347.96875 194.976562 C 347.8125 195.164062 347.632812 195.351562 347.4375 195.539062 C 347.25 195.734375 347.070312 196.042969 346.90625 196.460938 C 346.738281 196.875 346.644531 197.34375 346.625 197.867188 L 351.9375 197.867188 L 352.34375 196.789062 C 352.4375 196.527344 352.59375 196.199219 352.8125 195.804688 C 353.039062 195.417969 353.269531 195.125 353.5 194.929688 C 353.738281 194.742188 354.054688 194.5625 354.453125 194.398438 C 354.847656 194.242188 355.289062 194.164062 355.78125 194.164062 C 356.382812 194.164062 356.914062 194.265625 357.375 194.476562 C 357.832031 194.695312 358.191406 194.984375 358.453125 195.351562 C 358.722656 195.714844 358.925781 196.105469 359.0625 196.523438 C 359.207031 196.9375 359.300781 197.386719 359.34375 197.867188 L 359.9375 197.867188 C 360.039062 197.867188 360.132812 197.914062 360.21875 198.007812 C 360.3125 198.109375 360.359375 198.234375 360.359375 198.382812 C 360.359375 198.515625 360.3125 198.636719 360.21875 198.742188 C 360.132812 198.84375 360.039062 198.898438 359.9375 198.898438 L 359.375 198.898438 C 359.332031 199.699219 359.195312 200.421875 358.96875 201.070312 C 358.738281 201.726562 358.4375 202.054688 358.0625 202.054688 C 357.875 202.054688 357.671875 201.984375 357.453125 201.851562 C 357.242188 201.726562 357.140625 201.554688 357.140625 201.335938 C 357.140625 201.273438 357.253906 200.992188 357.484375 200.492188 C 357.722656 200 357.851562 199.46875 357.875 198.898438 L 353.3125 198.898438 C 353.132812 199.417969 352.953125 199.84375 352.765625 200.179688 C 352.585938 200.523438 352.34375 200.882812 352.03125 201.257812 C 351.71875 201.640625 351.316406 201.929688 350.828125 202.117188 C 350.335938 202.3125 349.769531 202.414062 349.125 202.414062 C 347.945312 202.414062 347.015625 202.09375 346.328125 201.460938 C 345.648438 200.835938 345.238281 199.980469 345.09375 198.898438 L 344.375 198.898438 C 344.273438 198.898438 344.179688 198.84375 344.09375 198.742188 C 344 198.636719 343.953125 198.515625 343.953125 198.382812 C 343.953125 198.234375 344 198.109375 344.09375 198.007812 C 344.179688 197.914062 344.273438 197.867188 344.375 197.867188 L 345.046875 197.867188 C 345.054688 196.71875 345.3125 195.757812 345.8125 194.976562 C 346.320312 194.195312 346.816406 193.804688 347.296875 193.804688 Z M 355.9375 195.757812 C 355.3125 195.757812 354.84375 195.933594 354.53125 196.289062 C 354.21875 196.652344 353.925781 197.203125 353.65625 197.945312 L 357.859375 197.945312 C 357.710938 196.484375 357.070312 195.757812 355.9375 195.757812 Z M 346.65625 198.820312 C 346.875 200.152344 347.640625 200.820312 348.953125 200.820312 C 349.648438 200.820312 350.191406 200.648438 350.578125 200.304688 C 350.960938 199.960938 351.289062 199.464844 351.5625 198.820312 Z M 348.71875 208.03125 L 350.765625 208.03125 C 351.816406 208.03125 352.71875 208.382812 353.46875 209.09375 C 354.21875 209.800781 354.59375 210.644531 354.59375 211.625 C 354.59375 212.21875 354.445312 212.738281 354.15625 213.1875 C 353.863281 213.644531 353.503906 213.992188 353.078125 214.234375 L 359.625 214.234375 C 359.789062 214.234375 359.925781 214.3125 360.03125 214.46875 C 360.144531 214.632812 360.203125 214.835938 360.203125 215.078125 C 360.203125 215.316406 360.144531 215.515625 360.03125 215.671875 C 359.925781 215.828125 359.789062 215.90625 359.625 215.90625 L 345.59375 215.90625 C 345.4375 215.90625 345.296875 215.820312 345.171875 215.65625 C 345.054688 215.5 345 215.304688 345 215.078125 C 345 214.878906 345.054688 214.703125 345.171875 214.546875 C 345.296875 214.390625 345.4375 214.3125 345.59375 214.3125 L 346.40625 214.3125 C 345.976562 214.09375 345.609375 213.726562 345.296875 213.21875 C 344.996094 212.707031 344.84375 212.15625 344.84375 211.5625 C 344.84375 210.625 345.234375 209.800781 346.015625 209.09375 C 346.804688 208.382812 347.707031 208.03125 348.71875 208.03125 Z M 348.71875 209.703125 C 348.101562 209.703125 347.550781 209.925781 347.0625 210.375 C 346.582031 210.832031 346.34375 211.359375 346.34375 211.953125 C 346.34375 212.546875 346.566406 213.070312 347.015625 213.53125 C 347.460938 214 347.851562 214.234375 348.1875 214.234375 L 350.765625 214.234375 C 351.453125 214.234375 352.007812 214.003906 352.4375 213.546875 C 352.875 213.097656 353.09375 212.578125 353.09375 211.984375 C 353.09375 211.367188 352.851562 210.832031 352.375 210.375 C 351.894531 209.925781 351.359375 209.703125 350.765625 209.703125 Z M 348.71875 217.914062 L 350.8125 217.914062 C 351.84375 217.914062 352.726562 218.304688 353.46875 219.085938 C 354.21875 219.867188 354.59375 220.804688 354.59375 221.898438 C 354.59375 222.9375 354.242188 223.839844 353.546875 224.601562 C 352.847656 225.359375 351.972656 225.742188 350.921875 225.742188 C 350.535156 225.742188 350.222656 225.695312 349.984375 225.601562 C 349.753906 225.507812 349.585938 225.359375 349.484375 225.164062 C 349.390625 224.976562 349.328125 224.796875 349.296875 224.632812 C 349.273438 224.464844 349.265625 224.242188 349.265625 223.960938 L 349.265625 219.585938 L 348.65625 219.585938 C 347.925781 219.585938 347.335938 219.84375 346.890625 220.367188 C 346.453125 220.898438 346.234375 221.578125 346.234375 222.414062 C 346.234375 222.859375 346.300781 223.246094 346.4375 223.570312 C 346.570312 223.890625 346.703125 224.152344 346.828125 224.351562 C 346.953125 224.558594 347.015625 224.71875 347.015625 224.835938 C 347.015625 225.023438 346.929688 225.183594 346.765625 225.320312 C 346.597656 225.453125 346.429688 225.523438 346.265625 225.523438 C 345.953125 225.523438 345.632812 225.214844 345.3125 224.601562 C 345 223.996094 344.84375 223.25 344.84375 222.367188 C 344.84375 221.054688 345.195312 219.980469 345.90625 219.148438 C 346.625 218.324219 347.5625 217.914062 348.71875 217.914062 Z M 350.375 219.585938 L 350.375 223.289062 C 350.375 223.632812 350.414062 223.859375 350.5 223.976562 C 350.59375 224.101562 350.765625 224.164062 351.015625 224.164062 C 351.617188 224.164062 352.144531 223.9375 352.59375 223.492188 C 353.050781 223.054688 353.28125 222.515625 353.28125 221.882812 C 353.28125 221.257812 353.066406 220.714844 352.640625 220.257812 C 352.222656 219.808594 351.707031 219.585938 351.09375 219.585938 Z M 345.59375 227.585938 L 353.90625 227.585938 C 354.070312 227.585938 354.207031 227.65625 354.3125 227.804688 C 354.425781 227.960938 354.484375 228.15625 354.484375 228.398438 C 354.484375 228.59375 354.425781 228.773438 354.3125 228.929688 C 354.195312 229.085938 354.0625 229.164062 353.90625 229.164062 L 353.078125 229.164062 C 353.503906 229.371094 353.863281 229.710938 354.15625 230.179688 C 354.445312 230.65625 354.59375 231.210938 354.59375 231.835938 C 354.59375 232.78125 354.21875 233.605469 353.46875 234.304688 C 352.71875 235 351.816406 235.351562 350.765625 235.351562 L 345.59375 235.351562 C 345.40625 235.351562 345.257812 235.265625 345.15625 235.101562 C 345.050781 234.933594 345 234.742188 345 234.523438 C 345 234.304688 345.050781 234.109375 345.15625 233.945312 C 345.257812 233.777344 345.40625 233.695312 345.59375 233.695312 L 350.765625 233.695312 C 351.359375 233.695312 351.894531 233.464844 352.375 233.007812 C 352.851562 232.558594 353.09375 232.027344 353.09375 231.414062 C 353.09375 230.839844 352.875 230.335938 352.4375 229.898438 C 352.007812 229.460938 351.453125 229.242188 350.765625 229.242188 L 345.59375 229.242188 C 345.445312 229.242188 345.3125 229.152344 345.1875 228.976562 C 345.0625 228.796875 345 228.605469 345 228.398438 C 345 228.167969 345.054688 227.976562 345.171875 227.820312 C 345.296875 227.664062 345.4375 227.585938 345.59375 227.585938 Z M 346.359375 237.054688 C 346.535156 237.054688 346.707031 237.109375 346.875 237.226562 C 347.039062 237.339844 347.125 237.480469 347.125 237.648438 C 347.125 237.75 347.039062 237.902344 346.875 238.101562 C 346.71875 238.296875 346.5625 238.585938 346.40625 238.960938 C 346.257812 239.335938 346.1875 239.773438 346.1875 240.273438 C 346.1875 240.9375 346.304688 241.421875 346.546875 241.726562 C 346.785156 242.027344 347.082031 242.179688 347.4375 242.179688 C 347.875 242.179688 348.222656 242.011719 348.484375 241.679688 C 348.742188 241.34375 348.941406 240.9375 349.078125 240.460938 C 349.210938 239.980469 349.359375 239.5 349.515625 239.023438 C 349.679688 238.542969 349.945312 238.136719 350.3125 237.804688 C 350.6875 237.46875 351.179688 237.304688 351.796875 237.304688 C 352.554688 237.304688 353.210938 237.570312 353.765625 238.101562 C 354.316406 238.640625 354.59375 239.46875 354.59375 240.585938 C 354.59375 241.292969 354.484375 241.9375 354.265625 242.523438 C 354.046875 243.105469 353.796875 243.398438 353.515625 243.398438 C 353.359375 243.398438 353.179688 243.335938 352.984375 243.210938 C 352.785156 243.085938 352.6875 242.929688 352.6875 242.742188 C 352.6875 242.6875 352.78125 242.429688 352.96875 241.960938 C 353.164062 241.5 353.265625 241.046875 353.265625 240.601562 C 353.265625 239.984375 353.117188 239.527344 352.828125 239.226562 C 352.546875 238.921875 352.222656 238.773438 351.859375 238.773438 C 351.484375 238.773438 351.1875 238.9375 350.96875 239.273438 C 350.757812 239.605469 350.59375 240.015625 350.46875 240.507812 C 350.351562 240.996094 350.207031 241.480469 350.03125 241.960938 C 349.863281 242.4375 349.566406 242.84375 349.140625 243.179688 C 348.722656 243.511719 348.179688 243.679688 347.515625 243.679688 C 346.691406 243.679688 346.039062 243.382812 345.5625 242.789062 C 345.082031 242.203125 344.84375 241.386719 344.84375 240.335938 C 344.84375 239.429688 345.003906 238.652344 345.328125 238.007812 C 345.648438 237.371094 345.992188 237.054688 346.359375 237.054688 Z M 357.359375 245.566406 C 357.554688 245.355469 357.78125 245.253906 358.03125 245.253906 C 358.289062 245.253906 358.515625 245.351562 358.703125 245.550781 C 358.890625 245.757812 358.984375 246.007812 358.984375 246.300781 C 358.984375 246.582031 358.890625 246.820312 358.703125 247.019531 C 358.515625 247.214844 358.289062 247.316406 358.03125 247.316406 C 357.78125 247.316406 357.554688 247.214844 357.359375 247.019531 C 357.171875 246.820312 357.078125 246.582031 357.078125 246.300781 C 357.078125 246.019531 357.171875 245.773438 357.359375 245.566406 Z M 345.59375 245.488281 L 353.90625 245.488281 C 354.070312 245.488281 354.207031 245.566406 354.3125 245.722656 C 354.425781 245.878906 354.484375 246.070312 354.484375 246.300781 C 354.484375 246.539062 354.425781 246.738281 354.3125 246.894531 C 354.207031 247.058594 354.070312 247.144531 353.90625 247.144531 L 345.59375 247.144531 C 345.445312 247.144531 345.3125 247.058594 345.1875 246.894531 C 345.0625 246.726562 345 246.527344 345 246.300781 C 345 246.070312 345.054688 245.878906 345.171875 245.722656 C 345.296875 245.566406 345.4375 245.488281 345.59375 245.488281 Z M 348.015625 249.460938 L 358.3125 249.460938 C 358.476562 249.460938 358.617188 249.542969 358.734375 249.710938 C 358.847656 249.886719 358.90625 250.074219 358.90625 250.273438 C 358.90625 250.492188 358.847656 250.683594 358.734375 250.851562 C 358.617188 251.027344 358.476562 251.117188 358.3125 251.117188 L 354.484375 251.117188 L 354.484375 253.632812 C 354.484375 253.789062 354.414062 253.90625 354.28125 253.992188 C 354.144531 254.085938 353.988281 254.132812 353.8125 254.132812 C 353.644531 254.132812 353.5 254.085938 353.375 253.992188 C 353.25 253.90625 353.1875 253.789062 353.1875 253.632812 L 353.1875 251.117188 L 348.015625 251.117188 C 347.441406 251.117188 347.035156 251.242188 346.796875 251.492188 C 346.566406 251.742188 346.453125 252.167969 346.453125 252.773438 L 346.453125 253.398438 C 346.453125 253.625 346.382812 253.804688 346.25 253.929688 C 346.113281 254.054688 345.941406 254.117188 345.734375 254.117188 C 345.535156 254.117188 345.363281 254.046875 345.21875 253.914062 C 345.070312 253.789062 345 253.617188 345 253.398438 L 345 252.773438 C 345 250.5625 346.003906 249.460938 348.015625 249.460938 Z M 353.796875 254.753906 C 354.015625 254.753906 354.203125 254.871094 354.359375 255.113281 C 354.515625 255.351562 354.59375 255.589844 354.59375 255.832031 C 354.59375 256.113281 354.484375 256.292969 354.265625 256.378906 L 347.296875 259.019531 L 354.265625 261.394531 C 354.484375 261.488281 354.59375 261.664062 354.59375 261.925781 C 354.59375 262.144531 354.515625 262.378906 354.359375 262.628906 C 354.203125 262.878906 354.007812 263.003906 353.78125 263.003906 C 353.71875 263.003906 353.648438 262.980469 353.578125 262.941406 L 345.4375 259.894531 L 344.4375 259.519531 C 344.25 259.457031 343.933594 259.320312 343.484375 259.113281 C 343.027344 258.914062 342.699219 258.746094 342.5 258.613281 C 342.304688 258.488281 342.042969 258.304688 341.71875 258.066406 C 341.386719 257.824219 341.148438 257.589844 341 257.363281 C 340.855469 257.132812 340.726562 256.863281 340.609375 256.550781 C 340.484375 256.238281 340.421875 255.910156 340.421875 255.566406 C 340.421875 255.042969 340.667969 254.785156 341.15625 254.785156 C 341.636719 254.785156 341.875 254.941406 341.875 255.253906 C 341.875 255.855469 342.214844 256.441406 342.890625 257.003906 C 343.570312 257.574219 344.433594 257.960938 345.484375 258.160156 L 353.578125 254.832031 C 353.660156 254.777344 353.734375 254.753906 353.796875 254.753906 Z M 356.5 267.449219 C 356.78125 267.449219 357.015625 267.566406 357.203125 267.808594 L 359.375 269.636719 C 359.550781 269.8125 359.640625 269.988281 359.640625 270.167969 C 359.640625 270.355469 359.582031 270.519531 359.46875 270.667969 C 359.363281 270.824219 359.222656 270.902344 359.046875 270.902344 L 345.59375 270.902344 C 345.40625 270.902344 345.257812 270.816406 345.15625 270.652344 C 345.050781 270.484375 345 270.285156 345 270.058594 C 345 269.828125 345.050781 269.628906 345.15625 269.464844 C 345.257812 269.296875 345.40625 269.214844 345.59375 269.214844 L 357.125 269.214844 L 356.015625 268.480469 C 355.867188 268.34375 355.796875 268.203125 355.796875 268.058594 C 355.796875 267.890625 355.863281 267.746094 356 267.621094 C 356.144531 267.503906 356.3125 267.449219 356.5 267.449219 Z M 349.234375 273.3125 L 355.265625 273.3125 C 356.765625 273.3125 357.863281 273.707031 358.5625 274.5 C 359.269531 275.300781 359.625 276.367188 359.625 277.703125 C 359.625 279.035156 359.273438 280.070312 358.578125 280.8125 C 357.890625 281.5625 357.078125 281.9375 356.140625 281.9375 C 355.648438 281.9375 355.40625 281.675781 355.40625 281.15625 C 355.40625 280.570312 355.625 280.28125 356.0625 280.28125 C 356.675781 280.28125 357.164062 280.03125 357.53125 279.53125 C 357.90625 279.03125 358.09375 278.40625 358.09375 277.65625 C 358.09375 275.882812 357.148438 275 355.265625 275 L 352.453125 275 C 353.285156 275.632812 353.703125 276.609375 353.703125 277.921875 C 353.703125 280.597656 352.351562 281.9375 349.65625 281.9375 L 349.234375 281.9375 C 347.734375 281.9375 346.628906 281.546875 345.921875 280.765625 C 345.222656 279.984375 344.875 278.9375 344.875 277.625 C 344.875 276.320312 345.222656 275.273438 345.921875 274.484375 C 346.628906 273.703125 347.734375 273.3125 349.234375 273.3125 Z M 349.15625 275 C 347.257812 275 346.3125 275.878906 346.3125 277.640625 C 346.3125 279.390625 347.257812 280.265625 349.15625 280.265625 L 349.578125 280.265625 C 351.390625 280.265625 352.296875 279.390625 352.296875 277.640625 C 352.296875 275.878906 351.453125 275 349.765625 275 Z M 345 286.738281 "/>
<path style=" stroke:none;fill-rule:nonzero;fill:rgb(0%,0%,0%);fill-opacity:1;" d="M 327.296875 10.703125 C 327.515625 10.703125 327.722656 10.773438 327.921875 10.921875 C 328.117188 11.078125 328.21875 11.25 328.21875 11.4375 C 328.21875 11.539062 328.132812 11.6875 327.96875 11.875 C 327.8125 12.0625 327.632812 12.25 327.4375 12.4375 C 327.25 12.632812 327.070312 12.941406 326.90625 13.359375 C 326.738281 13.773438 326.644531 14.242188 326.625 14.765625 L 331.9375 14.765625 L 332.34375 13.6875 C 332.4375 13.425781 332.59375 13.097656 332.8125 12.703125 C 333.039062 12.316406 333.269531 12.023438 333.5 11.828125 C 333.738281 11.640625 334.054688 11.460938 334.453125 11.296875 C 334.847656 11.140625 335.289062 11.0625 335.78125 11.0625 C 336.382812 11.0625 336.914062 11.164062 337.375 11.375 C 337.832031 11.59375 338.191406 11.882812 338.453125 12.25 C 338.722656 12.613281 338.925781 13.003906 339.0625 13.421875 C 339.207031 13.835938 339.300781 14.285156 339.34375 14.765625 L 339.9375 14.765625 C 340.039062 14.765625 340.132812 14.8125 340.21875 14.90625 C 340.3125 15.007812 340.359375 15.132812 340.359375 15.28125 C 340.359375 15.414062 340.3125 15.535156 340.21875 15.640625 C 340.132812 15.742188 340.039062 15.796875 339.9375 15.796875 L 339.375 15.796875 C 339.332031 16.597656 339.195312 17.320312 338.96875 17.96875 C 338.738281 18.625 338.4375 18.953125 338.0625 18.953125 C 337.875 18.953125 337.671875 18.882812 337.453125 18.75 C 337.242188 18.625 337.140625 18.453125 337.140625 18.234375 C 337.140625 18.171875 337.253906 17.890625 337.484375 17.390625 C 337.722656 16.898438 337.851562 16.367188 337.875 15.796875 L 333.3125 15.796875 C 333.132812 16.316406 332.953125 16.742188 332.765625 17.078125 C 332.585938 17.421875 332.34375 17.78125 332.03125 18.15625 C 331.71875 18.539062 331.316406 18.828125 330.828125 19.015625 C 330.335938 19.210938 329.769531 19.3125 329.125 19.3125 C 327.945312 19.3125 327.015625 18.992188 326.328125 18.359375 C 325.648438 17.734375 325.238281 16.878906 325.09375 15.796875 L 324.375 15.796875 C 324.273438 15.796875 324.179688 15.742188 324.09375 15.640625 C 324 15.535156 323.953125 15.414062 323.953125 15.28125 C 323.953125 15.132812 324 15.007812 324.09375 14.90625 C 324.179688 14.8125 324.273438 14.765625 324.375 14.765625 L 325.046875 14.765625 C 325.054688 13.617188 325.3125 12.65625 325.8125 11.875 C 326.320312 11.09375 326.816406 10.703125 327.296875 10.703125 Z M 335.9375 12.65625 C 335.3125 12.65625 334.84375 12.832031 334.53125 13.1875 C 334.21875 13.550781 333.925781 14.101562 333.65625 14.84375 L 337.859375 14.84375 C 337.710938 13.382812 337.070312 12.65625 335.9375 12.65625 Z M 326.65625 15.71875 C 326.875 17.050781 327.640625 17.71875 328.953125 17.71875 C 329.648438 17.71875 330.191406 17.546875 330.578125 17.203125 C 330.960938 16.859375 331.289062 16.363281 331.5625 15.71875 Z M 339.859375 24.824219 C 340.003906 24.824219 340.125 24.894531 340.21875 25.042969 C 340.3125 25.1875 340.359375 25.355469 340.359375 25.542969 C 340.359375 25.730469 340.3125 25.894531 340.21875 26.042969 C 340.125 26.199219 340.003906 26.277344 339.859375 26.277344 L 336.953125 26.074219 C 336.804688 26.074219 336.679688 26.027344 336.578125 25.933594 C 336.484375 25.847656 336.4375 25.71875 336.4375 25.542969 C 336.4375 25.199219 336.609375 25.027344 336.953125 25.027344 Z M 339.859375 27.542969 C 340.003906 27.542969 340.125 27.613281 340.21875 27.761719 C 340.3125 27.90625 340.359375 28.074219 340.359375 28.261719 C 340.359375 28.449219 340.3125 28.613281 340.21875 28.761719 C 340.125 28.917969 340.003906 28.996094 339.859375 28.996094 L 336.953125 28.808594 C 336.804688 28.808594 336.679688 28.761719 336.578125 28.667969 C 336.484375 28.574219 336.4375 28.4375 336.4375 28.261719 C 336.4375 27.917969 336.609375 27.746094 336.953125 27.746094 Z M 323.125 30.136719 C 324.09375 30.136719 324.820312 30.675781 325.296875 31.761719 C 325.554688 31.082031 326.003906 30.746094 326.640625 30.746094 C 327.253906 30.746094 327.75 31.078125 328.125 31.746094 C 328.738281 30.984375 329.578125 30.605469 330.640625 30.605469 L 331.296875 30.605469 C 332.273438 30.605469 333.066406 30.925781 333.671875 31.574219 C 334.285156 32.230469 334.59375 33.089844 334.59375 34.152344 C 334.59375 35.058594 334.332031 35.839844 333.8125 36.496094 C 334.6875 36.902344 335.125 37.355469 335.125 37.855469 C 335.125 38.074219 335.054688 38.246094 334.921875 38.371094 C 334.796875 38.503906 334.65625 38.574219 334.5 38.574219 C 334.300781 38.574219 334.148438 38.464844 334.046875 38.246094 C 333.921875 37.785156 333.640625 37.421875 333.203125 37.152344 C 332.703125 37.566406 332.066406 37.777344 331.296875 37.777344 L 330.640625 37.777344 C 329.679688 37.777344 328.882812 37.4375 328.25 36.761719 C 327.625 36.082031 327.3125 35.214844 327.3125 34.152344 C 327.3125 33.609375 327.414062 33.121094 327.625 32.683594 C 327.414062 32.347656 327.1875 32.183594 326.9375 32.183594 C 326.6875 32.183594 326.488281 32.332031 326.34375 32.636719 C 326.207031 32.949219 326.125 33.328125 326.09375 33.777344 C 326.0625 34.234375 326 34.730469 325.90625 35.261719 C 325.8125 35.792969 325.6875 36.28125 325.53125 36.730469 C 325.382812 37.1875 325.128906 37.566406 324.765625 37.871094 C 324.390625 38.183594 323.917969 38.339844 323.34375 38.339844 C 322.398438 38.339844 321.671875 37.957031 321.171875 37.199219 C 320.671875 36.449219 320.421875 35.472656 320.421875 34.277344 C 320.421875 33.078125 320.667969 32.089844 321.15625 31.308594 C 321.636719 30.527344 322.292969 30.136719 323.125 30.136719 Z M 323.296875 31.714844 C 322.777344 31.714844 322.359375 31.941406 322.046875 32.402344 C 321.734375 32.871094 321.578125 33.488281 321.578125 34.261719 C 321.578125 35.011719 321.734375 35.605469 322.046875 36.042969 C 322.359375 36.488281 322.777344 36.714844 323.296875 36.714844 C 323.515625 36.714844 323.703125 36.675781 323.859375 36.605469 C 324.015625 36.53125 324.152344 36.410156 324.265625 36.246094 C 324.371094 36.089844 324.460938 35.933594 324.53125 35.777344 C 324.605469 35.621094 324.667969 35.410156 324.71875 35.152344 C 324.761719 34.902344 324.792969 34.691406 324.8125 34.527344 C 324.835938 34.359375 324.859375 34.140625 324.890625 33.871094 C 324.914062 33.597656 324.929688 33.40625 324.9375 33.292969 C 324.59375 32.238281 324.046875 31.714844 323.296875 31.714844 Z M 330.65625 32.214844 C 330.019531 32.214844 329.492188 32.390625 329.078125 32.746094 C 328.660156 33.097656 328.453125 33.582031 328.453125 34.199219 C 328.453125 34.78125 328.65625 35.25 329.0625 35.605469 C 329.476562 35.96875 330.003906 36.152344 330.640625 36.152344 L 331.296875 36.152344 C 331.910156 36.152344 332.421875 35.96875 332.828125 35.605469 C 333.242188 35.25 333.453125 34.777344 333.453125 34.183594 C 333.453125 33.566406 333.25 33.082031 332.84375 32.730469 C 332.4375 32.386719 331.921875 32.214844 331.296875 32.214844 Z M 325.59375 40.027344 L 333.90625 40.027344 C 334.070312 40.027344 334.207031 40.097656 334.3125 40.246094 C 334.425781 40.402344 334.484375 40.597656 334.484375 40.839844 C 334.484375 41.046875 334.425781 41.222656 334.3125 41.371094 C 334.207031 41.527344 334.070312 41.605469 333.90625 41.605469 L 332.953125 41.605469 C 333.410156 41.84375 333.796875 42.191406 334.109375 42.652344 C 334.429688 43.121094 334.59375 43.640625 334.59375 44.214844 L 334.59375 44.902344 C 334.59375 45.066406 334.515625 45.214844 334.359375 45.339844 C 334.210938 45.472656 334.039062 45.542969 333.84375 45.542969 C 333.644531 45.542969 333.46875 45.472656 333.3125 45.339844 C 333.164062 45.214844 333.09375 45.066406 333.09375 44.902344 L 333.09375 44.214844 C 333.09375 43.535156 332.816406 42.941406 332.265625 42.433594 C 331.722656 41.933594 331.019531 41.683594 330.15625 41.683594 L 325.59375 41.683594 C 325.445312 41.683594 325.3125 41.597656 325.1875 41.433594 C 325.0625 41.265625 325 41.066406 325 40.839844 C 325 40.609375 325.054688 40.417969 325.171875 40.261719 C 325.296875 40.105469 325.4375 40.027344 325.59375 40.027344 Z M 328.71875 46.53125 L 330.8125 46.53125 C 331.84375 46.53125 332.726562 46.921875 333.46875 47.703125 C 334.21875 48.484375 334.59375 49.421875 334.59375 50.515625 C 334.59375 51.554688 334.242188 52.457031 333.546875 53.21875 C 332.847656 53.976562 331.972656 54.359375 330.921875 54.359375 C 330.535156 54.359375 330.222656 54.3125 329.984375 54.21875 C 329.753906 54.125 329.585938 53.976562 329.484375 53.78125 C 329.390625 53.59375 329.328125 53.414062 329.296875 53.25 C 329.273438 53.082031 329.265625 52.859375 329.265625 52.578125 L 329.265625 48.203125 L 328.65625 48.203125 C 327.925781 48.203125 327.335938 48.460938 326.890625 48.984375 C 326.453125 49.515625 326.234375 50.195312 326.234375 51.03125 C 326.234375 51.476562 326.300781 51.863281 326.4375 52.1875 C 326.570312 52.507812 326.703125 52.769531 326.828125 52.96875 C 326.953125 53.175781 327.015625 53.335938 327.015625 53.453125 C 327.015625 53.640625 326.929688 53.800781 326.765625 53.9375 C 326.597656 54.070312 326.429688 54.140625 326.265625 54.140625 C 325.953125 54.140625 325.632812 53.832031 325.3125 53.21875 C 325 52.613281 324.84375 51.867188 324.84375 50.984375 C 324.84375 49.671875 325.195312 48.597656 325.90625 47.765625 C 326.625 46.941406 327.5625 46.53125 328.71875 46.53125 Z M 330.375 48.203125 L 330.375 51.90625 C 330.375 52.25 330.414062 52.476562 330.5 52.59375 C 330.59375 52.71875 330.765625 52.78125 331.015625 52.78125 C 331.617188 52.78125 332.144531 52.554688 332.59375 52.109375 C 333.050781 51.671875 333.28125 51.132812 333.28125 50.5 C 333.28125 49.875 333.066406 49.332031 332.640625 48.875 C 332.222656 48.425781 331.707031 48.203125 331.09375 48.203125 Z M 333.796875 55.253906 C 334.015625 55.253906 334.203125 55.371094 334.359375 55.613281 C 334.515625 55.851562 334.59375 56.089844 334.59375 56.332031 C 334.59375 56.613281 334.484375 56.792969 334.265625 56.878906 L 327.296875 59.519531 L 334.265625 61.894531 C 334.484375 61.988281 334.59375 62.164062 334.59375 62.425781 C 334.59375 62.644531 334.515625 62.878906 334.359375 63.128906 C 334.203125 63.378906 334.007812 63.503906 333.78125 63.503906 C 333.71875 63.503906 333.648438 63.480469 333.578125 63.441406 L 325.4375 60.394531 L 324.4375 60.019531 C 324.25 59.957031 323.933594 59.820312 323.484375 59.613281 C 323.027344 59.414062 322.699219 59.246094 322.5 59.113281 C 322.304688 58.988281 322.042969 58.804688 321.71875 58.566406 C 321.386719 58.324219 321.148438 58.089844 321 57.863281 C 320.855469 57.632812 320.726562 57.363281 320.609375 57.050781 C 320.484375 56.738281 320.421875 56.410156 320.421875 56.066406 C 320.421875 55.542969 320.667969 55.285156 321.15625 55.285156 C 321.636719 55.285156 321.875 55.441406 321.875 55.753906 C 321.875 56.355469 322.214844 56.941406 322.890625 57.503906 C 323.570312 58.074219 324.433594 58.460938 325.484375 58.660156 L 333.578125 55.332031 C 333.660156 55.277344 333.734375 55.253906 333.796875 55.253906 Z M 325.59375 68.964844 L 339.625 68.964844 C 339.789062 68.964844 339.925781 69.035156 340.03125 69.183594 C 340.144531 69.339844 340.203125 69.535156 340.203125 69.777344 C 340.203125 70.015625 340.144531 70.214844 340.03125 70.371094 C 339.925781 70.535156 339.789062 70.621094 339.625 70.621094 L 333.078125 70.621094 C 333.503906 70.859375 333.863281 71.203125 334.15625 71.652344 C 334.445312 72.109375 334.59375 72.640625 334.59375 73.246094 C 334.59375 74.214844 334.21875 75.050781 333.46875 75.761719 C 332.71875 76.46875 331.816406 76.824219 330.765625 76.824219 L 328.71875 76.824219 C 327.707031 76.824219 326.804688 76.46875 326.015625 75.761719 C 325.234375 75.050781 324.84375 74.234375 324.84375 73.308594 C 324.84375 72.703125 324.996094 72.144531 325.296875 71.636719 C 325.609375 71.136719 325.976562 70.769531 326.40625 70.542969 L 325.59375 70.542969 C 325.4375 70.542969 325.296875 70.464844 325.171875 70.308594 C 325.054688 70.152344 325 69.972656 325 69.777344 C 325 69.558594 325.054688 69.363281 325.171875 69.199219 C 325.296875 69.042969 325.4375 68.964844 325.59375 68.964844 Z M 328.1875 70.621094 C 327.851562 70.621094 327.460938 70.855469 327.015625 71.324219 C 326.566406 71.792969 326.34375 72.316406 326.34375 72.902344 C 326.34375 73.503906 326.582031 74.03125 327.0625 74.480469 C 327.550781 74.9375 328.101562 75.167969 328.71875 75.167969 L 330.765625 75.167969 C 331.359375 75.167969 331.894531 74.9375 332.375 74.480469 C 332.851562 74.03125 333.09375 73.5 333.09375 72.886719 C 333.09375 72.28125 332.875 71.75 332.4375 71.292969 C 332.007812 70.84375 331.453125 70.621094 330.765625 70.621094 Z M 325.59375 79 L 339.625 79 C 339.789062 79 339.925781 79.070312 340.03125 79.21875 C 340.144531 79.375 340.203125 79.570312 340.203125 79.8125 C 340.203125 80.0625 340.144531 80.265625 340.03125 80.421875 C 339.925781 80.578125 339.789062 80.65625 339.625 80.65625 L 325.59375 80.65625 C 325.445312 80.65625 325.3125 80.570312 325.1875 80.40625 C 325.0625 80.238281 325 80.039062 325 79.8125 C 325 79.59375 325.054688 79.398438 325.171875 79.234375 C 325.296875 79.078125 325.4375 79 325.59375 79 Z M 327.5 82.582031 C 328.539062 82.582031 329.265625 82.976562 329.671875 83.769531 C 330.078125 84.570312 330.28125 85.730469 330.28125 87.253906 L 330.28125 88.222656 L 330.703125 88.222656 C 331.367188 88.222656 331.945312 88.035156 332.4375 87.660156 C 332.9375 87.292969 333.1875 86.746094 333.1875 86.019531 C 333.1875 85.457031 333.085938 84.960938 332.890625 84.535156 C 332.691406 84.105469 332.59375 83.871094 332.59375 83.832031 C 332.59375 83.652344 332.679688 83.507812 332.859375 83.394531 C 333.046875 83.277344 333.238281 83.222656 333.4375 83.222656 C 333.75 83.222656 334.019531 83.523438 334.25 84.128906 C 334.476562 84.730469 334.59375 85.378906 334.59375 86.066406 C 334.59375 87.367188 334.222656 88.324219 333.484375 88.941406 C 332.742188 89.566406 331.820312 89.878906 330.71875 89.878906 L 325.59375 89.878906 C 325.425781 89.878906 325.285156 89.800781 325.171875 89.644531 C 325.054688 89.496094 325 89.304688 325 89.066406 C 325 88.847656 325.054688 88.664062 325.171875 88.519531 C 325.285156 88.371094 325.425781 88.300781 325.59375 88.300781 L 326.40625 88.300781 C 325.363281 87.394531 324.84375 86.386719 324.84375 85.285156 C 324.84375 84.480469 325.066406 83.832031 325.515625 83.332031 C 325.972656 82.832031 326.632812 82.582031 327.5 82.582031 Z M 327.6875 84.253906 C 327.1875 84.253906 326.8125 84.394531 326.5625 84.675781 C 326.3125 84.957031 326.1875 85.332031 326.1875 85.800781 C 326.1875 86.363281 326.40625 86.902344 326.84375 87.425781 C 327.289062 87.957031 327.75 88.222656 328.21875 88.222656 L 329.265625 88.222656 L 329.265625 87.519531 C 329.265625 87.132812 329.253906 86.800781 329.234375 86.519531 C 329.210938 86.238281 329.171875 85.945312 329.109375 85.644531 C 329.046875 85.351562 328.957031 85.105469 328.84375 84.910156 C 328.738281 84.710938 328.585938 84.550781 328.390625 84.425781 C 328.191406 84.308594 327.957031 84.253906 327.6875 84.253906 Z M 328.71875 91.824219 L 330.71875 91.824219 C 331.863281 91.824219 332.796875 92.15625 333.515625 92.824219 C 334.234375 93.5 334.59375 94.488281 334.59375 95.792969 C 334.59375 96.625 334.445312 97.324219 334.15625 97.886719 C 333.863281 98.457031 333.550781 98.746094 333.21875 98.746094 C 333.03125 98.746094 332.847656 98.671875 332.671875 98.527344 C 332.492188 98.390625 332.40625 98.230469 332.40625 98.042969 C 332.40625 97.988281 332.519531 97.761719 332.75 97.355469 C 332.976562 96.949219 333.09375 96.46875 333.09375 95.917969 C 333.09375 95.113281 332.882812 94.503906 332.46875 94.089844 C 332.0625 93.683594 331.476562 93.480469 330.71875 93.480469 L 328.71875 93.480469 C 327.132812 93.480469 326.34375 94.296875 326.34375 95.933594 C 326.34375 96.496094 326.460938 96.984375 326.703125 97.402344 C 326.941406 97.816406 327.0625 98.058594 327.0625 98.121094 C 327.0625 98.328125 326.972656 98.5 326.796875 98.636719 C 326.628906 98.78125 326.453125 98.855469 326.265625 98.855469 C 325.929688 98.855469 325.609375 98.5625 325.296875 97.980469 C 324.996094 97.394531 324.84375 96.675781 324.84375 95.824219 C 324.84375 94.5 325.195312 93.5 325.90625 92.824219 C 326.625 92.15625 327.5625 91.824219 328.71875 91.824219 Z M 325.59375 100.523438 L 339.625 100.523438 C 339.789062 100.523438 339.925781 100.59375 340.03125 100.742188 C 340.144531 100.898438 340.203125 101.09375 340.203125 101.335938 C 340.203125 101.574219 340.144531 101.773438 340.03125 101.929688 C 339.925781 102.09375 339.789062 102.179688 339.625 102.179688 L 330.265625 102.179688 L 334.375 106.742188 C 334.46875 106.855469 334.515625 106.976562 334.515625 107.101562 C 334.515625 107.296875 334.4375 107.484375 334.28125 107.664062 C 334.125 107.851562 333.941406 107.945312 333.734375 107.945312 C 333.578125 107.945312 333.445312 107.882812 333.34375 107.757812 L 330.875 104.976562 L 326.0625 108.304688 C 325.957031 108.367188 325.859375 108.398438 325.765625 108.398438 C 325.554688 108.398438 325.363281 108.296875 325.1875 108.101562 C 325.007812 107.902344 324.921875 107.695312 324.921875 107.476562 C 324.921875 107.289062 325.007812 107.136719 325.1875 107.023438 L 329.84375 103.835938 L 328.359375 102.179688 L 325.59375 102.179688 C 325.445312 102.179688 325.3125 102.09375 325.1875 101.929688 C 325.0625 101.761719 325 101.5625 325 101.335938 C 325 101.117188 325.054688 100.921875 325.171875 100.757812 C 325.296875 100.601562 325.4375 100.523438 325.59375 100.523438 Z M 339.859375 109.363281 C 340.003906 109.363281 340.125 109.433594 340.21875 109.582031 C 340.3125 109.726562 340.359375 109.894531 340.359375 110.082031 C 340.359375 110.269531 340.3125 110.433594 340.21875 110.582031 C 340.125 110.738281 340.003906 110.816406 339.859375 110.816406 L 336.953125 110.613281 C 336.804688 110.613281 336.679688 110.566406 336.578125 110.472656 C 336.484375 110.386719 336.4375 110.257812 336.4375 110.082031 C 336.4375 109.738281 336.609375 109.566406 336.953125 109.566406 Z M 339.859375 112.082031 C 340.003906 112.082031 340.125 112.152344 340.21875 112.300781 C 340.3125 112.445312 340.359375 112.613281 340.359375 112.800781 C 340.359375 112.988281 340.3125 113.152344 340.21875 113.300781 C 340.125 113.457031 340.003906 113.535156 339.859375 113.535156 L 336.953125 113.347656 C 336.804688 113.347656 336.679688 113.300781 336.578125 113.207031 C 336.484375 113.113281 336.4375 112.976562 336.4375 112.800781 C 336.4375 112.457031 336.609375 112.285156 336.953125 112.285156 Z M 325 114.238281 "/>
</g>
</svg>
