<?xml version="1.0" encoding="UTF-8"?>
<svg xmlns="http://www.w3.org/2000/svg" xmlns:xlink="http://www.w3.org/1999/xlink" width="136pt" height="566pt" viewBox="0 0 136 566" version="1.1">
<g id="surface197">
<path style=" stroke:none;fill-rule:nonzero;fill:rgb(0%,0%,0%);fill-opacity:1;" d="M 0 0 L 96 0 L 96 566 L 0 566 Z M 0 0 "/>
<path style=" stroke:none;fill-rule:nonzero;fill:rgb(50.196078%,50.196078%,50.196078%);fill-opacity:1;" d="M 0 0 L 12 0 L 12 566 L 0 566 Z M 0 0 "/>
<path style=" stroke:none;fill-rule:nonzero;fill:rgb(0%,0%,0%);fill-opacity:1;" d="M 12 0 L 24 0 L 24 566 L 12 566 Z M 12 0 "/>
<path style=" stroke:none;fill-rule:nonzero;fill:rgb(50.196078%,50.196078%,50.196078%);fill-opacity:1;" d="M 24 0 L 36 0 L 36 566 L 24 566 Z M 24 0 "/>
<path style=" stroke:none;fill-rule:nonzero;fill:rgb(0%,0%,0%);fill-opacity:1;" d="M 36 0 L 48 0 L 48 566 L 36 566 Z M 36 0 "/>
<path style=" stroke:none;fill-rule:nonzero;fill:rgb(50.196078%,50.196078%,50.196078%);fill-opacity:1;" d="M 48 0 L 60 0 L 60 566 L 48 566 Z M 48 0 "/>
<path style=" stroke:none;fill-rule:nonzero;fill:rgb(0%,0%,0%);fill-opacity:1;" d="M 60 0 L 72 0 L 72 566 L 60 566 Z M 60 0 "/>
<path style=" stroke:none;fill-rule:nonzero;fill:rgb(50.196078%,50.196078%,50.196078%);fill-opacity:1;" d="M 72 0 L 84 0 L 84 566 L 72 566 Z M 72 0 "/>
<path style=" stroke:none;fill-rule:nonzero;fill:rgb(0%,0%,0%);fill-opacity:1;" d="M 84 0 L 96 0 L 96 566 L 84 566 Z M 84 0 "/>
<path style=" stroke:none;fill-rule:nonzero;fill:rgb(0%,0%,0%);fill-opacity:1;" d="M 136.296875 10.59375 L 141.734375 10.59375 C 142.253906 10.59375 142.691406 10.769531 143.046875 11.125 C 143.410156 11.476562 143.59375 11.894531 143.59375 12.375 L 143.59375 12.71875 C 143.59375 12.820312 143.554688 12.90625 143.484375 12.96875 C 143.410156 13.03125 143.320312 13.0625 143.21875 13.0625 C 143.125 13.0625 143.039062 13.03125 142.96875 12.96875 C 142.90625 12.90625 142.875 12.820312 142.875 12.71875 L 142.875 12.515625 C 142.875 12.203125 142.769531 11.941406 142.5625 11.734375 C 142.351562 11.535156 142.097656 11.4375 141.796875 11.4375 L 140.734375 11.4375 L 140.734375 12.796875 C 140.734375 12.878906 140.703125 12.941406 140.640625 12.984375 C 140.578125 13.035156 140.5 13.0625 140.40625 13.0625 C 140.320312 13.0625 140.25 13.035156 140.1875 12.984375 C 140.125 12.941406 140.09375 12.878906 140.09375 12.796875 L 140.09375 11.4375 L 136.296875 11.4375 C 136.210938 11.4375 136.140625 11.394531 136.078125 11.3125 C 136.023438 11.226562 136 11.125 136 11 C 136 10.882812 136.023438 10.785156 136.078125 10.703125 C 136.128906 10.628906 136.203125 10.59375 136.296875 10.59375 Z M 137.859375 13.554688 L 138.875 13.554688 C 139.394531 13.554688 139.84375 13.746094 140.21875 14.132812 C 140.601562 14.527344 140.796875 14.992188 140.796875 15.523438 C 140.796875 16.0625 140.601562 16.527344 140.21875 16.914062 C 139.84375 17.308594 139.394531 17.507812 138.875 17.507812 L 137.859375 17.507812 C 137.347656 17.507812 136.894531 17.308594 136.5 16.914062 C 136.113281 16.515625 135.921875 16.054688 135.921875 15.523438 C 135.921875 15 136.113281 14.542969 136.5 14.148438 C 136.894531 13.75 137.347656 13.554688 137.859375 13.554688 Z M 137.859375 14.382812 C 137.546875 14.382812 137.269531 14.496094 137.03125 14.726562 C 136.789062 14.953125 136.671875 15.21875 136.671875 15.523438 C 136.671875 15.835938 136.789062 16.105469 137.03125 16.335938 C 137.28125 16.5625 137.554688 16.679688 137.859375 16.679688 L 138.875 16.679688 C 139.175781 16.679688 139.445312 16.5625 139.6875 16.335938 C 139.925781 16.105469 140.046875 15.835938 140.046875 15.523438 C 140.046875 15.210938 139.925781 14.9375 139.6875 14.710938 C 139.445312 14.492188 139.175781 14.382812 138.875 14.382812 Z M 136.296875 18.609375 L 143.3125 18.609375 C 143.394531 18.609375 143.460938 18.644531 143.515625 18.71875 C 143.566406 18.789062 143.59375 18.882812 143.59375 19 C 143.59375 19.125 143.566406 19.226562 143.515625 19.3125 C 143.460938 19.394531 143.394531 19.4375 143.3125 19.4375 L 136.296875 19.4375 C 136.222656 19.4375 136.15625 19.394531 136.09375 19.3125 C 136.03125 19.226562 136 19.128906 136 19.015625 C 136 18.898438 136.03125 18.800781 136.09375 18.71875 C 136.15625 18.644531 136.222656 18.609375 136.296875 18.609375 Z M 137.859375 20.515625 L 138.875 20.515625 C 139.40625 20.515625 139.859375 20.691406 140.234375 21.046875 C 140.609375 21.398438 140.796875 21.820312 140.796875 22.3125 C 140.796875 22.613281 140.722656 22.875 140.578125 23.09375 C 140.429688 23.320312 140.253906 23.5 140.046875 23.625 L 143.3125 23.625 C 143.394531 23.625 143.460938 23.660156 143.515625 23.734375 C 143.566406 23.816406 143.59375 23.914062 143.59375 24.03125 C 143.59375 24.15625 143.566406 24.253906 143.515625 24.328125 C 143.460938 24.410156 143.394531 24.453125 143.3125 24.453125 L 136.296875 24.453125 C 136.222656 24.453125 136.15625 24.410156 136.09375 24.328125 C 136.03125 24.242188 136 24.148438 136 24.046875 C 136 23.941406 136.03125 23.847656 136.09375 23.765625 C 136.15625 23.691406 136.222656 23.65625 136.296875 23.65625 L 136.703125 23.65625 C 136.484375 23.539062 136.296875 23.359375 136.140625 23.109375 C 135.996094 22.859375 135.921875 22.582031 135.921875 22.28125 C 135.921875 21.8125 136.113281 21.398438 136.5 21.046875 C 136.894531 20.691406 137.347656 20.515625 137.859375 20.515625 Z M 137.859375 21.34375 C 137.554688 21.34375 137.28125 21.457031 137.03125 21.6875 C 136.789062 21.914062 136.671875 22.179688 136.671875 22.484375 C 136.671875 22.773438 136.78125 23.035156 137 23.265625 C 137.226562 23.503906 137.425781 23.625 137.59375 23.625 L 138.875 23.625 C 139.226562 23.625 139.507812 23.507812 139.71875 23.28125 C 139.9375 23.050781 140.046875 22.785156 140.046875 22.484375 C 140.046875 22.179688 139.925781 21.914062 139.6875 21.6875 C 139.445312 21.457031 139.175781 21.34375 138.875 21.34375 Z M 136.296875 25.753906 L 143.015625 25.753906 C 143.109375 25.753906 143.179688 25.789062 143.234375 25.863281 C 143.285156 25.945312 143.3125 26.039062 143.3125 26.144531 L 143.3125 29.707031 C 143.3125 29.800781 143.273438 29.867188 143.203125 29.910156 C 143.128906 29.960938 143.039062 29.988281 142.9375 29.988281 C 142.832031 29.988281 142.738281 29.960938 142.65625 29.910156 C 142.582031 29.855469 142.546875 29.789062 142.546875 29.707031 L 142.546875 26.597656 L 140.015625 26.597656 L 140.015625 28.160156 C 140.015625 28.242188 139.976562 28.308594 139.90625 28.363281 C 139.832031 28.425781 139.75 28.457031 139.65625 28.457031 C 139.5625 28.457031 139.476562 28.429688 139.40625 28.378906 C 139.34375 28.324219 139.3125 28.253906 139.3125 28.160156 L 139.3125 26.597656 L 136.765625 26.597656 L 136.765625 29.707031 C 136.765625 29.789062 136.722656 29.855469 136.640625 29.910156 C 136.566406 29.960938 136.476562 29.988281 136.375 29.988281 C 136.269531 29.988281 136.179688 29.960938 136.109375 29.910156 C 136.035156 29.867188 136 29.800781 136 29.707031 L 136 26.144531 C 136 26.039062 136.023438 25.945312 136.078125 25.863281 C 136.128906 25.789062 136.203125 25.753906 136.296875 25.753906 Z M 140.40625 30.316406 C 140.5 30.316406 140.582031 30.371094 140.65625 30.488281 C 140.726562 30.601562 140.765625 30.722656 140.765625 30.847656 C 140.765625 30.980469 140.707031 31.070312 140.59375 31.113281 L 137.203125 32.378906 L 140.5625 33.628906 C 140.695312 33.679688 140.765625 33.769531 140.765625 33.894531 C 140.765625 34.007812 140.726562 34.128906 140.65625 34.253906 C 140.582031 34.378906 140.5 34.441406 140.40625 34.441406 C 140.34375 34.441406 140.285156 34.425781 140.234375 34.394531 L 136.09375 32.753906 C 135.96875 32.699219 135.90625 32.574219 135.90625 32.378906 C 135.90625 32.167969 135.96875 32.039062 136.09375 31.988281 L 140.234375 30.347656 C 140.316406 30.324219 140.375 30.316406 140.40625 30.316406 Z M 137.859375 34.964844 L 138.90625 34.964844 C 139.425781 34.964844 139.867188 35.15625 140.234375 35.542969 C 140.609375 35.9375 140.796875 36.410156 140.796875 36.964844 C 140.796875 37.484375 140.617188 37.933594 140.265625 38.308594 C 139.921875 38.683594 139.484375 38.871094 138.953125 38.871094 C 138.765625 38.871094 138.609375 38.847656 138.484375 38.808594 C 138.367188 38.765625 138.285156 38.691406 138.234375 38.589844 C 138.191406 38.496094 138.160156 38.40625 138.140625 38.324219 C 138.128906 38.238281 138.125 38.128906 138.125 37.996094 L 138.125 35.792969 L 137.828125 35.792969 C 137.460938 35.792969 137.171875 35.921875 136.953125 36.183594 C 136.734375 36.453125 136.625 36.796875 136.625 37.214844 C 136.625 37.433594 136.65625 37.625 136.71875 37.792969 C 136.78125 37.957031 136.84375 38.089844 136.90625 38.183594 C 136.976562 38.285156 137.015625 38.371094 137.015625 38.433594 C 137.015625 38.527344 136.972656 38.605469 136.890625 38.667969 C 136.804688 38.730469 136.71875 38.761719 136.625 38.761719 C 136.476562 38.761719 136.320312 38.609375 136.15625 38.308594 C 136 38.003906 135.921875 37.628906 135.921875 37.183594 C 135.921875 36.535156 136.097656 36.003906 136.453125 35.589844 C 136.804688 35.171875 137.273438 34.964844 137.859375 34.964844 Z M 138.6875 35.792969 L 138.6875 37.652344 C 138.6875 37.816406 138.707031 37.933594 138.75 37.996094 C 138.789062 38.058594 138.878906 38.089844 139.015625 38.089844 C 139.304688 38.089844 139.566406 37.980469 139.796875 37.761719 C 140.023438 37.542969 140.140625 37.269531 140.140625 36.949219 C 140.140625 36.636719 140.035156 36.363281 139.828125 36.136719 C 139.617188 35.90625 139.359375 35.792969 139.046875 35.792969 Z M 136.296875 39.804688 L 140.453125 39.804688 C 140.535156 39.804688 140.601562 39.839844 140.65625 39.914062 C 140.707031 39.984375 140.734375 40.085938 140.734375 40.210938 C 140.734375 40.3125 140.707031 40.402344 140.65625 40.476562 C 140.601562 40.546875 140.535156 40.585938 140.453125 40.585938 L 139.984375 40.585938 C 140.203125 40.710938 140.390625 40.886719 140.546875 41.117188 C 140.710938 41.355469 140.796875 41.617188 140.796875 41.898438 L 140.796875 42.242188 C 140.796875 42.324219 140.753906 42.398438 140.671875 42.460938 C 140.597656 42.523438 140.507812 42.554688 140.40625 42.554688 C 140.3125 42.554688 140.226562 42.523438 140.15625 42.460938 C 140.082031 42.398438 140.046875 42.324219 140.046875 42.242188 L 140.046875 41.898438 C 140.046875 41.5625 139.910156 41.265625 139.640625 41.007812 C 139.367188 40.757812 139.015625 40.632812 138.578125 40.632812 L 136.296875 40.632812 C 136.222656 40.632812 136.15625 40.589844 136.09375 40.507812 C 136.03125 40.421875 136 40.324219 136 40.210938 C 136 40.09375 136.03125 39.996094 136.09375 39.914062 C 136.15625 39.839844 136.222656 39.804688 136.296875 39.804688 Z M 140.40625 42.773438 C 140.507812 42.773438 140.597656 42.828125 140.671875 42.945312 C 140.753906 43.070312 140.796875 43.1875 140.796875 43.304688 C 140.796875 43.449219 140.738281 43.542969 140.625 43.585938 L 137.15625 44.898438 L 140.625 46.085938 C 140.738281 46.136719 140.796875 46.226562 140.796875 46.351562 C 140.796875 46.464844 140.753906 46.578125 140.671875 46.695312 C 140.597656 46.820312 140.503906 46.882812 140.390625 46.882812 C 140.359375 46.882812 140.328125 46.871094 140.296875 46.851562 L 136.21875 45.335938 L 135.71875 45.148438 C 135.625 45.117188 135.46875 45.046875 135.25 44.945312 C 135.023438 44.851562 134.855469 44.765625 134.75 44.695312 C 134.648438 44.632812 134.515625 44.539062 134.359375 44.414062 C 134.195312 44.296875 134.074219 44.183594 134 44.070312 C 133.929688 43.953125 133.859375 43.820312 133.796875 43.664062 C 133.734375 43.507812 133.703125 43.339844 133.703125 43.164062 C 133.703125 42.902344 133.828125 42.773438 134.078125 42.773438 C 134.320312 42.773438 134.4375 42.855469 134.4375 43.023438 C 134.4375 43.3125 134.609375 43.601562 134.953125 43.882812 C 135.289062 44.171875 135.714844 44.367188 136.234375 44.460938 L 140.296875 42.804688 C 140.328125 42.78125 140.363281 42.773438 140.40625 42.773438 Z M 136.078125 49.675781 L 143.390625 49.675781 C 143.472656 49.675781 143.539062 49.710938 143.59375 49.785156 C 143.65625 49.855469 143.6875 49.945312 143.6875 50.050781 L 143.6875 51.691406 C 143.6875 51.773438 143.644531 51.839844 143.5625 51.894531 C 143.488281 51.945312 143.40625 51.972656 143.3125 51.972656 C 143.207031 51.972656 143.117188 51.945312 143.046875 51.894531 C 142.972656 51.839844 142.9375 51.773438 142.9375 51.691406 L 142.9375 50.503906 L 136.546875 50.503906 L 136.546875 51.691406 C 136.546875 51.773438 136.503906 51.839844 136.421875 51.894531 C 136.347656 51.945312 136.257812 51.972656 136.15625 51.972656 C 136.0625 51.972656 135.980469 51.945312 135.90625 51.894531 C 135.835938 51.839844 135.796875 51.773438 135.796875 51.691406 L 135.796875 50.050781 C 135.796875 49.945312 135.824219 49.855469 135.875 49.785156 C 135.929688 49.710938 135.996094 49.675781 136.078125 49.675781 Z M 137.640625 52.425781 C 137.796875 52.425781 137.898438 52.449219 137.953125 52.503906 C 138.003906 52.566406 138.03125 52.667969 138.03125 52.816406 C 138.03125 52.972656 138.003906 53.082031 137.953125 53.144531 C 137.898438 53.207031 137.816406 53.238281 137.703125 53.238281 C 137.441406 53.238281 137.207031 53.347656 137 53.566406 C 136.800781 53.785156 136.703125 54.113281 136.703125 54.550781 C 136.703125 55.445312 137.160156 55.894531 138.078125 55.894531 L 138.265625 55.894531 C 139.078125 55.894531 139.484375 55.445312 139.484375 54.550781 C 139.484375 54.351562 139.597656 54.253906 139.828125 54.253906 C 140.066406 54.253906 140.1875 54.351562 140.1875 54.550781 C 140.1875 54.933594 140.269531 55.222656 140.4375 55.410156 C 140.613281 55.605469 140.929688 55.707031 141.390625 55.707031 C 142.171875 55.707031 142.5625 55.335938 142.5625 54.597656 C 142.5625 54.167969 142.460938 53.867188 142.265625 53.691406 C 142.078125 53.511719 141.851562 53.425781 141.59375 53.425781 C 141.351562 53.425781 141.234375 53.289062 141.234375 53.019531 C 141.234375 52.839844 141.257812 52.722656 141.3125 52.660156 C 141.375 52.605469 141.488281 52.582031 141.65625 52.582031 C 141.820312 52.582031 141.992188 52.613281 142.171875 52.675781 C 142.347656 52.738281 142.523438 52.835938 142.703125 52.972656 C 142.878906 53.117188 143.023438 53.332031 143.140625 53.613281 C 143.253906 53.894531 143.3125 54.226562 143.3125 54.613281 C 143.3125 55.882812 142.722656 56.519531 141.546875 56.519531 C 141.117188 56.519531 140.757812 56.445312 140.46875 56.300781 C 140.175781 56.152344 139.972656 55.957031 139.859375 55.707031 C 139.585938 56.382812 139.054688 56.722656 138.265625 56.722656 L 138.078125 56.722656 C 137.347656 56.722656 136.804688 56.523438 136.453125 56.128906 C 136.109375 55.730469 135.9375 55.207031 135.9375 54.550781 C 135.9375 53.863281 136.109375 53.335938 136.453125 52.972656 C 136.804688 52.605469 137.203125 52.425781 137.640625 52.425781 Z M 136.453125 57.488281 C 136.609375 57.488281 136.734375 57.535156 136.828125 57.628906 C 136.929688 57.730469 136.984375 57.855469 136.984375 58.003906 C 136.984375 58.136719 136.929688 58.257812 136.828125 58.363281 C 136.734375 58.464844 136.609375 58.519531 136.453125 58.519531 C 136.335938 58.519531 135.9375 58.371094 135.25 58.082031 C 135.15625 58.050781 135.109375 57.976562 135.109375 57.863281 C 135.109375 57.789062 135.132812 57.722656 135.171875 57.660156 C 135.214844 57.605469 135.273438 57.582031 135.34375 57.582031 C 135.398438 57.582031 135.433594 57.585938 135.453125 57.597656 L 135.984375 57.816406 C 136.066406 57.597656 136.222656 57.488281 136.453125 57.488281 Z M 137.671875 59.140625 C 137.929688 59.140625 138.0625 59.28125 138.0625 59.5625 C 138.0625 59.84375 137.953125 59.984375 137.734375 59.984375 C 137.410156 59.984375 137.15625 60.101562 136.96875 60.34375 C 136.789062 60.59375 136.703125 60.910156 136.703125 61.296875 C 136.703125 61.710938 136.816406 62.035156 137.046875 62.265625 C 137.285156 62.492188 137.632812 62.609375 138.09375 62.609375 L 138.296875 62.609375 C 138.742188 62.609375 139.082031 62.492188 139.3125 62.265625 C 139.539062 62.035156 139.65625 61.710938 139.65625 61.296875 L 139.65625 59.875 C 139.65625 59.613281 139.765625 59.484375 139.984375 59.484375 C 140.054688 59.484375 140.128906 59.492188 140.203125 59.515625 L 143.015625 59.71875 C 143.210938 59.726562 143.3125 59.800781 143.3125 59.9375 L 143.3125 62.828125 C 143.3125 62.910156 143.269531 62.972656 143.1875 63.015625 C 143.113281 63.066406 143.023438 63.09375 142.921875 63.09375 C 142.828125 63.09375 142.738281 63.066406 142.65625 63.015625 C 142.582031 62.972656 142.546875 62.910156 142.546875 62.828125 L 142.546875 60.453125 L 140.359375 60.296875 L 140.359375 61.296875 C 140.359375 61.953125 140.191406 62.472656 139.859375 62.859375 C 139.523438 63.253906 139.003906 63.453125 138.296875 63.453125 L 138.09375 63.453125 C 137.351562 63.453125 136.804688 63.253906 136.453125 62.859375 C 136.109375 62.460938 135.9375 61.941406 135.9375 61.296875 C 135.9375 60.628906 136.101562 60.101562 136.4375 59.71875 C 136.78125 59.332031 137.191406 59.140625 137.671875 59.140625 Z M 136.15625 63.925781 C 136.257812 63.925781 136.347656 63.949219 136.421875 64.003906 C 136.503906 64.054688 136.546875 64.121094 136.546875 64.207031 L 136.546875 65.394531 L 142.9375 65.394531 L 142.9375 64.207031 C 142.9375 64.121094 142.972656 64.054688 143.046875 64.003906 C 143.117188 63.949219 143.207031 63.925781 143.3125 63.925781 C 143.40625 63.925781 143.488281 63.949219 143.5625 64.003906 C 143.644531 64.054688 143.6875 64.121094 143.6875 64.207031 L 143.6875 65.847656 C 143.6875 65.949219 143.65625 66.039062 143.59375 66.113281 C 143.539062 66.183594 143.472656 66.222656 143.390625 66.222656 L 136.078125 66.222656 C 135.996094 66.222656 135.929688 66.183594 135.875 66.113281 C 135.824219 66.039062 135.796875 65.949219 135.796875 65.847656 L 135.796875 64.207031 C 135.796875 64.121094 135.835938 64.054688 135.90625 64.003906 C 135.980469 63.949219 136.0625 63.925781 136.15625 63.925781 Z M 137.546875 69.441406 L 141.796875 69.441406 C 142.316406 69.441406 142.757812 69.632812 143.125 70.019531 C 143.5 70.414062 143.6875 70.871094 143.6875 71.394531 C 143.6875 71.664062 143.5625 71.800781 143.3125 71.800781 C 143.195312 71.800781 143.101562 71.773438 143.03125 71.722656 C 142.96875 71.667969 142.9375 71.597656 142.9375 71.503906 C 142.9375 71.136719 142.816406 70.839844 142.578125 70.613281 C 142.347656 70.394531 142.085938 70.285156 141.796875 70.285156 L 137.546875 70.285156 C 137.179688 70.285156 136.921875 70.402344 136.765625 70.644531 C 136.617188 70.882812 136.546875 71.167969 136.546875 71.503906 C 136.546875 71.699219 136.421875 71.800781 136.171875 71.800781 C 135.921875 71.800781 135.796875 71.652344 135.796875 71.363281 C 135.796875 70.832031 135.949219 70.378906 136.25 70.003906 C 136.550781 69.628906 136.984375 69.441406 137.546875 69.441406 Z M 136.6875 72.277344 C 136.769531 72.277344 136.851562 72.300781 136.9375 72.355469 C 137.019531 72.417969 137.0625 72.488281 137.0625 72.574219 C 137.0625 72.625 137.019531 72.699219 136.9375 72.792969 C 136.851562 72.894531 136.773438 73.042969 136.703125 73.230469 C 136.628906 73.417969 136.59375 73.636719 136.59375 73.886719 C 136.59375 74.21875 136.648438 74.457031 136.765625 74.605469 C 136.890625 74.761719 137.039062 74.839844 137.21875 74.839844 C 137.4375 74.839844 137.609375 74.753906 137.734375 74.589844 C 137.867188 74.421875 137.96875 74.21875 138.03125 73.980469 C 138.101562 73.738281 138.175781 73.5 138.25 73.261719 C 138.332031 73.019531 138.46875 72.816406 138.65625 72.652344 C 138.84375 72.484375 139.09375 72.402344 139.40625 72.402344 C 139.78125 72.402344 140.101562 72.535156 140.375 72.808594 C 140.65625 73.078125 140.796875 73.488281 140.796875 74.042969 C 140.796875 74.394531 140.738281 74.71875 140.625 75.011719 C 140.519531 75.300781 140.398438 75.449219 140.265625 75.449219 C 140.179688 75.449219 140.085938 75.417969 139.984375 75.355469 C 139.890625 75.292969 139.84375 75.214844 139.84375 75.121094 C 139.84375 75.089844 139.890625 74.957031 139.984375 74.730469 C 140.078125 74.5 140.125 74.269531 140.125 74.042969 C 140.125 73.738281 140.050781 73.511719 139.90625 73.355469 C 139.769531 73.207031 139.613281 73.136719 139.4375 73.136719 C 139.25 73.136719 139.097656 73.21875 138.984375 73.386719 C 138.878906 73.550781 138.796875 73.753906 138.734375 73.996094 C 138.679688 74.246094 138.609375 74.488281 138.515625 74.730469 C 138.429688 74.96875 138.285156 75.171875 138.078125 75.339844 C 137.867188 75.503906 137.597656 75.589844 137.265625 75.589844 C 136.847656 75.589844 136.519531 75.441406 136.28125 75.152344 C 136.039062 74.859375 135.921875 74.449219 135.921875 73.917969 C 135.921875 73.46875 136 73.082031 136.15625 72.761719 C 136.320312 72.4375 136.5 72.277344 136.6875 72.277344 Z M 136.296875 76.585938 L 143.3125 76.585938 C 143.394531 76.585938 143.460938 76.621094 143.515625 76.695312 C 143.566406 76.765625 143.59375 76.859375 143.59375 76.976562 C 143.59375 77.101562 143.566406 77.203125 143.515625 77.289062 C 143.460938 77.371094 143.394531 77.414062 143.3125 77.414062 L 136.296875 77.414062 C 136.222656 77.414062 136.15625 77.371094 136.09375 77.289062 C 136.03125 77.203125 136 77.105469 136 76.992188 C 136 76.875 136.03125 76.777344 136.09375 76.695312 C 136.15625 76.621094 136.222656 76.585938 136.296875 76.585938 Z M 137.859375 78.496094 L 138.875 78.496094 C 139.394531 78.496094 139.84375 78.6875 140.21875 79.074219 C 140.601562 79.46875 140.796875 79.933594 140.796875 80.464844 C 140.796875 81.003906 140.601562 81.46875 140.21875 81.855469 C 139.84375 82.25 139.394531 82.449219 138.875 82.449219 L 137.859375 82.449219 C 137.347656 82.449219 136.894531 82.25 136.5 81.855469 C 136.113281 81.457031 135.921875 80.996094 135.921875 80.464844 C 135.921875 79.941406 136.113281 79.484375 136.5 79.089844 C 136.894531 78.691406 137.347656 78.496094 137.859375 78.496094 Z M 137.859375 79.324219 C 137.546875 79.324219 137.269531 79.4375 137.03125 79.667969 C 136.789062 79.894531 136.671875 80.160156 136.671875 80.464844 C 136.671875 80.777344 136.789062 81.046875 137.03125 81.277344 C 137.28125 81.503906 137.554688 81.621094 137.859375 81.621094 L 138.875 81.621094 C 139.175781 81.621094 139.445312 81.503906 139.6875 81.277344 C 139.925781 81.046875 140.046875 80.777344 140.046875 80.464844 C 140.046875 80.152344 139.925781 79.878906 139.6875 79.652344 C 139.445312 79.433594 139.175781 79.324219 138.875 79.324219 Z M 140.40625 83 C 140.5 83 140.582031 83.050781 140.65625 83.15625 C 140.726562 83.269531 140.765625 83.390625 140.765625 83.515625 C 140.765625 83.648438 140.707031 83.738281 140.59375 83.78125 L 137.234375 84.984375 L 140.265625 85.921875 C 140.398438 85.972656 140.46875 86.078125 140.46875 86.234375 C 140.46875 86.398438 140.398438 86.507812 140.265625 86.5625 L 137.203125 87.484375 L 140.59375 88.703125 C 140.707031 88.734375 140.765625 88.816406 140.765625 88.953125 C 140.765625 89.078125 140.726562 89.195312 140.65625 89.3125 C 140.582031 89.425781 140.5 89.484375 140.40625 89.484375 C 140.34375 89.484375 140.285156 89.46875 140.234375 89.4375 L 136.09375 87.875 C 135.96875 87.832031 135.90625 87.722656 135.90625 87.546875 C 135.90625 87.367188 135.96875 87.253906 136.09375 87.203125 L 139.03125 86.234375 L 136.125 85.296875 C 135.980469 85.242188 135.90625 85.117188 135.90625 84.921875 C 135.90625 84.753906 135.980469 84.644531 136.125 84.59375 L 140.234375 83.046875 C 140.316406 83.015625 140.375 83 140.40625 83 Z M 136.296875 91.921875 L 137.265625 91.921875 C 137.566406 91.921875 137.863281 92.035156 138.15625 92.265625 C 138.445312 92.503906 138.707031 92.785156 138.9375 93.109375 L 139.65625 94.078125 C 139.894531 94.398438 140.15625 94.675781 140.4375 94.90625 C 140.726562 95.144531 141.023438 95.265625 141.328125 95.265625 C 141.648438 95.265625 141.929688 95.15625 142.171875 94.9375 C 142.410156 94.726562 142.53125 94.429688 142.53125 94.046875 C 142.53125 93.710938 142.4375 93.4375 142.25 93.21875 C 142.0625 93.007812 141.789062 92.90625 141.4375 92.90625 C 141.351562 92.90625 141.273438 92.863281 141.203125 92.78125 C 141.140625 92.707031 141.109375 92.601562 141.109375 92.46875 C 141.109375 92.21875 141.269531 92.09375 141.59375 92.09375 C 142.09375 92.09375 142.503906 92.28125 142.828125 92.65625 C 143.148438 93.03125 143.3125 93.492188 143.3125 94.046875 C 143.3125 94.628906 143.125 95.113281 142.75 95.5 C 142.382812 95.894531 141.921875 96.09375 141.359375 96.09375 C 141.023438 96.09375 140.703125 96.007812 140.390625 95.84375 C 140.085938 95.6875 139.828125 95.484375 139.609375 95.234375 C 139.398438 94.992188 139.191406 94.734375 138.984375 94.453125 L 138.40625 93.65625 C 138.238281 93.414062 138.054688 93.210938 137.859375 93.046875 C 137.660156 92.878906 137.460938 92.796875 137.265625 92.796875 L 136.765625 92.796875 L 136.765625 95.875 C 136.765625 95.945312 136.726562 96.007812 136.65625 96.0625 C 136.582031 96.125 136.488281 96.15625 136.375 96.15625 C 136.28125 96.15625 136.191406 96.125 136.109375 96.0625 C 136.035156 96.007812 136 95.945312 136 95.875 L 136 92.3125 C 136 92.21875 136.023438 92.128906 136.078125 92.046875 C 136.140625 91.960938 136.210938 91.921875 136.296875 91.921875 Z M 136.171875 96.636719 C 136.421875 96.636719 136.546875 96.730469 136.546875 96.917969 C 136.546875 97.25 136.617188 97.535156 136.765625 97.777344 C 136.921875 98.015625 137.179688 98.136719 137.546875 98.136719 L 141.796875 98.136719 C 142.085938 98.136719 142.347656 98.019531 142.578125 97.792969 C 142.816406 97.574219 142.9375 97.28125 142.9375 96.917969 C 142.9375 96.832031 142.96875 96.765625 143.03125 96.714844 C 143.101562 96.660156 143.195312 96.636719 143.3125 96.636719 C 143.5625 96.636719 143.6875 96.769531 143.6875 97.042969 C 143.6875 97.5625 143.5 98.015625 143.125 98.402344 C 142.757812 98.785156 142.316406 98.980469 141.796875 98.980469 L 137.546875 98.980469 C 136.984375 98.980469 136.550781 98.792969 136.25 98.417969 C 135.949219 98.050781 135.796875 97.59375 135.796875 97.042969 C 135.796875 96.769531 135.921875 96.636719 136.171875 96.636719 Z M 137.15625 101.894531 C 137.257812 101.894531 137.359375 101.929688 137.453125 102.003906 C 137.554688 102.085938 137.609375 102.175781 137.609375 102.269531 C 137.609375 102.320312 137.566406 102.394531 137.484375 102.488281 C 137.410156 102.582031 137.320312 102.675781 137.21875 102.769531 C 137.125 102.871094 137.035156 103.023438 136.953125 103.222656 C 136.867188 103.429688 136.820312 103.664062 136.8125 103.925781 L 139.46875 103.925781 L 139.671875 103.394531 C 139.710938 103.269531 139.789062 103.105469 139.90625 102.910156 C 140.019531 102.710938 140.132812 102.558594 140.25 102.457031 C 140.375 102.363281 140.53125 102.273438 140.71875 102.191406 C 140.914062 102.117188 141.140625 102.082031 141.390625 102.082031 C 141.691406 102.082031 141.957031 102.132812 142.1875 102.238281 C 142.414062 102.339844 142.597656 102.488281 142.734375 102.675781 C 142.867188 102.863281 142.96875 103.054688 143.03125 103.253906 C 143.101562 103.460938 143.148438 103.683594 143.171875 103.925781 L 143.46875 103.925781 C 143.519531 103.925781 143.566406 103.949219 143.609375 104.003906 C 143.660156 104.054688 143.6875 104.117188 143.6875 104.191406 C 143.6875 104.253906 143.660156 104.308594 143.609375 104.363281 C 143.566406 104.425781 143.519531 104.457031 143.46875 104.457031 L 143.1875 104.457031 C 143.164062 104.851562 143.097656 105.210938 142.984375 105.535156 C 142.867188 105.867188 142.71875 106.035156 142.53125 106.035156 C 142.4375 106.035156 142.332031 105.996094 142.21875 105.925781 C 142.113281 105.863281 142.0625 105.777344 142.0625 105.675781 C 142.0625 105.632812 142.117188 105.488281 142.234375 105.238281 C 142.359375 104.996094 142.425781 104.738281 142.4375 104.457031 L 140.15625 104.457031 C 140.0625 104.714844 139.96875 104.929688 139.875 105.097656 C 139.789062 105.261719 139.671875 105.441406 139.515625 105.628906 C 139.359375 105.824219 139.15625 105.972656 138.90625 106.066406 C 138.664062 106.160156 138.382812 106.207031 138.0625 106.207031 C 137.476562 106.207031 137.015625 106.042969 136.671875 105.722656 C 136.328125 105.410156 136.117188 104.988281 136.046875 104.457031 L 135.6875 104.457031 C 135.636719 104.457031 135.589844 104.425781 135.546875 104.363281 C 135.507812 104.308594 135.484375 104.253906 135.484375 104.191406 C 135.484375 104.117188 135.507812 104.054688 135.546875 104.003906 C 135.589844 103.949219 135.636719 103.925781 135.6875 103.925781 L 136.015625 103.925781 C 136.023438 103.351562 136.15625 102.867188 136.40625 102.472656 C 136.664062 102.085938 136.914062 101.894531 137.15625 101.894531 Z M 141.46875 102.878906 C 141.15625 102.878906 140.921875 102.964844 140.765625 103.144531 C 140.609375 103.332031 140.460938 103.605469 140.328125 103.972656 L 142.4375 103.972656 C 142.351562 103.242188 142.03125 102.878906 141.46875 102.878906 Z M 136.828125 104.410156 C 136.929688 105.074219 137.316406 105.410156 137.984375 105.410156 C 138.328125 105.410156 138.59375 105.320312 138.78125 105.144531 C 138.976562 104.976562 139.144531 104.730469 139.28125 104.410156 Z M 137.859375 109.015625 L 138.875 109.015625 C 139.40625 109.015625 139.859375 109.191406 140.234375 109.546875 C 140.609375 109.898438 140.796875 110.320312 140.796875 110.8125 C 140.796875 111.113281 140.722656 111.375 140.578125 111.59375 C 140.429688 111.820312 140.253906 112 140.046875 112.125 L 143.3125 112.125 C 143.394531 112.125 143.460938 112.160156 143.515625 112.234375 C 143.566406 112.316406 143.59375 112.414062 143.59375 112.53125 C 143.59375 112.65625 143.566406 112.753906 143.515625 112.828125 C 143.460938 112.910156 143.394531 112.953125 143.3125 112.953125 L 136.296875 112.953125 C 136.222656 112.953125 136.15625 112.910156 136.09375 112.828125 C 136.03125 112.742188 136 112.648438 136 112.546875 C 136 112.441406 136.03125 112.347656 136.09375 112.265625 C 136.15625 112.191406 136.222656 112.15625 136.296875 112.15625 L 136.703125 112.15625 C 136.484375 112.039062 136.296875 111.859375 136.140625 111.609375 C 135.996094 111.359375 135.921875 111.082031 135.921875 110.78125 C 135.921875 110.3125 136.113281 109.898438 136.5 109.546875 C 136.894531 109.191406 137.347656 109.015625 137.859375 109.015625 Z M 137.859375 109.84375 C 137.554688 109.84375 137.28125 109.957031 137.03125 110.1875 C 136.789062 110.414062 136.671875 110.679688 136.671875 110.984375 C 136.671875 111.273438 136.78125 111.535156 137 111.765625 C 137.226562 112.003906 137.425781 112.125 137.59375 112.125 L 138.875 112.125 C 139.226562 112.125 139.507812 112.007812 139.71875 111.78125 C 139.9375 111.550781 140.046875 111.285156 140.046875 110.984375 C 140.046875 110.679688 139.925781 110.414062 139.6875 110.1875 C 139.445312 109.957031 139.175781 109.84375 138.875 109.84375 Z M 137.859375 113.957031 L 138.90625 113.957031 C 139.425781 113.957031 139.867188 114.148438 140.234375 114.535156 C 140.609375 114.929688 140.796875 115.402344 140.796875 115.957031 C 140.796875 116.476562 140.617188 116.925781 140.265625 117.300781 C 139.921875 117.675781 139.484375 117.863281 138.953125 117.863281 C 138.765625 117.863281 138.609375 117.839844 138.484375 117.800781 C 138.367188 117.757812 138.285156 117.683594 138.234375 117.582031 C 138.191406 117.488281 138.160156 117.398438 138.140625 117.316406 C 138.128906 117.230469 138.125 117.121094 138.125 116.988281 L 138.125 114.785156 L 137.828125 114.785156 C 137.460938 114.785156 137.171875 114.914062 136.953125 115.175781 C 136.734375 115.445312 136.625 115.789062 136.625 116.207031 C 136.625 116.425781 136.65625 116.617188 136.71875 116.785156 C 136.78125 116.949219 136.84375 117.082031 136.90625 117.175781 C 136.976562 117.277344 137.015625 117.363281 137.015625 117.425781 C 137.015625 117.519531 136.972656 117.597656 136.890625 117.660156 C 136.804688 117.722656 136.71875 117.753906 136.625 117.753906 C 136.476562 117.753906 136.320312 117.601562 136.15625 117.300781 C 136 116.996094 135.921875 116.621094 135.921875 116.175781 C 135.921875 115.527344 136.097656 114.996094 136.453125 114.582031 C 136.804688 114.164062 137.273438 113.957031 137.859375 113.957031 Z M 138.6875 114.785156 L 138.6875 116.644531 C 138.6875 116.808594 138.707031 116.925781 138.75 116.988281 C 138.789062 117.050781 138.878906 117.082031 139.015625 117.082031 C 139.304688 117.082031 139.566406 116.972656 139.796875 116.753906 C 140.023438 116.535156 140.140625 116.261719 140.140625 115.941406 C 140.140625 115.628906 140.035156 115.355469 139.828125 115.128906 C 139.617188 114.898438 139.359375 114.785156 139.046875 114.785156 Z M 136.296875 118.792969 L 140.453125 118.792969 C 140.535156 118.792969 140.601562 118.828125 140.65625 118.902344 C 140.707031 118.972656 140.734375 119.074219 140.734375 119.199219 C 140.734375 119.300781 140.703125 119.390625 140.640625 119.464844 C 140.585938 119.535156 140.523438 119.574219 140.453125 119.574219 L 140.046875 119.574219 C 140.253906 119.6875 140.429688 119.859375 140.578125 120.089844 C 140.722656 120.328125 140.796875 120.605469 140.796875 120.917969 C 140.796875 121.394531 140.609375 121.808594 140.234375 122.152344 C 139.859375 122.503906 139.40625 122.683594 138.875 122.683594 L 136.296875 122.683594 C 136.203125 122.683594 136.128906 122.640625 136.078125 122.558594 C 136.023438 122.472656 136 122.375 136 122.261719 C 136 122.15625 136.023438 122.0625 136.078125 121.980469 C 136.128906 121.894531 136.203125 121.855469 136.296875 121.855469 L 138.875 121.855469 C 139.175781 121.855469 139.445312 121.738281 139.6875 121.511719 C 139.925781 121.28125 140.046875 121.015625 140.046875 120.714844 C 140.046875 120.421875 139.9375 120.167969 139.71875 119.949219 C 139.507812 119.730469 139.226562 119.621094 138.875 119.621094 L 136.296875 119.621094 C 136.222656 119.621094 136.15625 119.574219 136.09375 119.480469 C 136.03125 119.394531 136 119.300781 136 119.199219 C 136 119.082031 136.03125 118.984375 136.09375 118.902344 C 136.15625 118.828125 136.222656 118.792969 136.296875 118.792969 Z M 136.6875 123.527344 C 136.769531 123.527344 136.851562 123.550781 136.9375 123.605469 C 137.019531 123.667969 137.0625 123.738281 137.0625 123.824219 C 137.0625 123.875 137.019531 123.949219 136.9375 124.042969 C 136.851562 124.144531 136.773438 124.292969 136.703125 124.480469 C 136.628906 124.667969 136.59375 124.886719 136.59375 125.136719 C 136.59375 125.46875 136.648438 125.707031 136.765625 125.855469 C 136.890625 126.011719 137.039062 126.089844 137.21875 126.089844 C 137.4375 126.089844 137.609375 126.003906 137.734375 125.839844 C 137.867188 125.671875 137.96875 125.46875 138.03125 125.230469 C 138.101562 124.988281 138.175781 124.75 138.25 124.511719 C 138.332031 124.269531 138.46875 124.066406 138.65625 123.902344 C 138.84375 123.734375 139.09375 123.652344 139.40625 123.652344 C 139.78125 123.652344 140.101562 123.785156 140.375 124.058594 C 140.65625 124.328125 140.796875 124.738281 140.796875 125.292969 C 140.796875 125.644531 140.738281 125.96875 140.625 126.261719 C 140.519531 126.550781 140.398438 126.699219 140.265625 126.699219 C 140.179688 126.699219 140.085938 126.667969 139.984375 126.605469 C 139.890625 126.542969 139.84375 126.464844 139.84375 126.371094 C 139.84375 126.339844 139.890625 126.207031 139.984375 125.980469 C 140.078125 125.75 140.125 125.519531 140.125 125.292969 C 140.125 124.988281 140.050781 124.761719 139.90625 124.605469 C 139.769531 124.457031 139.613281 124.386719 139.4375 124.386719 C 139.25 124.386719 139.097656 124.46875 138.984375 124.636719 C 138.878906 124.800781 138.796875 125.003906 138.734375 125.246094 C 138.679688 125.496094 138.609375 125.738281 138.515625 125.980469 C 138.429688 126.21875 138.285156 126.421875 138.078125 126.589844 C 137.867188 126.753906 137.597656 126.839844 137.265625 126.839844 C 136.847656 126.839844 136.519531 126.691406 136.28125 126.402344 C 136.039062 126.109375 135.921875 125.699219 135.921875 125.167969 C 135.921875 124.71875 136 124.332031 136.15625 124.011719 C 136.320312 123.6875 136.5 123.527344 136.6875 123.527344 Z M 142.1875 127.789062 C 142.28125 127.683594 142.390625 127.632812 142.515625 127.632812 C 142.640625 127.632812 142.75 127.679688 142.84375 127.773438 C 142.9375 127.875 142.984375 128 142.984375 128.148438 C 142.984375 128.28125 142.9375 128.402344 142.84375 128.507812 C 142.75 128.609375 142.640625 128.664062 142.515625 128.664062 C 142.390625 128.664062 142.28125 128.609375 142.1875 128.507812 C 142.09375 128.402344 142.046875 128.28125 142.046875 128.148438 C 142.046875 128.011719 142.09375 127.890625 142.1875 127.789062 Z M 136.296875 127.742188 L 140.453125 127.742188 C 140.535156 127.742188 140.601562 127.777344 140.65625 127.851562 C 140.707031 127.933594 140.734375 128.03125 140.734375 128.148438 C 140.734375 128.273438 140.707031 128.371094 140.65625 128.445312 C 140.601562 128.527344 140.535156 128.570312 140.453125 128.570312 L 136.296875 128.570312 C 136.222656 128.570312 136.15625 128.527344 136.09375 128.445312 C 136.03125 128.359375 136 128.261719 136 128.148438 C 136 128.03125 136.03125 127.933594 136.09375 127.851562 C 136.15625 127.777344 136.222656 127.742188 136.296875 127.742188 Z M 137.515625 129.722656 L 142.65625 129.722656 C 142.738281 129.722656 142.804688 129.761719 142.859375 129.847656 C 142.921875 129.941406 142.953125 130.039062 142.953125 130.144531 C 142.953125 130.246094 142.921875 130.339844 142.859375 130.425781 C 142.804688 130.519531 142.738281 130.566406 142.65625 130.566406 L 140.734375 130.566406 L 140.734375 131.816406 C 140.734375 131.886719 140.703125 131.945312 140.640625 131.988281 C 140.578125 132.039062 140.5 132.066406 140.40625 132.066406 C 140.320312 132.066406 140.25 132.039062 140.1875 131.988281 C 140.125 131.945312 140.09375 131.886719 140.09375 131.816406 L 140.09375 130.566406 L 137.515625 130.566406 C 137.222656 130.566406 137.019531 130.621094 136.90625 130.738281 C 136.789062 130.863281 136.734375 131.082031 136.734375 131.394531 L 136.734375 131.707031 C 136.734375 131.808594 136.695312 131.894531 136.625 131.957031 C 136.550781 132.027344 136.460938 132.066406 136.359375 132.066406 C 136.265625 132.066406 136.179688 132.027344 136.109375 131.957031 C 136.035156 131.894531 136 131.808594 136 131.707031 L 136 131.394531 C 136 130.277344 136.503906 129.722656 137.515625 129.722656 Z M 140.40625 132.386719 C 140.507812 132.386719 140.597656 132.441406 140.671875 132.558594 C 140.753906 132.683594 140.796875 132.800781 140.796875 132.917969 C 140.796875 133.0625 140.738281 133.15625 140.625 133.199219 L 137.15625 134.511719 L 140.625 135.699219 C 140.738281 135.75 140.796875 135.839844 140.796875 135.964844 C 140.796875 136.078125 140.753906 136.191406 140.671875 136.308594 C 140.597656 136.433594 140.503906 136.496094 140.390625 136.496094 C 140.359375 136.496094 140.328125 136.484375 140.296875 136.464844 L 136.21875 134.949219 L 135.71875 134.761719 C 135.625 134.730469 135.46875 134.660156 135.25 134.558594 C 135.023438 134.464844 134.855469 134.378906 134.75 134.308594 C 134.648438 134.246094 134.515625 134.152344 134.359375 134.027344 C 134.195312 133.910156 134.074219 133.796875 134 133.683594 C 133.929688 133.566406 133.859375 133.433594 133.796875 133.277344 C 133.734375 133.121094 133.703125 132.953125 133.703125 132.777344 C 133.703125 132.515625 133.828125 132.386719 134.078125 132.386719 C 134.320312 132.386719 134.4375 132.46875 134.4375 132.636719 C 134.4375 132.925781 134.609375 133.214844 134.953125 133.496094 C 135.289062 133.785156 135.714844 133.980469 136.234375 134.074219 L 140.296875 132.417969 C 140.328125 132.394531 140.363281 132.386719 140.40625 132.386719 Z M 141.75 138.722656 C 141.882812 138.722656 142 138.777344 142.09375 138.894531 L 143.1875 139.816406 C 143.269531 139.898438 143.3125 139.988281 143.3125 140.082031 C 143.3125 140.175781 143.285156 140.257812 143.234375 140.332031 C 143.179688 140.402344 143.109375 140.441406 143.015625 140.441406 L 136.296875 140.441406 C 136.203125 140.441406 136.128906 140.398438 136.078125 140.316406 C 136.023438 140.230469 136 140.132812 136 140.019531 C 136 139.914062 136.023438 139.820312 136.078125 139.738281 C 136.128906 139.652344 136.203125 139.613281 136.296875 139.613281 L 142.0625 139.613281 L 141.515625 139.238281 C 141.441406 139.175781 141.40625 139.105469 141.40625 139.035156 C 141.40625 138.941406 141.4375 138.863281 141.5 138.800781 C 141.570312 138.746094 141.65625 138.722656 141.75 138.722656 Z M 138.125 141.65625 L 141.125 141.65625 C 141.882812 141.65625 142.4375 141.851562 142.78125 142.25 C 143.132812 142.644531 143.3125 143.175781 143.3125 143.84375 C 143.3125 144.507812 143.132812 145.03125 142.78125 145.40625 C 142.4375 145.78125 142.03125 145.96875 141.5625 145.96875 C 141.320312 145.96875 141.203125 145.835938 141.203125 145.578125 C 141.203125 145.285156 141.3125 145.140625 141.53125 145.140625 C 141.832031 145.140625 142.078125 145.015625 142.265625 144.765625 C 142.453125 144.515625 142.546875 144.203125 142.546875 143.828125 C 142.546875 142.941406 142.070312 142.5 141.125 142.5 L 139.734375 142.5 C 140.140625 142.820312 140.34375 143.304688 140.34375 143.953125 C 140.34375 145.296875 139.671875 145.96875 138.328125 145.96875 L 138.125 145.96875 C 137.363281 145.96875 136.804688 145.769531 136.453125 145.375 C 136.109375 144.988281 135.9375 144.46875 135.9375 143.8125 C 135.9375 143.164062 136.109375 142.644531 136.453125 142.25 C 136.804688 141.851562 137.363281 141.65625 138.125 141.65625 Z M 138.078125 142.5 C 137.128906 142.5 136.65625 142.9375 136.65625 143.8125 C 136.65625 144.6875 137.128906 145.125 138.078125 145.125 L 138.296875 145.125 C 139.203125 145.125 139.65625 144.6875 139.65625 143.8125 C 139.65625 142.9375 139.226562 142.5 138.375 142.5 Z M 136 148.371094 "/>
<path style=" stroke:none;fill-rule:nonzero;fill:rgb(0%,0%,0%);fill-opacity:1;" d="M 117.15625 10.34375 C 117.257812 10.34375 117.359375 10.378906 117.453125 10.453125 C 117.554688 10.535156 117.609375 10.625 117.609375 10.71875 C 117.609375 10.769531 117.566406 10.84375 117.484375 10.9375 C 117.410156 11.03125 117.320312 11.125 117.21875 11.21875 C 117.125 11.320312 117.035156 11.472656 116.953125 11.671875 C 116.867188 11.878906 116.820312 12.113281 116.8125 12.375 L 119.46875 12.375 L 119.671875 11.84375 C 119.710938 11.71875 119.789062 11.554688 119.90625 11.359375 C 120.019531 11.160156 120.132812 11.007812 120.25 10.90625 C 120.375 10.8125 120.53125 10.722656 120.71875 10.640625 C 120.914062 10.566406 121.140625 10.53125 121.390625 10.53125 C 121.691406 10.53125 121.957031 10.582031 122.1875 10.6875 C 122.414062 10.789062 122.597656 10.9375 122.734375 11.125 C 122.867188 11.3125 122.96875 11.503906 123.03125 11.703125 C 123.101562 11.910156 123.148438 12.132812 123.171875 12.375 L 123.46875 12.375 C 123.519531 12.375 123.566406 12.398438 123.609375 12.453125 C 123.660156 12.503906 123.6875 12.566406 123.6875 12.640625 C 123.6875 12.703125 123.660156 12.757812 123.609375 12.8125 C 123.566406 12.875 123.519531 12.90625 123.46875 12.90625 L 123.1875 12.90625 C 123.164062 13.300781 123.097656 13.660156 122.984375 13.984375 C 122.867188 14.316406 122.71875 14.484375 122.53125 14.484375 C 122.4375 14.484375 122.332031 14.445312 122.21875 14.375 C 122.113281 14.3125 122.0625 14.226562 122.0625 14.125 C 122.0625 14.082031 122.117188 13.9375 122.234375 13.6875 C 122.359375 13.445312 122.425781 13.1875 122.4375 12.90625 L 120.15625 12.90625 C 120.0625 13.164062 119.96875 13.378906 119.875 13.546875 C 119.789062 13.710938 119.671875 13.890625 119.515625 14.078125 C 119.359375 14.273438 119.15625 14.421875 118.90625 14.515625 C 118.664062 14.609375 118.382812 14.65625 118.0625 14.65625 C 117.476562 14.65625 117.015625 14.492188 116.671875 14.171875 C 116.328125 13.859375 116.117188 13.4375 116.046875 12.90625 L 115.6875 12.90625 C 115.636719 12.90625 115.589844 12.875 115.546875 12.8125 C 115.507812 12.757812 115.484375 12.703125 115.484375 12.640625 C 115.484375 12.566406 115.507812 12.503906 115.546875 12.453125 C 115.589844 12.398438 115.636719 12.375 115.6875 12.375 L 116.015625 12.375 C 116.023438 11.800781 116.15625 11.316406 116.40625 10.921875 C 116.664062 10.535156 116.914062 10.34375 117.15625 10.34375 Z M 121.46875 11.328125 C 121.15625 11.328125 120.921875 11.414062 120.765625 11.59375 C 120.609375 11.78125 120.460938 12.054688 120.328125 12.421875 L 122.4375 12.421875 C 122.351562 11.691406 122.03125 11.328125 121.46875 11.328125 Z M 116.828125 12.859375 C 116.929688 13.523438 117.316406 13.859375 117.984375 13.859375 C 118.328125 13.859375 118.59375 13.769531 118.78125 13.59375 C 118.976562 13.425781 119.144531 13.179688 119.28125 12.859375 Z M 123.4375 17.402344 C 123.507812 17.402344 123.566406 17.4375 123.609375 17.511719 C 123.660156 17.582031 123.6875 17.667969 123.6875 17.761719 C 123.6875 17.855469 123.660156 17.9375 123.609375 18.011719 C 123.566406 18.09375 123.507812 18.136719 123.4375 18.136719 L 121.984375 18.042969 C 121.910156 18.042969 121.847656 18.015625 121.796875 17.964844 C 121.742188 17.921875 121.71875 17.855469 121.71875 17.761719 C 121.71875 17.59375 121.804688 17.511719 121.984375 17.511719 Z M 123.4375 18.761719 C 123.507812 18.761719 123.566406 18.796875 123.609375 18.871094 C 123.660156 18.953125 123.6875 19.035156 123.6875 19.121094 C 123.6875 19.214844 123.660156 19.296875 123.609375 19.371094 C 123.566406 19.453125 123.507812 19.496094 123.4375 19.496094 L 121.984375 19.402344 C 121.910156 19.402344 121.847656 19.375 121.796875 19.324219 C 121.742188 19.28125 121.71875 19.214844 121.71875 19.121094 C 121.71875 18.953125 121.804688 18.871094 121.984375 18.871094 Z M 115.0625 20.070312 C 115.554688 20.070312 115.917969 20.339844 116.15625 20.882812 C 116.28125 20.539062 116.5 20.367188 116.8125 20.367188 C 117.125 20.367188 117.375 20.53125 117.5625 20.867188 C 117.863281 20.492188 118.28125 20.304688 118.8125 20.304688 L 119.15625 20.304688 C 119.632812 20.304688 120.023438 20.464844 120.328125 20.789062 C 120.640625 21.121094 120.796875 21.554688 120.796875 22.085938 C 120.796875 22.53125 120.664062 22.921875 120.40625 23.257812 C 120.84375 23.453125 121.0625 23.679688 121.0625 23.929688 C 121.0625 24.03125 121.03125 24.117188 120.96875 24.179688 C 120.90625 24.25 120.832031 24.289062 120.75 24.289062 C 120.644531 24.289062 120.566406 24.230469 120.515625 24.117188 C 120.460938 23.898438 120.320312 23.71875 120.09375 23.585938 C 119.851562 23.792969 119.539062 23.898438 119.15625 23.898438 L 118.8125 23.898438 C 118.332031 23.898438 117.9375 23.726562 117.625 23.382812 C 117.3125 23.039062 117.15625 22.605469 117.15625 22.085938 C 117.15625 21.804688 117.207031 21.554688 117.3125 21.335938 C 117.207031 21.167969 117.09375 21.085938 116.96875 21.085938 C 116.84375 21.085938 116.742188 21.164062 116.671875 21.320312 C 116.597656 21.476562 116.550781 21.664062 116.53125 21.882812 C 116.519531 22.109375 116.488281 22.359375 116.4375 22.632812 C 116.394531 22.902344 116.335938 23.148438 116.265625 23.367188 C 116.191406 23.59375 116.0625 23.78125 115.875 23.929688 C 115.6875 24.085938 115.453125 24.164062 115.171875 24.164062 C 114.695312 24.164062 114.328125 23.976562 114.078125 23.601562 C 113.828125 23.226562 113.703125 22.734375 113.703125 22.132812 C 113.703125 21.539062 113.828125 21.042969 114.078125 20.648438 C 114.320312 20.261719 114.648438 20.070312 115.0625 20.070312 Z M 115.15625 20.867188 C 114.898438 20.867188 114.6875 20.980469 114.53125 21.210938 C 114.375 21.4375 114.296875 21.746094 114.296875 22.132812 C 114.296875 22.507812 114.375 22.804688 114.53125 23.023438 C 114.6875 23.25 114.898438 23.367188 115.15625 23.367188 C 115.261719 23.367188 115.355469 23.34375 115.4375 23.304688 C 115.511719 23.273438 115.574219 23.214844 115.625 23.132812 C 115.679688 23.046875 115.726562 22.964844 115.765625 22.882812 C 115.796875 22.808594 115.828125 22.710938 115.859375 22.585938 C 115.882812 22.460938 115.898438 22.355469 115.90625 22.273438 C 115.917969 22.1875 115.929688 22.074219 115.9375 21.929688 C 115.949219 21.792969 115.960938 21.699219 115.96875 21.648438 C 115.792969 21.125 115.523438 20.867188 115.15625 20.867188 Z M 118.828125 21.117188 C 118.503906 21.117188 118.238281 21.203125 118.03125 21.382812 C 117.832031 21.558594 117.734375 21.796875 117.734375 22.101562 C 117.734375 22.390625 117.832031 22.625 118.03125 22.804688 C 118.238281 22.992188 118.5 23.085938 118.8125 23.085938 L 119.15625 23.085938 C 119.457031 23.085938 119.710938 22.992188 119.921875 22.804688 C 120.128906 22.625 120.234375 22.386719 120.234375 22.085938 C 120.234375 21.78125 120.128906 21.542969 119.921875 21.367188 C 119.722656 21.199219 119.46875 21.117188 119.15625 21.117188 Z M 116.296875 25.015625 L 120.453125 25.015625 C 120.535156 25.015625 120.601562 25.050781 120.65625 25.125 C 120.707031 25.195312 120.734375 25.296875 120.734375 25.421875 C 120.734375 25.523438 120.707031 25.613281 120.65625 25.6875 C 120.601562 25.757812 120.535156 25.796875 120.453125 25.796875 L 119.984375 25.796875 C 120.203125 25.921875 120.390625 26.097656 120.546875 26.328125 C 120.710938 26.566406 120.796875 26.828125 120.796875 27.109375 L 120.796875 27.453125 C 120.796875 27.535156 120.753906 27.609375 120.671875 27.671875 C 120.597656 27.734375 120.507812 27.765625 120.40625 27.765625 C 120.3125 27.765625 120.226562 27.734375 120.15625 27.671875 C 120.082031 27.609375 120.046875 27.535156 120.046875 27.453125 L 120.046875 27.109375 C 120.046875 26.773438 119.910156 26.476562 119.640625 26.21875 C 119.367188 25.96875 119.015625 25.84375 118.578125 25.84375 L 116.296875 25.84375 C 116.222656 25.84375 116.15625 25.800781 116.09375 25.71875 C 116.03125 25.632812 116 25.535156 116 25.421875 C 116 25.304688 116.03125 25.207031 116.09375 25.125 C 116.15625 25.050781 116.222656 25.015625 116.296875 25.015625 Z M 117.859375 28.265625 L 118.90625 28.265625 C 119.425781 28.265625 119.867188 28.457031 120.234375 28.84375 C 120.609375 29.238281 120.796875 29.710938 120.796875 30.265625 C 120.796875 30.785156 120.617188 31.234375 120.265625 31.609375 C 119.921875 31.984375 119.484375 32.171875 118.953125 32.171875 C 118.765625 32.171875 118.609375 32.148438 118.484375 32.109375 C 118.367188 32.066406 118.285156 31.992188 118.234375 31.890625 C 118.191406 31.796875 118.160156 31.707031 118.140625 31.625 C 118.128906 31.539062 118.125 31.429688 118.125 31.296875 L 118.125 29.09375 L 117.828125 29.09375 C 117.460938 29.09375 117.171875 29.222656 116.953125 29.484375 C 116.734375 29.753906 116.625 30.097656 116.625 30.515625 C 116.625 30.734375 116.65625 30.925781 116.71875 31.09375 C 116.78125 31.257812 116.84375 31.390625 116.90625 31.484375 C 116.976562 31.585938 117.015625 31.671875 117.015625 31.734375 C 117.015625 31.828125 116.972656 31.90625 116.890625 31.96875 C 116.804688 32.03125 116.71875 32.0625 116.625 32.0625 C 116.476562 32.0625 116.320312 31.910156 116.15625 31.609375 C 116 31.304688 115.921875 30.929688 115.921875 30.484375 C 115.921875 29.835938 116.097656 29.304688 116.453125 28.890625 C 116.804688 28.472656 117.273438 28.265625 117.859375 28.265625 Z M 118.6875 29.09375 L 118.6875 30.953125 C 118.6875 31.117188 118.707031 31.234375 118.75 31.296875 C 118.789062 31.359375 118.878906 31.390625 119.015625 31.390625 C 119.304688 31.390625 119.566406 31.28125 119.796875 31.0625 C 120.023438 30.84375 120.140625 30.570312 120.140625 30.25 C 120.140625 29.9375 120.035156 29.664062 119.828125 29.4375 C 119.617188 29.207031 119.359375 29.09375 119.046875 29.09375 Z M 120.40625 32.636719 C 120.507812 32.636719 120.597656 32.691406 120.671875 32.808594 C 120.753906 32.933594 120.796875 33.050781 120.796875 33.167969 C 120.796875 33.3125 120.738281 33.40625 120.625 33.449219 L 117.15625 34.761719 L 120.625 35.949219 C 120.738281 36 120.796875 36.089844 120.796875 36.214844 C 120.796875 36.328125 120.753906 36.441406 120.671875 36.558594 C 120.597656 36.683594 120.503906 36.746094 120.390625 36.746094 C 120.359375 36.746094 120.328125 36.734375 120.296875 36.714844 L 116.21875 35.199219 L 115.71875 35.011719 C 115.625 34.980469 115.46875 34.910156 115.25 34.808594 C 115.023438 34.714844 114.855469 34.628906 114.75 34.558594 C 114.648438 34.496094 114.515625 34.402344 114.359375 34.277344 C 114.195312 34.160156 114.074219 34.046875 114 33.933594 C 113.929688 33.816406 113.859375 33.683594 113.796875 33.527344 C 113.734375 33.371094 113.703125 33.203125 113.703125 33.027344 C 113.703125 32.765625 113.828125 32.636719 114.078125 32.636719 C 114.320312 32.636719 114.4375 32.71875 114.4375 32.886719 C 114.4375 33.175781 114.609375 33.464844 114.953125 33.746094 C 115.289062 34.035156 115.714844 34.230469 116.234375 34.324219 L 120.296875 32.667969 C 120.328125 32.644531 120.363281 32.636719 120.40625 32.636719 Z M 116.296875 39.472656 L 123.3125 39.472656 C 123.394531 39.472656 123.460938 39.507812 123.515625 39.582031 C 123.566406 39.664062 123.59375 39.761719 123.59375 39.878906 C 123.59375 40.003906 123.566406 40.105469 123.515625 40.191406 C 123.460938 40.273438 123.394531 40.316406 123.3125 40.316406 L 120.046875 40.316406 C 120.253906 40.429688 120.429688 40.601562 120.578125 40.832031 C 120.722656 41.058594 120.796875 41.320312 120.796875 41.613281 C 120.796875 42.101562 120.609375 42.523438 120.234375 42.878906 C 119.859375 43.230469 119.40625 43.410156 118.875 43.410156 L 117.859375 43.410156 C 117.347656 43.410156 116.894531 43.230469 116.5 42.878906 C 116.113281 42.523438 115.921875 42.113281 115.921875 41.644531 C 115.921875 41.339844 115.996094 41.066406 116.140625 40.816406 C 116.296875 40.566406 116.484375 40.382812 116.703125 40.269531 L 116.296875 40.269531 C 116.222656 40.269531 116.15625 40.226562 116.09375 40.144531 C 116.03125 40.070312 116 39.988281 116 39.894531 C 116 39.777344 116.03125 39.679688 116.09375 39.597656 C 116.15625 39.511719 116.222656 39.472656 116.296875 39.472656 Z M 117.59375 40.316406 C 117.425781 40.316406 117.226562 40.429688 117 40.660156 C 116.78125 40.886719 116.671875 41.148438 116.671875 41.441406 C 116.671875 41.742188 116.789062 42.007812 117.03125 42.238281 C 117.28125 42.464844 117.554688 42.582031 117.859375 42.582031 L 118.875 42.582031 C 119.175781 42.582031 119.445312 42.464844 119.6875 42.238281 C 119.925781 42.007812 120.046875 41.742188 120.046875 41.441406 C 120.046875 41.136719 119.9375 40.871094 119.71875 40.644531 C 119.507812 40.425781 119.226562 40.316406 118.875 40.316406 Z M 116.296875 44.507812 L 123.3125 44.507812 C 123.394531 44.507812 123.460938 44.542969 123.515625 44.617188 C 123.566406 44.6875 123.59375 44.78125 123.59375 44.898438 C 123.59375 45.023438 123.566406 45.125 123.515625 45.210938 C 123.460938 45.292969 123.394531 45.335938 123.3125 45.335938 L 116.296875 45.335938 C 116.222656 45.335938 116.15625 45.292969 116.09375 45.210938 C 116.03125 45.125 116 45.027344 116 44.914062 C 116 44.796875 116.03125 44.699219 116.09375 44.617188 C 116.15625 44.542969 116.222656 44.507812 116.296875 44.507812 Z M 117.25 46.292969 C 117.769531 46.292969 118.128906 46.488281 118.328125 46.886719 C 118.535156 47.292969 118.640625 47.875 118.640625 48.636719 L 118.640625 49.105469 L 118.84375 49.105469 C 119.175781 49.105469 119.46875 49.011719 119.71875 48.824219 C 119.96875 48.644531 120.09375 48.375 120.09375 48.011719 C 120.09375 47.730469 120.039062 47.480469 119.9375 47.261719 C 119.84375 47.050781 119.796875 46.9375 119.796875 46.917969 C 119.796875 46.824219 119.835938 46.746094 119.921875 46.683594 C 120.015625 46.628906 120.113281 46.605469 120.21875 46.605469 C 120.375 46.605469 120.507812 46.753906 120.625 47.058594 C 120.738281 47.371094 120.796875 47.691406 120.796875 48.027344 C 120.796875 48.683594 120.609375 49.167969 120.234375 49.480469 C 119.867188 49.792969 119.410156 49.949219 118.859375 49.949219 L 116.296875 49.949219 C 116.210938 49.949219 116.140625 49.90625 116.078125 49.824219 C 116.023438 49.75 116 49.652344 116 49.527344 C 116 49.421875 116.023438 49.332031 116.078125 49.261719 C 116.140625 49.1875 116.210938 49.152344 116.296875 49.152344 L 116.703125 49.152344 C 116.179688 48.691406 115.921875 48.1875 115.921875 47.636719 C 115.921875 47.238281 116.03125 46.917969 116.25 46.667969 C 116.476562 46.417969 116.8125 46.292969 117.25 46.292969 Z M 117.34375 47.136719 C 117.09375 47.136719 116.90625 47.203125 116.78125 47.339844 C 116.65625 47.484375 116.59375 47.671875 116.59375 47.902344 C 116.59375 48.183594 116.703125 48.453125 116.921875 48.714844 C 117.148438 48.972656 117.378906 49.105469 117.609375 49.105469 L 118.125 49.105469 L 118.125 48.761719 C 118.125 48.5625 118.117188 48.394531 118.109375 48.261719 C 118.097656 48.125 118.078125 47.980469 118.046875 47.824219 C 118.023438 47.675781 117.984375 47.550781 117.921875 47.449219 C 117.867188 47.355469 117.789062 47.277344 117.6875 47.214844 C 117.59375 47.160156 117.476562 47.136719 117.34375 47.136719 Z M 117.859375 50.910156 L 118.859375 50.910156 C 119.429688 50.910156 119.894531 51.074219 120.25 51.410156 C 120.613281 51.753906 120.796875 52.246094 120.796875 52.894531 C 120.796875 53.308594 120.722656 53.660156 120.578125 53.941406 C 120.429688 54.222656 120.273438 54.363281 120.109375 54.363281 C 120.015625 54.363281 119.921875 54.324219 119.828125 54.253906 C 119.742188 54.191406 119.703125 54.113281 119.703125 54.019531 C 119.703125 53.988281 119.757812 53.867188 119.875 53.660156 C 119.988281 53.460938 120.046875 53.226562 120.046875 52.957031 C 120.046875 52.558594 119.941406 52.257812 119.734375 52.050781 C 119.535156 51.839844 119.242188 51.738281 118.859375 51.738281 L 117.859375 51.738281 C 117.066406 51.738281 116.671875 52.148438 116.671875 52.972656 C 116.671875 53.253906 116.726562 53.492188 116.84375 53.691406 C 116.96875 53.898438 117.03125 54.019531 117.03125 54.050781 C 117.03125 54.164062 116.984375 54.253906 116.890625 54.316406 C 116.804688 54.386719 116.71875 54.425781 116.625 54.425781 C 116.457031 54.425781 116.296875 54.277344 116.140625 53.988281 C 115.996094 53.695312 115.921875 53.335938 115.921875 52.910156 C 115.921875 52.253906 116.097656 51.753906 116.453125 51.410156 C 116.804688 51.074219 117.273438 50.910156 117.859375 50.910156 Z M 116.296875 55.253906 L 123.3125 55.253906 C 123.394531 55.253906 123.460938 55.289062 123.515625 55.363281 C 123.566406 55.445312 123.59375 55.542969 123.59375 55.660156 C 123.59375 55.785156 123.566406 55.886719 123.515625 55.972656 C 123.460938 56.054688 123.394531 56.097656 123.3125 56.097656 L 118.625 56.097656 L 120.6875 58.363281 C 120.738281 58.425781 120.765625 58.488281 120.765625 58.550781 C 120.765625 58.652344 120.722656 58.746094 120.640625 58.832031 C 120.554688 58.925781 120.46875 58.972656 120.375 58.972656 C 120.289062 58.972656 120.222656 58.941406 120.171875 58.878906 L 118.9375 57.488281 L 116.53125 59.144531 C 116.476562 59.183594 116.425781 59.207031 116.375 59.207031 C 116.28125 59.207031 116.1875 59.152344 116.09375 59.050781 C 116 58.945312 115.953125 58.839844 115.953125 58.738281 C 115.953125 58.644531 116 58.566406 116.09375 58.503906 L 118.421875 56.925781 L 117.6875 56.097656 L 116.296875 56.097656 C 116.222656 56.097656 116.15625 56.054688 116.09375 55.972656 C 116.03125 55.886719 116 55.789062 116 55.675781 C 116 55.558594 116.03125 55.460938 116.09375 55.378906 C 116.15625 55.292969 116.222656 55.253906 116.296875 55.253906 Z M 123.4375 59.671875 C 123.507812 59.671875 123.566406 59.707031 123.609375 59.78125 C 123.660156 59.851562 123.6875 59.9375 123.6875 60.03125 C 123.6875 60.125 123.660156 60.207031 123.609375 60.28125 C 123.566406 60.363281 123.507812 60.40625 123.4375 60.40625 L 121.984375 60.3125 C 121.910156 60.3125 121.847656 60.285156 121.796875 60.234375 C 121.742188 60.191406 121.71875 60.125 121.71875 60.03125 C 121.71875 59.863281 121.804688 59.78125 121.984375 59.78125 Z M 123.4375 61.03125 C 123.507812 61.03125 123.566406 61.066406 123.609375 61.140625 C 123.660156 61.222656 123.6875 61.304688 123.6875 61.390625 C 123.6875 61.484375 123.660156 61.566406 123.609375 61.640625 C 123.566406 61.722656 123.507812 61.765625 123.4375 61.765625 L 121.984375 61.671875 C 121.910156 61.671875 121.847656 61.644531 121.796875 61.59375 C 121.742188 61.550781 121.71875 61.484375 121.71875 61.390625 C 121.71875 61.222656 121.804688 61.140625 121.984375 61.140625 Z M 116 62.121094 "/>
</g>
</svg>
