<?xml version="1.0" encoding="UTF-8"?>
<svg xmlns="http://www.w3.org/2000/svg" xmlns:xlink="http://www.w3.org/1999/xlink" width="384pt" height="288pt" viewBox="0 0 384 288" version="1.1">
<g id="surface133">
<path style=" stroke:none;fill-rule:nonzero;fill:rgb(0%,0%,0%);fill-opacity:1;" d="M 0 0 L 284 0 L 284 288 L 0 288 Z M 0 0 "/>
<path style=" stroke:none;fill-rule:nonzero;fill:rgb(50.196078%,50.196078%,50.196078%);fill-opacity:1;" d="M 0 0 L 35.5 0 L 35.5 288 L 0 288 Z M 0 0 "/>
<path style=" stroke:none;fill-rule:nonzero;fill:rgb(0%,0%,0%);fill-opacity:1;" d="M 35.5 0 L 71 0 L 71 288 L 35.5 288 Z M 35.5 0 "/>
<path style=" stroke:none;fill-rule:nonzero;fill:rgb(50.196078%,50.196078%,50.196078%);fill-opacity:1;" d="M 71 0 L 106.5 0 L 106.5 288 L 71 288 Z M 71 0 "/>
<path style=" stroke:none;fill-rule:nonzero;fill:rgb(0%,0%,0%);fill-opacity:1;" d="M 106.5 0 L 142 0 L 142 288 L 106.5 288 Z M 106.5 0 "/>
<path style=" stroke:none;fill-rule:nonzero;fill:rgb(50.196078%,50.196078%,50.196078%);fill-opacity:1;" d="M 142 0 L 177.5 0 L 177.5 288 L 142 288 Z M 142 0 "/>
<path style=" stroke:none;fill-rule:nonzero;fill:rgb(0%,0%,0%);fill-opacity:1;" d="M 177.5 0 L 213 0 L 213 288 L 177.5 288 Z M 177.5 0 "/>
<path style=" stroke:none;fill-rule:nonzero;fill:rgb(50.196078%,50.196078%,50.196078%);fill-opacity:1;" d="M 213 0 L 248.5 0 L 248.5 288 L 213 288 Z M 213 0 "/>
<path style=" stroke:none;fill-rule:nonzero;fill:rgb(0%,0%,0%);fill-opacity:1;" d="M 248.5 0 L 284 0 L 284 288 L 248.5 288 Z M 248.5 0 "/>
<path style=" stroke:none;fill-rule:nonzero;fill:rgb(0%,0%,0%);fill-opacity:1;" d="M 300.640625 50.484375 L 306.453125 47.515625 C 307.015625 47.234375 307.582031 47.183594 308.15625 47.359375 C 308.738281 47.539062 309.160156 47.882812 309.421875 48.390625 L 309.609375 48.765625 C 309.660156 48.882812 309.664062 48.992188 309.625 49.09375 C 309.582031 49.199219 309.507812 49.277344 309.40625 49.328125 C 309.300781 49.382812 309.191406 49.398438 309.078125 49.375 C 308.972656 49.355469 308.894531 49.289062 308.84375 49.171875 L 308.734375 48.953125 C 308.554688 48.621094 308.300781 48.402344 307.96875 48.296875 C 307.632812 48.195312 307.304688 48.21875 306.984375 48.375 L 305.84375 48.953125 L 306.59375 50.421875 C 306.632812 50.503906 306.632812 50.585938 306.59375 50.671875 C 306.550781 50.753906 306.484375 50.816406 306.390625 50.859375 C 306.296875 50.910156 306.203125 50.929688 306.109375 50.921875 C 306.015625 50.910156 305.945312 50.863281 305.90625 50.78125 L 305.15625 49.3125 L 301.09375 51.375 C 301.007812 51.414062 300.910156 51.40625 300.796875 51.34375 C 300.691406 51.289062 300.609375 51.203125 300.546875 51.078125 C 300.484375 50.953125 300.457031 50.832031 300.46875 50.71875 C 300.488281 50.613281 300.546875 50.535156 300.640625 50.484375 Z M 303.917969 52.789062 L 305.011719 52.242188 C 305.5625 51.960938 306.152344 51.925781 306.777344 52.132812 C 307.402344 52.34375 307.859375 52.734375 308.152344 53.304688 C 308.441406 53.867188 308.488281 54.464844 308.292969 55.101562 C 308.09375 55.734375 307.71875 56.195312 307.167969 56.476562 L 306.074219 57.023438 C 305.53125 57.304688 304.941406 57.335938 304.308594 57.117188 C 303.671875 56.90625 303.207031 56.523438 302.917969 55.960938 C 302.636719 55.398438 302.59375 54.796875 302.792969 54.164062 C 303 53.527344 303.375 53.070312 303.917969 52.789062 Z M 304.371094 53.679688 C 304.035156 53.84375 303.800781 54.117188 303.667969 54.492188 C 303.53125 54.867188 303.546875 55.21875 303.714844 55.554688 C 303.878906 55.886719 304.15625 56.105469 304.542969 56.210938 C 304.9375 56.324219 305.296875 56.296875 305.621094 56.132812 L 306.714844 55.585938 C 307.035156 55.417969 307.261719 55.148438 307.386719 54.773438 C 307.519531 54.398438 307.503906 54.042969 307.339844 53.710938 C 307.171875 53.375 306.894531 53.160156 306.511719 53.054688 C 306.136719 52.941406 305.785156 52.96875 305.464844 53.132812 Z M 305 59.03125 L 312.5 55.21875 C 312.59375 55.167969 312.6875 55.167969 312.78125 55.21875 C 312.882812 55.273438 312.96875 55.367188 313.03125 55.5 C 313.09375 55.625 313.117188 55.746094 313.109375 55.859375 C 313.097656 55.976562 313.046875 56.058594 312.953125 56.109375 L 305.453125 59.921875 C 305.378906 59.953125 305.285156 59.941406 305.171875 59.890625 C 305.054688 59.835938 304.96875 59.75 304.90625 59.625 C 304.84375 59.507812 304.820312 59.390625 304.84375 59.265625 C 304.863281 59.148438 304.914062 59.070312 305 59.03125 Z M 307.707031 60.234375 L 308.800781 59.6875 C 309.363281 59.398438 309.941406 59.339844 310.535156 59.515625 C 311.136719 59.695312 311.574219 60.042969 311.847656 60.5625 C 312.011719 60.882812 312.074219 61.203125 312.035156 61.515625 C 312.003906 61.835938 311.898438 62.125 311.722656 62.375 L 315.222656 60.609375 C 315.316406 60.558594 315.414062 60.558594 315.519531 60.609375 C 315.621094 60.664062 315.707031 60.75 315.769531 60.875 C 315.832031 61.007812 315.851562 61.128906 315.832031 61.234375 C 315.820312 61.347656 315.769531 61.429688 315.675781 61.484375 L 308.175781 65.296875 C 308.089844 65.335938 307.996094 65.332031 307.894531 65.28125 C 307.789062 65.226562 307.707031 65.140625 307.644531 65.015625 C 307.589844 64.898438 307.574219 64.785156 307.597656 64.671875 C 307.617188 64.566406 307.667969 64.492188 307.753906 64.453125 L 308.191406 64.234375 C 307.898438 64.234375 307.601562 64.132812 307.300781 63.9375 C 306.996094 63.75 306.769531 63.5 306.613281 63.1875 C 306.351562 62.6875 306.332031 62.140625 306.550781 61.546875 C 306.777344 60.953125 307.164062 60.515625 307.707031 60.234375 Z M 308.160156 61.125 C 307.835938 61.289062 307.601562 61.5625 307.457031 61.9375 C 307.320312 62.3125 307.335938 62.660156 307.503906 62.984375 C 307.660156 63.304688 307.917969 63.53125 308.285156 63.65625 C 308.660156 63.78125 308.933594 63.800781 309.113281 63.71875 L 310.488281 63.015625 C 310.863281 62.828125 311.101562 62.546875 311.207031 62.171875 C 311.308594 61.804688 311.285156 61.46875 311.128906 61.15625 C 310.960938 60.820312 310.683594 60.605469 310.300781 60.5 C 309.925781 60.386719 309.574219 60.414062 309.253906 60.578125 Z M 308.894531 66.703125 L 316.066406 63.046875 C 316.167969 62.996094 316.269531 62.996094 316.363281 63.046875 C 316.464844 63.101562 316.542969 63.183594 316.597656 63.296875 L 318.535156 67.09375 C 318.585938 67.195312 318.585938 67.289062 318.535156 67.375 C 318.492188 67.46875 318.414062 67.539062 318.300781 67.59375 C 318.183594 67.65625 318.070312 67.675781 317.957031 67.65625 C 317.839844 67.644531 317.761719 67.59375 317.722656 67.5 L 316.035156 64.1875 L 313.316406 65.5625 L 314.160156 67.234375 C 314.210938 67.328125 314.210938 67.421875 314.160156 67.515625 C 314.117188 67.617188 314.042969 67.695312 313.941406 67.75 C 313.847656 67.800781 313.746094 67.816406 313.644531 67.796875 C 313.539062 67.785156 313.460938 67.726562 313.410156 67.625 L 312.566406 65.953125 L 309.847656 67.34375 L 311.535156 70.65625 C 311.574219 70.75 311.570312 70.84375 311.519531 70.9375 C 311.476562 71.03125 311.394531 71.109375 311.269531 71.171875 C 311.164062 71.222656 311.058594 71.242188 310.957031 71.234375 C 310.851562 71.222656 310.773438 71.164062 310.722656 71.0625 L 308.785156 67.265625 C 308.730469 67.148438 308.710938 67.039062 308.722656 66.9375 C 308.742188 66.832031 308.800781 66.753906 308.894531 66.703125 Z M 315.753906 69.328125 C 315.855469 69.277344 315.976562 69.292969 316.113281 69.375 C 316.257812 69.460938 316.367188 69.570312 316.441406 69.703125 C 316.511719 69.851562 316.503906 69.976562 316.410156 70.078125 L 313.457031 73.28125 L 317.738281 72.78125 C 317.902344 72.769531 318.023438 72.832031 318.097656 72.96875 C 318.160156 73.082031 318.183594 73.226562 318.175781 73.40625 C 318.164062 73.582031 318.105469 73.695312 318.003906 73.75 C 317.949219 73.769531 317.894531 73.78125 317.832031 73.78125 L 312.472656 74.296875 C 312.324219 74.296875 312.195312 74.191406 312.082031 73.984375 C 311.964844 73.753906 311.960938 73.582031 312.066406 73.46875 L 315.613281 69.453125 C 315.683594 69.382812 315.730469 69.339844 315.753906 69.328125 Z M 315.570312 75.6875 L 316.695312 75.125 C 317.246094 74.84375 317.828125 74.8125 318.445312 75.03125 C 319.058594 75.242188 319.511719 75.636719 319.804688 76.21875 C 320.09375 76.769531 320.15625 77.34375 319.992188 77.9375 C 319.824219 78.539062 319.453125 78.988281 318.882812 79.28125 C 318.683594 79.382812 318.507812 79.441406 318.351562 79.453125 C 318.203125 79.460938 318.078125 79.425781 317.976562 79.34375 C 317.871094 79.269531 317.789062 79.195312 317.726562 79.125 C 317.664062 79.050781 317.589844 78.929688 317.507812 78.765625 L 316.320312 76.4375 L 316.007812 76.59375 C 315.601562 76.800781 315.355469 77.101562 315.273438 77.5 C 315.1875 77.894531 315.261719 78.316406 315.492188 78.765625 C 315.605469 79.003906 315.742188 79.191406 315.898438 79.328125 C 316.054688 79.460938 316.195312 79.566406 316.320312 79.640625 C 316.453125 79.710938 316.539062 79.785156 316.570312 79.859375 C 316.621094 79.953125 316.617188 80.054688 316.554688 80.171875 C 316.5 80.296875 316.429688 80.378906 316.335938 80.421875 C 316.179688 80.503906 315.929688 80.425781 315.585938 80.1875 C 315.25 79.945312 314.964844 79.59375 314.726562 79.125 C 314.371094 78.425781 314.265625 77.757812 314.414062 77.125 C 314.570312 76.488281 314.953125 76.011719 315.570312 75.6875 Z M 316.914062 76.125 L 317.914062 78.09375 C 318.015625 78.28125 318.105469 78.394531 318.179688 78.4375 C 318.261719 78.488281 318.371094 78.476562 318.507812 78.40625 C 318.828125 78.238281 319.046875 77.972656 319.164062 77.609375 C 319.289062 77.253906 319.261719 76.910156 319.085938 76.578125 C 318.917969 76.234375 318.664062 76 318.320312 75.875 C 317.976562 75.75 317.636719 75.773438 317.304688 75.9375 Z M 316.523438 81.707031 L 320.976562 79.441406 C 321.070312 79.390625 321.164062 79.394531 321.257812 79.457031 C 321.359375 79.511719 321.445312 79.605469 321.507812 79.738281 C 321.558594 79.84375 321.578125 79.949219 321.570312 80.050781 C 321.558594 80.15625 321.507812 80.234375 321.414062 80.285156 L 320.914062 80.535156 C 321.214844 80.546875 321.515625 80.636719 321.820312 80.800781 C 322.121094 80.96875 322.351562 81.203125 322.507812 81.503906 L 322.695312 81.878906 C 322.734375 81.972656 322.730469 82.070312 322.679688 82.175781 C 322.636719 82.277344 322.558594 82.355469 322.445312 82.410156 C 322.339844 82.460938 322.230469 82.476562 322.117188 82.457031 C 322 82.433594 321.921875 82.378906 321.882812 82.285156 L 321.695312 81.910156 C 321.507812 81.542969 321.195312 81.304688 320.757812 81.191406 C 320.328125 81.066406 319.882812 81.121094 319.414062 81.347656 L 316.976562 82.597656 C 316.902344 82.628906 316.808594 82.617188 316.695312 82.566406 C 316.589844 82.511719 316.507812 82.425781 316.445312 82.300781 C 316.382812 82.183594 316.355469 82.066406 316.367188 81.941406 C 316.386719 81.824219 316.4375 81.746094 316.523438 81.707031 Z M 322.539062 82.652344 C 322.652344 82.589844 322.789062 82.605469 322.945312 82.699219 C 323.101562 82.785156 323.210938 82.886719 323.273438 83.011719 C 323.34375 83.167969 323.328125 83.292969 323.226562 83.386719 L 320.210938 86.699219 L 324.601562 86.074219 C 324.746094 86.074219 324.855469 86.136719 324.929688 86.261719 C 324.992188 86.386719 325.011719 86.535156 324.992188 86.714844 C 324.96875 86.890625 324.898438 87.011719 324.773438 87.074219 C 324.742188 87.09375 324.699219 87.097656 324.648438 87.089844 L 319.476562 87.667969 L 318.820312 87.746094 C 318.703125 87.765625 318.5 87.78125 318.210938 87.792969 C 317.917969 87.800781 317.703125 87.800781 317.554688 87.792969 C 317.410156 87.78125 317.21875 87.753906 316.976562 87.714844 C 316.738281 87.671875 316.550781 87.609375 316.414062 87.527344 C 316.28125 87.441406 316.132812 87.332031 315.976562 87.199219 C 315.820312 87.0625 315.695312 86.90625 315.601562 86.730469 C 315.46875 86.449219 315.535156 86.238281 315.804688 86.105469 C 316.054688 85.96875 316.222656 85.984375 316.304688 86.152344 C 316.472656 86.472656 316.816406 86.691406 317.335938 86.808594 C 317.84375 86.933594 318.40625 86.910156 319.023438 86.746094 L 322.429688 82.761719 C 322.46875 82.710938 322.507812 82.675781 322.539062 82.652344 Z M 321.675781 92.386719 L 329.503906 88.402344 C 329.597656 88.363281 329.691406 88.367188 329.785156 88.417969 C 329.886719 88.472656 329.964844 88.542969 330.019531 88.636719 L 330.910156 90.402344 C 330.960938 90.496094 330.960938 90.589844 330.910156 90.683594 C 330.855469 90.777344 330.773438 90.855469 330.660156 90.917969 C 330.542969 90.972656 330.433594 90.992188 330.332031 90.980469 C 330.226562 90.972656 330.148438 90.917969 330.097656 90.824219 L 329.457031 89.558594 L 322.628906 93.027344 L 323.269531 94.292969 C 323.320312 94.386719 323.320312 94.480469 323.269531 94.574219 C 323.214844 94.667969 323.132812 94.746094 323.019531 94.808594 C 322.914062 94.859375 322.808594 94.875 322.707031 94.855469 C 322.601562 94.84375 322.523438 94.792969 322.472656 94.699219 L 321.582031 92.933594 C 321.527344 92.839844 321.507812 92.734375 321.519531 92.621094 C 321.527344 92.515625 321.582031 92.4375 321.675781 92.386719 Z M 324.839844 94.480469 C 325.003906 94.398438 325.128906 94.371094 325.214844 94.402344 C 325.308594 94.425781 325.394531 94.519531 325.480469 94.683594 C 325.5625 94.851562 325.59375 94.988281 325.574219 95.089844 C 325.550781 95.183594 325.484375 95.261719 325.371094 95.324219 C 325.089844 95.457031 324.894531 95.699219 324.792969 96.042969 C 324.6875 96.394531 324.753906 96.808594 324.996094 97.277344 C 325.484375 98.222656 326.222656 98.441406 327.214844 97.933594 L 327.402344 97.839844 C 328.277344 97.390625 328.46875 96.691406 327.980469 95.746094 C 327.875 95.527344 327.949219 95.355469 328.199219 95.230469 C 328.449219 95.105469 328.625 95.152344 328.730469 95.371094 C 328.9375 95.777344 329.1875 96.035156 329.480469 96.152344 C 329.78125 96.265625 330.171875 96.199219 330.652344 95.949219 C 331.484375 95.519531 331.699219 94.914062 331.292969 94.121094 C 331.050781 93.652344 330.78125 93.378906 330.480469 93.292969 C 330.1875 93.210938 329.902344 93.242188 329.621094 93.386719 C 329.359375 93.523438 329.15625 93.449219 329.011719 93.167969 C 328.90625 92.972656 328.871094 92.832031 328.902344 92.746094 C 328.941406 92.652344 329.050781 92.558594 329.230469 92.464844 C 329.417969 92.371094 329.621094 92.308594 329.839844 92.277344 C 330.058594 92.246094 330.296875 92.257812 330.558594 92.308594 C 330.828125 92.363281 331.097656 92.511719 331.371094 92.761719 C 331.640625 93.003906 331.878906 93.332031 332.089844 93.746094 C 332.785156 95.109375 332.503906 96.109375 331.246094 96.746094 C 330.796875 96.972656 330.375 97.082031 329.980469 97.074219 C 329.59375 97.074219 329.269531 96.980469 329.011719 96.792969 C 329.082031 97.667969 328.699219 98.316406 327.855469 98.746094 L 327.667969 98.839844 C 326.875 99.246094 326.183594 99.328125 325.589844 99.089844 C 325.003906 98.847656 324.535156 98.378906 324.183594 97.683594 C 323.808594 96.941406 323.707031 96.28125 323.886719 95.699219 C 324.0625 95.125 324.378906 94.722656 324.839844 94.480469 Z M 326.339844 100.542969 C 326.496094 100.457031 326.65625 100.441406 326.824219 100.496094 C 326.988281 100.546875 327.109375 100.652344 327.183594 100.808594 C 327.265625 100.953125 327.28125 101.105469 327.230469 101.261719 C 327.175781 101.425781 327.066406 101.550781 326.902344 101.636719 C 326.785156 101.699219 326.277344 101.765625 325.371094 101.839844 C 325.246094 101.839844 325.160156 101.785156 325.105469 101.683594 C 325.066406 101.597656 325.054688 101.511719 325.074219 101.417969 C 325.085938 101.332031 325.128906 101.277344 325.199219 101.246094 C 325.253906 101.214844 325.292969 101.199219 325.324219 101.199219 L 325.996094 101.136719 C 325.972656 100.863281 326.089844 100.667969 326.339844 100.542969 Z M 328.535156 101.644531 C 328.824219 101.5 329.042969 101.578125 329.191406 101.878906 C 329.347656 102.183594 329.304688 102.394531 329.066406 102.519531 C 328.722656 102.683594 328.519531 102.949219 328.457031 103.316406 C 328.394531 103.691406 328.460938 104.074219 328.660156 104.472656 C 328.898438 104.929688 329.207031 105.214844 329.582031 105.332031 C 329.957031 105.445312 330.386719 105.378906 330.878906 105.128906 L 331.097656 105.019531 C 331.574219 104.777344 331.871094 104.472656 331.988281 104.097656 C 332.113281 103.730469 332.058594 103.324219 331.832031 102.878906 L 331.050781 101.363281 C 330.914062 101.082031 330.964844 100.878906 331.207031 100.753906 C 331.277344 100.722656 331.363281 100.691406 331.457031 100.660156 L 334.550781 99.363281 C 334.769531 99.269531 334.917969 99.296875 335.003906 99.441406 L 336.566406 102.519531 C 336.617188 102.613281 336.617188 102.699219 336.566406 102.785156 C 336.511719 102.878906 336.429688 102.949219 336.316406 103.003906 C 336.210938 103.066406 336.101562 103.089844 335.988281 103.082031 C 335.882812 103.070312 335.804688 103.019531 335.753906 102.925781 L 334.457031 100.394531 L 332.050781 101.410156 L 332.597656 102.488281 C 332.949219 103.183594 333.054688 103.832031 332.910156 104.425781 C 332.761719 105.027344 332.308594 105.523438 331.550781 105.910156 L 331.332031 106.019531 C 330.550781 106.425781 329.863281 106.511719 329.269531 106.285156 C 328.683594 106.054688 328.214844 105.589844 327.863281 104.894531 C 327.496094 104.175781 327.386719 103.519531 327.535156 102.925781 C 327.691406 102.332031 328.023438 101.90625 328.535156 101.644531 Z M 329.515625 107.582031 C 329.628906 107.519531 329.738281 107.492188 329.84375 107.503906 C 329.957031 107.523438 330.035156 107.582031 330.078125 107.675781 L 330.734375 108.941406 L 337.5625 105.472656 L 336.90625 104.207031 C 336.863281 104.113281 336.863281 104.019531 336.90625 103.925781 C 336.957031 103.824219 337.039062 103.746094 337.15625 103.691406 C 337.269531 103.628906 337.378906 103.609375 337.484375 103.628906 C 337.597656 103.640625 337.675781 103.691406 337.71875 103.785156 L 338.609375 105.535156 C 338.671875 105.652344 338.691406 105.765625 338.671875 105.878906 C 338.660156 105.984375 338.609375 106.058594 338.515625 106.097656 L 330.6875 110.082031 C 330.59375 110.132812 330.5 110.132812 330.40625 110.082031 C 330.3125 110.027344 330.234375 109.945312 330.171875 109.832031 L 329.28125 108.082031 C 329.242188 107.988281 329.242188 107.894531 329.28125 107.800781 C 329.332031 107.707031 329.410156 107.632812 329.515625 107.582031 Z M 334.019531 112.734375 L 338.566406 110.421875 C 339.117188 110.140625 339.695312 110.109375 340.300781 110.328125 C 340.902344 110.539062 341.351562 110.917969 341.644531 111.46875 C 341.789062 111.761719 341.726562 111.980469 341.457031 112.125 C 341.332031 112.179688 341.214844 112.199219 341.113281 112.1875 C 341.007812 112.167969 340.933594 112.109375 340.894531 112.015625 C 340.695312 111.632812 340.410156 111.382812 340.035156 111.265625 C 339.667969 111.140625 339.332031 111.15625 339.019531 111.3125 L 334.472656 113.625 C 334.085938 113.820312 333.871094 114.09375 333.832031 114.4375 C 333.800781 114.78125 333.878906 115.128906 334.066406 115.484375 C 334.167969 115.691406 334.089844 115.863281 333.832031 116 C 333.570312 116.132812 333.363281 116.046875 333.207031 115.734375 C 332.914062 115.160156 332.824219 114.59375 332.941406 114.03125 C 333.066406 113.46875 333.425781 113.035156 334.019531 112.734375 Z M 334.613281 116.222656 C 334.707031 116.183594 334.808594 116.171875 334.925781 116.191406 C 335.050781 116.203125 335.132812 116.25 335.175781 116.332031 C 335.207031 116.382812 335.207031 116.480469 335.175781 116.628906 C 335.152344 116.785156 335.152344 116.988281 335.175781 117.238281 C 335.195312 117.488281 335.273438 117.746094 335.410156 118.019531 C 335.585938 118.371094 335.777344 118.597656 335.988281 118.691406 C 336.207031 118.785156 336.414062 118.777344 336.613281 118.675781 C 336.839844 118.558594 336.976562 118.371094 337.019531 118.113281 C 337.070312 117.863281 337.066406 117.589844 337.003906 117.300781 C 336.941406 117.019531 336.886719 116.726562 336.847656 116.425781 C 336.804688 116.125 336.835938 115.832031 336.941406 115.550781 C 337.054688 115.269531 337.277344 115.050781 337.613281 114.894531 C 338.019531 114.6875 338.441406 114.652344 338.878906 114.785156 C 339.324219 114.921875 339.699219 115.285156 340.003906 115.878906 C 340.191406 116.253906 340.304688 116.621094 340.347656 116.988281 C 340.386719 117.363281 340.332031 117.589844 340.175781 117.675781 C 340.089844 117.714844 339.976562 117.730469 339.832031 117.722656 C 339.695312 117.710938 339.601562 117.652344 339.550781 117.550781 C 339.539062 117.519531 339.523438 117.351562 339.503906 117.050781 C 339.480469 116.757812 339.410156 116.492188 339.285156 116.253906 C 339.117188 115.933594 338.914062 115.730469 338.675781 115.644531 C 338.433594 115.550781 338.214844 115.558594 338.019531 115.660156 C 337.832031 115.753906 337.722656 115.921875 337.691406 116.160156 C 337.667969 116.398438 337.695312 116.664062 337.769531 116.957031 C 337.839844 117.246094 337.894531 117.542969 337.925781 117.847656 C 337.964844 118.160156 337.917969 118.460938 337.785156 118.753906 C 337.648438 119.042969 337.402344 119.277344 337.050781 119.457031 C 336.613281 119.683594 336.183594 119.707031 335.769531 119.519531 C 335.351562 119.339844 335.003906 118.972656 334.722656 118.410156 C 334.472656 117.917969 334.339844 117.457031 334.332031 117.019531 C 334.332031 116.589844 334.425781 116.324219 334.613281 116.222656 Z M 336.558594 121.039062 L 344.058594 117.226562 C 344.152344 117.175781 344.246094 117.175781 344.339844 117.226562 C 344.441406 117.28125 344.527344 117.375 344.589844 117.507812 C 344.652344 117.632812 344.675781 117.753906 344.667969 117.867188 C 344.65625 117.984375 344.605469 118.066406 344.511719 118.117188 L 337.011719 121.929688 C 336.9375 121.960938 336.84375 121.949219 336.730469 121.898438 C 336.613281 121.84375 336.527344 121.757812 336.464844 121.632812 C 336.402344 121.515625 336.378906 121.398438 336.402344 121.273438 C 336.421875 121.15625 336.472656 121.078125 336.558594 121.039062 Z M 339.265625 122.242188 L 340.359375 121.695312 C 340.910156 121.414062 341.5 121.378906 342.125 121.585938 C 342.75 121.796875 343.207031 122.1875 343.5 122.757812 C 343.789062 123.320312 343.835938 123.917969 343.640625 124.554688 C 343.441406 125.1875 343.066406 125.648438 342.515625 125.929688 L 341.421875 126.476562 C 340.878906 126.757812 340.289062 126.789062 339.65625 126.570312 C 339.019531 126.359375 338.554688 125.976562 338.265625 125.414062 C 337.984375 124.851562 337.941406 124.25 338.140625 123.617188 C 338.347656 122.980469 338.722656 122.523438 339.265625 122.242188 Z M 339.71875 123.132812 C 339.382812 123.296875 339.148438 123.570312 339.015625 123.945312 C 338.878906 124.320312 338.894531 124.671875 339.0625 125.007812 C 339.226562 125.339844 339.503906 125.558594 339.890625 125.664062 C 340.285156 125.777344 340.644531 125.75 340.96875 125.585938 L 342.0625 125.039062 C 342.382812 124.871094 342.609375 124.601562 342.734375 124.226562 C 342.867188 123.851562 342.851562 123.496094 342.6875 123.164062 C 342.519531 122.828125 342.242188 122.613281 341.859375 122.507812 C 341.484375 122.394531 341.132812 122.421875 340.8125 122.585938 Z M 344.441406 125.6875 C 344.542969 125.636719 344.664062 125.648438 344.800781 125.71875 C 344.933594 125.792969 345.039062 125.898438 345.113281 126.03125 C 345.183594 126.179688 345.175781 126.304688 345.082031 126.40625 L 342.144531 129.53125 L 345.894531 128.875 C 346.058594 128.851562 346.191406 128.929688 346.285156 129.109375 C 346.378906 129.285156 346.363281 129.429688 346.238281 129.546875 L 343.472656 132.203125 L 347.769531 131.671875 C 347.894531 131.640625 347.992188 131.695312 348.066406 131.84375 C 348.136719 131.976562 348.164062 132.125 348.144531 132.28125 C 348.121094 132.445312 348.058594 132.554688 347.957031 132.609375 C 347.902344 132.628906 347.847656 132.640625 347.785156 132.640625 L 342.488281 133.25 C 342.332031 133.257812 342.207031 133.171875 342.113281 132.984375 C 342.019531 132.785156 342.019531 132.632812 342.113281 132.53125 L 344.753906 129.890625 L 341.113281 130.46875 C 340.933594 130.476562 340.792969 130.382812 340.691406 130.1875 C 340.597656 130 340.605469 129.84375 340.722656 129.71875 L 344.300781 125.796875 C 344.371094 125.734375 344.417969 125.699219 344.441406 125.6875 Z M 344.90625 137.464844 L 345.953125 136.933594 C 346.273438 136.769531 346.648438 136.730469 347.078125 136.824219 C 347.515625 136.917969 347.945312 137.066406 348.375 137.261719 L 349.671875 137.933594 C 350.097656 138.140625 350.53125 138.292969 350.96875 138.386719 C 351.40625 138.480469 351.785156 138.441406 352.109375 138.277344 C 352.441406 138.109375 352.679688 137.84375 352.828125 137.480469 C 352.972656 137.128906 352.941406 136.742188 352.734375 136.324219 C 352.546875 135.960938 352.289062 135.722656 351.96875 135.605469 C 351.65625 135.480469 351.316406 135.511719 350.953125 135.699219 C 350.859375 135.753906 350.75 135.753906 350.625 135.699219 C 350.507812 135.648438 350.414062 135.554688 350.34375 135.417969 C 350.207031 135.148438 350.316406 134.925781 350.671875 134.746094 C 351.210938 134.476562 351.753906 134.460938 352.296875 134.699219 C 352.835938 134.929688 353.257812 135.335938 353.5625 135.917969 C 353.875 136.535156 353.9375 137.148438 353.75 137.761719 C 353.570312 138.386719 353.1875 138.847656 352.59375 139.152344 C 352.226562 139.339844 351.835938 139.425781 351.421875 139.417969 C 351.015625 139.417969 350.628906 139.34375 350.265625 139.199219 C 349.898438 139.050781 349.53125 138.878906 349.15625 138.683594 L 348.109375 138.152344 C 347.804688 137.984375 347.5 137.863281 347.1875 137.792969 C 346.882812 137.730469 346.628906 137.75 346.421875 137.855469 L 345.875 138.136719 L 347.546875 141.417969 C 347.585938 141.5 347.582031 141.589844 347.53125 141.683594 C 347.488281 141.785156 347.410156 141.871094 347.296875 141.933594 C 347.191406 141.984375 347.082031 142 346.96875 141.980469 C 346.851562 141.957031 346.773438 141.90625 346.734375 141.824219 L 344.796875 138.027344 C 344.753906 137.933594 344.738281 137.824219 344.75 137.699219 C 344.769531 137.582031 344.820312 137.503906 344.90625 137.464844 Z M 347.335938 142.546875 C 347.59375 142.414062 347.777344 142.449219 347.882812 142.65625 C 348.070312 143.007812 348.308594 143.273438 348.601562 143.453125 C 348.902344 143.628906 349.246094 143.617188 349.632812 143.421875 L 354.179688 141.109375 C 354.492188 140.953125 354.703125 140.695312 354.820312 140.328125 C 354.945312 139.964844 354.90625 139.585938 354.710938 139.1875 C 354.667969 139.09375 354.667969 139 354.710938 138.90625 C 354.75 138.804688 354.835938 138.726562 354.960938 138.671875 C 355.230469 138.527344 355.4375 138.601562 355.585938 138.890625 C 355.875 139.453125 355.929688 140.042969 355.742188 140.65625 C 355.554688 141.273438 355.183594 141.71875 354.632812 142 L 350.085938 144.3125 C 349.492188 144.613281 348.929688 144.648438 348.398438 144.421875 C 347.875 144.191406 347.46875 143.785156 347.179688 143.203125 C 347.023438 142.898438 347.074219 142.679688 347.335938 142.546875 Z M 351.238281 147.660156 C 351.363281 147.597656 351.496094 147.582031 351.644531 147.613281 C 351.800781 147.644531 351.902344 147.707031 351.957031 147.800781 C 351.988281 147.855469 351.980469 147.949219 351.941406 148.097656 C 351.910156 148.242188 351.867188 148.394531 351.816406 148.550781 C 351.761719 148.707031 351.746094 148.914062 351.769531 149.175781 C 351.789062 149.445312 351.863281 149.726562 351.988281 150.019531 L 354.832031 148.566406 L 354.753906 147.878906 C 354.742188 147.722656 354.742188 147.511719 354.753906 147.238281 C 354.761719 146.957031 354.804688 146.738281 354.878906 146.582031 C 354.949219 146.417969 355.070312 146.238281 355.238281 146.050781 C 355.414062 145.855469 355.632812 145.6875 355.894531 145.550781 C 356.214844 145.386719 356.523438 145.296875 356.816406 145.285156 C 357.117188 145.265625 357.386719 145.324219 357.628906 145.457031 C 357.878906 145.582031 358.089844 145.734375 358.269531 145.910156 C 358.457031 146.089844 358.632812 146.300781 358.800781 146.550781 L 359.128906 146.394531 C 359.179688 146.363281 359.242188 146.363281 359.316406 146.394531 C 359.386719 146.417969 359.445312 146.46875 359.488281 146.550781 C 359.519531 146.613281 359.523438 146.691406 359.503906 146.785156 C 359.492188 146.871094 359.460938 146.925781 359.410156 146.957031 L 359.097656 147.113281 C 359.292969 147.550781 359.417969 147.972656 359.472656 148.378906 C 359.523438 148.792969 359.449219 149.050781 359.253906 149.144531 C 359.160156 149.195312 359.035156 149.214844 358.878906 149.207031 C 358.722656 149.195312 358.613281 149.132812 358.550781 149.019531 C 358.539062 148.988281 358.527344 148.804688 358.519531 148.472656 C 358.507812 148.136719 358.433594 147.816406 358.300781 147.503906 L 355.847656 148.753906 C 355.898438 149.074219 355.917969 149.351562 355.910156 149.582031 C 355.910156 149.808594 355.878906 150.070312 355.816406 150.363281 C 355.753906 150.652344 355.617188 150.914062 355.410156 151.144531 C 355.199219 151.382812 354.917969 151.589844 354.566406 151.769531 C 353.941406 152.089844 353.355469 152.175781 352.816406 152.019531 C 352.285156 151.871094 351.835938 151.527344 351.472656 150.988281 L 351.082031 151.191406 C 351.019531 151.222656 350.945312 151.214844 350.863281 151.175781 C 350.789062 151.132812 350.738281 151.082031 350.707031 151.019531 C 350.664062 150.933594 350.652344 150.855469 350.675781 150.785156 C 350.695312 150.710938 350.738281 150.660156 350.800781 150.628906 L 351.160156 150.441406 C 350.847656 149.824219 350.714844 149.238281 350.769531 148.675781 C 350.832031 148.121094 350.988281 147.785156 351.238281 147.660156 Z M 356.394531 146.347656 C 356.058594 146.527344 355.855469 146.753906 355.785156 147.035156 C 355.722656 147.308594 355.722656 147.675781 355.785156 148.144531 L 358.019531 147.003906 C 357.539062 146.265625 356.996094 146.046875 356.394531 146.347656 Z M 352.285156 150.519531 C 352.753906 151.175781 353.335938 151.320312 354.035156 150.957031 C 354.410156 150.769531 354.652344 150.527344 354.769531 150.238281 C 354.894531 149.957031 354.941406 149.605469 354.910156 149.191406 Z M 355.878906 154.882812 L 356.972656 154.335938 C 357.535156 154.046875 358.113281 153.988281 358.707031 154.164062 C 359.308594 154.34375 359.746094 154.691406 360.019531 155.210938 C 360.183594 155.53125 360.246094 155.851562 360.207031 156.164062 C 360.175781 156.484375 360.070312 156.773438 359.894531 157.023438 L 363.394531 155.257812 C 363.488281 155.207031 363.585938 155.207031 363.691406 155.257812 C 363.792969 155.3125 363.878906 155.398438 363.941406 155.523438 C 364.003906 155.65625 364.023438 155.777344 364.003906 155.882812 C 363.992188 155.996094 363.941406 156.078125 363.847656 156.132812 L 356.347656 159.945312 C 356.261719 159.984375 356.167969 159.980469 356.066406 159.929688 C 355.960938 159.875 355.878906 159.789062 355.816406 159.664062 C 355.761719 159.546875 355.746094 159.433594 355.769531 159.320312 C 355.789062 159.214844 355.839844 159.140625 355.925781 159.101562 L 356.363281 158.882812 C 356.070312 158.882812 355.773438 158.78125 355.472656 158.585938 C 355.167969 158.398438 354.941406 158.148438 354.785156 157.835938 C 354.523438 157.335938 354.503906 156.789062 354.722656 156.195312 C 354.949219 155.601562 355.335938 155.164062 355.878906 154.882812 Z M 356.332031 155.773438 C 356.007812 155.9375 355.773438 156.210938 355.628906 156.585938 C 355.492188 156.960938 355.507812 157.308594 355.675781 157.632812 C 355.832031 157.953125 356.089844 158.179688 356.457031 158.304688 C 356.832031 158.429688 357.105469 158.449219 357.285156 158.367188 L 358.660156 157.664062 C 359.035156 157.476562 359.273438 157.195312 359.378906 156.820312 C 359.480469 156.453125 359.457031 156.117188 359.300781 155.804688 C 359.132812 155.46875 358.855469 155.253906 358.472656 155.148438 C 358.097656 155.035156 357.746094 155.0625 357.425781 155.226562 Z M 358.566406 160.164062 L 359.691406 159.601562 C 360.242188 159.320312 360.824219 159.289062 361.441406 159.507812 C 362.054688 159.71875 362.507812 160.113281 362.800781 160.695312 C 363.089844 161.246094 363.152344 161.820312 362.988281 162.414062 C 362.820312 163.015625 362.449219 163.464844 361.878906 163.757812 C 361.679688 163.859375 361.503906 163.917969 361.347656 163.929688 C 361.199219 163.9375 361.074219 163.902344 360.972656 163.820312 C 360.867188 163.746094 360.785156 163.671875 360.722656 163.601562 C 360.660156 163.527344 360.585938 163.40625 360.503906 163.242188 L 359.316406 160.914062 L 359.003906 161.070312 C 358.597656 161.277344 358.351562 161.578125 358.269531 161.976562 C 358.183594 162.371094 358.257812 162.792969 358.488281 163.242188 C 358.601562 163.480469 358.738281 163.667969 358.894531 163.804688 C 359.050781 163.9375 359.191406 164.042969 359.316406 164.117188 C 359.449219 164.1875 359.535156 164.261719 359.566406 164.335938 C 359.617188 164.429688 359.613281 164.53125 359.550781 164.648438 C 359.496094 164.773438 359.425781 164.855469 359.332031 164.898438 C 359.175781 164.980469 358.925781 164.902344 358.582031 164.664062 C 358.246094 164.421875 357.960938 164.070312 357.722656 163.601562 C 357.367188 162.902344 357.261719 162.234375 357.410156 161.601562 C 357.566406 160.964844 357.949219 160.488281 358.566406 160.164062 Z M 359.910156 160.601562 L 360.910156 162.570312 C 361.011719 162.757812 361.101562 162.871094 361.175781 162.914062 C 361.257812 162.964844 361.367188 162.953125 361.503906 162.882812 C 361.824219 162.714844 362.042969 162.449219 362.160156 162.085938 C 362.285156 161.730469 362.257812 161.386719 362.082031 161.054688 C 361.914062 160.710938 361.660156 160.476562 361.316406 160.351562 C 360.972656 160.226562 360.632812 160.25 360.300781 160.414062 Z M 359.519531 166.183594 L 363.972656 163.917969 C 364.066406 163.867188 364.160156 163.871094 364.253906 163.933594 C 364.355469 163.988281 364.441406 164.082031 364.503906 164.214844 C 364.554688 164.308594 364.570312 164.414062 364.550781 164.527344 C 364.539062 164.644531 364.492188 164.722656 364.410156 164.761719 L 363.957031 164.980469 C 364.257812 164.980469 364.550781 165.070312 364.832031 165.246094 C 365.113281 165.425781 365.339844 165.679688 365.519531 166.011719 C 365.769531 166.511719 365.785156 167.050781 365.566406 167.636719 C 365.355469 168.21875 364.972656 168.65625 364.410156 168.949219 L 361.644531 170.355469 C 361.550781 170.40625 361.449219 170.402344 361.347656 170.339844 C 361.242188 170.277344 361.164062 170.183594 361.113281 170.058594 C 361.050781 169.941406 361.023438 169.828125 361.035156 169.714844 C 361.042969 169.597656 361.097656 169.515625 361.191406 169.464844 L 363.957031 168.058594 C 364.277344 167.890625 364.503906 167.621094 364.628906 167.246094 C 364.761719 166.871094 364.753906 166.519531 364.597656 166.199219 C 364.441406 165.894531 364.183594 165.691406 363.832031 165.574219 C 363.476562 165.449219 363.113281 165.480469 362.738281 165.667969 L 359.972656 167.074219 C 359.898438 167.105469 359.804688 167.089844 359.691406 167.027344 C 359.574219 166.972656 359.492188 166.894531 359.441406 166.792969 C 359.378906 166.667969 359.351562 166.542969 359.363281 166.417969 C 359.382812 166.300781 359.433594 166.222656 359.519531 166.183594 Z M 362.507812 171.03125 C 362.601562 170.992188 362.703125 170.980469 362.820312 171 C 362.945312 171.011719 363.027344 171.058594 363.070312 171.140625 C 363.101562 171.191406 363.101562 171.289062 363.070312 171.4375 C 363.046875 171.59375 363.046875 171.796875 363.070312 172.046875 C 363.089844 172.296875 363.167969 172.554688 363.304688 172.828125 C 363.480469 173.179688 363.671875 173.40625 363.882812 173.5 C 364.101562 173.59375 364.308594 173.585938 364.507812 173.484375 C 364.734375 173.367188 364.871094 173.179688 364.914062 172.921875 C 364.964844 172.671875 364.960938 172.398438 364.898438 172.109375 C 364.835938 171.828125 364.78125 171.535156 364.742188 171.234375 C 364.699219 170.933594 364.730469 170.640625 364.835938 170.359375 C 364.949219 170.078125 365.171875 169.859375 365.507812 169.703125 C 365.914062 169.496094 366.335938 169.460938 366.773438 169.59375 C 367.21875 169.730469 367.59375 170.09375 367.898438 170.6875 C 368.085938 171.0625 368.199219 171.429688 368.242188 171.796875 C 368.28125 172.171875 368.226562 172.398438 368.070312 172.484375 C 367.984375 172.523438 367.871094 172.539062 367.726562 172.53125 C 367.589844 172.519531 367.496094 172.460938 367.445312 172.359375 C 367.433594 172.328125 367.417969 172.160156 367.398438 171.859375 C 367.375 171.566406 367.304688 171.300781 367.179688 171.0625 C 367.011719 170.742188 366.808594 170.539062 366.570312 170.453125 C 366.328125 170.359375 366.109375 170.367188 365.914062 170.46875 C 365.726562 170.5625 365.617188 170.730469 365.585938 170.96875 C 365.5625 171.207031 365.589844 171.472656 365.664062 171.765625 C 365.734375 172.054688 365.789062 172.351562 365.820312 172.65625 C 365.859375 172.96875 365.8125 173.269531 365.679688 173.5625 C 365.542969 173.851562 365.296875 174.085938 364.945312 174.265625 C 364.507812 174.492188 364.078125 174.515625 363.664062 174.328125 C 363.246094 174.148438 362.898438 173.78125 362.617188 173.21875 C 362.367188 172.726562 362.234375 172.265625 362.226562 171.828125 C 362.226562 171.398438 362.320312 171.132812 362.507812 171.03125 Z M 370.734375 172.613281 C 370.773438 172.449219 370.863281 172.328125 371 172.253906 C 371.132812 172.183594 371.28125 172.171875 371.4375 172.222656 C 371.59375 172.277344 371.710938 172.386719 371.796875 172.550781 C 371.867188 172.699219 371.878906 172.847656 371.828125 173.003906 C 371.785156 173.160156 371.695312 173.277344 371.5625 173.347656 C 371.425781 173.421875 371.28125 173.433594 371.125 173.378906 C 370.96875 173.328125 370.851562 173.230469 370.78125 173.082031 C 370.707031 172.925781 370.691406 172.769531 370.734375 172.613281 Z M 364.390625 175.753906 L 368.84375 173.488281 C 368.9375 173.4375 369.03125 173.441406 369.125 173.503906 C 369.226562 173.566406 369.3125 173.660156 369.375 173.785156 C 369.4375 173.910156 369.460938 174.03125 369.453125 174.144531 C 369.441406 174.25 369.390625 174.328125 369.296875 174.378906 L 364.84375 176.644531 C 364.769531 176.675781 364.675781 176.664062 364.5625 176.613281 C 364.457031 176.558594 364.375 176.472656 364.3125 176.347656 C 364.25 176.230469 364.222656 176.113281 364.234375 175.988281 C 364.253906 175.871094 364.304688 175.792969 364.390625 175.753906 Z M 366.78125 177.21875 L 372.28125 174.421875 C 372.375 174.382812 372.472656 174.390625 372.578125 174.453125 C 372.691406 174.515625 372.773438 174.601562 372.828125 174.703125 C 372.890625 174.820312 372.910156 174.9375 372.890625 175.0625 C 372.878906 175.1875 372.828125 175.273438 372.734375 175.3125 L 370.6875 176.359375 L 371.375 177.703125 C 371.414062 177.785156 371.410156 177.867188 371.359375 177.953125 C 371.316406 178.035156 371.25 178.097656 371.15625 178.140625 C 371.0625 178.191406 370.96875 178.210938 370.875 178.203125 C 370.789062 178.191406 370.726562 178.144531 370.6875 178.0625 L 370 176.71875 L 367.234375 178.109375 C 366.929688 178.265625 366.75 178.441406 366.6875 178.640625 C 366.632812 178.835938 366.691406 179.097656 366.859375 179.421875 L 367.015625 179.765625 C 367.078125 179.878906 367.085938 179.988281 367.046875 180.09375 C 367.015625 180.207031 366.941406 180.289062 366.828125 180.34375 C 366.722656 180.394531 366.613281 180.398438 366.5 180.359375 C 366.382812 180.328125 366.296875 180.257812 366.234375 180.15625 L 366.078125 179.8125 C 365.472656 178.632812 365.707031 177.769531 366.78125 177.21875 Z M 371.3125 178.484375 C 371.425781 178.421875 371.5625 178.4375 371.71875 178.53125 C 371.875 178.617188 371.984375 178.71875 372.046875 178.84375 C 372.117188 179 372.101562 179.125 372 179.21875 L 368.984375 182.53125 L 373.375 181.90625 C 373.519531 181.90625 373.628906 181.96875 373.703125 182.09375 C 373.765625 182.21875 373.785156 182.367188 373.765625 182.546875 C 373.742188 182.722656 373.671875 182.84375 373.546875 182.90625 C 373.515625 182.925781 373.472656 182.929688 373.421875 182.921875 L 368.25 183.5 L 367.59375 183.578125 C 367.476562 183.597656 367.273438 183.613281 366.984375 183.625 C 366.691406 183.632812 366.476562 183.632812 366.328125 183.625 C 366.183594 183.613281 365.992188 183.585938 365.75 183.546875 C 365.511719 183.503906 365.324219 183.441406 365.1875 183.359375 C 365.054688 183.273438 364.90625 183.164062 364.75 183.03125 C 364.59375 182.894531 364.46875 182.738281 364.375 182.5625 C 364.242188 182.28125 364.308594 182.070312 364.578125 181.9375 C 364.828125 181.800781 364.996094 181.816406 365.078125 181.984375 C 365.246094 182.304688 365.589844 182.523438 366.109375 182.640625 C 366.617188 182.765625 367.179688 182.742188 367.796875 182.578125 L 371.203125 178.59375 C 371.242188 178.542969 371.28125 178.507812 371.3125 178.484375 Z M 376.21875 184.53125 C 376.363281 184.449219 376.519531 184.453125 376.6875 184.546875 L 378.34375 184.921875 C 378.488281 184.964844 378.582031 185.03125 378.625 185.125 C 378.675781 185.230469 378.695312 185.339844 378.6875 185.453125 C 378.675781 185.570312 378.617188 185.652344 378.515625 185.703125 L 371.328125 189.359375 C 371.234375 189.410156 371.132812 189.40625 371.03125 189.34375 C 370.925781 189.28125 370.84375 189.1875 370.78125 189.0625 C 370.71875 188.9375 370.691406 188.816406 370.703125 188.703125 C 370.710938 188.585938 370.765625 188.503906 370.859375 188.453125 L 377.015625 185.3125 L 376.234375 185.21875 C 376.128906 185.1875 376.054688 185.136719 376.015625 185.0625 C 375.972656 184.96875 375.96875 184.871094 376 184.765625 C 376.039062 184.664062 376.113281 184.585938 376.21875 184.53125 Z M 373.929688 189.636719 L 377.148438 187.996094 C 377.960938 187.589844 378.65625 187.507812 379.242188 187.746094 C 379.835938 187.988281 380.308594 188.464844 380.664062 189.183594 C 381.027344 189.894531 381.125 190.53125 380.960938 191.105469 C 380.804688 191.6875 380.46875 192.109375 379.960938 192.371094 C 379.699219 192.503906 379.5 192.4375 379.367188 192.167969 C 379.210938 191.855469 379.25 191.636719 379.492188 191.511719 C 379.8125 191.34375 380 191.078125 380.054688 190.714844 C 380.117188 190.347656 380.046875 189.964844 379.851562 189.558594 C 379.371094 188.613281 378.625 188.394531 377.617188 188.902344 L 376.117188 189.667969 C 376.730469 189.792969 377.214844 190.207031 377.570312 190.902344 C 378.296875 192.328125 377.945312 193.40625 376.507812 194.136719 L 376.273438 194.246094 C 375.46875 194.660156 374.773438 194.753906 374.179688 194.527344 C 373.59375 194.296875 373.125 193.832031 372.773438 193.136719 C 372.417969 192.449219 372.320312 191.796875 372.476562 191.183594 C 372.640625 190.566406 373.125 190.054688 373.929688 189.636719 Z M 374.367188 190.558594 C 373.34375 191.078125 373.070312 191.808594 373.539062 192.746094 C 374.015625 193.683594 374.765625 193.890625 375.789062 193.371094 L 376.007812 193.261719 C 376.976562 192.769531 377.21875 192.058594 376.742188 191.121094 C 376.273438 190.183594 375.585938 189.945312 374.679688 190.402344 Z M 376.722656 197.730469 C 376.847656 197.667969 376.980469 197.652344 377.128906 197.683594 C 377.285156 197.714844 377.386719 197.777344 377.441406 197.871094 C 377.472656 197.925781 377.464844 198.019531 377.425781 198.167969 C 377.394531 198.3125 377.351562 198.464844 377.300781 198.621094 C 377.246094 198.777344 377.230469 198.984375 377.253906 199.246094 C 377.273438 199.515625 377.347656 199.796875 377.472656 200.089844 L 380.316406 198.636719 L 380.238281 197.949219 C 380.226562 197.792969 380.226562 197.582031 380.238281 197.308594 C 380.246094 197.027344 380.289062 196.808594 380.363281 196.652344 C 380.433594 196.488281 380.554688 196.308594 380.722656 196.121094 C 380.898438 195.925781 381.117188 195.757812 381.378906 195.621094 C 381.699219 195.457031 382.007812 195.367188 382.300781 195.355469 C 382.601562 195.335938 382.871094 195.394531 383.113281 195.527344 C 383.363281 195.652344 383.574219 195.804688 383.753906 195.980469 C 383.941406 196.160156 384.117188 196.371094 384.285156 196.621094 L 384.613281 196.464844 C 384.664062 196.433594 384.726562 196.433594 384.800781 196.464844 C 384.871094 196.488281 384.929688 196.539062 384.972656 196.621094 C 385.003906 196.683594 385.007812 196.761719 384.988281 196.855469 C 384.976562 196.941406 384.945312 196.996094 384.894531 197.027344 L 384.582031 197.183594 C 384.777344 197.621094 384.902344 198.042969 384.957031 198.449219 C 385.007812 198.863281 384.933594 199.121094 384.738281 199.214844 C 384.644531 199.265625 384.519531 199.285156 384.363281 199.277344 C 384.207031 199.265625 384.097656 199.203125 384.035156 199.089844 C 384.023438 199.058594 384.011719 198.875 384.003906 198.542969 C 383.992188 198.207031 383.917969 197.886719 383.785156 197.574219 L 381.332031 198.824219 C 381.382812 199.144531 381.402344 199.421875 381.394531 199.652344 C 381.394531 199.878906 381.363281 200.140625 381.300781 200.433594 C 381.238281 200.722656 381.101562 200.984375 380.894531 201.214844 C 380.683594 201.453125 380.402344 201.660156 380.050781 201.839844 C 379.425781 202.160156 378.839844 202.246094 378.300781 202.089844 C 377.769531 201.941406 377.320312 201.597656 376.957031 201.058594 L 376.566406 201.261719 C 376.503906 201.292969 376.429688 201.285156 376.347656 201.246094 C 376.273438 201.203125 376.222656 201.152344 376.191406 201.089844 C 376.148438 201.003906 376.136719 200.925781 376.160156 200.855469 C 376.179688 200.78125 376.222656 200.730469 376.285156 200.699219 L 376.644531 200.511719 C 376.332031 199.894531 376.199219 199.308594 376.253906 198.746094 C 376.316406 198.191406 376.472656 197.855469 376.722656 197.730469 Z M 381.878906 196.417969 C 381.542969 196.597656 381.339844 196.824219 381.269531 197.105469 C 381.207031 197.378906 381.207031 197.746094 381.269531 198.214844 L 383.503906 197.074219 C 383.023438 196.335938 382.480469 196.117188 381.878906 196.417969 Z M 377.769531 200.589844 C 378.238281 201.246094 378.820312 201.390625 379.519531 201.027344 C 379.894531 200.839844 380.136719 200.597656 380.253906 200.308594 C 380.378906 200.027344 380.425781 199.675781 380.394531 199.261719 Z M 387.300781 201.859375 C 387.371094 201.820312 387.457031 201.824219 387.550781 201.875 C 387.644531 201.929688 387.710938 202.007812 387.753906 202.109375 C 387.804688 202.203125 387.824219 202.308594 387.816406 202.421875 C 387.816406 202.527344 387.777344 202.601562 387.707031 202.640625 L 386.082031 203.328125 C 386.007812 203.359375 385.929688 203.371094 385.847656 203.359375 C 385.761719 203.339844 385.699219 203.28125 385.660156 203.1875 C 385.566406 203 385.613281 202.859375 385.800781 202.765625 Z M 388.035156 203.3125 C 388.105469 203.273438 388.191406 203.277344 388.285156 203.328125 C 388.378906 203.382812 388.449219 203.460938 388.503906 203.5625 C 388.554688 203.667969 388.574219 203.773438 388.566406 203.875 C 388.554688 203.980469 388.511719 204.054688 388.441406 204.09375 L 386.832031 204.78125 C 386.757812 204.8125 386.679688 204.824219 386.597656 204.8125 C 386.511719 204.792969 386.445312 204.734375 386.394531 204.640625 C 386.300781 204.453125 386.347656 204.3125 386.535156 204.21875 Z M 379.804688 209.265625 C 380.328125 208.992188 380.859375 209.082031 381.414062 209.53125 C 381.351562 209.101562 381.492188 208.800781 381.835938 208.625 C 382.15625 208.46875 382.511719 208.515625 382.898438 208.765625 C 383.023438 208.195312 383.371094 207.761719 383.945312 207.46875 L 384.304688 207.28125 C 384.824219 207.023438 385.335938 206.984375 385.835938 207.171875 C 386.34375 207.351562 386.746094 207.71875 387.039062 208.28125 C 387.277344 208.769531 387.34375 209.257812 387.242188 209.75 C 387.824219 209.726562 388.183594 209.851562 388.320312 210.125 C 388.382812 210.25 388.390625 210.359375 388.351562 210.453125 C 388.320312 210.554688 388.261719 210.628906 388.179688 210.671875 C 388.074219 210.734375 387.960938 210.71875 387.835938 210.625 C 387.648438 210.414062 387.402344 210.296875 387.101562 210.265625 C 386.945312 210.617188 386.664062 210.898438 386.257812 211.109375 L 385.898438 211.296875 C 385.375 211.554688 384.855469 211.59375 384.335938 211.40625 C 383.8125 211.21875 383.414062 210.835938 383.132812 210.265625 C 382.984375 209.984375 382.90625 209.691406 382.898438 209.390625 C 382.6875 209.273438 382.515625 209.25 382.382812 209.3125 C 382.246094 209.382812 382.183594 209.519531 382.195312 209.71875 C 382.203125 209.925781 382.261719 210.15625 382.367188 210.40625 C 382.480469 210.65625 382.585938 210.929688 382.679688 211.234375 C 382.773438 211.546875 382.839844 211.84375 382.882812 212.125 C 382.921875 212.414062 382.886719 212.691406 382.773438 212.953125 C 382.65625 213.222656 382.449219 213.4375 382.148438 213.59375 C 381.648438 213.851562 381.15625 213.847656 380.679688 213.578125 C 380.203125 213.304688 379.800781 212.847656 379.476562 212.203125 C 379.15625 211.566406 379.019531 210.972656 379.070312 210.421875 C 379.113281 209.867188 379.359375 209.484375 379.804688 209.265625 Z M 380.320312 210.0625 C 380.039062 210.207031 379.878906 210.441406 379.835938 210.765625 C 379.796875 211.097656 379.878906 211.46875 380.085938 211.875 C 380.296875 212.269531 380.539062 212.546875 380.820312 212.703125 C 381.109375 212.867188 381.398438 212.878906 381.679688 212.734375 C 381.792969 212.679688 381.882812 212.613281 381.945312 212.53125 C 382.007812 212.445312 382.042969 212.347656 382.054688 212.234375 C 382.074219 212.117188 382.085938 212.003906 382.085938 211.890625 C 382.085938 211.785156 382.058594 211.660156 382.007812 211.515625 C 381.964844 211.367188 381.929688 211.25 381.898438 211.15625 C 381.867188 211.0625 381.8125 210.929688 381.742188 210.765625 C 381.679688 210.609375 381.640625 210.503906 381.632812 210.453125 C 381.152344 209.992188 380.714844 209.863281 380.320312 210.0625 Z M 384.382812 208.328125 C 384.039062 208.496094 383.804688 208.726562 383.679688 209.03125 C 383.5625 209.332031 383.589844 209.648438 383.757812 209.984375 C 383.921875 210.296875 384.15625 210.488281 384.460938 210.5625 C 384.773438 210.644531 385.101562 210.601562 385.445312 210.4375 L 385.804688 210.25 C 386.125 210.082031 386.351562 209.847656 386.476562 209.546875 C 386.609375 209.242188 386.59375 208.929688 386.429688 208.609375 C 386.261719 208.289062 386.023438 208.089844 385.710938 208.015625 C 385.398438 207.933594 385.074219 207.976562 384.742188 208.140625 Z M 383.792969 213.871094 L 388.246094 211.605469 C 388.339844 211.554688 388.433594 211.558594 388.527344 211.621094 C 388.628906 211.675781 388.714844 211.769531 388.777344 211.902344 C 388.828125 212.007812 388.847656 212.113281 388.839844 212.214844 C 388.828125 212.320312 388.777344 212.398438 388.683594 212.449219 L 388.183594 212.699219 C 388.484375 212.710938 388.785156 212.800781 389.089844 212.964844 C 389.390625 213.132812 389.621094 213.367188 389.777344 213.667969 L 389.964844 214.042969 C 390.003906 214.136719 390 214.234375 389.949219 214.339844 C 389.90625 214.441406 389.828125 214.519531 389.714844 214.574219 C 389.609375 214.625 389.5 214.640625 389.386719 214.621094 C 389.269531 214.597656 389.191406 214.542969 389.152344 214.449219 L 388.964844 214.074219 C 388.777344 213.707031 388.464844 213.46875 388.027344 213.355469 C 387.597656 213.230469 387.152344 213.285156 386.683594 213.511719 L 384.246094 214.761719 C 384.171875 214.792969 384.078125 214.78125 383.964844 214.730469 C 383.859375 214.675781 383.777344 214.589844 383.714844 214.464844 C 383.652344 214.347656 383.625 214.230469 383.636719 214.105469 C 383.65625 213.988281 383.707031 213.910156 383.792969 213.871094 Z M 387.242188 216.503906 L 388.367188 215.941406 C 388.917969 215.660156 389.5 215.628906 390.117188 215.847656 C 390.730469 216.058594 391.183594 216.453125 391.476562 217.035156 C 391.765625 217.585938 391.828125 218.160156 391.664062 218.753906 C 391.496094 219.355469 391.125 219.804688 390.554688 220.097656 C 390.355469 220.199219 390.179688 220.257812 390.023438 220.269531 C 389.875 220.277344 389.75 220.242188 389.648438 220.160156 C 389.542969 220.085938 389.460938 220.011719 389.398438 219.941406 C 389.335938 219.867188 389.261719 219.746094 389.179688 219.582031 L 387.992188 217.253906 L 387.679688 217.410156 C 387.273438 217.617188 387.027344 217.917969 386.945312 218.316406 C 386.859375 218.710938 386.933594 219.132812 387.164062 219.582031 C 387.277344 219.820312 387.414062 220.007812 387.570312 220.144531 C 387.726562 220.277344 387.867188 220.382812 387.992188 220.457031 C 388.125 220.527344 388.210938 220.601562 388.242188 220.675781 C 388.292969 220.769531 388.289062 220.871094 388.226562 220.988281 C 388.171875 221.113281 388.101562 221.195312 388.007812 221.238281 C 387.851562 221.320312 387.601562 221.242188 387.257812 221.003906 C 386.921875 220.761719 386.636719 220.410156 386.398438 219.941406 C 386.042969 219.242188 385.9375 218.574219 386.085938 217.941406 C 386.242188 217.304688 386.625 216.828125 387.242188 216.503906 Z M 388.585938 216.941406 L 389.585938 218.910156 C 389.6875 219.097656 389.777344 219.210938 389.851562 219.253906 C 389.933594 219.304688 390.042969 219.292969 390.179688 219.222656 C 390.5 219.054688 390.71875 218.789062 390.835938 218.425781 C 390.960938 218.070312 390.933594 217.726562 390.757812 217.394531 C 390.589844 217.050781 390.335938 216.816406 389.992188 216.691406 C 389.648438 216.566406 389.308594 216.589844 388.976562 216.753906 Z M 392.335938 219.789062 C 392.449219 219.726562 392.585938 219.742188 392.742188 219.835938 C 392.898438 219.921875 393.007812 220.023438 393.070312 220.148438 C 393.140625 220.304688 393.125 220.429688 393.023438 220.523438 L 390.007812 223.835938 L 394.398438 223.210938 C 394.542969 223.210938 394.652344 223.273438 394.726562 223.398438 C 394.789062 223.523438 394.808594 223.671875 394.789062 223.851562 C 394.765625 224.027344 394.695312 224.148438 394.570312 224.210938 C 394.539062 224.230469 394.496094 224.234375 394.445312 224.226562 L 389.273438 224.804688 L 388.617188 224.882812 C 388.5 224.902344 388.296875 224.917969 388.007812 224.929688 C 387.714844 224.9375 387.5 224.9375 387.351562 224.929688 C 387.207031 224.917969 387.015625 224.890625 386.773438 224.851562 C 386.535156 224.808594 386.347656 224.746094 386.210938 224.664062 C 386.078125 224.578125 385.929688 224.46875 385.773438 224.335938 C 385.617188 224.199219 385.492188 224.042969 385.398438 223.867188 C 385.265625 223.585938 385.332031 223.375 385.601562 223.242188 C 385.851562 223.105469 386.019531 223.121094 386.101562 223.289062 C 386.269531 223.609375 386.613281 223.828125 387.132812 223.945312 C 387.640625 224.070312 388.203125 224.046875 388.820312 223.882812 L 392.226562 219.898438 C 392.265625 219.847656 392.304688 219.8125 392.335938 219.789062 Z M 391.679688 229.351562 L 399.179688 225.539062 C 399.273438 225.488281 399.367188 225.488281 399.460938 225.539062 C 399.5625 225.59375 399.648438 225.679688 399.710938 225.804688 C 399.773438 225.929688 399.796875 226.054688 399.789062 226.179688 C 399.777344 226.296875 399.726562 226.378906 399.632812 226.429688 L 396.132812 228.195312 C 396.433594 228.21875 396.726562 228.3125 397.007812 228.476562 C 397.289062 228.632812 397.507812 228.867188 397.664062 229.179688 C 397.933594 229.699219 397.960938 230.25 397.742188 230.835938 C 397.53125 231.417969 397.148438 231.855469 396.585938 232.148438 L 395.492188 232.695312 C 394.949219 232.976562 394.371094 233.03125 393.757812 232.867188 C 393.152344 232.699219 392.726562 232.371094 392.476562 231.882812 C 392.308594 231.558594 392.234375 231.21875 392.257812 230.867188 C 392.277344 230.511719 392.375 230.214844 392.554688 229.976562 L 392.117188 230.195312 C 392.03125 230.234375 391.933594 230.230469 391.820312 230.179688 C 391.714844 230.125 391.636719 230.054688 391.585938 229.960938 C 391.523438 229.835938 391.5 229.710938 391.523438 229.585938 C 391.542969 229.46875 391.59375 229.390625 391.679688 229.351562 Z M 393.523438 229.539062 C 393.34375 229.621094 393.195312 229.851562 393.070312 230.226562 C 392.953125 230.601562 392.976562 230.945312 393.132812 231.257812 C 393.296875 231.578125 393.574219 231.792969 393.960938 231.898438 C 394.355469 232 394.714844 231.96875 395.039062 231.804688 L 396.132812 231.257812 C 396.453125 231.089844 396.679688 230.820312 396.804688 230.445312 C 396.9375 230.078125 396.921875 229.734375 396.757812 229.414062 C 396.589844 229.078125 396.328125 228.859375 395.976562 228.742188 C 395.632812 228.617188 395.273438 228.648438 394.898438 228.835938 Z M 394.414062 234.710938 L 401.914062 230.898438 C 402.007812 230.847656 402.101562 230.847656 402.195312 230.898438 C 402.296875 230.953125 402.382812 231.046875 402.445312 231.179688 C 402.507812 231.304688 402.53125 231.425781 402.523438 231.539062 C 402.511719 231.65625 402.460938 231.738281 402.367188 231.789062 L 394.867188 235.601562 C 394.792969 235.632812 394.699219 235.621094 394.585938 235.570312 C 394.46875 235.515625 394.382812 235.429688 394.320312 235.304688 C 394.257812 235.1875 394.234375 235.070312 394.257812 234.945312 C 394.277344 234.828125 394.328125 234.75 394.414062 234.710938 Z M 396.417969 236.117188 C 396.96875 235.835938 397.464844 235.859375 397.902344 236.179688 C 398.339844 236.492188 398.761719 237.046875 399.167969 237.851562 L 399.433594 238.367188 L 399.652344 238.257812 C 400.003906 238.070312 400.265625 237.8125 400.433594 237.492188 C 400.597656 237.167969 400.582031 236.808594 400.386719 236.414062 C 400.230469 236.113281 400.042969 235.875 399.824219 235.695312 C 399.605469 235.519531 399.488281 235.421875 399.480469 235.398438 C 399.425781 235.304688 399.433594 235.203125 399.496094 235.085938 C 399.566406 234.972656 399.65625 234.890625 399.761719 234.835938 C 399.925781 234.753906 400.15625 234.84375 400.449219 235.101562 C 400.738281 235.363281 400.972656 235.675781 401.152344 236.039062 C 401.503906 236.734375 401.566406 237.351562 401.339844 237.882812 C 401.109375 238.421875 400.703125 238.839844 400.121094 239.132812 L 397.371094 240.539062 C 397.285156 240.578125 397.191406 240.574219 397.089844 240.523438 C 396.984375 240.46875 396.894531 240.382812 396.824219 240.257812 C 396.769531 240.140625 396.753906 240.027344 396.777344 239.914062 C 396.796875 239.808594 396.847656 239.734375 396.933594 239.695312 L 397.371094 239.476562 C 396.578125 239.265625 396.03125 238.867188 395.730469 238.273438 C 395.511719 237.84375 395.453125 237.4375 395.558594 237.054688 C 395.660156 236.667969 395.949219 236.359375 396.417969 236.117188 Z M 396.964844 236.960938 C 396.691406 237.09375 396.527344 237.273438 396.464844 237.492188 C 396.410156 237.710938 396.449219 237.945312 396.574219 238.195312 C 396.71875 238.496094 396.984375 238.726562 397.371094 238.882812 C 397.753906 239.039062 398.078125 239.054688 398.339844 238.929688 L 398.886719 238.648438 L 398.699219 238.273438 C 398.59375 238.0625 398.496094 237.886719 398.402344 237.742188 C 398.308594 237.605469 398.203125 237.464844 398.089844 237.320312 C 397.972656 237.171875 397.859375 237.0625 397.746094 236.992188 C 397.640625 236.917969 397.519531 236.875 397.386719 236.867188 C 397.25 236.855469 397.109375 236.886719 396.964844 236.960938 Z M 399.574219 240.71875 L 400.652344 240.171875 C 401.265625 239.859375 401.855469 239.789062 402.417969 239.953125 C 402.988281 240.121094 403.453125 240.554688 403.808594 241.25 C 404.035156 241.695312 404.144531 242.109375 404.136719 242.484375 C 404.136719 242.867188 404.046875 243.109375 403.871094 243.203125 C 403.765625 243.253906 403.644531 243.265625 403.511719 243.234375 C 403.375 243.203125 403.28125 243.140625 403.230469 243.046875 C 403.21875 243.015625 403.21875 242.859375 403.230469 242.578125 C 403.238281 242.296875 403.171875 242.007812 403.027344 241.71875 C 402.808594 241.289062 402.53125 241.027344 402.199219 240.921875 C 401.863281 240.820312 401.5 240.867188 401.105469 241.0625 L 400.027344 241.609375 C 399.171875 242.046875 398.964844 242.695312 399.402344 243.5625 C 399.558594 243.875 399.753906 244.101562 399.996094 244.25 C 400.234375 244.40625 400.363281 244.5 400.386719 244.53125 C 400.449219 244.644531 400.453125 244.765625 400.402344 244.890625 C 400.347656 245.015625 400.269531 245.101562 400.167969 245.15625 C 399.988281 245.25 399.738281 245.175781 399.417969 244.9375 C 399.105469 244.707031 398.828125 244.367188 398.589844 243.921875 C 398.234375 243.210938 398.15625 242.582031 398.355469 242.03125 C 398.550781 241.476562 398.957031 241.042969 399.574219 240.71875 Z M 400.265625 246.226562 L 407.765625 242.414062 C 407.859375 242.363281 407.953125 242.363281 408.046875 242.414062 C 408.148438 242.46875 408.234375 242.554688 408.296875 242.679688 C 408.359375 242.804688 408.382812 242.929688 408.375 243.054688 C 408.363281 243.171875 408.3125 243.253906 408.21875 243.304688 L 403.21875 245.835938 L 406.65625 247.164062 C 406.738281 247.195312 406.800781 247.242188 406.84375 247.304688 C 406.894531 247.40625 406.898438 247.53125 406.859375 247.679688 C 406.816406 247.824219 406.742188 247.921875 406.640625 247.976562 C 406.554688 248.015625 406.46875 248.023438 406.375 247.992188 L 404.296875 247.148438 L 402.640625 250.242188 C 402.597656 250.3125 402.550781 250.367188 402.5 250.398438 C 402.394531 250.449219 402.265625 250.445312 402.109375 250.382812 C 401.960938 250.328125 401.859375 250.242188 401.796875 250.117188 C 401.742188 250.023438 401.75 249.921875 401.8125 249.820312 L 403.453125 246.851562 L 402.203125 246.351562 L 400.71875 247.117188 C 400.644531 247.148438 400.550781 247.136719 400.4375 247.085938 C 400.320312 247.03125 400.234375 246.945312 400.171875 246.820312 C 400.109375 246.703125 400.085938 246.585938 400.109375 246.460938 C 400.128906 246.34375 400.179688 246.265625 400.265625 246.226562 Z M 410.308594 247.066406 C 410.378906 247.027344 410.464844 247.03125 410.558594 247.082031 C 410.652344 247.136719 410.71875 247.214844 410.761719 247.316406 C 410.8125 247.410156 410.832031 247.515625 410.824219 247.628906 C 410.824219 247.734375 410.785156 247.808594 410.714844 247.847656 L 409.089844 248.535156 C 409.015625 248.566406 408.9375 248.578125 408.855469 248.566406 C 408.769531 248.546875 408.707031 248.488281 408.667969 248.394531 C 408.574219 248.207031 408.621094 248.066406 408.808594 247.972656 Z M 411.042969 248.519531 C 411.113281 248.480469 411.199219 248.484375 411.292969 248.535156 C 411.386719 248.589844 411.457031 248.667969 411.511719 248.769531 C 411.5625 248.875 411.582031 248.980469 411.574219 249.082031 C 411.5625 249.1875 411.519531 249.261719 411.449219 249.300781 L 409.839844 249.988281 C 409.765625 250.019531 409.6875 250.03125 409.605469 250.019531 C 409.519531 250 409.453125 249.941406 409.402344 249.847656 C 409.308594 249.660156 409.355469 249.519531 409.542969 249.425781 Z M 403.6875 253.722656 "/>
</g>
</svg>
