<?xml version="1.0" encoding="UTF-8"?>
<svg xmlns="http://www.w3.org/2000/svg" xmlns:xlink="http://www.w3.org/1999/xlink" width="384pt" height="288pt" viewBox="0 0 384 288" version="1.1">
<g id="surface57">
<path style=" stroke:none;fill-rule:nonzero;fill:rgb(0%,0%,0%);fill-opacity:1;" d="M 0 0 L 288 0 L 288 288 L 0 288 Z M 0 0 "/>
<path style=" stroke:none;fill-rule:nonzero;fill:rgb(50.196078%,50.196078%,50.196078%);fill-opacity:1;" d="M 0 0 L 36 0 L 36 288 L 0 288 Z M 0 0 "/>
<path style=" stroke:none;fill-rule:nonzero;fill:rgb(0%,0%,0%);fill-opacity:1;" d="M 36 0 L 72 0 L 72 288 L 36 288 Z M 36 0 "/>
<path style=" stroke:none;fill-rule:nonzero;fill:rgb(50.196078%,50.196078%,50.196078%);fill-opacity:1;" d="M 72 0 L 108 0 L 108 288 L 72 288 Z M 72 0 "/>
<path style=" stroke:none;fill-rule:nonzero;fill:rgb(0%,0%,0%);fill-opacity:1;" d="M 108 0 L 144 0 L 144 288 L 108 288 Z M 108 0 "/>
<path style=" stroke:none;fill-rule:nonzero;fill:rgb(50.196078%,50.196078%,50.196078%);fill-opacity:1;" d="M 144 0 L 180 0 L 180 288 L 144 288 Z M 144 0 "/>
<path style=" stroke:none;fill-rule:nonzero;fill:rgb(0%,0%,0%);fill-opacity:1;" d="M 180 0 L 216 0 L 216 288 L 180 288 Z M 180 0 "/>
<path style=" stroke:none;fill-rule:nonzero;fill:rgb(50.196078%,50.196078%,50.196078%);fill-opacity:1;" d="M 216 0 L 252 0 L 252 288 L 216 288 Z M 216 0 "/>
<path style=" stroke:none;fill-rule:nonzero;fill:rgb(0%,0%,0%);fill-opacity:1;" d="M 252 0 L 288 0 L 288 288 L 252 288 Z M 252 0 "/>
<path style=" stroke:none;fill-rule:nonzero;fill:rgb(0%,0%,0%);fill-opacity:1;" d="M 365.59375 11.203125 L 379.625 11.203125 C 379.789062 11.203125 379.925781 11.273438 380.03125 11.421875 C 380.144531 11.578125 380.203125 11.773438 380.203125 12.015625 C 380.203125 12.253906 380.144531 12.453125 380.03125 12.609375 C 379.925781 12.773438 379.789062 12.859375 379.625 12.859375 L 373.078125 12.859375 C 373.503906 13.085938 373.863281 13.425781 374.15625 13.875 C 374.445312 14.320312 374.59375 14.847656 374.59375 15.453125 C 374.59375 16.398438 374.21875 17.222656 373.46875 17.921875 C 372.71875 18.628906 371.816406 18.984375 370.765625 18.984375 L 365.59375 18.984375 C 365.40625 18.984375 365.257812 18.898438 365.15625 18.734375 C 365.050781 18.566406 365 18.367188 365 18.140625 C 365 17.921875 365.050781 17.726562 365.15625 17.5625 C 365.257812 17.394531 365.40625 17.3125 365.59375 17.3125 L 370.765625 17.3125 C 371.359375 17.3125 371.894531 17.082031 372.375 16.625 C 372.851562 16.175781 373.09375 15.648438 373.09375 15.046875 C 373.09375 14.472656 372.875 13.960938 372.4375 13.515625 C 372.007812 13.078125 371.453125 12.859375 370.765625 12.859375 L 365.59375 12.859375 C 365.445312 12.859375 365.3125 12.773438 365.1875 12.609375 C 365.0625 12.441406 365 12.242188 365 12.015625 C 365 11.796875 365.054688 11.601562 365.171875 11.4375 C 365.296875 11.28125 365.4375 11.203125 365.59375 11.203125 Z M 368.71875 20.890625 L 370.8125 20.890625 C 371.84375 20.890625 372.726562 21.28125 373.46875 22.0625 C 374.21875 22.84375 374.59375 23.78125 374.59375 24.875 C 374.59375 25.914062 374.242188 26.816406 373.546875 27.578125 C 372.847656 28.335938 371.972656 28.71875 370.921875 28.71875 C 370.535156 28.71875 370.222656 28.671875 369.984375 28.578125 C 369.753906 28.484375 369.585938 28.335938 369.484375 28.140625 C 369.390625 27.953125 369.328125 27.773438 369.296875 27.609375 C 369.273438 27.441406 369.265625 27.21875 369.265625 26.9375 L 369.265625 22.5625 L 368.65625 22.5625 C 367.925781 22.5625 367.335938 22.820312 366.890625 23.34375 C 366.453125 23.875 366.234375 24.554688 366.234375 25.390625 C 366.234375 25.835938 366.300781 26.222656 366.4375 26.546875 C 366.570312 26.867188 366.703125 27.128906 366.828125 27.328125 C 366.953125 27.535156 367.015625 27.695312 367.015625 27.8125 C 367.015625 28 366.929688 28.160156 366.765625 28.296875 C 366.597656 28.429688 366.429688 28.5 366.265625 28.5 C 365.953125 28.5 365.632812 28.191406 365.3125 27.578125 C 365 26.972656 364.84375 26.226562 364.84375 25.34375 C 364.84375 24.03125 365.195312 22.957031 365.90625 22.125 C 366.625 21.300781 367.5625 20.890625 368.71875 20.890625 Z M 370.375 22.5625 L 370.375 26.265625 C 370.375 26.609375 370.414062 26.835938 370.5 26.953125 C 370.59375 27.078125 370.765625 27.140625 371.015625 27.140625 C 371.617188 27.140625 372.144531 26.914062 372.59375 26.46875 C 373.050781 26.03125 373.28125 25.492188 373.28125 24.859375 C 373.28125 24.234375 373.066406 23.691406 372.640625 23.234375 C 372.222656 22.785156 371.707031 22.5625 371.09375 22.5625 Z M 365.59375 30.738281 L 379.625 30.738281 C 379.789062 30.738281 379.925781 30.808594 380.03125 30.957031 C 380.144531 31.113281 380.203125 31.308594 380.203125 31.550781 C 380.203125 31.800781 380.144531 32.003906 380.03125 32.160156 C 379.925781 32.316406 379.789062 32.394531 379.625 32.394531 L 365.59375 32.394531 C 365.445312 32.394531 365.3125 32.308594 365.1875 32.144531 C 365.0625 31.976562 365 31.777344 365 31.550781 C 365 31.332031 365.054688 31.136719 365.171875 30.972656 C 365.296875 30.816406 365.4375 30.738281 365.59375 30.738281 Z M 365.59375 35.121094 L 379.625 35.121094 C 379.789062 35.121094 379.925781 35.191406 380.03125 35.339844 C 380.144531 35.496094 380.203125 35.691406 380.203125 35.933594 C 380.203125 36.183594 380.144531 36.386719 380.03125 36.542969 C 379.925781 36.699219 379.789062 36.777344 379.625 36.777344 L 365.59375 36.777344 C 365.445312 36.777344 365.3125 36.691406 365.1875 36.527344 C 365.0625 36.359375 365 36.160156 365 35.933594 C 365 35.714844 365.054688 35.519531 365.171875 35.355469 C 365.296875 35.199219 365.4375 35.121094 365.59375 35.121094 Z M 368.71875 38.953125 L 370.765625 38.953125 C 371.785156 38.953125 372.675781 39.34375 373.4375 40.125 C 374.207031 40.90625 374.59375 41.828125 374.59375 42.890625 C 374.59375 43.960938 374.210938 44.890625 373.453125 45.671875 C 372.691406 46.460938 371.796875 46.859375 370.765625 46.859375 L 368.71875 46.859375 C 367.707031 46.859375 366.804688 46.460938 366.015625 45.671875 C 365.234375 44.878906 364.84375 43.957031 364.84375 42.90625 C 364.84375 41.851562 365.234375 40.929688 366.015625 40.140625 C 366.796875 39.347656 367.695312 38.953125 368.71875 38.953125 Z M 368.71875 40.625 C 368.09375 40.625 367.539062 40.847656 367.0625 41.296875 C 366.582031 41.753906 366.34375 42.289062 366.34375 42.90625 C 366.34375 43.53125 366.582031 44.066406 367.0625 44.515625 C 367.550781 44.972656 368.101562 45.203125 368.71875 45.203125 L 370.765625 45.203125 C 371.359375 45.203125 371.894531 44.972656 372.375 44.515625 C 372.851562 44.066406 373.09375 43.523438 373.09375 42.890625 C 373.09375 42.265625 372.851562 41.726562 372.375 41.28125 C 371.894531 40.84375 371.359375 40.625 370.765625 40.625 Z M 368.015625 52.820312 L 378.3125 52.820312 C 378.476562 52.820312 378.617188 52.902344 378.734375 53.070312 C 378.847656 53.246094 378.90625 53.433594 378.90625 53.632812 C 378.90625 53.851562 378.847656 54.042969 378.734375 54.210938 C 378.617188 54.386719 378.476562 54.476562 378.3125 54.476562 L 374.484375 54.476562 L 374.484375 56.992188 C 374.484375 57.148438 374.414062 57.265625 374.28125 57.351562 C 374.144531 57.445312 373.988281 57.492188 373.8125 57.492188 C 373.644531 57.492188 373.5 57.445312 373.375 57.351562 C 373.25 57.265625 373.1875 57.148438 373.1875 56.992188 L 373.1875 54.476562 L 368.015625 54.476562 C 367.441406 54.476562 367.035156 54.601562 366.796875 54.851562 C 366.566406 55.101562 366.453125 55.527344 366.453125 56.132812 L 366.453125 56.757812 C 366.453125 56.984375 366.382812 57.164062 366.25 57.289062 C 366.113281 57.414062 365.941406 57.476562 365.734375 57.476562 C 365.535156 57.476562 365.363281 57.40625 365.21875 57.273438 C 365.070312 57.148438 365 56.976562 365 56.757812 L 365 56.132812 C 365 53.921875 366.003906 52.820312 368.015625 52.820312 Z M 365.59375 59.082031 L 379.625 59.082031 C 379.789062 59.082031 379.925781 59.152344 380.03125 59.300781 C 380.144531 59.457031 380.203125 59.652344 380.203125 59.894531 C 380.203125 60.132812 380.144531 60.332031 380.03125 60.488281 C 379.925781 60.652344 379.789062 60.738281 379.625 60.738281 L 373.078125 60.738281 C 373.503906 60.964844 373.863281 61.304688 374.15625 61.753906 C 374.445312 62.199219 374.59375 62.726562 374.59375 63.332031 C 374.59375 64.277344 374.21875 65.101562 373.46875 65.800781 C 372.71875 66.507812 371.816406 66.863281 370.765625 66.863281 L 365.59375 66.863281 C 365.40625 66.863281 365.257812 66.777344 365.15625 66.613281 C 365.050781 66.445312 365 66.246094 365 66.019531 C 365 65.800781 365.050781 65.605469 365.15625 65.441406 C 365.257812 65.273438 365.40625 65.191406 365.59375 65.191406 L 370.765625 65.191406 C 371.359375 65.191406 371.894531 64.960938 372.375 64.503906 C 372.851562 64.054688 373.09375 63.527344 373.09375 62.925781 C 373.09375 62.351562 372.875 61.839844 372.4375 61.394531 C 372.007812 60.957031 371.453125 60.738281 370.765625 60.738281 L 365.59375 60.738281 C 365.445312 60.738281 365.3125 60.652344 365.1875 60.488281 C 365.0625 60.320312 365 60.121094 365 59.894531 C 365 59.675781 365.054688 59.480469 365.171875 59.316406 C 365.296875 59.160156 365.4375 59.082031 365.59375 59.082031 Z M 368.71875 68.773438 L 370.8125 68.773438 C 371.84375 68.773438 372.726562 69.164062 373.46875 69.945312 C 374.21875 70.726562 374.59375 71.664062 374.59375 72.757812 C 374.59375 73.796875 374.242188 74.699219 373.546875 75.460938 C 372.847656 76.21875 371.972656 76.601562 370.921875 76.601562 C 370.535156 76.601562 370.222656 76.554688 369.984375 76.460938 C 369.753906 76.367188 369.585938 76.21875 369.484375 76.023438 C 369.390625 75.835938 369.328125 75.65625 369.296875 75.492188 C 369.273438 75.324219 369.265625 75.101562 369.265625 74.820312 L 369.265625 70.445312 L 368.65625 70.445312 C 367.925781 70.445312 367.335938 70.703125 366.890625 71.226562 C 366.453125 71.757812 366.234375 72.4375 366.234375 73.273438 C 366.234375 73.71875 366.300781 74.105469 366.4375 74.429688 C 366.570312 74.75 366.703125 75.011719 366.828125 75.210938 C 366.953125 75.417969 367.015625 75.578125 367.015625 75.695312 C 367.015625 75.882812 366.929688 76.042969 366.765625 76.179688 C 366.597656 76.3125 366.429688 76.382812 366.265625 76.382812 C 365.953125 76.382812 365.632812 76.074219 365.3125 75.460938 C 365 74.855469 364.84375 74.109375 364.84375 73.226562 C 364.84375 71.914062 365.195312 70.839844 365.90625 70.007812 C 366.625 69.183594 367.5625 68.773438 368.71875 68.773438 Z M 370.375 70.445312 L 370.375 74.148438 C 370.375 74.492188 370.414062 74.71875 370.5 74.835938 C 370.59375 74.960938 370.765625 75.023438 371.015625 75.023438 C 371.617188 75.023438 372.144531 74.796875 372.59375 74.351562 C 373.050781 73.914062 373.28125 73.375 373.28125 72.742188 C 373.28125 72.117188 373.066406 71.574219 372.640625 71.117188 C 372.222656 70.667969 371.707031 70.445312 371.09375 70.445312 Z M 365.59375 78.449219 L 373.90625 78.449219 C 374.070312 78.449219 374.207031 78.519531 374.3125 78.667969 C 374.425781 78.824219 374.484375 79.019531 374.484375 79.261719 C 374.484375 79.46875 374.425781 79.644531 374.3125 79.792969 C 374.207031 79.949219 374.070312 80.027344 373.90625 80.027344 L 372.953125 80.027344 C 373.410156 80.265625 373.796875 80.613281 374.109375 81.074219 C 374.429688 81.542969 374.59375 82.0625 374.59375 82.636719 L 374.59375 83.324219 C 374.59375 83.488281 374.515625 83.636719 374.359375 83.761719 C 374.210938 83.894531 374.039062 83.964844 373.84375 83.964844 C 373.644531 83.964844 373.46875 83.894531 373.3125 83.761719 C 373.164062 83.636719 373.09375 83.488281 373.09375 83.324219 L 373.09375 82.636719 C 373.09375 81.957031 372.816406 81.363281 372.265625 80.855469 C 371.722656 80.355469 371.019531 80.105469 370.15625 80.105469 L 365.59375 80.105469 C 365.445312 80.105469 365.3125 80.019531 365.1875 79.855469 C 365.0625 79.6875 365 79.488281 365 79.261719 C 365 79.03125 365.054688 78.839844 365.171875 78.683594 C 365.296875 78.527344 365.4375 78.449219 365.59375 78.449219 Z M 368.71875 84.953125 L 370.8125 84.953125 C 371.84375 84.953125 372.726562 85.34375 373.46875 86.125 C 374.21875 86.90625 374.59375 87.84375 374.59375 88.9375 C 374.59375 89.976562 374.242188 90.878906 373.546875 91.640625 C 372.847656 92.398438 371.972656 92.78125 370.921875 92.78125 C 370.535156 92.78125 370.222656 92.734375 369.984375 92.640625 C 369.753906 92.546875 369.585938 92.398438 369.484375 92.203125 C 369.390625 92.015625 369.328125 91.835938 369.296875 91.671875 C 369.273438 91.503906 369.265625 91.28125 369.265625 91 L 369.265625 86.625 L 368.65625 86.625 C 367.925781 86.625 367.335938 86.882812 366.890625 87.40625 C 366.453125 87.9375 366.234375 88.617188 366.234375 89.453125 C 366.234375 89.898438 366.300781 90.285156 366.4375 90.609375 C 366.570312 90.929688 366.703125 91.191406 366.828125 91.390625 C 366.953125 91.597656 367.015625 91.757812 367.015625 91.875 C 367.015625 92.0625 366.929688 92.222656 366.765625 92.359375 C 366.597656 92.492188 366.429688 92.5625 366.265625 92.5625 C 365.953125 92.5625 365.632812 92.253906 365.3125 91.640625 C 365 91.035156 364.84375 90.289062 364.84375 89.40625 C 364.84375 88.09375 365.195312 87.019531 365.90625 86.1875 C 366.625 85.363281 367.5625 84.953125 368.71875 84.953125 Z M 370.375 86.625 L 370.375 90.328125 C 370.375 90.671875 370.414062 90.898438 370.5 91.015625 C 370.59375 91.140625 370.765625 91.203125 371.015625 91.203125 C 371.617188 91.203125 372.144531 90.976562 372.59375 90.53125 C 373.050781 90.09375 373.28125 89.554688 373.28125 88.921875 C 373.28125 88.296875 373.066406 87.753906 372.640625 87.296875 C 372.222656 86.847656 371.707031 86.625 371.09375 86.625 Z M 365 93.441406 "/>
</g>
</svg>
