<?xml version="1.0" encoding="UTF-8"?>
<svg xmlns="http://www.w3.org/2000/svg" xmlns:xlink="http://www.w3.org/1999/xlink" width="136pt" height="566pt" viewBox="0 0 136 566" version="1.1">
<g id="surface253">
<path style=" stroke:none;fill-rule:nonzero;fill:rgb(0%,0%,0%);fill-opacity:1;" d="M 0 0 L 96 0 L 96 566 L 0 566 Z M 0 0 "/>
<path style=" stroke:none;fill-rule:nonzero;fill:rgb(50.196078%,50.196078%,50.196078%);fill-opacity:1;" d="M 0 0 L 12 0 L 12 566 L 0 566 Z M 0 0 "/>
<path style=" stroke:none;fill-rule:nonzero;fill:rgb(0%,0%,0%);fill-opacity:1;" d="M 12 0 L 24 0 L 24 566 L 12 566 Z M 12 0 "/>
<path style=" stroke:none;fill-rule:nonzero;fill:rgb(50.196078%,50.196078%,50.196078%);fill-opacity:1;" d="M 24 0 L 36 0 L 36 566 L 24 566 Z M 24 0 "/>
<path style=" stroke:none;fill-rule:nonzero;fill:rgb(0%,0%,0%);fill-opacity:1;" d="M 36 0 L 48 0 L 48 566 L 36 566 Z M 36 0 "/>
<path style=" stroke:none;fill-rule:nonzero;fill:rgb(50.196078%,50.196078%,50.196078%);fill-opacity:1;" d="M 48 0 L 60 0 L 60 566 L 48 566 Z M 48 0 "/>
<path style=" stroke:none;fill-rule:nonzero;fill:rgb(0%,0%,0%);fill-opacity:1;" d="M 60 0 L 72 0 L 72 566 L 60 566 Z M 60 0 "/>
<path style=" stroke:none;fill-rule:nonzero;fill:rgb(50.196078%,50.196078%,50.196078%);fill-opacity:1;" d="M 72 0 L 84 0 L 84 566 L 72 566 Z M 72 0 "/>
<path style=" stroke:none;fill-rule:nonzero;fill:rgb(0%,0%,0%);fill-opacity:1;" d="M 84 0 L 96 0 L 96 566 L 84 566 Z M 84 0 "/>
<path style=" stroke:none;fill-rule:nonzero;fill:rgb(0%,0%,0%);fill-opacity:1;" d="M 126.34375 10.71875 L 132.875 10.71875 C 133.5 10.71875 134.03125 10.925781 134.46875 11.34375 C 134.90625 11.769531 135.125 12.269531 135.125 12.84375 L 135.125 13.265625 C 135.125 13.390625 135.078125 13.488281 134.984375 13.5625 C 134.898438 13.632812 134.796875 13.671875 134.671875 13.671875 C 134.554688 13.671875 134.457031 13.632812 134.375 13.5625 C 134.289062 13.488281 134.25 13.390625 134.25 13.265625 L 134.25 13.015625 C 134.25 12.640625 134.125 12.332031 133.875 12.09375 C 133.625 11.851562 133.316406 11.726562 132.953125 11.71875 L 131.6875 11.71875 L 131.6875 13.359375 C 131.6875 13.453125 131.644531 13.523438 131.5625 13.578125 C 131.488281 13.640625 131.398438 13.671875 131.296875 13.671875 C 131.191406 13.671875 131.097656 13.640625 131.015625 13.578125 C 130.941406 13.523438 130.90625 13.453125 130.90625 13.359375 L 130.90625 11.71875 L 126.34375 11.71875 C 126.25 11.71875 126.164062 11.664062 126.09375 11.5625 C 126.03125 11.46875 126 11.347656 126 11.203125 C 126 11.066406 126.03125 10.953125 126.09375 10.859375 C 126.15625 10.765625 126.238281 10.71875 126.34375 10.71875 Z M 128.234375 14.265625 L 129.453125 14.265625 C 130.066406 14.265625 130.601562 14.5 131.0625 14.96875 C 131.53125 15.4375 131.765625 15.988281 131.765625 16.625 C 131.765625 17.269531 131.535156 17.828125 131.078125 18.296875 C 130.617188 18.773438 130.078125 19.015625 129.453125 19.015625 L 128.234375 19.015625 C 127.617188 19.015625 127.078125 18.773438 126.609375 18.296875 C 126.140625 17.816406 125.90625 17.257812 125.90625 16.625 C 125.90625 16 126.140625 15.445312 126.609375 14.96875 C 127.078125 14.5 127.617188 14.265625 128.234375 14.265625 Z M 128.234375 15.265625 C 127.859375 15.265625 127.523438 15.398438 127.234375 15.671875 C 126.941406 15.941406 126.796875 16.265625 126.796875 16.640625 C 126.796875 17.015625 126.941406 17.335938 127.234375 17.609375 C 127.535156 17.878906 127.867188 18.015625 128.234375 18.015625 L 129.453125 18.015625 C 129.816406 18.015625 130.140625 17.878906 130.421875 17.609375 C 130.710938 17.335938 130.859375 17.015625 130.859375 16.640625 C 130.859375 16.265625 130.710938 15.941406 130.421875 15.671875 C 130.140625 15.398438 129.816406 15.265625 129.453125 15.265625 Z M 126.359375 20.316406 L 134.765625 20.316406 C 134.867188 20.316406 134.953125 20.363281 135.015625 20.457031 C 135.085938 20.550781 135.125 20.667969 135.125 20.816406 C 135.125 20.960938 135.085938 21.082031 135.015625 21.175781 C 134.953125 21.269531 134.867188 21.316406 134.765625 21.316406 L 126.359375 21.316406 C 126.273438 21.316406 126.191406 21.261719 126.109375 21.160156 C 126.035156 21.066406 126 20.949219 126 20.816406 C 126 20.679688 126.035156 20.558594 126.109375 20.457031 C 126.179688 20.363281 126.265625 20.316406 126.359375 20.316406 Z M 128.234375 22.617188 L 129.453125 22.617188 C 130.085938 22.617188 130.628906 22.828125 131.078125 23.257812 C 131.535156 23.683594 131.765625 24.1875 131.765625 24.773438 C 131.765625 25.136719 131.675781 25.453125 131.5 25.726562 C 131.320312 25.996094 131.101562 26.203125 130.84375 26.351562 L 134.765625 26.351562 C 134.867188 26.351562 134.953125 26.398438 135.015625 26.492188 C 135.085938 26.585938 135.125 26.703125 135.125 26.851562 C 135.125 26.996094 135.085938 27.109375 135.015625 27.195312 C 134.953125 27.289062 134.867188 27.335938 134.765625 27.335938 L 126.359375 27.335938 C 126.265625 27.335938 126.179688 27.289062 126.109375 27.195312 C 126.035156 27.101562 126 26.984375 126 26.851562 C 126 26.726562 126.035156 26.617188 126.109375 26.523438 C 126.179688 26.4375 126.265625 26.398438 126.359375 26.398438 L 126.84375 26.398438 C 126.582031 26.261719 126.359375 26.039062 126.171875 25.726562 C 125.996094 25.421875 125.90625 25.09375 125.90625 24.742188 C 125.90625 24.179688 126.140625 23.683594 126.609375 23.257812 C 127.078125 22.828125 127.617188 22.617188 128.234375 22.617188 Z M 128.234375 23.617188 C 127.867188 23.617188 127.535156 23.75 127.234375 24.023438 C 126.941406 24.292969 126.796875 24.609375 126.796875 24.976562 C 126.796875 25.328125 126.929688 25.648438 127.203125 25.929688 C 127.472656 26.210938 127.707031 26.351562 127.90625 26.351562 L 129.453125 26.351562 C 129.867188 26.351562 130.207031 26.210938 130.46875 25.929688 C 130.726562 25.65625 130.859375 25.34375 130.859375 24.992188 C 130.859375 24.617188 130.710938 24.292969 130.421875 24.023438 C 130.140625 23.75 129.816406 23.617188 129.453125 23.617188 Z M 126.359375 28.917969 L 134.40625 28.917969 C 134.519531 28.917969 134.609375 28.957031 134.671875 29.042969 C 134.734375 29.136719 134.765625 29.246094 134.765625 29.371094 L 134.765625 33.636719 C 134.765625 33.75 134.722656 33.832031 134.640625 33.886719 C 134.554688 33.949219 134.453125 33.980469 134.328125 33.980469 C 134.203125 33.980469 134.09375 33.949219 134 33.886719 C 133.90625 33.824219 133.859375 33.738281 133.859375 33.636719 L 133.859375 29.917969 L 130.8125 29.917969 L 130.8125 31.792969 C 130.8125 31.894531 130.769531 31.980469 130.6875 32.042969 C 130.601562 32.105469 130.5 32.136719 130.375 32.136719 C 130.269531 32.136719 130.175781 32.105469 130.09375 32.042969 C 130.007812 31.988281 129.96875 31.90625 129.96875 31.792969 L 129.96875 29.917969 L 126.90625 29.917969 L 126.90625 33.636719 C 126.90625 33.738281 126.859375 33.824219 126.765625 33.886719 C 126.679688 33.949219 126.570312 33.980469 126.4375 33.980469 C 126.320312 33.980469 126.21875 33.949219 126.125 33.886719 C 126.039062 33.832031 126 33.75 126 33.636719 L 126 29.371094 C 126 29.246094 126.03125 29.136719 126.09375 29.042969 C 126.15625 28.957031 126.242188 28.917969 126.359375 28.917969 Z M 131.28125 34.367188 C 131.394531 34.367188 131.492188 34.433594 131.578125 34.570312 C 131.671875 34.714844 131.71875 34.859375 131.71875 35.007812 C 131.71875 35.171875 131.648438 35.28125 131.515625 35.335938 L 127.4375 36.851562 L 131.46875 38.351562 C 131.632812 38.414062 131.71875 38.523438 131.71875 38.679688 C 131.71875 38.804688 131.671875 38.9375 131.578125 39.085938 C 131.492188 39.242188 131.394531 39.320312 131.28125 39.320312 C 131.21875 39.320312 131.15625 39.304688 131.09375 39.273438 L 126.109375 37.304688 C 125.964844 37.242188 125.890625 37.089844 125.890625 36.851562 C 125.890625 36.601562 125.964844 36.445312 126.109375 36.382812 L 131.09375 34.414062 C 131.1875 34.382812 131.25 34.367188 131.28125 34.367188 Z M 128.234375 39.957031 L 129.484375 39.957031 C 130.109375 39.957031 130.644531 40.191406 131.09375 40.660156 C 131.539062 41.128906 131.765625 41.691406 131.765625 42.347656 C 131.765625 42.972656 131.550781 43.511719 131.125 43.972656 C 130.707031 44.429688 130.179688 44.660156 129.546875 44.660156 C 129.316406 44.660156 129.128906 44.628906 128.984375 44.566406 C 128.847656 44.511719 128.75 44.429688 128.6875 44.316406 C 128.632812 44.199219 128.597656 44.089844 128.578125 43.988281 C 128.566406 43.894531 128.5625 43.757812 128.5625 43.582031 L 128.5625 40.957031 L 128.203125 40.957031 C 127.753906 40.957031 127.398438 41.113281 127.140625 41.425781 C 126.878906 41.746094 126.75 42.160156 126.75 42.660156 C 126.75 42.929688 126.785156 43.160156 126.859375 43.347656 C 126.941406 43.542969 127.019531 43.699219 127.09375 43.816406 C 127.175781 43.941406 127.21875 44.039062 127.21875 44.113281 C 127.21875 44.226562 127.164062 44.320312 127.0625 44.394531 C 126.957031 44.476562 126.851562 44.519531 126.75 44.519531 C 126.570312 44.519531 126.382812 44.335938 126.1875 43.972656 C 126 43.605469 125.90625 43.160156 125.90625 42.628906 C 125.90625 41.847656 126.117188 41.207031 126.546875 40.707031 C 126.972656 40.207031 127.535156 39.957031 128.234375 39.957031 Z M 129.234375 40.957031 L 129.234375 43.175781 C 129.234375 43.382812 129.257812 43.523438 129.3125 43.597656 C 129.363281 43.667969 129.460938 43.707031 129.609375 43.707031 C 129.972656 43.707031 130.289062 43.570312 130.5625 43.300781 C 130.832031 43.039062 130.96875 42.722656 130.96875 42.347656 C 130.96875 41.960938 130.84375 41.632812 130.59375 41.363281 C 130.34375 41.089844 130.03125 40.957031 129.65625 40.957031 Z M 126.359375 45.753906 L 131.34375 45.753906 C 131.445312 45.753906 131.53125 45.800781 131.59375 45.894531 C 131.65625 45.988281 131.6875 46.105469 131.6875 46.253906 C 131.6875 46.378906 131.65625 46.480469 131.59375 46.566406 C 131.53125 46.660156 131.445312 46.707031 131.34375 46.707031 L 130.78125 46.707031 C 131.050781 46.851562 131.28125 47.066406 131.46875 47.347656 C 131.664062 47.628906 131.765625 47.941406 131.765625 48.285156 L 131.765625 48.691406 C 131.765625 48.792969 131.71875 48.882812 131.625 48.957031 C 131.53125 49.027344 131.421875 49.066406 131.296875 49.066406 C 131.179688 49.066406 131.078125 49.027344 130.984375 48.957031 C 130.898438 48.882812 130.859375 48.792969 130.859375 48.691406 L 130.859375 48.285156 C 130.859375 47.867188 130.691406 47.507812 130.359375 47.207031 C 130.035156 46.902344 129.613281 46.753906 129.09375 46.753906 L 126.359375 46.753906 C 126.273438 46.753906 126.191406 46.699219 126.109375 46.597656 C 126.035156 46.503906 126 46.386719 126 46.253906 C 126 46.117188 126.035156 45.996094 126.109375 45.894531 C 126.179688 45.800781 126.265625 45.753906 126.359375 45.753906 Z M 131.28125 49.320312 C 131.40625 49.320312 131.515625 49.390625 131.609375 49.539062 C 131.710938 49.683594 131.765625 49.828125 131.765625 49.976562 C 131.765625 50.140625 131.695312 50.246094 131.5625 50.289062 L 127.375 51.882812 L 131.5625 53.304688 C 131.695312 53.367188 131.765625 53.46875 131.765625 53.617188 C 131.765625 53.75 131.710938 53.890625 131.609375 54.039062 C 131.515625 54.195312 131.398438 54.273438 131.265625 54.273438 C 131.222656 54.273438 131.179688 54.257812 131.140625 54.226562 L 126.265625 52.414062 L 125.65625 52.179688 C 125.554688 52.136719 125.367188 52.054688 125.09375 51.929688 C 124.824219 51.8125 124.625 51.714844 124.5 51.632812 C 124.375 51.558594 124.21875 51.449219 124.03125 51.304688 C 123.835938 51.15625 123.695312 51.015625 123.609375 50.882812 C 123.515625 50.746094 123.433594 50.585938 123.359375 50.398438 C 123.289062 50.210938 123.25 50.011719 123.25 49.804688 C 123.25 49.492188 123.402344 49.335938 123.703125 49.335938 C 123.984375 49.335938 124.125 49.429688 124.125 49.617188 C 124.125 49.980469 124.328125 50.328125 124.734375 50.664062 C 125.140625 51.007812 125.65625 51.242188 126.28125 51.367188 L 131.140625 49.367188 C 131.191406 49.335938 131.238281 49.320312 131.28125 49.320312 Z M 126.09375 57.605469 L 134.875 57.605469 C 134.976562 57.605469 135.0625 57.652344 135.125 57.746094 C 135.1875 57.839844 135.21875 57.941406 135.21875 58.058594 L 135.21875 60.027344 C 135.21875 60.128906 135.171875 60.214844 135.078125 60.277344 C 134.992188 60.339844 134.890625 60.371094 134.765625 60.371094 C 134.640625 60.371094 134.53125 60.339844 134.4375 60.277344 C 134.351562 60.214844 134.3125 60.128906 134.3125 60.027344 L 134.3125 58.605469 L 126.640625 58.605469 L 126.640625 60.027344 C 126.640625 60.128906 126.597656 60.214844 126.515625 60.277344 C 126.429688 60.339844 126.320312 60.371094 126.1875 60.371094 C 126.070312 60.371094 125.976562 60.339844 125.890625 60.277344 C 125.796875 60.214844 125.75 60.128906 125.75 60.027344 L 125.75 58.058594 C 125.75 57.941406 125.78125 57.839844 125.84375 57.746094 C 125.90625 57.652344 125.992188 57.605469 126.09375 57.605469 Z M 127.96875 60.90625 C 128.15625 60.90625 128.28125 60.9375 128.34375 61 C 128.40625 61.070312 128.4375 61.195312 128.4375 61.375 C 128.4375 61.5625 128.40625 61.691406 128.34375 61.765625 C 128.28125 61.847656 128.179688 61.890625 128.046875 61.890625 C 127.734375 61.890625 127.453125 62.019531 127.203125 62.28125 C 126.960938 62.539062 126.84375 62.9375 126.84375 63.46875 C 126.84375 64.53125 127.394531 65.0625 128.5 65.0625 L 128.71875 65.0625 C 129.695312 65.0625 130.1875 64.53125 130.1875 63.46875 C 130.1875 63.226562 130.328125 63.109375 130.609375 63.109375 C 130.890625 63.109375 131.03125 63.226562 131.03125 63.46875 C 131.03125 63.925781 131.132812 64.269531 131.34375 64.5 C 131.550781 64.738281 131.925781 64.859375 132.46875 64.859375 C 133.40625 64.859375 133.875 64.410156 133.875 63.515625 C 133.875 62.992188 133.757812 62.628906 133.53125 62.421875 C 133.300781 62.210938 133.03125 62.109375 132.71875 62.109375 C 132.425781 62.109375 132.28125 61.945312 132.28125 61.625 C 132.28125 61.40625 132.3125 61.257812 132.375 61.1875 C 132.445312 61.125 132.582031 61.09375 132.78125 61.09375 C 132.988281 61.09375 133.195312 61.128906 133.40625 61.203125 C 133.625 61.285156 133.835938 61.410156 134.046875 61.578125 C 134.253906 61.742188 134.425781 61.992188 134.5625 62.328125 C 134.695312 62.671875 134.765625 63.070312 134.765625 63.53125 C 134.765625 65.0625 134.054688 65.828125 132.640625 65.828125 C 132.140625 65.828125 131.710938 65.738281 131.359375 65.5625 C 131.015625 65.382812 130.769531 65.148438 130.625 64.859375 C 130.300781 65.671875 129.664062 66.078125 128.71875 66.078125 L 128.5 66.078125 C 127.613281 66.078125 126.960938 65.835938 126.546875 65.359375 C 126.128906 64.878906 125.921875 64.25 125.921875 63.46875 C 125.921875 62.632812 126.128906 62 126.546875 61.5625 C 126.972656 61.125 127.445312 60.90625 127.96875 60.90625 Z M 126.546875 66.992188 C 126.722656 66.992188 126.875 67.046875 127 67.164062 C 127.125 67.277344 127.1875 67.421875 127.1875 67.601562 C 127.1875 67.765625 127.125 67.914062 127 68.039062 C 126.882812 68.164062 126.734375 68.226562 126.546875 68.226562 C 126.410156 68.226562 125.929688 68.054688 125.09375 67.710938 C 124.992188 67.65625 124.9375 67.570312 124.9375 67.445312 C 124.9375 67.351562 124.964844 67.265625 125.015625 67.195312 C 125.070312 67.132812 125.136719 67.101562 125.21875 67.101562 C 125.273438 67.101562 125.320312 67.105469 125.359375 67.117188 L 125.96875 67.367188 C 126.070312 67.117188 126.265625 66.992188 126.546875 66.992188 Z M 128 68.964844 C 128.320312 68.964844 128.484375 69.128906 128.484375 69.464844 C 128.484375 69.808594 128.347656 69.980469 128.078125 69.980469 C 127.691406 69.980469 127.390625 70.125 127.171875 70.417969 C 126.953125 70.71875 126.84375 71.09375 126.84375 71.542969 C 126.84375 72.050781 126.984375 72.441406 127.265625 72.714844 C 127.546875 72.996094 127.960938 73.136719 128.515625 73.136719 L 128.75 73.136719 C 129.289062 73.136719 129.695312 72.996094 129.96875 72.714844 C 130.25 72.441406 130.390625 72.058594 130.390625 71.558594 L 130.390625 69.855469 C 130.390625 69.542969 130.519531 69.386719 130.78125 69.386719 C 130.863281 69.386719 130.953125 69.394531 131.046875 69.417969 L 134.40625 69.667969 C 134.644531 69.675781 134.765625 69.765625 134.765625 69.933594 L 134.765625 73.386719 C 134.765625 73.488281 134.71875 73.566406 134.625 73.621094 C 134.539062 73.683594 134.4375 73.714844 134.3125 73.714844 C 134.195312 73.714844 134.09375 73.683594 134 73.621094 C 133.90625 73.566406 133.859375 73.488281 133.859375 73.386719 L 133.859375 70.542969 L 131.234375 70.355469 L 131.234375 71.558594 C 131.234375 72.339844 131.03125 72.964844 130.625 73.433594 C 130.226562 73.902344 129.601562 74.136719 128.75 74.136719 L 128.515625 74.136719 C 127.628906 74.136719 126.972656 73.902344 126.546875 73.433594 C 126.128906 72.964844 125.921875 72.339844 125.921875 71.558594 C 125.921875 70.753906 126.125 70.121094 126.53125 69.652344 C 126.9375 69.191406 127.425781 68.964844 128 68.964844 Z M 126.1875 74.707031 C 126.320312 74.707031 126.429688 74.738281 126.515625 74.800781 C 126.597656 74.863281 126.640625 74.945312 126.640625 75.050781 L 126.640625 76.472656 L 134.3125 76.472656 L 134.3125 75.050781 C 134.3125 74.945312 134.351562 74.863281 134.4375 74.800781 C 134.53125 74.738281 134.640625 74.707031 134.765625 74.707031 C 134.890625 74.707031 134.992188 74.738281 135.078125 74.800781 C 135.171875 74.863281 135.21875 74.945312 135.21875 75.050781 L 135.21875 77.019531 C 135.21875 77.144531 135.1875 77.246094 135.125 77.332031 C 135.0625 77.425781 134.976562 77.472656 134.875 77.472656 L 126.09375 77.472656 C 125.992188 77.472656 125.90625 77.425781 125.84375 77.332031 C 125.78125 77.246094 125.75 77.144531 125.75 77.019531 L 125.75 75.050781 C 125.75 74.945312 125.796875 74.863281 125.890625 74.800781 C 125.976562 74.738281 126.070312 74.707031 126.1875 74.707031 Z M 127.859375 81.34375 L 132.953125 81.34375 C 133.578125 81.34375 134.109375 81.570312 134.546875 82.03125 C 134.992188 82.5 135.21875 83.046875 135.21875 83.671875 C 135.21875 83.992188 135.066406 84.15625 134.765625 84.15625 C 134.628906 84.15625 134.519531 84.125 134.4375 84.0625 C 134.351562 84 134.3125 83.914062 134.3125 83.8125 C 134.3125 83.375 134.171875 83.019531 133.890625 82.75 C 133.617188 82.476562 133.304688 82.34375 132.953125 82.34375 L 127.859375 82.34375 C 127.421875 82.34375 127.109375 82.488281 126.921875 82.78125 C 126.742188 83.070312 126.65625 83.414062 126.65625 83.8125 C 126.65625 84.039062 126.503906 84.15625 126.203125 84.15625 C 125.914062 84.15625 125.765625 83.984375 125.765625 83.640625 C 125.765625 82.992188 125.949219 82.445312 126.3125 82 C 126.675781 81.5625 127.191406 81.34375 127.859375 81.34375 Z M 126.8125 84.734375 C 126.914062 84.734375 127.015625 84.765625 127.109375 84.828125 C 127.210938 84.898438 127.265625 84.984375 127.265625 85.078125 C 127.265625 85.140625 127.21875 85.226562 127.125 85.34375 C 127.03125 85.46875 126.9375 85.644531 126.84375 85.875 C 126.75 86.101562 126.703125 86.367188 126.703125 86.671875 C 126.703125 87.066406 126.773438 87.351562 126.921875 87.53125 C 127.066406 87.71875 127.25 87.8125 127.46875 87.8125 C 127.726562 87.8125 127.9375 87.707031 128.09375 87.5 C 128.25 87.300781 128.363281 87.054688 128.4375 86.765625 C 128.519531 86.484375 128.609375 86.195312 128.703125 85.90625 C 128.804688 85.625 128.96875 85.378906 129.1875 85.171875 C 129.414062 84.972656 129.710938 84.875 130.078125 84.875 C 130.535156 84.875 130.929688 85.035156 131.265625 85.359375 C 131.597656 85.679688 131.765625 86.175781 131.765625 86.84375 C 131.765625 87.269531 131.695312 87.65625 131.5625 88 C 131.425781 88.351562 131.273438 88.53125 131.109375 88.53125 C 131.015625 88.53125 130.90625 88.492188 130.78125 88.421875 C 130.664062 88.347656 130.609375 88.253906 130.609375 88.140625 C 130.609375 88.109375 130.664062 87.953125 130.78125 87.671875 C 130.894531 87.398438 130.953125 87.128906 130.953125 86.859375 C 130.953125 86.492188 130.863281 86.21875 130.6875 86.03125 C 130.519531 85.851562 130.328125 85.765625 130.109375 85.765625 C 129.890625 85.765625 129.710938 85.863281 129.578125 86.0625 C 129.453125 86.257812 129.351562 86.503906 129.28125 86.796875 C 129.21875 87.097656 129.132812 87.390625 129.03125 87.671875 C 128.925781 87.960938 128.742188 88.207031 128.484375 88.40625 C 128.234375 88.601562 127.910156 88.703125 127.515625 88.703125 C 127.015625 88.703125 126.617188 88.523438 126.328125 88.171875 C 126.046875 87.828125 125.90625 87.335938 125.90625 86.703125 C 125.90625 86.160156 126 85.695312 126.1875 85.3125 C 126.382812 84.925781 126.59375 84.734375 126.8125 84.734375 Z M 126.359375 89.894531 L 134.765625 89.894531 C 134.867188 89.894531 134.953125 89.941406 135.015625 90.035156 C 135.085938 90.128906 135.125 90.246094 135.125 90.394531 C 135.125 90.539062 135.085938 90.660156 135.015625 90.753906 C 134.953125 90.847656 134.867188 90.894531 134.765625 90.894531 L 126.359375 90.894531 C 126.273438 90.894531 126.191406 90.839844 126.109375 90.738281 C 126.035156 90.644531 126 90.527344 126 90.394531 C 126 90.257812 126.035156 90.136719 126.109375 90.035156 C 126.179688 89.941406 126.265625 89.894531 126.359375 89.894531 Z M 128.234375 92.191406 L 129.453125 92.191406 C 130.066406 92.191406 130.601562 92.425781 131.0625 92.894531 C 131.53125 93.363281 131.765625 93.914062 131.765625 94.550781 C 131.765625 95.195312 131.535156 95.753906 131.078125 96.222656 C 130.617188 96.699219 130.078125 96.941406 129.453125 96.941406 L 128.234375 96.941406 C 127.617188 96.941406 127.078125 96.699219 126.609375 96.222656 C 126.140625 95.742188 125.90625 95.183594 125.90625 94.550781 C 125.90625 93.925781 126.140625 93.371094 126.609375 92.894531 C 127.078125 92.425781 127.617188 92.191406 128.234375 92.191406 Z M 128.234375 93.191406 C 127.859375 93.191406 127.523438 93.324219 127.234375 93.597656 C 126.941406 93.867188 126.796875 94.191406 126.796875 94.566406 C 126.796875 94.941406 126.941406 95.261719 127.234375 95.535156 C 127.535156 95.804688 127.867188 95.941406 128.234375 95.941406 L 129.453125 95.941406 C 129.816406 95.941406 130.140625 95.804688 130.421875 95.535156 C 130.710938 95.261719 130.859375 94.941406 130.859375 94.566406 C 130.859375 94.191406 130.710938 93.867188 130.421875 93.597656 C 130.140625 93.324219 129.816406 93.191406 129.453125 93.191406 Z M 131.28125 97.605469 C 131.394531 97.605469 131.492188 97.667969 131.578125 97.792969 C 131.671875 97.925781 131.71875 98.066406 131.71875 98.214844 C 131.71875 98.378906 131.648438 98.488281 131.515625 98.542969 L 127.484375 99.996094 L 131.125 101.121094 C 131.28125 101.171875 131.359375 101.296875 131.359375 101.496094 C 131.359375 101.691406 131.28125 101.816406 131.125 101.871094 L 127.453125 102.980469 L 131.515625 104.449219 C 131.648438 104.480469 131.71875 104.578125 131.71875 104.746094 C 131.71875 104.890625 131.671875 105.03125 131.578125 105.167969 C 131.492188 105.300781 131.394531 105.371094 131.28125 105.371094 C 131.21875 105.371094 131.15625 105.355469 131.09375 105.324219 L 126.109375 103.464844 C 125.964844 103.402344 125.890625 103.265625 125.890625 103.058594 C 125.890625 102.839844 125.964844 102.703125 126.109375 102.652344 L 129.640625 101.496094 L 126.140625 100.355469 C 125.976562 100.292969 125.890625 100.144531 125.890625 99.917969 C 125.890625 99.707031 125.976562 99.574219 126.140625 99.511719 L 131.09375 97.652344 C 131.1875 97.621094 131.25 97.605469 131.28125 97.605469 Z M 126.359375 108.324219 L 127.53125 108.324219 C 127.882812 108.324219 128.234375 108.457031 128.578125 108.730469 C 128.929688 109.011719 129.25 109.34375 129.53125 109.730469 L 130.390625 110.902344 C 130.671875 111.285156 130.984375 111.613281 131.328125 111.886719 C 131.679688 112.167969 132.035156 112.308594 132.390625 112.308594 C 132.773438 112.308594 133.113281 112.183594 133.40625 111.933594 C 133.695312 111.683594 133.84375 111.324219 133.84375 110.855469 C 133.84375 110.449219 133.726562 110.121094 133.5 109.871094 C 133.269531 109.621094 132.945312 109.496094 132.53125 109.496094 C 132.425781 109.496094 132.332031 109.441406 132.25 109.339844 C 132.164062 109.246094 132.125 109.121094 132.125 108.964844 C 132.125 108.660156 132.320312 108.511719 132.71875 108.511719 C 133.320312 108.511719 133.8125 108.734375 134.1875 109.183594 C 134.570312 109.640625 134.765625 110.199219 134.765625 110.855469 C 134.765625 111.550781 134.539062 112.136719 134.09375 112.605469 C 133.65625 113.082031 133.101562 113.324219 132.4375 113.324219 C 132.03125 113.324219 131.644531 113.222656 131.28125 113.027344 C 130.914062 112.828125 130.601562 112.582031 130.34375 112.292969 C 130.082031 112 129.828125 111.683594 129.578125 111.339844 L 128.890625 110.386719 C 128.691406 110.09375 128.472656 109.847656 128.234375 109.652344 C 127.992188 109.453125 127.757812 109.355469 127.53125 109.355469 L 126.90625 109.355469 L 126.90625 113.042969 C 126.90625 113.136719 126.859375 113.214844 126.765625 113.277344 C 126.679688 113.347656 126.578125 113.386719 126.453125 113.386719 C 126.335938 113.386719 126.234375 113.347656 126.140625 113.277344 C 126.046875 113.214844 126 113.136719 126 113.042969 L 126 108.777344 C 126 108.671875 126.03125 108.566406 126.09375 108.464844 C 126.164062 108.371094 126.253906 108.324219 126.359375 108.324219 Z M 126.203125 113.960938 C 126.503906 113.960938 126.65625 114.074219 126.65625 114.304688 C 126.65625 114.699219 126.742188 115.042969 126.921875 115.335938 C 127.109375 115.625 127.421875 115.773438 127.859375 115.773438 L 132.953125 115.773438 C 133.304688 115.773438 133.617188 115.636719 133.890625 115.367188 C 134.171875 115.09375 134.3125 114.742188 134.3125 114.304688 C 134.3125 114.199219 134.351562 114.117188 134.4375 114.054688 C 134.519531 113.992188 134.628906 113.960938 134.765625 113.960938 C 135.066406 113.960938 135.21875 114.121094 135.21875 114.445312 C 135.21875 115.070312 134.992188 115.609375 134.546875 116.070312 C 134.109375 116.539062 133.578125 116.773438 132.953125 116.773438 L 127.859375 116.773438 C 127.191406 116.773438 126.675781 116.546875 126.3125 116.101562 C 125.949219 115.664062 125.765625 115.117188 125.765625 114.460938 C 125.765625 114.125 125.914062 113.960938 126.203125 113.960938 Z M 127.375 120.28125 C 127.507812 120.28125 127.632812 120.328125 127.75 120.421875 C 127.875 120.515625 127.9375 120.613281 127.9375 120.71875 C 127.9375 120.78125 127.882812 120.867188 127.78125 120.984375 C 127.6875 121.097656 127.582031 121.210938 127.46875 121.328125 C 127.351562 121.441406 127.242188 121.625 127.140625 121.875 C 127.046875 122.125 126.988281 122.40625 126.96875 122.71875 L 130.15625 122.71875 L 130.40625 122.0625 C 130.457031 121.914062 130.550781 121.722656 130.6875 121.484375 C 130.820312 121.242188 130.957031 121.066406 131.09375 120.953125 C 131.238281 120.835938 131.429688 120.734375 131.671875 120.640625 C 131.910156 120.546875 132.175781 120.5 132.46875 120.5 C 132.832031 120.5 133.148438 120.5625 133.421875 120.6875 C 133.703125 120.8125 133.921875 120.984375 134.078125 121.203125 C 134.234375 121.429688 134.351562 121.664062 134.4375 121.90625 C 134.519531 122.15625 134.578125 122.425781 134.609375 122.71875 L 134.96875 122.71875 C 135.03125 122.71875 135.085938 122.742188 135.140625 122.796875 C 135.191406 122.859375 135.21875 122.9375 135.21875 123.03125 C 135.21875 123.101562 135.191406 123.171875 135.140625 123.234375 C 135.085938 123.304688 135.03125 123.34375 134.96875 123.34375 L 134.625 123.34375 C 134.601562 123.820312 134.519531 124.253906 134.375 124.640625 C 134.238281 125.035156 134.0625 125.234375 133.84375 125.234375 C 133.726562 125.234375 133.601562 125.191406 133.46875 125.109375 C 133.34375 125.035156 133.28125 124.929688 133.28125 124.796875 C 133.28125 124.765625 133.347656 124.597656 133.484375 124.296875 C 133.628906 124.003906 133.710938 123.6875 133.734375 123.34375 L 130.984375 123.34375 C 130.878906 123.65625 130.769531 123.910156 130.65625 124.109375 C 130.550781 124.316406 130.40625 124.535156 130.21875 124.765625 C 130.03125 124.992188 129.789062 125.164062 129.5 125.28125 C 129.207031 125.394531 128.863281 125.453125 128.46875 125.453125 C 127.769531 125.453125 127.210938 125.257812 126.796875 124.875 C 126.390625 124.5 126.144531 123.988281 126.0625 123.34375 L 125.625 123.34375 C 125.5625 123.34375 125.507812 123.304688 125.453125 123.234375 C 125.402344 123.171875 125.375 123.101562 125.375 123.03125 C 125.375 122.9375 125.402344 122.859375 125.453125 122.796875 C 125.507812 122.742188 125.5625 122.71875 125.625 122.71875 L 126.03125 122.71875 C 126.03125 122.03125 126.179688 121.453125 126.484375 120.984375 C 126.796875 120.515625 127.09375 120.28125 127.375 120.28125 Z M 132.5625 121.453125 C 132.1875 121.453125 131.90625 121.5625 131.71875 121.78125 C 131.53125 122 131.359375 122.328125 131.203125 122.765625 L 133.71875 122.765625 C 133.625 121.890625 133.238281 121.453125 132.5625 121.453125 Z M 127 123.296875 C 127.125 124.085938 127.582031 124.484375 128.375 124.484375 C 128.789062 124.484375 129.113281 124.378906 129.34375 124.171875 C 129.582031 123.972656 129.78125 123.679688 129.9375 123.296875 Z M 128.234375 128.816406 L 129.453125 128.816406 C 130.085938 128.816406 130.628906 129.027344 131.078125 129.457031 C 131.535156 129.882812 131.765625 130.386719 131.765625 130.972656 C 131.765625 131.335938 131.675781 131.652344 131.5 131.925781 C 131.320312 132.195312 131.101562 132.402344 130.84375 132.550781 L 134.765625 132.550781 C 134.867188 132.550781 134.953125 132.597656 135.015625 132.691406 C 135.085938 132.785156 135.125 132.902344 135.125 133.050781 C 135.125 133.195312 135.085938 133.308594 135.015625 133.394531 C 134.953125 133.488281 134.867188 133.535156 134.765625 133.535156 L 126.359375 133.535156 C 126.265625 133.535156 126.179688 133.488281 126.109375 133.394531 C 126.035156 133.300781 126 133.183594 126 133.050781 C 126 132.925781 126.035156 132.816406 126.109375 132.722656 C 126.179688 132.636719 126.265625 132.597656 126.359375 132.597656 L 126.84375 132.597656 C 126.582031 132.460938 126.359375 132.238281 126.171875 131.925781 C 125.996094 131.621094 125.90625 131.292969 125.90625 130.941406 C 125.90625 130.378906 126.140625 129.882812 126.609375 129.457031 C 127.078125 129.027344 127.617188 128.816406 128.234375 128.816406 Z M 128.234375 129.816406 C 127.867188 129.816406 127.535156 129.949219 127.234375 130.222656 C 126.941406 130.492188 126.796875 130.808594 126.796875 131.175781 C 126.796875 131.527344 126.929688 131.847656 127.203125 132.128906 C 127.472656 132.410156 127.707031 132.550781 127.90625 132.550781 L 129.453125 132.550781 C 129.867188 132.550781 130.207031 132.410156 130.46875 132.128906 C 130.726562 131.855469 130.859375 131.542969 130.859375 131.191406 C 130.859375 130.816406 130.710938 130.492188 130.421875 130.222656 C 130.140625 129.949219 129.816406 129.816406 129.453125 129.816406 Z M 128.234375 134.746094 L 129.484375 134.746094 C 130.109375 134.746094 130.644531 134.980469 131.09375 135.449219 C 131.539062 135.917969 131.765625 136.480469 131.765625 137.136719 C 131.765625 137.761719 131.550781 138.300781 131.125 138.761719 C 130.707031 139.21875 130.179688 139.449219 129.546875 139.449219 C 129.316406 139.449219 129.128906 139.417969 128.984375 139.355469 C 128.847656 139.300781 128.75 139.21875 128.6875 139.105469 C 128.632812 138.988281 128.597656 138.878906 128.578125 138.777344 C 128.566406 138.683594 128.5625 138.546875 128.5625 138.371094 L 128.5625 135.746094 L 128.203125 135.746094 C 127.753906 135.746094 127.398438 135.902344 127.140625 136.214844 C 126.878906 136.535156 126.75 136.949219 126.75 137.449219 C 126.75 137.71875 126.785156 137.949219 126.859375 138.136719 C 126.941406 138.332031 127.019531 138.488281 127.09375 138.605469 C 127.175781 138.730469 127.21875 138.828125 127.21875 138.902344 C 127.21875 139.015625 127.164062 139.109375 127.0625 139.183594 C 126.957031 139.265625 126.851562 139.308594 126.75 139.308594 C 126.570312 139.308594 126.382812 139.125 126.1875 138.761719 C 126 138.394531 125.90625 137.949219 125.90625 137.417969 C 125.90625 136.636719 126.117188 135.996094 126.546875 135.496094 C 126.972656 134.996094 127.535156 134.746094 128.234375 134.746094 Z M 129.234375 135.746094 L 129.234375 137.964844 C 129.234375 138.171875 129.257812 138.3125 129.3125 138.386719 C 129.363281 138.457031 129.460938 138.496094 129.609375 138.496094 C 129.972656 138.496094 130.289062 138.359375 130.5625 138.089844 C 130.832031 137.828125 130.96875 137.511719 130.96875 137.136719 C 130.96875 136.75 130.84375 136.421875 130.59375 136.152344 C 130.34375 135.878906 130.03125 135.746094 129.65625 135.746094 Z M 126.359375 140.542969 L 131.34375 140.542969 C 131.445312 140.542969 131.53125 140.589844 131.59375 140.683594 C 131.65625 140.777344 131.6875 140.894531 131.6875 141.042969 C 131.6875 141.15625 131.648438 141.261719 131.578125 141.355469 C 131.515625 141.449219 131.4375 141.496094 131.34375 141.496094 L 130.84375 141.496094 C 131.101562 141.621094 131.320312 141.824219 131.5 142.105469 C 131.675781 142.394531 131.765625 142.730469 131.765625 143.105469 C 131.765625 143.667969 131.535156 144.15625 131.078125 144.574219 C 130.628906 145 130.085938 145.214844 129.453125 145.214844 L 126.359375 145.214844 C 126.242188 145.214844 126.15625 145.160156 126.09375 145.058594 C 126.03125 144.964844 126 144.847656 126 144.714844 C 126 144.589844 126.03125 144.472656 126.09375 144.371094 C 126.15625 144.265625 126.242188 144.214844 126.359375 144.214844 L 129.453125 144.214844 C 129.816406 144.214844 130.140625 144.078125 130.421875 143.808594 C 130.710938 143.535156 130.859375 143.21875 130.859375 142.855469 C 130.859375 142.511719 130.726562 142.203125 130.46875 141.933594 C 130.207031 141.671875 129.867188 141.542969 129.453125 141.542969 L 126.359375 141.542969 C 126.273438 141.542969 126.191406 141.488281 126.109375 141.386719 C 126.035156 141.28125 126 141.167969 126 141.042969 C 126 140.90625 126.035156 140.785156 126.109375 140.683594 C 126.179688 140.589844 126.265625 140.542969 126.359375 140.542969 Z M 126.8125 146.238281 C 126.914062 146.238281 127.015625 146.269531 127.109375 146.332031 C 127.210938 146.402344 127.265625 146.488281 127.265625 146.582031 C 127.265625 146.644531 127.21875 146.730469 127.125 146.847656 C 127.03125 146.972656 126.9375 147.148438 126.84375 147.378906 C 126.75 147.605469 126.703125 147.871094 126.703125 148.175781 C 126.703125 148.570312 126.773438 148.855469 126.921875 149.035156 C 127.066406 149.222656 127.25 149.316406 127.46875 149.316406 C 127.726562 149.316406 127.9375 149.210938 128.09375 149.003906 C 128.25 148.804688 128.363281 148.558594 128.4375 148.269531 C 128.519531 147.988281 128.609375 147.699219 128.703125 147.410156 C 128.804688 147.128906 128.96875 146.882812 129.1875 146.675781 C 129.414062 146.476562 129.710938 146.378906 130.078125 146.378906 C 130.535156 146.378906 130.929688 146.539062 131.265625 146.863281 C 131.597656 147.183594 131.765625 147.679688 131.765625 148.347656 C 131.765625 148.773438 131.695312 149.160156 131.5625 149.503906 C 131.425781 149.855469 131.273438 150.035156 131.109375 150.035156 C 131.015625 150.035156 130.90625 149.996094 130.78125 149.925781 C 130.664062 149.851562 130.609375 149.757812 130.609375 149.644531 C 130.609375 149.613281 130.664062 149.457031 130.78125 149.175781 C 130.894531 148.902344 130.953125 148.632812 130.953125 148.363281 C 130.953125 147.996094 130.863281 147.722656 130.6875 147.535156 C 130.519531 147.355469 130.328125 147.269531 130.109375 147.269531 C 129.890625 147.269531 129.710938 147.367188 129.578125 147.566406 C 129.453125 147.761719 129.351562 148.007812 129.28125 148.300781 C 129.21875 148.601562 129.132812 148.894531 129.03125 149.175781 C 128.925781 149.464844 128.742188 149.710938 128.484375 149.910156 C 128.234375 150.105469 127.910156 150.207031 127.515625 150.207031 C 127.015625 150.207031 126.617188 150.027344 126.328125 149.675781 C 126.046875 149.332031 125.90625 148.839844 125.90625 148.207031 C 125.90625 147.664062 126 147.199219 126.1875 146.816406 C 126.382812 146.429688 126.59375 146.238281 126.8125 146.238281 Z M 133.421875 151.347656 C 133.535156 151.222656 133.664062 151.160156 133.8125 151.160156 C 133.96875 151.160156 134.101562 151.214844 134.21875 151.332031 C 134.332031 151.457031 134.390625 151.605469 134.390625 151.785156 C 134.390625 151.949219 134.332031 152.089844 134.21875 152.207031 C 134.101562 152.332031 133.96875 152.394531 133.8125 152.394531 C 133.664062 152.394531 133.535156 152.332031 133.421875 152.207031 C 133.304688 152.089844 133.25 151.949219 133.25 151.785156 C 133.25 151.617188 133.304688 151.472656 133.421875 151.347656 Z M 126.359375 151.285156 L 131.34375 151.285156 C 131.445312 151.285156 131.53125 151.332031 131.59375 151.425781 C 131.65625 151.527344 131.6875 151.648438 131.6875 151.785156 C 131.6875 151.929688 131.65625 152.050781 131.59375 152.144531 C 131.53125 152.238281 131.445312 152.285156 131.34375 152.285156 L 126.359375 152.285156 C 126.273438 152.285156 126.191406 152.230469 126.109375 152.128906 C 126.035156 152.035156 126 151.917969 126 151.785156 C 126 151.648438 126.035156 151.527344 126.109375 151.425781 C 126.179688 151.332031 126.265625 151.285156 126.359375 151.285156 Z M 127.8125 153.679688 L 133.984375 153.679688 C 134.085938 153.679688 134.171875 153.730469 134.234375 153.835938 C 134.304688 153.9375 134.34375 154.046875 134.34375 154.164062 C 134.34375 154.296875 134.304688 154.417969 134.234375 154.523438 C 134.171875 154.625 134.085938 154.679688 133.984375 154.679688 L 131.6875 154.679688 L 131.6875 156.179688 C 131.6875 156.273438 131.644531 156.34375 131.5625 156.398438 C 131.488281 156.449219 131.398438 156.476562 131.296875 156.476562 C 131.191406 156.476562 131.097656 156.449219 131.015625 156.398438 C 130.941406 156.34375 130.90625 156.273438 130.90625 156.179688 L 130.90625 154.679688 L 127.8125 154.679688 C 127.46875 154.679688 127.222656 154.75 127.078125 154.898438 C 126.941406 155.042969 126.875 155.296875 126.875 155.664062 L 126.875 156.039062 C 126.875 156.171875 126.832031 156.277344 126.75 156.351562 C 126.664062 156.433594 126.5625 156.476562 126.4375 156.476562 C 126.320312 156.476562 126.21875 156.433594 126.125 156.351562 C 126.039062 156.265625 126 156.164062 126 156.039062 L 126 155.664062 C 126 154.339844 126.601562 153.679688 127.8125 153.679688 Z M 131.28125 156.855469 C 131.40625 156.855469 131.515625 156.925781 131.609375 157.074219 C 131.710938 157.21875 131.765625 157.363281 131.765625 157.511719 C 131.765625 157.675781 131.695312 157.78125 131.5625 157.824219 L 127.375 159.417969 L 131.5625 160.839844 C 131.695312 160.902344 131.765625 161.003906 131.765625 161.152344 C 131.765625 161.285156 131.710938 161.425781 131.609375 161.574219 C 131.515625 161.730469 131.398438 161.808594 131.265625 161.808594 C 131.222656 161.808594 131.179688 161.792969 131.140625 161.761719 L 126.265625 159.949219 L 125.65625 159.714844 C 125.554688 159.671875 125.367188 159.589844 125.09375 159.464844 C 124.824219 159.347656 124.625 159.25 124.5 159.167969 C 124.375 159.09375 124.21875 158.984375 124.03125 158.839844 C 123.835938 158.691406 123.695312 158.550781 123.609375 158.417969 C 123.515625 158.28125 123.433594 158.121094 123.359375 157.933594 C 123.289062 157.746094 123.25 157.546875 123.25 157.339844 C 123.25 157.027344 123.402344 156.871094 123.703125 156.871094 C 123.984375 156.871094 124.125 156.964844 124.125 157.152344 C 124.125 157.515625 124.328125 157.863281 124.734375 158.199219 C 125.140625 158.542969 125.65625 158.777344 126.28125 158.902344 L 131.140625 156.902344 C 131.191406 156.871094 131.238281 156.855469 131.28125 156.855469 Z M 132.90625 164.464844 C 133.070312 164.464844 133.207031 164.535156 133.3125 164.683594 L 134.625 165.777344 C 134.726562 165.878906 134.78125 165.984375 134.78125 166.089844 C 134.78125 166.203125 134.75 166.308594 134.6875 166.402344 C 134.625 166.496094 134.535156 166.542969 134.421875 166.542969 L 126.359375 166.542969 C 126.242188 166.542969 126.15625 166.488281 126.09375 166.386719 C 126.03125 166.292969 126 166.171875 126 166.027344 C 126 165.890625 126.03125 165.769531 126.09375 165.667969 C 126.15625 165.574219 126.242188 165.527344 126.359375 165.527344 L 133.265625 165.527344 L 132.609375 165.089844 C 132.523438 165.003906 132.484375 164.921875 132.484375 164.839844 C 132.484375 164.734375 132.523438 164.644531 132.609375 164.574219 C 132.691406 164.5 132.789062 164.464844 132.90625 164.464844 Z M 128.546875 167.988281 L 132.15625 167.988281 C 133.0625 167.988281 133.722656 168.226562 134.140625 168.707031 C 134.554688 169.183594 134.765625 169.820312 134.765625 170.613281 C 134.765625 171.414062 134.554688 172.039062 134.140625 172.488281 C 133.734375 172.933594 133.25 173.160156 132.6875 173.160156 C 132.382812 173.160156 132.234375 173.003906 132.234375 172.691406 C 132.234375 172.347656 132.367188 172.175781 132.640625 172.175781 C 133.003906 172.175781 133.296875 172.023438 133.515625 171.722656 C 133.742188 171.417969 133.859375 171.042969 133.859375 170.597656 C 133.859375 169.535156 133.289062 169.003906 132.15625 169.003906 L 130.46875 169.003906 C 130.96875 169.386719 131.21875 169.972656 131.21875 170.753906 C 131.21875 172.355469 130.410156 173.160156 128.796875 173.160156 L 128.546875 173.160156 C 127.640625 173.160156 126.972656 172.925781 126.546875 172.457031 C 126.128906 171.988281 125.921875 171.363281 125.921875 170.582031 C 125.921875 169.800781 126.128906 169.167969 126.546875 168.691406 C 126.972656 168.222656 127.640625 167.988281 128.546875 167.988281 Z M 128.5 169.003906 C 127.363281 169.003906 126.796875 169.527344 126.796875 170.582031 C 126.796875 171.632812 127.363281 172.160156 128.5 172.160156 L 128.75 172.160156 C 129.832031 172.160156 130.375 171.632812 130.375 170.582031 C 130.375 169.527344 129.867188 169.003906 128.859375 169.003906 Z M 127.375 176.46875 C 127.507812 176.46875 127.632812 176.515625 127.75 176.609375 C 127.875 176.703125 127.9375 176.800781 127.9375 176.90625 C 127.9375 176.96875 127.882812 177.054688 127.78125 177.171875 C 127.6875 177.285156 127.582031 177.398438 127.46875 177.515625 C 127.351562 177.628906 127.242188 177.8125 127.140625 178.0625 C 127.046875 178.3125 126.988281 178.59375 126.96875 178.90625 L 130.15625 178.90625 L 130.40625 178.25 C 130.457031 178.101562 130.550781 177.910156 130.6875 177.671875 C 130.820312 177.429688 130.957031 177.253906 131.09375 177.140625 C 131.238281 177.023438 131.429688 176.921875 131.671875 176.828125 C 131.910156 176.734375 132.175781 176.6875 132.46875 176.6875 C 132.832031 176.6875 133.148438 176.75 133.421875 176.875 C 133.703125 177 133.921875 177.171875 134.078125 177.390625 C 134.234375 177.617188 134.351562 177.851562 134.4375 178.09375 C 134.519531 178.34375 134.578125 178.613281 134.609375 178.90625 L 134.96875 178.90625 C 135.03125 178.90625 135.085938 178.929688 135.140625 178.984375 C 135.191406 179.046875 135.21875 179.125 135.21875 179.21875 C 135.21875 179.289062 135.191406 179.359375 135.140625 179.421875 C 135.085938 179.492188 135.03125 179.53125 134.96875 179.53125 L 134.625 179.53125 C 134.601562 180.007812 134.519531 180.441406 134.375 180.828125 C 134.238281 181.222656 134.0625 181.421875 133.84375 181.421875 C 133.726562 181.421875 133.601562 181.378906 133.46875 181.296875 C 133.34375 181.222656 133.28125 181.117188 133.28125 180.984375 C 133.28125 180.953125 133.347656 180.785156 133.484375 180.484375 C 133.628906 180.191406 133.710938 179.875 133.734375 179.53125 L 130.984375 179.53125 C 130.878906 179.84375 130.769531 180.097656 130.65625 180.296875 C 130.550781 180.503906 130.40625 180.722656 130.21875 180.953125 C 130.03125 181.179688 129.789062 181.351562 129.5 181.46875 C 129.207031 181.582031 128.863281 181.640625 128.46875 181.640625 C 127.769531 181.640625 127.210938 181.445312 126.796875 181.0625 C 126.390625 180.6875 126.144531 180.175781 126.0625 179.53125 L 125.625 179.53125 C 125.5625 179.53125 125.507812 179.492188 125.453125 179.421875 C 125.402344 179.359375 125.375 179.289062 125.375 179.21875 C 125.375 179.125 125.402344 179.046875 125.453125 178.984375 C 125.507812 178.929688 125.5625 178.90625 125.625 178.90625 L 126.03125 178.90625 C 126.03125 178.21875 126.179688 177.640625 126.484375 177.171875 C 126.796875 176.703125 127.09375 176.46875 127.375 176.46875 Z M 132.5625 177.640625 C 132.1875 177.640625 131.90625 177.75 131.71875 177.96875 C 131.53125 178.1875 131.359375 178.515625 131.203125 178.953125 L 133.71875 178.953125 C 133.625 178.078125 133.238281 177.640625 132.5625 177.640625 Z M 127 179.484375 C 127.125 180.273438 127.582031 180.671875 128.375 180.671875 C 128.789062 180.671875 129.113281 180.566406 129.34375 180.359375 C 129.582031 180.160156 129.78125 179.867188 129.9375 179.484375 Z M 134.921875 184.9375 C 135.003906 184.9375 135.070312 184.976562 135.125 185.0625 C 135.1875 185.15625 135.21875 185.253906 135.21875 185.359375 C 135.21875 185.472656 135.1875 185.578125 135.125 185.671875 C 135.070312 185.765625 135.003906 185.8125 134.921875 185.8125 L 133.171875 185.6875 C 133.085938 185.6875 133.015625 185.660156 132.953125 185.609375 C 132.890625 185.554688 132.859375 185.476562 132.859375 185.375 C 132.859375 185.164062 132.960938 185.0625 133.171875 185.0625 Z M 134.921875 186.5625 C 135.003906 186.5625 135.070312 186.601562 135.125 186.6875 C 135.1875 186.78125 135.21875 186.882812 135.21875 187 C 135.21875 187.113281 135.1875 187.210938 135.125 187.296875 C 135.070312 187.390625 135.003906 187.4375 134.921875 187.4375 L 133.171875 187.328125 C 133.085938 187.328125 133.015625 187.296875 132.953125 187.234375 C 132.890625 187.179688 132.859375 187.101562 132.859375 187 C 132.859375 186.789062 132.960938 186.6875 133.171875 186.6875 Z M 124.875 188.132812 C 125.460938 188.132812 125.898438 188.453125 126.1875 189.101562 C 126.332031 188.695312 126.597656 188.492188 126.984375 188.492188 C 127.347656 188.492188 127.644531 188.6875 127.875 189.085938 C 128.238281 188.636719 128.742188 188.414062 129.390625 188.414062 L 129.78125 188.414062 C 130.363281 188.414062 130.835938 188.605469 131.203125 188.992188 C 131.578125 189.386719 131.765625 189.902344 131.765625 190.539062 C 131.765625 191.078125 131.609375 191.546875 131.296875 191.945312 C 131.816406 192.183594 132.078125 192.453125 132.078125 192.757812 C 132.078125 192.890625 132.035156 192.996094 131.953125 193.070312 C 131.878906 193.152344 131.796875 193.195312 131.703125 193.195312 C 131.578125 193.195312 131.484375 193.125 131.421875 192.992188 C 131.347656 192.71875 131.179688 192.5 130.921875 192.335938 C 130.617188 192.585938 130.238281 192.710938 129.78125 192.710938 L 129.390625 192.710938 C 128.804688 192.710938 128.328125 192.507812 127.953125 192.101562 C 127.578125 191.695312 127.390625 191.171875 127.390625 190.539062 C 127.390625 190.214844 127.453125 189.917969 127.578125 189.648438 C 127.453125 189.449219 127.3125 189.351562 127.15625 189.351562 C 127.007812 189.351562 126.894531 189.445312 126.8125 189.632812 C 126.726562 189.820312 126.675781 190.046875 126.65625 190.320312 C 126.632812 190.589844 126.59375 190.882812 126.53125 191.195312 C 126.476562 191.515625 126.40625 191.8125 126.3125 192.085938 C 126.226562 192.355469 126.078125 192.585938 125.859375 192.773438 C 125.632812 192.960938 125.34375 193.054688 125 193.054688 C 124.4375 193.054688 124.007812 192.824219 123.703125 192.367188 C 123.402344 191.917969 123.25 191.335938 123.25 190.617188 C 123.25 189.898438 123.398438 189.304688 123.6875 188.835938 C 123.980469 188.367188 124.375 188.132812 124.875 188.132812 Z M 124.984375 189.085938 C 124.671875 189.085938 124.421875 189.21875 124.234375 189.492188 C 124.046875 189.773438 123.953125 190.140625 123.953125 190.601562 C 123.953125 191.046875 124.046875 191.40625 124.234375 191.679688 C 124.421875 191.949219 124.671875 192.085938 124.984375 192.085938 C 125.109375 192.085938 125.21875 192.058594 125.3125 192.007812 C 125.40625 191.964844 125.492188 191.898438 125.5625 191.804688 C 125.625 191.710938 125.679688 191.609375 125.71875 191.507812 C 125.761719 191.414062 125.796875 191.289062 125.828125 191.132812 C 125.859375 190.984375 125.882812 190.859375 125.890625 190.757812 C 125.902344 190.664062 125.917969 190.53125 125.9375 190.367188 C 125.949219 190.199219 125.960938 190.085938 125.96875 190.023438 C 125.761719 189.398438 125.433594 189.085938 124.984375 189.085938 Z M 129.390625 189.382812 C 129.003906 189.382812 128.6875 189.484375 128.4375 189.695312 C 128.195312 189.902344 128.078125 190.195312 128.078125 190.570312 C 128.078125 190.921875 128.195312 191.203125 128.4375 191.414062 C 128.6875 191.632812 129.003906 191.742188 129.390625 191.742188 L 129.78125 191.742188 C 130.144531 191.742188 130.453125 191.632812 130.703125 191.414062 C 130.953125 191.203125 131.078125 190.917969 131.078125 190.554688 C 131.078125 190.1875 130.953125 189.902344 130.703125 189.695312 C 130.460938 189.484375 130.15625 189.382812 129.78125 189.382812 Z M 126.359375 194.050781 L 131.34375 194.050781 C 131.445312 194.050781 131.53125 194.097656 131.59375 194.191406 C 131.65625 194.285156 131.6875 194.402344 131.6875 194.550781 C 131.6875 194.675781 131.65625 194.777344 131.59375 194.863281 C 131.53125 194.957031 131.445312 195.003906 131.34375 195.003906 L 130.78125 195.003906 C 131.050781 195.148438 131.28125 195.363281 131.46875 195.644531 C 131.664062 195.925781 131.765625 196.238281 131.765625 196.582031 L 131.765625 196.988281 C 131.765625 197.089844 131.71875 197.179688 131.625 197.253906 C 131.53125 197.324219 131.421875 197.363281 131.296875 197.363281 C 131.179688 197.363281 131.078125 197.324219 130.984375 197.253906 C 130.898438 197.179688 130.859375 197.089844 130.859375 196.988281 L 130.859375 196.582031 C 130.859375 196.164062 130.691406 195.804688 130.359375 195.503906 C 130.035156 195.199219 129.613281 195.050781 129.09375 195.050781 L 126.359375 195.050781 C 126.273438 195.050781 126.191406 194.996094 126.109375 194.894531 C 126.035156 194.800781 126 194.683594 126 194.550781 C 126 194.414062 126.035156 194.292969 126.109375 194.191406 C 126.179688 194.097656 126.265625 194.050781 126.359375 194.050781 Z M 128.234375 197.960938 L 129.484375 197.960938 C 130.109375 197.960938 130.644531 198.195312 131.09375 198.664062 C 131.539062 199.132812 131.765625 199.695312 131.765625 200.351562 C 131.765625 200.976562 131.550781 201.515625 131.125 201.976562 C 130.707031 202.433594 130.179688 202.664062 129.546875 202.664062 C 129.316406 202.664062 129.128906 202.632812 128.984375 202.570312 C 128.847656 202.515625 128.75 202.433594 128.6875 202.320312 C 128.632812 202.203125 128.597656 202.09375 128.578125 201.992188 C 128.566406 201.898438 128.5625 201.761719 128.5625 201.585938 L 128.5625 198.960938 L 128.203125 198.960938 C 127.753906 198.960938 127.398438 199.117188 127.140625 199.429688 C 126.878906 199.75 126.75 200.164062 126.75 200.664062 C 126.75 200.933594 126.785156 201.164062 126.859375 201.351562 C 126.941406 201.546875 127.019531 201.703125 127.09375 201.820312 C 127.175781 201.945312 127.21875 202.042969 127.21875 202.117188 C 127.21875 202.230469 127.164062 202.324219 127.0625 202.398438 C 126.957031 202.480469 126.851562 202.523438 126.75 202.523438 C 126.570312 202.523438 126.382812 202.339844 126.1875 201.976562 C 126 201.609375 125.90625 201.164062 125.90625 200.632812 C 125.90625 199.851562 126.117188 199.210938 126.546875 198.710938 C 126.972656 198.210938 127.535156 197.960938 128.234375 197.960938 Z M 129.234375 198.960938 L 129.234375 201.179688 C 129.234375 201.386719 129.257812 201.527344 129.3125 201.601562 C 129.363281 201.671875 129.460938 201.710938 129.609375 201.710938 C 129.972656 201.710938 130.289062 201.574219 130.5625 201.304688 C 130.832031 201.042969 130.96875 200.726562 130.96875 200.351562 C 130.96875 199.964844 130.84375 199.636719 130.59375 199.367188 C 130.34375 199.09375 130.03125 198.960938 129.65625 198.960938 Z M 131.28125 203.199219 C 131.40625 203.199219 131.515625 203.269531 131.609375 203.417969 C 131.710938 203.5625 131.765625 203.707031 131.765625 203.855469 C 131.765625 204.019531 131.695312 204.125 131.5625 204.167969 L 127.375 205.761719 L 131.5625 207.183594 C 131.695312 207.246094 131.765625 207.347656 131.765625 207.496094 C 131.765625 207.628906 131.710938 207.769531 131.609375 207.917969 C 131.515625 208.074219 131.398438 208.152344 131.265625 208.152344 C 131.222656 208.152344 131.179688 208.136719 131.140625 208.105469 L 126.265625 206.292969 L 125.65625 206.058594 C 125.554688 206.015625 125.367188 205.933594 125.09375 205.808594 C 124.824219 205.691406 124.625 205.59375 124.5 205.511719 C 124.375 205.4375 124.21875 205.328125 124.03125 205.183594 C 123.835938 205.035156 123.695312 204.894531 123.609375 204.761719 C 123.515625 204.625 123.433594 204.464844 123.359375 204.277344 C 123.289062 204.089844 123.25 203.890625 123.25 203.683594 C 123.25 203.371094 123.402344 203.214844 123.703125 203.214844 C 123.984375 203.214844 124.125 203.308594 124.125 203.496094 C 124.125 203.859375 124.328125 204.207031 124.734375 204.542969 C 125.140625 204.886719 125.65625 205.121094 126.28125 205.246094 L 131.140625 203.246094 C 131.191406 203.214844 131.238281 203.199219 131.28125 203.199219 Z M 126.359375 211.421875 L 134.765625 211.421875 C 134.867188 211.421875 134.953125 211.46875 135.015625 211.5625 C 135.085938 211.65625 135.125 211.769531 135.125 211.90625 C 135.125 212.050781 135.085938 212.171875 135.015625 212.265625 C 134.953125 212.367188 134.867188 212.421875 134.765625 212.421875 L 130.84375 212.421875 C 131.101562 212.566406 131.320312 212.773438 131.5 213.046875 C 131.675781 213.316406 131.765625 213.628906 131.765625 213.984375 C 131.765625 214.566406 131.535156 215.070312 131.078125 215.5 C 130.628906 215.925781 130.085938 216.140625 129.453125 216.140625 L 128.234375 216.140625 C 127.617188 216.140625 127.078125 215.925781 126.609375 215.5 C 126.140625 215.070312 125.90625 214.582031 125.90625 214.03125 C 125.90625 213.664062 125.996094 213.332031 126.171875 213.03125 C 126.359375 212.726562 126.582031 212.507812 126.84375 212.375 L 126.359375 212.375 C 126.265625 212.375 126.179688 212.328125 126.109375 212.234375 C 126.035156 212.140625 126 212.035156 126 211.921875 C 126 211.785156 126.035156 211.664062 126.109375 211.5625 C 126.179688 211.46875 126.265625 211.421875 126.359375 211.421875 Z M 127.90625 212.421875 C 127.707031 212.421875 127.472656 212.5625 127.203125 212.84375 C 126.929688 213.125 126.796875 213.4375 126.796875 213.78125 C 126.796875 214.144531 126.941406 214.460938 127.234375 214.734375 C 127.535156 215.003906 127.867188 215.140625 128.234375 215.140625 L 129.453125 215.140625 C 129.816406 215.140625 130.140625 215.003906 130.421875 214.734375 C 130.710938 214.460938 130.859375 214.144531 130.859375 213.78125 C 130.859375 213.414062 130.726562 213.097656 130.46875 212.828125 C 130.207031 212.554688 129.867188 212.421875 129.453125 212.421875 Z M 126.359375 217.441406 L 134.765625 217.441406 C 134.867188 217.441406 134.953125 217.488281 135.015625 217.582031 C 135.085938 217.675781 135.125 217.792969 135.125 217.941406 C 135.125 218.085938 135.085938 218.207031 135.015625 218.300781 C 134.953125 218.394531 134.867188 218.441406 134.765625 218.441406 L 126.359375 218.441406 C 126.273438 218.441406 126.191406 218.386719 126.109375 218.285156 C 126.035156 218.191406 126 218.074219 126 217.941406 C 126 217.804688 126.035156 217.683594 126.109375 217.582031 C 126.179688 217.488281 126.265625 217.441406 126.359375 217.441406 Z M 127.5 219.601562 C 128.125 219.601562 128.554688 219.839844 128.796875 220.320312 C 129.046875 220.796875 129.171875 221.492188 129.171875 222.398438 L 129.171875 222.976562 L 129.421875 222.976562 C 129.816406 222.976562 130.160156 222.867188 130.453125 222.648438 C 130.753906 222.429688 130.90625 222.101562 130.90625 221.664062 C 130.90625 221.320312 130.847656 221.015625 130.734375 220.757812 C 130.617188 220.507812 130.5625 220.371094 130.5625 220.351562 C 130.5625 220.234375 130.613281 220.140625 130.71875 220.070312 C 130.832031 220.007812 130.945312 219.976562 131.0625 219.976562 C 131.25 219.976562 131.410156 220.15625 131.546875 220.523438 C 131.691406 220.886719 131.765625 221.273438 131.765625 221.679688 C 131.765625 222.460938 131.539062 223.039062 131.09375 223.414062 C 130.644531 223.789062 130.09375 223.976562 129.4375 223.976562 L 126.359375 223.976562 C 126.253906 223.976562 126.164062 223.929688 126.09375 223.835938 C 126.03125 223.742188 126 223.621094 126 223.476562 C 126 223.351562 126.03125 223.242188 126.09375 223.148438 C 126.164062 223.0625 126.253906 223.023438 126.359375 223.023438 L 126.84375 223.023438 C 126.21875 222.480469 125.90625 221.875 125.90625 221.210938 C 125.90625 220.730469 126.039062 220.339844 126.3125 220.039062 C 126.582031 219.746094 126.976562 219.601562 127.5 219.601562 Z M 127.609375 220.601562 C 127.304688 220.601562 127.078125 220.683594 126.921875 220.851562 C 126.773438 221.015625 126.703125 221.242188 126.703125 221.523438 C 126.703125 221.855469 126.835938 222.179688 127.109375 222.492188 C 127.378906 222.8125 127.65625 222.976562 127.9375 222.976562 L 128.5625 222.976562 L 128.5625 222.554688 C 128.5625 222.324219 128.550781 222.125 128.53125 221.960938 C 128.519531 221.792969 128.492188 221.617188 128.453125 221.429688 C 128.421875 221.25 128.367188 221.105469 128.296875 220.992188 C 128.234375 220.875 128.144531 220.78125 128.03125 220.710938 C 127.914062 220.636719 127.773438 220.601562 127.609375 220.601562 Z M 128.234375 225.132812 L 129.4375 225.132812 C 130.125 225.132812 130.679688 225.335938 131.109375 225.742188 C 131.546875 226.148438 131.765625 226.742188 131.765625 227.523438 C 131.765625 228.023438 131.675781 228.4375 131.5 228.773438 C 131.320312 229.117188 131.132812 229.289062 130.9375 229.289062 C 130.820312 229.289062 130.707031 229.246094 130.59375 229.164062 C 130.488281 229.078125 130.4375 228.980469 130.4375 228.867188 C 130.4375 228.835938 130.503906 228.695312 130.640625 228.445312 C 130.785156 228.203125 130.859375 227.921875 130.859375 227.601562 C 130.859375 227.121094 130.734375 226.757812 130.484375 226.507812 C 130.234375 226.257812 129.882812 226.132812 129.4375 226.132812 L 128.234375 226.132812 C 127.273438 226.132812 126.796875 226.621094 126.796875 227.601562 C 126.796875 227.945312 126.867188 228.234375 127.015625 228.476562 C 127.160156 228.726562 127.234375 228.871094 127.234375 228.914062 C 127.234375 229.039062 127.179688 229.140625 127.078125 229.226562 C 126.972656 229.320312 126.863281 229.367188 126.75 229.367188 C 126.550781 229.367188 126.359375 229.1875 126.171875 228.835938 C 125.996094 228.480469 125.90625 228.046875 125.90625 227.539062 C 125.90625 226.746094 126.117188 226.148438 126.546875 225.742188 C 126.972656 225.335938 127.535156 225.132812 128.234375 225.132812 Z M 126.359375 230.355469 L 134.765625 230.355469 C 134.867188 230.355469 134.953125 230.402344 135.015625 230.496094 C 135.085938 230.589844 135.125 230.703125 135.125 230.839844 C 135.125 230.984375 135.085938 231.105469 135.015625 231.199219 C 134.953125 231.300781 134.867188 231.355469 134.765625 231.355469 L 129.15625 231.355469 L 131.625 234.089844 C 131.6875 234.160156 131.71875 234.234375 131.71875 234.308594 C 131.71875 234.421875 131.664062 234.53125 131.5625 234.636719 C 131.46875 234.75 131.363281 234.808594 131.25 234.808594 C 131.144531 234.808594 131.0625 234.769531 131 234.699219 L 129.53125 233.027344 L 126.640625 235.027344 C 126.578125 235.066406 126.515625 235.089844 126.453125 235.089844 C 126.335938 235.089844 126.222656 235.027344 126.109375 234.902344 C 126.003906 234.785156 125.953125 234.660156 125.953125 234.527344 C 125.953125 234.421875 126.003906 234.332031 126.109375 234.261719 L 128.90625 232.355469 L 128.015625 231.355469 L 126.359375 231.355469 C 126.273438 231.355469 126.191406 231.300781 126.109375 231.199219 C 126.035156 231.105469 126 230.988281 126 230.855469 C 126 230.71875 126.035156 230.597656 126.109375 230.496094 C 126.179688 230.402344 126.265625 230.355469 126.359375 230.355469 Z M 134.921875 235.664062 C 135.003906 235.664062 135.070312 235.703125 135.125 235.789062 C 135.1875 235.882812 135.21875 235.980469 135.21875 236.085938 C 135.21875 236.199219 135.1875 236.304688 135.125 236.398438 C 135.070312 236.492188 135.003906 236.539062 134.921875 236.539062 L 133.171875 236.414062 C 133.085938 236.414062 133.015625 236.386719 132.953125 236.335938 C 132.890625 236.28125 132.859375 236.203125 132.859375 236.101562 C 132.859375 235.890625 132.960938 235.789062 133.171875 235.789062 Z M 134.921875 237.289062 C 135.003906 237.289062 135.070312 237.328125 135.125 237.414062 C 135.1875 237.507812 135.21875 237.609375 135.21875 237.726562 C 135.21875 237.839844 135.1875 237.9375 135.125 238.023438 C 135.070312 238.117188 135.003906 238.164062 134.921875 238.164062 L 133.171875 238.054688 C 133.085938 238.054688 133.015625 238.023438 132.953125 237.960938 C 132.890625 237.90625 132.859375 237.828125 132.859375 237.726562 C 132.859375 237.515625 132.960938 237.414062 133.171875 237.414062 Z M 126 238.589844 "/>
</g>
</svg>
