<?xml version="1.0" encoding="UTF-8"?>
<svg xmlns="http://www.w3.org/2000/svg" xmlns:xlink="http://www.w3.org/1999/xlink" width="384pt" height="288pt" viewBox="0 0 384 288" version="1.1">
<g id="surface149">
<path style=" stroke:none;fill-rule:nonzero;fill:rgb(0%,0%,0%);fill-opacity:1;" d="M 0 0 L 288 0 L 288 288 L 0 288 Z M 0 0 "/>
<path style=" stroke:none;fill-rule:nonzero;fill:rgb(50.196078%,50.196078%,50.196078%);fill-opacity:1;" d="M 0 0 L 36 0 L 36 288 L 0 288 Z M 0 0 "/>
<path style=" stroke:none;fill-rule:nonzero;fill:rgb(0%,0%,0%);fill-opacity:1;" d="M 36 0 L 72 0 L 72 288 L 36 288 Z M 36 0 "/>
<path style=" stroke:none;fill-rule:nonzero;fill:rgb(50.196078%,50.196078%,50.196078%);fill-opacity:1;" d="M 72 0 L 108 0 L 108 288 L 72 288 Z M 72 0 "/>
<path style=" stroke:none;fill-rule:nonzero;fill:rgb(0%,0%,0%);fill-opacity:1;" d="M 108 0 L 144 0 L 144 288 L 108 288 Z M 108 0 "/>
<path style=" stroke:none;fill-rule:nonzero;fill:rgb(50.196078%,50.196078%,50.196078%);fill-opacity:1;" d="M 144 0 L 180 0 L 180 288 L 144 288 Z M 144 0 "/>
<path style=" stroke:none;fill-rule:nonzero;fill:rgb(0%,0%,0%);fill-opacity:1;" d="M 180 0 L 216 0 L 216 288 L 180 288 Z M 180 0 "/>
<path style=" stroke:none;fill-rule:nonzero;fill:rgb(50.196078%,50.196078%,50.196078%);fill-opacity:1;" d="M 216 0 L 252 0 L 252 288 L 216 288 Z M 216 0 "/>
<path style=" stroke:none;fill-rule:nonzero;fill:rgb(0%,0%,0%);fill-opacity:1;" d="M 252 0 L 288 0 L 288 288 L 252 288 Z M 252 0 "/>
<path style=" stroke:none;fill-rule:nonzero;fill:rgb(0%,0%,0%);fill-opacity:1;" d="M 345.59375 11.203125 L 359.625 11.203125 C 359.789062 11.203125 359.925781 11.273438 360.03125 11.421875 C 360.144531 11.578125 360.203125 11.773438 360.203125 12.015625 C 360.203125 12.253906 360.144531 12.453125 360.03125 12.609375 C 359.925781 12.773438 359.789062 12.859375 359.625 12.859375 L 353.078125 12.859375 C 353.503906 13.085938 353.863281 13.425781 354.15625 13.875 C 354.445312 14.320312 354.59375 14.847656 354.59375 15.453125 C 354.59375 16.398438 354.21875 17.222656 353.46875 17.921875 C 352.71875 18.628906 351.816406 18.984375 350.765625 18.984375 L 345.59375 18.984375 C 345.40625 18.984375 345.257812 18.898438 345.15625 18.734375 C 345.050781 18.566406 345 18.367188 345 18.140625 C 345 17.921875 345.050781 17.726562 345.15625 17.5625 C 345.257812 17.394531 345.40625 17.3125 345.59375 17.3125 L 350.765625 17.3125 C 351.359375 17.3125 351.894531 17.082031 352.375 16.625 C 352.851562 16.175781 353.09375 15.648438 353.09375 15.046875 C 353.09375 14.472656 352.875 13.960938 352.4375 13.515625 C 352.007812 13.078125 351.453125 12.859375 350.765625 12.859375 L 345.59375 12.859375 C 345.445312 12.859375 345.3125 12.773438 345.1875 12.609375 C 345.0625 12.441406 345 12.242188 345 12.015625 C 345 11.796875 345.054688 11.601562 345.171875 11.4375 C 345.296875 11.28125 345.4375 11.203125 345.59375 11.203125 Z M 348.71875 20.890625 L 350.8125 20.890625 C 351.84375 20.890625 352.726562 21.28125 353.46875 22.0625 C 354.21875 22.84375 354.59375 23.78125 354.59375 24.875 C 354.59375 25.914062 354.242188 26.816406 353.546875 27.578125 C 352.847656 28.335938 351.972656 28.71875 350.921875 28.71875 C 350.535156 28.71875 350.222656 28.671875 349.984375 28.578125 C 349.753906 28.484375 349.585938 28.335938 349.484375 28.140625 C 349.390625 27.953125 349.328125 27.773438 349.296875 27.609375 C 349.273438 27.441406 349.265625 27.21875 349.265625 26.9375 L 349.265625 22.5625 L 348.65625 22.5625 C 347.925781 22.5625 347.335938 22.820312 346.890625 23.34375 C 346.453125 23.875 346.234375 24.554688 346.234375 25.390625 C 346.234375 25.835938 346.300781 26.222656 346.4375 26.546875 C 346.570312 26.867188 346.703125 27.128906 346.828125 27.328125 C 346.953125 27.535156 347.015625 27.695312 347.015625 27.8125 C 347.015625 28 346.929688 28.160156 346.765625 28.296875 C 346.597656 28.429688 346.429688 28.5 346.265625 28.5 C 345.953125 28.5 345.632812 28.191406 345.3125 27.578125 C 345 26.972656 344.84375 26.226562 344.84375 25.34375 C 344.84375 24.03125 345.195312 22.957031 345.90625 22.125 C 346.625 21.300781 347.5625 20.890625 348.71875 20.890625 Z M 350.375 22.5625 L 350.375 26.265625 C 350.375 26.609375 350.414062 26.835938 350.5 26.953125 C 350.59375 27.078125 350.765625 27.140625 351.015625 27.140625 C 351.617188 27.140625 352.144531 26.914062 352.59375 26.46875 C 353.050781 26.03125 353.28125 25.492188 353.28125 24.859375 C 353.28125 24.234375 353.066406 23.691406 352.640625 23.234375 C 352.222656 22.785156 351.707031 22.5625 351.09375 22.5625 Z M 345.59375 30.738281 L 359.625 30.738281 C 359.789062 30.738281 359.925781 30.808594 360.03125 30.957031 C 360.144531 31.113281 360.203125 31.308594 360.203125 31.550781 C 360.203125 31.800781 360.144531 32.003906 360.03125 32.160156 C 359.925781 32.316406 359.789062 32.394531 359.625 32.394531 L 345.59375 32.394531 C 345.445312 32.394531 345.3125 32.308594 345.1875 32.144531 C 345.0625 31.976562 345 31.777344 345 31.550781 C 345 31.332031 345.054688 31.136719 345.171875 30.972656 C 345.296875 30.816406 345.4375 30.738281 345.59375 30.738281 Z M 345.59375 35.121094 L 359.625 35.121094 C 359.789062 35.121094 359.925781 35.191406 360.03125 35.339844 C 360.144531 35.496094 360.203125 35.691406 360.203125 35.933594 C 360.203125 36.183594 360.144531 36.386719 360.03125 36.542969 C 359.925781 36.699219 359.789062 36.777344 359.625 36.777344 L 345.59375 36.777344 C 345.445312 36.777344 345.3125 36.691406 345.1875 36.527344 C 345.0625 36.359375 345 36.160156 345 35.933594 C 345 35.714844 345.054688 35.519531 345.171875 35.355469 C 345.296875 35.199219 345.4375 35.121094 345.59375 35.121094 Z M 348.71875 38.953125 L 350.765625 38.953125 C 351.785156 38.953125 352.675781 39.34375 353.4375 40.125 C 354.207031 40.90625 354.59375 41.828125 354.59375 42.890625 C 354.59375 43.960938 354.210938 44.890625 353.453125 45.671875 C 352.691406 46.460938 351.796875 46.859375 350.765625 46.859375 L 348.71875 46.859375 C 347.707031 46.859375 346.804688 46.460938 346.015625 45.671875 C 345.234375 44.878906 344.84375 43.957031 344.84375 42.90625 C 344.84375 41.851562 345.234375 40.929688 346.015625 40.140625 C 346.796875 39.347656 347.695312 38.953125 348.71875 38.953125 Z M 348.71875 40.625 C 348.09375 40.625 347.539062 40.847656 347.0625 41.296875 C 346.582031 41.753906 346.34375 42.289062 346.34375 42.90625 C 346.34375 43.53125 346.582031 44.066406 347.0625 44.515625 C 347.550781 44.972656 348.101562 45.203125 348.71875 45.203125 L 350.765625 45.203125 C 351.359375 45.203125 351.894531 44.972656 352.375 44.515625 C 352.851562 44.066406 353.09375 43.523438 353.09375 42.890625 C 353.09375 42.265625 352.851562 41.726562 352.375 41.28125 C 351.894531 40.84375 351.359375 40.625 350.765625 40.625 Z M 345 47.679688 "/>
<path style=" stroke:none;fill-rule:nonzero;fill:rgb(0%,0%,0%);fill-opacity:1;" d="M 345.59375 11.203125 L 359.625 11.203125 C 359.789062 11.203125 359.925781 11.273438 360.03125 11.421875 C 360.144531 11.578125 360.203125 11.773438 360.203125 12.015625 C 360.203125 12.253906 360.144531 12.453125 360.03125 12.609375 C 359.925781 12.773438 359.789062 12.859375 359.625 12.859375 L 353.078125 12.859375 C 353.503906 13.085938 353.863281 13.425781 354.15625 13.875 C 354.445312 14.320312 354.59375 14.847656 354.59375 15.453125 C 354.59375 16.398438 354.21875 17.222656 353.46875 17.921875 C 352.71875 18.628906 351.816406 18.984375 350.765625 18.984375 L 345.59375 18.984375 C 345.40625 18.984375 345.257812 18.898438 345.15625 18.734375 C 345.050781 18.566406 345 18.367188 345 18.140625 C 345 17.921875 345.050781 17.726562 345.15625 17.5625 C 345.257812 17.394531 345.40625 17.3125 345.59375 17.3125 L 350.765625 17.3125 C 351.359375 17.3125 351.894531 17.082031 352.375 16.625 C 352.851562 16.175781 353.09375 15.648438 353.09375 15.046875 C 353.09375 14.472656 352.875 13.960938 352.4375 13.515625 C 352.007812 13.078125 351.453125 12.859375 350.765625 12.859375 L 345.59375 12.859375 C 345.445312 12.859375 345.3125 12.773438 345.1875 12.609375 C 345.0625 12.441406 345 12.242188 345 12.015625 C 345 11.796875 345.054688 11.601562 345.171875 11.4375 C 345.296875 11.28125 345.4375 11.203125 345.59375 11.203125 Z M 348.71875 20.890625 L 350.8125 20.890625 C 351.84375 20.890625 352.726562 21.28125 353.46875 22.0625 C 354.21875 22.84375 354.59375 23.78125 354.59375 24.875 C 354.59375 25.914062 354.242188 26.816406 353.546875 27.578125 C 352.847656 28.335938 351.972656 28.71875 350.921875 28.71875 C 350.535156 28.71875 350.222656 28.671875 349.984375 28.578125 C 349.753906 28.484375 349.585938 28.335938 349.484375 28.140625 C 349.390625 27.953125 349.328125 27.773438 349.296875 27.609375 C 349.273438 27.441406 349.265625 27.21875 349.265625 26.9375 L 349.265625 22.5625 L 348.65625 22.5625 C 347.925781 22.5625 347.335938 22.820312 346.890625 23.34375 C 346.453125 23.875 346.234375 24.554688 346.234375 25.390625 C 346.234375 25.835938 346.300781 26.222656 346.4375 26.546875 C 346.570312 26.867188 346.703125 27.128906 346.828125 27.328125 C 346.953125 27.535156 347.015625 27.695312 347.015625 27.8125 C 347.015625 28 346.929688 28.160156 346.765625 28.296875 C 346.597656 28.429688 346.429688 28.5 346.265625 28.5 C 345.953125 28.5 345.632812 28.191406 345.3125 27.578125 C 345 26.972656 344.84375 26.226562 344.84375 25.34375 C 344.84375 24.03125 345.195312 22.957031 345.90625 22.125 C 346.625 21.300781 347.5625 20.890625 348.71875 20.890625 Z M 350.375 22.5625 L 350.375 26.265625 C 350.375 26.609375 350.414062 26.835938 350.5 26.953125 C 350.59375 27.078125 350.765625 27.140625 351.015625 27.140625 C 351.617188 27.140625 352.144531 26.914062 352.59375 26.46875 C 353.050781 26.03125 353.28125 25.492188 353.28125 24.859375 C 353.28125 24.234375 353.066406 23.691406 352.640625 23.234375 C 352.222656 22.785156 351.707031 22.5625 351.09375 22.5625 Z M 345.59375 30.738281 L 359.625 30.738281 C 359.789062 30.738281 359.925781 30.808594 360.03125 30.957031 C 360.144531 31.113281 360.203125 31.308594 360.203125 31.550781 C 360.203125 31.800781 360.144531 32.003906 360.03125 32.160156 C 359.925781 32.316406 359.789062 32.394531 359.625 32.394531 L 345.59375 32.394531 C 345.445312 32.394531 345.3125 32.308594 345.1875 32.144531 C 345.0625 31.976562 345 31.777344 345 31.550781 C 345 31.332031 345.054688 31.136719 345.171875 30.972656 C 345.296875 30.816406 345.4375 30.738281 345.59375 30.738281 Z M 345.59375 35.121094 L 359.625 35.121094 C 359.789062 35.121094 359.925781 35.191406 360.03125 35.339844 C 360.144531 35.496094 360.203125 35.691406 360.203125 35.933594 C 360.203125 36.183594 360.144531 36.386719 360.03125 36.542969 C 359.925781 36.699219 359.789062 36.777344 359.625 36.777344 L 345.59375 36.777344 C 345.445312 36.777344 345.3125 36.691406 345.1875 36.527344 C 345.0625 36.359375 345 36.160156 345 35.933594 C 345 35.714844 345.054688 35.519531 345.171875 35.355469 C 345.296875 35.199219 345.4375 35.121094 345.59375 35.121094 Z M 348.71875 38.953125 L 350.765625 38.953125 C 351.785156 38.953125 352.675781 39.34375 353.4375 40.125 C 354.207031 40.90625 354.59375 41.828125 354.59375 42.890625 C 354.59375 43.960938 354.210938 44.890625 353.453125 45.671875 C 352.691406 46.460938 351.796875 46.859375 350.765625 46.859375 L 348.71875 46.859375 C 347.707031 46.859375 346.804688 46.460938 346.015625 45.671875 C 345.234375 44.878906 344.84375 43.957031 344.84375 42.90625 C 344.84375 41.851562 345.234375 40.929688 346.015625 40.140625 C 346.796875 39.347656 347.695312 38.953125 348.71875 38.953125 Z M 348.71875 40.625 C 348.09375 40.625 347.539062 40.847656 347.0625 41.296875 C 346.582031 41.753906 346.34375 42.289062 346.34375 42.90625 C 346.34375 43.53125 346.582031 44.066406 347.0625 44.515625 C 347.550781 44.972656 348.101562 45.203125 348.71875 45.203125 L 350.765625 45.203125 C 351.359375 45.203125 351.894531 44.972656 352.375 44.515625 C 352.851562 44.066406 353.09375 43.523438 353.09375 42.890625 C 353.09375 42.265625 352.851562 41.726562 352.375 41.28125 C 351.894531 40.84375 351.359375 40.625 350.765625 40.625 Z M 345 47.679688 "/>
</g>
</svg>
