<?xml version="1.0" encoding="UTF-8"?>
<svg xmlns="http://www.w3.org/2000/svg" xmlns:xlink="http://www.w3.org/1999/xlink" width="384pt" height="288pt" viewBox="0 0 384 288" version="1.1">
<g id="surface85">
<path style=" stroke:none;fill-rule:nonzero;fill:rgb(0%,0%,0%);fill-opacity:1;" d="M 0 0 L 284 0 L 284 288 L 0 288 Z M 0 0 "/>
<path style=" stroke:none;fill-rule:nonzero;fill:rgb(50.196078%,50.196078%,50.196078%);fill-opacity:1;" d="M 0 0 L 35.5 0 L 35.5 288 L 0 288 Z M 0 0 "/>
<path style=" stroke:none;fill-rule:nonzero;fill:rgb(0%,0%,0%);fill-opacity:1;" d="M 35.5 0 L 71 0 L 71 288 L 35.5 288 Z M 35.5 0 "/>
<path style=" stroke:none;fill-rule:nonzero;fill:rgb(50.196078%,50.196078%,50.196078%);fill-opacity:1;" d="M 71 0 L 106.5 0 L 106.5 288 L 71 288 Z M 71 0 "/>
<path style=" stroke:none;fill-rule:nonzero;fill:rgb(0%,0%,0%);fill-opacity:1;" d="M 106.5 0 L 142 0 L 142 288 L 106.5 288 Z M 106.5 0 "/>
<path style=" stroke:none;fill-rule:nonzero;fill:rgb(50.196078%,50.196078%,50.196078%);fill-opacity:1;" d="M 142 0 L 177.5 0 L 177.5 288 L 142 288 Z M 142 0 "/>
<path style=" stroke:none;fill-rule:nonzero;fill:rgb(0%,0%,0%);fill-opacity:1;" d="M 177.5 0 L 213 0 L 213 288 L 177.5 288 Z M 177.5 0 "/>
<path style=" stroke:none;fill-rule:nonzero;fill:rgb(50.196078%,50.196078%,50.196078%);fill-opacity:1;" d="M 213 0 L 248.5 0 L 248.5 288 L 213 288 Z M 213 0 "/>
<path style=" stroke:none;fill-rule:nonzero;fill:rgb(0%,0%,0%);fill-opacity:1;" d="M 248.5 0 L 284 0 L 284 288 L 248.5 288 Z M 248.5 0 "/>
<path style=" stroke:none;fill-rule:nonzero;fill:rgb(100%,100%,100%);fill-opacity:1;" d="M 0 0 L 284 0 L 284 288 L 0 288 Z M 0 0 "/>
<path style=" stroke:none;fill-rule:nonzero;fill:rgb(0%,0%,0%);fill-opacity:1;" d="M 10.71875 49.65625 L 10.71875 43.125 C 10.71875 42.5 10.925781 41.96875 11.34375 41.53125 C 11.769531 41.09375 12.269531 40.875 12.84375 40.875 L 13.265625 40.875 C 13.390625 40.875 13.488281 40.921875 13.5625 41.015625 C 13.632812 41.101562 13.671875 41.203125 13.671875 41.328125 C 13.671875 41.445312 13.632812 41.542969 13.5625 41.625 C 13.488281 41.710938 13.390625 41.75 13.265625 41.75 L 13.015625 41.75 C 12.640625 41.75 12.332031 41.875 12.09375 42.125 C 11.851562 42.375 11.726562 42.683594 11.71875 43.046875 L 11.71875 44.3125 L 13.359375 44.3125 C 13.453125 44.3125 13.523438 44.355469 13.578125 44.4375 C 13.640625 44.511719 13.671875 44.601562 13.671875 44.703125 C 13.671875 44.808594 13.640625 44.902344 13.578125 44.984375 C 13.523438 45.058594 13.453125 45.09375 13.359375 45.09375 L 11.71875 45.09375 L 11.71875 49.65625 C 11.71875 49.75 11.664062 49.835938 11.5625 49.90625 C 11.46875 49.96875 11.347656 50 11.203125 50 C 11.066406 50 10.953125 49.96875 10.859375 49.90625 C 10.765625 49.84375 10.71875 49.761719 10.71875 49.65625 Z M 14.265625 47.765625 L 14.265625 46.546875 C 14.265625 45.933594 14.5 45.398438 14.96875 44.9375 C 15.4375 44.46875 15.988281 44.234375 16.625 44.234375 C 17.269531 44.234375 17.828125 44.464844 18.296875 44.921875 C 18.773438 45.382812 19.015625 45.921875 19.015625 46.546875 L 19.015625 47.765625 C 19.015625 48.382812 18.773438 48.921875 18.296875 49.390625 C 17.816406 49.859375 17.257812 50.09375 16.625 50.09375 C 16 50.09375 15.445312 49.859375 14.96875 49.390625 C 14.5 48.921875 14.265625 48.382812 14.265625 47.765625 Z M 15.265625 47.765625 C 15.265625 48.140625 15.398438 48.476562 15.671875 48.765625 C 15.941406 49.058594 16.265625 49.203125 16.640625 49.203125 C 17.015625 49.203125 17.335938 49.058594 17.609375 48.765625 C 17.878906 48.464844 18.015625 48.132812 18.015625 47.765625 L 18.015625 46.546875 C 18.015625 46.183594 17.878906 45.859375 17.609375 45.578125 C 17.335938 45.289062 17.015625 45.140625 16.640625 45.140625 C 16.265625 45.140625 15.941406 45.289062 15.671875 45.578125 C 15.398438 45.859375 15.265625 46.183594 15.265625 46.546875 Z M 20.316406 49.640625 L 20.316406 41.234375 C 20.316406 41.132812 20.363281 41.046875 20.457031 40.984375 C 20.550781 40.914062 20.667969 40.875 20.816406 40.875 C 20.960938 40.875 21.082031 40.914062 21.175781 40.984375 C 21.269531 41.046875 21.316406 41.132812 21.316406 41.234375 L 21.316406 49.640625 C 21.316406 49.726562 21.261719 49.808594 21.160156 49.890625 C 21.066406 49.964844 20.949219 50 20.816406 50 C 20.679688 50 20.558594 49.964844 20.457031 49.890625 C 20.363281 49.820312 20.316406 49.734375 20.316406 49.640625 Z M 22.617188 47.765625 L 22.617188 46.546875 C 22.617188 45.914062 22.828125 45.371094 23.257812 44.921875 C 23.683594 44.464844 24.1875 44.234375 24.773438 44.234375 C 25.136719 44.234375 25.453125 44.324219 25.726562 44.5 C 25.996094 44.679688 26.203125 44.898438 26.351562 45.15625 L 26.351562 41.234375 C 26.351562 41.132812 26.398438 41.046875 26.492188 40.984375 C 26.585938 40.914062 26.703125 40.875 26.851562 40.875 C 26.996094 40.875 27.109375 40.914062 27.195312 40.984375 C 27.289062 41.046875 27.335938 41.132812 27.335938 41.234375 L 27.335938 49.640625 C 27.335938 49.734375 27.289062 49.820312 27.195312 49.890625 C 27.101562 49.964844 26.984375 50 26.851562 50 C 26.726562 50 26.617188 49.964844 26.523438 49.890625 C 26.4375 49.820312 26.398438 49.734375 26.398438 49.640625 L 26.398438 49.15625 C 26.261719 49.417969 26.039062 49.640625 25.726562 49.828125 C 25.421875 50.003906 25.09375 50.09375 24.742188 50.09375 C 24.179688 50.09375 23.683594 49.859375 23.257812 49.390625 C 22.828125 48.921875 22.617188 48.382812 22.617188 47.765625 Z M 23.617188 47.765625 C 23.617188 48.132812 23.75 48.464844 24.023438 48.765625 C 24.292969 49.058594 24.609375 49.203125 24.976562 49.203125 C 25.328125 49.203125 25.648438 49.070312 25.929688 48.796875 C 26.210938 48.527344 26.351562 48.292969 26.351562 48.09375 L 26.351562 46.546875 C 26.351562 46.132812 26.210938 45.792969 25.929688 45.53125 C 25.65625 45.273438 25.34375 45.140625 24.992188 45.140625 C 24.617188 45.140625 24.292969 45.289062 24.023438 45.578125 C 23.75 45.859375 23.617188 46.183594 23.617188 46.546875 Z M 28.917969 49.640625 L 28.917969 41.59375 C 28.917969 41.480469 28.957031 41.390625 29.042969 41.328125 C 29.136719 41.265625 29.246094 41.234375 29.371094 41.234375 L 33.636719 41.234375 C 33.75 41.234375 33.832031 41.277344 33.886719 41.359375 C 33.949219 41.445312 33.980469 41.546875 33.980469 41.671875 C 33.980469 41.796875 33.949219 41.90625 33.886719 42 C 33.824219 42.09375 33.738281 42.140625 33.636719 42.140625 L 29.917969 42.140625 L 29.917969 45.1875 L 31.792969 45.1875 C 31.894531 45.1875 31.980469 45.230469 32.042969 45.3125 C 32.105469 45.398438 32.136719 45.5 32.136719 45.625 C 32.136719 45.730469 32.105469 45.824219 32.042969 45.90625 C 31.988281 45.992188 31.90625 46.03125 31.792969 46.03125 L 29.917969 46.03125 L 29.917969 49.09375 L 33.636719 49.09375 C 33.738281 49.09375 33.824219 49.140625 33.886719 49.234375 C 33.949219 49.320312 33.980469 49.429688 33.980469 49.5625 C 33.980469 49.679688 33.949219 49.78125 33.886719 49.875 C 33.832031 49.960938 33.75 50 33.636719 50 L 29.371094 50 C 29.246094 50 29.136719 49.96875 29.042969 49.90625 C 28.957031 49.84375 28.917969 49.757812 28.917969 49.640625 Z M 34.367188 44.71875 C 34.367188 44.605469 34.433594 44.507812 34.570312 44.421875 C 34.714844 44.328125 34.859375 44.28125 35.007812 44.28125 C 35.171875 44.28125 35.28125 44.351562 35.335938 44.484375 L 36.851562 48.5625 L 38.351562 44.53125 C 38.414062 44.367188 38.523438 44.28125 38.679688 44.28125 C 38.804688 44.28125 38.9375 44.328125 39.085938 44.421875 C 39.242188 44.507812 39.320312 44.605469 39.320312 44.71875 C 39.320312 44.78125 39.304688 44.84375 39.273438 44.90625 L 37.304688 49.890625 C 37.242188 50.035156 37.089844 50.109375 36.851562 50.109375 C 36.601562 50.109375 36.445312 50.035156 36.382812 49.890625 L 34.414062 44.90625 C 34.382812 44.8125 34.367188 44.75 34.367188 44.71875 Z M 39.957031 47.765625 L 39.957031 46.515625 C 39.957031 45.890625 40.191406 45.355469 40.660156 44.90625 C 41.128906 44.460938 41.691406 44.234375 42.347656 44.234375 C 42.972656 44.234375 43.511719 44.449219 43.972656 44.875 C 44.429688 45.292969 44.660156 45.820312 44.660156 46.453125 C 44.660156 46.683594 44.628906 46.871094 44.566406 47.015625 C 44.511719 47.152344 44.429688 47.25 44.316406 47.3125 C 44.199219 47.367188 44.089844 47.402344 43.988281 47.421875 C 43.894531 47.433594 43.757812 47.4375 43.582031 47.4375 L 40.957031 47.4375 L 40.957031 47.796875 C 40.957031 48.246094 41.113281 48.601562 41.425781 48.859375 C 41.746094 49.121094 42.160156 49.25 42.660156 49.25 C 42.929688 49.25 43.160156 49.214844 43.347656 49.140625 C 43.542969 49.058594 43.699219 48.980469 43.816406 48.90625 C 43.941406 48.824219 44.039062 48.78125 44.113281 48.78125 C 44.226562 48.78125 44.320312 48.835938 44.394531 48.9375 C 44.476562 49.042969 44.519531 49.148438 44.519531 49.25 C 44.519531 49.429688 44.335938 49.617188 43.972656 49.8125 C 43.605469 50 43.160156 50.09375 42.628906 50.09375 C 41.847656 50.09375 41.207031 49.882812 40.707031 49.453125 C 40.207031 49.027344 39.957031 48.464844 39.957031 47.765625 Z M 40.957031 46.765625 L 43.175781 46.765625 C 43.382812 46.765625 43.523438 46.742188 43.597656 46.6875 C 43.667969 46.636719 43.707031 46.539062 43.707031 46.390625 C 43.707031 46.027344 43.570312 45.710938 43.300781 45.4375 C 43.039062 45.167969 42.722656 45.03125 42.347656 45.03125 C 41.960938 45.03125 41.632812 45.15625 41.363281 45.40625 C 41.089844 45.65625 40.957031 45.96875 40.957031 46.34375 Z M 45.753906 49.640625 L 45.753906 44.65625 C 45.753906 44.554688 45.800781 44.46875 45.894531 44.40625 C 45.988281 44.34375 46.105469 44.3125 46.253906 44.3125 C 46.378906 44.3125 46.480469 44.34375 46.566406 44.40625 C 46.660156 44.46875 46.707031 44.554688 46.707031 44.65625 L 46.707031 45.21875 C 46.851562 44.949219 47.066406 44.71875 47.347656 44.53125 C 47.628906 44.335938 47.941406 44.234375 48.285156 44.234375 L 48.691406 44.234375 C 48.792969 44.234375 48.882812 44.28125 48.957031 44.375 C 49.027344 44.46875 49.066406 44.578125 49.066406 44.703125 C 49.066406 44.820312 49.027344 44.921875 48.957031 45.015625 C 48.882812 45.101562 48.792969 45.140625 48.691406 45.140625 L 48.285156 45.140625 C 47.867188 45.140625 47.507812 45.308594 47.207031 45.640625 C 46.902344 45.964844 46.753906 46.386719 46.753906 46.90625 L 46.753906 49.640625 C 46.753906 49.726562 46.699219 49.808594 46.597656 49.890625 C 46.503906 49.964844 46.386719 50 46.253906 50 C 46.117188 50 45.996094 49.964844 45.894531 49.890625 C 45.800781 49.820312 45.753906 49.734375 45.753906 49.640625 Z M 49.320312 44.71875 C 49.320312 44.59375 49.390625 44.484375 49.539062 44.390625 C 49.683594 44.289062 49.828125 44.234375 49.976562 44.234375 C 50.140625 44.234375 50.246094 44.304688 50.289062 44.4375 L 51.882812 48.625 L 53.304688 44.4375 C 53.367188 44.304688 53.46875 44.234375 53.617188 44.234375 C 53.75 44.234375 53.890625 44.289062 54.039062 44.390625 C 54.195312 44.484375 54.273438 44.601562 54.273438 44.734375 C 54.273438 44.777344 54.257812 44.820312 54.226562 44.859375 L 52.414062 49.734375 L 52.179688 50.34375 C 52.136719 50.445312 52.054688 50.632812 51.929688 50.90625 C 51.8125 51.175781 51.714844 51.375 51.632812 51.5 C 51.558594 51.625 51.449219 51.78125 51.304688 51.96875 C 51.15625 52.164062 51.015625 52.304688 50.882812 52.390625 C 50.746094 52.484375 50.585938 52.566406 50.398438 52.640625 C 50.210938 52.710938 50.011719 52.75 49.804688 52.75 C 49.492188 52.75 49.335938 52.597656 49.335938 52.296875 C 49.335938 52.015625 49.429688 51.875 49.617188 51.875 C 49.980469 51.875 50.328125 51.671875 50.664062 51.265625 C 51.007812 50.859375 51.242188 50.34375 51.367188 49.71875 L 49.367188 44.859375 C 49.335938 44.808594 49.320312 44.761719 49.320312 44.71875 Z M 57.605469 49.90625 L 57.605469 41.125 C 57.605469 41.023438 57.652344 40.9375 57.746094 40.875 C 57.839844 40.8125 57.941406 40.78125 58.058594 40.78125 L 60.027344 40.78125 C 60.128906 40.78125 60.214844 40.828125 60.277344 40.921875 C 60.339844 41.007812 60.371094 41.109375 60.371094 41.234375 C 60.371094 41.359375 60.339844 41.46875 60.277344 41.5625 C 60.214844 41.648438 60.128906 41.6875 60.027344 41.6875 L 58.605469 41.6875 L 58.605469 49.359375 L 60.027344 49.359375 C 60.128906 49.359375 60.214844 49.402344 60.277344 49.484375 C 60.339844 49.570312 60.371094 49.679688 60.371094 49.8125 C 60.371094 49.929688 60.339844 50.023438 60.277344 50.109375 C 60.214844 50.203125 60.128906 50.25 60.027344 50.25 L 58.058594 50.25 C 57.941406 50.25 57.839844 50.21875 57.746094 50.15625 C 57.652344 50.09375 57.605469 50.007812 57.605469 49.90625 Z M 60.90625 48.03125 C 60.90625 47.84375 60.9375 47.71875 61 47.65625 C 61.070312 47.59375 61.195312 47.5625 61.375 47.5625 C 61.5625 47.5625 61.691406 47.59375 61.765625 47.65625 C 61.847656 47.71875 61.890625 47.820312 61.890625 47.953125 C 61.890625 48.265625 62.019531 48.546875 62.28125 48.796875 C 62.539062 49.039062 62.9375 49.15625 63.46875 49.15625 C 64.53125 49.15625 65.0625 48.605469 65.0625 47.5 L 65.0625 47.28125 C 65.0625 46.304688 64.53125 45.8125 63.46875 45.8125 C 63.226562 45.8125 63.109375 45.671875 63.109375 45.390625 C 63.109375 45.109375 63.226562 44.96875 63.46875 44.96875 C 63.925781 44.96875 64.269531 44.867188 64.5 44.65625 C 64.738281 44.449219 64.859375 44.074219 64.859375 43.53125 C 64.859375 42.59375 64.410156 42.125 63.515625 42.125 C 62.992188 42.125 62.628906 42.242188 62.421875 42.46875 C 62.210938 42.699219 62.109375 42.96875 62.109375 43.28125 C 62.109375 43.574219 61.945312 43.71875 61.625 43.71875 C 61.40625 43.71875 61.257812 43.6875 61.1875 43.625 C 61.125 43.554688 61.09375 43.417969 61.09375 43.21875 C 61.09375 43.011719 61.128906 42.804688 61.203125 42.59375 C 61.285156 42.375 61.410156 42.164062 61.578125 41.953125 C 61.742188 41.746094 61.992188 41.574219 62.328125 41.4375 C 62.671875 41.304688 63.070312 41.234375 63.53125 41.234375 C 65.0625 41.234375 65.828125 41.945312 65.828125 43.359375 C 65.828125 43.859375 65.738281 44.289062 65.5625 44.640625 C 65.382812 44.984375 65.148438 45.230469 64.859375 45.375 C 65.671875 45.699219 66.078125 46.335938 66.078125 47.28125 L 66.078125 47.5 C 66.078125 48.386719 65.835938 49.039062 65.359375 49.453125 C 64.878906 49.871094 64.25 50.078125 63.46875 50.078125 C 62.632812 50.078125 62 49.871094 61.5625 49.453125 C 61.125 49.027344 60.90625 48.554688 60.90625 48.03125 Z M 66.992188 49.453125 C 66.992188 49.277344 67.046875 49.125 67.164062 49 C 67.277344 48.875 67.421875 48.8125 67.601562 48.8125 C 67.765625 48.8125 67.914062 48.875 68.039062 49 C 68.164062 49.117188 68.226562 49.265625 68.226562 49.453125 C 68.226562 49.589844 68.054688 50.070312 67.710938 50.90625 C 67.65625 51.007812 67.570312 51.0625 67.445312 51.0625 C 67.351562 51.0625 67.265625 51.035156 67.195312 50.984375 C 67.132812 50.929688 67.101562 50.863281 67.101562 50.78125 C 67.101562 50.726562 67.105469 50.679688 67.117188 50.640625 L 67.367188 50.03125 C 67.117188 49.929688 66.992188 49.734375 66.992188 49.453125 Z M 68.964844 48 C 68.964844 47.679688 69.128906 47.515625 69.464844 47.515625 C 69.808594 47.515625 69.980469 47.652344 69.980469 47.921875 C 69.980469 48.308594 70.125 48.609375 70.417969 48.828125 C 70.71875 49.046875 71.09375 49.15625 71.542969 49.15625 C 72.050781 49.15625 72.441406 49.015625 72.714844 48.734375 C 72.996094 48.453125 73.136719 48.039062 73.136719 47.484375 L 73.136719 47.25 C 73.136719 46.710938 72.996094 46.304688 72.714844 46.03125 C 72.441406 45.75 72.058594 45.609375 71.558594 45.609375 L 69.855469 45.609375 C 69.542969 45.609375 69.386719 45.480469 69.386719 45.21875 C 69.386719 45.136719 69.394531 45.046875 69.417969 44.953125 L 69.667969 41.59375 C 69.675781 41.355469 69.765625 41.234375 69.933594 41.234375 L 73.386719 41.234375 C 73.488281 41.234375 73.566406 41.28125 73.621094 41.375 C 73.683594 41.460938 73.714844 41.5625 73.714844 41.6875 C 73.714844 41.804688 73.683594 41.90625 73.621094 42 C 73.566406 42.09375 73.488281 42.140625 73.386719 42.140625 L 70.542969 42.140625 L 70.355469 44.765625 L 71.558594 44.765625 C 72.339844 44.765625 72.964844 44.96875 73.433594 45.375 C 73.902344 45.773438 74.136719 46.398438 74.136719 47.25 L 74.136719 47.484375 C 74.136719 48.371094 73.902344 49.027344 73.433594 49.453125 C 72.964844 49.871094 72.339844 50.078125 71.558594 50.078125 C 70.753906 50.078125 70.121094 49.875 69.652344 49.46875 C 69.191406 49.0625 68.964844 48.574219 68.964844 48 Z M 74.707031 49.8125 C 74.707031 49.679688 74.738281 49.570312 74.800781 49.484375 C 74.863281 49.402344 74.945312 49.359375 75.050781 49.359375 L 76.472656 49.359375 L 76.472656 41.6875 L 75.050781 41.6875 C 74.945312 41.6875 74.863281 41.648438 74.800781 41.5625 C 74.738281 41.46875 74.707031 41.359375 74.707031 41.234375 C 74.707031 41.109375 74.738281 41.007812 74.800781 40.921875 C 74.863281 40.828125 74.945312 40.78125 75.050781 40.78125 L 77.019531 40.78125 C 77.144531 40.78125 77.246094 40.8125 77.332031 40.875 C 77.425781 40.9375 77.472656 41.023438 77.472656 41.125 L 77.472656 49.90625 C 77.472656 50.007812 77.425781 50.09375 77.332031 50.15625 C 77.246094 50.21875 77.144531 50.25 77.019531 50.25 L 75.050781 50.25 C 74.945312 50.25 74.863281 50.203125 74.800781 50.109375 C 74.738281 50.023438 74.707031 49.929688 74.707031 49.8125 Z M 81.34375 48.140625 L 81.34375 43.046875 C 81.34375 42.421875 81.570312 41.890625 82.03125 41.453125 C 82.5 41.007812 83.046875 40.78125 83.671875 40.78125 C 83.992188 40.78125 84.15625 40.933594 84.15625 41.234375 C 84.15625 41.371094 84.125 41.480469 84.0625 41.5625 C 84 41.648438 83.914062 41.6875 83.8125 41.6875 C 83.375 41.6875 83.019531 41.828125 82.75 42.109375 C 82.476562 42.382812 82.34375 42.695312 82.34375 43.046875 L 82.34375 48.140625 C 82.34375 48.578125 82.488281 48.890625 82.78125 49.078125 C 83.070312 49.257812 83.414062 49.34375 83.8125 49.34375 C 84.039062 49.34375 84.15625 49.496094 84.15625 49.796875 C 84.15625 50.085938 83.984375 50.234375 83.640625 50.234375 C 82.992188 50.234375 82.445312 50.050781 82 49.6875 C 81.5625 49.324219 81.34375 48.808594 81.34375 48.140625 Z M 84.734375 49.1875 C 84.734375 49.085938 84.765625 48.984375 84.828125 48.890625 C 84.898438 48.789062 84.984375 48.734375 85.078125 48.734375 C 85.140625 48.734375 85.226562 48.78125 85.34375 48.875 C 85.46875 48.96875 85.644531 49.0625 85.875 49.15625 C 86.101562 49.25 86.367188 49.296875 86.671875 49.296875 C 87.066406 49.296875 87.351562 49.226562 87.53125 49.078125 C 87.71875 48.933594 87.8125 48.75 87.8125 48.53125 C 87.8125 48.273438 87.707031 48.0625 87.5 47.90625 C 87.300781 47.75 87.054688 47.636719 86.765625 47.5625 C 86.484375 47.480469 86.195312 47.390625 85.90625 47.296875 C 85.625 47.195312 85.378906 47.03125 85.171875 46.8125 C 84.972656 46.585938 84.875 46.289062 84.875 45.921875 C 84.875 45.464844 85.035156 45.070312 85.359375 44.734375 C 85.679688 44.402344 86.175781 44.234375 86.84375 44.234375 C 87.269531 44.234375 87.65625 44.304688 88 44.4375 C 88.351562 44.574219 88.53125 44.726562 88.53125 44.890625 C 88.53125 44.984375 88.492188 45.09375 88.421875 45.21875 C 88.347656 45.335938 88.253906 45.390625 88.140625 45.390625 C 88.109375 45.390625 87.953125 45.335938 87.671875 45.21875 C 87.398438 45.105469 87.128906 45.046875 86.859375 45.046875 C 86.492188 45.046875 86.21875 45.136719 86.03125 45.3125 C 85.851562 45.480469 85.765625 45.671875 85.765625 45.890625 C 85.765625 46.109375 85.863281 46.289062 86.0625 46.421875 C 86.257812 46.546875 86.503906 46.648438 86.796875 46.71875 C 87.097656 46.78125 87.390625 46.867188 87.671875 46.96875 C 87.960938 47.074219 88.207031 47.257812 88.40625 47.515625 C 88.601562 47.765625 88.703125 48.089844 88.703125 48.484375 C 88.703125 48.984375 88.523438 49.382812 88.171875 49.671875 C 87.828125 49.953125 87.335938 50.09375 86.703125 50.09375 C 86.160156 50.09375 85.695312 50 85.3125 49.8125 C 84.925781 49.617188 84.734375 49.40625 84.734375 49.1875 Z M 89.894531 49.640625 L 89.894531 41.234375 C 89.894531 41.132812 89.941406 41.046875 90.035156 40.984375 C 90.128906 40.914062 90.246094 40.875 90.394531 40.875 C 90.539062 40.875 90.660156 40.914062 90.753906 40.984375 C 90.847656 41.046875 90.894531 41.132812 90.894531 41.234375 L 90.894531 49.640625 C 90.894531 49.726562 90.839844 49.808594 90.738281 49.890625 C 90.644531 49.964844 90.527344 50 90.394531 50 C 90.257812 50 90.136719 49.964844 90.035156 49.890625 C 89.941406 49.820312 89.894531 49.734375 89.894531 49.640625 Z M 92.191406 47.765625 L 92.191406 46.546875 C 92.191406 45.933594 92.425781 45.398438 92.894531 44.9375 C 93.363281 44.46875 93.914062 44.234375 94.550781 44.234375 C 95.195312 44.234375 95.753906 44.464844 96.222656 44.921875 C 96.699219 45.382812 96.941406 45.921875 96.941406 46.546875 L 96.941406 47.765625 C 96.941406 48.382812 96.699219 48.921875 96.222656 49.390625 C 95.742188 49.859375 95.183594 50.09375 94.550781 50.09375 C 93.925781 50.09375 93.371094 49.859375 92.894531 49.390625 C 92.425781 48.921875 92.191406 48.382812 92.191406 47.765625 Z M 93.191406 47.765625 C 93.191406 48.140625 93.324219 48.476562 93.597656 48.765625 C 93.867188 49.058594 94.191406 49.203125 94.566406 49.203125 C 94.941406 49.203125 95.261719 49.058594 95.535156 48.765625 C 95.804688 48.464844 95.941406 48.132812 95.941406 47.765625 L 95.941406 46.546875 C 95.941406 46.183594 95.804688 45.859375 95.535156 45.578125 C 95.261719 45.289062 94.941406 45.140625 94.566406 45.140625 C 94.191406 45.140625 93.867188 45.289062 93.597656 45.578125 C 93.324219 45.859375 93.191406 46.183594 93.191406 46.546875 Z M 97.605469 44.71875 C 97.605469 44.605469 97.667969 44.507812 97.792969 44.421875 C 97.925781 44.328125 98.066406 44.28125 98.214844 44.28125 C 98.378906 44.28125 98.488281 44.351562 98.542969 44.484375 L 99.996094 48.515625 L 101.121094 44.875 C 101.171875 44.71875 101.296875 44.640625 101.496094 44.640625 C 101.691406 44.640625 101.816406 44.71875 101.871094 44.875 L 102.980469 48.546875 L 104.449219 44.484375 C 104.480469 44.351562 104.578125 44.28125 104.746094 44.28125 C 104.890625 44.28125 105.03125 44.328125 105.167969 44.421875 C 105.300781 44.507812 105.371094 44.605469 105.371094 44.71875 C 105.371094 44.78125 105.355469 44.84375 105.324219 44.90625 L 103.464844 49.890625 C 103.402344 50.035156 103.265625 50.109375 103.058594 50.109375 C 102.839844 50.109375 102.703125 50.035156 102.652344 49.890625 L 101.496094 46.359375 L 100.355469 49.859375 C 100.292969 50.023438 100.144531 50.109375 99.917969 50.109375 C 99.707031 50.109375 99.574219 50.023438 99.511719 49.859375 L 97.652344 44.90625 C 97.621094 44.8125 97.605469 44.75 97.605469 44.71875 Z M 108.324219 49.640625 L 108.324219 48.46875 C 108.324219 48.117188 108.457031 47.765625 108.730469 47.421875 C 109.011719 47.070312 109.34375 46.75 109.730469 46.46875 L 110.902344 45.609375 C 111.285156 45.328125 111.613281 45.015625 111.886719 44.671875 C 112.167969 44.320312 112.308594 43.964844 112.308594 43.609375 C 112.308594 43.226562 112.183594 42.886719 111.933594 42.59375 C 111.683594 42.304688 111.324219 42.15625 110.855469 42.15625 C 110.449219 42.15625 110.121094 42.273438 109.871094 42.5 C 109.621094 42.730469 109.496094 43.054688 109.496094 43.46875 C 109.496094 43.574219 109.441406 43.667969 109.339844 43.75 C 109.246094 43.835938 109.121094 43.875 108.964844 43.875 C 108.660156 43.875 108.511719 43.679688 108.511719 43.28125 C 108.511719 42.679688 108.734375 42.1875 109.183594 41.8125 C 109.640625 41.429688 110.199219 41.234375 110.855469 41.234375 C 111.550781 41.234375 112.136719 41.460938 112.605469 41.90625 C 113.082031 42.34375 113.324219 42.898438 113.324219 43.5625 C 113.324219 43.96875 113.222656 44.355469 113.027344 44.71875 C 112.828125 45.085938 112.582031 45.398438 112.292969 45.65625 C 112 45.917969 111.683594 46.171875 111.339844 46.421875 L 110.386719 47.109375 C 110.09375 47.308594 109.847656 47.527344 109.652344 47.765625 C 109.453125 48.007812 109.355469 48.242188 109.355469 48.46875 L 109.355469 49.09375 L 113.042969 49.09375 C 113.136719 49.09375 113.214844 49.140625 113.277344 49.234375 C 113.347656 49.320312 113.386719 49.421875 113.386719 49.546875 C 113.386719 49.664062 113.347656 49.765625 113.277344 49.859375 C 113.214844 49.953125 113.136719 50 113.042969 50 L 108.777344 50 C 108.671875 50 108.566406 49.96875 108.464844 49.90625 C 108.371094 49.835938 108.324219 49.746094 108.324219 49.640625 Z M 113.960938 49.796875 C 113.960938 49.496094 114.074219 49.34375 114.304688 49.34375 C 114.699219 49.34375 115.042969 49.257812 115.335938 49.078125 C 115.625 48.890625 115.773438 48.578125 115.773438 48.140625 L 115.773438 43.046875 C 115.773438 42.695312 115.636719 42.382812 115.367188 42.109375 C 115.09375 41.828125 114.742188 41.6875 114.304688 41.6875 C 114.199219 41.6875 114.117188 41.648438 114.054688 41.5625 C 113.992188 41.480469 113.960938 41.371094 113.960938 41.234375 C 113.960938 40.933594 114.121094 40.78125 114.445312 40.78125 C 115.070312 40.78125 115.609375 41.007812 116.070312 41.453125 C 116.539062 41.890625 116.773438 42.421875 116.773438 43.046875 L 116.773438 48.140625 C 116.773438 48.808594 116.546875 49.324219 116.101562 49.6875 C 115.664062 50.050781 115.117188 50.234375 114.460938 50.234375 C 114.125 50.234375 113.960938 50.085938 113.960938 49.796875 Z M 120.28125 48.625 C 120.28125 48.492188 120.328125 48.367188 120.421875 48.25 C 120.515625 48.125 120.613281 48.0625 120.71875 48.0625 C 120.78125 48.0625 120.867188 48.117188 120.984375 48.21875 C 121.097656 48.3125 121.210938 48.417969 121.328125 48.53125 C 121.441406 48.648438 121.625 48.757812 121.875 48.859375 C 122.125 48.953125 122.40625 49.011719 122.71875 49.03125 L 122.71875 45.84375 L 122.0625 45.59375 C 121.914062 45.542969 121.722656 45.449219 121.484375 45.3125 C 121.242188 45.179688 121.066406 45.042969 120.953125 44.90625 C 120.835938 44.761719 120.734375 44.570312 120.640625 44.328125 C 120.546875 44.089844 120.5 43.824219 120.5 43.53125 C 120.5 43.167969 120.5625 42.851562 120.6875 42.578125 C 120.8125 42.296875 120.984375 42.078125 121.203125 41.921875 C 121.429688 41.765625 121.664062 41.648438 121.90625 41.5625 C 122.15625 41.480469 122.425781 41.421875 122.71875 41.390625 L 122.71875 41.03125 C 122.71875 40.96875 122.742188 40.914062 122.796875 40.859375 C 122.859375 40.808594 122.9375 40.78125 123.03125 40.78125 C 123.101562 40.78125 123.171875 40.808594 123.234375 40.859375 C 123.304688 40.914062 123.34375 40.96875 123.34375 41.03125 L 123.34375 41.375 C 123.820312 41.398438 124.253906 41.480469 124.640625 41.625 C 125.035156 41.761719 125.234375 41.9375 125.234375 42.15625 C 125.234375 42.273438 125.191406 42.398438 125.109375 42.53125 C 125.035156 42.65625 124.929688 42.71875 124.796875 42.71875 C 124.765625 42.71875 124.597656 42.652344 124.296875 42.515625 C 124.003906 42.371094 123.6875 42.289062 123.34375 42.265625 L 123.34375 45.015625 C 123.65625 45.121094 123.910156 45.230469 124.109375 45.34375 C 124.316406 45.449219 124.535156 45.59375 124.765625 45.78125 C 124.992188 45.96875 125.164062 46.210938 125.28125 46.5 C 125.394531 46.792969 125.453125 47.136719 125.453125 47.53125 C 125.453125 48.230469 125.257812 48.789062 124.875 49.203125 C 124.5 49.609375 123.988281 49.855469 123.34375 49.9375 L 123.34375 50.375 C 123.34375 50.4375 123.304688 50.492188 123.234375 50.546875 C 123.171875 50.597656 123.101562 50.625 123.03125 50.625 C 122.9375 50.625 122.859375 50.597656 122.796875 50.546875 C 122.742188 50.492188 122.71875 50.4375 122.71875 50.375 L 122.71875 49.96875 C 122.03125 49.96875 121.453125 49.820312 120.984375 49.515625 C 120.515625 49.203125 120.28125 48.90625 120.28125 48.625 Z M 121.453125 43.4375 C 121.453125 43.8125 121.5625 44.09375 121.78125 44.28125 C 122 44.46875 122.328125 44.640625 122.765625 44.796875 L 122.765625 42.28125 C 121.890625 42.375 121.453125 42.761719 121.453125 43.4375 Z M 123.296875 49 C 124.085938 48.875 124.484375 48.417969 124.484375 47.625 C 124.484375 47.210938 124.378906 46.886719 124.171875 46.65625 C 123.972656 46.417969 123.679688 46.21875 123.296875 46.0625 Z M 128.816406 47.765625 L 128.816406 46.546875 C 128.816406 45.914062 129.027344 45.371094 129.457031 44.921875 C 129.882812 44.464844 130.386719 44.234375 130.972656 44.234375 C 131.335938 44.234375 131.652344 44.324219 131.925781 44.5 C 132.195312 44.679688 132.402344 44.898438 132.550781 45.15625 L 132.550781 41.234375 C 132.550781 41.132812 132.597656 41.046875 132.691406 40.984375 C 132.785156 40.914062 132.902344 40.875 133.050781 40.875 C 133.195312 40.875 133.308594 40.914062 133.394531 40.984375 C 133.488281 41.046875 133.535156 41.132812 133.535156 41.234375 L 133.535156 49.640625 C 133.535156 49.734375 133.488281 49.820312 133.394531 49.890625 C 133.300781 49.964844 133.183594 50 133.050781 50 C 132.925781 50 132.816406 49.964844 132.722656 49.890625 C 132.636719 49.820312 132.597656 49.734375 132.597656 49.640625 L 132.597656 49.15625 C 132.460938 49.417969 132.238281 49.640625 131.925781 49.828125 C 131.621094 50.003906 131.292969 50.09375 130.941406 50.09375 C 130.378906 50.09375 129.882812 49.859375 129.457031 49.390625 C 129.027344 48.921875 128.816406 48.382812 128.816406 47.765625 Z M 129.816406 47.765625 C 129.816406 48.132812 129.949219 48.464844 130.222656 48.765625 C 130.492188 49.058594 130.808594 49.203125 131.175781 49.203125 C 131.527344 49.203125 131.847656 49.070312 132.128906 48.796875 C 132.410156 48.527344 132.550781 48.292969 132.550781 48.09375 L 132.550781 46.546875 C 132.550781 46.132812 132.410156 45.792969 132.128906 45.53125 C 131.855469 45.273438 131.542969 45.140625 131.191406 45.140625 C 130.816406 45.140625 130.492188 45.289062 130.222656 45.578125 C 129.949219 45.859375 129.816406 46.183594 129.816406 46.546875 Z M 134.746094 47.765625 L 134.746094 46.515625 C 134.746094 45.890625 134.980469 45.355469 135.449219 44.90625 C 135.917969 44.460938 136.480469 44.234375 137.136719 44.234375 C 137.761719 44.234375 138.300781 44.449219 138.761719 44.875 C 139.21875 45.292969 139.449219 45.820312 139.449219 46.453125 C 139.449219 46.683594 139.417969 46.871094 139.355469 47.015625 C 139.300781 47.152344 139.21875 47.25 139.105469 47.3125 C 138.988281 47.367188 138.878906 47.402344 138.777344 47.421875 C 138.683594 47.433594 138.546875 47.4375 138.371094 47.4375 L 135.746094 47.4375 L 135.746094 47.796875 C 135.746094 48.246094 135.902344 48.601562 136.214844 48.859375 C 136.535156 49.121094 136.949219 49.25 137.449219 49.25 C 137.71875 49.25 137.949219 49.214844 138.136719 49.140625 C 138.332031 49.058594 138.488281 48.980469 138.605469 48.90625 C 138.730469 48.824219 138.828125 48.78125 138.902344 48.78125 C 139.015625 48.78125 139.109375 48.835938 139.183594 48.9375 C 139.265625 49.042969 139.308594 49.148438 139.308594 49.25 C 139.308594 49.429688 139.125 49.617188 138.761719 49.8125 C 138.394531 50 137.949219 50.09375 137.417969 50.09375 C 136.636719 50.09375 135.996094 49.882812 135.496094 49.453125 C 134.996094 49.027344 134.746094 48.464844 134.746094 47.765625 Z M 135.746094 46.765625 L 137.964844 46.765625 C 138.171875 46.765625 138.3125 46.742188 138.386719 46.6875 C 138.457031 46.636719 138.496094 46.539062 138.496094 46.390625 C 138.496094 46.027344 138.359375 45.710938 138.089844 45.4375 C 137.828125 45.167969 137.511719 45.03125 137.136719 45.03125 C 136.75 45.03125 136.421875 45.15625 136.152344 45.40625 C 135.878906 45.65625 135.746094 45.96875 135.746094 46.34375 Z M 140.542969 49.640625 L 140.542969 44.65625 C 140.542969 44.554688 140.589844 44.46875 140.683594 44.40625 C 140.777344 44.34375 140.894531 44.3125 141.042969 44.3125 C 141.15625 44.3125 141.261719 44.351562 141.355469 44.421875 C 141.449219 44.484375 141.496094 44.5625 141.496094 44.65625 L 141.496094 45.15625 C 141.621094 44.898438 141.824219 44.679688 142.105469 44.5 C 142.394531 44.324219 142.730469 44.234375 143.105469 44.234375 C 143.667969 44.234375 144.15625 44.464844 144.574219 44.921875 C 145 45.371094 145.214844 45.914062 145.214844 46.546875 L 145.214844 49.640625 C 145.214844 49.757812 145.160156 49.84375 145.058594 49.90625 C 144.964844 49.96875 144.847656 50 144.714844 50 C 144.589844 50 144.472656 49.96875 144.371094 49.90625 C 144.265625 49.84375 144.214844 49.757812 144.214844 49.640625 L 144.214844 46.546875 C 144.214844 46.183594 144.078125 45.859375 143.808594 45.578125 C 143.535156 45.289062 143.21875 45.140625 142.855469 45.140625 C 142.511719 45.140625 142.203125 45.273438 141.933594 45.53125 C 141.671875 45.792969 141.542969 46.132812 141.542969 46.546875 L 141.542969 49.640625 C 141.542969 49.726562 141.488281 49.808594 141.386719 49.890625 C 141.28125 49.964844 141.167969 50 141.042969 50 C 140.90625 50 140.785156 49.964844 140.683594 49.890625 C 140.589844 49.820312 140.542969 49.734375 140.542969 49.640625 Z M 146.238281 49.1875 C 146.238281 49.085938 146.269531 48.984375 146.332031 48.890625 C 146.402344 48.789062 146.488281 48.734375 146.582031 48.734375 C 146.644531 48.734375 146.730469 48.78125 146.847656 48.875 C 146.972656 48.96875 147.148438 49.0625 147.378906 49.15625 C 147.605469 49.25 147.871094 49.296875 148.175781 49.296875 C 148.570312 49.296875 148.855469 49.226562 149.035156 49.078125 C 149.222656 48.933594 149.316406 48.75 149.316406 48.53125 C 149.316406 48.273438 149.210938 48.0625 149.003906 47.90625 C 148.804688 47.75 148.558594 47.636719 148.269531 47.5625 C 147.988281 47.480469 147.699219 47.390625 147.410156 47.296875 C 147.128906 47.195312 146.882812 47.03125 146.675781 46.8125 C 146.476562 46.585938 146.378906 46.289062 146.378906 45.921875 C 146.378906 45.464844 146.539062 45.070312 146.863281 44.734375 C 147.183594 44.402344 147.679688 44.234375 148.347656 44.234375 C 148.773438 44.234375 149.160156 44.304688 149.503906 44.4375 C 149.855469 44.574219 150.035156 44.726562 150.035156 44.890625 C 150.035156 44.984375 149.996094 45.09375 149.925781 45.21875 C 149.851562 45.335938 149.757812 45.390625 149.644531 45.390625 C 149.613281 45.390625 149.457031 45.335938 149.175781 45.21875 C 148.902344 45.105469 148.632812 45.046875 148.363281 45.046875 C 147.996094 45.046875 147.722656 45.136719 147.535156 45.3125 C 147.355469 45.480469 147.269531 45.671875 147.269531 45.890625 C 147.269531 46.109375 147.367188 46.289062 147.566406 46.421875 C 147.761719 46.546875 148.007812 46.648438 148.300781 46.71875 C 148.601562 46.78125 148.894531 46.867188 149.175781 46.96875 C 149.464844 47.074219 149.710938 47.257812 149.910156 47.515625 C 150.105469 47.765625 150.207031 48.089844 150.207031 48.484375 C 150.207031 48.984375 150.027344 49.382812 149.675781 49.671875 C 149.332031 49.953125 148.839844 50.09375 148.207031 50.09375 C 147.664062 50.09375 147.199219 50 146.816406 49.8125 C 146.429688 49.617188 146.238281 49.40625 146.238281 49.1875 Z M 151.347656 42.578125 C 151.222656 42.464844 151.160156 42.335938 151.160156 42.1875 C 151.160156 42.03125 151.214844 41.898438 151.332031 41.78125 C 151.457031 41.667969 151.605469 41.609375 151.785156 41.609375 C 151.949219 41.609375 152.089844 41.667969 152.207031 41.78125 C 152.332031 41.898438 152.394531 42.03125 152.394531 42.1875 C 152.394531 42.335938 152.332031 42.464844 152.207031 42.578125 C 152.089844 42.695312 151.949219 42.75 151.785156 42.75 C 151.617188 42.75 151.472656 42.695312 151.347656 42.578125 Z M 151.285156 49.640625 L 151.285156 44.65625 C 151.285156 44.554688 151.332031 44.46875 151.425781 44.40625 C 151.527344 44.34375 151.648438 44.3125 151.785156 44.3125 C 151.929688 44.3125 152.050781 44.34375 152.144531 44.40625 C 152.238281 44.46875 152.285156 44.554688 152.285156 44.65625 L 152.285156 49.640625 C 152.285156 49.726562 152.230469 49.808594 152.128906 49.890625 C 152.035156 49.964844 151.917969 50 151.785156 50 C 151.648438 50 151.527344 49.964844 151.425781 49.890625 C 151.332031 49.820312 151.285156 49.734375 151.285156 49.640625 Z M 153.679688 48.1875 L 153.679688 42.015625 C 153.679688 41.914062 153.730469 41.828125 153.835938 41.765625 C 153.9375 41.695312 154.046875 41.65625 154.164062 41.65625 C 154.296875 41.65625 154.417969 41.695312 154.523438 41.765625 C 154.625 41.828125 154.679688 41.914062 154.679688 42.015625 L 154.679688 44.3125 L 156.179688 44.3125 C 156.273438 44.3125 156.34375 44.355469 156.398438 44.4375 C 156.449219 44.511719 156.476562 44.601562 156.476562 44.703125 C 156.476562 44.808594 156.449219 44.902344 156.398438 44.984375 C 156.34375 45.058594 156.273438 45.09375 156.179688 45.09375 L 154.679688 45.09375 L 154.679688 48.1875 C 154.679688 48.53125 154.75 48.777344 154.898438 48.921875 C 155.042969 49.058594 155.296875 49.125 155.664062 49.125 L 156.039062 49.125 C 156.171875 49.125 156.277344 49.167969 156.351562 49.25 C 156.433594 49.335938 156.476562 49.4375 156.476562 49.5625 C 156.476562 49.679688 156.433594 49.78125 156.351562 49.875 C 156.265625 49.960938 156.164062 50 156.039062 50 L 155.664062 50 C 154.339844 50 153.679688 49.398438 153.679688 48.1875 Z M 156.855469 44.71875 C 156.855469 44.59375 156.925781 44.484375 157.074219 44.390625 C 157.21875 44.289062 157.363281 44.234375 157.511719 44.234375 C 157.675781 44.234375 157.78125 44.304688 157.824219 44.4375 L 159.417969 48.625 L 160.839844 44.4375 C 160.902344 44.304688 161.003906 44.234375 161.152344 44.234375 C 161.285156 44.234375 161.425781 44.289062 161.574219 44.390625 C 161.730469 44.484375 161.808594 44.601562 161.808594 44.734375 C 161.808594 44.777344 161.792969 44.820312 161.761719 44.859375 L 159.949219 49.734375 L 159.714844 50.34375 C 159.671875 50.445312 159.589844 50.632812 159.464844 50.90625 C 159.347656 51.175781 159.25 51.375 159.167969 51.5 C 159.09375 51.625 158.984375 51.78125 158.839844 51.96875 C 158.691406 52.164062 158.550781 52.304688 158.417969 52.390625 C 158.28125 52.484375 158.121094 52.566406 157.933594 52.640625 C 157.746094 52.710938 157.546875 52.75 157.339844 52.75 C 157.027344 52.75 156.871094 52.597656 156.871094 52.296875 C 156.871094 52.015625 156.964844 51.875 157.152344 51.875 C 157.515625 51.875 157.863281 51.671875 158.199219 51.265625 C 158.542969 50.859375 158.777344 50.34375 158.902344 49.71875 L 156.902344 44.859375 C 156.871094 44.808594 156.855469 44.761719 156.855469 44.71875 Z M 164.464844 43.09375 C 164.464844 42.929688 164.535156 42.792969 164.683594 42.6875 L 165.777344 41.375 C 165.878906 41.273438 165.984375 41.21875 166.089844 41.21875 C 166.203125 41.21875 166.308594 41.25 166.402344 41.3125 C 166.496094 41.375 166.542969 41.464844 166.542969 41.578125 L 166.542969 49.640625 C 166.542969 49.757812 166.488281 49.84375 166.386719 49.90625 C 166.292969 49.96875 166.171875 50 166.027344 50 C 165.890625 50 165.769531 49.96875 165.667969 49.90625 C 165.574219 49.84375 165.527344 49.757812 165.527344 49.640625 L 165.527344 42.734375 L 165.089844 43.390625 C 165.003906 43.476562 164.921875 43.515625 164.839844 43.515625 C 164.734375 43.515625 164.644531 43.476562 164.574219 43.390625 C 164.5 43.308594 164.464844 43.210938 164.464844 43.09375 Z M 167.988281 47.453125 L 167.988281 43.84375 C 167.988281 42.9375 168.226562 42.277344 168.707031 41.859375 C 169.183594 41.445312 169.820312 41.234375 170.613281 41.234375 C 171.414062 41.234375 172.039062 41.445312 172.488281 41.859375 C 172.933594 42.265625 173.160156 42.75 173.160156 43.3125 C 173.160156 43.617188 173.003906 43.765625 172.691406 43.765625 C 172.347656 43.765625 172.175781 43.632812 172.175781 43.359375 C 172.175781 42.996094 172.023438 42.703125 171.722656 42.484375 C 171.417969 42.257812 171.042969 42.140625 170.597656 42.140625 C 169.535156 42.140625 169.003906 42.710938 169.003906 43.84375 L 169.003906 45.53125 C 169.386719 45.03125 169.972656 44.78125 170.753906 44.78125 C 172.355469 44.78125 173.160156 45.589844 173.160156 47.203125 L 173.160156 47.453125 C 173.160156 48.359375 172.925781 49.027344 172.457031 49.453125 C 171.988281 49.871094 171.363281 50.078125 170.582031 50.078125 C 169.800781 50.078125 169.167969 49.871094 168.691406 49.453125 C 168.222656 49.027344 167.988281 48.359375 167.988281 47.453125 Z M 169.003906 47.5 C 169.003906 48.636719 169.527344 49.203125 170.582031 49.203125 C 171.632812 49.203125 172.160156 48.636719 172.160156 47.5 L 172.160156 47.25 C 172.160156 46.167969 171.632812 45.625 170.582031 45.625 C 169.527344 45.625 169.003906 46.132812 169.003906 47.140625 Z M 176.46875 48.625 C 176.46875 48.492188 176.515625 48.367188 176.609375 48.25 C 176.703125 48.125 176.800781 48.0625 176.90625 48.0625 C 176.96875 48.0625 177.054688 48.117188 177.171875 48.21875 C 177.285156 48.3125 177.398438 48.417969 177.515625 48.53125 C 177.628906 48.648438 177.8125 48.757812 178.0625 48.859375 C 178.3125 48.953125 178.59375 49.011719 178.90625 49.03125 L 178.90625 45.84375 L 178.25 45.59375 C 178.101562 45.542969 177.910156 45.449219 177.671875 45.3125 C 177.429688 45.179688 177.253906 45.042969 177.140625 44.90625 C 177.023438 44.761719 176.921875 44.570312 176.828125 44.328125 C 176.734375 44.089844 176.6875 43.824219 176.6875 43.53125 C 176.6875 43.167969 176.75 42.851562 176.875 42.578125 C 177 42.296875 177.171875 42.078125 177.390625 41.921875 C 177.617188 41.765625 177.851562 41.648438 178.09375 41.5625 C 178.34375 41.480469 178.613281 41.421875 178.90625 41.390625 L 178.90625 41.03125 C 178.90625 40.96875 178.929688 40.914062 178.984375 40.859375 C 179.046875 40.808594 179.125 40.78125 179.21875 40.78125 C 179.289062 40.78125 179.359375 40.808594 179.421875 40.859375 C 179.492188 40.914062 179.53125 40.96875 179.53125 41.03125 L 179.53125 41.375 C 180.007812 41.398438 180.441406 41.480469 180.828125 41.625 C 181.222656 41.761719 181.421875 41.9375 181.421875 42.15625 C 181.421875 42.273438 181.378906 42.398438 181.296875 42.53125 C 181.222656 42.65625 181.117188 42.71875 180.984375 42.71875 C 180.953125 42.71875 180.785156 42.652344 180.484375 42.515625 C 180.191406 42.371094 179.875 42.289062 179.53125 42.265625 L 179.53125 45.015625 C 179.84375 45.121094 180.097656 45.230469 180.296875 45.34375 C 180.503906 45.449219 180.722656 45.59375 180.953125 45.78125 C 181.179688 45.96875 181.351562 46.210938 181.46875 46.5 C 181.582031 46.792969 181.640625 47.136719 181.640625 47.53125 C 181.640625 48.230469 181.445312 48.789062 181.0625 49.203125 C 180.6875 49.609375 180.175781 49.855469 179.53125 49.9375 L 179.53125 50.375 C 179.53125 50.4375 179.492188 50.492188 179.421875 50.546875 C 179.359375 50.597656 179.289062 50.625 179.21875 50.625 C 179.125 50.625 179.046875 50.597656 178.984375 50.546875 C 178.929688 50.492188 178.90625 50.4375 178.90625 50.375 L 178.90625 49.96875 C 178.21875 49.96875 177.640625 49.820312 177.171875 49.515625 C 176.703125 49.203125 176.46875 48.90625 176.46875 48.625 Z M 177.640625 43.4375 C 177.640625 43.8125 177.75 44.09375 177.96875 44.28125 C 178.1875 44.46875 178.515625 44.640625 178.953125 44.796875 L 178.953125 42.28125 C 178.078125 42.375 177.640625 42.761719 177.640625 43.4375 Z M 179.484375 49 C 180.273438 48.875 180.671875 48.417969 180.671875 47.625 C 180.671875 47.210938 180.566406 46.886719 180.359375 46.65625 C 180.160156 46.417969 179.867188 46.21875 179.484375 46.0625 Z M 184.9375 41.078125 C 184.9375 40.996094 184.976562 40.929688 185.0625 40.875 C 185.15625 40.8125 185.253906 40.78125 185.359375 40.78125 C 185.472656 40.78125 185.578125 40.8125 185.671875 40.875 C 185.765625 40.929688 185.8125 40.996094 185.8125 41.078125 L 185.6875 42.828125 C 185.6875 42.914062 185.660156 42.984375 185.609375 43.046875 C 185.554688 43.109375 185.476562 43.140625 185.375 43.140625 C 185.164062 43.140625 185.0625 43.039062 185.0625 42.828125 Z M 186.5625 41.078125 C 186.5625 40.996094 186.601562 40.929688 186.6875 40.875 C 186.78125 40.8125 186.882812 40.78125 187 40.78125 C 187.113281 40.78125 187.210938 40.8125 187.296875 40.875 C 187.390625 40.929688 187.4375 40.996094 187.4375 41.078125 L 187.328125 42.828125 C 187.328125 42.914062 187.296875 42.984375 187.234375 43.046875 C 187.179688 43.109375 187.101562 43.140625 187 43.140625 C 186.789062 43.140625 186.6875 43.039062 186.6875 42.828125 Z M 188.132812 51.125 C 188.132812 50.539062 188.453125 50.101562 189.101562 49.8125 C 188.695312 49.667969 188.492188 49.402344 188.492188 49.015625 C 188.492188 48.652344 188.6875 48.355469 189.085938 48.125 C 188.636719 47.761719 188.414062 47.257812 188.414062 46.609375 L 188.414062 46.21875 C 188.414062 45.636719 188.605469 45.164062 188.992188 44.796875 C 189.386719 44.421875 189.902344 44.234375 190.539062 44.234375 C 191.078125 44.234375 191.546875 44.390625 191.945312 44.703125 C 192.183594 44.183594 192.453125 43.921875 192.757812 43.921875 C 192.890625 43.921875 192.996094 43.964844 193.070312 44.046875 C 193.152344 44.121094 193.195312 44.203125 193.195312 44.296875 C 193.195312 44.421875 193.125 44.515625 192.992188 44.578125 C 192.71875 44.652344 192.5 44.820312 192.335938 45.078125 C 192.585938 45.382812 192.710938 45.761719 192.710938 46.21875 L 192.710938 46.609375 C 192.710938 47.195312 192.507812 47.671875 192.101562 48.046875 C 191.695312 48.421875 191.171875 48.609375 190.539062 48.609375 C 190.214844 48.609375 189.917969 48.546875 189.648438 48.421875 C 189.449219 48.546875 189.351562 48.6875 189.351562 48.84375 C 189.351562 48.992188 189.445312 49.105469 189.632812 49.1875 C 189.820312 49.273438 190.046875 49.324219 190.320312 49.34375 C 190.589844 49.367188 190.882812 49.40625 191.195312 49.46875 C 191.515625 49.523438 191.8125 49.59375 192.085938 49.6875 C 192.355469 49.773438 192.585938 49.921875 192.773438 50.140625 C 192.960938 50.367188 193.054688 50.65625 193.054688 51 C 193.054688 51.5625 192.824219 51.992188 192.367188 52.296875 C 191.917969 52.597656 191.335938 52.75 190.617188 52.75 C 189.898438 52.75 189.304688 52.601562 188.835938 52.3125 C 188.367188 52.019531 188.132812 51.625 188.132812 51.125 Z M 189.085938 51.015625 C 189.085938 51.328125 189.21875 51.578125 189.492188 51.765625 C 189.773438 51.953125 190.140625 52.046875 190.601562 52.046875 C 191.046875 52.046875 191.40625 51.953125 191.679688 51.765625 C 191.949219 51.578125 192.085938 51.328125 192.085938 51.015625 C 192.085938 50.890625 192.058594 50.78125 192.007812 50.6875 C 191.964844 50.59375 191.898438 50.507812 191.804688 50.4375 C 191.710938 50.375 191.609375 50.320312 191.507812 50.28125 C 191.414062 50.238281 191.289062 50.203125 191.132812 50.171875 C 190.984375 50.140625 190.859375 50.117188 190.757812 50.109375 C 190.664062 50.097656 190.53125 50.082031 190.367188 50.0625 C 190.199219 50.050781 190.085938 50.039062 190.023438 50.03125 C 189.398438 50.238281 189.085938 50.566406 189.085938 51.015625 Z M 189.382812 46.609375 C 189.382812 46.996094 189.484375 47.3125 189.695312 47.5625 C 189.902344 47.804688 190.195312 47.921875 190.570312 47.921875 C 190.921875 47.921875 191.203125 47.804688 191.414062 47.5625 C 191.632812 47.3125 191.742188 46.996094 191.742188 46.609375 L 191.742188 46.21875 C 191.742188 45.855469 191.632812 45.546875 191.414062 45.296875 C 191.203125 45.046875 190.917969 44.921875 190.554688 44.921875 C 190.1875 44.921875 189.902344 45.046875 189.695312 45.296875 C 189.484375 45.539062 189.382812 45.84375 189.382812 46.21875 Z M 194.050781 49.640625 L 194.050781 44.65625 C 194.050781 44.554688 194.097656 44.46875 194.191406 44.40625 C 194.285156 44.34375 194.402344 44.3125 194.550781 44.3125 C 194.675781 44.3125 194.777344 44.34375 194.863281 44.40625 C 194.957031 44.46875 195.003906 44.554688 195.003906 44.65625 L 195.003906 45.21875 C 195.148438 44.949219 195.363281 44.71875 195.644531 44.53125 C 195.925781 44.335938 196.238281 44.234375 196.582031 44.234375 L 196.988281 44.234375 C 197.089844 44.234375 197.179688 44.28125 197.253906 44.375 C 197.324219 44.46875 197.363281 44.578125 197.363281 44.703125 C 197.363281 44.820312 197.324219 44.921875 197.253906 45.015625 C 197.179688 45.101562 197.089844 45.140625 196.988281 45.140625 L 196.582031 45.140625 C 196.164062 45.140625 195.804688 45.308594 195.503906 45.640625 C 195.199219 45.964844 195.050781 46.386719 195.050781 46.90625 L 195.050781 49.640625 C 195.050781 49.726562 194.996094 49.808594 194.894531 49.890625 C 194.800781 49.964844 194.683594 50 194.550781 50 C 194.414062 50 194.292969 49.964844 194.191406 49.890625 C 194.097656 49.820312 194.050781 49.734375 194.050781 49.640625 Z M 197.960938 47.765625 L 197.960938 46.515625 C 197.960938 45.890625 198.195312 45.355469 198.664062 44.90625 C 199.132812 44.460938 199.695312 44.234375 200.351562 44.234375 C 200.976562 44.234375 201.515625 44.449219 201.976562 44.875 C 202.433594 45.292969 202.664062 45.820312 202.664062 46.453125 C 202.664062 46.683594 202.632812 46.871094 202.570312 47.015625 C 202.515625 47.152344 202.433594 47.25 202.320312 47.3125 C 202.203125 47.367188 202.09375 47.402344 201.992188 47.421875 C 201.898438 47.433594 201.761719 47.4375 201.585938 47.4375 L 198.960938 47.4375 L 198.960938 47.796875 C 198.960938 48.246094 199.117188 48.601562 199.429688 48.859375 C 199.75 49.121094 200.164062 49.25 200.664062 49.25 C 200.933594 49.25 201.164062 49.214844 201.351562 49.140625 C 201.546875 49.058594 201.703125 48.980469 201.820312 48.90625 C 201.945312 48.824219 202.042969 48.78125 202.117188 48.78125 C 202.230469 48.78125 202.324219 48.835938 202.398438 48.9375 C 202.480469 49.042969 202.523438 49.148438 202.523438 49.25 C 202.523438 49.429688 202.339844 49.617188 201.976562 49.8125 C 201.609375 50 201.164062 50.09375 200.632812 50.09375 C 199.851562 50.09375 199.210938 49.882812 198.710938 49.453125 C 198.210938 49.027344 197.960938 48.464844 197.960938 47.765625 Z M 198.960938 46.765625 L 201.179688 46.765625 C 201.386719 46.765625 201.527344 46.742188 201.601562 46.6875 C 201.671875 46.636719 201.710938 46.539062 201.710938 46.390625 C 201.710938 46.027344 201.574219 45.710938 201.304688 45.4375 C 201.042969 45.167969 200.726562 45.03125 200.351562 45.03125 C 199.964844 45.03125 199.636719 45.15625 199.367188 45.40625 C 199.09375 45.65625 198.960938 45.96875 198.960938 46.34375 Z M 203.199219 44.71875 C 203.199219 44.59375 203.269531 44.484375 203.417969 44.390625 C 203.5625 44.289062 203.707031 44.234375 203.855469 44.234375 C 204.019531 44.234375 204.125 44.304688 204.167969 44.4375 L 205.761719 48.625 L 207.183594 44.4375 C 207.246094 44.304688 207.347656 44.234375 207.496094 44.234375 C 207.628906 44.234375 207.769531 44.289062 207.917969 44.390625 C 208.074219 44.484375 208.152344 44.601562 208.152344 44.734375 C 208.152344 44.777344 208.136719 44.820312 208.105469 44.859375 L 206.292969 49.734375 L 206.058594 50.34375 C 206.015625 50.445312 205.933594 50.632812 205.808594 50.90625 C 205.691406 51.175781 205.59375 51.375 205.511719 51.5 C 205.4375 51.625 205.328125 51.78125 205.183594 51.96875 C 205.035156 52.164062 204.894531 52.304688 204.761719 52.390625 C 204.625 52.484375 204.464844 52.566406 204.277344 52.640625 C 204.089844 52.710938 203.890625 52.75 203.683594 52.75 C 203.371094 52.75 203.214844 52.597656 203.214844 52.296875 C 203.214844 52.015625 203.308594 51.875 203.496094 51.875 C 203.859375 51.875 204.207031 51.671875 204.542969 51.265625 C 204.886719 50.859375 205.121094 50.34375 205.246094 49.71875 L 203.246094 44.859375 C 203.214844 44.808594 203.199219 44.761719 203.199219 44.71875 Z M 211.421875 49.640625 L 211.421875 41.234375 C 211.421875 41.132812 211.46875 41.046875 211.5625 40.984375 C 211.65625 40.914062 211.769531 40.875 211.90625 40.875 C 212.050781 40.875 212.171875 40.914062 212.265625 40.984375 C 212.367188 41.046875 212.421875 41.132812 212.421875 41.234375 L 212.421875 45.15625 C 212.566406 44.898438 212.773438 44.679688 213.046875 44.5 C 213.316406 44.324219 213.628906 44.234375 213.984375 44.234375 C 214.566406 44.234375 215.070312 44.464844 215.5 44.921875 C 215.925781 45.371094 216.140625 45.914062 216.140625 46.546875 L 216.140625 47.765625 C 216.140625 48.382812 215.925781 48.921875 215.5 49.390625 C 215.070312 49.859375 214.582031 50.09375 214.03125 50.09375 C 213.664062 50.09375 213.332031 50.003906 213.03125 49.828125 C 212.726562 49.640625 212.507812 49.417969 212.375 49.15625 L 212.375 49.640625 C 212.375 49.734375 212.328125 49.820312 212.234375 49.890625 C 212.140625 49.964844 212.035156 50 211.921875 50 C 211.785156 50 211.664062 49.964844 211.5625 49.890625 C 211.46875 49.820312 211.421875 49.734375 211.421875 49.640625 Z M 212.421875 48.09375 C 212.421875 48.292969 212.5625 48.527344 212.84375 48.796875 C 213.125 49.070312 213.4375 49.203125 213.78125 49.203125 C 214.144531 49.203125 214.460938 49.058594 214.734375 48.765625 C 215.003906 48.464844 215.140625 48.132812 215.140625 47.765625 L 215.140625 46.546875 C 215.140625 46.183594 215.003906 45.859375 214.734375 45.578125 C 214.460938 45.289062 214.144531 45.140625 213.78125 45.140625 C 213.414062 45.140625 213.097656 45.273438 212.828125 45.53125 C 212.554688 45.792969 212.421875 46.132812 212.421875 46.546875 Z M 217.441406 49.640625 L 217.441406 41.234375 C 217.441406 41.132812 217.488281 41.046875 217.582031 40.984375 C 217.675781 40.914062 217.792969 40.875 217.941406 40.875 C 218.085938 40.875 218.207031 40.914062 218.300781 40.984375 C 218.394531 41.046875 218.441406 41.132812 218.441406 41.234375 L 218.441406 49.640625 C 218.441406 49.726562 218.386719 49.808594 218.285156 49.890625 C 218.191406 49.964844 218.074219 50 217.941406 50 C 217.804688 50 217.683594 49.964844 217.582031 49.890625 C 217.488281 49.820312 217.441406 49.734375 217.441406 49.640625 Z M 219.601562 48.5 C 219.601562 47.875 219.839844 47.445312 220.320312 47.203125 C 220.796875 46.953125 221.492188 46.828125 222.398438 46.828125 L 222.976562 46.828125 L 222.976562 46.578125 C 222.976562 46.183594 222.867188 45.839844 222.648438 45.546875 C 222.429688 45.246094 222.101562 45.09375 221.664062 45.09375 C 221.320312 45.09375 221.015625 45.152344 220.757812 45.265625 C 220.507812 45.382812 220.371094 45.4375 220.351562 45.4375 C 220.234375 45.4375 220.140625 45.386719 220.070312 45.28125 C 220.007812 45.167969 219.976562 45.054688 219.976562 44.9375 C 219.976562 44.75 220.15625 44.589844 220.523438 44.453125 C 220.886719 44.308594 221.273438 44.234375 221.679688 44.234375 C 222.460938 44.234375 223.039062 44.460938 223.414062 44.90625 C 223.789062 45.355469 223.976562 45.90625 223.976562 46.5625 L 223.976562 49.640625 C 223.976562 49.746094 223.929688 49.835938 223.835938 49.90625 C 223.742188 49.96875 223.621094 50 223.476562 50 C 223.351562 50 223.242188 49.96875 223.148438 49.90625 C 223.0625 49.835938 223.023438 49.746094 223.023438 49.640625 L 223.023438 49.15625 C 222.480469 49.78125 221.875 50.09375 221.210938 50.09375 C 220.730469 50.09375 220.339844 49.960938 220.039062 49.6875 C 219.746094 49.417969 219.601562 49.023438 219.601562 48.5 Z M 220.601562 48.390625 C 220.601562 48.695312 220.683594 48.921875 220.851562 49.078125 C 221.015625 49.226562 221.242188 49.296875 221.523438 49.296875 C 221.855469 49.296875 222.179688 49.164062 222.492188 48.890625 C 222.8125 48.621094 222.976562 48.34375 222.976562 48.0625 L 222.976562 47.4375 L 222.554688 47.4375 C 222.324219 47.4375 222.125 47.449219 221.960938 47.46875 C 221.792969 47.480469 221.617188 47.507812 221.429688 47.546875 C 221.25 47.578125 221.105469 47.632812 220.992188 47.703125 C 220.875 47.765625 220.78125 47.855469 220.710938 47.96875 C 220.636719 48.085938 220.601562 48.226562 220.601562 48.390625 Z M 225.132812 47.765625 L 225.132812 46.5625 C 225.132812 45.875 225.335938 45.320312 225.742188 44.890625 C 226.148438 44.453125 226.742188 44.234375 227.523438 44.234375 C 228.023438 44.234375 228.4375 44.324219 228.773438 44.5 C 229.117188 44.679688 229.289062 44.867188 229.289062 45.0625 C 229.289062 45.179688 229.246094 45.292969 229.164062 45.40625 C 229.078125 45.511719 228.980469 45.5625 228.867188 45.5625 C 228.835938 45.5625 228.695312 45.496094 228.445312 45.359375 C 228.203125 45.214844 227.921875 45.140625 227.601562 45.140625 C 227.121094 45.140625 226.757812 45.265625 226.507812 45.515625 C 226.257812 45.765625 226.132812 46.117188 226.132812 46.5625 L 226.132812 47.765625 C 226.132812 48.726562 226.621094 49.203125 227.601562 49.203125 C 227.945312 49.203125 228.234375 49.132812 228.476562 48.984375 C 228.726562 48.839844 228.871094 48.765625 228.914062 48.765625 C 229.039062 48.765625 229.140625 48.820312 229.226562 48.921875 C 229.320312 49.027344 229.367188 49.136719 229.367188 49.25 C 229.367188 49.449219 229.1875 49.640625 228.835938 49.828125 C 228.480469 50.003906 228.046875 50.09375 227.539062 50.09375 C 226.746094 50.09375 226.148438 49.882812 225.742188 49.453125 C 225.335938 49.027344 225.132812 48.464844 225.132812 47.765625 Z M 230.355469 49.640625 L 230.355469 41.234375 C 230.355469 41.132812 230.402344 41.046875 230.496094 40.984375 C 230.589844 40.914062 230.703125 40.875 230.839844 40.875 C 230.984375 40.875 231.105469 40.914062 231.199219 40.984375 C 231.300781 41.046875 231.355469 41.132812 231.355469 41.234375 L 231.355469 46.84375 L 234.089844 44.375 C 234.160156 44.3125 234.234375 44.28125 234.308594 44.28125 C 234.421875 44.28125 234.53125 44.335938 234.636719 44.4375 C 234.75 44.53125 234.808594 44.636719 234.808594 44.75 C 234.808594 44.855469 234.769531 44.9375 234.699219 45 L 233.027344 46.46875 L 235.027344 49.359375 C 235.066406 49.421875 235.089844 49.484375 235.089844 49.546875 C 235.089844 49.664062 235.027344 49.777344 234.902344 49.890625 C 234.785156 49.996094 234.660156 50.046875 234.527344 50.046875 C 234.421875 50.046875 234.332031 49.996094 234.261719 49.890625 L 232.355469 47.09375 L 231.355469 47.984375 L 231.355469 49.640625 C 231.355469 49.726562 231.300781 49.808594 231.199219 49.890625 C 231.105469 49.964844 230.988281 50 230.855469 50 C 230.71875 50 230.597656 49.964844 230.496094 49.890625 C 230.402344 49.820312 230.355469 49.734375 230.355469 49.640625 Z M 235.664062 41.078125 C 235.664062 40.996094 235.703125 40.929688 235.789062 40.875 C 235.882812 40.8125 235.980469 40.78125 236.085938 40.78125 C 236.199219 40.78125 236.304688 40.8125 236.398438 40.875 C 236.492188 40.929688 236.539062 40.996094 236.539062 41.078125 L 236.414062 42.828125 C 236.414062 42.914062 236.386719 42.984375 236.335938 43.046875 C 236.28125 43.109375 236.203125 43.140625 236.101562 43.140625 C 235.890625 43.140625 235.789062 43.039062 235.789062 42.828125 Z M 237.289062 41.078125 C 237.289062 40.996094 237.328125 40.929688 237.414062 40.875 C 237.507812 40.8125 237.609375 40.78125 237.726562 40.78125 C 237.839844 40.78125 237.9375 40.8125 238.023438 40.875 C 238.117188 40.929688 238.164062 40.996094 238.164062 41.078125 L 238.054688 42.828125 C 238.054688 42.914062 238.023438 42.984375 237.960938 43.046875 C 237.90625 43.109375 237.828125 43.140625 237.726562 43.140625 C 237.515625 43.140625 237.414062 43.039062 237.414062 42.828125 Z M 238.589844 50 "/>
</g>
</svg>
