<?xml version="1.0" encoding="UTF-8"?>
<svg xmlns="http://www.w3.org/2000/svg" xmlns:xlink="http://www.w3.org/1999/xlink" width="384pt" height="288pt" viewBox="0 0 384 288" version="1.1">
<g id="surface61">
<path style=" stroke:none;fill-rule:nonzero;fill:rgb(0%,0%,0%);fill-opacity:1;" d="M 0 0 L 288 0 L 288 288 L 0 288 Z M 0 0 "/>
<path style=" stroke:none;fill-rule:nonzero;fill:rgb(50.196078%,50.196078%,50.196078%);fill-opacity:1;" d="M 0 0 L 36 0 L 36 288 L 0 288 Z M 0 0 "/>
<path style=" stroke:none;fill-rule:nonzero;fill:rgb(0%,0%,0%);fill-opacity:1;" d="M 36 0 L 72 0 L 72 288 L 36 288 Z M 36 0 "/>
<path style=" stroke:none;fill-rule:nonzero;fill:rgb(50.196078%,50.196078%,50.196078%);fill-opacity:1;" d="M 72 0 L 108 0 L 108 288 L 72 288 Z M 72 0 "/>
<path style=" stroke:none;fill-rule:nonzero;fill:rgb(0%,0%,0%);fill-opacity:1;" d="M 108 0 L 144 0 L 144 288 L 108 288 Z M 108 0 "/>
<path style=" stroke:none;fill-rule:nonzero;fill:rgb(50.196078%,50.196078%,50.196078%);fill-opacity:1;" d="M 144 0 L 180 0 L 180 288 L 144 288 Z M 144 0 "/>
<path style=" stroke:none;fill-rule:nonzero;fill:rgb(0%,0%,0%);fill-opacity:1;" d="M 180 0 L 216 0 L 216 288 L 180 288 Z M 180 0 "/>
<path style=" stroke:none;fill-rule:nonzero;fill:rgb(50.196078%,50.196078%,50.196078%);fill-opacity:1;" d="M 216 0 L 252 0 L 252 288 L 216 288 Z M 216 0 "/>
<path style=" stroke:none;fill-rule:nonzero;fill:rgb(0%,0%,0%);fill-opacity:1;" d="M 252 0 L 288 0 L 288 288 L 252 288 Z M 252 0 "/>
<path style=" stroke:none;fill-rule:nonzero;fill:rgb(0%,0%,0%);fill-opacity:1;" d="M 365.59375 11.203125 L 379.625 11.203125 C 379.789062 11.203125 379.925781 11.273438 380.03125 11.421875 C 380.144531 11.578125 380.203125 11.773438 380.203125 12.015625 C 380.203125 12.253906 380.144531 12.453125 380.03125 12.609375 C 379.925781 12.773438 379.789062 12.859375 379.625 12.859375 L 373.078125 12.859375 C 373.503906 13.085938 373.863281 13.425781 374.15625 13.875 C 374.445312 14.320312 374.59375 14.847656 374.59375 15.453125 C 374.59375 16.398438 374.21875 17.222656 373.46875 17.921875 C 372.71875 18.628906 371.816406 18.984375 370.765625 18.984375 L 365.59375 18.984375 C 365.40625 18.984375 365.257812 18.898438 365.15625 18.734375 C 365.050781 18.566406 365 18.367188 365 18.140625 C 365 17.921875 365.050781 17.726562 365.15625 17.5625 C 365.257812 17.394531 365.40625 17.3125 365.59375 17.3125 L 370.765625 17.3125 C 371.359375 17.3125 371.894531 17.082031 372.375 16.625 C 372.851562 16.175781 373.09375 15.648438 373.09375 15.046875 C 373.09375 14.472656 372.875 13.960938 372.4375 13.515625 C 372.007812 13.078125 371.453125 12.859375 370.765625 12.859375 L 365.59375 12.859375 C 365.445312 12.859375 365.3125 12.773438 365.1875 12.609375 C 365.0625 12.441406 365 12.242188 365 12.015625 C 365 11.796875 365.054688 11.601562 365.171875 11.4375 C 365.296875 11.28125 365.4375 11.203125 365.59375 11.203125 Z M 368.71875 20.890625 L 370.8125 20.890625 C 371.84375 20.890625 372.726562 21.28125 373.46875 22.0625 C 374.21875 22.84375 374.59375 23.78125 374.59375 24.875 C 374.59375 25.914062 374.242188 26.816406 373.546875 27.578125 C 372.847656 28.335938 371.972656 28.71875 370.921875 28.71875 C 370.535156 28.71875 370.222656 28.671875 369.984375 28.578125 C 369.753906 28.484375 369.585938 28.335938 369.484375 28.140625 C 369.390625 27.953125 369.328125 27.773438 369.296875 27.609375 C 369.273438 27.441406 369.265625 27.21875 369.265625 26.9375 L 369.265625 22.5625 L 368.65625 22.5625 C 367.925781 22.5625 367.335938 22.820312 366.890625 23.34375 C 366.453125 23.875 366.234375 24.554688 366.234375 25.390625 C 366.234375 25.835938 366.300781 26.222656 366.4375 26.546875 C 366.570312 26.867188 366.703125 27.128906 366.828125 27.328125 C 366.953125 27.535156 367.015625 27.695312 367.015625 27.8125 C 367.015625 28 366.929688 28.160156 366.765625 28.296875 C 366.597656 28.429688 366.429688 28.5 366.265625 28.5 C 365.953125 28.5 365.632812 28.191406 365.3125 27.578125 C 365 26.972656 364.84375 26.226562 364.84375 25.34375 C 364.84375 24.03125 365.195312 22.957031 365.90625 22.125 C 366.625 21.300781 367.5625 20.890625 368.71875 20.890625 Z M 370.375 22.5625 L 370.375 26.265625 C 370.375 26.609375 370.414062 26.835938 370.5 26.953125 C 370.59375 27.078125 370.765625 27.140625 371.015625 27.140625 C 371.617188 27.140625 372.144531 26.914062 372.59375 26.46875 C 373.050781 26.03125 373.28125 25.492188 373.28125 24.859375 C 373.28125 24.234375 373.066406 23.691406 372.640625 23.234375 C 372.222656 22.785156 371.707031 22.5625 371.09375 22.5625 Z M 365.59375 30.738281 L 379.625 30.738281 C 379.789062 30.738281 379.925781 30.808594 380.03125 30.957031 C 380.144531 31.113281 380.203125 31.308594 380.203125 31.550781 C 380.203125 31.800781 380.144531 32.003906 380.03125 32.160156 C 379.925781 32.316406 379.789062 32.394531 379.625 32.394531 L 365.59375 32.394531 C 365.445312 32.394531 365.3125 32.308594 365.1875 32.144531 C 365.0625 31.976562 365 31.777344 365 31.550781 C 365 31.332031 365.054688 31.136719 365.171875 30.972656 C 365.296875 30.816406 365.4375 30.738281 365.59375 30.738281 Z M 365.59375 35.121094 L 379.625 35.121094 C 379.789062 35.121094 379.925781 35.191406 380.03125 35.339844 C 380.144531 35.496094 380.203125 35.691406 380.203125 35.933594 C 380.203125 36.183594 380.144531 36.386719 380.03125 36.542969 C 379.925781 36.699219 379.789062 36.777344 379.625 36.777344 L 365.59375 36.777344 C 365.445312 36.777344 365.3125 36.691406 365.1875 36.527344 C 365.0625 36.359375 365 36.160156 365 35.933594 C 365 35.714844 365.054688 35.519531 365.171875 35.355469 C 365.296875 35.199219 365.4375 35.121094 365.59375 35.121094 Z M 368.71875 38.953125 L 370.765625 38.953125 C 371.785156 38.953125 372.675781 39.34375 373.4375 40.125 C 374.207031 40.90625 374.59375 41.828125 374.59375 42.890625 C 374.59375 43.960938 374.210938 44.890625 373.453125 45.671875 C 372.691406 46.460938 371.796875 46.859375 370.765625 46.859375 L 368.71875 46.859375 C 367.707031 46.859375 366.804688 46.460938 366.015625 45.671875 C 365.234375 44.878906 364.84375 43.957031 364.84375 42.90625 C 364.84375 41.851562 365.234375 40.929688 366.015625 40.140625 C 366.796875 39.347656 367.695312 38.953125 368.71875 38.953125 Z M 368.71875 40.625 C 368.09375 40.625 367.539062 40.847656 367.0625 41.296875 C 366.582031 41.753906 366.34375 42.289062 366.34375 42.90625 C 366.34375 43.53125 366.582031 44.066406 367.0625 44.515625 C 367.550781 44.972656 368.101562 45.203125 368.71875 45.203125 L 370.765625 45.203125 C 371.359375 45.203125 371.894531 44.972656 372.375 44.515625 C 372.851562 44.066406 373.09375 43.523438 373.09375 42.890625 C 373.09375 42.265625 372.851562 41.726562 372.375 41.28125 C 371.894531 40.84375 371.359375 40.625 370.765625 40.625 Z M 368.015625 52.820312 L 378.3125 52.820312 C 378.476562 52.820312 378.617188 52.902344 378.734375 53.070312 C 378.847656 53.246094 378.90625 53.433594 378.90625 53.632812 C 378.90625 53.851562 378.847656 54.042969 378.734375 54.210938 C 378.617188 54.386719 378.476562 54.476562 378.3125 54.476562 L 374.484375 54.476562 L 374.484375 56.992188 C 374.484375 57.148438 374.414062 57.265625 374.28125 57.351562 C 374.144531 57.445312 373.988281 57.492188 373.8125 57.492188 C 373.644531 57.492188 373.5 57.445312 373.375 57.351562 C 373.25 57.265625 373.1875 57.148438 373.1875 56.992188 L 373.1875 54.476562 L 368.015625 54.476562 C 367.441406 54.476562 367.035156 54.601562 366.796875 54.851562 C 366.566406 55.101562 366.453125 55.527344 366.453125 56.132812 L 366.453125 56.757812 C 366.453125 56.984375 366.382812 57.164062 366.25 57.289062 C 366.113281 57.414062 365.941406 57.476562 365.734375 57.476562 C 365.535156 57.476562 365.363281 57.40625 365.21875 57.273438 C 365.070312 57.148438 365 56.976562 365 56.757812 L 365 56.132812 C 365 53.921875 366.003906 52.820312 368.015625 52.820312 Z M 365.59375 59.082031 L 379.625 59.082031 C 379.789062 59.082031 379.925781 59.152344 380.03125 59.300781 C 380.144531 59.457031 380.203125 59.652344 380.203125 59.894531 C 380.203125 60.132812 380.144531 60.332031 380.03125 60.488281 C 379.925781 60.652344 379.789062 60.738281 379.625 60.738281 L 373.078125 60.738281 C 373.503906 60.964844 373.863281 61.304688 374.15625 61.753906 C 374.445312 62.199219 374.59375 62.726562 374.59375 63.332031 C 374.59375 64.277344 374.21875 65.101562 373.46875 65.800781 C 372.71875 66.507812 371.816406 66.863281 370.765625 66.863281 L 365.59375 66.863281 C 365.40625 66.863281 365.257812 66.777344 365.15625 66.613281 C 365.050781 66.445312 365 66.246094 365 66.019531 C 365 65.800781 365.050781 65.605469 365.15625 65.441406 C 365.257812 65.273438 365.40625 65.191406 365.59375 65.191406 L 370.765625 65.191406 C 371.359375 65.191406 371.894531 64.960938 372.375 64.503906 C 372.851562 64.054688 373.09375 63.527344 373.09375 62.925781 C 373.09375 62.351562 372.875 61.839844 372.4375 61.394531 C 372.007812 60.957031 371.453125 60.738281 370.765625 60.738281 L 365.59375 60.738281 C 365.445312 60.738281 365.3125 60.652344 365.1875 60.488281 C 365.0625 60.320312 365 60.121094 365 59.894531 C 365 59.675781 365.054688 59.480469 365.171875 59.316406 C 365.296875 59.160156 365.4375 59.082031 365.59375 59.082031 Z M 368.71875 68.773438 L 370.8125 68.773438 C 371.84375 68.773438 372.726562 69.164062 373.46875 69.945312 C 374.21875 70.726562 374.59375 71.664062 374.59375 72.757812 C 374.59375 73.796875 374.242188 74.699219 373.546875 75.460938 C 372.847656 76.21875 371.972656 76.601562 370.921875 76.601562 C 370.535156 76.601562 370.222656 76.554688 369.984375 76.460938 C 369.753906 76.367188 369.585938 76.21875 369.484375 76.023438 C 369.390625 75.835938 369.328125 75.65625 369.296875 75.492188 C 369.273438 75.324219 369.265625 75.101562 369.265625 74.820312 L 369.265625 70.445312 L 368.65625 70.445312 C 367.925781 70.445312 367.335938 70.703125 366.890625 71.226562 C 366.453125 71.757812 366.234375 72.4375 366.234375 73.273438 C 366.234375 73.71875 366.300781 74.105469 366.4375 74.429688 C 366.570312 74.75 366.703125 75.011719 366.828125 75.210938 C 366.953125 75.417969 367.015625 75.578125 367.015625 75.695312 C 367.015625 75.882812 366.929688 76.042969 366.765625 76.179688 C 366.597656 76.3125 366.429688 76.382812 366.265625 76.382812 C 365.953125 76.382812 365.632812 76.074219 365.3125 75.460938 C 365 74.855469 364.84375 74.109375 364.84375 73.226562 C 364.84375 71.914062 365.195312 70.839844 365.90625 70.007812 C 366.625 69.183594 367.5625 68.773438 368.71875 68.773438 Z M 370.375 70.445312 L 370.375 74.148438 C 370.375 74.492188 370.414062 74.71875 370.5 74.835938 C 370.59375 74.960938 370.765625 75.023438 371.015625 75.023438 C 371.617188 75.023438 372.144531 74.796875 372.59375 74.351562 C 373.050781 73.914062 373.28125 73.375 373.28125 72.742188 C 373.28125 72.117188 373.066406 71.574219 372.640625 71.117188 C 372.222656 70.667969 371.707031 70.445312 371.09375 70.445312 Z M 365.59375 78.449219 L 373.90625 78.449219 C 374.070312 78.449219 374.207031 78.519531 374.3125 78.667969 C 374.425781 78.824219 374.484375 79.019531 374.484375 79.261719 C 374.484375 79.46875 374.425781 79.644531 374.3125 79.792969 C 374.207031 79.949219 374.070312 80.027344 373.90625 80.027344 L 372.953125 80.027344 C 373.410156 80.265625 373.796875 80.613281 374.109375 81.074219 C 374.429688 81.542969 374.59375 82.0625 374.59375 82.636719 L 374.59375 83.324219 C 374.59375 83.488281 374.515625 83.636719 374.359375 83.761719 C 374.210938 83.894531 374.039062 83.964844 373.84375 83.964844 C 373.644531 83.964844 373.46875 83.894531 373.3125 83.761719 C 373.164062 83.636719 373.09375 83.488281 373.09375 83.324219 L 373.09375 82.636719 C 373.09375 81.957031 372.816406 81.363281 372.265625 80.855469 C 371.722656 80.355469 371.019531 80.105469 370.15625 80.105469 L 365.59375 80.105469 C 365.445312 80.105469 365.3125 80.019531 365.1875 79.855469 C 365.0625 79.6875 365 79.488281 365 79.261719 C 365 79.03125 365.054688 78.839844 365.171875 78.683594 C 365.296875 78.527344 365.4375 78.449219 365.59375 78.449219 Z M 368.71875 84.953125 L 370.8125 84.953125 C 371.84375 84.953125 372.726562 85.34375 373.46875 86.125 C 374.21875 86.90625 374.59375 87.84375 374.59375 88.9375 C 374.59375 89.976562 374.242188 90.878906 373.546875 91.640625 C 372.847656 92.398438 371.972656 92.78125 370.921875 92.78125 C 370.535156 92.78125 370.222656 92.734375 369.984375 92.640625 C 369.753906 92.546875 369.585938 92.398438 369.484375 92.203125 C 369.390625 92.015625 369.328125 91.835938 369.296875 91.671875 C 369.273438 91.503906 369.265625 91.28125 369.265625 91 L 369.265625 86.625 L 368.65625 86.625 C 367.925781 86.625 367.335938 86.882812 366.890625 87.40625 C 366.453125 87.9375 366.234375 88.617188 366.234375 89.453125 C 366.234375 89.898438 366.300781 90.285156 366.4375 90.609375 C 366.570312 90.929688 366.703125 91.191406 366.828125 91.390625 C 366.953125 91.597656 367.015625 91.757812 367.015625 91.875 C 367.015625 92.0625 366.929688 92.222656 366.765625 92.359375 C 366.597656 92.492188 366.429688 92.5625 366.265625 92.5625 C 365.953125 92.5625 365.632812 92.253906 365.3125 91.640625 C 365 91.035156 364.84375 90.289062 364.84375 89.40625 C 364.84375 88.09375 365.195312 87.019531 365.90625 86.1875 C 366.625 85.363281 367.5625 84.953125 368.71875 84.953125 Z M 370.375 86.625 L 370.375 90.328125 C 370.375 90.671875 370.414062 90.898438 370.5 91.015625 C 370.59375 91.140625 370.765625 91.203125 371.015625 91.203125 C 371.617188 91.203125 372.144531 90.976562 372.59375 90.53125 C 373.050781 90.09375 373.28125 89.554688 373.28125 88.921875 C 373.28125 88.296875 373.066406 87.753906 372.640625 87.296875 C 372.222656 86.847656 371.707031 86.625 371.09375 86.625 Z M 365 93.441406 "/>
<path style=" stroke:none;fill-rule:nonzero;fill:rgb(0%,0%,0%);fill-opacity:1;" d="M 368.296875 15.484375 L 365 15.484375 L 365 14.59375 L 368.265625 14.59375 C 368.785156 14.59375 369.171875 14.488281 369.421875 14.28125 C 369.679688 14.082031 369.8125 13.78125 369.8125 13.375 C 369.8125 12.894531 369.65625 12.515625 369.34375 12.234375 C 369.039062 11.953125 368.625 11.8125 368.09375 11.8125 L 365 11.8125 L 365 10.90625 L 372.59375 10.90625 L 372.59375 11.8125 L 369.625 11.8125 C 369.945312 12.03125 370.1875 12.285156 370.34375 12.578125 C 370.507812 12.867188 370.59375 13.203125 370.59375 13.578125 C 370.59375 14.203125 370.398438 14.675781 370.015625 15 C 369.628906 15.320312 369.054688 15.484375 368.296875 15.484375 Z M 367.953125 21.960938 L 367.515625 21.960938 L 367.515625 17.820312 C 366.898438 17.859375 366.429688 18.046875 366.109375 18.382812 C 365.785156 18.714844 365.625 19.179688 365.625 19.773438 C 365.625 20.117188 365.664062 20.449219 365.75 20.773438 C 365.832031 21.105469 365.957031 21.429688 366.125 21.742188 L 365.28125 21.742188 C 365.144531 21.417969 365.039062 21.085938 364.96875 20.742188 C 364.898438 20.40625 364.859375 20.070312 364.859375 19.726562 C 364.859375 18.851562 365.109375 18.15625 365.609375 17.648438 C 366.117188 17.136719 366.8125 16.882812 367.6875 16.882812 C 368.582031 16.882812 369.289062 17.121094 369.8125 17.601562 C 370.332031 18.089844 370.59375 18.746094 370.59375 19.570312 C 370.59375 20.308594 370.359375 20.890625 369.890625 21.320312 C 369.421875 21.746094 368.773438 21.960938 367.953125 21.960938 Z M 368.21875 21.054688 C 368.707031 21.054688 369.097656 20.917969 369.390625 20.648438 C 369.691406 20.375 369.84375 20.023438 369.84375 19.585938 C 369.84375 19.074219 369.695312 18.667969 369.40625 18.367188 C 369.125 18.074219 368.726562 17.902344 368.21875 17.851562 Z M 372.59375 23.429688 L 372.59375 24.335938 L 365 24.335938 L 365 23.429688 Z M 372.59375 26.207031 L 372.59375 27.113281 L 365 27.113281 L 365 26.207031 Z M 369.84375 31.109375 C 369.84375 30.628906 369.65625 30.25 369.28125 29.96875 C 368.90625 29.6875 368.390625 29.546875 367.734375 29.546875 C 367.078125 29.546875 366.5625 29.679688 366.1875 29.953125 C 365.8125 30.234375 365.625 30.617188 365.625 31.109375 C 365.625 31.585938 365.8125 31.96875 366.1875 32.25 C 366.5625 32.53125 367.078125 32.671875 367.734375 32.671875 C 368.378906 32.671875 368.890625 32.53125 369.265625 32.25 C 369.648438 31.96875 369.84375 31.585938 369.84375 31.109375 Z M 370.59375 31.109375 C 370.59375 31.890625 370.335938 32.503906 369.828125 32.953125 C 369.328125 33.398438 368.628906 33.625 367.734375 33.625 C 366.835938 33.625 366.132812 33.398438 365.625 32.953125 C 365.113281 32.503906 364.859375 31.890625 364.859375 31.109375 C 364.859375 30.328125 365.113281 29.710938 365.625 29.265625 C 366.132812 28.816406 366.835938 28.59375 367.734375 28.59375 C 368.628906 28.59375 369.328125 28.816406 369.828125 29.265625 C 370.335938 29.710938 370.59375 30.328125 370.59375 31.109375 Z M 372.015625 39.171875 L 370.46875 39.171875 L 370.46875 41.03125 L 369.765625 41.03125 L 369.765625 39.171875 L 366.796875 39.171875 C 366.359375 39.171875 366.070312 39.234375 365.9375 39.359375 C 365.8125 39.484375 365.75 39.734375 365.75 40.109375 L 365.75 41.03125 L 365 41.03125 L 365 40.109375 C 365 39.410156 365.128906 38.925781 365.390625 38.65625 C 365.648438 38.394531 366.117188 38.265625 366.796875 38.265625 L 369.765625 38.265625 L 369.765625 37.609375 L 370.46875 37.609375 L 370.46875 38.265625 L 372.015625 38.265625 Z M 368.296875 46.75 L 365 46.75 L 365 45.859375 L 368.265625 45.859375 C 368.785156 45.859375 369.171875 45.753906 369.421875 45.546875 C 369.679688 45.347656 369.8125 45.046875 369.8125 44.640625 C 369.8125 44.160156 369.65625 43.78125 369.34375 43.5 C 369.039062 43.21875 368.625 43.078125 368.09375 43.078125 L 365 43.078125 L 365 42.171875 L 372.59375 42.171875 L 372.59375 43.078125 L 369.625 43.078125 C 369.945312 43.296875 370.1875 43.550781 370.34375 43.84375 C 370.507812 44.132812 370.59375 44.46875 370.59375 44.84375 C 370.59375 45.46875 370.398438 45.941406 370.015625 46.265625 C 369.628906 46.585938 369.054688 46.75 368.296875 46.75 Z M 367.953125 53.226562 L 367.515625 53.226562 L 367.515625 49.085938 C 366.898438 49.125 366.429688 49.3125 366.109375 49.648438 C 365.785156 49.980469 365.625 50.445312 365.625 51.039062 C 365.625 51.382812 365.664062 51.714844 365.75 52.039062 C 365.832031 52.371094 365.957031 52.695312 366.125 53.007812 L 365.28125 53.007812 C 365.144531 52.683594 365.039062 52.351562 364.96875 52.007812 C 364.898438 51.671875 364.859375 51.335938 364.859375 50.992188 C 364.859375 50.117188 365.109375 49.421875 365.609375 48.914062 C 366.117188 48.402344 366.8125 48.148438 367.6875 48.148438 C 368.582031 48.148438 369.289062 48.386719 369.8125 48.867188 C 370.332031 49.355469 370.59375 50.011719 370.59375 50.835938 C 370.59375 51.574219 370.359375 52.15625 369.890625 52.585938 C 369.421875 53.011719 368.773438 53.226562 367.953125 53.226562 Z M 368.21875 52.320312 C 368.707031 52.320312 369.097656 52.183594 369.390625 51.914062 C 369.691406 51.640625 369.84375 51.289062 369.84375 50.851562 C 369.84375 50.339844 369.695312 49.933594 369.40625 49.632812 C 369.125 49.339844 368.726562 49.167969 368.21875 49.117188 Z M 369.625 57.863281 C 369.6875 57.757812 369.726562 57.648438 369.75 57.535156 C 369.78125 57.417969 369.796875 57.289062 369.796875 57.144531 C 369.796875 56.632812 369.628906 56.242188 369.296875 55.972656 C 368.972656 55.699219 368.5 55.566406 367.875 55.566406 L 365 55.566406 L 365 54.660156 L 370.46875 54.660156 L 370.46875 55.566406 L 369.625 55.566406 C 369.957031 55.753906 370.203125 55.996094 370.359375 56.300781 C 370.515625 56.601562 370.59375 56.972656 370.59375 57.410156 C 370.59375 57.472656 370.585938 57.539062 370.578125 57.613281 C 370.578125 57.683594 370.566406 57.769531 370.546875 57.863281 Z M 367.953125 63.492188 L 367.515625 63.492188 L 367.515625 59.351562 C 366.898438 59.390625 366.429688 59.578125 366.109375 59.914062 C 365.785156 60.246094 365.625 60.710938 365.625 61.304688 C 365.625 61.648438 365.664062 61.980469 365.75 62.304688 C 365.832031 62.636719 365.957031 62.960938 366.125 63.273438 L 365.28125 63.273438 C 365.144531 62.949219 365.039062 62.617188 364.96875 62.273438 C 364.898438 61.9375 364.859375 61.601562 364.859375 61.257812 C 364.859375 60.382812 365.109375 59.6875 365.609375 59.179688 C 366.117188 58.667969 366.8125 58.414062 367.6875 58.414062 C 368.582031 58.414062 369.289062 58.652344 369.8125 59.132812 C 370.332031 59.621094 370.59375 60.277344 370.59375 61.101562 C 370.59375 61.839844 370.359375 62.421875 369.890625 62.851562 C 369.421875 63.277344 368.773438 63.492188 367.953125 63.492188 Z M 368.21875 62.585938 C 368.707031 62.585938 369.097656 62.449219 369.390625 62.179688 C 369.691406 61.90625 369.84375 61.554688 369.84375 61.117188 C 369.84375 60.605469 369.695312 60.199219 369.40625 59.898438 C 369.125 59.605469 368.726562 59.433594 368.21875 59.382812 Z M 365.828125 65.941406 L 365.828125 69.378906 L 365 69.378906 L 365 64.753906 L 365.828125 64.753906 C 366.210938 65.128906 366.734375 65.636719 367.390625 66.285156 C 368.046875 66.929688 368.46875 67.335938 368.65625 67.503906 C 369.007812 67.816406 369.304688 68.035156 369.546875 68.160156 C 369.796875 68.285156 370.039062 68.347656 370.28125 68.347656 C 370.664062 68.347656 370.976562 68.210938 371.21875 67.941406 C 371.46875 67.667969 371.59375 67.316406 371.59375 66.878906 C 371.59375 66.566406 371.535156 66.238281 371.421875 65.894531 C 371.316406 65.558594 371.15625 65.195312 370.9375 64.800781 L 371.9375 64.800781 C 372.09375 65.195312 372.210938 65.566406 372.296875 65.910156 C 372.378906 66.253906 372.421875 66.570312 372.421875 66.863281 C 372.421875 67.613281 372.234375 68.210938 371.859375 68.660156 C 371.484375 69.117188 370.976562 69.347656 370.34375 69.347656 C 370.039062 69.347656 369.753906 69.289062 369.484375 69.175781 C 369.222656 69.058594 368.910156 68.855469 368.546875 68.566406 C 368.453125 68.480469 368.175781 68.222656 367.71875 67.785156 C 367.269531 67.347656 366.640625 66.730469 365.828125 65.941406 Z M 365 70.382812 "/>
</g>
</svg>
