<?xml version="1.0" encoding="UTF-8"?>
<svg xmlns="http://www.w3.org/2000/svg" xmlns:xlink="http://www.w3.org/1999/xlink" width="136pt" height="566pt" viewBox="0 0 136 566" version="1.1">
<g id="surface1">
<path style=" stroke:none;fill-rule:nonzero;fill:rgb(0%,0%,0%);fill-opacity:1;" d="M 0 0 L 116 0 L 116 566 L 0 566 Z M 0 0 "/>
<path style=" stroke:none;fill-rule:nonzero;fill:rgb(100%,0%,0%);fill-opacity:1;" d="M 0 0 L 58 0 L 58 566 L 0 566 Z M 0 0 "/>
<path style=" stroke:none;fill-rule:nonzero;fill:rgb(0%,0%,100%);fill-opacity:1;" d="M 58 0 L 116 0 L 116 566 L 58 566 Z M 58 0 "/>
<path style=" stroke:none;fill-rule:nonzero;fill:rgb(0%,0%,0%);fill-opacity:1;" d="M 118.609375 5.71875 L 126.34375 5.71875 C 126.445312 5.71875 126.53125 5.765625 126.59375 5.859375 C 126.65625 5.953125 126.6875 6.066406 126.6875 6.203125 C 126.6875 6.335938 126.65625 6.445312 126.59375 6.53125 C 126.53125 6.625 126.445312 6.671875 126.34375 6.671875 L 125.84375 6.671875 C 126.101562 6.816406 126.320312 7.023438 126.5 7.296875 C 126.675781 7.578125 126.765625 7.90625 126.765625 8.28125 C 126.765625 8.875 126.535156 9.378906 126.078125 9.796875 C 125.628906 10.222656 125.085938 10.4375 124.453125 10.4375 L 123.234375 10.4375 C 122.617188 10.4375 122.078125 10.222656 121.609375 9.796875 C 121.140625 9.367188 120.90625 8.878906 120.90625 8.328125 C 120.90625 7.972656 120.996094 7.648438 121.171875 7.359375 C 121.347656 7.066406 121.570312 6.851562 121.84375 6.71875 L 118.609375 6.71875 C 118.527344 6.71875 118.449219 6.664062 118.375 6.5625 C 118.292969 6.46875 118.25 6.351562 118.25 6.21875 C 118.25 6.082031 118.289062 5.960938 118.359375 5.859375 C 118.433594 5.765625 118.515625 5.71875 118.609375 5.71875 Z M 122.90625 6.71875 C 122.707031 6.71875 122.472656 6.851562 122.203125 7.125 C 121.929688 7.40625 121.796875 7.722656 121.796875 8.078125 C 121.796875 8.429688 121.941406 8.742188 122.234375 9.015625 C 122.535156 9.296875 122.867188 9.4375 123.234375 9.4375 L 124.453125 9.4375 C 124.816406 9.4375 125.140625 9.296875 125.421875 9.015625 C 125.710938 8.742188 125.859375 8.421875 125.859375 8.046875 C 125.859375 7.691406 125.726562 7.378906 125.46875 7.109375 C 125.207031 6.847656 124.867188 6.71875 124.453125 6.71875 Z M 129.921875 13.75 C 130.003906 13.75 130.070312 13.789062 130.125 13.875 C 130.1875 13.96875 130.21875 14.066406 130.21875 14.171875 C 130.21875 14.285156 130.1875 14.390625 130.125 14.484375 C 130.070312 14.578125 130.003906 14.625 129.921875 14.625 L 128.171875 14.5 C 128.085938 14.5 128.015625 14.472656 127.953125 14.421875 C 127.890625 14.367188 127.859375 14.289062 127.859375 14.1875 C 127.859375 13.976562 127.960938 13.875 128.171875 13.875 Z M 129.921875 15.375 C 130.003906 15.375 130.070312 15.414062 130.125 15.5 C 130.1875 15.59375 130.21875 15.695312 130.21875 15.8125 C 130.21875 15.925781 130.1875 16.023438 130.125 16.109375 C 130.070312 16.203125 130.003906 16.25 129.921875 16.25 L 128.171875 16.140625 C 128.085938 16.140625 128.015625 16.109375 127.953125 16.046875 C 127.890625 15.992188 127.859375 15.914062 127.859375 15.8125 C 127.859375 15.601562 127.960938 15.5 128.171875 15.5 Z M 121.359375 17.378906 L 126.34375 17.378906 C 126.445312 17.378906 126.53125 17.425781 126.59375 17.519531 C 126.65625 17.613281 126.6875 17.730469 126.6875 17.878906 C 126.6875 18.003906 126.65625 18.105469 126.59375 18.191406 C 126.53125 18.285156 126.445312 18.332031 126.34375 18.332031 L 125.78125 18.332031 C 126.050781 18.476562 126.28125 18.691406 126.46875 18.972656 C 126.664062 19.253906 126.765625 19.566406 126.765625 19.910156 L 126.765625 20.316406 C 126.765625 20.417969 126.71875 20.507812 126.625 20.582031 C 126.53125 20.652344 126.421875 20.691406 126.296875 20.691406 C 126.179688 20.691406 126.078125 20.652344 125.984375 20.582031 C 125.898438 20.507812 125.859375 20.417969 125.859375 20.316406 L 125.859375 19.910156 C 125.859375 19.492188 125.691406 19.132812 125.359375 18.832031 C 125.035156 18.527344 124.613281 18.378906 124.09375 18.378906 L 121.359375 18.378906 C 121.273438 18.378906 121.191406 18.324219 121.109375 18.222656 C 121.035156 18.128906 121 18.011719 121 17.878906 C 121 17.742188 121.035156 17.621094 121.109375 17.519531 C 121.179688 17.425781 121.265625 17.378906 121.359375 17.378906 Z M 123.234375 21.289062 L 124.484375 21.289062 C 125.109375 21.289062 125.644531 21.523438 126.09375 21.992188 C 126.539062 22.460938 126.765625 23.023438 126.765625 23.679688 C 126.765625 24.304688 126.550781 24.84375 126.125 25.304688 C 125.707031 25.761719 125.179688 25.992188 124.546875 25.992188 C 124.316406 25.992188 124.128906 25.960938 123.984375 25.898438 C 123.847656 25.84375 123.75 25.761719 123.6875 25.648438 C 123.632812 25.53125 123.597656 25.421875 123.578125 25.320312 C 123.566406 25.226562 123.5625 25.089844 123.5625 24.914062 L 123.5625 22.289062 L 123.203125 22.289062 C 122.753906 22.289062 122.398438 22.445312 122.140625 22.757812 C 121.878906 23.078125 121.75 23.492188 121.75 23.992188 C 121.75 24.261719 121.785156 24.492188 121.859375 24.679688 C 121.941406 24.875 122.019531 25.03125 122.09375 25.148438 C 122.175781 25.273438 122.21875 25.371094 122.21875 25.445312 C 122.21875 25.558594 122.164062 25.652344 122.0625 25.726562 C 121.957031 25.808594 121.851562 25.851562 121.75 25.851562 C 121.570312 25.851562 121.382812 25.667969 121.1875 25.304688 C 121 24.9375 120.90625 24.492188 120.90625 23.960938 C 120.90625 23.179688 121.117188 22.539062 121.546875 22.039062 C 121.972656 21.539062 122.535156 21.289062 123.234375 21.289062 Z M 124.234375 22.289062 L 124.234375 24.507812 C 124.234375 24.714844 124.257812 24.855469 124.3125 24.929688 C 124.363281 25 124.460938 25.039062 124.609375 25.039062 C 124.972656 25.039062 125.289062 24.902344 125.5625 24.632812 C 125.832031 24.371094 125.96875 24.054688 125.96875 23.679688 C 125.96875 23.292969 125.84375 22.964844 125.59375 22.695312 C 125.34375 22.421875 125.03125 22.289062 124.65625 22.289062 Z M 123.234375 26.867188 L 124.453125 26.867188 C 125.085938 26.867188 125.628906 27.078125 126.078125 27.507812 C 126.535156 27.933594 126.765625 28.4375 126.765625 29.023438 C 126.765625 29.386719 126.675781 29.703125 126.5 29.976562 C 126.320312 30.246094 126.101562 30.453125 125.84375 30.601562 L 129.765625 30.601562 C 129.867188 30.601562 129.953125 30.648438 130.015625 30.742188 C 130.085938 30.835938 130.125 30.953125 130.125 31.101562 C 130.125 31.246094 130.085938 31.359375 130.015625 31.445312 C 129.953125 31.539062 129.867188 31.585938 129.765625 31.585938 L 121.359375 31.585938 C 121.265625 31.585938 121.179688 31.539062 121.109375 31.445312 C 121.035156 31.351562 121 31.234375 121 31.101562 C 121 30.976562 121.035156 30.867188 121.109375 30.773438 C 121.179688 30.6875 121.265625 30.648438 121.359375 30.648438 L 121.84375 30.648438 C 121.582031 30.511719 121.359375 30.289062 121.171875 29.976562 C 120.996094 29.671875 120.90625 29.34375 120.90625 28.992188 C 120.90625 28.429688 121.140625 27.933594 121.609375 27.507812 C 122.078125 27.078125 122.617188 26.867188 123.234375 26.867188 Z M 123.234375 27.867188 C 122.867188 27.867188 122.535156 28 122.234375 28.273438 C 121.941406 28.542969 121.796875 28.859375 121.796875 29.226562 C 121.796875 29.578125 121.929688 29.898438 122.203125 30.179688 C 122.472656 30.460938 122.707031 30.601562 122.90625 30.601562 L 124.453125 30.601562 C 124.867188 30.601562 125.207031 30.460938 125.46875 30.179688 C 125.726562 29.90625 125.859375 29.59375 125.859375 29.242188 C 125.859375 28.867188 125.710938 28.542969 125.421875 28.273438 C 125.140625 28 124.816406 27.867188 124.453125 27.867188 Z M 121.359375 35.429688 L 129.765625 35.429688 C 129.867188 35.429688 129.953125 35.476562 130.015625 35.570312 C 130.085938 35.664062 130.125 35.777344 130.125 35.914062 C 130.125 36.058594 130.085938 36.179688 130.015625 36.273438 C 129.953125 36.375 129.867188 36.429688 129.765625 36.429688 L 125.84375 36.429688 C 126.101562 36.574219 126.320312 36.78125 126.5 37.054688 C 126.675781 37.324219 126.765625 37.636719 126.765625 37.992188 C 126.765625 38.574219 126.535156 39.078125 126.078125 39.507812 C 125.628906 39.933594 125.085938 40.148438 124.453125 40.148438 L 123.234375 40.148438 C 122.617188 40.148438 122.078125 39.933594 121.609375 39.507812 C 121.140625 39.078125 120.90625 38.589844 120.90625 38.039062 C 120.90625 37.671875 120.996094 37.339844 121.171875 37.039062 C 121.359375 36.734375 121.582031 36.515625 121.84375 36.382812 L 121.359375 36.382812 C 121.265625 36.382812 121.179688 36.335938 121.109375 36.242188 C 121.035156 36.148438 121 36.042969 121 35.929688 C 121 35.792969 121.035156 35.671875 121.109375 35.570312 C 121.179688 35.476562 121.265625 35.429688 121.359375 35.429688 Z M 122.90625 36.429688 C 122.707031 36.429688 122.472656 36.570312 122.203125 36.851562 C 121.929688 37.132812 121.796875 37.445312 121.796875 37.789062 C 121.796875 38.152344 121.941406 38.46875 122.234375 38.742188 C 122.535156 39.011719 122.867188 39.148438 123.234375 39.148438 L 124.453125 39.148438 C 124.816406 39.148438 125.140625 39.011719 125.421875 38.742188 C 125.710938 38.46875 125.859375 38.152344 125.859375 37.789062 C 125.859375 37.421875 125.726562 37.105469 125.46875 36.835938 C 125.207031 36.5625 124.867188 36.429688 124.453125 36.429688 Z M 121.359375 41.453125 L 129.765625 41.453125 C 129.867188 41.453125 129.953125 41.5 130.015625 41.59375 C 130.085938 41.6875 130.125 41.804688 130.125 41.953125 C 130.125 42.097656 130.085938 42.21875 130.015625 42.3125 C 129.953125 42.40625 129.867188 42.453125 129.765625 42.453125 L 121.359375 42.453125 C 121.273438 42.453125 121.191406 42.398438 121.109375 42.296875 C 121.035156 42.203125 121 42.085938 121 41.953125 C 121 41.816406 121.035156 41.695312 121.109375 41.59375 C 121.179688 41.5 121.265625 41.453125 121.359375 41.453125 Z M 123.203125 43.925781 L 126.328125 43.925781 C 126.421875 43.925781 126.503906 43.972656 126.578125 44.066406 C 126.648438 44.167969 126.6875 44.289062 126.6875 44.425781 C 126.6875 44.558594 126.644531 44.675781 126.5625 44.769531 C 126.488281 44.871094 126.410156 44.925781 126.328125 44.925781 L 123.203125 44.925781 C 122.847656 44.925781 122.523438 45.058594 122.234375 45.332031 C 121.941406 45.601562 121.796875 45.925781 121.796875 46.300781 C 121.796875 46.675781 121.9375 46.996094 122.21875 47.269531 C 122.507812 47.539062 122.835938 47.675781 123.203125 47.675781 L 126.34375 47.675781 C 126.425781 47.675781 126.503906 47.722656 126.578125 47.816406 C 126.648438 47.917969 126.6875 48.039062 126.6875 48.175781 C 126.6875 48.320312 126.648438 48.441406 126.578125 48.535156 C 126.515625 48.628906 126.4375 48.675781 126.34375 48.675781 L 123.203125 48.675781 C 122.585938 48.675781 122.050781 48.441406 121.59375 47.972656 C 121.132812 47.503906 120.90625 46.945312 120.90625 46.300781 C 120.90625 45.652344 121.132812 45.097656 121.59375 44.628906 C 122.050781 44.160156 122.585938 43.925781 123.203125 43.925781 Z M 123.234375 49.8125 L 124.484375 49.8125 C 125.109375 49.8125 125.644531 50.046875 126.09375 50.515625 C 126.539062 50.984375 126.765625 51.546875 126.765625 52.203125 C 126.765625 52.828125 126.550781 53.367188 126.125 53.828125 C 125.707031 54.285156 125.179688 54.515625 124.546875 54.515625 C 124.316406 54.515625 124.128906 54.484375 123.984375 54.421875 C 123.847656 54.367188 123.75 54.285156 123.6875 54.171875 C 123.632812 54.054688 123.597656 53.945312 123.578125 53.84375 C 123.566406 53.75 123.5625 53.613281 123.5625 53.4375 L 123.5625 50.8125 L 123.203125 50.8125 C 122.753906 50.8125 122.398438 50.96875 122.140625 51.28125 C 121.878906 51.601562 121.75 52.015625 121.75 52.515625 C 121.75 52.785156 121.785156 53.015625 121.859375 53.203125 C 121.941406 53.398438 122.019531 53.554688 122.09375 53.671875 C 122.175781 53.796875 122.21875 53.894531 122.21875 53.96875 C 122.21875 54.082031 122.164062 54.175781 122.0625 54.25 C 121.957031 54.332031 121.851562 54.375 121.75 54.375 C 121.570312 54.375 121.382812 54.191406 121.1875 53.828125 C 121 53.460938 120.90625 53.015625 120.90625 52.484375 C 120.90625 51.703125 121.117188 51.0625 121.546875 50.5625 C 121.972656 50.0625 122.535156 49.8125 123.234375 49.8125 Z M 124.234375 50.8125 L 124.234375 53.03125 C 124.234375 53.238281 124.257812 53.378906 124.3125 53.453125 C 124.363281 53.523438 124.460938 53.5625 124.609375 53.5625 C 124.972656 53.5625 125.289062 53.425781 125.5625 53.15625 C 125.832031 52.894531 125.96875 52.578125 125.96875 52.203125 C 125.96875 51.816406 125.84375 51.488281 125.59375 51.21875 C 125.34375 50.945312 125.03125 50.8125 124.65625 50.8125 Z M 129.921875 55.332031 C 130.003906 55.332031 130.070312 55.371094 130.125 55.457031 C 130.1875 55.550781 130.21875 55.648438 130.21875 55.753906 C 130.21875 55.867188 130.1875 55.972656 130.125 56.066406 C 130.070312 56.160156 130.003906 56.207031 129.921875 56.207031 L 128.171875 56.082031 C 128.085938 56.082031 128.015625 56.054688 127.953125 56.003906 C 127.890625 55.949219 127.859375 55.871094 127.859375 55.769531 C 127.859375 55.558594 127.960938 55.457031 128.171875 55.457031 Z M 129.921875 56.957031 C 130.003906 56.957031 130.070312 56.996094 130.125 57.082031 C 130.1875 57.175781 130.21875 57.277344 130.21875 57.394531 C 130.21875 57.507812 130.1875 57.605469 130.125 57.691406 C 130.070312 57.785156 130.003906 57.832031 129.921875 57.832031 L 128.171875 57.722656 C 128.085938 57.722656 128.015625 57.691406 127.953125 57.628906 C 127.890625 57.574219 127.859375 57.496094 127.859375 57.394531 C 127.859375 57.183594 127.960938 57.082031 128.171875 57.082031 Z M 121 58.257812 "/>
</g>
</svg>
