<?xml version="1.0" encoding="UTF-8"?>
<svg xmlns="http://www.w3.org/2000/svg" xmlns:xlink="http://www.w3.org/1999/xlink" width="136pt" height="566pt" viewBox="0 0 136 566" version="1.1">
<g id="surface553">
<path style=" stroke:none;fill-rule:nonzero;fill:rgb(0%,0%,0%);fill-opacity:1;" d="M 0 0 L 116 0 L 116 566 L 0 566 Z M 0 0 "/>
<path style=" stroke:none;fill-rule:nonzero;fill:rgb(0%,0%,0%);fill-opacity:1;" d="M 0 0 L 116 0 L 116 8.085938 L 0 8.085938 Z M 0 0 "/>
<path style=" stroke:none;fill-rule:nonzero;fill:rgb(0%,0%,0%);fill-opacity:1;" d="M 122.8125 5.6875 L 128.984375 5.6875 C 129.085938 5.6875 129.171875 5.738281 129.234375 5.84375 C 129.304688 5.945312 129.34375 6.054688 129.34375 6.171875 C 129.34375 6.304688 129.304688 6.425781 129.234375 6.53125 C 129.171875 6.632812 129.085938 6.6875 128.984375 6.6875 L 126.6875 6.6875 L 126.6875 8.1875 C 126.6875 8.28125 126.644531 8.351562 126.5625 8.40625 C 126.488281 8.457031 126.398438 8.484375 126.296875 8.484375 C 126.191406 8.484375 126.097656 8.457031 126.015625 8.40625 C 125.941406 8.351562 125.90625 8.28125 125.90625 8.1875 L 125.90625 6.6875 L 122.8125 6.6875 C 122.46875 6.6875 122.222656 6.757812 122.078125 6.90625 C 121.941406 7.050781 121.875 7.304688 121.875 7.671875 L 121.875 8.046875 C 121.875 8.179688 121.832031 8.285156 121.75 8.359375 C 121.664062 8.441406 121.5625 8.484375 121.4375 8.484375 C 121.320312 8.484375 121.21875 8.441406 121.125 8.359375 C 121.039062 8.273438 121 8.171875 121 8.046875 L 121 7.671875 C 121 6.347656 121.601562 5.6875 122.8125 5.6875 Z M 123.234375 9.203125 L 124.484375 9.203125 C 125.109375 9.203125 125.644531 9.4375 126.09375 9.90625 C 126.539062 10.375 126.765625 10.9375 126.765625 11.59375 C 126.765625 12.21875 126.550781 12.757812 126.125 13.21875 C 125.707031 13.675781 125.179688 13.90625 124.546875 13.90625 C 124.316406 13.90625 124.128906 13.875 123.984375 13.8125 C 123.847656 13.757812 123.75 13.675781 123.6875 13.5625 C 123.632812 13.445312 123.597656 13.335938 123.578125 13.234375 C 123.566406 13.140625 123.5625 13.003906 123.5625 12.828125 L 123.5625 10.203125 L 123.203125 10.203125 C 122.753906 10.203125 122.398438 10.359375 122.140625 10.671875 C 121.878906 10.992188 121.75 11.40625 121.75 11.90625 C 121.75 12.175781 121.785156 12.40625 121.859375 12.59375 C 121.941406 12.789062 122.019531 12.945312 122.09375 13.0625 C 122.175781 13.1875 122.21875 13.285156 122.21875 13.359375 C 122.21875 13.472656 122.164062 13.566406 122.0625 13.640625 C 121.957031 13.722656 121.851562 13.765625 121.75 13.765625 C 121.570312 13.765625 121.382812 13.582031 121.1875 13.21875 C 121 12.851562 120.90625 12.40625 120.90625 11.875 C 120.90625 11.09375 121.117188 10.453125 121.546875 9.953125 C 121.972656 9.453125 122.535156 9.203125 123.234375 9.203125 Z M 124.234375 10.203125 L 124.234375 12.421875 C 124.234375 12.628906 124.257812 12.769531 124.3125 12.84375 C 124.363281 12.914062 124.460938 12.953125 124.609375 12.953125 C 124.972656 12.953125 125.289062 12.816406 125.5625 12.546875 C 125.832031 12.285156 125.96875 11.96875 125.96875 11.59375 C 125.96875 11.207031 125.84375 10.878906 125.59375 10.609375 C 125.34375 10.335938 125.03125 10.203125 124.65625 10.203125 Z M 121.8125 14.660156 C 121.914062 14.660156 122.015625 14.691406 122.109375 14.753906 C 122.210938 14.824219 122.265625 14.910156 122.265625 15.003906 C 122.265625 15.066406 122.21875 15.152344 122.125 15.269531 C 122.03125 15.394531 121.9375 15.570312 121.84375 15.800781 C 121.75 16.027344 121.703125 16.292969 121.703125 16.597656 C 121.703125 16.992188 121.773438 17.277344 121.921875 17.457031 C 122.066406 17.644531 122.25 17.738281 122.46875 17.738281 C 122.726562 17.738281 122.9375 17.632812 123.09375 17.425781 C 123.25 17.226562 123.363281 16.980469 123.4375 16.691406 C 123.519531 16.410156 123.609375 16.121094 123.703125 15.832031 C 123.804688 15.550781 123.96875 15.304688 124.1875 15.097656 C 124.414062 14.898438 124.710938 14.800781 125.078125 14.800781 C 125.535156 14.800781 125.929688 14.960938 126.265625 15.285156 C 126.597656 15.605469 126.765625 16.101562 126.765625 16.769531 C 126.765625 17.195312 126.695312 17.582031 126.5625 17.925781 C 126.425781 18.277344 126.273438 18.457031 126.109375 18.457031 C 126.015625 18.457031 125.90625 18.417969 125.78125 18.347656 C 125.664062 18.273438 125.609375 18.179688 125.609375 18.066406 C 125.609375 18.035156 125.664062 17.878906 125.78125 17.597656 C 125.894531 17.324219 125.953125 17.054688 125.953125 16.785156 C 125.953125 16.417969 125.863281 16.144531 125.6875 15.957031 C 125.519531 15.777344 125.328125 15.691406 125.109375 15.691406 C 124.890625 15.691406 124.710938 15.789062 124.578125 15.988281 C 124.453125 16.183594 124.351562 16.429688 124.28125 16.722656 C 124.21875 17.023438 124.132812 17.316406 124.03125 17.597656 C 123.925781 17.886719 123.742188 18.132812 123.484375 18.332031 C 123.234375 18.527344 122.910156 18.628906 122.515625 18.628906 C 122.015625 18.628906 121.617188 18.449219 121.328125 18.097656 C 121.046875 17.753906 120.90625 17.261719 120.90625 16.628906 C 120.90625 16.085938 121 15.621094 121.1875 15.238281 C 121.382812 14.851562 121.59375 14.660156 121.8125 14.660156 Z M 122.8125 19.691406 L 128.984375 19.691406 C 129.085938 19.691406 129.171875 19.742188 129.234375 19.847656 C 129.304688 19.949219 129.34375 20.058594 129.34375 20.175781 C 129.34375 20.308594 129.304688 20.429688 129.234375 20.535156 C 129.171875 20.636719 129.085938 20.691406 128.984375 20.691406 L 126.6875 20.691406 L 126.6875 22.191406 C 126.6875 22.285156 126.644531 22.355469 126.5625 22.410156 C 126.488281 22.460938 126.398438 22.488281 126.296875 22.488281 C 126.191406 22.488281 126.097656 22.460938 126.015625 22.410156 C 125.941406 22.355469 125.90625 22.285156 125.90625 22.191406 L 125.90625 20.691406 L 122.8125 20.691406 C 122.46875 20.691406 122.222656 20.761719 122.078125 20.910156 C 121.941406 21.054688 121.875 21.308594 121.875 21.675781 L 121.875 22.050781 C 121.875 22.183594 121.832031 22.289062 121.75 22.363281 C 121.664062 22.445312 121.5625 22.488281 121.4375 22.488281 C 121.320312 22.488281 121.21875 22.445312 121.125 22.363281 C 121.039062 22.277344 121 22.175781 121 22.050781 L 121 21.675781 C 121 20.351562 121.601562 19.691406 122.8125 19.691406 Z M 121 22.722656 "/>
</g>
</svg>
