<?xml version="1.0" encoding="UTF-8"?>
<svg xmlns="http://www.w3.org/2000/svg" xmlns:xlink="http://www.w3.org/1999/xlink" width="384pt" height="288pt" viewBox="0 0 384 288" version="1.1">
<g id="surface101">
<path style=" stroke:none;fill-rule:nonzero;fill:rgb(0%,0%,0%);fill-opacity:1;" d="M 0 0 L 284 0 L 284 288 L 0 288 Z M 0 0 "/>
<path style=" stroke:none;fill-rule:nonzero;fill:rgb(50.196078%,50.196078%,50.196078%);fill-opacity:1;" d="M 0 0 L 35.5 0 L 35.5 288 L 0 288 Z M 0 0 "/>
<path style=" stroke:none;fill-rule:nonzero;fill:rgb(0%,0%,0%);fill-opacity:1;" d="M 35.5 0 L 71 0 L 71 288 L 35.5 288 Z M 35.5 0 "/>
<path style=" stroke:none;fill-rule:nonzero;fill:rgb(50.196078%,50.196078%,50.196078%);fill-opacity:1;" d="M 71 0 L 106.5 0 L 106.5 288 L 71 288 Z M 71 0 "/>
<path style=" stroke:none;fill-rule:nonzero;fill:rgb(0%,0%,0%);fill-opacity:1;" d="M 106.5 0 L 142 0 L 142 288 L 106.5 288 Z M 106.5 0 "/>
<path style=" stroke:none;fill-rule:nonzero;fill:rgb(50.196078%,50.196078%,50.196078%);fill-opacity:1;" d="M 142 0 L 177.5 0 L 177.5 288 L 142 288 Z M 142 0 "/>
<path style=" stroke:none;fill-rule:nonzero;fill:rgb(0%,0%,0%);fill-opacity:1;" d="M 177.5 0 L 213 0 L 213 288 L 177.5 288 Z M 177.5 0 "/>
<path style=" stroke:none;fill-rule:nonzero;fill:rgb(50.196078%,50.196078%,50.196078%);fill-opacity:1;" d="M 213 0 L 248.5 0 L 248.5 288 L 213 288 Z M 213 0 "/>
<path style=" stroke:none;fill-rule:nonzero;fill:rgb(0%,0%,0%);fill-opacity:1;" d="M 248.5 0 L 284 0 L 284 288 L 248.5 288 Z M 248.5 0 "/>
<path style=" stroke:none;fill-rule:nonzero;fill:rgb(0%,0%,0%);fill-opacity:1;" d="M -35.984375 35.851562 L -30.5 32.320312 C -29.96875 31.988281 -29.40625 31.878906 -28.8125 31.992188 C -28.21875 32.109375 -27.773438 32.40625 -27.46875 32.882812 L -27.234375 33.242188 C -27.171875 33.347656 -27.15625 33.457031 -27.1875 33.570312 C -27.21875 33.6875 -27.289062 33.773438 -27.390625 33.835938 C -27.484375 33.898438 -27.589844 33.925781 -27.703125 33.914062 C -27.820312 33.894531 -27.90625 33.832031 -27.96875 33.726562 L -28.109375 33.507812 C -28.308594 33.195312 -28.578125 33.007812 -28.921875 32.945312 C -29.257812 32.875 -29.585938 32.9375 -29.90625 33.132812 L -30.96875 33.804688 L -30.078125 35.179688 C -30.027344 35.253906 -30.015625 35.335938 -30.046875 35.429688 C -30.078125 35.523438 -30.140625 35.59375 -30.234375 35.648438 C -30.320312 35.710938 -30.414062 35.734375 -30.515625 35.726562 C -30.609375 35.714844 -30.683594 35.671875 -30.734375 35.601562 L -31.625 34.226562 L -35.453125 36.695312 C -35.539062 36.746094 -35.636719 36.746094 -35.75 36.695312 C -35.855469 36.652344 -35.945312 36.570312 -36.015625 36.445312 C -36.089844 36.328125 -36.125 36.214844 -36.125 36.101562 C -36.125 35.996094 -36.078125 35.914062 -35.984375 35.851562 Z M -32.488281 37.8125 L -31.457031 37.15625 C -30.9375 36.824219 -30.359375 36.730469 -29.722656 36.875 C -29.089844 37.023438 -28.597656 37.367188 -28.253906 37.90625 C -27.902344 38.4375 -27.792969 39.023438 -27.925781 39.671875 C -28.050781 40.316406 -28.375 40.8125 -28.894531 41.15625 L -29.925781 41.8125 C -30.4375 42.144531 -31.019531 42.234375 -31.675781 42.078125 C -32.332031 41.921875 -32.832031 41.578125 -33.175781 41.046875 C -33.511719 40.523438 -33.609375 39.9375 -33.472656 39.28125 C -33.328125 38.632812 -33 38.148438 -32.488281 37.8125 Z M -31.957031 38.65625 C -32.269531 38.851562 -32.480469 39.144531 -32.582031 39.53125 C -32.675781 39.914062 -32.621094 40.265625 -32.410156 40.578125 C -32.214844 40.890625 -31.917969 41.082031 -31.519531 41.15625 C -31.125 41.226562 -30.777344 41.164062 -30.472656 40.96875 L -29.441406 40.3125 C -29.140625 40.113281 -28.941406 39.820312 -28.847656 39.4375 C -28.746094 39.050781 -28.796875 38.703125 -29.003906 38.390625 C -29.203125 38.078125 -29.5 37.886719 -29.894531 37.8125 C -30.28125 37.742188 -30.625 37.804688 -30.925781 38 Z M -30.800781 43.925781 L -23.722656 39.378906 C -23.640625 39.316406 -23.546875 39.308594 -23.441406 39.347656 C -23.328125 39.390625 -23.234375 39.472656 -23.160156 39.597656 C -23.078125 39.714844 -23.042969 39.832031 -23.050781 39.957031 C -23.050781 40.074219 -23.09375 40.160156 -23.175781 40.222656 L -30.253906 44.769531 C -30.316406 44.808594 -30.410156 44.808594 -30.535156 44.769531 C -30.660156 44.726562 -30.761719 44.648438 -30.832031 44.535156 C -30.90625 44.417969 -30.9375 44.300781 -30.925781 44.175781 C -30.917969 44.050781 -30.875 43.964844 -30.800781 43.925781 Z M -27.976562 44.839844 L -26.945312 44.183594 C -26.414062 43.839844 -25.847656 43.726562 -25.242188 43.839844 C -24.628906 43.957031 -24.164062 44.257812 -23.851562 44.746094 C -23.65625 45.058594 -23.554688 45.371094 -23.554688 45.683594 C -23.554688 46.003906 -23.625 46.300781 -23.757812 46.574219 L -20.460938 44.449219 C -20.378906 44.386719 -20.285156 44.378906 -20.179688 44.417969 C -20.066406 44.460938 -19.972656 44.542969 -19.898438 44.667969 C -19.816406 44.792969 -19.78125 44.914062 -19.789062 45.027344 C -19.800781 45.132812 -19.847656 45.214844 -19.929688 45.277344 L -27.007812 49.824219 C -27.082031 49.863281 -27.175781 49.863281 -27.289062 49.824219 C -27.40625 49.792969 -27.5 49.71875 -27.570312 49.605469 C -27.632812 49.5 -27.660156 49.390625 -27.648438 49.277344 C -27.628906 49.160156 -27.582031 49.082031 -27.507812 49.042969 L -27.101562 48.777344 C -27.40625 48.796875 -27.710938 48.722656 -28.023438 48.558594 C -28.335938 48.402344 -28.59375 48.175781 -28.789062 47.886719 C -29.09375 47.40625 -29.160156 46.859375 -28.992188 46.246094 C -28.828125 45.640625 -28.488281 45.175781 -27.976562 44.839844 Z M -27.445312 45.683594 C -27.75 45.878906 -27.953125 46.171875 -28.054688 46.558594 C -28.160156 46.941406 -28.113281 47.285156 -27.914062 47.589844 C -27.71875 47.890625 -27.429688 48.082031 -27.054688 48.167969 C -26.671875 48.261719 -26.394531 48.253906 -26.226562 48.152344 L -24.929688 47.324219 C -24.578125 47.09375 -24.367188 46.792969 -24.304688 46.417969 C -24.234375 46.050781 -24.289062 45.71875 -24.476562 45.417969 C -24.6875 45.105469 -24.988281 44.914062 -25.382812 44.839844 C -25.769531 44.769531 -26.113281 44.832031 -26.414062 45.027344 Z M -26.148438 51.15625 L -19.367188 46.796875 C -19.273438 46.734375 -19.179688 46.730469 -19.085938 46.78125 C -18.984375 46.824219 -18.898438 46.898438 -18.835938 47 L -16.523438 50.578125 C -16.460938 50.679688 -16.453125 50.78125 -16.492188 50.875 C -16.523438 50.96875 -16.597656 51.046875 -16.710938 51.109375 C -16.816406 51.179688 -16.925781 51.210938 -17.039062 51.203125 C -17.15625 51.203125 -17.238281 51.15625 -17.289062 51.0625 L -19.304688 47.9375 L -21.867188 49.59375 L -20.851562 51.171875 C -20.789062 51.265625 -20.78125 51.359375 -20.820312 51.453125 C -20.851562 51.546875 -20.921875 51.628906 -21.023438 51.703125 C -21.117188 51.753906 -21.21875 51.773438 -21.320312 51.765625 C -21.414062 51.765625 -21.492188 51.71875 -21.554688 51.625 L -22.570312 50.046875 L -25.148438 51.703125 L -23.132812 54.828125 C -23.082031 54.921875 -23.078125 55.015625 -23.117188 55.109375 C -23.160156 55.210938 -23.234375 55.300781 -23.335938 55.375 C -23.441406 55.4375 -23.546875 55.46875 -23.648438 55.46875 C -23.753906 55.46875 -23.835938 55.414062 -23.898438 55.3125 L -26.210938 51.734375 C -26.273438 51.628906 -26.304688 51.519531 -26.304688 51.40625 C -26.296875 51.300781 -26.242188 51.21875 -26.148438 51.15625 Z M -19.066406 53.082031 C -18.964844 53.019531 -18.839844 53.027344 -18.691406 53.097656 C -18.546875 53.160156 -18.433594 53.253906 -18.347656 53.378906 C -18.253906 53.527344 -18.253906 53.65625 -18.347656 53.769531 L -20.957031 57.238281 L -16.738281 56.332031 C -16.574219 56.289062 -16.449219 56.335938 -16.363281 56.472656 C -16.300781 56.574219 -16.265625 56.710938 -16.253906 56.878906 C -16.246094 57.054688 -16.292969 57.175781 -16.394531 57.238281 C -16.449219 57.277344 -16.503906 57.304688 -16.566406 57.316406 L -21.832031 58.347656 C -21.988281 58.378906 -22.128906 58.289062 -22.253906 58.082031 C -22.390625 57.871094 -22.410156 57.699219 -22.316406 57.566406 L -19.207031 53.222656 C -19.136719 53.152344 -19.089844 53.105469 -19.066406 53.082031 Z M -18.605469 59.433594 L -17.542969 58.761719 C -17.023438 58.417969 -16.449219 58.324219 -15.824219 58.480469 C -15.199219 58.636719 -14.710938 58.992188 -14.355469 59.542969 C -14.011719 60.066406 -13.898438 60.625 -14.011719 61.230469 C -14.117188 61.84375 -14.433594 62.324219 -14.964844 62.667969 C -15.164062 62.792969 -15.335938 62.871094 -15.480469 62.902344 C -15.628906 62.933594 -15.753906 62.917969 -15.855469 62.855469 C -15.960938 62.792969 -16.050781 62.71875 -16.121094 62.636719 C -16.195312 62.5625 -16.277344 62.449219 -16.371094 62.292969 L -17.792969 60.089844 L -18.089844 60.292969 C -18.476562 60.53125 -18.695312 60.855469 -18.746094 61.261719 C -18.789062 61.667969 -18.675781 62.082031 -18.402344 62.511719 C -18.257812 62.738281 -18.101562 62.910156 -17.933594 63.027344 C -17.757812 63.152344 -17.601562 63.238281 -17.464844 63.292969 C -17.332031 63.355469 -17.246094 63.417969 -17.214844 63.480469 C -17.152344 63.574219 -17.144531 63.683594 -17.183594 63.808594 C -17.226562 63.933594 -17.292969 64.019531 -17.386719 64.074219 C -17.535156 64.167969 -17.789062 64.109375 -18.152344 63.902344 C -18.507812 63.703125 -18.832031 63.378906 -19.121094 62.933594 C -19.539062 62.277344 -19.707031 61.621094 -19.621094 60.964844 C -19.527344 60.316406 -19.191406 59.808594 -18.605469 59.433594 Z M -17.230469 59.730469 L -16.027344 61.589844 C -15.914062 61.765625 -15.816406 61.871094 -15.730469 61.902344 C -15.648438 61.941406 -15.550781 61.921875 -15.433594 61.839844 C -15.121094 61.640625 -14.925781 61.355469 -14.839844 60.980469 C -14.746094 60.613281 -14.804688 60.277344 -15.011719 59.964844 C -15.222656 59.644531 -15.507812 59.433594 -15.871094 59.339844 C -16.226562 59.246094 -16.558594 59.304688 -16.871094 59.511719 Z M -17.0625 65.332031 L -12.859375 62.628906 C -12.777344 62.578125 -12.683594 62.574219 -12.578125 62.613281 C -12.476562 62.65625 -12.382812 62.738281 -12.296875 62.863281 C -12.234375 62.96875 -12.210938 63.078125 -12.21875 63.191406 C -12.21875 63.296875 -12.261719 63.375 -12.34375 63.425781 L -12.828125 63.738281 C -12.515625 63.71875 -12.203125 63.777344 -11.890625 63.910156 C -11.578125 64.035156 -11.328125 64.246094 -11.140625 64.535156 L -10.921875 64.878906 C -10.871094 64.960938 -10.867188 65.054688 -10.90625 65.160156 C -10.9375 65.273438 -11.007812 65.363281 -11.109375 65.425781 C -11.203125 65.496094 -11.308594 65.523438 -11.421875 65.503906 C -11.539062 65.492188 -11.621094 65.445312 -11.671875 65.363281 L -11.890625 65.019531 C -12.121094 64.675781 -12.453125 64.46875 -12.890625 64.394531 C -13.328125 64.3125 -13.765625 64.410156 -14.203125 64.691406 L -16.515625 66.175781 C -16.578125 66.214844 -16.671875 66.214844 -16.796875 66.175781 C -16.914062 66.132812 -17.007812 66.054688 -17.078125 65.941406 C -17.152344 65.824219 -17.1875 65.707031 -17.1875 65.582031 C -17.179688 65.457031 -17.136719 65.371094 -17.0625 65.332031 Z M -10.988281 65.664062 C -10.875 65.601562 -10.738281 65.609375 -10.582031 65.679688 C -10.425781 65.742188 -10.308594 65.835938 -10.222656 65.960938 C -10.140625 66.097656 -10.140625 66.222656 -10.222656 66.335938 L -12.894531 69.929688 L -8.582031 68.867188 C -8.449219 68.84375 -8.34375 68.898438 -8.269531 69.023438 C -8.199219 69.136719 -8.160156 69.28125 -8.160156 69.460938 C -8.152344 69.636719 -8.203125 69.761719 -8.316406 69.835938 C -8.359375 69.855469 -8.402344 69.867188 -8.441406 69.867188 L -13.535156 70.976562 L -14.175781 71.117188 C -14.28125 71.125 -14.484375 71.152344 -14.785156 71.195312 C -15.078125 71.246094 -15.296875 71.273438 -15.441406 71.273438 C -15.585938 71.273438 -15.777344 71.261719 -16.019531 71.242188 C -16.257812 71.230469 -16.449219 71.195312 -16.597656 71.132812 C -16.742188 71.070312 -16.898438 70.976562 -17.066406 70.851562 C -17.230469 70.726562 -17.367188 70.578125 -17.472656 70.414062 C -17.648438 70.140625 -17.613281 69.921875 -17.363281 69.757812 C -17.121094 69.609375 -16.949219 69.621094 -16.847656 69.789062 C -16.648438 70.089844 -16.285156 70.273438 -15.753906 70.335938 C -15.234375 70.40625 -14.675781 70.324219 -14.082031 70.085938 L -11.082031 65.773438 C -11.050781 65.734375 -11.019531 65.695312 -10.988281 65.664062 Z M -10.871094 75.441406 L -3.480469 70.691406 C -3.398438 70.640625 -3.304688 70.636719 -3.199219 70.675781 C -3.097656 70.71875 -3.011719 70.785156 -2.949219 70.878906 L -1.886719 72.535156 C -1.835938 72.628906 -1.832031 72.730469 -1.871094 72.832031 C -1.902344 72.925781 -1.972656 73.011719 -2.074219 73.082031 C -2.179688 73.144531 -2.289062 73.175781 -2.402344 73.175781 C -2.507812 73.175781 -2.585938 73.128906 -2.636719 73.035156 L -3.402344 71.847656 L -9.871094 75.988281 L -9.105469 77.175781 C -9.054688 77.269531 -9.042969 77.363281 -9.074219 77.457031 C -9.105469 77.550781 -9.179688 77.636719 -9.292969 77.722656 C -9.386719 77.773438 -9.492188 77.800781 -9.605469 77.800781 C -9.710938 77.800781 -9.789062 77.753906 -9.839844 77.660156 L -10.902344 76.003906 C -10.964844 75.910156 -10.996094 75.804688 -10.996094 75.691406 C -10.996094 75.574219 -10.957031 75.492188 -10.871094 75.441406 Z M -7.507812 77.203125 C -7.351562 77.101562 -7.234375 77.0625 -7.148438 77.09375 C -7.054688 77.117188 -6.960938 77.199219 -6.867188 77.34375 C -6.765625 77.5 -6.71875 77.632812 -6.726562 77.734375 C -6.738281 77.828125 -6.800781 77.914062 -6.914062 77.984375 C -7.175781 78.148438 -7.34375 78.410156 -7.414062 78.765625 C -7.476562 79.117188 -7.367188 79.519531 -7.085938 79.96875 C -6.503906 80.863281 -5.742188 81.015625 -4.804688 80.421875 L -4.632812 80.296875 C -3.800781 79.765625 -3.675781 79.050781 -4.257812 78.15625 C -4.382812 77.949219 -4.332031 77.773438 -4.101562 77.625 C -3.863281 77.46875 -3.679688 77.496094 -3.554688 77.703125 C -3.304688 78.085938 -3.03125 78.320312 -2.726562 78.40625 C -2.414062 78.488281 -2.035156 78.382812 -1.585938 78.09375 C -0.796875 77.59375 -0.644531 76.964844 -1.132812 76.203125 C -1.414062 75.765625 -1.710938 75.523438 -2.023438 75.46875 C -2.328125 75.417969 -2.609375 75.480469 -2.867188 75.65625 C -3.117188 75.8125 -3.328125 75.757812 -3.492188 75.484375 C -3.617188 75.296875 -3.671875 75.15625 -3.648438 75.0625 C -3.628906 74.96875 -3.535156 74.871094 -3.367188 74.765625 C -3.191406 74.652344 -2.992188 74.574219 -2.773438 74.53125 C -2.546875 74.480469 -2.300781 74.464844 -2.039062 74.484375 C -1.769531 74.507812 -1.488281 74.625 -1.195312 74.84375 C -0.894531 75.054688 -0.617188 75.351562 -0.367188 75.734375 C 0.453125 77.027344 0.273438 78.050781 -0.914062 78.8125 C -1.34375 79.082031 -1.75 79.238281 -2.132812 79.28125 C -2.519531 79.320312 -2.851562 79.257812 -3.132812 79.09375 C -2.96875 79.945312 -3.285156 80.628906 -4.085938 81.140625 L -4.257812 81.265625 C -5.007812 81.734375 -5.691406 81.878906 -6.304688 81.703125 C -6.910156 81.535156 -7.425781 81.125 -7.851562 80.46875 C -8.300781 79.769531 -8.46875 79.117188 -8.351562 78.515625 C -8.226562 77.921875 -7.945312 77.484375 -7.507812 77.203125 Z M -5.425781 83.097656 C -5.269531 83.003906 -5.109375 82.972656 -4.941406 83.003906 C -4.777344 83.023438 -4.644531 83.105469 -4.550781 83.253906 C -4.457031 83.398438 -4.425781 83.554688 -4.457031 83.722656 C -4.488281 83.886719 -4.589844 84.023438 -4.753906 84.128906 C -4.859375 84.199219 -5.359375 84.316406 -6.253906 84.472656 C -6.367188 84.492188 -6.457031 84.449219 -6.519531 84.347656 C -6.570312 84.261719 -6.589844 84.175781 -6.582031 84.082031 C -6.582031 83.996094 -6.542969 83.933594 -6.472656 83.894531 C -6.429688 83.863281 -6.386719 83.839844 -6.347656 83.832031 L -5.707031 83.722656 C -5.75 83.460938 -5.65625 83.253906 -5.425781 83.097656 Z M -3.128906 83.96875 C -2.859375 83.792969 -2.636719 83.851562 -2.457031 84.140625 C -2.269531 84.421875 -2.292969 84.636719 -2.519531 84.78125 C -2.84375 84.988281 -3.019531 85.273438 -3.050781 85.640625 C -3.074219 86.015625 -2.964844 86.390625 -2.722656 86.765625 C -2.441406 87.191406 -2.109375 87.445312 -1.722656 87.53125 C -1.328125 87.613281 -0.902344 87.503906 -0.441406 87.203125 L -0.238281 87.078125 C 0.21875 86.785156 0.484375 86.445312 0.558594 86.0625 C 0.640625 85.675781 0.546875 85.273438 0.277344 84.859375 L -0.644531 83.421875 C -0.8125 83.164062 -0.785156 82.964844 -0.566406 82.828125 C -0.496094 82.777344 -0.410156 82.730469 -0.316406 82.6875 L 2.652344 81.09375 C 2.847656 80.980469 2.996094 80.992188 3.089844 81.125 L 4.949219 84.03125 C 5.011719 84.125 5.019531 84.21875 4.980469 84.3125 C 4.9375 84.40625 4.863281 84.492188 4.761719 84.5625 C 4.65625 84.625 4.546875 84.65625 4.433594 84.65625 C 4.328125 84.65625 4.246094 84.609375 4.183594 84.515625 L 2.652344 82.125 L 0.339844 83.390625 L 0.996094 84.40625 C 1.410156 85.0625 1.578125 85.695312 1.496094 86.3125 C 1.410156 86.925781 1.011719 87.460938 0.292969 87.921875 L 0.0898438 88.046875 C -0.652344 88.523438 -1.328125 88.679688 -1.941406 88.515625 C -2.546875 88.347656 -3.058594 87.9375 -3.472656 87.28125 C -3.910156 86.601562 -4.089844 85.957031 -4.003906 85.34375 C -3.910156 84.742188 -3.621094 84.28125 -3.128906 83.96875 Z M -1.546875 89.789062 C -1.433594 89.703125 -1.328125 89.671875 -1.234375 89.679688 C -1.132812 89.691406 -1.054688 89.734375 -1 89.820312 L -0.21875 91.023438 L 6.25 86.882812 L 5.46875 85.679688 C 5.414062 85.597656 5.410156 85.503906 5.453125 85.398438 C 5.492188 85.296875 5.566406 85.210938 5.671875 85.148438 C 5.773438 85.078125 5.878906 85.046875 5.984375 85.054688 C 6.085938 85.054688 6.164062 85.097656 6.21875 85.179688 L 7.296875 86.835938 C 7.359375 86.941406 7.382812 87.050781 7.375 87.164062 C 7.375 87.28125 7.332031 87.363281 7.25 87.414062 L -0.140625 92.164062 C -0.226562 92.214844 -0.320312 92.21875 -0.421875 92.179688 C -0.515625 92.136719 -0.59375 92.0625 -0.65625 91.960938 L -1.734375 90.304688 C -1.789062 90.21875 -1.792969 90.125 -1.75 90.023438 C -1.710938 89.917969 -1.640625 89.839844 -1.546875 89.789062 Z M 3.441406 94.464844 L 7.722656 91.714844 C 8.253906 91.371094 8.824219 91.277344 9.441406 91.433594 C 10.066406 91.582031 10.542969 91.914062 10.878906 92.433594 C 11.054688 92.707031 11.019531 92.925781 10.769531 93.089844 C 10.652344 93.164062 10.542969 93.199219 10.441406 93.199219 C 10.347656 93.191406 10.269531 93.144531 10.207031 93.058594 C 9.964844 92.695312 9.652344 92.472656 9.269531 92.386719 C 8.894531 92.304688 8.554688 92.363281 8.253906 92.558594 L 3.972656 95.308594 C 3.605469 95.535156 3.425781 95.824219 3.425781 96.167969 C 3.433594 96.511719 3.542969 96.847656 3.753906 97.183594 C 3.878906 97.371094 3.816406 97.546875 3.566406 97.714844 C 3.316406 97.871094 3.097656 97.808594 2.910156 97.527344 C 2.566406 96.984375 2.425781 96.425781 2.488281 95.855469 C 2.558594 95.28125 2.878906 94.820312 3.441406 94.464844 Z M 4.390625 97.875 C 4.472656 97.824219 4.570312 97.796875 4.6875 97.796875 C 4.8125 97.796875 4.898438 97.839844 4.953125 97.921875 C 4.992188 97.976562 5.003906 98.070312 4.984375 98.21875 C 4.972656 98.375 4.988281 98.570312 5.03125 98.8125 C 5.082031 99.0625 5.1875 99.316406 5.34375 99.578125 C 5.5625 99.910156 5.78125 100.113281 6 100.1875 C 6.21875 100.257812 6.421875 100.234375 6.609375 100.109375 C 6.828125 99.972656 6.945312 99.773438 6.96875 99.515625 C 6.988281 99.253906 6.953125 98.984375 6.859375 98.703125 C 6.773438 98.421875 6.695312 98.132812 6.625 97.84375 C 6.550781 97.554688 6.550781 97.261719 6.625 96.96875 C 6.707031 96.679688 6.90625 96.433594 7.21875 96.234375 C 7.601562 95.984375 8.019531 95.90625 8.46875 96 C 8.925781 96.09375 9.332031 96.421875 9.6875 96.984375 C 9.925781 97.339844 10.082031 97.699219 10.15625 98.0625 C 10.238281 98.4375 10.207031 98.664062 10.0625 98.75 C 9.988281 98.800781 9.878906 98.828125 9.734375 98.828125 C 9.585938 98.835938 9.484375 98.796875 9.421875 98.703125 C 9.410156 98.671875 9.378906 98.507812 9.328125 98.21875 C 9.273438 97.929688 9.175781 97.667969 9.03125 97.4375 C 8.832031 97.125 8.609375 96.945312 8.359375 96.890625 C 8.117188 96.828125 7.90625 96.855469 7.71875 96.96875 C 7.539062 97.085938 7.453125 97.261719 7.453125 97.5 C 7.453125 97.742188 7.5 98 7.59375 98.28125 C 7.695312 98.570312 7.78125 98.863281 7.84375 99.15625 C 7.914062 99.457031 7.898438 99.757812 7.796875 100.0625 C 7.691406 100.363281 7.472656 100.625 7.140625 100.84375 C 6.710938 101.113281 6.28125 101.175781 5.84375 101.03125 C 5.414062 100.894531 5.035156 100.554688 4.703125 100.015625 C 4.398438 99.566406 4.222656 99.125 4.171875 98.6875 C 4.128906 98.257812 4.203125 97.992188 4.390625 97.875 Z M 6.789062 102.472656 L 13.867188 97.925781 C 13.949219 97.863281 14.042969 97.855469 14.148438 97.894531 C 14.261719 97.9375 14.355469 98.019531 14.429688 98.144531 C 14.511719 98.261719 14.546875 98.378906 14.539062 98.503906 C 14.539062 98.621094 14.496094 98.707031 14.414062 98.769531 L 7.335938 103.316406 C 7.273438 103.355469 7.179688 103.355469 7.054688 103.316406 C 6.929688 103.273438 6.828125 103.195312 6.757812 103.082031 C 6.683594 102.964844 6.652344 102.847656 6.664062 102.722656 C 6.671875 102.597656 6.714844 102.511719 6.789062 102.472656 Z M 9.617188 103.386719 L 10.648438 102.730469 C 11.167969 102.398438 11.746094 102.304688 12.382812 102.449219 C 13.015625 102.597656 13.507812 102.941406 13.851562 103.480469 C 14.203125 104.011719 14.3125 104.597656 14.179688 105.246094 C 14.054688 105.890625 13.730469 106.386719 13.210938 106.730469 L 12.179688 107.386719 C 11.667969 107.71875 11.085938 107.808594 10.429688 107.652344 C 9.773438 107.496094 9.273438 107.152344 8.929688 106.621094 C 8.59375 106.097656 8.496094 105.511719 8.632812 104.855469 C 8.777344 104.207031 9.105469 103.722656 9.617188 103.386719 Z M 10.148438 104.230469 C 9.835938 104.425781 9.625 104.71875 9.523438 105.105469 C 9.429688 105.488281 9.484375 105.839844 9.695312 106.152344 C 9.890625 106.464844 10.1875 106.65625 10.585938 106.730469 C 10.980469 106.800781 11.328125 106.738281 11.632812 106.542969 L 12.664062 105.886719 C 12.964844 105.6875 13.164062 105.394531 13.257812 105.011719 C 13.359375 104.625 13.308594 104.277344 13.101562 103.964844 C 12.902344 103.652344 12.605469 103.460938 12.210938 103.386719 C 11.824219 103.316406 11.480469 103.378906 11.179688 103.574219 Z M 15.097656 106.28125 C 15.199219 106.21875 15.320312 106.21875 15.457031 106.28125 C 15.601562 106.34375 15.714844 106.4375 15.800781 106.5625 C 15.894531 106.710938 15.894531 106.839844 15.800781 106.953125 L 13.207031 110.359375 L 16.878906 109.34375 C 17.035156 109.300781 17.164062 109.363281 17.269531 109.53125 C 17.382812 109.695312 17.382812 109.84375 17.269531 109.96875 L 14.785156 112.890625 L 19.003906 111.921875 C 19.128906 111.867188 19.238281 111.914062 19.332031 112.0625 C 19.402344 112.1875 19.441406 112.328125 19.441406 112.484375 C 19.441406 112.640625 19.386719 112.75 19.285156 112.8125 C 19.230469 112.851562 19.175781 112.878906 19.113281 112.890625 L 13.925781 114.015625 C 13.757812 114.046875 13.621094 113.972656 13.519531 113.796875 C 13.394531 113.609375 13.378906 113.453125 13.472656 113.328125 L 15.816406 110.453125 L 12.269531 111.375 C 12.089844 111.414062 11.941406 111.34375 11.816406 111.15625 C 11.699219 110.976562 11.699219 110.816406 11.816406 110.671875 L 14.972656 106.4375 C 15.035156 106.355469 15.074219 106.304688 15.097656 106.28125 Z M 16.757812 117.976562 L 17.742188 117.335938 C 18.042969 117.148438 18.414062 117.078125 18.851562 117.117188 C 19.289062 117.160156 19.730469 117.269531 20.179688 117.445312 L 21.539062 117.960938 C 21.984375 118.136719 22.429688 118.246094 22.867188 118.289062 C 23.3125 118.328125 23.683594 118.257812 23.976562 118.070312 C 24.296875 117.859375 24.511719 117.578125 24.617188 117.210938 C 24.730469 116.835938 24.664062 116.453125 24.414062 116.054688 C 24.195312 115.722656 23.917969 115.515625 23.585938 115.429688 C 23.261719 115.335938 22.929688 115.398438 22.585938 115.617188 C 22.492188 115.679688 22.382812 115.691406 22.257812 115.648438 C 22.140625 115.609375 22.042969 115.523438 21.960938 115.398438 C 21.792969 115.140625 21.875 114.90625 22.210938 114.695312 C 22.71875 114.363281 23.257812 114.285156 23.820312 114.460938 C 24.382812 114.640625 24.839844 115.003906 25.195312 115.554688 C 25.570312 116.148438 25.699219 116.765625 25.585938 117.398438 C 25.46875 118.03125 25.132812 118.527344 24.570312 118.882812 C 24.226562 119.101562 23.84375 119.226562 23.429688 119.257812 C 23.023438 119.289062 22.632812 119.25 22.257812 119.148438 C 21.882812 119.042969 21.496094 118.914062 21.101562 118.757812 L 20.007812 118.335938 C 19.683594 118.199219 19.367188 118.109375 19.054688 118.070312 C 18.742188 118.039062 18.484375 118.085938 18.289062 118.210938 L 17.773438 118.554688 L 19.773438 121.648438 C 19.824219 121.730469 19.828125 121.824219 19.789062 121.929688 C 19.746094 122.03125 19.671875 122.117188 19.570312 122.179688 C 19.476562 122.242188 19.371094 122.265625 19.257812 122.257812 C 19.140625 122.257812 19.058594 122.214844 19.007812 122.132812 L 16.695312 118.539062 C 16.640625 118.453125 16.617188 118.351562 16.617188 118.226562 C 16.625 118.109375 16.671875 118.027344 16.757812 117.976562 Z M 19.675781 122.800781 C 19.925781 122.636719 20.105469 122.644531 20.222656 122.832031 C 20.441406 123.164062 20.707031 123.402344 21.019531 123.550781 C 21.332031 123.695312 21.667969 123.652344 22.035156 123.425781 L 26.316406 120.675781 C 26.617188 120.480469 26.808594 120.199219 26.894531 119.832031 C 26.988281 119.457031 26.914062 119.082031 26.675781 118.707031 C 26.621094 118.625 26.613281 118.535156 26.644531 118.441406 C 26.683594 118.339844 26.761719 118.25 26.878906 118.175781 C 27.128906 118.011719 27.335938 118.0625 27.503906 118.332031 C 27.847656 118.855469 27.957031 119.433594 27.832031 120.066406 C 27.714844 120.691406 27.394531 121.175781 26.863281 121.519531 L 22.582031 124.269531 C 22.019531 124.621094 21.460938 124.710938 20.910156 124.535156 C 20.367188 124.367188 19.917969 124.007812 19.566406 123.457031 C 19.386719 123.175781 19.425781 122.957031 19.675781 122.800781 Z M 24.078125 127.484375 C 24.191406 127.414062 24.320312 127.386719 24.46875 127.40625 C 24.613281 127.417969 24.71875 127.464844 24.78125 127.546875 C 24.8125 127.601562 24.816406 127.703125 24.796875 127.859375 C 24.773438 128.003906 24.75 128.15625 24.71875 128.3125 C 24.6875 128.46875 24.695312 128.675781 24.75 128.9375 C 24.800781 129.207031 24.898438 129.484375 25.046875 129.765625 L 27.734375 128.03125 L 27.578125 127.359375 C 27.546875 127.203125 27.519531 126.992188 27.5 126.71875 C 27.488281 126.4375 27.507812 126.214844 27.5625 126.046875 C 27.625 125.871094 27.726562 125.679688 27.875 125.46875 C 28.03125 125.25 28.226562 125.0625 28.46875 124.90625 C 28.78125 124.710938 29.082031 124.59375 29.375 124.5625 C 29.675781 124.523438 29.953125 124.554688 30.203125 124.65625 C 30.460938 124.761719 30.691406 124.890625 30.890625 125.046875 C 31.097656 125.203125 31.296875 125.398438 31.484375 125.625 L 31.78125 125.4375 C 31.832031 125.40625 31.894531 125.402344 31.96875 125.421875 C 32.039062 125.433594 32.101562 125.480469 32.15625 125.5625 C 32.1875 125.625 32.195312 125.703125 32.1875 125.796875 C 32.1875 125.882812 32.160156 125.9375 32.109375 125.96875 L 31.8125 126.15625 C 32.0625 126.5625 32.234375 126.96875 32.328125 127.375 C 32.421875 127.773438 32.375 128.03125 32.1875 128.15625 C 32.09375 128.21875 31.96875 128.25 31.8125 128.25 C 31.664062 128.257812 31.554688 128.207031 31.484375 128.09375 C 31.460938 128.0625 31.429688 127.882812 31.390625 127.5625 C 31.347656 127.242188 31.242188 126.933594 31.078125 126.640625 L 28.75 128.125 C 28.84375 128.4375 28.894531 128.707031 28.90625 128.9375 C 28.925781 129.164062 28.921875 129.425781 28.890625 129.71875 C 28.859375 130.019531 28.75 130.296875 28.5625 130.546875 C 28.375 130.796875 28.113281 131.03125 27.78125 131.25 C 27.195312 131.625 26.628906 131.765625 26.078125 131.671875 C 25.523438 131.578125 25.035156 131.28125 24.609375 130.78125 L 24.25 131.015625 C 24.195312 131.046875 24.128906 131.046875 24.046875 131.015625 C 23.960938 130.992188 23.90625 130.953125 23.875 130.890625 C 23.820312 130.804688 23.800781 130.722656 23.8125 130.640625 C 23.832031 130.566406 23.867188 130.515625 23.921875 130.484375 L 24.265625 130.265625 C 23.890625 129.679688 23.703125 129.109375 23.703125 128.546875 C 23.710938 127.992188 23.835938 127.640625 24.078125 127.484375 Z M 29.0625 125.671875 C 28.75 125.882812 28.570312 126.125 28.53125 126.40625 C 28.5 126.6875 28.53125 127.058594 28.625 127.515625 L 30.75 126.15625 C 30.195312 125.46875 29.632812 125.308594 29.0625 125.671875 Z M 25.390625 130.21875 C 25.921875 130.820312 26.519531 130.910156 27.1875 130.484375 C 27.539062 130.253906 27.757812 129.988281 27.84375 129.6875 C 27.925781 129.394531 27.929688 129.046875 27.859375 128.640625 Z M 29.402344 134.207031 L 30.433594 133.550781 C 30.964844 133.207031 31.53125 133.09375 32.136719 133.207031 C 32.75 133.324219 33.214844 133.625 33.527344 134.113281 C 33.722656 134.425781 33.824219 134.738281 33.824219 135.050781 C 33.824219 135.371094 33.753906 135.667969 33.621094 135.941406 L 36.917969 133.816406 C 37 133.753906 37.09375 133.746094 37.199219 133.785156 C 37.3125 133.828125 37.40625 133.910156 37.480469 134.035156 C 37.5625 134.160156 37.597656 134.28125 37.589844 134.394531 C 37.578125 134.5 37.53125 134.582031 37.449219 134.644531 L 30.371094 139.191406 C 30.296875 139.230469 30.203125 139.230469 30.089844 139.191406 C 29.972656 139.160156 29.878906 139.085938 29.808594 138.972656 C 29.746094 138.867188 29.71875 138.757812 29.730469 138.644531 C 29.75 138.527344 29.796875 138.449219 29.871094 138.410156 L 30.277344 138.144531 C 29.972656 138.164062 29.667969 138.089844 29.355469 137.925781 C 29.042969 137.769531 28.785156 137.542969 28.589844 137.253906 C 28.285156 136.773438 28.21875 136.226562 28.386719 135.613281 C 28.550781 135.007812 28.890625 134.542969 29.402344 134.207031 Z M 29.933594 135.050781 C 29.628906 135.246094 29.425781 135.539062 29.324219 135.925781 C 29.21875 136.308594 29.265625 136.652344 29.464844 136.957031 C 29.660156 137.257812 29.949219 137.449219 30.324219 137.535156 C 30.707031 137.628906 30.984375 137.621094 31.152344 137.519531 L 32.449219 136.691406 C 32.800781 136.460938 33.011719 136.160156 33.074219 135.785156 C 33.144531 135.417969 33.089844 135.085938 32.902344 134.785156 C 32.691406 134.472656 32.390625 134.28125 31.996094 134.207031 C 31.609375 134.136719 31.265625 134.199219 30.964844 134.394531 Z M 32.605469 139.195312 L 33.667969 138.523438 C 34.1875 138.179688 34.761719 138.085938 35.386719 138.242188 C 36.011719 138.398438 36.5 138.753906 36.855469 139.304688 C 37.199219 139.828125 37.3125 140.386719 37.199219 140.992188 C 37.09375 141.605469 36.777344 142.085938 36.246094 142.429688 C 36.046875 142.554688 35.875 142.632812 35.730469 142.664062 C 35.582031 142.695312 35.457031 142.679688 35.355469 142.617188 C 35.25 142.554688 35.160156 142.480469 35.089844 142.398438 C 35.015625 142.324219 34.933594 142.210938 34.839844 142.054688 L 33.417969 139.851562 L 33.121094 140.054688 C 32.734375 140.292969 32.515625 140.617188 32.464844 141.023438 C 32.421875 141.429688 32.535156 141.84375 32.808594 142.273438 C 32.953125 142.5 33.109375 142.671875 33.277344 142.789062 C 33.453125 142.914062 33.609375 143 33.746094 143.054688 C 33.878906 143.117188 33.964844 143.179688 33.996094 143.242188 C 34.058594 143.335938 34.066406 143.445312 34.027344 143.570312 C 33.984375 143.695312 33.917969 143.78125 33.824219 143.835938 C 33.675781 143.929688 33.421875 143.871094 33.058594 143.664062 C 32.703125 143.464844 32.378906 143.140625 32.089844 142.695312 C 31.671875 142.039062 31.503906 141.382812 31.589844 140.726562 C 31.683594 140.078125 32.019531 139.570312 32.605469 139.195312 Z M 33.980469 139.492188 L 35.183594 141.351562 C 35.296875 141.527344 35.394531 141.632812 35.480469 141.664062 C 35.5625 141.703125 35.660156 141.683594 35.777344 141.601562 C 36.089844 141.402344 36.285156 141.117188 36.371094 140.742188 C 36.464844 140.375 36.40625 140.039062 36.199219 139.726562 C 35.988281 139.40625 35.703125 139.195312 35.339844 139.101562 C 34.984375 139.007812 34.652344 139.066406 34.339844 139.273438 Z M 34.152344 145.09375 L 38.355469 142.390625 C 38.4375 142.339844 38.53125 142.335938 38.636719 142.375 C 38.738281 142.417969 38.832031 142.5 38.917969 142.625 C 38.980469 142.71875 39.003906 142.824219 38.996094 142.9375 C 38.984375 143.054688 38.941406 143.136719 38.871094 143.1875 L 38.449219 143.46875 C 38.738281 143.429688 39.03125 143.484375 39.324219 143.640625 C 39.625 143.789062 39.878906 144.015625 40.089844 144.328125 C 40.390625 144.796875 40.464844 145.328125 40.308594 145.921875 C 40.160156 146.523438 39.824219 147 39.292969 147.34375 L 36.683594 149.015625 C 36.589844 149.078125 36.488281 149.082031 36.386719 149.03125 C 36.28125 148.976562 36.191406 148.898438 36.121094 148.796875 C 36.046875 148.679688 36.003906 148.566406 35.996094 148.453125 C 35.996094 148.335938 36.042969 148.25 36.136719 148.1875 L 38.746094 146.515625 C 39.046875 146.316406 39.246094 146.023438 39.339844 145.640625 C 39.441406 145.253906 39.394531 144.90625 39.199219 144.59375 C 39.011719 144.3125 38.734375 144.132812 38.371094 144.046875 C 38.015625 143.964844 37.660156 144.039062 37.308594 144.265625 L 34.699219 145.9375 C 34.636719 145.976562 34.542969 145.972656 34.417969 145.921875 C 34.292969 145.878906 34.199219 145.804688 34.136719 145.703125 C 34.0625 145.585938 34.027344 145.46875 34.027344 145.34375 C 34.035156 145.21875 34.078125 145.132812 34.152344 145.09375 Z M 37.617188 149.625 C 37.699219 149.574219 37.796875 149.546875 37.914062 149.546875 C 38.039062 149.546875 38.125 149.589844 38.179688 149.671875 C 38.21875 149.726562 38.230469 149.820312 38.210938 149.96875 C 38.199219 150.125 38.214844 150.320312 38.257812 150.5625 C 38.308594 150.8125 38.414062 151.066406 38.570312 151.328125 C 38.789062 151.660156 39.007812 151.863281 39.226562 151.9375 C 39.445312 152.007812 39.648438 151.984375 39.835938 151.859375 C 40.054688 151.722656 40.171875 151.523438 40.195312 151.265625 C 40.214844 151.003906 40.179688 150.734375 40.085938 150.453125 C 40 150.171875 39.921875 149.882812 39.851562 149.59375 C 39.777344 149.304688 39.777344 149.011719 39.851562 148.71875 C 39.933594 148.429688 40.132812 148.183594 40.445312 147.984375 C 40.828125 147.734375 41.246094 147.65625 41.695312 147.75 C 42.152344 147.84375 42.558594 148.171875 42.914062 148.734375 C 43.152344 149.089844 43.308594 149.449219 43.382812 149.8125 C 43.464844 150.1875 43.433594 150.414062 43.289062 150.5 C 43.214844 150.550781 43.105469 150.578125 42.960938 150.578125 C 42.8125 150.585938 42.710938 150.546875 42.648438 150.453125 C 42.636719 150.421875 42.605469 150.257812 42.554688 149.96875 C 42.5 149.679688 42.402344 149.417969 42.257812 149.1875 C 42.058594 148.875 41.835938 148.695312 41.585938 148.640625 C 41.34375 148.578125 41.132812 148.605469 40.945312 148.71875 C 40.765625 148.835938 40.679688 149.011719 40.679688 149.25 C 40.679688 149.492188 40.726562 149.75 40.820312 150.03125 C 40.921875 150.320312 41.007812 150.613281 41.070312 150.90625 C 41.140625 151.207031 41.125 151.507812 41.023438 151.8125 C 40.917969 152.113281 40.699219 152.375 40.367188 152.59375 C 39.9375 152.863281 39.507812 152.925781 39.070312 152.78125 C 38.640625 152.644531 38.261719 152.304688 37.929688 151.765625 C 37.625 151.316406 37.449219 150.875 37.398438 150.4375 C 37.355469 150.007812 37.429688 149.742188 37.617188 149.625 Z M 45.941406 150.347656 C 45.972656 150.183594 46.050781 150.0625 46.175781 149.988281 C 46.300781 149.90625 46.441406 149.886719 46.597656 149.925781 C 46.761719 149.957031 46.898438 150.050781 47.003906 150.207031 C 47.085938 150.34375 47.113281 150.496094 47.082031 150.660156 C 47.050781 150.828125 46.972656 150.953125 46.847656 151.035156 C 46.722656 151.109375 46.574219 151.125 46.410156 151.082031 C 46.242188 151.042969 46.113281 150.953125 46.019531 150.816406 C 45.933594 150.671875 45.910156 150.515625 45.941406 150.347656 Z M 39.957031 154.128906 L 44.160156 151.425781 C 44.242188 151.375 44.335938 151.375 44.441406 151.425781 C 44.554688 151.46875 44.648438 151.546875 44.722656 151.660156 C 44.792969 151.785156 44.832031 151.90625 44.832031 152.019531 C 44.832031 152.136719 44.789062 152.21875 44.707031 152.269531 L 40.503906 154.972656 C 40.441406 155.011719 40.347656 155.011719 40.222656 154.972656 C 40.105469 154.929688 40.011719 154.851562 39.941406 154.738281 C 39.867188 154.621094 39.832031 154.503906 39.832031 154.378906 C 39.839844 154.253906 39.882812 154.167969 39.957031 154.128906 Z M 42.492188 155.347656 L 47.679688 152.019531 C 47.761719 151.96875 47.859375 151.96875 47.976562 152.019531 C 48.089844 152.0625 48.179688 152.128906 48.242188 152.222656 C 48.3125 152.339844 48.34375 152.464844 48.335938 152.597656 C 48.335938 152.722656 48.292969 152.8125 48.210938 152.863281 L 46.273438 154.097656 L 47.085938 155.363281 C 47.136719 155.4375 47.140625 155.519531 47.101562 155.613281 C 47.070312 155.699219 47.007812 155.761719 46.914062 155.816406 C 46.828125 155.878906 46.742188 155.902344 46.648438 155.894531 C 46.554688 155.894531 46.480469 155.855469 46.429688 155.785156 L 45.617188 154.519531 L 43.023438 156.191406 C 42.730469 156.378906 42.5625 156.570312 42.523438 156.769531 C 42.480469 156.964844 42.558594 157.222656 42.757812 157.535156 L 42.960938 157.847656 C 43.03125 157.960938 43.054688 158.070312 43.023438 158.175781 C 43 158.289062 42.9375 158.378906 42.835938 158.441406 C 42.730469 158.511719 42.621094 158.535156 42.507812 158.503906 C 42.390625 158.480469 42.296875 158.417969 42.226562 158.316406 L 42.023438 158.003906 C 41.3125 156.886719 41.46875 156.003906 42.492188 155.347656 Z M 47.113281 156.148438 C 47.226562 156.085938 47.363281 156.09375 47.519531 156.164062 C 47.675781 156.226562 47.792969 156.320312 47.878906 156.445312 C 47.960938 156.582031 47.960938 156.707031 47.878906 156.820312 L 45.207031 160.414062 L 49.519531 159.351562 C 49.652344 159.328125 49.757812 159.382812 49.832031 159.507812 C 49.902344 159.621094 49.941406 159.765625 49.941406 159.945312 C 49.949219 160.121094 49.898438 160.246094 49.785156 160.320312 C 49.742188 160.339844 49.699219 160.351562 49.660156 160.351562 L 44.566406 161.460938 L 43.925781 161.601562 C 43.820312 161.609375 43.617188 161.636719 43.316406 161.679688 C 43.023438 161.730469 42.804688 161.757812 42.660156 161.757812 C 42.515625 161.757812 42.324219 161.746094 42.082031 161.726562 C 41.84375 161.714844 41.652344 161.679688 41.503906 161.617188 C 41.359375 161.554688 41.203125 161.460938 41.035156 161.335938 C 40.871094 161.210938 40.734375 161.0625 40.628906 160.898438 C 40.453125 160.625 40.488281 160.40625 40.738281 160.242188 C 40.980469 160.09375 41.152344 160.105469 41.253906 160.273438 C 41.453125 160.574219 41.816406 160.757812 42.347656 160.820312 C 42.867188 160.890625 43.425781 160.808594 44.019531 160.570312 L 47.019531 156.257812 C 47.050781 156.21875 47.082031 156.179688 47.113281 156.148438 Z M 52.601562 161.675781 C 52.734375 161.59375 52.886719 161.582031 53.054688 161.644531 L 54.742188 161.863281 C 54.898438 161.886719 55 161.9375 55.054688 162.019531 C 55.117188 162.125 55.148438 162.234375 55.148438 162.347656 C 55.148438 162.464844 55.101562 162.550781 55.007812 162.613281 L 48.210938 166.972656 C 48.117188 167.035156 48.011719 167.039062 47.898438 166.988281 C 47.792969 166.933594 47.703125 166.847656 47.632812 166.722656 C 47.558594 166.605469 47.523438 166.492188 47.523438 166.378906 C 47.523438 166.261719 47.570312 166.175781 47.664062 166.113281 L 53.476562 162.378906 L 52.679688 162.363281 C 52.5625 162.34375 52.484375 162.296875 52.445312 162.222656 C 52.382812 162.140625 52.367188 162.046875 52.398438 161.941406 C 52.4375 161.828125 52.507812 161.738281 52.601562 161.675781 Z M 50.835938 166.992188 L 53.882812 165.039062 C 54.640625 164.550781 55.324219 164.398438 55.929688 164.585938 C 56.53125 164.765625 57.046875 165.1875 57.476562 165.851562 C 57.914062 166.519531 58.078125 167.15625 57.976562 167.757812 C 57.882812 168.359375 57.59375 168.8125 57.117188 169.117188 C 56.867188 169.273438 56.652344 169.21875 56.476562 168.960938 C 56.289062 168.667969 56.308594 168.449219 56.539062 168.304688 C 56.839844 168.105469 57 167.820312 57.023438 167.445312 C 57.054688 167.070312 56.949219 166.695312 56.710938 166.320312 C 56.136719 165.425781 55.375 165.285156 54.429688 165.898438 L 53.007812 166.804688 C 53.632812 166.867188 54.152344 167.226562 54.570312 167.882812 C 55.445312 169.234375 55.203125 170.34375 53.851562 171.210938 L 53.632812 171.351562 C 52.871094 171.839844 52.183594 172 51.570312 171.835938 C 50.964844 171.667969 50.449219 171.257812 50.023438 170.601562 C 49.605469 169.945312 49.445312 169.296875 49.539062 168.664062 C 49.640625 168.039062 50.074219 167.484375 50.835938 166.992188 Z M 51.351562 167.882812 C 50.390625 168.484375 50.195312 169.230469 50.757812 170.117188 C 51.328125 171 52.09375 171.140625 53.054688 170.539062 L 53.257812 170.398438 C 54.171875 169.8125 54.34375 169.078125 53.773438 168.195312 C 53.210938 167.3125 52.5 167.140625 51.648438 167.679688 Z M 54.433594 174.761719 C 54.546875 174.691406 54.675781 174.664062 54.824219 174.683594 C 54.96875 174.695312 55.074219 174.742188 55.136719 174.824219 C 55.167969 174.878906 55.171875 174.980469 55.152344 175.136719 C 55.128906 175.28125 55.105469 175.433594 55.074219 175.589844 C 55.042969 175.746094 55.050781 175.953125 55.105469 176.214844 C 55.15625 176.484375 55.253906 176.761719 55.402344 177.042969 L 58.089844 175.308594 L 57.933594 174.636719 C 57.902344 174.480469 57.875 174.269531 57.855469 173.996094 C 57.84375 173.714844 57.863281 173.492188 57.917969 173.324219 C 57.980469 173.148438 58.082031 172.957031 58.230469 172.746094 C 58.386719 172.527344 58.582031 172.339844 58.824219 172.183594 C 59.136719 171.988281 59.4375 171.871094 59.730469 171.839844 C 60.03125 171.800781 60.308594 171.832031 60.558594 171.933594 C 60.816406 172.039062 61.046875 172.167969 61.246094 172.324219 C 61.453125 172.480469 61.652344 172.675781 61.839844 172.902344 L 62.136719 172.714844 C 62.1875 172.683594 62.25 172.679688 62.324219 172.699219 C 62.394531 172.710938 62.457031 172.757812 62.511719 172.839844 C 62.542969 172.902344 62.550781 172.980469 62.542969 173.074219 C 62.542969 173.160156 62.515625 173.214844 62.464844 173.246094 L 62.167969 173.433594 C 62.417969 173.839844 62.589844 174.246094 62.683594 174.652344 C 62.777344 175.050781 62.730469 175.308594 62.542969 175.433594 C 62.449219 175.496094 62.324219 175.527344 62.167969 175.527344 C 62.019531 175.535156 61.910156 175.484375 61.839844 175.371094 C 61.816406 175.339844 61.785156 175.160156 61.746094 174.839844 C 61.703125 174.519531 61.597656 174.210938 61.433594 173.917969 L 59.105469 175.402344 C 59.199219 175.714844 59.25 175.984375 59.261719 176.214844 C 59.28125 176.441406 59.277344 176.703125 59.246094 176.996094 C 59.214844 177.296875 59.105469 177.574219 58.917969 177.824219 C 58.730469 178.074219 58.46875 178.308594 58.136719 178.527344 C 57.550781 178.902344 56.984375 179.042969 56.433594 178.949219 C 55.878906 178.855469 55.390625 178.558594 54.964844 178.058594 L 54.605469 178.292969 C 54.550781 178.324219 54.484375 178.324219 54.402344 178.292969 C 54.316406 178.269531 54.261719 178.230469 54.230469 178.167969 C 54.175781 178.082031 54.15625 178 54.167969 177.917969 C 54.1875 177.84375 54.222656 177.792969 54.277344 177.761719 L 54.621094 177.542969 C 54.246094 176.957031 54.058594 176.386719 54.058594 175.824219 C 54.066406 175.269531 54.191406 174.917969 54.433594 174.761719 Z M 59.417969 172.949219 C 59.105469 173.160156 58.925781 173.402344 58.886719 173.683594 C 58.855469 173.964844 58.886719 174.335938 58.980469 174.792969 L 61.105469 173.433594 C 60.550781 172.746094 59.988281 172.585938 59.417969 172.949219 Z M 55.746094 177.496094 C 56.277344 178.097656 56.875 178.1875 57.542969 177.761719 C 57.894531 177.53125 58.113281 177.265625 58.199219 176.964844 C 58.28125 176.671875 58.285156 176.324219 58.214844 175.917969 Z M 65.355469 177.8125 C 65.425781 177.773438 65.511719 177.773438 65.605469 177.8125 C 65.699219 177.855469 65.769531 177.921875 65.824219 178.015625 C 65.886719 178.109375 65.917969 178.214844 65.917969 178.328125 C 65.925781 178.433594 65.894531 178.507812 65.824219 178.546875 L 64.292969 179.390625 C 64.21875 179.433594 64.140625 179.453125 64.058594 179.453125 C 63.972656 179.445312 63.90625 179.390625 63.855469 179.296875 C 63.738281 179.121094 63.769531 178.976562 63.949219 178.859375 Z M 66.230469 179.171875 C 66.300781 179.132812 66.386719 179.136719 66.480469 179.1875 C 66.574219 179.230469 66.652344 179.296875 66.714844 179.390625 C 66.777344 179.484375 66.808594 179.585938 66.808594 179.6875 C 66.808594 179.792969 66.769531 179.867188 66.699219 179.90625 L 65.167969 180.765625 C 65.09375 180.808594 65.015625 180.824219 64.933594 180.8125 C 64.847656 180.804688 64.78125 180.757812 64.730469 180.671875 C 64.613281 180.496094 64.644531 180.351562 64.824219 180.234375 Z M 58.617188 185.925781 C 59.117188 185.613281 59.664062 185.648438 60.257812 186.035156 C 60.164062 185.617188 60.277344 185.304688 60.601562 185.097656 C 60.902344 184.902344 61.257812 184.90625 61.664062 185.113281 C 61.726562 184.53125 62.03125 184.066406 62.585938 183.722656 L 62.914062 183.503906 C 63.402344 183.191406 63.902344 183.105469 64.414062 183.238281 C 64.933594 183.375 65.367188 183.707031 65.710938 184.238281 C 66 184.699219 66.125 185.175781 66.085938 185.675781 C 66.648438 185.589844 67.011719 185.675781 67.179688 185.925781 C 67.25 186.039062 67.277344 186.148438 67.257812 186.253906 C 67.234375 186.367188 67.183594 186.449219 67.101562 186.503906 C 66.996094 186.566406 66.882812 186.558594 66.757812 186.488281 C 66.546875 186.289062 66.292969 186.195312 65.992188 186.207031 C 65.867188 186.570312 65.609375 186.878906 65.226562 187.128906 L 64.898438 187.347656 C 64.398438 187.660156 63.882812 187.742188 63.351562 187.597656 C 62.820312 187.460938 62.382812 187.128906 62.039062 186.597656 C 61.871094 186.324219 61.765625 186.039062 61.726562 185.738281 C 61.507812 185.644531 61.328125 185.636719 61.195312 185.722656 C 61.070312 185.804688 61.023438 185.945312 61.054688 186.144531 C 61.09375 186.339844 61.179688 186.558594 61.304688 186.800781 C 61.4375 187.039062 61.5625 187.304688 61.679688 187.597656 C 61.804688 187.898438 61.902344 188.191406 61.976562 188.472656 C 62.046875 188.753906 62.039062 189.027344 61.945312 189.300781 C 61.859375 189.582031 61.671875 189.816406 61.382812 190.003906 C 60.914062 190.304688 60.429688 190.347656 59.929688 190.128906 C 59.429688 189.910156 58.988281 189.496094 58.601562 188.894531 C 58.21875 188.289062 58.019531 187.710938 58.007812 187.160156 C 58 186.605469 58.203125 186.195312 58.617188 185.925781 Z M 59.226562 186.675781 C 58.96875 186.839844 58.835938 187.089844 58.835938 187.425781 C 58.828125 187.757812 58.945312 188.117188 59.195312 188.503906 C 59.433594 188.878906 59.703125 189.128906 60.007812 189.253906 C 60.308594 189.378906 60.589844 189.355469 60.851562 189.191406 C 60.953125 189.128906 61.03125 189.050781 61.085938 188.957031 C 61.148438 188.871094 61.179688 188.769531 61.179688 188.644531 C 61.179688 188.527344 61.167969 188.417969 61.148438 188.316406 C 61.136719 188.210938 61.101562 188.085938 61.039062 187.941406 C 60.984375 187.792969 60.9375 187.675781 60.898438 187.582031 C 60.855469 187.496094 60.792969 187.382812 60.710938 187.238281 C 60.636719 187.089844 60.589844 186.988281 60.570312 186.925781 C 60.046875 186.519531 59.601562 186.433594 59.226562 186.675781 Z M 63.101562 184.550781 C 62.765625 184.761719 62.554688 185.015625 62.460938 185.316406 C 62.375 185.617188 62.433594 185.929688 62.632812 186.253906 C 62.828125 186.542969 63.085938 186.714844 63.398438 186.769531 C 63.71875 186.820312 64.046875 186.742188 64.382812 186.535156 L 64.710938 186.316406 C 65.011719 186.117188 65.210938 185.855469 65.304688 185.535156 C 65.398438 185.222656 65.34375 184.917969 65.148438 184.613281 C 64.949219 184.300781 64.6875 184.128906 64.367188 184.097656 C 64.054688 184.058594 63.742188 184.136719 63.429688 184.332031 Z M 63.0625 190.117188 L 67.265625 187.414062 C 67.347656 187.363281 67.441406 187.359375 67.546875 187.398438 C 67.648438 187.441406 67.742188 187.523438 67.828125 187.648438 C 67.890625 187.753906 67.914062 187.863281 67.90625 187.976562 C 67.90625 188.082031 67.863281 188.160156 67.78125 188.210938 L 67.296875 188.523438 C 67.609375 188.503906 67.921875 188.5625 68.234375 188.695312 C 68.546875 188.820312 68.796875 189.03125 68.984375 189.320312 L 69.203125 189.664062 C 69.253906 189.746094 69.257812 189.839844 69.21875 189.945312 C 69.1875 190.058594 69.117188 190.148438 69.015625 190.210938 C 68.921875 190.28125 68.816406 190.308594 68.703125 190.289062 C 68.585938 190.277344 68.503906 190.230469 68.453125 190.148438 L 68.234375 189.804688 C 68.003906 189.460938 67.671875 189.253906 67.234375 189.179688 C 66.796875 189.097656 66.359375 189.195312 65.921875 189.476562 L 63.609375 190.960938 C 63.546875 191 63.453125 191 63.328125 190.960938 C 63.210938 190.917969 63.117188 190.839844 63.046875 190.726562 C 62.972656 190.609375 62.9375 190.492188 62.9375 190.367188 C 62.945312 190.242188 62.988281 190.15625 63.0625 190.117188 Z M 66.761719 192.390625 L 67.824219 191.71875 C 68.34375 191.375 68.917969 191.28125 69.542969 191.4375 C 70.167969 191.59375 70.65625 191.949219 71.011719 192.5 C 71.355469 193.023438 71.46875 193.582031 71.355469 194.1875 C 71.25 194.800781 70.933594 195.28125 70.402344 195.625 C 70.203125 195.75 70.03125 195.828125 69.886719 195.859375 C 69.738281 195.890625 69.613281 195.875 69.511719 195.8125 C 69.40625 195.75 69.316406 195.675781 69.246094 195.59375 C 69.171875 195.519531 69.089844 195.40625 68.996094 195.25 L 67.574219 193.046875 L 67.277344 193.25 C 66.890625 193.488281 66.671875 193.8125 66.621094 194.21875 C 66.578125 194.625 66.691406 195.039062 66.964844 195.46875 C 67.109375 195.695312 67.265625 195.867188 67.433594 195.984375 C 67.609375 196.109375 67.765625 196.195312 67.902344 196.25 C 68.035156 196.3125 68.121094 196.375 68.152344 196.4375 C 68.214844 196.53125 68.222656 196.640625 68.183594 196.765625 C 68.140625 196.890625 68.074219 196.976562 67.980469 197.03125 C 67.832031 197.125 67.578125 197.066406 67.214844 196.859375 C 66.859375 196.660156 66.535156 196.335938 66.246094 195.890625 C 65.828125 195.234375 65.660156 194.578125 65.746094 193.921875 C 65.839844 193.273438 66.175781 192.765625 66.761719 192.390625 Z M 68.136719 192.6875 L 69.339844 194.546875 C 69.453125 194.722656 69.550781 194.828125 69.636719 194.859375 C 69.71875 194.898438 69.816406 194.878906 69.933594 194.796875 C 70.246094 194.597656 70.441406 194.3125 70.527344 193.9375 C 70.621094 193.570312 70.5625 193.234375 70.355469 192.921875 C 70.144531 192.601562 69.859375 192.390625 69.496094 192.296875 C 69.140625 192.203125 68.808594 192.261719 68.496094 192.46875 Z M 72.152344 195.148438 C 72.265625 195.085938 72.402344 195.09375 72.558594 195.164062 C 72.714844 195.226562 72.832031 195.320312 72.917969 195.445312 C 73 195.582031 73 195.707031 72.917969 195.820312 L 70.246094 199.414062 L 74.558594 198.351562 C 74.691406 198.328125 74.796875 198.382812 74.871094 198.507812 C 74.941406 198.621094 74.980469 198.765625 74.980469 198.945312 C 74.988281 199.121094 74.9375 199.246094 74.824219 199.320312 C 74.78125 199.339844 74.738281 199.351562 74.699219 199.351562 L 69.605469 200.460938 L 68.964844 200.601562 C 68.859375 200.609375 68.65625 200.636719 68.355469 200.679688 C 68.0625 200.730469 67.84375 200.757812 67.699219 200.757812 C 67.554688 200.757812 67.363281 200.746094 67.121094 200.726562 C 66.882812 200.714844 66.691406 200.679688 66.542969 200.617188 C 66.398438 200.554688 66.242188 200.460938 66.074219 200.335938 C 65.910156 200.210938 65.773438 200.0625 65.667969 199.898438 C 65.492188 199.625 65.527344 199.40625 65.777344 199.242188 C 66.019531 199.09375 66.191406 199.105469 66.292969 199.273438 C 66.492188 199.574219 66.855469 199.757812 67.386719 199.820312 C 67.90625 199.890625 68.464844 199.808594 69.058594 199.570312 L 72.058594 195.257812 C 72.089844 195.21875 72.121094 195.179688 72.152344 195.148438 Z M 72.457031 204.734375 L 79.535156 200.1875 C 79.617188 200.125 79.710938 200.117188 79.816406 200.15625 C 79.929688 200.199219 80.023438 200.28125 80.097656 200.40625 C 80.167969 200.523438 80.199219 200.640625 80.191406 200.765625 C 80.191406 200.882812 80.148438 200.96875 80.066406 201.03125 L 76.769531 203.15625 C 77.070312 203.125 77.367188 203.179688 77.660156 203.3125 C 77.949219 203.449219 78.191406 203.667969 78.378906 203.96875 C 78.699219 204.457031 78.785156 205.003906 78.628906 205.609375 C 78.480469 206.210938 78.144531 206.6875 77.613281 207.03125 L 76.582031 207.6875 C 76.070312 208.019531 75.503906 208.128906 74.878906 208.015625 C 74.253906 207.910156 73.789062 207.625 73.488281 207.15625 C 73.289062 206.851562 73.183594 206.523438 73.175781 206.171875 C 73.164062 205.816406 73.230469 205.515625 73.378906 205.265625 L 72.972656 205.53125 C 72.898438 205.570312 72.804688 205.570312 72.691406 205.53125 C 72.574219 205.5 72.488281 205.4375 72.425781 205.34375 C 72.351562 205.226562 72.320312 205.109375 72.332031 204.984375 C 72.339844 204.859375 72.382812 204.773438 72.457031 204.734375 Z M 74.300781 204.734375 C 74.132812 204.835938 74.011719 205.078125 73.941406 205.453125 C 73.867188 205.835938 73.917969 206.175781 74.097656 206.46875 C 74.292969 206.769531 74.589844 206.957031 74.988281 207.03125 C 75.382812 207.101562 75.730469 207.039062 76.035156 206.84375 L 77.066406 206.1875 C 77.367188 205.988281 77.566406 205.695312 77.660156 205.3125 C 77.761719 204.925781 77.714844 204.582031 77.519531 204.28125 C 77.332031 203.96875 77.050781 203.773438 76.675781 203.6875 C 76.308594 203.605469 75.949219 203.679688 75.597656 203.90625 Z M 75.703125 209.800781 L 82.78125 205.253906 C 82.863281 205.191406 82.957031 205.183594 83.0625 205.222656 C 83.175781 205.265625 83.269531 205.347656 83.34375 205.472656 C 83.425781 205.589844 83.460938 205.707031 83.453125 205.832031 C 83.453125 205.949219 83.410156 206.035156 83.328125 206.097656 L 76.25 210.644531 C 76.1875 210.683594 76.09375 210.683594 75.96875 210.644531 C 75.84375 210.601562 75.742188 210.523438 75.671875 210.410156 C 75.597656 210.292969 75.566406 210.175781 75.578125 210.050781 C 75.585938 209.925781 75.628906 209.839844 75.703125 209.800781 Z M 77.84375 211 C 78.363281 210.667969 78.859375 210.636719 79.328125 210.90625 C 79.796875 211.167969 80.273438 211.675781 80.765625 212.4375 L 81.078125 212.921875 L 81.28125 212.796875 C 81.613281 212.578125 81.84375 212.296875 81.96875 211.953125 C 82.101562 211.609375 82.050781 211.257812 81.8125 210.890625 C 81.625 210.601562 81.414062 210.382812 81.1875 210.234375 C 80.957031 210.078125 80.835938 209.992188 80.828125 209.96875 C 80.765625 209.875 80.757812 209.773438 80.8125 209.65625 C 80.863281 209.542969 80.941406 209.453125 81.046875 209.390625 C 81.203125 209.289062 81.4375 209.355469 81.75 209.59375 C 82.0625 209.824219 82.328125 210.105469 82.546875 210.4375 C 82.960938 211.105469 83.082031 211.710938 82.90625 212.265625 C 82.738281 212.816406 82.378906 213.269531 81.828125 213.625 L 79.234375 215.296875 C 79.148438 215.347656 79.050781 215.351562 78.9375 215.3125 C 78.832031 215.269531 78.742188 215.1875 78.671875 215.0625 C 78.597656 214.957031 78.566406 214.847656 78.578125 214.734375 C 78.585938 214.628906 78.632812 214.550781 78.71875 214.5 L 79.125 214.234375 C 78.3125 214.109375 77.726562 213.765625 77.375 213.203125 C 77.113281 212.796875 77.015625 212.394531 77.078125 212 C 77.148438 211.613281 77.40625 211.28125 77.84375 211 Z M 78.46875 211.765625 C 78.207031 211.929688 78.0625 212.125 78.03125 212.34375 C 78 212.570312 78.054688 212.804688 78.203125 213.046875 C 78.390625 213.328125 78.679688 213.523438 79.078125 213.640625 C 79.484375 213.765625 79.800781 213.75 80.03125 213.59375 L 80.5625 213.25 L 80.328125 212.90625 C 80.203125 212.707031 80.085938 212.539062 79.984375 212.40625 C 79.878906 212.28125 79.765625 212.148438 79.640625 212.015625 C 79.515625 211.890625 79.390625 211.796875 79.265625 211.734375 C 79.148438 211.671875 79.019531 211.640625 78.875 211.640625 C 78.738281 211.640625 78.601562 211.679688 78.46875 211.765625 Z M 81.4375 215.257812 L 82.453125 214.601562 C 83.035156 214.226562 83.613281 214.097656 84.1875 214.210938 C 84.769531 214.328125 85.273438 214.710938 85.703125 215.367188 C 85.972656 215.785156 86.125 216.179688 86.15625 216.554688 C 86.195312 216.9375 86.132812 217.183594 85.96875 217.289062 C 85.875 217.351562 85.753906 217.375 85.609375 217.367188 C 85.472656 217.355469 85.375 217.304688 85.3125 217.210938 C 85.300781 217.1875 85.285156 217.03125 85.265625 216.742188 C 85.253906 216.460938 85.164062 216.183594 85 215.914062 C 84.738281 215.507812 84.429688 215.269531 84.078125 215.195312 C 83.734375 215.125 83.375 215.207031 83 215.445312 L 81.984375 216.101562 C 81.179688 216.609375 81.046875 217.277344 81.578125 218.101562 C 81.753906 218.390625 81.96875 218.601562 82.21875 218.726562 C 82.476562 218.851562 82.617188 218.933594 82.640625 218.976562 C 82.710938 219.078125 82.726562 219.195312 82.6875 219.320312 C 82.65625 219.453125 82.585938 219.554688 82.484375 219.617188 C 82.316406 219.71875 82.0625 219.671875 81.71875 219.476562 C 81.375 219.277344 81.0625 218.964844 80.78125 218.539062 C 80.351562 217.871094 80.207031 217.25 80.34375 216.679688 C 80.488281 216.105469 80.851562 215.632812 81.4375 215.257812 Z M 82.6875 220.671875 L 89.765625 216.125 C 89.847656 216.0625 89.941406 216.054688 90.046875 216.09375 C 90.160156 216.136719 90.253906 216.21875 90.328125 216.34375 C 90.398438 216.460938 90.429688 216.578125 90.421875 216.703125 C 90.421875 216.820312 90.378906 216.90625 90.296875 216.96875 L 85.578125 220 L 89.140625 220.953125 C 89.234375 220.984375 89.300781 221.03125 89.34375 221.09375 C 89.394531 221.1875 89.410156 221.304688 89.390625 221.453125 C 89.367188 221.609375 89.3125 221.710938 89.21875 221.765625 C 89.125 221.828125 89.03125 221.84375 88.9375 221.8125 L 86.796875 221.203125 L 85.4375 224.4375 C 85.414062 224.507812 85.378906 224.5625 85.328125 224.59375 C 85.234375 224.65625 85.101562 224.664062 84.9375 224.625 C 84.78125 224.582031 84.664062 224.503906 84.59375 224.390625 C 84.539062 224.304688 84.539062 224.203125 84.59375 224.078125 L 85.921875 220.96875 L 84.625 220.609375 L 83.21875 221.515625 C 83.15625 221.554688 83.0625 221.554688 82.9375 221.515625 C 82.820312 221.472656 82.726562 221.394531 82.65625 221.28125 C 82.582031 221.164062 82.550781 221.046875 82.5625 220.921875 C 82.570312 220.796875 82.613281 220.710938 82.6875 220.671875 Z M 92.761719 220.496094 C 92.832031 220.457031 92.917969 220.457031 93.011719 220.496094 C 93.105469 220.539062 93.175781 220.605469 93.230469 220.699219 C 93.292969 220.792969 93.324219 220.898438 93.324219 221.011719 C 93.332031 221.117188 93.300781 221.191406 93.230469 221.230469 L 91.699219 222.074219 C 91.625 222.117188 91.546875 222.136719 91.464844 222.136719 C 91.378906 222.128906 91.3125 222.074219 91.261719 221.980469 C 91.144531 221.804688 91.175781 221.660156 91.355469 221.542969 Z M 93.636719 221.855469 C 93.707031 221.816406 93.792969 221.820312 93.886719 221.871094 C 93.980469 221.914062 94.058594 221.980469 94.121094 222.074219 C 94.183594 222.167969 94.214844 222.269531 94.214844 222.371094 C 94.214844 222.476562 94.175781 222.550781 94.105469 222.589844 L 92.574219 223.449219 C 92.5 223.492188 92.421875 223.507812 92.339844 223.496094 C 92.253906 223.488281 92.1875 223.441406 92.136719 223.355469 C 92.019531 223.179688 92.050781 223.035156 92.230469 222.917969 Z M 86.835938 227.78125 "/>
</g>
</svg>
