<?xml version="1.0" encoding="UTF-8"?>
<svg xmlns="http://www.w3.org/2000/svg" xmlns:xlink="http://www.w3.org/1999/xlink" width="136pt" height="566pt" viewBox="0 0 136 566" version="1.1">
<g id="surface441">
<path style=" stroke:none;fill-rule:nonzero;fill:rgb(0%,0%,0%);fill-opacity:1;" d="M 0 0 L 116 0 L 116 566 L 0 566 Z M 0 0 "/>
<path style=" stroke:none;fill-rule:nonzero;fill:rgb(0%,0%,0%);fill-opacity:1;" d="M 0 0 L 116 0 L 116 8.085938 L 0 8.085938 Z M 0 0 "/>
<path style=" stroke:none;fill-rule:nonzero;fill:rgb(50.196078%,50.196078%,50.196078%);fill-opacity:1;" d="M 0 0 L 38.667969 0 L 38.667969 4.042969 L 0 4.042969 Z M 0 0 "/>
<path style=" stroke:none;fill-rule:nonzero;fill:rgb(50.196078%,50.196078%,50.196078%);fill-opacity:1;" d="M 0 4.042969 L 38.667969 4.042969 L 38.667969 8.085938 L 0 8.085938 Z M 0 4.042969 "/>
<path style=" stroke:none;fill-rule:nonzero;fill:rgb(82.745098%,82.745098%,82.745098%);fill-opacity:1;" d="M 38.667969 0 L 77.335938 0 L 77.335938 4.042969 L 38.667969 4.042969 Z M 38.667969 0 "/>
<path style=" stroke:none;fill-rule:nonzero;fill:rgb(0%,0%,0%);fill-opacity:1;" d="M 38.667969 4.042969 L 77.335938 4.042969 L 77.335938 8.085938 L 38.667969 8.085938 Z M 38.667969 4.042969 "/>
<path style=" stroke:none;fill-rule:nonzero;fill:rgb(66.27451%,66.27451%,66.27451%);fill-opacity:1;" d="M 77.332031 0 L 116 0 L 116 4.042969 L 77.332031 4.042969 Z M 77.332031 0 "/>
<path style=" stroke:none;fill-rule:nonzero;fill:rgb(50.196078%,50.196078%,50.196078%);fill-opacity:1;" d="M 77.332031 4.042969 L 116 4.042969 L 116 8.085938 L 77.332031 8.085938 Z M 77.332031 4.042969 "/>
<path style=" stroke:none;fill-rule:nonzero;fill:rgb(50.196078%,50.196078%,50.196078%);fill-opacity:1;" d="M 0 8.085938 L 38.667969 8.085938 L 38.667969 12.128906 L 0 12.128906 Z M 0 8.085938 "/>
<path style=" stroke:none;fill-rule:nonzero;fill:rgb(0%,0%,0%);fill-opacity:1;" d="M 0 12.128906 L 38.667969 12.128906 L 38.667969 16.171875 L 0 16.171875 Z M 0 12.128906 "/>
<path style=" stroke:none;fill-rule:nonzero;fill:rgb(82.745098%,82.745098%,82.745098%);fill-opacity:1;" d="M 38.667969 8.085938 L 77.335938 8.085938 L 77.335938 12.128906 L 38.667969 12.128906 Z M 38.667969 8.085938 "/>
<path style=" stroke:none;fill-rule:nonzero;fill:rgb(50.196078%,50.196078%,50.196078%);fill-opacity:1;" d="M 38.667969 12.128906 L 77.335938 12.128906 L 77.335938 16.171875 L 38.667969 16.171875 Z M 38.667969 12.128906 "/>
<path style=" stroke:none;fill-rule:nonzero;fill:rgb(66.27451%,66.27451%,66.27451%);fill-opacity:1;" d="M 77.332031 8.085938 L 116 8.085938 L 116 12.128906 L 77.332031 12.128906 Z M 77.332031 8.085938 "/>
<path style=" stroke:none;fill-rule:nonzero;fill:rgb(0%,0%,0%);fill-opacity:1;" d="M 77.332031 12.128906 L 116 12.128906 L 116 16.171875 L 77.332031 16.171875 Z M 77.332031 12.128906 "/>
<path style=" stroke:none;fill-rule:nonzero;fill:rgb(50.196078%,50.196078%,50.196078%);fill-opacity:1;" d="M 0 16.171875 L 38.667969 16.171875 L 38.667969 20.214844 L 0 20.214844 Z M 0 16.171875 "/>
<path style=" stroke:none;fill-rule:nonzero;fill:rgb(50.196078%,50.196078%,50.196078%);fill-opacity:1;" d="M 0 20.214844 L 38.667969 20.214844 L 38.667969 24.257812 L 0 24.257812 Z M 0 20.214844 "/>
<path style=" stroke:none;fill-rule:nonzero;fill:rgb(82.745098%,82.745098%,82.745098%);fill-opacity:1;" d="M 38.667969 16.171875 L 77.335938 16.171875 L 77.335938 20.214844 L 38.667969 20.214844 Z M 38.667969 16.171875 "/>
<path style=" stroke:none;fill-rule:nonzero;fill:rgb(0%,0%,0%);fill-opacity:1;" d="M 38.667969 20.214844 L 77.335938 20.214844 L 77.335938 24.257812 L 38.667969 24.257812 Z M 38.667969 20.214844 "/>
<path style=" stroke:none;fill-rule:nonzero;fill:rgb(66.27451%,66.27451%,66.27451%);fill-opacity:1;" d="M 77.332031 16.171875 L 116 16.171875 L 116 20.214844 L 77.332031 20.214844 Z M 77.332031 16.171875 "/>
<path style=" stroke:none;fill-rule:nonzero;fill:rgb(50.196078%,50.196078%,50.196078%);fill-opacity:1;" d="M 77.332031 20.214844 L 116 20.214844 L 116 24.257812 L 77.332031 24.257812 Z M 77.332031 20.214844 "/>
<path style=" stroke:none;fill-rule:nonzero;fill:rgb(50.196078%,50.196078%,50.196078%);fill-opacity:1;" d="M 0 24.257812 L 38.667969 24.257812 L 38.667969 28.300781 L 0 28.300781 Z M 0 24.257812 "/>
<path style=" stroke:none;fill-rule:nonzero;fill:rgb(0%,0%,0%);fill-opacity:1;" d="M 0 28.300781 L 38.667969 28.300781 L 38.667969 32.34375 L 0 32.34375 Z M 0 28.300781 "/>
<path style=" stroke:none;fill-rule:nonzero;fill:rgb(82.745098%,82.745098%,82.745098%);fill-opacity:1;" d="M 38.667969 24.257812 L 77.335938 24.257812 L 77.335938 28.300781 L 38.667969 28.300781 Z M 38.667969 24.257812 "/>
<path style=" stroke:none;fill-rule:nonzero;fill:rgb(50.196078%,50.196078%,50.196078%);fill-opacity:1;" d="M 38.667969 28.300781 L 77.335938 28.300781 L 77.335938 32.34375 L 38.667969 32.34375 Z M 38.667969 28.300781 "/>
<path style=" stroke:none;fill-rule:nonzero;fill:rgb(66.27451%,66.27451%,66.27451%);fill-opacity:1;" d="M 77.332031 24.257812 L 116 24.257812 L 116 28.300781 L 77.332031 28.300781 Z M 77.332031 24.257812 "/>
<path style=" stroke:none;fill-rule:nonzero;fill:rgb(0%,0%,0%);fill-opacity:1;" d="M 77.332031 28.300781 L 116 28.300781 L 116 32.34375 L 77.332031 32.34375 Z M 77.332031 28.300781 "/>
<path style=" stroke:none;fill-rule:nonzero;fill:rgb(50.196078%,50.196078%,50.196078%);fill-opacity:1;" d="M 0 32.34375 L 38.667969 32.34375 L 38.667969 36.386719 L 0 36.386719 Z M 0 32.34375 "/>
<path style=" stroke:none;fill-rule:nonzero;fill:rgb(50.196078%,50.196078%,50.196078%);fill-opacity:1;" d="M 0 36.386719 L 38.667969 36.386719 L 38.667969 40.429688 L 0 40.429688 Z M 0 36.386719 "/>
<path style=" stroke:none;fill-rule:nonzero;fill:rgb(82.745098%,82.745098%,82.745098%);fill-opacity:1;" d="M 38.667969 32.34375 L 77.335938 32.34375 L 77.335938 36.386719 L 38.667969 36.386719 Z M 38.667969 32.34375 "/>
<path style=" stroke:none;fill-rule:nonzero;fill:rgb(0%,0%,0%);fill-opacity:1;" d="M 38.667969 36.386719 L 77.335938 36.386719 L 77.335938 40.429688 L 38.667969 40.429688 Z M 38.667969 36.386719 "/>
<path style=" stroke:none;fill-rule:nonzero;fill:rgb(66.27451%,66.27451%,66.27451%);fill-opacity:1;" d="M 77.332031 32.34375 L 116 32.34375 L 116 36.386719 L 77.332031 36.386719 Z M 77.332031 32.34375 "/>
<path style=" stroke:none;fill-rule:nonzero;fill:rgb(50.196078%,50.196078%,50.196078%);fill-opacity:1;" d="M 77.332031 36.386719 L 116 36.386719 L 116 40.429688 L 77.332031 40.429688 Z M 77.332031 36.386719 "/>
<path style=" stroke:none;fill-rule:nonzero;fill:rgb(50.196078%,50.196078%,50.196078%);fill-opacity:1;" d="M 0 40.429688 L 38.667969 40.429688 L 38.667969 44.472656 L 0 44.472656 Z M 0 40.429688 "/>
<path style=" stroke:none;fill-rule:nonzero;fill:rgb(0%,0%,0%);fill-opacity:1;" d="M 0 44.472656 L 38.667969 44.472656 L 38.667969 48.515625 L 0 48.515625 Z M 0 44.472656 "/>
<path style=" stroke:none;fill-rule:nonzero;fill:rgb(82.745098%,82.745098%,82.745098%);fill-opacity:1;" d="M 38.667969 40.429688 L 77.335938 40.429688 L 77.335938 44.472656 L 38.667969 44.472656 Z M 38.667969 40.429688 "/>
<path style=" stroke:none;fill-rule:nonzero;fill:rgb(50.196078%,50.196078%,50.196078%);fill-opacity:1;" d="M 38.667969 44.472656 L 77.335938 44.472656 L 77.335938 48.515625 L 38.667969 48.515625 Z M 38.667969 44.472656 "/>
<path style=" stroke:none;fill-rule:nonzero;fill:rgb(66.27451%,66.27451%,66.27451%);fill-opacity:1;" d="M 77.332031 40.429688 L 116 40.429688 L 116 44.472656 L 77.332031 44.472656 Z M 77.332031 40.429688 "/>
<path style=" stroke:none;fill-rule:nonzero;fill:rgb(0%,0%,0%);fill-opacity:1;" d="M 77.332031 44.472656 L 116 44.472656 L 116 48.515625 L 77.332031 48.515625 Z M 77.332031 44.472656 "/>
<path style=" stroke:none;fill-rule:nonzero;fill:rgb(50.196078%,50.196078%,50.196078%);fill-opacity:1;" d="M 0 48.515625 L 38.667969 48.515625 L 38.667969 52.558594 L 0 52.558594 Z M 0 48.515625 "/>
<path style=" stroke:none;fill-rule:nonzero;fill:rgb(50.196078%,50.196078%,50.196078%);fill-opacity:1;" d="M 0 52.558594 L 38.667969 52.558594 L 38.667969 56.601562 L 0 56.601562 Z M 0 52.558594 "/>
<path style=" stroke:none;fill-rule:nonzero;fill:rgb(82.745098%,82.745098%,82.745098%);fill-opacity:1;" d="M 38.667969 48.515625 L 77.335938 48.515625 L 77.335938 52.558594 L 38.667969 52.558594 Z M 38.667969 48.515625 "/>
<path style=" stroke:none;fill-rule:nonzero;fill:rgb(0%,0%,0%);fill-opacity:1;" d="M 38.667969 52.558594 L 77.335938 52.558594 L 77.335938 56.601562 L 38.667969 56.601562 Z M 38.667969 52.558594 "/>
<path style=" stroke:none;fill-rule:nonzero;fill:rgb(66.27451%,66.27451%,66.27451%);fill-opacity:1;" d="M 77.332031 48.515625 L 116 48.515625 L 116 52.558594 L 77.332031 52.558594 Z M 77.332031 48.515625 "/>
<path style=" stroke:none;fill-rule:nonzero;fill:rgb(50.196078%,50.196078%,50.196078%);fill-opacity:1;" d="M 77.332031 52.558594 L 116 52.558594 L 116 56.601562 L 77.332031 56.601562 Z M 77.332031 52.558594 "/>
<path style=" stroke:none;fill-rule:nonzero;fill:rgb(50.196078%,50.196078%,50.196078%);fill-opacity:1;" d="M 0 56.601562 L 38.667969 56.601562 L 38.667969 60.644531 L 0 60.644531 Z M 0 56.601562 "/>
<path style=" stroke:none;fill-rule:nonzero;fill:rgb(0%,0%,0%);fill-opacity:1;" d="M 0 60.644531 L 38.667969 60.644531 L 38.667969 64.6875 L 0 64.6875 Z M 0 60.644531 "/>
<path style=" stroke:none;fill-rule:nonzero;fill:rgb(82.745098%,82.745098%,82.745098%);fill-opacity:1;" d="M 38.667969 56.601562 L 77.335938 56.601562 L 77.335938 60.644531 L 38.667969 60.644531 Z M 38.667969 56.601562 "/>
<path style=" stroke:none;fill-rule:nonzero;fill:rgb(50.196078%,50.196078%,50.196078%);fill-opacity:1;" d="M 38.667969 60.644531 L 77.335938 60.644531 L 77.335938 64.6875 L 38.667969 64.6875 Z M 38.667969 60.644531 "/>
<path style=" stroke:none;fill-rule:nonzero;fill:rgb(66.27451%,66.27451%,66.27451%);fill-opacity:1;" d="M 77.332031 56.601562 L 116 56.601562 L 116 60.644531 L 77.332031 60.644531 Z M 77.332031 56.601562 "/>
<path style=" stroke:none;fill-rule:nonzero;fill:rgb(0%,0%,0%);fill-opacity:1;" d="M 77.332031 60.644531 L 116 60.644531 L 116 64.6875 L 77.332031 64.6875 Z M 77.332031 60.644531 "/>
<path style=" stroke:none;fill-rule:nonzero;fill:rgb(50.196078%,50.196078%,50.196078%);fill-opacity:1;" d="M 0 64.6875 L 38.667969 64.6875 L 38.667969 68.730469 L 0 68.730469 Z M 0 64.6875 "/>
<path style=" stroke:none;fill-rule:nonzero;fill:rgb(50.196078%,50.196078%,50.196078%);fill-opacity:1;" d="M 0 68.730469 L 38.667969 68.730469 L 38.667969 72.773438 L 0 72.773438 Z M 0 68.730469 "/>
<path style=" stroke:none;fill-rule:nonzero;fill:rgb(82.745098%,82.745098%,82.745098%);fill-opacity:1;" d="M 38.667969 64.6875 L 77.335938 64.6875 L 77.335938 68.730469 L 38.667969 68.730469 Z M 38.667969 64.6875 "/>
<path style=" stroke:none;fill-rule:nonzero;fill:rgb(0%,0%,0%);fill-opacity:1;" d="M 38.667969 68.730469 L 77.335938 68.730469 L 77.335938 72.773438 L 38.667969 72.773438 Z M 38.667969 68.730469 "/>
<path style=" stroke:none;fill-rule:nonzero;fill:rgb(66.27451%,66.27451%,66.27451%);fill-opacity:1;" d="M 77.332031 64.6875 L 116 64.6875 L 116 68.730469 L 77.332031 68.730469 Z M 77.332031 64.6875 "/>
<path style=" stroke:none;fill-rule:nonzero;fill:rgb(50.196078%,50.196078%,50.196078%);fill-opacity:1;" d="M 77.332031 68.730469 L 116 68.730469 L 116 72.773438 L 77.332031 72.773438 Z M 77.332031 68.730469 "/>
<path style=" stroke:none;fill-rule:nonzero;fill:rgb(50.196078%,50.196078%,50.196078%);fill-opacity:1;" d="M 0 72.769531 L 38.667969 72.769531 L 38.667969 76.8125 L 0 76.8125 Z M 0 72.769531 "/>
<path style=" stroke:none;fill-rule:nonzero;fill:rgb(0%,0%,0%);fill-opacity:1;" d="M 0 76.8125 L 38.667969 76.8125 L 38.667969 80.855469 L 0 80.855469 Z M 0 76.8125 "/>
<path style=" stroke:none;fill-rule:nonzero;fill:rgb(82.745098%,82.745098%,82.745098%);fill-opacity:1;" d="M 38.667969 72.769531 L 77.335938 72.769531 L 77.335938 76.8125 L 38.667969 76.8125 Z M 38.667969 72.769531 "/>
<path style=" stroke:none;fill-rule:nonzero;fill:rgb(50.196078%,50.196078%,50.196078%);fill-opacity:1;" d="M 38.667969 76.8125 L 77.335938 76.8125 L 77.335938 80.855469 L 38.667969 80.855469 Z M 38.667969 76.8125 "/>
<path style=" stroke:none;fill-rule:nonzero;fill:rgb(66.27451%,66.27451%,66.27451%);fill-opacity:1;" d="M 77.332031 72.769531 L 116 72.769531 L 116 76.8125 L 77.332031 76.8125 Z M 77.332031 72.769531 "/>
<path style=" stroke:none;fill-rule:nonzero;fill:rgb(0%,0%,0%);fill-opacity:1;" d="M 77.332031 76.8125 L 116 76.8125 L 116 80.855469 L 77.332031 80.855469 Z M 77.332031 76.8125 "/>
<path style=" stroke:none;fill-rule:nonzero;fill:rgb(50.196078%,50.196078%,50.196078%);fill-opacity:1;" d="M 0 80.855469 L 38.667969 80.855469 L 38.667969 84.898438 L 0 84.898438 Z M 0 80.855469 "/>
<path style=" stroke:none;fill-rule:nonzero;fill:rgb(50.196078%,50.196078%,50.196078%);fill-opacity:1;" d="M 0 84.898438 L 38.667969 84.898438 L 38.667969 88.941406 L 0 88.941406 Z M 0 84.898438 "/>
<path style=" stroke:none;fill-rule:nonzero;fill:rgb(82.745098%,82.745098%,82.745098%);fill-opacity:1;" d="M 38.667969 80.855469 L 77.335938 80.855469 L 77.335938 84.898438 L 38.667969 84.898438 Z M 38.667969 80.855469 "/>
<path style=" stroke:none;fill-rule:nonzero;fill:rgb(0%,0%,0%);fill-opacity:1;" d="M 38.667969 84.898438 L 77.335938 84.898438 L 77.335938 88.941406 L 38.667969 88.941406 Z M 38.667969 84.898438 "/>
<path style=" stroke:none;fill-rule:nonzero;fill:rgb(66.27451%,66.27451%,66.27451%);fill-opacity:1;" d="M 77.332031 80.855469 L 116 80.855469 L 116 84.898438 L 77.332031 84.898438 Z M 77.332031 80.855469 "/>
<path style=" stroke:none;fill-rule:nonzero;fill:rgb(50.196078%,50.196078%,50.196078%);fill-opacity:1;" d="M 77.332031 84.898438 L 116 84.898438 L 116 88.941406 L 77.332031 88.941406 Z M 77.332031 84.898438 "/>
<path style=" stroke:none;fill-rule:nonzero;fill:rgb(50.196078%,50.196078%,50.196078%);fill-opacity:1;" d="M 0 88.941406 L 38.667969 88.941406 L 38.667969 92.984375 L 0 92.984375 Z M 0 88.941406 "/>
<path style=" stroke:none;fill-rule:nonzero;fill:rgb(0%,0%,0%);fill-opacity:1;" d="M 0 92.984375 L 38.667969 92.984375 L 38.667969 97.027344 L 0 97.027344 Z M 0 92.984375 "/>
<path style=" stroke:none;fill-rule:nonzero;fill:rgb(82.745098%,82.745098%,82.745098%);fill-opacity:1;" d="M 38.667969 88.941406 L 77.335938 88.941406 L 77.335938 92.984375 L 38.667969 92.984375 Z M 38.667969 88.941406 "/>
<path style=" stroke:none;fill-rule:nonzero;fill:rgb(50.196078%,50.196078%,50.196078%);fill-opacity:1;" d="M 38.667969 92.984375 L 77.335938 92.984375 L 77.335938 97.027344 L 38.667969 97.027344 Z M 38.667969 92.984375 "/>
<path style=" stroke:none;fill-rule:nonzero;fill:rgb(66.27451%,66.27451%,66.27451%);fill-opacity:1;" d="M 77.332031 88.941406 L 116 88.941406 L 116 92.984375 L 77.332031 92.984375 Z M 77.332031 88.941406 "/>
<path style=" stroke:none;fill-rule:nonzero;fill:rgb(0%,0%,0%);fill-opacity:1;" d="M 77.332031 92.984375 L 116 92.984375 L 116 97.027344 L 77.332031 97.027344 Z M 77.332031 92.984375 "/>
<path style=" stroke:none;fill-rule:nonzero;fill:rgb(50.196078%,50.196078%,50.196078%);fill-opacity:1;" d="M 0 97.027344 L 38.667969 97.027344 L 38.667969 101.070312 L 0 101.070312 Z M 0 97.027344 "/>
<path style=" stroke:none;fill-rule:nonzero;fill:rgb(50.196078%,50.196078%,50.196078%);fill-opacity:1;" d="M 0 101.070312 L 38.667969 101.070312 L 38.667969 105.113281 L 0 105.113281 Z M 0 101.070312 "/>
<path style=" stroke:none;fill-rule:nonzero;fill:rgb(82.745098%,82.745098%,82.745098%);fill-opacity:1;" d="M 38.667969 97.027344 L 77.335938 97.027344 L 77.335938 101.070312 L 38.667969 101.070312 Z M 38.667969 97.027344 "/>
<path style=" stroke:none;fill-rule:nonzero;fill:rgb(0%,0%,0%);fill-opacity:1;" d="M 38.667969 101.070312 L 77.335938 101.070312 L 77.335938 105.113281 L 38.667969 105.113281 Z M 38.667969 101.070312 "/>
<path style=" stroke:none;fill-rule:nonzero;fill:rgb(66.27451%,66.27451%,66.27451%);fill-opacity:1;" d="M 77.332031 97.027344 L 116 97.027344 L 116 101.070312 L 77.332031 101.070312 Z M 77.332031 97.027344 "/>
<path style=" stroke:none;fill-rule:nonzero;fill:rgb(50.196078%,50.196078%,50.196078%);fill-opacity:1;" d="M 77.332031 101.070312 L 116 101.070312 L 116 105.113281 L 77.332031 105.113281 Z M 77.332031 101.070312 "/>
<path style=" stroke:none;fill-rule:nonzero;fill:rgb(50.196078%,50.196078%,50.196078%);fill-opacity:1;" d="M 0 105.113281 L 38.667969 105.113281 L 38.667969 109.15625 L 0 109.15625 Z M 0 105.113281 "/>
<path style=" stroke:none;fill-rule:nonzero;fill:rgb(0%,0%,0%);fill-opacity:1;" d="M 0 109.15625 L 38.667969 109.15625 L 38.667969 113.199219 L 0 113.199219 Z M 0 109.15625 "/>
<path style=" stroke:none;fill-rule:nonzero;fill:rgb(82.745098%,82.745098%,82.745098%);fill-opacity:1;" d="M 38.667969 105.113281 L 77.335938 105.113281 L 77.335938 109.15625 L 38.667969 109.15625 Z M 38.667969 105.113281 "/>
<path style=" stroke:none;fill-rule:nonzero;fill:rgb(50.196078%,50.196078%,50.196078%);fill-opacity:1;" d="M 38.667969 109.15625 L 77.335938 109.15625 L 77.335938 113.199219 L 38.667969 113.199219 Z M 38.667969 109.15625 "/>
<path style=" stroke:none;fill-rule:nonzero;fill:rgb(66.27451%,66.27451%,66.27451%);fill-opacity:1;" d="M 77.332031 105.113281 L 116 105.113281 L 116 109.15625 L 77.332031 109.15625 Z M 77.332031 105.113281 "/>
<path style=" stroke:none;fill-rule:nonzero;fill:rgb(0%,0%,0%);fill-opacity:1;" d="M 77.332031 109.15625 L 116 109.15625 L 116 113.199219 L 77.332031 113.199219 Z M 77.332031 109.15625 "/>
<path style=" stroke:none;fill-rule:nonzero;fill:rgb(50.196078%,50.196078%,50.196078%);fill-opacity:1;" d="M 0 113.199219 L 38.667969 113.199219 L 38.667969 117.242188 L 0 117.242188 Z M 0 113.199219 "/>
<path style=" stroke:none;fill-rule:nonzero;fill:rgb(50.196078%,50.196078%,50.196078%);fill-opacity:1;" d="M 0 117.242188 L 38.667969 117.242188 L 38.667969 121.285156 L 0 121.285156 Z M 0 117.242188 "/>
<path style=" stroke:none;fill-rule:nonzero;fill:rgb(82.745098%,82.745098%,82.745098%);fill-opacity:1;" d="M 38.667969 113.199219 L 77.335938 113.199219 L 77.335938 117.242188 L 38.667969 117.242188 Z M 38.667969 113.199219 "/>
<path style=" stroke:none;fill-rule:nonzero;fill:rgb(0%,0%,0%);fill-opacity:1;" d="M 38.667969 117.242188 L 77.335938 117.242188 L 77.335938 121.285156 L 38.667969 121.285156 Z M 38.667969 117.242188 "/>
<path style=" stroke:none;fill-rule:nonzero;fill:rgb(66.27451%,66.27451%,66.27451%);fill-opacity:1;" d="M 77.332031 113.199219 L 116 113.199219 L 116 117.242188 L 77.332031 117.242188 Z M 77.332031 113.199219 "/>
<path style=" stroke:none;fill-rule:nonzero;fill:rgb(50.196078%,50.196078%,50.196078%);fill-opacity:1;" d="M 77.332031 117.242188 L 116 117.242188 L 116 121.285156 L 77.332031 121.285156 Z M 77.332031 117.242188 "/>
<path style=" stroke:none;fill-rule:nonzero;fill:rgb(50.196078%,50.196078%,50.196078%);fill-opacity:1;" d="M 0 121.285156 L 38.667969 121.285156 L 38.667969 125.328125 L 0 125.328125 Z M 0 121.285156 "/>
<path style=" stroke:none;fill-rule:nonzero;fill:rgb(0%,0%,0%);fill-opacity:1;" d="M 0 125.328125 L 38.667969 125.328125 L 38.667969 129.371094 L 0 129.371094 Z M 0 125.328125 "/>
<path style=" stroke:none;fill-rule:nonzero;fill:rgb(82.745098%,82.745098%,82.745098%);fill-opacity:1;" d="M 38.667969 121.285156 L 77.335938 121.285156 L 77.335938 125.328125 L 38.667969 125.328125 Z M 38.667969 121.285156 "/>
<path style=" stroke:none;fill-rule:nonzero;fill:rgb(50.196078%,50.196078%,50.196078%);fill-opacity:1;" d="M 38.667969 125.328125 L 77.335938 125.328125 L 77.335938 129.371094 L 38.667969 129.371094 Z M 38.667969 125.328125 "/>
<path style=" stroke:none;fill-rule:nonzero;fill:rgb(66.27451%,66.27451%,66.27451%);fill-opacity:1;" d="M 77.332031 121.285156 L 116 121.285156 L 116 125.328125 L 77.332031 125.328125 Z M 77.332031 121.285156 "/>
<path style=" stroke:none;fill-rule:nonzero;fill:rgb(0%,0%,0%);fill-opacity:1;" d="M 77.332031 125.328125 L 116 125.328125 L 116 129.371094 L 77.332031 129.371094 Z M 77.332031 125.328125 "/>
<path style=" stroke:none;fill-rule:nonzero;fill:rgb(50.196078%,50.196078%,50.196078%);fill-opacity:1;" d="M 0 129.371094 L 38.667969 129.371094 L 38.667969 133.414062 L 0 133.414062 Z M 0 129.371094 "/>
<path style=" stroke:none;fill-rule:nonzero;fill:rgb(50.196078%,50.196078%,50.196078%);fill-opacity:1;" d="M 0 133.414062 L 38.667969 133.414062 L 38.667969 137.457031 L 0 137.457031 Z M 0 133.414062 "/>
<path style=" stroke:none;fill-rule:nonzero;fill:rgb(82.745098%,82.745098%,82.745098%);fill-opacity:1;" d="M 38.667969 129.371094 L 77.335938 129.371094 L 77.335938 133.414062 L 38.667969 133.414062 Z M 38.667969 129.371094 "/>
<path style=" stroke:none;fill-rule:nonzero;fill:rgb(0%,0%,0%);fill-opacity:1;" d="M 38.667969 133.414062 L 77.335938 133.414062 L 77.335938 137.457031 L 38.667969 137.457031 Z M 38.667969 133.414062 "/>
<path style=" stroke:none;fill-rule:nonzero;fill:rgb(66.27451%,66.27451%,66.27451%);fill-opacity:1;" d="M 77.332031 129.371094 L 116 129.371094 L 116 133.414062 L 77.332031 133.414062 Z M 77.332031 129.371094 "/>
<path style=" stroke:none;fill-rule:nonzero;fill:rgb(50.196078%,50.196078%,50.196078%);fill-opacity:1;" d="M 77.332031 133.414062 L 116 133.414062 L 116 137.457031 L 77.332031 137.457031 Z M 77.332031 133.414062 "/>
<path style=" stroke:none;fill-rule:nonzero;fill:rgb(50.196078%,50.196078%,50.196078%);fill-opacity:1;" d="M 0 137.457031 L 38.667969 137.457031 L 38.667969 141.5 L 0 141.5 Z M 0 137.457031 "/>
<path style=" stroke:none;fill-rule:nonzero;fill:rgb(0%,0%,0%);fill-opacity:1;" d="M 0 141.5 L 38.667969 141.5 L 38.667969 145.542969 L 0 145.542969 Z M 0 141.5 "/>
<path style=" stroke:none;fill-rule:nonzero;fill:rgb(82.745098%,82.745098%,82.745098%);fill-opacity:1;" d="M 38.667969 137.457031 L 77.335938 137.457031 L 77.335938 141.5 L 38.667969 141.5 Z M 38.667969 137.457031 "/>
<path style=" stroke:none;fill-rule:nonzero;fill:rgb(50.196078%,50.196078%,50.196078%);fill-opacity:1;" d="M 38.667969 141.5 L 77.335938 141.5 L 77.335938 145.542969 L 38.667969 145.542969 Z M 38.667969 141.5 "/>
<path style=" stroke:none;fill-rule:nonzero;fill:rgb(66.27451%,66.27451%,66.27451%);fill-opacity:1;" d="M 77.332031 137.457031 L 116 137.457031 L 116 141.5 L 77.332031 141.5 Z M 77.332031 137.457031 "/>
<path style=" stroke:none;fill-rule:nonzero;fill:rgb(0%,0%,0%);fill-opacity:1;" d="M 77.332031 141.5 L 116 141.5 L 116 145.542969 L 77.332031 145.542969 Z M 77.332031 141.5 "/>
<path style=" stroke:none;fill-rule:nonzero;fill:rgb(50.196078%,50.196078%,50.196078%);fill-opacity:1;" d="M 0 145.542969 L 38.667969 145.542969 L 38.667969 149.585938 L 0 149.585938 Z M 0 145.542969 "/>
<path style=" stroke:none;fill-rule:nonzero;fill:rgb(50.196078%,50.196078%,50.196078%);fill-opacity:1;" d="M 0 149.585938 L 38.667969 149.585938 L 38.667969 153.628906 L 0 153.628906 Z M 0 149.585938 "/>
<path style=" stroke:none;fill-rule:nonzero;fill:rgb(82.745098%,82.745098%,82.745098%);fill-opacity:1;" d="M 38.667969 145.542969 L 77.335938 145.542969 L 77.335938 149.585938 L 38.667969 149.585938 Z M 38.667969 145.542969 "/>
<path style=" stroke:none;fill-rule:nonzero;fill:rgb(0%,0%,0%);fill-opacity:1;" d="M 38.667969 149.585938 L 77.335938 149.585938 L 77.335938 153.628906 L 38.667969 153.628906 Z M 38.667969 149.585938 "/>
<path style=" stroke:none;fill-rule:nonzero;fill:rgb(66.27451%,66.27451%,66.27451%);fill-opacity:1;" d="M 77.332031 145.542969 L 116 145.542969 L 116 149.585938 L 77.332031 149.585938 Z M 77.332031 145.542969 "/>
<path style=" stroke:none;fill-rule:nonzero;fill:rgb(50.196078%,50.196078%,50.196078%);fill-opacity:1;" d="M 77.332031 149.585938 L 116 149.585938 L 116 153.628906 L 77.332031 153.628906 Z M 77.332031 149.585938 "/>
<path style=" stroke:none;fill-rule:nonzero;fill:rgb(50.196078%,50.196078%,50.196078%);fill-opacity:1;" d="M 0 153.628906 L 38.667969 153.628906 L 38.667969 157.671875 L 0 157.671875 Z M 0 153.628906 "/>
<path style=" stroke:none;fill-rule:nonzero;fill:rgb(0%,0%,0%);fill-opacity:1;" d="M 0 157.671875 L 38.667969 157.671875 L 38.667969 161.714844 L 0 161.714844 Z M 0 157.671875 "/>
<path style=" stroke:none;fill-rule:nonzero;fill:rgb(82.745098%,82.745098%,82.745098%);fill-opacity:1;" d="M 38.667969 153.628906 L 77.335938 153.628906 L 77.335938 157.671875 L 38.667969 157.671875 Z M 38.667969 153.628906 "/>
<path style=" stroke:none;fill-rule:nonzero;fill:rgb(50.196078%,50.196078%,50.196078%);fill-opacity:1;" d="M 38.667969 157.671875 L 77.335938 157.671875 L 77.335938 161.714844 L 38.667969 161.714844 Z M 38.667969 157.671875 "/>
<path style=" stroke:none;fill-rule:nonzero;fill:rgb(66.27451%,66.27451%,66.27451%);fill-opacity:1;" d="M 77.332031 153.628906 L 116 153.628906 L 116 157.671875 L 77.332031 157.671875 Z M 77.332031 153.628906 "/>
<path style=" stroke:none;fill-rule:nonzero;fill:rgb(0%,0%,0%);fill-opacity:1;" d="M 77.332031 157.671875 L 116 157.671875 L 116 161.714844 L 77.332031 161.714844 Z M 77.332031 157.671875 "/>
<path style=" stroke:none;fill-rule:nonzero;fill:rgb(50.196078%,50.196078%,50.196078%);fill-opacity:1;" d="M 0 161.714844 L 38.667969 161.714844 L 38.667969 165.757812 L 0 165.757812 Z M 0 161.714844 "/>
<path style=" stroke:none;fill-rule:nonzero;fill:rgb(50.196078%,50.196078%,50.196078%);fill-opacity:1;" d="M 0 165.757812 L 38.667969 165.757812 L 38.667969 169.800781 L 0 169.800781 Z M 0 165.757812 "/>
<path style=" stroke:none;fill-rule:nonzero;fill:rgb(82.745098%,82.745098%,82.745098%);fill-opacity:1;" d="M 38.667969 161.714844 L 77.335938 161.714844 L 77.335938 165.757812 L 38.667969 165.757812 Z M 38.667969 161.714844 "/>
<path style=" stroke:none;fill-rule:nonzero;fill:rgb(0%,0%,0%);fill-opacity:1;" d="M 38.667969 165.757812 L 77.335938 165.757812 L 77.335938 169.800781 L 38.667969 169.800781 Z M 38.667969 165.757812 "/>
<path style=" stroke:none;fill-rule:nonzero;fill:rgb(66.27451%,66.27451%,66.27451%);fill-opacity:1;" d="M 77.332031 161.714844 L 116 161.714844 L 116 165.757812 L 77.332031 165.757812 Z M 77.332031 161.714844 "/>
<path style=" stroke:none;fill-rule:nonzero;fill:rgb(50.196078%,50.196078%,50.196078%);fill-opacity:1;" d="M 77.332031 165.757812 L 116 165.757812 L 116 169.800781 L 77.332031 169.800781 Z M 77.332031 165.757812 "/>
<path style=" stroke:none;fill-rule:nonzero;fill:rgb(50.196078%,50.196078%,50.196078%);fill-opacity:1;" d="M 0 169.800781 L 38.667969 169.800781 L 38.667969 173.84375 L 0 173.84375 Z M 0 169.800781 "/>
<path style=" stroke:none;fill-rule:nonzero;fill:rgb(0%,0%,0%);fill-opacity:1;" d="M 0 173.84375 L 38.667969 173.84375 L 38.667969 177.886719 L 0 177.886719 Z M 0 173.84375 "/>
<path style=" stroke:none;fill-rule:nonzero;fill:rgb(82.745098%,82.745098%,82.745098%);fill-opacity:1;" d="M 38.667969 169.800781 L 77.335938 169.800781 L 77.335938 173.84375 L 38.667969 173.84375 Z M 38.667969 169.800781 "/>
<path style=" stroke:none;fill-rule:nonzero;fill:rgb(50.196078%,50.196078%,50.196078%);fill-opacity:1;" d="M 38.667969 173.84375 L 77.335938 173.84375 L 77.335938 177.886719 L 38.667969 177.886719 Z M 38.667969 173.84375 "/>
<path style=" stroke:none;fill-rule:nonzero;fill:rgb(66.27451%,66.27451%,66.27451%);fill-opacity:1;" d="M 77.332031 169.800781 L 116 169.800781 L 116 173.84375 L 77.332031 173.84375 Z M 77.332031 169.800781 "/>
<path style=" stroke:none;fill-rule:nonzero;fill:rgb(0%,0%,0%);fill-opacity:1;" d="M 77.332031 173.84375 L 116 173.84375 L 116 177.886719 L 77.332031 177.886719 Z M 77.332031 173.84375 "/>
<path style=" stroke:none;fill-rule:nonzero;fill:rgb(50.196078%,50.196078%,50.196078%);fill-opacity:1;" d="M 0 177.886719 L 38.667969 177.886719 L 38.667969 181.929688 L 0 181.929688 Z M 0 177.886719 "/>
<path style=" stroke:none;fill-rule:nonzero;fill:rgb(50.196078%,50.196078%,50.196078%);fill-opacity:1;" d="M 0 181.929688 L 38.667969 181.929688 L 38.667969 185.972656 L 0 185.972656 Z M 0 181.929688 "/>
<path style=" stroke:none;fill-rule:nonzero;fill:rgb(82.745098%,82.745098%,82.745098%);fill-opacity:1;" d="M 38.667969 177.886719 L 77.335938 177.886719 L 77.335938 181.929688 L 38.667969 181.929688 Z M 38.667969 177.886719 "/>
<path style=" stroke:none;fill-rule:nonzero;fill:rgb(0%,0%,0%);fill-opacity:1;" d="M 38.667969 181.929688 L 77.335938 181.929688 L 77.335938 185.972656 L 38.667969 185.972656 Z M 38.667969 181.929688 "/>
<path style=" stroke:none;fill-rule:nonzero;fill:rgb(66.27451%,66.27451%,66.27451%);fill-opacity:1;" d="M 77.332031 177.886719 L 116 177.886719 L 116 181.929688 L 77.332031 181.929688 Z M 77.332031 177.886719 "/>
<path style=" stroke:none;fill-rule:nonzero;fill:rgb(50.196078%,50.196078%,50.196078%);fill-opacity:1;" d="M 77.332031 181.929688 L 116 181.929688 L 116 185.972656 L 77.332031 185.972656 Z M 77.332031 181.929688 "/>
<path style=" stroke:none;fill-rule:nonzero;fill:rgb(50.196078%,50.196078%,50.196078%);fill-opacity:1;" d="M 0 185.972656 L 38.667969 185.972656 L 38.667969 190.015625 L 0 190.015625 Z M 0 185.972656 "/>
<path style=" stroke:none;fill-rule:nonzero;fill:rgb(0%,0%,0%);fill-opacity:1;" d="M 0 190.015625 L 38.667969 190.015625 L 38.667969 194.058594 L 0 194.058594 Z M 0 190.015625 "/>
<path style=" stroke:none;fill-rule:nonzero;fill:rgb(82.745098%,82.745098%,82.745098%);fill-opacity:1;" d="M 38.667969 185.972656 L 77.335938 185.972656 L 77.335938 190.015625 L 38.667969 190.015625 Z M 38.667969 185.972656 "/>
<path style=" stroke:none;fill-rule:nonzero;fill:rgb(50.196078%,50.196078%,50.196078%);fill-opacity:1;" d="M 38.667969 190.015625 L 77.335938 190.015625 L 77.335938 194.058594 L 38.667969 194.058594 Z M 38.667969 190.015625 "/>
<path style=" stroke:none;fill-rule:nonzero;fill:rgb(66.27451%,66.27451%,66.27451%);fill-opacity:1;" d="M 77.332031 185.972656 L 116 185.972656 L 116 190.015625 L 77.332031 190.015625 Z M 77.332031 185.972656 "/>
<path style=" stroke:none;fill-rule:nonzero;fill:rgb(0%,0%,0%);fill-opacity:1;" d="M 77.332031 190.015625 L 116 190.015625 L 116 194.058594 L 77.332031 194.058594 Z M 77.332031 190.015625 "/>
<path style=" stroke:none;fill-rule:nonzero;fill:rgb(50.196078%,50.196078%,50.196078%);fill-opacity:1;" d="M 0 194.058594 L 38.667969 194.058594 L 38.667969 198.101562 L 0 198.101562 Z M 0 194.058594 "/>
<path style=" stroke:none;fill-rule:nonzero;fill:rgb(50.196078%,50.196078%,50.196078%);fill-opacity:1;" d="M 0 198.101562 L 38.667969 198.101562 L 38.667969 202.144531 L 0 202.144531 Z M 0 198.101562 "/>
<path style=" stroke:none;fill-rule:nonzero;fill:rgb(82.745098%,82.745098%,82.745098%);fill-opacity:1;" d="M 38.667969 194.058594 L 77.335938 194.058594 L 77.335938 198.101562 L 38.667969 198.101562 Z M 38.667969 194.058594 "/>
<path style=" stroke:none;fill-rule:nonzero;fill:rgb(0%,0%,0%);fill-opacity:1;" d="M 38.667969 198.101562 L 77.335938 198.101562 L 77.335938 202.144531 L 38.667969 202.144531 Z M 38.667969 198.101562 "/>
<path style=" stroke:none;fill-rule:nonzero;fill:rgb(66.27451%,66.27451%,66.27451%);fill-opacity:1;" d="M 77.332031 194.058594 L 116 194.058594 L 116 198.101562 L 77.332031 198.101562 Z M 77.332031 194.058594 "/>
<path style=" stroke:none;fill-rule:nonzero;fill:rgb(50.196078%,50.196078%,50.196078%);fill-opacity:1;" d="M 77.332031 198.101562 L 116 198.101562 L 116 202.144531 L 77.332031 202.144531 Z M 77.332031 198.101562 "/>
<path style=" stroke:none;fill-rule:nonzero;fill:rgb(50.196078%,50.196078%,50.196078%);fill-opacity:1;" d="M 0 202.144531 L 38.667969 202.144531 L 38.667969 206.1875 L 0 206.1875 Z M 0 202.144531 "/>
<path style=" stroke:none;fill-rule:nonzero;fill:rgb(0%,0%,0%);fill-opacity:1;" d="M 0 206.1875 L 38.667969 206.1875 L 38.667969 210.230469 L 0 210.230469 Z M 0 206.1875 "/>
<path style=" stroke:none;fill-rule:nonzero;fill:rgb(82.745098%,82.745098%,82.745098%);fill-opacity:1;" d="M 38.667969 202.144531 L 77.335938 202.144531 L 77.335938 206.1875 L 38.667969 206.1875 Z M 38.667969 202.144531 "/>
<path style=" stroke:none;fill-rule:nonzero;fill:rgb(50.196078%,50.196078%,50.196078%);fill-opacity:1;" d="M 38.667969 206.1875 L 77.335938 206.1875 L 77.335938 210.230469 L 38.667969 210.230469 Z M 38.667969 206.1875 "/>
<path style=" stroke:none;fill-rule:nonzero;fill:rgb(66.27451%,66.27451%,66.27451%);fill-opacity:1;" d="M 77.332031 202.144531 L 116 202.144531 L 116 206.1875 L 77.332031 206.1875 Z M 77.332031 202.144531 "/>
<path style=" stroke:none;fill-rule:nonzero;fill:rgb(0%,0%,0%);fill-opacity:1;" d="M 77.332031 206.1875 L 116 206.1875 L 116 210.230469 L 77.332031 210.230469 Z M 77.332031 206.1875 "/>
<path style=" stroke:none;fill-rule:nonzero;fill:rgb(50.196078%,50.196078%,50.196078%);fill-opacity:1;" d="M 0 210.230469 L 38.667969 210.230469 L 38.667969 214.273438 L 0 214.273438 Z M 0 210.230469 "/>
<path style=" stroke:none;fill-rule:nonzero;fill:rgb(50.196078%,50.196078%,50.196078%);fill-opacity:1;" d="M 0 214.269531 L 38.667969 214.269531 L 38.667969 218.3125 L 0 218.3125 Z M 0 214.269531 "/>
<path style=" stroke:none;fill-rule:nonzero;fill:rgb(82.745098%,82.745098%,82.745098%);fill-opacity:1;" d="M 38.667969 210.230469 L 77.335938 210.230469 L 77.335938 214.273438 L 38.667969 214.273438 Z M 38.667969 210.230469 "/>
<path style=" stroke:none;fill-rule:nonzero;fill:rgb(0%,0%,0%);fill-opacity:1;" d="M 38.667969 214.269531 L 77.335938 214.269531 L 77.335938 218.3125 L 38.667969 218.3125 Z M 38.667969 214.269531 "/>
<path style=" stroke:none;fill-rule:nonzero;fill:rgb(66.27451%,66.27451%,66.27451%);fill-opacity:1;" d="M 77.332031 210.230469 L 116 210.230469 L 116 214.273438 L 77.332031 214.273438 Z M 77.332031 210.230469 "/>
<path style=" stroke:none;fill-rule:nonzero;fill:rgb(50.196078%,50.196078%,50.196078%);fill-opacity:1;" d="M 77.332031 214.269531 L 116 214.269531 L 116 218.3125 L 77.332031 218.3125 Z M 77.332031 214.269531 "/>
<path style=" stroke:none;fill-rule:nonzero;fill:rgb(50.196078%,50.196078%,50.196078%);fill-opacity:1;" d="M 0 218.3125 L 38.667969 218.3125 L 38.667969 222.355469 L 0 222.355469 Z M 0 218.3125 "/>
<path style=" stroke:none;fill-rule:nonzero;fill:rgb(0%,0%,0%);fill-opacity:1;" d="M 0 222.355469 L 38.667969 222.355469 L 38.667969 226.398438 L 0 226.398438 Z M 0 222.355469 "/>
<path style=" stroke:none;fill-rule:nonzero;fill:rgb(82.745098%,82.745098%,82.745098%);fill-opacity:1;" d="M 38.667969 218.3125 L 77.335938 218.3125 L 77.335938 222.355469 L 38.667969 222.355469 Z M 38.667969 218.3125 "/>
<path style=" stroke:none;fill-rule:nonzero;fill:rgb(50.196078%,50.196078%,50.196078%);fill-opacity:1;" d="M 38.667969 222.355469 L 77.335938 222.355469 L 77.335938 226.398438 L 38.667969 226.398438 Z M 38.667969 222.355469 "/>
<path style=" stroke:none;fill-rule:nonzero;fill:rgb(66.27451%,66.27451%,66.27451%);fill-opacity:1;" d="M 77.332031 218.3125 L 116 218.3125 L 116 222.355469 L 77.332031 222.355469 Z M 77.332031 218.3125 "/>
<path style=" stroke:none;fill-rule:nonzero;fill:rgb(0%,0%,0%);fill-opacity:1;" d="M 77.332031 222.355469 L 116 222.355469 L 116 226.398438 L 77.332031 226.398438 Z M 77.332031 222.355469 "/>
<path style=" stroke:none;fill-rule:nonzero;fill:rgb(50.196078%,50.196078%,50.196078%);fill-opacity:1;" d="M 0 226.398438 L 38.667969 226.398438 L 38.667969 230.441406 L 0 230.441406 Z M 0 226.398438 "/>
<path style=" stroke:none;fill-rule:nonzero;fill:rgb(50.196078%,50.196078%,50.196078%);fill-opacity:1;" d="M 0 230.441406 L 38.667969 230.441406 L 38.667969 234.484375 L 0 234.484375 Z M 0 230.441406 "/>
<path style=" stroke:none;fill-rule:nonzero;fill:rgb(82.745098%,82.745098%,82.745098%);fill-opacity:1;" d="M 38.667969 226.398438 L 77.335938 226.398438 L 77.335938 230.441406 L 38.667969 230.441406 Z M 38.667969 226.398438 "/>
<path style=" stroke:none;fill-rule:nonzero;fill:rgb(0%,0%,0%);fill-opacity:1;" d="M 38.667969 230.441406 L 77.335938 230.441406 L 77.335938 234.484375 L 38.667969 234.484375 Z M 38.667969 230.441406 "/>
<path style=" stroke:none;fill-rule:nonzero;fill:rgb(66.27451%,66.27451%,66.27451%);fill-opacity:1;" d="M 77.332031 226.398438 L 116 226.398438 L 116 230.441406 L 77.332031 230.441406 Z M 77.332031 226.398438 "/>
<path style=" stroke:none;fill-rule:nonzero;fill:rgb(50.196078%,50.196078%,50.196078%);fill-opacity:1;" d="M 77.332031 230.441406 L 116 230.441406 L 116 234.484375 L 77.332031 234.484375 Z M 77.332031 230.441406 "/>
<path style=" stroke:none;fill-rule:nonzero;fill:rgb(50.196078%,50.196078%,50.196078%);fill-opacity:1;" d="M 0 234.484375 L 38.667969 234.484375 L 38.667969 238.527344 L 0 238.527344 Z M 0 234.484375 "/>
<path style=" stroke:none;fill-rule:nonzero;fill:rgb(0%,0%,0%);fill-opacity:1;" d="M 0 238.527344 L 38.667969 238.527344 L 38.667969 242.570312 L 0 242.570312 Z M 0 238.527344 "/>
<path style=" stroke:none;fill-rule:nonzero;fill:rgb(82.745098%,82.745098%,82.745098%);fill-opacity:1;" d="M 38.667969 234.484375 L 77.335938 234.484375 L 77.335938 238.527344 L 38.667969 238.527344 Z M 38.667969 234.484375 "/>
<path style=" stroke:none;fill-rule:nonzero;fill:rgb(50.196078%,50.196078%,50.196078%);fill-opacity:1;" d="M 38.667969 238.527344 L 77.335938 238.527344 L 77.335938 242.570312 L 38.667969 242.570312 Z M 38.667969 238.527344 "/>
<path style=" stroke:none;fill-rule:nonzero;fill:rgb(66.27451%,66.27451%,66.27451%);fill-opacity:1;" d="M 77.332031 234.484375 L 116 234.484375 L 116 238.527344 L 77.332031 238.527344 Z M 77.332031 234.484375 "/>
<path style=" stroke:none;fill-rule:nonzero;fill:rgb(0%,0%,0%);fill-opacity:1;" d="M 77.332031 238.527344 L 116 238.527344 L 116 242.570312 L 77.332031 242.570312 Z M 77.332031 238.527344 "/>
<path style=" stroke:none;fill-rule:nonzero;fill:rgb(50.196078%,50.196078%,50.196078%);fill-opacity:1;" d="M 0 242.570312 L 38.667969 242.570312 L 38.667969 246.613281 L 0 246.613281 Z M 0 242.570312 "/>
<path style=" stroke:none;fill-rule:nonzero;fill:rgb(50.196078%,50.196078%,50.196078%);fill-opacity:1;" d="M 0 246.613281 L 38.667969 246.613281 L 38.667969 250.65625 L 0 250.65625 Z M 0 246.613281 "/>
<path style=" stroke:none;fill-rule:nonzero;fill:rgb(82.745098%,82.745098%,82.745098%);fill-opacity:1;" d="M 38.667969 242.570312 L 77.335938 242.570312 L 77.335938 246.613281 L 38.667969 246.613281 Z M 38.667969 242.570312 "/>
<path style=" stroke:none;fill-rule:nonzero;fill:rgb(0%,0%,0%);fill-opacity:1;" d="M 38.667969 246.613281 L 77.335938 246.613281 L 77.335938 250.65625 L 38.667969 250.65625 Z M 38.667969 246.613281 "/>
<path style=" stroke:none;fill-rule:nonzero;fill:rgb(66.27451%,66.27451%,66.27451%);fill-opacity:1;" d="M 77.332031 242.570312 L 116 242.570312 L 116 246.613281 L 77.332031 246.613281 Z M 77.332031 242.570312 "/>
<path style=" stroke:none;fill-rule:nonzero;fill:rgb(50.196078%,50.196078%,50.196078%);fill-opacity:1;" d="M 77.332031 246.613281 L 116 246.613281 L 116 250.65625 L 77.332031 250.65625 Z M 77.332031 246.613281 "/>
<path style=" stroke:none;fill-rule:nonzero;fill:rgb(50.196078%,50.196078%,50.196078%);fill-opacity:1;" d="M 0 250.65625 L 38.667969 250.65625 L 38.667969 254.699219 L 0 254.699219 Z M 0 250.65625 "/>
<path style=" stroke:none;fill-rule:nonzero;fill:rgb(0%,0%,0%);fill-opacity:1;" d="M 0 254.699219 L 38.667969 254.699219 L 38.667969 258.742188 L 0 258.742188 Z M 0 254.699219 "/>
<path style=" stroke:none;fill-rule:nonzero;fill:rgb(82.745098%,82.745098%,82.745098%);fill-opacity:1;" d="M 38.667969 250.65625 L 77.335938 250.65625 L 77.335938 254.699219 L 38.667969 254.699219 Z M 38.667969 250.65625 "/>
<path style=" stroke:none;fill-rule:nonzero;fill:rgb(50.196078%,50.196078%,50.196078%);fill-opacity:1;" d="M 38.667969 254.699219 L 77.335938 254.699219 L 77.335938 258.742188 L 38.667969 258.742188 Z M 38.667969 254.699219 "/>
<path style=" stroke:none;fill-rule:nonzero;fill:rgb(66.27451%,66.27451%,66.27451%);fill-opacity:1;" d="M 77.332031 250.65625 L 116 250.65625 L 116 254.699219 L 77.332031 254.699219 Z M 77.332031 250.65625 "/>
<path style=" stroke:none;fill-rule:nonzero;fill:rgb(0%,0%,0%);fill-opacity:1;" d="M 77.332031 254.699219 L 116 254.699219 L 116 258.742188 L 77.332031 258.742188 Z M 77.332031 254.699219 "/>
<path style=" stroke:none;fill-rule:nonzero;fill:rgb(50.196078%,50.196078%,50.196078%);fill-opacity:1;" d="M 0 258.742188 L 38.667969 258.742188 L 38.667969 262.785156 L 0 262.785156 Z M 0 258.742188 "/>
<path style=" stroke:none;fill-rule:nonzero;fill:rgb(50.196078%,50.196078%,50.196078%);fill-opacity:1;" d="M 0 262.785156 L 38.667969 262.785156 L 38.667969 266.828125 L 0 266.828125 Z M 0 262.785156 "/>
<path style=" stroke:none;fill-rule:nonzero;fill:rgb(82.745098%,82.745098%,82.745098%);fill-opacity:1;" d="M 38.667969 258.742188 L 77.335938 258.742188 L 77.335938 262.785156 L 38.667969 262.785156 Z M 38.667969 258.742188 "/>
<path style=" stroke:none;fill-rule:nonzero;fill:rgb(0%,0%,0%);fill-opacity:1;" d="M 38.667969 262.785156 L 77.335938 262.785156 L 77.335938 266.828125 L 38.667969 266.828125 Z M 38.667969 262.785156 "/>
<path style=" stroke:none;fill-rule:nonzero;fill:rgb(66.27451%,66.27451%,66.27451%);fill-opacity:1;" d="M 77.332031 258.742188 L 116 258.742188 L 116 262.785156 L 77.332031 262.785156 Z M 77.332031 258.742188 "/>
<path style=" stroke:none;fill-rule:nonzero;fill:rgb(50.196078%,50.196078%,50.196078%);fill-opacity:1;" d="M 77.332031 262.785156 L 116 262.785156 L 116 266.828125 L 77.332031 266.828125 Z M 77.332031 262.785156 "/>
<path style=" stroke:none;fill-rule:nonzero;fill:rgb(50.196078%,50.196078%,50.196078%);fill-opacity:1;" d="M 0 266.828125 L 38.667969 266.828125 L 38.667969 270.871094 L 0 270.871094 Z M 0 266.828125 "/>
<path style=" stroke:none;fill-rule:nonzero;fill:rgb(0%,0%,0%);fill-opacity:1;" d="M 0 270.871094 L 38.667969 270.871094 L 38.667969 274.914062 L 0 274.914062 Z M 0 270.871094 "/>
<path style=" stroke:none;fill-rule:nonzero;fill:rgb(82.745098%,82.745098%,82.745098%);fill-opacity:1;" d="M 38.667969 266.828125 L 77.335938 266.828125 L 77.335938 270.871094 L 38.667969 270.871094 Z M 38.667969 266.828125 "/>
<path style=" stroke:none;fill-rule:nonzero;fill:rgb(50.196078%,50.196078%,50.196078%);fill-opacity:1;" d="M 38.667969 270.871094 L 77.335938 270.871094 L 77.335938 274.914062 L 38.667969 274.914062 Z M 38.667969 270.871094 "/>
<path style=" stroke:none;fill-rule:nonzero;fill:rgb(66.27451%,66.27451%,66.27451%);fill-opacity:1;" d="M 77.332031 266.828125 L 116 266.828125 L 116 270.871094 L 77.332031 270.871094 Z M 77.332031 266.828125 "/>
<path style=" stroke:none;fill-rule:nonzero;fill:rgb(0%,0%,0%);fill-opacity:1;" d="M 77.332031 270.871094 L 116 270.871094 L 116 274.914062 L 77.332031 274.914062 Z M 77.332031 270.871094 "/>
<path style=" stroke:none;fill-rule:nonzero;fill:rgb(50.196078%,50.196078%,50.196078%);fill-opacity:1;" d="M 0 274.914062 L 38.667969 274.914062 L 38.667969 278.957031 L 0 278.957031 Z M 0 274.914062 "/>
<path style=" stroke:none;fill-rule:nonzero;fill:rgb(50.196078%,50.196078%,50.196078%);fill-opacity:1;" d="M 0 278.957031 L 38.667969 278.957031 L 38.667969 283 L 0 283 Z M 0 278.957031 "/>
<path style=" stroke:none;fill-rule:nonzero;fill:rgb(82.745098%,82.745098%,82.745098%);fill-opacity:1;" d="M 38.667969 274.914062 L 77.335938 274.914062 L 77.335938 278.957031 L 38.667969 278.957031 Z M 38.667969 274.914062 "/>
<path style=" stroke:none;fill-rule:nonzero;fill:rgb(0%,0%,0%);fill-opacity:1;" d="M 38.667969 278.957031 L 77.335938 278.957031 L 77.335938 283 L 38.667969 283 Z M 38.667969 278.957031 "/>
<path style=" stroke:none;fill-rule:nonzero;fill:rgb(66.27451%,66.27451%,66.27451%);fill-opacity:1;" d="M 77.332031 274.914062 L 116 274.914062 L 116 278.957031 L 77.332031 278.957031 Z M 77.332031 274.914062 "/>
<path style=" stroke:none;fill-rule:nonzero;fill:rgb(50.196078%,50.196078%,50.196078%);fill-opacity:1;" d="M 77.332031 278.957031 L 116 278.957031 L 116 283 L 77.332031 283 Z M 77.332031 278.957031 "/>
<path style=" stroke:none;fill-rule:nonzero;fill:rgb(50.196078%,50.196078%,50.196078%);fill-opacity:1;" d="M 0 283 L 38.667969 283 L 38.667969 287.042969 L 0 287.042969 Z M 0 283 "/>
<path style=" stroke:none;fill-rule:nonzero;fill:rgb(0%,0%,0%);fill-opacity:1;" d="M 0 287.042969 L 38.667969 287.042969 L 38.667969 291.085938 L 0 291.085938 Z M 0 287.042969 "/>
<path style=" stroke:none;fill-rule:nonzero;fill:rgb(82.745098%,82.745098%,82.745098%);fill-opacity:1;" d="M 38.667969 283 L 77.335938 283 L 77.335938 287.042969 L 38.667969 287.042969 Z M 38.667969 283 "/>
<path style=" stroke:none;fill-rule:nonzero;fill:rgb(50.196078%,50.196078%,50.196078%);fill-opacity:1;" d="M 38.667969 287.042969 L 77.335938 287.042969 L 77.335938 291.085938 L 38.667969 291.085938 Z M 38.667969 287.042969 "/>
<path style=" stroke:none;fill-rule:nonzero;fill:rgb(66.27451%,66.27451%,66.27451%);fill-opacity:1;" d="M 77.332031 283 L 116 283 L 116 287.042969 L 77.332031 287.042969 Z M 77.332031 283 "/>
<path style=" stroke:none;fill-rule:nonzero;fill:rgb(0%,0%,0%);fill-opacity:1;" d="M 77.332031 287.042969 L 116 287.042969 L 116 291.085938 L 77.332031 291.085938 Z M 77.332031 287.042969 "/>
<path style=" stroke:none;fill-rule:nonzero;fill:rgb(50.196078%,50.196078%,50.196078%);fill-opacity:1;" d="M 0 291.085938 L 38.667969 291.085938 L 38.667969 295.128906 L 0 295.128906 Z M 0 291.085938 "/>
<path style=" stroke:none;fill-rule:nonzero;fill:rgb(50.196078%,50.196078%,50.196078%);fill-opacity:1;" d="M 0 295.128906 L 38.667969 295.128906 L 38.667969 299.171875 L 0 299.171875 Z M 0 295.128906 "/>
<path style=" stroke:none;fill-rule:nonzero;fill:rgb(82.745098%,82.745098%,82.745098%);fill-opacity:1;" d="M 38.667969 291.085938 L 77.335938 291.085938 L 77.335938 295.128906 L 38.667969 295.128906 Z M 38.667969 291.085938 "/>
<path style=" stroke:none;fill-rule:nonzero;fill:rgb(0%,0%,0%);fill-opacity:1;" d="M 38.667969 295.128906 L 77.335938 295.128906 L 77.335938 299.171875 L 38.667969 299.171875 Z M 38.667969 295.128906 "/>
<path style=" stroke:none;fill-rule:nonzero;fill:rgb(66.27451%,66.27451%,66.27451%);fill-opacity:1;" d="M 77.332031 291.085938 L 116 291.085938 L 116 295.128906 L 77.332031 295.128906 Z M 77.332031 291.085938 "/>
<path style=" stroke:none;fill-rule:nonzero;fill:rgb(50.196078%,50.196078%,50.196078%);fill-opacity:1;" d="M 77.332031 295.128906 L 116 295.128906 L 116 299.171875 L 77.332031 299.171875 Z M 77.332031 295.128906 "/>
<path style=" stroke:none;fill-rule:nonzero;fill:rgb(50.196078%,50.196078%,50.196078%);fill-opacity:1;" d="M 0 299.171875 L 38.667969 299.171875 L 38.667969 303.214844 L 0 303.214844 Z M 0 299.171875 "/>
<path style=" stroke:none;fill-rule:nonzero;fill:rgb(0%,0%,0%);fill-opacity:1;" d="M 0 303.214844 L 38.667969 303.214844 L 38.667969 307.257812 L 0 307.257812 Z M 0 303.214844 "/>
<path style=" stroke:none;fill-rule:nonzero;fill:rgb(82.745098%,82.745098%,82.745098%);fill-opacity:1;" d="M 38.667969 299.171875 L 77.335938 299.171875 L 77.335938 303.214844 L 38.667969 303.214844 Z M 38.667969 299.171875 "/>
<path style=" stroke:none;fill-rule:nonzero;fill:rgb(50.196078%,50.196078%,50.196078%);fill-opacity:1;" d="M 38.667969 303.214844 L 77.335938 303.214844 L 77.335938 307.257812 L 38.667969 307.257812 Z M 38.667969 303.214844 "/>
<path style=" stroke:none;fill-rule:nonzero;fill:rgb(66.27451%,66.27451%,66.27451%);fill-opacity:1;" d="M 77.332031 299.171875 L 116 299.171875 L 116 303.214844 L 77.332031 303.214844 Z M 77.332031 299.171875 "/>
<path style=" stroke:none;fill-rule:nonzero;fill:rgb(0%,0%,0%);fill-opacity:1;" d="M 77.332031 303.214844 L 116 303.214844 L 116 307.257812 L 77.332031 307.257812 Z M 77.332031 303.214844 "/>
<path style=" stroke:none;fill-rule:nonzero;fill:rgb(50.196078%,50.196078%,50.196078%);fill-opacity:1;" d="M 0 307.257812 L 38.667969 307.257812 L 38.667969 311.300781 L 0 311.300781 Z M 0 307.257812 "/>
<path style=" stroke:none;fill-rule:nonzero;fill:rgb(50.196078%,50.196078%,50.196078%);fill-opacity:1;" d="M 0 311.300781 L 38.667969 311.300781 L 38.667969 315.34375 L 0 315.34375 Z M 0 311.300781 "/>
<path style=" stroke:none;fill-rule:nonzero;fill:rgb(82.745098%,82.745098%,82.745098%);fill-opacity:1;" d="M 38.667969 307.257812 L 77.335938 307.257812 L 77.335938 311.300781 L 38.667969 311.300781 Z M 38.667969 307.257812 "/>
<path style=" stroke:none;fill-rule:nonzero;fill:rgb(0%,0%,0%);fill-opacity:1;" d="M 38.667969 311.300781 L 77.335938 311.300781 L 77.335938 315.34375 L 38.667969 315.34375 Z M 38.667969 311.300781 "/>
<path style=" stroke:none;fill-rule:nonzero;fill:rgb(66.27451%,66.27451%,66.27451%);fill-opacity:1;" d="M 77.332031 307.257812 L 116 307.257812 L 116 311.300781 L 77.332031 311.300781 Z M 77.332031 307.257812 "/>
<path style=" stroke:none;fill-rule:nonzero;fill:rgb(50.196078%,50.196078%,50.196078%);fill-opacity:1;" d="M 77.332031 311.300781 L 116 311.300781 L 116 315.34375 L 77.332031 315.34375 Z M 77.332031 311.300781 "/>
<path style=" stroke:none;fill-rule:nonzero;fill:rgb(50.196078%,50.196078%,50.196078%);fill-opacity:1;" d="M 0 315.34375 L 38.667969 315.34375 L 38.667969 319.386719 L 0 319.386719 Z M 0 315.34375 "/>
<path style=" stroke:none;fill-rule:nonzero;fill:rgb(0%,0%,0%);fill-opacity:1;" d="M 0 319.386719 L 38.667969 319.386719 L 38.667969 323.429688 L 0 323.429688 Z M 0 319.386719 "/>
<path style=" stroke:none;fill-rule:nonzero;fill:rgb(82.745098%,82.745098%,82.745098%);fill-opacity:1;" d="M 38.667969 315.34375 L 77.335938 315.34375 L 77.335938 319.386719 L 38.667969 319.386719 Z M 38.667969 315.34375 "/>
<path style=" stroke:none;fill-rule:nonzero;fill:rgb(50.196078%,50.196078%,50.196078%);fill-opacity:1;" d="M 38.667969 319.386719 L 77.335938 319.386719 L 77.335938 323.429688 L 38.667969 323.429688 Z M 38.667969 319.386719 "/>
<path style=" stroke:none;fill-rule:nonzero;fill:rgb(66.27451%,66.27451%,66.27451%);fill-opacity:1;" d="M 77.332031 315.34375 L 116 315.34375 L 116 319.386719 L 77.332031 319.386719 Z M 77.332031 315.34375 "/>
<path style=" stroke:none;fill-rule:nonzero;fill:rgb(0%,0%,0%);fill-opacity:1;" d="M 77.332031 319.386719 L 116 319.386719 L 116 323.429688 L 77.332031 323.429688 Z M 77.332031 319.386719 "/>
<path style=" stroke:none;fill-rule:nonzero;fill:rgb(50.196078%,50.196078%,50.196078%);fill-opacity:1;" d="M 0 323.429688 L 38.667969 323.429688 L 38.667969 327.472656 L 0 327.472656 Z M 0 323.429688 "/>
<path style=" stroke:none;fill-rule:nonzero;fill:rgb(50.196078%,50.196078%,50.196078%);fill-opacity:1;" d="M 0 327.472656 L 38.667969 327.472656 L 38.667969 331.515625 L 0 331.515625 Z M 0 327.472656 "/>
<path style=" stroke:none;fill-rule:nonzero;fill:rgb(82.745098%,82.745098%,82.745098%);fill-opacity:1;" d="M 38.667969 323.429688 L 77.335938 323.429688 L 77.335938 327.472656 L 38.667969 327.472656 Z M 38.667969 323.429688 "/>
<path style=" stroke:none;fill-rule:nonzero;fill:rgb(0%,0%,0%);fill-opacity:1;" d="M 38.667969 327.472656 L 77.335938 327.472656 L 77.335938 331.515625 L 38.667969 331.515625 Z M 38.667969 327.472656 "/>
<path style=" stroke:none;fill-rule:nonzero;fill:rgb(66.27451%,66.27451%,66.27451%);fill-opacity:1;" d="M 77.332031 323.429688 L 116 323.429688 L 116 327.472656 L 77.332031 327.472656 Z M 77.332031 323.429688 "/>
<path style=" stroke:none;fill-rule:nonzero;fill:rgb(50.196078%,50.196078%,50.196078%);fill-opacity:1;" d="M 77.332031 327.472656 L 116 327.472656 L 116 331.515625 L 77.332031 331.515625 Z M 77.332031 327.472656 "/>
<path style=" stroke:none;fill-rule:nonzero;fill:rgb(50.196078%,50.196078%,50.196078%);fill-opacity:1;" d="M 0 331.515625 L 38.667969 331.515625 L 38.667969 335.558594 L 0 335.558594 Z M 0 331.515625 "/>
<path style=" stroke:none;fill-rule:nonzero;fill:rgb(0%,0%,0%);fill-opacity:1;" d="M 0 335.558594 L 38.667969 335.558594 L 38.667969 339.601562 L 0 339.601562 Z M 0 335.558594 "/>
<path style=" stroke:none;fill-rule:nonzero;fill:rgb(82.745098%,82.745098%,82.745098%);fill-opacity:1;" d="M 38.667969 331.515625 L 77.335938 331.515625 L 77.335938 335.558594 L 38.667969 335.558594 Z M 38.667969 331.515625 "/>
<path style=" stroke:none;fill-rule:nonzero;fill:rgb(50.196078%,50.196078%,50.196078%);fill-opacity:1;" d="M 38.667969 335.558594 L 77.335938 335.558594 L 77.335938 339.601562 L 38.667969 339.601562 Z M 38.667969 335.558594 "/>
<path style=" stroke:none;fill-rule:nonzero;fill:rgb(66.27451%,66.27451%,66.27451%);fill-opacity:1;" d="M 77.332031 331.515625 L 116 331.515625 L 116 335.558594 L 77.332031 335.558594 Z M 77.332031 331.515625 "/>
<path style=" stroke:none;fill-rule:nonzero;fill:rgb(0%,0%,0%);fill-opacity:1;" d="M 77.332031 335.558594 L 116 335.558594 L 116 339.601562 L 77.332031 339.601562 Z M 77.332031 335.558594 "/>
<path style=" stroke:none;fill-rule:nonzero;fill:rgb(50.196078%,50.196078%,50.196078%);fill-opacity:1;" d="M 0 339.601562 L 38.667969 339.601562 L 38.667969 343.644531 L 0 343.644531 Z M 0 339.601562 "/>
<path style=" stroke:none;fill-rule:nonzero;fill:rgb(50.196078%,50.196078%,50.196078%);fill-opacity:1;" d="M 0 343.644531 L 38.667969 343.644531 L 38.667969 347.6875 L 0 347.6875 Z M 0 343.644531 "/>
<path style=" stroke:none;fill-rule:nonzero;fill:rgb(82.745098%,82.745098%,82.745098%);fill-opacity:1;" d="M 38.667969 339.601562 L 77.335938 339.601562 L 77.335938 343.644531 L 38.667969 343.644531 Z M 38.667969 339.601562 "/>
<path style=" stroke:none;fill-rule:nonzero;fill:rgb(0%,0%,0%);fill-opacity:1;" d="M 38.667969 343.644531 L 77.335938 343.644531 L 77.335938 347.6875 L 38.667969 347.6875 Z M 38.667969 343.644531 "/>
<path style=" stroke:none;fill-rule:nonzero;fill:rgb(66.27451%,66.27451%,66.27451%);fill-opacity:1;" d="M 77.332031 339.601562 L 116 339.601562 L 116 343.644531 L 77.332031 343.644531 Z M 77.332031 339.601562 "/>
<path style=" stroke:none;fill-rule:nonzero;fill:rgb(50.196078%,50.196078%,50.196078%);fill-opacity:1;" d="M 77.332031 343.644531 L 116 343.644531 L 116 347.6875 L 77.332031 347.6875 Z M 77.332031 343.644531 "/>
<path style=" stroke:none;fill-rule:nonzero;fill:rgb(50.196078%,50.196078%,50.196078%);fill-opacity:1;" d="M 0 347.6875 L 38.667969 347.6875 L 38.667969 351.730469 L 0 351.730469 Z M 0 347.6875 "/>
<path style=" stroke:none;fill-rule:nonzero;fill:rgb(0%,0%,0%);fill-opacity:1;" d="M 0 351.730469 L 38.667969 351.730469 L 38.667969 355.773438 L 0 355.773438 Z M 0 351.730469 "/>
<path style=" stroke:none;fill-rule:nonzero;fill:rgb(82.745098%,82.745098%,82.745098%);fill-opacity:1;" d="M 38.667969 347.6875 L 77.335938 347.6875 L 77.335938 351.730469 L 38.667969 351.730469 Z M 38.667969 347.6875 "/>
<path style=" stroke:none;fill-rule:nonzero;fill:rgb(50.196078%,50.196078%,50.196078%);fill-opacity:1;" d="M 38.667969 351.730469 L 77.335938 351.730469 L 77.335938 355.773438 L 38.667969 355.773438 Z M 38.667969 351.730469 "/>
<path style=" stroke:none;fill-rule:nonzero;fill:rgb(66.27451%,66.27451%,66.27451%);fill-opacity:1;" d="M 77.332031 347.6875 L 116 347.6875 L 116 351.730469 L 77.332031 351.730469 Z M 77.332031 347.6875 "/>
<path style=" stroke:none;fill-rule:nonzero;fill:rgb(0%,0%,0%);fill-opacity:1;" d="M 77.332031 351.730469 L 116 351.730469 L 116 355.773438 L 77.332031 355.773438 Z M 77.332031 351.730469 "/>
<path style=" stroke:none;fill-rule:nonzero;fill:rgb(50.196078%,50.196078%,50.196078%);fill-opacity:1;" d="M 0 355.769531 L 38.667969 355.769531 L 38.667969 359.8125 L 0 359.8125 Z M 0 355.769531 "/>
<path style=" stroke:none;fill-rule:nonzero;fill:rgb(50.196078%,50.196078%,50.196078%);fill-opacity:1;" d="M 0 359.8125 L 38.667969 359.8125 L 38.667969 363.855469 L 0 363.855469 Z M 0 359.8125 "/>
<path style=" stroke:none;fill-rule:nonzero;fill:rgb(82.745098%,82.745098%,82.745098%);fill-opacity:1;" d="M 38.667969 355.769531 L 77.335938 355.769531 L 77.335938 359.8125 L 38.667969 359.8125 Z M 38.667969 355.769531 "/>
<path style=" stroke:none;fill-rule:nonzero;fill:rgb(0%,0%,0%);fill-opacity:1;" d="M 38.667969 359.8125 L 77.335938 359.8125 L 77.335938 363.855469 L 38.667969 363.855469 Z M 38.667969 359.8125 "/>
<path style=" stroke:none;fill-rule:nonzero;fill:rgb(66.27451%,66.27451%,66.27451%);fill-opacity:1;" d="M 77.332031 355.769531 L 116 355.769531 L 116 359.8125 L 77.332031 359.8125 Z M 77.332031 355.769531 "/>
<path style=" stroke:none;fill-rule:nonzero;fill:rgb(50.196078%,50.196078%,50.196078%);fill-opacity:1;" d="M 77.332031 359.8125 L 116 359.8125 L 116 363.855469 L 77.332031 363.855469 Z M 77.332031 359.8125 "/>
<path style=" stroke:none;fill-rule:nonzero;fill:rgb(50.196078%,50.196078%,50.196078%);fill-opacity:1;" d="M 0 363.855469 L 38.667969 363.855469 L 38.667969 367.898438 L 0 367.898438 Z M 0 363.855469 "/>
<path style=" stroke:none;fill-rule:nonzero;fill:rgb(0%,0%,0%);fill-opacity:1;" d="M 0 367.898438 L 38.667969 367.898438 L 38.667969 371.941406 L 0 371.941406 Z M 0 367.898438 "/>
<path style=" stroke:none;fill-rule:nonzero;fill:rgb(82.745098%,82.745098%,82.745098%);fill-opacity:1;" d="M 38.667969 363.855469 L 77.335938 363.855469 L 77.335938 367.898438 L 38.667969 367.898438 Z M 38.667969 363.855469 "/>
<path style=" stroke:none;fill-rule:nonzero;fill:rgb(50.196078%,50.196078%,50.196078%);fill-opacity:1;" d="M 38.667969 367.898438 L 77.335938 367.898438 L 77.335938 371.941406 L 38.667969 371.941406 Z M 38.667969 367.898438 "/>
<path style=" stroke:none;fill-rule:nonzero;fill:rgb(66.27451%,66.27451%,66.27451%);fill-opacity:1;" d="M 77.332031 363.855469 L 116 363.855469 L 116 367.898438 L 77.332031 367.898438 Z M 77.332031 363.855469 "/>
<path style=" stroke:none;fill-rule:nonzero;fill:rgb(0%,0%,0%);fill-opacity:1;" d="M 77.332031 367.898438 L 116 367.898438 L 116 371.941406 L 77.332031 371.941406 Z M 77.332031 367.898438 "/>
<path style=" stroke:none;fill-rule:nonzero;fill:rgb(50.196078%,50.196078%,50.196078%);fill-opacity:1;" d="M 0 371.941406 L 38.667969 371.941406 L 38.667969 375.984375 L 0 375.984375 Z M 0 371.941406 "/>
<path style=" stroke:none;fill-rule:nonzero;fill:rgb(50.196078%,50.196078%,50.196078%);fill-opacity:1;" d="M 0 375.984375 L 38.667969 375.984375 L 38.667969 380.027344 L 0 380.027344 Z M 0 375.984375 "/>
<path style=" stroke:none;fill-rule:nonzero;fill:rgb(82.745098%,82.745098%,82.745098%);fill-opacity:1;" d="M 38.667969 371.941406 L 77.335938 371.941406 L 77.335938 375.984375 L 38.667969 375.984375 Z M 38.667969 371.941406 "/>
<path style=" stroke:none;fill-rule:nonzero;fill:rgb(0%,0%,0%);fill-opacity:1;" d="M 38.667969 375.984375 L 77.335938 375.984375 L 77.335938 380.027344 L 38.667969 380.027344 Z M 38.667969 375.984375 "/>
<path style=" stroke:none;fill-rule:nonzero;fill:rgb(66.27451%,66.27451%,66.27451%);fill-opacity:1;" d="M 77.332031 371.941406 L 116 371.941406 L 116 375.984375 L 77.332031 375.984375 Z M 77.332031 371.941406 "/>
<path style=" stroke:none;fill-rule:nonzero;fill:rgb(50.196078%,50.196078%,50.196078%);fill-opacity:1;" d="M 77.332031 375.984375 L 116 375.984375 L 116 380.027344 L 77.332031 380.027344 Z M 77.332031 375.984375 "/>
<path style=" stroke:none;fill-rule:nonzero;fill:rgb(50.196078%,50.196078%,50.196078%);fill-opacity:1;" d="M 0 380.027344 L 38.667969 380.027344 L 38.667969 384.070312 L 0 384.070312 Z M 0 380.027344 "/>
<path style=" stroke:none;fill-rule:nonzero;fill:rgb(0%,0%,0%);fill-opacity:1;" d="M 0 384.070312 L 38.667969 384.070312 L 38.667969 388.113281 L 0 388.113281 Z M 0 384.070312 "/>
<path style=" stroke:none;fill-rule:nonzero;fill:rgb(82.745098%,82.745098%,82.745098%);fill-opacity:1;" d="M 38.667969 380.027344 L 77.335938 380.027344 L 77.335938 384.070312 L 38.667969 384.070312 Z M 38.667969 380.027344 "/>
<path style=" stroke:none;fill-rule:nonzero;fill:rgb(50.196078%,50.196078%,50.196078%);fill-opacity:1;" d="M 38.667969 384.070312 L 77.335938 384.070312 L 77.335938 388.113281 L 38.667969 388.113281 Z M 38.667969 384.070312 "/>
<path style=" stroke:none;fill-rule:nonzero;fill:rgb(66.27451%,66.27451%,66.27451%);fill-opacity:1;" d="M 77.332031 380.027344 L 116 380.027344 L 116 384.070312 L 77.332031 384.070312 Z M 77.332031 380.027344 "/>
<path style=" stroke:none;fill-rule:nonzero;fill:rgb(0%,0%,0%);fill-opacity:1;" d="M 77.332031 384.070312 L 116 384.070312 L 116 388.113281 L 77.332031 388.113281 Z M 77.332031 384.070312 "/>
<path style=" stroke:none;fill-rule:nonzero;fill:rgb(50.196078%,50.196078%,50.196078%);fill-opacity:1;" d="M 0 388.113281 L 38.667969 388.113281 L 38.667969 392.15625 L 0 392.15625 Z M 0 388.113281 "/>
<path style=" stroke:none;fill-rule:nonzero;fill:rgb(50.196078%,50.196078%,50.196078%);fill-opacity:1;" d="M 0 392.15625 L 38.667969 392.15625 L 38.667969 396.199219 L 0 396.199219 Z M 0 392.15625 "/>
<path style=" stroke:none;fill-rule:nonzero;fill:rgb(82.745098%,82.745098%,82.745098%);fill-opacity:1;" d="M 38.667969 388.113281 L 77.335938 388.113281 L 77.335938 392.15625 L 38.667969 392.15625 Z M 38.667969 388.113281 "/>
<path style=" stroke:none;fill-rule:nonzero;fill:rgb(0%,0%,0%);fill-opacity:1;" d="M 38.667969 392.15625 L 77.335938 392.15625 L 77.335938 396.199219 L 38.667969 396.199219 Z M 38.667969 392.15625 "/>
<path style=" stroke:none;fill-rule:nonzero;fill:rgb(66.27451%,66.27451%,66.27451%);fill-opacity:1;" d="M 77.332031 388.113281 L 116 388.113281 L 116 392.15625 L 77.332031 392.15625 Z M 77.332031 388.113281 "/>
<path style=" stroke:none;fill-rule:nonzero;fill:rgb(50.196078%,50.196078%,50.196078%);fill-opacity:1;" d="M 77.332031 392.15625 L 116 392.15625 L 116 396.199219 L 77.332031 396.199219 Z M 77.332031 392.15625 "/>
<path style=" stroke:none;fill-rule:nonzero;fill:rgb(50.196078%,50.196078%,50.196078%);fill-opacity:1;" d="M 0 396.199219 L 38.667969 396.199219 L 38.667969 400.242188 L 0 400.242188 Z M 0 396.199219 "/>
<path style=" stroke:none;fill-rule:nonzero;fill:rgb(0%,0%,0%);fill-opacity:1;" d="M 0 400.242188 L 38.667969 400.242188 L 38.667969 404.285156 L 0 404.285156 Z M 0 400.242188 "/>
<path style=" stroke:none;fill-rule:nonzero;fill:rgb(82.745098%,82.745098%,82.745098%);fill-opacity:1;" d="M 38.667969 396.199219 L 77.335938 396.199219 L 77.335938 400.242188 L 38.667969 400.242188 Z M 38.667969 396.199219 "/>
<path style=" stroke:none;fill-rule:nonzero;fill:rgb(50.196078%,50.196078%,50.196078%);fill-opacity:1;" d="M 38.667969 400.242188 L 77.335938 400.242188 L 77.335938 404.285156 L 38.667969 404.285156 Z M 38.667969 400.242188 "/>
<path style=" stroke:none;fill-rule:nonzero;fill:rgb(66.27451%,66.27451%,66.27451%);fill-opacity:1;" d="M 77.332031 396.199219 L 116 396.199219 L 116 400.242188 L 77.332031 400.242188 Z M 77.332031 396.199219 "/>
<path style=" stroke:none;fill-rule:nonzero;fill:rgb(0%,0%,0%);fill-opacity:1;" d="M 77.332031 400.242188 L 116 400.242188 L 116 404.285156 L 77.332031 404.285156 Z M 77.332031 400.242188 "/>
<path style=" stroke:none;fill-rule:nonzero;fill:rgb(50.196078%,50.196078%,50.196078%);fill-opacity:1;" d="M 0 404.285156 L 38.667969 404.285156 L 38.667969 408.328125 L 0 408.328125 Z M 0 404.285156 "/>
<path style=" stroke:none;fill-rule:nonzero;fill:rgb(50.196078%,50.196078%,50.196078%);fill-opacity:1;" d="M 0 408.328125 L 38.667969 408.328125 L 38.667969 412.371094 L 0 412.371094 Z M 0 408.328125 "/>
<path style=" stroke:none;fill-rule:nonzero;fill:rgb(82.745098%,82.745098%,82.745098%);fill-opacity:1;" d="M 38.667969 404.285156 L 77.335938 404.285156 L 77.335938 408.328125 L 38.667969 408.328125 Z M 38.667969 404.285156 "/>
<path style=" stroke:none;fill-rule:nonzero;fill:rgb(0%,0%,0%);fill-opacity:1;" d="M 38.667969 408.328125 L 77.335938 408.328125 L 77.335938 412.371094 L 38.667969 412.371094 Z M 38.667969 408.328125 "/>
<path style=" stroke:none;fill-rule:nonzero;fill:rgb(66.27451%,66.27451%,66.27451%);fill-opacity:1;" d="M 77.332031 404.285156 L 116 404.285156 L 116 408.328125 L 77.332031 408.328125 Z M 77.332031 404.285156 "/>
<path style=" stroke:none;fill-rule:nonzero;fill:rgb(50.196078%,50.196078%,50.196078%);fill-opacity:1;" d="M 77.332031 408.328125 L 116 408.328125 L 116 412.371094 L 77.332031 412.371094 Z M 77.332031 408.328125 "/>
<path style=" stroke:none;fill-rule:nonzero;fill:rgb(50.196078%,50.196078%,50.196078%);fill-opacity:1;" d="M 0 412.371094 L 38.667969 412.371094 L 38.667969 416.414062 L 0 416.414062 Z M 0 412.371094 "/>
<path style=" stroke:none;fill-rule:nonzero;fill:rgb(0%,0%,0%);fill-opacity:1;" d="M 0 416.414062 L 38.667969 416.414062 L 38.667969 420.457031 L 0 420.457031 Z M 0 416.414062 "/>
<path style=" stroke:none;fill-rule:nonzero;fill:rgb(82.745098%,82.745098%,82.745098%);fill-opacity:1;" d="M 38.667969 412.371094 L 77.335938 412.371094 L 77.335938 416.414062 L 38.667969 416.414062 Z M 38.667969 412.371094 "/>
<path style=" stroke:none;fill-rule:nonzero;fill:rgb(50.196078%,50.196078%,50.196078%);fill-opacity:1;" d="M 38.667969 416.414062 L 77.335938 416.414062 L 77.335938 420.457031 L 38.667969 420.457031 Z M 38.667969 416.414062 "/>
<path style=" stroke:none;fill-rule:nonzero;fill:rgb(66.27451%,66.27451%,66.27451%);fill-opacity:1;" d="M 77.332031 412.371094 L 116 412.371094 L 116 416.414062 L 77.332031 416.414062 Z M 77.332031 412.371094 "/>
<path style=" stroke:none;fill-rule:nonzero;fill:rgb(0%,0%,0%);fill-opacity:1;" d="M 77.332031 416.414062 L 116 416.414062 L 116 420.457031 L 77.332031 420.457031 Z M 77.332031 416.414062 "/>
<path style=" stroke:none;fill-rule:nonzero;fill:rgb(50.196078%,50.196078%,50.196078%);fill-opacity:1;" d="M 0 420.457031 L 38.667969 420.457031 L 38.667969 424.5 L 0 424.5 Z M 0 420.457031 "/>
<path style=" stroke:none;fill-rule:nonzero;fill:rgb(50.196078%,50.196078%,50.196078%);fill-opacity:1;" d="M 0 424.5 L 38.667969 424.5 L 38.667969 428.542969 L 0 428.542969 Z M 0 424.5 "/>
<path style=" stroke:none;fill-rule:nonzero;fill:rgb(82.745098%,82.745098%,82.745098%);fill-opacity:1;" d="M 38.667969 420.457031 L 77.335938 420.457031 L 77.335938 424.5 L 38.667969 424.5 Z M 38.667969 420.457031 "/>
<path style=" stroke:none;fill-rule:nonzero;fill:rgb(0%,0%,0%);fill-opacity:1;" d="M 38.667969 424.5 L 77.335938 424.5 L 77.335938 428.542969 L 38.667969 428.542969 Z M 38.667969 424.5 "/>
<path style=" stroke:none;fill-rule:nonzero;fill:rgb(66.27451%,66.27451%,66.27451%);fill-opacity:1;" d="M 77.332031 420.457031 L 116 420.457031 L 116 424.5 L 77.332031 424.5 Z M 77.332031 420.457031 "/>
<path style=" stroke:none;fill-rule:nonzero;fill:rgb(50.196078%,50.196078%,50.196078%);fill-opacity:1;" d="M 77.332031 424.5 L 116 424.5 L 116 428.542969 L 77.332031 428.542969 Z M 77.332031 424.5 "/>
<path style=" stroke:none;fill-rule:nonzero;fill:rgb(50.196078%,50.196078%,50.196078%);fill-opacity:1;" d="M 0 428.542969 L 38.667969 428.542969 L 38.667969 432.585938 L 0 432.585938 Z M 0 428.542969 "/>
<path style=" stroke:none;fill-rule:nonzero;fill:rgb(0%,0%,0%);fill-opacity:1;" d="M 0 432.585938 L 38.667969 432.585938 L 38.667969 436.628906 L 0 436.628906 Z M 0 432.585938 "/>
<path style=" stroke:none;fill-rule:nonzero;fill:rgb(82.745098%,82.745098%,82.745098%);fill-opacity:1;" d="M 38.667969 428.542969 L 77.335938 428.542969 L 77.335938 432.585938 L 38.667969 432.585938 Z M 38.667969 428.542969 "/>
<path style=" stroke:none;fill-rule:nonzero;fill:rgb(50.196078%,50.196078%,50.196078%);fill-opacity:1;" d="M 38.667969 432.585938 L 77.335938 432.585938 L 77.335938 436.628906 L 38.667969 436.628906 Z M 38.667969 432.585938 "/>
<path style=" stroke:none;fill-rule:nonzero;fill:rgb(66.27451%,66.27451%,66.27451%);fill-opacity:1;" d="M 77.332031 428.542969 L 116 428.542969 L 116 432.585938 L 77.332031 432.585938 Z M 77.332031 428.542969 "/>
<path style=" stroke:none;fill-rule:nonzero;fill:rgb(0%,0%,0%);fill-opacity:1;" d="M 77.332031 432.585938 L 116 432.585938 L 116 436.628906 L 77.332031 436.628906 Z M 77.332031 432.585938 "/>
<path style=" stroke:none;fill-rule:nonzero;fill:rgb(50.196078%,50.196078%,50.196078%);fill-opacity:1;" d="M 0 436.628906 L 38.667969 436.628906 L 38.667969 440.671875 L 0 440.671875 Z M 0 436.628906 "/>
<path style=" stroke:none;fill-rule:nonzero;fill:rgb(50.196078%,50.196078%,50.196078%);fill-opacity:1;" d="M 0 440.671875 L 38.667969 440.671875 L 38.667969 444.714844 L 0 444.714844 Z M 0 440.671875 "/>
<path style=" stroke:none;fill-rule:nonzero;fill:rgb(82.745098%,82.745098%,82.745098%);fill-opacity:1;" d="M 38.667969 436.628906 L 77.335938 436.628906 L 77.335938 440.671875 L 38.667969 440.671875 Z M 38.667969 436.628906 "/>
<path style=" stroke:none;fill-rule:nonzero;fill:rgb(0%,0%,0%);fill-opacity:1;" d="M 38.667969 440.671875 L 77.335938 440.671875 L 77.335938 444.714844 L 38.667969 444.714844 Z M 38.667969 440.671875 "/>
<path style=" stroke:none;fill-rule:nonzero;fill:rgb(66.27451%,66.27451%,66.27451%);fill-opacity:1;" d="M 77.332031 436.628906 L 116 436.628906 L 116 440.671875 L 77.332031 440.671875 Z M 77.332031 436.628906 "/>
<path style=" stroke:none;fill-rule:nonzero;fill:rgb(50.196078%,50.196078%,50.196078%);fill-opacity:1;" d="M 77.332031 440.671875 L 116 440.671875 L 116 444.714844 L 77.332031 444.714844 Z M 77.332031 440.671875 "/>
<path style=" stroke:none;fill-rule:nonzero;fill:rgb(50.196078%,50.196078%,50.196078%);fill-opacity:1;" d="M 0 444.714844 L 38.667969 444.714844 L 38.667969 448.757812 L 0 448.757812 Z M 0 444.714844 "/>
<path style=" stroke:none;fill-rule:nonzero;fill:rgb(0%,0%,0%);fill-opacity:1;" d="M 0 448.757812 L 38.667969 448.757812 L 38.667969 452.800781 L 0 452.800781 Z M 0 448.757812 "/>
<path style=" stroke:none;fill-rule:nonzero;fill:rgb(82.745098%,82.745098%,82.745098%);fill-opacity:1;" d="M 38.667969 444.714844 L 77.335938 444.714844 L 77.335938 448.757812 L 38.667969 448.757812 Z M 38.667969 444.714844 "/>
<path style=" stroke:none;fill-rule:nonzero;fill:rgb(50.196078%,50.196078%,50.196078%);fill-opacity:1;" d="M 38.667969 448.757812 L 77.335938 448.757812 L 77.335938 452.800781 L 38.667969 452.800781 Z M 38.667969 448.757812 "/>
<path style=" stroke:none;fill-rule:nonzero;fill:rgb(66.27451%,66.27451%,66.27451%);fill-opacity:1;" d="M 77.332031 444.714844 L 116 444.714844 L 116 448.757812 L 77.332031 448.757812 Z M 77.332031 444.714844 "/>
<path style=" stroke:none;fill-rule:nonzero;fill:rgb(0%,0%,0%);fill-opacity:1;" d="M 77.332031 448.757812 L 116 448.757812 L 116 452.800781 L 77.332031 452.800781 Z M 77.332031 448.757812 "/>
<path style=" stroke:none;fill-rule:nonzero;fill:rgb(50.196078%,50.196078%,50.196078%);fill-opacity:1;" d="M 0 452.800781 L 38.667969 452.800781 L 38.667969 456.84375 L 0 456.84375 Z M 0 452.800781 "/>
<path style=" stroke:none;fill-rule:nonzero;fill:rgb(50.196078%,50.196078%,50.196078%);fill-opacity:1;" d="M 0 456.84375 L 38.667969 456.84375 L 38.667969 460.886719 L 0 460.886719 Z M 0 456.84375 "/>
<path style=" stroke:none;fill-rule:nonzero;fill:rgb(82.745098%,82.745098%,82.745098%);fill-opacity:1;" d="M 38.667969 452.800781 L 77.335938 452.800781 L 77.335938 456.84375 L 38.667969 456.84375 Z M 38.667969 452.800781 "/>
<path style=" stroke:none;fill-rule:nonzero;fill:rgb(0%,0%,0%);fill-opacity:1;" d="M 38.667969 456.84375 L 77.335938 456.84375 L 77.335938 460.886719 L 38.667969 460.886719 Z M 38.667969 456.84375 "/>
<path style=" stroke:none;fill-rule:nonzero;fill:rgb(66.27451%,66.27451%,66.27451%);fill-opacity:1;" d="M 77.332031 452.800781 L 116 452.800781 L 116 456.84375 L 77.332031 456.84375 Z M 77.332031 452.800781 "/>
<path style=" stroke:none;fill-rule:nonzero;fill:rgb(50.196078%,50.196078%,50.196078%);fill-opacity:1;" d="M 77.332031 456.84375 L 116 456.84375 L 116 460.886719 L 77.332031 460.886719 Z M 77.332031 456.84375 "/>
<path style=" stroke:none;fill-rule:nonzero;fill:rgb(50.196078%,50.196078%,50.196078%);fill-opacity:1;" d="M 0 460.886719 L 38.667969 460.886719 L 38.667969 464.929688 L 0 464.929688 Z M 0 460.886719 "/>
<path style=" stroke:none;fill-rule:nonzero;fill:rgb(0%,0%,0%);fill-opacity:1;" d="M 0 464.929688 L 38.667969 464.929688 L 38.667969 468.972656 L 0 468.972656 Z M 0 464.929688 "/>
<path style=" stroke:none;fill-rule:nonzero;fill:rgb(82.745098%,82.745098%,82.745098%);fill-opacity:1;" d="M 38.667969 460.886719 L 77.335938 460.886719 L 77.335938 464.929688 L 38.667969 464.929688 Z M 38.667969 460.886719 "/>
<path style=" stroke:none;fill-rule:nonzero;fill:rgb(50.196078%,50.196078%,50.196078%);fill-opacity:1;" d="M 38.667969 464.929688 L 77.335938 464.929688 L 77.335938 468.972656 L 38.667969 468.972656 Z M 38.667969 464.929688 "/>
<path style=" stroke:none;fill-rule:nonzero;fill:rgb(66.27451%,66.27451%,66.27451%);fill-opacity:1;" d="M 77.332031 460.886719 L 116 460.886719 L 116 464.929688 L 77.332031 464.929688 Z M 77.332031 460.886719 "/>
<path style=" stroke:none;fill-rule:nonzero;fill:rgb(0%,0%,0%);fill-opacity:1;" d="M 77.332031 464.929688 L 116 464.929688 L 116 468.972656 L 77.332031 468.972656 Z M 77.332031 464.929688 "/>
<path style=" stroke:none;fill-rule:nonzero;fill:rgb(50.196078%,50.196078%,50.196078%);fill-opacity:1;" d="M 0 468.972656 L 38.667969 468.972656 L 38.667969 473.015625 L 0 473.015625 Z M 0 468.972656 "/>
<path style=" stroke:none;fill-rule:nonzero;fill:rgb(50.196078%,50.196078%,50.196078%);fill-opacity:1;" d="M 0 473.015625 L 38.667969 473.015625 L 38.667969 477.058594 L 0 477.058594 Z M 0 473.015625 "/>
<path style=" stroke:none;fill-rule:nonzero;fill:rgb(82.745098%,82.745098%,82.745098%);fill-opacity:1;" d="M 38.667969 468.972656 L 77.335938 468.972656 L 77.335938 473.015625 L 38.667969 473.015625 Z M 38.667969 468.972656 "/>
<path style=" stroke:none;fill-rule:nonzero;fill:rgb(0%,0%,0%);fill-opacity:1;" d="M 38.667969 473.015625 L 77.335938 473.015625 L 77.335938 477.058594 L 38.667969 477.058594 Z M 38.667969 473.015625 "/>
<path style=" stroke:none;fill-rule:nonzero;fill:rgb(66.27451%,66.27451%,66.27451%);fill-opacity:1;" d="M 77.332031 468.972656 L 116 468.972656 L 116 473.015625 L 77.332031 473.015625 Z M 77.332031 468.972656 "/>
<path style=" stroke:none;fill-rule:nonzero;fill:rgb(50.196078%,50.196078%,50.196078%);fill-opacity:1;" d="M 77.332031 473.015625 L 116 473.015625 L 116 477.058594 L 77.332031 477.058594 Z M 77.332031 473.015625 "/>
<path style=" stroke:none;fill-rule:nonzero;fill:rgb(50.196078%,50.196078%,50.196078%);fill-opacity:1;" d="M 0 477.058594 L 38.667969 477.058594 L 38.667969 481.101562 L 0 481.101562 Z M 0 477.058594 "/>
<path style=" stroke:none;fill-rule:nonzero;fill:rgb(0%,0%,0%);fill-opacity:1;" d="M 0 481.101562 L 38.667969 481.101562 L 38.667969 485.144531 L 0 485.144531 Z M 0 481.101562 "/>
<path style=" stroke:none;fill-rule:nonzero;fill:rgb(82.745098%,82.745098%,82.745098%);fill-opacity:1;" d="M 38.667969 477.058594 L 77.335938 477.058594 L 77.335938 481.101562 L 38.667969 481.101562 Z M 38.667969 477.058594 "/>
<path style=" stroke:none;fill-rule:nonzero;fill:rgb(50.196078%,50.196078%,50.196078%);fill-opacity:1;" d="M 38.667969 481.101562 L 77.335938 481.101562 L 77.335938 485.144531 L 38.667969 485.144531 Z M 38.667969 481.101562 "/>
<path style=" stroke:none;fill-rule:nonzero;fill:rgb(66.27451%,66.27451%,66.27451%);fill-opacity:1;" d="M 77.332031 477.058594 L 116 477.058594 L 116 481.101562 L 77.332031 481.101562 Z M 77.332031 477.058594 "/>
<path style=" stroke:none;fill-rule:nonzero;fill:rgb(0%,0%,0%);fill-opacity:1;" d="M 77.332031 481.101562 L 116 481.101562 L 116 485.144531 L 77.332031 485.144531 Z M 77.332031 481.101562 "/>
<path style=" stroke:none;fill-rule:nonzero;fill:rgb(50.196078%,50.196078%,50.196078%);fill-opacity:1;" d="M 0 485.144531 L 38.667969 485.144531 L 38.667969 489.1875 L 0 489.1875 Z M 0 485.144531 "/>
<path style=" stroke:none;fill-rule:nonzero;fill:rgb(50.196078%,50.196078%,50.196078%);fill-opacity:1;" d="M 0 489.1875 L 38.667969 489.1875 L 38.667969 493.230469 L 0 493.230469 Z M 0 489.1875 "/>
<path style=" stroke:none;fill-rule:nonzero;fill:rgb(82.745098%,82.745098%,82.745098%);fill-opacity:1;" d="M 38.667969 485.144531 L 77.335938 485.144531 L 77.335938 489.1875 L 38.667969 489.1875 Z M 38.667969 485.144531 "/>
<path style=" stroke:none;fill-rule:nonzero;fill:rgb(0%,0%,0%);fill-opacity:1;" d="M 38.667969 489.1875 L 77.335938 489.1875 L 77.335938 493.230469 L 38.667969 493.230469 Z M 38.667969 489.1875 "/>
<path style=" stroke:none;fill-rule:nonzero;fill:rgb(66.27451%,66.27451%,66.27451%);fill-opacity:1;" d="M 77.332031 485.144531 L 116 485.144531 L 116 489.1875 L 77.332031 489.1875 Z M 77.332031 485.144531 "/>
<path style=" stroke:none;fill-rule:nonzero;fill:rgb(50.196078%,50.196078%,50.196078%);fill-opacity:1;" d="M 77.332031 489.1875 L 116 489.1875 L 116 493.230469 L 77.332031 493.230469 Z M 77.332031 489.1875 "/>
<path style=" stroke:none;fill-rule:nonzero;fill:rgb(50.196078%,50.196078%,50.196078%);fill-opacity:1;" d="M 0 493.230469 L 38.667969 493.230469 L 38.667969 497.273438 L 0 497.273438 Z M 0 493.230469 "/>
<path style=" stroke:none;fill-rule:nonzero;fill:rgb(0%,0%,0%);fill-opacity:1;" d="M 0 497.269531 L 38.667969 497.269531 L 38.667969 501.3125 L 0 501.3125 Z M 0 497.269531 "/>
<path style=" stroke:none;fill-rule:nonzero;fill:rgb(82.745098%,82.745098%,82.745098%);fill-opacity:1;" d="M 38.667969 493.230469 L 77.335938 493.230469 L 77.335938 497.273438 L 38.667969 497.273438 Z M 38.667969 493.230469 "/>
<path style=" stroke:none;fill-rule:nonzero;fill:rgb(50.196078%,50.196078%,50.196078%);fill-opacity:1;" d="M 38.667969 497.269531 L 77.335938 497.269531 L 77.335938 501.3125 L 38.667969 501.3125 Z M 38.667969 497.269531 "/>
<path style=" stroke:none;fill-rule:nonzero;fill:rgb(66.27451%,66.27451%,66.27451%);fill-opacity:1;" d="M 77.332031 493.230469 L 116 493.230469 L 116 497.273438 L 77.332031 497.273438 Z M 77.332031 493.230469 "/>
<path style=" stroke:none;fill-rule:nonzero;fill:rgb(0%,0%,0%);fill-opacity:1;" d="M 77.332031 497.269531 L 116 497.269531 L 116 501.3125 L 77.332031 501.3125 Z M 77.332031 497.269531 "/>
<path style=" stroke:none;fill-rule:nonzero;fill:rgb(50.196078%,50.196078%,50.196078%);fill-opacity:1;" d="M 0 501.3125 L 38.667969 501.3125 L 38.667969 505.355469 L 0 505.355469 Z M 0 501.3125 "/>
<path style=" stroke:none;fill-rule:nonzero;fill:rgb(50.196078%,50.196078%,50.196078%);fill-opacity:1;" d="M 0 505.355469 L 38.667969 505.355469 L 38.667969 509.398438 L 0 509.398438 Z M 0 505.355469 "/>
<path style=" stroke:none;fill-rule:nonzero;fill:rgb(82.745098%,82.745098%,82.745098%);fill-opacity:1;" d="M 38.667969 501.3125 L 77.335938 501.3125 L 77.335938 505.355469 L 38.667969 505.355469 Z M 38.667969 501.3125 "/>
<path style=" stroke:none;fill-rule:nonzero;fill:rgb(0%,0%,0%);fill-opacity:1;" d="M 38.667969 505.355469 L 77.335938 505.355469 L 77.335938 509.398438 L 38.667969 509.398438 Z M 38.667969 505.355469 "/>
<path style=" stroke:none;fill-rule:nonzero;fill:rgb(66.27451%,66.27451%,66.27451%);fill-opacity:1;" d="M 77.332031 501.3125 L 116 501.3125 L 116 505.355469 L 77.332031 505.355469 Z M 77.332031 501.3125 "/>
<path style=" stroke:none;fill-rule:nonzero;fill:rgb(50.196078%,50.196078%,50.196078%);fill-opacity:1;" d="M 77.332031 505.355469 L 116 505.355469 L 116 509.398438 L 77.332031 509.398438 Z M 77.332031 505.355469 "/>
<path style=" stroke:none;fill-rule:nonzero;fill:rgb(50.196078%,50.196078%,50.196078%);fill-opacity:1;" d="M 0 509.398438 L 38.667969 509.398438 L 38.667969 513.441406 L 0 513.441406 Z M 0 509.398438 "/>
<path style=" stroke:none;fill-rule:nonzero;fill:rgb(0%,0%,0%);fill-opacity:1;" d="M 0 513.441406 L 38.667969 513.441406 L 38.667969 517.484375 L 0 517.484375 Z M 0 513.441406 "/>
<path style=" stroke:none;fill-rule:nonzero;fill:rgb(82.745098%,82.745098%,82.745098%);fill-opacity:1;" d="M 38.667969 509.398438 L 77.335938 509.398438 L 77.335938 513.441406 L 38.667969 513.441406 Z M 38.667969 509.398438 "/>
<path style=" stroke:none;fill-rule:nonzero;fill:rgb(50.196078%,50.196078%,50.196078%);fill-opacity:1;" d="M 38.667969 513.441406 L 77.335938 513.441406 L 77.335938 517.484375 L 38.667969 517.484375 Z M 38.667969 513.441406 "/>
<path style=" stroke:none;fill-rule:nonzero;fill:rgb(66.27451%,66.27451%,66.27451%);fill-opacity:1;" d="M 77.332031 509.398438 L 116 509.398438 L 116 513.441406 L 77.332031 513.441406 Z M 77.332031 509.398438 "/>
<path style=" stroke:none;fill-rule:nonzero;fill:rgb(0%,0%,0%);fill-opacity:1;" d="M 77.332031 513.441406 L 116 513.441406 L 116 517.484375 L 77.332031 517.484375 Z M 77.332031 513.441406 "/>
<path style=" stroke:none;fill-rule:nonzero;fill:rgb(50.196078%,50.196078%,50.196078%);fill-opacity:1;" d="M 0 517.484375 L 38.667969 517.484375 L 38.667969 521.527344 L 0 521.527344 Z M 0 517.484375 "/>
<path style=" stroke:none;fill-rule:nonzero;fill:rgb(50.196078%,50.196078%,50.196078%);fill-opacity:1;" d="M 0 521.527344 L 38.667969 521.527344 L 38.667969 525.570312 L 0 525.570312 Z M 0 521.527344 "/>
<path style=" stroke:none;fill-rule:nonzero;fill:rgb(82.745098%,82.745098%,82.745098%);fill-opacity:1;" d="M 38.667969 517.484375 L 77.335938 517.484375 L 77.335938 521.527344 L 38.667969 521.527344 Z M 38.667969 517.484375 "/>
<path style=" stroke:none;fill-rule:nonzero;fill:rgb(0%,0%,0%);fill-opacity:1;" d="M 38.667969 521.527344 L 77.335938 521.527344 L 77.335938 525.570312 L 38.667969 525.570312 Z M 38.667969 521.527344 "/>
<path style=" stroke:none;fill-rule:nonzero;fill:rgb(66.27451%,66.27451%,66.27451%);fill-opacity:1;" d="M 77.332031 517.484375 L 116 517.484375 L 116 521.527344 L 77.332031 521.527344 Z M 77.332031 517.484375 "/>
<path style=" stroke:none;fill-rule:nonzero;fill:rgb(50.196078%,50.196078%,50.196078%);fill-opacity:1;" d="M 77.332031 521.527344 L 116 521.527344 L 116 525.570312 L 77.332031 525.570312 Z M 77.332031 521.527344 "/>
<path style=" stroke:none;fill-rule:nonzero;fill:rgb(50.196078%,50.196078%,50.196078%);fill-opacity:1;" d="M 0 525.570312 L 38.667969 525.570312 L 38.667969 529.613281 L 0 529.613281 Z M 0 525.570312 "/>
<path style=" stroke:none;fill-rule:nonzero;fill:rgb(0%,0%,0%);fill-opacity:1;" d="M 0 529.613281 L 38.667969 529.613281 L 38.667969 533.65625 L 0 533.65625 Z M 0 529.613281 "/>
<path style=" stroke:none;fill-rule:nonzero;fill:rgb(82.745098%,82.745098%,82.745098%);fill-opacity:1;" d="M 38.667969 525.570312 L 77.335938 525.570312 L 77.335938 529.613281 L 38.667969 529.613281 Z M 38.667969 525.570312 "/>
<path style=" stroke:none;fill-rule:nonzero;fill:rgb(50.196078%,50.196078%,50.196078%);fill-opacity:1;" d="M 38.667969 529.613281 L 77.335938 529.613281 L 77.335938 533.65625 L 38.667969 533.65625 Z M 38.667969 529.613281 "/>
<path style=" stroke:none;fill-rule:nonzero;fill:rgb(66.27451%,66.27451%,66.27451%);fill-opacity:1;" d="M 77.332031 525.570312 L 116 525.570312 L 116 529.613281 L 77.332031 529.613281 Z M 77.332031 525.570312 "/>
<path style=" stroke:none;fill-rule:nonzero;fill:rgb(0%,0%,0%);fill-opacity:1;" d="M 77.332031 529.613281 L 116 529.613281 L 116 533.65625 L 77.332031 533.65625 Z M 77.332031 529.613281 "/>
<path style=" stroke:none;fill-rule:nonzero;fill:rgb(50.196078%,50.196078%,50.196078%);fill-opacity:1;" d="M 0 533.65625 L 38.667969 533.65625 L 38.667969 537.699219 L 0 537.699219 Z M 0 533.65625 "/>
<path style=" stroke:none;fill-rule:nonzero;fill:rgb(50.196078%,50.196078%,50.196078%);fill-opacity:1;" d="M 0 537.699219 L 38.667969 537.699219 L 38.667969 541.742188 L 0 541.742188 Z M 0 537.699219 "/>
<path style=" stroke:none;fill-rule:nonzero;fill:rgb(82.745098%,82.745098%,82.745098%);fill-opacity:1;" d="M 38.667969 533.65625 L 77.335938 533.65625 L 77.335938 537.699219 L 38.667969 537.699219 Z M 38.667969 533.65625 "/>
<path style=" stroke:none;fill-rule:nonzero;fill:rgb(0%,0%,0%);fill-opacity:1;" d="M 38.667969 537.699219 L 77.335938 537.699219 L 77.335938 541.742188 L 38.667969 541.742188 Z M 38.667969 537.699219 "/>
<path style=" stroke:none;fill-rule:nonzero;fill:rgb(66.27451%,66.27451%,66.27451%);fill-opacity:1;" d="M 77.332031 533.65625 L 116 533.65625 L 116 537.699219 L 77.332031 537.699219 Z M 77.332031 533.65625 "/>
<path style=" stroke:none;fill-rule:nonzero;fill:rgb(50.196078%,50.196078%,50.196078%);fill-opacity:1;" d="M 77.332031 537.699219 L 116 537.699219 L 116 541.742188 L 77.332031 541.742188 Z M 77.332031 537.699219 "/>
<path style=" stroke:none;fill-rule:nonzero;fill:rgb(50.196078%,50.196078%,50.196078%);fill-opacity:1;" d="M 0 541.742188 L 38.667969 541.742188 L 38.667969 545.785156 L 0 545.785156 Z M 0 541.742188 "/>
<path style=" stroke:none;fill-rule:nonzero;fill:rgb(0%,0%,0%);fill-opacity:1;" d="M 0 545.785156 L 38.667969 545.785156 L 38.667969 549.828125 L 0 549.828125 Z M 0 545.785156 "/>
<path style=" stroke:none;fill-rule:nonzero;fill:rgb(82.745098%,82.745098%,82.745098%);fill-opacity:1;" d="M 38.667969 541.742188 L 77.335938 541.742188 L 77.335938 545.785156 L 38.667969 545.785156 Z M 38.667969 541.742188 "/>
<path style=" stroke:none;fill-rule:nonzero;fill:rgb(50.196078%,50.196078%,50.196078%);fill-opacity:1;" d="M 38.667969 545.785156 L 77.335938 545.785156 L 77.335938 549.828125 L 38.667969 549.828125 Z M 38.667969 545.785156 "/>
<path style=" stroke:none;fill-rule:nonzero;fill:rgb(66.27451%,66.27451%,66.27451%);fill-opacity:1;" d="M 77.332031 541.742188 L 116 541.742188 L 116 545.785156 L 77.332031 545.785156 Z M 77.332031 541.742188 "/>
<path style=" stroke:none;fill-rule:nonzero;fill:rgb(0%,0%,0%);fill-opacity:1;" d="M 77.332031 545.785156 L 116 545.785156 L 116 549.828125 L 77.332031 549.828125 Z M 77.332031 545.785156 "/>
<path style=" stroke:none;fill-rule:nonzero;fill:rgb(50.196078%,50.196078%,50.196078%);fill-opacity:1;" d="M 0 549.828125 L 38.667969 549.828125 L 38.667969 553.871094 L 0 553.871094 Z M 0 549.828125 "/>
<path style=" stroke:none;fill-rule:nonzero;fill:rgb(50.196078%,50.196078%,50.196078%);fill-opacity:1;" d="M 0 553.871094 L 38.667969 553.871094 L 38.667969 557.914062 L 0 557.914062 Z M 0 553.871094 "/>
<path style=" stroke:none;fill-rule:nonzero;fill:rgb(82.745098%,82.745098%,82.745098%);fill-opacity:1;" d="M 38.667969 549.828125 L 77.335938 549.828125 L 77.335938 553.871094 L 38.667969 553.871094 Z M 38.667969 549.828125 "/>
<path style=" stroke:none;fill-rule:nonzero;fill:rgb(0%,0%,0%);fill-opacity:1;" d="M 38.667969 553.871094 L 77.335938 553.871094 L 77.335938 557.914062 L 38.667969 557.914062 Z M 38.667969 553.871094 "/>
<path style=" stroke:none;fill-rule:nonzero;fill:rgb(66.27451%,66.27451%,66.27451%);fill-opacity:1;" d="M 77.332031 549.828125 L 116 549.828125 L 116 553.871094 L 77.332031 553.871094 Z M 77.332031 549.828125 "/>
<path style=" stroke:none;fill-rule:nonzero;fill:rgb(50.196078%,50.196078%,50.196078%);fill-opacity:1;" d="M 77.332031 553.871094 L 116 553.871094 L 116 557.914062 L 77.332031 557.914062 Z M 77.332031 553.871094 "/>
<path style=" stroke:none;fill-rule:nonzero;fill:rgb(50.196078%,50.196078%,50.196078%);fill-opacity:1;" d="M 0 557.914062 L 38.667969 557.914062 L 38.667969 561.957031 L 0 561.957031 Z M 0 557.914062 "/>
<path style=" stroke:none;fill-rule:nonzero;fill:rgb(0%,0%,0%);fill-opacity:1;" d="M 0 561.957031 L 38.667969 561.957031 L 38.667969 566 L 0 566 Z M 0 561.957031 "/>
<path style=" stroke:none;fill-rule:nonzero;fill:rgb(82.745098%,82.745098%,82.745098%);fill-opacity:1;" d="M 38.667969 557.914062 L 77.335938 557.914062 L 77.335938 561.957031 L 38.667969 561.957031 Z M 38.667969 557.914062 "/>
<path style=" stroke:none;fill-rule:nonzero;fill:rgb(50.196078%,50.196078%,50.196078%);fill-opacity:1;" d="M 38.667969 561.957031 L 77.335938 561.957031 L 77.335938 566 L 38.667969 566 Z M 38.667969 561.957031 "/>
<path style=" stroke:none;fill-rule:nonzero;fill:rgb(66.27451%,66.27451%,66.27451%);fill-opacity:1;" d="M 77.332031 557.914062 L 116 557.914062 L 116 561.957031 L 77.332031 561.957031 Z M 77.332031 557.914062 "/>
<path style=" stroke:none;fill-rule:nonzero;fill:rgb(0%,0%,0%);fill-opacity:1;" d="M 77.332031 561.957031 L 116 561.957031 L 116 566 L 77.332031 566 Z M 77.332031 561.957031 "/>
<path style=" stroke:none;fill-rule:nonzero;fill:rgb(0%,0%,0%);fill-opacity:1;" d="M 122.8125 5.6875 L 128.984375 5.6875 C 129.085938 5.6875 129.171875 5.738281 129.234375 5.84375 C 129.304688 5.945312 129.34375 6.054688 129.34375 6.171875 C 129.34375 6.304688 129.304688 6.425781 129.234375 6.53125 C 129.171875 6.632812 129.085938 6.6875 128.984375 6.6875 L 126.6875 6.6875 L 126.6875 8.1875 C 126.6875 8.28125 126.644531 8.351562 126.5625 8.40625 C 126.488281 8.457031 126.398438 8.484375 126.296875 8.484375 C 126.191406 8.484375 126.097656 8.457031 126.015625 8.40625 C 125.941406 8.351562 125.90625 8.28125 125.90625 8.1875 L 125.90625 6.6875 L 122.8125 6.6875 C 122.46875 6.6875 122.222656 6.757812 122.078125 6.90625 C 121.941406 7.050781 121.875 7.304688 121.875 7.671875 L 121.875 8.046875 C 121.875 8.179688 121.832031 8.285156 121.75 8.359375 C 121.664062 8.441406 121.5625 8.484375 121.4375 8.484375 C 121.320312 8.484375 121.21875 8.441406 121.125 8.359375 C 121.039062 8.273438 121 8.171875 121 8.046875 L 121 7.671875 C 121 6.347656 121.601562 5.6875 122.8125 5.6875 Z M 123.234375 9.203125 L 124.484375 9.203125 C 125.109375 9.203125 125.644531 9.4375 126.09375 9.90625 C 126.539062 10.375 126.765625 10.9375 126.765625 11.59375 C 126.765625 12.21875 126.550781 12.757812 126.125 13.21875 C 125.707031 13.675781 125.179688 13.90625 124.546875 13.90625 C 124.316406 13.90625 124.128906 13.875 123.984375 13.8125 C 123.847656 13.757812 123.75 13.675781 123.6875 13.5625 C 123.632812 13.445312 123.597656 13.335938 123.578125 13.234375 C 123.566406 13.140625 123.5625 13.003906 123.5625 12.828125 L 123.5625 10.203125 L 123.203125 10.203125 C 122.753906 10.203125 122.398438 10.359375 122.140625 10.671875 C 121.878906 10.992188 121.75 11.40625 121.75 11.90625 C 121.75 12.175781 121.785156 12.40625 121.859375 12.59375 C 121.941406 12.789062 122.019531 12.945312 122.09375 13.0625 C 122.175781 13.1875 122.21875 13.285156 122.21875 13.359375 C 122.21875 13.472656 122.164062 13.566406 122.0625 13.640625 C 121.957031 13.722656 121.851562 13.765625 121.75 13.765625 C 121.570312 13.765625 121.382812 13.582031 121.1875 13.21875 C 121 12.851562 120.90625 12.40625 120.90625 11.875 C 120.90625 11.09375 121.117188 10.453125 121.546875 9.953125 C 121.972656 9.453125 122.535156 9.203125 123.234375 9.203125 Z M 124.234375 10.203125 L 124.234375 12.421875 C 124.234375 12.628906 124.257812 12.769531 124.3125 12.84375 C 124.363281 12.914062 124.460938 12.953125 124.609375 12.953125 C 124.972656 12.953125 125.289062 12.816406 125.5625 12.546875 C 125.832031 12.285156 125.96875 11.96875 125.96875 11.59375 C 125.96875 11.207031 125.84375 10.878906 125.59375 10.609375 C 125.34375 10.335938 125.03125 10.203125 124.65625 10.203125 Z M 121.8125 14.660156 C 121.914062 14.660156 122.015625 14.691406 122.109375 14.753906 C 122.210938 14.824219 122.265625 14.910156 122.265625 15.003906 C 122.265625 15.066406 122.21875 15.152344 122.125 15.269531 C 122.03125 15.394531 121.9375 15.570312 121.84375 15.800781 C 121.75 16.027344 121.703125 16.292969 121.703125 16.597656 C 121.703125 16.992188 121.773438 17.277344 121.921875 17.457031 C 122.066406 17.644531 122.25 17.738281 122.46875 17.738281 C 122.726562 17.738281 122.9375 17.632812 123.09375 17.425781 C 123.25 17.226562 123.363281 16.980469 123.4375 16.691406 C 123.519531 16.410156 123.609375 16.121094 123.703125 15.832031 C 123.804688 15.550781 123.96875 15.304688 124.1875 15.097656 C 124.414062 14.898438 124.710938 14.800781 125.078125 14.800781 C 125.535156 14.800781 125.929688 14.960938 126.265625 15.285156 C 126.597656 15.605469 126.765625 16.101562 126.765625 16.769531 C 126.765625 17.195312 126.695312 17.582031 126.5625 17.925781 C 126.425781 18.277344 126.273438 18.457031 126.109375 18.457031 C 126.015625 18.457031 125.90625 18.417969 125.78125 18.347656 C 125.664062 18.273438 125.609375 18.179688 125.609375 18.066406 C 125.609375 18.035156 125.664062 17.878906 125.78125 17.597656 C 125.894531 17.324219 125.953125 17.054688 125.953125 16.785156 C 125.953125 16.417969 125.863281 16.144531 125.6875 15.957031 C 125.519531 15.777344 125.328125 15.691406 125.109375 15.691406 C 124.890625 15.691406 124.710938 15.789062 124.578125 15.988281 C 124.453125 16.183594 124.351562 16.429688 124.28125 16.722656 C 124.21875 17.023438 124.132812 17.316406 124.03125 17.597656 C 123.925781 17.886719 123.742188 18.132812 123.484375 18.332031 C 123.234375 18.527344 122.910156 18.628906 122.515625 18.628906 C 122.015625 18.628906 121.617188 18.449219 121.328125 18.097656 C 121.046875 17.753906 120.90625 17.261719 120.90625 16.628906 C 120.90625 16.085938 121 15.621094 121.1875 15.238281 C 121.382812 14.851562 121.59375 14.660156 121.8125 14.660156 Z M 122.8125 19.691406 L 128.984375 19.691406 C 129.085938 19.691406 129.171875 19.742188 129.234375 19.847656 C 129.304688 19.949219 129.34375 20.058594 129.34375 20.175781 C 129.34375 20.308594 129.304688 20.429688 129.234375 20.535156 C 129.171875 20.636719 129.085938 20.691406 128.984375 20.691406 L 126.6875 20.691406 L 126.6875 22.191406 C 126.6875 22.285156 126.644531 22.355469 126.5625 22.410156 C 126.488281 22.460938 126.398438 22.488281 126.296875 22.488281 C 126.191406 22.488281 126.097656 22.460938 126.015625 22.410156 C 125.941406 22.355469 125.90625 22.285156 125.90625 22.191406 L 125.90625 20.691406 L 122.8125 20.691406 C 122.46875 20.691406 122.222656 20.761719 122.078125 20.910156 C 121.941406 21.054688 121.875 21.308594 121.875 21.675781 L 121.875 22.050781 C 121.875 22.183594 121.832031 22.289062 121.75 22.363281 C 121.664062 22.445312 121.5625 22.488281 121.4375 22.488281 C 121.320312 22.488281 121.21875 22.445312 121.125 22.363281 C 121.039062 22.277344 121 22.175781 121 22.050781 L 121 21.675781 C 121 20.351562 121.601562 19.691406 122.8125 19.691406 Z M 121 22.722656 "/>
</g>
</svg>
