<?xml version="1.0" encoding="UTF-8"?>
<svg xmlns="http://www.w3.org/2000/svg" xmlns:xlink="http://www.w3.org/1999/xlink" width="384pt" height="288pt" viewBox="0 0 384 288" version="1.1">
<g id="surface177">
<path style=" stroke:none;fill-rule:nonzero;fill:rgb(0%,0%,0%);fill-opacity:1;" d="M 0 0 L 284 0 L 284 288 L 0 288 Z M 0 0 "/>
<path style=" stroke:none;fill-rule:nonzero;fill:rgb(50.196078%,50.196078%,50.196078%);fill-opacity:1;" d="M 0 0 L 35.5 0 L 35.5 288 L 0 288 Z M 0 0 "/>
<path style=" stroke:none;fill-rule:nonzero;fill:rgb(0%,0%,0%);fill-opacity:1;" d="M 35.5 0 L 71 0 L 71 288 L 35.5 288 Z M 35.5 0 "/>
<path style=" stroke:none;fill-rule:nonzero;fill:rgb(50.196078%,50.196078%,50.196078%);fill-opacity:1;" d="M 71 0 L 106.5 0 L 106.5 288 L 71 288 Z M 71 0 "/>
<path style=" stroke:none;fill-rule:nonzero;fill:rgb(0%,0%,0%);fill-opacity:1;" d="M 106.5 0 L 142 0 L 142 288 L 106.5 288 Z M 106.5 0 "/>
<path style=" stroke:none;fill-rule:nonzero;fill:rgb(50.196078%,50.196078%,50.196078%);fill-opacity:1;" d="M 142 0 L 177.5 0 L 177.5 288 L 142 288 Z M 142 0 "/>
<path style=" stroke:none;fill-rule:nonzero;fill:rgb(0%,0%,0%);fill-opacity:1;" d="M 177.5 0 L 213 0 L 213 288 L 177.5 288 Z M 177.5 0 "/>
<path style=" stroke:none;fill-rule:nonzero;fill:rgb(50.196078%,50.196078%,50.196078%);fill-opacity:1;" d="M 213 0 L 248.5 0 L 248.5 288 L 213 288 Z M 213 0 "/>
<path style=" stroke:none;fill-rule:nonzero;fill:rgb(0%,0%,0%);fill-opacity:1;" d="M 248.5 0 L 284 0 L 284 288 L 248.5 288 Z M 248.5 0 "/>
<path style=" stroke:none;fill-rule:nonzero;fill:rgb(0%,0%,0%);fill-opacity:1;" d="M 350.34375 10.71875 L 356.875 10.71875 C 357.5 10.71875 358.03125 10.925781 358.46875 11.34375 C 358.90625 11.769531 359.125 12.269531 359.125 12.84375 L 359.125 13.265625 C 359.125 13.390625 359.078125 13.488281 358.984375 13.5625 C 358.898438 13.632812 358.796875 13.671875 358.671875 13.671875 C 358.554688 13.671875 358.457031 13.632812 358.375 13.5625 C 358.289062 13.488281 358.25 13.390625 358.25 13.265625 L 358.25 13.015625 C 358.25 12.640625 358.125 12.332031 357.875 12.09375 C 357.625 11.851562 357.316406 11.726562 356.953125 11.71875 L 355.6875 11.71875 L 355.6875 13.359375 C 355.6875 13.453125 355.644531 13.523438 355.5625 13.578125 C 355.488281 13.640625 355.398438 13.671875 355.296875 13.671875 C 355.191406 13.671875 355.097656 13.640625 355.015625 13.578125 C 354.941406 13.523438 354.90625 13.453125 354.90625 13.359375 L 354.90625 11.71875 L 350.34375 11.71875 C 350.25 11.71875 350.164062 11.664062 350.09375 11.5625 C 350.03125 11.46875 350 11.347656 350 11.203125 C 350 11.066406 350.03125 10.953125 350.09375 10.859375 C 350.15625 10.765625 350.238281 10.71875 350.34375 10.71875 Z M 352.234375 14.265625 L 353.453125 14.265625 C 354.066406 14.265625 354.601562 14.5 355.0625 14.96875 C 355.53125 15.4375 355.765625 15.988281 355.765625 16.625 C 355.765625 17.269531 355.535156 17.828125 355.078125 18.296875 C 354.617188 18.773438 354.078125 19.015625 353.453125 19.015625 L 352.234375 19.015625 C 351.617188 19.015625 351.078125 18.773438 350.609375 18.296875 C 350.140625 17.816406 349.90625 17.257812 349.90625 16.625 C 349.90625 16 350.140625 15.445312 350.609375 14.96875 C 351.078125 14.5 351.617188 14.265625 352.234375 14.265625 Z M 352.234375 15.265625 C 351.859375 15.265625 351.523438 15.398438 351.234375 15.671875 C 350.941406 15.941406 350.796875 16.265625 350.796875 16.640625 C 350.796875 17.015625 350.941406 17.335938 351.234375 17.609375 C 351.535156 17.878906 351.867188 18.015625 352.234375 18.015625 L 353.453125 18.015625 C 353.816406 18.015625 354.140625 17.878906 354.421875 17.609375 C 354.710938 17.335938 354.859375 17.015625 354.859375 16.640625 C 354.859375 16.265625 354.710938 15.941406 354.421875 15.671875 C 354.140625 15.398438 353.816406 15.265625 353.453125 15.265625 Z M 350.359375 20.316406 L 358.765625 20.316406 C 358.867188 20.316406 358.953125 20.363281 359.015625 20.457031 C 359.085938 20.550781 359.125 20.667969 359.125 20.816406 C 359.125 20.960938 359.085938 21.082031 359.015625 21.175781 C 358.953125 21.269531 358.867188 21.316406 358.765625 21.316406 L 350.359375 21.316406 C 350.273438 21.316406 350.191406 21.261719 350.109375 21.160156 C 350.035156 21.066406 350 20.949219 350 20.816406 C 350 20.679688 350.035156 20.558594 350.109375 20.457031 C 350.179688 20.363281 350.265625 20.316406 350.359375 20.316406 Z M 352.234375 22.617188 L 353.453125 22.617188 C 354.085938 22.617188 354.628906 22.828125 355.078125 23.257812 C 355.535156 23.683594 355.765625 24.1875 355.765625 24.773438 C 355.765625 25.136719 355.675781 25.453125 355.5 25.726562 C 355.320312 25.996094 355.101562 26.203125 354.84375 26.351562 L 358.765625 26.351562 C 358.867188 26.351562 358.953125 26.398438 359.015625 26.492188 C 359.085938 26.585938 359.125 26.703125 359.125 26.851562 C 359.125 26.996094 359.085938 27.109375 359.015625 27.195312 C 358.953125 27.289062 358.867188 27.335938 358.765625 27.335938 L 350.359375 27.335938 C 350.265625 27.335938 350.179688 27.289062 350.109375 27.195312 C 350.035156 27.101562 350 26.984375 350 26.851562 C 350 26.726562 350.035156 26.617188 350.109375 26.523438 C 350.179688 26.4375 350.265625 26.398438 350.359375 26.398438 L 350.84375 26.398438 C 350.582031 26.261719 350.359375 26.039062 350.171875 25.726562 C 349.996094 25.421875 349.90625 25.09375 349.90625 24.742188 C 349.90625 24.179688 350.140625 23.683594 350.609375 23.257812 C 351.078125 22.828125 351.617188 22.617188 352.234375 22.617188 Z M 352.234375 23.617188 C 351.867188 23.617188 351.535156 23.75 351.234375 24.023438 C 350.941406 24.292969 350.796875 24.609375 350.796875 24.976562 C 350.796875 25.328125 350.929688 25.648438 351.203125 25.929688 C 351.472656 26.210938 351.707031 26.351562 351.90625 26.351562 L 353.453125 26.351562 C 353.867188 26.351562 354.207031 26.210938 354.46875 25.929688 C 354.726562 25.65625 354.859375 25.34375 354.859375 24.992188 C 354.859375 24.617188 354.710938 24.292969 354.421875 24.023438 C 354.140625 23.75 353.816406 23.617188 353.453125 23.617188 Z M 350.359375 28.917969 L 358.40625 28.917969 C 358.519531 28.917969 358.609375 28.957031 358.671875 29.042969 C 358.734375 29.136719 358.765625 29.246094 358.765625 29.371094 L 358.765625 33.636719 C 358.765625 33.75 358.722656 33.832031 358.640625 33.886719 C 358.554688 33.949219 358.453125 33.980469 358.328125 33.980469 C 358.203125 33.980469 358.09375 33.949219 358 33.886719 C 357.90625 33.824219 357.859375 33.738281 357.859375 33.636719 L 357.859375 29.917969 L 354.8125 29.917969 L 354.8125 31.792969 C 354.8125 31.894531 354.769531 31.980469 354.6875 32.042969 C 354.601562 32.105469 354.5 32.136719 354.375 32.136719 C 354.269531 32.136719 354.175781 32.105469 354.09375 32.042969 C 354.007812 31.988281 353.96875 31.90625 353.96875 31.792969 L 353.96875 29.917969 L 350.90625 29.917969 L 350.90625 33.636719 C 350.90625 33.738281 350.859375 33.824219 350.765625 33.886719 C 350.679688 33.949219 350.570312 33.980469 350.4375 33.980469 C 350.320312 33.980469 350.21875 33.949219 350.125 33.886719 C 350.039062 33.832031 350 33.75 350 33.636719 L 350 29.371094 C 350 29.246094 350.03125 29.136719 350.09375 29.042969 C 350.15625 28.957031 350.242188 28.917969 350.359375 28.917969 Z M 355.28125 34.367188 C 355.394531 34.367188 355.492188 34.433594 355.578125 34.570312 C 355.671875 34.714844 355.71875 34.859375 355.71875 35.007812 C 355.71875 35.171875 355.648438 35.28125 355.515625 35.335938 L 351.4375 36.851562 L 355.46875 38.351562 C 355.632812 38.414062 355.71875 38.523438 355.71875 38.679688 C 355.71875 38.804688 355.671875 38.9375 355.578125 39.085938 C 355.492188 39.242188 355.394531 39.320312 355.28125 39.320312 C 355.21875 39.320312 355.15625 39.304688 355.09375 39.273438 L 350.109375 37.304688 C 349.964844 37.242188 349.890625 37.089844 349.890625 36.851562 C 349.890625 36.601562 349.964844 36.445312 350.109375 36.382812 L 355.09375 34.414062 C 355.1875 34.382812 355.25 34.367188 355.28125 34.367188 Z M 352.234375 39.957031 L 353.484375 39.957031 C 354.109375 39.957031 354.644531 40.191406 355.09375 40.660156 C 355.539062 41.128906 355.765625 41.691406 355.765625 42.347656 C 355.765625 42.972656 355.550781 43.511719 355.125 43.972656 C 354.707031 44.429688 354.179688 44.660156 353.546875 44.660156 C 353.316406 44.660156 353.128906 44.628906 352.984375 44.566406 C 352.847656 44.511719 352.75 44.429688 352.6875 44.316406 C 352.632812 44.199219 352.597656 44.089844 352.578125 43.988281 C 352.566406 43.894531 352.5625 43.757812 352.5625 43.582031 L 352.5625 40.957031 L 352.203125 40.957031 C 351.753906 40.957031 351.398438 41.113281 351.140625 41.425781 C 350.878906 41.746094 350.75 42.160156 350.75 42.660156 C 350.75 42.929688 350.785156 43.160156 350.859375 43.347656 C 350.941406 43.542969 351.019531 43.699219 351.09375 43.816406 C 351.175781 43.941406 351.21875 44.039062 351.21875 44.113281 C 351.21875 44.226562 351.164062 44.320312 351.0625 44.394531 C 350.957031 44.476562 350.851562 44.519531 350.75 44.519531 C 350.570312 44.519531 350.382812 44.335938 350.1875 43.972656 C 350 43.605469 349.90625 43.160156 349.90625 42.628906 C 349.90625 41.847656 350.117188 41.207031 350.546875 40.707031 C 350.972656 40.207031 351.535156 39.957031 352.234375 39.957031 Z M 353.234375 40.957031 L 353.234375 43.175781 C 353.234375 43.382812 353.257812 43.523438 353.3125 43.597656 C 353.363281 43.667969 353.460938 43.707031 353.609375 43.707031 C 353.972656 43.707031 354.289062 43.570312 354.5625 43.300781 C 354.832031 43.039062 354.96875 42.722656 354.96875 42.347656 C 354.96875 41.960938 354.84375 41.632812 354.59375 41.363281 C 354.34375 41.089844 354.03125 40.957031 353.65625 40.957031 Z M 350.359375 45.753906 L 355.34375 45.753906 C 355.445312 45.753906 355.53125 45.800781 355.59375 45.894531 C 355.65625 45.988281 355.6875 46.105469 355.6875 46.253906 C 355.6875 46.378906 355.65625 46.480469 355.59375 46.566406 C 355.53125 46.660156 355.445312 46.707031 355.34375 46.707031 L 354.78125 46.707031 C 355.050781 46.851562 355.28125 47.066406 355.46875 47.347656 C 355.664062 47.628906 355.765625 47.941406 355.765625 48.285156 L 355.765625 48.691406 C 355.765625 48.792969 355.71875 48.882812 355.625 48.957031 C 355.53125 49.027344 355.421875 49.066406 355.296875 49.066406 C 355.179688 49.066406 355.078125 49.027344 354.984375 48.957031 C 354.898438 48.882812 354.859375 48.792969 354.859375 48.691406 L 354.859375 48.285156 C 354.859375 47.867188 354.691406 47.507812 354.359375 47.207031 C 354.035156 46.902344 353.613281 46.753906 353.09375 46.753906 L 350.359375 46.753906 C 350.273438 46.753906 350.191406 46.699219 350.109375 46.597656 C 350.035156 46.503906 350 46.386719 350 46.253906 C 350 46.117188 350.035156 45.996094 350.109375 45.894531 C 350.179688 45.800781 350.265625 45.753906 350.359375 45.753906 Z M 355.28125 49.320312 C 355.40625 49.320312 355.515625 49.390625 355.609375 49.539062 C 355.710938 49.683594 355.765625 49.828125 355.765625 49.976562 C 355.765625 50.140625 355.695312 50.246094 355.5625 50.289062 L 351.375 51.882812 L 355.5625 53.304688 C 355.695312 53.367188 355.765625 53.46875 355.765625 53.617188 C 355.765625 53.75 355.710938 53.890625 355.609375 54.039062 C 355.515625 54.195312 355.398438 54.273438 355.265625 54.273438 C 355.222656 54.273438 355.179688 54.257812 355.140625 54.226562 L 350.265625 52.414062 L 349.65625 52.179688 C 349.554688 52.136719 349.367188 52.054688 349.09375 51.929688 C 348.824219 51.8125 348.625 51.714844 348.5 51.632812 C 348.375 51.558594 348.21875 51.449219 348.03125 51.304688 C 347.835938 51.15625 347.695312 51.015625 347.609375 50.882812 C 347.515625 50.746094 347.433594 50.585938 347.359375 50.398438 C 347.289062 50.210938 347.25 50.011719 347.25 49.804688 C 347.25 49.492188 347.402344 49.335938 347.703125 49.335938 C 347.984375 49.335938 348.125 49.429688 348.125 49.617188 C 348.125 49.980469 348.328125 50.328125 348.734375 50.664062 C 349.140625 51.007812 349.65625 51.242188 350.28125 51.367188 L 355.140625 49.367188 C 355.191406 49.335938 355.238281 49.320312 355.28125 49.320312 Z M 350.09375 57.605469 L 358.875 57.605469 C 358.976562 57.605469 359.0625 57.652344 359.125 57.746094 C 359.1875 57.839844 359.21875 57.941406 359.21875 58.058594 L 359.21875 60.027344 C 359.21875 60.128906 359.171875 60.214844 359.078125 60.277344 C 358.992188 60.339844 358.890625 60.371094 358.765625 60.371094 C 358.640625 60.371094 358.53125 60.339844 358.4375 60.277344 C 358.351562 60.214844 358.3125 60.128906 358.3125 60.027344 L 358.3125 58.605469 L 350.640625 58.605469 L 350.640625 60.027344 C 350.640625 60.128906 350.597656 60.214844 350.515625 60.277344 C 350.429688 60.339844 350.320312 60.371094 350.1875 60.371094 C 350.070312 60.371094 349.976562 60.339844 349.890625 60.277344 C 349.796875 60.214844 349.75 60.128906 349.75 60.027344 L 349.75 58.058594 C 349.75 57.941406 349.78125 57.839844 349.84375 57.746094 C 349.90625 57.652344 349.992188 57.605469 350.09375 57.605469 Z M 351.96875 60.90625 C 352.15625 60.90625 352.28125 60.9375 352.34375 61 C 352.40625 61.070312 352.4375 61.195312 352.4375 61.375 C 352.4375 61.5625 352.40625 61.691406 352.34375 61.765625 C 352.28125 61.847656 352.179688 61.890625 352.046875 61.890625 C 351.734375 61.890625 351.453125 62.019531 351.203125 62.28125 C 350.960938 62.539062 350.84375 62.9375 350.84375 63.46875 C 350.84375 64.53125 351.394531 65.0625 352.5 65.0625 L 352.71875 65.0625 C 353.695312 65.0625 354.1875 64.53125 354.1875 63.46875 C 354.1875 63.226562 354.328125 63.109375 354.609375 63.109375 C 354.890625 63.109375 355.03125 63.226562 355.03125 63.46875 C 355.03125 63.925781 355.132812 64.269531 355.34375 64.5 C 355.550781 64.738281 355.925781 64.859375 356.46875 64.859375 C 357.40625 64.859375 357.875 64.410156 357.875 63.515625 C 357.875 62.992188 357.757812 62.628906 357.53125 62.421875 C 357.300781 62.210938 357.03125 62.109375 356.71875 62.109375 C 356.425781 62.109375 356.28125 61.945312 356.28125 61.625 C 356.28125 61.40625 356.3125 61.257812 356.375 61.1875 C 356.445312 61.125 356.582031 61.09375 356.78125 61.09375 C 356.988281 61.09375 357.195312 61.128906 357.40625 61.203125 C 357.625 61.285156 357.835938 61.410156 358.046875 61.578125 C 358.253906 61.742188 358.425781 61.992188 358.5625 62.328125 C 358.695312 62.671875 358.765625 63.070312 358.765625 63.53125 C 358.765625 65.0625 358.054688 65.828125 356.640625 65.828125 C 356.140625 65.828125 355.710938 65.738281 355.359375 65.5625 C 355.015625 65.382812 354.769531 65.148438 354.625 64.859375 C 354.300781 65.671875 353.664062 66.078125 352.71875 66.078125 L 352.5 66.078125 C 351.613281 66.078125 350.960938 65.835938 350.546875 65.359375 C 350.128906 64.878906 349.921875 64.25 349.921875 63.46875 C 349.921875 62.632812 350.128906 62 350.546875 61.5625 C 350.972656 61.125 351.445312 60.90625 351.96875 60.90625 Z M 350.546875 66.992188 C 350.722656 66.992188 350.875 67.046875 351 67.164062 C 351.125 67.277344 351.1875 67.421875 351.1875 67.601562 C 351.1875 67.765625 351.125 67.914062 351 68.039062 C 350.882812 68.164062 350.734375 68.226562 350.546875 68.226562 C 350.410156 68.226562 349.929688 68.054688 349.09375 67.710938 C 348.992188 67.65625 348.9375 67.570312 348.9375 67.445312 C 348.9375 67.351562 348.964844 67.265625 349.015625 67.195312 C 349.070312 67.132812 349.136719 67.101562 349.21875 67.101562 C 349.273438 67.101562 349.320312 67.105469 349.359375 67.117188 L 349.96875 67.367188 C 350.070312 67.117188 350.265625 66.992188 350.546875 66.992188 Z M 352 68.964844 C 352.320312 68.964844 352.484375 69.128906 352.484375 69.464844 C 352.484375 69.808594 352.347656 69.980469 352.078125 69.980469 C 351.691406 69.980469 351.390625 70.125 351.171875 70.417969 C 350.953125 70.71875 350.84375 71.09375 350.84375 71.542969 C 350.84375 72.050781 350.984375 72.441406 351.265625 72.714844 C 351.546875 72.996094 351.960938 73.136719 352.515625 73.136719 L 352.75 73.136719 C 353.289062 73.136719 353.695312 72.996094 353.96875 72.714844 C 354.25 72.441406 354.390625 72.058594 354.390625 71.558594 L 354.390625 69.855469 C 354.390625 69.542969 354.519531 69.386719 354.78125 69.386719 C 354.863281 69.386719 354.953125 69.394531 355.046875 69.417969 L 358.40625 69.667969 C 358.644531 69.675781 358.765625 69.765625 358.765625 69.933594 L 358.765625 73.386719 C 358.765625 73.488281 358.71875 73.566406 358.625 73.621094 C 358.539062 73.683594 358.4375 73.714844 358.3125 73.714844 C 358.195312 73.714844 358.09375 73.683594 358 73.621094 C 357.90625 73.566406 357.859375 73.488281 357.859375 73.386719 L 357.859375 70.542969 L 355.234375 70.355469 L 355.234375 71.558594 C 355.234375 72.339844 355.03125 72.964844 354.625 73.433594 C 354.226562 73.902344 353.601562 74.136719 352.75 74.136719 L 352.515625 74.136719 C 351.628906 74.136719 350.972656 73.902344 350.546875 73.433594 C 350.128906 72.964844 349.921875 72.339844 349.921875 71.558594 C 349.921875 70.753906 350.125 70.121094 350.53125 69.652344 C 350.9375 69.191406 351.425781 68.964844 352 68.964844 Z M 350.1875 74.707031 C 350.320312 74.707031 350.429688 74.738281 350.515625 74.800781 C 350.597656 74.863281 350.640625 74.945312 350.640625 75.050781 L 350.640625 76.472656 L 358.3125 76.472656 L 358.3125 75.050781 C 358.3125 74.945312 358.351562 74.863281 358.4375 74.800781 C 358.53125 74.738281 358.640625 74.707031 358.765625 74.707031 C 358.890625 74.707031 358.992188 74.738281 359.078125 74.800781 C 359.171875 74.863281 359.21875 74.945312 359.21875 75.050781 L 359.21875 77.019531 C 359.21875 77.144531 359.1875 77.246094 359.125 77.332031 C 359.0625 77.425781 358.976562 77.472656 358.875 77.472656 L 350.09375 77.472656 C 349.992188 77.472656 349.90625 77.425781 349.84375 77.332031 C 349.78125 77.246094 349.75 77.144531 349.75 77.019531 L 349.75 75.050781 C 349.75 74.945312 349.796875 74.863281 349.890625 74.800781 C 349.976562 74.738281 350.070312 74.707031 350.1875 74.707031 Z M 351.859375 81.34375 L 356.953125 81.34375 C 357.578125 81.34375 358.109375 81.570312 358.546875 82.03125 C 358.992188 82.5 359.21875 83.046875 359.21875 83.671875 C 359.21875 83.992188 359.066406 84.15625 358.765625 84.15625 C 358.628906 84.15625 358.519531 84.125 358.4375 84.0625 C 358.351562 84 358.3125 83.914062 358.3125 83.8125 C 358.3125 83.375 358.171875 83.019531 357.890625 82.75 C 357.617188 82.476562 357.304688 82.34375 356.953125 82.34375 L 351.859375 82.34375 C 351.421875 82.34375 351.109375 82.488281 350.921875 82.78125 C 350.742188 83.070312 350.65625 83.414062 350.65625 83.8125 C 350.65625 84.039062 350.503906 84.15625 350.203125 84.15625 C 349.914062 84.15625 349.765625 83.984375 349.765625 83.640625 C 349.765625 82.992188 349.949219 82.445312 350.3125 82 C 350.675781 81.5625 351.191406 81.34375 351.859375 81.34375 Z M 350.8125 84.734375 C 350.914062 84.734375 351.015625 84.765625 351.109375 84.828125 C 351.210938 84.898438 351.265625 84.984375 351.265625 85.078125 C 351.265625 85.140625 351.21875 85.226562 351.125 85.34375 C 351.03125 85.46875 350.9375 85.644531 350.84375 85.875 C 350.75 86.101562 350.703125 86.367188 350.703125 86.671875 C 350.703125 87.066406 350.773438 87.351562 350.921875 87.53125 C 351.066406 87.71875 351.25 87.8125 351.46875 87.8125 C 351.726562 87.8125 351.9375 87.707031 352.09375 87.5 C 352.25 87.300781 352.363281 87.054688 352.4375 86.765625 C 352.519531 86.484375 352.609375 86.195312 352.703125 85.90625 C 352.804688 85.625 352.96875 85.378906 353.1875 85.171875 C 353.414062 84.972656 353.710938 84.875 354.078125 84.875 C 354.535156 84.875 354.929688 85.035156 355.265625 85.359375 C 355.597656 85.679688 355.765625 86.175781 355.765625 86.84375 C 355.765625 87.269531 355.695312 87.65625 355.5625 88 C 355.425781 88.351562 355.273438 88.53125 355.109375 88.53125 C 355.015625 88.53125 354.90625 88.492188 354.78125 88.421875 C 354.664062 88.347656 354.609375 88.253906 354.609375 88.140625 C 354.609375 88.109375 354.664062 87.953125 354.78125 87.671875 C 354.894531 87.398438 354.953125 87.128906 354.953125 86.859375 C 354.953125 86.492188 354.863281 86.21875 354.6875 86.03125 C 354.519531 85.851562 354.328125 85.765625 354.109375 85.765625 C 353.890625 85.765625 353.710938 85.863281 353.578125 86.0625 C 353.453125 86.257812 353.351562 86.503906 353.28125 86.796875 C 353.21875 87.097656 353.132812 87.390625 353.03125 87.671875 C 352.925781 87.960938 352.742188 88.207031 352.484375 88.40625 C 352.234375 88.601562 351.910156 88.703125 351.515625 88.703125 C 351.015625 88.703125 350.617188 88.523438 350.328125 88.171875 C 350.046875 87.828125 349.90625 87.335938 349.90625 86.703125 C 349.90625 86.160156 350 85.695312 350.1875 85.3125 C 350.382812 84.925781 350.59375 84.734375 350.8125 84.734375 Z M 350.359375 89.894531 L 358.765625 89.894531 C 358.867188 89.894531 358.953125 89.941406 359.015625 90.035156 C 359.085938 90.128906 359.125 90.246094 359.125 90.394531 C 359.125 90.539062 359.085938 90.660156 359.015625 90.753906 C 358.953125 90.847656 358.867188 90.894531 358.765625 90.894531 L 350.359375 90.894531 C 350.273438 90.894531 350.191406 90.839844 350.109375 90.738281 C 350.035156 90.644531 350 90.527344 350 90.394531 C 350 90.257812 350.035156 90.136719 350.109375 90.035156 C 350.179688 89.941406 350.265625 89.894531 350.359375 89.894531 Z M 352.234375 92.191406 L 353.453125 92.191406 C 354.066406 92.191406 354.601562 92.425781 355.0625 92.894531 C 355.53125 93.363281 355.765625 93.914062 355.765625 94.550781 C 355.765625 95.195312 355.535156 95.753906 355.078125 96.222656 C 354.617188 96.699219 354.078125 96.941406 353.453125 96.941406 L 352.234375 96.941406 C 351.617188 96.941406 351.078125 96.699219 350.609375 96.222656 C 350.140625 95.742188 349.90625 95.183594 349.90625 94.550781 C 349.90625 93.925781 350.140625 93.371094 350.609375 92.894531 C 351.078125 92.425781 351.617188 92.191406 352.234375 92.191406 Z M 352.234375 93.191406 C 351.859375 93.191406 351.523438 93.324219 351.234375 93.597656 C 350.941406 93.867188 350.796875 94.191406 350.796875 94.566406 C 350.796875 94.941406 350.941406 95.261719 351.234375 95.535156 C 351.535156 95.804688 351.867188 95.941406 352.234375 95.941406 L 353.453125 95.941406 C 353.816406 95.941406 354.140625 95.804688 354.421875 95.535156 C 354.710938 95.261719 354.859375 94.941406 354.859375 94.566406 C 354.859375 94.191406 354.710938 93.867188 354.421875 93.597656 C 354.140625 93.324219 353.816406 93.191406 353.453125 93.191406 Z M 355.28125 97.605469 C 355.394531 97.605469 355.492188 97.667969 355.578125 97.792969 C 355.671875 97.925781 355.71875 98.066406 355.71875 98.214844 C 355.71875 98.378906 355.648438 98.488281 355.515625 98.542969 L 351.484375 99.996094 L 355.125 101.121094 C 355.28125 101.171875 355.359375 101.296875 355.359375 101.496094 C 355.359375 101.691406 355.28125 101.816406 355.125 101.871094 L 351.453125 102.980469 L 355.515625 104.449219 C 355.648438 104.480469 355.71875 104.578125 355.71875 104.746094 C 355.71875 104.890625 355.671875 105.03125 355.578125 105.167969 C 355.492188 105.300781 355.394531 105.371094 355.28125 105.371094 C 355.21875 105.371094 355.15625 105.355469 355.09375 105.324219 L 350.109375 103.464844 C 349.964844 103.402344 349.890625 103.265625 349.890625 103.058594 C 349.890625 102.839844 349.964844 102.703125 350.109375 102.652344 L 353.640625 101.496094 L 350.140625 100.355469 C 349.976562 100.292969 349.890625 100.144531 349.890625 99.917969 C 349.890625 99.707031 349.976562 99.574219 350.140625 99.511719 L 355.09375 97.652344 C 355.1875 97.621094 355.25 97.605469 355.28125 97.605469 Z M 350.359375 108.324219 L 351.53125 108.324219 C 351.882812 108.324219 352.234375 108.457031 352.578125 108.730469 C 352.929688 109.011719 353.25 109.34375 353.53125 109.730469 L 354.390625 110.902344 C 354.671875 111.285156 354.984375 111.613281 355.328125 111.886719 C 355.679688 112.167969 356.035156 112.308594 356.390625 112.308594 C 356.773438 112.308594 357.113281 112.183594 357.40625 111.933594 C 357.695312 111.683594 357.84375 111.324219 357.84375 110.855469 C 357.84375 110.449219 357.726562 110.121094 357.5 109.871094 C 357.269531 109.621094 356.945312 109.496094 356.53125 109.496094 C 356.425781 109.496094 356.332031 109.441406 356.25 109.339844 C 356.164062 109.246094 356.125 109.121094 356.125 108.964844 C 356.125 108.660156 356.320312 108.511719 356.71875 108.511719 C 357.320312 108.511719 357.8125 108.734375 358.1875 109.183594 C 358.570312 109.640625 358.765625 110.199219 358.765625 110.855469 C 358.765625 111.550781 358.539062 112.136719 358.09375 112.605469 C 357.65625 113.082031 357.101562 113.324219 356.4375 113.324219 C 356.03125 113.324219 355.644531 113.222656 355.28125 113.027344 C 354.914062 112.828125 354.601562 112.582031 354.34375 112.292969 C 354.082031 112 353.828125 111.683594 353.578125 111.339844 L 352.890625 110.386719 C 352.691406 110.09375 352.472656 109.847656 352.234375 109.652344 C 351.992188 109.453125 351.757812 109.355469 351.53125 109.355469 L 350.90625 109.355469 L 350.90625 113.042969 C 350.90625 113.136719 350.859375 113.214844 350.765625 113.277344 C 350.679688 113.347656 350.578125 113.386719 350.453125 113.386719 C 350.335938 113.386719 350.234375 113.347656 350.140625 113.277344 C 350.046875 113.214844 350 113.136719 350 113.042969 L 350 108.777344 C 350 108.671875 350.03125 108.566406 350.09375 108.464844 C 350.164062 108.371094 350.253906 108.324219 350.359375 108.324219 Z M 350.203125 113.960938 C 350.503906 113.960938 350.65625 114.074219 350.65625 114.304688 C 350.65625 114.699219 350.742188 115.042969 350.921875 115.335938 C 351.109375 115.625 351.421875 115.773438 351.859375 115.773438 L 356.953125 115.773438 C 357.304688 115.773438 357.617188 115.636719 357.890625 115.367188 C 358.171875 115.09375 358.3125 114.742188 358.3125 114.304688 C 358.3125 114.199219 358.351562 114.117188 358.4375 114.054688 C 358.519531 113.992188 358.628906 113.960938 358.765625 113.960938 C 359.066406 113.960938 359.21875 114.121094 359.21875 114.445312 C 359.21875 115.070312 358.992188 115.609375 358.546875 116.070312 C 358.109375 116.539062 357.578125 116.773438 356.953125 116.773438 L 351.859375 116.773438 C 351.191406 116.773438 350.675781 116.546875 350.3125 116.101562 C 349.949219 115.664062 349.765625 115.117188 349.765625 114.460938 C 349.765625 114.125 349.914062 113.960938 350.203125 113.960938 Z M 351.375 120.28125 C 351.507812 120.28125 351.632812 120.328125 351.75 120.421875 C 351.875 120.515625 351.9375 120.613281 351.9375 120.71875 C 351.9375 120.78125 351.882812 120.867188 351.78125 120.984375 C 351.6875 121.097656 351.582031 121.210938 351.46875 121.328125 C 351.351562 121.441406 351.242188 121.625 351.140625 121.875 C 351.046875 122.125 350.988281 122.40625 350.96875 122.71875 L 354.15625 122.71875 L 354.40625 122.0625 C 354.457031 121.914062 354.550781 121.722656 354.6875 121.484375 C 354.820312 121.242188 354.957031 121.066406 355.09375 120.953125 C 355.238281 120.835938 355.429688 120.734375 355.671875 120.640625 C 355.910156 120.546875 356.175781 120.5 356.46875 120.5 C 356.832031 120.5 357.148438 120.5625 357.421875 120.6875 C 357.703125 120.8125 357.921875 120.984375 358.078125 121.203125 C 358.234375 121.429688 358.351562 121.664062 358.4375 121.90625 C 358.519531 122.15625 358.578125 122.425781 358.609375 122.71875 L 358.96875 122.71875 C 359.03125 122.71875 359.085938 122.742188 359.140625 122.796875 C 359.191406 122.859375 359.21875 122.9375 359.21875 123.03125 C 359.21875 123.101562 359.191406 123.171875 359.140625 123.234375 C 359.085938 123.304688 359.03125 123.34375 358.96875 123.34375 L 358.625 123.34375 C 358.601562 123.820312 358.519531 124.253906 358.375 124.640625 C 358.238281 125.035156 358.0625 125.234375 357.84375 125.234375 C 357.726562 125.234375 357.601562 125.191406 357.46875 125.109375 C 357.34375 125.035156 357.28125 124.929688 357.28125 124.796875 C 357.28125 124.765625 357.347656 124.597656 357.484375 124.296875 C 357.628906 124.003906 357.710938 123.6875 357.734375 123.34375 L 354.984375 123.34375 C 354.878906 123.65625 354.769531 123.910156 354.65625 124.109375 C 354.550781 124.316406 354.40625 124.535156 354.21875 124.765625 C 354.03125 124.992188 353.789062 125.164062 353.5 125.28125 C 353.207031 125.394531 352.863281 125.453125 352.46875 125.453125 C 351.769531 125.453125 351.210938 125.257812 350.796875 124.875 C 350.390625 124.5 350.144531 123.988281 350.0625 123.34375 L 349.625 123.34375 C 349.5625 123.34375 349.507812 123.304688 349.453125 123.234375 C 349.402344 123.171875 349.375 123.101562 349.375 123.03125 C 349.375 122.9375 349.402344 122.859375 349.453125 122.796875 C 349.507812 122.742188 349.5625 122.71875 349.625 122.71875 L 350.03125 122.71875 C 350.03125 122.03125 350.179688 121.453125 350.484375 120.984375 C 350.796875 120.515625 351.09375 120.28125 351.375 120.28125 Z M 356.5625 121.453125 C 356.1875 121.453125 355.90625 121.5625 355.71875 121.78125 C 355.53125 122 355.359375 122.328125 355.203125 122.765625 L 357.71875 122.765625 C 357.625 121.890625 357.238281 121.453125 356.5625 121.453125 Z M 351 123.296875 C 351.125 124.085938 351.582031 124.484375 352.375 124.484375 C 352.789062 124.484375 353.113281 124.378906 353.34375 124.171875 C 353.582031 123.972656 353.78125 123.679688 353.9375 123.296875 Z M 352.234375 128.816406 L 353.453125 128.816406 C 354.085938 128.816406 354.628906 129.027344 355.078125 129.457031 C 355.535156 129.882812 355.765625 130.386719 355.765625 130.972656 C 355.765625 131.335938 355.675781 131.652344 355.5 131.925781 C 355.320312 132.195312 355.101562 132.402344 354.84375 132.550781 L 358.765625 132.550781 C 358.867188 132.550781 358.953125 132.597656 359.015625 132.691406 C 359.085938 132.785156 359.125 132.902344 359.125 133.050781 C 359.125 133.195312 359.085938 133.308594 359.015625 133.394531 C 358.953125 133.488281 358.867188 133.535156 358.765625 133.535156 L 350.359375 133.535156 C 350.265625 133.535156 350.179688 133.488281 350.109375 133.394531 C 350.035156 133.300781 350 133.183594 350 133.050781 C 350 132.925781 350.035156 132.816406 350.109375 132.722656 C 350.179688 132.636719 350.265625 132.597656 350.359375 132.597656 L 350.84375 132.597656 C 350.582031 132.460938 350.359375 132.238281 350.171875 131.925781 C 349.996094 131.621094 349.90625 131.292969 349.90625 130.941406 C 349.90625 130.378906 350.140625 129.882812 350.609375 129.457031 C 351.078125 129.027344 351.617188 128.816406 352.234375 128.816406 Z M 352.234375 129.816406 C 351.867188 129.816406 351.535156 129.949219 351.234375 130.222656 C 350.941406 130.492188 350.796875 130.808594 350.796875 131.175781 C 350.796875 131.527344 350.929688 131.847656 351.203125 132.128906 C 351.472656 132.410156 351.707031 132.550781 351.90625 132.550781 L 353.453125 132.550781 C 353.867188 132.550781 354.207031 132.410156 354.46875 132.128906 C 354.726562 131.855469 354.859375 131.542969 354.859375 131.191406 C 354.859375 130.816406 354.710938 130.492188 354.421875 130.222656 C 354.140625 129.949219 353.816406 129.816406 353.453125 129.816406 Z M 352.234375 134.746094 L 353.484375 134.746094 C 354.109375 134.746094 354.644531 134.980469 355.09375 135.449219 C 355.539062 135.917969 355.765625 136.480469 355.765625 137.136719 C 355.765625 137.761719 355.550781 138.300781 355.125 138.761719 C 354.707031 139.21875 354.179688 139.449219 353.546875 139.449219 C 353.316406 139.449219 353.128906 139.417969 352.984375 139.355469 C 352.847656 139.300781 352.75 139.21875 352.6875 139.105469 C 352.632812 138.988281 352.597656 138.878906 352.578125 138.777344 C 352.566406 138.683594 352.5625 138.546875 352.5625 138.371094 L 352.5625 135.746094 L 352.203125 135.746094 C 351.753906 135.746094 351.398438 135.902344 351.140625 136.214844 C 350.878906 136.535156 350.75 136.949219 350.75 137.449219 C 350.75 137.71875 350.785156 137.949219 350.859375 138.136719 C 350.941406 138.332031 351.019531 138.488281 351.09375 138.605469 C 351.175781 138.730469 351.21875 138.828125 351.21875 138.902344 C 351.21875 139.015625 351.164062 139.109375 351.0625 139.183594 C 350.957031 139.265625 350.851562 139.308594 350.75 139.308594 C 350.570312 139.308594 350.382812 139.125 350.1875 138.761719 C 350 138.394531 349.90625 137.949219 349.90625 137.417969 C 349.90625 136.636719 350.117188 135.996094 350.546875 135.496094 C 350.972656 134.996094 351.535156 134.746094 352.234375 134.746094 Z M 353.234375 135.746094 L 353.234375 137.964844 C 353.234375 138.171875 353.257812 138.3125 353.3125 138.386719 C 353.363281 138.457031 353.460938 138.496094 353.609375 138.496094 C 353.972656 138.496094 354.289062 138.359375 354.5625 138.089844 C 354.832031 137.828125 354.96875 137.511719 354.96875 137.136719 C 354.96875 136.75 354.84375 136.421875 354.59375 136.152344 C 354.34375 135.878906 354.03125 135.746094 353.65625 135.746094 Z M 350.359375 140.542969 L 355.34375 140.542969 C 355.445312 140.542969 355.53125 140.589844 355.59375 140.683594 C 355.65625 140.777344 355.6875 140.894531 355.6875 141.042969 C 355.6875 141.15625 355.648438 141.261719 355.578125 141.355469 C 355.515625 141.449219 355.4375 141.496094 355.34375 141.496094 L 354.84375 141.496094 C 355.101562 141.621094 355.320312 141.824219 355.5 142.105469 C 355.675781 142.394531 355.765625 142.730469 355.765625 143.105469 C 355.765625 143.667969 355.535156 144.15625 355.078125 144.574219 C 354.628906 145 354.085938 145.214844 353.453125 145.214844 L 350.359375 145.214844 C 350.242188 145.214844 350.15625 145.160156 350.09375 145.058594 C 350.03125 144.964844 350 144.847656 350 144.714844 C 350 144.589844 350.03125 144.472656 350.09375 144.371094 C 350.15625 144.265625 350.242188 144.214844 350.359375 144.214844 L 353.453125 144.214844 C 353.816406 144.214844 354.140625 144.078125 354.421875 143.808594 C 354.710938 143.535156 354.859375 143.21875 354.859375 142.855469 C 354.859375 142.511719 354.726562 142.203125 354.46875 141.933594 C 354.207031 141.671875 353.867188 141.542969 353.453125 141.542969 L 350.359375 141.542969 C 350.273438 141.542969 350.191406 141.488281 350.109375 141.386719 C 350.035156 141.28125 350 141.167969 350 141.042969 C 350 140.90625 350.035156 140.785156 350.109375 140.683594 C 350.179688 140.589844 350.265625 140.542969 350.359375 140.542969 Z M 350.8125 146.238281 C 350.914062 146.238281 351.015625 146.269531 351.109375 146.332031 C 351.210938 146.402344 351.265625 146.488281 351.265625 146.582031 C 351.265625 146.644531 351.21875 146.730469 351.125 146.847656 C 351.03125 146.972656 350.9375 147.148438 350.84375 147.378906 C 350.75 147.605469 350.703125 147.871094 350.703125 148.175781 C 350.703125 148.570312 350.773438 148.855469 350.921875 149.035156 C 351.066406 149.222656 351.25 149.316406 351.46875 149.316406 C 351.726562 149.316406 351.9375 149.210938 352.09375 149.003906 C 352.25 148.804688 352.363281 148.558594 352.4375 148.269531 C 352.519531 147.988281 352.609375 147.699219 352.703125 147.410156 C 352.804688 147.128906 352.96875 146.882812 353.1875 146.675781 C 353.414062 146.476562 353.710938 146.378906 354.078125 146.378906 C 354.535156 146.378906 354.929688 146.539062 355.265625 146.863281 C 355.597656 147.183594 355.765625 147.679688 355.765625 148.347656 C 355.765625 148.773438 355.695312 149.160156 355.5625 149.503906 C 355.425781 149.855469 355.273438 150.035156 355.109375 150.035156 C 355.015625 150.035156 354.90625 149.996094 354.78125 149.925781 C 354.664062 149.851562 354.609375 149.757812 354.609375 149.644531 C 354.609375 149.613281 354.664062 149.457031 354.78125 149.175781 C 354.894531 148.902344 354.953125 148.632812 354.953125 148.363281 C 354.953125 147.996094 354.863281 147.722656 354.6875 147.535156 C 354.519531 147.355469 354.328125 147.269531 354.109375 147.269531 C 353.890625 147.269531 353.710938 147.367188 353.578125 147.566406 C 353.453125 147.761719 353.351562 148.007812 353.28125 148.300781 C 353.21875 148.601562 353.132812 148.894531 353.03125 149.175781 C 352.925781 149.464844 352.742188 149.710938 352.484375 149.910156 C 352.234375 150.105469 351.910156 150.207031 351.515625 150.207031 C 351.015625 150.207031 350.617188 150.027344 350.328125 149.675781 C 350.046875 149.332031 349.90625 148.839844 349.90625 148.207031 C 349.90625 147.664062 350 147.199219 350.1875 146.816406 C 350.382812 146.429688 350.59375 146.238281 350.8125 146.238281 Z M 357.421875 151.347656 C 357.535156 151.222656 357.664062 151.160156 357.8125 151.160156 C 357.96875 151.160156 358.101562 151.214844 358.21875 151.332031 C 358.332031 151.457031 358.390625 151.605469 358.390625 151.785156 C 358.390625 151.949219 358.332031 152.089844 358.21875 152.207031 C 358.101562 152.332031 357.96875 152.394531 357.8125 152.394531 C 357.664062 152.394531 357.535156 152.332031 357.421875 152.207031 C 357.304688 152.089844 357.25 151.949219 357.25 151.785156 C 357.25 151.617188 357.304688 151.472656 357.421875 151.347656 Z M 350.359375 151.285156 L 355.34375 151.285156 C 355.445312 151.285156 355.53125 151.332031 355.59375 151.425781 C 355.65625 151.527344 355.6875 151.648438 355.6875 151.785156 C 355.6875 151.929688 355.65625 152.050781 355.59375 152.144531 C 355.53125 152.238281 355.445312 152.285156 355.34375 152.285156 L 350.359375 152.285156 C 350.273438 152.285156 350.191406 152.230469 350.109375 152.128906 C 350.035156 152.035156 350 151.917969 350 151.785156 C 350 151.648438 350.035156 151.527344 350.109375 151.425781 C 350.179688 151.332031 350.265625 151.285156 350.359375 151.285156 Z M 351.8125 153.679688 L 357.984375 153.679688 C 358.085938 153.679688 358.171875 153.730469 358.234375 153.835938 C 358.304688 153.9375 358.34375 154.046875 358.34375 154.164062 C 358.34375 154.296875 358.304688 154.417969 358.234375 154.523438 C 358.171875 154.625 358.085938 154.679688 357.984375 154.679688 L 355.6875 154.679688 L 355.6875 156.179688 C 355.6875 156.273438 355.644531 156.34375 355.5625 156.398438 C 355.488281 156.449219 355.398438 156.476562 355.296875 156.476562 C 355.191406 156.476562 355.097656 156.449219 355.015625 156.398438 C 354.941406 156.34375 354.90625 156.273438 354.90625 156.179688 L 354.90625 154.679688 L 351.8125 154.679688 C 351.46875 154.679688 351.222656 154.75 351.078125 154.898438 C 350.941406 155.042969 350.875 155.296875 350.875 155.664062 L 350.875 156.039062 C 350.875 156.171875 350.832031 156.277344 350.75 156.351562 C 350.664062 156.433594 350.5625 156.476562 350.4375 156.476562 C 350.320312 156.476562 350.21875 156.433594 350.125 156.351562 C 350.039062 156.265625 350 156.164062 350 156.039062 L 350 155.664062 C 350 154.339844 350.601562 153.679688 351.8125 153.679688 Z M 355.28125 156.855469 C 355.40625 156.855469 355.515625 156.925781 355.609375 157.074219 C 355.710938 157.21875 355.765625 157.363281 355.765625 157.511719 C 355.765625 157.675781 355.695312 157.78125 355.5625 157.824219 L 351.375 159.417969 L 355.5625 160.839844 C 355.695312 160.902344 355.765625 161.003906 355.765625 161.152344 C 355.765625 161.285156 355.710938 161.425781 355.609375 161.574219 C 355.515625 161.730469 355.398438 161.808594 355.265625 161.808594 C 355.222656 161.808594 355.179688 161.792969 355.140625 161.761719 L 350.265625 159.949219 L 349.65625 159.714844 C 349.554688 159.671875 349.367188 159.589844 349.09375 159.464844 C 348.824219 159.347656 348.625 159.25 348.5 159.167969 C 348.375 159.09375 348.21875 158.984375 348.03125 158.839844 C 347.835938 158.691406 347.695312 158.550781 347.609375 158.417969 C 347.515625 158.28125 347.433594 158.121094 347.359375 157.933594 C 347.289062 157.746094 347.25 157.546875 347.25 157.339844 C 347.25 157.027344 347.402344 156.871094 347.703125 156.871094 C 347.984375 156.871094 348.125 156.964844 348.125 157.152344 C 348.125 157.515625 348.328125 157.863281 348.734375 158.199219 C 349.140625 158.542969 349.65625 158.777344 350.28125 158.902344 L 355.140625 156.902344 C 355.191406 156.871094 355.238281 156.855469 355.28125 156.855469 Z M 356.90625 164.464844 C 357.070312 164.464844 357.207031 164.535156 357.3125 164.683594 L 358.625 165.777344 C 358.726562 165.878906 358.78125 165.984375 358.78125 166.089844 C 358.78125 166.203125 358.75 166.308594 358.6875 166.402344 C 358.625 166.496094 358.535156 166.542969 358.421875 166.542969 L 350.359375 166.542969 C 350.242188 166.542969 350.15625 166.488281 350.09375 166.386719 C 350.03125 166.292969 350 166.171875 350 166.027344 C 350 165.890625 350.03125 165.769531 350.09375 165.667969 C 350.15625 165.574219 350.242188 165.527344 350.359375 165.527344 L 357.265625 165.527344 L 356.609375 165.089844 C 356.523438 165.003906 356.484375 164.921875 356.484375 164.839844 C 356.484375 164.734375 356.523438 164.644531 356.609375 164.574219 C 356.691406 164.5 356.789062 164.464844 356.90625 164.464844 Z M 352.546875 167.988281 L 356.15625 167.988281 C 357.0625 167.988281 357.722656 168.226562 358.140625 168.707031 C 358.554688 169.183594 358.765625 169.820312 358.765625 170.613281 C 358.765625 171.414062 358.554688 172.039062 358.140625 172.488281 C 357.734375 172.933594 357.25 173.160156 356.6875 173.160156 C 356.382812 173.160156 356.234375 173.003906 356.234375 172.691406 C 356.234375 172.347656 356.367188 172.175781 356.640625 172.175781 C 357.003906 172.175781 357.296875 172.023438 357.515625 171.722656 C 357.742188 171.417969 357.859375 171.042969 357.859375 170.597656 C 357.859375 169.535156 357.289062 169.003906 356.15625 169.003906 L 354.46875 169.003906 C 354.96875 169.386719 355.21875 169.972656 355.21875 170.753906 C 355.21875 172.355469 354.410156 173.160156 352.796875 173.160156 L 352.546875 173.160156 C 351.640625 173.160156 350.972656 172.925781 350.546875 172.457031 C 350.128906 171.988281 349.921875 171.363281 349.921875 170.582031 C 349.921875 169.800781 350.128906 169.167969 350.546875 168.691406 C 350.972656 168.222656 351.640625 167.988281 352.546875 167.988281 Z M 352.5 169.003906 C 351.363281 169.003906 350.796875 169.527344 350.796875 170.582031 C 350.796875 171.632812 351.363281 172.160156 352.5 172.160156 L 352.75 172.160156 C 353.832031 172.160156 354.375 171.632812 354.375 170.582031 C 354.375 169.527344 353.867188 169.003906 352.859375 169.003906 Z M 351.375 176.46875 C 351.507812 176.46875 351.632812 176.515625 351.75 176.609375 C 351.875 176.703125 351.9375 176.800781 351.9375 176.90625 C 351.9375 176.96875 351.882812 177.054688 351.78125 177.171875 C 351.6875 177.285156 351.582031 177.398438 351.46875 177.515625 C 351.351562 177.628906 351.242188 177.8125 351.140625 178.0625 C 351.046875 178.3125 350.988281 178.59375 350.96875 178.90625 L 354.15625 178.90625 L 354.40625 178.25 C 354.457031 178.101562 354.550781 177.910156 354.6875 177.671875 C 354.820312 177.429688 354.957031 177.253906 355.09375 177.140625 C 355.238281 177.023438 355.429688 176.921875 355.671875 176.828125 C 355.910156 176.734375 356.175781 176.6875 356.46875 176.6875 C 356.832031 176.6875 357.148438 176.75 357.421875 176.875 C 357.703125 177 357.921875 177.171875 358.078125 177.390625 C 358.234375 177.617188 358.351562 177.851562 358.4375 178.09375 C 358.519531 178.34375 358.578125 178.613281 358.609375 178.90625 L 358.96875 178.90625 C 359.03125 178.90625 359.085938 178.929688 359.140625 178.984375 C 359.191406 179.046875 359.21875 179.125 359.21875 179.21875 C 359.21875 179.289062 359.191406 179.359375 359.140625 179.421875 C 359.085938 179.492188 359.03125 179.53125 358.96875 179.53125 L 358.625 179.53125 C 358.601562 180.007812 358.519531 180.441406 358.375 180.828125 C 358.238281 181.222656 358.0625 181.421875 357.84375 181.421875 C 357.726562 181.421875 357.601562 181.378906 357.46875 181.296875 C 357.34375 181.222656 357.28125 181.117188 357.28125 180.984375 C 357.28125 180.953125 357.347656 180.785156 357.484375 180.484375 C 357.628906 180.191406 357.710938 179.875 357.734375 179.53125 L 354.984375 179.53125 C 354.878906 179.84375 354.769531 180.097656 354.65625 180.296875 C 354.550781 180.503906 354.40625 180.722656 354.21875 180.953125 C 354.03125 181.179688 353.789062 181.351562 353.5 181.46875 C 353.207031 181.582031 352.863281 181.640625 352.46875 181.640625 C 351.769531 181.640625 351.210938 181.445312 350.796875 181.0625 C 350.390625 180.6875 350.144531 180.175781 350.0625 179.53125 L 349.625 179.53125 C 349.5625 179.53125 349.507812 179.492188 349.453125 179.421875 C 349.402344 179.359375 349.375 179.289062 349.375 179.21875 C 349.375 179.125 349.402344 179.046875 349.453125 178.984375 C 349.507812 178.929688 349.5625 178.90625 349.625 178.90625 L 350.03125 178.90625 C 350.03125 178.21875 350.179688 177.640625 350.484375 177.171875 C 350.796875 176.703125 351.09375 176.46875 351.375 176.46875 Z M 356.5625 177.640625 C 356.1875 177.640625 355.90625 177.75 355.71875 177.96875 C 355.53125 178.1875 355.359375 178.515625 355.203125 178.953125 L 357.71875 178.953125 C 357.625 178.078125 357.238281 177.640625 356.5625 177.640625 Z M 351 179.484375 C 351.125 180.273438 351.582031 180.671875 352.375 180.671875 C 352.789062 180.671875 353.113281 180.566406 353.34375 180.359375 C 353.582031 180.160156 353.78125 179.867188 353.9375 179.484375 Z M 358.921875 184.9375 C 359.003906 184.9375 359.070312 184.976562 359.125 185.0625 C 359.1875 185.15625 359.21875 185.253906 359.21875 185.359375 C 359.21875 185.472656 359.1875 185.578125 359.125 185.671875 C 359.070312 185.765625 359.003906 185.8125 358.921875 185.8125 L 357.171875 185.6875 C 357.085938 185.6875 357.015625 185.660156 356.953125 185.609375 C 356.890625 185.554688 356.859375 185.476562 356.859375 185.375 C 356.859375 185.164062 356.960938 185.0625 357.171875 185.0625 Z M 358.921875 186.5625 C 359.003906 186.5625 359.070312 186.601562 359.125 186.6875 C 359.1875 186.78125 359.21875 186.882812 359.21875 187 C 359.21875 187.113281 359.1875 187.210938 359.125 187.296875 C 359.070312 187.390625 359.003906 187.4375 358.921875 187.4375 L 357.171875 187.328125 C 357.085938 187.328125 357.015625 187.296875 356.953125 187.234375 C 356.890625 187.179688 356.859375 187.101562 356.859375 187 C 356.859375 186.789062 356.960938 186.6875 357.171875 186.6875 Z M 348.875 188.132812 C 349.460938 188.132812 349.898438 188.453125 350.1875 189.101562 C 350.332031 188.695312 350.597656 188.492188 350.984375 188.492188 C 351.347656 188.492188 351.644531 188.6875 351.875 189.085938 C 352.238281 188.636719 352.742188 188.414062 353.390625 188.414062 L 353.78125 188.414062 C 354.363281 188.414062 354.835938 188.605469 355.203125 188.992188 C 355.578125 189.386719 355.765625 189.902344 355.765625 190.539062 C 355.765625 191.078125 355.609375 191.546875 355.296875 191.945312 C 355.816406 192.183594 356.078125 192.453125 356.078125 192.757812 C 356.078125 192.890625 356.035156 192.996094 355.953125 193.070312 C 355.878906 193.152344 355.796875 193.195312 355.703125 193.195312 C 355.578125 193.195312 355.484375 193.125 355.421875 192.992188 C 355.347656 192.71875 355.179688 192.5 354.921875 192.335938 C 354.617188 192.585938 354.238281 192.710938 353.78125 192.710938 L 353.390625 192.710938 C 352.804688 192.710938 352.328125 192.507812 351.953125 192.101562 C 351.578125 191.695312 351.390625 191.171875 351.390625 190.539062 C 351.390625 190.214844 351.453125 189.917969 351.578125 189.648438 C 351.453125 189.449219 351.3125 189.351562 351.15625 189.351562 C 351.007812 189.351562 350.894531 189.445312 350.8125 189.632812 C 350.726562 189.820312 350.675781 190.046875 350.65625 190.320312 C 350.632812 190.589844 350.59375 190.882812 350.53125 191.195312 C 350.476562 191.515625 350.40625 191.8125 350.3125 192.085938 C 350.226562 192.355469 350.078125 192.585938 349.859375 192.773438 C 349.632812 192.960938 349.34375 193.054688 349 193.054688 C 348.4375 193.054688 348.007812 192.824219 347.703125 192.367188 C 347.402344 191.917969 347.25 191.335938 347.25 190.617188 C 347.25 189.898438 347.398438 189.304688 347.6875 188.835938 C 347.980469 188.367188 348.375 188.132812 348.875 188.132812 Z M 348.984375 189.085938 C 348.671875 189.085938 348.421875 189.21875 348.234375 189.492188 C 348.046875 189.773438 347.953125 190.140625 347.953125 190.601562 C 347.953125 191.046875 348.046875 191.40625 348.234375 191.679688 C 348.421875 191.949219 348.671875 192.085938 348.984375 192.085938 C 349.109375 192.085938 349.21875 192.058594 349.3125 192.007812 C 349.40625 191.964844 349.492188 191.898438 349.5625 191.804688 C 349.625 191.710938 349.679688 191.609375 349.71875 191.507812 C 349.761719 191.414062 349.796875 191.289062 349.828125 191.132812 C 349.859375 190.984375 349.882812 190.859375 349.890625 190.757812 C 349.902344 190.664062 349.917969 190.53125 349.9375 190.367188 C 349.949219 190.199219 349.960938 190.085938 349.96875 190.023438 C 349.761719 189.398438 349.433594 189.085938 348.984375 189.085938 Z M 353.390625 189.382812 C 353.003906 189.382812 352.6875 189.484375 352.4375 189.695312 C 352.195312 189.902344 352.078125 190.195312 352.078125 190.570312 C 352.078125 190.921875 352.195312 191.203125 352.4375 191.414062 C 352.6875 191.632812 353.003906 191.742188 353.390625 191.742188 L 353.78125 191.742188 C 354.144531 191.742188 354.453125 191.632812 354.703125 191.414062 C 354.953125 191.203125 355.078125 190.917969 355.078125 190.554688 C 355.078125 190.1875 354.953125 189.902344 354.703125 189.695312 C 354.460938 189.484375 354.15625 189.382812 353.78125 189.382812 Z M 350.359375 194.050781 L 355.34375 194.050781 C 355.445312 194.050781 355.53125 194.097656 355.59375 194.191406 C 355.65625 194.285156 355.6875 194.402344 355.6875 194.550781 C 355.6875 194.675781 355.65625 194.777344 355.59375 194.863281 C 355.53125 194.957031 355.445312 195.003906 355.34375 195.003906 L 354.78125 195.003906 C 355.050781 195.148438 355.28125 195.363281 355.46875 195.644531 C 355.664062 195.925781 355.765625 196.238281 355.765625 196.582031 L 355.765625 196.988281 C 355.765625 197.089844 355.71875 197.179688 355.625 197.253906 C 355.53125 197.324219 355.421875 197.363281 355.296875 197.363281 C 355.179688 197.363281 355.078125 197.324219 354.984375 197.253906 C 354.898438 197.179688 354.859375 197.089844 354.859375 196.988281 L 354.859375 196.582031 C 354.859375 196.164062 354.691406 195.804688 354.359375 195.503906 C 354.035156 195.199219 353.613281 195.050781 353.09375 195.050781 L 350.359375 195.050781 C 350.273438 195.050781 350.191406 194.996094 350.109375 194.894531 C 350.035156 194.800781 350 194.683594 350 194.550781 C 350 194.414062 350.035156 194.292969 350.109375 194.191406 C 350.179688 194.097656 350.265625 194.050781 350.359375 194.050781 Z M 352.234375 197.960938 L 353.484375 197.960938 C 354.109375 197.960938 354.644531 198.195312 355.09375 198.664062 C 355.539062 199.132812 355.765625 199.695312 355.765625 200.351562 C 355.765625 200.976562 355.550781 201.515625 355.125 201.976562 C 354.707031 202.433594 354.179688 202.664062 353.546875 202.664062 C 353.316406 202.664062 353.128906 202.632812 352.984375 202.570312 C 352.847656 202.515625 352.75 202.433594 352.6875 202.320312 C 352.632812 202.203125 352.597656 202.09375 352.578125 201.992188 C 352.566406 201.898438 352.5625 201.761719 352.5625 201.585938 L 352.5625 198.960938 L 352.203125 198.960938 C 351.753906 198.960938 351.398438 199.117188 351.140625 199.429688 C 350.878906 199.75 350.75 200.164062 350.75 200.664062 C 350.75 200.933594 350.785156 201.164062 350.859375 201.351562 C 350.941406 201.546875 351.019531 201.703125 351.09375 201.820312 C 351.175781 201.945312 351.21875 202.042969 351.21875 202.117188 C 351.21875 202.230469 351.164062 202.324219 351.0625 202.398438 C 350.957031 202.480469 350.851562 202.523438 350.75 202.523438 C 350.570312 202.523438 350.382812 202.339844 350.1875 201.976562 C 350 201.609375 349.90625 201.164062 349.90625 200.632812 C 349.90625 199.851562 350.117188 199.210938 350.546875 198.710938 C 350.972656 198.210938 351.535156 197.960938 352.234375 197.960938 Z M 353.234375 198.960938 L 353.234375 201.179688 C 353.234375 201.386719 353.257812 201.527344 353.3125 201.601562 C 353.363281 201.671875 353.460938 201.710938 353.609375 201.710938 C 353.972656 201.710938 354.289062 201.574219 354.5625 201.304688 C 354.832031 201.042969 354.96875 200.726562 354.96875 200.351562 C 354.96875 199.964844 354.84375 199.636719 354.59375 199.367188 C 354.34375 199.09375 354.03125 198.960938 353.65625 198.960938 Z M 355.28125 203.199219 C 355.40625 203.199219 355.515625 203.269531 355.609375 203.417969 C 355.710938 203.5625 355.765625 203.707031 355.765625 203.855469 C 355.765625 204.019531 355.695312 204.125 355.5625 204.167969 L 351.375 205.761719 L 355.5625 207.183594 C 355.695312 207.246094 355.765625 207.347656 355.765625 207.496094 C 355.765625 207.628906 355.710938 207.769531 355.609375 207.917969 C 355.515625 208.074219 355.398438 208.152344 355.265625 208.152344 C 355.222656 208.152344 355.179688 208.136719 355.140625 208.105469 L 350.265625 206.292969 L 349.65625 206.058594 C 349.554688 206.015625 349.367188 205.933594 349.09375 205.808594 C 348.824219 205.691406 348.625 205.59375 348.5 205.511719 C 348.375 205.4375 348.21875 205.328125 348.03125 205.183594 C 347.835938 205.035156 347.695312 204.894531 347.609375 204.761719 C 347.515625 204.625 347.433594 204.464844 347.359375 204.277344 C 347.289062 204.089844 347.25 203.890625 347.25 203.683594 C 347.25 203.371094 347.402344 203.214844 347.703125 203.214844 C 347.984375 203.214844 348.125 203.308594 348.125 203.496094 C 348.125 203.859375 348.328125 204.207031 348.734375 204.542969 C 349.140625 204.886719 349.65625 205.121094 350.28125 205.246094 L 355.140625 203.246094 C 355.191406 203.214844 355.238281 203.199219 355.28125 203.199219 Z M 350.359375 211.421875 L 358.765625 211.421875 C 358.867188 211.421875 358.953125 211.46875 359.015625 211.5625 C 359.085938 211.65625 359.125 211.769531 359.125 211.90625 C 359.125 212.050781 359.085938 212.171875 359.015625 212.265625 C 358.953125 212.367188 358.867188 212.421875 358.765625 212.421875 L 354.84375 212.421875 C 355.101562 212.566406 355.320312 212.773438 355.5 213.046875 C 355.675781 213.316406 355.765625 213.628906 355.765625 213.984375 C 355.765625 214.566406 355.535156 215.070312 355.078125 215.5 C 354.628906 215.925781 354.085938 216.140625 353.453125 216.140625 L 352.234375 216.140625 C 351.617188 216.140625 351.078125 215.925781 350.609375 215.5 C 350.140625 215.070312 349.90625 214.582031 349.90625 214.03125 C 349.90625 213.664062 349.996094 213.332031 350.171875 213.03125 C 350.359375 212.726562 350.582031 212.507812 350.84375 212.375 L 350.359375 212.375 C 350.265625 212.375 350.179688 212.328125 350.109375 212.234375 C 350.035156 212.140625 350 212.035156 350 211.921875 C 350 211.785156 350.035156 211.664062 350.109375 211.5625 C 350.179688 211.46875 350.265625 211.421875 350.359375 211.421875 Z M 351.90625 212.421875 C 351.707031 212.421875 351.472656 212.5625 351.203125 212.84375 C 350.929688 213.125 350.796875 213.4375 350.796875 213.78125 C 350.796875 214.144531 350.941406 214.460938 351.234375 214.734375 C 351.535156 215.003906 351.867188 215.140625 352.234375 215.140625 L 353.453125 215.140625 C 353.816406 215.140625 354.140625 215.003906 354.421875 214.734375 C 354.710938 214.460938 354.859375 214.144531 354.859375 213.78125 C 354.859375 213.414062 354.726562 213.097656 354.46875 212.828125 C 354.207031 212.554688 353.867188 212.421875 353.453125 212.421875 Z M 350.359375 217.441406 L 358.765625 217.441406 C 358.867188 217.441406 358.953125 217.488281 359.015625 217.582031 C 359.085938 217.675781 359.125 217.792969 359.125 217.941406 C 359.125 218.085938 359.085938 218.207031 359.015625 218.300781 C 358.953125 218.394531 358.867188 218.441406 358.765625 218.441406 L 350.359375 218.441406 C 350.273438 218.441406 350.191406 218.386719 350.109375 218.285156 C 350.035156 218.191406 350 218.074219 350 217.941406 C 350 217.804688 350.035156 217.683594 350.109375 217.582031 C 350.179688 217.488281 350.265625 217.441406 350.359375 217.441406 Z M 351.5 219.601562 C 352.125 219.601562 352.554688 219.839844 352.796875 220.320312 C 353.046875 220.796875 353.171875 221.492188 353.171875 222.398438 L 353.171875 222.976562 L 353.421875 222.976562 C 353.816406 222.976562 354.160156 222.867188 354.453125 222.648438 C 354.753906 222.429688 354.90625 222.101562 354.90625 221.664062 C 354.90625 221.320312 354.847656 221.015625 354.734375 220.757812 C 354.617188 220.507812 354.5625 220.371094 354.5625 220.351562 C 354.5625 220.234375 354.613281 220.140625 354.71875 220.070312 C 354.832031 220.007812 354.945312 219.976562 355.0625 219.976562 C 355.25 219.976562 355.410156 220.15625 355.546875 220.523438 C 355.691406 220.886719 355.765625 221.273438 355.765625 221.679688 C 355.765625 222.460938 355.539062 223.039062 355.09375 223.414062 C 354.644531 223.789062 354.09375 223.976562 353.4375 223.976562 L 350.359375 223.976562 C 350.253906 223.976562 350.164062 223.929688 350.09375 223.835938 C 350.03125 223.742188 350 223.621094 350 223.476562 C 350 223.351562 350.03125 223.242188 350.09375 223.148438 C 350.164062 223.0625 350.253906 223.023438 350.359375 223.023438 L 350.84375 223.023438 C 350.21875 222.480469 349.90625 221.875 349.90625 221.210938 C 349.90625 220.730469 350.039062 220.339844 350.3125 220.039062 C 350.582031 219.746094 350.976562 219.601562 351.5 219.601562 Z M 351.609375 220.601562 C 351.304688 220.601562 351.078125 220.683594 350.921875 220.851562 C 350.773438 221.015625 350.703125 221.242188 350.703125 221.523438 C 350.703125 221.855469 350.835938 222.179688 351.109375 222.492188 C 351.378906 222.8125 351.65625 222.976562 351.9375 222.976562 L 352.5625 222.976562 L 352.5625 222.554688 C 352.5625 222.324219 352.550781 222.125 352.53125 221.960938 C 352.519531 221.792969 352.492188 221.617188 352.453125 221.429688 C 352.421875 221.25 352.367188 221.105469 352.296875 220.992188 C 352.234375 220.875 352.144531 220.78125 352.03125 220.710938 C 351.914062 220.636719 351.773438 220.601562 351.609375 220.601562 Z M 352.234375 225.132812 L 353.4375 225.132812 C 354.125 225.132812 354.679688 225.335938 355.109375 225.742188 C 355.546875 226.148438 355.765625 226.742188 355.765625 227.523438 C 355.765625 228.023438 355.675781 228.4375 355.5 228.773438 C 355.320312 229.117188 355.132812 229.289062 354.9375 229.289062 C 354.820312 229.289062 354.707031 229.246094 354.59375 229.164062 C 354.488281 229.078125 354.4375 228.980469 354.4375 228.867188 C 354.4375 228.835938 354.503906 228.695312 354.640625 228.445312 C 354.785156 228.203125 354.859375 227.921875 354.859375 227.601562 C 354.859375 227.121094 354.734375 226.757812 354.484375 226.507812 C 354.234375 226.257812 353.882812 226.132812 353.4375 226.132812 L 352.234375 226.132812 C 351.273438 226.132812 350.796875 226.621094 350.796875 227.601562 C 350.796875 227.945312 350.867188 228.234375 351.015625 228.476562 C 351.160156 228.726562 351.234375 228.871094 351.234375 228.914062 C 351.234375 229.039062 351.179688 229.140625 351.078125 229.226562 C 350.972656 229.320312 350.863281 229.367188 350.75 229.367188 C 350.550781 229.367188 350.359375 229.1875 350.171875 228.835938 C 349.996094 228.480469 349.90625 228.046875 349.90625 227.539062 C 349.90625 226.746094 350.117188 226.148438 350.546875 225.742188 C 350.972656 225.335938 351.535156 225.132812 352.234375 225.132812 Z M 350.359375 230.355469 L 358.765625 230.355469 C 358.867188 230.355469 358.953125 230.402344 359.015625 230.496094 C 359.085938 230.589844 359.125 230.703125 359.125 230.839844 C 359.125 230.984375 359.085938 231.105469 359.015625 231.199219 C 358.953125 231.300781 358.867188 231.355469 358.765625 231.355469 L 353.15625 231.355469 L 355.625 234.089844 C 355.6875 234.160156 355.71875 234.234375 355.71875 234.308594 C 355.71875 234.421875 355.664062 234.53125 355.5625 234.636719 C 355.46875 234.75 355.363281 234.808594 355.25 234.808594 C 355.144531 234.808594 355.0625 234.769531 355 234.699219 L 353.53125 233.027344 L 350.640625 235.027344 C 350.578125 235.066406 350.515625 235.089844 350.453125 235.089844 C 350.335938 235.089844 350.222656 235.027344 350.109375 234.902344 C 350.003906 234.785156 349.953125 234.660156 349.953125 234.527344 C 349.953125 234.421875 350.003906 234.332031 350.109375 234.261719 L 352.90625 232.355469 L 352.015625 231.355469 L 350.359375 231.355469 C 350.273438 231.355469 350.191406 231.300781 350.109375 231.199219 C 350.035156 231.105469 350 230.988281 350 230.855469 C 350 230.71875 350.035156 230.597656 350.109375 230.496094 C 350.179688 230.402344 350.265625 230.355469 350.359375 230.355469 Z M 358.921875 235.664062 C 359.003906 235.664062 359.070312 235.703125 359.125 235.789062 C 359.1875 235.882812 359.21875 235.980469 359.21875 236.085938 C 359.21875 236.199219 359.1875 236.304688 359.125 236.398438 C 359.070312 236.492188 359.003906 236.539062 358.921875 236.539062 L 357.171875 236.414062 C 357.085938 236.414062 357.015625 236.386719 356.953125 236.335938 C 356.890625 236.28125 356.859375 236.203125 356.859375 236.101562 C 356.859375 235.890625 356.960938 235.789062 357.171875 235.789062 Z M 358.921875 237.289062 C 359.003906 237.289062 359.070312 237.328125 359.125 237.414062 C 359.1875 237.507812 359.21875 237.609375 359.21875 237.726562 C 359.21875 237.839844 359.1875 237.9375 359.125 238.023438 C 359.070312 238.117188 359.003906 238.164062 358.921875 238.164062 L 357.171875 238.054688 C 357.085938 238.054688 357.015625 238.023438 356.953125 237.960938 C 356.890625 237.90625 356.859375 237.828125 356.859375 237.726562 C 356.859375 237.515625 356.960938 237.414062 357.171875 237.414062 Z M 350 238.589844 "/>
</g>
</svg>
