<?xml version="1.0" encoding="UTF-8"?>
<svg xmlns="http://www.w3.org/2000/svg" xmlns:xlink="http://www.w3.org/1999/xlink" width="384pt" height="288pt" viewBox="0 0 384 288" version="1.1">
<g id="surface105">
<path style=" stroke:none;fill-rule:nonzero;fill:rgb(0%,0%,0%);fill-opacity:1;" d="M 0 0 L 284 0 L 284 288 L 0 288 Z M 0 0 "/>
<path style=" stroke:none;fill-rule:nonzero;fill:rgb(50.196078%,50.196078%,50.196078%);fill-opacity:1;" d="M 0 0 L 35.5 0 L 35.5 288 L 0 288 Z M 0 0 "/>
<path style=" stroke:none;fill-rule:nonzero;fill:rgb(0%,0%,0%);fill-opacity:1;" d="M 35.5 0 L 71 0 L 71 288 L 35.5 288 Z M 35.5 0 "/>
<path style=" stroke:none;fill-rule:nonzero;fill:rgb(50.196078%,50.196078%,50.196078%);fill-opacity:1;" d="M 71 0 L 106.5 0 L 106.5 288 L 71 288 Z M 71 0 "/>
<path style=" stroke:none;fill-rule:nonzero;fill:rgb(0%,0%,0%);fill-opacity:1;" d="M 106.5 0 L 142 0 L 142 288 L 106.5 288 Z M 106.5 0 "/>
<path style=" stroke:none;fill-rule:nonzero;fill:rgb(50.196078%,50.196078%,50.196078%);fill-opacity:1;" d="M 142 0 L 177.5 0 L 177.5 288 L 142 288 Z M 142 0 "/>
<path style=" stroke:none;fill-rule:nonzero;fill:rgb(0%,0%,0%);fill-opacity:1;" d="M 177.5 0 L 213 0 L 213 288 L 177.5 288 Z M 177.5 0 "/>
<path style=" stroke:none;fill-rule:nonzero;fill:rgb(50.196078%,50.196078%,50.196078%);fill-opacity:1;" d="M 213 0 L 248.5 0 L 248.5 288 L 213 288 Z M 213 0 "/>
<path style=" stroke:none;fill-rule:nonzero;fill:rgb(0%,0%,0%);fill-opacity:1;" d="M 248.5 0 L 284 0 L 284 288 L 248.5 288 Z M 248.5 0 "/>
</g>
</svg>
