<?xml version="1.0" encoding="UTF-8"?>
<svg xmlns="http://www.w3.org/2000/svg" xmlns:xlink="http://www.w3.org/1999/xlink" width="136pt" height="566pt" viewBox="0 0 136 566" version="1.1">
<g id="surface1">
<path style=" stroke:none;fill-rule:nonzero;fill:rgb(0%,0%,0%);fill-opacity:1;" d="M 0 0 L 116 0 L 116 566 L 0 566 Z M 0 0 "/>
<path style=" stroke:none;fill-rule:nonzero;fill:rgb(0%,0%,0%);fill-opacity:1;" d="M 0 0 L 58 0 L 58 566 L 0 566 Z M 0 0 "/>
<path style=" stroke:none;fill-rule:nonzero;fill:rgb(100%,100%,100%);fill-opacity:1;" d="M 58 0 L 116 0 L 116 566 L 58 566 Z M 58 0 "/>
<path style=" stroke:none;fill-rule:nonzero;fill:rgb(0%,0%,0%);fill-opacity:1;" d="M 129.921875 5.421875 C 130.003906 5.421875 130.070312 5.460938 130.125 5.546875 C 130.1875 5.640625 130.21875 5.738281 130.21875 5.84375 C 130.21875 5.957031 130.1875 6.0625 130.125 6.15625 C 130.070312 6.25 130.003906 6.296875 129.921875 6.296875 L 128.171875 6.171875 C 128.085938 6.171875 128.015625 6.144531 127.953125 6.09375 C 127.890625 6.039062 127.859375 5.960938 127.859375 5.859375 C 127.859375 5.648438 127.960938 5.546875 128.171875 5.546875 Z M 129.921875 7.046875 C 130.003906 7.046875 130.070312 7.085938 130.125 7.171875 C 130.1875 7.265625 130.21875 7.367188 130.21875 7.484375 C 130.21875 7.597656 130.1875 7.695312 130.125 7.78125 C 130.070312 7.875 130.003906 7.921875 129.921875 7.921875 L 128.171875 7.8125 C 128.085938 7.8125 128.015625 7.78125 127.953125 7.71875 C 127.890625 7.664062 127.859375 7.585938 127.859375 7.484375 C 127.859375 7.273438 127.960938 7.171875 128.171875 7.171875 Z M 121.359375 9.066406 L 129.765625 9.066406 C 129.867188 9.066406 129.953125 9.113281 130.015625 9.207031 C 130.085938 9.300781 130.125 9.414062 130.125 9.550781 C 130.125 9.695312 130.085938 9.816406 130.015625 9.910156 C 129.953125 10.011719 129.867188 10.066406 129.765625 10.066406 L 125.84375 10.066406 C 126.101562 10.210938 126.320312 10.417969 126.5 10.691406 C 126.675781 10.960938 126.765625 11.273438 126.765625 11.628906 C 126.765625 12.210938 126.535156 12.714844 126.078125 13.144531 C 125.628906 13.570312 125.085938 13.785156 124.453125 13.785156 L 123.234375 13.785156 C 122.617188 13.785156 122.078125 13.570312 121.609375 13.144531 C 121.140625 12.714844 120.90625 12.226562 120.90625 11.675781 C 120.90625 11.308594 120.996094 10.976562 121.171875 10.675781 C 121.359375 10.371094 121.582031 10.152344 121.84375 10.019531 L 121.359375 10.019531 C 121.265625 10.019531 121.179688 9.972656 121.109375 9.878906 C 121.035156 9.785156 121 9.679688 121 9.566406 C 121 9.429688 121.035156 9.308594 121.109375 9.207031 C 121.179688 9.113281 121.265625 9.066406 121.359375 9.066406 Z M 122.90625 10.066406 C 122.707031 10.066406 122.472656 10.207031 122.203125 10.488281 C 121.929688 10.769531 121.796875 11.082031 121.796875 11.425781 C 121.796875 11.789062 121.941406 12.105469 122.234375 12.378906 C 122.535156 12.648438 122.867188 12.785156 123.234375 12.785156 L 124.453125 12.785156 C 124.816406 12.785156 125.140625 12.648438 125.421875 12.378906 C 125.710938 12.105469 125.859375 11.789062 125.859375 11.425781 C 125.859375 11.058594 125.726562 10.742188 125.46875 10.472656 C 125.207031 10.199219 124.867188 10.066406 124.453125 10.066406 Z M 121.359375 15.089844 L 129.765625 15.089844 C 129.867188 15.089844 129.953125 15.136719 130.015625 15.230469 C 130.085938 15.324219 130.125 15.441406 130.125 15.589844 C 130.125 15.734375 130.085938 15.855469 130.015625 15.949219 C 129.953125 16.042969 129.867188 16.089844 129.765625 16.089844 L 121.359375 16.089844 C 121.273438 16.089844 121.191406 16.035156 121.109375 15.933594 C 121.035156 15.839844 121 15.722656 121 15.589844 C 121 15.453125 121.035156 15.332031 121.109375 15.230469 C 121.179688 15.136719 121.265625 15.089844 121.359375 15.089844 Z M 122.5 17.246094 C 123.125 17.246094 123.554688 17.484375 123.796875 17.964844 C 124.046875 18.441406 124.171875 19.136719 124.171875 20.042969 L 124.171875 20.621094 L 124.421875 20.621094 C 124.816406 20.621094 125.160156 20.511719 125.453125 20.292969 C 125.753906 20.074219 125.90625 19.746094 125.90625 19.308594 C 125.90625 18.964844 125.847656 18.660156 125.734375 18.402344 C 125.617188 18.152344 125.5625 18.015625 125.5625 17.996094 C 125.5625 17.878906 125.613281 17.785156 125.71875 17.714844 C 125.832031 17.652344 125.945312 17.621094 126.0625 17.621094 C 126.25 17.621094 126.410156 17.800781 126.546875 18.167969 C 126.691406 18.53125 126.765625 18.917969 126.765625 19.324219 C 126.765625 20.105469 126.539062 20.683594 126.09375 21.058594 C 125.644531 21.433594 125.09375 21.621094 124.4375 21.621094 L 121.359375 21.621094 C 121.253906 21.621094 121.164062 21.574219 121.09375 21.480469 C 121.03125 21.386719 121 21.265625 121 21.121094 C 121 20.996094 121.03125 20.886719 121.09375 20.792969 C 121.164062 20.707031 121.253906 20.667969 121.359375 20.667969 L 121.84375 20.667969 C 121.21875 20.125 120.90625 19.519531 120.90625 18.855469 C 120.90625 18.375 121.039062 17.984375 121.3125 17.683594 C 121.582031 17.390625 121.976562 17.246094 122.5 17.246094 Z M 122.609375 18.246094 C 122.304688 18.246094 122.078125 18.328125 121.921875 18.496094 C 121.773438 18.660156 121.703125 18.886719 121.703125 19.167969 C 121.703125 19.5 121.835938 19.824219 122.109375 20.136719 C 122.378906 20.457031 122.65625 20.621094 122.9375 20.621094 L 123.5625 20.621094 L 123.5625 20.199219 C 123.5625 19.96875 123.550781 19.769531 123.53125 19.605469 C 123.519531 19.4375 123.492188 19.261719 123.453125 19.074219 C 123.421875 18.894531 123.367188 18.75 123.296875 18.636719 C 123.234375 18.519531 123.144531 18.425781 123.03125 18.355469 C 122.914062 18.28125 122.773438 18.246094 122.609375 18.246094 Z M 123.234375 22.78125 L 124.4375 22.78125 C 125.125 22.78125 125.679688 22.984375 126.109375 23.390625 C 126.546875 23.796875 126.765625 24.390625 126.765625 25.171875 C 126.765625 25.671875 126.675781 26.085938 126.5 26.421875 C 126.320312 26.765625 126.132812 26.9375 125.9375 26.9375 C 125.820312 26.9375 125.707031 26.894531 125.59375 26.8125 C 125.488281 26.726562 125.4375 26.628906 125.4375 26.515625 C 125.4375 26.484375 125.503906 26.34375 125.640625 26.09375 C 125.785156 25.851562 125.859375 25.570312 125.859375 25.25 C 125.859375 24.769531 125.734375 24.40625 125.484375 24.15625 C 125.234375 23.90625 124.882812 23.78125 124.4375 23.78125 L 123.234375 23.78125 C 122.273438 23.78125 121.796875 24.269531 121.796875 25.25 C 121.796875 25.59375 121.867188 25.882812 122.015625 26.125 C 122.160156 26.375 122.234375 26.519531 122.234375 26.5625 C 122.234375 26.6875 122.179688 26.789062 122.078125 26.875 C 121.972656 26.96875 121.863281 27.015625 121.75 27.015625 C 121.550781 27.015625 121.359375 26.835938 121.171875 26.484375 C 120.996094 26.128906 120.90625 25.695312 120.90625 25.1875 C 120.90625 24.394531 121.117188 23.796875 121.546875 23.390625 C 121.972656 22.984375 122.535156 22.78125 123.234375 22.78125 Z M 121.359375 28.003906 L 129.765625 28.003906 C 129.867188 28.003906 129.953125 28.050781 130.015625 28.144531 C 130.085938 28.238281 130.125 28.351562 130.125 28.488281 C 130.125 28.632812 130.085938 28.753906 130.015625 28.847656 C 129.953125 28.949219 129.867188 29.003906 129.765625 29.003906 L 124.15625 29.003906 L 126.625 31.738281 C 126.6875 31.808594 126.71875 31.882812 126.71875 31.957031 C 126.71875 32.070312 126.664062 32.179688 126.5625 32.285156 C 126.46875 32.398438 126.363281 32.457031 126.25 32.457031 C 126.144531 32.457031 126.0625 32.417969 126 32.347656 L 124.53125 30.675781 L 121.640625 32.675781 C 121.578125 32.714844 121.515625 32.738281 121.453125 32.738281 C 121.335938 32.738281 121.222656 32.675781 121.109375 32.550781 C 121.003906 32.433594 120.953125 32.308594 120.953125 32.175781 C 120.953125 32.070312 121.003906 31.980469 121.109375 31.910156 L 123.90625 30.003906 L 123.015625 29.003906 L 121.359375 29.003906 C 121.273438 29.003906 121.191406 28.949219 121.109375 28.847656 C 121.035156 28.753906 121 28.636719 121 28.503906 C 121 28.367188 121.035156 28.246094 121.109375 28.144531 C 121.179688 28.050781 121.265625 28.003906 121.359375 28.003906 Z M 126.28125 35.460938 C 126.394531 35.460938 126.492188 35.523438 126.578125 35.648438 C 126.671875 35.78125 126.71875 35.921875 126.71875 36.070312 C 126.71875 36.234375 126.648438 36.34375 126.515625 36.398438 L 122.484375 37.851562 L 126.125 38.976562 C 126.28125 39.027344 126.359375 39.152344 126.359375 39.351562 C 126.359375 39.546875 126.28125 39.671875 126.125 39.726562 L 122.453125 40.835938 L 126.515625 42.304688 C 126.648438 42.335938 126.71875 42.433594 126.71875 42.601562 C 126.71875 42.746094 126.671875 42.886719 126.578125 43.023438 C 126.492188 43.15625 126.394531 43.226562 126.28125 43.226562 C 126.21875 43.226562 126.15625 43.210938 126.09375 43.179688 L 121.109375 41.320312 C 120.964844 41.257812 120.890625 41.121094 120.890625 40.914062 C 120.890625 40.695312 120.964844 40.558594 121.109375 40.507812 L 124.640625 39.351562 L 121.140625 38.210938 C 120.976562 38.148438 120.890625 38 120.890625 37.773438 C 120.890625 37.5625 120.976562 37.429688 121.140625 37.367188 L 126.09375 35.507812 C 126.1875 35.476562 126.25 35.460938 126.28125 35.460938 Z M 121.359375 44.105469 L 129.765625 44.105469 C 129.867188 44.105469 129.953125 44.152344 130.015625 44.246094 C 130.085938 44.339844 130.125 44.453125 130.125 44.589844 C 130.125 44.734375 130.085938 44.855469 130.015625 44.949219 C 129.953125 45.050781 129.867188 45.105469 129.765625 45.105469 L 125.84375 45.105469 C 126.101562 45.238281 126.320312 45.4375 126.5 45.699219 C 126.675781 45.96875 126.765625 46.292969 126.765625 46.667969 C 126.765625 47.230469 126.535156 47.71875 126.078125 48.136719 C 125.628906 48.5625 125.085938 48.777344 124.453125 48.777344 L 121.359375 48.777344 C 121.242188 48.777344 121.15625 48.722656 121.09375 48.621094 C 121.03125 48.527344 121 48.410156 121 48.277344 C 121 48.140625 121.03125 48.019531 121.09375 47.917969 C 121.15625 47.824219 121.242188 47.777344 121.359375 47.777344 L 124.453125 47.777344 C 124.816406 47.777344 125.140625 47.640625 125.421875 47.371094 C 125.710938 47.097656 125.859375 46.78125 125.859375 46.417969 C 125.859375 46.074219 125.726562 45.765625 125.46875 45.496094 C 125.207031 45.234375 124.867188 45.105469 124.453125 45.105469 L 121.359375 45.105469 C 121.273438 45.105469 121.191406 45.050781 121.109375 44.949219 C 121.035156 44.855469 121 44.738281 121 44.605469 C 121 44.46875 121.035156 44.347656 121.109375 44.246094 C 121.179688 44.152344 121.265625 44.105469 121.359375 44.105469 Z M 128.421875 50.203125 C 128.535156 50.078125 128.664062 50.015625 128.8125 50.015625 C 128.96875 50.015625 129.101562 50.070312 129.21875 50.1875 C 129.332031 50.3125 129.390625 50.460938 129.390625 50.640625 C 129.390625 50.804688 129.332031 50.945312 129.21875 51.0625 C 129.101562 51.1875 128.96875 51.25 128.8125 51.25 C 128.664062 51.25 128.535156 51.1875 128.421875 51.0625 C 128.304688 50.945312 128.25 50.804688 128.25 50.640625 C 128.25 50.472656 128.304688 50.328125 128.421875 50.203125 Z M 121.359375 50.140625 L 126.34375 50.140625 C 126.445312 50.140625 126.53125 50.1875 126.59375 50.28125 C 126.65625 50.382812 126.6875 50.503906 126.6875 50.640625 C 126.6875 50.785156 126.65625 50.90625 126.59375 51 C 126.53125 51.09375 126.445312 51.140625 126.34375 51.140625 L 121.359375 51.140625 C 121.273438 51.140625 121.191406 51.085938 121.109375 50.984375 C 121.035156 50.890625 121 50.773438 121 50.640625 C 121 50.503906 121.035156 50.382812 121.109375 50.28125 C 121.179688 50.1875 121.265625 50.140625 121.359375 50.140625 Z M 122.8125 52.535156 L 128.984375 52.535156 C 129.085938 52.535156 129.171875 52.585938 129.234375 52.691406 C 129.304688 52.792969 129.34375 52.902344 129.34375 53.019531 C 129.34375 53.152344 129.304688 53.273438 129.234375 53.378906 C 129.171875 53.480469 129.085938 53.535156 128.984375 53.535156 L 126.6875 53.535156 L 126.6875 55.035156 C 126.6875 55.128906 126.644531 55.199219 126.5625 55.253906 C 126.488281 55.304688 126.398438 55.332031 126.296875 55.332031 C 126.191406 55.332031 126.097656 55.304688 126.015625 55.253906 C 125.941406 55.199219 125.90625 55.128906 125.90625 55.035156 L 125.90625 53.535156 L 122.8125 53.535156 C 122.46875 53.535156 122.222656 53.605469 122.078125 53.753906 C 121.941406 53.898438 121.875 54.152344 121.875 54.519531 L 121.875 54.894531 C 121.875 55.027344 121.832031 55.132812 121.75 55.207031 C 121.664062 55.289062 121.5625 55.332031 121.4375 55.332031 C 121.320312 55.332031 121.21875 55.289062 121.125 55.207031 C 121.039062 55.121094 121 55.019531 121 54.894531 L 121 54.519531 C 121 53.195312 121.601562 52.535156 122.8125 52.535156 Z M 123.234375 56.054688 L 124.484375 56.054688 C 125.109375 56.054688 125.644531 56.289062 126.09375 56.757812 C 126.539062 57.226562 126.765625 57.789062 126.765625 58.445312 C 126.765625 59.070312 126.550781 59.609375 126.125 60.070312 C 125.707031 60.527344 125.179688 60.757812 124.546875 60.757812 C 124.316406 60.757812 124.128906 60.726562 123.984375 60.664062 C 123.847656 60.609375 123.75 60.527344 123.6875 60.414062 C 123.632812 60.296875 123.597656 60.1875 123.578125 60.085938 C 123.566406 59.992188 123.5625 59.855469 123.5625 59.679688 L 123.5625 57.054688 L 123.203125 57.054688 C 122.753906 57.054688 122.398438 57.210938 122.140625 57.523438 C 121.878906 57.84375 121.75 58.257812 121.75 58.757812 C 121.75 59.027344 121.785156 59.257812 121.859375 59.445312 C 121.941406 59.640625 122.019531 59.796875 122.09375 59.914062 C 122.175781 60.039062 122.21875 60.136719 122.21875 60.210938 C 122.21875 60.324219 122.164062 60.417969 122.0625 60.492188 C 121.957031 60.574219 121.851562 60.617188 121.75 60.617188 C 121.570312 60.617188 121.382812 60.433594 121.1875 60.070312 C 121 59.703125 120.90625 59.257812 120.90625 58.726562 C 120.90625 57.945312 121.117188 57.304688 121.546875 56.804688 C 121.972656 56.304688 122.535156 56.054688 123.234375 56.054688 Z M 124.234375 57.054688 L 124.234375 59.273438 C 124.234375 59.480469 124.257812 59.621094 124.3125 59.695312 C 124.363281 59.765625 124.460938 59.804688 124.609375 59.804688 C 124.972656 59.804688 125.289062 59.667969 125.5625 59.398438 C 125.832031 59.136719 125.96875 58.820312 125.96875 58.445312 C 125.96875 58.058594 125.84375 57.730469 125.59375 57.460938 C 125.34375 57.1875 125.03125 57.054688 124.65625 57.054688 Z M 129.921875 61.570312 C 130.003906 61.570312 130.070312 61.609375 130.125 61.695312 C 130.1875 61.789062 130.21875 61.886719 130.21875 61.992188 C 130.21875 62.105469 130.1875 62.210938 130.125 62.304688 C 130.070312 62.398438 130.003906 62.445312 129.921875 62.445312 L 128.171875 62.320312 C 128.085938 62.320312 128.015625 62.292969 127.953125 62.242188 C 127.890625 62.1875 127.859375 62.109375 127.859375 62.007812 C 127.859375 61.796875 127.960938 61.695312 128.171875 61.695312 Z M 129.921875 63.195312 C 130.003906 63.195312 130.070312 63.234375 130.125 63.320312 C 130.1875 63.414062 130.21875 63.515625 130.21875 63.632812 C 130.21875 63.746094 130.1875 63.84375 130.125 63.929688 C 130.070312 64.023438 130.003906 64.070312 129.921875 64.070312 L 128.171875 63.960938 C 128.085938 63.960938 128.015625 63.929688 127.953125 63.867188 C 127.890625 63.8125 127.859375 63.734375 127.859375 63.632812 C 127.859375 63.421875 127.960938 63.320312 128.171875 63.320312 Z M 121 64.496094 "/>
</g>
</svg>
