<?xml version="1.0" encoding="UTF-8"?>
<svg xmlns="http://www.w3.org/2000/svg" xmlns:xlink="http://www.w3.org/1999/xlink" width="384pt" height="288pt" viewBox="0 0 384 288" version="1.1">
<g id="surface101">
<path style=" stroke:none;fill-rule:nonzero;fill:rgb(0%,0%,0%);fill-opacity:1;" d="M 0 0 L 288 0 L 288 288 L 0 288 Z M 0 0 "/>
<path style=" stroke:none;fill-rule:nonzero;fill:rgb(50.196078%,50.196078%,50.196078%);fill-opacity:1;" d="M 0 0 L 36 0 L 36 288 L 0 288 Z M 0 0 "/>
<path style=" stroke:none;fill-rule:nonzero;fill:rgb(0%,0%,0%);fill-opacity:1;" d="M 36 0 L 72 0 L 72 288 L 36 288 Z M 36 0 "/>
<path style=" stroke:none;fill-rule:nonzero;fill:rgb(50.196078%,50.196078%,50.196078%);fill-opacity:1;" d="M 72 0 L 108 0 L 108 288 L 72 288 Z M 72 0 "/>
<path style=" stroke:none;fill-rule:nonzero;fill:rgb(0%,0%,0%);fill-opacity:1;" d="M 108 0 L 144 0 L 144 288 L 108 288 Z M 108 0 "/>
<path style=" stroke:none;fill-rule:nonzero;fill:rgb(50.196078%,50.196078%,50.196078%);fill-opacity:1;" d="M 144 0 L 180 0 L 180 288 L 144 288 Z M 144 0 "/>
<path style=" stroke:none;fill-rule:nonzero;fill:rgb(0%,0%,0%);fill-opacity:1;" d="M 180 0 L 216 0 L 216 288 L 180 288 Z M 180 0 "/>
<path style=" stroke:none;fill-rule:nonzero;fill:rgb(50.196078%,50.196078%,50.196078%);fill-opacity:1;" d="M 216 0 L 252 0 L 252 288 L 216 288 Z M 216 0 "/>
<path style=" stroke:none;fill-rule:nonzero;fill:rgb(0%,0%,0%);fill-opacity:1;" d="M 252 0 L 288 0 L 288 288 L 252 288 Z M 252 0 "/>
<path style=" stroke:none;fill-rule:nonzero;fill:rgb(0%,0%,0%);fill-opacity:1;" d="M 365.59375 11.203125 L 379.625 11.203125 C 379.789062 11.203125 379.925781 11.273438 380.03125 11.421875 C 380.144531 11.578125 380.203125 11.773438 380.203125 12.015625 C 380.203125 12.253906 380.144531 12.453125 380.03125 12.609375 C 379.925781 12.773438 379.789062 12.859375 379.625 12.859375 L 373.078125 12.859375 C 373.503906 13.085938 373.863281 13.425781 374.15625 13.875 C 374.445312 14.320312 374.59375 14.847656 374.59375 15.453125 C 374.59375 16.398438 374.21875 17.222656 373.46875 17.921875 C 372.71875 18.628906 371.816406 18.984375 370.765625 18.984375 L 365.59375 18.984375 C 365.40625 18.984375 365.257812 18.898438 365.15625 18.734375 C 365.050781 18.566406 365 18.367188 365 18.140625 C 365 17.921875 365.050781 17.726562 365.15625 17.5625 C 365.257812 17.394531 365.40625 17.3125 365.59375 17.3125 L 370.765625 17.3125 C 371.359375 17.3125 371.894531 17.082031 372.375 16.625 C 372.851562 16.175781 373.09375 15.648438 373.09375 15.046875 C 373.09375 14.472656 372.875 13.960938 372.4375 13.515625 C 372.007812 13.078125 371.453125 12.859375 370.765625 12.859375 L 365.59375 12.859375 C 365.445312 12.859375 365.3125 12.773438 365.1875 12.609375 C 365.0625 12.441406 365 12.242188 365 12.015625 C 365 11.796875 365.054688 11.601562 365.171875 11.4375 C 365.296875 11.28125 365.4375 11.203125 365.59375 11.203125 Z M 368.71875 20.890625 L 370.8125 20.890625 C 371.84375 20.890625 372.726562 21.28125 373.46875 22.0625 C 374.21875 22.84375 374.59375 23.78125 374.59375 24.875 C 374.59375 25.914062 374.242188 26.816406 373.546875 27.578125 C 372.847656 28.335938 371.972656 28.71875 370.921875 28.71875 C 370.535156 28.71875 370.222656 28.671875 369.984375 28.578125 C 369.753906 28.484375 369.585938 28.335938 369.484375 28.140625 C 369.390625 27.953125 369.328125 27.773438 369.296875 27.609375 C 369.273438 27.441406 369.265625 27.21875 369.265625 26.9375 L 369.265625 22.5625 L 368.65625 22.5625 C 367.925781 22.5625 367.335938 22.820312 366.890625 23.34375 C 366.453125 23.875 366.234375 24.554688 366.234375 25.390625 C 366.234375 25.835938 366.300781 26.222656 366.4375 26.546875 C 366.570312 26.867188 366.703125 27.128906 366.828125 27.328125 C 366.953125 27.535156 367.015625 27.695312 367.015625 27.8125 C 367.015625 28 366.929688 28.160156 366.765625 28.296875 C 366.597656 28.429688 366.429688 28.5 366.265625 28.5 C 365.953125 28.5 365.632812 28.191406 365.3125 27.578125 C 365 26.972656 364.84375 26.226562 364.84375 25.34375 C 364.84375 24.03125 365.195312 22.957031 365.90625 22.125 C 366.625 21.300781 367.5625 20.890625 368.71875 20.890625 Z M 370.375 22.5625 L 370.375 26.265625 C 370.375 26.609375 370.414062 26.835938 370.5 26.953125 C 370.59375 27.078125 370.765625 27.140625 371.015625 27.140625 C 371.617188 27.140625 372.144531 26.914062 372.59375 26.46875 C 373.050781 26.03125 373.28125 25.492188 373.28125 24.859375 C 373.28125 24.234375 373.066406 23.691406 372.640625 23.234375 C 372.222656 22.785156 371.707031 22.5625 371.09375 22.5625 Z M 365.59375 30.738281 L 379.625 30.738281 C 379.789062 30.738281 379.925781 30.808594 380.03125 30.957031 C 380.144531 31.113281 380.203125 31.308594 380.203125 31.550781 C 380.203125 31.800781 380.144531 32.003906 380.03125 32.160156 C 379.925781 32.316406 379.789062 32.394531 379.625 32.394531 L 365.59375 32.394531 C 365.445312 32.394531 365.3125 32.308594 365.1875 32.144531 C 365.0625 31.976562 365 31.777344 365 31.550781 C 365 31.332031 365.054688 31.136719 365.171875 30.972656 C 365.296875 30.816406 365.4375 30.738281 365.59375 30.738281 Z M 365.59375 35.121094 L 379.625 35.121094 C 379.789062 35.121094 379.925781 35.191406 380.03125 35.339844 C 380.144531 35.496094 380.203125 35.691406 380.203125 35.933594 C 380.203125 36.183594 380.144531 36.386719 380.03125 36.542969 C 379.925781 36.699219 379.789062 36.777344 379.625 36.777344 L 365.59375 36.777344 C 365.445312 36.777344 365.3125 36.691406 365.1875 36.527344 C 365.0625 36.359375 365 36.160156 365 35.933594 C 365 35.714844 365.054688 35.519531 365.171875 35.355469 C 365.296875 35.199219 365.4375 35.121094 365.59375 35.121094 Z M 368.71875 38.953125 L 370.765625 38.953125 C 371.785156 38.953125 372.675781 39.34375 373.4375 40.125 C 374.207031 40.90625 374.59375 41.828125 374.59375 42.890625 C 374.59375 43.960938 374.210938 44.890625 373.453125 45.671875 C 372.691406 46.460938 371.796875 46.859375 370.765625 46.859375 L 368.71875 46.859375 C 367.707031 46.859375 366.804688 46.460938 366.015625 45.671875 C 365.234375 44.878906 364.84375 43.957031 364.84375 42.90625 C 364.84375 41.851562 365.234375 40.929688 366.015625 40.140625 C 366.796875 39.347656 367.695312 38.953125 368.71875 38.953125 Z M 368.71875 40.625 C 368.09375 40.625 367.539062 40.847656 367.0625 41.296875 C 366.582031 41.753906 366.34375 42.289062 366.34375 42.90625 C 366.34375 43.53125 366.582031 44.066406 367.0625 44.515625 C 367.550781 44.972656 368.101562 45.203125 368.71875 45.203125 L 370.765625 45.203125 C 371.359375 45.203125 371.894531 44.972656 372.375 44.515625 C 372.851562 44.066406 373.09375 43.523438 373.09375 42.890625 C 373.09375 42.265625 372.851562 41.726562 372.375 41.28125 C 371.894531 40.84375 371.359375 40.625 370.765625 40.625 Z M 368.015625 52.820312 L 378.3125 52.820312 C 378.476562 52.820312 378.617188 52.902344 378.734375 53.070312 C 378.847656 53.246094 378.90625 53.433594 378.90625 53.632812 C 378.90625 53.851562 378.847656 54.042969 378.734375 54.210938 C 378.617188 54.386719 378.476562 54.476562 378.3125 54.476562 L 374.484375 54.476562 L 374.484375 56.992188 C 374.484375 57.148438 374.414062 57.265625 374.28125 57.351562 C 374.144531 57.445312 373.988281 57.492188 373.8125 57.492188 C 373.644531 57.492188 373.5 57.445312 373.375 57.351562 C 373.25 57.265625 373.1875 57.148438 373.1875 56.992188 L 373.1875 54.476562 L 368.015625 54.476562 C 367.441406 54.476562 367.035156 54.601562 366.796875 54.851562 C 366.566406 55.101562 366.453125 55.527344 366.453125 56.132812 L 366.453125 56.757812 C 366.453125 56.984375 366.382812 57.164062 366.25 57.289062 C 366.113281 57.414062 365.941406 57.476562 365.734375 57.476562 C 365.535156 57.476562 365.363281 57.40625 365.21875 57.273438 C 365.070312 57.148438 365 56.976562 365 56.757812 L 365 56.132812 C 365 53.921875 366.003906 52.820312 368.015625 52.820312 Z M 365.59375 59.082031 L 379.625 59.082031 C 379.789062 59.082031 379.925781 59.152344 380.03125 59.300781 C 380.144531 59.457031 380.203125 59.652344 380.203125 59.894531 C 380.203125 60.132812 380.144531 60.332031 380.03125 60.488281 C 379.925781 60.652344 379.789062 60.738281 379.625 60.738281 L 373.078125 60.738281 C 373.503906 60.964844 373.863281 61.304688 374.15625 61.753906 C 374.445312 62.199219 374.59375 62.726562 374.59375 63.332031 C 374.59375 64.277344 374.21875 65.101562 373.46875 65.800781 C 372.71875 66.507812 371.816406 66.863281 370.765625 66.863281 L 365.59375 66.863281 C 365.40625 66.863281 365.257812 66.777344 365.15625 66.613281 C 365.050781 66.445312 365 66.246094 365 66.019531 C 365 65.800781 365.050781 65.605469 365.15625 65.441406 C 365.257812 65.273438 365.40625 65.191406 365.59375 65.191406 L 370.765625 65.191406 C 371.359375 65.191406 371.894531 64.960938 372.375 64.503906 C 372.851562 64.054688 373.09375 63.527344 373.09375 62.925781 C 373.09375 62.351562 372.875 61.839844 372.4375 61.394531 C 372.007812 60.957031 371.453125 60.738281 370.765625 60.738281 L 365.59375 60.738281 C 365.445312 60.738281 365.3125 60.652344 365.1875 60.488281 C 365.0625 60.320312 365 60.121094 365 59.894531 C 365 59.675781 365.054688 59.480469 365.171875 59.316406 C 365.296875 59.160156 365.4375 59.082031 365.59375 59.082031 Z M 368.71875 68.773438 L 370.8125 68.773438 C 371.84375 68.773438 372.726562 69.164062 373.46875 69.945312 C 374.21875 70.726562 374.59375 71.664062 374.59375 72.757812 C 374.59375 73.796875 374.242188 74.699219 373.546875 75.460938 C 372.847656 76.21875 371.972656 76.601562 370.921875 76.601562 C 370.535156 76.601562 370.222656 76.554688 369.984375 76.460938 C 369.753906 76.367188 369.585938 76.21875 369.484375 76.023438 C 369.390625 75.835938 369.328125 75.65625 369.296875 75.492188 C 369.273438 75.324219 369.265625 75.101562 369.265625 74.820312 L 369.265625 70.445312 L 368.65625 70.445312 C 367.925781 70.445312 367.335938 70.703125 366.890625 71.226562 C 366.453125 71.757812 366.234375 72.4375 366.234375 73.273438 C 366.234375 73.71875 366.300781 74.105469 366.4375 74.429688 C 366.570312 74.75 366.703125 75.011719 366.828125 75.210938 C 366.953125 75.417969 367.015625 75.578125 367.015625 75.695312 C 367.015625 75.882812 366.929688 76.042969 366.765625 76.179688 C 366.597656 76.3125 366.429688 76.382812 366.265625 76.382812 C 365.953125 76.382812 365.632812 76.074219 365.3125 75.460938 C 365 74.855469 364.84375 74.109375 364.84375 73.226562 C 364.84375 71.914062 365.195312 70.839844 365.90625 70.007812 C 366.625 69.183594 367.5625 68.773438 368.71875 68.773438 Z M 370.375 70.445312 L 370.375 74.148438 C 370.375 74.492188 370.414062 74.71875 370.5 74.835938 C 370.59375 74.960938 370.765625 75.023438 371.015625 75.023438 C 371.617188 75.023438 372.144531 74.796875 372.59375 74.351562 C 373.050781 73.914062 373.28125 73.375 373.28125 72.742188 C 373.28125 72.117188 373.066406 71.574219 372.640625 71.117188 C 372.222656 70.667969 371.707031 70.445312 371.09375 70.445312 Z M 365.59375 78.449219 L 373.90625 78.449219 C 374.070312 78.449219 374.207031 78.519531 374.3125 78.667969 C 374.425781 78.824219 374.484375 79.019531 374.484375 79.261719 C 374.484375 79.46875 374.425781 79.644531 374.3125 79.792969 C 374.207031 79.949219 374.070312 80.027344 373.90625 80.027344 L 372.953125 80.027344 C 373.410156 80.265625 373.796875 80.613281 374.109375 81.074219 C 374.429688 81.542969 374.59375 82.0625 374.59375 82.636719 L 374.59375 83.324219 C 374.59375 83.488281 374.515625 83.636719 374.359375 83.761719 C 374.210938 83.894531 374.039062 83.964844 373.84375 83.964844 C 373.644531 83.964844 373.46875 83.894531 373.3125 83.761719 C 373.164062 83.636719 373.09375 83.488281 373.09375 83.324219 L 373.09375 82.636719 C 373.09375 81.957031 372.816406 81.363281 372.265625 80.855469 C 371.722656 80.355469 371.019531 80.105469 370.15625 80.105469 L 365.59375 80.105469 C 365.445312 80.105469 365.3125 80.019531 365.1875 79.855469 C 365.0625 79.6875 365 79.488281 365 79.261719 C 365 79.03125 365.054688 78.839844 365.171875 78.683594 C 365.296875 78.527344 365.4375 78.449219 365.59375 78.449219 Z M 368.71875 84.953125 L 370.8125 84.953125 C 371.84375 84.953125 372.726562 85.34375 373.46875 86.125 C 374.21875 86.90625 374.59375 87.84375 374.59375 88.9375 C 374.59375 89.976562 374.242188 90.878906 373.546875 91.640625 C 372.847656 92.398438 371.972656 92.78125 370.921875 92.78125 C 370.535156 92.78125 370.222656 92.734375 369.984375 92.640625 C 369.753906 92.546875 369.585938 92.398438 369.484375 92.203125 C 369.390625 92.015625 369.328125 91.835938 369.296875 91.671875 C 369.273438 91.503906 369.265625 91.28125 369.265625 91 L 369.265625 86.625 L 368.65625 86.625 C 367.925781 86.625 367.335938 86.882812 366.890625 87.40625 C 366.453125 87.9375 366.234375 88.617188 366.234375 89.453125 C 366.234375 89.898438 366.300781 90.285156 366.4375 90.609375 C 366.570312 90.929688 366.703125 91.191406 366.828125 91.390625 C 366.953125 91.597656 367.015625 91.757812 367.015625 91.875 C 367.015625 92.0625 366.929688 92.222656 366.765625 92.359375 C 366.597656 92.492188 366.429688 92.5625 366.265625 92.5625 C 365.953125 92.5625 365.632812 92.253906 365.3125 91.640625 C 365 91.035156 364.84375 90.289062 364.84375 89.40625 C 364.84375 88.09375 365.195312 87.019531 365.90625 86.1875 C 366.625 85.363281 367.5625 84.953125 368.71875 84.953125 Z M 370.375 86.625 L 370.375 90.328125 C 370.375 90.671875 370.414062 90.898438 370.5 91.015625 C 370.59375 91.140625 370.765625 91.203125 371.015625 91.203125 C 371.617188 91.203125 372.144531 90.976562 372.59375 90.53125 C 373.050781 90.09375 373.28125 89.554688 373.28125 88.921875 C 373.28125 88.296875 373.066406 87.753906 372.640625 87.296875 C 372.222656 86.847656 371.707031 86.625 371.09375 86.625 Z M 365 93.441406 "/>
<path style=" stroke:none;fill-rule:nonzero;fill:rgb(0%,0%,0%);fill-opacity:1;" d="M -9.40625 21.203125 L 4.625 21.203125 C 4.789062 21.203125 4.925781 21.273438 5.03125 21.421875 C 5.144531 21.578125 5.203125 21.773438 5.203125 22.015625 C 5.203125 22.253906 5.144531 22.453125 5.03125 22.609375 C 4.925781 22.773438 4.789062 22.859375 4.625 22.859375 L -1.921875 22.859375 C -1.496094 23.085938 -1.136719 23.425781 -0.84375 23.875 C -0.554688 24.320312 -0.40625 24.847656 -0.40625 25.453125 C -0.40625 26.398438 -0.78125 27.222656 -1.53125 27.921875 C -2.28125 28.628906 -3.183594 28.984375 -4.234375 28.984375 L -9.40625 28.984375 C -9.59375 28.984375 -9.742188 28.898438 -9.84375 28.734375 C -9.949219 28.566406 -10 28.367188 -10 28.140625 C -10 27.921875 -9.949219 27.726562 -9.84375 27.5625 C -9.742188 27.394531 -9.59375 27.3125 -9.40625 27.3125 L -4.234375 27.3125 C -3.640625 27.3125 -3.105469 27.082031 -2.625 26.625 C -2.148438 26.175781 -1.90625 25.648438 -1.90625 25.046875 C -1.90625 24.472656 -2.125 23.960938 -2.5625 23.515625 C -2.992188 23.078125 -3.546875 22.859375 -4.234375 22.859375 L -9.40625 22.859375 C -9.554688 22.859375 -9.6875 22.773438 -9.8125 22.609375 C -9.9375 22.441406 -10 22.242188 -10 22.015625 C -10 21.796875 -9.945312 21.601562 -9.828125 21.4375 C -9.703125 21.28125 -9.5625 21.203125 -9.40625 21.203125 Z M -6.28125 30.890625 L -4.1875 30.890625 C -3.15625 30.890625 -2.273438 31.28125 -1.53125 32.0625 C -0.78125 32.84375 -0.40625 33.78125 -0.40625 34.875 C -0.40625 35.914062 -0.757812 36.816406 -1.453125 37.578125 C -2.152344 38.335938 -3.027344 38.71875 -4.078125 38.71875 C -4.464844 38.71875 -4.777344 38.671875 -5.015625 38.578125 C -5.246094 38.484375 -5.414062 38.335938 -5.515625 38.140625 C -5.609375 37.953125 -5.671875 37.773438 -5.703125 37.609375 C -5.726562 37.441406 -5.734375 37.21875 -5.734375 36.9375 L -5.734375 32.5625 L -6.34375 32.5625 C -7.074219 32.5625 -7.664062 32.820312 -8.109375 33.34375 C -8.546875 33.875 -8.765625 34.554688 -8.765625 35.390625 C -8.765625 35.835938 -8.699219 36.222656 -8.5625 36.546875 C -8.429688 36.867188 -8.296875 37.128906 -8.171875 37.328125 C -8.046875 37.535156 -7.984375 37.695312 -7.984375 37.8125 C -7.984375 38 -8.070312 38.160156 -8.234375 38.296875 C -8.402344 38.429688 -8.570312 38.5 -8.734375 38.5 C -9.046875 38.5 -9.367188 38.191406 -9.6875 37.578125 C -10 36.972656 -10.15625 36.226562 -10.15625 35.34375 C -10.15625 34.03125 -9.804688 32.957031 -9.09375 32.125 C -8.375 31.300781 -7.4375 30.890625 -6.28125 30.890625 Z M -4.625 32.5625 L -4.625 36.265625 C -4.625 36.609375 -4.585938 36.835938 -4.5 36.953125 C -4.40625 37.078125 -4.234375 37.140625 -3.984375 37.140625 C -3.382812 37.140625 -2.855469 36.914062 -2.40625 36.46875 C -1.949219 36.03125 -1.71875 35.492188 -1.71875 34.859375 C -1.71875 34.234375 -1.933594 33.691406 -2.359375 33.234375 C -2.777344 32.785156 -3.292969 32.5625 -3.90625 32.5625 Z M -9.40625 40.738281 L 4.625 40.738281 C 4.789062 40.738281 4.925781 40.808594 5.03125 40.957031 C 5.144531 41.113281 5.203125 41.308594 5.203125 41.550781 C 5.203125 41.800781 5.144531 42.003906 5.03125 42.160156 C 4.925781 42.316406 4.789062 42.394531 4.625 42.394531 L -9.40625 42.394531 C -9.554688 42.394531 -9.6875 42.308594 -9.8125 42.144531 C -9.9375 41.976562 -10 41.777344 -10 41.550781 C -10 41.332031 -9.945312 41.136719 -9.828125 40.972656 C -9.703125 40.816406 -9.5625 40.738281 -9.40625 40.738281 Z M -9.40625 45.121094 L 4.625 45.121094 C 4.789062 45.121094 4.925781 45.191406 5.03125 45.339844 C 5.144531 45.496094 5.203125 45.691406 5.203125 45.933594 C 5.203125 46.183594 5.144531 46.386719 5.03125 46.542969 C 4.925781 46.699219 4.789062 46.777344 4.625 46.777344 L -9.40625 46.777344 C -9.554688 46.777344 -9.6875 46.691406 -9.8125 46.527344 C -9.9375 46.359375 -10 46.160156 -10 45.933594 C -10 45.714844 -9.945312 45.519531 -9.828125 45.355469 C -9.703125 45.199219 -9.5625 45.121094 -9.40625 45.121094 Z M -6.28125 48.953125 L -4.234375 48.953125 C -3.214844 48.953125 -2.324219 49.34375 -1.5625 50.125 C -0.792969 50.90625 -0.40625 51.828125 -0.40625 52.890625 C -0.40625 53.960938 -0.789062 54.890625 -1.546875 55.671875 C -2.308594 56.460938 -3.203125 56.859375 -4.234375 56.859375 L -6.28125 56.859375 C -7.292969 56.859375 -8.195312 56.460938 -8.984375 55.671875 C -9.765625 54.878906 -10.15625 53.957031 -10.15625 52.90625 C -10.15625 51.851562 -9.765625 50.929688 -8.984375 50.140625 C -8.203125 49.347656 -7.304688 48.953125 -6.28125 48.953125 Z M -6.28125 50.625 C -6.90625 50.625 -7.460938 50.847656 -7.9375 51.296875 C -8.417969 51.753906 -8.65625 52.289062 -8.65625 52.90625 C -8.65625 53.53125 -8.417969 54.066406 -7.9375 54.515625 C -7.449219 54.972656 -6.898438 55.203125 -6.28125 55.203125 L -4.234375 55.203125 C -3.640625 55.203125 -3.105469 54.972656 -2.625 54.515625 C -2.148438 54.066406 -1.90625 53.523438 -1.90625 52.890625 C -1.90625 52.265625 -2.148438 51.726562 -2.625 51.28125 C -3.105469 50.84375 -3.640625 50.625 -4.234375 50.625 Z M -6.984375 62.820312 L 3.3125 62.820312 C 3.476562 62.820312 3.617188 62.902344 3.734375 63.070312 C 3.847656 63.246094 3.90625 63.433594 3.90625 63.632812 C 3.90625 63.851562 3.847656 64.042969 3.734375 64.210938 C 3.617188 64.386719 3.476562 64.476562 3.3125 64.476562 L -0.515625 64.476562 L -0.515625 66.992188 C -0.515625 67.148438 -0.585938 67.265625 -0.71875 67.351562 C -0.855469 67.445312 -1.011719 67.492188 -1.1875 67.492188 C -1.355469 67.492188 -1.5 67.445312 -1.625 67.351562 C -1.75 67.265625 -1.8125 67.148438 -1.8125 66.992188 L -1.8125 64.476562 L -6.984375 64.476562 C -7.558594 64.476562 -7.964844 64.601562 -8.203125 64.851562 C -8.433594 65.101562 -8.546875 65.527344 -8.546875 66.132812 L -8.546875 66.757812 C -8.546875 66.984375 -8.617188 67.164062 -8.75 67.289062 C -8.886719 67.414062 -9.058594 67.476562 -9.265625 67.476562 C -9.464844 67.476562 -9.636719 67.40625 -9.78125 67.273438 C -9.929688 67.148438 -10 66.976562 -10 66.757812 L -10 66.132812 C -10 63.921875 -8.996094 62.820312 -6.984375 62.820312 Z M -9.40625 69.082031 L 4.625 69.082031 C 4.789062 69.082031 4.925781 69.152344 5.03125 69.300781 C 5.144531 69.457031 5.203125 69.652344 5.203125 69.894531 C 5.203125 70.132812 5.144531 70.332031 5.03125 70.488281 C 4.925781 70.652344 4.789062 70.738281 4.625 70.738281 L -1.921875 70.738281 C -1.496094 70.964844 -1.136719 71.304688 -0.84375 71.753906 C -0.554688 72.199219 -0.40625 72.726562 -0.40625 73.332031 C -0.40625 74.277344 -0.78125 75.101562 -1.53125 75.800781 C -2.28125 76.507812 -3.183594 76.863281 -4.234375 76.863281 L -9.40625 76.863281 C -9.59375 76.863281 -9.742188 76.777344 -9.84375 76.613281 C -9.949219 76.445312 -10 76.246094 -10 76.019531 C -10 75.800781 -9.949219 75.605469 -9.84375 75.441406 C -9.742188 75.273438 -9.59375 75.191406 -9.40625 75.191406 L -4.234375 75.191406 C -3.640625 75.191406 -3.105469 74.960938 -2.625 74.503906 C -2.148438 74.054688 -1.90625 73.527344 -1.90625 72.925781 C -1.90625 72.351562 -2.125 71.839844 -2.5625 71.394531 C -2.992188 70.957031 -3.546875 70.738281 -4.234375 70.738281 L -9.40625 70.738281 C -9.554688 70.738281 -9.6875 70.652344 -9.8125 70.488281 C -9.9375 70.320312 -10 70.121094 -10 69.894531 C -10 69.675781 -9.945312 69.480469 -9.828125 69.316406 C -9.703125 69.160156 -9.5625 69.082031 -9.40625 69.082031 Z M -6.28125 78.773438 L -4.1875 78.773438 C -3.15625 78.773438 -2.273438 79.164062 -1.53125 79.945312 C -0.78125 80.726562 -0.40625 81.664062 -0.40625 82.757812 C -0.40625 83.796875 -0.757812 84.699219 -1.453125 85.460938 C -2.152344 86.21875 -3.027344 86.601562 -4.078125 86.601562 C -4.464844 86.601562 -4.777344 86.554688 -5.015625 86.460938 C -5.246094 86.367188 -5.414062 86.21875 -5.515625 86.023438 C -5.609375 85.835938 -5.671875 85.65625 -5.703125 85.492188 C -5.726562 85.324219 -5.734375 85.101562 -5.734375 84.820312 L -5.734375 80.445312 L -6.34375 80.445312 C -7.074219 80.445312 -7.664062 80.703125 -8.109375 81.226562 C -8.546875 81.757812 -8.765625 82.4375 -8.765625 83.273438 C -8.765625 83.71875 -8.699219 84.105469 -8.5625 84.429688 C -8.429688 84.75 -8.296875 85.011719 -8.171875 85.210938 C -8.046875 85.417969 -7.984375 85.578125 -7.984375 85.695312 C -7.984375 85.882812 -8.070312 86.042969 -8.234375 86.179688 C -8.402344 86.3125 -8.570312 86.382812 -8.734375 86.382812 C -9.046875 86.382812 -9.367188 86.074219 -9.6875 85.460938 C -10 84.855469 -10.15625 84.109375 -10.15625 83.226562 C -10.15625 81.914062 -9.804688 80.839844 -9.09375 80.007812 C -8.375 79.183594 -7.4375 78.773438 -6.28125 78.773438 Z M -4.625 80.445312 L -4.625 84.148438 C -4.625 84.492188 -4.585938 84.71875 -4.5 84.835938 C -4.40625 84.960938 -4.234375 85.023438 -3.984375 85.023438 C -3.382812 85.023438 -2.855469 84.796875 -2.40625 84.351562 C -1.949219 83.914062 -1.71875 83.375 -1.71875 82.742188 C -1.71875 82.117188 -1.933594 81.574219 -2.359375 81.117188 C -2.777344 80.667969 -3.292969 80.445312 -3.90625 80.445312 Z M -9.40625 88.449219 L -1.09375 88.449219 C -0.929688 88.449219 -0.792969 88.519531 -0.6875 88.667969 C -0.574219 88.824219 -0.515625 89.019531 -0.515625 89.261719 C -0.515625 89.46875 -0.574219 89.644531 -0.6875 89.792969 C -0.792969 89.949219 -0.929688 90.027344 -1.09375 90.027344 L -2.046875 90.027344 C -1.589844 90.265625 -1.203125 90.613281 -0.890625 91.074219 C -0.570312 91.542969 -0.40625 92.0625 -0.40625 92.636719 L -0.40625 93.324219 C -0.40625 93.488281 -0.484375 93.636719 -0.640625 93.761719 C -0.789062 93.894531 -0.960938 93.964844 -1.15625 93.964844 C -1.355469 93.964844 -1.53125 93.894531 -1.6875 93.761719 C -1.835938 93.636719 -1.90625 93.488281 -1.90625 93.324219 L -1.90625 92.636719 C -1.90625 91.957031 -2.183594 91.363281 -2.734375 90.855469 C -3.277344 90.355469 -3.980469 90.105469 -4.84375 90.105469 L -9.40625 90.105469 C -9.554688 90.105469 -9.6875 90.019531 -9.8125 89.855469 C -9.9375 89.6875 -10 89.488281 -10 89.261719 C -10 89.03125 -9.945312 88.839844 -9.828125 88.683594 C -9.703125 88.527344 -9.5625 88.449219 -9.40625 88.449219 Z M -6.28125 94.953125 L -4.1875 94.953125 C -3.15625 94.953125 -2.273438 95.34375 -1.53125 96.125 C -0.78125 96.90625 -0.40625 97.84375 -0.40625 98.9375 C -0.40625 99.976562 -0.757812 100.878906 -1.453125 101.640625 C -2.152344 102.398438 -3.027344 102.78125 -4.078125 102.78125 C -4.464844 102.78125 -4.777344 102.734375 -5.015625 102.640625 C -5.246094 102.546875 -5.414062 102.398438 -5.515625 102.203125 C -5.609375 102.015625 -5.671875 101.835938 -5.703125 101.671875 C -5.726562 101.503906 -5.734375 101.28125 -5.734375 101 L -5.734375 96.625 L -6.34375 96.625 C -7.074219 96.625 -7.664062 96.882812 -8.109375 97.40625 C -8.546875 97.9375 -8.765625 98.617188 -8.765625 99.453125 C -8.765625 99.898438 -8.699219 100.285156 -8.5625 100.609375 C -8.429688 100.929688 -8.296875 101.191406 -8.171875 101.390625 C -8.046875 101.597656 -7.984375 101.757812 -7.984375 101.875 C -7.984375 102.0625 -8.070312 102.222656 -8.234375 102.359375 C -8.402344 102.492188 -8.570312 102.5625 -8.734375 102.5625 C -9.046875 102.5625 -9.367188 102.253906 -9.6875 101.640625 C -10 101.035156 -10.15625 100.289062 -10.15625 99.40625 C -10.15625 98.09375 -9.804688 97.019531 -9.09375 96.1875 C -8.375 95.363281 -7.4375 94.953125 -6.28125 94.953125 Z M -4.625 96.625 L -4.625 100.328125 C -4.625 100.671875 -4.585938 100.898438 -4.5 101.015625 C -4.40625 101.140625 -4.234375 101.203125 -3.984375 101.203125 C -3.382812 101.203125 -2.855469 100.976562 -2.40625 100.53125 C -1.949219 100.09375 -1.71875 99.554688 -1.71875 98.921875 C -1.71875 98.296875 -1.933594 97.753906 -2.359375 97.296875 C -2.777344 96.847656 -3.292969 96.625 -3.90625 96.625 Z M -9.40625 104.082031 L -7.453125 104.082031 C -6.859375 104.082031 -6.273438 104.308594 -5.6875 104.769531 C -5.105469 105.226562 -4.585938 105.785156 -4.125 106.441406 L -2.6875 108.378906 C -2.21875 109.035156 -1.695312 109.589844 -1.109375 110.050781 C -0.527344 110.507812 0.0625 110.738281 0.65625 110.738281 C 1.300781 110.738281 1.863281 110.527344 2.34375 110.113281 C 2.820312 109.695312 3.0625 109.089844 3.0625 108.300781 C 3.0625 107.632812 2.875 107.085938 2.5 106.660156 C 2.125 106.242188 1.582031 106.035156 0.875 106.035156 C 0.707031 106.035156 0.554688 105.957031 0.421875 105.800781 C 0.285156 105.644531 0.21875 105.429688 0.21875 105.160156 C 0.21875 104.648438 0.546875 104.394531 1.203125 104.394531 C 2.203125 104.394531 3.019531 104.769531 3.65625 105.519531 C 4.300781 106.277344 4.625 107.207031 4.625 108.300781 C 4.625 109.476562 4.253906 110.457031 3.515625 111.238281 C 2.773438 112.027344 1.84375 112.425781 0.71875 112.425781 C 0.0507812 112.425781 -0.589844 112.257812 -1.203125 111.925781 C -1.820312 111.601562 -2.339844 111.195312 -2.765625 110.707031 C -3.195312 110.226562 -3.621094 109.699219 -4.046875 109.128906 L -5.1875 107.519531 C -5.523438 107.039062 -5.886719 106.632812 -6.28125 106.300781 C -6.679688 105.976562 -7.070312 105.816406 -7.453125 105.816406 L -8.484375 105.816406 L -8.484375 111.957031 C -8.484375 112.121094 -8.558594 112.257812 -8.703125 112.363281 C -8.851562 112.476562 -9.027344 112.535156 -9.234375 112.535156 C -9.445312 112.535156 -9.625 112.476562 -9.78125 112.363281 C -9.929688 112.257812 -10 112.121094 -10 111.957031 L -10 104.847656 C -10 104.667969 -9.945312 104.496094 -9.828125 104.332031 C -9.714844 104.164062 -9.574219 104.082031 -9.40625 104.082031 Z M -10 113.121094 "/>
</g>
</svg>
