<?xml version="1.0" encoding="UTF-8"?>
<svg xmlns="http://www.w3.org/2000/svg" xmlns:xlink="http://www.w3.org/1999/xlink" width="384pt" height="288pt" viewBox="0 0 384 288" version="1.1">
<g id="surface153">
<path style=" stroke:none;fill-rule:nonzero;fill:rgb(0%,0%,0%);fill-opacity:1;" d="M 0 0 L 284 0 L 284 288 L 0 288 Z M 0 0 "/>
<path style=" stroke:none;fill-rule:nonzero;fill:rgb(50.196078%,50.196078%,50.196078%);fill-opacity:1;" d="M 0 0 L 35.5 0 L 35.5 288 L 0 288 Z M 0 0 "/>
<path style=" stroke:none;fill-rule:nonzero;fill:rgb(0%,0%,0%);fill-opacity:1;" d="M 35.5 0 L 71 0 L 71 288 L 35.5 288 Z M 35.5 0 "/>
<path style=" stroke:none;fill-rule:nonzero;fill:rgb(50.196078%,50.196078%,50.196078%);fill-opacity:1;" d="M 71 0 L 106.5 0 L 106.5 288 L 71 288 Z M 71 0 "/>
<path style=" stroke:none;fill-rule:nonzero;fill:rgb(0%,0%,0%);fill-opacity:1;" d="M 106.5 0 L 142 0 L 142 288 L 106.5 288 Z M 106.5 0 "/>
<path style=" stroke:none;fill-rule:nonzero;fill:rgb(50.196078%,50.196078%,50.196078%);fill-opacity:1;" d="M 142 0 L 177.5 0 L 177.5 288 L 142 288 Z M 142 0 "/>
<path style=" stroke:none;fill-rule:nonzero;fill:rgb(0%,0%,0%);fill-opacity:1;" d="M 177.5 0 L 213 0 L 213 288 L 177.5 288 Z M 177.5 0 "/>
<path style=" stroke:none;fill-rule:nonzero;fill:rgb(50.196078%,50.196078%,50.196078%);fill-opacity:1;" d="M 213 0 L 248.5 0 L 248.5 288 L 213 288 Z M 213 0 "/>
<path style=" stroke:none;fill-rule:nonzero;fill:rgb(0%,0%,0%);fill-opacity:1;" d="M 248.5 0 L 284 0 L 284 288 L 248.5 288 Z M 248.5 0 "/>
<path style=" stroke:none;fill-rule:nonzero;fill:rgb(0%,0%,0%);fill-opacity:1;" d="M 100.34375 50.71875 L 106.875 50.71875 C 107.5 50.71875 108.03125 50.925781 108.46875 51.34375 C 108.90625 51.769531 109.125 52.269531 109.125 52.84375 L 109.125 53.265625 C 109.125 53.390625 109.078125 53.488281 108.984375 53.5625 C 108.898438 53.632812 108.796875 53.671875 108.671875 53.671875 C 108.554688 53.671875 108.457031 53.632812 108.375 53.5625 C 108.289062 53.488281 108.25 53.390625 108.25 53.265625 L 108.25 53.015625 C 108.25 52.640625 108.125 52.332031 107.875 52.09375 C 107.625 51.851562 107.316406 51.726562 106.953125 51.71875 L 105.6875 51.71875 L 105.6875 53.359375 C 105.6875 53.453125 105.644531 53.523438 105.5625 53.578125 C 105.488281 53.640625 105.398438 53.671875 105.296875 53.671875 C 105.191406 53.671875 105.097656 53.640625 105.015625 53.578125 C 104.941406 53.523438 104.90625 53.453125 104.90625 53.359375 L 104.90625 51.71875 L 100.34375 51.71875 C 100.25 51.71875 100.164062 51.664062 100.09375 51.5625 C 100.03125 51.46875 100 51.347656 100 51.203125 C 100 51.066406 100.03125 50.953125 100.09375 50.859375 C 100.15625 50.765625 100.238281 50.71875 100.34375 50.71875 Z M 102.234375 54.265625 L 103.453125 54.265625 C 104.066406 54.265625 104.601562 54.5 105.0625 54.96875 C 105.53125 55.4375 105.765625 55.988281 105.765625 56.625 C 105.765625 57.269531 105.535156 57.828125 105.078125 58.296875 C 104.617188 58.773438 104.078125 59.015625 103.453125 59.015625 L 102.234375 59.015625 C 101.617188 59.015625 101.078125 58.773438 100.609375 58.296875 C 100.140625 57.816406 99.90625 57.257812 99.90625 56.625 C 99.90625 56 100.140625 55.445312 100.609375 54.96875 C 101.078125 54.5 101.617188 54.265625 102.234375 54.265625 Z M 102.234375 55.265625 C 101.859375 55.265625 101.523438 55.398438 101.234375 55.671875 C 100.941406 55.941406 100.796875 56.265625 100.796875 56.640625 C 100.796875 57.015625 100.941406 57.335938 101.234375 57.609375 C 101.535156 57.878906 101.867188 58.015625 102.234375 58.015625 L 103.453125 58.015625 C 103.816406 58.015625 104.140625 57.878906 104.421875 57.609375 C 104.710938 57.335938 104.859375 57.015625 104.859375 56.640625 C 104.859375 56.265625 104.710938 55.941406 104.421875 55.671875 C 104.140625 55.398438 103.816406 55.265625 103.453125 55.265625 Z M 100.359375 60.316406 L 108.765625 60.316406 C 108.867188 60.316406 108.953125 60.363281 109.015625 60.457031 C 109.085938 60.550781 109.125 60.667969 109.125 60.816406 C 109.125 60.960938 109.085938 61.082031 109.015625 61.175781 C 108.953125 61.269531 108.867188 61.316406 108.765625 61.316406 L 100.359375 61.316406 C 100.273438 61.316406 100.191406 61.261719 100.109375 61.160156 C 100.035156 61.066406 100 60.949219 100 60.816406 C 100 60.679688 100.035156 60.558594 100.109375 60.457031 C 100.179688 60.363281 100.265625 60.316406 100.359375 60.316406 Z M 102.234375 62.617188 L 103.453125 62.617188 C 104.085938 62.617188 104.628906 62.828125 105.078125 63.257812 C 105.535156 63.683594 105.765625 64.1875 105.765625 64.773438 C 105.765625 65.136719 105.675781 65.453125 105.5 65.726562 C 105.320312 65.996094 105.101562 66.203125 104.84375 66.351562 L 108.765625 66.351562 C 108.867188 66.351562 108.953125 66.398438 109.015625 66.492188 C 109.085938 66.585938 109.125 66.703125 109.125 66.851562 C 109.125 66.996094 109.085938 67.109375 109.015625 67.195312 C 108.953125 67.289062 108.867188 67.335938 108.765625 67.335938 L 100.359375 67.335938 C 100.265625 67.335938 100.179688 67.289062 100.109375 67.195312 C 100.035156 67.101562 100 66.984375 100 66.851562 C 100 66.726562 100.035156 66.617188 100.109375 66.523438 C 100.179688 66.4375 100.265625 66.398438 100.359375 66.398438 L 100.84375 66.398438 C 100.582031 66.261719 100.359375 66.039062 100.171875 65.726562 C 99.996094 65.421875 99.90625 65.09375 99.90625 64.742188 C 99.90625 64.179688 100.140625 63.683594 100.609375 63.257812 C 101.078125 62.828125 101.617188 62.617188 102.234375 62.617188 Z M 102.234375 63.617188 C 101.867188 63.617188 101.535156 63.75 101.234375 64.023438 C 100.941406 64.292969 100.796875 64.609375 100.796875 64.976562 C 100.796875 65.328125 100.929688 65.648438 101.203125 65.929688 C 101.472656 66.210938 101.707031 66.351562 101.90625 66.351562 L 103.453125 66.351562 C 103.867188 66.351562 104.207031 66.210938 104.46875 65.929688 C 104.726562 65.65625 104.859375 65.34375 104.859375 64.992188 C 104.859375 64.617188 104.710938 64.292969 104.421875 64.023438 C 104.140625 63.75 103.816406 63.617188 103.453125 63.617188 Z M 100.359375 68.917969 L 108.40625 68.917969 C 108.519531 68.917969 108.609375 68.957031 108.671875 69.042969 C 108.734375 69.136719 108.765625 69.246094 108.765625 69.371094 L 108.765625 73.636719 C 108.765625 73.75 108.722656 73.832031 108.640625 73.886719 C 108.554688 73.949219 108.453125 73.980469 108.328125 73.980469 C 108.203125 73.980469 108.09375 73.949219 108 73.886719 C 107.90625 73.824219 107.859375 73.738281 107.859375 73.636719 L 107.859375 69.917969 L 104.8125 69.917969 L 104.8125 71.792969 C 104.8125 71.894531 104.769531 71.980469 104.6875 72.042969 C 104.601562 72.105469 104.5 72.136719 104.375 72.136719 C 104.269531 72.136719 104.175781 72.105469 104.09375 72.042969 C 104.007812 71.988281 103.96875 71.90625 103.96875 71.792969 L 103.96875 69.917969 L 100.90625 69.917969 L 100.90625 73.636719 C 100.90625 73.738281 100.859375 73.824219 100.765625 73.886719 C 100.679688 73.949219 100.570312 73.980469 100.4375 73.980469 C 100.320312 73.980469 100.21875 73.949219 100.125 73.886719 C 100.039062 73.832031 100 73.75 100 73.636719 L 100 69.371094 C 100 69.246094 100.03125 69.136719 100.09375 69.042969 C 100.15625 68.957031 100.242188 68.917969 100.359375 68.917969 Z M 105.28125 74.367188 C 105.394531 74.367188 105.492188 74.433594 105.578125 74.570312 C 105.671875 74.714844 105.71875 74.859375 105.71875 75.007812 C 105.71875 75.171875 105.648438 75.28125 105.515625 75.335938 L 101.4375 76.851562 L 105.46875 78.351562 C 105.632812 78.414062 105.71875 78.523438 105.71875 78.679688 C 105.71875 78.804688 105.671875 78.9375 105.578125 79.085938 C 105.492188 79.242188 105.394531 79.320312 105.28125 79.320312 C 105.21875 79.320312 105.15625 79.304688 105.09375 79.273438 L 100.109375 77.304688 C 99.964844 77.242188 99.890625 77.089844 99.890625 76.851562 C 99.890625 76.601562 99.964844 76.445312 100.109375 76.382812 L 105.09375 74.414062 C 105.1875 74.382812 105.25 74.367188 105.28125 74.367188 Z M 102.234375 79.957031 L 103.484375 79.957031 C 104.109375 79.957031 104.644531 80.191406 105.09375 80.660156 C 105.539062 81.128906 105.765625 81.691406 105.765625 82.347656 C 105.765625 82.972656 105.550781 83.511719 105.125 83.972656 C 104.707031 84.429688 104.179688 84.660156 103.546875 84.660156 C 103.316406 84.660156 103.128906 84.628906 102.984375 84.566406 C 102.847656 84.511719 102.75 84.429688 102.6875 84.316406 C 102.632812 84.199219 102.597656 84.089844 102.578125 83.988281 C 102.566406 83.894531 102.5625 83.757812 102.5625 83.582031 L 102.5625 80.957031 L 102.203125 80.957031 C 101.753906 80.957031 101.398438 81.113281 101.140625 81.425781 C 100.878906 81.746094 100.75 82.160156 100.75 82.660156 C 100.75 82.929688 100.785156 83.160156 100.859375 83.347656 C 100.941406 83.542969 101.019531 83.699219 101.09375 83.816406 C 101.175781 83.941406 101.21875 84.039062 101.21875 84.113281 C 101.21875 84.226562 101.164062 84.320312 101.0625 84.394531 C 100.957031 84.476562 100.851562 84.519531 100.75 84.519531 C 100.570312 84.519531 100.382812 84.335938 100.1875 83.972656 C 100 83.605469 99.90625 83.160156 99.90625 82.628906 C 99.90625 81.847656 100.117188 81.207031 100.546875 80.707031 C 100.972656 80.207031 101.535156 79.957031 102.234375 79.957031 Z M 103.234375 80.957031 L 103.234375 83.175781 C 103.234375 83.382812 103.257812 83.523438 103.3125 83.597656 C 103.363281 83.667969 103.460938 83.707031 103.609375 83.707031 C 103.972656 83.707031 104.289062 83.570312 104.5625 83.300781 C 104.832031 83.039062 104.96875 82.722656 104.96875 82.347656 C 104.96875 81.960938 104.84375 81.632812 104.59375 81.363281 C 104.34375 81.089844 104.03125 80.957031 103.65625 80.957031 Z M 100.359375 85.753906 L 105.34375 85.753906 C 105.445312 85.753906 105.53125 85.800781 105.59375 85.894531 C 105.65625 85.988281 105.6875 86.105469 105.6875 86.253906 C 105.6875 86.378906 105.65625 86.480469 105.59375 86.566406 C 105.53125 86.660156 105.445312 86.707031 105.34375 86.707031 L 104.78125 86.707031 C 105.050781 86.851562 105.28125 87.066406 105.46875 87.347656 C 105.664062 87.628906 105.765625 87.941406 105.765625 88.285156 L 105.765625 88.691406 C 105.765625 88.792969 105.71875 88.882812 105.625 88.957031 C 105.53125 89.027344 105.421875 89.066406 105.296875 89.066406 C 105.179688 89.066406 105.078125 89.027344 104.984375 88.957031 C 104.898438 88.882812 104.859375 88.792969 104.859375 88.691406 L 104.859375 88.285156 C 104.859375 87.867188 104.691406 87.507812 104.359375 87.207031 C 104.035156 86.902344 103.613281 86.753906 103.09375 86.753906 L 100.359375 86.753906 C 100.273438 86.753906 100.191406 86.699219 100.109375 86.597656 C 100.035156 86.503906 100 86.386719 100 86.253906 C 100 86.117188 100.035156 85.996094 100.109375 85.894531 C 100.179688 85.800781 100.265625 85.753906 100.359375 85.753906 Z M 105.28125 89.320312 C 105.40625 89.320312 105.515625 89.390625 105.609375 89.539062 C 105.710938 89.683594 105.765625 89.828125 105.765625 89.976562 C 105.765625 90.140625 105.695312 90.246094 105.5625 90.289062 L 101.375 91.882812 L 105.5625 93.304688 C 105.695312 93.367188 105.765625 93.46875 105.765625 93.617188 C 105.765625 93.75 105.710938 93.890625 105.609375 94.039062 C 105.515625 94.195312 105.398438 94.273438 105.265625 94.273438 C 105.222656 94.273438 105.179688 94.257812 105.140625 94.226562 L 100.265625 92.414062 L 99.65625 92.179688 C 99.554688 92.136719 99.367188 92.054688 99.09375 91.929688 C 98.824219 91.8125 98.625 91.714844 98.5 91.632812 C 98.375 91.558594 98.21875 91.449219 98.03125 91.304688 C 97.835938 91.15625 97.695312 91.015625 97.609375 90.882812 C 97.515625 90.746094 97.433594 90.585938 97.359375 90.398438 C 97.289062 90.210938 97.25 90.011719 97.25 89.804688 C 97.25 89.492188 97.402344 89.335938 97.703125 89.335938 C 97.984375 89.335938 98.125 89.429688 98.125 89.617188 C 98.125 89.980469 98.328125 90.328125 98.734375 90.664062 C 99.140625 91.007812 99.65625 91.242188 100.28125 91.367188 L 105.140625 89.367188 C 105.191406 89.335938 105.238281 89.320312 105.28125 89.320312 Z M 100.09375 97.605469 L 108.875 97.605469 C 108.976562 97.605469 109.0625 97.652344 109.125 97.746094 C 109.1875 97.839844 109.21875 97.941406 109.21875 98.058594 L 109.21875 100.027344 C 109.21875 100.128906 109.171875 100.214844 109.078125 100.277344 C 108.992188 100.339844 108.890625 100.371094 108.765625 100.371094 C 108.640625 100.371094 108.53125 100.339844 108.4375 100.277344 C 108.351562 100.214844 108.3125 100.128906 108.3125 100.027344 L 108.3125 98.605469 L 100.640625 98.605469 L 100.640625 100.027344 C 100.640625 100.128906 100.597656 100.214844 100.515625 100.277344 C 100.429688 100.339844 100.320312 100.371094 100.1875 100.371094 C 100.070312 100.371094 99.976562 100.339844 99.890625 100.277344 C 99.796875 100.214844 99.75 100.128906 99.75 100.027344 L 99.75 98.058594 C 99.75 97.941406 99.78125 97.839844 99.84375 97.746094 C 99.90625 97.652344 99.992188 97.605469 100.09375 97.605469 Z M 101.96875 100.90625 C 102.15625 100.90625 102.28125 100.9375 102.34375 101 C 102.40625 101.070312 102.4375 101.195312 102.4375 101.375 C 102.4375 101.5625 102.40625 101.691406 102.34375 101.765625 C 102.28125 101.847656 102.179688 101.890625 102.046875 101.890625 C 101.734375 101.890625 101.453125 102.019531 101.203125 102.28125 C 100.960938 102.539062 100.84375 102.9375 100.84375 103.46875 C 100.84375 104.53125 101.394531 105.0625 102.5 105.0625 L 102.71875 105.0625 C 103.695312 105.0625 104.1875 104.53125 104.1875 103.46875 C 104.1875 103.226562 104.328125 103.109375 104.609375 103.109375 C 104.890625 103.109375 105.03125 103.226562 105.03125 103.46875 C 105.03125 103.925781 105.132812 104.269531 105.34375 104.5 C 105.550781 104.738281 105.925781 104.859375 106.46875 104.859375 C 107.40625 104.859375 107.875 104.410156 107.875 103.515625 C 107.875 102.992188 107.757812 102.628906 107.53125 102.421875 C 107.300781 102.210938 107.03125 102.109375 106.71875 102.109375 C 106.425781 102.109375 106.28125 101.945312 106.28125 101.625 C 106.28125 101.40625 106.3125 101.257812 106.375 101.1875 C 106.445312 101.125 106.582031 101.09375 106.78125 101.09375 C 106.988281 101.09375 107.195312 101.128906 107.40625 101.203125 C 107.625 101.285156 107.835938 101.410156 108.046875 101.578125 C 108.253906 101.742188 108.425781 101.992188 108.5625 102.328125 C 108.695312 102.671875 108.765625 103.070312 108.765625 103.53125 C 108.765625 105.0625 108.054688 105.828125 106.640625 105.828125 C 106.140625 105.828125 105.710938 105.738281 105.359375 105.5625 C 105.015625 105.382812 104.769531 105.148438 104.625 104.859375 C 104.300781 105.671875 103.664062 106.078125 102.71875 106.078125 L 102.5 106.078125 C 101.613281 106.078125 100.960938 105.835938 100.546875 105.359375 C 100.128906 104.878906 99.921875 104.25 99.921875 103.46875 C 99.921875 102.632812 100.128906 102 100.546875 101.5625 C 100.972656 101.125 101.445312 100.90625 101.96875 100.90625 Z M 100.546875 106.992188 C 100.722656 106.992188 100.875 107.046875 101 107.164062 C 101.125 107.277344 101.1875 107.421875 101.1875 107.601562 C 101.1875 107.765625 101.125 107.914062 101 108.039062 C 100.882812 108.164062 100.734375 108.226562 100.546875 108.226562 C 100.410156 108.226562 99.929688 108.054688 99.09375 107.710938 C 98.992188 107.65625 98.9375 107.570312 98.9375 107.445312 C 98.9375 107.351562 98.964844 107.265625 99.015625 107.195312 C 99.070312 107.132812 99.136719 107.101562 99.21875 107.101562 C 99.273438 107.101562 99.320312 107.105469 99.359375 107.117188 L 99.96875 107.367188 C 100.070312 107.117188 100.265625 106.992188 100.546875 106.992188 Z M 102 108.964844 C 102.320312 108.964844 102.484375 109.128906 102.484375 109.464844 C 102.484375 109.808594 102.347656 109.980469 102.078125 109.980469 C 101.691406 109.980469 101.390625 110.125 101.171875 110.417969 C 100.953125 110.71875 100.84375 111.09375 100.84375 111.542969 C 100.84375 112.050781 100.984375 112.441406 101.265625 112.714844 C 101.546875 112.996094 101.960938 113.136719 102.515625 113.136719 L 102.75 113.136719 C 103.289062 113.136719 103.695312 112.996094 103.96875 112.714844 C 104.25 112.441406 104.390625 112.058594 104.390625 111.558594 L 104.390625 109.855469 C 104.390625 109.542969 104.519531 109.386719 104.78125 109.386719 C 104.863281 109.386719 104.953125 109.394531 105.046875 109.417969 L 108.40625 109.667969 C 108.644531 109.675781 108.765625 109.765625 108.765625 109.933594 L 108.765625 113.386719 C 108.765625 113.488281 108.71875 113.566406 108.625 113.621094 C 108.539062 113.683594 108.4375 113.714844 108.3125 113.714844 C 108.195312 113.714844 108.09375 113.683594 108 113.621094 C 107.90625 113.566406 107.859375 113.488281 107.859375 113.386719 L 107.859375 110.542969 L 105.234375 110.355469 L 105.234375 111.558594 C 105.234375 112.339844 105.03125 112.964844 104.625 113.433594 C 104.226562 113.902344 103.601562 114.136719 102.75 114.136719 L 102.515625 114.136719 C 101.628906 114.136719 100.972656 113.902344 100.546875 113.433594 C 100.128906 112.964844 99.921875 112.339844 99.921875 111.558594 C 99.921875 110.753906 100.125 110.121094 100.53125 109.652344 C 100.9375 109.191406 101.425781 108.964844 102 108.964844 Z M 100.1875 114.707031 C 100.320312 114.707031 100.429688 114.738281 100.515625 114.800781 C 100.597656 114.863281 100.640625 114.945312 100.640625 115.050781 L 100.640625 116.472656 L 108.3125 116.472656 L 108.3125 115.050781 C 108.3125 114.945312 108.351562 114.863281 108.4375 114.800781 C 108.53125 114.738281 108.640625 114.707031 108.765625 114.707031 C 108.890625 114.707031 108.992188 114.738281 109.078125 114.800781 C 109.171875 114.863281 109.21875 114.945312 109.21875 115.050781 L 109.21875 117.019531 C 109.21875 117.144531 109.1875 117.246094 109.125 117.332031 C 109.0625 117.425781 108.976562 117.472656 108.875 117.472656 L 100.09375 117.472656 C 99.992188 117.472656 99.90625 117.425781 99.84375 117.332031 C 99.78125 117.246094 99.75 117.144531 99.75 117.019531 L 99.75 115.050781 C 99.75 114.945312 99.796875 114.863281 99.890625 114.800781 C 99.976562 114.738281 100.070312 114.707031 100.1875 114.707031 Z M 101.859375 121.34375 L 106.953125 121.34375 C 107.578125 121.34375 108.109375 121.570312 108.546875 122.03125 C 108.992188 122.5 109.21875 123.046875 109.21875 123.671875 C 109.21875 123.992188 109.066406 124.15625 108.765625 124.15625 C 108.628906 124.15625 108.519531 124.125 108.4375 124.0625 C 108.351562 124 108.3125 123.914062 108.3125 123.8125 C 108.3125 123.375 108.171875 123.019531 107.890625 122.75 C 107.617188 122.476562 107.304688 122.34375 106.953125 122.34375 L 101.859375 122.34375 C 101.421875 122.34375 101.109375 122.488281 100.921875 122.78125 C 100.742188 123.070312 100.65625 123.414062 100.65625 123.8125 C 100.65625 124.039062 100.503906 124.15625 100.203125 124.15625 C 99.914062 124.15625 99.765625 123.984375 99.765625 123.640625 C 99.765625 122.992188 99.949219 122.445312 100.3125 122 C 100.675781 121.5625 101.191406 121.34375 101.859375 121.34375 Z M 100.8125 124.734375 C 100.914062 124.734375 101.015625 124.765625 101.109375 124.828125 C 101.210938 124.898438 101.265625 124.984375 101.265625 125.078125 C 101.265625 125.140625 101.21875 125.226562 101.125 125.34375 C 101.03125 125.46875 100.9375 125.644531 100.84375 125.875 C 100.75 126.101562 100.703125 126.367188 100.703125 126.671875 C 100.703125 127.066406 100.773438 127.351562 100.921875 127.53125 C 101.066406 127.71875 101.25 127.8125 101.46875 127.8125 C 101.726562 127.8125 101.9375 127.707031 102.09375 127.5 C 102.25 127.300781 102.363281 127.054688 102.4375 126.765625 C 102.519531 126.484375 102.609375 126.195312 102.703125 125.90625 C 102.804688 125.625 102.96875 125.378906 103.1875 125.171875 C 103.414062 124.972656 103.710938 124.875 104.078125 124.875 C 104.535156 124.875 104.929688 125.035156 105.265625 125.359375 C 105.597656 125.679688 105.765625 126.175781 105.765625 126.84375 C 105.765625 127.269531 105.695312 127.65625 105.5625 128 C 105.425781 128.351562 105.273438 128.53125 105.109375 128.53125 C 105.015625 128.53125 104.90625 128.492188 104.78125 128.421875 C 104.664062 128.347656 104.609375 128.253906 104.609375 128.140625 C 104.609375 128.109375 104.664062 127.953125 104.78125 127.671875 C 104.894531 127.398438 104.953125 127.128906 104.953125 126.859375 C 104.953125 126.492188 104.863281 126.21875 104.6875 126.03125 C 104.519531 125.851562 104.328125 125.765625 104.109375 125.765625 C 103.890625 125.765625 103.710938 125.863281 103.578125 126.0625 C 103.453125 126.257812 103.351562 126.503906 103.28125 126.796875 C 103.21875 127.097656 103.132812 127.390625 103.03125 127.671875 C 102.925781 127.960938 102.742188 128.207031 102.484375 128.40625 C 102.234375 128.601562 101.910156 128.703125 101.515625 128.703125 C 101.015625 128.703125 100.617188 128.523438 100.328125 128.171875 C 100.046875 127.828125 99.90625 127.335938 99.90625 126.703125 C 99.90625 126.160156 100 125.695312 100.1875 125.3125 C 100.382812 124.925781 100.59375 124.734375 100.8125 124.734375 Z M 100.359375 129.894531 L 108.765625 129.894531 C 108.867188 129.894531 108.953125 129.941406 109.015625 130.035156 C 109.085938 130.128906 109.125 130.246094 109.125 130.394531 C 109.125 130.539062 109.085938 130.660156 109.015625 130.753906 C 108.953125 130.847656 108.867188 130.894531 108.765625 130.894531 L 100.359375 130.894531 C 100.273438 130.894531 100.191406 130.839844 100.109375 130.738281 C 100.035156 130.644531 100 130.527344 100 130.394531 C 100 130.257812 100.035156 130.136719 100.109375 130.035156 C 100.179688 129.941406 100.265625 129.894531 100.359375 129.894531 Z M 102.234375 132.191406 L 103.453125 132.191406 C 104.066406 132.191406 104.601562 132.425781 105.0625 132.894531 C 105.53125 133.363281 105.765625 133.914062 105.765625 134.550781 C 105.765625 135.195312 105.535156 135.753906 105.078125 136.222656 C 104.617188 136.699219 104.078125 136.941406 103.453125 136.941406 L 102.234375 136.941406 C 101.617188 136.941406 101.078125 136.699219 100.609375 136.222656 C 100.140625 135.742188 99.90625 135.183594 99.90625 134.550781 C 99.90625 133.925781 100.140625 133.371094 100.609375 132.894531 C 101.078125 132.425781 101.617188 132.191406 102.234375 132.191406 Z M 102.234375 133.191406 C 101.859375 133.191406 101.523438 133.324219 101.234375 133.597656 C 100.941406 133.867188 100.796875 134.191406 100.796875 134.566406 C 100.796875 134.941406 100.941406 135.261719 101.234375 135.535156 C 101.535156 135.804688 101.867188 135.941406 102.234375 135.941406 L 103.453125 135.941406 C 103.816406 135.941406 104.140625 135.804688 104.421875 135.535156 C 104.710938 135.261719 104.859375 134.941406 104.859375 134.566406 C 104.859375 134.191406 104.710938 133.867188 104.421875 133.597656 C 104.140625 133.324219 103.816406 133.191406 103.453125 133.191406 Z M 105.28125 137.605469 C 105.394531 137.605469 105.492188 137.667969 105.578125 137.792969 C 105.671875 137.925781 105.71875 138.066406 105.71875 138.214844 C 105.71875 138.378906 105.648438 138.488281 105.515625 138.542969 L 101.484375 139.996094 L 105.125 141.121094 C 105.28125 141.171875 105.359375 141.296875 105.359375 141.496094 C 105.359375 141.691406 105.28125 141.816406 105.125 141.871094 L 101.453125 142.980469 L 105.515625 144.449219 C 105.648438 144.480469 105.71875 144.578125 105.71875 144.746094 C 105.71875 144.890625 105.671875 145.03125 105.578125 145.167969 C 105.492188 145.300781 105.394531 145.371094 105.28125 145.371094 C 105.21875 145.371094 105.15625 145.355469 105.09375 145.324219 L 100.109375 143.464844 C 99.964844 143.402344 99.890625 143.265625 99.890625 143.058594 C 99.890625 142.839844 99.964844 142.703125 100.109375 142.652344 L 103.640625 141.496094 L 100.140625 140.355469 C 99.976562 140.292969 99.890625 140.144531 99.890625 139.917969 C 99.890625 139.707031 99.976562 139.574219 100.140625 139.511719 L 105.09375 137.652344 C 105.1875 137.621094 105.25 137.605469 105.28125 137.605469 Z M 100.359375 148.324219 L 101.53125 148.324219 C 101.882812 148.324219 102.234375 148.457031 102.578125 148.730469 C 102.929688 149.011719 103.25 149.34375 103.53125 149.730469 L 104.390625 150.902344 C 104.671875 151.285156 104.984375 151.613281 105.328125 151.886719 C 105.679688 152.167969 106.035156 152.308594 106.390625 152.308594 C 106.773438 152.308594 107.113281 152.183594 107.40625 151.933594 C 107.695312 151.683594 107.84375 151.324219 107.84375 150.855469 C 107.84375 150.449219 107.726562 150.121094 107.5 149.871094 C 107.269531 149.621094 106.945312 149.496094 106.53125 149.496094 C 106.425781 149.496094 106.332031 149.441406 106.25 149.339844 C 106.164062 149.246094 106.125 149.121094 106.125 148.964844 C 106.125 148.660156 106.320312 148.511719 106.71875 148.511719 C 107.320312 148.511719 107.8125 148.734375 108.1875 149.183594 C 108.570312 149.640625 108.765625 150.199219 108.765625 150.855469 C 108.765625 151.550781 108.539062 152.136719 108.09375 152.605469 C 107.65625 153.082031 107.101562 153.324219 106.4375 153.324219 C 106.03125 153.324219 105.644531 153.222656 105.28125 153.027344 C 104.914062 152.828125 104.601562 152.582031 104.34375 152.292969 C 104.082031 152 103.828125 151.683594 103.578125 151.339844 L 102.890625 150.386719 C 102.691406 150.09375 102.472656 149.847656 102.234375 149.652344 C 101.992188 149.453125 101.757812 149.355469 101.53125 149.355469 L 100.90625 149.355469 L 100.90625 153.042969 C 100.90625 153.136719 100.859375 153.214844 100.765625 153.277344 C 100.679688 153.347656 100.578125 153.386719 100.453125 153.386719 C 100.335938 153.386719 100.234375 153.347656 100.140625 153.277344 C 100.046875 153.214844 100 153.136719 100 153.042969 L 100 148.777344 C 100 148.671875 100.03125 148.566406 100.09375 148.464844 C 100.164062 148.371094 100.253906 148.324219 100.359375 148.324219 Z M 100.203125 153.960938 C 100.503906 153.960938 100.65625 154.074219 100.65625 154.304688 C 100.65625 154.699219 100.742188 155.042969 100.921875 155.335938 C 101.109375 155.625 101.421875 155.773438 101.859375 155.773438 L 106.953125 155.773438 C 107.304688 155.773438 107.617188 155.636719 107.890625 155.367188 C 108.171875 155.09375 108.3125 154.742188 108.3125 154.304688 C 108.3125 154.199219 108.351562 154.117188 108.4375 154.054688 C 108.519531 153.992188 108.628906 153.960938 108.765625 153.960938 C 109.066406 153.960938 109.21875 154.121094 109.21875 154.445312 C 109.21875 155.070312 108.992188 155.609375 108.546875 156.070312 C 108.109375 156.539062 107.578125 156.773438 106.953125 156.773438 L 101.859375 156.773438 C 101.191406 156.773438 100.675781 156.546875 100.3125 156.101562 C 99.949219 155.664062 99.765625 155.117188 99.765625 154.460938 C 99.765625 154.125 99.914062 153.960938 100.203125 153.960938 Z M 101.375 160.28125 C 101.507812 160.28125 101.632812 160.328125 101.75 160.421875 C 101.875 160.515625 101.9375 160.613281 101.9375 160.71875 C 101.9375 160.78125 101.882812 160.867188 101.78125 160.984375 C 101.6875 161.097656 101.582031 161.210938 101.46875 161.328125 C 101.351562 161.441406 101.242188 161.625 101.140625 161.875 C 101.046875 162.125 100.988281 162.40625 100.96875 162.71875 L 104.15625 162.71875 L 104.40625 162.0625 C 104.457031 161.914062 104.550781 161.722656 104.6875 161.484375 C 104.820312 161.242188 104.957031 161.066406 105.09375 160.953125 C 105.238281 160.835938 105.429688 160.734375 105.671875 160.640625 C 105.910156 160.546875 106.175781 160.5 106.46875 160.5 C 106.832031 160.5 107.148438 160.5625 107.421875 160.6875 C 107.703125 160.8125 107.921875 160.984375 108.078125 161.203125 C 108.234375 161.429688 108.351562 161.664062 108.4375 161.90625 C 108.519531 162.15625 108.578125 162.425781 108.609375 162.71875 L 108.96875 162.71875 C 109.03125 162.71875 109.085938 162.742188 109.140625 162.796875 C 109.191406 162.859375 109.21875 162.9375 109.21875 163.03125 C 109.21875 163.101562 109.191406 163.171875 109.140625 163.234375 C 109.085938 163.304688 109.03125 163.34375 108.96875 163.34375 L 108.625 163.34375 C 108.601562 163.820312 108.519531 164.253906 108.375 164.640625 C 108.238281 165.035156 108.0625 165.234375 107.84375 165.234375 C 107.726562 165.234375 107.601562 165.191406 107.46875 165.109375 C 107.34375 165.035156 107.28125 164.929688 107.28125 164.796875 C 107.28125 164.765625 107.347656 164.597656 107.484375 164.296875 C 107.628906 164.003906 107.710938 163.6875 107.734375 163.34375 L 104.984375 163.34375 C 104.878906 163.65625 104.769531 163.910156 104.65625 164.109375 C 104.550781 164.316406 104.40625 164.535156 104.21875 164.765625 C 104.03125 164.992188 103.789062 165.164062 103.5 165.28125 C 103.207031 165.394531 102.863281 165.453125 102.46875 165.453125 C 101.769531 165.453125 101.210938 165.257812 100.796875 164.875 C 100.390625 164.5 100.144531 163.988281 100.0625 163.34375 L 99.625 163.34375 C 99.5625 163.34375 99.507812 163.304688 99.453125 163.234375 C 99.402344 163.171875 99.375 163.101562 99.375 163.03125 C 99.375 162.9375 99.402344 162.859375 99.453125 162.796875 C 99.507812 162.742188 99.5625 162.71875 99.625 162.71875 L 100.03125 162.71875 C 100.03125 162.03125 100.179688 161.453125 100.484375 160.984375 C 100.796875 160.515625 101.09375 160.28125 101.375 160.28125 Z M 106.5625 161.453125 C 106.1875 161.453125 105.90625 161.5625 105.71875 161.78125 C 105.53125 162 105.359375 162.328125 105.203125 162.765625 L 107.71875 162.765625 C 107.625 161.890625 107.238281 161.453125 106.5625 161.453125 Z M 101 163.296875 C 101.125 164.085938 101.582031 164.484375 102.375 164.484375 C 102.789062 164.484375 103.113281 164.378906 103.34375 164.171875 C 103.582031 163.972656 103.78125 163.679688 103.9375 163.296875 Z M 102.234375 168.816406 L 103.453125 168.816406 C 104.085938 168.816406 104.628906 169.027344 105.078125 169.457031 C 105.535156 169.882812 105.765625 170.386719 105.765625 170.972656 C 105.765625 171.335938 105.675781 171.652344 105.5 171.925781 C 105.320312 172.195312 105.101562 172.402344 104.84375 172.550781 L 108.765625 172.550781 C 108.867188 172.550781 108.953125 172.597656 109.015625 172.691406 C 109.085938 172.785156 109.125 172.902344 109.125 173.050781 C 109.125 173.195312 109.085938 173.308594 109.015625 173.394531 C 108.953125 173.488281 108.867188 173.535156 108.765625 173.535156 L 100.359375 173.535156 C 100.265625 173.535156 100.179688 173.488281 100.109375 173.394531 C 100.035156 173.300781 100 173.183594 100 173.050781 C 100 172.925781 100.035156 172.816406 100.109375 172.722656 C 100.179688 172.636719 100.265625 172.597656 100.359375 172.597656 L 100.84375 172.597656 C 100.582031 172.460938 100.359375 172.238281 100.171875 171.925781 C 99.996094 171.621094 99.90625 171.292969 99.90625 170.941406 C 99.90625 170.378906 100.140625 169.882812 100.609375 169.457031 C 101.078125 169.027344 101.617188 168.816406 102.234375 168.816406 Z M 102.234375 169.816406 C 101.867188 169.816406 101.535156 169.949219 101.234375 170.222656 C 100.941406 170.492188 100.796875 170.808594 100.796875 171.175781 C 100.796875 171.527344 100.929688 171.847656 101.203125 172.128906 C 101.472656 172.410156 101.707031 172.550781 101.90625 172.550781 L 103.453125 172.550781 C 103.867188 172.550781 104.207031 172.410156 104.46875 172.128906 C 104.726562 171.855469 104.859375 171.542969 104.859375 171.191406 C 104.859375 170.816406 104.710938 170.492188 104.421875 170.222656 C 104.140625 169.949219 103.816406 169.816406 103.453125 169.816406 Z M 102.234375 174.746094 L 103.484375 174.746094 C 104.109375 174.746094 104.644531 174.980469 105.09375 175.449219 C 105.539062 175.917969 105.765625 176.480469 105.765625 177.136719 C 105.765625 177.761719 105.550781 178.300781 105.125 178.761719 C 104.707031 179.21875 104.179688 179.449219 103.546875 179.449219 C 103.316406 179.449219 103.128906 179.417969 102.984375 179.355469 C 102.847656 179.300781 102.75 179.21875 102.6875 179.105469 C 102.632812 178.988281 102.597656 178.878906 102.578125 178.777344 C 102.566406 178.683594 102.5625 178.546875 102.5625 178.371094 L 102.5625 175.746094 L 102.203125 175.746094 C 101.753906 175.746094 101.398438 175.902344 101.140625 176.214844 C 100.878906 176.535156 100.75 176.949219 100.75 177.449219 C 100.75 177.71875 100.785156 177.949219 100.859375 178.136719 C 100.941406 178.332031 101.019531 178.488281 101.09375 178.605469 C 101.175781 178.730469 101.21875 178.828125 101.21875 178.902344 C 101.21875 179.015625 101.164062 179.109375 101.0625 179.183594 C 100.957031 179.265625 100.851562 179.308594 100.75 179.308594 C 100.570312 179.308594 100.382812 179.125 100.1875 178.761719 C 100 178.394531 99.90625 177.949219 99.90625 177.417969 C 99.90625 176.636719 100.117188 175.996094 100.546875 175.496094 C 100.972656 174.996094 101.535156 174.746094 102.234375 174.746094 Z M 103.234375 175.746094 L 103.234375 177.964844 C 103.234375 178.171875 103.257812 178.3125 103.3125 178.386719 C 103.363281 178.457031 103.460938 178.496094 103.609375 178.496094 C 103.972656 178.496094 104.289062 178.359375 104.5625 178.089844 C 104.832031 177.828125 104.96875 177.511719 104.96875 177.136719 C 104.96875 176.75 104.84375 176.421875 104.59375 176.152344 C 104.34375 175.878906 104.03125 175.746094 103.65625 175.746094 Z M 100.359375 180.542969 L 105.34375 180.542969 C 105.445312 180.542969 105.53125 180.589844 105.59375 180.683594 C 105.65625 180.777344 105.6875 180.894531 105.6875 181.042969 C 105.6875 181.15625 105.648438 181.261719 105.578125 181.355469 C 105.515625 181.449219 105.4375 181.496094 105.34375 181.496094 L 104.84375 181.496094 C 105.101562 181.621094 105.320312 181.824219 105.5 182.105469 C 105.675781 182.394531 105.765625 182.730469 105.765625 183.105469 C 105.765625 183.667969 105.535156 184.15625 105.078125 184.574219 C 104.628906 185 104.085938 185.214844 103.453125 185.214844 L 100.359375 185.214844 C 100.242188 185.214844 100.15625 185.160156 100.09375 185.058594 C 100.03125 184.964844 100 184.847656 100 184.714844 C 100 184.589844 100.03125 184.472656 100.09375 184.371094 C 100.15625 184.265625 100.242188 184.214844 100.359375 184.214844 L 103.453125 184.214844 C 103.816406 184.214844 104.140625 184.078125 104.421875 183.808594 C 104.710938 183.535156 104.859375 183.21875 104.859375 182.855469 C 104.859375 182.511719 104.726562 182.203125 104.46875 181.933594 C 104.207031 181.671875 103.867188 181.542969 103.453125 181.542969 L 100.359375 181.542969 C 100.273438 181.542969 100.191406 181.488281 100.109375 181.386719 C 100.035156 181.28125 100 181.167969 100 181.042969 C 100 180.90625 100.035156 180.785156 100.109375 180.683594 C 100.179688 180.589844 100.265625 180.542969 100.359375 180.542969 Z M 100.8125 186.238281 C 100.914062 186.238281 101.015625 186.269531 101.109375 186.332031 C 101.210938 186.402344 101.265625 186.488281 101.265625 186.582031 C 101.265625 186.644531 101.21875 186.730469 101.125 186.847656 C 101.03125 186.972656 100.9375 187.148438 100.84375 187.378906 C 100.75 187.605469 100.703125 187.871094 100.703125 188.175781 C 100.703125 188.570312 100.773438 188.855469 100.921875 189.035156 C 101.066406 189.222656 101.25 189.316406 101.46875 189.316406 C 101.726562 189.316406 101.9375 189.210938 102.09375 189.003906 C 102.25 188.804688 102.363281 188.558594 102.4375 188.269531 C 102.519531 187.988281 102.609375 187.699219 102.703125 187.410156 C 102.804688 187.128906 102.96875 186.882812 103.1875 186.675781 C 103.414062 186.476562 103.710938 186.378906 104.078125 186.378906 C 104.535156 186.378906 104.929688 186.539062 105.265625 186.863281 C 105.597656 187.183594 105.765625 187.679688 105.765625 188.347656 C 105.765625 188.773438 105.695312 189.160156 105.5625 189.503906 C 105.425781 189.855469 105.273438 190.035156 105.109375 190.035156 C 105.015625 190.035156 104.90625 189.996094 104.78125 189.925781 C 104.664062 189.851562 104.609375 189.757812 104.609375 189.644531 C 104.609375 189.613281 104.664062 189.457031 104.78125 189.175781 C 104.894531 188.902344 104.953125 188.632812 104.953125 188.363281 C 104.953125 187.996094 104.863281 187.722656 104.6875 187.535156 C 104.519531 187.355469 104.328125 187.269531 104.109375 187.269531 C 103.890625 187.269531 103.710938 187.367188 103.578125 187.566406 C 103.453125 187.761719 103.351562 188.007812 103.28125 188.300781 C 103.21875 188.601562 103.132812 188.894531 103.03125 189.175781 C 102.925781 189.464844 102.742188 189.710938 102.484375 189.910156 C 102.234375 190.105469 101.910156 190.207031 101.515625 190.207031 C 101.015625 190.207031 100.617188 190.027344 100.328125 189.675781 C 100.046875 189.332031 99.90625 188.839844 99.90625 188.207031 C 99.90625 187.664062 100 187.199219 100.1875 186.816406 C 100.382812 186.429688 100.59375 186.238281 100.8125 186.238281 Z M 107.421875 191.347656 C 107.535156 191.222656 107.664062 191.160156 107.8125 191.160156 C 107.96875 191.160156 108.101562 191.214844 108.21875 191.332031 C 108.332031 191.457031 108.390625 191.605469 108.390625 191.785156 C 108.390625 191.949219 108.332031 192.089844 108.21875 192.207031 C 108.101562 192.332031 107.96875 192.394531 107.8125 192.394531 C 107.664062 192.394531 107.535156 192.332031 107.421875 192.207031 C 107.304688 192.089844 107.25 191.949219 107.25 191.785156 C 107.25 191.617188 107.304688 191.472656 107.421875 191.347656 Z M 100.359375 191.285156 L 105.34375 191.285156 C 105.445312 191.285156 105.53125 191.332031 105.59375 191.425781 C 105.65625 191.527344 105.6875 191.648438 105.6875 191.785156 C 105.6875 191.929688 105.65625 192.050781 105.59375 192.144531 C 105.53125 192.238281 105.445312 192.285156 105.34375 192.285156 L 100.359375 192.285156 C 100.273438 192.285156 100.191406 192.230469 100.109375 192.128906 C 100.035156 192.035156 100 191.917969 100 191.785156 C 100 191.648438 100.035156 191.527344 100.109375 191.425781 C 100.179688 191.332031 100.265625 191.285156 100.359375 191.285156 Z M 101.8125 193.679688 L 107.984375 193.679688 C 108.085938 193.679688 108.171875 193.730469 108.234375 193.835938 C 108.304688 193.9375 108.34375 194.046875 108.34375 194.164062 C 108.34375 194.296875 108.304688 194.417969 108.234375 194.523438 C 108.171875 194.625 108.085938 194.679688 107.984375 194.679688 L 105.6875 194.679688 L 105.6875 196.179688 C 105.6875 196.273438 105.644531 196.34375 105.5625 196.398438 C 105.488281 196.449219 105.398438 196.476562 105.296875 196.476562 C 105.191406 196.476562 105.097656 196.449219 105.015625 196.398438 C 104.941406 196.34375 104.90625 196.273438 104.90625 196.179688 L 104.90625 194.679688 L 101.8125 194.679688 C 101.46875 194.679688 101.222656 194.75 101.078125 194.898438 C 100.941406 195.042969 100.875 195.296875 100.875 195.664062 L 100.875 196.039062 C 100.875 196.171875 100.832031 196.277344 100.75 196.351562 C 100.664062 196.433594 100.5625 196.476562 100.4375 196.476562 C 100.320312 196.476562 100.21875 196.433594 100.125 196.351562 C 100.039062 196.265625 100 196.164062 100 196.039062 L 100 195.664062 C 100 194.339844 100.601562 193.679688 101.8125 193.679688 Z M 105.28125 196.855469 C 105.40625 196.855469 105.515625 196.925781 105.609375 197.074219 C 105.710938 197.21875 105.765625 197.363281 105.765625 197.511719 C 105.765625 197.675781 105.695312 197.78125 105.5625 197.824219 L 101.375 199.417969 L 105.5625 200.839844 C 105.695312 200.902344 105.765625 201.003906 105.765625 201.152344 C 105.765625 201.285156 105.710938 201.425781 105.609375 201.574219 C 105.515625 201.730469 105.398438 201.808594 105.265625 201.808594 C 105.222656 201.808594 105.179688 201.792969 105.140625 201.761719 L 100.265625 199.949219 L 99.65625 199.714844 C 99.554688 199.671875 99.367188 199.589844 99.09375 199.464844 C 98.824219 199.347656 98.625 199.25 98.5 199.167969 C 98.375 199.09375 98.21875 198.984375 98.03125 198.839844 C 97.835938 198.691406 97.695312 198.550781 97.609375 198.417969 C 97.515625 198.28125 97.433594 198.121094 97.359375 197.933594 C 97.289062 197.746094 97.25 197.546875 97.25 197.339844 C 97.25 197.027344 97.402344 196.871094 97.703125 196.871094 C 97.984375 196.871094 98.125 196.964844 98.125 197.152344 C 98.125 197.515625 98.328125 197.863281 98.734375 198.199219 C 99.140625 198.542969 99.65625 198.777344 100.28125 198.902344 L 105.140625 196.902344 C 105.191406 196.871094 105.238281 196.855469 105.28125 196.855469 Z M 106.90625 204.464844 C 107.070312 204.464844 107.207031 204.535156 107.3125 204.683594 L 108.625 205.777344 C 108.726562 205.878906 108.78125 205.984375 108.78125 206.089844 C 108.78125 206.203125 108.75 206.308594 108.6875 206.402344 C 108.625 206.496094 108.535156 206.542969 108.421875 206.542969 L 100.359375 206.542969 C 100.242188 206.542969 100.15625 206.488281 100.09375 206.386719 C 100.03125 206.292969 100 206.171875 100 206.027344 C 100 205.890625 100.03125 205.769531 100.09375 205.667969 C 100.15625 205.574219 100.242188 205.527344 100.359375 205.527344 L 107.265625 205.527344 L 106.609375 205.089844 C 106.523438 205.003906 106.484375 204.921875 106.484375 204.839844 C 106.484375 204.734375 106.523438 204.644531 106.609375 204.574219 C 106.691406 204.5 106.789062 204.464844 106.90625 204.464844 Z M 102.546875 207.988281 L 106.15625 207.988281 C 107.0625 207.988281 107.722656 208.226562 108.140625 208.707031 C 108.554688 209.183594 108.765625 209.820312 108.765625 210.613281 C 108.765625 211.414062 108.554688 212.039062 108.140625 212.488281 C 107.734375 212.933594 107.25 213.160156 106.6875 213.160156 C 106.382812 213.160156 106.234375 213.003906 106.234375 212.691406 C 106.234375 212.347656 106.367188 212.175781 106.640625 212.175781 C 107.003906 212.175781 107.296875 212.023438 107.515625 211.722656 C 107.742188 211.417969 107.859375 211.042969 107.859375 210.597656 C 107.859375 209.535156 107.289062 209.003906 106.15625 209.003906 L 104.46875 209.003906 C 104.96875 209.386719 105.21875 209.972656 105.21875 210.753906 C 105.21875 212.355469 104.410156 213.160156 102.796875 213.160156 L 102.546875 213.160156 C 101.640625 213.160156 100.972656 212.925781 100.546875 212.457031 C 100.128906 211.988281 99.921875 211.363281 99.921875 210.582031 C 99.921875 209.800781 100.128906 209.167969 100.546875 208.691406 C 100.972656 208.222656 101.640625 207.988281 102.546875 207.988281 Z M 102.5 209.003906 C 101.363281 209.003906 100.796875 209.527344 100.796875 210.582031 C 100.796875 211.632812 101.363281 212.160156 102.5 212.160156 L 102.75 212.160156 C 103.832031 212.160156 104.375 211.632812 104.375 210.582031 C 104.375 209.527344 103.867188 209.003906 102.859375 209.003906 Z M 101.375 216.46875 C 101.507812 216.46875 101.632812 216.515625 101.75 216.609375 C 101.875 216.703125 101.9375 216.800781 101.9375 216.90625 C 101.9375 216.96875 101.882812 217.054688 101.78125 217.171875 C 101.6875 217.285156 101.582031 217.398438 101.46875 217.515625 C 101.351562 217.628906 101.242188 217.8125 101.140625 218.0625 C 101.046875 218.3125 100.988281 218.59375 100.96875 218.90625 L 104.15625 218.90625 L 104.40625 218.25 C 104.457031 218.101562 104.550781 217.910156 104.6875 217.671875 C 104.820312 217.429688 104.957031 217.253906 105.09375 217.140625 C 105.238281 217.023438 105.429688 216.921875 105.671875 216.828125 C 105.910156 216.734375 106.175781 216.6875 106.46875 216.6875 C 106.832031 216.6875 107.148438 216.75 107.421875 216.875 C 107.703125 217 107.921875 217.171875 108.078125 217.390625 C 108.234375 217.617188 108.351562 217.851562 108.4375 218.09375 C 108.519531 218.34375 108.578125 218.613281 108.609375 218.90625 L 108.96875 218.90625 C 109.03125 218.90625 109.085938 218.929688 109.140625 218.984375 C 109.191406 219.046875 109.21875 219.125 109.21875 219.21875 C 109.21875 219.289062 109.191406 219.359375 109.140625 219.421875 C 109.085938 219.492188 109.03125 219.53125 108.96875 219.53125 L 108.625 219.53125 C 108.601562 220.007812 108.519531 220.441406 108.375 220.828125 C 108.238281 221.222656 108.0625 221.421875 107.84375 221.421875 C 107.726562 221.421875 107.601562 221.378906 107.46875 221.296875 C 107.34375 221.222656 107.28125 221.117188 107.28125 220.984375 C 107.28125 220.953125 107.347656 220.785156 107.484375 220.484375 C 107.628906 220.191406 107.710938 219.875 107.734375 219.53125 L 104.984375 219.53125 C 104.878906 219.84375 104.769531 220.097656 104.65625 220.296875 C 104.550781 220.503906 104.40625 220.722656 104.21875 220.953125 C 104.03125 221.179688 103.789062 221.351562 103.5 221.46875 C 103.207031 221.582031 102.863281 221.640625 102.46875 221.640625 C 101.769531 221.640625 101.210938 221.445312 100.796875 221.0625 C 100.390625 220.6875 100.144531 220.175781 100.0625 219.53125 L 99.625 219.53125 C 99.5625 219.53125 99.507812 219.492188 99.453125 219.421875 C 99.402344 219.359375 99.375 219.289062 99.375 219.21875 C 99.375 219.125 99.402344 219.046875 99.453125 218.984375 C 99.507812 218.929688 99.5625 218.90625 99.625 218.90625 L 100.03125 218.90625 C 100.03125 218.21875 100.179688 217.640625 100.484375 217.171875 C 100.796875 216.703125 101.09375 216.46875 101.375 216.46875 Z M 106.5625 217.640625 C 106.1875 217.640625 105.90625 217.75 105.71875 217.96875 C 105.53125 218.1875 105.359375 218.515625 105.203125 218.953125 L 107.71875 218.953125 C 107.625 218.078125 107.238281 217.640625 106.5625 217.640625 Z M 101 219.484375 C 101.125 220.273438 101.582031 220.671875 102.375 220.671875 C 102.789062 220.671875 103.113281 220.566406 103.34375 220.359375 C 103.582031 220.160156 103.78125 219.867188 103.9375 219.484375 Z M 108.921875 224.9375 C 109.003906 224.9375 109.070312 224.976562 109.125 225.0625 C 109.1875 225.15625 109.21875 225.253906 109.21875 225.359375 C 109.21875 225.472656 109.1875 225.578125 109.125 225.671875 C 109.070312 225.765625 109.003906 225.8125 108.921875 225.8125 L 107.171875 225.6875 C 107.085938 225.6875 107.015625 225.660156 106.953125 225.609375 C 106.890625 225.554688 106.859375 225.476562 106.859375 225.375 C 106.859375 225.164062 106.960938 225.0625 107.171875 225.0625 Z M 108.921875 226.5625 C 109.003906 226.5625 109.070312 226.601562 109.125 226.6875 C 109.1875 226.78125 109.21875 226.882812 109.21875 227 C 109.21875 227.113281 109.1875 227.210938 109.125 227.296875 C 109.070312 227.390625 109.003906 227.4375 108.921875 227.4375 L 107.171875 227.328125 C 107.085938 227.328125 107.015625 227.296875 106.953125 227.234375 C 106.890625 227.179688 106.859375 227.101562 106.859375 227 C 106.859375 226.789062 106.960938 226.6875 107.171875 226.6875 Z M 98.875 228.132812 C 99.460938 228.132812 99.898438 228.453125 100.1875 229.101562 C 100.332031 228.695312 100.597656 228.492188 100.984375 228.492188 C 101.347656 228.492188 101.644531 228.6875 101.875 229.085938 C 102.238281 228.636719 102.742188 228.414062 103.390625 228.414062 L 103.78125 228.414062 C 104.363281 228.414062 104.835938 228.605469 105.203125 228.992188 C 105.578125 229.386719 105.765625 229.902344 105.765625 230.539062 C 105.765625 231.078125 105.609375 231.546875 105.296875 231.945312 C 105.816406 232.183594 106.078125 232.453125 106.078125 232.757812 C 106.078125 232.890625 106.035156 232.996094 105.953125 233.070312 C 105.878906 233.152344 105.796875 233.195312 105.703125 233.195312 C 105.578125 233.195312 105.484375 233.125 105.421875 232.992188 C 105.347656 232.71875 105.179688 232.5 104.921875 232.335938 C 104.617188 232.585938 104.238281 232.710938 103.78125 232.710938 L 103.390625 232.710938 C 102.804688 232.710938 102.328125 232.507812 101.953125 232.101562 C 101.578125 231.695312 101.390625 231.171875 101.390625 230.539062 C 101.390625 230.214844 101.453125 229.917969 101.578125 229.648438 C 101.453125 229.449219 101.3125 229.351562 101.15625 229.351562 C 101.007812 229.351562 100.894531 229.445312 100.8125 229.632812 C 100.726562 229.820312 100.675781 230.046875 100.65625 230.320312 C 100.632812 230.589844 100.59375 230.882812 100.53125 231.195312 C 100.476562 231.515625 100.40625 231.8125 100.3125 232.085938 C 100.226562 232.355469 100.078125 232.585938 99.859375 232.773438 C 99.632812 232.960938 99.34375 233.054688 99 233.054688 C 98.4375 233.054688 98.007812 232.824219 97.703125 232.367188 C 97.402344 231.917969 97.25 231.335938 97.25 230.617188 C 97.25 229.898438 97.398438 229.304688 97.6875 228.835938 C 97.980469 228.367188 98.375 228.132812 98.875 228.132812 Z M 98.984375 229.085938 C 98.671875 229.085938 98.421875 229.21875 98.234375 229.492188 C 98.046875 229.773438 97.953125 230.140625 97.953125 230.601562 C 97.953125 231.046875 98.046875 231.40625 98.234375 231.679688 C 98.421875 231.949219 98.671875 232.085938 98.984375 232.085938 C 99.109375 232.085938 99.21875 232.058594 99.3125 232.007812 C 99.40625 231.964844 99.492188 231.898438 99.5625 231.804688 C 99.625 231.710938 99.679688 231.609375 99.71875 231.507812 C 99.761719 231.414062 99.796875 231.289062 99.828125 231.132812 C 99.859375 230.984375 99.882812 230.859375 99.890625 230.757812 C 99.902344 230.664062 99.917969 230.53125 99.9375 230.367188 C 99.949219 230.199219 99.960938 230.085938 99.96875 230.023438 C 99.761719 229.398438 99.433594 229.085938 98.984375 229.085938 Z M 103.390625 229.382812 C 103.003906 229.382812 102.6875 229.484375 102.4375 229.695312 C 102.195312 229.902344 102.078125 230.195312 102.078125 230.570312 C 102.078125 230.921875 102.195312 231.203125 102.4375 231.414062 C 102.6875 231.632812 103.003906 231.742188 103.390625 231.742188 L 103.78125 231.742188 C 104.144531 231.742188 104.453125 231.632812 104.703125 231.414062 C 104.953125 231.203125 105.078125 230.917969 105.078125 230.554688 C 105.078125 230.1875 104.953125 229.902344 104.703125 229.695312 C 104.460938 229.484375 104.15625 229.382812 103.78125 229.382812 Z M 100.359375 234.050781 L 105.34375 234.050781 C 105.445312 234.050781 105.53125 234.097656 105.59375 234.191406 C 105.65625 234.285156 105.6875 234.402344 105.6875 234.550781 C 105.6875 234.675781 105.65625 234.777344 105.59375 234.863281 C 105.53125 234.957031 105.445312 235.003906 105.34375 235.003906 L 104.78125 235.003906 C 105.050781 235.148438 105.28125 235.363281 105.46875 235.644531 C 105.664062 235.925781 105.765625 236.238281 105.765625 236.582031 L 105.765625 236.988281 C 105.765625 237.089844 105.71875 237.179688 105.625 237.253906 C 105.53125 237.324219 105.421875 237.363281 105.296875 237.363281 C 105.179688 237.363281 105.078125 237.324219 104.984375 237.253906 C 104.898438 237.179688 104.859375 237.089844 104.859375 236.988281 L 104.859375 236.582031 C 104.859375 236.164062 104.691406 235.804688 104.359375 235.503906 C 104.035156 235.199219 103.613281 235.050781 103.09375 235.050781 L 100.359375 235.050781 C 100.273438 235.050781 100.191406 234.996094 100.109375 234.894531 C 100.035156 234.800781 100 234.683594 100 234.550781 C 100 234.414062 100.035156 234.292969 100.109375 234.191406 C 100.179688 234.097656 100.265625 234.050781 100.359375 234.050781 Z M 102.234375 237.960938 L 103.484375 237.960938 C 104.109375 237.960938 104.644531 238.195312 105.09375 238.664062 C 105.539062 239.132812 105.765625 239.695312 105.765625 240.351562 C 105.765625 240.976562 105.550781 241.515625 105.125 241.976562 C 104.707031 242.433594 104.179688 242.664062 103.546875 242.664062 C 103.316406 242.664062 103.128906 242.632812 102.984375 242.570312 C 102.847656 242.515625 102.75 242.433594 102.6875 242.320312 C 102.632812 242.203125 102.597656 242.09375 102.578125 241.992188 C 102.566406 241.898438 102.5625 241.761719 102.5625 241.585938 L 102.5625 238.960938 L 102.203125 238.960938 C 101.753906 238.960938 101.398438 239.117188 101.140625 239.429688 C 100.878906 239.75 100.75 240.164062 100.75 240.664062 C 100.75 240.933594 100.785156 241.164062 100.859375 241.351562 C 100.941406 241.546875 101.019531 241.703125 101.09375 241.820312 C 101.175781 241.945312 101.21875 242.042969 101.21875 242.117188 C 101.21875 242.230469 101.164062 242.324219 101.0625 242.398438 C 100.957031 242.480469 100.851562 242.523438 100.75 242.523438 C 100.570312 242.523438 100.382812 242.339844 100.1875 241.976562 C 100 241.609375 99.90625 241.164062 99.90625 240.632812 C 99.90625 239.851562 100.117188 239.210938 100.546875 238.710938 C 100.972656 238.210938 101.535156 237.960938 102.234375 237.960938 Z M 103.234375 238.960938 L 103.234375 241.179688 C 103.234375 241.386719 103.257812 241.527344 103.3125 241.601562 C 103.363281 241.671875 103.460938 241.710938 103.609375 241.710938 C 103.972656 241.710938 104.289062 241.574219 104.5625 241.304688 C 104.832031 241.042969 104.96875 240.726562 104.96875 240.351562 C 104.96875 239.964844 104.84375 239.636719 104.59375 239.367188 C 104.34375 239.09375 104.03125 238.960938 103.65625 238.960938 Z M 105.28125 243.199219 C 105.40625 243.199219 105.515625 243.269531 105.609375 243.417969 C 105.710938 243.5625 105.765625 243.707031 105.765625 243.855469 C 105.765625 244.019531 105.695312 244.125 105.5625 244.167969 L 101.375 245.761719 L 105.5625 247.183594 C 105.695312 247.246094 105.765625 247.347656 105.765625 247.496094 C 105.765625 247.628906 105.710938 247.769531 105.609375 247.917969 C 105.515625 248.074219 105.398438 248.152344 105.265625 248.152344 C 105.222656 248.152344 105.179688 248.136719 105.140625 248.105469 L 100.265625 246.292969 L 99.65625 246.058594 C 99.554688 246.015625 99.367188 245.933594 99.09375 245.808594 C 98.824219 245.691406 98.625 245.59375 98.5 245.511719 C 98.375 245.4375 98.21875 245.328125 98.03125 245.183594 C 97.835938 245.035156 97.695312 244.894531 97.609375 244.761719 C 97.515625 244.625 97.433594 244.464844 97.359375 244.277344 C 97.289062 244.089844 97.25 243.890625 97.25 243.683594 C 97.25 243.371094 97.402344 243.214844 97.703125 243.214844 C 97.984375 243.214844 98.125 243.308594 98.125 243.496094 C 98.125 243.859375 98.328125 244.207031 98.734375 244.542969 C 99.140625 244.886719 99.65625 245.121094 100.28125 245.246094 L 105.140625 243.246094 C 105.191406 243.214844 105.238281 243.199219 105.28125 243.199219 Z M 100.359375 251.421875 L 108.765625 251.421875 C 108.867188 251.421875 108.953125 251.46875 109.015625 251.5625 C 109.085938 251.65625 109.125 251.769531 109.125 251.90625 C 109.125 252.050781 109.085938 252.171875 109.015625 252.265625 C 108.953125 252.367188 108.867188 252.421875 108.765625 252.421875 L 104.84375 252.421875 C 105.101562 252.566406 105.320312 252.773438 105.5 253.046875 C 105.675781 253.316406 105.765625 253.628906 105.765625 253.984375 C 105.765625 254.566406 105.535156 255.070312 105.078125 255.5 C 104.628906 255.925781 104.085938 256.140625 103.453125 256.140625 L 102.234375 256.140625 C 101.617188 256.140625 101.078125 255.925781 100.609375 255.5 C 100.140625 255.070312 99.90625 254.582031 99.90625 254.03125 C 99.90625 253.664062 99.996094 253.332031 100.171875 253.03125 C 100.359375 252.726562 100.582031 252.507812 100.84375 252.375 L 100.359375 252.375 C 100.265625 252.375 100.179688 252.328125 100.109375 252.234375 C 100.035156 252.140625 100 252.035156 100 251.921875 C 100 251.785156 100.035156 251.664062 100.109375 251.5625 C 100.179688 251.46875 100.265625 251.421875 100.359375 251.421875 Z M 101.90625 252.421875 C 101.707031 252.421875 101.472656 252.5625 101.203125 252.84375 C 100.929688 253.125 100.796875 253.4375 100.796875 253.78125 C 100.796875 254.144531 100.941406 254.460938 101.234375 254.734375 C 101.535156 255.003906 101.867188 255.140625 102.234375 255.140625 L 103.453125 255.140625 C 103.816406 255.140625 104.140625 255.003906 104.421875 254.734375 C 104.710938 254.460938 104.859375 254.144531 104.859375 253.78125 C 104.859375 253.414062 104.726562 253.097656 104.46875 252.828125 C 104.207031 252.554688 103.867188 252.421875 103.453125 252.421875 Z M 100.359375 257.441406 L 108.765625 257.441406 C 108.867188 257.441406 108.953125 257.488281 109.015625 257.582031 C 109.085938 257.675781 109.125 257.792969 109.125 257.941406 C 109.125 258.085938 109.085938 258.207031 109.015625 258.300781 C 108.953125 258.394531 108.867188 258.441406 108.765625 258.441406 L 100.359375 258.441406 C 100.273438 258.441406 100.191406 258.386719 100.109375 258.285156 C 100.035156 258.191406 100 258.074219 100 257.941406 C 100 257.804688 100.035156 257.683594 100.109375 257.582031 C 100.179688 257.488281 100.265625 257.441406 100.359375 257.441406 Z M 101.5 259.601562 C 102.125 259.601562 102.554688 259.839844 102.796875 260.320312 C 103.046875 260.796875 103.171875 261.492188 103.171875 262.398438 L 103.171875 262.976562 L 103.421875 262.976562 C 103.816406 262.976562 104.160156 262.867188 104.453125 262.648438 C 104.753906 262.429688 104.90625 262.101562 104.90625 261.664062 C 104.90625 261.320312 104.847656 261.015625 104.734375 260.757812 C 104.617188 260.507812 104.5625 260.371094 104.5625 260.351562 C 104.5625 260.234375 104.613281 260.140625 104.71875 260.070312 C 104.832031 260.007812 104.945312 259.976562 105.0625 259.976562 C 105.25 259.976562 105.410156 260.15625 105.546875 260.523438 C 105.691406 260.886719 105.765625 261.273438 105.765625 261.679688 C 105.765625 262.460938 105.539062 263.039062 105.09375 263.414062 C 104.644531 263.789062 104.09375 263.976562 103.4375 263.976562 L 100.359375 263.976562 C 100.253906 263.976562 100.164062 263.929688 100.09375 263.835938 C 100.03125 263.742188 100 263.621094 100 263.476562 C 100 263.351562 100.03125 263.242188 100.09375 263.148438 C 100.164062 263.0625 100.253906 263.023438 100.359375 263.023438 L 100.84375 263.023438 C 100.21875 262.480469 99.90625 261.875 99.90625 261.210938 C 99.90625 260.730469 100.039062 260.339844 100.3125 260.039062 C 100.582031 259.746094 100.976562 259.601562 101.5 259.601562 Z M 101.609375 260.601562 C 101.304688 260.601562 101.078125 260.683594 100.921875 260.851562 C 100.773438 261.015625 100.703125 261.242188 100.703125 261.523438 C 100.703125 261.855469 100.835938 262.179688 101.109375 262.492188 C 101.378906 262.8125 101.65625 262.976562 101.9375 262.976562 L 102.5625 262.976562 L 102.5625 262.554688 C 102.5625 262.324219 102.550781 262.125 102.53125 261.960938 C 102.519531 261.792969 102.492188 261.617188 102.453125 261.429688 C 102.421875 261.25 102.367188 261.105469 102.296875 260.992188 C 102.234375 260.875 102.144531 260.78125 102.03125 260.710938 C 101.914062 260.636719 101.773438 260.601562 101.609375 260.601562 Z M 102.234375 265.132812 L 103.4375 265.132812 C 104.125 265.132812 104.679688 265.335938 105.109375 265.742188 C 105.546875 266.148438 105.765625 266.742188 105.765625 267.523438 C 105.765625 268.023438 105.675781 268.4375 105.5 268.773438 C 105.320312 269.117188 105.132812 269.289062 104.9375 269.289062 C 104.820312 269.289062 104.707031 269.246094 104.59375 269.164062 C 104.488281 269.078125 104.4375 268.980469 104.4375 268.867188 C 104.4375 268.835938 104.503906 268.695312 104.640625 268.445312 C 104.785156 268.203125 104.859375 267.921875 104.859375 267.601562 C 104.859375 267.121094 104.734375 266.757812 104.484375 266.507812 C 104.234375 266.257812 103.882812 266.132812 103.4375 266.132812 L 102.234375 266.132812 C 101.273438 266.132812 100.796875 266.621094 100.796875 267.601562 C 100.796875 267.945312 100.867188 268.234375 101.015625 268.476562 C 101.160156 268.726562 101.234375 268.871094 101.234375 268.914062 C 101.234375 269.039062 101.179688 269.140625 101.078125 269.226562 C 100.972656 269.320312 100.863281 269.367188 100.75 269.367188 C 100.550781 269.367188 100.359375 269.1875 100.171875 268.835938 C 99.996094 268.480469 99.90625 268.046875 99.90625 267.539062 C 99.90625 266.746094 100.117188 266.148438 100.546875 265.742188 C 100.972656 265.335938 101.535156 265.132812 102.234375 265.132812 Z M 100.359375 270.355469 L 108.765625 270.355469 C 108.867188 270.355469 108.953125 270.402344 109.015625 270.496094 C 109.085938 270.589844 109.125 270.703125 109.125 270.839844 C 109.125 270.984375 109.085938 271.105469 109.015625 271.199219 C 108.953125 271.300781 108.867188 271.355469 108.765625 271.355469 L 103.15625 271.355469 L 105.625 274.089844 C 105.6875 274.160156 105.71875 274.234375 105.71875 274.308594 C 105.71875 274.421875 105.664062 274.53125 105.5625 274.636719 C 105.46875 274.75 105.363281 274.808594 105.25 274.808594 C 105.144531 274.808594 105.0625 274.769531 105 274.699219 L 103.53125 273.027344 L 100.640625 275.027344 C 100.578125 275.066406 100.515625 275.089844 100.453125 275.089844 C 100.335938 275.089844 100.222656 275.027344 100.109375 274.902344 C 100.003906 274.785156 99.953125 274.660156 99.953125 274.527344 C 99.953125 274.421875 100.003906 274.332031 100.109375 274.261719 L 102.90625 272.355469 L 102.015625 271.355469 L 100.359375 271.355469 C 100.273438 271.355469 100.191406 271.300781 100.109375 271.199219 C 100.035156 271.105469 100 270.988281 100 270.855469 C 100 270.71875 100.035156 270.597656 100.109375 270.496094 C 100.179688 270.402344 100.265625 270.355469 100.359375 270.355469 Z M 108.921875 275.664062 C 109.003906 275.664062 109.070312 275.703125 109.125 275.789062 C 109.1875 275.882812 109.21875 275.980469 109.21875 276.085938 C 109.21875 276.199219 109.1875 276.304688 109.125 276.398438 C 109.070312 276.492188 109.003906 276.539062 108.921875 276.539062 L 107.171875 276.414062 C 107.085938 276.414062 107.015625 276.386719 106.953125 276.335938 C 106.890625 276.28125 106.859375 276.203125 106.859375 276.101562 C 106.859375 275.890625 106.960938 275.789062 107.171875 275.789062 Z M 108.921875 277.289062 C 109.003906 277.289062 109.070312 277.328125 109.125 277.414062 C 109.1875 277.507812 109.21875 277.609375 109.21875 277.726562 C 109.21875 277.839844 109.1875 277.9375 109.125 278.023438 C 109.070312 278.117188 109.003906 278.164062 108.921875 278.164062 L 107.171875 278.054688 C 107.085938 278.054688 107.015625 278.023438 106.953125 277.960938 C 106.890625 277.90625 106.859375 277.828125 106.859375 277.726562 C 106.859375 277.515625 106.960938 277.414062 107.171875 277.414062 Z M 100 278.589844 "/>
</g>
</svg>
