<?xml version="1.0" encoding="UTF-8"?>
<svg xmlns="http://www.w3.org/2000/svg" xmlns:xlink="http://www.w3.org/1999/xlink" width="136pt" height="566pt" viewBox="0 0 136 566" version="1.1">
<g id="surface209">
<path style=" stroke:none;fill-rule:nonzero;fill:rgb(0%,0%,0%);fill-opacity:1;" d="M 0 0 L 96 0 L 96 566 L 0 566 Z M 0 0 "/>
<path style=" stroke:none;fill-rule:nonzero;fill:rgb(50.196078%,50.196078%,50.196078%);fill-opacity:1;" d="M 0 0 L 12 0 L 12 566 L 0 566 Z M 0 0 "/>
<path style=" stroke:none;fill-rule:nonzero;fill:rgb(0%,0%,0%);fill-opacity:1;" d="M 12 0 L 24 0 L 24 566 L 12 566 Z M 12 0 "/>
<path style=" stroke:none;fill-rule:nonzero;fill:rgb(50.196078%,50.196078%,50.196078%);fill-opacity:1;" d="M 24 0 L 36 0 L 36 566 L 24 566 Z M 24 0 "/>
<path style=" stroke:none;fill-rule:nonzero;fill:rgb(0%,0%,0%);fill-opacity:1;" d="M 36 0 L 48 0 L 48 566 L 36 566 Z M 36 0 "/>
<path style=" stroke:none;fill-rule:nonzero;fill:rgb(50.196078%,50.196078%,50.196078%);fill-opacity:1;" d="M 48 0 L 60 0 L 60 566 L 48 566 Z M 48 0 "/>
<path style=" stroke:none;fill-rule:nonzero;fill:rgb(0%,0%,0%);fill-opacity:1;" d="M 60 0 L 72 0 L 72 566 L 60 566 Z M 60 0 "/>
<path style=" stroke:none;fill-rule:nonzero;fill:rgb(50.196078%,50.196078%,50.196078%);fill-opacity:1;" d="M 72 0 L 84 0 L 84 566 L 72 566 Z M 72 0 "/>
<path style=" stroke:none;fill-rule:nonzero;fill:rgb(0%,0%,0%);fill-opacity:1;" d="M 84 0 L 96 0 L 96 566 L 84 566 Z M 84 0 "/>
<path style=" stroke:none;fill-rule:nonzero;fill:rgb(0%,0%,0%);fill-opacity:1;" d="M 86.578125 11.203125 L 97.453125 11.203125 C 98.492188 11.203125 99.378906 11.550781 100.109375 12.25 C 100.835938 12.945312 101.203125 13.773438 101.203125 14.734375 L 101.203125 15.4375 C 101.203125 15.65625 101.128906 15.820312 100.984375 15.9375 C 100.835938 16.0625 100.660156 16.125 100.453125 16.125 C 100.253906 16.125 100.082031 16.0625 99.9375 15.9375 C 99.800781 15.820312 99.734375 15.65625 99.734375 15.4375 L 99.734375 15.015625 C 99.734375 14.398438 99.523438 13.890625 99.109375 13.484375 C 98.703125 13.078125 98.195312 12.867188 97.59375 12.859375 L 95.484375 12.859375 L 95.484375 15.59375 C 95.484375 15.757812 95.414062 15.890625 95.28125 15.984375 C 95.144531 16.078125 94.988281 16.125 94.8125 16.125 C 94.644531 16.125 94.5 16.078125 94.375 15.984375 C 94.25 15.890625 94.1875 15.757812 94.1875 15.59375 L 94.1875 12.859375 L 86.578125 12.859375 C 86.421875 12.859375 86.285156 12.773438 86.171875 12.609375 C 86.054688 12.441406 86 12.238281 86 12 C 86 11.769531 86.050781 11.578125 86.15625 11.421875 C 86.257812 11.273438 86.398438 11.203125 86.578125 11.203125 Z M 89.71875 17.113281 L 91.765625 17.113281 C 92.785156 17.113281 93.675781 17.503906 94.4375 18.285156 C 95.207031 19.066406 95.59375 19.988281 95.59375 21.050781 C 95.59375 22.121094 95.210938 23.050781 94.453125 23.832031 C 93.691406 24.621094 92.796875 25.019531 91.765625 25.019531 L 89.71875 25.019531 C 88.707031 25.019531 87.804688 24.621094 87.015625 23.832031 C 86.234375 23.039062 85.84375 22.117188 85.84375 21.066406 C 85.84375 20.011719 86.234375 19.089844 87.015625 18.300781 C 87.796875 17.507812 88.695312 17.113281 89.71875 17.113281 Z M 89.71875 18.785156 C 89.09375 18.785156 88.539062 19.007812 88.0625 19.457031 C 87.582031 19.914062 87.34375 20.449219 87.34375 21.066406 C 87.34375 21.691406 87.582031 22.226562 88.0625 22.675781 C 88.550781 23.132812 89.101562 23.363281 89.71875 23.363281 L 91.765625 23.363281 C 92.359375 23.363281 92.894531 23.132812 93.375 22.675781 C 93.851562 22.226562 94.09375 21.683594 94.09375 21.050781 C 94.09375 20.425781 93.851562 19.886719 93.375 19.441406 C 92.894531 19.003906 92.359375 18.785156 91.765625 18.785156 Z M 86.59375 27.199219 L 100.625 27.199219 C 100.789062 27.199219 100.925781 27.269531 101.03125 27.417969 C 101.144531 27.574219 101.203125 27.769531 101.203125 28.011719 C 101.203125 28.261719 101.144531 28.464844 101.03125 28.621094 C 100.925781 28.777344 100.789062 28.855469 100.625 28.855469 L 86.59375 28.855469 C 86.445312 28.855469 86.3125 28.769531 86.1875 28.605469 C 86.0625 28.4375 86 28.238281 86 28.011719 C 86 27.792969 86.054688 27.597656 86.171875 27.433594 C 86.296875 27.277344 86.4375 27.199219 86.59375 27.199219 Z M 89.71875 31.03125 L 91.765625 31.03125 C 92.816406 31.03125 93.71875 31.382812 94.46875 32.09375 C 95.21875 32.800781 95.59375 33.644531 95.59375 34.625 C 95.59375 35.21875 95.445312 35.738281 95.15625 36.1875 C 94.863281 36.644531 94.503906 36.992188 94.078125 37.234375 L 100.625 37.234375 C 100.789062 37.234375 100.925781 37.3125 101.03125 37.46875 C 101.144531 37.632812 101.203125 37.835938 101.203125 38.078125 C 101.203125 38.316406 101.144531 38.515625 101.03125 38.671875 C 100.925781 38.828125 100.789062 38.90625 100.625 38.90625 L 86.59375 38.90625 C 86.4375 38.90625 86.296875 38.820312 86.171875 38.65625 C 86.054688 38.5 86 38.304688 86 38.078125 C 86 37.878906 86.054688 37.703125 86.171875 37.546875 C 86.296875 37.390625 86.4375 37.3125 86.59375 37.3125 L 87.40625 37.3125 C 86.976562 37.09375 86.609375 36.726562 86.296875 36.21875 C 85.996094 35.707031 85.84375 35.15625 85.84375 34.5625 C 85.84375 33.625 86.234375 32.800781 87.015625 32.09375 C 87.804688 31.382812 88.707031 31.03125 89.71875 31.03125 Z M 89.71875 32.703125 C 89.101562 32.703125 88.550781 32.925781 88.0625 33.375 C 87.582031 33.832031 87.34375 34.359375 87.34375 34.953125 C 87.34375 35.546875 87.566406 36.070312 88.015625 36.53125 C 88.460938 37 88.851562 37.234375 89.1875 37.234375 L 91.765625 37.234375 C 92.453125 37.234375 93.007812 37.003906 93.4375 36.546875 C 93.875 36.097656 94.09375 35.578125 94.09375 34.984375 C 94.09375 34.367188 93.851562 33.832031 93.375 33.375 C 92.894531 32.925781 92.359375 32.703125 91.765625 32.703125 Z M 86.59375 41.523438 L 100.015625 41.523438 C 100.203125 41.523438 100.347656 41.59375 100.453125 41.742188 C 100.566406 41.898438 100.625 42.078125 100.625 42.289062 L 100.625 49.398438 C 100.625 49.585938 100.550781 49.726562 100.40625 49.820312 C 100.257812 49.921875 100.082031 49.976562 99.875 49.976562 C 99.664062 49.976562 99.484375 49.921875 99.328125 49.820312 C 99.171875 49.714844 99.09375 49.574219 99.09375 49.398438 L 99.09375 43.195312 L 94.015625 43.195312 L 94.015625 46.320312 C 94.015625 46.496094 93.941406 46.636719 93.796875 46.742188 C 93.660156 46.84375 93.492188 46.898438 93.296875 46.898438 C 93.128906 46.898438 92.972656 46.84375 92.828125 46.742188 C 92.691406 46.648438 92.625 46.507812 92.625 46.320312 L 92.625 43.195312 L 87.515625 43.195312 L 87.515625 49.398438 C 87.515625 49.574219 87.4375 49.714844 87.28125 49.820312 C 87.132812 49.921875 86.953125 49.976562 86.734375 49.976562 C 86.535156 49.976562 86.363281 49.921875 86.21875 49.820312 C 86.070312 49.726562 86 49.585938 86 49.398438 L 86 42.289062 C 86 42.078125 86.050781 41.898438 86.15625 41.742188 C 86.257812 41.59375 86.40625 41.523438 86.59375 41.523438 Z M 94.796875 50.613281 C 94.984375 50.613281 95.148438 50.726562 95.296875 50.957031 C 95.441406 51.195312 95.515625 51.433594 95.515625 51.675781 C 95.515625 51.957031 95.410156 52.136719 95.203125 52.222656 L 88.40625 54.753906 L 95.125 57.253906 C 95.382812 57.367188 95.515625 57.550781 95.515625 57.800781 C 95.515625 58.007812 95.441406 58.238281 95.296875 58.488281 C 95.148438 58.746094 94.984375 58.878906 94.796875 58.878906 C 94.691406 58.878906 94.585938 58.851562 94.484375 58.800781 L 86.1875 55.519531 C 85.9375 55.414062 85.8125 55.160156 85.8125 54.753906 C 85.8125 54.347656 85.9375 54.085938 86.1875 53.972656 L 94.484375 50.691406 C 94.640625 50.636719 94.742188 50.613281 94.796875 50.613281 Z M 89.71875 59.933594 L 91.8125 59.933594 C 92.84375 59.933594 93.726562 60.324219 94.46875 61.105469 C 95.21875 61.886719 95.59375 62.824219 95.59375 63.917969 C 95.59375 64.957031 95.242188 65.859375 94.546875 66.621094 C 93.847656 67.378906 92.972656 67.761719 91.921875 67.761719 C 91.535156 67.761719 91.222656 67.714844 90.984375 67.621094 C 90.753906 67.527344 90.585938 67.378906 90.484375 67.183594 C 90.390625 66.996094 90.328125 66.816406 90.296875 66.652344 C 90.273438 66.484375 90.265625 66.261719 90.265625 65.980469 L 90.265625 61.605469 L 89.65625 61.605469 C 88.925781 61.605469 88.335938 61.863281 87.890625 62.386719 C 87.453125 62.917969 87.234375 63.597656 87.234375 64.433594 C 87.234375 64.878906 87.300781 65.265625 87.4375 65.589844 C 87.570312 65.910156 87.703125 66.171875 87.828125 66.371094 C 87.953125 66.578125 88.015625 66.738281 88.015625 66.855469 C 88.015625 67.042969 87.929688 67.203125 87.765625 67.339844 C 87.597656 67.472656 87.429688 67.542969 87.265625 67.542969 C 86.953125 67.542969 86.632812 67.234375 86.3125 66.621094 C 86 66.015625 85.84375 65.269531 85.84375 64.386719 C 85.84375 63.074219 86.195312 62 86.90625 61.167969 C 87.625 60.34375 88.5625 59.933594 89.71875 59.933594 Z M 91.375 61.605469 L 91.375 65.308594 C 91.375 65.652344 91.414062 65.878906 91.5 65.996094 C 91.59375 66.121094 91.765625 66.183594 92.015625 66.183594 C 92.617188 66.183594 93.144531 65.957031 93.59375 65.511719 C 94.050781 65.074219 94.28125 64.535156 94.28125 63.902344 C 94.28125 63.277344 94.066406 62.734375 93.640625 62.277344 C 93.222656 61.828125 92.707031 61.605469 92.09375 61.605469 Z M 86.59375 69.609375 L 94.90625 69.609375 C 95.070312 69.609375 95.207031 69.679688 95.3125 69.828125 C 95.425781 69.984375 95.484375 70.179688 95.484375 70.421875 C 95.484375 70.628906 95.425781 70.804688 95.3125 70.953125 C 95.207031 71.109375 95.070312 71.1875 94.90625 71.1875 L 93.953125 71.1875 C 94.410156 71.425781 94.796875 71.773438 95.109375 72.234375 C 95.429688 72.703125 95.59375 73.222656 95.59375 73.796875 L 95.59375 74.484375 C 95.59375 74.648438 95.515625 74.796875 95.359375 74.921875 C 95.210938 75.054688 95.039062 75.125 94.84375 75.125 C 94.644531 75.125 94.46875 75.054688 94.3125 74.921875 C 94.164062 74.796875 94.09375 74.648438 94.09375 74.484375 L 94.09375 73.796875 C 94.09375 73.117188 93.816406 72.523438 93.265625 72.015625 C 92.722656 71.515625 92.019531 71.265625 91.15625 71.265625 L 86.59375 71.265625 C 86.445312 71.265625 86.3125 71.179688 86.1875 71.015625 C 86.0625 70.847656 86 70.648438 86 70.421875 C 86 70.191406 86.054688 70 86.171875 69.84375 C 86.296875 69.6875 86.4375 69.609375 86.59375 69.609375 Z M 94.796875 75.535156 C 95.015625 75.535156 95.203125 75.652344 95.359375 75.894531 C 95.515625 76.132812 95.59375 76.371094 95.59375 76.613281 C 95.59375 76.894531 95.484375 77.074219 95.265625 77.160156 L 88.296875 79.800781 L 95.265625 82.175781 C 95.484375 82.269531 95.59375 82.445312 95.59375 82.707031 C 95.59375 82.925781 95.515625 83.160156 95.359375 83.410156 C 95.203125 83.660156 95.007812 83.785156 94.78125 83.785156 C 94.71875 83.785156 94.648438 83.761719 94.578125 83.722656 L 86.4375 80.675781 L 85.4375 80.300781 C 85.25 80.238281 84.933594 80.101562 84.484375 79.894531 C 84.027344 79.695312 83.699219 79.527344 83.5 79.394531 C 83.304688 79.269531 83.042969 79.085938 82.71875 78.847656 C 82.386719 78.605469 82.148438 78.371094 82 78.144531 C 81.855469 77.914062 81.726562 77.644531 81.609375 77.332031 C 81.484375 77.019531 81.421875 76.691406 81.421875 76.347656 C 81.421875 75.824219 81.667969 75.566406 82.15625 75.566406 C 82.636719 75.566406 82.875 75.722656 82.875 76.035156 C 82.875 76.636719 83.214844 77.222656 83.890625 77.785156 C 84.570312 78.355469 85.433594 78.742188 86.484375 78.941406 L 94.578125 75.613281 C 94.660156 75.558594 94.734375 75.535156 94.796875 75.535156 Z M 86.15625 89.335938 L 100.78125 89.335938 C 100.957031 89.335938 101.097656 89.414062 101.203125 89.570312 C 101.304688 89.726562 101.359375 89.902344 101.359375 90.101562 L 101.359375 93.382812 C 101.359375 93.546875 101.285156 93.683594 101.140625 93.789062 C 100.992188 93.902344 100.820312 93.960938 100.625 93.960938 C 100.40625 93.960938 100.222656 93.902344 100.078125 93.789062 C 99.929688 93.683594 99.859375 93.546875 99.859375 93.382812 L 99.859375 91.023438 L 87.078125 91.023438 L 87.078125 93.382812 C 87.078125 93.546875 87.003906 93.683594 86.859375 93.789062 C 86.710938 93.902344 86.53125 93.960938 86.3125 93.960938 C 86.113281 93.960938 85.945312 93.902344 85.796875 93.789062 C 85.652344 93.683594 85.578125 93.546875 85.578125 93.382812 L 85.578125 90.101562 C 85.578125 89.902344 85.636719 89.726562 85.75 89.570312 C 85.855469 89.414062 85.992188 89.335938 86.15625 89.335938 Z M 89.28125 94.835938 C 89.582031 94.835938 89.785156 94.890625 89.890625 95.007812 C 90.003906 95.121094 90.0625 95.324219 90.0625 95.617188 C 90.0625 95.9375 90.003906 96.164062 89.890625 96.289062 C 89.785156 96.414062 89.625 96.476562 89.40625 96.476562 C 88.894531 96.476562 88.429688 96.6875 88.015625 97.117188 C 87.609375 97.554688 87.40625 98.214844 87.40625 99.101562 C 87.40625 100.882812 88.320312 101.773438 90.15625 101.773438 L 90.546875 101.773438 C 92.171875 101.773438 92.984375 100.882812 92.984375 99.101562 C 92.984375 98.714844 93.210938 98.523438 93.671875 98.523438 C 94.140625 98.523438 94.375 98.714844 94.375 99.101562 C 94.375 99.871094 94.546875 100.449219 94.890625 100.835938 C 95.242188 101.21875 95.875 101.414062 96.78125 101.414062 C 98.34375 101.414062 99.125 100.667969 99.125 99.179688 C 99.125 98.324219 98.929688 97.71875 98.546875 97.367188 C 98.171875 97.011719 97.722656 96.835938 97.203125 96.835938 C 96.703125 96.835938 96.453125 96.570312 96.453125 96.039062 C 96.453125 95.683594 96.507812 95.449219 96.625 95.335938 C 96.75 95.21875 96.976562 95.164062 97.3125 95.164062 C 97.644531 95.164062 97.988281 95.226562 98.34375 95.351562 C 98.695312 95.476562 99.050781 95.679688 99.40625 95.960938 C 99.757812 96.242188 100.050781 96.664062 100.28125 97.226562 C 100.507812 97.796875 100.625 98.464844 100.625 99.226562 C 100.625 101.765625 99.441406 103.039062 97.078125 103.039062 C 96.234375 103.039062 95.519531 102.890625 94.9375 102.601562 C 94.351562 102.308594 93.945312 101.914062 93.71875 101.414062 C 93.175781 102.777344 92.117188 103.460938 90.546875 103.460938 L 90.15625 103.460938 C 88.6875 103.460938 87.601562 103.058594 86.90625 102.257812 C 86.21875 101.453125 85.875 100.402344 85.875 99.101562 C 85.875 97.726562 86.222656 96.667969 86.921875 95.929688 C 87.628906 95.199219 88.414062 94.835938 89.28125 94.835938 Z M 86.921875 104.980469 C 87.210938 104.980469 87.460938 105.074219 87.671875 105.261719 C 87.878906 105.457031 87.984375 105.703125 87.984375 105.996094 C 87.984375 106.277344 87.878906 106.519531 87.671875 106.730469 C 87.472656 106.9375 87.222656 107.042969 86.921875 107.042969 C 86.679688 107.042969 85.875 106.753906 84.5 106.183594 C 84.3125 106.097656 84.21875 105.953125 84.21875 105.746094 C 84.21875 105.597656 84.265625 105.464844 84.359375 105.339844 C 84.445312 105.222656 84.558594 105.167969 84.703125 105.167969 C 84.796875 105.167969 84.871094 105.175781 84.921875 105.199219 L 85.953125 105.621094 C 86.128906 105.191406 86.453125 104.980469 86.921875 104.980469 Z M 89.34375 108.28125 C 89.875 108.28125 90.140625 108.5625 90.140625 109.125 C 90.140625 109.6875 89.910156 109.96875 89.453125 109.96875 C 88.816406 109.96875 88.316406 110.210938 87.953125 110.703125 C 87.585938 111.191406 87.40625 111.816406 87.40625 112.578125 C 87.40625 113.421875 87.632812 114.070312 88.09375 114.53125 C 88.5625 114.988281 89.265625 115.21875 90.203125 115.21875 L 90.578125 115.21875 C 91.484375 115.21875 92.164062 114.988281 92.625 114.53125 C 93.082031 114.070312 93.3125 113.425781 93.3125 112.59375 L 93.3125 109.765625 C 93.3125 109.242188 93.535156 108.984375 93.984375 108.984375 C 94.117188 108.984375 94.265625 108.992188 94.421875 109.015625 L 100.015625 109.4375 C 100.421875 109.46875 100.625 109.613281 100.625 109.875 L 100.625 115.640625 C 100.625 115.816406 100.546875 115.953125 100.390625 116.046875 C 100.234375 116.140625 100.054688 116.1875 99.859375 116.1875 C 99.660156 116.1875 99.484375 116.140625 99.328125 116.046875 C 99.171875 115.953125 99.09375 115.816406 99.09375 115.640625 L 99.09375 110.90625 L 94.71875 110.59375 L 94.71875 112.59375 C 94.71875 113.90625 94.382812 114.953125 93.71875 115.734375 C 93.050781 116.515625 92.003906 116.90625 90.578125 116.90625 L 90.203125 116.90625 C 88.722656 116.90625 87.628906 116.507812 86.921875 115.71875 C 86.222656 114.9375 85.875 113.894531 85.875 112.59375 C 85.875 111.257812 86.210938 110.207031 86.890625 109.4375 C 87.566406 108.664062 88.382812 108.28125 89.34375 108.28125 Z M 86.3125 117.839844 C 86.53125 117.839844 86.710938 117.890625 86.859375 117.996094 C 87.003906 118.109375 87.078125 118.25 87.078125 118.417969 L 87.078125 120.777344 L 99.859375 120.777344 L 99.859375 118.417969 C 99.859375 118.25 99.929688 118.109375 100.078125 117.996094 C 100.222656 117.890625 100.40625 117.839844 100.625 117.839844 C 100.820312 117.839844 100.992188 117.890625 101.140625 117.996094 C 101.285156 118.109375 101.359375 118.25 101.359375 118.417969 L 101.359375 121.699219 C 101.359375 121.894531 101.304688 122.074219 101.203125 122.230469 C 101.097656 122.386719 100.957031 122.464844 100.78125 122.464844 L 86.15625 122.464844 C 85.992188 122.464844 85.855469 122.386719 85.75 122.230469 C 85.636719 122.074219 85.578125 121.894531 85.578125 121.699219 L 85.578125 118.417969 C 85.578125 118.25 85.652344 118.109375 85.796875 117.996094 C 85.945312 117.890625 86.113281 117.839844 86.3125 117.839844 Z M 89.09375 128.902344 L 97.578125 128.902344 C 98.628906 128.902344 99.519531 129.285156 100.25 130.058594 C 100.988281 130.828125 101.359375 131.734375 101.359375 132.777344 C 101.359375 133.328125 101.113281 133.605469 100.625 133.605469 C 100.394531 133.605469 100.207031 133.546875 100.0625 133.433594 C 99.925781 133.328125 99.859375 133.191406 99.859375 133.027344 C 99.859375 132.285156 99.628906 131.691406 99.171875 131.246094 C 98.710938 130.796875 98.179688 130.574219 97.578125 130.574219 L 89.09375 130.574219 C 88.363281 130.574219 87.847656 130.8125 87.546875 131.292969 C 87.242188 131.78125 87.09375 132.359375 87.09375 133.027344 C 87.09375 133.410156 86.84375 133.605469 86.34375 133.605469 C 85.84375 133.605469 85.59375 133.316406 85.59375 132.746094 C 85.59375 131.660156 85.898438 130.75 86.5 130.011719 C 87.113281 129.269531 87.976562 128.902344 89.09375 128.902344 Z M 87.359375 134.554688 C 87.535156 134.554688 87.707031 134.609375 87.875 134.726562 C 88.039062 134.839844 88.125 134.980469 88.125 135.148438 C 88.125 135.25 88.039062 135.402344 87.875 135.601562 C 87.71875 135.796875 87.5625 136.085938 87.40625 136.460938 C 87.257812 136.835938 87.1875 137.273438 87.1875 137.773438 C 87.1875 138.4375 87.304688 138.921875 87.546875 139.226562 C 87.785156 139.527344 88.082031 139.679688 88.4375 139.679688 C 88.875 139.679688 89.222656 139.511719 89.484375 139.179688 C 89.742188 138.84375 89.941406 138.4375 90.078125 137.960938 C 90.210938 137.480469 90.359375 137 90.515625 136.523438 C 90.679688 136.042969 90.945312 135.636719 91.3125 135.304688 C 91.6875 134.96875 92.179688 134.804688 92.796875 134.804688 C 93.554688 134.804688 94.210938 135.070312 94.765625 135.601562 C 95.316406 136.140625 95.59375 136.96875 95.59375 138.085938 C 95.59375 138.792969 95.484375 139.4375 95.265625 140.023438 C 95.046875 140.605469 94.796875 140.898438 94.515625 140.898438 C 94.359375 140.898438 94.179688 140.835938 93.984375 140.710938 C 93.785156 140.585938 93.6875 140.429688 93.6875 140.242188 C 93.6875 140.1875 93.78125 139.929688 93.96875 139.460938 C 94.164062 139 94.265625 138.546875 94.265625 138.101562 C 94.265625 137.484375 94.117188 137.027344 93.828125 136.726562 C 93.546875 136.421875 93.222656 136.273438 92.859375 136.273438 C 92.484375 136.273438 92.1875 136.4375 91.96875 136.773438 C 91.757812 137.105469 91.59375 137.515625 91.46875 138.007812 C 91.351562 138.496094 91.207031 138.980469 91.03125 139.460938 C 90.863281 139.9375 90.566406 140.34375 90.140625 140.679688 C 89.722656 141.011719 89.179688 141.179688 88.515625 141.179688 C 87.691406 141.179688 87.039062 140.882812 86.5625 140.289062 C 86.082031 139.703125 85.84375 138.886719 85.84375 137.835938 C 85.84375 136.929688 86.003906 136.152344 86.328125 135.507812 C 86.648438 134.871094 86.992188 134.554688 87.359375 134.554688 Z M 86.59375 143.160156 L 100.625 143.160156 C 100.789062 143.160156 100.925781 143.230469 101.03125 143.378906 C 101.144531 143.535156 101.203125 143.730469 101.203125 143.972656 C 101.203125 144.222656 101.144531 144.425781 101.03125 144.582031 C 100.925781 144.738281 100.789062 144.816406 100.625 144.816406 L 86.59375 144.816406 C 86.445312 144.816406 86.3125 144.730469 86.1875 144.566406 C 86.0625 144.398438 86 144.199219 86 143.972656 C 86 143.753906 86.054688 143.558594 86.171875 143.394531 C 86.296875 143.238281 86.4375 143.160156 86.59375 143.160156 Z M 89.71875 146.992188 L 91.765625 146.992188 C 92.785156 146.992188 93.675781 147.382812 94.4375 148.164062 C 95.207031 148.945312 95.59375 149.867188 95.59375 150.929688 C 95.59375 152 95.210938 152.929688 94.453125 153.710938 C 93.691406 154.5 92.796875 154.898438 91.765625 154.898438 L 89.71875 154.898438 C 88.707031 154.898438 87.804688 154.5 87.015625 153.710938 C 86.234375 152.917969 85.84375 151.996094 85.84375 150.945312 C 85.84375 149.890625 86.234375 148.96875 87.015625 148.179688 C 87.796875 147.386719 88.695312 146.992188 89.71875 146.992188 Z M 89.71875 148.664062 C 89.09375 148.664062 88.539062 148.886719 88.0625 149.335938 C 87.582031 149.792969 87.34375 150.328125 87.34375 150.945312 C 87.34375 151.570312 87.582031 152.105469 88.0625 152.554688 C 88.550781 153.011719 89.101562 153.242188 89.71875 153.242188 L 91.765625 153.242188 C 92.359375 153.242188 92.894531 153.011719 93.375 152.554688 C 93.851562 152.105469 94.09375 151.5625 94.09375 150.929688 C 94.09375 150.304688 93.851562 149.765625 93.375 149.320312 C 92.894531 148.882812 92.359375 148.664062 91.765625 148.664062 Z M 94.796875 156 C 94.992188 156 95.160156 156.109375 95.296875 156.328125 C 95.441406 156.546875 95.515625 156.773438 95.515625 157.015625 C 95.515625 157.296875 95.410156 157.476562 95.203125 157.5625 L 88.484375 159.984375 L 94.546875 161.859375 C 94.804688 161.953125 94.9375 162.160156 94.9375 162.484375 C 94.9375 162.816406 94.804688 163.03125 94.546875 163.125 L 88.421875 164.953125 L 95.203125 167.40625 C 95.410156 167.46875 95.515625 167.640625 95.515625 167.921875 C 95.515625 168.160156 95.441406 168.390625 95.296875 168.609375 C 95.160156 168.835938 94.992188 168.953125 94.796875 168.953125 C 94.691406 168.953125 94.585938 168.925781 94.484375 168.875 L 86.1875 165.765625 C 85.9375 165.671875 85.8125 165.445312 85.8125 165.09375 C 85.8125 164.738281 85.9375 164.515625 86.1875 164.421875 L 92.0625 162.484375 L 86.234375 160.578125 C 85.953125 160.484375 85.8125 160.242188 85.8125 159.859375 C 85.8125 159.515625 85.953125 159.285156 86.234375 159.171875 L 94.484375 156.078125 C 94.640625 156.023438 94.742188 156 94.796875 156 Z M 86.59375 173.859375 L 88.546875 173.859375 C 89.140625 173.859375 89.726562 174.085938 90.3125 174.546875 C 90.894531 175.003906 91.414062 175.5625 91.875 176.21875 L 93.3125 178.15625 C 93.78125 178.8125 94.304688 179.367188 94.890625 179.828125 C 95.472656 180.285156 96.0625 180.515625 96.65625 180.515625 C 97.300781 180.515625 97.863281 180.304688 98.34375 179.890625 C 98.820312 179.472656 99.0625 178.867188 99.0625 178.078125 C 99.0625 177.410156 98.875 176.863281 98.5 176.4375 C 98.125 176.019531 97.582031 175.8125 96.875 175.8125 C 96.707031 175.8125 96.554688 175.734375 96.421875 175.578125 C 96.285156 175.421875 96.21875 175.207031 96.21875 174.9375 C 96.21875 174.425781 96.546875 174.171875 97.203125 174.171875 C 98.203125 174.171875 99.019531 174.546875 99.65625 175.296875 C 100.300781 176.054688 100.625 176.984375 100.625 178.078125 C 100.625 179.253906 100.253906 180.234375 99.515625 181.015625 C 98.773438 181.804688 97.84375 182.203125 96.71875 182.203125 C 96.050781 182.203125 95.410156 182.035156 94.796875 181.703125 C 94.179688 181.378906 93.660156 180.972656 93.234375 180.484375 C 92.804688 180.003906 92.378906 179.476562 91.953125 178.90625 L 90.8125 177.296875 C 90.476562 176.816406 90.113281 176.410156 89.71875 176.078125 C 89.320312 175.753906 88.929688 175.59375 88.546875 175.59375 L 87.515625 175.59375 L 87.515625 181.734375 C 87.515625 181.898438 87.441406 182.035156 87.296875 182.140625 C 87.148438 182.253906 86.972656 182.3125 86.765625 182.3125 C 86.554688 182.3125 86.375 182.253906 86.21875 182.140625 C 86.070312 182.035156 86 181.898438 86 181.734375 L 86 174.625 C 86 174.445312 86.054688 174.273438 86.171875 174.109375 C 86.285156 173.941406 86.425781 173.859375 86.59375 173.859375 Z M 86.34375 183.257812 C 86.84375 183.257812 87.09375 183.449219 87.09375 183.835938 C 87.09375 184.5 87.242188 185.074219 87.546875 185.554688 C 87.847656 186.03125 88.363281 186.273438 89.09375 186.273438 L 97.578125 186.273438 C 98.179688 186.273438 98.710938 186.046875 99.171875 185.601562 C 99.628906 185.164062 99.859375 184.574219 99.859375 183.835938 C 99.859375 183.667969 99.925781 183.527344 100.0625 183.414062 C 100.207031 183.308594 100.394531 183.257812 100.625 183.257812 C 101.113281 183.257812 101.359375 183.53125 101.359375 184.085938 C 101.359375 185.117188 100.988281 186.015625 100.25 186.789062 C 99.519531 187.570312 98.628906 187.960938 97.578125 187.960938 L 89.09375 187.960938 C 87.976562 187.960938 87.113281 187.589844 86.5 186.851562 C 85.898438 186.109375 85.59375 185.195312 85.59375 184.101562 C 85.59375 183.539062 85.84375 183.257812 86.34375 183.257812 Z M 88.296875 193.804688 C 88.515625 193.804688 88.722656 193.875 88.921875 194.023438 C 89.117188 194.179688 89.21875 194.351562 89.21875 194.539062 C 89.21875 194.640625 89.132812 194.789062 88.96875 194.976562 C 88.8125 195.164062 88.632812 195.351562 88.4375 195.539062 C 88.25 195.734375 88.070312 196.042969 87.90625 196.460938 C 87.738281 196.875 87.644531 197.34375 87.625 197.867188 L 92.9375 197.867188 L 93.34375 196.789062 C 93.4375 196.527344 93.59375 196.199219 93.8125 195.804688 C 94.039062 195.417969 94.269531 195.125 94.5 194.929688 C 94.738281 194.742188 95.054688 194.5625 95.453125 194.398438 C 95.847656 194.242188 96.289062 194.164062 96.78125 194.164062 C 97.382812 194.164062 97.914062 194.265625 98.375 194.476562 C 98.832031 194.695312 99.191406 194.984375 99.453125 195.351562 C 99.722656 195.714844 99.925781 196.105469 100.0625 196.523438 C 100.207031 196.9375 100.300781 197.386719 100.34375 197.867188 L 100.9375 197.867188 C 101.039062 197.867188 101.132812 197.914062 101.21875 198.007812 C 101.3125 198.109375 101.359375 198.234375 101.359375 198.382812 C 101.359375 198.515625 101.3125 198.636719 101.21875 198.742188 C 101.132812 198.84375 101.039062 198.898438 100.9375 198.898438 L 100.375 198.898438 C 100.332031 199.699219 100.195312 200.421875 99.96875 201.070312 C 99.738281 201.726562 99.4375 202.054688 99.0625 202.054688 C 98.875 202.054688 98.671875 201.984375 98.453125 201.851562 C 98.242188 201.726562 98.140625 201.554688 98.140625 201.335938 C 98.140625 201.273438 98.253906 200.992188 98.484375 200.492188 C 98.722656 200 98.851562 199.46875 98.875 198.898438 L 94.3125 198.898438 C 94.132812 199.417969 93.953125 199.84375 93.765625 200.179688 C 93.585938 200.523438 93.34375 200.882812 93.03125 201.257812 C 92.71875 201.640625 92.316406 201.929688 91.828125 202.117188 C 91.335938 202.3125 90.769531 202.414062 90.125 202.414062 C 88.945312 202.414062 88.015625 202.09375 87.328125 201.460938 C 86.648438 200.835938 86.238281 199.980469 86.09375 198.898438 L 85.375 198.898438 C 85.273438 198.898438 85.179688 198.84375 85.09375 198.742188 C 85 198.636719 84.953125 198.515625 84.953125 198.382812 C 84.953125 198.234375 85 198.109375 85.09375 198.007812 C 85.179688 197.914062 85.273438 197.867188 85.375 197.867188 L 86.046875 197.867188 C 86.054688 196.71875 86.3125 195.757812 86.8125 194.976562 C 87.320312 194.195312 87.816406 193.804688 88.296875 193.804688 Z M 96.9375 195.757812 C 96.3125 195.757812 95.84375 195.933594 95.53125 196.289062 C 95.21875 196.652344 94.925781 197.203125 94.65625 197.945312 L 98.859375 197.945312 C 98.710938 196.484375 98.070312 195.757812 96.9375 195.757812 Z M 87.65625 198.820312 C 87.875 200.152344 88.640625 200.820312 89.953125 200.820312 C 90.648438 200.820312 91.191406 200.648438 91.578125 200.304688 C 91.960938 199.960938 92.289062 199.464844 92.5625 198.820312 Z M 89.71875 208.03125 L 91.765625 208.03125 C 92.816406 208.03125 93.71875 208.382812 94.46875 209.09375 C 95.21875 209.800781 95.59375 210.644531 95.59375 211.625 C 95.59375 212.21875 95.445312 212.738281 95.15625 213.1875 C 94.863281 213.644531 94.503906 213.992188 94.078125 214.234375 L 100.625 214.234375 C 100.789062 214.234375 100.925781 214.3125 101.03125 214.46875 C 101.144531 214.632812 101.203125 214.835938 101.203125 215.078125 C 101.203125 215.316406 101.144531 215.515625 101.03125 215.671875 C 100.925781 215.828125 100.789062 215.90625 100.625 215.90625 L 86.59375 215.90625 C 86.4375 215.90625 86.296875 215.820312 86.171875 215.65625 C 86.054688 215.5 86 215.304688 86 215.078125 C 86 214.878906 86.054688 214.703125 86.171875 214.546875 C 86.296875 214.390625 86.4375 214.3125 86.59375 214.3125 L 87.40625 214.3125 C 86.976562 214.09375 86.609375 213.726562 86.296875 213.21875 C 85.996094 212.707031 85.84375 212.15625 85.84375 211.5625 C 85.84375 210.625 86.234375 209.800781 87.015625 209.09375 C 87.804688 208.382812 88.707031 208.03125 89.71875 208.03125 Z M 89.71875 209.703125 C 89.101562 209.703125 88.550781 209.925781 88.0625 210.375 C 87.582031 210.832031 87.34375 211.359375 87.34375 211.953125 C 87.34375 212.546875 87.566406 213.070312 88.015625 213.53125 C 88.460938 214 88.851562 214.234375 89.1875 214.234375 L 91.765625 214.234375 C 92.453125 214.234375 93.007812 214.003906 93.4375 213.546875 C 93.875 213.097656 94.09375 212.578125 94.09375 211.984375 C 94.09375 211.367188 93.851562 210.832031 93.375 210.375 C 92.894531 209.925781 92.359375 209.703125 91.765625 209.703125 Z M 89.71875 217.914062 L 91.8125 217.914062 C 92.84375 217.914062 93.726562 218.304688 94.46875 219.085938 C 95.21875 219.867188 95.59375 220.804688 95.59375 221.898438 C 95.59375 222.9375 95.242188 223.839844 94.546875 224.601562 C 93.847656 225.359375 92.972656 225.742188 91.921875 225.742188 C 91.535156 225.742188 91.222656 225.695312 90.984375 225.601562 C 90.753906 225.507812 90.585938 225.359375 90.484375 225.164062 C 90.390625 224.976562 90.328125 224.796875 90.296875 224.632812 C 90.273438 224.464844 90.265625 224.242188 90.265625 223.960938 L 90.265625 219.585938 L 89.65625 219.585938 C 88.925781 219.585938 88.335938 219.84375 87.890625 220.367188 C 87.453125 220.898438 87.234375 221.578125 87.234375 222.414062 C 87.234375 222.859375 87.300781 223.246094 87.4375 223.570312 C 87.570312 223.890625 87.703125 224.152344 87.828125 224.351562 C 87.953125 224.558594 88.015625 224.71875 88.015625 224.835938 C 88.015625 225.023438 87.929688 225.183594 87.765625 225.320312 C 87.597656 225.453125 87.429688 225.523438 87.265625 225.523438 C 86.953125 225.523438 86.632812 225.214844 86.3125 224.601562 C 86 223.996094 85.84375 223.25 85.84375 222.367188 C 85.84375 221.054688 86.195312 219.980469 86.90625 219.148438 C 87.625 218.324219 88.5625 217.914062 89.71875 217.914062 Z M 91.375 219.585938 L 91.375 223.289062 C 91.375 223.632812 91.414062 223.859375 91.5 223.976562 C 91.59375 224.101562 91.765625 224.164062 92.015625 224.164062 C 92.617188 224.164062 93.144531 223.9375 93.59375 223.492188 C 94.050781 223.054688 94.28125 222.515625 94.28125 221.882812 C 94.28125 221.257812 94.066406 220.714844 93.640625 220.257812 C 93.222656 219.808594 92.707031 219.585938 92.09375 219.585938 Z M 86.59375 227.585938 L 94.90625 227.585938 C 95.070312 227.585938 95.207031 227.65625 95.3125 227.804688 C 95.425781 227.960938 95.484375 228.15625 95.484375 228.398438 C 95.484375 228.59375 95.425781 228.773438 95.3125 228.929688 C 95.195312 229.085938 95.0625 229.164062 94.90625 229.164062 L 94.078125 229.164062 C 94.503906 229.371094 94.863281 229.710938 95.15625 230.179688 C 95.445312 230.65625 95.59375 231.210938 95.59375 231.835938 C 95.59375 232.78125 95.21875 233.605469 94.46875 234.304688 C 93.71875 235 92.816406 235.351562 91.765625 235.351562 L 86.59375 235.351562 C 86.40625 235.351562 86.257812 235.265625 86.15625 235.101562 C 86.050781 234.933594 86 234.742188 86 234.523438 C 86 234.304688 86.050781 234.109375 86.15625 233.945312 C 86.257812 233.777344 86.40625 233.695312 86.59375 233.695312 L 91.765625 233.695312 C 92.359375 233.695312 92.894531 233.464844 93.375 233.007812 C 93.851562 232.558594 94.09375 232.027344 94.09375 231.414062 C 94.09375 230.839844 93.875 230.335938 93.4375 229.898438 C 93.007812 229.460938 92.453125 229.242188 91.765625 229.242188 L 86.59375 229.242188 C 86.445312 229.242188 86.3125 229.152344 86.1875 228.976562 C 86.0625 228.796875 86 228.605469 86 228.398438 C 86 228.167969 86.054688 227.976562 86.171875 227.820312 C 86.296875 227.664062 86.4375 227.585938 86.59375 227.585938 Z M 87.359375 237.054688 C 87.535156 237.054688 87.707031 237.109375 87.875 237.226562 C 88.039062 237.339844 88.125 237.480469 88.125 237.648438 C 88.125 237.75 88.039062 237.902344 87.875 238.101562 C 87.71875 238.296875 87.5625 238.585938 87.40625 238.960938 C 87.257812 239.335938 87.1875 239.773438 87.1875 240.273438 C 87.1875 240.9375 87.304688 241.421875 87.546875 241.726562 C 87.785156 242.027344 88.082031 242.179688 88.4375 242.179688 C 88.875 242.179688 89.222656 242.011719 89.484375 241.679688 C 89.742188 241.34375 89.941406 240.9375 90.078125 240.460938 C 90.210938 239.980469 90.359375 239.5 90.515625 239.023438 C 90.679688 238.542969 90.945312 238.136719 91.3125 237.804688 C 91.6875 237.46875 92.179688 237.304688 92.796875 237.304688 C 93.554688 237.304688 94.210938 237.570312 94.765625 238.101562 C 95.316406 238.640625 95.59375 239.46875 95.59375 240.585938 C 95.59375 241.292969 95.484375 241.9375 95.265625 242.523438 C 95.046875 243.105469 94.796875 243.398438 94.515625 243.398438 C 94.359375 243.398438 94.179688 243.335938 93.984375 243.210938 C 93.785156 243.085938 93.6875 242.929688 93.6875 242.742188 C 93.6875 242.6875 93.78125 242.429688 93.96875 241.960938 C 94.164062 241.5 94.265625 241.046875 94.265625 240.601562 C 94.265625 239.984375 94.117188 239.527344 93.828125 239.226562 C 93.546875 238.921875 93.222656 238.773438 92.859375 238.773438 C 92.484375 238.773438 92.1875 238.9375 91.96875 239.273438 C 91.757812 239.605469 91.59375 240.015625 91.46875 240.507812 C 91.351562 240.996094 91.207031 241.480469 91.03125 241.960938 C 90.863281 242.4375 90.566406 242.84375 90.140625 243.179688 C 89.722656 243.511719 89.179688 243.679688 88.515625 243.679688 C 87.691406 243.679688 87.039062 243.382812 86.5625 242.789062 C 86.082031 242.203125 85.84375 241.386719 85.84375 240.335938 C 85.84375 239.429688 86.003906 238.652344 86.328125 238.007812 C 86.648438 237.371094 86.992188 237.054688 87.359375 237.054688 Z M 98.359375 245.566406 C 98.554688 245.355469 98.78125 245.253906 99.03125 245.253906 C 99.289062 245.253906 99.515625 245.351562 99.703125 245.550781 C 99.890625 245.757812 99.984375 246.007812 99.984375 246.300781 C 99.984375 246.582031 99.890625 246.820312 99.703125 247.019531 C 99.515625 247.214844 99.289062 247.316406 99.03125 247.316406 C 98.78125 247.316406 98.554688 247.214844 98.359375 247.019531 C 98.171875 246.820312 98.078125 246.582031 98.078125 246.300781 C 98.078125 246.019531 98.171875 245.773438 98.359375 245.566406 Z M 86.59375 245.488281 L 94.90625 245.488281 C 95.070312 245.488281 95.207031 245.566406 95.3125 245.722656 C 95.425781 245.878906 95.484375 246.070312 95.484375 246.300781 C 95.484375 246.539062 95.425781 246.738281 95.3125 246.894531 C 95.207031 247.058594 95.070312 247.144531 94.90625 247.144531 L 86.59375 247.144531 C 86.445312 247.144531 86.3125 247.058594 86.1875 246.894531 C 86.0625 246.726562 86 246.527344 86 246.300781 C 86 246.070312 86.054688 245.878906 86.171875 245.722656 C 86.296875 245.566406 86.4375 245.488281 86.59375 245.488281 Z M 89.015625 249.460938 L 99.3125 249.460938 C 99.476562 249.460938 99.617188 249.542969 99.734375 249.710938 C 99.847656 249.886719 99.90625 250.074219 99.90625 250.273438 C 99.90625 250.492188 99.847656 250.683594 99.734375 250.851562 C 99.617188 251.027344 99.476562 251.117188 99.3125 251.117188 L 95.484375 251.117188 L 95.484375 253.632812 C 95.484375 253.789062 95.414062 253.90625 95.28125 253.992188 C 95.144531 254.085938 94.988281 254.132812 94.8125 254.132812 C 94.644531 254.132812 94.5 254.085938 94.375 253.992188 C 94.25 253.90625 94.1875 253.789062 94.1875 253.632812 L 94.1875 251.117188 L 89.015625 251.117188 C 88.441406 251.117188 88.035156 251.242188 87.796875 251.492188 C 87.566406 251.742188 87.453125 252.167969 87.453125 252.773438 L 87.453125 253.398438 C 87.453125 253.625 87.382812 253.804688 87.25 253.929688 C 87.113281 254.054688 86.941406 254.117188 86.734375 254.117188 C 86.535156 254.117188 86.363281 254.046875 86.21875 253.914062 C 86.070312 253.789062 86 253.617188 86 253.398438 L 86 252.773438 C 86 250.5625 87.003906 249.460938 89.015625 249.460938 Z M 94.796875 254.753906 C 95.015625 254.753906 95.203125 254.871094 95.359375 255.113281 C 95.515625 255.351562 95.59375 255.589844 95.59375 255.832031 C 95.59375 256.113281 95.484375 256.292969 95.265625 256.378906 L 88.296875 259.019531 L 95.265625 261.394531 C 95.484375 261.488281 95.59375 261.664062 95.59375 261.925781 C 95.59375 262.144531 95.515625 262.378906 95.359375 262.628906 C 95.203125 262.878906 95.007812 263.003906 94.78125 263.003906 C 94.71875 263.003906 94.648438 262.980469 94.578125 262.941406 L 86.4375 259.894531 L 85.4375 259.519531 C 85.25 259.457031 84.933594 259.320312 84.484375 259.113281 C 84.027344 258.914062 83.699219 258.746094 83.5 258.613281 C 83.304688 258.488281 83.042969 258.304688 82.71875 258.066406 C 82.386719 257.824219 82.148438 257.589844 82 257.363281 C 81.855469 257.132812 81.726562 256.863281 81.609375 256.550781 C 81.484375 256.238281 81.421875 255.910156 81.421875 255.566406 C 81.421875 255.042969 81.667969 254.785156 82.15625 254.785156 C 82.636719 254.785156 82.875 254.941406 82.875 255.253906 C 82.875 255.855469 83.214844 256.441406 83.890625 257.003906 C 84.570312 257.574219 85.433594 257.960938 86.484375 258.160156 L 94.578125 254.832031 C 94.660156 254.777344 94.734375 254.753906 94.796875 254.753906 Z M 97.5 267.449219 C 97.78125 267.449219 98.015625 267.566406 98.203125 267.808594 L 100.375 269.636719 C 100.550781 269.8125 100.640625 269.988281 100.640625 270.167969 C 100.640625 270.355469 100.582031 270.519531 100.46875 270.667969 C 100.363281 270.824219 100.222656 270.902344 100.046875 270.902344 L 86.59375 270.902344 C 86.40625 270.902344 86.257812 270.816406 86.15625 270.652344 C 86.050781 270.484375 86 270.285156 86 270.058594 C 86 269.828125 86.050781 269.628906 86.15625 269.464844 C 86.257812 269.296875 86.40625 269.214844 86.59375 269.214844 L 98.125 269.214844 L 97.015625 268.480469 C 96.867188 268.34375 96.796875 268.203125 96.796875 268.058594 C 96.796875 267.890625 96.863281 267.746094 97 267.621094 C 97.144531 267.503906 97.3125 267.449219 97.5 267.449219 Z M 90.234375 273.3125 L 96.265625 273.3125 C 97.765625 273.3125 98.863281 273.707031 99.5625 274.5 C 100.269531 275.300781 100.625 276.367188 100.625 277.703125 C 100.625 279.035156 100.273438 280.070312 99.578125 280.8125 C 98.890625 281.5625 98.078125 281.9375 97.140625 281.9375 C 96.648438 281.9375 96.40625 281.675781 96.40625 281.15625 C 96.40625 280.570312 96.625 280.28125 97.0625 280.28125 C 97.675781 280.28125 98.164062 280.03125 98.53125 279.53125 C 98.90625 279.03125 99.09375 278.40625 99.09375 277.65625 C 99.09375 275.882812 98.148438 275 96.265625 275 L 93.453125 275 C 94.285156 275.632812 94.703125 276.609375 94.703125 277.921875 C 94.703125 280.597656 93.351562 281.9375 90.65625 281.9375 L 90.234375 281.9375 C 88.734375 281.9375 87.628906 281.546875 86.921875 280.765625 C 86.222656 279.984375 85.875 278.9375 85.875 277.625 C 85.875 276.320312 86.222656 275.273438 86.921875 274.484375 C 87.628906 273.703125 88.734375 273.3125 90.234375 273.3125 Z M 90.15625 275 C 88.257812 275 87.3125 275.878906 87.3125 277.640625 C 87.3125 279.390625 88.257812 280.265625 90.15625 280.265625 L 90.578125 280.265625 C 92.390625 280.265625 93.296875 279.390625 93.296875 277.640625 C 93.296875 275.878906 92.453125 275 90.765625 275 Z M 86 286.738281 "/>
<path style=" stroke:none;fill-rule:nonzero;fill:rgb(0%,0%,0%);fill-opacity:1;" d="M 68.296875 10.703125 C 68.515625 10.703125 68.722656 10.773438 68.921875 10.921875 C 69.117188 11.078125 69.21875 11.25 69.21875 11.4375 C 69.21875 11.539062 69.132812 11.6875 68.96875 11.875 C 68.8125 12.0625 68.632812 12.25 68.4375 12.4375 C 68.25 12.632812 68.070312 12.941406 67.90625 13.359375 C 67.738281 13.773438 67.644531 14.242188 67.625 14.765625 L 72.9375 14.765625 L 73.34375 13.6875 C 73.4375 13.425781 73.59375 13.097656 73.8125 12.703125 C 74.039062 12.316406 74.269531 12.023438 74.5 11.828125 C 74.738281 11.640625 75.054688 11.460938 75.453125 11.296875 C 75.847656 11.140625 76.289062 11.0625 76.78125 11.0625 C 77.382812 11.0625 77.914062 11.164062 78.375 11.375 C 78.832031 11.59375 79.191406 11.882812 79.453125 12.25 C 79.722656 12.613281 79.925781 13.003906 80.0625 13.421875 C 80.207031 13.835938 80.300781 14.285156 80.34375 14.765625 L 80.9375 14.765625 C 81.039062 14.765625 81.132812 14.8125 81.21875 14.90625 C 81.3125 15.007812 81.359375 15.132812 81.359375 15.28125 C 81.359375 15.414062 81.3125 15.535156 81.21875 15.640625 C 81.132812 15.742188 81.039062 15.796875 80.9375 15.796875 L 80.375 15.796875 C 80.332031 16.597656 80.195312 17.320312 79.96875 17.96875 C 79.738281 18.625 79.4375 18.953125 79.0625 18.953125 C 78.875 18.953125 78.671875 18.882812 78.453125 18.75 C 78.242188 18.625 78.140625 18.453125 78.140625 18.234375 C 78.140625 18.171875 78.253906 17.890625 78.484375 17.390625 C 78.722656 16.898438 78.851562 16.367188 78.875 15.796875 L 74.3125 15.796875 C 74.132812 16.316406 73.953125 16.742188 73.765625 17.078125 C 73.585938 17.421875 73.34375 17.78125 73.03125 18.15625 C 72.71875 18.539062 72.316406 18.828125 71.828125 19.015625 C 71.335938 19.210938 70.769531 19.3125 70.125 19.3125 C 68.945312 19.3125 68.015625 18.992188 67.328125 18.359375 C 66.648438 17.734375 66.238281 16.878906 66.09375 15.796875 L 65.375 15.796875 C 65.273438 15.796875 65.179688 15.742188 65.09375 15.640625 C 65 15.535156 64.953125 15.414062 64.953125 15.28125 C 64.953125 15.132812 65 15.007812 65.09375 14.90625 C 65.179688 14.8125 65.273438 14.765625 65.375 14.765625 L 66.046875 14.765625 C 66.054688 13.617188 66.3125 12.65625 66.8125 11.875 C 67.320312 11.09375 67.816406 10.703125 68.296875 10.703125 Z M 76.9375 12.65625 C 76.3125 12.65625 75.84375 12.832031 75.53125 13.1875 C 75.21875 13.550781 74.925781 14.101562 74.65625 14.84375 L 78.859375 14.84375 C 78.710938 13.382812 78.070312 12.65625 76.9375 12.65625 Z M 67.65625 15.71875 C 67.875 17.050781 68.640625 17.71875 69.953125 17.71875 C 70.648438 17.71875 71.191406 17.546875 71.578125 17.203125 C 71.960938 16.859375 72.289062 16.363281 72.5625 15.71875 Z M 80.859375 24.824219 C 81.003906 24.824219 81.125 24.894531 81.21875 25.042969 C 81.3125 25.1875 81.359375 25.355469 81.359375 25.542969 C 81.359375 25.730469 81.3125 25.894531 81.21875 26.042969 C 81.125 26.199219 81.003906 26.277344 80.859375 26.277344 L 77.953125 26.074219 C 77.804688 26.074219 77.679688 26.027344 77.578125 25.933594 C 77.484375 25.847656 77.4375 25.71875 77.4375 25.542969 C 77.4375 25.199219 77.609375 25.027344 77.953125 25.027344 Z M 80.859375 27.542969 C 81.003906 27.542969 81.125 27.613281 81.21875 27.761719 C 81.3125 27.90625 81.359375 28.074219 81.359375 28.261719 C 81.359375 28.449219 81.3125 28.613281 81.21875 28.761719 C 81.125 28.917969 81.003906 28.996094 80.859375 28.996094 L 77.953125 28.808594 C 77.804688 28.808594 77.679688 28.761719 77.578125 28.667969 C 77.484375 28.574219 77.4375 28.4375 77.4375 28.261719 C 77.4375 27.917969 77.609375 27.746094 77.953125 27.746094 Z M 64.125 30.136719 C 65.09375 30.136719 65.820312 30.675781 66.296875 31.761719 C 66.554688 31.082031 67.003906 30.746094 67.640625 30.746094 C 68.253906 30.746094 68.75 31.078125 69.125 31.746094 C 69.738281 30.984375 70.578125 30.605469 71.640625 30.605469 L 72.296875 30.605469 C 73.273438 30.605469 74.066406 30.925781 74.671875 31.574219 C 75.285156 32.230469 75.59375 33.089844 75.59375 34.152344 C 75.59375 35.058594 75.332031 35.839844 74.8125 36.496094 C 75.6875 36.902344 76.125 37.355469 76.125 37.855469 C 76.125 38.074219 76.054688 38.246094 75.921875 38.371094 C 75.796875 38.503906 75.65625 38.574219 75.5 38.574219 C 75.300781 38.574219 75.148438 38.464844 75.046875 38.246094 C 74.921875 37.785156 74.640625 37.421875 74.203125 37.152344 C 73.703125 37.566406 73.066406 37.777344 72.296875 37.777344 L 71.640625 37.777344 C 70.679688 37.777344 69.882812 37.4375 69.25 36.761719 C 68.625 36.082031 68.3125 35.214844 68.3125 34.152344 C 68.3125 33.609375 68.414062 33.121094 68.625 32.683594 C 68.414062 32.347656 68.1875 32.183594 67.9375 32.183594 C 67.6875 32.183594 67.488281 32.332031 67.34375 32.636719 C 67.207031 32.949219 67.125 33.328125 67.09375 33.777344 C 67.0625 34.234375 67 34.730469 66.90625 35.261719 C 66.8125 35.792969 66.6875 36.28125 66.53125 36.730469 C 66.382812 37.1875 66.128906 37.566406 65.765625 37.871094 C 65.390625 38.183594 64.917969 38.339844 64.34375 38.339844 C 63.398438 38.339844 62.671875 37.957031 62.171875 37.199219 C 61.671875 36.449219 61.421875 35.472656 61.421875 34.277344 C 61.421875 33.078125 61.667969 32.089844 62.15625 31.308594 C 62.636719 30.527344 63.292969 30.136719 64.125 30.136719 Z M 64.296875 31.714844 C 63.777344 31.714844 63.359375 31.941406 63.046875 32.402344 C 62.734375 32.871094 62.578125 33.488281 62.578125 34.261719 C 62.578125 35.011719 62.734375 35.605469 63.046875 36.042969 C 63.359375 36.488281 63.777344 36.714844 64.296875 36.714844 C 64.515625 36.714844 64.703125 36.675781 64.859375 36.605469 C 65.015625 36.53125 65.152344 36.410156 65.265625 36.246094 C 65.371094 36.089844 65.460938 35.933594 65.53125 35.777344 C 65.605469 35.621094 65.667969 35.410156 65.71875 35.152344 C 65.761719 34.902344 65.792969 34.691406 65.8125 34.527344 C 65.835938 34.359375 65.859375 34.140625 65.890625 33.871094 C 65.914062 33.597656 65.929688 33.40625 65.9375 33.292969 C 65.59375 32.238281 65.046875 31.714844 64.296875 31.714844 Z M 71.65625 32.214844 C 71.019531 32.214844 70.492188 32.390625 70.078125 32.746094 C 69.660156 33.097656 69.453125 33.582031 69.453125 34.199219 C 69.453125 34.78125 69.65625 35.25 70.0625 35.605469 C 70.476562 35.96875 71.003906 36.152344 71.640625 36.152344 L 72.296875 36.152344 C 72.910156 36.152344 73.421875 35.96875 73.828125 35.605469 C 74.242188 35.25 74.453125 34.777344 74.453125 34.183594 C 74.453125 33.566406 74.25 33.082031 73.84375 32.730469 C 73.4375 32.386719 72.921875 32.214844 72.296875 32.214844 Z M 66.59375 40.027344 L 74.90625 40.027344 C 75.070312 40.027344 75.207031 40.097656 75.3125 40.246094 C 75.425781 40.402344 75.484375 40.597656 75.484375 40.839844 C 75.484375 41.046875 75.425781 41.222656 75.3125 41.371094 C 75.207031 41.527344 75.070312 41.605469 74.90625 41.605469 L 73.953125 41.605469 C 74.410156 41.84375 74.796875 42.191406 75.109375 42.652344 C 75.429688 43.121094 75.59375 43.640625 75.59375 44.214844 L 75.59375 44.902344 C 75.59375 45.066406 75.515625 45.214844 75.359375 45.339844 C 75.210938 45.472656 75.039062 45.542969 74.84375 45.542969 C 74.644531 45.542969 74.46875 45.472656 74.3125 45.339844 C 74.164062 45.214844 74.09375 45.066406 74.09375 44.902344 L 74.09375 44.214844 C 74.09375 43.535156 73.816406 42.941406 73.265625 42.433594 C 72.722656 41.933594 72.019531 41.683594 71.15625 41.683594 L 66.59375 41.683594 C 66.445312 41.683594 66.3125 41.597656 66.1875 41.433594 C 66.0625 41.265625 66 41.066406 66 40.839844 C 66 40.609375 66.054688 40.417969 66.171875 40.261719 C 66.296875 40.105469 66.4375 40.027344 66.59375 40.027344 Z M 69.71875 46.53125 L 71.8125 46.53125 C 72.84375 46.53125 73.726562 46.921875 74.46875 47.703125 C 75.21875 48.484375 75.59375 49.421875 75.59375 50.515625 C 75.59375 51.554688 75.242188 52.457031 74.546875 53.21875 C 73.847656 53.976562 72.972656 54.359375 71.921875 54.359375 C 71.535156 54.359375 71.222656 54.3125 70.984375 54.21875 C 70.753906 54.125 70.585938 53.976562 70.484375 53.78125 C 70.390625 53.59375 70.328125 53.414062 70.296875 53.25 C 70.273438 53.082031 70.265625 52.859375 70.265625 52.578125 L 70.265625 48.203125 L 69.65625 48.203125 C 68.925781 48.203125 68.335938 48.460938 67.890625 48.984375 C 67.453125 49.515625 67.234375 50.195312 67.234375 51.03125 C 67.234375 51.476562 67.300781 51.863281 67.4375 52.1875 C 67.570312 52.507812 67.703125 52.769531 67.828125 52.96875 C 67.953125 53.175781 68.015625 53.335938 68.015625 53.453125 C 68.015625 53.640625 67.929688 53.800781 67.765625 53.9375 C 67.597656 54.070312 67.429688 54.140625 67.265625 54.140625 C 66.953125 54.140625 66.632812 53.832031 66.3125 53.21875 C 66 52.613281 65.84375 51.867188 65.84375 50.984375 C 65.84375 49.671875 66.195312 48.597656 66.90625 47.765625 C 67.625 46.941406 68.5625 46.53125 69.71875 46.53125 Z M 71.375 48.203125 L 71.375 51.90625 C 71.375 52.25 71.414062 52.476562 71.5 52.59375 C 71.59375 52.71875 71.765625 52.78125 72.015625 52.78125 C 72.617188 52.78125 73.144531 52.554688 73.59375 52.109375 C 74.050781 51.671875 74.28125 51.132812 74.28125 50.5 C 74.28125 49.875 74.066406 49.332031 73.640625 48.875 C 73.222656 48.425781 72.707031 48.203125 72.09375 48.203125 Z M 74.796875 55.253906 C 75.015625 55.253906 75.203125 55.371094 75.359375 55.613281 C 75.515625 55.851562 75.59375 56.089844 75.59375 56.332031 C 75.59375 56.613281 75.484375 56.792969 75.265625 56.878906 L 68.296875 59.519531 L 75.265625 61.894531 C 75.484375 61.988281 75.59375 62.164062 75.59375 62.425781 C 75.59375 62.644531 75.515625 62.878906 75.359375 63.128906 C 75.203125 63.378906 75.007812 63.503906 74.78125 63.503906 C 74.71875 63.503906 74.648438 63.480469 74.578125 63.441406 L 66.4375 60.394531 L 65.4375 60.019531 C 65.25 59.957031 64.933594 59.820312 64.484375 59.613281 C 64.027344 59.414062 63.699219 59.246094 63.5 59.113281 C 63.304688 58.988281 63.042969 58.804688 62.71875 58.566406 C 62.386719 58.324219 62.148438 58.089844 62 57.863281 C 61.855469 57.632812 61.726562 57.363281 61.609375 57.050781 C 61.484375 56.738281 61.421875 56.410156 61.421875 56.066406 C 61.421875 55.542969 61.667969 55.285156 62.15625 55.285156 C 62.636719 55.285156 62.875 55.441406 62.875 55.753906 C 62.875 56.355469 63.214844 56.941406 63.890625 57.503906 C 64.570312 58.074219 65.433594 58.460938 66.484375 58.660156 L 74.578125 55.332031 C 74.660156 55.277344 74.734375 55.253906 74.796875 55.253906 Z M 66.59375 68.964844 L 80.625 68.964844 C 80.789062 68.964844 80.925781 69.035156 81.03125 69.183594 C 81.144531 69.339844 81.203125 69.535156 81.203125 69.777344 C 81.203125 70.015625 81.144531 70.214844 81.03125 70.371094 C 80.925781 70.535156 80.789062 70.621094 80.625 70.621094 L 74.078125 70.621094 C 74.503906 70.859375 74.863281 71.203125 75.15625 71.652344 C 75.445312 72.109375 75.59375 72.640625 75.59375 73.246094 C 75.59375 74.214844 75.21875 75.050781 74.46875 75.761719 C 73.71875 76.46875 72.816406 76.824219 71.765625 76.824219 L 69.71875 76.824219 C 68.707031 76.824219 67.804688 76.46875 67.015625 75.761719 C 66.234375 75.050781 65.84375 74.234375 65.84375 73.308594 C 65.84375 72.703125 65.996094 72.144531 66.296875 71.636719 C 66.609375 71.136719 66.976562 70.769531 67.40625 70.542969 L 66.59375 70.542969 C 66.4375 70.542969 66.296875 70.464844 66.171875 70.308594 C 66.054688 70.152344 66 69.972656 66 69.777344 C 66 69.558594 66.054688 69.363281 66.171875 69.199219 C 66.296875 69.042969 66.4375 68.964844 66.59375 68.964844 Z M 69.1875 70.621094 C 68.851562 70.621094 68.460938 70.855469 68.015625 71.324219 C 67.566406 71.792969 67.34375 72.316406 67.34375 72.902344 C 67.34375 73.503906 67.582031 74.03125 68.0625 74.480469 C 68.550781 74.9375 69.101562 75.167969 69.71875 75.167969 L 71.765625 75.167969 C 72.359375 75.167969 72.894531 74.9375 73.375 74.480469 C 73.851562 74.03125 74.09375 73.5 74.09375 72.886719 C 74.09375 72.28125 73.875 71.75 73.4375 71.292969 C 73.007812 70.84375 72.453125 70.621094 71.765625 70.621094 Z M 66.59375 79 L 80.625 79 C 80.789062 79 80.925781 79.070312 81.03125 79.21875 C 81.144531 79.375 81.203125 79.570312 81.203125 79.8125 C 81.203125 80.0625 81.144531 80.265625 81.03125 80.421875 C 80.925781 80.578125 80.789062 80.65625 80.625 80.65625 L 66.59375 80.65625 C 66.445312 80.65625 66.3125 80.570312 66.1875 80.40625 C 66.0625 80.238281 66 80.039062 66 79.8125 C 66 79.59375 66.054688 79.398438 66.171875 79.234375 C 66.296875 79.078125 66.4375 79 66.59375 79 Z M 68.5 82.582031 C 69.539062 82.582031 70.265625 82.976562 70.671875 83.769531 C 71.078125 84.570312 71.28125 85.730469 71.28125 87.253906 L 71.28125 88.222656 L 71.703125 88.222656 C 72.367188 88.222656 72.945312 88.035156 73.4375 87.660156 C 73.9375 87.292969 74.1875 86.746094 74.1875 86.019531 C 74.1875 85.457031 74.085938 84.960938 73.890625 84.535156 C 73.691406 84.105469 73.59375 83.871094 73.59375 83.832031 C 73.59375 83.652344 73.679688 83.507812 73.859375 83.394531 C 74.046875 83.277344 74.238281 83.222656 74.4375 83.222656 C 74.75 83.222656 75.019531 83.523438 75.25 84.128906 C 75.476562 84.730469 75.59375 85.378906 75.59375 86.066406 C 75.59375 87.367188 75.222656 88.324219 74.484375 88.941406 C 73.742188 89.566406 72.820312 89.878906 71.71875 89.878906 L 66.59375 89.878906 C 66.425781 89.878906 66.285156 89.800781 66.171875 89.644531 C 66.054688 89.496094 66 89.304688 66 89.066406 C 66 88.847656 66.054688 88.664062 66.171875 88.519531 C 66.285156 88.371094 66.425781 88.300781 66.59375 88.300781 L 67.40625 88.300781 C 66.363281 87.394531 65.84375 86.386719 65.84375 85.285156 C 65.84375 84.480469 66.066406 83.832031 66.515625 83.332031 C 66.972656 82.832031 67.632812 82.582031 68.5 82.582031 Z M 68.6875 84.253906 C 68.1875 84.253906 67.8125 84.394531 67.5625 84.675781 C 67.3125 84.957031 67.1875 85.332031 67.1875 85.800781 C 67.1875 86.363281 67.40625 86.902344 67.84375 87.425781 C 68.289062 87.957031 68.75 88.222656 69.21875 88.222656 L 70.265625 88.222656 L 70.265625 87.519531 C 70.265625 87.132812 70.253906 86.800781 70.234375 86.519531 C 70.210938 86.238281 70.171875 85.945312 70.109375 85.644531 C 70.046875 85.351562 69.957031 85.105469 69.84375 84.910156 C 69.738281 84.710938 69.585938 84.550781 69.390625 84.425781 C 69.191406 84.308594 68.957031 84.253906 68.6875 84.253906 Z M 69.71875 91.824219 L 71.71875 91.824219 C 72.863281 91.824219 73.796875 92.15625 74.515625 92.824219 C 75.234375 93.5 75.59375 94.488281 75.59375 95.792969 C 75.59375 96.625 75.445312 97.324219 75.15625 97.886719 C 74.863281 98.457031 74.550781 98.746094 74.21875 98.746094 C 74.03125 98.746094 73.847656 98.671875 73.671875 98.527344 C 73.492188 98.390625 73.40625 98.230469 73.40625 98.042969 C 73.40625 97.988281 73.519531 97.761719 73.75 97.355469 C 73.976562 96.949219 74.09375 96.46875 74.09375 95.917969 C 74.09375 95.113281 73.882812 94.503906 73.46875 94.089844 C 73.0625 93.683594 72.476562 93.480469 71.71875 93.480469 L 69.71875 93.480469 C 68.132812 93.480469 67.34375 94.296875 67.34375 95.933594 C 67.34375 96.496094 67.460938 96.984375 67.703125 97.402344 C 67.941406 97.816406 68.0625 98.058594 68.0625 98.121094 C 68.0625 98.328125 67.972656 98.5 67.796875 98.636719 C 67.628906 98.78125 67.453125 98.855469 67.265625 98.855469 C 66.929688 98.855469 66.609375 98.5625 66.296875 97.980469 C 65.996094 97.394531 65.84375 96.675781 65.84375 95.824219 C 65.84375 94.5 66.195312 93.5 66.90625 92.824219 C 67.625 92.15625 68.5625 91.824219 69.71875 91.824219 Z M 66.59375 100.523438 L 80.625 100.523438 C 80.789062 100.523438 80.925781 100.59375 81.03125 100.742188 C 81.144531 100.898438 81.203125 101.09375 81.203125 101.335938 C 81.203125 101.574219 81.144531 101.773438 81.03125 101.929688 C 80.925781 102.09375 80.789062 102.179688 80.625 102.179688 L 71.265625 102.179688 L 75.375 106.742188 C 75.46875 106.855469 75.515625 106.976562 75.515625 107.101562 C 75.515625 107.296875 75.4375 107.484375 75.28125 107.664062 C 75.125 107.851562 74.941406 107.945312 74.734375 107.945312 C 74.578125 107.945312 74.445312 107.882812 74.34375 107.757812 L 71.875 104.976562 L 67.0625 108.304688 C 66.957031 108.367188 66.859375 108.398438 66.765625 108.398438 C 66.554688 108.398438 66.363281 108.296875 66.1875 108.101562 C 66.007812 107.902344 65.921875 107.695312 65.921875 107.476562 C 65.921875 107.289062 66.007812 107.136719 66.1875 107.023438 L 70.84375 103.835938 L 69.359375 102.179688 L 66.59375 102.179688 C 66.445312 102.179688 66.3125 102.09375 66.1875 101.929688 C 66.0625 101.761719 66 101.5625 66 101.335938 C 66 101.117188 66.054688 100.921875 66.171875 100.757812 C 66.296875 100.601562 66.4375 100.523438 66.59375 100.523438 Z M 80.859375 109.363281 C 81.003906 109.363281 81.125 109.433594 81.21875 109.582031 C 81.3125 109.726562 81.359375 109.894531 81.359375 110.082031 C 81.359375 110.269531 81.3125 110.433594 81.21875 110.582031 C 81.125 110.738281 81.003906 110.816406 80.859375 110.816406 L 77.953125 110.613281 C 77.804688 110.613281 77.679688 110.566406 77.578125 110.472656 C 77.484375 110.386719 77.4375 110.257812 77.4375 110.082031 C 77.4375 109.738281 77.609375 109.566406 77.953125 109.566406 Z M 80.859375 112.082031 C 81.003906 112.082031 81.125 112.152344 81.21875 112.300781 C 81.3125 112.445312 81.359375 112.613281 81.359375 112.800781 C 81.359375 112.988281 81.3125 113.152344 81.21875 113.300781 C 81.125 113.457031 81.003906 113.535156 80.859375 113.535156 L 77.953125 113.347656 C 77.804688 113.347656 77.679688 113.300781 77.578125 113.207031 C 77.484375 113.113281 77.4375 112.976562 77.4375 112.800781 C 77.4375 112.457031 77.609375 112.285156 77.953125 112.285156 Z M 66 114.238281 "/>
</g>
</svg>
