<?xml version="1.0" encoding="UTF-8"?>
<svg xmlns="http://www.w3.org/2000/svg" xmlns:xlink="http://www.w3.org/1999/xlink" width="384pt" height="288pt" viewBox="0 0 384 288" version="1.1">
<g id="surface145">
<path style=" stroke:none;fill-rule:nonzero;fill:rgb(0%,0%,0%);fill-opacity:1;" d="M 0 0 L 284 0 L 284 288 L 0 288 Z M 0 0 "/>
<path style=" stroke:none;fill-rule:nonzero;fill:rgb(50.196078%,50.196078%,50.196078%);fill-opacity:1;" d="M 0 0 L 35.5 0 L 35.5 288 L 0 288 Z M 0 0 "/>
<path style=" stroke:none;fill-rule:nonzero;fill:rgb(0%,0%,0%);fill-opacity:1;" d="M 35.5 0 L 71 0 L 71 288 L 35.5 288 Z M 35.5 0 "/>
<path style=" stroke:none;fill-rule:nonzero;fill:rgb(50.196078%,50.196078%,50.196078%);fill-opacity:1;" d="M 71 0 L 106.5 0 L 106.5 288 L 71 288 Z M 71 0 "/>
<path style=" stroke:none;fill-rule:nonzero;fill:rgb(0%,0%,0%);fill-opacity:1;" d="M 106.5 0 L 142 0 L 142 288 L 106.5 288 Z M 106.5 0 "/>
<path style=" stroke:none;fill-rule:nonzero;fill:rgb(50.196078%,50.196078%,50.196078%);fill-opacity:1;" d="M 142 0 L 177.5 0 L 177.5 288 L 142 288 Z M 142 0 "/>
<path style=" stroke:none;fill-rule:nonzero;fill:rgb(0%,0%,0%);fill-opacity:1;" d="M 177.5 0 L 213 0 L 213 288 L 177.5 288 Z M 177.5 0 "/>
<path style=" stroke:none;fill-rule:nonzero;fill:rgb(50.196078%,50.196078%,50.196078%);fill-opacity:1;" d="M 213 0 L 248.5 0 L 248.5 288 L 213 288 Z M 213 0 "/>
<path style=" stroke:none;fill-rule:nonzero;fill:rgb(0%,0%,0%);fill-opacity:1;" d="M 248.5 0 L 284 0 L 284 288 L 248.5 288 Z M 248.5 0 "/>
<path style=" stroke:none;fill-rule:nonzero;fill:rgb(0%,0%,0%);fill-opacity:1;" d="M 264.34375 50.71875 L 270.875 50.71875 C 271.5 50.71875 272.03125 50.925781 272.46875 51.34375 C 272.90625 51.769531 273.125 52.269531 273.125 52.84375 L 273.125 53.265625 C 273.125 53.390625 273.078125 53.488281 272.984375 53.5625 C 272.898438 53.632812 272.796875 53.671875 272.671875 53.671875 C 272.554688 53.671875 272.457031 53.632812 272.375 53.5625 C 272.289062 53.488281 272.25 53.390625 272.25 53.265625 L 272.25 53.015625 C 272.25 52.640625 272.125 52.332031 271.875 52.09375 C 271.625 51.851562 271.316406 51.726562 270.953125 51.71875 L 269.6875 51.71875 L 269.6875 53.359375 C 269.6875 53.453125 269.644531 53.523438 269.5625 53.578125 C 269.488281 53.640625 269.398438 53.671875 269.296875 53.671875 C 269.191406 53.671875 269.097656 53.640625 269.015625 53.578125 C 268.941406 53.523438 268.90625 53.453125 268.90625 53.359375 L 268.90625 51.71875 L 264.34375 51.71875 C 264.25 51.71875 264.164062 51.664062 264.09375 51.5625 C 264.03125 51.46875 264 51.347656 264 51.203125 C 264 51.066406 264.03125 50.953125 264.09375 50.859375 C 264.15625 50.765625 264.238281 50.71875 264.34375 50.71875 Z M 266.234375 54.265625 L 267.453125 54.265625 C 268.066406 54.265625 268.601562 54.5 269.0625 54.96875 C 269.53125 55.4375 269.765625 55.988281 269.765625 56.625 C 269.765625 57.269531 269.535156 57.828125 269.078125 58.296875 C 268.617188 58.773438 268.078125 59.015625 267.453125 59.015625 L 266.234375 59.015625 C 265.617188 59.015625 265.078125 58.773438 264.609375 58.296875 C 264.140625 57.816406 263.90625 57.257812 263.90625 56.625 C 263.90625 56 264.140625 55.445312 264.609375 54.96875 C 265.078125 54.5 265.617188 54.265625 266.234375 54.265625 Z M 266.234375 55.265625 C 265.859375 55.265625 265.523438 55.398438 265.234375 55.671875 C 264.941406 55.941406 264.796875 56.265625 264.796875 56.640625 C 264.796875 57.015625 264.941406 57.335938 265.234375 57.609375 C 265.535156 57.878906 265.867188 58.015625 266.234375 58.015625 L 267.453125 58.015625 C 267.816406 58.015625 268.140625 57.878906 268.421875 57.609375 C 268.710938 57.335938 268.859375 57.015625 268.859375 56.640625 C 268.859375 56.265625 268.710938 55.941406 268.421875 55.671875 C 268.140625 55.398438 267.816406 55.265625 267.453125 55.265625 Z M 264.359375 60.316406 L 272.765625 60.316406 C 272.867188 60.316406 272.953125 60.363281 273.015625 60.457031 C 273.085938 60.550781 273.125 60.667969 273.125 60.816406 C 273.125 60.960938 273.085938 61.082031 273.015625 61.175781 C 272.953125 61.269531 272.867188 61.316406 272.765625 61.316406 L 264.359375 61.316406 C 264.273438 61.316406 264.191406 61.261719 264.109375 61.160156 C 264.035156 61.066406 264 60.949219 264 60.816406 C 264 60.679688 264.035156 60.558594 264.109375 60.457031 C 264.179688 60.363281 264.265625 60.316406 264.359375 60.316406 Z M 266.234375 62.617188 L 267.453125 62.617188 C 268.085938 62.617188 268.628906 62.828125 269.078125 63.257812 C 269.535156 63.683594 269.765625 64.1875 269.765625 64.773438 C 269.765625 65.136719 269.675781 65.453125 269.5 65.726562 C 269.320312 65.996094 269.101562 66.203125 268.84375 66.351562 L 272.765625 66.351562 C 272.867188 66.351562 272.953125 66.398438 273.015625 66.492188 C 273.085938 66.585938 273.125 66.703125 273.125 66.851562 C 273.125 66.996094 273.085938 67.109375 273.015625 67.195312 C 272.953125 67.289062 272.867188 67.335938 272.765625 67.335938 L 264.359375 67.335938 C 264.265625 67.335938 264.179688 67.289062 264.109375 67.195312 C 264.035156 67.101562 264 66.984375 264 66.851562 C 264 66.726562 264.035156 66.617188 264.109375 66.523438 C 264.179688 66.4375 264.265625 66.398438 264.359375 66.398438 L 264.84375 66.398438 C 264.582031 66.261719 264.359375 66.039062 264.171875 65.726562 C 263.996094 65.421875 263.90625 65.09375 263.90625 64.742188 C 263.90625 64.179688 264.140625 63.683594 264.609375 63.257812 C 265.078125 62.828125 265.617188 62.617188 266.234375 62.617188 Z M 266.234375 63.617188 C 265.867188 63.617188 265.535156 63.75 265.234375 64.023438 C 264.941406 64.292969 264.796875 64.609375 264.796875 64.976562 C 264.796875 65.328125 264.929688 65.648438 265.203125 65.929688 C 265.472656 66.210938 265.707031 66.351562 265.90625 66.351562 L 267.453125 66.351562 C 267.867188 66.351562 268.207031 66.210938 268.46875 65.929688 C 268.726562 65.65625 268.859375 65.34375 268.859375 64.992188 C 268.859375 64.617188 268.710938 64.292969 268.421875 64.023438 C 268.140625 63.75 267.816406 63.617188 267.453125 63.617188 Z M 264.359375 68.917969 L 272.40625 68.917969 C 272.519531 68.917969 272.609375 68.957031 272.671875 69.042969 C 272.734375 69.136719 272.765625 69.246094 272.765625 69.371094 L 272.765625 73.636719 C 272.765625 73.75 272.722656 73.832031 272.640625 73.886719 C 272.554688 73.949219 272.453125 73.980469 272.328125 73.980469 C 272.203125 73.980469 272.09375 73.949219 272 73.886719 C 271.90625 73.824219 271.859375 73.738281 271.859375 73.636719 L 271.859375 69.917969 L 268.8125 69.917969 L 268.8125 71.792969 C 268.8125 71.894531 268.769531 71.980469 268.6875 72.042969 C 268.601562 72.105469 268.5 72.136719 268.375 72.136719 C 268.269531 72.136719 268.175781 72.105469 268.09375 72.042969 C 268.007812 71.988281 267.96875 71.90625 267.96875 71.792969 L 267.96875 69.917969 L 264.90625 69.917969 L 264.90625 73.636719 C 264.90625 73.738281 264.859375 73.824219 264.765625 73.886719 C 264.679688 73.949219 264.570312 73.980469 264.4375 73.980469 C 264.320312 73.980469 264.21875 73.949219 264.125 73.886719 C 264.039062 73.832031 264 73.75 264 73.636719 L 264 69.371094 C 264 69.246094 264.03125 69.136719 264.09375 69.042969 C 264.15625 68.957031 264.242188 68.917969 264.359375 68.917969 Z M 269.28125 74.367188 C 269.394531 74.367188 269.492188 74.433594 269.578125 74.570312 C 269.671875 74.714844 269.71875 74.859375 269.71875 75.007812 C 269.71875 75.171875 269.648438 75.28125 269.515625 75.335938 L 265.4375 76.851562 L 269.46875 78.351562 C 269.632812 78.414062 269.71875 78.523438 269.71875 78.679688 C 269.71875 78.804688 269.671875 78.9375 269.578125 79.085938 C 269.492188 79.242188 269.394531 79.320312 269.28125 79.320312 C 269.21875 79.320312 269.15625 79.304688 269.09375 79.273438 L 264.109375 77.304688 C 263.964844 77.242188 263.890625 77.089844 263.890625 76.851562 C 263.890625 76.601562 263.964844 76.445312 264.109375 76.382812 L 269.09375 74.414062 C 269.1875 74.382812 269.25 74.367188 269.28125 74.367188 Z M 266.234375 79.957031 L 267.484375 79.957031 C 268.109375 79.957031 268.644531 80.191406 269.09375 80.660156 C 269.539062 81.128906 269.765625 81.691406 269.765625 82.347656 C 269.765625 82.972656 269.550781 83.511719 269.125 83.972656 C 268.707031 84.429688 268.179688 84.660156 267.546875 84.660156 C 267.316406 84.660156 267.128906 84.628906 266.984375 84.566406 C 266.847656 84.511719 266.75 84.429688 266.6875 84.316406 C 266.632812 84.199219 266.597656 84.089844 266.578125 83.988281 C 266.566406 83.894531 266.5625 83.757812 266.5625 83.582031 L 266.5625 80.957031 L 266.203125 80.957031 C 265.753906 80.957031 265.398438 81.113281 265.140625 81.425781 C 264.878906 81.746094 264.75 82.160156 264.75 82.660156 C 264.75 82.929688 264.785156 83.160156 264.859375 83.347656 C 264.941406 83.542969 265.019531 83.699219 265.09375 83.816406 C 265.175781 83.941406 265.21875 84.039062 265.21875 84.113281 C 265.21875 84.226562 265.164062 84.320312 265.0625 84.394531 C 264.957031 84.476562 264.851562 84.519531 264.75 84.519531 C 264.570312 84.519531 264.382812 84.335938 264.1875 83.972656 C 264 83.605469 263.90625 83.160156 263.90625 82.628906 C 263.90625 81.847656 264.117188 81.207031 264.546875 80.707031 C 264.972656 80.207031 265.535156 79.957031 266.234375 79.957031 Z M 267.234375 80.957031 L 267.234375 83.175781 C 267.234375 83.382812 267.257812 83.523438 267.3125 83.597656 C 267.363281 83.667969 267.460938 83.707031 267.609375 83.707031 C 267.972656 83.707031 268.289062 83.570312 268.5625 83.300781 C 268.832031 83.039062 268.96875 82.722656 268.96875 82.347656 C 268.96875 81.960938 268.84375 81.632812 268.59375 81.363281 C 268.34375 81.089844 268.03125 80.957031 267.65625 80.957031 Z M 264.359375 85.753906 L 269.34375 85.753906 C 269.445312 85.753906 269.53125 85.800781 269.59375 85.894531 C 269.65625 85.988281 269.6875 86.105469 269.6875 86.253906 C 269.6875 86.378906 269.65625 86.480469 269.59375 86.566406 C 269.53125 86.660156 269.445312 86.707031 269.34375 86.707031 L 268.78125 86.707031 C 269.050781 86.851562 269.28125 87.066406 269.46875 87.347656 C 269.664062 87.628906 269.765625 87.941406 269.765625 88.285156 L 269.765625 88.691406 C 269.765625 88.792969 269.71875 88.882812 269.625 88.957031 C 269.53125 89.027344 269.421875 89.066406 269.296875 89.066406 C 269.179688 89.066406 269.078125 89.027344 268.984375 88.957031 C 268.898438 88.882812 268.859375 88.792969 268.859375 88.691406 L 268.859375 88.285156 C 268.859375 87.867188 268.691406 87.507812 268.359375 87.207031 C 268.035156 86.902344 267.613281 86.753906 267.09375 86.753906 L 264.359375 86.753906 C 264.273438 86.753906 264.191406 86.699219 264.109375 86.597656 C 264.035156 86.503906 264 86.386719 264 86.253906 C 264 86.117188 264.035156 85.996094 264.109375 85.894531 C 264.179688 85.800781 264.265625 85.753906 264.359375 85.753906 Z M 269.28125 89.320312 C 269.40625 89.320312 269.515625 89.390625 269.609375 89.539062 C 269.710938 89.683594 269.765625 89.828125 269.765625 89.976562 C 269.765625 90.140625 269.695312 90.246094 269.5625 90.289062 L 265.375 91.882812 L 269.5625 93.304688 C 269.695312 93.367188 269.765625 93.46875 269.765625 93.617188 C 269.765625 93.75 269.710938 93.890625 269.609375 94.039062 C 269.515625 94.195312 269.398438 94.273438 269.265625 94.273438 C 269.222656 94.273438 269.179688 94.257812 269.140625 94.226562 L 264.265625 92.414062 L 263.65625 92.179688 C 263.554688 92.136719 263.367188 92.054688 263.09375 91.929688 C 262.824219 91.8125 262.625 91.714844 262.5 91.632812 C 262.375 91.558594 262.21875 91.449219 262.03125 91.304688 C 261.835938 91.15625 261.695312 91.015625 261.609375 90.882812 C 261.515625 90.746094 261.433594 90.585938 261.359375 90.398438 C 261.289062 90.210938 261.25 90.011719 261.25 89.804688 C 261.25 89.492188 261.402344 89.335938 261.703125 89.335938 C 261.984375 89.335938 262.125 89.429688 262.125 89.617188 C 262.125 89.980469 262.328125 90.328125 262.734375 90.664062 C 263.140625 91.007812 263.65625 91.242188 264.28125 91.367188 L 269.140625 89.367188 C 269.191406 89.335938 269.238281 89.320312 269.28125 89.320312 Z M 264.09375 97.605469 L 272.875 97.605469 C 272.976562 97.605469 273.0625 97.652344 273.125 97.746094 C 273.1875 97.839844 273.21875 97.941406 273.21875 98.058594 L 273.21875 100.027344 C 273.21875 100.128906 273.171875 100.214844 273.078125 100.277344 C 272.992188 100.339844 272.890625 100.371094 272.765625 100.371094 C 272.640625 100.371094 272.53125 100.339844 272.4375 100.277344 C 272.351562 100.214844 272.3125 100.128906 272.3125 100.027344 L 272.3125 98.605469 L 264.640625 98.605469 L 264.640625 100.027344 C 264.640625 100.128906 264.597656 100.214844 264.515625 100.277344 C 264.429688 100.339844 264.320312 100.371094 264.1875 100.371094 C 264.070312 100.371094 263.976562 100.339844 263.890625 100.277344 C 263.796875 100.214844 263.75 100.128906 263.75 100.027344 L 263.75 98.058594 C 263.75 97.941406 263.78125 97.839844 263.84375 97.746094 C 263.90625 97.652344 263.992188 97.605469 264.09375 97.605469 Z M 265.96875 100.90625 C 266.15625 100.90625 266.28125 100.9375 266.34375 101 C 266.40625 101.070312 266.4375 101.195312 266.4375 101.375 C 266.4375 101.5625 266.40625 101.691406 266.34375 101.765625 C 266.28125 101.847656 266.179688 101.890625 266.046875 101.890625 C 265.734375 101.890625 265.453125 102.019531 265.203125 102.28125 C 264.960938 102.539062 264.84375 102.9375 264.84375 103.46875 C 264.84375 104.53125 265.394531 105.0625 266.5 105.0625 L 266.71875 105.0625 C 267.695312 105.0625 268.1875 104.53125 268.1875 103.46875 C 268.1875 103.226562 268.328125 103.109375 268.609375 103.109375 C 268.890625 103.109375 269.03125 103.226562 269.03125 103.46875 C 269.03125 103.925781 269.132812 104.269531 269.34375 104.5 C 269.550781 104.738281 269.925781 104.859375 270.46875 104.859375 C 271.40625 104.859375 271.875 104.410156 271.875 103.515625 C 271.875 102.992188 271.757812 102.628906 271.53125 102.421875 C 271.300781 102.210938 271.03125 102.109375 270.71875 102.109375 C 270.425781 102.109375 270.28125 101.945312 270.28125 101.625 C 270.28125 101.40625 270.3125 101.257812 270.375 101.1875 C 270.445312 101.125 270.582031 101.09375 270.78125 101.09375 C 270.988281 101.09375 271.195312 101.128906 271.40625 101.203125 C 271.625 101.285156 271.835938 101.410156 272.046875 101.578125 C 272.253906 101.742188 272.425781 101.992188 272.5625 102.328125 C 272.695312 102.671875 272.765625 103.070312 272.765625 103.53125 C 272.765625 105.0625 272.054688 105.828125 270.640625 105.828125 C 270.140625 105.828125 269.710938 105.738281 269.359375 105.5625 C 269.015625 105.382812 268.769531 105.148438 268.625 104.859375 C 268.300781 105.671875 267.664062 106.078125 266.71875 106.078125 L 266.5 106.078125 C 265.613281 106.078125 264.960938 105.835938 264.546875 105.359375 C 264.128906 104.878906 263.921875 104.25 263.921875 103.46875 C 263.921875 102.632812 264.128906 102 264.546875 101.5625 C 264.972656 101.125 265.445312 100.90625 265.96875 100.90625 Z M 264.546875 106.992188 C 264.722656 106.992188 264.875 107.046875 265 107.164062 C 265.125 107.277344 265.1875 107.421875 265.1875 107.601562 C 265.1875 107.765625 265.125 107.914062 265 108.039062 C 264.882812 108.164062 264.734375 108.226562 264.546875 108.226562 C 264.410156 108.226562 263.929688 108.054688 263.09375 107.710938 C 262.992188 107.65625 262.9375 107.570312 262.9375 107.445312 C 262.9375 107.351562 262.964844 107.265625 263.015625 107.195312 C 263.070312 107.132812 263.136719 107.101562 263.21875 107.101562 C 263.273438 107.101562 263.320312 107.105469 263.359375 107.117188 L 263.96875 107.367188 C 264.070312 107.117188 264.265625 106.992188 264.546875 106.992188 Z M 266 108.964844 C 266.320312 108.964844 266.484375 109.128906 266.484375 109.464844 C 266.484375 109.808594 266.347656 109.980469 266.078125 109.980469 C 265.691406 109.980469 265.390625 110.125 265.171875 110.417969 C 264.953125 110.71875 264.84375 111.09375 264.84375 111.542969 C 264.84375 112.050781 264.984375 112.441406 265.265625 112.714844 C 265.546875 112.996094 265.960938 113.136719 266.515625 113.136719 L 266.75 113.136719 C 267.289062 113.136719 267.695312 112.996094 267.96875 112.714844 C 268.25 112.441406 268.390625 112.058594 268.390625 111.558594 L 268.390625 109.855469 C 268.390625 109.542969 268.519531 109.386719 268.78125 109.386719 C 268.863281 109.386719 268.953125 109.394531 269.046875 109.417969 L 272.40625 109.667969 C 272.644531 109.675781 272.765625 109.765625 272.765625 109.933594 L 272.765625 113.386719 C 272.765625 113.488281 272.71875 113.566406 272.625 113.621094 C 272.539062 113.683594 272.4375 113.714844 272.3125 113.714844 C 272.195312 113.714844 272.09375 113.683594 272 113.621094 C 271.90625 113.566406 271.859375 113.488281 271.859375 113.386719 L 271.859375 110.542969 L 269.234375 110.355469 L 269.234375 111.558594 C 269.234375 112.339844 269.03125 112.964844 268.625 113.433594 C 268.226562 113.902344 267.601562 114.136719 266.75 114.136719 L 266.515625 114.136719 C 265.628906 114.136719 264.972656 113.902344 264.546875 113.433594 C 264.128906 112.964844 263.921875 112.339844 263.921875 111.558594 C 263.921875 110.753906 264.125 110.121094 264.53125 109.652344 C 264.9375 109.191406 265.425781 108.964844 266 108.964844 Z M 264.1875 114.707031 C 264.320312 114.707031 264.429688 114.738281 264.515625 114.800781 C 264.597656 114.863281 264.640625 114.945312 264.640625 115.050781 L 264.640625 116.472656 L 272.3125 116.472656 L 272.3125 115.050781 C 272.3125 114.945312 272.351562 114.863281 272.4375 114.800781 C 272.53125 114.738281 272.640625 114.707031 272.765625 114.707031 C 272.890625 114.707031 272.992188 114.738281 273.078125 114.800781 C 273.171875 114.863281 273.21875 114.945312 273.21875 115.050781 L 273.21875 117.019531 C 273.21875 117.144531 273.1875 117.246094 273.125 117.332031 C 273.0625 117.425781 272.976562 117.472656 272.875 117.472656 L 264.09375 117.472656 C 263.992188 117.472656 263.90625 117.425781 263.84375 117.332031 C 263.78125 117.246094 263.75 117.144531 263.75 117.019531 L 263.75 115.050781 C 263.75 114.945312 263.796875 114.863281 263.890625 114.800781 C 263.976562 114.738281 264.070312 114.707031 264.1875 114.707031 Z M 265.859375 121.34375 L 270.953125 121.34375 C 271.578125 121.34375 272.109375 121.570312 272.546875 122.03125 C 272.992188 122.5 273.21875 123.046875 273.21875 123.671875 C 273.21875 123.992188 273.066406 124.15625 272.765625 124.15625 C 272.628906 124.15625 272.519531 124.125 272.4375 124.0625 C 272.351562 124 272.3125 123.914062 272.3125 123.8125 C 272.3125 123.375 272.171875 123.019531 271.890625 122.75 C 271.617188 122.476562 271.304688 122.34375 270.953125 122.34375 L 265.859375 122.34375 C 265.421875 122.34375 265.109375 122.488281 264.921875 122.78125 C 264.742188 123.070312 264.65625 123.414062 264.65625 123.8125 C 264.65625 124.039062 264.503906 124.15625 264.203125 124.15625 C 263.914062 124.15625 263.765625 123.984375 263.765625 123.640625 C 263.765625 122.992188 263.949219 122.445312 264.3125 122 C 264.675781 121.5625 265.191406 121.34375 265.859375 121.34375 Z M 264.8125 124.734375 C 264.914062 124.734375 265.015625 124.765625 265.109375 124.828125 C 265.210938 124.898438 265.265625 124.984375 265.265625 125.078125 C 265.265625 125.140625 265.21875 125.226562 265.125 125.34375 C 265.03125 125.46875 264.9375 125.644531 264.84375 125.875 C 264.75 126.101562 264.703125 126.367188 264.703125 126.671875 C 264.703125 127.066406 264.773438 127.351562 264.921875 127.53125 C 265.066406 127.71875 265.25 127.8125 265.46875 127.8125 C 265.726562 127.8125 265.9375 127.707031 266.09375 127.5 C 266.25 127.300781 266.363281 127.054688 266.4375 126.765625 C 266.519531 126.484375 266.609375 126.195312 266.703125 125.90625 C 266.804688 125.625 266.96875 125.378906 267.1875 125.171875 C 267.414062 124.972656 267.710938 124.875 268.078125 124.875 C 268.535156 124.875 268.929688 125.035156 269.265625 125.359375 C 269.597656 125.679688 269.765625 126.175781 269.765625 126.84375 C 269.765625 127.269531 269.695312 127.65625 269.5625 128 C 269.425781 128.351562 269.273438 128.53125 269.109375 128.53125 C 269.015625 128.53125 268.90625 128.492188 268.78125 128.421875 C 268.664062 128.347656 268.609375 128.253906 268.609375 128.140625 C 268.609375 128.109375 268.664062 127.953125 268.78125 127.671875 C 268.894531 127.398438 268.953125 127.128906 268.953125 126.859375 C 268.953125 126.492188 268.863281 126.21875 268.6875 126.03125 C 268.519531 125.851562 268.328125 125.765625 268.109375 125.765625 C 267.890625 125.765625 267.710938 125.863281 267.578125 126.0625 C 267.453125 126.257812 267.351562 126.503906 267.28125 126.796875 C 267.21875 127.097656 267.132812 127.390625 267.03125 127.671875 C 266.925781 127.960938 266.742188 128.207031 266.484375 128.40625 C 266.234375 128.601562 265.910156 128.703125 265.515625 128.703125 C 265.015625 128.703125 264.617188 128.523438 264.328125 128.171875 C 264.046875 127.828125 263.90625 127.335938 263.90625 126.703125 C 263.90625 126.160156 264 125.695312 264.1875 125.3125 C 264.382812 124.925781 264.59375 124.734375 264.8125 124.734375 Z M 264.359375 129.894531 L 272.765625 129.894531 C 272.867188 129.894531 272.953125 129.941406 273.015625 130.035156 C 273.085938 130.128906 273.125 130.246094 273.125 130.394531 C 273.125 130.539062 273.085938 130.660156 273.015625 130.753906 C 272.953125 130.847656 272.867188 130.894531 272.765625 130.894531 L 264.359375 130.894531 C 264.273438 130.894531 264.191406 130.839844 264.109375 130.738281 C 264.035156 130.644531 264 130.527344 264 130.394531 C 264 130.257812 264.035156 130.136719 264.109375 130.035156 C 264.179688 129.941406 264.265625 129.894531 264.359375 129.894531 Z M 266.234375 132.191406 L 267.453125 132.191406 C 268.066406 132.191406 268.601562 132.425781 269.0625 132.894531 C 269.53125 133.363281 269.765625 133.914062 269.765625 134.550781 C 269.765625 135.195312 269.535156 135.753906 269.078125 136.222656 C 268.617188 136.699219 268.078125 136.941406 267.453125 136.941406 L 266.234375 136.941406 C 265.617188 136.941406 265.078125 136.699219 264.609375 136.222656 C 264.140625 135.742188 263.90625 135.183594 263.90625 134.550781 C 263.90625 133.925781 264.140625 133.371094 264.609375 132.894531 C 265.078125 132.425781 265.617188 132.191406 266.234375 132.191406 Z M 266.234375 133.191406 C 265.859375 133.191406 265.523438 133.324219 265.234375 133.597656 C 264.941406 133.867188 264.796875 134.191406 264.796875 134.566406 C 264.796875 134.941406 264.941406 135.261719 265.234375 135.535156 C 265.535156 135.804688 265.867188 135.941406 266.234375 135.941406 L 267.453125 135.941406 C 267.816406 135.941406 268.140625 135.804688 268.421875 135.535156 C 268.710938 135.261719 268.859375 134.941406 268.859375 134.566406 C 268.859375 134.191406 268.710938 133.867188 268.421875 133.597656 C 268.140625 133.324219 267.816406 133.191406 267.453125 133.191406 Z M 269.28125 137.605469 C 269.394531 137.605469 269.492188 137.667969 269.578125 137.792969 C 269.671875 137.925781 269.71875 138.066406 269.71875 138.214844 C 269.71875 138.378906 269.648438 138.488281 269.515625 138.542969 L 265.484375 139.996094 L 269.125 141.121094 C 269.28125 141.171875 269.359375 141.296875 269.359375 141.496094 C 269.359375 141.691406 269.28125 141.816406 269.125 141.871094 L 265.453125 142.980469 L 269.515625 144.449219 C 269.648438 144.480469 269.71875 144.578125 269.71875 144.746094 C 269.71875 144.890625 269.671875 145.03125 269.578125 145.167969 C 269.492188 145.300781 269.394531 145.371094 269.28125 145.371094 C 269.21875 145.371094 269.15625 145.355469 269.09375 145.324219 L 264.109375 143.464844 C 263.964844 143.402344 263.890625 143.265625 263.890625 143.058594 C 263.890625 142.839844 263.964844 142.703125 264.109375 142.652344 L 267.640625 141.496094 L 264.140625 140.355469 C 263.976562 140.292969 263.890625 140.144531 263.890625 139.917969 C 263.890625 139.707031 263.976562 139.574219 264.140625 139.511719 L 269.09375 137.652344 C 269.1875 137.621094 269.25 137.605469 269.28125 137.605469 Z M 264.359375 148.324219 L 265.53125 148.324219 C 265.882812 148.324219 266.234375 148.457031 266.578125 148.730469 C 266.929688 149.011719 267.25 149.34375 267.53125 149.730469 L 268.390625 150.902344 C 268.671875 151.285156 268.984375 151.613281 269.328125 151.886719 C 269.679688 152.167969 270.035156 152.308594 270.390625 152.308594 C 270.773438 152.308594 271.113281 152.183594 271.40625 151.933594 C 271.695312 151.683594 271.84375 151.324219 271.84375 150.855469 C 271.84375 150.449219 271.726562 150.121094 271.5 149.871094 C 271.269531 149.621094 270.945312 149.496094 270.53125 149.496094 C 270.425781 149.496094 270.332031 149.441406 270.25 149.339844 C 270.164062 149.246094 270.125 149.121094 270.125 148.964844 C 270.125 148.660156 270.320312 148.511719 270.71875 148.511719 C 271.320312 148.511719 271.8125 148.734375 272.1875 149.183594 C 272.570312 149.640625 272.765625 150.199219 272.765625 150.855469 C 272.765625 151.550781 272.539062 152.136719 272.09375 152.605469 C 271.65625 153.082031 271.101562 153.324219 270.4375 153.324219 C 270.03125 153.324219 269.644531 153.222656 269.28125 153.027344 C 268.914062 152.828125 268.601562 152.582031 268.34375 152.292969 C 268.082031 152 267.828125 151.683594 267.578125 151.339844 L 266.890625 150.386719 C 266.691406 150.09375 266.472656 149.847656 266.234375 149.652344 C 265.992188 149.453125 265.757812 149.355469 265.53125 149.355469 L 264.90625 149.355469 L 264.90625 153.042969 C 264.90625 153.136719 264.859375 153.214844 264.765625 153.277344 C 264.679688 153.347656 264.578125 153.386719 264.453125 153.386719 C 264.335938 153.386719 264.234375 153.347656 264.140625 153.277344 C 264.046875 153.214844 264 153.136719 264 153.042969 L 264 148.777344 C 264 148.671875 264.03125 148.566406 264.09375 148.464844 C 264.164062 148.371094 264.253906 148.324219 264.359375 148.324219 Z M 264.203125 153.960938 C 264.503906 153.960938 264.65625 154.074219 264.65625 154.304688 C 264.65625 154.699219 264.742188 155.042969 264.921875 155.335938 C 265.109375 155.625 265.421875 155.773438 265.859375 155.773438 L 270.953125 155.773438 C 271.304688 155.773438 271.617188 155.636719 271.890625 155.367188 C 272.171875 155.09375 272.3125 154.742188 272.3125 154.304688 C 272.3125 154.199219 272.351562 154.117188 272.4375 154.054688 C 272.519531 153.992188 272.628906 153.960938 272.765625 153.960938 C 273.066406 153.960938 273.21875 154.121094 273.21875 154.445312 C 273.21875 155.070312 272.992188 155.609375 272.546875 156.070312 C 272.109375 156.539062 271.578125 156.773438 270.953125 156.773438 L 265.859375 156.773438 C 265.191406 156.773438 264.675781 156.546875 264.3125 156.101562 C 263.949219 155.664062 263.765625 155.117188 263.765625 154.460938 C 263.765625 154.125 263.914062 153.960938 264.203125 153.960938 Z M 265.375 160.28125 C 265.507812 160.28125 265.632812 160.328125 265.75 160.421875 C 265.875 160.515625 265.9375 160.613281 265.9375 160.71875 C 265.9375 160.78125 265.882812 160.867188 265.78125 160.984375 C 265.6875 161.097656 265.582031 161.210938 265.46875 161.328125 C 265.351562 161.441406 265.242188 161.625 265.140625 161.875 C 265.046875 162.125 264.988281 162.40625 264.96875 162.71875 L 268.15625 162.71875 L 268.40625 162.0625 C 268.457031 161.914062 268.550781 161.722656 268.6875 161.484375 C 268.820312 161.242188 268.957031 161.066406 269.09375 160.953125 C 269.238281 160.835938 269.429688 160.734375 269.671875 160.640625 C 269.910156 160.546875 270.175781 160.5 270.46875 160.5 C 270.832031 160.5 271.148438 160.5625 271.421875 160.6875 C 271.703125 160.8125 271.921875 160.984375 272.078125 161.203125 C 272.234375 161.429688 272.351562 161.664062 272.4375 161.90625 C 272.519531 162.15625 272.578125 162.425781 272.609375 162.71875 L 272.96875 162.71875 C 273.03125 162.71875 273.085938 162.742188 273.140625 162.796875 C 273.191406 162.859375 273.21875 162.9375 273.21875 163.03125 C 273.21875 163.101562 273.191406 163.171875 273.140625 163.234375 C 273.085938 163.304688 273.03125 163.34375 272.96875 163.34375 L 272.625 163.34375 C 272.601562 163.820312 272.519531 164.253906 272.375 164.640625 C 272.238281 165.035156 272.0625 165.234375 271.84375 165.234375 C 271.726562 165.234375 271.601562 165.191406 271.46875 165.109375 C 271.34375 165.035156 271.28125 164.929688 271.28125 164.796875 C 271.28125 164.765625 271.347656 164.597656 271.484375 164.296875 C 271.628906 164.003906 271.710938 163.6875 271.734375 163.34375 L 268.984375 163.34375 C 268.878906 163.65625 268.769531 163.910156 268.65625 164.109375 C 268.550781 164.316406 268.40625 164.535156 268.21875 164.765625 C 268.03125 164.992188 267.789062 165.164062 267.5 165.28125 C 267.207031 165.394531 266.863281 165.453125 266.46875 165.453125 C 265.769531 165.453125 265.210938 165.257812 264.796875 164.875 C 264.390625 164.5 264.144531 163.988281 264.0625 163.34375 L 263.625 163.34375 C 263.5625 163.34375 263.507812 163.304688 263.453125 163.234375 C 263.402344 163.171875 263.375 163.101562 263.375 163.03125 C 263.375 162.9375 263.402344 162.859375 263.453125 162.796875 C 263.507812 162.742188 263.5625 162.71875 263.625 162.71875 L 264.03125 162.71875 C 264.03125 162.03125 264.179688 161.453125 264.484375 160.984375 C 264.796875 160.515625 265.09375 160.28125 265.375 160.28125 Z M 270.5625 161.453125 C 270.1875 161.453125 269.90625 161.5625 269.71875 161.78125 C 269.53125 162 269.359375 162.328125 269.203125 162.765625 L 271.71875 162.765625 C 271.625 161.890625 271.238281 161.453125 270.5625 161.453125 Z M 265 163.296875 C 265.125 164.085938 265.582031 164.484375 266.375 164.484375 C 266.789062 164.484375 267.113281 164.378906 267.34375 164.171875 C 267.582031 163.972656 267.78125 163.679688 267.9375 163.296875 Z M 266.234375 168.816406 L 267.453125 168.816406 C 268.085938 168.816406 268.628906 169.027344 269.078125 169.457031 C 269.535156 169.882812 269.765625 170.386719 269.765625 170.972656 C 269.765625 171.335938 269.675781 171.652344 269.5 171.925781 C 269.320312 172.195312 269.101562 172.402344 268.84375 172.550781 L 272.765625 172.550781 C 272.867188 172.550781 272.953125 172.597656 273.015625 172.691406 C 273.085938 172.785156 273.125 172.902344 273.125 173.050781 C 273.125 173.195312 273.085938 173.308594 273.015625 173.394531 C 272.953125 173.488281 272.867188 173.535156 272.765625 173.535156 L 264.359375 173.535156 C 264.265625 173.535156 264.179688 173.488281 264.109375 173.394531 C 264.035156 173.300781 264 173.183594 264 173.050781 C 264 172.925781 264.035156 172.816406 264.109375 172.722656 C 264.179688 172.636719 264.265625 172.597656 264.359375 172.597656 L 264.84375 172.597656 C 264.582031 172.460938 264.359375 172.238281 264.171875 171.925781 C 263.996094 171.621094 263.90625 171.292969 263.90625 170.941406 C 263.90625 170.378906 264.140625 169.882812 264.609375 169.457031 C 265.078125 169.027344 265.617188 168.816406 266.234375 168.816406 Z M 266.234375 169.816406 C 265.867188 169.816406 265.535156 169.949219 265.234375 170.222656 C 264.941406 170.492188 264.796875 170.808594 264.796875 171.175781 C 264.796875 171.527344 264.929688 171.847656 265.203125 172.128906 C 265.472656 172.410156 265.707031 172.550781 265.90625 172.550781 L 267.453125 172.550781 C 267.867188 172.550781 268.207031 172.410156 268.46875 172.128906 C 268.726562 171.855469 268.859375 171.542969 268.859375 171.191406 C 268.859375 170.816406 268.710938 170.492188 268.421875 170.222656 C 268.140625 169.949219 267.816406 169.816406 267.453125 169.816406 Z M 266.234375 174.746094 L 267.484375 174.746094 C 268.109375 174.746094 268.644531 174.980469 269.09375 175.449219 C 269.539062 175.917969 269.765625 176.480469 269.765625 177.136719 C 269.765625 177.761719 269.550781 178.300781 269.125 178.761719 C 268.707031 179.21875 268.179688 179.449219 267.546875 179.449219 C 267.316406 179.449219 267.128906 179.417969 266.984375 179.355469 C 266.847656 179.300781 266.75 179.21875 266.6875 179.105469 C 266.632812 178.988281 266.597656 178.878906 266.578125 178.777344 C 266.566406 178.683594 266.5625 178.546875 266.5625 178.371094 L 266.5625 175.746094 L 266.203125 175.746094 C 265.753906 175.746094 265.398438 175.902344 265.140625 176.214844 C 264.878906 176.535156 264.75 176.949219 264.75 177.449219 C 264.75 177.71875 264.785156 177.949219 264.859375 178.136719 C 264.941406 178.332031 265.019531 178.488281 265.09375 178.605469 C 265.175781 178.730469 265.21875 178.828125 265.21875 178.902344 C 265.21875 179.015625 265.164062 179.109375 265.0625 179.183594 C 264.957031 179.265625 264.851562 179.308594 264.75 179.308594 C 264.570312 179.308594 264.382812 179.125 264.1875 178.761719 C 264 178.394531 263.90625 177.949219 263.90625 177.417969 C 263.90625 176.636719 264.117188 175.996094 264.546875 175.496094 C 264.972656 174.996094 265.535156 174.746094 266.234375 174.746094 Z M 267.234375 175.746094 L 267.234375 177.964844 C 267.234375 178.171875 267.257812 178.3125 267.3125 178.386719 C 267.363281 178.457031 267.460938 178.496094 267.609375 178.496094 C 267.972656 178.496094 268.289062 178.359375 268.5625 178.089844 C 268.832031 177.828125 268.96875 177.511719 268.96875 177.136719 C 268.96875 176.75 268.84375 176.421875 268.59375 176.152344 C 268.34375 175.878906 268.03125 175.746094 267.65625 175.746094 Z M 264.359375 180.542969 L 269.34375 180.542969 C 269.445312 180.542969 269.53125 180.589844 269.59375 180.683594 C 269.65625 180.777344 269.6875 180.894531 269.6875 181.042969 C 269.6875 181.15625 269.648438 181.261719 269.578125 181.355469 C 269.515625 181.449219 269.4375 181.496094 269.34375 181.496094 L 268.84375 181.496094 C 269.101562 181.621094 269.320312 181.824219 269.5 182.105469 C 269.675781 182.394531 269.765625 182.730469 269.765625 183.105469 C 269.765625 183.667969 269.535156 184.15625 269.078125 184.574219 C 268.628906 185 268.085938 185.214844 267.453125 185.214844 L 264.359375 185.214844 C 264.242188 185.214844 264.15625 185.160156 264.09375 185.058594 C 264.03125 184.964844 264 184.847656 264 184.714844 C 264 184.589844 264.03125 184.472656 264.09375 184.371094 C 264.15625 184.265625 264.242188 184.214844 264.359375 184.214844 L 267.453125 184.214844 C 267.816406 184.214844 268.140625 184.078125 268.421875 183.808594 C 268.710938 183.535156 268.859375 183.21875 268.859375 182.855469 C 268.859375 182.511719 268.726562 182.203125 268.46875 181.933594 C 268.207031 181.671875 267.867188 181.542969 267.453125 181.542969 L 264.359375 181.542969 C 264.273438 181.542969 264.191406 181.488281 264.109375 181.386719 C 264.035156 181.28125 264 181.167969 264 181.042969 C 264 180.90625 264.035156 180.785156 264.109375 180.683594 C 264.179688 180.589844 264.265625 180.542969 264.359375 180.542969 Z M 264.8125 186.238281 C 264.914062 186.238281 265.015625 186.269531 265.109375 186.332031 C 265.210938 186.402344 265.265625 186.488281 265.265625 186.582031 C 265.265625 186.644531 265.21875 186.730469 265.125 186.847656 C 265.03125 186.972656 264.9375 187.148438 264.84375 187.378906 C 264.75 187.605469 264.703125 187.871094 264.703125 188.175781 C 264.703125 188.570312 264.773438 188.855469 264.921875 189.035156 C 265.066406 189.222656 265.25 189.316406 265.46875 189.316406 C 265.726562 189.316406 265.9375 189.210938 266.09375 189.003906 C 266.25 188.804688 266.363281 188.558594 266.4375 188.269531 C 266.519531 187.988281 266.609375 187.699219 266.703125 187.410156 C 266.804688 187.128906 266.96875 186.882812 267.1875 186.675781 C 267.414062 186.476562 267.710938 186.378906 268.078125 186.378906 C 268.535156 186.378906 268.929688 186.539062 269.265625 186.863281 C 269.597656 187.183594 269.765625 187.679688 269.765625 188.347656 C 269.765625 188.773438 269.695312 189.160156 269.5625 189.503906 C 269.425781 189.855469 269.273438 190.035156 269.109375 190.035156 C 269.015625 190.035156 268.90625 189.996094 268.78125 189.925781 C 268.664062 189.851562 268.609375 189.757812 268.609375 189.644531 C 268.609375 189.613281 268.664062 189.457031 268.78125 189.175781 C 268.894531 188.902344 268.953125 188.632812 268.953125 188.363281 C 268.953125 187.996094 268.863281 187.722656 268.6875 187.535156 C 268.519531 187.355469 268.328125 187.269531 268.109375 187.269531 C 267.890625 187.269531 267.710938 187.367188 267.578125 187.566406 C 267.453125 187.761719 267.351562 188.007812 267.28125 188.300781 C 267.21875 188.601562 267.132812 188.894531 267.03125 189.175781 C 266.925781 189.464844 266.742188 189.710938 266.484375 189.910156 C 266.234375 190.105469 265.910156 190.207031 265.515625 190.207031 C 265.015625 190.207031 264.617188 190.027344 264.328125 189.675781 C 264.046875 189.332031 263.90625 188.839844 263.90625 188.207031 C 263.90625 187.664062 264 187.199219 264.1875 186.816406 C 264.382812 186.429688 264.59375 186.238281 264.8125 186.238281 Z M 271.421875 191.347656 C 271.535156 191.222656 271.664062 191.160156 271.8125 191.160156 C 271.96875 191.160156 272.101562 191.214844 272.21875 191.332031 C 272.332031 191.457031 272.390625 191.605469 272.390625 191.785156 C 272.390625 191.949219 272.332031 192.089844 272.21875 192.207031 C 272.101562 192.332031 271.96875 192.394531 271.8125 192.394531 C 271.664062 192.394531 271.535156 192.332031 271.421875 192.207031 C 271.304688 192.089844 271.25 191.949219 271.25 191.785156 C 271.25 191.617188 271.304688 191.472656 271.421875 191.347656 Z M 264.359375 191.285156 L 269.34375 191.285156 C 269.445312 191.285156 269.53125 191.332031 269.59375 191.425781 C 269.65625 191.527344 269.6875 191.648438 269.6875 191.785156 C 269.6875 191.929688 269.65625 192.050781 269.59375 192.144531 C 269.53125 192.238281 269.445312 192.285156 269.34375 192.285156 L 264.359375 192.285156 C 264.273438 192.285156 264.191406 192.230469 264.109375 192.128906 C 264.035156 192.035156 264 191.917969 264 191.785156 C 264 191.648438 264.035156 191.527344 264.109375 191.425781 C 264.179688 191.332031 264.265625 191.285156 264.359375 191.285156 Z M 265.8125 193.679688 L 271.984375 193.679688 C 272.085938 193.679688 272.171875 193.730469 272.234375 193.835938 C 272.304688 193.9375 272.34375 194.046875 272.34375 194.164062 C 272.34375 194.296875 272.304688 194.417969 272.234375 194.523438 C 272.171875 194.625 272.085938 194.679688 271.984375 194.679688 L 269.6875 194.679688 L 269.6875 196.179688 C 269.6875 196.273438 269.644531 196.34375 269.5625 196.398438 C 269.488281 196.449219 269.398438 196.476562 269.296875 196.476562 C 269.191406 196.476562 269.097656 196.449219 269.015625 196.398438 C 268.941406 196.34375 268.90625 196.273438 268.90625 196.179688 L 268.90625 194.679688 L 265.8125 194.679688 C 265.46875 194.679688 265.222656 194.75 265.078125 194.898438 C 264.941406 195.042969 264.875 195.296875 264.875 195.664062 L 264.875 196.039062 C 264.875 196.171875 264.832031 196.277344 264.75 196.351562 C 264.664062 196.433594 264.5625 196.476562 264.4375 196.476562 C 264.320312 196.476562 264.21875 196.433594 264.125 196.351562 C 264.039062 196.265625 264 196.164062 264 196.039062 L 264 195.664062 C 264 194.339844 264.601562 193.679688 265.8125 193.679688 Z M 269.28125 196.855469 C 269.40625 196.855469 269.515625 196.925781 269.609375 197.074219 C 269.710938 197.21875 269.765625 197.363281 269.765625 197.511719 C 269.765625 197.675781 269.695312 197.78125 269.5625 197.824219 L 265.375 199.417969 L 269.5625 200.839844 C 269.695312 200.902344 269.765625 201.003906 269.765625 201.152344 C 269.765625 201.285156 269.710938 201.425781 269.609375 201.574219 C 269.515625 201.730469 269.398438 201.808594 269.265625 201.808594 C 269.222656 201.808594 269.179688 201.792969 269.140625 201.761719 L 264.265625 199.949219 L 263.65625 199.714844 C 263.554688 199.671875 263.367188 199.589844 263.09375 199.464844 C 262.824219 199.347656 262.625 199.25 262.5 199.167969 C 262.375 199.09375 262.21875 198.984375 262.03125 198.839844 C 261.835938 198.691406 261.695312 198.550781 261.609375 198.417969 C 261.515625 198.28125 261.433594 198.121094 261.359375 197.933594 C 261.289062 197.746094 261.25 197.546875 261.25 197.339844 C 261.25 197.027344 261.402344 196.871094 261.703125 196.871094 C 261.984375 196.871094 262.125 196.964844 262.125 197.152344 C 262.125 197.515625 262.328125 197.863281 262.734375 198.199219 C 263.140625 198.542969 263.65625 198.777344 264.28125 198.902344 L 269.140625 196.902344 C 269.191406 196.871094 269.238281 196.855469 269.28125 196.855469 Z M 270.90625 204.464844 C 271.070312 204.464844 271.207031 204.535156 271.3125 204.683594 L 272.625 205.777344 C 272.726562 205.878906 272.78125 205.984375 272.78125 206.089844 C 272.78125 206.203125 272.75 206.308594 272.6875 206.402344 C 272.625 206.496094 272.535156 206.542969 272.421875 206.542969 L 264.359375 206.542969 C 264.242188 206.542969 264.15625 206.488281 264.09375 206.386719 C 264.03125 206.292969 264 206.171875 264 206.027344 C 264 205.890625 264.03125 205.769531 264.09375 205.667969 C 264.15625 205.574219 264.242188 205.527344 264.359375 205.527344 L 271.265625 205.527344 L 270.609375 205.089844 C 270.523438 205.003906 270.484375 204.921875 270.484375 204.839844 C 270.484375 204.734375 270.523438 204.644531 270.609375 204.574219 C 270.691406 204.5 270.789062 204.464844 270.90625 204.464844 Z M 266.546875 207.988281 L 270.15625 207.988281 C 271.0625 207.988281 271.722656 208.226562 272.140625 208.707031 C 272.554688 209.183594 272.765625 209.820312 272.765625 210.613281 C 272.765625 211.414062 272.554688 212.039062 272.140625 212.488281 C 271.734375 212.933594 271.25 213.160156 270.6875 213.160156 C 270.382812 213.160156 270.234375 213.003906 270.234375 212.691406 C 270.234375 212.347656 270.367188 212.175781 270.640625 212.175781 C 271.003906 212.175781 271.296875 212.023438 271.515625 211.722656 C 271.742188 211.417969 271.859375 211.042969 271.859375 210.597656 C 271.859375 209.535156 271.289062 209.003906 270.15625 209.003906 L 268.46875 209.003906 C 268.96875 209.386719 269.21875 209.972656 269.21875 210.753906 C 269.21875 212.355469 268.410156 213.160156 266.796875 213.160156 L 266.546875 213.160156 C 265.640625 213.160156 264.972656 212.925781 264.546875 212.457031 C 264.128906 211.988281 263.921875 211.363281 263.921875 210.582031 C 263.921875 209.800781 264.128906 209.167969 264.546875 208.691406 C 264.972656 208.222656 265.640625 207.988281 266.546875 207.988281 Z M 266.5 209.003906 C 265.363281 209.003906 264.796875 209.527344 264.796875 210.582031 C 264.796875 211.632812 265.363281 212.160156 266.5 212.160156 L 266.75 212.160156 C 267.832031 212.160156 268.375 211.632812 268.375 210.582031 C 268.375 209.527344 267.867188 209.003906 266.859375 209.003906 Z M 265.375 216.46875 C 265.507812 216.46875 265.632812 216.515625 265.75 216.609375 C 265.875 216.703125 265.9375 216.800781 265.9375 216.90625 C 265.9375 216.96875 265.882812 217.054688 265.78125 217.171875 C 265.6875 217.285156 265.582031 217.398438 265.46875 217.515625 C 265.351562 217.628906 265.242188 217.8125 265.140625 218.0625 C 265.046875 218.3125 264.988281 218.59375 264.96875 218.90625 L 268.15625 218.90625 L 268.40625 218.25 C 268.457031 218.101562 268.550781 217.910156 268.6875 217.671875 C 268.820312 217.429688 268.957031 217.253906 269.09375 217.140625 C 269.238281 217.023438 269.429688 216.921875 269.671875 216.828125 C 269.910156 216.734375 270.175781 216.6875 270.46875 216.6875 C 270.832031 216.6875 271.148438 216.75 271.421875 216.875 C 271.703125 217 271.921875 217.171875 272.078125 217.390625 C 272.234375 217.617188 272.351562 217.851562 272.4375 218.09375 C 272.519531 218.34375 272.578125 218.613281 272.609375 218.90625 L 272.96875 218.90625 C 273.03125 218.90625 273.085938 218.929688 273.140625 218.984375 C 273.191406 219.046875 273.21875 219.125 273.21875 219.21875 C 273.21875 219.289062 273.191406 219.359375 273.140625 219.421875 C 273.085938 219.492188 273.03125 219.53125 272.96875 219.53125 L 272.625 219.53125 C 272.601562 220.007812 272.519531 220.441406 272.375 220.828125 C 272.238281 221.222656 272.0625 221.421875 271.84375 221.421875 C 271.726562 221.421875 271.601562 221.378906 271.46875 221.296875 C 271.34375 221.222656 271.28125 221.117188 271.28125 220.984375 C 271.28125 220.953125 271.347656 220.785156 271.484375 220.484375 C 271.628906 220.191406 271.710938 219.875 271.734375 219.53125 L 268.984375 219.53125 C 268.878906 219.84375 268.769531 220.097656 268.65625 220.296875 C 268.550781 220.503906 268.40625 220.722656 268.21875 220.953125 C 268.03125 221.179688 267.789062 221.351562 267.5 221.46875 C 267.207031 221.582031 266.863281 221.640625 266.46875 221.640625 C 265.769531 221.640625 265.210938 221.445312 264.796875 221.0625 C 264.390625 220.6875 264.144531 220.175781 264.0625 219.53125 L 263.625 219.53125 C 263.5625 219.53125 263.507812 219.492188 263.453125 219.421875 C 263.402344 219.359375 263.375 219.289062 263.375 219.21875 C 263.375 219.125 263.402344 219.046875 263.453125 218.984375 C 263.507812 218.929688 263.5625 218.90625 263.625 218.90625 L 264.03125 218.90625 C 264.03125 218.21875 264.179688 217.640625 264.484375 217.171875 C 264.796875 216.703125 265.09375 216.46875 265.375 216.46875 Z M 270.5625 217.640625 C 270.1875 217.640625 269.90625 217.75 269.71875 217.96875 C 269.53125 218.1875 269.359375 218.515625 269.203125 218.953125 L 271.71875 218.953125 C 271.625 218.078125 271.238281 217.640625 270.5625 217.640625 Z M 265 219.484375 C 265.125 220.273438 265.582031 220.671875 266.375 220.671875 C 266.789062 220.671875 267.113281 220.566406 267.34375 220.359375 C 267.582031 220.160156 267.78125 219.867188 267.9375 219.484375 Z M 272.921875 224.9375 C 273.003906 224.9375 273.070312 224.976562 273.125 225.0625 C 273.1875 225.15625 273.21875 225.253906 273.21875 225.359375 C 273.21875 225.472656 273.1875 225.578125 273.125 225.671875 C 273.070312 225.765625 273.003906 225.8125 272.921875 225.8125 L 271.171875 225.6875 C 271.085938 225.6875 271.015625 225.660156 270.953125 225.609375 C 270.890625 225.554688 270.859375 225.476562 270.859375 225.375 C 270.859375 225.164062 270.960938 225.0625 271.171875 225.0625 Z M 272.921875 226.5625 C 273.003906 226.5625 273.070312 226.601562 273.125 226.6875 C 273.1875 226.78125 273.21875 226.882812 273.21875 227 C 273.21875 227.113281 273.1875 227.210938 273.125 227.296875 C 273.070312 227.390625 273.003906 227.4375 272.921875 227.4375 L 271.171875 227.328125 C 271.085938 227.328125 271.015625 227.296875 270.953125 227.234375 C 270.890625 227.179688 270.859375 227.101562 270.859375 227 C 270.859375 226.789062 270.960938 226.6875 271.171875 226.6875 Z M 262.875 228.132812 C 263.460938 228.132812 263.898438 228.453125 264.1875 229.101562 C 264.332031 228.695312 264.597656 228.492188 264.984375 228.492188 C 265.347656 228.492188 265.644531 228.6875 265.875 229.085938 C 266.238281 228.636719 266.742188 228.414062 267.390625 228.414062 L 267.78125 228.414062 C 268.363281 228.414062 268.835938 228.605469 269.203125 228.992188 C 269.578125 229.386719 269.765625 229.902344 269.765625 230.539062 C 269.765625 231.078125 269.609375 231.546875 269.296875 231.945312 C 269.816406 232.183594 270.078125 232.453125 270.078125 232.757812 C 270.078125 232.890625 270.035156 232.996094 269.953125 233.070312 C 269.878906 233.152344 269.796875 233.195312 269.703125 233.195312 C 269.578125 233.195312 269.484375 233.125 269.421875 232.992188 C 269.347656 232.71875 269.179688 232.5 268.921875 232.335938 C 268.617188 232.585938 268.238281 232.710938 267.78125 232.710938 L 267.390625 232.710938 C 266.804688 232.710938 266.328125 232.507812 265.953125 232.101562 C 265.578125 231.695312 265.390625 231.171875 265.390625 230.539062 C 265.390625 230.214844 265.453125 229.917969 265.578125 229.648438 C 265.453125 229.449219 265.3125 229.351562 265.15625 229.351562 C 265.007812 229.351562 264.894531 229.445312 264.8125 229.632812 C 264.726562 229.820312 264.675781 230.046875 264.65625 230.320312 C 264.632812 230.589844 264.59375 230.882812 264.53125 231.195312 C 264.476562 231.515625 264.40625 231.8125 264.3125 232.085938 C 264.226562 232.355469 264.078125 232.585938 263.859375 232.773438 C 263.632812 232.960938 263.34375 233.054688 263 233.054688 C 262.4375 233.054688 262.007812 232.824219 261.703125 232.367188 C 261.402344 231.917969 261.25 231.335938 261.25 230.617188 C 261.25 229.898438 261.398438 229.304688 261.6875 228.835938 C 261.980469 228.367188 262.375 228.132812 262.875 228.132812 Z M 262.984375 229.085938 C 262.671875 229.085938 262.421875 229.21875 262.234375 229.492188 C 262.046875 229.773438 261.953125 230.140625 261.953125 230.601562 C 261.953125 231.046875 262.046875 231.40625 262.234375 231.679688 C 262.421875 231.949219 262.671875 232.085938 262.984375 232.085938 C 263.109375 232.085938 263.21875 232.058594 263.3125 232.007812 C 263.40625 231.964844 263.492188 231.898438 263.5625 231.804688 C 263.625 231.710938 263.679688 231.609375 263.71875 231.507812 C 263.761719 231.414062 263.796875 231.289062 263.828125 231.132812 C 263.859375 230.984375 263.882812 230.859375 263.890625 230.757812 C 263.902344 230.664062 263.917969 230.53125 263.9375 230.367188 C 263.949219 230.199219 263.960938 230.085938 263.96875 230.023438 C 263.761719 229.398438 263.433594 229.085938 262.984375 229.085938 Z M 267.390625 229.382812 C 267.003906 229.382812 266.6875 229.484375 266.4375 229.695312 C 266.195312 229.902344 266.078125 230.195312 266.078125 230.570312 C 266.078125 230.921875 266.195312 231.203125 266.4375 231.414062 C 266.6875 231.632812 267.003906 231.742188 267.390625 231.742188 L 267.78125 231.742188 C 268.144531 231.742188 268.453125 231.632812 268.703125 231.414062 C 268.953125 231.203125 269.078125 230.917969 269.078125 230.554688 C 269.078125 230.1875 268.953125 229.902344 268.703125 229.695312 C 268.460938 229.484375 268.15625 229.382812 267.78125 229.382812 Z M 264.359375 234.050781 L 269.34375 234.050781 C 269.445312 234.050781 269.53125 234.097656 269.59375 234.191406 C 269.65625 234.285156 269.6875 234.402344 269.6875 234.550781 C 269.6875 234.675781 269.65625 234.777344 269.59375 234.863281 C 269.53125 234.957031 269.445312 235.003906 269.34375 235.003906 L 268.78125 235.003906 C 269.050781 235.148438 269.28125 235.363281 269.46875 235.644531 C 269.664062 235.925781 269.765625 236.238281 269.765625 236.582031 L 269.765625 236.988281 C 269.765625 237.089844 269.71875 237.179688 269.625 237.253906 C 269.53125 237.324219 269.421875 237.363281 269.296875 237.363281 C 269.179688 237.363281 269.078125 237.324219 268.984375 237.253906 C 268.898438 237.179688 268.859375 237.089844 268.859375 236.988281 L 268.859375 236.582031 C 268.859375 236.164062 268.691406 235.804688 268.359375 235.503906 C 268.035156 235.199219 267.613281 235.050781 267.09375 235.050781 L 264.359375 235.050781 C 264.273438 235.050781 264.191406 234.996094 264.109375 234.894531 C 264.035156 234.800781 264 234.683594 264 234.550781 C 264 234.414062 264.035156 234.292969 264.109375 234.191406 C 264.179688 234.097656 264.265625 234.050781 264.359375 234.050781 Z M 266.234375 237.960938 L 267.484375 237.960938 C 268.109375 237.960938 268.644531 238.195312 269.09375 238.664062 C 269.539062 239.132812 269.765625 239.695312 269.765625 240.351562 C 269.765625 240.976562 269.550781 241.515625 269.125 241.976562 C 268.707031 242.433594 268.179688 242.664062 267.546875 242.664062 C 267.316406 242.664062 267.128906 242.632812 266.984375 242.570312 C 266.847656 242.515625 266.75 242.433594 266.6875 242.320312 C 266.632812 242.203125 266.597656 242.09375 266.578125 241.992188 C 266.566406 241.898438 266.5625 241.761719 266.5625 241.585938 L 266.5625 238.960938 L 266.203125 238.960938 C 265.753906 238.960938 265.398438 239.117188 265.140625 239.429688 C 264.878906 239.75 264.75 240.164062 264.75 240.664062 C 264.75 240.933594 264.785156 241.164062 264.859375 241.351562 C 264.941406 241.546875 265.019531 241.703125 265.09375 241.820312 C 265.175781 241.945312 265.21875 242.042969 265.21875 242.117188 C 265.21875 242.230469 265.164062 242.324219 265.0625 242.398438 C 264.957031 242.480469 264.851562 242.523438 264.75 242.523438 C 264.570312 242.523438 264.382812 242.339844 264.1875 241.976562 C 264 241.609375 263.90625 241.164062 263.90625 240.632812 C 263.90625 239.851562 264.117188 239.210938 264.546875 238.710938 C 264.972656 238.210938 265.535156 237.960938 266.234375 237.960938 Z M 267.234375 238.960938 L 267.234375 241.179688 C 267.234375 241.386719 267.257812 241.527344 267.3125 241.601562 C 267.363281 241.671875 267.460938 241.710938 267.609375 241.710938 C 267.972656 241.710938 268.289062 241.574219 268.5625 241.304688 C 268.832031 241.042969 268.96875 240.726562 268.96875 240.351562 C 268.96875 239.964844 268.84375 239.636719 268.59375 239.367188 C 268.34375 239.09375 268.03125 238.960938 267.65625 238.960938 Z M 269.28125 243.199219 C 269.40625 243.199219 269.515625 243.269531 269.609375 243.417969 C 269.710938 243.5625 269.765625 243.707031 269.765625 243.855469 C 269.765625 244.019531 269.695312 244.125 269.5625 244.167969 L 265.375 245.761719 L 269.5625 247.183594 C 269.695312 247.246094 269.765625 247.347656 269.765625 247.496094 C 269.765625 247.628906 269.710938 247.769531 269.609375 247.917969 C 269.515625 248.074219 269.398438 248.152344 269.265625 248.152344 C 269.222656 248.152344 269.179688 248.136719 269.140625 248.105469 L 264.265625 246.292969 L 263.65625 246.058594 C 263.554688 246.015625 263.367188 245.933594 263.09375 245.808594 C 262.824219 245.691406 262.625 245.59375 262.5 245.511719 C 262.375 245.4375 262.21875 245.328125 262.03125 245.183594 C 261.835938 245.035156 261.695312 244.894531 261.609375 244.761719 C 261.515625 244.625 261.433594 244.464844 261.359375 244.277344 C 261.289062 244.089844 261.25 243.890625 261.25 243.683594 C 261.25 243.371094 261.402344 243.214844 261.703125 243.214844 C 261.984375 243.214844 262.125 243.308594 262.125 243.496094 C 262.125 243.859375 262.328125 244.207031 262.734375 244.542969 C 263.140625 244.886719 263.65625 245.121094 264.28125 245.246094 L 269.140625 243.246094 C 269.191406 243.214844 269.238281 243.199219 269.28125 243.199219 Z M 264.359375 251.421875 L 272.765625 251.421875 C 272.867188 251.421875 272.953125 251.46875 273.015625 251.5625 C 273.085938 251.65625 273.125 251.769531 273.125 251.90625 C 273.125 252.050781 273.085938 252.171875 273.015625 252.265625 C 272.953125 252.367188 272.867188 252.421875 272.765625 252.421875 L 268.84375 252.421875 C 269.101562 252.566406 269.320312 252.773438 269.5 253.046875 C 269.675781 253.316406 269.765625 253.628906 269.765625 253.984375 C 269.765625 254.566406 269.535156 255.070312 269.078125 255.5 C 268.628906 255.925781 268.085938 256.140625 267.453125 256.140625 L 266.234375 256.140625 C 265.617188 256.140625 265.078125 255.925781 264.609375 255.5 C 264.140625 255.070312 263.90625 254.582031 263.90625 254.03125 C 263.90625 253.664062 263.996094 253.332031 264.171875 253.03125 C 264.359375 252.726562 264.582031 252.507812 264.84375 252.375 L 264.359375 252.375 C 264.265625 252.375 264.179688 252.328125 264.109375 252.234375 C 264.035156 252.140625 264 252.035156 264 251.921875 C 264 251.785156 264.035156 251.664062 264.109375 251.5625 C 264.179688 251.46875 264.265625 251.421875 264.359375 251.421875 Z M 265.90625 252.421875 C 265.707031 252.421875 265.472656 252.5625 265.203125 252.84375 C 264.929688 253.125 264.796875 253.4375 264.796875 253.78125 C 264.796875 254.144531 264.941406 254.460938 265.234375 254.734375 C 265.535156 255.003906 265.867188 255.140625 266.234375 255.140625 L 267.453125 255.140625 C 267.816406 255.140625 268.140625 255.003906 268.421875 254.734375 C 268.710938 254.460938 268.859375 254.144531 268.859375 253.78125 C 268.859375 253.414062 268.726562 253.097656 268.46875 252.828125 C 268.207031 252.554688 267.867188 252.421875 267.453125 252.421875 Z M 264.359375 257.441406 L 272.765625 257.441406 C 272.867188 257.441406 272.953125 257.488281 273.015625 257.582031 C 273.085938 257.675781 273.125 257.792969 273.125 257.941406 C 273.125 258.085938 273.085938 258.207031 273.015625 258.300781 C 272.953125 258.394531 272.867188 258.441406 272.765625 258.441406 L 264.359375 258.441406 C 264.273438 258.441406 264.191406 258.386719 264.109375 258.285156 C 264.035156 258.191406 264 258.074219 264 257.941406 C 264 257.804688 264.035156 257.683594 264.109375 257.582031 C 264.179688 257.488281 264.265625 257.441406 264.359375 257.441406 Z M 265.5 259.601562 C 266.125 259.601562 266.554688 259.839844 266.796875 260.320312 C 267.046875 260.796875 267.171875 261.492188 267.171875 262.398438 L 267.171875 262.976562 L 267.421875 262.976562 C 267.816406 262.976562 268.160156 262.867188 268.453125 262.648438 C 268.753906 262.429688 268.90625 262.101562 268.90625 261.664062 C 268.90625 261.320312 268.847656 261.015625 268.734375 260.757812 C 268.617188 260.507812 268.5625 260.371094 268.5625 260.351562 C 268.5625 260.234375 268.613281 260.140625 268.71875 260.070312 C 268.832031 260.007812 268.945312 259.976562 269.0625 259.976562 C 269.25 259.976562 269.410156 260.15625 269.546875 260.523438 C 269.691406 260.886719 269.765625 261.273438 269.765625 261.679688 C 269.765625 262.460938 269.539062 263.039062 269.09375 263.414062 C 268.644531 263.789062 268.09375 263.976562 267.4375 263.976562 L 264.359375 263.976562 C 264.253906 263.976562 264.164062 263.929688 264.09375 263.835938 C 264.03125 263.742188 264 263.621094 264 263.476562 C 264 263.351562 264.03125 263.242188 264.09375 263.148438 C 264.164062 263.0625 264.253906 263.023438 264.359375 263.023438 L 264.84375 263.023438 C 264.21875 262.480469 263.90625 261.875 263.90625 261.210938 C 263.90625 260.730469 264.039062 260.339844 264.3125 260.039062 C 264.582031 259.746094 264.976562 259.601562 265.5 259.601562 Z M 265.609375 260.601562 C 265.304688 260.601562 265.078125 260.683594 264.921875 260.851562 C 264.773438 261.015625 264.703125 261.242188 264.703125 261.523438 C 264.703125 261.855469 264.835938 262.179688 265.109375 262.492188 C 265.378906 262.8125 265.65625 262.976562 265.9375 262.976562 L 266.5625 262.976562 L 266.5625 262.554688 C 266.5625 262.324219 266.550781 262.125 266.53125 261.960938 C 266.519531 261.792969 266.492188 261.617188 266.453125 261.429688 C 266.421875 261.25 266.367188 261.105469 266.296875 260.992188 C 266.234375 260.875 266.144531 260.78125 266.03125 260.710938 C 265.914062 260.636719 265.773438 260.601562 265.609375 260.601562 Z M 266.234375 265.132812 L 267.4375 265.132812 C 268.125 265.132812 268.679688 265.335938 269.109375 265.742188 C 269.546875 266.148438 269.765625 266.742188 269.765625 267.523438 C 269.765625 268.023438 269.675781 268.4375 269.5 268.773438 C 269.320312 269.117188 269.132812 269.289062 268.9375 269.289062 C 268.820312 269.289062 268.707031 269.246094 268.59375 269.164062 C 268.488281 269.078125 268.4375 268.980469 268.4375 268.867188 C 268.4375 268.835938 268.503906 268.695312 268.640625 268.445312 C 268.785156 268.203125 268.859375 267.921875 268.859375 267.601562 C 268.859375 267.121094 268.734375 266.757812 268.484375 266.507812 C 268.234375 266.257812 267.882812 266.132812 267.4375 266.132812 L 266.234375 266.132812 C 265.273438 266.132812 264.796875 266.621094 264.796875 267.601562 C 264.796875 267.945312 264.867188 268.234375 265.015625 268.476562 C 265.160156 268.726562 265.234375 268.871094 265.234375 268.914062 C 265.234375 269.039062 265.179688 269.140625 265.078125 269.226562 C 264.972656 269.320312 264.863281 269.367188 264.75 269.367188 C 264.550781 269.367188 264.359375 269.1875 264.171875 268.835938 C 263.996094 268.480469 263.90625 268.046875 263.90625 267.539062 C 263.90625 266.746094 264.117188 266.148438 264.546875 265.742188 C 264.972656 265.335938 265.535156 265.132812 266.234375 265.132812 Z M 264.359375 270.355469 L 272.765625 270.355469 C 272.867188 270.355469 272.953125 270.402344 273.015625 270.496094 C 273.085938 270.589844 273.125 270.703125 273.125 270.839844 C 273.125 270.984375 273.085938 271.105469 273.015625 271.199219 C 272.953125 271.300781 272.867188 271.355469 272.765625 271.355469 L 267.15625 271.355469 L 269.625 274.089844 C 269.6875 274.160156 269.71875 274.234375 269.71875 274.308594 C 269.71875 274.421875 269.664062 274.53125 269.5625 274.636719 C 269.46875 274.75 269.363281 274.808594 269.25 274.808594 C 269.144531 274.808594 269.0625 274.769531 269 274.699219 L 267.53125 273.027344 L 264.640625 275.027344 C 264.578125 275.066406 264.515625 275.089844 264.453125 275.089844 C 264.335938 275.089844 264.222656 275.027344 264.109375 274.902344 C 264.003906 274.785156 263.953125 274.660156 263.953125 274.527344 C 263.953125 274.421875 264.003906 274.332031 264.109375 274.261719 L 266.90625 272.355469 L 266.015625 271.355469 L 264.359375 271.355469 C 264.273438 271.355469 264.191406 271.300781 264.109375 271.199219 C 264.035156 271.105469 264 270.988281 264 270.855469 C 264 270.71875 264.035156 270.597656 264.109375 270.496094 C 264.179688 270.402344 264.265625 270.355469 264.359375 270.355469 Z M 272.921875 275.664062 C 273.003906 275.664062 273.070312 275.703125 273.125 275.789062 C 273.1875 275.882812 273.21875 275.980469 273.21875 276.085938 C 273.21875 276.199219 273.1875 276.304688 273.125 276.398438 C 273.070312 276.492188 273.003906 276.539062 272.921875 276.539062 L 271.171875 276.414062 C 271.085938 276.414062 271.015625 276.386719 270.953125 276.335938 C 270.890625 276.28125 270.859375 276.203125 270.859375 276.101562 C 270.859375 275.890625 270.960938 275.789062 271.171875 275.789062 Z M 272.921875 277.289062 C 273.003906 277.289062 273.070312 277.328125 273.125 277.414062 C 273.1875 277.507812 273.21875 277.609375 273.21875 277.726562 C 273.21875 277.839844 273.1875 277.9375 273.125 278.023438 C 273.070312 278.117188 273.003906 278.164062 272.921875 278.164062 L 271.171875 278.054688 C 271.085938 278.054688 271.015625 278.023438 270.953125 277.960938 C 270.890625 277.90625 270.859375 277.828125 270.859375 277.726562 C 270.859375 277.515625 270.960938 277.414062 271.171875 277.414062 Z M 264 278.589844 "/>
</g>
</svg>
