<?xml version="1.0" encoding="UTF-8"?>
<svg xmlns="http://www.w3.org/2000/svg" xmlns:xlink="http://www.w3.org/1999/xlink" width="136pt" height="566pt" viewBox="0 0 136 566" version="1.1">
<g id="surface1">
<path style=" stroke:none;fill-rule:nonzero;fill:rgb(0%,0%,0%);fill-opacity:1;" d="M 0 0 L 116 0 L 116 566 L 0 566 Z M 0 0 "/>
<path style=" stroke:none;fill-rule:nonzero;fill:rgb(0%,0%,0%);fill-opacity:1;" d="M 0 0 L 58 0 L 58 566 L 0 566 Z M 0 0 "/>
<path style=" stroke:none;fill-rule:nonzero;fill:rgb(100%,100%,100%);fill-opacity:1;" d="M 58 0 L 116 0 L 116 566 L 58 566 Z M 58 0 "/>
<path style=" stroke:none;fill-rule:nonzero;fill:rgb(0%,0%,0%);fill-opacity:1;" d="M 121.359375 5.703125 L 126.34375 5.703125 C 126.445312 5.703125 126.53125 5.75 126.59375 5.84375 C 126.65625 5.9375 126.6875 6.054688 126.6875 6.203125 C 126.6875 6.328125 126.65625 6.429688 126.59375 6.515625 C 126.53125 6.609375 126.445312 6.65625 126.34375 6.65625 L 125.78125 6.65625 C 126.050781 6.800781 126.28125 7.015625 126.46875 7.296875 C 126.664062 7.578125 126.765625 7.890625 126.765625 8.234375 L 126.765625 8.640625 C 126.765625 8.742188 126.71875 8.832031 126.625 8.90625 C 126.53125 8.976562 126.421875 9.015625 126.296875 9.015625 C 126.179688 9.015625 126.078125 8.976562 125.984375 8.90625 C 125.898438 8.832031 125.859375 8.742188 125.859375 8.640625 L 125.859375 8.234375 C 125.859375 7.816406 125.691406 7.457031 125.359375 7.15625 C 125.035156 6.851562 124.613281 6.703125 124.09375 6.703125 L 121.359375 6.703125 C 121.273438 6.703125 121.191406 6.648438 121.109375 6.546875 C 121.035156 6.453125 121 6.335938 121 6.203125 C 121 6.066406 121.035156 5.945312 121.109375 5.84375 C 121.179688 5.75 121.265625 5.703125 121.359375 5.703125 Z M 123.234375 9.613281 L 124.484375 9.613281 C 125.109375 9.613281 125.644531 9.847656 126.09375 10.316406 C 126.539062 10.785156 126.765625 11.347656 126.765625 12.003906 C 126.765625 12.628906 126.550781 13.167969 126.125 13.628906 C 125.707031 14.085938 125.179688 14.316406 124.546875 14.316406 C 124.316406 14.316406 124.128906 14.285156 123.984375 14.222656 C 123.847656 14.167969 123.75 14.085938 123.6875 13.972656 C 123.632812 13.855469 123.597656 13.746094 123.578125 13.644531 C 123.566406 13.550781 123.5625 13.414062 123.5625 13.238281 L 123.5625 10.613281 L 123.203125 10.613281 C 122.753906 10.613281 122.398438 10.769531 122.140625 11.082031 C 121.878906 11.402344 121.75 11.816406 121.75 12.316406 C 121.75 12.585938 121.785156 12.816406 121.859375 13.003906 C 121.941406 13.199219 122.019531 13.355469 122.09375 13.472656 C 122.175781 13.597656 122.21875 13.695312 122.21875 13.769531 C 122.21875 13.882812 122.164062 13.976562 122.0625 14.050781 C 121.957031 14.132812 121.851562 14.175781 121.75 14.175781 C 121.570312 14.175781 121.382812 13.992188 121.1875 13.628906 C 121 13.261719 120.90625 12.816406 120.90625 12.285156 C 120.90625 11.503906 121.117188 10.863281 121.546875 10.363281 C 121.972656 9.863281 122.535156 9.613281 123.234375 9.613281 Z M 124.234375 10.613281 L 124.234375 12.832031 C 124.234375 13.039062 124.257812 13.179688 124.3125 13.253906 C 124.363281 13.324219 124.460938 13.363281 124.609375 13.363281 C 124.972656 13.363281 125.289062 13.226562 125.5625 12.957031 C 125.832031 12.695312 125.96875 12.378906 125.96875 12.003906 C 125.96875 11.617188 125.84375 11.289062 125.59375 11.019531 C 125.34375 10.746094 125.03125 10.613281 124.65625 10.613281 Z M 123.234375 15.191406 L 124.453125 15.191406 C 125.085938 15.191406 125.628906 15.402344 126.078125 15.832031 C 126.535156 16.257812 126.765625 16.761719 126.765625 17.347656 C 126.765625 17.710938 126.675781 18.027344 126.5 18.300781 C 126.320312 18.570312 126.101562 18.777344 125.84375 18.925781 L 129.765625 18.925781 C 129.867188 18.925781 129.953125 18.972656 130.015625 19.066406 C 130.085938 19.160156 130.125 19.277344 130.125 19.425781 C 130.125 19.570312 130.085938 19.683594 130.015625 19.769531 C 129.953125 19.863281 129.867188 19.910156 129.765625 19.910156 L 121.359375 19.910156 C 121.265625 19.910156 121.179688 19.863281 121.109375 19.769531 C 121.035156 19.675781 121 19.558594 121 19.425781 C 121 19.300781 121.035156 19.191406 121.109375 19.097656 C 121.179688 19.011719 121.265625 18.972656 121.359375 18.972656 L 121.84375 18.972656 C 121.582031 18.835938 121.359375 18.613281 121.171875 18.300781 C 120.996094 17.996094 120.90625 17.667969 120.90625 17.316406 C 120.90625 16.753906 121.140625 16.257812 121.609375 15.832031 C 122.078125 15.402344 122.617188 15.191406 123.234375 15.191406 Z M 123.234375 16.191406 C 122.867188 16.191406 122.535156 16.324219 122.234375 16.597656 C 121.941406 16.867188 121.796875 17.183594 121.796875 17.550781 C 121.796875 17.902344 121.929688 18.222656 122.203125 18.503906 C 122.472656 18.785156 122.707031 18.925781 122.90625 18.925781 L 124.453125 18.925781 C 124.867188 18.925781 125.207031 18.785156 125.46875 18.503906 C 125.726562 18.230469 125.859375 17.917969 125.859375 17.566406 C 125.859375 17.191406 125.710938 16.867188 125.421875 16.597656 C 125.140625 16.324219 124.816406 16.191406 124.453125 16.191406 Z M 121.359375 23.753906 L 129.765625 23.753906 C 129.867188 23.753906 129.953125 23.800781 130.015625 23.894531 C 130.085938 23.988281 130.125 24.101562 130.125 24.238281 C 130.125 24.382812 130.085938 24.503906 130.015625 24.597656 C 129.953125 24.699219 129.867188 24.753906 129.765625 24.753906 L 125.84375 24.753906 C 126.101562 24.898438 126.320312 25.105469 126.5 25.378906 C 126.675781 25.648438 126.765625 25.960938 126.765625 26.316406 C 126.765625 26.898438 126.535156 27.402344 126.078125 27.832031 C 125.628906 28.257812 125.085938 28.472656 124.453125 28.472656 L 123.234375 28.472656 C 122.617188 28.472656 122.078125 28.257812 121.609375 27.832031 C 121.140625 27.402344 120.90625 26.914062 120.90625 26.363281 C 120.90625 25.996094 120.996094 25.664062 121.171875 25.363281 C 121.359375 25.058594 121.582031 24.839844 121.84375 24.707031 L 121.359375 24.707031 C 121.265625 24.707031 121.179688 24.660156 121.109375 24.566406 C 121.035156 24.472656 121 24.367188 121 24.253906 C 121 24.117188 121.035156 23.996094 121.109375 23.894531 C 121.179688 23.800781 121.265625 23.753906 121.359375 23.753906 Z M 122.90625 24.753906 C 122.707031 24.753906 122.472656 24.894531 122.203125 25.175781 C 121.929688 25.457031 121.796875 25.769531 121.796875 26.113281 C 121.796875 26.476562 121.941406 26.792969 122.234375 27.066406 C 122.535156 27.335938 122.867188 27.472656 123.234375 27.472656 L 124.453125 27.472656 C 124.816406 27.472656 125.140625 27.335938 125.421875 27.066406 C 125.710938 26.792969 125.859375 26.476562 125.859375 26.113281 C 125.859375 25.746094 125.726562 25.429688 125.46875 25.160156 C 125.207031 24.886719 124.867188 24.753906 124.453125 24.753906 Z M 121.359375 29.777344 L 129.765625 29.777344 C 129.867188 29.777344 129.953125 29.824219 130.015625 29.917969 C 130.085938 30.011719 130.125 30.128906 130.125 30.277344 C 130.125 30.421875 130.085938 30.542969 130.015625 30.636719 C 129.953125 30.730469 129.867188 30.777344 129.765625 30.777344 L 121.359375 30.777344 C 121.273438 30.777344 121.191406 30.722656 121.109375 30.621094 C 121.035156 30.527344 121 30.410156 121 30.277344 C 121 30.140625 121.035156 30.019531 121.109375 29.917969 C 121.179688 29.824219 121.265625 29.777344 121.359375 29.777344 Z M 123.203125 32.25 L 126.328125 32.25 C 126.421875 32.25 126.503906 32.296875 126.578125 32.390625 C 126.648438 32.492188 126.6875 32.613281 126.6875 32.75 C 126.6875 32.882812 126.644531 33 126.5625 33.09375 C 126.488281 33.195312 126.410156 33.25 126.328125 33.25 L 123.203125 33.25 C 122.847656 33.25 122.523438 33.382812 122.234375 33.65625 C 121.941406 33.925781 121.796875 34.25 121.796875 34.625 C 121.796875 35 121.9375 35.320312 122.21875 35.59375 C 122.507812 35.863281 122.835938 36 123.203125 36 L 126.34375 36 C 126.425781 36 126.503906 36.046875 126.578125 36.140625 C 126.648438 36.242188 126.6875 36.363281 126.6875 36.5 C 126.6875 36.644531 126.648438 36.765625 126.578125 36.859375 C 126.515625 36.953125 126.4375 37 126.34375 37 L 123.203125 37 C 122.585938 37 122.050781 36.765625 121.59375 36.296875 C 121.132812 35.828125 120.90625 35.269531 120.90625 34.625 C 120.90625 33.976562 121.132812 33.421875 121.59375 32.953125 C 122.050781 32.484375 122.585938 32.25 123.203125 32.25 Z M 123.234375 38.136719 L 124.484375 38.136719 C 125.109375 38.136719 125.644531 38.371094 126.09375 38.839844 C 126.539062 39.308594 126.765625 39.871094 126.765625 40.527344 C 126.765625 41.152344 126.550781 41.691406 126.125 42.152344 C 125.707031 42.609375 125.179688 42.839844 124.546875 42.839844 C 124.316406 42.839844 124.128906 42.808594 123.984375 42.746094 C 123.847656 42.691406 123.75 42.609375 123.6875 42.496094 C 123.632812 42.378906 123.597656 42.269531 123.578125 42.167969 C 123.566406 42.074219 123.5625 41.9375 123.5625 41.761719 L 123.5625 39.136719 L 123.203125 39.136719 C 122.753906 39.136719 122.398438 39.292969 122.140625 39.605469 C 121.878906 39.925781 121.75 40.339844 121.75 40.839844 C 121.75 41.109375 121.785156 41.339844 121.859375 41.527344 C 121.941406 41.722656 122.019531 41.878906 122.09375 41.996094 C 122.175781 42.121094 122.21875 42.21875 122.21875 42.292969 C 122.21875 42.40625 122.164062 42.5 122.0625 42.574219 C 121.957031 42.65625 121.851562 42.699219 121.75 42.699219 C 121.570312 42.699219 121.382812 42.515625 121.1875 42.152344 C 121 41.785156 120.90625 41.339844 120.90625 40.808594 C 120.90625 40.027344 121.117188 39.386719 121.546875 38.886719 C 121.972656 38.386719 122.535156 38.136719 123.234375 38.136719 Z M 124.234375 39.136719 L 124.234375 41.355469 C 124.234375 41.5625 124.257812 41.703125 124.3125 41.777344 C 124.363281 41.847656 124.460938 41.886719 124.609375 41.886719 C 124.972656 41.886719 125.289062 41.75 125.5625 41.480469 C 125.832031 41.21875 125.96875 40.902344 125.96875 40.527344 C 125.96875 40.140625 125.84375 39.8125 125.59375 39.542969 C 125.34375 39.269531 125.03125 39.136719 124.65625 39.136719 Z M 121 43.230469 "/>
</g>
</svg>
