<?xml version="1.0" encoding="UTF-8"?>
<svg xmlns="http://www.w3.org/2000/svg" xmlns:xlink="http://www.w3.org/1999/xlink" width="136pt" height="566pt" viewBox="0 0 136 566" version="1.1">
<g id="surface201">
<path style=" stroke:none;fill-rule:nonzero;fill:rgb(0%,0%,0%);fill-opacity:1;" d="M 0 0 L 96 0 L 96 566 L 0 566 Z M 0 0 "/>
<path style=" stroke:none;fill-rule:nonzero;fill:rgb(50.196078%,50.196078%,50.196078%);fill-opacity:1;" d="M 0 0 L 12 0 L 12 566 L 0 566 Z M 0 0 "/>
<path style=" stroke:none;fill-rule:nonzero;fill:rgb(0%,0%,0%);fill-opacity:1;" d="M 12 0 L 24 0 L 24 566 L 12 566 Z M 12 0 "/>
<path style=" stroke:none;fill-rule:nonzero;fill:rgb(50.196078%,50.196078%,50.196078%);fill-opacity:1;" d="M 24 0 L 36 0 L 36 566 L 24 566 Z M 24 0 "/>
<path style=" stroke:none;fill-rule:nonzero;fill:rgb(0%,0%,0%);fill-opacity:1;" d="M 36 0 L 48 0 L 48 566 L 36 566 Z M 36 0 "/>
<path style=" stroke:none;fill-rule:nonzero;fill:rgb(50.196078%,50.196078%,50.196078%);fill-opacity:1;" d="M 48 0 L 60 0 L 60 566 L 48 566 Z M 48 0 "/>
<path style=" stroke:none;fill-rule:nonzero;fill:rgb(0%,0%,0%);fill-opacity:1;" d="M 60 0 L 72 0 L 72 566 L 60 566 Z M 60 0 "/>
<path style=" stroke:none;fill-rule:nonzero;fill:rgb(50.196078%,50.196078%,50.196078%);fill-opacity:1;" d="M 72 0 L 84 0 L 84 566 L 72 566 Z M 72 0 "/>
<path style=" stroke:none;fill-rule:nonzero;fill:rgb(0%,0%,0%);fill-opacity:1;" d="M 84 0 L 96 0 L 96 566 L 84 566 Z M 84 0 "/>
<path style=" stroke:none;fill-rule:nonzero;fill:rgb(0%,0%,0%);fill-opacity:1;" d="M 136.34375 10.71875 L 142.875 10.71875 C 143.5 10.71875 144.03125 10.925781 144.46875 11.34375 C 144.90625 11.769531 145.125 12.269531 145.125 12.84375 L 145.125 13.265625 C 145.125 13.390625 145.078125 13.488281 144.984375 13.5625 C 144.898438 13.632812 144.796875 13.671875 144.671875 13.671875 C 144.554688 13.671875 144.457031 13.632812 144.375 13.5625 C 144.289062 13.488281 144.25 13.390625 144.25 13.265625 L 144.25 13.015625 C 144.25 12.640625 144.125 12.332031 143.875 12.09375 C 143.625 11.851562 143.316406 11.726562 142.953125 11.71875 L 141.6875 11.71875 L 141.6875 13.359375 C 141.6875 13.453125 141.644531 13.523438 141.5625 13.578125 C 141.488281 13.640625 141.398438 13.671875 141.296875 13.671875 C 141.191406 13.671875 141.097656 13.640625 141.015625 13.578125 C 140.941406 13.523438 140.90625 13.453125 140.90625 13.359375 L 140.90625 11.71875 L 136.34375 11.71875 C 136.25 11.71875 136.164062 11.664062 136.09375 11.5625 C 136.03125 11.46875 136 11.347656 136 11.203125 C 136 11.066406 136.03125 10.953125 136.09375 10.859375 C 136.15625 10.765625 136.238281 10.71875 136.34375 10.71875 Z M 138.234375 14.265625 L 139.453125 14.265625 C 140.066406 14.265625 140.601562 14.5 141.0625 14.96875 C 141.53125 15.4375 141.765625 15.988281 141.765625 16.625 C 141.765625 17.269531 141.535156 17.828125 141.078125 18.296875 C 140.617188 18.773438 140.078125 19.015625 139.453125 19.015625 L 138.234375 19.015625 C 137.617188 19.015625 137.078125 18.773438 136.609375 18.296875 C 136.140625 17.816406 135.90625 17.257812 135.90625 16.625 C 135.90625 16 136.140625 15.445312 136.609375 14.96875 C 137.078125 14.5 137.617188 14.265625 138.234375 14.265625 Z M 138.234375 15.265625 C 137.859375 15.265625 137.523438 15.398438 137.234375 15.671875 C 136.941406 15.941406 136.796875 16.265625 136.796875 16.640625 C 136.796875 17.015625 136.941406 17.335938 137.234375 17.609375 C 137.535156 17.878906 137.867188 18.015625 138.234375 18.015625 L 139.453125 18.015625 C 139.816406 18.015625 140.140625 17.878906 140.421875 17.609375 C 140.710938 17.335938 140.859375 17.015625 140.859375 16.640625 C 140.859375 16.265625 140.710938 15.941406 140.421875 15.671875 C 140.140625 15.398438 139.816406 15.265625 139.453125 15.265625 Z M 136.359375 20.316406 L 144.765625 20.316406 C 144.867188 20.316406 144.953125 20.363281 145.015625 20.457031 C 145.085938 20.550781 145.125 20.667969 145.125 20.816406 C 145.125 20.960938 145.085938 21.082031 145.015625 21.175781 C 144.953125 21.269531 144.867188 21.316406 144.765625 21.316406 L 136.359375 21.316406 C 136.273438 21.316406 136.191406 21.261719 136.109375 21.160156 C 136.035156 21.066406 136 20.949219 136 20.816406 C 136 20.679688 136.035156 20.558594 136.109375 20.457031 C 136.179688 20.363281 136.265625 20.316406 136.359375 20.316406 Z M 138.234375 22.617188 L 139.453125 22.617188 C 140.085938 22.617188 140.628906 22.828125 141.078125 23.257812 C 141.535156 23.683594 141.765625 24.1875 141.765625 24.773438 C 141.765625 25.136719 141.675781 25.453125 141.5 25.726562 C 141.320312 25.996094 141.101562 26.203125 140.84375 26.351562 L 144.765625 26.351562 C 144.867188 26.351562 144.953125 26.398438 145.015625 26.492188 C 145.085938 26.585938 145.125 26.703125 145.125 26.851562 C 145.125 26.996094 145.085938 27.109375 145.015625 27.195312 C 144.953125 27.289062 144.867188 27.335938 144.765625 27.335938 L 136.359375 27.335938 C 136.265625 27.335938 136.179688 27.289062 136.109375 27.195312 C 136.035156 27.101562 136 26.984375 136 26.851562 C 136 26.726562 136.035156 26.617188 136.109375 26.523438 C 136.179688 26.4375 136.265625 26.398438 136.359375 26.398438 L 136.84375 26.398438 C 136.582031 26.261719 136.359375 26.039062 136.171875 25.726562 C 135.996094 25.421875 135.90625 25.09375 135.90625 24.742188 C 135.90625 24.179688 136.140625 23.683594 136.609375 23.257812 C 137.078125 22.828125 137.617188 22.617188 138.234375 22.617188 Z M 138.234375 23.617188 C 137.867188 23.617188 137.535156 23.75 137.234375 24.023438 C 136.941406 24.292969 136.796875 24.609375 136.796875 24.976562 C 136.796875 25.328125 136.929688 25.648438 137.203125 25.929688 C 137.472656 26.210938 137.707031 26.351562 137.90625 26.351562 L 139.453125 26.351562 C 139.867188 26.351562 140.207031 26.210938 140.46875 25.929688 C 140.726562 25.65625 140.859375 25.34375 140.859375 24.992188 C 140.859375 24.617188 140.710938 24.292969 140.421875 24.023438 C 140.140625 23.75 139.816406 23.617188 139.453125 23.617188 Z M 136.359375 28.917969 L 144.40625 28.917969 C 144.519531 28.917969 144.609375 28.957031 144.671875 29.042969 C 144.734375 29.136719 144.765625 29.246094 144.765625 29.371094 L 144.765625 33.636719 C 144.765625 33.75 144.722656 33.832031 144.640625 33.886719 C 144.554688 33.949219 144.453125 33.980469 144.328125 33.980469 C 144.203125 33.980469 144.09375 33.949219 144 33.886719 C 143.90625 33.824219 143.859375 33.738281 143.859375 33.636719 L 143.859375 29.917969 L 140.8125 29.917969 L 140.8125 31.792969 C 140.8125 31.894531 140.769531 31.980469 140.6875 32.042969 C 140.601562 32.105469 140.5 32.136719 140.375 32.136719 C 140.269531 32.136719 140.175781 32.105469 140.09375 32.042969 C 140.007812 31.988281 139.96875 31.90625 139.96875 31.792969 L 139.96875 29.917969 L 136.90625 29.917969 L 136.90625 33.636719 C 136.90625 33.738281 136.859375 33.824219 136.765625 33.886719 C 136.679688 33.949219 136.570312 33.980469 136.4375 33.980469 C 136.320312 33.980469 136.21875 33.949219 136.125 33.886719 C 136.039062 33.832031 136 33.75 136 33.636719 L 136 29.371094 C 136 29.246094 136.03125 29.136719 136.09375 29.042969 C 136.15625 28.957031 136.242188 28.917969 136.359375 28.917969 Z M 141.28125 34.367188 C 141.394531 34.367188 141.492188 34.433594 141.578125 34.570312 C 141.671875 34.714844 141.71875 34.859375 141.71875 35.007812 C 141.71875 35.171875 141.648438 35.28125 141.515625 35.335938 L 137.4375 36.851562 L 141.46875 38.351562 C 141.632812 38.414062 141.71875 38.523438 141.71875 38.679688 C 141.71875 38.804688 141.671875 38.9375 141.578125 39.085938 C 141.492188 39.242188 141.394531 39.320312 141.28125 39.320312 C 141.21875 39.320312 141.15625 39.304688 141.09375 39.273438 L 136.109375 37.304688 C 135.964844 37.242188 135.890625 37.089844 135.890625 36.851562 C 135.890625 36.601562 135.964844 36.445312 136.109375 36.382812 L 141.09375 34.414062 C 141.1875 34.382812 141.25 34.367188 141.28125 34.367188 Z M 138.234375 39.957031 L 139.484375 39.957031 C 140.109375 39.957031 140.644531 40.191406 141.09375 40.660156 C 141.539062 41.128906 141.765625 41.691406 141.765625 42.347656 C 141.765625 42.972656 141.550781 43.511719 141.125 43.972656 C 140.707031 44.429688 140.179688 44.660156 139.546875 44.660156 C 139.316406 44.660156 139.128906 44.628906 138.984375 44.566406 C 138.847656 44.511719 138.75 44.429688 138.6875 44.316406 C 138.632812 44.199219 138.597656 44.089844 138.578125 43.988281 C 138.566406 43.894531 138.5625 43.757812 138.5625 43.582031 L 138.5625 40.957031 L 138.203125 40.957031 C 137.753906 40.957031 137.398438 41.113281 137.140625 41.425781 C 136.878906 41.746094 136.75 42.160156 136.75 42.660156 C 136.75 42.929688 136.785156 43.160156 136.859375 43.347656 C 136.941406 43.542969 137.019531 43.699219 137.09375 43.816406 C 137.175781 43.941406 137.21875 44.039062 137.21875 44.113281 C 137.21875 44.226562 137.164062 44.320312 137.0625 44.394531 C 136.957031 44.476562 136.851562 44.519531 136.75 44.519531 C 136.570312 44.519531 136.382812 44.335938 136.1875 43.972656 C 136 43.605469 135.90625 43.160156 135.90625 42.628906 C 135.90625 41.847656 136.117188 41.207031 136.546875 40.707031 C 136.972656 40.207031 137.535156 39.957031 138.234375 39.957031 Z M 139.234375 40.957031 L 139.234375 43.175781 C 139.234375 43.382812 139.257812 43.523438 139.3125 43.597656 C 139.363281 43.667969 139.460938 43.707031 139.609375 43.707031 C 139.972656 43.707031 140.289062 43.570312 140.5625 43.300781 C 140.832031 43.039062 140.96875 42.722656 140.96875 42.347656 C 140.96875 41.960938 140.84375 41.632812 140.59375 41.363281 C 140.34375 41.089844 140.03125 40.957031 139.65625 40.957031 Z M 136.359375 45.753906 L 141.34375 45.753906 C 141.445312 45.753906 141.53125 45.800781 141.59375 45.894531 C 141.65625 45.988281 141.6875 46.105469 141.6875 46.253906 C 141.6875 46.378906 141.65625 46.480469 141.59375 46.566406 C 141.53125 46.660156 141.445312 46.707031 141.34375 46.707031 L 140.78125 46.707031 C 141.050781 46.851562 141.28125 47.066406 141.46875 47.347656 C 141.664062 47.628906 141.765625 47.941406 141.765625 48.285156 L 141.765625 48.691406 C 141.765625 48.792969 141.71875 48.882812 141.625 48.957031 C 141.53125 49.027344 141.421875 49.066406 141.296875 49.066406 C 141.179688 49.066406 141.078125 49.027344 140.984375 48.957031 C 140.898438 48.882812 140.859375 48.792969 140.859375 48.691406 L 140.859375 48.285156 C 140.859375 47.867188 140.691406 47.507812 140.359375 47.207031 C 140.035156 46.902344 139.613281 46.753906 139.09375 46.753906 L 136.359375 46.753906 C 136.273438 46.753906 136.191406 46.699219 136.109375 46.597656 C 136.035156 46.503906 136 46.386719 136 46.253906 C 136 46.117188 136.035156 45.996094 136.109375 45.894531 C 136.179688 45.800781 136.265625 45.753906 136.359375 45.753906 Z M 141.28125 49.320312 C 141.40625 49.320312 141.515625 49.390625 141.609375 49.539062 C 141.710938 49.683594 141.765625 49.828125 141.765625 49.976562 C 141.765625 50.140625 141.695312 50.246094 141.5625 50.289062 L 137.375 51.882812 L 141.5625 53.304688 C 141.695312 53.367188 141.765625 53.46875 141.765625 53.617188 C 141.765625 53.75 141.710938 53.890625 141.609375 54.039062 C 141.515625 54.195312 141.398438 54.273438 141.265625 54.273438 C 141.222656 54.273438 141.179688 54.257812 141.140625 54.226562 L 136.265625 52.414062 L 135.65625 52.179688 C 135.554688 52.136719 135.367188 52.054688 135.09375 51.929688 C 134.824219 51.8125 134.625 51.714844 134.5 51.632812 C 134.375 51.558594 134.21875 51.449219 134.03125 51.304688 C 133.835938 51.15625 133.695312 51.015625 133.609375 50.882812 C 133.515625 50.746094 133.433594 50.585938 133.359375 50.398438 C 133.289062 50.210938 133.25 50.011719 133.25 49.804688 C 133.25 49.492188 133.402344 49.335938 133.703125 49.335938 C 133.984375 49.335938 134.125 49.429688 134.125 49.617188 C 134.125 49.980469 134.328125 50.328125 134.734375 50.664062 C 135.140625 51.007812 135.65625 51.242188 136.28125 51.367188 L 141.140625 49.367188 C 141.191406 49.335938 141.238281 49.320312 141.28125 49.320312 Z M 136.09375 57.605469 L 144.875 57.605469 C 144.976562 57.605469 145.0625 57.652344 145.125 57.746094 C 145.1875 57.839844 145.21875 57.941406 145.21875 58.058594 L 145.21875 60.027344 C 145.21875 60.128906 145.171875 60.214844 145.078125 60.277344 C 144.992188 60.339844 144.890625 60.371094 144.765625 60.371094 C 144.640625 60.371094 144.53125 60.339844 144.4375 60.277344 C 144.351562 60.214844 144.3125 60.128906 144.3125 60.027344 L 144.3125 58.605469 L 136.640625 58.605469 L 136.640625 60.027344 C 136.640625 60.128906 136.597656 60.214844 136.515625 60.277344 C 136.429688 60.339844 136.320312 60.371094 136.1875 60.371094 C 136.070312 60.371094 135.976562 60.339844 135.890625 60.277344 C 135.796875 60.214844 135.75 60.128906 135.75 60.027344 L 135.75 58.058594 C 135.75 57.941406 135.78125 57.839844 135.84375 57.746094 C 135.90625 57.652344 135.992188 57.605469 136.09375 57.605469 Z M 137.96875 60.90625 C 138.15625 60.90625 138.28125 60.9375 138.34375 61 C 138.40625 61.070312 138.4375 61.195312 138.4375 61.375 C 138.4375 61.5625 138.40625 61.691406 138.34375 61.765625 C 138.28125 61.847656 138.179688 61.890625 138.046875 61.890625 C 137.734375 61.890625 137.453125 62.019531 137.203125 62.28125 C 136.960938 62.539062 136.84375 62.9375 136.84375 63.46875 C 136.84375 64.53125 137.394531 65.0625 138.5 65.0625 L 138.71875 65.0625 C 139.695312 65.0625 140.1875 64.53125 140.1875 63.46875 C 140.1875 63.226562 140.328125 63.109375 140.609375 63.109375 C 140.890625 63.109375 141.03125 63.226562 141.03125 63.46875 C 141.03125 63.925781 141.132812 64.269531 141.34375 64.5 C 141.550781 64.738281 141.925781 64.859375 142.46875 64.859375 C 143.40625 64.859375 143.875 64.410156 143.875 63.515625 C 143.875 62.992188 143.757812 62.628906 143.53125 62.421875 C 143.300781 62.210938 143.03125 62.109375 142.71875 62.109375 C 142.425781 62.109375 142.28125 61.945312 142.28125 61.625 C 142.28125 61.40625 142.3125 61.257812 142.375 61.1875 C 142.445312 61.125 142.582031 61.09375 142.78125 61.09375 C 142.988281 61.09375 143.195312 61.128906 143.40625 61.203125 C 143.625 61.285156 143.835938 61.410156 144.046875 61.578125 C 144.253906 61.742188 144.425781 61.992188 144.5625 62.328125 C 144.695312 62.671875 144.765625 63.070312 144.765625 63.53125 C 144.765625 65.0625 144.054688 65.828125 142.640625 65.828125 C 142.140625 65.828125 141.710938 65.738281 141.359375 65.5625 C 141.015625 65.382812 140.769531 65.148438 140.625 64.859375 C 140.300781 65.671875 139.664062 66.078125 138.71875 66.078125 L 138.5 66.078125 C 137.613281 66.078125 136.960938 65.835938 136.546875 65.359375 C 136.128906 64.878906 135.921875 64.25 135.921875 63.46875 C 135.921875 62.632812 136.128906 62 136.546875 61.5625 C 136.972656 61.125 137.445312 60.90625 137.96875 60.90625 Z M 136.546875 66.992188 C 136.722656 66.992188 136.875 67.046875 137 67.164062 C 137.125 67.277344 137.1875 67.421875 137.1875 67.601562 C 137.1875 67.765625 137.125 67.914062 137 68.039062 C 136.882812 68.164062 136.734375 68.226562 136.546875 68.226562 C 136.410156 68.226562 135.929688 68.054688 135.09375 67.710938 C 134.992188 67.65625 134.9375 67.570312 134.9375 67.445312 C 134.9375 67.351562 134.964844 67.265625 135.015625 67.195312 C 135.070312 67.132812 135.136719 67.101562 135.21875 67.101562 C 135.273438 67.101562 135.320312 67.105469 135.359375 67.117188 L 135.96875 67.367188 C 136.070312 67.117188 136.265625 66.992188 136.546875 66.992188 Z M 138 68.964844 C 138.320312 68.964844 138.484375 69.128906 138.484375 69.464844 C 138.484375 69.808594 138.347656 69.980469 138.078125 69.980469 C 137.691406 69.980469 137.390625 70.125 137.171875 70.417969 C 136.953125 70.71875 136.84375 71.09375 136.84375 71.542969 C 136.84375 72.050781 136.984375 72.441406 137.265625 72.714844 C 137.546875 72.996094 137.960938 73.136719 138.515625 73.136719 L 138.75 73.136719 C 139.289062 73.136719 139.695312 72.996094 139.96875 72.714844 C 140.25 72.441406 140.390625 72.058594 140.390625 71.558594 L 140.390625 69.855469 C 140.390625 69.542969 140.519531 69.386719 140.78125 69.386719 C 140.863281 69.386719 140.953125 69.394531 141.046875 69.417969 L 144.40625 69.667969 C 144.644531 69.675781 144.765625 69.765625 144.765625 69.933594 L 144.765625 73.386719 C 144.765625 73.488281 144.71875 73.566406 144.625 73.621094 C 144.539062 73.683594 144.4375 73.714844 144.3125 73.714844 C 144.195312 73.714844 144.09375 73.683594 144 73.621094 C 143.90625 73.566406 143.859375 73.488281 143.859375 73.386719 L 143.859375 70.542969 L 141.234375 70.355469 L 141.234375 71.558594 C 141.234375 72.339844 141.03125 72.964844 140.625 73.433594 C 140.226562 73.902344 139.601562 74.136719 138.75 74.136719 L 138.515625 74.136719 C 137.628906 74.136719 136.972656 73.902344 136.546875 73.433594 C 136.128906 72.964844 135.921875 72.339844 135.921875 71.558594 C 135.921875 70.753906 136.125 70.121094 136.53125 69.652344 C 136.9375 69.191406 137.425781 68.964844 138 68.964844 Z M 136.1875 74.707031 C 136.320312 74.707031 136.429688 74.738281 136.515625 74.800781 C 136.597656 74.863281 136.640625 74.945312 136.640625 75.050781 L 136.640625 76.472656 L 144.3125 76.472656 L 144.3125 75.050781 C 144.3125 74.945312 144.351562 74.863281 144.4375 74.800781 C 144.53125 74.738281 144.640625 74.707031 144.765625 74.707031 C 144.890625 74.707031 144.992188 74.738281 145.078125 74.800781 C 145.171875 74.863281 145.21875 74.945312 145.21875 75.050781 L 145.21875 77.019531 C 145.21875 77.144531 145.1875 77.246094 145.125 77.332031 C 145.0625 77.425781 144.976562 77.472656 144.875 77.472656 L 136.09375 77.472656 C 135.992188 77.472656 135.90625 77.425781 135.84375 77.332031 C 135.78125 77.246094 135.75 77.144531 135.75 77.019531 L 135.75 75.050781 C 135.75 74.945312 135.796875 74.863281 135.890625 74.800781 C 135.976562 74.738281 136.070312 74.707031 136.1875 74.707031 Z M 137.859375 81.34375 L 142.953125 81.34375 C 143.578125 81.34375 144.109375 81.570312 144.546875 82.03125 C 144.992188 82.5 145.21875 83.046875 145.21875 83.671875 C 145.21875 83.992188 145.066406 84.15625 144.765625 84.15625 C 144.628906 84.15625 144.519531 84.125 144.4375 84.0625 C 144.351562 84 144.3125 83.914062 144.3125 83.8125 C 144.3125 83.375 144.171875 83.019531 143.890625 82.75 C 143.617188 82.476562 143.304688 82.34375 142.953125 82.34375 L 137.859375 82.34375 C 137.421875 82.34375 137.109375 82.488281 136.921875 82.78125 C 136.742188 83.070312 136.65625 83.414062 136.65625 83.8125 C 136.65625 84.039062 136.503906 84.15625 136.203125 84.15625 C 135.914062 84.15625 135.765625 83.984375 135.765625 83.640625 C 135.765625 82.992188 135.949219 82.445312 136.3125 82 C 136.675781 81.5625 137.191406 81.34375 137.859375 81.34375 Z M 136.8125 84.734375 C 136.914062 84.734375 137.015625 84.765625 137.109375 84.828125 C 137.210938 84.898438 137.265625 84.984375 137.265625 85.078125 C 137.265625 85.140625 137.21875 85.226562 137.125 85.34375 C 137.03125 85.46875 136.9375 85.644531 136.84375 85.875 C 136.75 86.101562 136.703125 86.367188 136.703125 86.671875 C 136.703125 87.066406 136.773438 87.351562 136.921875 87.53125 C 137.066406 87.71875 137.25 87.8125 137.46875 87.8125 C 137.726562 87.8125 137.9375 87.707031 138.09375 87.5 C 138.25 87.300781 138.363281 87.054688 138.4375 86.765625 C 138.519531 86.484375 138.609375 86.195312 138.703125 85.90625 C 138.804688 85.625 138.96875 85.378906 139.1875 85.171875 C 139.414062 84.972656 139.710938 84.875 140.078125 84.875 C 140.535156 84.875 140.929688 85.035156 141.265625 85.359375 C 141.597656 85.679688 141.765625 86.175781 141.765625 86.84375 C 141.765625 87.269531 141.695312 87.65625 141.5625 88 C 141.425781 88.351562 141.273438 88.53125 141.109375 88.53125 C 141.015625 88.53125 140.90625 88.492188 140.78125 88.421875 C 140.664062 88.347656 140.609375 88.253906 140.609375 88.140625 C 140.609375 88.109375 140.664062 87.953125 140.78125 87.671875 C 140.894531 87.398438 140.953125 87.128906 140.953125 86.859375 C 140.953125 86.492188 140.863281 86.21875 140.6875 86.03125 C 140.519531 85.851562 140.328125 85.765625 140.109375 85.765625 C 139.890625 85.765625 139.710938 85.863281 139.578125 86.0625 C 139.453125 86.257812 139.351562 86.503906 139.28125 86.796875 C 139.21875 87.097656 139.132812 87.390625 139.03125 87.671875 C 138.925781 87.960938 138.742188 88.207031 138.484375 88.40625 C 138.234375 88.601562 137.910156 88.703125 137.515625 88.703125 C 137.015625 88.703125 136.617188 88.523438 136.328125 88.171875 C 136.046875 87.828125 135.90625 87.335938 135.90625 86.703125 C 135.90625 86.160156 136 85.695312 136.1875 85.3125 C 136.382812 84.925781 136.59375 84.734375 136.8125 84.734375 Z M 136.359375 89.894531 L 144.765625 89.894531 C 144.867188 89.894531 144.953125 89.941406 145.015625 90.035156 C 145.085938 90.128906 145.125 90.246094 145.125 90.394531 C 145.125 90.539062 145.085938 90.660156 145.015625 90.753906 C 144.953125 90.847656 144.867188 90.894531 144.765625 90.894531 L 136.359375 90.894531 C 136.273438 90.894531 136.191406 90.839844 136.109375 90.738281 C 136.035156 90.644531 136 90.527344 136 90.394531 C 136 90.257812 136.035156 90.136719 136.109375 90.035156 C 136.179688 89.941406 136.265625 89.894531 136.359375 89.894531 Z M 138.234375 92.191406 L 139.453125 92.191406 C 140.066406 92.191406 140.601562 92.425781 141.0625 92.894531 C 141.53125 93.363281 141.765625 93.914062 141.765625 94.550781 C 141.765625 95.195312 141.535156 95.753906 141.078125 96.222656 C 140.617188 96.699219 140.078125 96.941406 139.453125 96.941406 L 138.234375 96.941406 C 137.617188 96.941406 137.078125 96.699219 136.609375 96.222656 C 136.140625 95.742188 135.90625 95.183594 135.90625 94.550781 C 135.90625 93.925781 136.140625 93.371094 136.609375 92.894531 C 137.078125 92.425781 137.617188 92.191406 138.234375 92.191406 Z M 138.234375 93.191406 C 137.859375 93.191406 137.523438 93.324219 137.234375 93.597656 C 136.941406 93.867188 136.796875 94.191406 136.796875 94.566406 C 136.796875 94.941406 136.941406 95.261719 137.234375 95.535156 C 137.535156 95.804688 137.867188 95.941406 138.234375 95.941406 L 139.453125 95.941406 C 139.816406 95.941406 140.140625 95.804688 140.421875 95.535156 C 140.710938 95.261719 140.859375 94.941406 140.859375 94.566406 C 140.859375 94.191406 140.710938 93.867188 140.421875 93.597656 C 140.140625 93.324219 139.816406 93.191406 139.453125 93.191406 Z M 141.28125 97.605469 C 141.394531 97.605469 141.492188 97.667969 141.578125 97.792969 C 141.671875 97.925781 141.71875 98.066406 141.71875 98.214844 C 141.71875 98.378906 141.648438 98.488281 141.515625 98.542969 L 137.484375 99.996094 L 141.125 101.121094 C 141.28125 101.171875 141.359375 101.296875 141.359375 101.496094 C 141.359375 101.691406 141.28125 101.816406 141.125 101.871094 L 137.453125 102.980469 L 141.515625 104.449219 C 141.648438 104.480469 141.71875 104.578125 141.71875 104.746094 C 141.71875 104.890625 141.671875 105.03125 141.578125 105.167969 C 141.492188 105.300781 141.394531 105.371094 141.28125 105.371094 C 141.21875 105.371094 141.15625 105.355469 141.09375 105.324219 L 136.109375 103.464844 C 135.964844 103.402344 135.890625 103.265625 135.890625 103.058594 C 135.890625 102.839844 135.964844 102.703125 136.109375 102.652344 L 139.640625 101.496094 L 136.140625 100.355469 C 135.976562 100.292969 135.890625 100.144531 135.890625 99.917969 C 135.890625 99.707031 135.976562 99.574219 136.140625 99.511719 L 141.09375 97.652344 C 141.1875 97.621094 141.25 97.605469 141.28125 97.605469 Z M 136.359375 108.324219 L 137.53125 108.324219 C 137.882812 108.324219 138.234375 108.457031 138.578125 108.730469 C 138.929688 109.011719 139.25 109.34375 139.53125 109.730469 L 140.390625 110.902344 C 140.671875 111.285156 140.984375 111.613281 141.328125 111.886719 C 141.679688 112.167969 142.035156 112.308594 142.390625 112.308594 C 142.773438 112.308594 143.113281 112.183594 143.40625 111.933594 C 143.695312 111.683594 143.84375 111.324219 143.84375 110.855469 C 143.84375 110.449219 143.726562 110.121094 143.5 109.871094 C 143.269531 109.621094 142.945312 109.496094 142.53125 109.496094 C 142.425781 109.496094 142.332031 109.441406 142.25 109.339844 C 142.164062 109.246094 142.125 109.121094 142.125 108.964844 C 142.125 108.660156 142.320312 108.511719 142.71875 108.511719 C 143.320312 108.511719 143.8125 108.734375 144.1875 109.183594 C 144.570312 109.640625 144.765625 110.199219 144.765625 110.855469 C 144.765625 111.550781 144.539062 112.136719 144.09375 112.605469 C 143.65625 113.082031 143.101562 113.324219 142.4375 113.324219 C 142.03125 113.324219 141.644531 113.222656 141.28125 113.027344 C 140.914062 112.828125 140.601562 112.582031 140.34375 112.292969 C 140.082031 112 139.828125 111.683594 139.578125 111.339844 L 138.890625 110.386719 C 138.691406 110.09375 138.472656 109.847656 138.234375 109.652344 C 137.992188 109.453125 137.757812 109.355469 137.53125 109.355469 L 136.90625 109.355469 L 136.90625 113.042969 C 136.90625 113.136719 136.859375 113.214844 136.765625 113.277344 C 136.679688 113.347656 136.578125 113.386719 136.453125 113.386719 C 136.335938 113.386719 136.234375 113.347656 136.140625 113.277344 C 136.046875 113.214844 136 113.136719 136 113.042969 L 136 108.777344 C 136 108.671875 136.03125 108.566406 136.09375 108.464844 C 136.164062 108.371094 136.253906 108.324219 136.359375 108.324219 Z M 136.203125 113.960938 C 136.503906 113.960938 136.65625 114.074219 136.65625 114.304688 C 136.65625 114.699219 136.742188 115.042969 136.921875 115.335938 C 137.109375 115.625 137.421875 115.773438 137.859375 115.773438 L 142.953125 115.773438 C 143.304688 115.773438 143.617188 115.636719 143.890625 115.367188 C 144.171875 115.09375 144.3125 114.742188 144.3125 114.304688 C 144.3125 114.199219 144.351562 114.117188 144.4375 114.054688 C 144.519531 113.992188 144.628906 113.960938 144.765625 113.960938 C 145.066406 113.960938 145.21875 114.121094 145.21875 114.445312 C 145.21875 115.070312 144.992188 115.609375 144.546875 116.070312 C 144.109375 116.539062 143.578125 116.773438 142.953125 116.773438 L 137.859375 116.773438 C 137.191406 116.773438 136.675781 116.546875 136.3125 116.101562 C 135.949219 115.664062 135.765625 115.117188 135.765625 114.460938 C 135.765625 114.125 135.914062 113.960938 136.203125 113.960938 Z M 137.375 120.28125 C 137.507812 120.28125 137.632812 120.328125 137.75 120.421875 C 137.875 120.515625 137.9375 120.613281 137.9375 120.71875 C 137.9375 120.78125 137.882812 120.867188 137.78125 120.984375 C 137.6875 121.097656 137.582031 121.210938 137.46875 121.328125 C 137.351562 121.441406 137.242188 121.625 137.140625 121.875 C 137.046875 122.125 136.988281 122.40625 136.96875 122.71875 L 140.15625 122.71875 L 140.40625 122.0625 C 140.457031 121.914062 140.550781 121.722656 140.6875 121.484375 C 140.820312 121.242188 140.957031 121.066406 141.09375 120.953125 C 141.238281 120.835938 141.429688 120.734375 141.671875 120.640625 C 141.910156 120.546875 142.175781 120.5 142.46875 120.5 C 142.832031 120.5 143.148438 120.5625 143.421875 120.6875 C 143.703125 120.8125 143.921875 120.984375 144.078125 121.203125 C 144.234375 121.429688 144.351562 121.664062 144.4375 121.90625 C 144.519531 122.15625 144.578125 122.425781 144.609375 122.71875 L 144.96875 122.71875 C 145.03125 122.71875 145.085938 122.742188 145.140625 122.796875 C 145.191406 122.859375 145.21875 122.9375 145.21875 123.03125 C 145.21875 123.101562 145.191406 123.171875 145.140625 123.234375 C 145.085938 123.304688 145.03125 123.34375 144.96875 123.34375 L 144.625 123.34375 C 144.601562 123.820312 144.519531 124.253906 144.375 124.640625 C 144.238281 125.035156 144.0625 125.234375 143.84375 125.234375 C 143.726562 125.234375 143.601562 125.191406 143.46875 125.109375 C 143.34375 125.035156 143.28125 124.929688 143.28125 124.796875 C 143.28125 124.765625 143.347656 124.597656 143.484375 124.296875 C 143.628906 124.003906 143.710938 123.6875 143.734375 123.34375 L 140.984375 123.34375 C 140.878906 123.65625 140.769531 123.910156 140.65625 124.109375 C 140.550781 124.316406 140.40625 124.535156 140.21875 124.765625 C 140.03125 124.992188 139.789062 125.164062 139.5 125.28125 C 139.207031 125.394531 138.863281 125.453125 138.46875 125.453125 C 137.769531 125.453125 137.210938 125.257812 136.796875 124.875 C 136.390625 124.5 136.144531 123.988281 136.0625 123.34375 L 135.625 123.34375 C 135.5625 123.34375 135.507812 123.304688 135.453125 123.234375 C 135.402344 123.171875 135.375 123.101562 135.375 123.03125 C 135.375 122.9375 135.402344 122.859375 135.453125 122.796875 C 135.507812 122.742188 135.5625 122.71875 135.625 122.71875 L 136.03125 122.71875 C 136.03125 122.03125 136.179688 121.453125 136.484375 120.984375 C 136.796875 120.515625 137.09375 120.28125 137.375 120.28125 Z M 142.5625 121.453125 C 142.1875 121.453125 141.90625 121.5625 141.71875 121.78125 C 141.53125 122 141.359375 122.328125 141.203125 122.765625 L 143.71875 122.765625 C 143.625 121.890625 143.238281 121.453125 142.5625 121.453125 Z M 137 123.296875 C 137.125 124.085938 137.582031 124.484375 138.375 124.484375 C 138.789062 124.484375 139.113281 124.378906 139.34375 124.171875 C 139.582031 123.972656 139.78125 123.679688 139.9375 123.296875 Z M 138.234375 128.816406 L 139.453125 128.816406 C 140.085938 128.816406 140.628906 129.027344 141.078125 129.457031 C 141.535156 129.882812 141.765625 130.386719 141.765625 130.972656 C 141.765625 131.335938 141.675781 131.652344 141.5 131.925781 C 141.320312 132.195312 141.101562 132.402344 140.84375 132.550781 L 144.765625 132.550781 C 144.867188 132.550781 144.953125 132.597656 145.015625 132.691406 C 145.085938 132.785156 145.125 132.902344 145.125 133.050781 C 145.125 133.195312 145.085938 133.308594 145.015625 133.394531 C 144.953125 133.488281 144.867188 133.535156 144.765625 133.535156 L 136.359375 133.535156 C 136.265625 133.535156 136.179688 133.488281 136.109375 133.394531 C 136.035156 133.300781 136 133.183594 136 133.050781 C 136 132.925781 136.035156 132.816406 136.109375 132.722656 C 136.179688 132.636719 136.265625 132.597656 136.359375 132.597656 L 136.84375 132.597656 C 136.582031 132.460938 136.359375 132.238281 136.171875 131.925781 C 135.996094 131.621094 135.90625 131.292969 135.90625 130.941406 C 135.90625 130.378906 136.140625 129.882812 136.609375 129.457031 C 137.078125 129.027344 137.617188 128.816406 138.234375 128.816406 Z M 138.234375 129.816406 C 137.867188 129.816406 137.535156 129.949219 137.234375 130.222656 C 136.941406 130.492188 136.796875 130.808594 136.796875 131.175781 C 136.796875 131.527344 136.929688 131.847656 137.203125 132.128906 C 137.472656 132.410156 137.707031 132.550781 137.90625 132.550781 L 139.453125 132.550781 C 139.867188 132.550781 140.207031 132.410156 140.46875 132.128906 C 140.726562 131.855469 140.859375 131.542969 140.859375 131.191406 C 140.859375 130.816406 140.710938 130.492188 140.421875 130.222656 C 140.140625 129.949219 139.816406 129.816406 139.453125 129.816406 Z M 138.234375 134.746094 L 139.484375 134.746094 C 140.109375 134.746094 140.644531 134.980469 141.09375 135.449219 C 141.539062 135.917969 141.765625 136.480469 141.765625 137.136719 C 141.765625 137.761719 141.550781 138.300781 141.125 138.761719 C 140.707031 139.21875 140.179688 139.449219 139.546875 139.449219 C 139.316406 139.449219 139.128906 139.417969 138.984375 139.355469 C 138.847656 139.300781 138.75 139.21875 138.6875 139.105469 C 138.632812 138.988281 138.597656 138.878906 138.578125 138.777344 C 138.566406 138.683594 138.5625 138.546875 138.5625 138.371094 L 138.5625 135.746094 L 138.203125 135.746094 C 137.753906 135.746094 137.398438 135.902344 137.140625 136.214844 C 136.878906 136.535156 136.75 136.949219 136.75 137.449219 C 136.75 137.71875 136.785156 137.949219 136.859375 138.136719 C 136.941406 138.332031 137.019531 138.488281 137.09375 138.605469 C 137.175781 138.730469 137.21875 138.828125 137.21875 138.902344 C 137.21875 139.015625 137.164062 139.109375 137.0625 139.183594 C 136.957031 139.265625 136.851562 139.308594 136.75 139.308594 C 136.570312 139.308594 136.382812 139.125 136.1875 138.761719 C 136 138.394531 135.90625 137.949219 135.90625 137.417969 C 135.90625 136.636719 136.117188 135.996094 136.546875 135.496094 C 136.972656 134.996094 137.535156 134.746094 138.234375 134.746094 Z M 139.234375 135.746094 L 139.234375 137.964844 C 139.234375 138.171875 139.257812 138.3125 139.3125 138.386719 C 139.363281 138.457031 139.460938 138.496094 139.609375 138.496094 C 139.972656 138.496094 140.289062 138.359375 140.5625 138.089844 C 140.832031 137.828125 140.96875 137.511719 140.96875 137.136719 C 140.96875 136.75 140.84375 136.421875 140.59375 136.152344 C 140.34375 135.878906 140.03125 135.746094 139.65625 135.746094 Z M 136.359375 140.542969 L 141.34375 140.542969 C 141.445312 140.542969 141.53125 140.589844 141.59375 140.683594 C 141.65625 140.777344 141.6875 140.894531 141.6875 141.042969 C 141.6875 141.15625 141.648438 141.261719 141.578125 141.355469 C 141.515625 141.449219 141.4375 141.496094 141.34375 141.496094 L 140.84375 141.496094 C 141.101562 141.621094 141.320312 141.824219 141.5 142.105469 C 141.675781 142.394531 141.765625 142.730469 141.765625 143.105469 C 141.765625 143.667969 141.535156 144.15625 141.078125 144.574219 C 140.628906 145 140.085938 145.214844 139.453125 145.214844 L 136.359375 145.214844 C 136.242188 145.214844 136.15625 145.160156 136.09375 145.058594 C 136.03125 144.964844 136 144.847656 136 144.714844 C 136 144.589844 136.03125 144.472656 136.09375 144.371094 C 136.15625 144.265625 136.242188 144.214844 136.359375 144.214844 L 139.453125 144.214844 C 139.816406 144.214844 140.140625 144.078125 140.421875 143.808594 C 140.710938 143.535156 140.859375 143.21875 140.859375 142.855469 C 140.859375 142.511719 140.726562 142.203125 140.46875 141.933594 C 140.207031 141.671875 139.867188 141.542969 139.453125 141.542969 L 136.359375 141.542969 C 136.273438 141.542969 136.191406 141.488281 136.109375 141.386719 C 136.035156 141.28125 136 141.167969 136 141.042969 C 136 140.90625 136.035156 140.785156 136.109375 140.683594 C 136.179688 140.589844 136.265625 140.542969 136.359375 140.542969 Z M 136.8125 146.238281 C 136.914062 146.238281 137.015625 146.269531 137.109375 146.332031 C 137.210938 146.402344 137.265625 146.488281 137.265625 146.582031 C 137.265625 146.644531 137.21875 146.730469 137.125 146.847656 C 137.03125 146.972656 136.9375 147.148438 136.84375 147.378906 C 136.75 147.605469 136.703125 147.871094 136.703125 148.175781 C 136.703125 148.570312 136.773438 148.855469 136.921875 149.035156 C 137.066406 149.222656 137.25 149.316406 137.46875 149.316406 C 137.726562 149.316406 137.9375 149.210938 138.09375 149.003906 C 138.25 148.804688 138.363281 148.558594 138.4375 148.269531 C 138.519531 147.988281 138.609375 147.699219 138.703125 147.410156 C 138.804688 147.128906 138.96875 146.882812 139.1875 146.675781 C 139.414062 146.476562 139.710938 146.378906 140.078125 146.378906 C 140.535156 146.378906 140.929688 146.539062 141.265625 146.863281 C 141.597656 147.183594 141.765625 147.679688 141.765625 148.347656 C 141.765625 148.773438 141.695312 149.160156 141.5625 149.503906 C 141.425781 149.855469 141.273438 150.035156 141.109375 150.035156 C 141.015625 150.035156 140.90625 149.996094 140.78125 149.925781 C 140.664062 149.851562 140.609375 149.757812 140.609375 149.644531 C 140.609375 149.613281 140.664062 149.457031 140.78125 149.175781 C 140.894531 148.902344 140.953125 148.632812 140.953125 148.363281 C 140.953125 147.996094 140.863281 147.722656 140.6875 147.535156 C 140.519531 147.355469 140.328125 147.269531 140.109375 147.269531 C 139.890625 147.269531 139.710938 147.367188 139.578125 147.566406 C 139.453125 147.761719 139.351562 148.007812 139.28125 148.300781 C 139.21875 148.601562 139.132812 148.894531 139.03125 149.175781 C 138.925781 149.464844 138.742188 149.710938 138.484375 149.910156 C 138.234375 150.105469 137.910156 150.207031 137.515625 150.207031 C 137.015625 150.207031 136.617188 150.027344 136.328125 149.675781 C 136.046875 149.332031 135.90625 148.839844 135.90625 148.207031 C 135.90625 147.664062 136 147.199219 136.1875 146.816406 C 136.382812 146.429688 136.59375 146.238281 136.8125 146.238281 Z M 143.421875 151.347656 C 143.535156 151.222656 143.664062 151.160156 143.8125 151.160156 C 143.96875 151.160156 144.101562 151.214844 144.21875 151.332031 C 144.332031 151.457031 144.390625 151.605469 144.390625 151.785156 C 144.390625 151.949219 144.332031 152.089844 144.21875 152.207031 C 144.101562 152.332031 143.96875 152.394531 143.8125 152.394531 C 143.664062 152.394531 143.535156 152.332031 143.421875 152.207031 C 143.304688 152.089844 143.25 151.949219 143.25 151.785156 C 143.25 151.617188 143.304688 151.472656 143.421875 151.347656 Z M 136.359375 151.285156 L 141.34375 151.285156 C 141.445312 151.285156 141.53125 151.332031 141.59375 151.425781 C 141.65625 151.527344 141.6875 151.648438 141.6875 151.785156 C 141.6875 151.929688 141.65625 152.050781 141.59375 152.144531 C 141.53125 152.238281 141.445312 152.285156 141.34375 152.285156 L 136.359375 152.285156 C 136.273438 152.285156 136.191406 152.230469 136.109375 152.128906 C 136.035156 152.035156 136 151.917969 136 151.785156 C 136 151.648438 136.035156 151.527344 136.109375 151.425781 C 136.179688 151.332031 136.265625 151.285156 136.359375 151.285156 Z M 137.8125 153.679688 L 143.984375 153.679688 C 144.085938 153.679688 144.171875 153.730469 144.234375 153.835938 C 144.304688 153.9375 144.34375 154.046875 144.34375 154.164062 C 144.34375 154.296875 144.304688 154.417969 144.234375 154.523438 C 144.171875 154.625 144.085938 154.679688 143.984375 154.679688 L 141.6875 154.679688 L 141.6875 156.179688 C 141.6875 156.273438 141.644531 156.34375 141.5625 156.398438 C 141.488281 156.449219 141.398438 156.476562 141.296875 156.476562 C 141.191406 156.476562 141.097656 156.449219 141.015625 156.398438 C 140.941406 156.34375 140.90625 156.273438 140.90625 156.179688 L 140.90625 154.679688 L 137.8125 154.679688 C 137.46875 154.679688 137.222656 154.75 137.078125 154.898438 C 136.941406 155.042969 136.875 155.296875 136.875 155.664062 L 136.875 156.039062 C 136.875 156.171875 136.832031 156.277344 136.75 156.351562 C 136.664062 156.433594 136.5625 156.476562 136.4375 156.476562 C 136.320312 156.476562 136.21875 156.433594 136.125 156.351562 C 136.039062 156.265625 136 156.164062 136 156.039062 L 136 155.664062 C 136 154.339844 136.601562 153.679688 137.8125 153.679688 Z M 141.28125 156.855469 C 141.40625 156.855469 141.515625 156.925781 141.609375 157.074219 C 141.710938 157.21875 141.765625 157.363281 141.765625 157.511719 C 141.765625 157.675781 141.695312 157.78125 141.5625 157.824219 L 137.375 159.417969 L 141.5625 160.839844 C 141.695312 160.902344 141.765625 161.003906 141.765625 161.152344 C 141.765625 161.285156 141.710938 161.425781 141.609375 161.574219 C 141.515625 161.730469 141.398438 161.808594 141.265625 161.808594 C 141.222656 161.808594 141.179688 161.792969 141.140625 161.761719 L 136.265625 159.949219 L 135.65625 159.714844 C 135.554688 159.671875 135.367188 159.589844 135.09375 159.464844 C 134.824219 159.347656 134.625 159.25 134.5 159.167969 C 134.375 159.09375 134.21875 158.984375 134.03125 158.839844 C 133.835938 158.691406 133.695312 158.550781 133.609375 158.417969 C 133.515625 158.28125 133.433594 158.121094 133.359375 157.933594 C 133.289062 157.746094 133.25 157.546875 133.25 157.339844 C 133.25 157.027344 133.402344 156.871094 133.703125 156.871094 C 133.984375 156.871094 134.125 156.964844 134.125 157.152344 C 134.125 157.515625 134.328125 157.863281 134.734375 158.199219 C 135.140625 158.542969 135.65625 158.777344 136.28125 158.902344 L 141.140625 156.902344 C 141.191406 156.871094 141.238281 156.855469 141.28125 156.855469 Z M 142.90625 164.464844 C 143.070312 164.464844 143.207031 164.535156 143.3125 164.683594 L 144.625 165.777344 C 144.726562 165.878906 144.78125 165.984375 144.78125 166.089844 C 144.78125 166.203125 144.75 166.308594 144.6875 166.402344 C 144.625 166.496094 144.535156 166.542969 144.421875 166.542969 L 136.359375 166.542969 C 136.242188 166.542969 136.15625 166.488281 136.09375 166.386719 C 136.03125 166.292969 136 166.171875 136 166.027344 C 136 165.890625 136.03125 165.769531 136.09375 165.667969 C 136.15625 165.574219 136.242188 165.527344 136.359375 165.527344 L 143.265625 165.527344 L 142.609375 165.089844 C 142.523438 165.003906 142.484375 164.921875 142.484375 164.839844 C 142.484375 164.734375 142.523438 164.644531 142.609375 164.574219 C 142.691406 164.5 142.789062 164.464844 142.90625 164.464844 Z M 138.546875 167.988281 L 142.15625 167.988281 C 143.0625 167.988281 143.722656 168.226562 144.140625 168.707031 C 144.554688 169.183594 144.765625 169.820312 144.765625 170.613281 C 144.765625 171.414062 144.554688 172.039062 144.140625 172.488281 C 143.734375 172.933594 143.25 173.160156 142.6875 173.160156 C 142.382812 173.160156 142.234375 173.003906 142.234375 172.691406 C 142.234375 172.347656 142.367188 172.175781 142.640625 172.175781 C 143.003906 172.175781 143.296875 172.023438 143.515625 171.722656 C 143.742188 171.417969 143.859375 171.042969 143.859375 170.597656 C 143.859375 169.535156 143.289062 169.003906 142.15625 169.003906 L 140.46875 169.003906 C 140.96875 169.386719 141.21875 169.972656 141.21875 170.753906 C 141.21875 172.355469 140.410156 173.160156 138.796875 173.160156 L 138.546875 173.160156 C 137.640625 173.160156 136.972656 172.925781 136.546875 172.457031 C 136.128906 171.988281 135.921875 171.363281 135.921875 170.582031 C 135.921875 169.800781 136.128906 169.167969 136.546875 168.691406 C 136.972656 168.222656 137.640625 167.988281 138.546875 167.988281 Z M 138.5 169.003906 C 137.363281 169.003906 136.796875 169.527344 136.796875 170.582031 C 136.796875 171.632812 137.363281 172.160156 138.5 172.160156 L 138.75 172.160156 C 139.832031 172.160156 140.375 171.632812 140.375 170.582031 C 140.375 169.527344 139.867188 169.003906 138.859375 169.003906 Z M 136 176.046875 "/>
<path style=" stroke:none;fill-rule:nonzero;fill:rgb(0%,0%,0%);fill-opacity:1;" d="M 117.375 10.421875 C 117.507812 10.421875 117.632812 10.46875 117.75 10.5625 C 117.875 10.65625 117.9375 10.753906 117.9375 10.859375 C 117.9375 10.921875 117.882812 11.007812 117.78125 11.125 C 117.6875 11.238281 117.582031 11.351562 117.46875 11.46875 C 117.351562 11.582031 117.242188 11.765625 117.140625 12.015625 C 117.046875 12.265625 116.988281 12.546875 116.96875 12.859375 L 120.15625 12.859375 L 120.40625 12.203125 C 120.457031 12.054688 120.550781 11.863281 120.6875 11.625 C 120.820312 11.382812 120.957031 11.207031 121.09375 11.09375 C 121.238281 10.976562 121.429688 10.875 121.671875 10.78125 C 121.910156 10.6875 122.175781 10.640625 122.46875 10.640625 C 122.832031 10.640625 123.148438 10.703125 123.421875 10.828125 C 123.703125 10.953125 123.921875 11.125 124.078125 11.34375 C 124.234375 11.570312 124.351562 11.804688 124.4375 12.046875 C 124.519531 12.296875 124.578125 12.566406 124.609375 12.859375 L 124.96875 12.859375 C 125.03125 12.859375 125.085938 12.882812 125.140625 12.9375 C 125.191406 13 125.21875 13.078125 125.21875 13.171875 C 125.21875 13.242188 125.191406 13.3125 125.140625 13.375 C 125.085938 13.445312 125.03125 13.484375 124.96875 13.484375 L 124.625 13.484375 C 124.601562 13.960938 124.519531 14.394531 124.375 14.78125 C 124.238281 15.175781 124.0625 15.375 123.84375 15.375 C 123.726562 15.375 123.601562 15.332031 123.46875 15.25 C 123.34375 15.175781 123.28125 15.070312 123.28125 14.9375 C 123.28125 14.90625 123.347656 14.738281 123.484375 14.4375 C 123.628906 14.144531 123.710938 13.828125 123.734375 13.484375 L 120.984375 13.484375 C 120.878906 13.796875 120.769531 14.050781 120.65625 14.25 C 120.550781 14.457031 120.40625 14.675781 120.21875 14.90625 C 120.03125 15.132812 119.789062 15.304688 119.5 15.421875 C 119.207031 15.535156 118.863281 15.59375 118.46875 15.59375 C 117.769531 15.59375 117.210938 15.398438 116.796875 15.015625 C 116.390625 14.640625 116.144531 14.128906 116.0625 13.484375 L 115.625 13.484375 C 115.5625 13.484375 115.507812 13.445312 115.453125 13.375 C 115.402344 13.3125 115.375 13.242188 115.375 13.171875 C 115.375 13.078125 115.402344 13 115.453125 12.9375 C 115.507812 12.882812 115.5625 12.859375 115.625 12.859375 L 116.03125 12.859375 C 116.03125 12.171875 116.179688 11.59375 116.484375 11.125 C 116.796875 10.65625 117.09375 10.421875 117.375 10.421875 Z M 122.5625 11.59375 C 122.1875 11.59375 121.90625 11.703125 121.71875 11.921875 C 121.53125 12.140625 121.359375 12.46875 121.203125 12.90625 L 123.71875 12.90625 C 123.625 12.03125 123.238281 11.59375 122.5625 11.59375 Z M 117 13.4375 C 117.125 14.226562 117.582031 14.625 118.375 14.625 C 118.789062 14.625 119.113281 14.519531 119.34375 14.3125 C 119.582031 14.113281 119.78125 13.820312 119.9375 13.4375 Z M 124.921875 18.894531 C 125.003906 18.894531 125.070312 18.933594 125.125 19.019531 C 125.1875 19.113281 125.21875 19.210938 125.21875 19.316406 C 125.21875 19.429688 125.1875 19.535156 125.125 19.628906 C 125.070312 19.722656 125.003906 19.769531 124.921875 19.769531 L 123.171875 19.644531 C 123.085938 19.644531 123.015625 19.617188 122.953125 19.566406 C 122.890625 19.511719 122.859375 19.433594 122.859375 19.332031 C 122.859375 19.121094 122.960938 19.019531 123.171875 19.019531 Z M 124.921875 20.519531 C 125.003906 20.519531 125.070312 20.558594 125.125 20.644531 C 125.1875 20.738281 125.21875 20.839844 125.21875 20.957031 C 125.21875 21.070312 125.1875 21.167969 125.125 21.253906 C 125.070312 21.347656 125.003906 21.394531 124.921875 21.394531 L 123.171875 21.285156 C 123.085938 21.285156 123.015625 21.253906 122.953125 21.191406 C 122.890625 21.136719 122.859375 21.058594 122.859375 20.957031 C 122.859375 20.746094 122.960938 20.644531 123.171875 20.644531 Z M 114.875 22.085938 C 115.460938 22.085938 115.898438 22.40625 116.1875 23.054688 C 116.332031 22.648438 116.597656 22.445312 116.984375 22.445312 C 117.347656 22.445312 117.644531 22.640625 117.875 23.039062 C 118.238281 22.589844 118.742188 22.367188 119.390625 22.367188 L 119.78125 22.367188 C 120.363281 22.367188 120.835938 22.558594 121.203125 22.945312 C 121.578125 23.339844 121.765625 23.855469 121.765625 24.492188 C 121.765625 25.03125 121.609375 25.5 121.296875 25.898438 C 121.816406 26.136719 122.078125 26.40625 122.078125 26.710938 C 122.078125 26.84375 122.035156 26.949219 121.953125 27.023438 C 121.878906 27.105469 121.796875 27.148438 121.703125 27.148438 C 121.578125 27.148438 121.484375 27.078125 121.421875 26.945312 C 121.347656 26.671875 121.179688 26.453125 120.921875 26.289062 C 120.617188 26.539062 120.238281 26.664062 119.78125 26.664062 L 119.390625 26.664062 C 118.804688 26.664062 118.328125 26.460938 117.953125 26.054688 C 117.578125 25.648438 117.390625 25.125 117.390625 24.492188 C 117.390625 24.167969 117.453125 23.871094 117.578125 23.601562 C 117.453125 23.402344 117.3125 23.304688 117.15625 23.304688 C 117.007812 23.304688 116.894531 23.398438 116.8125 23.585938 C 116.726562 23.773438 116.675781 24 116.65625 24.273438 C 116.632812 24.542969 116.59375 24.835938 116.53125 25.148438 C 116.476562 25.46875 116.40625 25.765625 116.3125 26.039062 C 116.226562 26.308594 116.078125 26.539062 115.859375 26.726562 C 115.632812 26.914062 115.34375 27.007812 115 27.007812 C 114.4375 27.007812 114.007812 26.777344 113.703125 26.320312 C 113.402344 25.871094 113.25 25.289062 113.25 24.570312 C 113.25 23.851562 113.398438 23.257812 113.6875 22.789062 C 113.980469 22.320312 114.375 22.085938 114.875 22.085938 Z M 114.984375 23.039062 C 114.671875 23.039062 114.421875 23.171875 114.234375 23.445312 C 114.046875 23.726562 113.953125 24.09375 113.953125 24.554688 C 113.953125 25 114.046875 25.359375 114.234375 25.632812 C 114.421875 25.902344 114.671875 26.039062 114.984375 26.039062 C 115.109375 26.039062 115.21875 26.011719 115.3125 25.960938 C 115.40625 25.917969 115.492188 25.851562 115.5625 25.757812 C 115.625 25.664062 115.679688 25.5625 115.71875 25.460938 C 115.761719 25.367188 115.796875 25.242188 115.828125 25.085938 C 115.859375 24.9375 115.882812 24.8125 115.890625 24.710938 C 115.902344 24.617188 115.917969 24.484375 115.9375 24.320312 C 115.949219 24.152344 115.960938 24.039062 115.96875 23.976562 C 115.761719 23.351562 115.433594 23.039062 114.984375 23.039062 Z M 119.390625 23.335938 C 119.003906 23.335938 118.6875 23.4375 118.4375 23.648438 C 118.195312 23.855469 118.078125 24.148438 118.078125 24.523438 C 118.078125 24.875 118.195312 25.15625 118.4375 25.367188 C 118.6875 25.585938 119.003906 25.695312 119.390625 25.695312 L 119.78125 25.695312 C 120.144531 25.695312 120.453125 25.585938 120.703125 25.367188 C 120.953125 25.15625 121.078125 24.871094 121.078125 24.507812 C 121.078125 24.140625 120.953125 23.855469 120.703125 23.648438 C 120.460938 23.4375 120.15625 23.335938 119.78125 23.335938 Z M 116.359375 28.007812 L 121.34375 28.007812 C 121.445312 28.007812 121.53125 28.054688 121.59375 28.148438 C 121.65625 28.242188 121.6875 28.359375 121.6875 28.507812 C 121.6875 28.632812 121.65625 28.734375 121.59375 28.820312 C 121.53125 28.914062 121.445312 28.960938 121.34375 28.960938 L 120.78125 28.960938 C 121.050781 29.105469 121.28125 29.320312 121.46875 29.601562 C 121.664062 29.882812 121.765625 30.195312 121.765625 30.539062 L 121.765625 30.945312 C 121.765625 31.046875 121.71875 31.136719 121.625 31.210938 C 121.53125 31.28125 121.421875 31.320312 121.296875 31.320312 C 121.179688 31.320312 121.078125 31.28125 120.984375 31.210938 C 120.898438 31.136719 120.859375 31.046875 120.859375 30.945312 L 120.859375 30.539062 C 120.859375 30.121094 120.691406 29.761719 120.359375 29.460938 C 120.035156 29.15625 119.613281 29.007812 119.09375 29.007812 L 116.359375 29.007812 C 116.273438 29.007812 116.191406 28.953125 116.109375 28.851562 C 116.035156 28.757812 116 28.640625 116 28.507812 C 116 28.371094 116.035156 28.25 116.109375 28.148438 C 116.179688 28.054688 116.265625 28.007812 116.359375 28.007812 Z M 118.234375 31.917969 L 119.484375 31.917969 C 120.109375 31.917969 120.644531 32.152344 121.09375 32.621094 C 121.539062 33.089844 121.765625 33.652344 121.765625 34.308594 C 121.765625 34.933594 121.550781 35.472656 121.125 35.933594 C 120.707031 36.390625 120.179688 36.621094 119.546875 36.621094 C 119.316406 36.621094 119.128906 36.589844 118.984375 36.527344 C 118.847656 36.472656 118.75 36.390625 118.6875 36.277344 C 118.632812 36.160156 118.597656 36.050781 118.578125 35.949219 C 118.566406 35.855469 118.5625 35.71875 118.5625 35.542969 L 118.5625 32.917969 L 118.203125 32.917969 C 117.753906 32.917969 117.398438 33.074219 117.140625 33.386719 C 116.878906 33.707031 116.75 34.121094 116.75 34.621094 C 116.75 34.890625 116.785156 35.121094 116.859375 35.308594 C 116.941406 35.503906 117.019531 35.660156 117.09375 35.777344 C 117.175781 35.902344 117.21875 36 117.21875 36.074219 C 117.21875 36.1875 117.164062 36.28125 117.0625 36.355469 C 116.957031 36.4375 116.851562 36.480469 116.75 36.480469 C 116.570312 36.480469 116.382812 36.296875 116.1875 35.933594 C 116 35.566406 115.90625 35.121094 115.90625 34.589844 C 115.90625 33.808594 116.117188 33.167969 116.546875 32.667969 C 116.972656 32.167969 117.535156 31.917969 118.234375 31.917969 Z M 119.234375 32.917969 L 119.234375 35.136719 C 119.234375 35.34375 119.257812 35.484375 119.3125 35.558594 C 119.363281 35.628906 119.460938 35.667969 119.609375 35.667969 C 119.972656 35.667969 120.289062 35.53125 120.5625 35.261719 C 120.832031 35 120.96875 34.683594 120.96875 34.308594 C 120.96875 33.921875 120.84375 33.59375 120.59375 33.324219 C 120.34375 33.050781 120.03125 32.917969 119.65625 32.917969 Z M 121.28125 37.152344 C 121.40625 37.152344 121.515625 37.222656 121.609375 37.371094 C 121.710938 37.515625 121.765625 37.660156 121.765625 37.808594 C 121.765625 37.972656 121.695312 38.078125 121.5625 38.121094 L 117.375 39.714844 L 121.5625 41.136719 C 121.695312 41.199219 121.765625 41.300781 121.765625 41.449219 C 121.765625 41.582031 121.710938 41.722656 121.609375 41.871094 C 121.515625 42.027344 121.398438 42.105469 121.265625 42.105469 C 121.222656 42.105469 121.179688 42.089844 121.140625 42.058594 L 116.265625 40.246094 L 115.65625 40.011719 C 115.554688 39.96875 115.367188 39.886719 115.09375 39.761719 C 114.824219 39.644531 114.625 39.546875 114.5 39.464844 C 114.375 39.390625 114.21875 39.28125 114.03125 39.136719 C 113.835938 38.988281 113.695312 38.847656 113.609375 38.714844 C 113.515625 38.578125 113.433594 38.417969 113.359375 38.230469 C 113.289062 38.042969 113.25 37.84375 113.25 37.636719 C 113.25 37.324219 113.402344 37.167969 113.703125 37.167969 C 113.984375 37.167969 114.125 37.261719 114.125 37.449219 C 114.125 37.8125 114.328125 38.160156 114.734375 38.496094 C 115.140625 38.839844 115.65625 39.074219 116.28125 39.199219 L 121.140625 37.199219 C 121.191406 37.167969 121.238281 37.152344 121.28125 37.152344 Z M 116.359375 45.375 L 124.765625 45.375 C 124.867188 45.375 124.953125 45.421875 125.015625 45.515625 C 125.085938 45.609375 125.125 45.722656 125.125 45.859375 C 125.125 46.003906 125.085938 46.125 125.015625 46.21875 C 124.953125 46.320312 124.867188 46.375 124.765625 46.375 L 120.84375 46.375 C 121.101562 46.519531 121.320312 46.726562 121.5 47 C 121.675781 47.269531 121.765625 47.582031 121.765625 47.9375 C 121.765625 48.519531 121.535156 49.023438 121.078125 49.453125 C 120.628906 49.878906 120.085938 50.09375 119.453125 50.09375 L 118.234375 50.09375 C 117.617188 50.09375 117.078125 49.878906 116.609375 49.453125 C 116.140625 49.023438 115.90625 48.535156 115.90625 47.984375 C 115.90625 47.617188 115.996094 47.285156 116.171875 46.984375 C 116.359375 46.679688 116.582031 46.460938 116.84375 46.328125 L 116.359375 46.328125 C 116.265625 46.328125 116.179688 46.28125 116.109375 46.1875 C 116.035156 46.09375 116 45.988281 116 45.875 C 116 45.738281 116.035156 45.617188 116.109375 45.515625 C 116.179688 45.421875 116.265625 45.375 116.359375 45.375 Z M 117.90625 46.375 C 117.707031 46.375 117.472656 46.515625 117.203125 46.796875 C 116.929688 47.078125 116.796875 47.390625 116.796875 47.734375 C 116.796875 48.097656 116.941406 48.414062 117.234375 48.6875 C 117.535156 48.957031 117.867188 49.09375 118.234375 49.09375 L 119.453125 49.09375 C 119.816406 49.09375 120.140625 48.957031 120.421875 48.6875 C 120.710938 48.414062 120.859375 48.097656 120.859375 47.734375 C 120.859375 47.367188 120.726562 47.050781 120.46875 46.78125 C 120.207031 46.507812 119.867188 46.375 119.453125 46.375 Z M 116.359375 51.398438 L 124.765625 51.398438 C 124.867188 51.398438 124.953125 51.445312 125.015625 51.539062 C 125.085938 51.632812 125.125 51.75 125.125 51.898438 C 125.125 52.042969 125.085938 52.164062 125.015625 52.257812 C 124.953125 52.351562 124.867188 52.398438 124.765625 52.398438 L 116.359375 52.398438 C 116.273438 52.398438 116.191406 52.34375 116.109375 52.242188 C 116.035156 52.148438 116 52.03125 116 51.898438 C 116 51.761719 116.035156 51.640625 116.109375 51.539062 C 116.179688 51.445312 116.265625 51.398438 116.359375 51.398438 Z M 117.5 53.554688 C 118.125 53.554688 118.554688 53.792969 118.796875 54.273438 C 119.046875 54.75 119.171875 55.445312 119.171875 56.351562 L 119.171875 56.929688 L 119.421875 56.929688 C 119.816406 56.929688 120.160156 56.820312 120.453125 56.601562 C 120.753906 56.382812 120.90625 56.054688 120.90625 55.617188 C 120.90625 55.273438 120.847656 54.96875 120.734375 54.710938 C 120.617188 54.460938 120.5625 54.324219 120.5625 54.304688 C 120.5625 54.1875 120.613281 54.09375 120.71875 54.023438 C 120.832031 53.960938 120.945312 53.929688 121.0625 53.929688 C 121.25 53.929688 121.410156 54.109375 121.546875 54.476562 C 121.691406 54.839844 121.765625 55.226562 121.765625 55.632812 C 121.765625 56.414062 121.539062 56.992188 121.09375 57.367188 C 120.644531 57.742188 120.09375 57.929688 119.4375 57.929688 L 116.359375 57.929688 C 116.253906 57.929688 116.164062 57.882812 116.09375 57.789062 C 116.03125 57.695312 116 57.574219 116 57.429688 C 116 57.304688 116.03125 57.195312 116.09375 57.101562 C 116.164062 57.015625 116.253906 56.976562 116.359375 56.976562 L 116.84375 56.976562 C 116.21875 56.433594 115.90625 55.828125 115.90625 55.164062 C 115.90625 54.683594 116.039062 54.292969 116.3125 53.992188 C 116.582031 53.699219 116.976562 53.554688 117.5 53.554688 Z M 117.609375 54.554688 C 117.304688 54.554688 117.078125 54.636719 116.921875 54.804688 C 116.773438 54.96875 116.703125 55.195312 116.703125 55.476562 C 116.703125 55.808594 116.835938 56.132812 117.109375 56.445312 C 117.378906 56.765625 117.65625 56.929688 117.9375 56.929688 L 118.5625 56.929688 L 118.5625 56.507812 C 118.5625 56.277344 118.550781 56.078125 118.53125 55.914062 C 118.519531 55.746094 118.492188 55.570312 118.453125 55.382812 C 118.421875 55.203125 118.367188 55.058594 118.296875 54.945312 C 118.234375 54.828125 118.144531 54.734375 118.03125 54.664062 C 117.914062 54.589844 117.773438 54.554688 117.609375 54.554688 Z M 118.234375 59.089844 L 119.4375 59.089844 C 120.125 59.089844 120.679688 59.292969 121.109375 59.699219 C 121.546875 60.105469 121.765625 60.699219 121.765625 61.480469 C 121.765625 61.980469 121.675781 62.394531 121.5 62.730469 C 121.320312 63.074219 121.132812 63.246094 120.9375 63.246094 C 120.820312 63.246094 120.707031 63.203125 120.59375 63.121094 C 120.488281 63.035156 120.4375 62.9375 120.4375 62.824219 C 120.4375 62.792969 120.503906 62.652344 120.640625 62.402344 C 120.785156 62.160156 120.859375 61.878906 120.859375 61.558594 C 120.859375 61.078125 120.734375 60.714844 120.484375 60.464844 C 120.234375 60.214844 119.882812 60.089844 119.4375 60.089844 L 118.234375 60.089844 C 117.273438 60.089844 116.796875 60.578125 116.796875 61.558594 C 116.796875 61.902344 116.867188 62.191406 117.015625 62.433594 C 117.160156 62.683594 117.234375 62.828125 117.234375 62.871094 C 117.234375 62.996094 117.179688 63.097656 117.078125 63.183594 C 116.972656 63.277344 116.863281 63.324219 116.75 63.324219 C 116.550781 63.324219 116.359375 63.144531 116.171875 62.792969 C 115.996094 62.4375 115.90625 62.003906 115.90625 61.496094 C 115.90625 60.703125 116.117188 60.105469 116.546875 59.699219 C 116.972656 59.292969 117.535156 59.089844 118.234375 59.089844 Z M 116.359375 64.3125 L 124.765625 64.3125 C 124.867188 64.3125 124.953125 64.359375 125.015625 64.453125 C 125.085938 64.546875 125.125 64.660156 125.125 64.796875 C 125.125 64.941406 125.085938 65.0625 125.015625 65.15625 C 124.953125 65.257812 124.867188 65.3125 124.765625 65.3125 L 119.15625 65.3125 L 121.625 68.046875 C 121.6875 68.117188 121.71875 68.191406 121.71875 68.265625 C 121.71875 68.378906 121.664062 68.488281 121.5625 68.59375 C 121.46875 68.707031 121.363281 68.765625 121.25 68.765625 C 121.144531 68.765625 121.0625 68.726562 121 68.65625 L 119.53125 66.984375 L 116.640625 68.984375 C 116.578125 69.023438 116.515625 69.046875 116.453125 69.046875 C 116.335938 69.046875 116.222656 68.984375 116.109375 68.859375 C 116.003906 68.742188 115.953125 68.617188 115.953125 68.484375 C 115.953125 68.378906 116.003906 68.289062 116.109375 68.21875 L 118.90625 66.3125 L 118.015625 65.3125 L 116.359375 65.3125 C 116.273438 65.3125 116.191406 65.257812 116.109375 65.15625 C 116.035156 65.0625 116 64.945312 116 64.8125 C 116 64.675781 116.035156 64.554688 116.109375 64.453125 C 116.179688 64.359375 116.265625 64.3125 116.359375 64.3125 Z M 124.921875 69.617188 C 125.003906 69.617188 125.070312 69.65625 125.125 69.742188 C 125.1875 69.835938 125.21875 69.933594 125.21875 70.039062 C 125.21875 70.152344 125.1875 70.257812 125.125 70.351562 C 125.070312 70.445312 125.003906 70.492188 124.921875 70.492188 L 123.171875 70.367188 C 123.085938 70.367188 123.015625 70.339844 122.953125 70.289062 C 122.890625 70.234375 122.859375 70.15625 122.859375 70.054688 C 122.859375 69.84375 122.960938 69.742188 123.171875 69.742188 Z M 124.921875 71.242188 C 125.003906 71.242188 125.070312 71.28125 125.125 71.367188 C 125.1875 71.460938 125.21875 71.5625 125.21875 71.679688 C 125.21875 71.792969 125.1875 71.890625 125.125 71.976562 C 125.070312 72.070312 125.003906 72.117188 124.921875 72.117188 L 123.171875 72.007812 C 123.085938 72.007812 123.015625 71.976562 122.953125 71.914062 C 122.890625 71.859375 122.859375 71.78125 122.859375 71.679688 C 122.859375 71.46875 122.960938 71.367188 123.171875 71.367188 Z M 116 72.542969 "/>
</g>
</svg>
