<?xml version="1.0" encoding="UTF-8"?>
<svg xmlns="http://www.w3.org/2000/svg" xmlns:xlink="http://www.w3.org/1999/xlink" width="384pt" height="288pt" viewBox="0 0 384 288" version="1.1">
<g id="surface165">
<path style=" stroke:none;fill-rule:nonzero;fill:rgb(0%,0%,0%);fill-opacity:1;" d="M 0 0 L 284 0 L 284 288 L 0 288 Z M 0 0 "/>
<path style=" stroke:none;fill-rule:nonzero;fill:rgb(50.196078%,50.196078%,50.196078%);fill-opacity:1;" d="M 0 0 L 35.5 0 L 35.5 288 L 0 288 Z M 0 0 "/>
<path style=" stroke:none;fill-rule:nonzero;fill:rgb(0%,0%,0%);fill-opacity:1;" d="M 35.5 0 L 71 0 L 71 288 L 35.5 288 Z M 35.5 0 "/>
<path style=" stroke:none;fill-rule:nonzero;fill:rgb(50.196078%,50.196078%,50.196078%);fill-opacity:1;" d="M 71 0 L 106.5 0 L 106.5 288 L 71 288 Z M 71 0 "/>
<path style=" stroke:none;fill-rule:nonzero;fill:rgb(0%,0%,0%);fill-opacity:1;" d="M 106.5 0 L 142 0 L 142 288 L 106.5 288 Z M 106.5 0 "/>
<path style=" stroke:none;fill-rule:nonzero;fill:rgb(50.196078%,50.196078%,50.196078%);fill-opacity:1;" d="M 142 0 L 177.5 0 L 177.5 288 L 142 288 Z M 142 0 "/>
<path style=" stroke:none;fill-rule:nonzero;fill:rgb(0%,0%,0%);fill-opacity:1;" d="M 177.5 0 L 213 0 L 213 288 L 177.5 288 Z M 177.5 0 "/>
<path style=" stroke:none;fill-rule:nonzero;fill:rgb(50.196078%,50.196078%,50.196078%);fill-opacity:1;" d="M 213 0 L 248.5 0 L 248.5 288 L 213 288 Z M 213 0 "/>
<path style=" stroke:none;fill-rule:nonzero;fill:rgb(0%,0%,0%);fill-opacity:1;" d="M 248.5 0 L 284 0 L 284 288 L 248.5 288 Z M 248.5 0 "/>
<path style=" stroke:none;fill-rule:nonzero;fill:rgb(0%,0%,0%);fill-opacity:1;" d="M 380.34375 50.71875 L 386.875 50.71875 C 387.5 50.71875 388.03125 50.925781 388.46875 51.34375 C 388.90625 51.769531 389.125 52.269531 389.125 52.84375 L 389.125 53.265625 C 389.125 53.390625 389.078125 53.488281 388.984375 53.5625 C 388.898438 53.632812 388.796875 53.671875 388.671875 53.671875 C 388.554688 53.671875 388.457031 53.632812 388.375 53.5625 C 388.289062 53.488281 388.25 53.390625 388.25 53.265625 L 388.25 53.015625 C 388.25 52.640625 388.125 52.332031 387.875 52.09375 C 387.625 51.851562 387.316406 51.726562 386.953125 51.71875 L 385.6875 51.71875 L 385.6875 53.359375 C 385.6875 53.453125 385.644531 53.523438 385.5625 53.578125 C 385.488281 53.640625 385.398438 53.671875 385.296875 53.671875 C 385.191406 53.671875 385.097656 53.640625 385.015625 53.578125 C 384.941406 53.523438 384.90625 53.453125 384.90625 53.359375 L 384.90625 51.71875 L 380.34375 51.71875 C 380.25 51.71875 380.164062 51.664062 380.09375 51.5625 C 380.03125 51.46875 380 51.347656 380 51.203125 C 380 51.066406 380.03125 50.953125 380.09375 50.859375 C 380.15625 50.765625 380.238281 50.71875 380.34375 50.71875 Z M 382.234375 54.265625 L 383.453125 54.265625 C 384.066406 54.265625 384.601562 54.5 385.0625 54.96875 C 385.53125 55.4375 385.765625 55.988281 385.765625 56.625 C 385.765625 57.269531 385.535156 57.828125 385.078125 58.296875 C 384.617188 58.773438 384.078125 59.015625 383.453125 59.015625 L 382.234375 59.015625 C 381.617188 59.015625 381.078125 58.773438 380.609375 58.296875 C 380.140625 57.816406 379.90625 57.257812 379.90625 56.625 C 379.90625 56 380.140625 55.445312 380.609375 54.96875 C 381.078125 54.5 381.617188 54.265625 382.234375 54.265625 Z M 382.234375 55.265625 C 381.859375 55.265625 381.523438 55.398438 381.234375 55.671875 C 380.941406 55.941406 380.796875 56.265625 380.796875 56.640625 C 380.796875 57.015625 380.941406 57.335938 381.234375 57.609375 C 381.535156 57.878906 381.867188 58.015625 382.234375 58.015625 L 383.453125 58.015625 C 383.816406 58.015625 384.140625 57.878906 384.421875 57.609375 C 384.710938 57.335938 384.859375 57.015625 384.859375 56.640625 C 384.859375 56.265625 384.710938 55.941406 384.421875 55.671875 C 384.140625 55.398438 383.816406 55.265625 383.453125 55.265625 Z M 380.359375 60.316406 L 388.765625 60.316406 C 388.867188 60.316406 388.953125 60.363281 389.015625 60.457031 C 389.085938 60.550781 389.125 60.667969 389.125 60.816406 C 389.125 60.960938 389.085938 61.082031 389.015625 61.175781 C 388.953125 61.269531 388.867188 61.316406 388.765625 61.316406 L 380.359375 61.316406 C 380.273438 61.316406 380.191406 61.261719 380.109375 61.160156 C 380.035156 61.066406 380 60.949219 380 60.816406 C 380 60.679688 380.035156 60.558594 380.109375 60.457031 C 380.179688 60.363281 380.265625 60.316406 380.359375 60.316406 Z M 382.234375 62.617188 L 383.453125 62.617188 C 384.085938 62.617188 384.628906 62.828125 385.078125 63.257812 C 385.535156 63.683594 385.765625 64.1875 385.765625 64.773438 C 385.765625 65.136719 385.675781 65.453125 385.5 65.726562 C 385.320312 65.996094 385.101562 66.203125 384.84375 66.351562 L 388.765625 66.351562 C 388.867188 66.351562 388.953125 66.398438 389.015625 66.492188 C 389.085938 66.585938 389.125 66.703125 389.125 66.851562 C 389.125 66.996094 389.085938 67.109375 389.015625 67.195312 C 388.953125 67.289062 388.867188 67.335938 388.765625 67.335938 L 380.359375 67.335938 C 380.265625 67.335938 380.179688 67.289062 380.109375 67.195312 C 380.035156 67.101562 380 66.984375 380 66.851562 C 380 66.726562 380.035156 66.617188 380.109375 66.523438 C 380.179688 66.4375 380.265625 66.398438 380.359375 66.398438 L 380.84375 66.398438 C 380.582031 66.261719 380.359375 66.039062 380.171875 65.726562 C 379.996094 65.421875 379.90625 65.09375 379.90625 64.742188 C 379.90625 64.179688 380.140625 63.683594 380.609375 63.257812 C 381.078125 62.828125 381.617188 62.617188 382.234375 62.617188 Z M 382.234375 63.617188 C 381.867188 63.617188 381.535156 63.75 381.234375 64.023438 C 380.941406 64.292969 380.796875 64.609375 380.796875 64.976562 C 380.796875 65.328125 380.929688 65.648438 381.203125 65.929688 C 381.472656 66.210938 381.707031 66.351562 381.90625 66.351562 L 383.453125 66.351562 C 383.867188 66.351562 384.207031 66.210938 384.46875 65.929688 C 384.726562 65.65625 384.859375 65.34375 384.859375 64.992188 C 384.859375 64.617188 384.710938 64.292969 384.421875 64.023438 C 384.140625 63.75 383.816406 63.617188 383.453125 63.617188 Z M 380.359375 68.917969 L 388.40625 68.917969 C 388.519531 68.917969 388.609375 68.957031 388.671875 69.042969 C 388.734375 69.136719 388.765625 69.246094 388.765625 69.371094 L 388.765625 73.636719 C 388.765625 73.75 388.722656 73.832031 388.640625 73.886719 C 388.554688 73.949219 388.453125 73.980469 388.328125 73.980469 C 388.203125 73.980469 388.09375 73.949219 388 73.886719 C 387.90625 73.824219 387.859375 73.738281 387.859375 73.636719 L 387.859375 69.917969 L 384.8125 69.917969 L 384.8125 71.792969 C 384.8125 71.894531 384.769531 71.980469 384.6875 72.042969 C 384.601562 72.105469 384.5 72.136719 384.375 72.136719 C 384.269531 72.136719 384.175781 72.105469 384.09375 72.042969 C 384.007812 71.988281 383.96875 71.90625 383.96875 71.792969 L 383.96875 69.917969 L 380.90625 69.917969 L 380.90625 73.636719 C 380.90625 73.738281 380.859375 73.824219 380.765625 73.886719 C 380.679688 73.949219 380.570312 73.980469 380.4375 73.980469 C 380.320312 73.980469 380.21875 73.949219 380.125 73.886719 C 380.039062 73.832031 380 73.75 380 73.636719 L 380 69.371094 C 380 69.246094 380.03125 69.136719 380.09375 69.042969 C 380.15625 68.957031 380.242188 68.917969 380.359375 68.917969 Z M 385.28125 74.367188 C 385.394531 74.367188 385.492188 74.433594 385.578125 74.570312 C 385.671875 74.714844 385.71875 74.859375 385.71875 75.007812 C 385.71875 75.171875 385.648438 75.28125 385.515625 75.335938 L 381.4375 76.851562 L 385.46875 78.351562 C 385.632812 78.414062 385.71875 78.523438 385.71875 78.679688 C 385.71875 78.804688 385.671875 78.9375 385.578125 79.085938 C 385.492188 79.242188 385.394531 79.320312 385.28125 79.320312 C 385.21875 79.320312 385.15625 79.304688 385.09375 79.273438 L 380.109375 77.304688 C 379.964844 77.242188 379.890625 77.089844 379.890625 76.851562 C 379.890625 76.601562 379.964844 76.445312 380.109375 76.382812 L 385.09375 74.414062 C 385.1875 74.382812 385.25 74.367188 385.28125 74.367188 Z M 382.234375 79.957031 L 383.484375 79.957031 C 384.109375 79.957031 384.644531 80.191406 385.09375 80.660156 C 385.539062 81.128906 385.765625 81.691406 385.765625 82.347656 C 385.765625 82.972656 385.550781 83.511719 385.125 83.972656 C 384.707031 84.429688 384.179688 84.660156 383.546875 84.660156 C 383.316406 84.660156 383.128906 84.628906 382.984375 84.566406 C 382.847656 84.511719 382.75 84.429688 382.6875 84.316406 C 382.632812 84.199219 382.597656 84.089844 382.578125 83.988281 C 382.566406 83.894531 382.5625 83.757812 382.5625 83.582031 L 382.5625 80.957031 L 382.203125 80.957031 C 381.753906 80.957031 381.398438 81.113281 381.140625 81.425781 C 380.878906 81.746094 380.75 82.160156 380.75 82.660156 C 380.75 82.929688 380.785156 83.160156 380.859375 83.347656 C 380.941406 83.542969 381.019531 83.699219 381.09375 83.816406 C 381.175781 83.941406 381.21875 84.039062 381.21875 84.113281 C 381.21875 84.226562 381.164062 84.320312 381.0625 84.394531 C 380.957031 84.476562 380.851562 84.519531 380.75 84.519531 C 380.570312 84.519531 380.382812 84.335938 380.1875 83.972656 C 380 83.605469 379.90625 83.160156 379.90625 82.628906 C 379.90625 81.847656 380.117188 81.207031 380.546875 80.707031 C 380.972656 80.207031 381.535156 79.957031 382.234375 79.957031 Z M 383.234375 80.957031 L 383.234375 83.175781 C 383.234375 83.382812 383.257812 83.523438 383.3125 83.597656 C 383.363281 83.667969 383.460938 83.707031 383.609375 83.707031 C 383.972656 83.707031 384.289062 83.570312 384.5625 83.300781 C 384.832031 83.039062 384.96875 82.722656 384.96875 82.347656 C 384.96875 81.960938 384.84375 81.632812 384.59375 81.363281 C 384.34375 81.089844 384.03125 80.957031 383.65625 80.957031 Z M 380.359375 85.753906 L 385.34375 85.753906 C 385.445312 85.753906 385.53125 85.800781 385.59375 85.894531 C 385.65625 85.988281 385.6875 86.105469 385.6875 86.253906 C 385.6875 86.378906 385.65625 86.480469 385.59375 86.566406 C 385.53125 86.660156 385.445312 86.707031 385.34375 86.707031 L 384.78125 86.707031 C 385.050781 86.851562 385.28125 87.066406 385.46875 87.347656 C 385.664062 87.628906 385.765625 87.941406 385.765625 88.285156 L 385.765625 88.691406 C 385.765625 88.792969 385.71875 88.882812 385.625 88.957031 C 385.53125 89.027344 385.421875 89.066406 385.296875 89.066406 C 385.179688 89.066406 385.078125 89.027344 384.984375 88.957031 C 384.898438 88.882812 384.859375 88.792969 384.859375 88.691406 L 384.859375 88.285156 C 384.859375 87.867188 384.691406 87.507812 384.359375 87.207031 C 384.035156 86.902344 383.613281 86.753906 383.09375 86.753906 L 380.359375 86.753906 C 380.273438 86.753906 380.191406 86.699219 380.109375 86.597656 C 380.035156 86.503906 380 86.386719 380 86.253906 C 380 86.117188 380.035156 85.996094 380.109375 85.894531 C 380.179688 85.800781 380.265625 85.753906 380.359375 85.753906 Z M 385.28125 89.320312 C 385.40625 89.320312 385.515625 89.390625 385.609375 89.539062 C 385.710938 89.683594 385.765625 89.828125 385.765625 89.976562 C 385.765625 90.140625 385.695312 90.246094 385.5625 90.289062 L 381.375 91.882812 L 385.5625 93.304688 C 385.695312 93.367188 385.765625 93.46875 385.765625 93.617188 C 385.765625 93.75 385.710938 93.890625 385.609375 94.039062 C 385.515625 94.195312 385.398438 94.273438 385.265625 94.273438 C 385.222656 94.273438 385.179688 94.257812 385.140625 94.226562 L 380.265625 92.414062 L 379.65625 92.179688 C 379.554688 92.136719 379.367188 92.054688 379.09375 91.929688 C 378.824219 91.8125 378.625 91.714844 378.5 91.632812 C 378.375 91.558594 378.21875 91.449219 378.03125 91.304688 C 377.835938 91.15625 377.695312 91.015625 377.609375 90.882812 C 377.515625 90.746094 377.433594 90.585938 377.359375 90.398438 C 377.289062 90.210938 377.25 90.011719 377.25 89.804688 C 377.25 89.492188 377.402344 89.335938 377.703125 89.335938 C 377.984375 89.335938 378.125 89.429688 378.125 89.617188 C 378.125 89.980469 378.328125 90.328125 378.734375 90.664062 C 379.140625 91.007812 379.65625 91.242188 380.28125 91.367188 L 385.140625 89.367188 C 385.191406 89.335938 385.238281 89.320312 385.28125 89.320312 Z M 380.09375 97.605469 L 388.875 97.605469 C 388.976562 97.605469 389.0625 97.652344 389.125 97.746094 C 389.1875 97.839844 389.21875 97.941406 389.21875 98.058594 L 389.21875 100.027344 C 389.21875 100.128906 389.171875 100.214844 389.078125 100.277344 C 388.992188 100.339844 388.890625 100.371094 388.765625 100.371094 C 388.640625 100.371094 388.53125 100.339844 388.4375 100.277344 C 388.351562 100.214844 388.3125 100.128906 388.3125 100.027344 L 388.3125 98.605469 L 380.640625 98.605469 L 380.640625 100.027344 C 380.640625 100.128906 380.597656 100.214844 380.515625 100.277344 C 380.429688 100.339844 380.320312 100.371094 380.1875 100.371094 C 380.070312 100.371094 379.976562 100.339844 379.890625 100.277344 C 379.796875 100.214844 379.75 100.128906 379.75 100.027344 L 379.75 98.058594 C 379.75 97.941406 379.78125 97.839844 379.84375 97.746094 C 379.90625 97.652344 379.992188 97.605469 380.09375 97.605469 Z M 381.96875 100.90625 C 382.15625 100.90625 382.28125 100.9375 382.34375 101 C 382.40625 101.070312 382.4375 101.195312 382.4375 101.375 C 382.4375 101.5625 382.40625 101.691406 382.34375 101.765625 C 382.28125 101.847656 382.179688 101.890625 382.046875 101.890625 C 381.734375 101.890625 381.453125 102.019531 381.203125 102.28125 C 380.960938 102.539062 380.84375 102.9375 380.84375 103.46875 C 380.84375 104.53125 381.394531 105.0625 382.5 105.0625 L 382.71875 105.0625 C 383.695312 105.0625 384.1875 104.53125 384.1875 103.46875 C 384.1875 103.226562 384.328125 103.109375 384.609375 103.109375 C 384.890625 103.109375 385.03125 103.226562 385.03125 103.46875 C 385.03125 103.925781 385.132812 104.269531 385.34375 104.5 C 385.550781 104.738281 385.925781 104.859375 386.46875 104.859375 C 387.40625 104.859375 387.875 104.410156 387.875 103.515625 C 387.875 102.992188 387.757812 102.628906 387.53125 102.421875 C 387.300781 102.210938 387.03125 102.109375 386.71875 102.109375 C 386.425781 102.109375 386.28125 101.945312 386.28125 101.625 C 386.28125 101.40625 386.3125 101.257812 386.375 101.1875 C 386.445312 101.125 386.582031 101.09375 386.78125 101.09375 C 386.988281 101.09375 387.195312 101.128906 387.40625 101.203125 C 387.625 101.285156 387.835938 101.410156 388.046875 101.578125 C 388.253906 101.742188 388.425781 101.992188 388.5625 102.328125 C 388.695312 102.671875 388.765625 103.070312 388.765625 103.53125 C 388.765625 105.0625 388.054688 105.828125 386.640625 105.828125 C 386.140625 105.828125 385.710938 105.738281 385.359375 105.5625 C 385.015625 105.382812 384.769531 105.148438 384.625 104.859375 C 384.300781 105.671875 383.664062 106.078125 382.71875 106.078125 L 382.5 106.078125 C 381.613281 106.078125 380.960938 105.835938 380.546875 105.359375 C 380.128906 104.878906 379.921875 104.25 379.921875 103.46875 C 379.921875 102.632812 380.128906 102 380.546875 101.5625 C 380.972656 101.125 381.445312 100.90625 381.96875 100.90625 Z M 380.546875 106.992188 C 380.722656 106.992188 380.875 107.046875 381 107.164062 C 381.125 107.277344 381.1875 107.421875 381.1875 107.601562 C 381.1875 107.765625 381.125 107.914062 381 108.039062 C 380.882812 108.164062 380.734375 108.226562 380.546875 108.226562 C 380.410156 108.226562 379.929688 108.054688 379.09375 107.710938 C 378.992188 107.65625 378.9375 107.570312 378.9375 107.445312 C 378.9375 107.351562 378.964844 107.265625 379.015625 107.195312 C 379.070312 107.132812 379.136719 107.101562 379.21875 107.101562 C 379.273438 107.101562 379.320312 107.105469 379.359375 107.117188 L 379.96875 107.367188 C 380.070312 107.117188 380.265625 106.992188 380.546875 106.992188 Z M 382 108.964844 C 382.320312 108.964844 382.484375 109.128906 382.484375 109.464844 C 382.484375 109.808594 382.347656 109.980469 382.078125 109.980469 C 381.691406 109.980469 381.390625 110.125 381.171875 110.417969 C 380.953125 110.71875 380.84375 111.09375 380.84375 111.542969 C 380.84375 112.050781 380.984375 112.441406 381.265625 112.714844 C 381.546875 112.996094 381.960938 113.136719 382.515625 113.136719 L 382.75 113.136719 C 383.289062 113.136719 383.695312 112.996094 383.96875 112.714844 C 384.25 112.441406 384.390625 112.058594 384.390625 111.558594 L 384.390625 109.855469 C 384.390625 109.542969 384.519531 109.386719 384.78125 109.386719 C 384.863281 109.386719 384.953125 109.394531 385.046875 109.417969 L 388.40625 109.667969 C 388.644531 109.675781 388.765625 109.765625 388.765625 109.933594 L 388.765625 113.386719 C 388.765625 113.488281 388.71875 113.566406 388.625 113.621094 C 388.539062 113.683594 388.4375 113.714844 388.3125 113.714844 C 388.195312 113.714844 388.09375 113.683594 388 113.621094 C 387.90625 113.566406 387.859375 113.488281 387.859375 113.386719 L 387.859375 110.542969 L 385.234375 110.355469 L 385.234375 111.558594 C 385.234375 112.339844 385.03125 112.964844 384.625 113.433594 C 384.226562 113.902344 383.601562 114.136719 382.75 114.136719 L 382.515625 114.136719 C 381.628906 114.136719 380.972656 113.902344 380.546875 113.433594 C 380.128906 112.964844 379.921875 112.339844 379.921875 111.558594 C 379.921875 110.753906 380.125 110.121094 380.53125 109.652344 C 380.9375 109.191406 381.425781 108.964844 382 108.964844 Z M 380.1875 114.707031 C 380.320312 114.707031 380.429688 114.738281 380.515625 114.800781 C 380.597656 114.863281 380.640625 114.945312 380.640625 115.050781 L 380.640625 116.472656 L 388.3125 116.472656 L 388.3125 115.050781 C 388.3125 114.945312 388.351562 114.863281 388.4375 114.800781 C 388.53125 114.738281 388.640625 114.707031 388.765625 114.707031 C 388.890625 114.707031 388.992188 114.738281 389.078125 114.800781 C 389.171875 114.863281 389.21875 114.945312 389.21875 115.050781 L 389.21875 117.019531 C 389.21875 117.144531 389.1875 117.246094 389.125 117.332031 C 389.0625 117.425781 388.976562 117.472656 388.875 117.472656 L 380.09375 117.472656 C 379.992188 117.472656 379.90625 117.425781 379.84375 117.332031 C 379.78125 117.246094 379.75 117.144531 379.75 117.019531 L 379.75 115.050781 C 379.75 114.945312 379.796875 114.863281 379.890625 114.800781 C 379.976562 114.738281 380.070312 114.707031 380.1875 114.707031 Z M 381.859375 121.34375 L 386.953125 121.34375 C 387.578125 121.34375 388.109375 121.570312 388.546875 122.03125 C 388.992188 122.5 389.21875 123.046875 389.21875 123.671875 C 389.21875 123.992188 389.066406 124.15625 388.765625 124.15625 C 388.628906 124.15625 388.519531 124.125 388.4375 124.0625 C 388.351562 124 388.3125 123.914062 388.3125 123.8125 C 388.3125 123.375 388.171875 123.019531 387.890625 122.75 C 387.617188 122.476562 387.304688 122.34375 386.953125 122.34375 L 381.859375 122.34375 C 381.421875 122.34375 381.109375 122.488281 380.921875 122.78125 C 380.742188 123.070312 380.65625 123.414062 380.65625 123.8125 C 380.65625 124.039062 380.503906 124.15625 380.203125 124.15625 C 379.914062 124.15625 379.765625 123.984375 379.765625 123.640625 C 379.765625 122.992188 379.949219 122.445312 380.3125 122 C 380.675781 121.5625 381.191406 121.34375 381.859375 121.34375 Z M 380.8125 124.734375 C 380.914062 124.734375 381.015625 124.765625 381.109375 124.828125 C 381.210938 124.898438 381.265625 124.984375 381.265625 125.078125 C 381.265625 125.140625 381.21875 125.226562 381.125 125.34375 C 381.03125 125.46875 380.9375 125.644531 380.84375 125.875 C 380.75 126.101562 380.703125 126.367188 380.703125 126.671875 C 380.703125 127.066406 380.773438 127.351562 380.921875 127.53125 C 381.066406 127.71875 381.25 127.8125 381.46875 127.8125 C 381.726562 127.8125 381.9375 127.707031 382.09375 127.5 C 382.25 127.300781 382.363281 127.054688 382.4375 126.765625 C 382.519531 126.484375 382.609375 126.195312 382.703125 125.90625 C 382.804688 125.625 382.96875 125.378906 383.1875 125.171875 C 383.414062 124.972656 383.710938 124.875 384.078125 124.875 C 384.535156 124.875 384.929688 125.035156 385.265625 125.359375 C 385.597656 125.679688 385.765625 126.175781 385.765625 126.84375 C 385.765625 127.269531 385.695312 127.65625 385.5625 128 C 385.425781 128.351562 385.273438 128.53125 385.109375 128.53125 C 385.015625 128.53125 384.90625 128.492188 384.78125 128.421875 C 384.664062 128.347656 384.609375 128.253906 384.609375 128.140625 C 384.609375 128.109375 384.664062 127.953125 384.78125 127.671875 C 384.894531 127.398438 384.953125 127.128906 384.953125 126.859375 C 384.953125 126.492188 384.863281 126.21875 384.6875 126.03125 C 384.519531 125.851562 384.328125 125.765625 384.109375 125.765625 C 383.890625 125.765625 383.710938 125.863281 383.578125 126.0625 C 383.453125 126.257812 383.351562 126.503906 383.28125 126.796875 C 383.21875 127.097656 383.132812 127.390625 383.03125 127.671875 C 382.925781 127.960938 382.742188 128.207031 382.484375 128.40625 C 382.234375 128.601562 381.910156 128.703125 381.515625 128.703125 C 381.015625 128.703125 380.617188 128.523438 380.328125 128.171875 C 380.046875 127.828125 379.90625 127.335938 379.90625 126.703125 C 379.90625 126.160156 380 125.695312 380.1875 125.3125 C 380.382812 124.925781 380.59375 124.734375 380.8125 124.734375 Z M 380.359375 129.894531 L 388.765625 129.894531 C 388.867188 129.894531 388.953125 129.941406 389.015625 130.035156 C 389.085938 130.128906 389.125 130.246094 389.125 130.394531 C 389.125 130.539062 389.085938 130.660156 389.015625 130.753906 C 388.953125 130.847656 388.867188 130.894531 388.765625 130.894531 L 380.359375 130.894531 C 380.273438 130.894531 380.191406 130.839844 380.109375 130.738281 C 380.035156 130.644531 380 130.527344 380 130.394531 C 380 130.257812 380.035156 130.136719 380.109375 130.035156 C 380.179688 129.941406 380.265625 129.894531 380.359375 129.894531 Z M 382.234375 132.191406 L 383.453125 132.191406 C 384.066406 132.191406 384.601562 132.425781 385.0625 132.894531 C 385.53125 133.363281 385.765625 133.914062 385.765625 134.550781 C 385.765625 135.195312 385.535156 135.753906 385.078125 136.222656 C 384.617188 136.699219 384.078125 136.941406 383.453125 136.941406 L 382.234375 136.941406 C 381.617188 136.941406 381.078125 136.699219 380.609375 136.222656 C 380.140625 135.742188 379.90625 135.183594 379.90625 134.550781 C 379.90625 133.925781 380.140625 133.371094 380.609375 132.894531 C 381.078125 132.425781 381.617188 132.191406 382.234375 132.191406 Z M 382.234375 133.191406 C 381.859375 133.191406 381.523438 133.324219 381.234375 133.597656 C 380.941406 133.867188 380.796875 134.191406 380.796875 134.566406 C 380.796875 134.941406 380.941406 135.261719 381.234375 135.535156 C 381.535156 135.804688 381.867188 135.941406 382.234375 135.941406 L 383.453125 135.941406 C 383.816406 135.941406 384.140625 135.804688 384.421875 135.535156 C 384.710938 135.261719 384.859375 134.941406 384.859375 134.566406 C 384.859375 134.191406 384.710938 133.867188 384.421875 133.597656 C 384.140625 133.324219 383.816406 133.191406 383.453125 133.191406 Z M 385.28125 137.605469 C 385.394531 137.605469 385.492188 137.667969 385.578125 137.792969 C 385.671875 137.925781 385.71875 138.066406 385.71875 138.214844 C 385.71875 138.378906 385.648438 138.488281 385.515625 138.542969 L 381.484375 139.996094 L 385.125 141.121094 C 385.28125 141.171875 385.359375 141.296875 385.359375 141.496094 C 385.359375 141.691406 385.28125 141.816406 385.125 141.871094 L 381.453125 142.980469 L 385.515625 144.449219 C 385.648438 144.480469 385.71875 144.578125 385.71875 144.746094 C 385.71875 144.890625 385.671875 145.03125 385.578125 145.167969 C 385.492188 145.300781 385.394531 145.371094 385.28125 145.371094 C 385.21875 145.371094 385.15625 145.355469 385.09375 145.324219 L 380.109375 143.464844 C 379.964844 143.402344 379.890625 143.265625 379.890625 143.058594 C 379.890625 142.839844 379.964844 142.703125 380.109375 142.652344 L 383.640625 141.496094 L 380.140625 140.355469 C 379.976562 140.292969 379.890625 140.144531 379.890625 139.917969 C 379.890625 139.707031 379.976562 139.574219 380.140625 139.511719 L 385.09375 137.652344 C 385.1875 137.621094 385.25 137.605469 385.28125 137.605469 Z M 380.359375 148.324219 L 381.53125 148.324219 C 381.882812 148.324219 382.234375 148.457031 382.578125 148.730469 C 382.929688 149.011719 383.25 149.34375 383.53125 149.730469 L 384.390625 150.902344 C 384.671875 151.285156 384.984375 151.613281 385.328125 151.886719 C 385.679688 152.167969 386.035156 152.308594 386.390625 152.308594 C 386.773438 152.308594 387.113281 152.183594 387.40625 151.933594 C 387.695312 151.683594 387.84375 151.324219 387.84375 150.855469 C 387.84375 150.449219 387.726562 150.121094 387.5 149.871094 C 387.269531 149.621094 386.945312 149.496094 386.53125 149.496094 C 386.425781 149.496094 386.332031 149.441406 386.25 149.339844 C 386.164062 149.246094 386.125 149.121094 386.125 148.964844 C 386.125 148.660156 386.320312 148.511719 386.71875 148.511719 C 387.320312 148.511719 387.8125 148.734375 388.1875 149.183594 C 388.570312 149.640625 388.765625 150.199219 388.765625 150.855469 C 388.765625 151.550781 388.539062 152.136719 388.09375 152.605469 C 387.65625 153.082031 387.101562 153.324219 386.4375 153.324219 C 386.03125 153.324219 385.644531 153.222656 385.28125 153.027344 C 384.914062 152.828125 384.601562 152.582031 384.34375 152.292969 C 384.082031 152 383.828125 151.683594 383.578125 151.339844 L 382.890625 150.386719 C 382.691406 150.09375 382.472656 149.847656 382.234375 149.652344 C 381.992188 149.453125 381.757812 149.355469 381.53125 149.355469 L 380.90625 149.355469 L 380.90625 153.042969 C 380.90625 153.136719 380.859375 153.214844 380.765625 153.277344 C 380.679688 153.347656 380.578125 153.386719 380.453125 153.386719 C 380.335938 153.386719 380.234375 153.347656 380.140625 153.277344 C 380.046875 153.214844 380 153.136719 380 153.042969 L 380 148.777344 C 380 148.671875 380.03125 148.566406 380.09375 148.464844 C 380.164062 148.371094 380.253906 148.324219 380.359375 148.324219 Z M 380.203125 153.960938 C 380.503906 153.960938 380.65625 154.074219 380.65625 154.304688 C 380.65625 154.699219 380.742188 155.042969 380.921875 155.335938 C 381.109375 155.625 381.421875 155.773438 381.859375 155.773438 L 386.953125 155.773438 C 387.304688 155.773438 387.617188 155.636719 387.890625 155.367188 C 388.171875 155.09375 388.3125 154.742188 388.3125 154.304688 C 388.3125 154.199219 388.351562 154.117188 388.4375 154.054688 C 388.519531 153.992188 388.628906 153.960938 388.765625 153.960938 C 389.066406 153.960938 389.21875 154.121094 389.21875 154.445312 C 389.21875 155.070312 388.992188 155.609375 388.546875 156.070312 C 388.109375 156.539062 387.578125 156.773438 386.953125 156.773438 L 381.859375 156.773438 C 381.191406 156.773438 380.675781 156.546875 380.3125 156.101562 C 379.949219 155.664062 379.765625 155.117188 379.765625 154.460938 C 379.765625 154.125 379.914062 153.960938 380.203125 153.960938 Z M 381.375 160.28125 C 381.507812 160.28125 381.632812 160.328125 381.75 160.421875 C 381.875 160.515625 381.9375 160.613281 381.9375 160.71875 C 381.9375 160.78125 381.882812 160.867188 381.78125 160.984375 C 381.6875 161.097656 381.582031 161.210938 381.46875 161.328125 C 381.351562 161.441406 381.242188 161.625 381.140625 161.875 C 381.046875 162.125 380.988281 162.40625 380.96875 162.71875 L 384.15625 162.71875 L 384.40625 162.0625 C 384.457031 161.914062 384.550781 161.722656 384.6875 161.484375 C 384.820312 161.242188 384.957031 161.066406 385.09375 160.953125 C 385.238281 160.835938 385.429688 160.734375 385.671875 160.640625 C 385.910156 160.546875 386.175781 160.5 386.46875 160.5 C 386.832031 160.5 387.148438 160.5625 387.421875 160.6875 C 387.703125 160.8125 387.921875 160.984375 388.078125 161.203125 C 388.234375 161.429688 388.351562 161.664062 388.4375 161.90625 C 388.519531 162.15625 388.578125 162.425781 388.609375 162.71875 L 388.96875 162.71875 C 389.03125 162.71875 389.085938 162.742188 389.140625 162.796875 C 389.191406 162.859375 389.21875 162.9375 389.21875 163.03125 C 389.21875 163.101562 389.191406 163.171875 389.140625 163.234375 C 389.085938 163.304688 389.03125 163.34375 388.96875 163.34375 L 388.625 163.34375 C 388.601562 163.820312 388.519531 164.253906 388.375 164.640625 C 388.238281 165.035156 388.0625 165.234375 387.84375 165.234375 C 387.726562 165.234375 387.601562 165.191406 387.46875 165.109375 C 387.34375 165.035156 387.28125 164.929688 387.28125 164.796875 C 387.28125 164.765625 387.347656 164.597656 387.484375 164.296875 C 387.628906 164.003906 387.710938 163.6875 387.734375 163.34375 L 384.984375 163.34375 C 384.878906 163.65625 384.769531 163.910156 384.65625 164.109375 C 384.550781 164.316406 384.40625 164.535156 384.21875 164.765625 C 384.03125 164.992188 383.789062 165.164062 383.5 165.28125 C 383.207031 165.394531 382.863281 165.453125 382.46875 165.453125 C 381.769531 165.453125 381.210938 165.257812 380.796875 164.875 C 380.390625 164.5 380.144531 163.988281 380.0625 163.34375 L 379.625 163.34375 C 379.5625 163.34375 379.507812 163.304688 379.453125 163.234375 C 379.402344 163.171875 379.375 163.101562 379.375 163.03125 C 379.375 162.9375 379.402344 162.859375 379.453125 162.796875 C 379.507812 162.742188 379.5625 162.71875 379.625 162.71875 L 380.03125 162.71875 C 380.03125 162.03125 380.179688 161.453125 380.484375 160.984375 C 380.796875 160.515625 381.09375 160.28125 381.375 160.28125 Z M 386.5625 161.453125 C 386.1875 161.453125 385.90625 161.5625 385.71875 161.78125 C 385.53125 162 385.359375 162.328125 385.203125 162.765625 L 387.71875 162.765625 C 387.625 161.890625 387.238281 161.453125 386.5625 161.453125 Z M 381 163.296875 C 381.125 164.085938 381.582031 164.484375 382.375 164.484375 C 382.789062 164.484375 383.113281 164.378906 383.34375 164.171875 C 383.582031 163.972656 383.78125 163.679688 383.9375 163.296875 Z M 382.234375 168.816406 L 383.453125 168.816406 C 384.085938 168.816406 384.628906 169.027344 385.078125 169.457031 C 385.535156 169.882812 385.765625 170.386719 385.765625 170.972656 C 385.765625 171.335938 385.675781 171.652344 385.5 171.925781 C 385.320312 172.195312 385.101562 172.402344 384.84375 172.550781 L 388.765625 172.550781 C 388.867188 172.550781 388.953125 172.597656 389.015625 172.691406 C 389.085938 172.785156 389.125 172.902344 389.125 173.050781 C 389.125 173.195312 389.085938 173.308594 389.015625 173.394531 C 388.953125 173.488281 388.867188 173.535156 388.765625 173.535156 L 380.359375 173.535156 C 380.265625 173.535156 380.179688 173.488281 380.109375 173.394531 C 380.035156 173.300781 380 173.183594 380 173.050781 C 380 172.925781 380.035156 172.816406 380.109375 172.722656 C 380.179688 172.636719 380.265625 172.597656 380.359375 172.597656 L 380.84375 172.597656 C 380.582031 172.460938 380.359375 172.238281 380.171875 171.925781 C 379.996094 171.621094 379.90625 171.292969 379.90625 170.941406 C 379.90625 170.378906 380.140625 169.882812 380.609375 169.457031 C 381.078125 169.027344 381.617188 168.816406 382.234375 168.816406 Z M 382.234375 169.816406 C 381.867188 169.816406 381.535156 169.949219 381.234375 170.222656 C 380.941406 170.492188 380.796875 170.808594 380.796875 171.175781 C 380.796875 171.527344 380.929688 171.847656 381.203125 172.128906 C 381.472656 172.410156 381.707031 172.550781 381.90625 172.550781 L 383.453125 172.550781 C 383.867188 172.550781 384.207031 172.410156 384.46875 172.128906 C 384.726562 171.855469 384.859375 171.542969 384.859375 171.191406 C 384.859375 170.816406 384.710938 170.492188 384.421875 170.222656 C 384.140625 169.949219 383.816406 169.816406 383.453125 169.816406 Z M 382.234375 174.746094 L 383.484375 174.746094 C 384.109375 174.746094 384.644531 174.980469 385.09375 175.449219 C 385.539062 175.917969 385.765625 176.480469 385.765625 177.136719 C 385.765625 177.761719 385.550781 178.300781 385.125 178.761719 C 384.707031 179.21875 384.179688 179.449219 383.546875 179.449219 C 383.316406 179.449219 383.128906 179.417969 382.984375 179.355469 C 382.847656 179.300781 382.75 179.21875 382.6875 179.105469 C 382.632812 178.988281 382.597656 178.878906 382.578125 178.777344 C 382.566406 178.683594 382.5625 178.546875 382.5625 178.371094 L 382.5625 175.746094 L 382.203125 175.746094 C 381.753906 175.746094 381.398438 175.902344 381.140625 176.214844 C 380.878906 176.535156 380.75 176.949219 380.75 177.449219 C 380.75 177.71875 380.785156 177.949219 380.859375 178.136719 C 380.941406 178.332031 381.019531 178.488281 381.09375 178.605469 C 381.175781 178.730469 381.21875 178.828125 381.21875 178.902344 C 381.21875 179.015625 381.164062 179.109375 381.0625 179.183594 C 380.957031 179.265625 380.851562 179.308594 380.75 179.308594 C 380.570312 179.308594 380.382812 179.125 380.1875 178.761719 C 380 178.394531 379.90625 177.949219 379.90625 177.417969 C 379.90625 176.636719 380.117188 175.996094 380.546875 175.496094 C 380.972656 174.996094 381.535156 174.746094 382.234375 174.746094 Z M 383.234375 175.746094 L 383.234375 177.964844 C 383.234375 178.171875 383.257812 178.3125 383.3125 178.386719 C 383.363281 178.457031 383.460938 178.496094 383.609375 178.496094 C 383.972656 178.496094 384.289062 178.359375 384.5625 178.089844 C 384.832031 177.828125 384.96875 177.511719 384.96875 177.136719 C 384.96875 176.75 384.84375 176.421875 384.59375 176.152344 C 384.34375 175.878906 384.03125 175.746094 383.65625 175.746094 Z M 380.359375 180.542969 L 385.34375 180.542969 C 385.445312 180.542969 385.53125 180.589844 385.59375 180.683594 C 385.65625 180.777344 385.6875 180.894531 385.6875 181.042969 C 385.6875 181.15625 385.648438 181.261719 385.578125 181.355469 C 385.515625 181.449219 385.4375 181.496094 385.34375 181.496094 L 384.84375 181.496094 C 385.101562 181.621094 385.320312 181.824219 385.5 182.105469 C 385.675781 182.394531 385.765625 182.730469 385.765625 183.105469 C 385.765625 183.667969 385.535156 184.15625 385.078125 184.574219 C 384.628906 185 384.085938 185.214844 383.453125 185.214844 L 380.359375 185.214844 C 380.242188 185.214844 380.15625 185.160156 380.09375 185.058594 C 380.03125 184.964844 380 184.847656 380 184.714844 C 380 184.589844 380.03125 184.472656 380.09375 184.371094 C 380.15625 184.265625 380.242188 184.214844 380.359375 184.214844 L 383.453125 184.214844 C 383.816406 184.214844 384.140625 184.078125 384.421875 183.808594 C 384.710938 183.535156 384.859375 183.21875 384.859375 182.855469 C 384.859375 182.511719 384.726562 182.203125 384.46875 181.933594 C 384.207031 181.671875 383.867188 181.542969 383.453125 181.542969 L 380.359375 181.542969 C 380.273438 181.542969 380.191406 181.488281 380.109375 181.386719 C 380.035156 181.28125 380 181.167969 380 181.042969 C 380 180.90625 380.035156 180.785156 380.109375 180.683594 C 380.179688 180.589844 380.265625 180.542969 380.359375 180.542969 Z M 380.8125 186.238281 C 380.914062 186.238281 381.015625 186.269531 381.109375 186.332031 C 381.210938 186.402344 381.265625 186.488281 381.265625 186.582031 C 381.265625 186.644531 381.21875 186.730469 381.125 186.847656 C 381.03125 186.972656 380.9375 187.148438 380.84375 187.378906 C 380.75 187.605469 380.703125 187.871094 380.703125 188.175781 C 380.703125 188.570312 380.773438 188.855469 380.921875 189.035156 C 381.066406 189.222656 381.25 189.316406 381.46875 189.316406 C 381.726562 189.316406 381.9375 189.210938 382.09375 189.003906 C 382.25 188.804688 382.363281 188.558594 382.4375 188.269531 C 382.519531 187.988281 382.609375 187.699219 382.703125 187.410156 C 382.804688 187.128906 382.96875 186.882812 383.1875 186.675781 C 383.414062 186.476562 383.710938 186.378906 384.078125 186.378906 C 384.535156 186.378906 384.929688 186.539062 385.265625 186.863281 C 385.597656 187.183594 385.765625 187.679688 385.765625 188.347656 C 385.765625 188.773438 385.695312 189.160156 385.5625 189.503906 C 385.425781 189.855469 385.273438 190.035156 385.109375 190.035156 C 385.015625 190.035156 384.90625 189.996094 384.78125 189.925781 C 384.664062 189.851562 384.609375 189.757812 384.609375 189.644531 C 384.609375 189.613281 384.664062 189.457031 384.78125 189.175781 C 384.894531 188.902344 384.953125 188.632812 384.953125 188.363281 C 384.953125 187.996094 384.863281 187.722656 384.6875 187.535156 C 384.519531 187.355469 384.328125 187.269531 384.109375 187.269531 C 383.890625 187.269531 383.710938 187.367188 383.578125 187.566406 C 383.453125 187.761719 383.351562 188.007812 383.28125 188.300781 C 383.21875 188.601562 383.132812 188.894531 383.03125 189.175781 C 382.925781 189.464844 382.742188 189.710938 382.484375 189.910156 C 382.234375 190.105469 381.910156 190.207031 381.515625 190.207031 C 381.015625 190.207031 380.617188 190.027344 380.328125 189.675781 C 380.046875 189.332031 379.90625 188.839844 379.90625 188.207031 C 379.90625 187.664062 380 187.199219 380.1875 186.816406 C 380.382812 186.429688 380.59375 186.238281 380.8125 186.238281 Z M 387.421875 191.347656 C 387.535156 191.222656 387.664062 191.160156 387.8125 191.160156 C 387.96875 191.160156 388.101562 191.214844 388.21875 191.332031 C 388.332031 191.457031 388.390625 191.605469 388.390625 191.785156 C 388.390625 191.949219 388.332031 192.089844 388.21875 192.207031 C 388.101562 192.332031 387.96875 192.394531 387.8125 192.394531 C 387.664062 192.394531 387.535156 192.332031 387.421875 192.207031 C 387.304688 192.089844 387.25 191.949219 387.25 191.785156 C 387.25 191.617188 387.304688 191.472656 387.421875 191.347656 Z M 380.359375 191.285156 L 385.34375 191.285156 C 385.445312 191.285156 385.53125 191.332031 385.59375 191.425781 C 385.65625 191.527344 385.6875 191.648438 385.6875 191.785156 C 385.6875 191.929688 385.65625 192.050781 385.59375 192.144531 C 385.53125 192.238281 385.445312 192.285156 385.34375 192.285156 L 380.359375 192.285156 C 380.273438 192.285156 380.191406 192.230469 380.109375 192.128906 C 380.035156 192.035156 380 191.917969 380 191.785156 C 380 191.648438 380.035156 191.527344 380.109375 191.425781 C 380.179688 191.332031 380.265625 191.285156 380.359375 191.285156 Z M 381.8125 193.679688 L 387.984375 193.679688 C 388.085938 193.679688 388.171875 193.730469 388.234375 193.835938 C 388.304688 193.9375 388.34375 194.046875 388.34375 194.164062 C 388.34375 194.296875 388.304688 194.417969 388.234375 194.523438 C 388.171875 194.625 388.085938 194.679688 387.984375 194.679688 L 385.6875 194.679688 L 385.6875 196.179688 C 385.6875 196.273438 385.644531 196.34375 385.5625 196.398438 C 385.488281 196.449219 385.398438 196.476562 385.296875 196.476562 C 385.191406 196.476562 385.097656 196.449219 385.015625 196.398438 C 384.941406 196.34375 384.90625 196.273438 384.90625 196.179688 L 384.90625 194.679688 L 381.8125 194.679688 C 381.46875 194.679688 381.222656 194.75 381.078125 194.898438 C 380.941406 195.042969 380.875 195.296875 380.875 195.664062 L 380.875 196.039062 C 380.875 196.171875 380.832031 196.277344 380.75 196.351562 C 380.664062 196.433594 380.5625 196.476562 380.4375 196.476562 C 380.320312 196.476562 380.21875 196.433594 380.125 196.351562 C 380.039062 196.265625 380 196.164062 380 196.039062 L 380 195.664062 C 380 194.339844 380.601562 193.679688 381.8125 193.679688 Z M 385.28125 196.855469 C 385.40625 196.855469 385.515625 196.925781 385.609375 197.074219 C 385.710938 197.21875 385.765625 197.363281 385.765625 197.511719 C 385.765625 197.675781 385.695312 197.78125 385.5625 197.824219 L 381.375 199.417969 L 385.5625 200.839844 C 385.695312 200.902344 385.765625 201.003906 385.765625 201.152344 C 385.765625 201.285156 385.710938 201.425781 385.609375 201.574219 C 385.515625 201.730469 385.398438 201.808594 385.265625 201.808594 C 385.222656 201.808594 385.179688 201.792969 385.140625 201.761719 L 380.265625 199.949219 L 379.65625 199.714844 C 379.554688 199.671875 379.367188 199.589844 379.09375 199.464844 C 378.824219 199.347656 378.625 199.25 378.5 199.167969 C 378.375 199.09375 378.21875 198.984375 378.03125 198.839844 C 377.835938 198.691406 377.695312 198.550781 377.609375 198.417969 C 377.515625 198.28125 377.433594 198.121094 377.359375 197.933594 C 377.289062 197.746094 377.25 197.546875 377.25 197.339844 C 377.25 197.027344 377.402344 196.871094 377.703125 196.871094 C 377.984375 196.871094 378.125 196.964844 378.125 197.152344 C 378.125 197.515625 378.328125 197.863281 378.734375 198.199219 C 379.140625 198.542969 379.65625 198.777344 380.28125 198.902344 L 385.140625 196.902344 C 385.191406 196.871094 385.238281 196.855469 385.28125 196.855469 Z M 386.90625 204.464844 C 387.070312 204.464844 387.207031 204.535156 387.3125 204.683594 L 388.625 205.777344 C 388.726562 205.878906 388.78125 205.984375 388.78125 206.089844 C 388.78125 206.203125 388.75 206.308594 388.6875 206.402344 C 388.625 206.496094 388.535156 206.542969 388.421875 206.542969 L 380.359375 206.542969 C 380.242188 206.542969 380.15625 206.488281 380.09375 206.386719 C 380.03125 206.292969 380 206.171875 380 206.027344 C 380 205.890625 380.03125 205.769531 380.09375 205.667969 C 380.15625 205.574219 380.242188 205.527344 380.359375 205.527344 L 387.265625 205.527344 L 386.609375 205.089844 C 386.523438 205.003906 386.484375 204.921875 386.484375 204.839844 C 386.484375 204.734375 386.523438 204.644531 386.609375 204.574219 C 386.691406 204.5 386.789062 204.464844 386.90625 204.464844 Z M 382.546875 207.988281 L 386.15625 207.988281 C 387.0625 207.988281 387.722656 208.226562 388.140625 208.707031 C 388.554688 209.183594 388.765625 209.820312 388.765625 210.613281 C 388.765625 211.414062 388.554688 212.039062 388.140625 212.488281 C 387.734375 212.933594 387.25 213.160156 386.6875 213.160156 C 386.382812 213.160156 386.234375 213.003906 386.234375 212.691406 C 386.234375 212.347656 386.367188 212.175781 386.640625 212.175781 C 387.003906 212.175781 387.296875 212.023438 387.515625 211.722656 C 387.742188 211.417969 387.859375 211.042969 387.859375 210.597656 C 387.859375 209.535156 387.289062 209.003906 386.15625 209.003906 L 384.46875 209.003906 C 384.96875 209.386719 385.21875 209.972656 385.21875 210.753906 C 385.21875 212.355469 384.410156 213.160156 382.796875 213.160156 L 382.546875 213.160156 C 381.640625 213.160156 380.972656 212.925781 380.546875 212.457031 C 380.128906 211.988281 379.921875 211.363281 379.921875 210.582031 C 379.921875 209.800781 380.128906 209.167969 380.546875 208.691406 C 380.972656 208.222656 381.640625 207.988281 382.546875 207.988281 Z M 382.5 209.003906 C 381.363281 209.003906 380.796875 209.527344 380.796875 210.582031 C 380.796875 211.632812 381.363281 212.160156 382.5 212.160156 L 382.75 212.160156 C 383.832031 212.160156 384.375 211.632812 384.375 210.582031 C 384.375 209.527344 383.867188 209.003906 382.859375 209.003906 Z M 381.375 216.46875 C 381.507812 216.46875 381.632812 216.515625 381.75 216.609375 C 381.875 216.703125 381.9375 216.800781 381.9375 216.90625 C 381.9375 216.96875 381.882812 217.054688 381.78125 217.171875 C 381.6875 217.285156 381.582031 217.398438 381.46875 217.515625 C 381.351562 217.628906 381.242188 217.8125 381.140625 218.0625 C 381.046875 218.3125 380.988281 218.59375 380.96875 218.90625 L 384.15625 218.90625 L 384.40625 218.25 C 384.457031 218.101562 384.550781 217.910156 384.6875 217.671875 C 384.820312 217.429688 384.957031 217.253906 385.09375 217.140625 C 385.238281 217.023438 385.429688 216.921875 385.671875 216.828125 C 385.910156 216.734375 386.175781 216.6875 386.46875 216.6875 C 386.832031 216.6875 387.148438 216.75 387.421875 216.875 C 387.703125 217 387.921875 217.171875 388.078125 217.390625 C 388.234375 217.617188 388.351562 217.851562 388.4375 218.09375 C 388.519531 218.34375 388.578125 218.613281 388.609375 218.90625 L 388.96875 218.90625 C 389.03125 218.90625 389.085938 218.929688 389.140625 218.984375 C 389.191406 219.046875 389.21875 219.125 389.21875 219.21875 C 389.21875 219.289062 389.191406 219.359375 389.140625 219.421875 C 389.085938 219.492188 389.03125 219.53125 388.96875 219.53125 L 388.625 219.53125 C 388.601562 220.007812 388.519531 220.441406 388.375 220.828125 C 388.238281 221.222656 388.0625 221.421875 387.84375 221.421875 C 387.726562 221.421875 387.601562 221.378906 387.46875 221.296875 C 387.34375 221.222656 387.28125 221.117188 387.28125 220.984375 C 387.28125 220.953125 387.347656 220.785156 387.484375 220.484375 C 387.628906 220.191406 387.710938 219.875 387.734375 219.53125 L 384.984375 219.53125 C 384.878906 219.84375 384.769531 220.097656 384.65625 220.296875 C 384.550781 220.503906 384.40625 220.722656 384.21875 220.953125 C 384.03125 221.179688 383.789062 221.351562 383.5 221.46875 C 383.207031 221.582031 382.863281 221.640625 382.46875 221.640625 C 381.769531 221.640625 381.210938 221.445312 380.796875 221.0625 C 380.390625 220.6875 380.144531 220.175781 380.0625 219.53125 L 379.625 219.53125 C 379.5625 219.53125 379.507812 219.492188 379.453125 219.421875 C 379.402344 219.359375 379.375 219.289062 379.375 219.21875 C 379.375 219.125 379.402344 219.046875 379.453125 218.984375 C 379.507812 218.929688 379.5625 218.90625 379.625 218.90625 L 380.03125 218.90625 C 380.03125 218.21875 380.179688 217.640625 380.484375 217.171875 C 380.796875 216.703125 381.09375 216.46875 381.375 216.46875 Z M 386.5625 217.640625 C 386.1875 217.640625 385.90625 217.75 385.71875 217.96875 C 385.53125 218.1875 385.359375 218.515625 385.203125 218.953125 L 387.71875 218.953125 C 387.625 218.078125 387.238281 217.640625 386.5625 217.640625 Z M 381 219.484375 C 381.125 220.273438 381.582031 220.671875 382.375 220.671875 C 382.789062 220.671875 383.113281 220.566406 383.34375 220.359375 C 383.582031 220.160156 383.78125 219.867188 383.9375 219.484375 Z M 388.921875 224.9375 C 389.003906 224.9375 389.070312 224.976562 389.125 225.0625 C 389.1875 225.15625 389.21875 225.253906 389.21875 225.359375 C 389.21875 225.472656 389.1875 225.578125 389.125 225.671875 C 389.070312 225.765625 389.003906 225.8125 388.921875 225.8125 L 387.171875 225.6875 C 387.085938 225.6875 387.015625 225.660156 386.953125 225.609375 C 386.890625 225.554688 386.859375 225.476562 386.859375 225.375 C 386.859375 225.164062 386.960938 225.0625 387.171875 225.0625 Z M 388.921875 226.5625 C 389.003906 226.5625 389.070312 226.601562 389.125 226.6875 C 389.1875 226.78125 389.21875 226.882812 389.21875 227 C 389.21875 227.113281 389.1875 227.210938 389.125 227.296875 C 389.070312 227.390625 389.003906 227.4375 388.921875 227.4375 L 387.171875 227.328125 C 387.085938 227.328125 387.015625 227.296875 386.953125 227.234375 C 386.890625 227.179688 386.859375 227.101562 386.859375 227 C 386.859375 226.789062 386.960938 226.6875 387.171875 226.6875 Z M 378.875 228.132812 C 379.460938 228.132812 379.898438 228.453125 380.1875 229.101562 C 380.332031 228.695312 380.597656 228.492188 380.984375 228.492188 C 381.347656 228.492188 381.644531 228.6875 381.875 229.085938 C 382.238281 228.636719 382.742188 228.414062 383.390625 228.414062 L 383.78125 228.414062 C 384.363281 228.414062 384.835938 228.605469 385.203125 228.992188 C 385.578125 229.386719 385.765625 229.902344 385.765625 230.539062 C 385.765625 231.078125 385.609375 231.546875 385.296875 231.945312 C 385.816406 232.183594 386.078125 232.453125 386.078125 232.757812 C 386.078125 232.890625 386.035156 232.996094 385.953125 233.070312 C 385.878906 233.152344 385.796875 233.195312 385.703125 233.195312 C 385.578125 233.195312 385.484375 233.125 385.421875 232.992188 C 385.347656 232.71875 385.179688 232.5 384.921875 232.335938 C 384.617188 232.585938 384.238281 232.710938 383.78125 232.710938 L 383.390625 232.710938 C 382.804688 232.710938 382.328125 232.507812 381.953125 232.101562 C 381.578125 231.695312 381.390625 231.171875 381.390625 230.539062 C 381.390625 230.214844 381.453125 229.917969 381.578125 229.648438 C 381.453125 229.449219 381.3125 229.351562 381.15625 229.351562 C 381.007812 229.351562 380.894531 229.445312 380.8125 229.632812 C 380.726562 229.820312 380.675781 230.046875 380.65625 230.320312 C 380.632812 230.589844 380.59375 230.882812 380.53125 231.195312 C 380.476562 231.515625 380.40625 231.8125 380.3125 232.085938 C 380.226562 232.355469 380.078125 232.585938 379.859375 232.773438 C 379.632812 232.960938 379.34375 233.054688 379 233.054688 C 378.4375 233.054688 378.007812 232.824219 377.703125 232.367188 C 377.402344 231.917969 377.25 231.335938 377.25 230.617188 C 377.25 229.898438 377.398438 229.304688 377.6875 228.835938 C 377.980469 228.367188 378.375 228.132812 378.875 228.132812 Z M 378.984375 229.085938 C 378.671875 229.085938 378.421875 229.21875 378.234375 229.492188 C 378.046875 229.773438 377.953125 230.140625 377.953125 230.601562 C 377.953125 231.046875 378.046875 231.40625 378.234375 231.679688 C 378.421875 231.949219 378.671875 232.085938 378.984375 232.085938 C 379.109375 232.085938 379.21875 232.058594 379.3125 232.007812 C 379.40625 231.964844 379.492188 231.898438 379.5625 231.804688 C 379.625 231.710938 379.679688 231.609375 379.71875 231.507812 C 379.761719 231.414062 379.796875 231.289062 379.828125 231.132812 C 379.859375 230.984375 379.882812 230.859375 379.890625 230.757812 C 379.902344 230.664062 379.917969 230.53125 379.9375 230.367188 C 379.949219 230.199219 379.960938 230.085938 379.96875 230.023438 C 379.761719 229.398438 379.433594 229.085938 378.984375 229.085938 Z M 383.390625 229.382812 C 383.003906 229.382812 382.6875 229.484375 382.4375 229.695312 C 382.195312 229.902344 382.078125 230.195312 382.078125 230.570312 C 382.078125 230.921875 382.195312 231.203125 382.4375 231.414062 C 382.6875 231.632812 383.003906 231.742188 383.390625 231.742188 L 383.78125 231.742188 C 384.144531 231.742188 384.453125 231.632812 384.703125 231.414062 C 384.953125 231.203125 385.078125 230.917969 385.078125 230.554688 C 385.078125 230.1875 384.953125 229.902344 384.703125 229.695312 C 384.460938 229.484375 384.15625 229.382812 383.78125 229.382812 Z M 380.359375 234.050781 L 385.34375 234.050781 C 385.445312 234.050781 385.53125 234.097656 385.59375 234.191406 C 385.65625 234.285156 385.6875 234.402344 385.6875 234.550781 C 385.6875 234.675781 385.65625 234.777344 385.59375 234.863281 C 385.53125 234.957031 385.445312 235.003906 385.34375 235.003906 L 384.78125 235.003906 C 385.050781 235.148438 385.28125 235.363281 385.46875 235.644531 C 385.664062 235.925781 385.765625 236.238281 385.765625 236.582031 L 385.765625 236.988281 C 385.765625 237.089844 385.71875 237.179688 385.625 237.253906 C 385.53125 237.324219 385.421875 237.363281 385.296875 237.363281 C 385.179688 237.363281 385.078125 237.324219 384.984375 237.253906 C 384.898438 237.179688 384.859375 237.089844 384.859375 236.988281 L 384.859375 236.582031 C 384.859375 236.164062 384.691406 235.804688 384.359375 235.503906 C 384.035156 235.199219 383.613281 235.050781 383.09375 235.050781 L 380.359375 235.050781 C 380.273438 235.050781 380.191406 234.996094 380.109375 234.894531 C 380.035156 234.800781 380 234.683594 380 234.550781 C 380 234.414062 380.035156 234.292969 380.109375 234.191406 C 380.179688 234.097656 380.265625 234.050781 380.359375 234.050781 Z M 382.234375 237.960938 L 383.484375 237.960938 C 384.109375 237.960938 384.644531 238.195312 385.09375 238.664062 C 385.539062 239.132812 385.765625 239.695312 385.765625 240.351562 C 385.765625 240.976562 385.550781 241.515625 385.125 241.976562 C 384.707031 242.433594 384.179688 242.664062 383.546875 242.664062 C 383.316406 242.664062 383.128906 242.632812 382.984375 242.570312 C 382.847656 242.515625 382.75 242.433594 382.6875 242.320312 C 382.632812 242.203125 382.597656 242.09375 382.578125 241.992188 C 382.566406 241.898438 382.5625 241.761719 382.5625 241.585938 L 382.5625 238.960938 L 382.203125 238.960938 C 381.753906 238.960938 381.398438 239.117188 381.140625 239.429688 C 380.878906 239.75 380.75 240.164062 380.75 240.664062 C 380.75 240.933594 380.785156 241.164062 380.859375 241.351562 C 380.941406 241.546875 381.019531 241.703125 381.09375 241.820312 C 381.175781 241.945312 381.21875 242.042969 381.21875 242.117188 C 381.21875 242.230469 381.164062 242.324219 381.0625 242.398438 C 380.957031 242.480469 380.851562 242.523438 380.75 242.523438 C 380.570312 242.523438 380.382812 242.339844 380.1875 241.976562 C 380 241.609375 379.90625 241.164062 379.90625 240.632812 C 379.90625 239.851562 380.117188 239.210938 380.546875 238.710938 C 380.972656 238.210938 381.535156 237.960938 382.234375 237.960938 Z M 383.234375 238.960938 L 383.234375 241.179688 C 383.234375 241.386719 383.257812 241.527344 383.3125 241.601562 C 383.363281 241.671875 383.460938 241.710938 383.609375 241.710938 C 383.972656 241.710938 384.289062 241.574219 384.5625 241.304688 C 384.832031 241.042969 384.96875 240.726562 384.96875 240.351562 C 384.96875 239.964844 384.84375 239.636719 384.59375 239.367188 C 384.34375 239.09375 384.03125 238.960938 383.65625 238.960938 Z M 385.28125 243.199219 C 385.40625 243.199219 385.515625 243.269531 385.609375 243.417969 C 385.710938 243.5625 385.765625 243.707031 385.765625 243.855469 C 385.765625 244.019531 385.695312 244.125 385.5625 244.167969 L 381.375 245.761719 L 385.5625 247.183594 C 385.695312 247.246094 385.765625 247.347656 385.765625 247.496094 C 385.765625 247.628906 385.710938 247.769531 385.609375 247.917969 C 385.515625 248.074219 385.398438 248.152344 385.265625 248.152344 C 385.222656 248.152344 385.179688 248.136719 385.140625 248.105469 L 380.265625 246.292969 L 379.65625 246.058594 C 379.554688 246.015625 379.367188 245.933594 379.09375 245.808594 C 378.824219 245.691406 378.625 245.59375 378.5 245.511719 C 378.375 245.4375 378.21875 245.328125 378.03125 245.183594 C 377.835938 245.035156 377.695312 244.894531 377.609375 244.761719 C 377.515625 244.625 377.433594 244.464844 377.359375 244.277344 C 377.289062 244.089844 377.25 243.890625 377.25 243.683594 C 377.25 243.371094 377.402344 243.214844 377.703125 243.214844 C 377.984375 243.214844 378.125 243.308594 378.125 243.496094 C 378.125 243.859375 378.328125 244.207031 378.734375 244.542969 C 379.140625 244.886719 379.65625 245.121094 380.28125 245.246094 L 385.140625 243.246094 C 385.191406 243.214844 385.238281 243.199219 385.28125 243.199219 Z M 380.359375 251.421875 L 388.765625 251.421875 C 388.867188 251.421875 388.953125 251.46875 389.015625 251.5625 C 389.085938 251.65625 389.125 251.769531 389.125 251.90625 C 389.125 252.050781 389.085938 252.171875 389.015625 252.265625 C 388.953125 252.367188 388.867188 252.421875 388.765625 252.421875 L 384.84375 252.421875 C 385.101562 252.566406 385.320312 252.773438 385.5 253.046875 C 385.675781 253.316406 385.765625 253.628906 385.765625 253.984375 C 385.765625 254.566406 385.535156 255.070312 385.078125 255.5 C 384.628906 255.925781 384.085938 256.140625 383.453125 256.140625 L 382.234375 256.140625 C 381.617188 256.140625 381.078125 255.925781 380.609375 255.5 C 380.140625 255.070312 379.90625 254.582031 379.90625 254.03125 C 379.90625 253.664062 379.996094 253.332031 380.171875 253.03125 C 380.359375 252.726562 380.582031 252.507812 380.84375 252.375 L 380.359375 252.375 C 380.265625 252.375 380.179688 252.328125 380.109375 252.234375 C 380.035156 252.140625 380 252.035156 380 251.921875 C 380 251.785156 380.035156 251.664062 380.109375 251.5625 C 380.179688 251.46875 380.265625 251.421875 380.359375 251.421875 Z M 381.90625 252.421875 C 381.707031 252.421875 381.472656 252.5625 381.203125 252.84375 C 380.929688 253.125 380.796875 253.4375 380.796875 253.78125 C 380.796875 254.144531 380.941406 254.460938 381.234375 254.734375 C 381.535156 255.003906 381.867188 255.140625 382.234375 255.140625 L 383.453125 255.140625 C 383.816406 255.140625 384.140625 255.003906 384.421875 254.734375 C 384.710938 254.460938 384.859375 254.144531 384.859375 253.78125 C 384.859375 253.414062 384.726562 253.097656 384.46875 252.828125 C 384.207031 252.554688 383.867188 252.421875 383.453125 252.421875 Z M 380.359375 257.441406 L 388.765625 257.441406 C 388.867188 257.441406 388.953125 257.488281 389.015625 257.582031 C 389.085938 257.675781 389.125 257.792969 389.125 257.941406 C 389.125 258.085938 389.085938 258.207031 389.015625 258.300781 C 388.953125 258.394531 388.867188 258.441406 388.765625 258.441406 L 380.359375 258.441406 C 380.273438 258.441406 380.191406 258.386719 380.109375 258.285156 C 380.035156 258.191406 380 258.074219 380 257.941406 C 380 257.804688 380.035156 257.683594 380.109375 257.582031 C 380.179688 257.488281 380.265625 257.441406 380.359375 257.441406 Z M 381.5 259.601562 C 382.125 259.601562 382.554688 259.839844 382.796875 260.320312 C 383.046875 260.796875 383.171875 261.492188 383.171875 262.398438 L 383.171875 262.976562 L 383.421875 262.976562 C 383.816406 262.976562 384.160156 262.867188 384.453125 262.648438 C 384.753906 262.429688 384.90625 262.101562 384.90625 261.664062 C 384.90625 261.320312 384.847656 261.015625 384.734375 260.757812 C 384.617188 260.507812 384.5625 260.371094 384.5625 260.351562 C 384.5625 260.234375 384.613281 260.140625 384.71875 260.070312 C 384.832031 260.007812 384.945312 259.976562 385.0625 259.976562 C 385.25 259.976562 385.410156 260.15625 385.546875 260.523438 C 385.691406 260.886719 385.765625 261.273438 385.765625 261.679688 C 385.765625 262.460938 385.539062 263.039062 385.09375 263.414062 C 384.644531 263.789062 384.09375 263.976562 383.4375 263.976562 L 380.359375 263.976562 C 380.253906 263.976562 380.164062 263.929688 380.09375 263.835938 C 380.03125 263.742188 380 263.621094 380 263.476562 C 380 263.351562 380.03125 263.242188 380.09375 263.148438 C 380.164062 263.0625 380.253906 263.023438 380.359375 263.023438 L 380.84375 263.023438 C 380.21875 262.480469 379.90625 261.875 379.90625 261.210938 C 379.90625 260.730469 380.039062 260.339844 380.3125 260.039062 C 380.582031 259.746094 380.976562 259.601562 381.5 259.601562 Z M 381.609375 260.601562 C 381.304688 260.601562 381.078125 260.683594 380.921875 260.851562 C 380.773438 261.015625 380.703125 261.242188 380.703125 261.523438 C 380.703125 261.855469 380.835938 262.179688 381.109375 262.492188 C 381.378906 262.8125 381.65625 262.976562 381.9375 262.976562 L 382.5625 262.976562 L 382.5625 262.554688 C 382.5625 262.324219 382.550781 262.125 382.53125 261.960938 C 382.519531 261.792969 382.492188 261.617188 382.453125 261.429688 C 382.421875 261.25 382.367188 261.105469 382.296875 260.992188 C 382.234375 260.875 382.144531 260.78125 382.03125 260.710938 C 381.914062 260.636719 381.773438 260.601562 381.609375 260.601562 Z M 382.234375 265.132812 L 383.4375 265.132812 C 384.125 265.132812 384.679688 265.335938 385.109375 265.742188 C 385.546875 266.148438 385.765625 266.742188 385.765625 267.523438 C 385.765625 268.023438 385.675781 268.4375 385.5 268.773438 C 385.320312 269.117188 385.132812 269.289062 384.9375 269.289062 C 384.820312 269.289062 384.707031 269.246094 384.59375 269.164062 C 384.488281 269.078125 384.4375 268.980469 384.4375 268.867188 C 384.4375 268.835938 384.503906 268.695312 384.640625 268.445312 C 384.785156 268.203125 384.859375 267.921875 384.859375 267.601562 C 384.859375 267.121094 384.734375 266.757812 384.484375 266.507812 C 384.234375 266.257812 383.882812 266.132812 383.4375 266.132812 L 382.234375 266.132812 C 381.273438 266.132812 380.796875 266.621094 380.796875 267.601562 C 380.796875 267.945312 380.867188 268.234375 381.015625 268.476562 C 381.160156 268.726562 381.234375 268.871094 381.234375 268.914062 C 381.234375 269.039062 381.179688 269.140625 381.078125 269.226562 C 380.972656 269.320312 380.863281 269.367188 380.75 269.367188 C 380.550781 269.367188 380.359375 269.1875 380.171875 268.835938 C 379.996094 268.480469 379.90625 268.046875 379.90625 267.539062 C 379.90625 266.746094 380.117188 266.148438 380.546875 265.742188 C 380.972656 265.335938 381.535156 265.132812 382.234375 265.132812 Z M 380.359375 270.355469 L 388.765625 270.355469 C 388.867188 270.355469 388.953125 270.402344 389.015625 270.496094 C 389.085938 270.589844 389.125 270.703125 389.125 270.839844 C 389.125 270.984375 389.085938 271.105469 389.015625 271.199219 C 388.953125 271.300781 388.867188 271.355469 388.765625 271.355469 L 383.15625 271.355469 L 385.625 274.089844 C 385.6875 274.160156 385.71875 274.234375 385.71875 274.308594 C 385.71875 274.421875 385.664062 274.53125 385.5625 274.636719 C 385.46875 274.75 385.363281 274.808594 385.25 274.808594 C 385.144531 274.808594 385.0625 274.769531 385 274.699219 L 383.53125 273.027344 L 380.640625 275.027344 C 380.578125 275.066406 380.515625 275.089844 380.453125 275.089844 C 380.335938 275.089844 380.222656 275.027344 380.109375 274.902344 C 380.003906 274.785156 379.953125 274.660156 379.953125 274.527344 C 379.953125 274.421875 380.003906 274.332031 380.109375 274.261719 L 382.90625 272.355469 L 382.015625 271.355469 L 380.359375 271.355469 C 380.273438 271.355469 380.191406 271.300781 380.109375 271.199219 C 380.035156 271.105469 380 270.988281 380 270.855469 C 380 270.71875 380.035156 270.597656 380.109375 270.496094 C 380.179688 270.402344 380.265625 270.355469 380.359375 270.355469 Z M 388.921875 275.664062 C 389.003906 275.664062 389.070312 275.703125 389.125 275.789062 C 389.1875 275.882812 389.21875 275.980469 389.21875 276.085938 C 389.21875 276.199219 389.1875 276.304688 389.125 276.398438 C 389.070312 276.492188 389.003906 276.539062 388.921875 276.539062 L 387.171875 276.414062 C 387.085938 276.414062 387.015625 276.386719 386.953125 276.335938 C 386.890625 276.28125 386.859375 276.203125 386.859375 276.101562 C 386.859375 275.890625 386.960938 275.789062 387.171875 275.789062 Z M 388.921875 277.289062 C 389.003906 277.289062 389.070312 277.328125 389.125 277.414062 C 389.1875 277.507812 389.21875 277.609375 389.21875 277.726562 C 389.21875 277.839844 389.1875 277.9375 389.125 278.023438 C 389.070312 278.117188 389.003906 278.164062 388.921875 278.164062 L 387.171875 278.054688 C 387.085938 278.054688 387.015625 278.023438 386.953125 277.960938 C 386.890625 277.90625 386.859375 277.828125 386.859375 277.726562 C 386.859375 277.515625 386.960938 277.414062 387.171875 277.414062 Z M 380 278.589844 "/>
</g>
</svg>
