<?xml version="1.0" encoding="UTF-8"?>
<svg xmlns="http://www.w3.org/2000/svg" xmlns:xlink="http://www.w3.org/1999/xlink" width="136pt" height="566pt" viewBox="0 0 136 566" version="1.1">
<g id="surface265">
<path style=" stroke:none;fill-rule:nonzero;fill:rgb(0%,0%,0%);fill-opacity:1;" d="M 0 0 L 116 0 L 116 566 L 0 566 Z M 0 0 "/>
<path style=" stroke:none;fill-rule:nonzero;fill:rgb(50.196078%,50.196078%,50.196078%);fill-opacity:1;" d="M 0 0 L 14.5 0 L 14.5 566 L 0 566 Z M 0 0 "/>
<path style=" stroke:none;fill-rule:nonzero;fill:rgb(0%,0%,0%);fill-opacity:1;" d="M 14.5 0 L 29 0 L 29 566 L 14.5 566 Z M 14.5 0 "/>
<path style=" stroke:none;fill-rule:nonzero;fill:rgb(50.196078%,50.196078%,50.196078%);fill-opacity:1;" d="M 29 0 L 43.5 0 L 43.5 566 L 29 566 Z M 29 0 "/>
<path style=" stroke:none;fill-rule:nonzero;fill:rgb(0%,0%,0%);fill-opacity:1;" d="M 43.5 0 L 58 0 L 58 566 L 43.5 566 Z M 43.5 0 "/>
<path style=" stroke:none;fill-rule:nonzero;fill:rgb(50.196078%,50.196078%,50.196078%);fill-opacity:1;" d="M 58 0 L 72.5 0 L 72.5 566 L 58 566 Z M 58 0 "/>
<path style=" stroke:none;fill-rule:nonzero;fill:rgb(0%,0%,0%);fill-opacity:1;" d="M 72.5 0 L 87 0 L 87 566 L 72.5 566 Z M 72.5 0 "/>
<path style=" stroke:none;fill-rule:nonzero;fill:rgb(50.196078%,50.196078%,50.196078%);fill-opacity:1;" d="M 87 0 L 101.5 0 L 101.5 566 L 87 566 Z M 87 0 "/>
<path style=" stroke:none;fill-rule:nonzero;fill:rgb(0%,0%,0%);fill-opacity:1;" d="M 101.5 0 L 116 0 L 116 566 L 101.5 566 Z M 101.5 0 "/>
<path style=" stroke:none;fill-rule:nonzero;fill:rgb(0%,0%,0%);fill-opacity:1;" d="M 121.34375 5.71875 L 127.875 5.71875 C 128.5 5.71875 129.03125 5.925781 129.46875 6.34375 C 129.90625 6.769531 130.125 7.269531 130.125 7.84375 L 130.125 8.265625 C 130.125 8.390625 130.078125 8.488281 129.984375 8.5625 C 129.898438 8.632812 129.796875 8.671875 129.671875 8.671875 C 129.554688 8.671875 129.457031 8.632812 129.375 8.5625 C 129.289062 8.488281 129.25 8.390625 129.25 8.265625 L 129.25 8.015625 C 129.25 7.640625 129.125 7.332031 128.875 7.09375 C 128.625 6.851562 128.316406 6.726562 127.953125 6.71875 L 126.6875 6.71875 L 126.6875 8.359375 C 126.6875 8.453125 126.644531 8.523438 126.5625 8.578125 C 126.488281 8.640625 126.398438 8.671875 126.296875 8.671875 C 126.191406 8.671875 126.097656 8.640625 126.015625 8.578125 C 125.941406 8.523438 125.90625 8.453125 125.90625 8.359375 L 125.90625 6.71875 L 121.34375 6.71875 C 121.25 6.71875 121.164062 6.664062 121.09375 6.5625 C 121.03125 6.46875 121 6.347656 121 6.203125 C 121 6.066406 121.03125 5.953125 121.09375 5.859375 C 121.15625 5.765625 121.238281 5.71875 121.34375 5.71875 Z M 123.234375 9.265625 L 124.453125 9.265625 C 125.066406 9.265625 125.601562 9.5 126.0625 9.96875 C 126.53125 10.4375 126.765625 10.988281 126.765625 11.625 C 126.765625 12.269531 126.535156 12.828125 126.078125 13.296875 C 125.617188 13.773438 125.078125 14.015625 124.453125 14.015625 L 123.234375 14.015625 C 122.617188 14.015625 122.078125 13.773438 121.609375 13.296875 C 121.140625 12.816406 120.90625 12.257812 120.90625 11.625 C 120.90625 11 121.140625 10.445312 121.609375 9.96875 C 122.078125 9.5 122.617188 9.265625 123.234375 9.265625 Z M 123.234375 10.265625 C 122.859375 10.265625 122.523438 10.398438 122.234375 10.671875 C 121.941406 10.941406 121.796875 11.265625 121.796875 11.640625 C 121.796875 12.015625 121.941406 12.335938 122.234375 12.609375 C 122.535156 12.878906 122.867188 13.015625 123.234375 13.015625 L 124.453125 13.015625 C 124.816406 13.015625 125.140625 12.878906 125.421875 12.609375 C 125.710938 12.335938 125.859375 12.015625 125.859375 11.640625 C 125.859375 11.265625 125.710938 10.941406 125.421875 10.671875 C 125.140625 10.398438 124.816406 10.265625 124.453125 10.265625 Z M 121.359375 15.316406 L 129.765625 15.316406 C 129.867188 15.316406 129.953125 15.363281 130.015625 15.457031 C 130.085938 15.550781 130.125 15.667969 130.125 15.816406 C 130.125 15.960938 130.085938 16.082031 130.015625 16.175781 C 129.953125 16.269531 129.867188 16.316406 129.765625 16.316406 L 121.359375 16.316406 C 121.273438 16.316406 121.191406 16.261719 121.109375 16.160156 C 121.035156 16.066406 121 15.949219 121 15.816406 C 121 15.679688 121.035156 15.558594 121.109375 15.457031 C 121.179688 15.363281 121.265625 15.316406 121.359375 15.316406 Z M 123.234375 17.617188 L 124.453125 17.617188 C 125.085938 17.617188 125.628906 17.828125 126.078125 18.257812 C 126.535156 18.683594 126.765625 19.1875 126.765625 19.773438 C 126.765625 20.136719 126.675781 20.453125 126.5 20.726562 C 126.320312 20.996094 126.101562 21.203125 125.84375 21.351562 L 129.765625 21.351562 C 129.867188 21.351562 129.953125 21.398438 130.015625 21.492188 C 130.085938 21.585938 130.125 21.703125 130.125 21.851562 C 130.125 21.996094 130.085938 22.109375 130.015625 22.195312 C 129.953125 22.289062 129.867188 22.335938 129.765625 22.335938 L 121.359375 22.335938 C 121.265625 22.335938 121.179688 22.289062 121.109375 22.195312 C 121.035156 22.101562 121 21.984375 121 21.851562 C 121 21.726562 121.035156 21.617188 121.109375 21.523438 C 121.179688 21.4375 121.265625 21.398438 121.359375 21.398438 L 121.84375 21.398438 C 121.582031 21.261719 121.359375 21.039062 121.171875 20.726562 C 120.996094 20.421875 120.90625 20.09375 120.90625 19.742188 C 120.90625 19.179688 121.140625 18.683594 121.609375 18.257812 C 122.078125 17.828125 122.617188 17.617188 123.234375 17.617188 Z M 123.234375 18.617188 C 122.867188 18.617188 122.535156 18.75 122.234375 19.023438 C 121.941406 19.292969 121.796875 19.609375 121.796875 19.976562 C 121.796875 20.328125 121.929688 20.648438 122.203125 20.929688 C 122.472656 21.210938 122.707031 21.351562 122.90625 21.351562 L 124.453125 21.351562 C 124.867188 21.351562 125.207031 21.210938 125.46875 20.929688 C 125.726562 20.65625 125.859375 20.34375 125.859375 19.992188 C 125.859375 19.617188 125.710938 19.292969 125.421875 19.023438 C 125.140625 18.75 124.816406 18.617188 124.453125 18.617188 Z M 121.359375 23.917969 L 129.40625 23.917969 C 129.519531 23.917969 129.609375 23.957031 129.671875 24.042969 C 129.734375 24.136719 129.765625 24.246094 129.765625 24.371094 L 129.765625 28.636719 C 129.765625 28.75 129.722656 28.832031 129.640625 28.886719 C 129.554688 28.949219 129.453125 28.980469 129.328125 28.980469 C 129.203125 28.980469 129.09375 28.949219 129 28.886719 C 128.90625 28.824219 128.859375 28.738281 128.859375 28.636719 L 128.859375 24.917969 L 125.8125 24.917969 L 125.8125 26.792969 C 125.8125 26.894531 125.769531 26.980469 125.6875 27.042969 C 125.601562 27.105469 125.5 27.136719 125.375 27.136719 C 125.269531 27.136719 125.175781 27.105469 125.09375 27.042969 C 125.007812 26.988281 124.96875 26.90625 124.96875 26.792969 L 124.96875 24.917969 L 121.90625 24.917969 L 121.90625 28.636719 C 121.90625 28.738281 121.859375 28.824219 121.765625 28.886719 C 121.679688 28.949219 121.570312 28.980469 121.4375 28.980469 C 121.320312 28.980469 121.21875 28.949219 121.125 28.886719 C 121.039062 28.832031 121 28.75 121 28.636719 L 121 24.371094 C 121 24.246094 121.03125 24.136719 121.09375 24.042969 C 121.15625 23.957031 121.242188 23.917969 121.359375 23.917969 Z M 126.28125 29.367188 C 126.394531 29.367188 126.492188 29.433594 126.578125 29.570312 C 126.671875 29.714844 126.71875 29.859375 126.71875 30.007812 C 126.71875 30.171875 126.648438 30.28125 126.515625 30.335938 L 122.4375 31.851562 L 126.46875 33.351562 C 126.632812 33.414062 126.71875 33.523438 126.71875 33.679688 C 126.71875 33.804688 126.671875 33.9375 126.578125 34.085938 C 126.492188 34.242188 126.394531 34.320312 126.28125 34.320312 C 126.21875 34.320312 126.15625 34.304688 126.09375 34.273438 L 121.109375 32.304688 C 120.964844 32.242188 120.890625 32.089844 120.890625 31.851562 C 120.890625 31.601562 120.964844 31.445312 121.109375 31.382812 L 126.09375 29.414062 C 126.1875 29.382812 126.25 29.367188 126.28125 29.367188 Z M 123.234375 34.957031 L 124.484375 34.957031 C 125.109375 34.957031 125.644531 35.191406 126.09375 35.660156 C 126.539062 36.128906 126.765625 36.691406 126.765625 37.347656 C 126.765625 37.972656 126.550781 38.511719 126.125 38.972656 C 125.707031 39.429688 125.179688 39.660156 124.546875 39.660156 C 124.316406 39.660156 124.128906 39.628906 123.984375 39.566406 C 123.847656 39.511719 123.75 39.429688 123.6875 39.316406 C 123.632812 39.199219 123.597656 39.089844 123.578125 38.988281 C 123.566406 38.894531 123.5625 38.757812 123.5625 38.582031 L 123.5625 35.957031 L 123.203125 35.957031 C 122.753906 35.957031 122.398438 36.113281 122.140625 36.425781 C 121.878906 36.746094 121.75 37.160156 121.75 37.660156 C 121.75 37.929688 121.785156 38.160156 121.859375 38.347656 C 121.941406 38.542969 122.019531 38.699219 122.09375 38.816406 C 122.175781 38.941406 122.21875 39.039062 122.21875 39.113281 C 122.21875 39.226562 122.164062 39.320312 122.0625 39.394531 C 121.957031 39.476562 121.851562 39.519531 121.75 39.519531 C 121.570312 39.519531 121.382812 39.335938 121.1875 38.972656 C 121 38.605469 120.90625 38.160156 120.90625 37.628906 C 120.90625 36.847656 121.117188 36.207031 121.546875 35.707031 C 121.972656 35.207031 122.535156 34.957031 123.234375 34.957031 Z M 124.234375 35.957031 L 124.234375 38.175781 C 124.234375 38.382812 124.257812 38.523438 124.3125 38.597656 C 124.363281 38.667969 124.460938 38.707031 124.609375 38.707031 C 124.972656 38.707031 125.289062 38.570312 125.5625 38.300781 C 125.832031 38.039062 125.96875 37.722656 125.96875 37.347656 C 125.96875 36.960938 125.84375 36.632812 125.59375 36.363281 C 125.34375 36.089844 125.03125 35.957031 124.65625 35.957031 Z M 121.359375 40.753906 L 126.34375 40.753906 C 126.445312 40.753906 126.53125 40.800781 126.59375 40.894531 C 126.65625 40.988281 126.6875 41.105469 126.6875 41.253906 C 126.6875 41.378906 126.65625 41.480469 126.59375 41.566406 C 126.53125 41.660156 126.445312 41.707031 126.34375 41.707031 L 125.78125 41.707031 C 126.050781 41.851562 126.28125 42.066406 126.46875 42.347656 C 126.664062 42.628906 126.765625 42.941406 126.765625 43.285156 L 126.765625 43.691406 C 126.765625 43.792969 126.71875 43.882812 126.625 43.957031 C 126.53125 44.027344 126.421875 44.066406 126.296875 44.066406 C 126.179688 44.066406 126.078125 44.027344 125.984375 43.957031 C 125.898438 43.882812 125.859375 43.792969 125.859375 43.691406 L 125.859375 43.285156 C 125.859375 42.867188 125.691406 42.507812 125.359375 42.207031 C 125.035156 41.902344 124.613281 41.753906 124.09375 41.753906 L 121.359375 41.753906 C 121.273438 41.753906 121.191406 41.699219 121.109375 41.597656 C 121.035156 41.503906 121 41.386719 121 41.253906 C 121 41.117188 121.035156 40.996094 121.109375 40.894531 C 121.179688 40.800781 121.265625 40.753906 121.359375 40.753906 Z M 126.28125 44.320312 C 126.40625 44.320312 126.515625 44.390625 126.609375 44.539062 C 126.710938 44.683594 126.765625 44.828125 126.765625 44.976562 C 126.765625 45.140625 126.695312 45.246094 126.5625 45.289062 L 122.375 46.882812 L 126.5625 48.304688 C 126.695312 48.367188 126.765625 48.46875 126.765625 48.617188 C 126.765625 48.75 126.710938 48.890625 126.609375 49.039062 C 126.515625 49.195312 126.398438 49.273438 126.265625 49.273438 C 126.222656 49.273438 126.179688 49.257812 126.140625 49.226562 L 121.265625 47.414062 L 120.65625 47.179688 C 120.554688 47.136719 120.367188 47.054688 120.09375 46.929688 C 119.824219 46.8125 119.625 46.714844 119.5 46.632812 C 119.375 46.558594 119.21875 46.449219 119.03125 46.304688 C 118.835938 46.15625 118.695312 46.015625 118.609375 45.882812 C 118.515625 45.746094 118.433594 45.585938 118.359375 45.398438 C 118.289062 45.210938 118.25 45.011719 118.25 44.804688 C 118.25 44.492188 118.402344 44.335938 118.703125 44.335938 C 118.984375 44.335938 119.125 44.429688 119.125 44.617188 C 119.125 44.980469 119.328125 45.328125 119.734375 45.664062 C 120.140625 46.007812 120.65625 46.242188 121.28125 46.367188 L 126.140625 44.367188 C 126.191406 44.335938 126.238281 44.320312 126.28125 44.320312 Z M 121.09375 52.605469 L 129.875 52.605469 C 129.976562 52.605469 130.0625 52.652344 130.125 52.746094 C 130.1875 52.839844 130.21875 52.941406 130.21875 53.058594 L 130.21875 55.027344 C 130.21875 55.128906 130.171875 55.214844 130.078125 55.277344 C 129.992188 55.339844 129.890625 55.371094 129.765625 55.371094 C 129.640625 55.371094 129.53125 55.339844 129.4375 55.277344 C 129.351562 55.214844 129.3125 55.128906 129.3125 55.027344 L 129.3125 53.605469 L 121.640625 53.605469 L 121.640625 55.027344 C 121.640625 55.128906 121.597656 55.214844 121.515625 55.277344 C 121.429688 55.339844 121.320312 55.371094 121.1875 55.371094 C 121.070312 55.371094 120.976562 55.339844 120.890625 55.277344 C 120.796875 55.214844 120.75 55.128906 120.75 55.027344 L 120.75 53.058594 C 120.75 52.941406 120.78125 52.839844 120.84375 52.746094 C 120.90625 52.652344 120.992188 52.605469 121.09375 52.605469 Z M 122.96875 55.90625 C 123.15625 55.90625 123.28125 55.9375 123.34375 56 C 123.40625 56.070312 123.4375 56.195312 123.4375 56.375 C 123.4375 56.5625 123.40625 56.691406 123.34375 56.765625 C 123.28125 56.847656 123.179688 56.890625 123.046875 56.890625 C 122.734375 56.890625 122.453125 57.019531 122.203125 57.28125 C 121.960938 57.539062 121.84375 57.9375 121.84375 58.46875 C 121.84375 59.53125 122.394531 60.0625 123.5 60.0625 L 123.71875 60.0625 C 124.695312 60.0625 125.1875 59.53125 125.1875 58.46875 C 125.1875 58.226562 125.328125 58.109375 125.609375 58.109375 C 125.890625 58.109375 126.03125 58.226562 126.03125 58.46875 C 126.03125 58.925781 126.132812 59.269531 126.34375 59.5 C 126.550781 59.738281 126.925781 59.859375 127.46875 59.859375 C 128.40625 59.859375 128.875 59.410156 128.875 58.515625 C 128.875 57.992188 128.757812 57.628906 128.53125 57.421875 C 128.300781 57.210938 128.03125 57.109375 127.71875 57.109375 C 127.425781 57.109375 127.28125 56.945312 127.28125 56.625 C 127.28125 56.40625 127.3125 56.257812 127.375 56.1875 C 127.445312 56.125 127.582031 56.09375 127.78125 56.09375 C 127.988281 56.09375 128.195312 56.128906 128.40625 56.203125 C 128.625 56.285156 128.835938 56.410156 129.046875 56.578125 C 129.253906 56.742188 129.425781 56.992188 129.5625 57.328125 C 129.695312 57.671875 129.765625 58.070312 129.765625 58.53125 C 129.765625 60.0625 129.054688 60.828125 127.640625 60.828125 C 127.140625 60.828125 126.710938 60.738281 126.359375 60.5625 C 126.015625 60.382812 125.769531 60.148438 125.625 59.859375 C 125.300781 60.671875 124.664062 61.078125 123.71875 61.078125 L 123.5 61.078125 C 122.613281 61.078125 121.960938 60.835938 121.546875 60.359375 C 121.128906 59.878906 120.921875 59.25 120.921875 58.46875 C 120.921875 57.632812 121.128906 57 121.546875 56.5625 C 121.972656 56.125 122.445312 55.90625 122.96875 55.90625 Z M 121.546875 61.992188 C 121.722656 61.992188 121.875 62.046875 122 62.164062 C 122.125 62.277344 122.1875 62.421875 122.1875 62.601562 C 122.1875 62.765625 122.125 62.914062 122 63.039062 C 121.882812 63.164062 121.734375 63.226562 121.546875 63.226562 C 121.410156 63.226562 120.929688 63.054688 120.09375 62.710938 C 119.992188 62.65625 119.9375 62.570312 119.9375 62.445312 C 119.9375 62.351562 119.964844 62.265625 120.015625 62.195312 C 120.070312 62.132812 120.136719 62.101562 120.21875 62.101562 C 120.273438 62.101562 120.320312 62.105469 120.359375 62.117188 L 120.96875 62.367188 C 121.070312 62.117188 121.265625 61.992188 121.546875 61.992188 Z M 123 63.964844 C 123.320312 63.964844 123.484375 64.128906 123.484375 64.464844 C 123.484375 64.808594 123.347656 64.980469 123.078125 64.980469 C 122.691406 64.980469 122.390625 65.125 122.171875 65.417969 C 121.953125 65.71875 121.84375 66.09375 121.84375 66.542969 C 121.84375 67.050781 121.984375 67.441406 122.265625 67.714844 C 122.546875 67.996094 122.960938 68.136719 123.515625 68.136719 L 123.75 68.136719 C 124.289062 68.136719 124.695312 67.996094 124.96875 67.714844 C 125.25 67.441406 125.390625 67.058594 125.390625 66.558594 L 125.390625 64.855469 C 125.390625 64.542969 125.519531 64.386719 125.78125 64.386719 C 125.863281 64.386719 125.953125 64.394531 126.046875 64.417969 L 129.40625 64.667969 C 129.644531 64.675781 129.765625 64.765625 129.765625 64.933594 L 129.765625 68.386719 C 129.765625 68.488281 129.71875 68.566406 129.625 68.621094 C 129.539062 68.683594 129.4375 68.714844 129.3125 68.714844 C 129.195312 68.714844 129.09375 68.683594 129 68.621094 C 128.90625 68.566406 128.859375 68.488281 128.859375 68.386719 L 128.859375 65.542969 L 126.234375 65.355469 L 126.234375 66.558594 C 126.234375 67.339844 126.03125 67.964844 125.625 68.433594 C 125.226562 68.902344 124.601562 69.136719 123.75 69.136719 L 123.515625 69.136719 C 122.628906 69.136719 121.972656 68.902344 121.546875 68.433594 C 121.128906 67.964844 120.921875 67.339844 120.921875 66.558594 C 120.921875 65.753906 121.125 65.121094 121.53125 64.652344 C 121.9375 64.191406 122.425781 63.964844 123 63.964844 Z M 121.1875 69.707031 C 121.320312 69.707031 121.429688 69.738281 121.515625 69.800781 C 121.597656 69.863281 121.640625 69.945312 121.640625 70.050781 L 121.640625 71.472656 L 129.3125 71.472656 L 129.3125 70.050781 C 129.3125 69.945312 129.351562 69.863281 129.4375 69.800781 C 129.53125 69.738281 129.640625 69.707031 129.765625 69.707031 C 129.890625 69.707031 129.992188 69.738281 130.078125 69.800781 C 130.171875 69.863281 130.21875 69.945312 130.21875 70.050781 L 130.21875 72.019531 C 130.21875 72.144531 130.1875 72.246094 130.125 72.332031 C 130.0625 72.425781 129.976562 72.472656 129.875 72.472656 L 121.09375 72.472656 C 120.992188 72.472656 120.90625 72.425781 120.84375 72.332031 C 120.78125 72.246094 120.75 72.144531 120.75 72.019531 L 120.75 70.050781 C 120.75 69.945312 120.796875 69.863281 120.890625 69.800781 C 120.976562 69.738281 121.070312 69.707031 121.1875 69.707031 Z M 122.859375 76.34375 L 127.953125 76.34375 C 128.578125 76.34375 129.109375 76.570312 129.546875 77.03125 C 129.992188 77.5 130.21875 78.046875 130.21875 78.671875 C 130.21875 78.992188 130.066406 79.15625 129.765625 79.15625 C 129.628906 79.15625 129.519531 79.125 129.4375 79.0625 C 129.351562 79 129.3125 78.914062 129.3125 78.8125 C 129.3125 78.375 129.171875 78.019531 128.890625 77.75 C 128.617188 77.476562 128.304688 77.34375 127.953125 77.34375 L 122.859375 77.34375 C 122.421875 77.34375 122.109375 77.488281 121.921875 77.78125 C 121.742188 78.070312 121.65625 78.414062 121.65625 78.8125 C 121.65625 79.039062 121.503906 79.15625 121.203125 79.15625 C 120.914062 79.15625 120.765625 78.984375 120.765625 78.640625 C 120.765625 77.992188 120.949219 77.445312 121.3125 77 C 121.675781 76.5625 122.191406 76.34375 122.859375 76.34375 Z M 121.8125 79.734375 C 121.914062 79.734375 122.015625 79.765625 122.109375 79.828125 C 122.210938 79.898438 122.265625 79.984375 122.265625 80.078125 C 122.265625 80.140625 122.21875 80.226562 122.125 80.34375 C 122.03125 80.46875 121.9375 80.644531 121.84375 80.875 C 121.75 81.101562 121.703125 81.367188 121.703125 81.671875 C 121.703125 82.066406 121.773438 82.351562 121.921875 82.53125 C 122.066406 82.71875 122.25 82.8125 122.46875 82.8125 C 122.726562 82.8125 122.9375 82.707031 123.09375 82.5 C 123.25 82.300781 123.363281 82.054688 123.4375 81.765625 C 123.519531 81.484375 123.609375 81.195312 123.703125 80.90625 C 123.804688 80.625 123.96875 80.378906 124.1875 80.171875 C 124.414062 79.972656 124.710938 79.875 125.078125 79.875 C 125.535156 79.875 125.929688 80.035156 126.265625 80.359375 C 126.597656 80.679688 126.765625 81.175781 126.765625 81.84375 C 126.765625 82.269531 126.695312 82.65625 126.5625 83 C 126.425781 83.351562 126.273438 83.53125 126.109375 83.53125 C 126.015625 83.53125 125.90625 83.492188 125.78125 83.421875 C 125.664062 83.347656 125.609375 83.253906 125.609375 83.140625 C 125.609375 83.109375 125.664062 82.953125 125.78125 82.671875 C 125.894531 82.398438 125.953125 82.128906 125.953125 81.859375 C 125.953125 81.492188 125.863281 81.21875 125.6875 81.03125 C 125.519531 80.851562 125.328125 80.765625 125.109375 80.765625 C 124.890625 80.765625 124.710938 80.863281 124.578125 81.0625 C 124.453125 81.257812 124.351562 81.503906 124.28125 81.796875 C 124.21875 82.097656 124.132812 82.390625 124.03125 82.671875 C 123.925781 82.960938 123.742188 83.207031 123.484375 83.40625 C 123.234375 83.601562 122.910156 83.703125 122.515625 83.703125 C 122.015625 83.703125 121.617188 83.523438 121.328125 83.171875 C 121.046875 82.828125 120.90625 82.335938 120.90625 81.703125 C 120.90625 81.160156 121 80.695312 121.1875 80.3125 C 121.382812 79.925781 121.59375 79.734375 121.8125 79.734375 Z M 121.359375 84.894531 L 129.765625 84.894531 C 129.867188 84.894531 129.953125 84.941406 130.015625 85.035156 C 130.085938 85.128906 130.125 85.246094 130.125 85.394531 C 130.125 85.539062 130.085938 85.660156 130.015625 85.753906 C 129.953125 85.847656 129.867188 85.894531 129.765625 85.894531 L 121.359375 85.894531 C 121.273438 85.894531 121.191406 85.839844 121.109375 85.738281 C 121.035156 85.644531 121 85.527344 121 85.394531 C 121 85.257812 121.035156 85.136719 121.109375 85.035156 C 121.179688 84.941406 121.265625 84.894531 121.359375 84.894531 Z M 123.234375 87.191406 L 124.453125 87.191406 C 125.066406 87.191406 125.601562 87.425781 126.0625 87.894531 C 126.53125 88.363281 126.765625 88.914062 126.765625 89.550781 C 126.765625 90.195312 126.535156 90.753906 126.078125 91.222656 C 125.617188 91.699219 125.078125 91.941406 124.453125 91.941406 L 123.234375 91.941406 C 122.617188 91.941406 122.078125 91.699219 121.609375 91.222656 C 121.140625 90.742188 120.90625 90.183594 120.90625 89.550781 C 120.90625 88.925781 121.140625 88.371094 121.609375 87.894531 C 122.078125 87.425781 122.617188 87.191406 123.234375 87.191406 Z M 123.234375 88.191406 C 122.859375 88.191406 122.523438 88.324219 122.234375 88.597656 C 121.941406 88.867188 121.796875 89.191406 121.796875 89.566406 C 121.796875 89.941406 121.941406 90.261719 122.234375 90.535156 C 122.535156 90.804688 122.867188 90.941406 123.234375 90.941406 L 124.453125 90.941406 C 124.816406 90.941406 125.140625 90.804688 125.421875 90.535156 C 125.710938 90.261719 125.859375 89.941406 125.859375 89.566406 C 125.859375 89.191406 125.710938 88.867188 125.421875 88.597656 C 125.140625 88.324219 124.816406 88.191406 124.453125 88.191406 Z M 126.28125 92.605469 C 126.394531 92.605469 126.492188 92.667969 126.578125 92.792969 C 126.671875 92.925781 126.71875 93.066406 126.71875 93.214844 C 126.71875 93.378906 126.648438 93.488281 126.515625 93.542969 L 122.484375 94.996094 L 126.125 96.121094 C 126.28125 96.171875 126.359375 96.296875 126.359375 96.496094 C 126.359375 96.691406 126.28125 96.816406 126.125 96.871094 L 122.453125 97.980469 L 126.515625 99.449219 C 126.648438 99.480469 126.71875 99.578125 126.71875 99.746094 C 126.71875 99.890625 126.671875 100.03125 126.578125 100.167969 C 126.492188 100.300781 126.394531 100.371094 126.28125 100.371094 C 126.21875 100.371094 126.15625 100.355469 126.09375 100.324219 L 121.109375 98.464844 C 120.964844 98.402344 120.890625 98.265625 120.890625 98.058594 C 120.890625 97.839844 120.964844 97.703125 121.109375 97.652344 L 124.640625 96.496094 L 121.140625 95.355469 C 120.976562 95.292969 120.890625 95.144531 120.890625 94.917969 C 120.890625 94.707031 120.976562 94.574219 121.140625 94.511719 L 126.09375 92.652344 C 126.1875 92.621094 126.25 92.605469 126.28125 92.605469 Z M 121.359375 103.324219 L 122.53125 103.324219 C 122.882812 103.324219 123.234375 103.457031 123.578125 103.730469 C 123.929688 104.011719 124.25 104.34375 124.53125 104.730469 L 125.390625 105.902344 C 125.671875 106.285156 125.984375 106.613281 126.328125 106.886719 C 126.679688 107.167969 127.035156 107.308594 127.390625 107.308594 C 127.773438 107.308594 128.113281 107.183594 128.40625 106.933594 C 128.695312 106.683594 128.84375 106.324219 128.84375 105.855469 C 128.84375 105.449219 128.726562 105.121094 128.5 104.871094 C 128.269531 104.621094 127.945312 104.496094 127.53125 104.496094 C 127.425781 104.496094 127.332031 104.441406 127.25 104.339844 C 127.164062 104.246094 127.125 104.121094 127.125 103.964844 C 127.125 103.660156 127.320312 103.511719 127.71875 103.511719 C 128.320312 103.511719 128.8125 103.734375 129.1875 104.183594 C 129.570312 104.640625 129.765625 105.199219 129.765625 105.855469 C 129.765625 106.550781 129.539062 107.136719 129.09375 107.605469 C 128.65625 108.082031 128.101562 108.324219 127.4375 108.324219 C 127.03125 108.324219 126.644531 108.222656 126.28125 108.027344 C 125.914062 107.828125 125.601562 107.582031 125.34375 107.292969 C 125.082031 107 124.828125 106.683594 124.578125 106.339844 L 123.890625 105.386719 C 123.691406 105.09375 123.472656 104.847656 123.234375 104.652344 C 122.992188 104.453125 122.757812 104.355469 122.53125 104.355469 L 121.90625 104.355469 L 121.90625 108.042969 C 121.90625 108.136719 121.859375 108.214844 121.765625 108.277344 C 121.679688 108.347656 121.578125 108.386719 121.453125 108.386719 C 121.335938 108.386719 121.234375 108.347656 121.140625 108.277344 C 121.046875 108.214844 121 108.136719 121 108.042969 L 121 103.777344 C 121 103.671875 121.03125 103.566406 121.09375 103.464844 C 121.164062 103.371094 121.253906 103.324219 121.359375 103.324219 Z M 121.203125 108.960938 C 121.503906 108.960938 121.65625 109.074219 121.65625 109.304688 C 121.65625 109.699219 121.742188 110.042969 121.921875 110.335938 C 122.109375 110.625 122.421875 110.773438 122.859375 110.773438 L 127.953125 110.773438 C 128.304688 110.773438 128.617188 110.636719 128.890625 110.367188 C 129.171875 110.09375 129.3125 109.742188 129.3125 109.304688 C 129.3125 109.199219 129.351562 109.117188 129.4375 109.054688 C 129.519531 108.992188 129.628906 108.960938 129.765625 108.960938 C 130.066406 108.960938 130.21875 109.121094 130.21875 109.445312 C 130.21875 110.070312 129.992188 110.609375 129.546875 111.070312 C 129.109375 111.539062 128.578125 111.773438 127.953125 111.773438 L 122.859375 111.773438 C 122.191406 111.773438 121.675781 111.546875 121.3125 111.101562 C 120.949219 110.664062 120.765625 110.117188 120.765625 109.460938 C 120.765625 109.125 120.914062 108.960938 121.203125 108.960938 Z M 122.375 115.28125 C 122.507812 115.28125 122.632812 115.328125 122.75 115.421875 C 122.875 115.515625 122.9375 115.613281 122.9375 115.71875 C 122.9375 115.78125 122.882812 115.867188 122.78125 115.984375 C 122.6875 116.097656 122.582031 116.210938 122.46875 116.328125 C 122.351562 116.441406 122.242188 116.625 122.140625 116.875 C 122.046875 117.125 121.988281 117.40625 121.96875 117.71875 L 125.15625 117.71875 L 125.40625 117.0625 C 125.457031 116.914062 125.550781 116.722656 125.6875 116.484375 C 125.820312 116.242188 125.957031 116.066406 126.09375 115.953125 C 126.238281 115.835938 126.429688 115.734375 126.671875 115.640625 C 126.910156 115.546875 127.175781 115.5 127.46875 115.5 C 127.832031 115.5 128.148438 115.5625 128.421875 115.6875 C 128.703125 115.8125 128.921875 115.984375 129.078125 116.203125 C 129.234375 116.429688 129.351562 116.664062 129.4375 116.90625 C 129.519531 117.15625 129.578125 117.425781 129.609375 117.71875 L 129.96875 117.71875 C 130.03125 117.71875 130.085938 117.742188 130.140625 117.796875 C 130.191406 117.859375 130.21875 117.9375 130.21875 118.03125 C 130.21875 118.101562 130.191406 118.171875 130.140625 118.234375 C 130.085938 118.304688 130.03125 118.34375 129.96875 118.34375 L 129.625 118.34375 C 129.601562 118.820312 129.519531 119.253906 129.375 119.640625 C 129.238281 120.035156 129.0625 120.234375 128.84375 120.234375 C 128.726562 120.234375 128.601562 120.191406 128.46875 120.109375 C 128.34375 120.035156 128.28125 119.929688 128.28125 119.796875 C 128.28125 119.765625 128.347656 119.597656 128.484375 119.296875 C 128.628906 119.003906 128.710938 118.6875 128.734375 118.34375 L 125.984375 118.34375 C 125.878906 118.65625 125.769531 118.910156 125.65625 119.109375 C 125.550781 119.316406 125.40625 119.535156 125.21875 119.765625 C 125.03125 119.992188 124.789062 120.164062 124.5 120.28125 C 124.207031 120.394531 123.863281 120.453125 123.46875 120.453125 C 122.769531 120.453125 122.210938 120.257812 121.796875 119.875 C 121.390625 119.5 121.144531 118.988281 121.0625 118.34375 L 120.625 118.34375 C 120.5625 118.34375 120.507812 118.304688 120.453125 118.234375 C 120.402344 118.171875 120.375 118.101562 120.375 118.03125 C 120.375 117.9375 120.402344 117.859375 120.453125 117.796875 C 120.507812 117.742188 120.5625 117.71875 120.625 117.71875 L 121.03125 117.71875 C 121.03125 117.03125 121.179688 116.453125 121.484375 115.984375 C 121.796875 115.515625 122.09375 115.28125 122.375 115.28125 Z M 127.5625 116.453125 C 127.1875 116.453125 126.90625 116.5625 126.71875 116.78125 C 126.53125 117 126.359375 117.328125 126.203125 117.765625 L 128.71875 117.765625 C 128.625 116.890625 128.238281 116.453125 127.5625 116.453125 Z M 122 118.296875 C 122.125 119.085938 122.582031 119.484375 123.375 119.484375 C 123.789062 119.484375 124.113281 119.378906 124.34375 119.171875 C 124.582031 118.972656 124.78125 118.679688 124.9375 118.296875 Z M 123.234375 123.816406 L 124.453125 123.816406 C 125.085938 123.816406 125.628906 124.027344 126.078125 124.457031 C 126.535156 124.882812 126.765625 125.386719 126.765625 125.972656 C 126.765625 126.335938 126.675781 126.652344 126.5 126.925781 C 126.320312 127.195312 126.101562 127.402344 125.84375 127.550781 L 129.765625 127.550781 C 129.867188 127.550781 129.953125 127.597656 130.015625 127.691406 C 130.085938 127.785156 130.125 127.902344 130.125 128.050781 C 130.125 128.195312 130.085938 128.308594 130.015625 128.394531 C 129.953125 128.488281 129.867188 128.535156 129.765625 128.535156 L 121.359375 128.535156 C 121.265625 128.535156 121.179688 128.488281 121.109375 128.394531 C 121.035156 128.300781 121 128.183594 121 128.050781 C 121 127.925781 121.035156 127.816406 121.109375 127.722656 C 121.179688 127.636719 121.265625 127.597656 121.359375 127.597656 L 121.84375 127.597656 C 121.582031 127.460938 121.359375 127.238281 121.171875 126.925781 C 120.996094 126.621094 120.90625 126.292969 120.90625 125.941406 C 120.90625 125.378906 121.140625 124.882812 121.609375 124.457031 C 122.078125 124.027344 122.617188 123.816406 123.234375 123.816406 Z M 123.234375 124.816406 C 122.867188 124.816406 122.535156 124.949219 122.234375 125.222656 C 121.941406 125.492188 121.796875 125.808594 121.796875 126.175781 C 121.796875 126.527344 121.929688 126.847656 122.203125 127.128906 C 122.472656 127.410156 122.707031 127.550781 122.90625 127.550781 L 124.453125 127.550781 C 124.867188 127.550781 125.207031 127.410156 125.46875 127.128906 C 125.726562 126.855469 125.859375 126.542969 125.859375 126.191406 C 125.859375 125.816406 125.710938 125.492188 125.421875 125.222656 C 125.140625 124.949219 124.816406 124.816406 124.453125 124.816406 Z M 123.234375 129.746094 L 124.484375 129.746094 C 125.109375 129.746094 125.644531 129.980469 126.09375 130.449219 C 126.539062 130.917969 126.765625 131.480469 126.765625 132.136719 C 126.765625 132.761719 126.550781 133.300781 126.125 133.761719 C 125.707031 134.21875 125.179688 134.449219 124.546875 134.449219 C 124.316406 134.449219 124.128906 134.417969 123.984375 134.355469 C 123.847656 134.300781 123.75 134.21875 123.6875 134.105469 C 123.632812 133.988281 123.597656 133.878906 123.578125 133.777344 C 123.566406 133.683594 123.5625 133.546875 123.5625 133.371094 L 123.5625 130.746094 L 123.203125 130.746094 C 122.753906 130.746094 122.398438 130.902344 122.140625 131.214844 C 121.878906 131.535156 121.75 131.949219 121.75 132.449219 C 121.75 132.71875 121.785156 132.949219 121.859375 133.136719 C 121.941406 133.332031 122.019531 133.488281 122.09375 133.605469 C 122.175781 133.730469 122.21875 133.828125 122.21875 133.902344 C 122.21875 134.015625 122.164062 134.109375 122.0625 134.183594 C 121.957031 134.265625 121.851562 134.308594 121.75 134.308594 C 121.570312 134.308594 121.382812 134.125 121.1875 133.761719 C 121 133.394531 120.90625 132.949219 120.90625 132.417969 C 120.90625 131.636719 121.117188 130.996094 121.546875 130.496094 C 121.972656 129.996094 122.535156 129.746094 123.234375 129.746094 Z M 124.234375 130.746094 L 124.234375 132.964844 C 124.234375 133.171875 124.257812 133.3125 124.3125 133.386719 C 124.363281 133.457031 124.460938 133.496094 124.609375 133.496094 C 124.972656 133.496094 125.289062 133.359375 125.5625 133.089844 C 125.832031 132.828125 125.96875 132.511719 125.96875 132.136719 C 125.96875 131.75 125.84375 131.421875 125.59375 131.152344 C 125.34375 130.878906 125.03125 130.746094 124.65625 130.746094 Z M 121.359375 135.542969 L 126.34375 135.542969 C 126.445312 135.542969 126.53125 135.589844 126.59375 135.683594 C 126.65625 135.777344 126.6875 135.894531 126.6875 136.042969 C 126.6875 136.15625 126.648438 136.261719 126.578125 136.355469 C 126.515625 136.449219 126.4375 136.496094 126.34375 136.496094 L 125.84375 136.496094 C 126.101562 136.621094 126.320312 136.824219 126.5 137.105469 C 126.675781 137.394531 126.765625 137.730469 126.765625 138.105469 C 126.765625 138.667969 126.535156 139.15625 126.078125 139.574219 C 125.628906 140 125.085938 140.214844 124.453125 140.214844 L 121.359375 140.214844 C 121.242188 140.214844 121.15625 140.160156 121.09375 140.058594 C 121.03125 139.964844 121 139.847656 121 139.714844 C 121 139.589844 121.03125 139.472656 121.09375 139.371094 C 121.15625 139.265625 121.242188 139.214844 121.359375 139.214844 L 124.453125 139.214844 C 124.816406 139.214844 125.140625 139.078125 125.421875 138.808594 C 125.710938 138.535156 125.859375 138.21875 125.859375 137.855469 C 125.859375 137.511719 125.726562 137.203125 125.46875 136.933594 C 125.207031 136.671875 124.867188 136.542969 124.453125 136.542969 L 121.359375 136.542969 C 121.273438 136.542969 121.191406 136.488281 121.109375 136.386719 C 121.035156 136.28125 121 136.167969 121 136.042969 C 121 135.90625 121.035156 135.785156 121.109375 135.683594 C 121.179688 135.589844 121.265625 135.542969 121.359375 135.542969 Z M 121.8125 141.238281 C 121.914062 141.238281 122.015625 141.269531 122.109375 141.332031 C 122.210938 141.402344 122.265625 141.488281 122.265625 141.582031 C 122.265625 141.644531 122.21875 141.730469 122.125 141.847656 C 122.03125 141.972656 121.9375 142.148438 121.84375 142.378906 C 121.75 142.605469 121.703125 142.871094 121.703125 143.175781 C 121.703125 143.570312 121.773438 143.855469 121.921875 144.035156 C 122.066406 144.222656 122.25 144.316406 122.46875 144.316406 C 122.726562 144.316406 122.9375 144.210938 123.09375 144.003906 C 123.25 143.804688 123.363281 143.558594 123.4375 143.269531 C 123.519531 142.988281 123.609375 142.699219 123.703125 142.410156 C 123.804688 142.128906 123.96875 141.882812 124.1875 141.675781 C 124.414062 141.476562 124.710938 141.378906 125.078125 141.378906 C 125.535156 141.378906 125.929688 141.539062 126.265625 141.863281 C 126.597656 142.183594 126.765625 142.679688 126.765625 143.347656 C 126.765625 143.773438 126.695312 144.160156 126.5625 144.503906 C 126.425781 144.855469 126.273438 145.035156 126.109375 145.035156 C 126.015625 145.035156 125.90625 144.996094 125.78125 144.925781 C 125.664062 144.851562 125.609375 144.757812 125.609375 144.644531 C 125.609375 144.613281 125.664062 144.457031 125.78125 144.175781 C 125.894531 143.902344 125.953125 143.632812 125.953125 143.363281 C 125.953125 142.996094 125.863281 142.722656 125.6875 142.535156 C 125.519531 142.355469 125.328125 142.269531 125.109375 142.269531 C 124.890625 142.269531 124.710938 142.367188 124.578125 142.566406 C 124.453125 142.761719 124.351562 143.007812 124.28125 143.300781 C 124.21875 143.601562 124.132812 143.894531 124.03125 144.175781 C 123.925781 144.464844 123.742188 144.710938 123.484375 144.910156 C 123.234375 145.105469 122.910156 145.207031 122.515625 145.207031 C 122.015625 145.207031 121.617188 145.027344 121.328125 144.675781 C 121.046875 144.332031 120.90625 143.839844 120.90625 143.207031 C 120.90625 142.664062 121 142.199219 121.1875 141.816406 C 121.382812 141.429688 121.59375 141.238281 121.8125 141.238281 Z M 128.421875 146.347656 C 128.535156 146.222656 128.664062 146.160156 128.8125 146.160156 C 128.96875 146.160156 129.101562 146.214844 129.21875 146.332031 C 129.332031 146.457031 129.390625 146.605469 129.390625 146.785156 C 129.390625 146.949219 129.332031 147.089844 129.21875 147.207031 C 129.101562 147.332031 128.96875 147.394531 128.8125 147.394531 C 128.664062 147.394531 128.535156 147.332031 128.421875 147.207031 C 128.304688 147.089844 128.25 146.949219 128.25 146.785156 C 128.25 146.617188 128.304688 146.472656 128.421875 146.347656 Z M 121.359375 146.285156 L 126.34375 146.285156 C 126.445312 146.285156 126.53125 146.332031 126.59375 146.425781 C 126.65625 146.527344 126.6875 146.648438 126.6875 146.785156 C 126.6875 146.929688 126.65625 147.050781 126.59375 147.144531 C 126.53125 147.238281 126.445312 147.285156 126.34375 147.285156 L 121.359375 147.285156 C 121.273438 147.285156 121.191406 147.230469 121.109375 147.128906 C 121.035156 147.035156 121 146.917969 121 146.785156 C 121 146.648438 121.035156 146.527344 121.109375 146.425781 C 121.179688 146.332031 121.265625 146.285156 121.359375 146.285156 Z M 122.8125 148.679688 L 128.984375 148.679688 C 129.085938 148.679688 129.171875 148.730469 129.234375 148.835938 C 129.304688 148.9375 129.34375 149.046875 129.34375 149.164062 C 129.34375 149.296875 129.304688 149.417969 129.234375 149.523438 C 129.171875 149.625 129.085938 149.679688 128.984375 149.679688 L 126.6875 149.679688 L 126.6875 151.179688 C 126.6875 151.273438 126.644531 151.34375 126.5625 151.398438 C 126.488281 151.449219 126.398438 151.476562 126.296875 151.476562 C 126.191406 151.476562 126.097656 151.449219 126.015625 151.398438 C 125.941406 151.34375 125.90625 151.273438 125.90625 151.179688 L 125.90625 149.679688 L 122.8125 149.679688 C 122.46875 149.679688 122.222656 149.75 122.078125 149.898438 C 121.941406 150.042969 121.875 150.296875 121.875 150.664062 L 121.875 151.039062 C 121.875 151.171875 121.832031 151.277344 121.75 151.351562 C 121.664062 151.433594 121.5625 151.476562 121.4375 151.476562 C 121.320312 151.476562 121.21875 151.433594 121.125 151.351562 C 121.039062 151.265625 121 151.164062 121 151.039062 L 121 150.664062 C 121 149.339844 121.601562 148.679688 122.8125 148.679688 Z M 126.28125 151.855469 C 126.40625 151.855469 126.515625 151.925781 126.609375 152.074219 C 126.710938 152.21875 126.765625 152.363281 126.765625 152.511719 C 126.765625 152.675781 126.695312 152.78125 126.5625 152.824219 L 122.375 154.417969 L 126.5625 155.839844 C 126.695312 155.902344 126.765625 156.003906 126.765625 156.152344 C 126.765625 156.285156 126.710938 156.425781 126.609375 156.574219 C 126.515625 156.730469 126.398438 156.808594 126.265625 156.808594 C 126.222656 156.808594 126.179688 156.792969 126.140625 156.761719 L 121.265625 154.949219 L 120.65625 154.714844 C 120.554688 154.671875 120.367188 154.589844 120.09375 154.464844 C 119.824219 154.347656 119.625 154.25 119.5 154.167969 C 119.375 154.09375 119.21875 153.984375 119.03125 153.839844 C 118.835938 153.691406 118.695312 153.550781 118.609375 153.417969 C 118.515625 153.28125 118.433594 153.121094 118.359375 152.933594 C 118.289062 152.746094 118.25 152.546875 118.25 152.339844 C 118.25 152.027344 118.402344 151.871094 118.703125 151.871094 C 118.984375 151.871094 119.125 151.964844 119.125 152.152344 C 119.125 152.515625 119.328125 152.863281 119.734375 153.199219 C 120.140625 153.542969 120.65625 153.777344 121.28125 153.902344 L 126.140625 151.902344 C 126.191406 151.871094 126.238281 151.855469 126.28125 151.855469 Z M 127.90625 159.464844 C 128.070312 159.464844 128.207031 159.535156 128.3125 159.683594 L 129.625 160.777344 C 129.726562 160.878906 129.78125 160.984375 129.78125 161.089844 C 129.78125 161.203125 129.75 161.308594 129.6875 161.402344 C 129.625 161.496094 129.535156 161.542969 129.421875 161.542969 L 121.359375 161.542969 C 121.242188 161.542969 121.15625 161.488281 121.09375 161.386719 C 121.03125 161.292969 121 161.171875 121 161.027344 C 121 160.890625 121.03125 160.769531 121.09375 160.667969 C 121.15625 160.574219 121.242188 160.527344 121.359375 160.527344 L 128.265625 160.527344 L 127.609375 160.089844 C 127.523438 160.003906 127.484375 159.921875 127.484375 159.839844 C 127.484375 159.734375 127.523438 159.644531 127.609375 159.574219 C 127.691406 159.5 127.789062 159.464844 127.90625 159.464844 Z M 123.546875 162.988281 L 127.15625 162.988281 C 128.0625 162.988281 128.722656 163.226562 129.140625 163.707031 C 129.554688 164.183594 129.765625 164.820312 129.765625 165.613281 C 129.765625 166.414062 129.554688 167.039062 129.140625 167.488281 C 128.734375 167.933594 128.25 168.160156 127.6875 168.160156 C 127.382812 168.160156 127.234375 168.003906 127.234375 167.691406 C 127.234375 167.347656 127.367188 167.175781 127.640625 167.175781 C 128.003906 167.175781 128.296875 167.023438 128.515625 166.722656 C 128.742188 166.417969 128.859375 166.042969 128.859375 165.597656 C 128.859375 164.535156 128.289062 164.003906 127.15625 164.003906 L 125.46875 164.003906 C 125.96875 164.386719 126.21875 164.972656 126.21875 165.753906 C 126.21875 167.355469 125.410156 168.160156 123.796875 168.160156 L 123.546875 168.160156 C 122.640625 168.160156 121.972656 167.925781 121.546875 167.457031 C 121.128906 166.988281 120.921875 166.363281 120.921875 165.582031 C 120.921875 164.800781 121.128906 164.167969 121.546875 163.691406 C 121.972656 163.222656 122.640625 162.988281 123.546875 162.988281 Z M 123.5 164.003906 C 122.363281 164.003906 121.796875 164.527344 121.796875 165.582031 C 121.796875 166.632812 122.363281 167.160156 123.5 167.160156 L 123.75 167.160156 C 124.832031 167.160156 125.375 166.632812 125.375 165.582031 C 125.375 164.527344 124.867188 164.003906 123.859375 164.003906 Z M 122.375 171.46875 C 122.507812 171.46875 122.632812 171.515625 122.75 171.609375 C 122.875 171.703125 122.9375 171.800781 122.9375 171.90625 C 122.9375 171.96875 122.882812 172.054688 122.78125 172.171875 C 122.6875 172.285156 122.582031 172.398438 122.46875 172.515625 C 122.351562 172.628906 122.242188 172.8125 122.140625 173.0625 C 122.046875 173.3125 121.988281 173.59375 121.96875 173.90625 L 125.15625 173.90625 L 125.40625 173.25 C 125.457031 173.101562 125.550781 172.910156 125.6875 172.671875 C 125.820312 172.429688 125.957031 172.253906 126.09375 172.140625 C 126.238281 172.023438 126.429688 171.921875 126.671875 171.828125 C 126.910156 171.734375 127.175781 171.6875 127.46875 171.6875 C 127.832031 171.6875 128.148438 171.75 128.421875 171.875 C 128.703125 172 128.921875 172.171875 129.078125 172.390625 C 129.234375 172.617188 129.351562 172.851562 129.4375 173.09375 C 129.519531 173.34375 129.578125 173.613281 129.609375 173.90625 L 129.96875 173.90625 C 130.03125 173.90625 130.085938 173.929688 130.140625 173.984375 C 130.191406 174.046875 130.21875 174.125 130.21875 174.21875 C 130.21875 174.289062 130.191406 174.359375 130.140625 174.421875 C 130.085938 174.492188 130.03125 174.53125 129.96875 174.53125 L 129.625 174.53125 C 129.601562 175.007812 129.519531 175.441406 129.375 175.828125 C 129.238281 176.222656 129.0625 176.421875 128.84375 176.421875 C 128.726562 176.421875 128.601562 176.378906 128.46875 176.296875 C 128.34375 176.222656 128.28125 176.117188 128.28125 175.984375 C 128.28125 175.953125 128.347656 175.785156 128.484375 175.484375 C 128.628906 175.191406 128.710938 174.875 128.734375 174.53125 L 125.984375 174.53125 C 125.878906 174.84375 125.769531 175.097656 125.65625 175.296875 C 125.550781 175.503906 125.40625 175.722656 125.21875 175.953125 C 125.03125 176.179688 124.789062 176.351562 124.5 176.46875 C 124.207031 176.582031 123.863281 176.640625 123.46875 176.640625 C 122.769531 176.640625 122.210938 176.445312 121.796875 176.0625 C 121.390625 175.6875 121.144531 175.175781 121.0625 174.53125 L 120.625 174.53125 C 120.5625 174.53125 120.507812 174.492188 120.453125 174.421875 C 120.402344 174.359375 120.375 174.289062 120.375 174.21875 C 120.375 174.125 120.402344 174.046875 120.453125 173.984375 C 120.507812 173.929688 120.5625 173.90625 120.625 173.90625 L 121.03125 173.90625 C 121.03125 173.21875 121.179688 172.640625 121.484375 172.171875 C 121.796875 171.703125 122.09375 171.46875 122.375 171.46875 Z M 127.5625 172.640625 C 127.1875 172.640625 126.90625 172.75 126.71875 172.96875 C 126.53125 173.1875 126.359375 173.515625 126.203125 173.953125 L 128.71875 173.953125 C 128.625 173.078125 128.238281 172.640625 127.5625 172.640625 Z M 122 174.484375 C 122.125 175.273438 122.582031 175.671875 123.375 175.671875 C 123.789062 175.671875 124.113281 175.566406 124.34375 175.359375 C 124.582031 175.160156 124.78125 174.867188 124.9375 174.484375 Z M 129.921875 179.9375 C 130.003906 179.9375 130.070312 179.976562 130.125 180.0625 C 130.1875 180.15625 130.21875 180.253906 130.21875 180.359375 C 130.21875 180.472656 130.1875 180.578125 130.125 180.671875 C 130.070312 180.765625 130.003906 180.8125 129.921875 180.8125 L 128.171875 180.6875 C 128.085938 180.6875 128.015625 180.660156 127.953125 180.609375 C 127.890625 180.554688 127.859375 180.476562 127.859375 180.375 C 127.859375 180.164062 127.960938 180.0625 128.171875 180.0625 Z M 129.921875 181.5625 C 130.003906 181.5625 130.070312 181.601562 130.125 181.6875 C 130.1875 181.78125 130.21875 181.882812 130.21875 182 C 130.21875 182.113281 130.1875 182.210938 130.125 182.296875 C 130.070312 182.390625 130.003906 182.4375 129.921875 182.4375 L 128.171875 182.328125 C 128.085938 182.328125 128.015625 182.296875 127.953125 182.234375 C 127.890625 182.179688 127.859375 182.101562 127.859375 182 C 127.859375 181.789062 127.960938 181.6875 128.171875 181.6875 Z M 119.875 183.132812 C 120.460938 183.132812 120.898438 183.453125 121.1875 184.101562 C 121.332031 183.695312 121.597656 183.492188 121.984375 183.492188 C 122.347656 183.492188 122.644531 183.6875 122.875 184.085938 C 123.238281 183.636719 123.742188 183.414062 124.390625 183.414062 L 124.78125 183.414062 C 125.363281 183.414062 125.835938 183.605469 126.203125 183.992188 C 126.578125 184.386719 126.765625 184.902344 126.765625 185.539062 C 126.765625 186.078125 126.609375 186.546875 126.296875 186.945312 C 126.816406 187.183594 127.078125 187.453125 127.078125 187.757812 C 127.078125 187.890625 127.035156 187.996094 126.953125 188.070312 C 126.878906 188.152344 126.796875 188.195312 126.703125 188.195312 C 126.578125 188.195312 126.484375 188.125 126.421875 187.992188 C 126.347656 187.71875 126.179688 187.5 125.921875 187.335938 C 125.617188 187.585938 125.238281 187.710938 124.78125 187.710938 L 124.390625 187.710938 C 123.804688 187.710938 123.328125 187.507812 122.953125 187.101562 C 122.578125 186.695312 122.390625 186.171875 122.390625 185.539062 C 122.390625 185.214844 122.453125 184.917969 122.578125 184.648438 C 122.453125 184.449219 122.3125 184.351562 122.15625 184.351562 C 122.007812 184.351562 121.894531 184.445312 121.8125 184.632812 C 121.726562 184.820312 121.675781 185.046875 121.65625 185.320312 C 121.632812 185.589844 121.59375 185.882812 121.53125 186.195312 C 121.476562 186.515625 121.40625 186.8125 121.3125 187.085938 C 121.226562 187.355469 121.078125 187.585938 120.859375 187.773438 C 120.632812 187.960938 120.34375 188.054688 120 188.054688 C 119.4375 188.054688 119.007812 187.824219 118.703125 187.367188 C 118.402344 186.917969 118.25 186.335938 118.25 185.617188 C 118.25 184.898438 118.398438 184.304688 118.6875 183.835938 C 118.980469 183.367188 119.375 183.132812 119.875 183.132812 Z M 119.984375 184.085938 C 119.671875 184.085938 119.421875 184.21875 119.234375 184.492188 C 119.046875 184.773438 118.953125 185.140625 118.953125 185.601562 C 118.953125 186.046875 119.046875 186.40625 119.234375 186.679688 C 119.421875 186.949219 119.671875 187.085938 119.984375 187.085938 C 120.109375 187.085938 120.21875 187.058594 120.3125 187.007812 C 120.40625 186.964844 120.492188 186.898438 120.5625 186.804688 C 120.625 186.710938 120.679688 186.609375 120.71875 186.507812 C 120.761719 186.414062 120.796875 186.289062 120.828125 186.132812 C 120.859375 185.984375 120.882812 185.859375 120.890625 185.757812 C 120.902344 185.664062 120.917969 185.53125 120.9375 185.367188 C 120.949219 185.199219 120.960938 185.085938 120.96875 185.023438 C 120.761719 184.398438 120.433594 184.085938 119.984375 184.085938 Z M 124.390625 184.382812 C 124.003906 184.382812 123.6875 184.484375 123.4375 184.695312 C 123.195312 184.902344 123.078125 185.195312 123.078125 185.570312 C 123.078125 185.921875 123.195312 186.203125 123.4375 186.414062 C 123.6875 186.632812 124.003906 186.742188 124.390625 186.742188 L 124.78125 186.742188 C 125.144531 186.742188 125.453125 186.632812 125.703125 186.414062 C 125.953125 186.203125 126.078125 185.917969 126.078125 185.554688 C 126.078125 185.1875 125.953125 184.902344 125.703125 184.695312 C 125.460938 184.484375 125.15625 184.382812 124.78125 184.382812 Z M 121.359375 189.050781 L 126.34375 189.050781 C 126.445312 189.050781 126.53125 189.097656 126.59375 189.191406 C 126.65625 189.285156 126.6875 189.402344 126.6875 189.550781 C 126.6875 189.675781 126.65625 189.777344 126.59375 189.863281 C 126.53125 189.957031 126.445312 190.003906 126.34375 190.003906 L 125.78125 190.003906 C 126.050781 190.148438 126.28125 190.363281 126.46875 190.644531 C 126.664062 190.925781 126.765625 191.238281 126.765625 191.582031 L 126.765625 191.988281 C 126.765625 192.089844 126.71875 192.179688 126.625 192.253906 C 126.53125 192.324219 126.421875 192.363281 126.296875 192.363281 C 126.179688 192.363281 126.078125 192.324219 125.984375 192.253906 C 125.898438 192.179688 125.859375 192.089844 125.859375 191.988281 L 125.859375 191.582031 C 125.859375 191.164062 125.691406 190.804688 125.359375 190.503906 C 125.035156 190.199219 124.613281 190.050781 124.09375 190.050781 L 121.359375 190.050781 C 121.273438 190.050781 121.191406 189.996094 121.109375 189.894531 C 121.035156 189.800781 121 189.683594 121 189.550781 C 121 189.414062 121.035156 189.292969 121.109375 189.191406 C 121.179688 189.097656 121.265625 189.050781 121.359375 189.050781 Z M 123.234375 192.960938 L 124.484375 192.960938 C 125.109375 192.960938 125.644531 193.195312 126.09375 193.664062 C 126.539062 194.132812 126.765625 194.695312 126.765625 195.351562 C 126.765625 195.976562 126.550781 196.515625 126.125 196.976562 C 125.707031 197.433594 125.179688 197.664062 124.546875 197.664062 C 124.316406 197.664062 124.128906 197.632812 123.984375 197.570312 C 123.847656 197.515625 123.75 197.433594 123.6875 197.320312 C 123.632812 197.203125 123.597656 197.09375 123.578125 196.992188 C 123.566406 196.898438 123.5625 196.761719 123.5625 196.585938 L 123.5625 193.960938 L 123.203125 193.960938 C 122.753906 193.960938 122.398438 194.117188 122.140625 194.429688 C 121.878906 194.75 121.75 195.164062 121.75 195.664062 C 121.75 195.933594 121.785156 196.164062 121.859375 196.351562 C 121.941406 196.546875 122.019531 196.703125 122.09375 196.820312 C 122.175781 196.945312 122.21875 197.042969 122.21875 197.117188 C 122.21875 197.230469 122.164062 197.324219 122.0625 197.398438 C 121.957031 197.480469 121.851562 197.523438 121.75 197.523438 C 121.570312 197.523438 121.382812 197.339844 121.1875 196.976562 C 121 196.609375 120.90625 196.164062 120.90625 195.632812 C 120.90625 194.851562 121.117188 194.210938 121.546875 193.710938 C 121.972656 193.210938 122.535156 192.960938 123.234375 192.960938 Z M 124.234375 193.960938 L 124.234375 196.179688 C 124.234375 196.386719 124.257812 196.527344 124.3125 196.601562 C 124.363281 196.671875 124.460938 196.710938 124.609375 196.710938 C 124.972656 196.710938 125.289062 196.574219 125.5625 196.304688 C 125.832031 196.042969 125.96875 195.726562 125.96875 195.351562 C 125.96875 194.964844 125.84375 194.636719 125.59375 194.367188 C 125.34375 194.09375 125.03125 193.960938 124.65625 193.960938 Z M 126.28125 198.199219 C 126.40625 198.199219 126.515625 198.269531 126.609375 198.417969 C 126.710938 198.5625 126.765625 198.707031 126.765625 198.855469 C 126.765625 199.019531 126.695312 199.125 126.5625 199.167969 L 122.375 200.761719 L 126.5625 202.183594 C 126.695312 202.246094 126.765625 202.347656 126.765625 202.496094 C 126.765625 202.628906 126.710938 202.769531 126.609375 202.917969 C 126.515625 203.074219 126.398438 203.152344 126.265625 203.152344 C 126.222656 203.152344 126.179688 203.136719 126.140625 203.105469 L 121.265625 201.292969 L 120.65625 201.058594 C 120.554688 201.015625 120.367188 200.933594 120.09375 200.808594 C 119.824219 200.691406 119.625 200.59375 119.5 200.511719 C 119.375 200.4375 119.21875 200.328125 119.03125 200.183594 C 118.835938 200.035156 118.695312 199.894531 118.609375 199.761719 C 118.515625 199.625 118.433594 199.464844 118.359375 199.277344 C 118.289062 199.089844 118.25 198.890625 118.25 198.683594 C 118.25 198.371094 118.402344 198.214844 118.703125 198.214844 C 118.984375 198.214844 119.125 198.308594 119.125 198.496094 C 119.125 198.859375 119.328125 199.207031 119.734375 199.542969 C 120.140625 199.886719 120.65625 200.121094 121.28125 200.246094 L 126.140625 198.246094 C 126.191406 198.214844 126.238281 198.199219 126.28125 198.199219 Z M 121.359375 206.421875 L 129.765625 206.421875 C 129.867188 206.421875 129.953125 206.46875 130.015625 206.5625 C 130.085938 206.65625 130.125 206.769531 130.125 206.90625 C 130.125 207.050781 130.085938 207.171875 130.015625 207.265625 C 129.953125 207.367188 129.867188 207.421875 129.765625 207.421875 L 125.84375 207.421875 C 126.101562 207.566406 126.320312 207.773438 126.5 208.046875 C 126.675781 208.316406 126.765625 208.628906 126.765625 208.984375 C 126.765625 209.566406 126.535156 210.070312 126.078125 210.5 C 125.628906 210.925781 125.085938 211.140625 124.453125 211.140625 L 123.234375 211.140625 C 122.617188 211.140625 122.078125 210.925781 121.609375 210.5 C 121.140625 210.070312 120.90625 209.582031 120.90625 209.03125 C 120.90625 208.664062 120.996094 208.332031 121.171875 208.03125 C 121.359375 207.726562 121.582031 207.507812 121.84375 207.375 L 121.359375 207.375 C 121.265625 207.375 121.179688 207.328125 121.109375 207.234375 C 121.035156 207.140625 121 207.035156 121 206.921875 C 121 206.785156 121.035156 206.664062 121.109375 206.5625 C 121.179688 206.46875 121.265625 206.421875 121.359375 206.421875 Z M 122.90625 207.421875 C 122.707031 207.421875 122.472656 207.5625 122.203125 207.84375 C 121.929688 208.125 121.796875 208.4375 121.796875 208.78125 C 121.796875 209.144531 121.941406 209.460938 122.234375 209.734375 C 122.535156 210.003906 122.867188 210.140625 123.234375 210.140625 L 124.453125 210.140625 C 124.816406 210.140625 125.140625 210.003906 125.421875 209.734375 C 125.710938 209.460938 125.859375 209.144531 125.859375 208.78125 C 125.859375 208.414062 125.726562 208.097656 125.46875 207.828125 C 125.207031 207.554688 124.867188 207.421875 124.453125 207.421875 Z M 121.359375 212.441406 L 129.765625 212.441406 C 129.867188 212.441406 129.953125 212.488281 130.015625 212.582031 C 130.085938 212.675781 130.125 212.792969 130.125 212.941406 C 130.125 213.085938 130.085938 213.207031 130.015625 213.300781 C 129.953125 213.394531 129.867188 213.441406 129.765625 213.441406 L 121.359375 213.441406 C 121.273438 213.441406 121.191406 213.386719 121.109375 213.285156 C 121.035156 213.191406 121 213.074219 121 212.941406 C 121 212.804688 121.035156 212.683594 121.109375 212.582031 C 121.179688 212.488281 121.265625 212.441406 121.359375 212.441406 Z M 122.5 214.601562 C 123.125 214.601562 123.554688 214.839844 123.796875 215.320312 C 124.046875 215.796875 124.171875 216.492188 124.171875 217.398438 L 124.171875 217.976562 L 124.421875 217.976562 C 124.816406 217.976562 125.160156 217.867188 125.453125 217.648438 C 125.753906 217.429688 125.90625 217.101562 125.90625 216.664062 C 125.90625 216.320312 125.847656 216.015625 125.734375 215.757812 C 125.617188 215.507812 125.5625 215.371094 125.5625 215.351562 C 125.5625 215.234375 125.613281 215.140625 125.71875 215.070312 C 125.832031 215.007812 125.945312 214.976562 126.0625 214.976562 C 126.25 214.976562 126.410156 215.15625 126.546875 215.523438 C 126.691406 215.886719 126.765625 216.273438 126.765625 216.679688 C 126.765625 217.460938 126.539062 218.039062 126.09375 218.414062 C 125.644531 218.789062 125.09375 218.976562 124.4375 218.976562 L 121.359375 218.976562 C 121.253906 218.976562 121.164062 218.929688 121.09375 218.835938 C 121.03125 218.742188 121 218.621094 121 218.476562 C 121 218.351562 121.03125 218.242188 121.09375 218.148438 C 121.164062 218.0625 121.253906 218.023438 121.359375 218.023438 L 121.84375 218.023438 C 121.21875 217.480469 120.90625 216.875 120.90625 216.210938 C 120.90625 215.730469 121.039062 215.339844 121.3125 215.039062 C 121.582031 214.746094 121.976562 214.601562 122.5 214.601562 Z M 122.609375 215.601562 C 122.304688 215.601562 122.078125 215.683594 121.921875 215.851562 C 121.773438 216.015625 121.703125 216.242188 121.703125 216.523438 C 121.703125 216.855469 121.835938 217.179688 122.109375 217.492188 C 122.378906 217.8125 122.65625 217.976562 122.9375 217.976562 L 123.5625 217.976562 L 123.5625 217.554688 C 123.5625 217.324219 123.550781 217.125 123.53125 216.960938 C 123.519531 216.792969 123.492188 216.617188 123.453125 216.429688 C 123.421875 216.25 123.367188 216.105469 123.296875 215.992188 C 123.234375 215.875 123.144531 215.78125 123.03125 215.710938 C 122.914062 215.636719 122.773438 215.601562 122.609375 215.601562 Z M 123.234375 220.132812 L 124.4375 220.132812 C 125.125 220.132812 125.679688 220.335938 126.109375 220.742188 C 126.546875 221.148438 126.765625 221.742188 126.765625 222.523438 C 126.765625 223.023438 126.675781 223.4375 126.5 223.773438 C 126.320312 224.117188 126.132812 224.289062 125.9375 224.289062 C 125.820312 224.289062 125.707031 224.246094 125.59375 224.164062 C 125.488281 224.078125 125.4375 223.980469 125.4375 223.867188 C 125.4375 223.835938 125.503906 223.695312 125.640625 223.445312 C 125.785156 223.203125 125.859375 222.921875 125.859375 222.601562 C 125.859375 222.121094 125.734375 221.757812 125.484375 221.507812 C 125.234375 221.257812 124.882812 221.132812 124.4375 221.132812 L 123.234375 221.132812 C 122.273438 221.132812 121.796875 221.621094 121.796875 222.601562 C 121.796875 222.945312 121.867188 223.234375 122.015625 223.476562 C 122.160156 223.726562 122.234375 223.871094 122.234375 223.914062 C 122.234375 224.039062 122.179688 224.140625 122.078125 224.226562 C 121.972656 224.320312 121.863281 224.367188 121.75 224.367188 C 121.550781 224.367188 121.359375 224.1875 121.171875 223.835938 C 120.996094 223.480469 120.90625 223.046875 120.90625 222.539062 C 120.90625 221.746094 121.117188 221.148438 121.546875 220.742188 C 121.972656 220.335938 122.535156 220.132812 123.234375 220.132812 Z M 121.359375 225.355469 L 129.765625 225.355469 C 129.867188 225.355469 129.953125 225.402344 130.015625 225.496094 C 130.085938 225.589844 130.125 225.703125 130.125 225.839844 C 130.125 225.984375 130.085938 226.105469 130.015625 226.199219 C 129.953125 226.300781 129.867188 226.355469 129.765625 226.355469 L 124.15625 226.355469 L 126.625 229.089844 C 126.6875 229.160156 126.71875 229.234375 126.71875 229.308594 C 126.71875 229.421875 126.664062 229.53125 126.5625 229.636719 C 126.46875 229.75 126.363281 229.808594 126.25 229.808594 C 126.144531 229.808594 126.0625 229.769531 126 229.699219 L 124.53125 228.027344 L 121.640625 230.027344 C 121.578125 230.066406 121.515625 230.089844 121.453125 230.089844 C 121.335938 230.089844 121.222656 230.027344 121.109375 229.902344 C 121.003906 229.785156 120.953125 229.660156 120.953125 229.527344 C 120.953125 229.421875 121.003906 229.332031 121.109375 229.261719 L 123.90625 227.355469 L 123.015625 226.355469 L 121.359375 226.355469 C 121.273438 226.355469 121.191406 226.300781 121.109375 226.199219 C 121.035156 226.105469 121 225.988281 121 225.855469 C 121 225.71875 121.035156 225.597656 121.109375 225.496094 C 121.179688 225.402344 121.265625 225.355469 121.359375 225.355469 Z M 129.921875 230.664062 C 130.003906 230.664062 130.070312 230.703125 130.125 230.789062 C 130.1875 230.882812 130.21875 230.980469 130.21875 231.085938 C 130.21875 231.199219 130.1875 231.304688 130.125 231.398438 C 130.070312 231.492188 130.003906 231.539062 129.921875 231.539062 L 128.171875 231.414062 C 128.085938 231.414062 128.015625 231.386719 127.953125 231.335938 C 127.890625 231.28125 127.859375 231.203125 127.859375 231.101562 C 127.859375 230.890625 127.960938 230.789062 128.171875 230.789062 Z M 129.921875 232.289062 C 130.003906 232.289062 130.070312 232.328125 130.125 232.414062 C 130.1875 232.507812 130.21875 232.609375 130.21875 232.726562 C 130.21875 232.839844 130.1875 232.9375 130.125 233.023438 C 130.070312 233.117188 130.003906 233.164062 129.921875 233.164062 L 128.171875 233.054688 C 128.085938 233.054688 128.015625 233.023438 127.953125 232.960938 C 127.890625 232.90625 127.859375 232.828125 127.859375 232.726562 C 127.859375 232.515625 127.960938 232.414062 128.171875 232.414062 Z M 121 233.589844 "/>
</g>
</svg>
