<?xml version="1.0" encoding="UTF-8"?>
<svg xmlns="http://www.w3.org/2000/svg" xmlns:xlink="http://www.w3.org/1999/xlink" width="384pt" height="288pt" viewBox="0 0 384 288" version="1.1">
<g id="surface65">
<path style=" stroke:none;fill-rule:nonzero;fill:rgb(100%,100%,100%);fill-opacity:1;" d="M 0 0 L 284 0 L 284 288 L 0 288 Z M 0 0 "/>
<path style=" stroke:none;fill-rule:nonzero;fill:rgb(0%,0%,0%);fill-opacity:1;" d="M 0.71875 -0.359375 L 0.71875 -8.765625 C 0.71875 -8.867188 0.765625 -8.953125 0.859375 -9.015625 C 0.953125 -9.085938 1.066406 -9.125 1.203125 -9.125 C 1.347656 -9.125 1.46875 -9.085938 1.5625 -9.015625 C 1.664062 -8.953125 1.71875 -8.867188 1.71875 -8.765625 L 1.71875 -4.84375 C 1.851562 -5.101562 2.050781 -5.320312 2.3125 -5.5 C 2.582031 -5.675781 2.90625 -5.765625 3.28125 -5.765625 C 3.84375 -5.765625 4.332031 -5.535156 4.75 -5.078125 C 5.175781 -4.628906 5.390625 -4.085938 5.390625 -3.453125 L 5.390625 -0.359375 C 5.390625 -0.242188 5.335938 -0.15625 5.234375 -0.09375 C 5.140625 -0.03125 5.023438 0 4.890625 0 C 4.753906 0 4.632812 -0.03125 4.53125 -0.09375 C 4.4375 -0.15625 4.390625 -0.242188 4.390625 -0.359375 L 4.390625 -3.453125 C 4.390625 -3.816406 4.253906 -4.140625 3.984375 -4.421875 C 3.710938 -4.710938 3.394531 -4.859375 3.03125 -4.859375 C 2.6875 -4.859375 2.378906 -4.726562 2.109375 -4.46875 C 1.847656 -4.207031 1.71875 -3.867188 1.71875 -3.453125 L 1.71875 -0.359375 C 1.71875 -0.273438 1.664062 -0.191406 1.5625 -0.109375 C 1.46875 -0.0351562 1.351562 0 1.21875 0 C 1.082031 0 0.960938 -0.0351562 0.859375 -0.109375 C 0.765625 -0.179688 0.71875 -0.265625 0.71875 -0.359375 Z M 6.53125 -2.234375 L 6.53125 -3.484375 C 6.53125 -4.109375 6.765625 -4.644531 7.234375 -5.09375 C 7.703125 -5.539062 8.265625 -5.765625 8.921875 -5.765625 C 9.546875 -5.765625 10.085938 -5.550781 10.546875 -5.125 C 11.003906 -4.707031 11.234375 -4.179688 11.234375 -3.546875 C 11.234375 -3.316406 11.203125 -3.128906 11.140625 -2.984375 C 11.085938 -2.847656 11.003906 -2.75 10.890625 -2.6875 C 10.773438 -2.632812 10.664062 -2.597656 10.5625 -2.578125 C 10.46875 -2.566406 10.332031 -2.5625 10.15625 -2.5625 L 7.53125 -2.5625 L 7.53125 -2.203125 C 7.53125 -1.753906 7.6875 -1.398438 8 -1.140625 C 8.320312 -0.878906 8.734375 -0.75 9.234375 -0.75 C 9.503906 -0.75 9.734375 -0.785156 9.921875 -0.859375 C 10.117188 -0.941406 10.273438 -1.019531 10.390625 -1.09375 C 10.515625 -1.175781 10.613281 -1.21875 10.6875 -1.21875 C 10.800781 -1.21875 10.894531 -1.164062 10.96875 -1.0625 C 11.050781 -0.957031 11.09375 -0.851562 11.09375 -0.75 C 11.09375 -0.570312 10.910156 -0.382812 10.546875 -0.1875 C 10.179688 0 9.734375 0.09375 9.203125 0.09375 C 8.421875 0.09375 7.78125 -0.117188 7.28125 -0.546875 C 6.78125 -0.972656 6.53125 -1.535156 6.53125 -2.234375 Z M 7.53125 -3.234375 L 9.75 -3.234375 C 9.957031 -3.234375 10.097656 -3.257812 10.171875 -3.3125 C 10.242188 -3.363281 10.28125 -3.460938 10.28125 -3.609375 C 10.28125 -3.972656 10.144531 -4.289062 9.875 -4.5625 C 9.613281 -4.832031 9.296875 -4.96875 8.921875 -4.96875 C 8.535156 -4.96875 8.207031 -4.84375 7.9375 -4.59375 C 7.664062 -4.34375 7.53125 -4.03125 7.53125 -3.65625 Z M 12.441406 -0.359375 L 12.441406 -8.765625 C 12.441406 -8.867188 12.488281 -8.953125 12.582031 -9.015625 C 12.675781 -9.085938 12.792969 -9.125 12.941406 -9.125 C 13.085938 -9.125 13.207031 -9.085938 13.300781 -9.015625 C 13.394531 -8.953125 13.441406 -8.867188 13.441406 -8.765625 L 13.441406 -0.359375 C 13.441406 -0.273438 13.386719 -0.191406 13.285156 -0.109375 C 13.191406 -0.0351562 13.074219 0 12.941406 0 C 12.804688 0 12.683594 -0.0351562 12.582031 -0.109375 C 12.488281 -0.179688 12.441406 -0.265625 12.441406 -0.359375 Z M 15.070312 -0.359375 L 15.070312 -8.765625 C 15.070312 -8.867188 15.117188 -8.953125 15.210938 -9.015625 C 15.304688 -9.085938 15.421875 -9.125 15.570312 -9.125 C 15.714844 -9.125 15.835938 -9.085938 15.929688 -9.015625 C 16.023438 -8.953125 16.070312 -8.867188 16.070312 -8.765625 L 16.070312 -0.359375 C 16.070312 -0.273438 16.015625 -0.191406 15.914062 -0.109375 C 15.820312 -0.0351562 15.703125 0 15.570312 0 C 15.433594 0 15.3125 -0.0351562 15.210938 -0.109375 C 15.117188 -0.179688 15.070312 -0.265625 15.070312 -0.359375 Z M 17.367188 -2.234375 L 17.367188 -3.453125 C 17.367188 -4.066406 17.601562 -4.601562 18.070312 -5.0625 C 18.539062 -5.53125 19.089844 -5.765625 19.726562 -5.765625 C 20.371094 -5.765625 20.929688 -5.535156 21.398438 -5.078125 C 21.875 -4.617188 22.117188 -4.078125 22.117188 -3.453125 L 22.117188 -2.234375 C 22.117188 -1.617188 21.875 -1.078125 21.398438 -0.609375 C 20.917969 -0.140625 20.359375 0.09375 19.726562 0.09375 C 19.101562 0.09375 18.546875 -0.140625 18.070312 -0.609375 C 17.601562 -1.078125 17.367188 -1.617188 17.367188 -2.234375 Z M 18.367188 -2.234375 C 18.367188 -1.859375 18.5 -1.523438 18.773438 -1.234375 C 19.042969 -0.941406 19.367188 -0.796875 19.742188 -0.796875 C 20.117188 -0.796875 20.4375 -0.941406 20.710938 -1.234375 C 20.980469 -1.535156 21.117188 -1.867188 21.117188 -2.234375 L 21.117188 -3.453125 C 21.117188 -3.816406 20.980469 -4.140625 20.710938 -4.421875 C 20.4375 -4.710938 20.117188 -4.859375 19.742188 -4.859375 C 19.367188 -4.859375 19.042969 -4.710938 18.773438 -4.421875 C 18.5 -4.140625 18.367188 -3.816406 18.367188 -3.453125 Z M 25.179688 -5.28125 C 25.179688 -5.394531 25.242188 -5.492188 25.367188 -5.578125 C 25.5 -5.671875 25.640625 -5.71875 25.789062 -5.71875 C 25.953125 -5.71875 26.0625 -5.648438 26.117188 -5.515625 L 27.570312 -1.484375 L 28.695312 -5.125 C 28.746094 -5.28125 28.871094 -5.359375 29.070312 -5.359375 C 29.265625 -5.359375 29.390625 -5.28125 29.445312 -5.125 L 30.554688 -1.453125 L 32.023438 -5.515625 C 32.054688 -5.648438 32.152344 -5.71875 32.320312 -5.71875 C 32.464844 -5.71875 32.605469 -5.671875 32.742188 -5.578125 C 32.875 -5.492188 32.945312 -5.394531 32.945312 -5.28125 C 32.945312 -5.21875 32.929688 -5.15625 32.898438 -5.09375 L 31.039062 -0.109375 C 30.976562 0.0351562 30.839844 0.109375 30.632812 0.109375 C 30.414062 0.109375 30.277344 0.0351562 30.226562 -0.109375 L 29.070312 -3.640625 L 27.929688 -0.140625 C 27.867188 0.0234375 27.71875 0.109375 27.492188 0.109375 C 27.28125 0.109375 27.148438 0.0234375 27.085938 -0.140625 L 25.226562 -5.09375 C 25.195312 -5.1875 25.179688 -5.25 25.179688 -5.28125 Z M 33.59375 -2.234375 L 33.59375 -3.453125 C 33.59375 -4.066406 33.828125 -4.601562 34.296875 -5.0625 C 34.765625 -5.53125 35.316406 -5.765625 35.953125 -5.765625 C 36.597656 -5.765625 37.15625 -5.535156 37.625 -5.078125 C 38.101562 -4.617188 38.34375 -4.078125 38.34375 -3.453125 L 38.34375 -2.234375 C 38.34375 -1.617188 38.101562 -1.078125 37.625 -0.609375 C 37.144531 -0.140625 36.585938 0.09375 35.953125 0.09375 C 35.328125 0.09375 34.773438 -0.140625 34.296875 -0.609375 C 33.828125 -1.078125 33.59375 -1.617188 33.59375 -2.234375 Z M 34.59375 -2.234375 C 34.59375 -1.859375 34.726562 -1.523438 35 -1.234375 C 35.269531 -0.941406 35.59375 -0.796875 35.96875 -0.796875 C 36.34375 -0.796875 36.664062 -0.941406 36.9375 -1.234375 C 37.207031 -1.535156 37.34375 -1.867188 37.34375 -2.234375 L 37.34375 -3.453125 C 37.34375 -3.816406 37.207031 -4.140625 36.9375 -4.421875 C 36.664062 -4.710938 36.34375 -4.859375 35.96875 -4.859375 C 35.59375 -4.859375 35.269531 -4.710938 35 -4.421875 C 34.726562 -4.140625 34.59375 -3.816406 34.59375 -3.453125 Z M 39.535156 -0.359375 L 39.535156 -5.34375 C 39.535156 -5.445312 39.582031 -5.53125 39.675781 -5.59375 C 39.769531 -5.65625 39.886719 -5.6875 40.035156 -5.6875 C 40.160156 -5.6875 40.261719 -5.65625 40.347656 -5.59375 C 40.441406 -5.53125 40.488281 -5.445312 40.488281 -5.34375 L 40.488281 -4.78125 C 40.632812 -5.050781 40.847656 -5.28125 41.128906 -5.46875 C 41.410156 -5.664062 41.722656 -5.765625 42.066406 -5.765625 L 42.472656 -5.765625 C 42.574219 -5.765625 42.664062 -5.71875 42.738281 -5.625 C 42.808594 -5.53125 42.847656 -5.421875 42.847656 -5.296875 C 42.847656 -5.179688 42.808594 -5.078125 42.738281 -4.984375 C 42.664062 -4.898438 42.574219 -4.859375 42.472656 -4.859375 L 42.066406 -4.859375 C 41.648438 -4.859375 41.289062 -4.691406 40.988281 -4.359375 C 40.683594 -4.035156 40.535156 -3.613281 40.535156 -3.09375 L 40.535156 -0.359375 C 40.535156 -0.273438 40.480469 -0.191406 40.378906 -0.109375 C 40.285156 -0.0351562 40.167969 0 40.035156 0 C 39.898438 0 39.777344 -0.0351562 39.675781 -0.109375 C 39.582031 -0.179688 39.535156 -0.265625 39.535156 -0.359375 Z M 43.773438 -0.359375 L 43.773438 -8.765625 C 43.773438 -8.867188 43.820312 -8.953125 43.914062 -9.015625 C 44.007812 -9.085938 44.125 -9.125 44.273438 -9.125 C 44.417969 -9.125 44.539062 -9.085938 44.632812 -9.015625 C 44.726562 -8.953125 44.773438 -8.867188 44.773438 -8.765625 L 44.773438 -0.359375 C 44.773438 -0.273438 44.71875 -0.191406 44.617188 -0.109375 C 44.523438 -0.0351562 44.40625 0 44.273438 0 C 44.136719 0 44.015625 -0.0351562 43.914062 -0.109375 C 43.820312 -0.179688 43.773438 -0.265625 43.773438 -0.359375 Z M 46.074219 -2.234375 L 46.074219 -3.453125 C 46.074219 -4.085938 46.285156 -4.628906 46.714844 -5.078125 C 47.140625 -5.535156 47.644531 -5.765625 48.230469 -5.765625 C 48.59375 -5.765625 48.910156 -5.675781 49.183594 -5.5 C 49.453125 -5.320312 49.660156 -5.101562 49.808594 -4.84375 L 49.808594 -8.765625 C 49.808594 -8.867188 49.855469 -8.953125 49.949219 -9.015625 C 50.042969 -9.085938 50.160156 -9.125 50.308594 -9.125 C 50.453125 -9.125 50.566406 -9.085938 50.652344 -9.015625 C 50.746094 -8.953125 50.792969 -8.867188 50.792969 -8.765625 L 50.792969 -0.359375 C 50.792969 -0.265625 50.746094 -0.179688 50.652344 -0.109375 C 50.558594 -0.0351562 50.441406 0 50.308594 0 C 50.183594 0 50.074219 -0.0351562 49.980469 -0.109375 C 49.894531 -0.179688 49.855469 -0.265625 49.855469 -0.359375 L 49.855469 -0.84375 C 49.71875 -0.582031 49.496094 -0.359375 49.183594 -0.171875 C 48.878906 0.00390625 48.550781 0.09375 48.199219 0.09375 C 47.636719 0.09375 47.140625 -0.140625 46.714844 -0.609375 C 46.285156 -1.078125 46.074219 -1.617188 46.074219 -2.234375 Z M 47.074219 -2.234375 C 47.074219 -1.867188 47.207031 -1.535156 47.480469 -1.234375 C 47.75 -0.941406 48.066406 -0.796875 48.433594 -0.796875 C 48.785156 -0.796875 49.105469 -0.929688 49.386719 -1.203125 C 49.667969 -1.472656 49.808594 -1.707031 49.808594 -1.90625 L 49.808594 -3.453125 C 49.808594 -3.867188 49.667969 -4.207031 49.386719 -4.46875 C 49.113281 -4.726562 48.800781 -4.859375 48.449219 -4.859375 C 48.074219 -4.859375 47.75 -4.710938 47.480469 -4.421875 C 47.207031 -4.140625 47.074219 -3.816406 47.074219 -3.453125 Z M 51.515625 0 "/>
</g>
</svg>
