<?xml version="1.0" encoding="UTF-8"?>
<svg xmlns="http://www.w3.org/2000/svg" xmlns:xlink="http://www.w3.org/1999/xlink" width="384pt" height="288pt" viewBox="0 0 384 288" version="1.1">
<g id="surface45">
<path style=" stroke:none;fill-rule:nonzero;fill:rgb(0%,0%,0%);fill-opacity:1;" d="M 0 0 L 288 0 L 288 288 L 0 288 Z M 0 0 "/>
<path style=" stroke:none;fill-rule:nonzero;fill:rgb(50.196078%,50.196078%,50.196078%);fill-opacity:1;" d="M 0 0 L 36 0 L 36 288 L 0 288 Z M 0 0 "/>
<path style=" stroke:none;fill-rule:nonzero;fill:rgb(0%,0%,0%);fill-opacity:1;" d="M 36 0 L 72 0 L 72 288 L 36 288 Z M 36 0 "/>
<path style=" stroke:none;fill-rule:nonzero;fill:rgb(50.196078%,50.196078%,50.196078%);fill-opacity:1;" d="M 72 0 L 108 0 L 108 288 L 72 288 Z M 72 0 "/>
<path style=" stroke:none;fill-rule:nonzero;fill:rgb(0%,0%,0%);fill-opacity:1;" d="M 108 0 L 144 0 L 144 288 L 108 288 Z M 108 0 "/>
<path style=" stroke:none;fill-rule:nonzero;fill:rgb(50.196078%,50.196078%,50.196078%);fill-opacity:1;" d="M 144 0 L 180 0 L 180 288 L 144 288 Z M 144 0 "/>
<path style=" stroke:none;fill-rule:nonzero;fill:rgb(0%,0%,0%);fill-opacity:1;" d="M 180 0 L 216 0 L 216 288 L 180 288 Z M 180 0 "/>
<path style=" stroke:none;fill-rule:nonzero;fill:rgb(50.196078%,50.196078%,50.196078%);fill-opacity:1;" d="M 216 0 L 252 0 L 252 288 L 216 288 Z M 216 0 "/>
<path style=" stroke:none;fill-rule:nonzero;fill:rgb(0%,0%,0%);fill-opacity:1;" d="M 252 0 L 288 0 L 288 288 L 252 288 Z M 252 0 "/>
<path style=" stroke:none;fill-rule:nonzero;fill:rgb(0%,0%,0%);fill-opacity:1;" d="M 0.59375 1.203125 L 14.625 1.203125 C 14.789062 1.203125 14.925781 1.273438 15.03125 1.421875 C 15.144531 1.578125 15.203125 1.773438 15.203125 2.015625 C 15.203125 2.253906 15.144531 2.453125 15.03125 2.609375 C 14.925781 2.773438 14.789062 2.859375 14.625 2.859375 L 8.078125 2.859375 C 8.503906 3.085938 8.863281 3.425781 9.15625 3.875 C 9.445312 4.320312 9.59375 4.847656 9.59375 5.453125 C 9.59375 6.398438 9.21875 7.222656 8.46875 7.921875 C 7.71875 8.628906 6.816406 8.984375 5.765625 8.984375 L 0.59375 8.984375 C 0.40625 8.984375 0.257812 8.898438 0.15625 8.734375 C 0.0507812 8.566406 0 8.367188 0 8.140625 C 0 7.921875 0.0507812 7.726562 0.15625 7.5625 C 0.257812 7.394531 0.40625 7.3125 0.59375 7.3125 L 5.765625 7.3125 C 6.359375 7.3125 6.894531 7.082031 7.375 6.625 C 7.851562 6.175781 8.09375 5.648438 8.09375 5.046875 C 8.09375 4.472656 7.875 3.960938 7.4375 3.515625 C 7.007812 3.078125 6.453125 2.859375 5.765625 2.859375 L 0.59375 2.859375 C 0.445312 2.859375 0.3125 2.773438 0.1875 2.609375 C 0.0625 2.441406 0 2.242188 0 2.015625 C 0 1.796875 0.0546875 1.601562 0.171875 1.4375 C 0.296875 1.28125 0.4375 1.203125 0.59375 1.203125 Z M 3.71875 10.890625 L 5.8125 10.890625 C 6.84375 10.890625 7.726562 11.28125 8.46875 12.0625 C 9.21875 12.84375 9.59375 13.78125 9.59375 14.875 C 9.59375 15.914062 9.242188 16.816406 8.546875 17.578125 C 7.847656 18.335938 6.972656 18.71875 5.921875 18.71875 C 5.535156 18.71875 5.222656 18.671875 4.984375 18.578125 C 4.753906 18.484375 4.585938 18.335938 4.484375 18.140625 C 4.390625 17.953125 4.328125 17.773438 4.296875 17.609375 C 4.273438 17.441406 4.265625 17.21875 4.265625 16.9375 L 4.265625 12.5625 L 3.65625 12.5625 C 2.925781 12.5625 2.335938 12.820312 1.890625 13.34375 C 1.453125 13.875 1.234375 14.554688 1.234375 15.390625 C 1.234375 15.835938 1.300781 16.222656 1.4375 16.546875 C 1.570312 16.867188 1.703125 17.128906 1.828125 17.328125 C 1.953125 17.535156 2.015625 17.695312 2.015625 17.8125 C 2.015625 18 1.929688 18.160156 1.765625 18.296875 C 1.597656 18.429688 1.429688 18.5 1.265625 18.5 C 0.953125 18.5 0.632812 18.191406 0.3125 17.578125 C 0 16.972656 -0.15625 16.226562 -0.15625 15.34375 C -0.15625 14.03125 0.195312 12.957031 0.90625 12.125 C 1.625 11.300781 2.5625 10.890625 3.71875 10.890625 Z M 5.375 12.5625 L 5.375 16.265625 C 5.375 16.609375 5.414062 16.835938 5.5 16.953125 C 5.59375 17.078125 5.765625 17.140625 6.015625 17.140625 C 6.617188 17.140625 7.144531 16.914062 7.59375 16.46875 C 8.050781 16.03125 8.28125 15.492188 8.28125 14.859375 C 8.28125 14.234375 8.066406 13.691406 7.640625 13.234375 C 7.222656 12.785156 6.707031 12.5625 6.09375 12.5625 Z M 0.59375 20.738281 L 14.625 20.738281 C 14.789062 20.738281 14.925781 20.808594 15.03125 20.957031 C 15.144531 21.113281 15.203125 21.308594 15.203125 21.550781 C 15.203125 21.800781 15.144531 22.003906 15.03125 22.160156 C 14.925781 22.316406 14.789062 22.394531 14.625 22.394531 L 0.59375 22.394531 C 0.445312 22.394531 0.3125 22.308594 0.1875 22.144531 C 0.0625 21.976562 0 21.777344 0 21.550781 C 0 21.332031 0.0546875 21.136719 0.171875 20.972656 C 0.296875 20.816406 0.4375 20.738281 0.59375 20.738281 Z M 0.59375 25.121094 L 14.625 25.121094 C 14.789062 25.121094 14.925781 25.191406 15.03125 25.339844 C 15.144531 25.496094 15.203125 25.691406 15.203125 25.933594 C 15.203125 26.183594 15.144531 26.386719 15.03125 26.542969 C 14.925781 26.699219 14.789062 26.777344 14.625 26.777344 L 0.59375 26.777344 C 0.445312 26.777344 0.3125 26.691406 0.1875 26.527344 C 0.0625 26.359375 0 26.160156 0 25.933594 C 0 25.714844 0.0546875 25.519531 0.171875 25.355469 C 0.296875 25.199219 0.4375 25.121094 0.59375 25.121094 Z M 3.71875 28.953125 L 5.765625 28.953125 C 6.785156 28.953125 7.675781 29.34375 8.4375 30.125 C 9.207031 30.90625 9.59375 31.828125 9.59375 32.890625 C 9.59375 33.960938 9.210938 34.890625 8.453125 35.671875 C 7.691406 36.460938 6.796875 36.859375 5.765625 36.859375 L 3.71875 36.859375 C 2.707031 36.859375 1.804688 36.460938 1.015625 35.671875 C 0.234375 34.878906 -0.15625 33.957031 -0.15625 32.90625 C -0.15625 31.851562 0.234375 30.929688 1.015625 30.140625 C 1.796875 29.347656 2.695312 28.953125 3.71875 28.953125 Z M 3.71875 30.625 C 3.09375 30.625 2.539062 30.847656 2.0625 31.296875 C 1.582031 31.753906 1.34375 32.289062 1.34375 32.90625 C 1.34375 33.53125 1.582031 34.066406 2.0625 34.515625 C 2.550781 34.972656 3.101562 35.203125 3.71875 35.203125 L 5.765625 35.203125 C 6.359375 35.203125 6.894531 34.972656 7.375 34.515625 C 7.851562 34.066406 8.09375 33.523438 8.09375 32.890625 C 8.09375 32.265625 7.851562 31.726562 7.375 31.28125 C 6.894531 30.84375 6.359375 30.625 5.765625 30.625 Z M 0 37.679688 "/>
<path style=" stroke:none;fill-rule:nonzero;fill:rgb(0%,0%,0%);fill-opacity:1;" d="M 0.59375 1.203125 L 14.625 1.203125 C 14.789062 1.203125 14.925781 1.273438 15.03125 1.421875 C 15.144531 1.578125 15.203125 1.773438 15.203125 2.015625 C 15.203125 2.253906 15.144531 2.453125 15.03125 2.609375 C 14.925781 2.773438 14.789062 2.859375 14.625 2.859375 L 8.078125 2.859375 C 8.503906 3.085938 8.863281 3.425781 9.15625 3.875 C 9.445312 4.320312 9.59375 4.847656 9.59375 5.453125 C 9.59375 6.398438 9.21875 7.222656 8.46875 7.921875 C 7.71875 8.628906 6.816406 8.984375 5.765625 8.984375 L 0.59375 8.984375 C 0.40625 8.984375 0.257812 8.898438 0.15625 8.734375 C 0.0507812 8.566406 0 8.367188 0 8.140625 C 0 7.921875 0.0507812 7.726562 0.15625 7.5625 C 0.257812 7.394531 0.40625 7.3125 0.59375 7.3125 L 5.765625 7.3125 C 6.359375 7.3125 6.894531 7.082031 7.375 6.625 C 7.851562 6.175781 8.09375 5.648438 8.09375 5.046875 C 8.09375 4.472656 7.875 3.960938 7.4375 3.515625 C 7.007812 3.078125 6.453125 2.859375 5.765625 2.859375 L 0.59375 2.859375 C 0.445312 2.859375 0.3125 2.773438 0.1875 2.609375 C 0.0625 2.441406 0 2.242188 0 2.015625 C 0 1.796875 0.0546875 1.601562 0.171875 1.4375 C 0.296875 1.28125 0.4375 1.203125 0.59375 1.203125 Z M 3.71875 10.890625 L 5.8125 10.890625 C 6.84375 10.890625 7.726562 11.28125 8.46875 12.0625 C 9.21875 12.84375 9.59375 13.78125 9.59375 14.875 C 9.59375 15.914062 9.242188 16.816406 8.546875 17.578125 C 7.847656 18.335938 6.972656 18.71875 5.921875 18.71875 C 5.535156 18.71875 5.222656 18.671875 4.984375 18.578125 C 4.753906 18.484375 4.585938 18.335938 4.484375 18.140625 C 4.390625 17.953125 4.328125 17.773438 4.296875 17.609375 C 4.273438 17.441406 4.265625 17.21875 4.265625 16.9375 L 4.265625 12.5625 L 3.65625 12.5625 C 2.925781 12.5625 2.335938 12.820312 1.890625 13.34375 C 1.453125 13.875 1.234375 14.554688 1.234375 15.390625 C 1.234375 15.835938 1.300781 16.222656 1.4375 16.546875 C 1.570312 16.867188 1.703125 17.128906 1.828125 17.328125 C 1.953125 17.535156 2.015625 17.695312 2.015625 17.8125 C 2.015625 18 1.929688 18.160156 1.765625 18.296875 C 1.597656 18.429688 1.429688 18.5 1.265625 18.5 C 0.953125 18.5 0.632812 18.191406 0.3125 17.578125 C 0 16.972656 -0.15625 16.226562 -0.15625 15.34375 C -0.15625 14.03125 0.195312 12.957031 0.90625 12.125 C 1.625 11.300781 2.5625 10.890625 3.71875 10.890625 Z M 5.375 12.5625 L 5.375 16.265625 C 5.375 16.609375 5.414062 16.835938 5.5 16.953125 C 5.59375 17.078125 5.765625 17.140625 6.015625 17.140625 C 6.617188 17.140625 7.144531 16.914062 7.59375 16.46875 C 8.050781 16.03125 8.28125 15.492188 8.28125 14.859375 C 8.28125 14.234375 8.066406 13.691406 7.640625 13.234375 C 7.222656 12.785156 6.707031 12.5625 6.09375 12.5625 Z M 0.59375 20.738281 L 14.625 20.738281 C 14.789062 20.738281 14.925781 20.808594 15.03125 20.957031 C 15.144531 21.113281 15.203125 21.308594 15.203125 21.550781 C 15.203125 21.800781 15.144531 22.003906 15.03125 22.160156 C 14.925781 22.316406 14.789062 22.394531 14.625 22.394531 L 0.59375 22.394531 C 0.445312 22.394531 0.3125 22.308594 0.1875 22.144531 C 0.0625 21.976562 0 21.777344 0 21.550781 C 0 21.332031 0.0546875 21.136719 0.171875 20.972656 C 0.296875 20.816406 0.4375 20.738281 0.59375 20.738281 Z M 0.59375 25.121094 L 14.625 25.121094 C 14.789062 25.121094 14.925781 25.191406 15.03125 25.339844 C 15.144531 25.496094 15.203125 25.691406 15.203125 25.933594 C 15.203125 26.183594 15.144531 26.386719 15.03125 26.542969 C 14.925781 26.699219 14.789062 26.777344 14.625 26.777344 L 0.59375 26.777344 C 0.445312 26.777344 0.3125 26.691406 0.1875 26.527344 C 0.0625 26.359375 0 26.160156 0 25.933594 C 0 25.714844 0.0546875 25.519531 0.171875 25.355469 C 0.296875 25.199219 0.4375 25.121094 0.59375 25.121094 Z M 3.71875 28.953125 L 5.765625 28.953125 C 6.785156 28.953125 7.675781 29.34375 8.4375 30.125 C 9.207031 30.90625 9.59375 31.828125 9.59375 32.890625 C 9.59375 33.960938 9.210938 34.890625 8.453125 35.671875 C 7.691406 36.460938 6.796875 36.859375 5.765625 36.859375 L 3.71875 36.859375 C 2.707031 36.859375 1.804688 36.460938 1.015625 35.671875 C 0.234375 34.878906 -0.15625 33.957031 -0.15625 32.90625 C -0.15625 31.851562 0.234375 30.929688 1.015625 30.140625 C 1.796875 29.347656 2.695312 28.953125 3.71875 28.953125 Z M 3.71875 30.625 C 3.09375 30.625 2.539062 30.847656 2.0625 31.296875 C 1.582031 31.753906 1.34375 32.289062 1.34375 32.90625 C 1.34375 33.53125 1.582031 34.066406 2.0625 34.515625 C 2.550781 34.972656 3.101562 35.203125 3.71875 35.203125 L 5.765625 35.203125 C 6.359375 35.203125 6.894531 34.972656 7.375 34.515625 C 7.851562 34.066406 8.09375 33.523438 8.09375 32.890625 C 8.09375 32.265625 7.851562 31.726562 7.375 31.28125 C 6.894531 30.84375 6.359375 30.625 5.765625 30.625 Z M 0 37.679688 "/>
</g>
</svg>
