<?xml version="1.0" encoding="UTF-8"?>
<svg xmlns="http://www.w3.org/2000/svg" xmlns:xlink="http://www.w3.org/1999/xlink" width="384pt" height="288pt" viewBox="0 0 384 288" version="1.1">
<g id="surface69">
<path style=" stroke:none;fill-rule:nonzero;fill:rgb(100%,100%,100%);fill-opacity:1;" d="M 0 0 L 284 0 L 284 288 L 0 288 Z M 0 0 "/>
<path style=" stroke:none;fill-rule:nonzero;fill:rgb(0%,0%,0%);fill-opacity:1;" d="M 10.71875 49.640625 L 10.71875 41.234375 C 10.71875 41.132812 10.765625 41.046875 10.859375 40.984375 C 10.953125 40.914062 11.066406 40.875 11.203125 40.875 C 11.347656 40.875 11.46875 40.914062 11.5625 40.984375 C 11.664062 41.046875 11.71875 41.132812 11.71875 41.234375 L 11.71875 45.15625 C 11.851562 44.898438 12.050781 44.679688 12.3125 44.5 C 12.582031 44.324219 12.90625 44.234375 13.28125 44.234375 C 13.84375 44.234375 14.332031 44.464844 14.75 44.921875 C 15.175781 45.371094 15.390625 45.914062 15.390625 46.546875 L 15.390625 49.640625 C 15.390625 49.757812 15.335938 49.84375 15.234375 49.90625 C 15.140625 49.96875 15.023438 50 14.890625 50 C 14.753906 50 14.632812 49.96875 14.53125 49.90625 C 14.4375 49.84375 14.390625 49.757812 14.390625 49.640625 L 14.390625 46.546875 C 14.390625 46.183594 14.253906 45.859375 13.984375 45.578125 C 13.710938 45.289062 13.394531 45.140625 13.03125 45.140625 C 12.6875 45.140625 12.378906 45.273438 12.109375 45.53125 C 11.847656 45.792969 11.71875 46.132812 11.71875 46.546875 L 11.71875 49.640625 C 11.71875 49.726562 11.664062 49.808594 11.5625 49.890625 C 11.46875 49.964844 11.351562 50 11.21875 50 C 11.082031 50 10.960938 49.964844 10.859375 49.890625 C 10.765625 49.820312 10.71875 49.734375 10.71875 49.640625 Z M 16.53125 47.765625 L 16.53125 46.515625 C 16.53125 45.890625 16.765625 45.355469 17.234375 44.90625 C 17.703125 44.460938 18.265625 44.234375 18.921875 44.234375 C 19.546875 44.234375 20.085938 44.449219 20.546875 44.875 C 21.003906 45.292969 21.234375 45.820312 21.234375 46.453125 C 21.234375 46.683594 21.203125 46.871094 21.140625 47.015625 C 21.085938 47.152344 21.003906 47.25 20.890625 47.3125 C 20.773438 47.367188 20.664062 47.402344 20.5625 47.421875 C 20.46875 47.433594 20.332031 47.4375 20.15625 47.4375 L 17.53125 47.4375 L 17.53125 47.796875 C 17.53125 48.246094 17.6875 48.601562 18 48.859375 C 18.320312 49.121094 18.734375 49.25 19.234375 49.25 C 19.503906 49.25 19.734375 49.214844 19.921875 49.140625 C 20.117188 49.058594 20.273438 48.980469 20.390625 48.90625 C 20.515625 48.824219 20.613281 48.78125 20.6875 48.78125 C 20.800781 48.78125 20.894531 48.835938 20.96875 48.9375 C 21.050781 49.042969 21.09375 49.148438 21.09375 49.25 C 21.09375 49.429688 20.910156 49.617188 20.546875 49.8125 C 20.179688 50 19.734375 50.09375 19.203125 50.09375 C 18.421875 50.09375 17.78125 49.882812 17.28125 49.453125 C 16.78125 49.027344 16.53125 48.464844 16.53125 47.765625 Z M 17.53125 46.765625 L 19.75 46.765625 C 19.957031 46.765625 20.097656 46.742188 20.171875 46.6875 C 20.242188 46.636719 20.28125 46.539062 20.28125 46.390625 C 20.28125 46.027344 20.144531 45.710938 19.875 45.4375 C 19.613281 45.167969 19.296875 45.03125 18.921875 45.03125 C 18.535156 45.03125 18.207031 45.15625 17.9375 45.40625 C 17.664062 45.65625 17.53125 45.96875 17.53125 46.34375 Z M 22.441406 49.640625 L 22.441406 41.234375 C 22.441406 41.132812 22.488281 41.046875 22.582031 40.984375 C 22.675781 40.914062 22.792969 40.875 22.941406 40.875 C 23.085938 40.875 23.207031 40.914062 23.300781 40.984375 C 23.394531 41.046875 23.441406 41.132812 23.441406 41.234375 L 23.441406 49.640625 C 23.441406 49.726562 23.386719 49.808594 23.285156 49.890625 C 23.191406 49.964844 23.074219 50 22.941406 50 C 22.804688 50 22.683594 49.964844 22.582031 49.890625 C 22.488281 49.820312 22.441406 49.734375 22.441406 49.640625 Z M 25.070312 49.640625 L 25.070312 41.234375 C 25.070312 41.132812 25.117188 41.046875 25.210938 40.984375 C 25.304688 40.914062 25.421875 40.875 25.570312 40.875 C 25.714844 40.875 25.835938 40.914062 25.929688 40.984375 C 26.023438 41.046875 26.070312 41.132812 26.070312 41.234375 L 26.070312 49.640625 C 26.070312 49.726562 26.015625 49.808594 25.914062 49.890625 C 25.820312 49.964844 25.703125 50 25.570312 50 C 25.433594 50 25.3125 49.964844 25.210938 49.890625 C 25.117188 49.820312 25.070312 49.734375 25.070312 49.640625 Z M 27.367188 47.765625 L 27.367188 46.546875 C 27.367188 45.933594 27.601562 45.398438 28.070312 44.9375 C 28.539062 44.46875 29.089844 44.234375 29.726562 44.234375 C 30.371094 44.234375 30.929688 44.464844 31.398438 44.921875 C 31.875 45.382812 32.117188 45.921875 32.117188 46.546875 L 32.117188 47.765625 C 32.117188 48.382812 31.875 48.921875 31.398438 49.390625 C 30.917969 49.859375 30.359375 50.09375 29.726562 50.09375 C 29.101562 50.09375 28.546875 49.859375 28.070312 49.390625 C 27.601562 48.921875 27.367188 48.382812 27.367188 47.765625 Z M 28.367188 47.765625 C 28.367188 48.140625 28.5 48.476562 28.773438 48.765625 C 29.042969 49.058594 29.367188 49.203125 29.742188 49.203125 C 30.117188 49.203125 30.4375 49.058594 30.710938 48.765625 C 30.980469 48.464844 31.117188 48.132812 31.117188 47.765625 L 31.117188 46.546875 C 31.117188 46.183594 30.980469 45.859375 30.710938 45.578125 C 30.4375 45.289062 30.117188 45.140625 29.742188 45.140625 C 29.367188 45.140625 29.042969 45.289062 28.773438 45.578125 C 28.5 45.859375 28.367188 46.183594 28.367188 46.546875 Z M 35.179688 44.71875 C 35.179688 44.605469 35.242188 44.507812 35.367188 44.421875 C 35.5 44.328125 35.640625 44.28125 35.789062 44.28125 C 35.953125 44.28125 36.0625 44.351562 36.117188 44.484375 L 37.570312 48.515625 L 38.695312 44.875 C 38.746094 44.71875 38.871094 44.640625 39.070312 44.640625 C 39.265625 44.640625 39.390625 44.71875 39.445312 44.875 L 40.554688 48.546875 L 42.023438 44.484375 C 42.054688 44.351562 42.152344 44.28125 42.320312 44.28125 C 42.464844 44.28125 42.605469 44.328125 42.742188 44.421875 C 42.875 44.507812 42.945312 44.605469 42.945312 44.71875 C 42.945312 44.78125 42.929688 44.84375 42.898438 44.90625 L 41.039062 49.890625 C 40.976562 50.035156 40.839844 50.109375 40.632812 50.109375 C 40.414062 50.109375 40.277344 50.035156 40.226562 49.890625 L 39.070312 46.359375 L 37.929688 49.859375 C 37.867188 50.023438 37.71875 50.109375 37.492188 50.109375 C 37.28125 50.109375 37.148438 50.023438 37.085938 49.859375 L 35.226562 44.90625 C 35.195312 44.8125 35.179688 44.75 35.179688 44.71875 Z M 43.59375 47.765625 L 43.59375 46.546875 C 43.59375 45.933594 43.828125 45.398438 44.296875 44.9375 C 44.765625 44.46875 45.316406 44.234375 45.953125 44.234375 C 46.597656 44.234375 47.15625 44.464844 47.625 44.921875 C 48.101562 45.382812 48.34375 45.921875 48.34375 46.546875 L 48.34375 47.765625 C 48.34375 48.382812 48.101562 48.921875 47.625 49.390625 C 47.144531 49.859375 46.585938 50.09375 45.953125 50.09375 C 45.328125 50.09375 44.773438 49.859375 44.296875 49.390625 C 43.828125 48.921875 43.59375 48.382812 43.59375 47.765625 Z M 44.59375 47.765625 C 44.59375 48.140625 44.726562 48.476562 45 48.765625 C 45.269531 49.058594 45.59375 49.203125 45.96875 49.203125 C 46.34375 49.203125 46.664062 49.058594 46.9375 48.765625 C 47.207031 48.464844 47.34375 48.132812 47.34375 47.765625 L 47.34375 46.546875 C 47.34375 46.183594 47.207031 45.859375 46.9375 45.578125 C 46.664062 45.289062 46.34375 45.140625 45.96875 45.140625 C 45.59375 45.140625 45.269531 45.289062 45 45.578125 C 44.726562 45.859375 44.59375 46.183594 44.59375 46.546875 Z M 49.535156 49.640625 L 49.535156 44.65625 C 49.535156 44.554688 49.582031 44.46875 49.675781 44.40625 C 49.769531 44.34375 49.886719 44.3125 50.035156 44.3125 C 50.160156 44.3125 50.261719 44.34375 50.347656 44.40625 C 50.441406 44.46875 50.488281 44.554688 50.488281 44.65625 L 50.488281 45.21875 C 50.632812 44.949219 50.847656 44.71875 51.128906 44.53125 C 51.410156 44.335938 51.722656 44.234375 52.066406 44.234375 L 52.472656 44.234375 C 52.574219 44.234375 52.664062 44.28125 52.738281 44.375 C 52.808594 44.46875 52.847656 44.578125 52.847656 44.703125 C 52.847656 44.820312 52.808594 44.921875 52.738281 45.015625 C 52.664062 45.101562 52.574219 45.140625 52.472656 45.140625 L 52.066406 45.140625 C 51.648438 45.140625 51.289062 45.308594 50.988281 45.640625 C 50.683594 45.964844 50.535156 46.386719 50.535156 46.90625 L 50.535156 49.640625 C 50.535156 49.726562 50.480469 49.808594 50.378906 49.890625 C 50.285156 49.964844 50.167969 50 50.035156 50 C 49.898438 50 49.777344 49.964844 49.675781 49.890625 C 49.582031 49.820312 49.535156 49.734375 49.535156 49.640625 Z M 53.773438 49.640625 L 53.773438 41.234375 C 53.773438 41.132812 53.820312 41.046875 53.914062 40.984375 C 54.007812 40.914062 54.125 40.875 54.273438 40.875 C 54.417969 40.875 54.539062 40.914062 54.632812 40.984375 C 54.726562 41.046875 54.773438 41.132812 54.773438 41.234375 L 54.773438 49.640625 C 54.773438 49.726562 54.71875 49.808594 54.617188 49.890625 C 54.523438 49.964844 54.40625 50 54.273438 50 C 54.136719 50 54.015625 49.964844 53.914062 49.890625 C 53.820312 49.820312 53.773438 49.734375 53.773438 49.640625 Z M 56.074219 47.765625 L 56.074219 46.546875 C 56.074219 45.914062 56.285156 45.371094 56.714844 44.921875 C 57.140625 44.464844 57.644531 44.234375 58.230469 44.234375 C 58.59375 44.234375 58.910156 44.324219 59.183594 44.5 C 59.453125 44.679688 59.660156 44.898438 59.808594 45.15625 L 59.808594 41.234375 C 59.808594 41.132812 59.855469 41.046875 59.949219 40.984375 C 60.042969 40.914062 60.160156 40.875 60.308594 40.875 C 60.453125 40.875 60.566406 40.914062 60.652344 40.984375 C 60.746094 41.046875 60.792969 41.132812 60.792969 41.234375 L 60.792969 49.640625 C 60.792969 49.734375 60.746094 49.820312 60.652344 49.890625 C 60.558594 49.964844 60.441406 50 60.308594 50 C 60.183594 50 60.074219 49.964844 59.980469 49.890625 C 59.894531 49.820312 59.855469 49.734375 59.855469 49.640625 L 59.855469 49.15625 C 59.71875 49.417969 59.496094 49.640625 59.183594 49.828125 C 58.878906 50.003906 58.550781 50.09375 58.199219 50.09375 C 57.636719 50.09375 57.140625 49.859375 56.714844 49.390625 C 56.285156 48.921875 56.074219 48.382812 56.074219 47.765625 Z M 57.074219 47.765625 C 57.074219 48.132812 57.207031 48.464844 57.480469 48.765625 C 57.75 49.058594 58.066406 49.203125 58.433594 49.203125 C 58.785156 49.203125 59.105469 49.070312 59.386719 48.796875 C 59.667969 48.527344 59.808594 48.292969 59.808594 48.09375 L 59.808594 46.546875 C 59.808594 46.132812 59.667969 45.792969 59.386719 45.53125 C 59.113281 45.273438 58.800781 45.140625 58.449219 45.140625 C 58.074219 45.140625 57.75 45.289062 57.480469 45.578125 C 57.207031 45.859375 57.074219 46.183594 57.074219 46.546875 Z M 61.515625 50 "/>
</g>
</svg>
