<?xml version="1.0" encoding="UTF-8"?>
<svg xmlns="http://www.w3.org/2000/svg" xmlns:xlink="http://www.w3.org/1999/xlink" width="384pt" height="288pt" viewBox="0 0 384 288" version="1.1">
<g id="surface141">
<path style=" stroke:none;fill-rule:nonzero;fill:rgb(0%,0%,0%);fill-opacity:1;" d="M 0 0 L 288 0 L 288 288 L 0 288 Z M 0 0 "/>
<path style=" stroke:none;fill-rule:nonzero;fill:rgb(50.196078%,50.196078%,50.196078%);fill-opacity:1;" d="M 0 0 L 36 0 L 36 288 L 0 288 Z M 0 0 "/>
<path style=" stroke:none;fill-rule:nonzero;fill:rgb(0%,0%,0%);fill-opacity:1;" d="M 36 0 L 72 0 L 72 288 L 36 288 Z M 36 0 "/>
<path style=" stroke:none;fill-rule:nonzero;fill:rgb(50.196078%,50.196078%,50.196078%);fill-opacity:1;" d="M 72 0 L 108 0 L 108 288 L 72 288 Z M 72 0 "/>
<path style=" stroke:none;fill-rule:nonzero;fill:rgb(0%,0%,0%);fill-opacity:1;" d="M 108 0 L 144 0 L 144 288 L 108 288 Z M 108 0 "/>
<path style=" stroke:none;fill-rule:nonzero;fill:rgb(50.196078%,50.196078%,50.196078%);fill-opacity:1;" d="M 144 0 L 180 0 L 180 288 L 144 288 Z M 144 0 "/>
<path style=" stroke:none;fill-rule:nonzero;fill:rgb(0%,0%,0%);fill-opacity:1;" d="M 180 0 L 216 0 L 216 288 L 180 288 Z M 180 0 "/>
<path style=" stroke:none;fill-rule:nonzero;fill:rgb(50.196078%,50.196078%,50.196078%);fill-opacity:1;" d="M 216 0 L 252 0 L 252 288 L 216 288 Z M 216 0 "/>
<path style=" stroke:none;fill-rule:nonzero;fill:rgb(0%,0%,0%);fill-opacity:1;" d="M 252 0 L 288 0 L 288 288 L 252 288 Z M 252 0 "/>
<path style=" stroke:none;fill-rule:nonzero;fill:rgb(0%,0%,0%);fill-opacity:1;" d="M 0.59375 1.203125 L 14.625 1.203125 C 14.789062 1.203125 14.925781 1.273438 15.03125 1.421875 C 15.144531 1.578125 15.203125 1.773438 15.203125 2.015625 C 15.203125 2.253906 15.144531 2.453125 15.03125 2.609375 C 14.925781 2.773438 14.789062 2.859375 14.625 2.859375 L 8.078125 2.859375 C 8.503906 3.085938 8.863281 3.425781 9.15625 3.875 C 9.445312 4.320312 9.59375 4.847656 9.59375 5.453125 C 9.59375 6.398438 9.21875 7.222656 8.46875 7.921875 C 7.71875 8.628906 6.816406 8.984375 5.765625 8.984375 L 0.59375 8.984375 C 0.40625 8.984375 0.257812 8.898438 0.15625 8.734375 C 0.0507812 8.566406 0 8.367188 0 8.140625 C 0 7.921875 0.0507812 7.726562 0.15625 7.5625 C 0.257812 7.394531 0.40625 7.3125 0.59375 7.3125 L 5.765625 7.3125 C 6.359375 7.3125 6.894531 7.082031 7.375 6.625 C 7.851562 6.175781 8.09375 5.648438 8.09375 5.046875 C 8.09375 4.472656 7.875 3.960938 7.4375 3.515625 C 7.007812 3.078125 6.453125 2.859375 5.765625 2.859375 L 0.59375 2.859375 C 0.445312 2.859375 0.3125 2.773438 0.1875 2.609375 C 0.0625 2.441406 0 2.242188 0 2.015625 C 0 1.796875 0.0546875 1.601562 0.171875 1.4375 C 0.296875 1.28125 0.4375 1.203125 0.59375 1.203125 Z M 3.71875 10.890625 L 5.8125 10.890625 C 6.84375 10.890625 7.726562 11.28125 8.46875 12.0625 C 9.21875 12.84375 9.59375 13.78125 9.59375 14.875 C 9.59375 15.914062 9.242188 16.816406 8.546875 17.578125 C 7.847656 18.335938 6.972656 18.71875 5.921875 18.71875 C 5.535156 18.71875 5.222656 18.671875 4.984375 18.578125 C 4.753906 18.484375 4.585938 18.335938 4.484375 18.140625 C 4.390625 17.953125 4.328125 17.773438 4.296875 17.609375 C 4.273438 17.441406 4.265625 17.21875 4.265625 16.9375 L 4.265625 12.5625 L 3.65625 12.5625 C 2.925781 12.5625 2.335938 12.820312 1.890625 13.34375 C 1.453125 13.875 1.234375 14.554688 1.234375 15.390625 C 1.234375 15.835938 1.300781 16.222656 1.4375 16.546875 C 1.570312 16.867188 1.703125 17.128906 1.828125 17.328125 C 1.953125 17.535156 2.015625 17.695312 2.015625 17.8125 C 2.015625 18 1.929688 18.160156 1.765625 18.296875 C 1.597656 18.429688 1.429688 18.5 1.265625 18.5 C 0.953125 18.5 0.632812 18.191406 0.3125 17.578125 C 0 16.972656 -0.15625 16.226562 -0.15625 15.34375 C -0.15625 14.03125 0.195312 12.957031 0.90625 12.125 C 1.625 11.300781 2.5625 10.890625 3.71875 10.890625 Z M 5.375 12.5625 L 5.375 16.265625 C 5.375 16.609375 5.414062 16.835938 5.5 16.953125 C 5.59375 17.078125 5.765625 17.140625 6.015625 17.140625 C 6.617188 17.140625 7.144531 16.914062 7.59375 16.46875 C 8.050781 16.03125 8.28125 15.492188 8.28125 14.859375 C 8.28125 14.234375 8.066406 13.691406 7.640625 13.234375 C 7.222656 12.785156 6.707031 12.5625 6.09375 12.5625 Z M 0.59375 20.738281 L 14.625 20.738281 C 14.789062 20.738281 14.925781 20.808594 15.03125 20.957031 C 15.144531 21.113281 15.203125 21.308594 15.203125 21.550781 C 15.203125 21.800781 15.144531 22.003906 15.03125 22.160156 C 14.925781 22.316406 14.789062 22.394531 14.625 22.394531 L 0.59375 22.394531 C 0.445312 22.394531 0.3125 22.308594 0.1875 22.144531 C 0.0625 21.976562 0 21.777344 0 21.550781 C 0 21.332031 0.0546875 21.136719 0.171875 20.972656 C 0.296875 20.816406 0.4375 20.738281 0.59375 20.738281 Z M 0.59375 25.121094 L 14.625 25.121094 C 14.789062 25.121094 14.925781 25.191406 15.03125 25.339844 C 15.144531 25.496094 15.203125 25.691406 15.203125 25.933594 C 15.203125 26.183594 15.144531 26.386719 15.03125 26.542969 C 14.925781 26.699219 14.789062 26.777344 14.625 26.777344 L 0.59375 26.777344 C 0.445312 26.777344 0.3125 26.691406 0.1875 26.527344 C 0.0625 26.359375 0 26.160156 0 25.933594 C 0 25.714844 0.0546875 25.519531 0.171875 25.355469 C 0.296875 25.199219 0.4375 25.121094 0.59375 25.121094 Z M 3.71875 28.953125 L 5.765625 28.953125 C 6.785156 28.953125 7.675781 29.34375 8.4375 30.125 C 9.207031 30.90625 9.59375 31.828125 9.59375 32.890625 C 9.59375 33.960938 9.210938 34.890625 8.453125 35.671875 C 7.691406 36.460938 6.796875 36.859375 5.765625 36.859375 L 3.71875 36.859375 C 2.707031 36.859375 1.804688 36.460938 1.015625 35.671875 C 0.234375 34.878906 -0.15625 33.957031 -0.15625 32.90625 C -0.15625 31.851562 0.234375 30.929688 1.015625 30.140625 C 1.796875 29.347656 2.695312 28.953125 3.71875 28.953125 Z M 3.71875 30.625 C 3.09375 30.625 2.539062 30.847656 2.0625 31.296875 C 1.582031 31.753906 1.34375 32.289062 1.34375 32.90625 C 1.34375 33.53125 1.582031 34.066406 2.0625 34.515625 C 2.550781 34.972656 3.101562 35.203125 3.71875 35.203125 L 5.765625 35.203125 C 6.359375 35.203125 6.894531 34.972656 7.375 34.515625 C 7.851562 34.066406 8.09375 33.523438 8.09375 32.890625 C 8.09375 32.265625 7.851562 31.726562 7.375 31.28125 C 6.894531 30.84375 6.359375 30.625 5.765625 30.625 Z M 3.015625 42.820312 L 13.3125 42.820312 C 13.476562 42.820312 13.617188 42.902344 13.734375 43.070312 C 13.847656 43.246094 13.90625 43.433594 13.90625 43.632812 C 13.90625 43.851562 13.847656 44.042969 13.734375 44.210938 C 13.617188 44.386719 13.476562 44.476562 13.3125 44.476562 L 9.484375 44.476562 L 9.484375 46.992188 C 9.484375 47.148438 9.414062 47.265625 9.28125 47.351562 C 9.144531 47.445312 8.988281 47.492188 8.8125 47.492188 C 8.644531 47.492188 8.5 47.445312 8.375 47.351562 C 8.25 47.265625 8.1875 47.148438 8.1875 46.992188 L 8.1875 44.476562 L 3.015625 44.476562 C 2.441406 44.476562 2.035156 44.601562 1.796875 44.851562 C 1.566406 45.101562 1.453125 45.527344 1.453125 46.132812 L 1.453125 46.757812 C 1.453125 46.984375 1.382812 47.164062 1.25 47.289062 C 1.113281 47.414062 0.941406 47.476562 0.734375 47.476562 C 0.535156 47.476562 0.363281 47.40625 0.21875 47.273438 C 0.0703125 47.148438 0 46.976562 0 46.757812 L 0 46.132812 C 0 43.921875 1.003906 42.820312 3.015625 42.820312 Z M 0.59375 49.082031 L 14.625 49.082031 C 14.789062 49.082031 14.925781 49.152344 15.03125 49.300781 C 15.144531 49.457031 15.203125 49.652344 15.203125 49.894531 C 15.203125 50.132812 15.144531 50.332031 15.03125 50.488281 C 14.925781 50.652344 14.789062 50.738281 14.625 50.738281 L 8.078125 50.738281 C 8.503906 50.964844 8.863281 51.304688 9.15625 51.753906 C 9.445312 52.199219 9.59375 52.726562 9.59375 53.332031 C 9.59375 54.277344 9.21875 55.101562 8.46875 55.800781 C 7.71875 56.507812 6.816406 56.863281 5.765625 56.863281 L 0.59375 56.863281 C 0.40625 56.863281 0.257812 56.777344 0.15625 56.613281 C 0.0507812 56.445312 0 56.246094 0 56.019531 C 0 55.800781 0.0507812 55.605469 0.15625 55.441406 C 0.257812 55.273438 0.40625 55.191406 0.59375 55.191406 L 5.765625 55.191406 C 6.359375 55.191406 6.894531 54.960938 7.375 54.503906 C 7.851562 54.054688 8.09375 53.527344 8.09375 52.925781 C 8.09375 52.351562 7.875 51.839844 7.4375 51.394531 C 7.007812 50.957031 6.453125 50.738281 5.765625 50.738281 L 0.59375 50.738281 C 0.445312 50.738281 0.3125 50.652344 0.1875 50.488281 C 0.0625 50.320312 0 50.121094 0 49.894531 C 0 49.675781 0.0546875 49.480469 0.171875 49.316406 C 0.296875 49.160156 0.4375 49.082031 0.59375 49.082031 Z M 3.71875 58.773438 L 5.8125 58.773438 C 6.84375 58.773438 7.726562 59.164062 8.46875 59.945312 C 9.21875 60.726562 9.59375 61.664062 9.59375 62.757812 C 9.59375 63.796875 9.242188 64.699219 8.546875 65.460938 C 7.847656 66.21875 6.972656 66.601562 5.921875 66.601562 C 5.535156 66.601562 5.222656 66.554688 4.984375 66.460938 C 4.753906 66.367188 4.585938 66.21875 4.484375 66.023438 C 4.390625 65.835938 4.328125 65.65625 4.296875 65.492188 C 4.273438 65.324219 4.265625 65.101562 4.265625 64.820312 L 4.265625 60.445312 L 3.65625 60.445312 C 2.925781 60.445312 2.335938 60.703125 1.890625 61.226562 C 1.453125 61.757812 1.234375 62.4375 1.234375 63.273438 C 1.234375 63.71875 1.300781 64.105469 1.4375 64.429688 C 1.570312 64.75 1.703125 65.011719 1.828125 65.210938 C 1.953125 65.417969 2.015625 65.578125 2.015625 65.695312 C 2.015625 65.882812 1.929688 66.042969 1.765625 66.179688 C 1.597656 66.3125 1.429688 66.382812 1.265625 66.382812 C 0.953125 66.382812 0.632812 66.074219 0.3125 65.460938 C 0 64.855469 -0.15625 64.109375 -0.15625 63.226562 C -0.15625 61.914062 0.195312 60.839844 0.90625 60.007812 C 1.625 59.183594 2.5625 58.773438 3.71875 58.773438 Z M 5.375 60.445312 L 5.375 64.148438 C 5.375 64.492188 5.414062 64.71875 5.5 64.835938 C 5.59375 64.960938 5.765625 65.023438 6.015625 65.023438 C 6.617188 65.023438 7.144531 64.796875 7.59375 64.351562 C 8.050781 63.914062 8.28125 63.375 8.28125 62.742188 C 8.28125 62.117188 8.066406 61.574219 7.640625 61.117188 C 7.222656 60.667969 6.707031 60.445312 6.09375 60.445312 Z M 0.59375 68.449219 L 8.90625 68.449219 C 9.070312 68.449219 9.207031 68.519531 9.3125 68.667969 C 9.425781 68.824219 9.484375 69.019531 9.484375 69.261719 C 9.484375 69.46875 9.425781 69.644531 9.3125 69.792969 C 9.207031 69.949219 9.070312 70.027344 8.90625 70.027344 L 7.953125 70.027344 C 8.410156 70.265625 8.796875 70.613281 9.109375 71.074219 C 9.429688 71.542969 9.59375 72.0625 9.59375 72.636719 L 9.59375 73.324219 C 9.59375 73.488281 9.515625 73.636719 9.359375 73.761719 C 9.210938 73.894531 9.039062 73.964844 8.84375 73.964844 C 8.644531 73.964844 8.46875 73.894531 8.3125 73.761719 C 8.164062 73.636719 8.09375 73.488281 8.09375 73.324219 L 8.09375 72.636719 C 8.09375 71.957031 7.816406 71.363281 7.265625 70.855469 C 6.722656 70.355469 6.019531 70.105469 5.15625 70.105469 L 0.59375 70.105469 C 0.445312 70.105469 0.3125 70.019531 0.1875 69.855469 C 0.0625 69.6875 0 69.488281 0 69.261719 C 0 69.03125 0.0546875 68.839844 0.171875 68.683594 C 0.296875 68.527344 0.4375 68.449219 0.59375 68.449219 Z M 3.71875 74.953125 L 5.8125 74.953125 C 6.84375 74.953125 7.726562 75.34375 8.46875 76.125 C 9.21875 76.90625 9.59375 77.84375 9.59375 78.9375 C 9.59375 79.976562 9.242188 80.878906 8.546875 81.640625 C 7.847656 82.398438 6.972656 82.78125 5.921875 82.78125 C 5.535156 82.78125 5.222656 82.734375 4.984375 82.640625 C 4.753906 82.546875 4.585938 82.398438 4.484375 82.203125 C 4.390625 82.015625 4.328125 81.835938 4.296875 81.671875 C 4.273438 81.503906 4.265625 81.28125 4.265625 81 L 4.265625 76.625 L 3.65625 76.625 C 2.925781 76.625 2.335938 76.882812 1.890625 77.40625 C 1.453125 77.9375 1.234375 78.617188 1.234375 79.453125 C 1.234375 79.898438 1.300781 80.285156 1.4375 80.609375 C 1.570312 80.929688 1.703125 81.191406 1.828125 81.390625 C 1.953125 81.597656 2.015625 81.757812 2.015625 81.875 C 2.015625 82.0625 1.929688 82.222656 1.765625 82.359375 C 1.597656 82.492188 1.429688 82.5625 1.265625 82.5625 C 0.953125 82.5625 0.632812 82.253906 0.3125 81.640625 C 0 81.035156 -0.15625 80.289062 -0.15625 79.40625 C -0.15625 78.09375 0.195312 77.019531 0.90625 76.1875 C 1.625 75.363281 2.5625 74.953125 3.71875 74.953125 Z M 5.375 76.625 L 5.375 80.328125 C 5.375 80.671875 5.414062 80.898438 5.5 81.015625 C 5.59375 81.140625 5.765625 81.203125 6.015625 81.203125 C 6.617188 81.203125 7.144531 80.976562 7.59375 80.53125 C 8.050781 80.09375 8.28125 79.554688 8.28125 78.921875 C 8.28125 78.296875 8.066406 77.753906 7.640625 77.296875 C 7.222656 76.847656 6.707031 76.625 6.09375 76.625 Z M 0 83.441406 "/>
<path style=" stroke:none;fill-rule:nonzero;fill:rgb(0%,0%,0%);fill-opacity:1;" d="M 345.59375 11.203125 L 359.625 11.203125 C 359.789062 11.203125 359.925781 11.273438 360.03125 11.421875 C 360.144531 11.578125 360.203125 11.773438 360.203125 12.015625 C 360.203125 12.253906 360.144531 12.453125 360.03125 12.609375 C 359.925781 12.773438 359.789062 12.859375 359.625 12.859375 L 353.078125 12.859375 C 353.503906 13.085938 353.863281 13.425781 354.15625 13.875 C 354.445312 14.320312 354.59375 14.847656 354.59375 15.453125 C 354.59375 16.398438 354.21875 17.222656 353.46875 17.921875 C 352.71875 18.628906 351.816406 18.984375 350.765625 18.984375 L 345.59375 18.984375 C 345.40625 18.984375 345.257812 18.898438 345.15625 18.734375 C 345.050781 18.566406 345 18.367188 345 18.140625 C 345 17.921875 345.050781 17.726562 345.15625 17.5625 C 345.257812 17.394531 345.40625 17.3125 345.59375 17.3125 L 350.765625 17.3125 C 351.359375 17.3125 351.894531 17.082031 352.375 16.625 C 352.851562 16.175781 353.09375 15.648438 353.09375 15.046875 C 353.09375 14.472656 352.875 13.960938 352.4375 13.515625 C 352.007812 13.078125 351.453125 12.859375 350.765625 12.859375 L 345.59375 12.859375 C 345.445312 12.859375 345.3125 12.773438 345.1875 12.609375 C 345.0625 12.441406 345 12.242188 345 12.015625 C 345 11.796875 345.054688 11.601562 345.171875 11.4375 C 345.296875 11.28125 345.4375 11.203125 345.59375 11.203125 Z M 348.71875 20.890625 L 350.8125 20.890625 C 351.84375 20.890625 352.726562 21.28125 353.46875 22.0625 C 354.21875 22.84375 354.59375 23.78125 354.59375 24.875 C 354.59375 25.914062 354.242188 26.816406 353.546875 27.578125 C 352.847656 28.335938 351.972656 28.71875 350.921875 28.71875 C 350.535156 28.71875 350.222656 28.671875 349.984375 28.578125 C 349.753906 28.484375 349.585938 28.335938 349.484375 28.140625 C 349.390625 27.953125 349.328125 27.773438 349.296875 27.609375 C 349.273438 27.441406 349.265625 27.21875 349.265625 26.9375 L 349.265625 22.5625 L 348.65625 22.5625 C 347.925781 22.5625 347.335938 22.820312 346.890625 23.34375 C 346.453125 23.875 346.234375 24.554688 346.234375 25.390625 C 346.234375 25.835938 346.300781 26.222656 346.4375 26.546875 C 346.570312 26.867188 346.703125 27.128906 346.828125 27.328125 C 346.953125 27.535156 347.015625 27.695312 347.015625 27.8125 C 347.015625 28 346.929688 28.160156 346.765625 28.296875 C 346.597656 28.429688 346.429688 28.5 346.265625 28.5 C 345.953125 28.5 345.632812 28.191406 345.3125 27.578125 C 345 26.972656 344.84375 26.226562 344.84375 25.34375 C 344.84375 24.03125 345.195312 22.957031 345.90625 22.125 C 346.625 21.300781 347.5625 20.890625 348.71875 20.890625 Z M 350.375 22.5625 L 350.375 26.265625 C 350.375 26.609375 350.414062 26.835938 350.5 26.953125 C 350.59375 27.078125 350.765625 27.140625 351.015625 27.140625 C 351.617188 27.140625 352.144531 26.914062 352.59375 26.46875 C 353.050781 26.03125 353.28125 25.492188 353.28125 24.859375 C 353.28125 24.234375 353.066406 23.691406 352.640625 23.234375 C 352.222656 22.785156 351.707031 22.5625 351.09375 22.5625 Z M 345.59375 30.738281 L 359.625 30.738281 C 359.789062 30.738281 359.925781 30.808594 360.03125 30.957031 C 360.144531 31.113281 360.203125 31.308594 360.203125 31.550781 C 360.203125 31.800781 360.144531 32.003906 360.03125 32.160156 C 359.925781 32.316406 359.789062 32.394531 359.625 32.394531 L 345.59375 32.394531 C 345.445312 32.394531 345.3125 32.308594 345.1875 32.144531 C 345.0625 31.976562 345 31.777344 345 31.550781 C 345 31.332031 345.054688 31.136719 345.171875 30.972656 C 345.296875 30.816406 345.4375 30.738281 345.59375 30.738281 Z M 345.59375 35.121094 L 359.625 35.121094 C 359.789062 35.121094 359.925781 35.191406 360.03125 35.339844 C 360.144531 35.496094 360.203125 35.691406 360.203125 35.933594 C 360.203125 36.183594 360.144531 36.386719 360.03125 36.542969 C 359.925781 36.699219 359.789062 36.777344 359.625 36.777344 L 345.59375 36.777344 C 345.445312 36.777344 345.3125 36.691406 345.1875 36.527344 C 345.0625 36.359375 345 36.160156 345 35.933594 C 345 35.714844 345.054688 35.519531 345.171875 35.355469 C 345.296875 35.199219 345.4375 35.121094 345.59375 35.121094 Z M 348.71875 38.953125 L 350.765625 38.953125 C 351.785156 38.953125 352.675781 39.34375 353.4375 40.125 C 354.207031 40.90625 354.59375 41.828125 354.59375 42.890625 C 354.59375 43.960938 354.210938 44.890625 353.453125 45.671875 C 352.691406 46.460938 351.796875 46.859375 350.765625 46.859375 L 348.71875 46.859375 C 347.707031 46.859375 346.804688 46.460938 346.015625 45.671875 C 345.234375 44.878906 344.84375 43.957031 344.84375 42.90625 C 344.84375 41.851562 345.234375 40.929688 346.015625 40.140625 C 346.796875 39.347656 347.695312 38.953125 348.71875 38.953125 Z M 348.71875 40.625 C 348.09375 40.625 347.539062 40.847656 347.0625 41.296875 C 346.582031 41.753906 346.34375 42.289062 346.34375 42.90625 C 346.34375 43.53125 346.582031 44.066406 347.0625 44.515625 C 347.550781 44.972656 348.101562 45.203125 348.71875 45.203125 L 350.765625 45.203125 C 351.359375 45.203125 351.894531 44.972656 352.375 44.515625 C 352.851562 44.066406 353.09375 43.523438 353.09375 42.890625 C 353.09375 42.265625 352.851562 41.726562 352.375 41.28125 C 351.894531 40.84375 351.359375 40.625 350.765625 40.625 Z M 348.015625 52.820312 L 358.3125 52.820312 C 358.476562 52.820312 358.617188 52.902344 358.734375 53.070312 C 358.847656 53.246094 358.90625 53.433594 358.90625 53.632812 C 358.90625 53.851562 358.847656 54.042969 358.734375 54.210938 C 358.617188 54.386719 358.476562 54.476562 358.3125 54.476562 L 354.484375 54.476562 L 354.484375 56.992188 C 354.484375 57.148438 354.414062 57.265625 354.28125 57.351562 C 354.144531 57.445312 353.988281 57.492188 353.8125 57.492188 C 353.644531 57.492188 353.5 57.445312 353.375 57.351562 C 353.25 57.265625 353.1875 57.148438 353.1875 56.992188 L 353.1875 54.476562 L 348.015625 54.476562 C 347.441406 54.476562 347.035156 54.601562 346.796875 54.851562 C 346.566406 55.101562 346.453125 55.527344 346.453125 56.132812 L 346.453125 56.757812 C 346.453125 56.984375 346.382812 57.164062 346.25 57.289062 C 346.113281 57.414062 345.941406 57.476562 345.734375 57.476562 C 345.535156 57.476562 345.363281 57.40625 345.21875 57.273438 C 345.070312 57.148438 345 56.976562 345 56.757812 L 345 56.132812 C 345 53.921875 346.003906 52.820312 348.015625 52.820312 Z M 345.59375 59.082031 L 359.625 59.082031 C 359.789062 59.082031 359.925781 59.152344 360.03125 59.300781 C 360.144531 59.457031 360.203125 59.652344 360.203125 59.894531 C 360.203125 60.132812 360.144531 60.332031 360.03125 60.488281 C 359.925781 60.652344 359.789062 60.738281 359.625 60.738281 L 353.078125 60.738281 C 353.503906 60.964844 353.863281 61.304688 354.15625 61.753906 C 354.445312 62.199219 354.59375 62.726562 354.59375 63.332031 C 354.59375 64.277344 354.21875 65.101562 353.46875 65.800781 C 352.71875 66.507812 351.816406 66.863281 350.765625 66.863281 L 345.59375 66.863281 C 345.40625 66.863281 345.257812 66.777344 345.15625 66.613281 C 345.050781 66.445312 345 66.246094 345 66.019531 C 345 65.800781 345.050781 65.605469 345.15625 65.441406 C 345.257812 65.273438 345.40625 65.191406 345.59375 65.191406 L 350.765625 65.191406 C 351.359375 65.191406 351.894531 64.960938 352.375 64.503906 C 352.851562 64.054688 353.09375 63.527344 353.09375 62.925781 C 353.09375 62.351562 352.875 61.839844 352.4375 61.394531 C 352.007812 60.957031 351.453125 60.738281 350.765625 60.738281 L 345.59375 60.738281 C 345.445312 60.738281 345.3125 60.652344 345.1875 60.488281 C 345.0625 60.320312 345 60.121094 345 59.894531 C 345 59.675781 345.054688 59.480469 345.171875 59.316406 C 345.296875 59.160156 345.4375 59.082031 345.59375 59.082031 Z M 348.71875 68.773438 L 350.8125 68.773438 C 351.84375 68.773438 352.726562 69.164062 353.46875 69.945312 C 354.21875 70.726562 354.59375 71.664062 354.59375 72.757812 C 354.59375 73.796875 354.242188 74.699219 353.546875 75.460938 C 352.847656 76.21875 351.972656 76.601562 350.921875 76.601562 C 350.535156 76.601562 350.222656 76.554688 349.984375 76.460938 C 349.753906 76.367188 349.585938 76.21875 349.484375 76.023438 C 349.390625 75.835938 349.328125 75.65625 349.296875 75.492188 C 349.273438 75.324219 349.265625 75.101562 349.265625 74.820312 L 349.265625 70.445312 L 348.65625 70.445312 C 347.925781 70.445312 347.335938 70.703125 346.890625 71.226562 C 346.453125 71.757812 346.234375 72.4375 346.234375 73.273438 C 346.234375 73.71875 346.300781 74.105469 346.4375 74.429688 C 346.570312 74.75 346.703125 75.011719 346.828125 75.210938 C 346.953125 75.417969 347.015625 75.578125 347.015625 75.695312 C 347.015625 75.882812 346.929688 76.042969 346.765625 76.179688 C 346.597656 76.3125 346.429688 76.382812 346.265625 76.382812 C 345.953125 76.382812 345.632812 76.074219 345.3125 75.460938 C 345 74.855469 344.84375 74.109375 344.84375 73.226562 C 344.84375 71.914062 345.195312 70.839844 345.90625 70.007812 C 346.625 69.183594 347.5625 68.773438 348.71875 68.773438 Z M 350.375 70.445312 L 350.375 74.148438 C 350.375 74.492188 350.414062 74.71875 350.5 74.835938 C 350.59375 74.960938 350.765625 75.023438 351.015625 75.023438 C 351.617188 75.023438 352.144531 74.796875 352.59375 74.351562 C 353.050781 73.914062 353.28125 73.375 353.28125 72.742188 C 353.28125 72.117188 353.066406 71.574219 352.640625 71.117188 C 352.222656 70.667969 351.707031 70.445312 351.09375 70.445312 Z M 345.59375 78.449219 L 353.90625 78.449219 C 354.070312 78.449219 354.207031 78.519531 354.3125 78.667969 C 354.425781 78.824219 354.484375 79.019531 354.484375 79.261719 C 354.484375 79.46875 354.425781 79.644531 354.3125 79.792969 C 354.207031 79.949219 354.070312 80.027344 353.90625 80.027344 L 352.953125 80.027344 C 353.410156 80.265625 353.796875 80.613281 354.109375 81.074219 C 354.429688 81.542969 354.59375 82.0625 354.59375 82.636719 L 354.59375 83.324219 C 354.59375 83.488281 354.515625 83.636719 354.359375 83.761719 C 354.210938 83.894531 354.039062 83.964844 353.84375 83.964844 C 353.644531 83.964844 353.46875 83.894531 353.3125 83.761719 C 353.164062 83.636719 353.09375 83.488281 353.09375 83.324219 L 353.09375 82.636719 C 353.09375 81.957031 352.816406 81.363281 352.265625 80.855469 C 351.722656 80.355469 351.019531 80.105469 350.15625 80.105469 L 345.59375 80.105469 C 345.445312 80.105469 345.3125 80.019531 345.1875 79.855469 C 345.0625 79.6875 345 79.488281 345 79.261719 C 345 79.03125 345.054688 78.839844 345.171875 78.683594 C 345.296875 78.527344 345.4375 78.449219 345.59375 78.449219 Z M 348.71875 84.953125 L 350.8125 84.953125 C 351.84375 84.953125 352.726562 85.34375 353.46875 86.125 C 354.21875 86.90625 354.59375 87.84375 354.59375 88.9375 C 354.59375 89.976562 354.242188 90.878906 353.546875 91.640625 C 352.847656 92.398438 351.972656 92.78125 350.921875 92.78125 C 350.535156 92.78125 350.222656 92.734375 349.984375 92.640625 C 349.753906 92.546875 349.585938 92.398438 349.484375 92.203125 C 349.390625 92.015625 349.328125 91.835938 349.296875 91.671875 C 349.273438 91.503906 349.265625 91.28125 349.265625 91 L 349.265625 86.625 L 348.65625 86.625 C 347.925781 86.625 347.335938 86.882812 346.890625 87.40625 C 346.453125 87.9375 346.234375 88.617188 346.234375 89.453125 C 346.234375 89.898438 346.300781 90.285156 346.4375 90.609375 C 346.570312 90.929688 346.703125 91.191406 346.828125 91.390625 C 346.953125 91.597656 347.015625 91.757812 347.015625 91.875 C 347.015625 92.0625 346.929688 92.222656 346.765625 92.359375 C 346.597656 92.492188 346.429688 92.5625 346.265625 92.5625 C 345.953125 92.5625 345.632812 92.253906 345.3125 91.640625 C 345 91.035156 344.84375 90.289062 344.84375 89.40625 C 344.84375 88.09375 345.195312 87.019531 345.90625 86.1875 C 346.625 85.363281 347.5625 84.953125 348.71875 84.953125 Z M 350.375 86.625 L 350.375 90.328125 C 350.375 90.671875 350.414062 90.898438 350.5 91.015625 C 350.59375 91.140625 350.765625 91.203125 351.015625 91.203125 C 351.617188 91.203125 352.144531 90.976562 352.59375 90.53125 C 353.050781 90.09375 353.28125 89.554688 353.28125 88.921875 C 353.28125 88.296875 353.066406 87.753906 352.640625 87.296875 C 352.222656 86.847656 351.707031 86.625 351.09375 86.625 Z M 345.59375 94.082031 L 347.546875 94.082031 C 348.140625 94.082031 348.726562 94.308594 349.3125 94.769531 C 349.894531 95.226562 350.414062 95.785156 350.875 96.441406 L 352.3125 98.378906 C 352.78125 99.035156 353.304688 99.589844 353.890625 100.050781 C 354.472656 100.507812 355.0625 100.738281 355.65625 100.738281 C 356.300781 100.738281 356.863281 100.527344 357.34375 100.113281 C 357.820312 99.695312 358.0625 99.089844 358.0625 98.300781 C 358.0625 97.632812 357.875 97.085938 357.5 96.660156 C 357.125 96.242188 356.582031 96.035156 355.875 96.035156 C 355.707031 96.035156 355.554688 95.957031 355.421875 95.800781 C 355.285156 95.644531 355.21875 95.429688 355.21875 95.160156 C 355.21875 94.648438 355.546875 94.394531 356.203125 94.394531 C 357.203125 94.394531 358.019531 94.769531 358.65625 95.519531 C 359.300781 96.277344 359.625 97.207031 359.625 98.300781 C 359.625 99.476562 359.253906 100.457031 358.515625 101.238281 C 357.773438 102.027344 356.84375 102.425781 355.71875 102.425781 C 355.050781 102.425781 354.410156 102.257812 353.796875 101.925781 C 353.179688 101.601562 352.660156 101.195312 352.234375 100.707031 C 351.804688 100.226562 351.378906 99.699219 350.953125 99.128906 L 349.8125 97.519531 C 349.476562 97.039062 349.113281 96.632812 348.71875 96.300781 C 348.320312 95.976562 347.929688 95.816406 347.546875 95.816406 L 346.515625 95.816406 L 346.515625 101.957031 C 346.515625 102.121094 346.441406 102.257812 346.296875 102.363281 C 346.148438 102.476562 345.972656 102.535156 345.765625 102.535156 C 345.554688 102.535156 345.375 102.476562 345.21875 102.363281 C 345.070312 102.257812 345 102.121094 345 101.957031 L 345 94.847656 C 345 94.667969 345.054688 94.496094 345.171875 94.332031 C 345.285156 94.164062 345.425781 94.082031 345.59375 94.082031 Z M 345 103.121094 "/>
<path style=" stroke:none;fill-rule:nonzero;fill:rgb(0%,0%,0%);fill-opacity:1;" d="M 345.59375 11.203125 L 359.625 11.203125 C 359.789062 11.203125 359.925781 11.273438 360.03125 11.421875 C 360.144531 11.578125 360.203125 11.773438 360.203125 12.015625 C 360.203125 12.253906 360.144531 12.453125 360.03125 12.609375 C 359.925781 12.773438 359.789062 12.859375 359.625 12.859375 L 353.078125 12.859375 C 353.503906 13.085938 353.863281 13.425781 354.15625 13.875 C 354.445312 14.320312 354.59375 14.847656 354.59375 15.453125 C 354.59375 16.398438 354.21875 17.222656 353.46875 17.921875 C 352.71875 18.628906 351.816406 18.984375 350.765625 18.984375 L 345.59375 18.984375 C 345.40625 18.984375 345.257812 18.898438 345.15625 18.734375 C 345.050781 18.566406 345 18.367188 345 18.140625 C 345 17.921875 345.050781 17.726562 345.15625 17.5625 C 345.257812 17.394531 345.40625 17.3125 345.59375 17.3125 L 350.765625 17.3125 C 351.359375 17.3125 351.894531 17.082031 352.375 16.625 C 352.851562 16.175781 353.09375 15.648438 353.09375 15.046875 C 353.09375 14.472656 352.875 13.960938 352.4375 13.515625 C 352.007812 13.078125 351.453125 12.859375 350.765625 12.859375 L 345.59375 12.859375 C 345.445312 12.859375 345.3125 12.773438 345.1875 12.609375 C 345.0625 12.441406 345 12.242188 345 12.015625 C 345 11.796875 345.054688 11.601562 345.171875 11.4375 C 345.296875 11.28125 345.4375 11.203125 345.59375 11.203125 Z M 348.71875 20.890625 L 350.8125 20.890625 C 351.84375 20.890625 352.726562 21.28125 353.46875 22.0625 C 354.21875 22.84375 354.59375 23.78125 354.59375 24.875 C 354.59375 25.914062 354.242188 26.816406 353.546875 27.578125 C 352.847656 28.335938 351.972656 28.71875 350.921875 28.71875 C 350.535156 28.71875 350.222656 28.671875 349.984375 28.578125 C 349.753906 28.484375 349.585938 28.335938 349.484375 28.140625 C 349.390625 27.953125 349.328125 27.773438 349.296875 27.609375 C 349.273438 27.441406 349.265625 27.21875 349.265625 26.9375 L 349.265625 22.5625 L 348.65625 22.5625 C 347.925781 22.5625 347.335938 22.820312 346.890625 23.34375 C 346.453125 23.875 346.234375 24.554688 346.234375 25.390625 C 346.234375 25.835938 346.300781 26.222656 346.4375 26.546875 C 346.570312 26.867188 346.703125 27.128906 346.828125 27.328125 C 346.953125 27.535156 347.015625 27.695312 347.015625 27.8125 C 347.015625 28 346.929688 28.160156 346.765625 28.296875 C 346.597656 28.429688 346.429688 28.5 346.265625 28.5 C 345.953125 28.5 345.632812 28.191406 345.3125 27.578125 C 345 26.972656 344.84375 26.226562 344.84375 25.34375 C 344.84375 24.03125 345.195312 22.957031 345.90625 22.125 C 346.625 21.300781 347.5625 20.890625 348.71875 20.890625 Z M 350.375 22.5625 L 350.375 26.265625 C 350.375 26.609375 350.414062 26.835938 350.5 26.953125 C 350.59375 27.078125 350.765625 27.140625 351.015625 27.140625 C 351.617188 27.140625 352.144531 26.914062 352.59375 26.46875 C 353.050781 26.03125 353.28125 25.492188 353.28125 24.859375 C 353.28125 24.234375 353.066406 23.691406 352.640625 23.234375 C 352.222656 22.785156 351.707031 22.5625 351.09375 22.5625 Z M 345.59375 30.738281 L 359.625 30.738281 C 359.789062 30.738281 359.925781 30.808594 360.03125 30.957031 C 360.144531 31.113281 360.203125 31.308594 360.203125 31.550781 C 360.203125 31.800781 360.144531 32.003906 360.03125 32.160156 C 359.925781 32.316406 359.789062 32.394531 359.625 32.394531 L 345.59375 32.394531 C 345.445312 32.394531 345.3125 32.308594 345.1875 32.144531 C 345.0625 31.976562 345 31.777344 345 31.550781 C 345 31.332031 345.054688 31.136719 345.171875 30.972656 C 345.296875 30.816406 345.4375 30.738281 345.59375 30.738281 Z M 345.59375 35.121094 L 359.625 35.121094 C 359.789062 35.121094 359.925781 35.191406 360.03125 35.339844 C 360.144531 35.496094 360.203125 35.691406 360.203125 35.933594 C 360.203125 36.183594 360.144531 36.386719 360.03125 36.542969 C 359.925781 36.699219 359.789062 36.777344 359.625 36.777344 L 345.59375 36.777344 C 345.445312 36.777344 345.3125 36.691406 345.1875 36.527344 C 345.0625 36.359375 345 36.160156 345 35.933594 C 345 35.714844 345.054688 35.519531 345.171875 35.355469 C 345.296875 35.199219 345.4375 35.121094 345.59375 35.121094 Z M 348.71875 38.953125 L 350.765625 38.953125 C 351.785156 38.953125 352.675781 39.34375 353.4375 40.125 C 354.207031 40.90625 354.59375 41.828125 354.59375 42.890625 C 354.59375 43.960938 354.210938 44.890625 353.453125 45.671875 C 352.691406 46.460938 351.796875 46.859375 350.765625 46.859375 L 348.71875 46.859375 C 347.707031 46.859375 346.804688 46.460938 346.015625 45.671875 C 345.234375 44.878906 344.84375 43.957031 344.84375 42.90625 C 344.84375 41.851562 345.234375 40.929688 346.015625 40.140625 C 346.796875 39.347656 347.695312 38.953125 348.71875 38.953125 Z M 348.71875 40.625 C 348.09375 40.625 347.539062 40.847656 347.0625 41.296875 C 346.582031 41.753906 346.34375 42.289062 346.34375 42.90625 C 346.34375 43.53125 346.582031 44.066406 347.0625 44.515625 C 347.550781 44.972656 348.101562 45.203125 348.71875 45.203125 L 350.765625 45.203125 C 351.359375 45.203125 351.894531 44.972656 352.375 44.515625 C 352.851562 44.066406 353.09375 43.523438 353.09375 42.890625 C 353.09375 42.265625 352.851562 41.726562 352.375 41.28125 C 351.894531 40.84375 351.359375 40.625 350.765625 40.625 Z M 348.015625 52.820312 L 358.3125 52.820312 C 358.476562 52.820312 358.617188 52.902344 358.734375 53.070312 C 358.847656 53.246094 358.90625 53.433594 358.90625 53.632812 C 358.90625 53.851562 358.847656 54.042969 358.734375 54.210938 C 358.617188 54.386719 358.476562 54.476562 358.3125 54.476562 L 354.484375 54.476562 L 354.484375 56.992188 C 354.484375 57.148438 354.414062 57.265625 354.28125 57.351562 C 354.144531 57.445312 353.988281 57.492188 353.8125 57.492188 C 353.644531 57.492188 353.5 57.445312 353.375 57.351562 C 353.25 57.265625 353.1875 57.148438 353.1875 56.992188 L 353.1875 54.476562 L 348.015625 54.476562 C 347.441406 54.476562 347.035156 54.601562 346.796875 54.851562 C 346.566406 55.101562 346.453125 55.527344 346.453125 56.132812 L 346.453125 56.757812 C 346.453125 56.984375 346.382812 57.164062 346.25 57.289062 C 346.113281 57.414062 345.941406 57.476562 345.734375 57.476562 C 345.535156 57.476562 345.363281 57.40625 345.21875 57.273438 C 345.070312 57.148438 345 56.976562 345 56.757812 L 345 56.132812 C 345 53.921875 346.003906 52.820312 348.015625 52.820312 Z M 345.59375 59.082031 L 359.625 59.082031 C 359.789062 59.082031 359.925781 59.152344 360.03125 59.300781 C 360.144531 59.457031 360.203125 59.652344 360.203125 59.894531 C 360.203125 60.132812 360.144531 60.332031 360.03125 60.488281 C 359.925781 60.652344 359.789062 60.738281 359.625 60.738281 L 353.078125 60.738281 C 353.503906 60.964844 353.863281 61.304688 354.15625 61.753906 C 354.445312 62.199219 354.59375 62.726562 354.59375 63.332031 C 354.59375 64.277344 354.21875 65.101562 353.46875 65.800781 C 352.71875 66.507812 351.816406 66.863281 350.765625 66.863281 L 345.59375 66.863281 C 345.40625 66.863281 345.257812 66.777344 345.15625 66.613281 C 345.050781 66.445312 345 66.246094 345 66.019531 C 345 65.800781 345.050781 65.605469 345.15625 65.441406 C 345.257812 65.273438 345.40625 65.191406 345.59375 65.191406 L 350.765625 65.191406 C 351.359375 65.191406 351.894531 64.960938 352.375 64.503906 C 352.851562 64.054688 353.09375 63.527344 353.09375 62.925781 C 353.09375 62.351562 352.875 61.839844 352.4375 61.394531 C 352.007812 60.957031 351.453125 60.738281 350.765625 60.738281 L 345.59375 60.738281 C 345.445312 60.738281 345.3125 60.652344 345.1875 60.488281 C 345.0625 60.320312 345 60.121094 345 59.894531 C 345 59.675781 345.054688 59.480469 345.171875 59.316406 C 345.296875 59.160156 345.4375 59.082031 345.59375 59.082031 Z M 348.71875 68.773438 L 350.8125 68.773438 C 351.84375 68.773438 352.726562 69.164062 353.46875 69.945312 C 354.21875 70.726562 354.59375 71.664062 354.59375 72.757812 C 354.59375 73.796875 354.242188 74.699219 353.546875 75.460938 C 352.847656 76.21875 351.972656 76.601562 350.921875 76.601562 C 350.535156 76.601562 350.222656 76.554688 349.984375 76.460938 C 349.753906 76.367188 349.585938 76.21875 349.484375 76.023438 C 349.390625 75.835938 349.328125 75.65625 349.296875 75.492188 C 349.273438 75.324219 349.265625 75.101562 349.265625 74.820312 L 349.265625 70.445312 L 348.65625 70.445312 C 347.925781 70.445312 347.335938 70.703125 346.890625 71.226562 C 346.453125 71.757812 346.234375 72.4375 346.234375 73.273438 C 346.234375 73.71875 346.300781 74.105469 346.4375 74.429688 C 346.570312 74.75 346.703125 75.011719 346.828125 75.210938 C 346.953125 75.417969 347.015625 75.578125 347.015625 75.695312 C 347.015625 75.882812 346.929688 76.042969 346.765625 76.179688 C 346.597656 76.3125 346.429688 76.382812 346.265625 76.382812 C 345.953125 76.382812 345.632812 76.074219 345.3125 75.460938 C 345 74.855469 344.84375 74.109375 344.84375 73.226562 C 344.84375 71.914062 345.195312 70.839844 345.90625 70.007812 C 346.625 69.183594 347.5625 68.773438 348.71875 68.773438 Z M 350.375 70.445312 L 350.375 74.148438 C 350.375 74.492188 350.414062 74.71875 350.5 74.835938 C 350.59375 74.960938 350.765625 75.023438 351.015625 75.023438 C 351.617188 75.023438 352.144531 74.796875 352.59375 74.351562 C 353.050781 73.914062 353.28125 73.375 353.28125 72.742188 C 353.28125 72.117188 353.066406 71.574219 352.640625 71.117188 C 352.222656 70.667969 351.707031 70.445312 351.09375 70.445312 Z M 345.59375 78.449219 L 353.90625 78.449219 C 354.070312 78.449219 354.207031 78.519531 354.3125 78.667969 C 354.425781 78.824219 354.484375 79.019531 354.484375 79.261719 C 354.484375 79.46875 354.425781 79.644531 354.3125 79.792969 C 354.207031 79.949219 354.070312 80.027344 353.90625 80.027344 L 352.953125 80.027344 C 353.410156 80.265625 353.796875 80.613281 354.109375 81.074219 C 354.429688 81.542969 354.59375 82.0625 354.59375 82.636719 L 354.59375 83.324219 C 354.59375 83.488281 354.515625 83.636719 354.359375 83.761719 C 354.210938 83.894531 354.039062 83.964844 353.84375 83.964844 C 353.644531 83.964844 353.46875 83.894531 353.3125 83.761719 C 353.164062 83.636719 353.09375 83.488281 353.09375 83.324219 L 353.09375 82.636719 C 353.09375 81.957031 352.816406 81.363281 352.265625 80.855469 C 351.722656 80.355469 351.019531 80.105469 350.15625 80.105469 L 345.59375 80.105469 C 345.445312 80.105469 345.3125 80.019531 345.1875 79.855469 C 345.0625 79.6875 345 79.488281 345 79.261719 C 345 79.03125 345.054688 78.839844 345.171875 78.683594 C 345.296875 78.527344 345.4375 78.449219 345.59375 78.449219 Z M 348.71875 84.953125 L 350.8125 84.953125 C 351.84375 84.953125 352.726562 85.34375 353.46875 86.125 C 354.21875 86.90625 354.59375 87.84375 354.59375 88.9375 C 354.59375 89.976562 354.242188 90.878906 353.546875 91.640625 C 352.847656 92.398438 351.972656 92.78125 350.921875 92.78125 C 350.535156 92.78125 350.222656 92.734375 349.984375 92.640625 C 349.753906 92.546875 349.585938 92.398438 349.484375 92.203125 C 349.390625 92.015625 349.328125 91.835938 349.296875 91.671875 C 349.273438 91.503906 349.265625 91.28125 349.265625 91 L 349.265625 86.625 L 348.65625 86.625 C 347.925781 86.625 347.335938 86.882812 346.890625 87.40625 C 346.453125 87.9375 346.234375 88.617188 346.234375 89.453125 C 346.234375 89.898438 346.300781 90.285156 346.4375 90.609375 C 346.570312 90.929688 346.703125 91.191406 346.828125 91.390625 C 346.953125 91.597656 347.015625 91.757812 347.015625 91.875 C 347.015625 92.0625 346.929688 92.222656 346.765625 92.359375 C 346.597656 92.492188 346.429688 92.5625 346.265625 92.5625 C 345.953125 92.5625 345.632812 92.253906 345.3125 91.640625 C 345 91.035156 344.84375 90.289062 344.84375 89.40625 C 344.84375 88.09375 345.195312 87.019531 345.90625 86.1875 C 346.625 85.363281 347.5625 84.953125 348.71875 84.953125 Z M 350.375 86.625 L 350.375 90.328125 C 350.375 90.671875 350.414062 90.898438 350.5 91.015625 C 350.59375 91.140625 350.765625 91.203125 351.015625 91.203125 C 351.617188 91.203125 352.144531 90.976562 352.59375 90.53125 C 353.050781 90.09375 353.28125 89.554688 353.28125 88.921875 C 353.28125 88.296875 353.066406 87.753906 352.640625 87.296875 C 352.222656 86.847656 351.707031 86.625 351.09375 86.625 Z M 348.28125 93.957031 C 348.582031 93.957031 348.785156 94.011719 348.890625 94.128906 C 349.003906 94.242188 349.0625 94.445312 349.0625 94.738281 C 349.0625 95.058594 349.003906 95.285156 348.890625 95.410156 C 348.785156 95.535156 348.625 95.597656 348.40625 95.597656 C 347.894531 95.597656 347.429688 95.808594 347.015625 96.238281 C 346.609375 96.675781 346.40625 97.335938 346.40625 98.222656 C 346.40625 100.003906 347.320312 100.894531 349.15625 100.894531 L 349.546875 100.894531 C 351.171875 100.894531 351.984375 100.003906 351.984375 98.222656 C 351.984375 97.835938 352.210938 97.644531 352.671875 97.644531 C 353.140625 97.644531 353.375 97.835938 353.375 98.222656 C 353.375 98.992188 353.546875 99.570312 353.890625 99.957031 C 354.242188 100.339844 354.875 100.535156 355.78125 100.535156 C 357.34375 100.535156 358.125 99.789062 358.125 98.300781 C 358.125 97.445312 357.929688 96.839844 357.546875 96.488281 C 357.171875 96.132812 356.722656 95.957031 356.203125 95.957031 C 355.703125 95.957031 355.453125 95.691406 355.453125 95.160156 C 355.453125 94.804688 355.507812 94.570312 355.625 94.457031 C 355.75 94.339844 355.976562 94.285156 356.3125 94.285156 C 356.644531 94.285156 356.988281 94.347656 357.34375 94.472656 C 357.695312 94.597656 358.050781 94.800781 358.40625 95.082031 C 358.757812 95.363281 359.050781 95.785156 359.28125 96.347656 C 359.507812 96.917969 359.625 97.585938 359.625 98.347656 C 359.625 100.886719 358.441406 102.160156 356.078125 102.160156 C 355.234375 102.160156 354.519531 102.011719 353.9375 101.722656 C 353.351562 101.429688 352.945312 101.035156 352.71875 100.535156 C 352.175781 101.898438 351.117188 102.582031 349.546875 102.582031 L 349.15625 102.582031 C 347.6875 102.582031 346.601562 102.179688 345.90625 101.378906 C 345.21875 100.574219 344.875 99.523438 344.875 98.222656 C 344.875 96.847656 345.222656 95.789062 345.921875 95.050781 C 346.628906 94.320312 347.414062 93.957031 348.28125 93.957031 Z M 345 103.378906 "/>
</g>
</svg>
