<?xml version="1.0" encoding="UTF-8"?>
<svg xmlns="http://www.w3.org/2000/svg" xmlns:xlink="http://www.w3.org/1999/xlink" width="384pt" height="288pt" viewBox="0 0 384 288" version="1.1">
<g id="surface129">
<path style=" stroke:none;fill-rule:nonzero;fill:rgb(0%,0%,0%);fill-opacity:1;" d="M 0 0 L 284 0 L 284 288 L 0 288 Z M 0 0 "/>
<path style=" stroke:none;fill-rule:nonzero;fill:rgb(50.196078%,50.196078%,50.196078%);fill-opacity:1;" d="M 0 0 L 35.5 0 L 35.5 288 L 0 288 Z M 0 0 "/>
<path style=" stroke:none;fill-rule:nonzero;fill:rgb(0%,0%,0%);fill-opacity:1;" d="M 35.5 0 L 71 0 L 71 288 L 35.5 288 Z M 35.5 0 "/>
<path style=" stroke:none;fill-rule:nonzero;fill:rgb(50.196078%,50.196078%,50.196078%);fill-opacity:1;" d="M 71 0 L 106.5 0 L 106.5 288 L 71 288 Z M 71 0 "/>
<path style=" stroke:none;fill-rule:nonzero;fill:rgb(0%,0%,0%);fill-opacity:1;" d="M 106.5 0 L 142 0 L 142 288 L 106.5 288 Z M 106.5 0 "/>
<path style=" stroke:none;fill-rule:nonzero;fill:rgb(50.196078%,50.196078%,50.196078%);fill-opacity:1;" d="M 142 0 L 177.5 0 L 177.5 288 L 142 288 Z M 142 0 "/>
<path style=" stroke:none;fill-rule:nonzero;fill:rgb(0%,0%,0%);fill-opacity:1;" d="M 177.5 0 L 213 0 L 213 288 L 177.5 288 Z M 177.5 0 "/>
<path style=" stroke:none;fill-rule:nonzero;fill:rgb(50.196078%,50.196078%,50.196078%);fill-opacity:1;" d="M 213 0 L 248.5 0 L 248.5 288 L 213 288 Z M 213 0 "/>
<path style=" stroke:none;fill-rule:nonzero;fill:rgb(0%,0%,0%);fill-opacity:1;" d="M 248.5 0 L 284 0 L 284 288 L 248.5 288 Z M 248.5 0 "/>
<path style=" stroke:none;fill-rule:nonzero;fill:rgb(0%,0%,0%);fill-opacity:1;" d="M 300.6875 50.421875 L 306.171875 46.890625 C 306.703125 46.558594 307.265625 46.449219 307.859375 46.5625 C 308.453125 46.679688 308.898438 46.976562 309.203125 47.453125 L 309.4375 47.8125 C 309.5 47.917969 309.515625 48.027344 309.484375 48.140625 C 309.453125 48.257812 309.382812 48.34375 309.28125 48.40625 C 309.1875 48.46875 309.082031 48.496094 308.96875 48.484375 C 308.851562 48.464844 308.765625 48.402344 308.703125 48.296875 L 308.5625 48.078125 C 308.363281 47.765625 308.09375 47.578125 307.75 47.515625 C 307.414062 47.445312 307.085938 47.507812 306.765625 47.703125 L 305.703125 48.375 L 306.59375 49.75 C 306.644531 49.824219 306.65625 49.90625 306.625 50 C 306.59375 50.09375 306.53125 50.164062 306.4375 50.21875 C 306.351562 50.28125 306.257812 50.304688 306.15625 50.296875 C 306.0625 50.285156 305.988281 50.242188 305.9375 50.171875 L 305.046875 48.796875 L 301.21875 51.265625 C 301.132812 51.316406 301.035156 51.316406 300.921875 51.265625 C 300.816406 51.222656 300.726562 51.140625 300.65625 51.015625 C 300.582031 50.898438 300.546875 50.785156 300.546875 50.671875 C 300.546875 50.566406 300.59375 50.484375 300.6875 50.421875 Z M 304.183594 52.382812 L 305.214844 51.726562 C 305.734375 51.394531 306.3125 51.300781 306.949219 51.445312 C 307.582031 51.59375 308.074219 51.9375 308.417969 52.476562 C 308.769531 53.007812 308.878906 53.59375 308.746094 54.242188 C 308.621094 54.886719 308.296875 55.382812 307.777344 55.726562 L 306.746094 56.382812 C 306.234375 56.714844 305.652344 56.804688 304.996094 56.648438 C 304.339844 56.492188 303.839844 56.148438 303.496094 55.617188 C 303.160156 55.09375 303.0625 54.507812 303.199219 53.851562 C 303.34375 53.203125 303.671875 52.71875 304.183594 52.382812 Z M 304.714844 53.226562 C 304.402344 53.421875 304.191406 53.714844 304.089844 54.101562 C 303.996094 54.484375 304.050781 54.835938 304.261719 55.148438 C 304.457031 55.460938 304.753906 55.652344 305.152344 55.726562 C 305.546875 55.796875 305.894531 55.734375 306.199219 55.539062 L 307.230469 54.882812 C 307.53125 54.683594 307.730469 54.390625 307.824219 54.007812 C 307.925781 53.621094 307.875 53.273438 307.667969 52.960938 C 307.46875 52.648438 307.171875 52.457031 306.777344 52.382812 C 306.390625 52.3125 306.046875 52.375 305.746094 52.570312 Z M 305.871094 58.496094 L 312.949219 53.949219 C 313.03125 53.886719 313.125 53.878906 313.230469 53.917969 C 313.34375 53.960938 313.4375 54.042969 313.511719 54.167969 C 313.59375 54.285156 313.628906 54.402344 313.621094 54.527344 C 313.621094 54.644531 313.578125 54.730469 313.496094 54.792969 L 306.417969 59.339844 C 306.355469 59.378906 306.261719 59.378906 306.136719 59.339844 C 306.011719 59.296875 305.910156 59.21875 305.839844 59.105469 C 305.765625 58.988281 305.734375 58.871094 305.746094 58.746094 C 305.753906 58.621094 305.796875 58.535156 305.871094 58.496094 Z M 308.695312 59.410156 L 309.726562 58.753906 C 310.257812 58.410156 310.824219 58.296875 311.429688 58.410156 C 312.042969 58.527344 312.507812 58.828125 312.820312 59.316406 C 313.015625 59.628906 313.117188 59.941406 313.117188 60.253906 C 313.117188 60.574219 313.046875 60.871094 312.914062 61.144531 L 316.210938 59.019531 C 316.292969 58.957031 316.386719 58.949219 316.492188 58.988281 C 316.605469 59.03125 316.699219 59.113281 316.773438 59.238281 C 316.855469 59.363281 316.890625 59.484375 316.882812 59.597656 C 316.871094 59.703125 316.824219 59.785156 316.742188 59.847656 L 309.664062 64.394531 C 309.589844 64.433594 309.496094 64.433594 309.382812 64.394531 C 309.265625 64.363281 309.171875 64.289062 309.101562 64.175781 C 309.039062 64.070312 309.011719 63.960938 309.023438 63.847656 C 309.042969 63.730469 309.089844 63.652344 309.164062 63.613281 L 309.570312 63.347656 C 309.265625 63.367188 308.960938 63.292969 308.648438 63.128906 C 308.335938 62.972656 308.078125 62.746094 307.882812 62.457031 C 307.578125 61.976562 307.511719 61.429688 307.679688 60.816406 C 307.84375 60.210938 308.183594 59.746094 308.695312 59.410156 Z M 309.226562 60.253906 C 308.921875 60.449219 308.71875 60.742188 308.617188 61.128906 C 308.511719 61.511719 308.558594 61.855469 308.757812 62.160156 C 308.953125 62.460938 309.242188 62.652344 309.617188 62.738281 C 310 62.832031 310.277344 62.824219 310.445312 62.722656 L 311.742188 61.894531 C 312.09375 61.664062 312.304688 61.363281 312.367188 60.988281 C 312.4375 60.621094 312.382812 60.289062 312.195312 59.988281 C 311.984375 59.675781 311.683594 59.484375 311.289062 59.410156 C 310.902344 59.339844 310.558594 59.402344 310.257812 59.597656 Z M 310.523438 65.726562 L 317.304688 61.367188 C 317.398438 61.304688 317.492188 61.300781 317.585938 61.351562 C 317.6875 61.394531 317.773438 61.46875 317.835938 61.570312 L 320.148438 65.148438 C 320.210938 65.25 320.21875 65.351562 320.179688 65.445312 C 320.148438 65.539062 320.074219 65.617188 319.960938 65.679688 C 319.855469 65.75 319.746094 65.78125 319.632812 65.773438 C 319.515625 65.773438 319.433594 65.726562 319.382812 65.632812 L 317.367188 62.507812 L 314.804688 64.164062 L 315.820312 65.742188 C 315.882812 65.835938 315.890625 65.929688 315.851562 66.023438 C 315.820312 66.117188 315.75 66.199219 315.648438 66.273438 C 315.554688 66.324219 315.453125 66.34375 315.351562 66.335938 C 315.257812 66.335938 315.179688 66.289062 315.117188 66.195312 L 314.101562 64.617188 L 311.523438 66.273438 L 313.539062 69.398438 C 313.589844 69.492188 313.59375 69.585938 313.554688 69.679688 C 313.511719 69.78125 313.4375 69.871094 313.335938 69.945312 C 313.230469 70.007812 313.125 70.039062 313.023438 70.039062 C 312.917969 70.039062 312.835938 69.984375 312.773438 69.882812 L 310.460938 66.304688 C 310.398438 66.199219 310.367188 66.089844 310.367188 65.976562 C 310.375 65.871094 310.429688 65.789062 310.523438 65.726562 Z M 317.605469 67.652344 C 317.707031 67.589844 317.832031 67.597656 317.980469 67.667969 C 318.125 67.730469 318.238281 67.824219 318.324219 67.949219 C 318.417969 68.097656 318.417969 68.226562 318.324219 68.339844 L 315.714844 71.808594 L 319.933594 70.902344 C 320.097656 70.859375 320.222656 70.90625 320.308594 71.042969 C 320.371094 71.144531 320.40625 71.28125 320.417969 71.449219 C 320.425781 71.625 320.378906 71.746094 320.277344 71.808594 C 320.222656 71.847656 320.167969 71.875 320.105469 71.886719 L 314.839844 72.917969 C 314.683594 72.949219 314.542969 72.859375 314.417969 72.652344 C 314.28125 72.441406 314.261719 72.269531 314.355469 72.136719 L 317.464844 67.792969 C 317.535156 67.722656 317.582031 67.675781 317.605469 67.652344 Z M 318.066406 74.003906 L 319.128906 73.332031 C 319.648438 72.988281 320.222656 72.894531 320.847656 73.050781 C 321.472656 73.207031 321.960938 73.5625 322.316406 74.113281 C 322.660156 74.636719 322.773438 75.195312 322.660156 75.800781 C 322.554688 76.414062 322.238281 76.894531 321.707031 77.238281 C 321.507812 77.363281 321.335938 77.441406 321.191406 77.472656 C 321.042969 77.503906 320.917969 77.488281 320.816406 77.425781 C 320.710938 77.363281 320.621094 77.289062 320.550781 77.207031 C 320.476562 77.132812 320.394531 77.019531 320.300781 76.863281 L 318.878906 74.660156 L 318.582031 74.863281 C 318.195312 75.101562 317.976562 75.425781 317.925781 75.832031 C 317.882812 76.238281 317.996094 76.652344 318.269531 77.082031 C 318.414062 77.308594 318.570312 77.480469 318.738281 77.597656 C 318.914062 77.722656 319.070312 77.808594 319.207031 77.863281 C 319.339844 77.925781 319.425781 77.988281 319.457031 78.050781 C 319.519531 78.144531 319.527344 78.253906 319.488281 78.378906 C 319.445312 78.503906 319.378906 78.589844 319.285156 78.644531 C 319.136719 78.738281 318.882812 78.679688 318.519531 78.472656 C 318.164062 78.273438 317.839844 77.949219 317.550781 77.503906 C 317.132812 76.847656 316.964844 76.191406 317.050781 75.535156 C 317.144531 74.886719 317.480469 74.378906 318.066406 74.003906 Z M 319.441406 74.300781 L 320.644531 76.160156 C 320.757812 76.335938 320.855469 76.441406 320.941406 76.472656 C 321.023438 76.511719 321.121094 76.492188 321.238281 76.410156 C 321.550781 76.210938 321.746094 75.925781 321.832031 75.550781 C 321.925781 75.183594 321.867188 74.847656 321.660156 74.535156 C 321.449219 74.214844 321.164062 74.003906 320.800781 73.910156 C 320.445312 73.816406 320.113281 73.875 319.800781 74.082031 Z M 319.609375 79.902344 L 323.8125 77.199219 C 323.894531 77.148438 323.988281 77.144531 324.09375 77.183594 C 324.195312 77.226562 324.289062 77.308594 324.375 77.433594 C 324.4375 77.539062 324.460938 77.648438 324.453125 77.761719 C 324.453125 77.867188 324.410156 77.945312 324.328125 77.996094 L 323.84375 78.308594 C 324.15625 78.289062 324.46875 78.347656 324.78125 78.480469 C 325.09375 78.605469 325.34375 78.816406 325.53125 79.105469 L 325.75 79.449219 C 325.800781 79.53125 325.804688 79.625 325.765625 79.730469 C 325.734375 79.84375 325.664062 79.933594 325.5625 79.996094 C 325.46875 80.066406 325.363281 80.09375 325.25 80.074219 C 325.132812 80.0625 325.050781 80.015625 325 79.933594 L 324.78125 79.589844 C 324.550781 79.246094 324.21875 79.039062 323.78125 78.964844 C 323.34375 78.882812 322.90625 78.980469 322.46875 79.261719 L 320.15625 80.746094 C 320.09375 80.785156 320 80.785156 319.875 80.746094 C 319.757812 80.703125 319.664062 80.625 319.59375 80.511719 C 319.519531 80.394531 319.484375 80.277344 319.484375 80.152344 C 319.492188 80.027344 319.535156 79.941406 319.609375 79.902344 Z M 325.683594 80.234375 C 325.796875 80.171875 325.933594 80.179688 326.089844 80.25 C 326.246094 80.3125 326.363281 80.40625 326.449219 80.53125 C 326.53125 80.667969 326.53125 80.792969 326.449219 80.90625 L 323.777344 84.5 L 328.089844 83.4375 C 328.222656 83.414062 328.328125 83.46875 328.402344 83.59375 C 328.472656 83.707031 328.511719 83.851562 328.511719 84.03125 C 328.519531 84.207031 328.46875 84.332031 328.355469 84.40625 C 328.3125 84.425781 328.269531 84.4375 328.230469 84.4375 L 323.136719 85.546875 L 322.496094 85.6875 C 322.390625 85.695312 322.1875 85.722656 321.886719 85.765625 C 321.59375 85.816406 321.375 85.84375 321.230469 85.84375 C 321.085938 85.84375 320.894531 85.832031 320.652344 85.8125 C 320.414062 85.800781 320.222656 85.765625 320.074219 85.703125 C 319.929688 85.640625 319.773438 85.546875 319.605469 85.421875 C 319.441406 85.296875 319.304688 85.148438 319.199219 84.984375 C 319.023438 84.710938 319.058594 84.492188 319.308594 84.328125 C 319.550781 84.179688 319.722656 84.191406 319.824219 84.359375 C 320.023438 84.660156 320.386719 84.84375 320.917969 84.90625 C 321.4375 84.976562 321.996094 84.894531 322.589844 84.65625 L 325.589844 80.34375 C 325.621094 80.304688 325.652344 80.265625 325.683594 80.234375 Z M 325.800781 90.011719 L 333.191406 85.261719 C 333.273438 85.210938 333.367188 85.207031 333.472656 85.246094 C 333.574219 85.289062 333.660156 85.355469 333.722656 85.449219 L 334.785156 87.105469 C 334.835938 87.199219 334.839844 87.300781 334.800781 87.402344 C 334.769531 87.496094 334.699219 87.582031 334.597656 87.652344 C 334.492188 87.714844 334.382812 87.746094 334.269531 87.746094 C 334.164062 87.746094 334.085938 87.699219 334.035156 87.605469 L 333.269531 86.417969 L 326.800781 90.558594 L 327.566406 91.746094 C 327.617188 91.839844 327.628906 91.933594 327.597656 92.027344 C 327.566406 92.121094 327.492188 92.207031 327.378906 92.292969 C 327.285156 92.34375 327.179688 92.371094 327.066406 92.371094 C 326.960938 92.371094 326.882812 92.324219 326.832031 92.230469 L 325.769531 90.574219 C 325.707031 90.480469 325.675781 90.375 325.675781 90.261719 C 325.675781 90.144531 325.714844 90.0625 325.800781 90.011719 Z M 329.164062 91.773438 C 329.320312 91.671875 329.4375 91.632812 329.523438 91.664062 C 329.617188 91.6875 329.710938 91.769531 329.804688 91.914062 C 329.90625 92.070312 329.953125 92.203125 329.945312 92.304688 C 329.933594 92.398438 329.871094 92.484375 329.757812 92.554688 C 329.496094 92.71875 329.328125 92.980469 329.257812 93.335938 C 329.195312 93.6875 329.304688 94.089844 329.585938 94.539062 C 330.167969 95.433594 330.929688 95.585938 331.867188 94.992188 L 332.039062 94.867188 C 332.871094 94.335938 332.996094 93.621094 332.414062 92.726562 C 332.289062 92.519531 332.339844 92.34375 332.570312 92.195312 C 332.808594 92.039062 332.992188 92.066406 333.117188 92.273438 C 333.367188 92.65625 333.640625 92.890625 333.945312 92.976562 C 334.257812 93.058594 334.636719 92.953125 335.085938 92.664062 C 335.875 92.164062 336.027344 91.535156 335.539062 90.773438 C 335.257812 90.335938 334.960938 90.09375 334.648438 90.039062 C 334.34375 89.988281 334.0625 90.050781 333.804688 90.226562 C 333.554688 90.382812 333.34375 90.328125 333.179688 90.054688 C 333.054688 89.867188 333 89.726562 333.023438 89.632812 C 333.042969 89.539062 333.136719 89.441406 333.304688 89.335938 C 333.480469 89.222656 333.679688 89.144531 333.898438 89.101562 C 334.125 89.050781 334.371094 89.035156 334.632812 89.054688 C 334.902344 89.078125 335.183594 89.195312 335.476562 89.414062 C 335.777344 89.625 336.054688 89.921875 336.304688 90.304688 C 337.125 91.597656 336.945312 92.621094 335.757812 93.382812 C 335.328125 93.652344 334.921875 93.808594 334.539062 93.851562 C 334.152344 93.890625 333.820312 93.828125 333.539062 93.664062 C 333.703125 94.515625 333.386719 95.199219 332.585938 95.710938 L 332.414062 95.835938 C 331.664062 96.304688 330.980469 96.449219 330.367188 96.273438 C 329.761719 96.105469 329.246094 95.695312 328.820312 95.039062 C 328.371094 94.339844 328.203125 93.6875 328.320312 93.085938 C 328.445312 92.492188 328.726562 92.054688 329.164062 91.773438 Z M 331.246094 97.667969 C 331.402344 97.574219 331.5625 97.542969 331.730469 97.574219 C 331.894531 97.59375 332.027344 97.675781 332.121094 97.824219 C 332.214844 97.96875 332.246094 98.125 332.214844 98.292969 C 332.183594 98.457031 332.082031 98.59375 331.917969 98.699219 C 331.8125 98.769531 331.3125 98.886719 330.417969 99.042969 C 330.304688 99.0625 330.214844 99.019531 330.152344 98.917969 C 330.101562 98.832031 330.082031 98.746094 330.089844 98.652344 C 330.089844 98.566406 330.128906 98.503906 330.199219 98.464844 C 330.242188 98.433594 330.285156 98.410156 330.324219 98.402344 L 330.964844 98.292969 C 330.921875 98.03125 331.015625 97.824219 331.246094 97.667969 Z M 333.542969 98.539062 C 333.8125 98.363281 334.035156 98.421875 334.214844 98.710938 C 334.402344 98.992188 334.378906 99.207031 334.152344 99.351562 C 333.828125 99.558594 333.652344 99.84375 333.621094 100.210938 C 333.597656 100.585938 333.707031 100.960938 333.949219 101.335938 C 334.230469 101.761719 334.5625 102.015625 334.949219 102.101562 C 335.34375 102.183594 335.769531 102.074219 336.230469 101.773438 L 336.433594 101.648438 C 336.890625 101.355469 337.15625 101.015625 337.230469 100.632812 C 337.3125 100.246094 337.21875 99.84375 336.949219 99.429688 L 336.027344 97.992188 C 335.859375 97.734375 335.886719 97.535156 336.105469 97.398438 C 336.175781 97.347656 336.261719 97.300781 336.355469 97.257812 L 339.324219 95.664062 C 339.519531 95.550781 339.667969 95.5625 339.761719 95.695312 L 341.621094 98.601562 C 341.683594 98.695312 341.691406 98.789062 341.652344 98.882812 C 341.609375 98.976562 341.535156 99.0625 341.433594 99.132812 C 341.328125 99.195312 341.21875 99.226562 341.105469 99.226562 C 341 99.226562 340.917969 99.179688 340.855469 99.085938 L 339.324219 96.695312 L 337.011719 97.960938 L 337.667969 98.976562 C 338.082031 99.632812 338.25 100.265625 338.167969 100.882812 C 338.082031 101.496094 337.683594 102.03125 336.964844 102.492188 L 336.761719 102.617188 C 336.019531 103.09375 335.34375 103.25 334.730469 103.085938 C 334.125 102.917969 333.613281 102.507812 333.199219 101.851562 C 332.761719 101.171875 332.582031 100.527344 332.667969 99.914062 C 332.761719 99.3125 333.050781 98.851562 333.542969 98.539062 Z M 335.125 104.359375 C 335.238281 104.273438 335.34375 104.242188 335.4375 104.25 C 335.539062 104.261719 335.617188 104.304688 335.671875 104.390625 L 336.453125 105.59375 L 342.921875 101.453125 L 342.140625 100.25 C 342.085938 100.167969 342.082031 100.074219 342.125 99.96875 C 342.164062 99.867188 342.238281 99.78125 342.34375 99.71875 C 342.445312 99.648438 342.550781 99.617188 342.65625 99.625 C 342.757812 99.625 342.835938 99.667969 342.890625 99.75 L 343.96875 101.40625 C 344.03125 101.511719 344.054688 101.621094 344.046875 101.734375 C 344.046875 101.851562 344.003906 101.933594 343.921875 101.984375 L 336.53125 106.734375 C 336.445312 106.785156 336.351562 106.789062 336.25 106.75 C 336.15625 106.707031 336.078125 106.632812 336.015625 106.53125 L 334.9375 104.875 C 334.882812 104.789062 334.878906 104.695312 334.921875 104.59375 C 334.960938 104.488281 335.03125 104.410156 335.125 104.359375 Z M 340.113281 109.035156 L 344.394531 106.285156 C 344.925781 105.941406 345.496094 105.847656 346.113281 106.003906 C 346.738281 106.152344 347.214844 106.484375 347.550781 107.003906 C 347.726562 107.277344 347.691406 107.496094 347.441406 107.660156 C 347.324219 107.734375 347.214844 107.769531 347.113281 107.769531 C 347.019531 107.761719 346.941406 107.714844 346.878906 107.628906 C 346.636719 107.265625 346.324219 107.042969 345.941406 106.957031 C 345.566406 106.875 345.226562 106.933594 344.925781 107.128906 L 340.644531 109.878906 C 340.277344 110.105469 340.097656 110.394531 340.097656 110.738281 C 340.105469 111.082031 340.214844 111.417969 340.425781 111.753906 C 340.550781 111.941406 340.488281 112.117188 340.238281 112.285156 C 339.988281 112.441406 339.769531 112.378906 339.582031 112.097656 C 339.238281 111.554688 339.097656 110.996094 339.160156 110.425781 C 339.230469 109.851562 339.550781 109.390625 340.113281 109.035156 Z M 341.0625 112.445312 C 341.144531 112.394531 341.242188 112.367188 341.359375 112.367188 C 341.484375 112.367188 341.570312 112.410156 341.625 112.492188 C 341.664062 112.546875 341.675781 112.640625 341.65625 112.789062 C 341.644531 112.945312 341.660156 113.140625 341.703125 113.382812 C 341.753906 113.632812 341.859375 113.886719 342.015625 114.148438 C 342.234375 114.480469 342.453125 114.683594 342.671875 114.757812 C 342.890625 114.828125 343.09375 114.804688 343.28125 114.679688 C 343.5 114.542969 343.617188 114.34375 343.640625 114.085938 C 343.660156 113.824219 343.625 113.554688 343.53125 113.273438 C 343.445312 112.992188 343.367188 112.703125 343.296875 112.414062 C 343.222656 112.125 343.222656 111.832031 343.296875 111.539062 C 343.378906 111.25 343.578125 111.003906 343.890625 110.804688 C 344.273438 110.554688 344.691406 110.476562 345.140625 110.570312 C 345.597656 110.664062 346.003906 110.992188 346.359375 111.554688 C 346.597656 111.910156 346.753906 112.269531 346.828125 112.632812 C 346.910156 113.007812 346.878906 113.234375 346.734375 113.320312 C 346.660156 113.371094 346.550781 113.398438 346.40625 113.398438 C 346.257812 113.40625 346.15625 113.367188 346.09375 113.273438 C 346.082031 113.242188 346.050781 113.078125 346 112.789062 C 345.945312 112.5 345.847656 112.238281 345.703125 112.007812 C 345.503906 111.695312 345.28125 111.515625 345.03125 111.460938 C 344.789062 111.398438 344.578125 111.425781 344.390625 111.539062 C 344.210938 111.65625 344.125 111.832031 344.125 112.070312 C 344.125 112.3125 344.171875 112.570312 344.265625 112.851562 C 344.367188 113.140625 344.453125 113.433594 344.515625 113.726562 C 344.585938 114.027344 344.570312 114.328125 344.46875 114.632812 C 344.363281 114.933594 344.144531 115.195312 343.8125 115.414062 C 343.382812 115.683594 342.953125 115.746094 342.515625 115.601562 C 342.085938 115.464844 341.707031 115.125 341.375 114.585938 C 341.070312 114.136719 340.894531 113.695312 340.84375 113.257812 C 340.800781 112.828125 340.875 112.5625 341.0625 112.445312 Z M 343.460938 117.042969 L 350.539062 112.496094 C 350.621094 112.433594 350.714844 112.425781 350.820312 112.464844 C 350.933594 112.507812 351.027344 112.589844 351.101562 112.714844 C 351.183594 112.832031 351.21875 112.949219 351.210938 113.074219 C 351.210938 113.191406 351.167969 113.277344 351.085938 113.339844 L 344.007812 117.886719 C 343.945312 117.925781 343.851562 117.925781 343.726562 117.886719 C 343.601562 117.84375 343.5 117.765625 343.429688 117.652344 C 343.355469 117.535156 343.324219 117.417969 343.335938 117.292969 C 343.34375 117.167969 343.386719 117.082031 343.460938 117.042969 Z M 346.289062 117.957031 L 347.320312 117.300781 C 347.839844 116.96875 348.417969 116.875 349.054688 117.019531 C 349.6875 117.167969 350.179688 117.511719 350.523438 118.050781 C 350.875 118.582031 350.984375 119.167969 350.851562 119.816406 C 350.726562 120.460938 350.402344 120.957031 349.882812 121.300781 L 348.851562 121.957031 C 348.339844 122.289062 347.757812 122.378906 347.101562 122.222656 C 346.445312 122.066406 345.945312 121.722656 345.601562 121.191406 C 345.265625 120.667969 345.167969 120.082031 345.304688 119.425781 C 345.449219 118.777344 345.777344 118.292969 346.289062 117.957031 Z M 346.820312 118.800781 C 346.507812 118.996094 346.296875 119.289062 346.195312 119.675781 C 346.101562 120.058594 346.15625 120.410156 346.367188 120.722656 C 346.5625 121.035156 346.859375 121.226562 347.257812 121.300781 C 347.652344 121.371094 348 121.308594 348.304688 121.113281 L 349.335938 120.457031 C 349.636719 120.257812 349.835938 119.964844 349.929688 119.582031 C 350.03125 119.195312 349.980469 118.847656 349.773438 118.535156 C 349.574219 118.222656 349.277344 118.03125 348.882812 117.957031 C 348.496094 117.886719 348.152344 117.949219 347.851562 118.144531 Z M 351.769531 120.851562 C 351.871094 120.789062 351.992188 120.789062 352.128906 120.851562 C 352.273438 120.914062 352.386719 121.007812 352.472656 121.132812 C 352.566406 121.28125 352.566406 121.410156 352.472656 121.523438 L 349.878906 124.929688 L 353.550781 123.914062 C 353.707031 123.871094 353.835938 123.933594 353.941406 124.101562 C 354.054688 124.265625 354.054688 124.414062 353.941406 124.539062 L 351.457031 127.460938 L 355.675781 126.492188 C 355.800781 126.4375 355.910156 126.484375 356.003906 126.632812 C 356.074219 126.757812 356.113281 126.898438 356.113281 127.054688 C 356.113281 127.210938 356.058594 127.320312 355.957031 127.382812 C 355.902344 127.421875 355.847656 127.449219 355.785156 127.460938 L 350.597656 128.585938 C 350.429688 128.617188 350.292969 128.542969 350.191406 128.367188 C 350.066406 128.179688 350.050781 128.023438 350.144531 127.898438 L 352.488281 125.023438 L 348.941406 125.945312 C 348.761719 125.984375 348.613281 125.914062 348.488281 125.726562 C 348.371094 125.546875 348.371094 125.386719 348.488281 125.242188 L 351.644531 121.007812 C 351.707031 120.925781 351.746094 120.875 351.769531 120.851562 Z M 353.429688 132.546875 L 354.414062 131.90625 C 354.714844 131.71875 355.085938 131.648438 355.523438 131.6875 C 355.960938 131.730469 356.402344 131.839844 356.851562 132.015625 L 358.210938 132.53125 C 358.65625 132.707031 359.101562 132.816406 359.539062 132.859375 C 359.984375 132.898438 360.355469 132.828125 360.648438 132.640625 C 360.96875 132.429688 361.183594 132.148438 361.289062 131.78125 C 361.402344 131.40625 361.335938 131.023438 361.085938 130.625 C 360.867188 130.292969 360.589844 130.085938 360.257812 130 C 359.933594 129.90625 359.601562 129.96875 359.257812 130.1875 C 359.164062 130.25 359.054688 130.261719 358.929688 130.21875 C 358.8125 130.179688 358.714844 130.09375 358.632812 129.96875 C 358.464844 129.710938 358.546875 129.476562 358.882812 129.265625 C 359.390625 128.933594 359.929688 128.855469 360.492188 129.03125 C 361.054688 129.210938 361.511719 129.574219 361.867188 130.125 C 362.242188 130.71875 362.371094 131.335938 362.257812 131.96875 C 362.140625 132.601562 361.804688 133.097656 361.242188 133.453125 C 360.898438 133.671875 360.515625 133.796875 360.101562 133.828125 C 359.695312 133.859375 359.304688 133.820312 358.929688 133.71875 C 358.554688 133.613281 358.167969 133.484375 357.773438 133.328125 L 356.679688 132.90625 C 356.355469 132.769531 356.039062 132.679688 355.726562 132.640625 C 355.414062 132.609375 355.15625 132.65625 354.960938 132.78125 L 354.445312 133.125 L 356.445312 136.21875 C 356.496094 136.300781 356.5 136.394531 356.460938 136.5 C 356.417969 136.601562 356.34375 136.6875 356.242188 136.75 C 356.148438 136.8125 356.042969 136.835938 355.929688 136.828125 C 355.8125 136.828125 355.730469 136.785156 355.679688 136.703125 L 353.367188 133.109375 C 353.3125 133.023438 353.289062 132.921875 353.289062 132.796875 C 353.296875 132.679688 353.34375 132.597656 353.429688 132.546875 Z M 356.347656 137.371094 C 356.597656 137.207031 356.777344 137.214844 356.894531 137.402344 C 357.113281 137.734375 357.378906 137.972656 357.691406 138.121094 C 358.003906 138.265625 358.339844 138.222656 358.707031 137.996094 L 362.988281 135.246094 C 363.289062 135.050781 363.480469 134.769531 363.566406 134.402344 C 363.660156 134.027344 363.585938 133.652344 363.347656 133.277344 C 363.292969 133.195312 363.285156 133.105469 363.316406 133.011719 C 363.355469 132.910156 363.433594 132.820312 363.550781 132.746094 C 363.800781 132.582031 364.007812 132.632812 364.175781 132.902344 C 364.519531 133.425781 364.628906 134.003906 364.503906 134.636719 C 364.386719 135.261719 364.066406 135.746094 363.535156 136.089844 L 359.253906 138.839844 C 358.691406 139.191406 358.132812 139.28125 357.582031 139.105469 C 357.039062 138.9375 356.589844 138.578125 356.238281 138.027344 C 356.058594 137.746094 356.097656 137.527344 356.347656 137.371094 Z M 360.75 142.054688 C 360.863281 141.984375 360.992188 141.957031 361.140625 141.976562 C 361.285156 141.988281 361.390625 142.035156 361.453125 142.117188 C 361.484375 142.171875 361.488281 142.273438 361.46875 142.429688 C 361.445312 142.574219 361.421875 142.726562 361.390625 142.882812 C 361.359375 143.039062 361.367188 143.246094 361.421875 143.507812 C 361.472656 143.777344 361.570312 144.054688 361.71875 144.335938 L 364.40625 142.601562 L 364.25 141.929688 C 364.21875 141.773438 364.191406 141.5625 364.171875 141.289062 C 364.160156 141.007812 364.179688 140.785156 364.234375 140.617188 C 364.296875 140.441406 364.398438 140.25 364.546875 140.039062 C 364.703125 139.820312 364.898438 139.632812 365.140625 139.476562 C 365.453125 139.28125 365.753906 139.164062 366.046875 139.132812 C 366.347656 139.09375 366.625 139.125 366.875 139.226562 C 367.132812 139.332031 367.363281 139.460938 367.5625 139.617188 C 367.769531 139.773438 367.96875 139.96875 368.15625 140.195312 L 368.453125 140.007812 C 368.503906 139.976562 368.566406 139.972656 368.640625 139.992188 C 368.710938 140.003906 368.773438 140.050781 368.828125 140.132812 C 368.859375 140.195312 368.867188 140.273438 368.859375 140.367188 C 368.859375 140.453125 368.832031 140.507812 368.78125 140.539062 L 368.484375 140.726562 C 368.734375 141.132812 368.90625 141.539062 369 141.945312 C 369.09375 142.34375 369.046875 142.601562 368.859375 142.726562 C 368.765625 142.789062 368.640625 142.820312 368.484375 142.820312 C 368.335938 142.828125 368.226562 142.777344 368.15625 142.664062 C 368.132812 142.632812 368.101562 142.453125 368.0625 142.132812 C 368.019531 141.8125 367.914062 141.503906 367.75 141.210938 L 365.421875 142.695312 C 365.515625 143.007812 365.566406 143.277344 365.578125 143.507812 C 365.597656 143.734375 365.59375 143.996094 365.5625 144.289062 C 365.53125 144.589844 365.421875 144.867188 365.234375 145.117188 C 365.046875 145.367188 364.785156 145.601562 364.453125 145.820312 C 363.867188 146.195312 363.300781 146.335938 362.75 146.242188 C 362.195312 146.148438 361.707031 145.851562 361.28125 145.351562 L 360.921875 145.585938 C 360.867188 145.617188 360.800781 145.617188 360.71875 145.585938 C 360.632812 145.5625 360.578125 145.523438 360.546875 145.460938 C 360.492188 145.375 360.472656 145.292969 360.484375 145.210938 C 360.503906 145.136719 360.539062 145.085938 360.59375 145.054688 L 360.9375 144.835938 C 360.5625 144.25 360.375 143.679688 360.375 143.117188 C 360.382812 142.5625 360.507812 142.210938 360.75 142.054688 Z M 365.734375 140.242188 C 365.421875 140.453125 365.242188 140.695312 365.203125 140.976562 C 365.171875 141.257812 365.203125 141.628906 365.296875 142.085938 L 367.421875 140.726562 C 366.867188 140.039062 366.304688 139.878906 365.734375 140.242188 Z M 362.0625 144.789062 C 362.59375 145.390625 363.191406 145.480469 363.859375 145.054688 C 364.210938 144.824219 364.429688 144.558594 364.515625 144.257812 C 364.597656 143.964844 364.601562 143.617188 364.53125 143.210938 Z M 366.074219 148.777344 L 367.105469 148.121094 C 367.636719 147.777344 368.203125 147.664062 368.808594 147.777344 C 369.421875 147.894531 369.886719 148.195312 370.199219 148.683594 C 370.394531 148.996094 370.496094 149.308594 370.496094 149.621094 C 370.496094 149.941406 370.425781 150.238281 370.292969 150.511719 L 373.589844 148.386719 C 373.671875 148.324219 373.765625 148.316406 373.871094 148.355469 C 373.984375 148.398438 374.078125 148.480469 374.152344 148.605469 C 374.234375 148.730469 374.269531 148.851562 374.261719 148.964844 C 374.25 149.070312 374.203125 149.152344 374.121094 149.214844 L 367.042969 153.761719 C 366.96875 153.800781 366.875 153.800781 366.761719 153.761719 C 366.644531 153.730469 366.550781 153.65625 366.480469 153.542969 C 366.417969 153.4375 366.390625 153.328125 366.402344 153.214844 C 366.421875 153.097656 366.46875 153.019531 366.542969 152.980469 L 366.949219 152.714844 C 366.644531 152.734375 366.339844 152.660156 366.027344 152.496094 C 365.714844 152.339844 365.457031 152.113281 365.261719 151.824219 C 364.957031 151.34375 364.890625 150.796875 365.058594 150.183594 C 365.222656 149.578125 365.5625 149.113281 366.074219 148.777344 Z M 366.605469 149.621094 C 366.300781 149.816406 366.097656 150.109375 365.996094 150.496094 C 365.890625 150.878906 365.9375 151.222656 366.136719 151.527344 C 366.332031 151.828125 366.621094 152.019531 366.996094 152.105469 C 367.378906 152.199219 367.65625 152.191406 367.824219 152.089844 L 369.121094 151.261719 C 369.472656 151.03125 369.683594 150.730469 369.746094 150.355469 C 369.816406 149.988281 369.761719 149.65625 369.574219 149.355469 C 369.363281 149.042969 369.0625 148.851562 368.667969 148.777344 C 368.28125 148.707031 367.9375 148.769531 367.636719 148.964844 Z M 369.277344 153.765625 L 370.339844 153.09375 C 370.859375 152.75 371.433594 152.65625 372.058594 152.8125 C 372.683594 152.96875 373.171875 153.324219 373.527344 153.875 C 373.871094 154.398438 373.984375 154.957031 373.871094 155.5625 C 373.765625 156.175781 373.449219 156.65625 372.917969 157 C 372.71875 157.125 372.546875 157.203125 372.402344 157.234375 C 372.253906 157.265625 372.128906 157.25 372.027344 157.1875 C 371.921875 157.125 371.832031 157.050781 371.761719 156.96875 C 371.6875 156.894531 371.605469 156.78125 371.511719 156.625 L 370.089844 154.421875 L 369.792969 154.625 C 369.40625 154.863281 369.1875 155.1875 369.136719 155.59375 C 369.09375 156 369.207031 156.414062 369.480469 156.84375 C 369.625 157.070312 369.78125 157.242188 369.949219 157.359375 C 370.125 157.484375 370.28125 157.570312 370.417969 157.625 C 370.550781 157.6875 370.636719 157.75 370.667969 157.8125 C 370.730469 157.90625 370.738281 158.015625 370.699219 158.140625 C 370.65625 158.265625 370.589844 158.351562 370.496094 158.40625 C 370.347656 158.5 370.09375 158.441406 369.730469 158.234375 C 369.375 158.035156 369.050781 157.710938 368.761719 157.265625 C 368.34375 156.609375 368.175781 155.953125 368.261719 155.296875 C 368.355469 154.648438 368.691406 154.140625 369.277344 153.765625 Z M 370.652344 154.0625 L 371.855469 155.921875 C 371.96875 156.097656 372.066406 156.203125 372.152344 156.234375 C 372.234375 156.273438 372.332031 156.253906 372.449219 156.171875 C 372.761719 155.972656 372.957031 155.6875 373.042969 155.3125 C 373.136719 154.945312 373.078125 154.609375 372.871094 154.296875 C 372.660156 153.976562 372.375 153.765625 372.011719 153.671875 C 371.65625 153.578125 371.324219 153.636719 371.011719 153.84375 Z M 370.824219 159.664062 L 375.027344 156.960938 C 375.109375 156.910156 375.203125 156.90625 375.308594 156.945312 C 375.410156 156.988281 375.503906 157.070312 375.589844 157.195312 C 375.652344 157.289062 375.675781 157.394531 375.667969 157.507812 C 375.65625 157.625 375.613281 157.707031 375.542969 157.757812 L 375.121094 158.039062 C 375.410156 158 375.703125 158.054688 375.996094 158.210938 C 376.296875 158.359375 376.550781 158.585938 376.761719 158.898438 C 377.0625 159.367188 377.136719 159.898438 376.980469 160.492188 C 376.832031 161.09375 376.496094 161.570312 375.964844 161.914062 L 373.355469 163.585938 C 373.261719 163.648438 373.160156 163.652344 373.058594 163.601562 C 372.953125 163.546875 372.863281 163.46875 372.792969 163.367188 C 372.71875 163.25 372.675781 163.136719 372.667969 163.023438 C 372.667969 162.90625 372.714844 162.820312 372.808594 162.757812 L 375.417969 161.085938 C 375.71875 160.886719 375.917969 160.59375 376.011719 160.210938 C 376.113281 159.824219 376.066406 159.476562 375.871094 159.164062 C 375.683594 158.882812 375.40625 158.703125 375.042969 158.617188 C 374.6875 158.535156 374.332031 158.609375 373.980469 158.835938 L 371.371094 160.507812 C 371.308594 160.546875 371.214844 160.542969 371.089844 160.492188 C 370.964844 160.449219 370.871094 160.375 370.808594 160.273438 C 370.734375 160.15625 370.699219 160.039062 370.699219 159.914062 C 370.707031 159.789062 370.75 159.703125 370.824219 159.664062 Z M 374.289062 164.195312 C 374.371094 164.144531 374.46875 164.117188 374.585938 164.117188 C 374.710938 164.117188 374.796875 164.160156 374.851562 164.242188 C 374.890625 164.296875 374.902344 164.390625 374.882812 164.539062 C 374.871094 164.695312 374.886719 164.890625 374.929688 165.132812 C 374.980469 165.382812 375.085938 165.636719 375.242188 165.898438 C 375.460938 166.230469 375.679688 166.433594 375.898438 166.507812 C 376.117188 166.578125 376.320312 166.554688 376.507812 166.429688 C 376.726562 166.292969 376.84375 166.09375 376.867188 165.835938 C 376.886719 165.574219 376.851562 165.304688 376.757812 165.023438 C 376.671875 164.742188 376.59375 164.453125 376.523438 164.164062 C 376.449219 163.875 376.449219 163.582031 376.523438 163.289062 C 376.605469 163 376.804688 162.753906 377.117188 162.554688 C 377.5 162.304688 377.917969 162.226562 378.367188 162.320312 C 378.824219 162.414062 379.230469 162.742188 379.585938 163.304688 C 379.824219 163.660156 379.980469 164.019531 380.054688 164.382812 C 380.136719 164.757812 380.105469 164.984375 379.960938 165.070312 C 379.886719 165.121094 379.777344 165.148438 379.632812 165.148438 C 379.484375 165.15625 379.382812 165.117188 379.320312 165.023438 C 379.308594 164.992188 379.277344 164.828125 379.226562 164.539062 C 379.171875 164.25 379.074219 163.988281 378.929688 163.757812 C 378.730469 163.445312 378.507812 163.265625 378.257812 163.210938 C 378.015625 163.148438 377.804688 163.175781 377.617188 163.289062 C 377.4375 163.40625 377.351562 163.582031 377.351562 163.820312 C 377.351562 164.0625 377.398438 164.320312 377.492188 164.601562 C 377.59375 164.890625 377.679688 165.183594 377.742188 165.476562 C 377.8125 165.777344 377.796875 166.078125 377.695312 166.382812 C 377.589844 166.683594 377.371094 166.945312 377.039062 167.164062 C 376.609375 167.433594 376.179688 167.496094 375.742188 167.351562 C 375.3125 167.214844 374.933594 166.875 374.601562 166.335938 C 374.296875 165.886719 374.121094 165.445312 374.070312 165.007812 C 374.027344 164.578125 374.101562 164.3125 374.289062 164.195312 Z M 382.613281 164.917969 C 382.644531 164.753906 382.722656 164.632812 382.847656 164.558594 C 382.972656 164.476562 383.113281 164.457031 383.269531 164.496094 C 383.433594 164.527344 383.570312 164.621094 383.675781 164.777344 C 383.757812 164.914062 383.785156 165.066406 383.753906 165.230469 C 383.722656 165.398438 383.644531 165.523438 383.519531 165.605469 C 383.394531 165.679688 383.246094 165.695312 383.082031 165.652344 C 382.914062 165.613281 382.785156 165.523438 382.691406 165.386719 C 382.605469 165.242188 382.582031 165.085938 382.613281 164.917969 Z M 376.628906 168.699219 L 380.832031 165.996094 C 380.914062 165.945312 381.007812 165.945312 381.113281 165.996094 C 381.226562 166.039062 381.320312 166.117188 381.394531 166.230469 C 381.464844 166.355469 381.503906 166.476562 381.503906 166.589844 C 381.503906 166.707031 381.460938 166.789062 381.378906 166.839844 L 377.175781 169.542969 C 377.113281 169.582031 377.019531 169.582031 376.894531 169.542969 C 376.777344 169.5 376.683594 169.421875 376.613281 169.308594 C 376.539062 169.191406 376.503906 169.074219 376.503906 168.949219 C 376.511719 168.824219 376.554688 168.738281 376.628906 168.699219 Z M 379.164062 169.917969 L 384.351562 166.589844 C 384.433594 166.539062 384.53125 166.539062 384.648438 166.589844 C 384.761719 166.632812 384.851562 166.699219 384.914062 166.792969 C 384.984375 166.910156 385.015625 167.035156 385.007812 167.167969 C 385.007812 167.292969 384.964844 167.382812 384.882812 167.433594 L 382.945312 168.667969 L 383.757812 169.933594 C 383.808594 170.007812 383.8125 170.089844 383.773438 170.183594 C 383.742188 170.269531 383.679688 170.332031 383.585938 170.386719 C 383.5 170.449219 383.414062 170.472656 383.320312 170.464844 C 383.226562 170.464844 383.152344 170.425781 383.101562 170.355469 L 382.289062 169.089844 L 379.695312 170.761719 C 379.402344 170.949219 379.234375 171.140625 379.195312 171.339844 C 379.152344 171.535156 379.230469 171.792969 379.429688 172.105469 L 379.632812 172.417969 C 379.703125 172.53125 379.726562 172.640625 379.695312 172.746094 C 379.671875 172.859375 379.609375 172.949219 379.507812 173.011719 C 379.402344 173.082031 379.292969 173.105469 379.179688 173.074219 C 379.0625 173.050781 378.96875 172.988281 378.898438 172.886719 L 378.695312 172.574219 C 377.984375 171.457031 378.140625 170.574219 379.164062 169.917969 Z M 383.785156 170.71875 C 383.898438 170.65625 384.035156 170.664062 384.191406 170.734375 C 384.347656 170.796875 384.464844 170.890625 384.550781 171.015625 C 384.632812 171.152344 384.632812 171.277344 384.550781 171.390625 L 381.878906 174.984375 L 386.191406 173.921875 C 386.324219 173.898438 386.429688 173.953125 386.503906 174.078125 C 386.574219 174.191406 386.613281 174.335938 386.613281 174.515625 C 386.621094 174.691406 386.570312 174.816406 386.457031 174.890625 C 386.414062 174.910156 386.371094 174.921875 386.332031 174.921875 L 381.238281 176.03125 L 380.597656 176.171875 C 380.492188 176.179688 380.289062 176.207031 379.988281 176.25 C 379.695312 176.300781 379.476562 176.328125 379.332031 176.328125 C 379.1875 176.328125 378.996094 176.316406 378.753906 176.296875 C 378.515625 176.285156 378.324219 176.25 378.175781 176.1875 C 378.03125 176.125 377.875 176.03125 377.707031 175.90625 C 377.542969 175.78125 377.40625 175.632812 377.300781 175.46875 C 377.125 175.195312 377.160156 174.976562 377.410156 174.8125 C 377.652344 174.664062 377.824219 174.675781 377.925781 174.84375 C 378.125 175.144531 378.488281 175.328125 379.019531 175.390625 C 379.539062 175.460938 380.097656 175.378906 380.691406 175.140625 L 383.691406 170.828125 C 383.722656 170.789062 383.753906 170.75 383.785156 170.71875 Z M 389.273438 176.246094 C 389.40625 176.164062 389.558594 176.152344 389.726562 176.214844 L 391.414062 176.433594 C 391.570312 176.457031 391.671875 176.507812 391.726562 176.589844 C 391.789062 176.695312 391.820312 176.804688 391.820312 176.917969 C 391.820312 177.035156 391.773438 177.121094 391.679688 177.183594 L 384.882812 181.542969 C 384.789062 181.605469 384.683594 181.609375 384.570312 181.558594 C 384.464844 181.503906 384.375 181.417969 384.304688 181.292969 C 384.230469 181.175781 384.195312 181.0625 384.195312 180.949219 C 384.195312 180.832031 384.242188 180.746094 384.335938 180.683594 L 390.148438 176.949219 L 389.351562 176.933594 C 389.234375 176.914062 389.15625 176.867188 389.117188 176.792969 C 389.054688 176.710938 389.039062 176.617188 389.070312 176.511719 C 389.109375 176.398438 389.179688 176.308594 389.273438 176.246094 Z M 387.507812 181.5625 L 390.554688 179.609375 C 391.3125 179.121094 391.996094 178.96875 392.601562 179.15625 C 393.203125 179.335938 393.71875 179.757812 394.148438 180.421875 C 394.585938 181.089844 394.75 181.726562 394.648438 182.328125 C 394.554688 182.929688 394.265625 183.382812 393.789062 183.6875 C 393.539062 183.84375 393.324219 183.789062 393.148438 183.53125 C 392.960938 183.238281 392.980469 183.019531 393.210938 182.875 C 393.511719 182.675781 393.671875 182.390625 393.695312 182.015625 C 393.726562 181.640625 393.621094 181.265625 393.382812 180.890625 C 392.808594 179.996094 392.046875 179.855469 391.101562 180.46875 L 389.679688 181.375 C 390.304688 181.4375 390.824219 181.796875 391.242188 182.453125 C 392.117188 183.804688 391.875 184.914062 390.523438 185.78125 L 390.304688 185.921875 C 389.542969 186.410156 388.855469 186.570312 388.242188 186.40625 C 387.636719 186.238281 387.121094 185.828125 386.695312 185.171875 C 386.277344 184.515625 386.117188 183.867188 386.210938 183.234375 C 386.3125 182.609375 386.746094 182.054688 387.507812 181.5625 Z M 388.023438 182.453125 C 387.0625 183.054688 386.867188 183.800781 387.429688 184.6875 C 388 185.570312 388.765625 185.710938 389.726562 185.109375 L 389.929688 184.96875 C 390.84375 184.382812 391.015625 183.648438 390.445312 182.765625 C 389.882812 181.882812 389.171875 181.710938 388.320312 182.25 Z M 391.105469 189.332031 C 391.21875 189.261719 391.347656 189.234375 391.496094 189.253906 C 391.640625 189.265625 391.746094 189.3125 391.808594 189.394531 C 391.839844 189.449219 391.84375 189.550781 391.824219 189.707031 C 391.800781 189.851562 391.777344 190.003906 391.746094 190.160156 C 391.714844 190.316406 391.722656 190.523438 391.777344 190.785156 C 391.828125 191.054688 391.925781 191.332031 392.074219 191.613281 L 394.761719 189.878906 L 394.605469 189.207031 C 394.574219 189.050781 394.546875 188.839844 394.527344 188.566406 C 394.515625 188.285156 394.535156 188.0625 394.589844 187.894531 C 394.652344 187.71875 394.753906 187.527344 394.902344 187.316406 C 395.058594 187.097656 395.253906 186.910156 395.496094 186.753906 C 395.808594 186.558594 396.109375 186.441406 396.402344 186.410156 C 396.703125 186.371094 396.980469 186.402344 397.230469 186.503906 C 397.488281 186.609375 397.71875 186.738281 397.917969 186.894531 C 398.125 187.050781 398.324219 187.246094 398.511719 187.472656 L 398.808594 187.285156 C 398.859375 187.253906 398.921875 187.25 398.996094 187.269531 C 399.066406 187.28125 399.128906 187.328125 399.183594 187.410156 C 399.214844 187.472656 399.222656 187.550781 399.214844 187.644531 C 399.214844 187.730469 399.1875 187.785156 399.136719 187.816406 L 398.839844 188.003906 C 399.089844 188.410156 399.261719 188.816406 399.355469 189.222656 C 399.449219 189.621094 399.402344 189.878906 399.214844 190.003906 C 399.121094 190.066406 398.996094 190.097656 398.839844 190.097656 C 398.691406 190.105469 398.582031 190.054688 398.511719 189.941406 C 398.488281 189.910156 398.457031 189.730469 398.417969 189.410156 C 398.375 189.089844 398.269531 188.78125 398.105469 188.488281 L 395.777344 189.972656 C 395.871094 190.285156 395.921875 190.554688 395.933594 190.785156 C 395.953125 191.011719 395.949219 191.273438 395.917969 191.566406 C 395.886719 191.867188 395.777344 192.144531 395.589844 192.394531 C 395.402344 192.644531 395.140625 192.878906 394.808594 193.097656 C 394.222656 193.472656 393.65625 193.613281 393.105469 193.519531 C 392.550781 193.425781 392.0625 193.128906 391.636719 192.628906 L 391.277344 192.863281 C 391.222656 192.894531 391.15625 192.894531 391.074219 192.863281 C 390.988281 192.839844 390.933594 192.800781 390.902344 192.738281 C 390.847656 192.652344 390.828125 192.570312 390.839844 192.488281 C 390.859375 192.414062 390.894531 192.363281 390.949219 192.332031 L 391.292969 192.113281 C 390.917969 191.527344 390.730469 190.957031 390.730469 190.394531 C 390.738281 189.839844 390.863281 189.488281 391.105469 189.332031 Z M 396.089844 187.519531 C 395.777344 187.730469 395.597656 187.972656 395.558594 188.253906 C 395.527344 188.535156 395.558594 188.90625 395.652344 189.363281 L 397.777344 188.003906 C 397.222656 187.316406 396.660156 187.15625 396.089844 187.519531 Z M 392.417969 192.066406 C 392.949219 192.667969 393.546875 192.757812 394.214844 192.332031 C 394.566406 192.101562 394.785156 191.835938 394.871094 191.535156 C 394.953125 191.242188 394.957031 190.894531 394.886719 190.488281 Z M 402.027344 192.382812 C 402.097656 192.34375 402.183594 192.34375 402.277344 192.382812 C 402.371094 192.425781 402.441406 192.492188 402.496094 192.585938 C 402.558594 192.679688 402.589844 192.785156 402.589844 192.898438 C 402.597656 193.003906 402.566406 193.078125 402.496094 193.117188 L 400.964844 193.960938 C 400.890625 194.003906 400.8125 194.023438 400.730469 194.023438 C 400.644531 194.015625 400.578125 193.960938 400.527344 193.867188 C 400.410156 193.691406 400.441406 193.546875 400.621094 193.429688 Z M 402.902344 193.742188 C 402.972656 193.703125 403.058594 193.707031 403.152344 193.757812 C 403.246094 193.800781 403.324219 193.867188 403.386719 193.960938 C 403.449219 194.054688 403.480469 194.15625 403.480469 194.257812 C 403.480469 194.363281 403.441406 194.4375 403.371094 194.476562 L 401.839844 195.335938 C 401.765625 195.378906 401.6875 195.394531 401.605469 195.382812 C 401.519531 195.375 401.453125 195.328125 401.402344 195.242188 C 401.285156 195.066406 401.316406 194.921875 401.496094 194.804688 Z M 395.289062 200.496094 C 395.789062 200.183594 396.335938 200.21875 396.929688 200.605469 C 396.835938 200.1875 396.949219 199.875 397.273438 199.667969 C 397.574219 199.472656 397.929688 199.476562 398.335938 199.683594 C 398.398438 199.101562 398.703125 198.636719 399.257812 198.292969 L 399.585938 198.074219 C 400.074219 197.761719 400.574219 197.675781 401.085938 197.808594 C 401.605469 197.945312 402.039062 198.277344 402.382812 198.808594 C 402.671875 199.269531 402.796875 199.746094 402.757812 200.246094 C 403.320312 200.160156 403.683594 200.246094 403.851562 200.496094 C 403.921875 200.609375 403.949219 200.71875 403.929688 200.824219 C 403.90625 200.9375 403.855469 201.019531 403.773438 201.074219 C 403.667969 201.136719 403.554688 201.128906 403.429688 201.058594 C 403.21875 200.859375 402.964844 200.765625 402.664062 200.777344 C 402.539062 201.140625 402.28125 201.449219 401.898438 201.699219 L 401.570312 201.917969 C 401.070312 202.230469 400.554688 202.3125 400.023438 202.167969 C 399.492188 202.03125 399.054688 201.699219 398.710938 201.167969 C 398.542969 200.894531 398.4375 200.609375 398.398438 200.308594 C 398.179688 200.214844 398 200.207031 397.867188 200.292969 C 397.742188 200.375 397.695312 200.515625 397.726562 200.714844 C 397.765625 200.910156 397.851562 201.128906 397.976562 201.371094 C 398.109375 201.609375 398.234375 201.875 398.351562 202.167969 C 398.476562 202.46875 398.574219 202.761719 398.648438 203.042969 C 398.71875 203.324219 398.710938 203.597656 398.617188 203.871094 C 398.53125 204.152344 398.34375 204.386719 398.054688 204.574219 C 397.585938 204.875 397.101562 204.917969 396.601562 204.699219 C 396.101562 204.480469 395.660156 204.066406 395.273438 203.464844 C 394.890625 202.859375 394.691406 202.28125 394.679688 201.730469 C 394.671875 201.175781 394.875 200.765625 395.289062 200.496094 Z M 395.898438 201.246094 C 395.640625 201.410156 395.507812 201.660156 395.507812 201.996094 C 395.5 202.328125 395.617188 202.6875 395.867188 203.074219 C 396.105469 203.449219 396.375 203.699219 396.679688 203.824219 C 396.980469 203.949219 397.261719 203.925781 397.523438 203.761719 C 397.625 203.699219 397.703125 203.621094 397.757812 203.527344 C 397.820312 203.441406 397.851562 203.339844 397.851562 203.214844 C 397.851562 203.097656 397.839844 202.988281 397.820312 202.886719 C 397.808594 202.78125 397.773438 202.65625 397.710938 202.511719 C 397.65625 202.363281 397.609375 202.246094 397.570312 202.152344 C 397.527344 202.066406 397.464844 201.953125 397.382812 201.808594 C 397.308594 201.660156 397.261719 201.558594 397.242188 201.496094 C 396.71875 201.089844 396.273438 201.003906 395.898438 201.246094 Z M 399.773438 199.121094 C 399.4375 199.332031 399.226562 199.585938 399.132812 199.886719 C 399.046875 200.1875 399.105469 200.5 399.304688 200.824219 C 399.5 201.113281 399.757812 201.285156 400.070312 201.339844 C 400.390625 201.390625 400.71875 201.3125 401.054688 201.105469 L 401.382812 200.886719 C 401.683594 200.6875 401.882812 200.425781 401.976562 200.105469 C 402.070312 199.792969 402.015625 199.488281 401.820312 199.183594 C 401.621094 198.871094 401.359375 198.699219 401.039062 198.667969 C 400.726562 198.628906 400.414062 198.707031 400.101562 198.902344 Z M 399.734375 204.6875 L 403.9375 201.984375 C 404.019531 201.933594 404.113281 201.929688 404.21875 201.96875 C 404.320312 202.011719 404.414062 202.09375 404.5 202.21875 C 404.5625 202.324219 404.585938 202.433594 404.578125 202.546875 C 404.578125 202.652344 404.535156 202.730469 404.453125 202.78125 L 403.96875 203.09375 C 404.28125 203.074219 404.59375 203.132812 404.90625 203.265625 C 405.21875 203.390625 405.46875 203.601562 405.65625 203.890625 L 405.875 204.234375 C 405.925781 204.316406 405.929688 204.410156 405.890625 204.515625 C 405.859375 204.628906 405.789062 204.71875 405.6875 204.78125 C 405.59375 204.851562 405.488281 204.878906 405.375 204.859375 C 405.257812 204.847656 405.175781 204.800781 405.125 204.71875 L 404.90625 204.375 C 404.675781 204.03125 404.34375 203.824219 403.90625 203.75 C 403.46875 203.667969 403.03125 203.765625 402.59375 204.046875 L 400.28125 205.53125 C 400.21875 205.570312 400.125 205.570312 400 205.53125 C 399.882812 205.488281 399.789062 205.410156 399.71875 205.296875 C 399.644531 205.179688 399.609375 205.0625 399.609375 204.9375 C 399.617188 204.8125 399.660156 204.726562 399.734375 204.6875 Z M 403.433594 206.960938 L 404.496094 206.289062 C 405.015625 205.945312 405.589844 205.851562 406.214844 206.007812 C 406.839844 206.164062 407.328125 206.519531 407.683594 207.070312 C 408.027344 207.59375 408.140625 208.152344 408.027344 208.757812 C 407.921875 209.371094 407.605469 209.851562 407.074219 210.195312 C 406.875 210.320312 406.703125 210.398438 406.558594 210.429688 C 406.410156 210.460938 406.285156 210.445312 406.183594 210.382812 C 406.078125 210.320312 405.988281 210.246094 405.917969 210.164062 C 405.84375 210.089844 405.761719 209.976562 405.667969 209.820312 L 404.246094 207.617188 L 403.949219 207.820312 C 403.5625 208.058594 403.34375 208.382812 403.292969 208.789062 C 403.25 209.195312 403.363281 209.609375 403.636719 210.039062 C 403.78125 210.265625 403.9375 210.4375 404.105469 210.554688 C 404.28125 210.679688 404.4375 210.765625 404.574219 210.820312 C 404.707031 210.882812 404.792969 210.945312 404.824219 211.007812 C 404.886719 211.101562 404.894531 211.210938 404.855469 211.335938 C 404.8125 211.460938 404.746094 211.546875 404.652344 211.601562 C 404.503906 211.695312 404.25 211.636719 403.886719 211.429688 C 403.53125 211.230469 403.207031 210.90625 402.917969 210.460938 C 402.5 209.804688 402.332031 209.148438 402.417969 208.492188 C 402.511719 207.84375 402.847656 207.335938 403.433594 206.960938 Z M 404.808594 207.257812 L 406.011719 209.117188 C 406.125 209.292969 406.222656 209.398438 406.308594 209.429688 C 406.390625 209.46875 406.488281 209.449219 406.605469 209.367188 C 406.917969 209.167969 407.113281 208.882812 407.199219 208.507812 C 407.292969 208.140625 407.234375 207.804688 407.027344 207.492188 C 406.816406 207.171875 406.53125 206.960938 406.167969 206.867188 C 405.8125 206.773438 405.480469 206.832031 405.167969 207.039062 Z M 408.824219 209.71875 C 408.9375 209.65625 409.074219 209.664062 409.230469 209.734375 C 409.386719 209.796875 409.503906 209.890625 409.589844 210.015625 C 409.671875 210.152344 409.671875 210.277344 409.589844 210.390625 L 406.917969 213.984375 L 411.230469 212.921875 C 411.363281 212.898438 411.46875 212.953125 411.542969 213.078125 C 411.613281 213.191406 411.652344 213.335938 411.652344 213.515625 C 411.660156 213.691406 411.609375 213.816406 411.496094 213.890625 C 411.453125 213.910156 411.410156 213.921875 411.371094 213.921875 L 406.277344 215.03125 L 405.636719 215.171875 C 405.53125 215.179688 405.328125 215.207031 405.027344 215.25 C 404.734375 215.300781 404.515625 215.328125 404.371094 215.328125 C 404.226562 215.328125 404.035156 215.316406 403.792969 215.296875 C 403.554688 215.285156 403.363281 215.25 403.214844 215.1875 C 403.070312 215.125 402.914062 215.03125 402.746094 214.90625 C 402.582031 214.78125 402.445312 214.632812 402.339844 214.46875 C 402.164062 214.195312 402.199219 213.976562 402.449219 213.8125 C 402.691406 213.664062 402.863281 213.675781 402.964844 213.84375 C 403.164062 214.144531 403.527344 214.328125 404.058594 214.390625 C 404.578125 214.460938 405.136719 214.378906 405.730469 214.140625 L 408.730469 209.828125 C 408.761719 209.789062 408.792969 209.75 408.824219 209.71875 Z M 409.128906 219.304688 L 416.207031 214.757812 C 416.289062 214.695312 416.382812 214.6875 416.488281 214.726562 C 416.601562 214.769531 416.695312 214.851562 416.769531 214.976562 C 416.839844 215.09375 416.871094 215.210938 416.863281 215.335938 C 416.863281 215.453125 416.820312 215.539062 416.738281 215.601562 L 413.441406 217.726562 C 413.742188 217.695312 414.039062 217.75 414.332031 217.882812 C 414.621094 218.019531 414.863281 218.238281 415.050781 218.539062 C 415.371094 219.027344 415.457031 219.574219 415.300781 220.179688 C 415.152344 220.78125 414.816406 221.257812 414.285156 221.601562 L 413.253906 222.257812 C 412.742188 222.589844 412.175781 222.699219 411.550781 222.585938 C 410.925781 222.480469 410.460938 222.195312 410.160156 221.726562 C 409.960938 221.421875 409.855469 221.09375 409.847656 220.742188 C 409.835938 220.386719 409.902344 220.085938 410.050781 219.835938 L 409.644531 220.101562 C 409.570312 220.140625 409.476562 220.140625 409.363281 220.101562 C 409.246094 220.070312 409.160156 220.007812 409.097656 219.914062 C 409.023438 219.796875 408.992188 219.679688 409.003906 219.554688 C 409.011719 219.429688 409.054688 219.34375 409.128906 219.304688 Z M 410.972656 219.304688 C 410.804688 219.40625 410.683594 219.648438 410.613281 220.023438 C 410.539062 220.40625 410.589844 220.746094 410.769531 221.039062 C 410.964844 221.339844 411.261719 221.527344 411.660156 221.601562 C 412.054688 221.671875 412.402344 221.609375 412.707031 221.414062 L 413.738281 220.757812 C 414.039062 220.558594 414.238281 220.265625 414.332031 219.882812 C 414.433594 219.496094 414.386719 219.152344 414.191406 218.851562 C 414.003906 218.539062 413.722656 218.34375 413.347656 218.257812 C 412.980469 218.175781 412.621094 218.25 412.269531 218.476562 Z M 412.375 224.371094 L 419.453125 219.824219 C 419.535156 219.761719 419.628906 219.753906 419.734375 219.792969 C 419.847656 219.835938 419.941406 219.917969 420.015625 220.042969 C 420.097656 220.160156 420.132812 220.277344 420.125 220.402344 C 420.125 220.519531 420.082031 220.605469 420 220.667969 L 412.921875 225.214844 C 412.859375 225.253906 412.765625 225.253906 412.640625 225.214844 C 412.515625 225.171875 412.414062 225.09375 412.34375 224.980469 C 412.269531 224.863281 412.238281 224.746094 412.25 224.621094 C 412.257812 224.496094 412.300781 224.410156 412.375 224.371094 Z M 414.515625 225.570312 C 415.035156 225.238281 415.53125 225.207031 416 225.476562 C 416.46875 225.738281 416.945312 226.246094 417.4375 227.007812 L 417.75 227.492188 L 417.953125 227.367188 C 418.285156 227.148438 418.515625 226.867188 418.640625 226.523438 C 418.773438 226.179688 418.722656 225.828125 418.484375 225.460938 C 418.296875 225.171875 418.085938 224.953125 417.859375 224.804688 C 417.628906 224.648438 417.507812 224.5625 417.5 224.539062 C 417.4375 224.445312 417.429688 224.34375 417.484375 224.226562 C 417.535156 224.113281 417.613281 224.023438 417.71875 223.960938 C 417.875 223.859375 418.109375 223.925781 418.421875 224.164062 C 418.734375 224.394531 419 224.675781 419.21875 225.007812 C 419.632812 225.675781 419.753906 226.28125 419.578125 226.835938 C 419.410156 227.386719 419.050781 227.839844 418.5 228.195312 L 415.90625 229.867188 C 415.820312 229.917969 415.722656 229.921875 415.609375 229.882812 C 415.503906 229.839844 415.414062 229.757812 415.34375 229.632812 C 415.269531 229.527344 415.238281 229.417969 415.25 229.304688 C 415.257812 229.199219 415.304688 229.121094 415.390625 229.070312 L 415.796875 228.804688 C 414.984375 228.679688 414.398438 228.335938 414.046875 227.773438 C 413.785156 227.367188 413.6875 226.964844 413.75 226.570312 C 413.820312 226.183594 414.078125 225.851562 414.515625 225.570312 Z M 415.140625 226.335938 C 414.878906 226.5 414.734375 226.695312 414.703125 226.914062 C 414.671875 227.140625 414.726562 227.375 414.875 227.617188 C 415.0625 227.898438 415.351562 228.09375 415.75 228.210938 C 416.15625 228.335938 416.472656 228.320312 416.703125 228.164062 L 417.234375 227.820312 L 417 227.476562 C 416.875 227.277344 416.757812 227.109375 416.65625 226.976562 C 416.550781 226.851562 416.4375 226.71875 416.3125 226.585938 C 416.1875 226.460938 416.0625 226.367188 415.9375 226.304688 C 415.820312 226.242188 415.691406 226.210938 415.546875 226.210938 C 415.410156 226.210938 415.273438 226.25 415.140625 226.335938 Z M 418.109375 229.828125 L 419.125 229.171875 C 419.707031 228.796875 420.285156 228.667969 420.859375 228.78125 C 421.441406 228.898438 421.945312 229.28125 422.375 229.9375 C 422.644531 230.355469 422.796875 230.75 422.828125 231.125 C 422.867188 231.507812 422.804688 231.753906 422.640625 231.859375 C 422.546875 231.921875 422.425781 231.945312 422.28125 231.9375 C 422.144531 231.925781 422.046875 231.875 421.984375 231.78125 C 421.972656 231.757812 421.957031 231.601562 421.9375 231.3125 C 421.925781 231.03125 421.835938 230.753906 421.671875 230.484375 C 421.410156 230.078125 421.101562 229.839844 420.75 229.765625 C 420.40625 229.695312 420.046875 229.777344 419.671875 230.015625 L 418.65625 230.671875 C 417.851562 231.179688 417.71875 231.847656 418.25 232.671875 C 418.425781 232.960938 418.640625 233.171875 418.890625 233.296875 C 419.148438 233.421875 419.289062 233.503906 419.3125 233.546875 C 419.382812 233.648438 419.398438 233.765625 419.359375 233.890625 C 419.328125 234.023438 419.257812 234.125 419.15625 234.1875 C 418.988281 234.289062 418.734375 234.242188 418.390625 234.046875 C 418.046875 233.847656 417.734375 233.535156 417.453125 233.109375 C 417.023438 232.441406 416.878906 231.820312 417.015625 231.25 C 417.160156 230.675781 417.523438 230.203125 418.109375 229.828125 Z M 419.359375 235.242188 L 426.4375 230.695312 C 426.519531 230.632812 426.613281 230.625 426.71875 230.664062 C 426.832031 230.707031 426.925781 230.789062 427 230.914062 C 427.070312 231.03125 427.101562 231.148438 427.09375 231.273438 C 427.09375 231.390625 427.050781 231.476562 426.96875 231.539062 L 422.25 234.570312 L 425.8125 235.523438 C 425.90625 235.554688 425.972656 235.601562 426.015625 235.664062 C 426.066406 235.757812 426.082031 235.875 426.0625 236.023438 C 426.039062 236.179688 425.984375 236.28125 425.890625 236.335938 C 425.796875 236.398438 425.703125 236.414062 425.609375 236.382812 L 423.46875 235.773438 L 422.109375 239.007812 C 422.085938 239.078125 422.050781 239.132812 422 239.164062 C 421.90625 239.226562 421.773438 239.234375 421.609375 239.195312 C 421.453125 239.152344 421.335938 239.074219 421.265625 238.960938 C 421.210938 238.875 421.210938 238.773438 421.265625 238.648438 L 422.59375 235.539062 L 421.296875 235.179688 L 419.890625 236.085938 C 419.828125 236.125 419.734375 236.125 419.609375 236.085938 C 419.492188 236.042969 419.398438 235.964844 419.328125 235.851562 C 419.253906 235.734375 419.222656 235.617188 419.234375 235.492188 C 419.242188 235.367188 419.285156 235.28125 419.359375 235.242188 Z M 429.433594 235.066406 C 429.503906 235.027344 429.589844 235.027344 429.683594 235.066406 C 429.777344 235.109375 429.847656 235.175781 429.902344 235.269531 C 429.964844 235.363281 429.996094 235.46875 429.996094 235.582031 C 430.003906 235.6875 429.972656 235.761719 429.902344 235.800781 L 428.371094 236.644531 C 428.296875 236.6875 428.21875 236.707031 428.136719 236.707031 C 428.050781 236.699219 427.984375 236.644531 427.933594 236.550781 C 427.816406 236.375 427.847656 236.230469 428.027344 236.113281 Z M 430.308594 236.425781 C 430.378906 236.386719 430.464844 236.390625 430.558594 236.441406 C 430.652344 236.484375 430.730469 236.550781 430.792969 236.644531 C 430.855469 236.738281 430.886719 236.839844 430.886719 236.941406 C 430.886719 237.046875 430.847656 237.121094 430.777344 237.160156 L 429.246094 238.019531 C 429.171875 238.0625 429.09375 238.078125 429.011719 238.066406 C 428.925781 238.058594 428.859375 238.011719 428.808594 237.925781 C 428.691406 237.75 428.722656 237.605469 428.902344 237.488281 Z M 423.507812 242.351562 "/>
</g>
</svg>
