<?xml version="1.0" encoding="UTF-8"?>
<svg xmlns="http://www.w3.org/2000/svg" xmlns:xlink="http://www.w3.org/1999/xlink" width="384pt" height="288pt" viewBox="0 0 384 288" version="1.1">
<g id="surface5">
<path style=" stroke:none;fill-rule:nonzero;fill:rgb(0%,0%,0%);fill-opacity:1;" d="M 0 0 L 288 0 L 288 288 L 0 288 Z M 0 0 "/>
<path style=" stroke:none;fill-rule:nonzero;fill:rgb(50.196078%,50.196078%,50.196078%);fill-opacity:1;" d="M 0 0 L 36 0 L 36 288 L 0 288 Z M 0 0 "/>
<path style=" stroke:none;fill-rule:nonzero;fill:rgb(0%,0%,0%);fill-opacity:1;" d="M 36 0 L 72 0 L 72 288 L 36 288 Z M 36 0 "/>
<path style=" stroke:none;fill-rule:nonzero;fill:rgb(50.196078%,50.196078%,50.196078%);fill-opacity:1;" d="M 72 0 L 108 0 L 108 288 L 72 288 Z M 72 0 "/>
<path style=" stroke:none;fill-rule:nonzero;fill:rgb(0%,0%,0%);fill-opacity:1;" d="M 108 0 L 144 0 L 144 288 L 108 288 Z M 108 0 "/>
<path style=" stroke:none;fill-rule:nonzero;fill:rgb(50.196078%,50.196078%,50.196078%);fill-opacity:1;" d="M 144 0 L 180 0 L 180 288 L 144 288 Z M 144 0 "/>
<path style=" stroke:none;fill-rule:nonzero;fill:rgb(0%,0%,0%);fill-opacity:1;" d="M 180 0 L 216 0 L 216 288 L 180 288 Z M 180 0 "/>
<path style=" stroke:none;fill-rule:nonzero;fill:rgb(50.196078%,50.196078%,50.196078%);fill-opacity:1;" d="M 216 0 L 252 0 L 252 288 L 216 288 Z M 216 0 "/>
<path style=" stroke:none;fill-rule:nonzero;fill:rgb(0%,0%,0%);fill-opacity:1;" d="M 252 0 L 288 0 L 288 288 L 252 288 Z M 252 0 "/>
<path style=" stroke:none;fill-rule:nonzero;fill:rgb(0%,0%,0%);fill-opacity:1;" d="M 365.578125 11.203125 L 376.453125 11.203125 C 377.492188 11.203125 378.378906 11.550781 379.109375 12.25 C 379.835938 12.945312 380.203125 13.773438 380.203125 14.734375 L 380.203125 15.4375 C 380.203125 15.65625 380.128906 15.820312 379.984375 15.9375 C 379.835938 16.0625 379.660156 16.125 379.453125 16.125 C 379.253906 16.125 379.082031 16.0625 378.9375 15.9375 C 378.800781 15.820312 378.734375 15.65625 378.734375 15.4375 L 378.734375 15.015625 C 378.734375 14.398438 378.523438 13.890625 378.109375 13.484375 C 377.703125 13.078125 377.195312 12.867188 376.59375 12.859375 L 374.484375 12.859375 L 374.484375 15.59375 C 374.484375 15.757812 374.414062 15.890625 374.28125 15.984375 C 374.144531 16.078125 373.988281 16.125 373.8125 16.125 C 373.644531 16.125 373.5 16.078125 373.375 15.984375 C 373.25 15.890625 373.1875 15.757812 373.1875 15.59375 L 373.1875 12.859375 L 365.578125 12.859375 C 365.421875 12.859375 365.285156 12.773438 365.171875 12.609375 C 365.054688 12.441406 365 12.238281 365 12 C 365 11.769531 365.050781 11.578125 365.15625 11.421875 C 365.257812 11.273438 365.398438 11.203125 365.578125 11.203125 Z M 368.71875 17.113281 L 370.765625 17.113281 C 371.785156 17.113281 372.675781 17.503906 373.4375 18.285156 C 374.207031 19.066406 374.59375 19.988281 374.59375 21.050781 C 374.59375 22.121094 374.210938 23.050781 373.453125 23.832031 C 372.691406 24.621094 371.796875 25.019531 370.765625 25.019531 L 368.71875 25.019531 C 367.707031 25.019531 366.804688 24.621094 366.015625 23.832031 C 365.234375 23.039062 364.84375 22.117188 364.84375 21.066406 C 364.84375 20.011719 365.234375 19.089844 366.015625 18.300781 C 366.796875 17.507812 367.695312 17.113281 368.71875 17.113281 Z M 368.71875 18.785156 C 368.09375 18.785156 367.539062 19.007812 367.0625 19.457031 C 366.582031 19.914062 366.34375 20.449219 366.34375 21.066406 C 366.34375 21.691406 366.582031 22.226562 367.0625 22.675781 C 367.550781 23.132812 368.101562 23.363281 368.71875 23.363281 L 370.765625 23.363281 C 371.359375 23.363281 371.894531 23.132812 372.375 22.675781 C 372.851562 22.226562 373.09375 21.683594 373.09375 21.050781 C 373.09375 20.425781 372.851562 19.886719 372.375 19.441406 C 371.894531 19.003906 371.359375 18.785156 370.765625 18.785156 Z M 365.59375 27.199219 L 379.625 27.199219 C 379.789062 27.199219 379.925781 27.269531 380.03125 27.417969 C 380.144531 27.574219 380.203125 27.769531 380.203125 28.011719 C 380.203125 28.261719 380.144531 28.464844 380.03125 28.621094 C 379.925781 28.777344 379.789062 28.855469 379.625 28.855469 L 365.59375 28.855469 C 365.445312 28.855469 365.3125 28.769531 365.1875 28.605469 C 365.0625 28.4375 365 28.238281 365 28.011719 C 365 27.792969 365.054688 27.597656 365.171875 27.433594 C 365.296875 27.277344 365.4375 27.199219 365.59375 27.199219 Z M 368.71875 31.03125 L 370.765625 31.03125 C 371.816406 31.03125 372.71875 31.382812 373.46875 32.09375 C 374.21875 32.800781 374.59375 33.644531 374.59375 34.625 C 374.59375 35.21875 374.445312 35.738281 374.15625 36.1875 C 373.863281 36.644531 373.503906 36.992188 373.078125 37.234375 L 379.625 37.234375 C 379.789062 37.234375 379.925781 37.3125 380.03125 37.46875 C 380.144531 37.632812 380.203125 37.835938 380.203125 38.078125 C 380.203125 38.316406 380.144531 38.515625 380.03125 38.671875 C 379.925781 38.828125 379.789062 38.90625 379.625 38.90625 L 365.59375 38.90625 C 365.4375 38.90625 365.296875 38.820312 365.171875 38.65625 C 365.054688 38.5 365 38.304688 365 38.078125 C 365 37.878906 365.054688 37.703125 365.171875 37.546875 C 365.296875 37.390625 365.4375 37.3125 365.59375 37.3125 L 366.40625 37.3125 C 365.976562 37.09375 365.609375 36.726562 365.296875 36.21875 C 364.996094 35.707031 364.84375 35.15625 364.84375 34.5625 C 364.84375 33.625 365.234375 32.800781 366.015625 32.09375 C 366.804688 31.382812 367.707031 31.03125 368.71875 31.03125 Z M 368.71875 32.703125 C 368.101562 32.703125 367.550781 32.925781 367.0625 33.375 C 366.582031 33.832031 366.34375 34.359375 366.34375 34.953125 C 366.34375 35.546875 366.566406 36.070312 367.015625 36.53125 C 367.460938 37 367.851562 37.234375 368.1875 37.234375 L 370.765625 37.234375 C 371.453125 37.234375 372.007812 37.003906 372.4375 36.546875 C 372.875 36.097656 373.09375 35.578125 373.09375 34.984375 C 373.09375 34.367188 372.851562 33.832031 372.375 33.375 C 371.894531 32.925781 371.359375 32.703125 370.765625 32.703125 Z M 365.59375 41.523438 L 379.015625 41.523438 C 379.203125 41.523438 379.347656 41.59375 379.453125 41.742188 C 379.566406 41.898438 379.625 42.078125 379.625 42.289062 L 379.625 49.398438 C 379.625 49.585938 379.550781 49.726562 379.40625 49.820312 C 379.257812 49.921875 379.082031 49.976562 378.875 49.976562 C 378.664062 49.976562 378.484375 49.921875 378.328125 49.820312 C 378.171875 49.714844 378.09375 49.574219 378.09375 49.398438 L 378.09375 43.195312 L 373.015625 43.195312 L 373.015625 46.320312 C 373.015625 46.496094 372.941406 46.636719 372.796875 46.742188 C 372.660156 46.84375 372.492188 46.898438 372.296875 46.898438 C 372.128906 46.898438 371.972656 46.84375 371.828125 46.742188 C 371.691406 46.648438 371.625 46.507812 371.625 46.320312 L 371.625 43.195312 L 366.515625 43.195312 L 366.515625 49.398438 C 366.515625 49.574219 366.4375 49.714844 366.28125 49.820312 C 366.132812 49.921875 365.953125 49.976562 365.734375 49.976562 C 365.535156 49.976562 365.363281 49.921875 365.21875 49.820312 C 365.070312 49.726562 365 49.585938 365 49.398438 L 365 42.289062 C 365 42.078125 365.050781 41.898438 365.15625 41.742188 C 365.257812 41.59375 365.40625 41.523438 365.59375 41.523438 Z M 373.796875 50.613281 C 373.984375 50.613281 374.148438 50.726562 374.296875 50.957031 C 374.441406 51.195312 374.515625 51.433594 374.515625 51.675781 C 374.515625 51.957031 374.410156 52.136719 374.203125 52.222656 L 367.40625 54.753906 L 374.125 57.253906 C 374.382812 57.367188 374.515625 57.550781 374.515625 57.800781 C 374.515625 58.007812 374.441406 58.238281 374.296875 58.488281 C 374.148438 58.746094 373.984375 58.878906 373.796875 58.878906 C 373.691406 58.878906 373.585938 58.851562 373.484375 58.800781 L 365.1875 55.519531 C 364.9375 55.414062 364.8125 55.160156 364.8125 54.753906 C 364.8125 54.347656 364.9375 54.085938 365.1875 53.972656 L 373.484375 50.691406 C 373.640625 50.636719 373.742188 50.613281 373.796875 50.613281 Z M 368.71875 59.933594 L 370.8125 59.933594 C 371.84375 59.933594 372.726562 60.324219 373.46875 61.105469 C 374.21875 61.886719 374.59375 62.824219 374.59375 63.917969 C 374.59375 64.957031 374.242188 65.859375 373.546875 66.621094 C 372.847656 67.378906 371.972656 67.761719 370.921875 67.761719 C 370.535156 67.761719 370.222656 67.714844 369.984375 67.621094 C 369.753906 67.527344 369.585938 67.378906 369.484375 67.183594 C 369.390625 66.996094 369.328125 66.816406 369.296875 66.652344 C 369.273438 66.484375 369.265625 66.261719 369.265625 65.980469 L 369.265625 61.605469 L 368.65625 61.605469 C 367.925781 61.605469 367.335938 61.863281 366.890625 62.386719 C 366.453125 62.917969 366.234375 63.597656 366.234375 64.433594 C 366.234375 64.878906 366.300781 65.265625 366.4375 65.589844 C 366.570312 65.910156 366.703125 66.171875 366.828125 66.371094 C 366.953125 66.578125 367.015625 66.738281 367.015625 66.855469 C 367.015625 67.042969 366.929688 67.203125 366.765625 67.339844 C 366.597656 67.472656 366.429688 67.542969 366.265625 67.542969 C 365.953125 67.542969 365.632812 67.234375 365.3125 66.621094 C 365 66.015625 364.84375 65.269531 364.84375 64.386719 C 364.84375 63.074219 365.195312 62 365.90625 61.167969 C 366.625 60.34375 367.5625 59.933594 368.71875 59.933594 Z M 370.375 61.605469 L 370.375 65.308594 C 370.375 65.652344 370.414062 65.878906 370.5 65.996094 C 370.59375 66.121094 370.765625 66.183594 371.015625 66.183594 C 371.617188 66.183594 372.144531 65.957031 372.59375 65.511719 C 373.050781 65.074219 373.28125 64.535156 373.28125 63.902344 C 373.28125 63.277344 373.066406 62.734375 372.640625 62.277344 C 372.222656 61.828125 371.707031 61.605469 371.09375 61.605469 Z M 365.59375 69.609375 L 373.90625 69.609375 C 374.070312 69.609375 374.207031 69.679688 374.3125 69.828125 C 374.425781 69.984375 374.484375 70.179688 374.484375 70.421875 C 374.484375 70.628906 374.425781 70.804688 374.3125 70.953125 C 374.207031 71.109375 374.070312 71.1875 373.90625 71.1875 L 372.953125 71.1875 C 373.410156 71.425781 373.796875 71.773438 374.109375 72.234375 C 374.429688 72.703125 374.59375 73.222656 374.59375 73.796875 L 374.59375 74.484375 C 374.59375 74.648438 374.515625 74.796875 374.359375 74.921875 C 374.210938 75.054688 374.039062 75.125 373.84375 75.125 C 373.644531 75.125 373.46875 75.054688 373.3125 74.921875 C 373.164062 74.796875 373.09375 74.648438 373.09375 74.484375 L 373.09375 73.796875 C 373.09375 73.117188 372.816406 72.523438 372.265625 72.015625 C 371.722656 71.515625 371.019531 71.265625 370.15625 71.265625 L 365.59375 71.265625 C 365.445312 71.265625 365.3125 71.179688 365.1875 71.015625 C 365.0625 70.847656 365 70.648438 365 70.421875 C 365 70.191406 365.054688 70 365.171875 69.84375 C 365.296875 69.6875 365.4375 69.609375 365.59375 69.609375 Z M 373.796875 75.535156 C 374.015625 75.535156 374.203125 75.652344 374.359375 75.894531 C 374.515625 76.132812 374.59375 76.371094 374.59375 76.613281 C 374.59375 76.894531 374.484375 77.074219 374.265625 77.160156 L 367.296875 79.800781 L 374.265625 82.175781 C 374.484375 82.269531 374.59375 82.445312 374.59375 82.707031 C 374.59375 82.925781 374.515625 83.160156 374.359375 83.410156 C 374.203125 83.660156 374.007812 83.785156 373.78125 83.785156 C 373.71875 83.785156 373.648438 83.761719 373.578125 83.722656 L 365.4375 80.675781 L 364.4375 80.300781 C 364.25 80.238281 363.933594 80.101562 363.484375 79.894531 C 363.027344 79.695312 362.699219 79.527344 362.5 79.394531 C 362.304688 79.269531 362.042969 79.085938 361.71875 78.847656 C 361.386719 78.605469 361.148438 78.371094 361 78.144531 C 360.855469 77.914062 360.726562 77.644531 360.609375 77.332031 C 360.484375 77.019531 360.421875 76.691406 360.421875 76.347656 C 360.421875 75.824219 360.667969 75.566406 361.15625 75.566406 C 361.636719 75.566406 361.875 75.722656 361.875 76.035156 C 361.875 76.636719 362.214844 77.222656 362.890625 77.785156 C 363.570312 78.355469 364.433594 78.742188 365.484375 78.941406 L 373.578125 75.613281 C 373.660156 75.558594 373.734375 75.535156 373.796875 75.535156 Z M 365.15625 89.335938 L 379.78125 89.335938 C 379.957031 89.335938 380.097656 89.414062 380.203125 89.570312 C 380.304688 89.726562 380.359375 89.902344 380.359375 90.101562 L 380.359375 93.382812 C 380.359375 93.546875 380.285156 93.683594 380.140625 93.789062 C 379.992188 93.902344 379.820312 93.960938 379.625 93.960938 C 379.40625 93.960938 379.222656 93.902344 379.078125 93.789062 C 378.929688 93.683594 378.859375 93.546875 378.859375 93.382812 L 378.859375 91.023438 L 366.078125 91.023438 L 366.078125 93.382812 C 366.078125 93.546875 366.003906 93.683594 365.859375 93.789062 C 365.710938 93.902344 365.53125 93.960938 365.3125 93.960938 C 365.113281 93.960938 364.945312 93.902344 364.796875 93.789062 C 364.652344 93.683594 364.578125 93.546875 364.578125 93.382812 L 364.578125 90.101562 C 364.578125 89.902344 364.636719 89.726562 364.75 89.570312 C 364.855469 89.414062 364.992188 89.335938 365.15625 89.335938 Z M 368.28125 94.835938 C 368.582031 94.835938 368.785156 94.890625 368.890625 95.007812 C 369.003906 95.121094 369.0625 95.324219 369.0625 95.617188 C 369.0625 95.9375 369.003906 96.164062 368.890625 96.289062 C 368.785156 96.414062 368.625 96.476562 368.40625 96.476562 C 367.894531 96.476562 367.429688 96.6875 367.015625 97.117188 C 366.609375 97.554688 366.40625 98.214844 366.40625 99.101562 C 366.40625 100.882812 367.320312 101.773438 369.15625 101.773438 L 369.546875 101.773438 C 371.171875 101.773438 371.984375 100.882812 371.984375 99.101562 C 371.984375 98.714844 372.210938 98.523438 372.671875 98.523438 C 373.140625 98.523438 373.375 98.714844 373.375 99.101562 C 373.375 99.871094 373.546875 100.449219 373.890625 100.835938 C 374.242188 101.21875 374.875 101.414062 375.78125 101.414062 C 377.34375 101.414062 378.125 100.667969 378.125 99.179688 C 378.125 98.324219 377.929688 97.71875 377.546875 97.367188 C 377.171875 97.011719 376.722656 96.835938 376.203125 96.835938 C 375.703125 96.835938 375.453125 96.570312 375.453125 96.039062 C 375.453125 95.683594 375.507812 95.449219 375.625 95.335938 C 375.75 95.21875 375.976562 95.164062 376.3125 95.164062 C 376.644531 95.164062 376.988281 95.226562 377.34375 95.351562 C 377.695312 95.476562 378.050781 95.679688 378.40625 95.960938 C 378.757812 96.242188 379.050781 96.664062 379.28125 97.226562 C 379.507812 97.796875 379.625 98.464844 379.625 99.226562 C 379.625 101.765625 378.441406 103.039062 376.078125 103.039062 C 375.234375 103.039062 374.519531 102.890625 373.9375 102.601562 C 373.351562 102.308594 372.945312 101.914062 372.71875 101.414062 C 372.175781 102.777344 371.117188 103.460938 369.546875 103.460938 L 369.15625 103.460938 C 367.6875 103.460938 366.601562 103.058594 365.90625 102.257812 C 365.21875 101.453125 364.875 100.402344 364.875 99.101562 C 364.875 97.726562 365.222656 96.667969 365.921875 95.929688 C 366.628906 95.199219 367.414062 94.835938 368.28125 94.835938 Z M 365.921875 104.980469 C 366.210938 104.980469 366.460938 105.074219 366.671875 105.261719 C 366.878906 105.457031 366.984375 105.703125 366.984375 105.996094 C 366.984375 106.277344 366.878906 106.519531 366.671875 106.730469 C 366.472656 106.9375 366.222656 107.042969 365.921875 107.042969 C 365.679688 107.042969 364.875 106.753906 363.5 106.183594 C 363.3125 106.097656 363.21875 105.953125 363.21875 105.746094 C 363.21875 105.597656 363.265625 105.464844 363.359375 105.339844 C 363.445312 105.222656 363.558594 105.167969 363.703125 105.167969 C 363.796875 105.167969 363.871094 105.175781 363.921875 105.199219 L 364.953125 105.621094 C 365.128906 105.191406 365.453125 104.980469 365.921875 104.980469 Z M 368.34375 108.28125 C 368.875 108.28125 369.140625 108.5625 369.140625 109.125 C 369.140625 109.6875 368.910156 109.96875 368.453125 109.96875 C 367.816406 109.96875 367.316406 110.210938 366.953125 110.703125 C 366.585938 111.191406 366.40625 111.816406 366.40625 112.578125 C 366.40625 113.421875 366.632812 114.070312 367.09375 114.53125 C 367.5625 114.988281 368.265625 115.21875 369.203125 115.21875 L 369.578125 115.21875 C 370.484375 115.21875 371.164062 114.988281 371.625 114.53125 C 372.082031 114.070312 372.3125 113.425781 372.3125 112.59375 L 372.3125 109.765625 C 372.3125 109.242188 372.535156 108.984375 372.984375 108.984375 C 373.117188 108.984375 373.265625 108.992188 373.421875 109.015625 L 379.015625 109.4375 C 379.421875 109.46875 379.625 109.613281 379.625 109.875 L 379.625 115.640625 C 379.625 115.816406 379.546875 115.953125 379.390625 116.046875 C 379.234375 116.140625 379.054688 116.1875 378.859375 116.1875 C 378.660156 116.1875 378.484375 116.140625 378.328125 116.046875 C 378.171875 115.953125 378.09375 115.816406 378.09375 115.640625 L 378.09375 110.90625 L 373.71875 110.59375 L 373.71875 112.59375 C 373.71875 113.90625 373.382812 114.953125 372.71875 115.734375 C 372.050781 116.515625 371.003906 116.90625 369.578125 116.90625 L 369.203125 116.90625 C 367.722656 116.90625 366.628906 116.507812 365.921875 115.71875 C 365.222656 114.9375 364.875 113.894531 364.875 112.59375 C 364.875 111.257812 365.210938 110.207031 365.890625 109.4375 C 366.566406 108.664062 367.382812 108.28125 368.34375 108.28125 Z M 365.3125 117.839844 C 365.53125 117.839844 365.710938 117.890625 365.859375 117.996094 C 366.003906 118.109375 366.078125 118.25 366.078125 118.417969 L 366.078125 120.777344 L 378.859375 120.777344 L 378.859375 118.417969 C 378.859375 118.25 378.929688 118.109375 379.078125 117.996094 C 379.222656 117.890625 379.40625 117.839844 379.625 117.839844 C 379.820312 117.839844 379.992188 117.890625 380.140625 117.996094 C 380.285156 118.109375 380.359375 118.25 380.359375 118.417969 L 380.359375 121.699219 C 380.359375 121.894531 380.304688 122.074219 380.203125 122.230469 C 380.097656 122.386719 379.957031 122.464844 379.78125 122.464844 L 365.15625 122.464844 C 364.992188 122.464844 364.855469 122.386719 364.75 122.230469 C 364.636719 122.074219 364.578125 121.894531 364.578125 121.699219 L 364.578125 118.417969 C 364.578125 118.25 364.652344 118.109375 364.796875 117.996094 C 364.945312 117.890625 365.113281 117.839844 365.3125 117.839844 Z M 368.09375 128.902344 L 376.578125 128.902344 C 377.628906 128.902344 378.519531 129.285156 379.25 130.058594 C 379.988281 130.828125 380.359375 131.734375 380.359375 132.777344 C 380.359375 133.328125 380.113281 133.605469 379.625 133.605469 C 379.394531 133.605469 379.207031 133.546875 379.0625 133.433594 C 378.925781 133.328125 378.859375 133.191406 378.859375 133.027344 C 378.859375 132.285156 378.628906 131.691406 378.171875 131.246094 C 377.710938 130.796875 377.179688 130.574219 376.578125 130.574219 L 368.09375 130.574219 C 367.363281 130.574219 366.847656 130.8125 366.546875 131.292969 C 366.242188 131.78125 366.09375 132.359375 366.09375 133.027344 C 366.09375 133.410156 365.84375 133.605469 365.34375 133.605469 C 364.84375 133.605469 364.59375 133.316406 364.59375 132.746094 C 364.59375 131.660156 364.898438 130.75 365.5 130.011719 C 366.113281 129.269531 366.976562 128.902344 368.09375 128.902344 Z M 366.359375 134.554688 C 366.535156 134.554688 366.707031 134.609375 366.875 134.726562 C 367.039062 134.839844 367.125 134.980469 367.125 135.148438 C 367.125 135.25 367.039062 135.402344 366.875 135.601562 C 366.71875 135.796875 366.5625 136.085938 366.40625 136.460938 C 366.257812 136.835938 366.1875 137.273438 366.1875 137.773438 C 366.1875 138.4375 366.304688 138.921875 366.546875 139.226562 C 366.785156 139.527344 367.082031 139.679688 367.4375 139.679688 C 367.875 139.679688 368.222656 139.511719 368.484375 139.179688 C 368.742188 138.84375 368.941406 138.4375 369.078125 137.960938 C 369.210938 137.480469 369.359375 137 369.515625 136.523438 C 369.679688 136.042969 369.945312 135.636719 370.3125 135.304688 C 370.6875 134.96875 371.179688 134.804688 371.796875 134.804688 C 372.554688 134.804688 373.210938 135.070312 373.765625 135.601562 C 374.316406 136.140625 374.59375 136.96875 374.59375 138.085938 C 374.59375 138.792969 374.484375 139.4375 374.265625 140.023438 C 374.046875 140.605469 373.796875 140.898438 373.515625 140.898438 C 373.359375 140.898438 373.179688 140.835938 372.984375 140.710938 C 372.785156 140.585938 372.6875 140.429688 372.6875 140.242188 C 372.6875 140.1875 372.78125 139.929688 372.96875 139.460938 C 373.164062 139 373.265625 138.546875 373.265625 138.101562 C 373.265625 137.484375 373.117188 137.027344 372.828125 136.726562 C 372.546875 136.421875 372.222656 136.273438 371.859375 136.273438 C 371.484375 136.273438 371.1875 136.4375 370.96875 136.773438 C 370.757812 137.105469 370.59375 137.515625 370.46875 138.007812 C 370.351562 138.496094 370.207031 138.980469 370.03125 139.460938 C 369.863281 139.9375 369.566406 140.34375 369.140625 140.679688 C 368.722656 141.011719 368.179688 141.179688 367.515625 141.179688 C 366.691406 141.179688 366.039062 140.882812 365.5625 140.289062 C 365.082031 139.703125 364.84375 138.886719 364.84375 137.835938 C 364.84375 136.929688 365.003906 136.152344 365.328125 135.507812 C 365.648438 134.871094 365.992188 134.554688 366.359375 134.554688 Z M 365.59375 143.160156 L 379.625 143.160156 C 379.789062 143.160156 379.925781 143.230469 380.03125 143.378906 C 380.144531 143.535156 380.203125 143.730469 380.203125 143.972656 C 380.203125 144.222656 380.144531 144.425781 380.03125 144.582031 C 379.925781 144.738281 379.789062 144.816406 379.625 144.816406 L 365.59375 144.816406 C 365.445312 144.816406 365.3125 144.730469 365.1875 144.566406 C 365.0625 144.398438 365 144.199219 365 143.972656 C 365 143.753906 365.054688 143.558594 365.171875 143.394531 C 365.296875 143.238281 365.4375 143.160156 365.59375 143.160156 Z M 368.71875 146.992188 L 370.765625 146.992188 C 371.785156 146.992188 372.675781 147.382812 373.4375 148.164062 C 374.207031 148.945312 374.59375 149.867188 374.59375 150.929688 C 374.59375 152 374.210938 152.929688 373.453125 153.710938 C 372.691406 154.5 371.796875 154.898438 370.765625 154.898438 L 368.71875 154.898438 C 367.707031 154.898438 366.804688 154.5 366.015625 153.710938 C 365.234375 152.917969 364.84375 151.996094 364.84375 150.945312 C 364.84375 149.890625 365.234375 148.96875 366.015625 148.179688 C 366.796875 147.386719 367.695312 146.992188 368.71875 146.992188 Z M 368.71875 148.664062 C 368.09375 148.664062 367.539062 148.886719 367.0625 149.335938 C 366.582031 149.792969 366.34375 150.328125 366.34375 150.945312 C 366.34375 151.570312 366.582031 152.105469 367.0625 152.554688 C 367.550781 153.011719 368.101562 153.242188 368.71875 153.242188 L 370.765625 153.242188 C 371.359375 153.242188 371.894531 153.011719 372.375 152.554688 C 372.851562 152.105469 373.09375 151.5625 373.09375 150.929688 C 373.09375 150.304688 372.851562 149.765625 372.375 149.320312 C 371.894531 148.882812 371.359375 148.664062 370.765625 148.664062 Z M 366.84375 156.671875 C 367 156.671875 367.125 156.710938 367.21875 156.796875 L 369.71875 158.453125 L 372.21875 156.796875 C 372.320312 156.710938 372.445312 156.671875 372.59375 156.671875 C 372.769531 156.671875 372.921875 156.742188 373.046875 156.890625 C 373.171875 157.046875 373.234375 157.21875 373.234375 157.40625 C 373.234375 157.601562 373.140625 157.773438 372.953125 157.921875 L 370.8125 159.265625 L 372.953125 160.59375 C 373.140625 160.71875 373.234375 160.894531 373.234375 161.125 C 373.234375 161.3125 373.171875 161.472656 373.046875 161.609375 C 372.929688 161.742188 372.78125 161.8125 372.59375 161.8125 C 372.46875 161.8125 372.34375 161.78125 372.21875 161.71875 L 369.71875 160.0625 L 367.21875 161.703125 C 367.101562 161.773438 366.976562 161.8125 366.84375 161.8125 C 366.664062 161.8125 366.515625 161.738281 366.390625 161.59375 C 366.273438 161.445312 366.21875 161.28125 366.21875 161.09375 C 366.21875 160.851562 366.3125 160.679688 366.5 160.578125 L 368.625 159.265625 L 366.5 157.921875 C 366.3125 157.785156 366.21875 157.613281 366.21875 157.40625 C 366.21875 157.21875 366.273438 157.046875 366.390625 156.890625 C 366.515625 156.742188 366.664062 156.671875 366.84375 156.671875 Z M 367.296875 163.484375 C 367.515625 163.484375 367.722656 163.554688 367.921875 163.703125 C 368.117188 163.859375 368.21875 164.03125 368.21875 164.21875 C 368.21875 164.320312 368.132812 164.46875 367.96875 164.65625 C 367.8125 164.84375 367.632812 165.03125 367.4375 165.21875 C 367.25 165.414062 367.070312 165.722656 366.90625 166.140625 C 366.738281 166.554688 366.644531 167.023438 366.625 167.546875 L 371.9375 167.546875 L 372.34375 166.46875 C 372.4375 166.207031 372.59375 165.878906 372.8125 165.484375 C 373.039062 165.097656 373.269531 164.804688 373.5 164.609375 C 373.738281 164.421875 374.054688 164.242188 374.453125 164.078125 C 374.847656 163.921875 375.289062 163.84375 375.78125 163.84375 C 376.382812 163.84375 376.914062 163.945312 377.375 164.15625 C 377.832031 164.375 378.191406 164.664062 378.453125 165.03125 C 378.722656 165.394531 378.925781 165.785156 379.0625 166.203125 C 379.207031 166.617188 379.300781 167.066406 379.34375 167.546875 L 379.9375 167.546875 C 380.039062 167.546875 380.132812 167.59375 380.21875 167.6875 C 380.3125 167.789062 380.359375 167.914062 380.359375 168.0625 C 380.359375 168.195312 380.3125 168.316406 380.21875 168.421875 C 380.132812 168.523438 380.039062 168.578125 379.9375 168.578125 L 379.375 168.578125 C 379.332031 169.378906 379.195312 170.101562 378.96875 170.75 C 378.738281 171.40625 378.4375 171.734375 378.0625 171.734375 C 377.875 171.734375 377.671875 171.664062 377.453125 171.53125 C 377.242188 171.40625 377.140625 171.234375 377.140625 171.015625 C 377.140625 170.953125 377.253906 170.671875 377.484375 170.171875 C 377.722656 169.679688 377.851562 169.148438 377.875 168.578125 L 373.3125 168.578125 C 373.132812 169.097656 372.953125 169.523438 372.765625 169.859375 C 372.585938 170.203125 372.34375 170.5625 372.03125 170.9375 C 371.71875 171.320312 371.316406 171.609375 370.828125 171.796875 C 370.335938 171.992188 369.769531 172.09375 369.125 172.09375 C 367.945312 172.09375 367.015625 171.773438 366.328125 171.140625 C 365.648438 170.515625 365.238281 169.660156 365.09375 168.578125 L 364.375 168.578125 C 364.273438 168.578125 364.179688 168.523438 364.09375 168.421875 C 364 168.316406 363.953125 168.195312 363.953125 168.0625 C 363.953125 167.914062 364 167.789062 364.09375 167.6875 C 364.179688 167.59375 364.273438 167.546875 364.375 167.546875 L 365.046875 167.546875 C 365.054688 166.398438 365.3125 165.4375 365.8125 164.65625 C 366.320312 163.875 366.816406 163.484375 367.296875 163.484375 Z M 375.9375 165.4375 C 375.3125 165.4375 374.84375 165.613281 374.53125 165.96875 C 374.21875 166.332031 373.925781 166.882812 373.65625 167.625 L 377.859375 167.625 C 377.710938 166.164062 377.070312 165.4375 375.9375 165.4375 Z M 366.65625 168.5 C 366.875 169.832031 367.640625 170.5 368.953125 170.5 C 369.648438 170.5 370.191406 170.328125 370.578125 169.984375 C 370.960938 169.640625 371.289062 169.144531 371.5625 168.5 Z M 379.859375 177.601562 C 380.003906 177.601562 380.125 177.671875 380.21875 177.820312 C 380.3125 177.964844 380.359375 178.132812 380.359375 178.320312 C 380.359375 178.507812 380.3125 178.671875 380.21875 178.820312 C 380.125 178.976562 380.003906 179.054688 379.859375 179.054688 L 376.953125 178.851562 C 376.804688 178.851562 376.679688 178.804688 376.578125 178.710938 C 376.484375 178.625 376.4375 178.496094 376.4375 178.320312 C 376.4375 177.976562 376.609375 177.804688 376.953125 177.804688 Z M 379.859375 180.320312 C 380.003906 180.320312 380.125 180.390625 380.21875 180.539062 C 380.3125 180.683594 380.359375 180.851562 380.359375 181.039062 C 380.359375 181.226562 380.3125 181.390625 380.21875 181.539062 C 380.125 181.695312 380.003906 181.773438 379.859375 181.773438 L 376.953125 181.585938 C 376.804688 181.585938 376.679688 181.539062 376.578125 181.445312 C 376.484375 181.351562 376.4375 181.214844 376.4375 181.039062 C 376.4375 180.695312 376.609375 180.523438 376.953125 180.523438 Z M 363.125 182.917969 C 364.09375 182.917969 364.820312 183.457031 365.296875 184.542969 C 365.554688 183.863281 366.003906 183.527344 366.640625 183.527344 C 367.253906 183.527344 367.75 183.859375 368.125 184.527344 C 368.738281 183.765625 369.578125 183.386719 370.640625 183.386719 L 371.296875 183.386719 C 372.273438 183.386719 373.066406 183.707031 373.671875 184.355469 C 374.285156 185.011719 374.59375 185.871094 374.59375 186.933594 C 374.59375 187.839844 374.332031 188.621094 373.8125 189.277344 C 374.6875 189.683594 375.125 190.136719 375.125 190.636719 C 375.125 190.855469 375.054688 191.027344 374.921875 191.152344 C 374.796875 191.285156 374.65625 191.355469 374.5 191.355469 C 374.300781 191.355469 374.148438 191.246094 374.046875 191.027344 C 373.921875 190.566406 373.640625 190.203125 373.203125 189.933594 C 372.703125 190.347656 372.066406 190.558594 371.296875 190.558594 L 370.640625 190.558594 C 369.679688 190.558594 368.882812 190.21875 368.25 189.542969 C 367.625 188.863281 367.3125 187.996094 367.3125 186.933594 C 367.3125 186.390625 367.414062 185.902344 367.625 185.464844 C 367.414062 185.128906 367.1875 184.964844 366.9375 184.964844 C 366.6875 184.964844 366.488281 185.113281 366.34375 185.417969 C 366.207031 185.730469 366.125 186.109375 366.09375 186.558594 C 366.0625 187.015625 366 187.511719 365.90625 188.042969 C 365.8125 188.574219 365.6875 189.0625 365.53125 189.511719 C 365.382812 189.96875 365.128906 190.347656 364.765625 190.652344 C 364.390625 190.964844 363.917969 191.121094 363.34375 191.121094 C 362.398438 191.121094 361.671875 190.738281 361.171875 189.980469 C 360.671875 189.230469 360.421875 188.253906 360.421875 187.058594 C 360.421875 185.859375 360.667969 184.871094 361.15625 184.089844 C 361.636719 183.308594 362.292969 182.917969 363.125 182.917969 Z M 363.296875 184.496094 C 362.777344 184.496094 362.359375 184.722656 362.046875 185.183594 C 361.734375 185.652344 361.578125 186.269531 361.578125 187.042969 C 361.578125 187.792969 361.734375 188.386719 362.046875 188.824219 C 362.359375 189.269531 362.777344 189.496094 363.296875 189.496094 C 363.515625 189.496094 363.703125 189.457031 363.859375 189.386719 C 364.015625 189.3125 364.152344 189.191406 364.265625 189.027344 C 364.371094 188.871094 364.460938 188.714844 364.53125 188.558594 C 364.605469 188.402344 364.667969 188.191406 364.71875 187.933594 C 364.761719 187.683594 364.792969 187.472656 364.8125 187.308594 C 364.835938 187.140625 364.859375 186.921875 364.890625 186.652344 C 364.914062 186.378906 364.929688 186.1875 364.9375 186.074219 C 364.59375 185.019531 364.046875 184.496094 363.296875 184.496094 Z M 370.65625 184.996094 C 370.019531 184.996094 369.492188 185.171875 369.078125 185.527344 C 368.660156 185.878906 368.453125 186.363281 368.453125 186.980469 C 368.453125 187.5625 368.65625 188.03125 369.0625 188.386719 C 369.476562 188.75 370.003906 188.933594 370.640625 188.933594 L 371.296875 188.933594 C 371.910156 188.933594 372.421875 188.75 372.828125 188.386719 C 373.242188 188.03125 373.453125 187.558594 373.453125 186.964844 C 373.453125 186.347656 373.25 185.863281 372.84375 185.511719 C 372.4375 185.167969 371.921875 184.996094 371.296875 184.996094 Z M 365.59375 192.808594 L 373.90625 192.808594 C 374.070312 192.808594 374.207031 192.878906 374.3125 193.027344 C 374.425781 193.183594 374.484375 193.378906 374.484375 193.621094 C 374.484375 193.828125 374.425781 194.003906 374.3125 194.152344 C 374.207031 194.308594 374.070312 194.386719 373.90625 194.386719 L 372.953125 194.386719 C 373.410156 194.625 373.796875 194.972656 374.109375 195.433594 C 374.429688 195.902344 374.59375 196.421875 374.59375 196.996094 L 374.59375 197.683594 C 374.59375 197.847656 374.515625 197.996094 374.359375 198.121094 C 374.210938 198.253906 374.039062 198.324219 373.84375 198.324219 C 373.644531 198.324219 373.46875 198.253906 373.3125 198.121094 C 373.164062 197.996094 373.09375 197.847656 373.09375 197.683594 L 373.09375 196.996094 C 373.09375 196.316406 372.816406 195.722656 372.265625 195.214844 C 371.722656 194.714844 371.019531 194.464844 370.15625 194.464844 L 365.59375 194.464844 C 365.445312 194.464844 365.3125 194.378906 365.1875 194.214844 C 365.0625 194.046875 365 193.847656 365 193.621094 C 365 193.390625 365.054688 193.199219 365.171875 193.042969 C 365.296875 192.886719 365.4375 192.808594 365.59375 192.808594 Z M 368.71875 199.3125 L 370.8125 199.3125 C 371.84375 199.3125 372.726562 199.703125 373.46875 200.484375 C 374.21875 201.265625 374.59375 202.203125 374.59375 203.296875 C 374.59375 204.335938 374.242188 205.238281 373.546875 206 C 372.847656 206.757812 371.972656 207.140625 370.921875 207.140625 C 370.535156 207.140625 370.222656 207.09375 369.984375 207 C 369.753906 206.90625 369.585938 206.757812 369.484375 206.5625 C 369.390625 206.375 369.328125 206.195312 369.296875 206.03125 C 369.273438 205.863281 369.265625 205.640625 369.265625 205.359375 L 369.265625 200.984375 L 368.65625 200.984375 C 367.925781 200.984375 367.335938 201.242188 366.890625 201.765625 C 366.453125 202.296875 366.234375 202.976562 366.234375 203.8125 C 366.234375 204.257812 366.300781 204.644531 366.4375 204.96875 C 366.570312 205.289062 366.703125 205.550781 366.828125 205.75 C 366.953125 205.957031 367.015625 206.117188 367.015625 206.234375 C 367.015625 206.421875 366.929688 206.582031 366.765625 206.71875 C 366.597656 206.851562 366.429688 206.921875 366.265625 206.921875 C 365.953125 206.921875 365.632812 206.613281 365.3125 206 C 365 205.394531 364.84375 204.648438 364.84375 203.765625 C 364.84375 202.453125 365.195312 201.378906 365.90625 200.546875 C 366.625 199.722656 367.5625 199.3125 368.71875 199.3125 Z M 370.375 200.984375 L 370.375 204.6875 C 370.375 205.03125 370.414062 205.257812 370.5 205.375 C 370.59375 205.5 370.765625 205.5625 371.015625 205.5625 C 371.617188 205.5625 372.144531 205.335938 372.59375 204.890625 C 373.050781 204.453125 373.28125 203.914062 373.28125 203.28125 C 373.28125 202.65625 373.066406 202.113281 372.640625 201.65625 C 372.222656 201.207031 371.707031 200.984375 371.09375 200.984375 Z M 373.796875 208.035156 C 374.015625 208.035156 374.203125 208.152344 374.359375 208.394531 C 374.515625 208.632812 374.59375 208.871094 374.59375 209.113281 C 374.59375 209.394531 374.484375 209.574219 374.265625 209.660156 L 367.296875 212.300781 L 374.265625 214.675781 C 374.484375 214.769531 374.59375 214.945312 374.59375 215.207031 C 374.59375 215.425781 374.515625 215.660156 374.359375 215.910156 C 374.203125 216.160156 374.007812 216.285156 373.78125 216.285156 C 373.71875 216.285156 373.648438 216.261719 373.578125 216.222656 L 365.4375 213.175781 L 364.4375 212.800781 C 364.25 212.738281 363.933594 212.601562 363.484375 212.394531 C 363.027344 212.195312 362.699219 212.027344 362.5 211.894531 C 362.304688 211.769531 362.042969 211.585938 361.71875 211.347656 C 361.386719 211.105469 361.148438 210.871094 361 210.644531 C 360.855469 210.414062 360.726562 210.144531 360.609375 209.832031 C 360.484375 209.519531 360.421875 209.191406 360.421875 208.847656 C 360.421875 208.324219 360.667969 208.066406 361.15625 208.066406 C 361.636719 208.066406 361.875 208.222656 361.875 208.535156 C 361.875 209.136719 362.214844 209.722656 362.890625 210.285156 C 363.570312 210.855469 364.433594 211.242188 365.484375 211.441406 L 373.578125 208.113281 C 373.660156 208.058594 373.734375 208.035156 373.796875 208.035156 Z M 365.59375 221.742188 L 379.625 221.742188 C 379.789062 221.742188 379.925781 221.8125 380.03125 221.960938 C 380.144531 222.117188 380.203125 222.3125 380.203125 222.554688 C 380.203125 222.792969 380.144531 222.992188 380.03125 223.148438 C 379.925781 223.3125 379.789062 223.398438 379.625 223.398438 L 373.078125 223.398438 C 373.503906 223.636719 373.863281 223.980469 374.15625 224.429688 C 374.445312 224.886719 374.59375 225.417969 374.59375 226.023438 C 374.59375 226.992188 374.21875 227.828125 373.46875 228.539062 C 372.71875 229.246094 371.816406 229.601562 370.765625 229.601562 L 368.71875 229.601562 C 367.707031 229.601562 366.804688 229.246094 366.015625 228.539062 C 365.234375 227.828125 364.84375 227.011719 364.84375 226.085938 C 364.84375 225.480469 364.996094 224.921875 365.296875 224.414062 C 365.609375 223.914062 365.976562 223.546875 366.40625 223.320312 L 365.59375 223.320312 C 365.4375 223.320312 365.296875 223.242188 365.171875 223.085938 C 365.054688 222.929688 365 222.75 365 222.554688 C 365 222.335938 365.054688 222.140625 365.171875 221.976562 C 365.296875 221.820312 365.4375 221.742188 365.59375 221.742188 Z M 368.1875 223.398438 C 367.851562 223.398438 367.460938 223.632812 367.015625 224.101562 C 366.566406 224.570312 366.34375 225.09375 366.34375 225.679688 C 366.34375 226.28125 366.582031 226.808594 367.0625 227.257812 C 367.550781 227.714844 368.101562 227.945312 368.71875 227.945312 L 370.765625 227.945312 C 371.359375 227.945312 371.894531 227.714844 372.375 227.257812 C 372.851562 226.808594 373.09375 226.277344 373.09375 225.664062 C 373.09375 225.058594 372.875 224.527344 372.4375 224.070312 C 372.007812 223.621094 371.453125 223.398438 370.765625 223.398438 Z M 365.59375 231.777344 L 379.625 231.777344 C 379.789062 231.777344 379.925781 231.847656 380.03125 231.996094 C 380.144531 232.152344 380.203125 232.347656 380.203125 232.589844 C 380.203125 232.839844 380.144531 233.042969 380.03125 233.199219 C 379.925781 233.355469 379.789062 233.433594 379.625 233.433594 L 365.59375 233.433594 C 365.445312 233.433594 365.3125 233.347656 365.1875 233.183594 C 365.0625 233.015625 365 232.816406 365 232.589844 C 365 232.371094 365.054688 232.175781 365.171875 232.011719 C 365.296875 231.855469 365.4375 231.777344 365.59375 231.777344 Z M 367.5 235.363281 C 368.539062 235.363281 369.265625 235.757812 369.671875 236.550781 C 370.078125 237.351562 370.28125 238.511719 370.28125 240.035156 L 370.28125 241.003906 L 370.703125 241.003906 C 371.367188 241.003906 371.945312 240.816406 372.4375 240.441406 C 372.9375 240.074219 373.1875 239.527344 373.1875 238.800781 C 373.1875 238.238281 373.085938 237.742188 372.890625 237.316406 C 372.691406 236.886719 372.59375 236.652344 372.59375 236.613281 C 372.59375 236.433594 372.679688 236.289062 372.859375 236.175781 C 373.046875 236.058594 373.238281 236.003906 373.4375 236.003906 C 373.75 236.003906 374.019531 236.304688 374.25 236.910156 C 374.476562 237.511719 374.59375 238.160156 374.59375 238.847656 C 374.59375 240.148438 374.222656 241.105469 373.484375 241.722656 C 372.742188 242.347656 371.820312 242.660156 370.71875 242.660156 L 365.59375 242.660156 C 365.425781 242.660156 365.285156 242.582031 365.171875 242.425781 C 365.054688 242.277344 365 242.085938 365 241.847656 C 365 241.628906 365.054688 241.445312 365.171875 241.300781 C 365.285156 241.152344 365.425781 241.082031 365.59375 241.082031 L 366.40625 241.082031 C 365.363281 240.175781 364.84375 239.167969 364.84375 238.066406 C 364.84375 237.261719 365.066406 236.613281 365.515625 236.113281 C 365.972656 235.613281 366.632812 235.363281 367.5 235.363281 Z M 367.6875 237.035156 C 367.1875 237.035156 366.8125 237.175781 366.5625 237.457031 C 366.3125 237.738281 366.1875 238.113281 366.1875 238.582031 C 366.1875 239.144531 366.40625 239.683594 366.84375 240.207031 C 367.289062 240.738281 367.75 241.003906 368.21875 241.003906 L 369.265625 241.003906 L 369.265625 240.300781 C 369.265625 239.914062 369.253906 239.582031 369.234375 239.300781 C 369.210938 239.019531 369.171875 238.726562 369.109375 238.425781 C 369.046875 238.132812 368.957031 237.886719 368.84375 237.691406 C 368.738281 237.492188 368.585938 237.332031 368.390625 237.207031 C 368.191406 237.089844 367.957031 237.035156 367.6875 237.035156 Z M 368.71875 244.605469 L 370.71875 244.605469 C 371.863281 244.605469 372.796875 244.9375 373.515625 245.605469 C 374.234375 246.28125 374.59375 247.269531 374.59375 248.574219 C 374.59375 249.40625 374.445312 250.105469 374.15625 250.667969 C 373.863281 251.238281 373.550781 251.527344 373.21875 251.527344 C 373.03125 251.527344 372.847656 251.453125 372.671875 251.308594 C 372.492188 251.171875 372.40625 251.011719 372.40625 250.824219 C 372.40625 250.769531 372.519531 250.542969 372.75 250.136719 C 372.976562 249.730469 373.09375 249.25 373.09375 248.699219 C 373.09375 247.894531 372.882812 247.285156 372.46875 246.871094 C 372.0625 246.464844 371.476562 246.261719 370.71875 246.261719 L 368.71875 246.261719 C 367.132812 246.261719 366.34375 247.078125 366.34375 248.714844 C 366.34375 249.277344 366.460938 249.765625 366.703125 250.183594 C 366.941406 250.597656 367.0625 250.839844 367.0625 250.902344 C 367.0625 251.109375 366.972656 251.28125 366.796875 251.417969 C 366.628906 251.5625 366.453125 251.636719 366.265625 251.636719 C 365.929688 251.636719 365.609375 251.34375 365.296875 250.761719 C 364.996094 250.175781 364.84375 249.457031 364.84375 248.605469 C 364.84375 247.28125 365.195312 246.28125 365.90625 245.605469 C 366.625 244.9375 367.5625 244.605469 368.71875 244.605469 Z M 365.59375 253.304688 L 379.625 253.304688 C 379.789062 253.304688 379.925781 253.375 380.03125 253.523438 C 380.144531 253.679688 380.203125 253.875 380.203125 254.117188 C 380.203125 254.355469 380.144531 254.554688 380.03125 254.710938 C 379.925781 254.875 379.789062 254.960938 379.625 254.960938 L 370.265625 254.960938 L 374.375 259.523438 C 374.46875 259.636719 374.515625 259.757812 374.515625 259.882812 C 374.515625 260.078125 374.4375 260.265625 374.28125 260.445312 C 374.125 260.632812 373.941406 260.726562 373.734375 260.726562 C 373.578125 260.726562 373.445312 260.664062 373.34375 260.539062 L 370.875 257.757812 L 366.0625 261.085938 C 365.957031 261.148438 365.859375 261.179688 365.765625 261.179688 C 365.554688 261.179688 365.363281 261.078125 365.1875 260.882812 C 365.007812 260.683594 364.921875 260.476562 364.921875 260.257812 C 364.921875 260.070312 365.007812 259.917969 365.1875 259.804688 L 369.84375 256.617188 L 368.359375 254.960938 L 365.59375 254.960938 C 365.445312 254.960938 365.3125 254.875 365.1875 254.710938 C 365.0625 254.542969 365 254.34375 365 254.117188 C 365 253.898438 365.054688 253.703125 365.171875 253.539062 C 365.296875 253.382812 365.4375 253.304688 365.59375 253.304688 Z M 379.859375 262.144531 C 380.003906 262.144531 380.125 262.214844 380.21875 262.363281 C 380.3125 262.507812 380.359375 262.675781 380.359375 262.863281 C 380.359375 263.050781 380.3125 263.214844 380.21875 263.363281 C 380.125 263.519531 380.003906 263.597656 379.859375 263.597656 L 376.953125 263.394531 C 376.804688 263.394531 376.679688 263.347656 376.578125 263.253906 C 376.484375 263.167969 376.4375 263.039062 376.4375 262.863281 C 376.4375 262.519531 376.609375 262.347656 376.953125 262.347656 Z M 379.859375 264.863281 C 380.003906 264.863281 380.125 264.933594 380.21875 265.082031 C 380.3125 265.226562 380.359375 265.394531 380.359375 265.582031 C 380.359375 265.769531 380.3125 265.933594 380.21875 266.082031 C 380.125 266.238281 380.003906 266.316406 379.859375 266.316406 L 376.953125 266.128906 C 376.804688 266.128906 376.679688 266.082031 376.578125 265.988281 C 376.484375 265.894531 376.4375 265.757812 376.4375 265.582031 C 376.4375 265.238281 376.609375 265.066406 376.953125 265.066406 Z M 366.84375 267.972656 C 367 267.972656 367.125 268.011719 367.21875 268.097656 L 369.71875 269.753906 L 372.21875 268.097656 C 372.320312 268.011719 372.445312 267.972656 372.59375 267.972656 C 372.769531 267.972656 372.921875 268.042969 373.046875 268.191406 C 373.171875 268.347656 373.234375 268.519531 373.234375 268.707031 C 373.234375 268.902344 373.140625 269.074219 372.953125 269.222656 L 370.8125 270.566406 L 372.953125 271.894531 C 373.140625 272.019531 373.234375 272.195312 373.234375 272.425781 C 373.234375 272.613281 373.171875 272.773438 373.046875 272.910156 C 372.929688 273.042969 372.78125 273.113281 372.59375 273.113281 C 372.46875 273.113281 372.34375 273.082031 372.21875 273.019531 L 369.71875 271.363281 L 367.21875 273.003906 C 367.101562 273.074219 366.976562 273.113281 366.84375 273.113281 C 366.664062 273.113281 366.515625 273.039062 366.390625 272.894531 C 366.273438 272.746094 366.21875 272.582031 366.21875 272.394531 C 366.21875 272.152344 366.3125 271.980469 366.5 271.878906 L 368.625 270.566406 L 366.5 269.222656 C 366.3125 269.085938 366.21875 268.914062 366.21875 268.707031 C 366.21875 268.519531 366.273438 268.347656 366.390625 268.191406 C 366.515625 268.042969 366.664062 267.972656 366.84375 267.972656 Z M 365 274.078125 "/>
</g>
</svg>
