<?xml version="1.0" encoding="UTF-8"?>
<svg xmlns="http://www.w3.org/2000/svg" xmlns:xlink="http://www.w3.org/1999/xlink" width="384pt" height="288pt" viewBox="0 0 384 288" version="1.1">
<g id="surface169">
<path style=" stroke:none;fill-rule:nonzero;fill:rgb(0%,0%,0%);fill-opacity:1;" d="M 0 0 L 284 0 L 284 288 L 0 288 Z M 0 0 "/>
<path style=" stroke:none;fill-rule:nonzero;fill:rgb(50.196078%,50.196078%,50.196078%);fill-opacity:1;" d="M 0 0 L 35.5 0 L 35.5 288 L 0 288 Z M 0 0 "/>
<path style=" stroke:none;fill-rule:nonzero;fill:rgb(0%,0%,0%);fill-opacity:1;" d="M 35.5 0 L 71 0 L 71 288 L 35.5 288 Z M 35.5 0 "/>
<path style=" stroke:none;fill-rule:nonzero;fill:rgb(50.196078%,50.196078%,50.196078%);fill-opacity:1;" d="M 71 0 L 106.5 0 L 106.5 288 L 71 288 Z M 71 0 "/>
<path style=" stroke:none;fill-rule:nonzero;fill:rgb(0%,0%,0%);fill-opacity:1;" d="M 106.5 0 L 142 0 L 142 288 L 106.5 288 Z M 106.5 0 "/>
<path style=" stroke:none;fill-rule:nonzero;fill:rgb(50.196078%,50.196078%,50.196078%);fill-opacity:1;" d="M 142 0 L 177.5 0 L 177.5 288 L 142 288 Z M 142 0 "/>
<path style=" stroke:none;fill-rule:nonzero;fill:rgb(0%,0%,0%);fill-opacity:1;" d="M 177.5 0 L 213 0 L 213 288 L 177.5 288 Z M 177.5 0 "/>
<path style=" stroke:none;fill-rule:nonzero;fill:rgb(50.196078%,50.196078%,50.196078%);fill-opacity:1;" d="M 213 0 L 248.5 0 L 248.5 288 L 213 288 Z M 213 0 "/>
<path style=" stroke:none;fill-rule:nonzero;fill:rgb(0%,0%,0%);fill-opacity:1;" d="M 248.5 0 L 284 0 L 284 288 L 248.5 288 Z M 248.5 0 "/>
<path style=" stroke:none;fill-rule:nonzero;fill:rgb(0%,0%,0%);fill-opacity:1;" d="M 350.34375 50.71875 L 356.875 50.71875 C 357.5 50.71875 358.03125 50.925781 358.46875 51.34375 C 358.90625 51.769531 359.125 52.269531 359.125 52.84375 L 359.125 53.265625 C 359.125 53.390625 359.078125 53.488281 358.984375 53.5625 C 358.898438 53.632812 358.796875 53.671875 358.671875 53.671875 C 358.554688 53.671875 358.457031 53.632812 358.375 53.5625 C 358.289062 53.488281 358.25 53.390625 358.25 53.265625 L 358.25 53.015625 C 358.25 52.640625 358.125 52.332031 357.875 52.09375 C 357.625 51.851562 357.316406 51.726562 356.953125 51.71875 L 355.6875 51.71875 L 355.6875 53.359375 C 355.6875 53.453125 355.644531 53.523438 355.5625 53.578125 C 355.488281 53.640625 355.398438 53.671875 355.296875 53.671875 C 355.191406 53.671875 355.097656 53.640625 355.015625 53.578125 C 354.941406 53.523438 354.90625 53.453125 354.90625 53.359375 L 354.90625 51.71875 L 350.34375 51.71875 C 350.25 51.71875 350.164062 51.664062 350.09375 51.5625 C 350.03125 51.46875 350 51.347656 350 51.203125 C 350 51.066406 350.03125 50.953125 350.09375 50.859375 C 350.15625 50.765625 350.238281 50.71875 350.34375 50.71875 Z M 352.234375 54.265625 L 353.453125 54.265625 C 354.066406 54.265625 354.601562 54.5 355.0625 54.96875 C 355.53125 55.4375 355.765625 55.988281 355.765625 56.625 C 355.765625 57.269531 355.535156 57.828125 355.078125 58.296875 C 354.617188 58.773438 354.078125 59.015625 353.453125 59.015625 L 352.234375 59.015625 C 351.617188 59.015625 351.078125 58.773438 350.609375 58.296875 C 350.140625 57.816406 349.90625 57.257812 349.90625 56.625 C 349.90625 56 350.140625 55.445312 350.609375 54.96875 C 351.078125 54.5 351.617188 54.265625 352.234375 54.265625 Z M 352.234375 55.265625 C 351.859375 55.265625 351.523438 55.398438 351.234375 55.671875 C 350.941406 55.941406 350.796875 56.265625 350.796875 56.640625 C 350.796875 57.015625 350.941406 57.335938 351.234375 57.609375 C 351.535156 57.878906 351.867188 58.015625 352.234375 58.015625 L 353.453125 58.015625 C 353.816406 58.015625 354.140625 57.878906 354.421875 57.609375 C 354.710938 57.335938 354.859375 57.015625 354.859375 56.640625 C 354.859375 56.265625 354.710938 55.941406 354.421875 55.671875 C 354.140625 55.398438 353.816406 55.265625 353.453125 55.265625 Z M 350.359375 60.316406 L 358.765625 60.316406 C 358.867188 60.316406 358.953125 60.363281 359.015625 60.457031 C 359.085938 60.550781 359.125 60.667969 359.125 60.816406 C 359.125 60.960938 359.085938 61.082031 359.015625 61.175781 C 358.953125 61.269531 358.867188 61.316406 358.765625 61.316406 L 350.359375 61.316406 C 350.273438 61.316406 350.191406 61.261719 350.109375 61.160156 C 350.035156 61.066406 350 60.949219 350 60.816406 C 350 60.679688 350.035156 60.558594 350.109375 60.457031 C 350.179688 60.363281 350.265625 60.316406 350.359375 60.316406 Z M 352.234375 62.617188 L 353.453125 62.617188 C 354.085938 62.617188 354.628906 62.828125 355.078125 63.257812 C 355.535156 63.683594 355.765625 64.1875 355.765625 64.773438 C 355.765625 65.136719 355.675781 65.453125 355.5 65.726562 C 355.320312 65.996094 355.101562 66.203125 354.84375 66.351562 L 358.765625 66.351562 C 358.867188 66.351562 358.953125 66.398438 359.015625 66.492188 C 359.085938 66.585938 359.125 66.703125 359.125 66.851562 C 359.125 66.996094 359.085938 67.109375 359.015625 67.195312 C 358.953125 67.289062 358.867188 67.335938 358.765625 67.335938 L 350.359375 67.335938 C 350.265625 67.335938 350.179688 67.289062 350.109375 67.195312 C 350.035156 67.101562 350 66.984375 350 66.851562 C 350 66.726562 350.035156 66.617188 350.109375 66.523438 C 350.179688 66.4375 350.265625 66.398438 350.359375 66.398438 L 350.84375 66.398438 C 350.582031 66.261719 350.359375 66.039062 350.171875 65.726562 C 349.996094 65.421875 349.90625 65.09375 349.90625 64.742188 C 349.90625 64.179688 350.140625 63.683594 350.609375 63.257812 C 351.078125 62.828125 351.617188 62.617188 352.234375 62.617188 Z M 352.234375 63.617188 C 351.867188 63.617188 351.535156 63.75 351.234375 64.023438 C 350.941406 64.292969 350.796875 64.609375 350.796875 64.976562 C 350.796875 65.328125 350.929688 65.648438 351.203125 65.929688 C 351.472656 66.210938 351.707031 66.351562 351.90625 66.351562 L 353.453125 66.351562 C 353.867188 66.351562 354.207031 66.210938 354.46875 65.929688 C 354.726562 65.65625 354.859375 65.34375 354.859375 64.992188 C 354.859375 64.617188 354.710938 64.292969 354.421875 64.023438 C 354.140625 63.75 353.816406 63.617188 353.453125 63.617188 Z M 350.359375 68.917969 L 358.40625 68.917969 C 358.519531 68.917969 358.609375 68.957031 358.671875 69.042969 C 358.734375 69.136719 358.765625 69.246094 358.765625 69.371094 L 358.765625 73.636719 C 358.765625 73.75 358.722656 73.832031 358.640625 73.886719 C 358.554688 73.949219 358.453125 73.980469 358.328125 73.980469 C 358.203125 73.980469 358.09375 73.949219 358 73.886719 C 357.90625 73.824219 357.859375 73.738281 357.859375 73.636719 L 357.859375 69.917969 L 354.8125 69.917969 L 354.8125 71.792969 C 354.8125 71.894531 354.769531 71.980469 354.6875 72.042969 C 354.601562 72.105469 354.5 72.136719 354.375 72.136719 C 354.269531 72.136719 354.175781 72.105469 354.09375 72.042969 C 354.007812 71.988281 353.96875 71.90625 353.96875 71.792969 L 353.96875 69.917969 L 350.90625 69.917969 L 350.90625 73.636719 C 350.90625 73.738281 350.859375 73.824219 350.765625 73.886719 C 350.679688 73.949219 350.570312 73.980469 350.4375 73.980469 C 350.320312 73.980469 350.21875 73.949219 350.125 73.886719 C 350.039062 73.832031 350 73.75 350 73.636719 L 350 69.371094 C 350 69.246094 350.03125 69.136719 350.09375 69.042969 C 350.15625 68.957031 350.242188 68.917969 350.359375 68.917969 Z M 355.28125 74.367188 C 355.394531 74.367188 355.492188 74.433594 355.578125 74.570312 C 355.671875 74.714844 355.71875 74.859375 355.71875 75.007812 C 355.71875 75.171875 355.648438 75.28125 355.515625 75.335938 L 351.4375 76.851562 L 355.46875 78.351562 C 355.632812 78.414062 355.71875 78.523438 355.71875 78.679688 C 355.71875 78.804688 355.671875 78.9375 355.578125 79.085938 C 355.492188 79.242188 355.394531 79.320312 355.28125 79.320312 C 355.21875 79.320312 355.15625 79.304688 355.09375 79.273438 L 350.109375 77.304688 C 349.964844 77.242188 349.890625 77.089844 349.890625 76.851562 C 349.890625 76.601562 349.964844 76.445312 350.109375 76.382812 L 355.09375 74.414062 C 355.1875 74.382812 355.25 74.367188 355.28125 74.367188 Z M 352.234375 79.957031 L 353.484375 79.957031 C 354.109375 79.957031 354.644531 80.191406 355.09375 80.660156 C 355.539062 81.128906 355.765625 81.691406 355.765625 82.347656 C 355.765625 82.972656 355.550781 83.511719 355.125 83.972656 C 354.707031 84.429688 354.179688 84.660156 353.546875 84.660156 C 353.316406 84.660156 353.128906 84.628906 352.984375 84.566406 C 352.847656 84.511719 352.75 84.429688 352.6875 84.316406 C 352.632812 84.199219 352.597656 84.089844 352.578125 83.988281 C 352.566406 83.894531 352.5625 83.757812 352.5625 83.582031 L 352.5625 80.957031 L 352.203125 80.957031 C 351.753906 80.957031 351.398438 81.113281 351.140625 81.425781 C 350.878906 81.746094 350.75 82.160156 350.75 82.660156 C 350.75 82.929688 350.785156 83.160156 350.859375 83.347656 C 350.941406 83.542969 351.019531 83.699219 351.09375 83.816406 C 351.175781 83.941406 351.21875 84.039062 351.21875 84.113281 C 351.21875 84.226562 351.164062 84.320312 351.0625 84.394531 C 350.957031 84.476562 350.851562 84.519531 350.75 84.519531 C 350.570312 84.519531 350.382812 84.335938 350.1875 83.972656 C 350 83.605469 349.90625 83.160156 349.90625 82.628906 C 349.90625 81.847656 350.117188 81.207031 350.546875 80.707031 C 350.972656 80.207031 351.535156 79.957031 352.234375 79.957031 Z M 353.234375 80.957031 L 353.234375 83.175781 C 353.234375 83.382812 353.257812 83.523438 353.3125 83.597656 C 353.363281 83.667969 353.460938 83.707031 353.609375 83.707031 C 353.972656 83.707031 354.289062 83.570312 354.5625 83.300781 C 354.832031 83.039062 354.96875 82.722656 354.96875 82.347656 C 354.96875 81.960938 354.84375 81.632812 354.59375 81.363281 C 354.34375 81.089844 354.03125 80.957031 353.65625 80.957031 Z M 350.359375 85.753906 L 355.34375 85.753906 C 355.445312 85.753906 355.53125 85.800781 355.59375 85.894531 C 355.65625 85.988281 355.6875 86.105469 355.6875 86.253906 C 355.6875 86.378906 355.65625 86.480469 355.59375 86.566406 C 355.53125 86.660156 355.445312 86.707031 355.34375 86.707031 L 354.78125 86.707031 C 355.050781 86.851562 355.28125 87.066406 355.46875 87.347656 C 355.664062 87.628906 355.765625 87.941406 355.765625 88.285156 L 355.765625 88.691406 C 355.765625 88.792969 355.71875 88.882812 355.625 88.957031 C 355.53125 89.027344 355.421875 89.066406 355.296875 89.066406 C 355.179688 89.066406 355.078125 89.027344 354.984375 88.957031 C 354.898438 88.882812 354.859375 88.792969 354.859375 88.691406 L 354.859375 88.285156 C 354.859375 87.867188 354.691406 87.507812 354.359375 87.207031 C 354.035156 86.902344 353.613281 86.753906 353.09375 86.753906 L 350.359375 86.753906 C 350.273438 86.753906 350.191406 86.699219 350.109375 86.597656 C 350.035156 86.503906 350 86.386719 350 86.253906 C 350 86.117188 350.035156 85.996094 350.109375 85.894531 C 350.179688 85.800781 350.265625 85.753906 350.359375 85.753906 Z M 355.28125 89.320312 C 355.40625 89.320312 355.515625 89.390625 355.609375 89.539062 C 355.710938 89.683594 355.765625 89.828125 355.765625 89.976562 C 355.765625 90.140625 355.695312 90.246094 355.5625 90.289062 L 351.375 91.882812 L 355.5625 93.304688 C 355.695312 93.367188 355.765625 93.46875 355.765625 93.617188 C 355.765625 93.75 355.710938 93.890625 355.609375 94.039062 C 355.515625 94.195312 355.398438 94.273438 355.265625 94.273438 C 355.222656 94.273438 355.179688 94.257812 355.140625 94.226562 L 350.265625 92.414062 L 349.65625 92.179688 C 349.554688 92.136719 349.367188 92.054688 349.09375 91.929688 C 348.824219 91.8125 348.625 91.714844 348.5 91.632812 C 348.375 91.558594 348.21875 91.449219 348.03125 91.304688 C 347.835938 91.15625 347.695312 91.015625 347.609375 90.882812 C 347.515625 90.746094 347.433594 90.585938 347.359375 90.398438 C 347.289062 90.210938 347.25 90.011719 347.25 89.804688 C 347.25 89.492188 347.402344 89.335938 347.703125 89.335938 C 347.984375 89.335938 348.125 89.429688 348.125 89.617188 C 348.125 89.980469 348.328125 90.328125 348.734375 90.664062 C 349.140625 91.007812 349.65625 91.242188 350.28125 91.367188 L 355.140625 89.367188 C 355.191406 89.335938 355.238281 89.320312 355.28125 89.320312 Z M 350.09375 97.605469 L 358.875 97.605469 C 358.976562 97.605469 359.0625 97.652344 359.125 97.746094 C 359.1875 97.839844 359.21875 97.941406 359.21875 98.058594 L 359.21875 100.027344 C 359.21875 100.128906 359.171875 100.214844 359.078125 100.277344 C 358.992188 100.339844 358.890625 100.371094 358.765625 100.371094 C 358.640625 100.371094 358.53125 100.339844 358.4375 100.277344 C 358.351562 100.214844 358.3125 100.128906 358.3125 100.027344 L 358.3125 98.605469 L 350.640625 98.605469 L 350.640625 100.027344 C 350.640625 100.128906 350.597656 100.214844 350.515625 100.277344 C 350.429688 100.339844 350.320312 100.371094 350.1875 100.371094 C 350.070312 100.371094 349.976562 100.339844 349.890625 100.277344 C 349.796875 100.214844 349.75 100.128906 349.75 100.027344 L 349.75 98.058594 C 349.75 97.941406 349.78125 97.839844 349.84375 97.746094 C 349.90625 97.652344 349.992188 97.605469 350.09375 97.605469 Z M 351.96875 100.90625 C 352.15625 100.90625 352.28125 100.9375 352.34375 101 C 352.40625 101.070312 352.4375 101.195312 352.4375 101.375 C 352.4375 101.5625 352.40625 101.691406 352.34375 101.765625 C 352.28125 101.847656 352.179688 101.890625 352.046875 101.890625 C 351.734375 101.890625 351.453125 102.019531 351.203125 102.28125 C 350.960938 102.539062 350.84375 102.9375 350.84375 103.46875 C 350.84375 104.53125 351.394531 105.0625 352.5 105.0625 L 352.71875 105.0625 C 353.695312 105.0625 354.1875 104.53125 354.1875 103.46875 C 354.1875 103.226562 354.328125 103.109375 354.609375 103.109375 C 354.890625 103.109375 355.03125 103.226562 355.03125 103.46875 C 355.03125 103.925781 355.132812 104.269531 355.34375 104.5 C 355.550781 104.738281 355.925781 104.859375 356.46875 104.859375 C 357.40625 104.859375 357.875 104.410156 357.875 103.515625 C 357.875 102.992188 357.757812 102.628906 357.53125 102.421875 C 357.300781 102.210938 357.03125 102.109375 356.71875 102.109375 C 356.425781 102.109375 356.28125 101.945312 356.28125 101.625 C 356.28125 101.40625 356.3125 101.257812 356.375 101.1875 C 356.445312 101.125 356.582031 101.09375 356.78125 101.09375 C 356.988281 101.09375 357.195312 101.128906 357.40625 101.203125 C 357.625 101.285156 357.835938 101.410156 358.046875 101.578125 C 358.253906 101.742188 358.425781 101.992188 358.5625 102.328125 C 358.695312 102.671875 358.765625 103.070312 358.765625 103.53125 C 358.765625 105.0625 358.054688 105.828125 356.640625 105.828125 C 356.140625 105.828125 355.710938 105.738281 355.359375 105.5625 C 355.015625 105.382812 354.769531 105.148438 354.625 104.859375 C 354.300781 105.671875 353.664062 106.078125 352.71875 106.078125 L 352.5 106.078125 C 351.613281 106.078125 350.960938 105.835938 350.546875 105.359375 C 350.128906 104.878906 349.921875 104.25 349.921875 103.46875 C 349.921875 102.632812 350.128906 102 350.546875 101.5625 C 350.972656 101.125 351.445312 100.90625 351.96875 100.90625 Z M 350.546875 106.992188 C 350.722656 106.992188 350.875 107.046875 351 107.164062 C 351.125 107.277344 351.1875 107.421875 351.1875 107.601562 C 351.1875 107.765625 351.125 107.914062 351 108.039062 C 350.882812 108.164062 350.734375 108.226562 350.546875 108.226562 C 350.410156 108.226562 349.929688 108.054688 349.09375 107.710938 C 348.992188 107.65625 348.9375 107.570312 348.9375 107.445312 C 348.9375 107.351562 348.964844 107.265625 349.015625 107.195312 C 349.070312 107.132812 349.136719 107.101562 349.21875 107.101562 C 349.273438 107.101562 349.320312 107.105469 349.359375 107.117188 L 349.96875 107.367188 C 350.070312 107.117188 350.265625 106.992188 350.546875 106.992188 Z M 352 108.964844 C 352.320312 108.964844 352.484375 109.128906 352.484375 109.464844 C 352.484375 109.808594 352.347656 109.980469 352.078125 109.980469 C 351.691406 109.980469 351.390625 110.125 351.171875 110.417969 C 350.953125 110.71875 350.84375 111.09375 350.84375 111.542969 C 350.84375 112.050781 350.984375 112.441406 351.265625 112.714844 C 351.546875 112.996094 351.960938 113.136719 352.515625 113.136719 L 352.75 113.136719 C 353.289062 113.136719 353.695312 112.996094 353.96875 112.714844 C 354.25 112.441406 354.390625 112.058594 354.390625 111.558594 L 354.390625 109.855469 C 354.390625 109.542969 354.519531 109.386719 354.78125 109.386719 C 354.863281 109.386719 354.953125 109.394531 355.046875 109.417969 L 358.40625 109.667969 C 358.644531 109.675781 358.765625 109.765625 358.765625 109.933594 L 358.765625 113.386719 C 358.765625 113.488281 358.71875 113.566406 358.625 113.621094 C 358.539062 113.683594 358.4375 113.714844 358.3125 113.714844 C 358.195312 113.714844 358.09375 113.683594 358 113.621094 C 357.90625 113.566406 357.859375 113.488281 357.859375 113.386719 L 357.859375 110.542969 L 355.234375 110.355469 L 355.234375 111.558594 C 355.234375 112.339844 355.03125 112.964844 354.625 113.433594 C 354.226562 113.902344 353.601562 114.136719 352.75 114.136719 L 352.515625 114.136719 C 351.628906 114.136719 350.972656 113.902344 350.546875 113.433594 C 350.128906 112.964844 349.921875 112.339844 349.921875 111.558594 C 349.921875 110.753906 350.125 110.121094 350.53125 109.652344 C 350.9375 109.191406 351.425781 108.964844 352 108.964844 Z M 350.1875 114.707031 C 350.320312 114.707031 350.429688 114.738281 350.515625 114.800781 C 350.597656 114.863281 350.640625 114.945312 350.640625 115.050781 L 350.640625 116.472656 L 358.3125 116.472656 L 358.3125 115.050781 C 358.3125 114.945312 358.351562 114.863281 358.4375 114.800781 C 358.53125 114.738281 358.640625 114.707031 358.765625 114.707031 C 358.890625 114.707031 358.992188 114.738281 359.078125 114.800781 C 359.171875 114.863281 359.21875 114.945312 359.21875 115.050781 L 359.21875 117.019531 C 359.21875 117.144531 359.1875 117.246094 359.125 117.332031 C 359.0625 117.425781 358.976562 117.472656 358.875 117.472656 L 350.09375 117.472656 C 349.992188 117.472656 349.90625 117.425781 349.84375 117.332031 C 349.78125 117.246094 349.75 117.144531 349.75 117.019531 L 349.75 115.050781 C 349.75 114.945312 349.796875 114.863281 349.890625 114.800781 C 349.976562 114.738281 350.070312 114.707031 350.1875 114.707031 Z M 351.859375 121.34375 L 356.953125 121.34375 C 357.578125 121.34375 358.109375 121.570312 358.546875 122.03125 C 358.992188 122.5 359.21875 123.046875 359.21875 123.671875 C 359.21875 123.992188 359.066406 124.15625 358.765625 124.15625 C 358.628906 124.15625 358.519531 124.125 358.4375 124.0625 C 358.351562 124 358.3125 123.914062 358.3125 123.8125 C 358.3125 123.375 358.171875 123.019531 357.890625 122.75 C 357.617188 122.476562 357.304688 122.34375 356.953125 122.34375 L 351.859375 122.34375 C 351.421875 122.34375 351.109375 122.488281 350.921875 122.78125 C 350.742188 123.070312 350.65625 123.414062 350.65625 123.8125 C 350.65625 124.039062 350.503906 124.15625 350.203125 124.15625 C 349.914062 124.15625 349.765625 123.984375 349.765625 123.640625 C 349.765625 122.992188 349.949219 122.445312 350.3125 122 C 350.675781 121.5625 351.191406 121.34375 351.859375 121.34375 Z M 350.8125 124.734375 C 350.914062 124.734375 351.015625 124.765625 351.109375 124.828125 C 351.210938 124.898438 351.265625 124.984375 351.265625 125.078125 C 351.265625 125.140625 351.21875 125.226562 351.125 125.34375 C 351.03125 125.46875 350.9375 125.644531 350.84375 125.875 C 350.75 126.101562 350.703125 126.367188 350.703125 126.671875 C 350.703125 127.066406 350.773438 127.351562 350.921875 127.53125 C 351.066406 127.71875 351.25 127.8125 351.46875 127.8125 C 351.726562 127.8125 351.9375 127.707031 352.09375 127.5 C 352.25 127.300781 352.363281 127.054688 352.4375 126.765625 C 352.519531 126.484375 352.609375 126.195312 352.703125 125.90625 C 352.804688 125.625 352.96875 125.378906 353.1875 125.171875 C 353.414062 124.972656 353.710938 124.875 354.078125 124.875 C 354.535156 124.875 354.929688 125.035156 355.265625 125.359375 C 355.597656 125.679688 355.765625 126.175781 355.765625 126.84375 C 355.765625 127.269531 355.695312 127.65625 355.5625 128 C 355.425781 128.351562 355.273438 128.53125 355.109375 128.53125 C 355.015625 128.53125 354.90625 128.492188 354.78125 128.421875 C 354.664062 128.347656 354.609375 128.253906 354.609375 128.140625 C 354.609375 128.109375 354.664062 127.953125 354.78125 127.671875 C 354.894531 127.398438 354.953125 127.128906 354.953125 126.859375 C 354.953125 126.492188 354.863281 126.21875 354.6875 126.03125 C 354.519531 125.851562 354.328125 125.765625 354.109375 125.765625 C 353.890625 125.765625 353.710938 125.863281 353.578125 126.0625 C 353.453125 126.257812 353.351562 126.503906 353.28125 126.796875 C 353.21875 127.097656 353.132812 127.390625 353.03125 127.671875 C 352.925781 127.960938 352.742188 128.207031 352.484375 128.40625 C 352.234375 128.601562 351.910156 128.703125 351.515625 128.703125 C 351.015625 128.703125 350.617188 128.523438 350.328125 128.171875 C 350.046875 127.828125 349.90625 127.335938 349.90625 126.703125 C 349.90625 126.160156 350 125.695312 350.1875 125.3125 C 350.382812 124.925781 350.59375 124.734375 350.8125 124.734375 Z M 350.359375 129.894531 L 358.765625 129.894531 C 358.867188 129.894531 358.953125 129.941406 359.015625 130.035156 C 359.085938 130.128906 359.125 130.246094 359.125 130.394531 C 359.125 130.539062 359.085938 130.660156 359.015625 130.753906 C 358.953125 130.847656 358.867188 130.894531 358.765625 130.894531 L 350.359375 130.894531 C 350.273438 130.894531 350.191406 130.839844 350.109375 130.738281 C 350.035156 130.644531 350 130.527344 350 130.394531 C 350 130.257812 350.035156 130.136719 350.109375 130.035156 C 350.179688 129.941406 350.265625 129.894531 350.359375 129.894531 Z M 352.234375 132.191406 L 353.453125 132.191406 C 354.066406 132.191406 354.601562 132.425781 355.0625 132.894531 C 355.53125 133.363281 355.765625 133.914062 355.765625 134.550781 C 355.765625 135.195312 355.535156 135.753906 355.078125 136.222656 C 354.617188 136.699219 354.078125 136.941406 353.453125 136.941406 L 352.234375 136.941406 C 351.617188 136.941406 351.078125 136.699219 350.609375 136.222656 C 350.140625 135.742188 349.90625 135.183594 349.90625 134.550781 C 349.90625 133.925781 350.140625 133.371094 350.609375 132.894531 C 351.078125 132.425781 351.617188 132.191406 352.234375 132.191406 Z M 352.234375 133.191406 C 351.859375 133.191406 351.523438 133.324219 351.234375 133.597656 C 350.941406 133.867188 350.796875 134.191406 350.796875 134.566406 C 350.796875 134.941406 350.941406 135.261719 351.234375 135.535156 C 351.535156 135.804688 351.867188 135.941406 352.234375 135.941406 L 353.453125 135.941406 C 353.816406 135.941406 354.140625 135.804688 354.421875 135.535156 C 354.710938 135.261719 354.859375 134.941406 354.859375 134.566406 C 354.859375 134.191406 354.710938 133.867188 354.421875 133.597656 C 354.140625 133.324219 353.816406 133.191406 353.453125 133.191406 Z M 355.28125 137.605469 C 355.394531 137.605469 355.492188 137.667969 355.578125 137.792969 C 355.671875 137.925781 355.71875 138.066406 355.71875 138.214844 C 355.71875 138.378906 355.648438 138.488281 355.515625 138.542969 L 351.484375 139.996094 L 355.125 141.121094 C 355.28125 141.171875 355.359375 141.296875 355.359375 141.496094 C 355.359375 141.691406 355.28125 141.816406 355.125 141.871094 L 351.453125 142.980469 L 355.515625 144.449219 C 355.648438 144.480469 355.71875 144.578125 355.71875 144.746094 C 355.71875 144.890625 355.671875 145.03125 355.578125 145.167969 C 355.492188 145.300781 355.394531 145.371094 355.28125 145.371094 C 355.21875 145.371094 355.15625 145.355469 355.09375 145.324219 L 350.109375 143.464844 C 349.964844 143.402344 349.890625 143.265625 349.890625 143.058594 C 349.890625 142.839844 349.964844 142.703125 350.109375 142.652344 L 353.640625 141.496094 L 350.140625 140.355469 C 349.976562 140.292969 349.890625 140.144531 349.890625 139.917969 C 349.890625 139.707031 349.976562 139.574219 350.140625 139.511719 L 355.09375 137.652344 C 355.1875 137.621094 355.25 137.605469 355.28125 137.605469 Z M 350.359375 148.324219 L 351.53125 148.324219 C 351.882812 148.324219 352.234375 148.457031 352.578125 148.730469 C 352.929688 149.011719 353.25 149.34375 353.53125 149.730469 L 354.390625 150.902344 C 354.671875 151.285156 354.984375 151.613281 355.328125 151.886719 C 355.679688 152.167969 356.035156 152.308594 356.390625 152.308594 C 356.773438 152.308594 357.113281 152.183594 357.40625 151.933594 C 357.695312 151.683594 357.84375 151.324219 357.84375 150.855469 C 357.84375 150.449219 357.726562 150.121094 357.5 149.871094 C 357.269531 149.621094 356.945312 149.496094 356.53125 149.496094 C 356.425781 149.496094 356.332031 149.441406 356.25 149.339844 C 356.164062 149.246094 356.125 149.121094 356.125 148.964844 C 356.125 148.660156 356.320312 148.511719 356.71875 148.511719 C 357.320312 148.511719 357.8125 148.734375 358.1875 149.183594 C 358.570312 149.640625 358.765625 150.199219 358.765625 150.855469 C 358.765625 151.550781 358.539062 152.136719 358.09375 152.605469 C 357.65625 153.082031 357.101562 153.324219 356.4375 153.324219 C 356.03125 153.324219 355.644531 153.222656 355.28125 153.027344 C 354.914062 152.828125 354.601562 152.582031 354.34375 152.292969 C 354.082031 152 353.828125 151.683594 353.578125 151.339844 L 352.890625 150.386719 C 352.691406 150.09375 352.472656 149.847656 352.234375 149.652344 C 351.992188 149.453125 351.757812 149.355469 351.53125 149.355469 L 350.90625 149.355469 L 350.90625 153.042969 C 350.90625 153.136719 350.859375 153.214844 350.765625 153.277344 C 350.679688 153.347656 350.578125 153.386719 350.453125 153.386719 C 350.335938 153.386719 350.234375 153.347656 350.140625 153.277344 C 350.046875 153.214844 350 153.136719 350 153.042969 L 350 148.777344 C 350 148.671875 350.03125 148.566406 350.09375 148.464844 C 350.164062 148.371094 350.253906 148.324219 350.359375 148.324219 Z M 350.203125 153.960938 C 350.503906 153.960938 350.65625 154.074219 350.65625 154.304688 C 350.65625 154.699219 350.742188 155.042969 350.921875 155.335938 C 351.109375 155.625 351.421875 155.773438 351.859375 155.773438 L 356.953125 155.773438 C 357.304688 155.773438 357.617188 155.636719 357.890625 155.367188 C 358.171875 155.09375 358.3125 154.742188 358.3125 154.304688 C 358.3125 154.199219 358.351562 154.117188 358.4375 154.054688 C 358.519531 153.992188 358.628906 153.960938 358.765625 153.960938 C 359.066406 153.960938 359.21875 154.121094 359.21875 154.445312 C 359.21875 155.070312 358.992188 155.609375 358.546875 156.070312 C 358.109375 156.539062 357.578125 156.773438 356.953125 156.773438 L 351.859375 156.773438 C 351.191406 156.773438 350.675781 156.546875 350.3125 156.101562 C 349.949219 155.664062 349.765625 155.117188 349.765625 154.460938 C 349.765625 154.125 349.914062 153.960938 350.203125 153.960938 Z M 351.375 160.28125 C 351.507812 160.28125 351.632812 160.328125 351.75 160.421875 C 351.875 160.515625 351.9375 160.613281 351.9375 160.71875 C 351.9375 160.78125 351.882812 160.867188 351.78125 160.984375 C 351.6875 161.097656 351.582031 161.210938 351.46875 161.328125 C 351.351562 161.441406 351.242188 161.625 351.140625 161.875 C 351.046875 162.125 350.988281 162.40625 350.96875 162.71875 L 354.15625 162.71875 L 354.40625 162.0625 C 354.457031 161.914062 354.550781 161.722656 354.6875 161.484375 C 354.820312 161.242188 354.957031 161.066406 355.09375 160.953125 C 355.238281 160.835938 355.429688 160.734375 355.671875 160.640625 C 355.910156 160.546875 356.175781 160.5 356.46875 160.5 C 356.832031 160.5 357.148438 160.5625 357.421875 160.6875 C 357.703125 160.8125 357.921875 160.984375 358.078125 161.203125 C 358.234375 161.429688 358.351562 161.664062 358.4375 161.90625 C 358.519531 162.15625 358.578125 162.425781 358.609375 162.71875 L 358.96875 162.71875 C 359.03125 162.71875 359.085938 162.742188 359.140625 162.796875 C 359.191406 162.859375 359.21875 162.9375 359.21875 163.03125 C 359.21875 163.101562 359.191406 163.171875 359.140625 163.234375 C 359.085938 163.304688 359.03125 163.34375 358.96875 163.34375 L 358.625 163.34375 C 358.601562 163.820312 358.519531 164.253906 358.375 164.640625 C 358.238281 165.035156 358.0625 165.234375 357.84375 165.234375 C 357.726562 165.234375 357.601562 165.191406 357.46875 165.109375 C 357.34375 165.035156 357.28125 164.929688 357.28125 164.796875 C 357.28125 164.765625 357.347656 164.597656 357.484375 164.296875 C 357.628906 164.003906 357.710938 163.6875 357.734375 163.34375 L 354.984375 163.34375 C 354.878906 163.65625 354.769531 163.910156 354.65625 164.109375 C 354.550781 164.316406 354.40625 164.535156 354.21875 164.765625 C 354.03125 164.992188 353.789062 165.164062 353.5 165.28125 C 353.207031 165.394531 352.863281 165.453125 352.46875 165.453125 C 351.769531 165.453125 351.210938 165.257812 350.796875 164.875 C 350.390625 164.5 350.144531 163.988281 350.0625 163.34375 L 349.625 163.34375 C 349.5625 163.34375 349.507812 163.304688 349.453125 163.234375 C 349.402344 163.171875 349.375 163.101562 349.375 163.03125 C 349.375 162.9375 349.402344 162.859375 349.453125 162.796875 C 349.507812 162.742188 349.5625 162.71875 349.625 162.71875 L 350.03125 162.71875 C 350.03125 162.03125 350.179688 161.453125 350.484375 160.984375 C 350.796875 160.515625 351.09375 160.28125 351.375 160.28125 Z M 356.5625 161.453125 C 356.1875 161.453125 355.90625 161.5625 355.71875 161.78125 C 355.53125 162 355.359375 162.328125 355.203125 162.765625 L 357.71875 162.765625 C 357.625 161.890625 357.238281 161.453125 356.5625 161.453125 Z M 351 163.296875 C 351.125 164.085938 351.582031 164.484375 352.375 164.484375 C 352.789062 164.484375 353.113281 164.378906 353.34375 164.171875 C 353.582031 163.972656 353.78125 163.679688 353.9375 163.296875 Z M 352.234375 168.816406 L 353.453125 168.816406 C 354.085938 168.816406 354.628906 169.027344 355.078125 169.457031 C 355.535156 169.882812 355.765625 170.386719 355.765625 170.972656 C 355.765625 171.335938 355.675781 171.652344 355.5 171.925781 C 355.320312 172.195312 355.101562 172.402344 354.84375 172.550781 L 358.765625 172.550781 C 358.867188 172.550781 358.953125 172.597656 359.015625 172.691406 C 359.085938 172.785156 359.125 172.902344 359.125 173.050781 C 359.125 173.195312 359.085938 173.308594 359.015625 173.394531 C 358.953125 173.488281 358.867188 173.535156 358.765625 173.535156 L 350.359375 173.535156 C 350.265625 173.535156 350.179688 173.488281 350.109375 173.394531 C 350.035156 173.300781 350 173.183594 350 173.050781 C 350 172.925781 350.035156 172.816406 350.109375 172.722656 C 350.179688 172.636719 350.265625 172.597656 350.359375 172.597656 L 350.84375 172.597656 C 350.582031 172.460938 350.359375 172.238281 350.171875 171.925781 C 349.996094 171.621094 349.90625 171.292969 349.90625 170.941406 C 349.90625 170.378906 350.140625 169.882812 350.609375 169.457031 C 351.078125 169.027344 351.617188 168.816406 352.234375 168.816406 Z M 352.234375 169.816406 C 351.867188 169.816406 351.535156 169.949219 351.234375 170.222656 C 350.941406 170.492188 350.796875 170.808594 350.796875 171.175781 C 350.796875 171.527344 350.929688 171.847656 351.203125 172.128906 C 351.472656 172.410156 351.707031 172.550781 351.90625 172.550781 L 353.453125 172.550781 C 353.867188 172.550781 354.207031 172.410156 354.46875 172.128906 C 354.726562 171.855469 354.859375 171.542969 354.859375 171.191406 C 354.859375 170.816406 354.710938 170.492188 354.421875 170.222656 C 354.140625 169.949219 353.816406 169.816406 353.453125 169.816406 Z M 352.234375 174.746094 L 353.484375 174.746094 C 354.109375 174.746094 354.644531 174.980469 355.09375 175.449219 C 355.539062 175.917969 355.765625 176.480469 355.765625 177.136719 C 355.765625 177.761719 355.550781 178.300781 355.125 178.761719 C 354.707031 179.21875 354.179688 179.449219 353.546875 179.449219 C 353.316406 179.449219 353.128906 179.417969 352.984375 179.355469 C 352.847656 179.300781 352.75 179.21875 352.6875 179.105469 C 352.632812 178.988281 352.597656 178.878906 352.578125 178.777344 C 352.566406 178.683594 352.5625 178.546875 352.5625 178.371094 L 352.5625 175.746094 L 352.203125 175.746094 C 351.753906 175.746094 351.398438 175.902344 351.140625 176.214844 C 350.878906 176.535156 350.75 176.949219 350.75 177.449219 C 350.75 177.71875 350.785156 177.949219 350.859375 178.136719 C 350.941406 178.332031 351.019531 178.488281 351.09375 178.605469 C 351.175781 178.730469 351.21875 178.828125 351.21875 178.902344 C 351.21875 179.015625 351.164062 179.109375 351.0625 179.183594 C 350.957031 179.265625 350.851562 179.308594 350.75 179.308594 C 350.570312 179.308594 350.382812 179.125 350.1875 178.761719 C 350 178.394531 349.90625 177.949219 349.90625 177.417969 C 349.90625 176.636719 350.117188 175.996094 350.546875 175.496094 C 350.972656 174.996094 351.535156 174.746094 352.234375 174.746094 Z M 353.234375 175.746094 L 353.234375 177.964844 C 353.234375 178.171875 353.257812 178.3125 353.3125 178.386719 C 353.363281 178.457031 353.460938 178.496094 353.609375 178.496094 C 353.972656 178.496094 354.289062 178.359375 354.5625 178.089844 C 354.832031 177.828125 354.96875 177.511719 354.96875 177.136719 C 354.96875 176.75 354.84375 176.421875 354.59375 176.152344 C 354.34375 175.878906 354.03125 175.746094 353.65625 175.746094 Z M 350.359375 180.542969 L 355.34375 180.542969 C 355.445312 180.542969 355.53125 180.589844 355.59375 180.683594 C 355.65625 180.777344 355.6875 180.894531 355.6875 181.042969 C 355.6875 181.15625 355.648438 181.261719 355.578125 181.355469 C 355.515625 181.449219 355.4375 181.496094 355.34375 181.496094 L 354.84375 181.496094 C 355.101562 181.621094 355.320312 181.824219 355.5 182.105469 C 355.675781 182.394531 355.765625 182.730469 355.765625 183.105469 C 355.765625 183.667969 355.535156 184.15625 355.078125 184.574219 C 354.628906 185 354.085938 185.214844 353.453125 185.214844 L 350.359375 185.214844 C 350.242188 185.214844 350.15625 185.160156 350.09375 185.058594 C 350.03125 184.964844 350 184.847656 350 184.714844 C 350 184.589844 350.03125 184.472656 350.09375 184.371094 C 350.15625 184.265625 350.242188 184.214844 350.359375 184.214844 L 353.453125 184.214844 C 353.816406 184.214844 354.140625 184.078125 354.421875 183.808594 C 354.710938 183.535156 354.859375 183.21875 354.859375 182.855469 C 354.859375 182.511719 354.726562 182.203125 354.46875 181.933594 C 354.207031 181.671875 353.867188 181.542969 353.453125 181.542969 L 350.359375 181.542969 C 350.273438 181.542969 350.191406 181.488281 350.109375 181.386719 C 350.035156 181.28125 350 181.167969 350 181.042969 C 350 180.90625 350.035156 180.785156 350.109375 180.683594 C 350.179688 180.589844 350.265625 180.542969 350.359375 180.542969 Z M 350.8125 186.238281 C 350.914062 186.238281 351.015625 186.269531 351.109375 186.332031 C 351.210938 186.402344 351.265625 186.488281 351.265625 186.582031 C 351.265625 186.644531 351.21875 186.730469 351.125 186.847656 C 351.03125 186.972656 350.9375 187.148438 350.84375 187.378906 C 350.75 187.605469 350.703125 187.871094 350.703125 188.175781 C 350.703125 188.570312 350.773438 188.855469 350.921875 189.035156 C 351.066406 189.222656 351.25 189.316406 351.46875 189.316406 C 351.726562 189.316406 351.9375 189.210938 352.09375 189.003906 C 352.25 188.804688 352.363281 188.558594 352.4375 188.269531 C 352.519531 187.988281 352.609375 187.699219 352.703125 187.410156 C 352.804688 187.128906 352.96875 186.882812 353.1875 186.675781 C 353.414062 186.476562 353.710938 186.378906 354.078125 186.378906 C 354.535156 186.378906 354.929688 186.539062 355.265625 186.863281 C 355.597656 187.183594 355.765625 187.679688 355.765625 188.347656 C 355.765625 188.773438 355.695312 189.160156 355.5625 189.503906 C 355.425781 189.855469 355.273438 190.035156 355.109375 190.035156 C 355.015625 190.035156 354.90625 189.996094 354.78125 189.925781 C 354.664062 189.851562 354.609375 189.757812 354.609375 189.644531 C 354.609375 189.613281 354.664062 189.457031 354.78125 189.175781 C 354.894531 188.902344 354.953125 188.632812 354.953125 188.363281 C 354.953125 187.996094 354.863281 187.722656 354.6875 187.535156 C 354.519531 187.355469 354.328125 187.269531 354.109375 187.269531 C 353.890625 187.269531 353.710938 187.367188 353.578125 187.566406 C 353.453125 187.761719 353.351562 188.007812 353.28125 188.300781 C 353.21875 188.601562 353.132812 188.894531 353.03125 189.175781 C 352.925781 189.464844 352.742188 189.710938 352.484375 189.910156 C 352.234375 190.105469 351.910156 190.207031 351.515625 190.207031 C 351.015625 190.207031 350.617188 190.027344 350.328125 189.675781 C 350.046875 189.332031 349.90625 188.839844 349.90625 188.207031 C 349.90625 187.664062 350 187.199219 350.1875 186.816406 C 350.382812 186.429688 350.59375 186.238281 350.8125 186.238281 Z M 357.421875 191.347656 C 357.535156 191.222656 357.664062 191.160156 357.8125 191.160156 C 357.96875 191.160156 358.101562 191.214844 358.21875 191.332031 C 358.332031 191.457031 358.390625 191.605469 358.390625 191.785156 C 358.390625 191.949219 358.332031 192.089844 358.21875 192.207031 C 358.101562 192.332031 357.96875 192.394531 357.8125 192.394531 C 357.664062 192.394531 357.535156 192.332031 357.421875 192.207031 C 357.304688 192.089844 357.25 191.949219 357.25 191.785156 C 357.25 191.617188 357.304688 191.472656 357.421875 191.347656 Z M 350.359375 191.285156 L 355.34375 191.285156 C 355.445312 191.285156 355.53125 191.332031 355.59375 191.425781 C 355.65625 191.527344 355.6875 191.648438 355.6875 191.785156 C 355.6875 191.929688 355.65625 192.050781 355.59375 192.144531 C 355.53125 192.238281 355.445312 192.285156 355.34375 192.285156 L 350.359375 192.285156 C 350.273438 192.285156 350.191406 192.230469 350.109375 192.128906 C 350.035156 192.035156 350 191.917969 350 191.785156 C 350 191.648438 350.035156 191.527344 350.109375 191.425781 C 350.179688 191.332031 350.265625 191.285156 350.359375 191.285156 Z M 351.8125 193.679688 L 357.984375 193.679688 C 358.085938 193.679688 358.171875 193.730469 358.234375 193.835938 C 358.304688 193.9375 358.34375 194.046875 358.34375 194.164062 C 358.34375 194.296875 358.304688 194.417969 358.234375 194.523438 C 358.171875 194.625 358.085938 194.679688 357.984375 194.679688 L 355.6875 194.679688 L 355.6875 196.179688 C 355.6875 196.273438 355.644531 196.34375 355.5625 196.398438 C 355.488281 196.449219 355.398438 196.476562 355.296875 196.476562 C 355.191406 196.476562 355.097656 196.449219 355.015625 196.398438 C 354.941406 196.34375 354.90625 196.273438 354.90625 196.179688 L 354.90625 194.679688 L 351.8125 194.679688 C 351.46875 194.679688 351.222656 194.75 351.078125 194.898438 C 350.941406 195.042969 350.875 195.296875 350.875 195.664062 L 350.875 196.039062 C 350.875 196.171875 350.832031 196.277344 350.75 196.351562 C 350.664062 196.433594 350.5625 196.476562 350.4375 196.476562 C 350.320312 196.476562 350.21875 196.433594 350.125 196.351562 C 350.039062 196.265625 350 196.164062 350 196.039062 L 350 195.664062 C 350 194.339844 350.601562 193.679688 351.8125 193.679688 Z M 355.28125 196.855469 C 355.40625 196.855469 355.515625 196.925781 355.609375 197.074219 C 355.710938 197.21875 355.765625 197.363281 355.765625 197.511719 C 355.765625 197.675781 355.695312 197.78125 355.5625 197.824219 L 351.375 199.417969 L 355.5625 200.839844 C 355.695312 200.902344 355.765625 201.003906 355.765625 201.152344 C 355.765625 201.285156 355.710938 201.425781 355.609375 201.574219 C 355.515625 201.730469 355.398438 201.808594 355.265625 201.808594 C 355.222656 201.808594 355.179688 201.792969 355.140625 201.761719 L 350.265625 199.949219 L 349.65625 199.714844 C 349.554688 199.671875 349.367188 199.589844 349.09375 199.464844 C 348.824219 199.347656 348.625 199.25 348.5 199.167969 C 348.375 199.09375 348.21875 198.984375 348.03125 198.839844 C 347.835938 198.691406 347.695312 198.550781 347.609375 198.417969 C 347.515625 198.28125 347.433594 198.121094 347.359375 197.933594 C 347.289062 197.746094 347.25 197.546875 347.25 197.339844 C 347.25 197.027344 347.402344 196.871094 347.703125 196.871094 C 347.984375 196.871094 348.125 196.964844 348.125 197.152344 C 348.125 197.515625 348.328125 197.863281 348.734375 198.199219 C 349.140625 198.542969 349.65625 198.777344 350.28125 198.902344 L 355.140625 196.902344 C 355.191406 196.871094 355.238281 196.855469 355.28125 196.855469 Z M 356.90625 204.464844 C 357.070312 204.464844 357.207031 204.535156 357.3125 204.683594 L 358.625 205.777344 C 358.726562 205.878906 358.78125 205.984375 358.78125 206.089844 C 358.78125 206.203125 358.75 206.308594 358.6875 206.402344 C 358.625 206.496094 358.535156 206.542969 358.421875 206.542969 L 350.359375 206.542969 C 350.242188 206.542969 350.15625 206.488281 350.09375 206.386719 C 350.03125 206.292969 350 206.171875 350 206.027344 C 350 205.890625 350.03125 205.769531 350.09375 205.667969 C 350.15625 205.574219 350.242188 205.527344 350.359375 205.527344 L 357.265625 205.527344 L 356.609375 205.089844 C 356.523438 205.003906 356.484375 204.921875 356.484375 204.839844 C 356.484375 204.734375 356.523438 204.644531 356.609375 204.574219 C 356.691406 204.5 356.789062 204.464844 356.90625 204.464844 Z M 352.546875 207.988281 L 356.15625 207.988281 C 357.0625 207.988281 357.722656 208.226562 358.140625 208.707031 C 358.554688 209.183594 358.765625 209.820312 358.765625 210.613281 C 358.765625 211.414062 358.554688 212.039062 358.140625 212.488281 C 357.734375 212.933594 357.25 213.160156 356.6875 213.160156 C 356.382812 213.160156 356.234375 213.003906 356.234375 212.691406 C 356.234375 212.347656 356.367188 212.175781 356.640625 212.175781 C 357.003906 212.175781 357.296875 212.023438 357.515625 211.722656 C 357.742188 211.417969 357.859375 211.042969 357.859375 210.597656 C 357.859375 209.535156 357.289062 209.003906 356.15625 209.003906 L 354.46875 209.003906 C 354.96875 209.386719 355.21875 209.972656 355.21875 210.753906 C 355.21875 212.355469 354.410156 213.160156 352.796875 213.160156 L 352.546875 213.160156 C 351.640625 213.160156 350.972656 212.925781 350.546875 212.457031 C 350.128906 211.988281 349.921875 211.363281 349.921875 210.582031 C 349.921875 209.800781 350.128906 209.167969 350.546875 208.691406 C 350.972656 208.222656 351.640625 207.988281 352.546875 207.988281 Z M 352.5 209.003906 C 351.363281 209.003906 350.796875 209.527344 350.796875 210.582031 C 350.796875 211.632812 351.363281 212.160156 352.5 212.160156 L 352.75 212.160156 C 353.832031 212.160156 354.375 211.632812 354.375 210.582031 C 354.375 209.527344 353.867188 209.003906 352.859375 209.003906 Z M 351.375 216.46875 C 351.507812 216.46875 351.632812 216.515625 351.75 216.609375 C 351.875 216.703125 351.9375 216.800781 351.9375 216.90625 C 351.9375 216.96875 351.882812 217.054688 351.78125 217.171875 C 351.6875 217.285156 351.582031 217.398438 351.46875 217.515625 C 351.351562 217.628906 351.242188 217.8125 351.140625 218.0625 C 351.046875 218.3125 350.988281 218.59375 350.96875 218.90625 L 354.15625 218.90625 L 354.40625 218.25 C 354.457031 218.101562 354.550781 217.910156 354.6875 217.671875 C 354.820312 217.429688 354.957031 217.253906 355.09375 217.140625 C 355.238281 217.023438 355.429688 216.921875 355.671875 216.828125 C 355.910156 216.734375 356.175781 216.6875 356.46875 216.6875 C 356.832031 216.6875 357.148438 216.75 357.421875 216.875 C 357.703125 217 357.921875 217.171875 358.078125 217.390625 C 358.234375 217.617188 358.351562 217.851562 358.4375 218.09375 C 358.519531 218.34375 358.578125 218.613281 358.609375 218.90625 L 358.96875 218.90625 C 359.03125 218.90625 359.085938 218.929688 359.140625 218.984375 C 359.191406 219.046875 359.21875 219.125 359.21875 219.21875 C 359.21875 219.289062 359.191406 219.359375 359.140625 219.421875 C 359.085938 219.492188 359.03125 219.53125 358.96875 219.53125 L 358.625 219.53125 C 358.601562 220.007812 358.519531 220.441406 358.375 220.828125 C 358.238281 221.222656 358.0625 221.421875 357.84375 221.421875 C 357.726562 221.421875 357.601562 221.378906 357.46875 221.296875 C 357.34375 221.222656 357.28125 221.117188 357.28125 220.984375 C 357.28125 220.953125 357.347656 220.785156 357.484375 220.484375 C 357.628906 220.191406 357.710938 219.875 357.734375 219.53125 L 354.984375 219.53125 C 354.878906 219.84375 354.769531 220.097656 354.65625 220.296875 C 354.550781 220.503906 354.40625 220.722656 354.21875 220.953125 C 354.03125 221.179688 353.789062 221.351562 353.5 221.46875 C 353.207031 221.582031 352.863281 221.640625 352.46875 221.640625 C 351.769531 221.640625 351.210938 221.445312 350.796875 221.0625 C 350.390625 220.6875 350.144531 220.175781 350.0625 219.53125 L 349.625 219.53125 C 349.5625 219.53125 349.507812 219.492188 349.453125 219.421875 C 349.402344 219.359375 349.375 219.289062 349.375 219.21875 C 349.375 219.125 349.402344 219.046875 349.453125 218.984375 C 349.507812 218.929688 349.5625 218.90625 349.625 218.90625 L 350.03125 218.90625 C 350.03125 218.21875 350.179688 217.640625 350.484375 217.171875 C 350.796875 216.703125 351.09375 216.46875 351.375 216.46875 Z M 356.5625 217.640625 C 356.1875 217.640625 355.90625 217.75 355.71875 217.96875 C 355.53125 218.1875 355.359375 218.515625 355.203125 218.953125 L 357.71875 218.953125 C 357.625 218.078125 357.238281 217.640625 356.5625 217.640625 Z M 351 219.484375 C 351.125 220.273438 351.582031 220.671875 352.375 220.671875 C 352.789062 220.671875 353.113281 220.566406 353.34375 220.359375 C 353.582031 220.160156 353.78125 219.867188 353.9375 219.484375 Z M 358.921875 224.9375 C 359.003906 224.9375 359.070312 224.976562 359.125 225.0625 C 359.1875 225.15625 359.21875 225.253906 359.21875 225.359375 C 359.21875 225.472656 359.1875 225.578125 359.125 225.671875 C 359.070312 225.765625 359.003906 225.8125 358.921875 225.8125 L 357.171875 225.6875 C 357.085938 225.6875 357.015625 225.660156 356.953125 225.609375 C 356.890625 225.554688 356.859375 225.476562 356.859375 225.375 C 356.859375 225.164062 356.960938 225.0625 357.171875 225.0625 Z M 358.921875 226.5625 C 359.003906 226.5625 359.070312 226.601562 359.125 226.6875 C 359.1875 226.78125 359.21875 226.882812 359.21875 227 C 359.21875 227.113281 359.1875 227.210938 359.125 227.296875 C 359.070312 227.390625 359.003906 227.4375 358.921875 227.4375 L 357.171875 227.328125 C 357.085938 227.328125 357.015625 227.296875 356.953125 227.234375 C 356.890625 227.179688 356.859375 227.101562 356.859375 227 C 356.859375 226.789062 356.960938 226.6875 357.171875 226.6875 Z M 348.875 228.132812 C 349.460938 228.132812 349.898438 228.453125 350.1875 229.101562 C 350.332031 228.695312 350.597656 228.492188 350.984375 228.492188 C 351.347656 228.492188 351.644531 228.6875 351.875 229.085938 C 352.238281 228.636719 352.742188 228.414062 353.390625 228.414062 L 353.78125 228.414062 C 354.363281 228.414062 354.835938 228.605469 355.203125 228.992188 C 355.578125 229.386719 355.765625 229.902344 355.765625 230.539062 C 355.765625 231.078125 355.609375 231.546875 355.296875 231.945312 C 355.816406 232.183594 356.078125 232.453125 356.078125 232.757812 C 356.078125 232.890625 356.035156 232.996094 355.953125 233.070312 C 355.878906 233.152344 355.796875 233.195312 355.703125 233.195312 C 355.578125 233.195312 355.484375 233.125 355.421875 232.992188 C 355.347656 232.71875 355.179688 232.5 354.921875 232.335938 C 354.617188 232.585938 354.238281 232.710938 353.78125 232.710938 L 353.390625 232.710938 C 352.804688 232.710938 352.328125 232.507812 351.953125 232.101562 C 351.578125 231.695312 351.390625 231.171875 351.390625 230.539062 C 351.390625 230.214844 351.453125 229.917969 351.578125 229.648438 C 351.453125 229.449219 351.3125 229.351562 351.15625 229.351562 C 351.007812 229.351562 350.894531 229.445312 350.8125 229.632812 C 350.726562 229.820312 350.675781 230.046875 350.65625 230.320312 C 350.632812 230.589844 350.59375 230.882812 350.53125 231.195312 C 350.476562 231.515625 350.40625 231.8125 350.3125 232.085938 C 350.226562 232.355469 350.078125 232.585938 349.859375 232.773438 C 349.632812 232.960938 349.34375 233.054688 349 233.054688 C 348.4375 233.054688 348.007812 232.824219 347.703125 232.367188 C 347.402344 231.917969 347.25 231.335938 347.25 230.617188 C 347.25 229.898438 347.398438 229.304688 347.6875 228.835938 C 347.980469 228.367188 348.375 228.132812 348.875 228.132812 Z M 348.984375 229.085938 C 348.671875 229.085938 348.421875 229.21875 348.234375 229.492188 C 348.046875 229.773438 347.953125 230.140625 347.953125 230.601562 C 347.953125 231.046875 348.046875 231.40625 348.234375 231.679688 C 348.421875 231.949219 348.671875 232.085938 348.984375 232.085938 C 349.109375 232.085938 349.21875 232.058594 349.3125 232.007812 C 349.40625 231.964844 349.492188 231.898438 349.5625 231.804688 C 349.625 231.710938 349.679688 231.609375 349.71875 231.507812 C 349.761719 231.414062 349.796875 231.289062 349.828125 231.132812 C 349.859375 230.984375 349.882812 230.859375 349.890625 230.757812 C 349.902344 230.664062 349.917969 230.53125 349.9375 230.367188 C 349.949219 230.199219 349.960938 230.085938 349.96875 230.023438 C 349.761719 229.398438 349.433594 229.085938 348.984375 229.085938 Z M 353.390625 229.382812 C 353.003906 229.382812 352.6875 229.484375 352.4375 229.695312 C 352.195312 229.902344 352.078125 230.195312 352.078125 230.570312 C 352.078125 230.921875 352.195312 231.203125 352.4375 231.414062 C 352.6875 231.632812 353.003906 231.742188 353.390625 231.742188 L 353.78125 231.742188 C 354.144531 231.742188 354.453125 231.632812 354.703125 231.414062 C 354.953125 231.203125 355.078125 230.917969 355.078125 230.554688 C 355.078125 230.1875 354.953125 229.902344 354.703125 229.695312 C 354.460938 229.484375 354.15625 229.382812 353.78125 229.382812 Z M 350.359375 234.050781 L 355.34375 234.050781 C 355.445312 234.050781 355.53125 234.097656 355.59375 234.191406 C 355.65625 234.285156 355.6875 234.402344 355.6875 234.550781 C 355.6875 234.675781 355.65625 234.777344 355.59375 234.863281 C 355.53125 234.957031 355.445312 235.003906 355.34375 235.003906 L 354.78125 235.003906 C 355.050781 235.148438 355.28125 235.363281 355.46875 235.644531 C 355.664062 235.925781 355.765625 236.238281 355.765625 236.582031 L 355.765625 236.988281 C 355.765625 237.089844 355.71875 237.179688 355.625 237.253906 C 355.53125 237.324219 355.421875 237.363281 355.296875 237.363281 C 355.179688 237.363281 355.078125 237.324219 354.984375 237.253906 C 354.898438 237.179688 354.859375 237.089844 354.859375 236.988281 L 354.859375 236.582031 C 354.859375 236.164062 354.691406 235.804688 354.359375 235.503906 C 354.035156 235.199219 353.613281 235.050781 353.09375 235.050781 L 350.359375 235.050781 C 350.273438 235.050781 350.191406 234.996094 350.109375 234.894531 C 350.035156 234.800781 350 234.683594 350 234.550781 C 350 234.414062 350.035156 234.292969 350.109375 234.191406 C 350.179688 234.097656 350.265625 234.050781 350.359375 234.050781 Z M 352.234375 237.960938 L 353.484375 237.960938 C 354.109375 237.960938 354.644531 238.195312 355.09375 238.664062 C 355.539062 239.132812 355.765625 239.695312 355.765625 240.351562 C 355.765625 240.976562 355.550781 241.515625 355.125 241.976562 C 354.707031 242.433594 354.179688 242.664062 353.546875 242.664062 C 353.316406 242.664062 353.128906 242.632812 352.984375 242.570312 C 352.847656 242.515625 352.75 242.433594 352.6875 242.320312 C 352.632812 242.203125 352.597656 242.09375 352.578125 241.992188 C 352.566406 241.898438 352.5625 241.761719 352.5625 241.585938 L 352.5625 238.960938 L 352.203125 238.960938 C 351.753906 238.960938 351.398438 239.117188 351.140625 239.429688 C 350.878906 239.75 350.75 240.164062 350.75 240.664062 C 350.75 240.933594 350.785156 241.164062 350.859375 241.351562 C 350.941406 241.546875 351.019531 241.703125 351.09375 241.820312 C 351.175781 241.945312 351.21875 242.042969 351.21875 242.117188 C 351.21875 242.230469 351.164062 242.324219 351.0625 242.398438 C 350.957031 242.480469 350.851562 242.523438 350.75 242.523438 C 350.570312 242.523438 350.382812 242.339844 350.1875 241.976562 C 350 241.609375 349.90625 241.164062 349.90625 240.632812 C 349.90625 239.851562 350.117188 239.210938 350.546875 238.710938 C 350.972656 238.210938 351.535156 237.960938 352.234375 237.960938 Z M 353.234375 238.960938 L 353.234375 241.179688 C 353.234375 241.386719 353.257812 241.527344 353.3125 241.601562 C 353.363281 241.671875 353.460938 241.710938 353.609375 241.710938 C 353.972656 241.710938 354.289062 241.574219 354.5625 241.304688 C 354.832031 241.042969 354.96875 240.726562 354.96875 240.351562 C 354.96875 239.964844 354.84375 239.636719 354.59375 239.367188 C 354.34375 239.09375 354.03125 238.960938 353.65625 238.960938 Z M 355.28125 243.199219 C 355.40625 243.199219 355.515625 243.269531 355.609375 243.417969 C 355.710938 243.5625 355.765625 243.707031 355.765625 243.855469 C 355.765625 244.019531 355.695312 244.125 355.5625 244.167969 L 351.375 245.761719 L 355.5625 247.183594 C 355.695312 247.246094 355.765625 247.347656 355.765625 247.496094 C 355.765625 247.628906 355.710938 247.769531 355.609375 247.917969 C 355.515625 248.074219 355.398438 248.152344 355.265625 248.152344 C 355.222656 248.152344 355.179688 248.136719 355.140625 248.105469 L 350.265625 246.292969 L 349.65625 246.058594 C 349.554688 246.015625 349.367188 245.933594 349.09375 245.808594 C 348.824219 245.691406 348.625 245.59375 348.5 245.511719 C 348.375 245.4375 348.21875 245.328125 348.03125 245.183594 C 347.835938 245.035156 347.695312 244.894531 347.609375 244.761719 C 347.515625 244.625 347.433594 244.464844 347.359375 244.277344 C 347.289062 244.089844 347.25 243.890625 347.25 243.683594 C 347.25 243.371094 347.402344 243.214844 347.703125 243.214844 C 347.984375 243.214844 348.125 243.308594 348.125 243.496094 C 348.125 243.859375 348.328125 244.207031 348.734375 244.542969 C 349.140625 244.886719 349.65625 245.121094 350.28125 245.246094 L 355.140625 243.246094 C 355.191406 243.214844 355.238281 243.199219 355.28125 243.199219 Z M 350.359375 251.421875 L 358.765625 251.421875 C 358.867188 251.421875 358.953125 251.46875 359.015625 251.5625 C 359.085938 251.65625 359.125 251.769531 359.125 251.90625 C 359.125 252.050781 359.085938 252.171875 359.015625 252.265625 C 358.953125 252.367188 358.867188 252.421875 358.765625 252.421875 L 354.84375 252.421875 C 355.101562 252.566406 355.320312 252.773438 355.5 253.046875 C 355.675781 253.316406 355.765625 253.628906 355.765625 253.984375 C 355.765625 254.566406 355.535156 255.070312 355.078125 255.5 C 354.628906 255.925781 354.085938 256.140625 353.453125 256.140625 L 352.234375 256.140625 C 351.617188 256.140625 351.078125 255.925781 350.609375 255.5 C 350.140625 255.070312 349.90625 254.582031 349.90625 254.03125 C 349.90625 253.664062 349.996094 253.332031 350.171875 253.03125 C 350.359375 252.726562 350.582031 252.507812 350.84375 252.375 L 350.359375 252.375 C 350.265625 252.375 350.179688 252.328125 350.109375 252.234375 C 350.035156 252.140625 350 252.035156 350 251.921875 C 350 251.785156 350.035156 251.664062 350.109375 251.5625 C 350.179688 251.46875 350.265625 251.421875 350.359375 251.421875 Z M 351.90625 252.421875 C 351.707031 252.421875 351.472656 252.5625 351.203125 252.84375 C 350.929688 253.125 350.796875 253.4375 350.796875 253.78125 C 350.796875 254.144531 350.941406 254.460938 351.234375 254.734375 C 351.535156 255.003906 351.867188 255.140625 352.234375 255.140625 L 353.453125 255.140625 C 353.816406 255.140625 354.140625 255.003906 354.421875 254.734375 C 354.710938 254.460938 354.859375 254.144531 354.859375 253.78125 C 354.859375 253.414062 354.726562 253.097656 354.46875 252.828125 C 354.207031 252.554688 353.867188 252.421875 353.453125 252.421875 Z M 350.359375 257.441406 L 358.765625 257.441406 C 358.867188 257.441406 358.953125 257.488281 359.015625 257.582031 C 359.085938 257.675781 359.125 257.792969 359.125 257.941406 C 359.125 258.085938 359.085938 258.207031 359.015625 258.300781 C 358.953125 258.394531 358.867188 258.441406 358.765625 258.441406 L 350.359375 258.441406 C 350.273438 258.441406 350.191406 258.386719 350.109375 258.285156 C 350.035156 258.191406 350 258.074219 350 257.941406 C 350 257.804688 350.035156 257.683594 350.109375 257.582031 C 350.179688 257.488281 350.265625 257.441406 350.359375 257.441406 Z M 351.5 259.601562 C 352.125 259.601562 352.554688 259.839844 352.796875 260.320312 C 353.046875 260.796875 353.171875 261.492188 353.171875 262.398438 L 353.171875 262.976562 L 353.421875 262.976562 C 353.816406 262.976562 354.160156 262.867188 354.453125 262.648438 C 354.753906 262.429688 354.90625 262.101562 354.90625 261.664062 C 354.90625 261.320312 354.847656 261.015625 354.734375 260.757812 C 354.617188 260.507812 354.5625 260.371094 354.5625 260.351562 C 354.5625 260.234375 354.613281 260.140625 354.71875 260.070312 C 354.832031 260.007812 354.945312 259.976562 355.0625 259.976562 C 355.25 259.976562 355.410156 260.15625 355.546875 260.523438 C 355.691406 260.886719 355.765625 261.273438 355.765625 261.679688 C 355.765625 262.460938 355.539062 263.039062 355.09375 263.414062 C 354.644531 263.789062 354.09375 263.976562 353.4375 263.976562 L 350.359375 263.976562 C 350.253906 263.976562 350.164062 263.929688 350.09375 263.835938 C 350.03125 263.742188 350 263.621094 350 263.476562 C 350 263.351562 350.03125 263.242188 350.09375 263.148438 C 350.164062 263.0625 350.253906 263.023438 350.359375 263.023438 L 350.84375 263.023438 C 350.21875 262.480469 349.90625 261.875 349.90625 261.210938 C 349.90625 260.730469 350.039062 260.339844 350.3125 260.039062 C 350.582031 259.746094 350.976562 259.601562 351.5 259.601562 Z M 351.609375 260.601562 C 351.304688 260.601562 351.078125 260.683594 350.921875 260.851562 C 350.773438 261.015625 350.703125 261.242188 350.703125 261.523438 C 350.703125 261.855469 350.835938 262.179688 351.109375 262.492188 C 351.378906 262.8125 351.65625 262.976562 351.9375 262.976562 L 352.5625 262.976562 L 352.5625 262.554688 C 352.5625 262.324219 352.550781 262.125 352.53125 261.960938 C 352.519531 261.792969 352.492188 261.617188 352.453125 261.429688 C 352.421875 261.25 352.367188 261.105469 352.296875 260.992188 C 352.234375 260.875 352.144531 260.78125 352.03125 260.710938 C 351.914062 260.636719 351.773438 260.601562 351.609375 260.601562 Z M 352.234375 265.132812 L 353.4375 265.132812 C 354.125 265.132812 354.679688 265.335938 355.109375 265.742188 C 355.546875 266.148438 355.765625 266.742188 355.765625 267.523438 C 355.765625 268.023438 355.675781 268.4375 355.5 268.773438 C 355.320312 269.117188 355.132812 269.289062 354.9375 269.289062 C 354.820312 269.289062 354.707031 269.246094 354.59375 269.164062 C 354.488281 269.078125 354.4375 268.980469 354.4375 268.867188 C 354.4375 268.835938 354.503906 268.695312 354.640625 268.445312 C 354.785156 268.203125 354.859375 267.921875 354.859375 267.601562 C 354.859375 267.121094 354.734375 266.757812 354.484375 266.507812 C 354.234375 266.257812 353.882812 266.132812 353.4375 266.132812 L 352.234375 266.132812 C 351.273438 266.132812 350.796875 266.621094 350.796875 267.601562 C 350.796875 267.945312 350.867188 268.234375 351.015625 268.476562 C 351.160156 268.726562 351.234375 268.871094 351.234375 268.914062 C 351.234375 269.039062 351.179688 269.140625 351.078125 269.226562 C 350.972656 269.320312 350.863281 269.367188 350.75 269.367188 C 350.550781 269.367188 350.359375 269.1875 350.171875 268.835938 C 349.996094 268.480469 349.90625 268.046875 349.90625 267.539062 C 349.90625 266.746094 350.117188 266.148438 350.546875 265.742188 C 350.972656 265.335938 351.535156 265.132812 352.234375 265.132812 Z M 350.359375 270.355469 L 358.765625 270.355469 C 358.867188 270.355469 358.953125 270.402344 359.015625 270.496094 C 359.085938 270.589844 359.125 270.703125 359.125 270.839844 C 359.125 270.984375 359.085938 271.105469 359.015625 271.199219 C 358.953125 271.300781 358.867188 271.355469 358.765625 271.355469 L 353.15625 271.355469 L 355.625 274.089844 C 355.6875 274.160156 355.71875 274.234375 355.71875 274.308594 C 355.71875 274.421875 355.664062 274.53125 355.5625 274.636719 C 355.46875 274.75 355.363281 274.808594 355.25 274.808594 C 355.144531 274.808594 355.0625 274.769531 355 274.699219 L 353.53125 273.027344 L 350.640625 275.027344 C 350.578125 275.066406 350.515625 275.089844 350.453125 275.089844 C 350.335938 275.089844 350.222656 275.027344 350.109375 274.902344 C 350.003906 274.785156 349.953125 274.660156 349.953125 274.527344 C 349.953125 274.421875 350.003906 274.332031 350.109375 274.261719 L 352.90625 272.355469 L 352.015625 271.355469 L 350.359375 271.355469 C 350.273438 271.355469 350.191406 271.300781 350.109375 271.199219 C 350.035156 271.105469 350 270.988281 350 270.855469 C 350 270.71875 350.035156 270.597656 350.109375 270.496094 C 350.179688 270.402344 350.265625 270.355469 350.359375 270.355469 Z M 358.921875 275.664062 C 359.003906 275.664062 359.070312 275.703125 359.125 275.789062 C 359.1875 275.882812 359.21875 275.980469 359.21875 276.085938 C 359.21875 276.199219 359.1875 276.304688 359.125 276.398438 C 359.070312 276.492188 359.003906 276.539062 358.921875 276.539062 L 357.171875 276.414062 C 357.085938 276.414062 357.015625 276.386719 356.953125 276.335938 C 356.890625 276.28125 356.859375 276.203125 356.859375 276.101562 C 356.859375 275.890625 356.960938 275.789062 357.171875 275.789062 Z M 358.921875 277.289062 C 359.003906 277.289062 359.070312 277.328125 359.125 277.414062 C 359.1875 277.507812 359.21875 277.609375 359.21875 277.726562 C 359.21875 277.839844 359.1875 277.9375 359.125 278.023438 C 359.070312 278.117188 359.003906 278.164062 358.921875 278.164062 L 357.171875 278.054688 C 357.085938 278.054688 357.015625 278.023438 356.953125 277.960938 C 356.890625 277.90625 356.859375 277.828125 356.859375 277.726562 C 356.859375 277.515625 356.960938 277.414062 357.171875 277.414062 Z M 350 278.589844 "/>
</g>
</svg>
