<?xml version="1.0" encoding="UTF-8"?>
<svg xmlns="http://www.w3.org/2000/svg" xmlns:xlink="http://www.w3.org/1999/xlink" width="136pt" height="566pt" viewBox="0 0 136 566" version="1.1">
<g id="surface137">
<path style=" stroke:none;fill-rule:nonzero;fill:rgb(0%,0%,0%);fill-opacity:1;" d="M 0 0 L 116 0 L 116 8.085938 L 0 8.085938 Z M 0 0 "/>
<path style=" stroke:none;fill-rule:nonzero;fill:rgb(71.912129%,71.912129%,71.912129%);fill-opacity:1;" d="M 0 0 L 38.667969 0 L 38.667969 8.085938 L 0 8.085938 Z M 0 0 "/>
<path style=" stroke:none;fill-rule:nonzero;fill:rgb(34.530893%,34.530893%,34.530893%);fill-opacity:1;" d="M 38.667969 0 L 51.558594 0 L 51.558594 8.085938 L 38.667969 8.085938 Z M 38.667969 0 "/>
<path style=" stroke:none;fill-rule:nonzero;fill:rgb(0%,0%,0%);fill-opacity:1;" d="M 64.445312 0 L 77.335938 0 L 77.335938 8.085938 L 64.445312 8.085938 Z M 64.445312 0 "/>
<path style=" stroke:none;fill-rule:nonzero;fill:rgb(91.90824%,91.90824%,91.90824%);fill-opacity:1;" d="M 77.332031 0 L 116 0 L 116 8.085938 L 77.332031 8.085938 Z M 77.332031 0 "/>
<path style=" stroke:none;fill-rule:nonzero;fill:rgb(68.24589%,68.24589%,68.24589%);fill-opacity:1;" d="M 9.667969 8.085938 L 22.558594 8.085938 L 22.558594 16.171875 L 9.667969 16.171875 Z M 9.667969 8.085938 "/>
<path style=" stroke:none;fill-rule:nonzero;fill:rgb(60.609127%,60.609127%,60.609127%);fill-opacity:1;" d="M 35.445312 8.085938 L 48.335938 8.085938 L 48.335938 16.171875 L 35.445312 16.171875 Z M 35.445312 8.085938 "/>
<path style=" stroke:none;fill-rule:nonzero;fill:rgb(73.535698%,73.535698%,73.535698%);fill-opacity:1;" d="M 48.332031 8.085938 L 87 8.085938 L 87 16.171875 L 48.332031 16.171875 Z M 48.332031 8.085938 "/>
<path style=" stroke:none;fill-rule:nonzero;fill:rgb(91.90824%,91.90824%,91.90824%);fill-opacity:1;" d="M 87 8.085938 L 116 8.085938 L 116 16.171875 L 87 16.171875 Z M 87 8.085938 "/>
<path style=" stroke:none;fill-rule:nonzero;fill:rgb(60.609127%,60.609127%,60.609127%);fill-opacity:1;" d="M 6.445312 16.171875 L 19.335938 16.171875 L 19.335938 24.257812 L 6.445312 24.257812 Z M 6.445312 16.171875 "/>
<path style=" stroke:none;fill-rule:nonzero;fill:rgb(91.90824%,91.90824%,91.90824%);fill-opacity:1;" d="M 19.332031 16.171875 L 58 16.171875 L 58 24.257812 L 19.332031 24.257812 Z M 19.332031 16.171875 "/>
<path style=" stroke:none;fill-rule:nonzero;fill:rgb(73.535698%,73.535698%,73.535698%);fill-opacity:1;" d="M 58 16.171875 L 116 16.171875 L 116 24.257812 L 58 24.257812 Z M 58 16.171875 "/>
<path style=" stroke:none;fill-rule:nonzero;fill:rgb(91.90824%,91.90824%,91.90824%);fill-opacity:1;" d="M 29 24.257812 L 87 24.257812 L 87 32.34375 L 29 32.34375 Z M 29 24.257812 "/>
<path style=" stroke:none;fill-rule:nonzero;fill:rgb(82.745098%,82.745098%,82.745098%);fill-opacity:1;" d="M 87 24.257812 L 106.332031 24.257812 L 106.332031 32.34375 L 87 32.34375 Z M 87 24.257812 "/>
<path style=" stroke:none;fill-rule:nonzero;fill:rgb(91.90824%,91.90824%,91.90824%);fill-opacity:1;" d="M 0 32.34375 L 58 32.34375 L 58 40.429688 L 0 40.429688 Z M 0 32.34375 "/>
<path style=" stroke:none;fill-rule:nonzero;fill:rgb(60.609127%,60.609127%,60.609127%);fill-opacity:1;" d="M 58 32.34375 L 77.332031 32.34375 L 77.332031 40.429688 L 58 40.429688 Z M 58 32.34375 "/>
<path style=" stroke:none;fill-rule:nonzero;fill:rgb(60.609127%,60.609127%,60.609127%);fill-opacity:1;" d="M 96.667969 32.34375 L 116 32.34375 L 116 40.429688 L 96.667969 40.429688 Z M 96.667969 32.34375 "/>
<path style=" stroke:none;fill-rule:nonzero;fill:rgb(68.24589%,68.24589%,68.24589%);fill-opacity:1;" d="M 29 40.429688 L 48.332031 40.429688 L 48.332031 48.515625 L 29 48.515625 Z M 29 40.429688 "/>
<path style=" stroke:none;fill-rule:nonzero;fill:rgb(0%,0%,0%);fill-opacity:1;" d="M 67.667969 40.429688 L 87 40.429688 L 87 48.515625 L 67.667969 48.515625 Z M 67.667969 40.429688 "/>
<path style=" stroke:none;fill-rule:nonzero;fill:rgb(71.912129%,71.912129%,71.912129%);fill-opacity:1;" d="M 87 40.429688 L 116 40.429688 L 116 48.515625 L 87 48.515625 Z M 87 40.429688 "/>
<path style=" stroke:none;fill-rule:nonzero;fill:rgb(68.24589%,68.24589%,68.24589%);fill-opacity:1;" d="M 0 48.515625 L 19.332031 48.515625 L 19.332031 56.601562 L 0 56.601562 Z M 0 48.515625 "/>
<path style=" stroke:none;fill-rule:nonzero;fill:rgb(0%,0%,0%);fill-opacity:1;" d="M 38.667969 48.515625 L 58 48.515625 L 58 56.601562 L 38.667969 56.601562 Z M 38.667969 48.515625 "/>
<path style=" stroke:none;fill-rule:nonzero;fill:rgb(42.358287%,42.358287%,42.358287%);fill-opacity:1;" d="M 58 48.515625 L 96.667969 48.515625 L 96.667969 56.601562 L 58 56.601562 Z M 58 48.515625 "/>
<path style=" stroke:none;fill-rule:nonzero;fill:rgb(68.24589%,68.24589%,68.24589%);fill-opacity:1;" d="M 96.667969 48.515625 L 109.558594 48.515625 L 109.558594 56.601562 L 96.667969 56.601562 Z M 96.667969 48.515625 "/>
<path style=" stroke:none;fill-rule:nonzero;fill:rgb(60.609127%,60.609127%,60.609127%);fill-opacity:1;" d="M 9.667969 56.601562 L 29 56.601562 L 29 64.6875 L 9.667969 64.6875 Z M 9.667969 56.601562 "/>
<path style=" stroke:none;fill-rule:nonzero;fill:rgb(71.912129%,71.912129%,71.912129%);fill-opacity:1;" d="M 29 56.601562 L 67.667969 56.601562 L 67.667969 64.6875 L 29 64.6875 Z M 29 56.601562 "/>
<path style=" stroke:none;fill-rule:nonzero;fill:rgb(34.530893%,34.530893%,34.530893%);fill-opacity:1;" d="M 67.667969 56.601562 L 80.558594 56.601562 L 80.558594 64.6875 L 67.667969 64.6875 Z M 67.667969 56.601562 "/>
<path style=" stroke:none;fill-rule:nonzero;fill:rgb(60.609127%,60.609127%,60.609127%);fill-opacity:1;" d="M 93.445312 56.601562 L 106.335938 56.601562 L 106.335938 64.6875 L 93.445312 64.6875 Z M 93.445312 56.601562 "/>
<path style=" stroke:none;fill-rule:nonzero;fill:rgb(91.90824%,91.90824%,91.90824%);fill-opacity:1;" d="M 106.332031 56.601562 L 116 56.601562 L 116 64.6875 L 106.332031 64.6875 Z M 106.332031 56.601562 "/>
<path style=" stroke:none;fill-rule:nonzero;fill:rgb(71.912129%,71.912129%,71.912129%);fill-opacity:1;" d="M 0 64.6875 L 38.667969 64.6875 L 38.667969 72.773438 L 0 72.773438 Z M 0 64.6875 "/>
<path style=" stroke:none;fill-rule:nonzero;fill:rgb(34.530893%,34.530893%,34.530893%);fill-opacity:1;" d="M 38.667969 64.6875 L 51.558594 64.6875 L 51.558594 72.773438 L 38.667969 72.773438 Z M 38.667969 64.6875 "/>
<path style=" stroke:none;fill-rule:nonzero;fill:rgb(0%,0%,0%);fill-opacity:1;" d="M 64.445312 64.6875 L 77.335938 64.6875 L 77.335938 72.773438 L 64.445312 72.773438 Z M 64.445312 64.6875 "/>
<path style=" stroke:none;fill-rule:nonzero;fill:rgb(91.90824%,91.90824%,91.90824%);fill-opacity:1;" d="M 77.332031 64.6875 L 116 64.6875 L 116 72.773438 L 77.332031 72.773438 Z M 77.332031 64.6875 "/>
<path style=" stroke:none;fill-rule:nonzero;fill:rgb(68.24589%,68.24589%,68.24589%);fill-opacity:1;" d="M 9.667969 72.769531 L 22.558594 72.769531 L 22.558594 80.855469 L 9.667969 80.855469 Z M 9.667969 72.769531 "/>
<path style=" stroke:none;fill-rule:nonzero;fill:rgb(60.609127%,60.609127%,60.609127%);fill-opacity:1;" d="M 35.445312 72.769531 L 48.335938 72.769531 L 48.335938 80.855469 L 35.445312 80.855469 Z M 35.445312 72.769531 "/>
<path style=" stroke:none;fill-rule:nonzero;fill:rgb(73.535698%,73.535698%,73.535698%);fill-opacity:1;" d="M 48.332031 72.769531 L 87 72.769531 L 87 80.855469 L 48.332031 80.855469 Z M 48.332031 72.769531 "/>
<path style=" stroke:none;fill-rule:nonzero;fill:rgb(71.912129%,71.912129%,71.912129%);fill-opacity:1;" d="M 87 72.769531 L 116 72.769531 L 116 80.855469 L 87 80.855469 Z M 87 72.769531 "/>
<path style=" stroke:none;fill-rule:nonzero;fill:rgb(60.609127%,60.609127%,60.609127%);fill-opacity:1;" d="M 6.445312 80.855469 L 19.335938 80.855469 L 19.335938 88.941406 L 6.445312 88.941406 Z M 6.445312 80.855469 "/>
<path style=" stroke:none;fill-rule:nonzero;fill:rgb(91.90824%,91.90824%,91.90824%);fill-opacity:1;" d="M 19.332031 80.855469 L 58 80.855469 L 58 88.941406 L 19.332031 88.941406 Z M 19.332031 80.855469 "/>
<path style=" stroke:none;fill-rule:nonzero;fill:rgb(42.358287%,42.358287%,42.358287%);fill-opacity:1;" d="M 58 80.855469 L 116 80.855469 L 116 88.941406 L 58 88.941406 Z M 58 80.855469 "/>
<path style=" stroke:none;fill-rule:nonzero;fill:rgb(71.912129%,71.912129%,71.912129%);fill-opacity:1;" d="M 29 88.941406 L 87 88.941406 L 87 97.027344 L 29 97.027344 Z M 29 88.941406 "/>
<path style=" stroke:none;fill-rule:nonzero;fill:rgb(68.24589%,68.24589%,68.24589%);fill-opacity:1;" d="M 87 88.941406 L 106.332031 88.941406 L 106.332031 97.027344 L 87 97.027344 Z M 87 88.941406 "/>
<path style=" stroke:none;fill-rule:nonzero;fill:rgb(71.912129%,71.912129%,71.912129%);fill-opacity:1;" d="M 0 97.027344 L 58 97.027344 L 58 105.113281 L 0 105.113281 Z M 0 97.027344 "/>
<path style=" stroke:none;fill-rule:nonzero;fill:rgb(34.530893%,34.530893%,34.530893%);fill-opacity:1;" d="M 58 97.027344 L 77.332031 97.027344 L 77.332031 105.113281 L 58 105.113281 Z M 58 97.027344 "/>
<path style=" stroke:none;fill-rule:nonzero;fill:rgb(60.609127%,60.609127%,60.609127%);fill-opacity:1;" d="M 96.667969 97.027344 L 116 97.027344 L 116 105.113281 L 96.667969 105.113281 Z M 96.667969 97.027344 "/>
<path style=" stroke:none;fill-rule:nonzero;fill:rgb(82.745098%,82.745098%,82.745098%);fill-opacity:1;" d="M 29 105.113281 L 48.332031 105.113281 L 48.332031 113.199219 L 29 113.199219 Z M 29 105.113281 "/>
<path style=" stroke:none;fill-rule:nonzero;fill:rgb(0%,0%,0%);fill-opacity:1;" d="M 67.667969 105.113281 L 87 105.113281 L 87 113.199219 L 67.667969 113.199219 Z M 67.667969 105.113281 "/>
<path style=" stroke:none;fill-rule:nonzero;fill:rgb(71.912129%,71.912129%,71.912129%);fill-opacity:1;" d="M 87 105.113281 L 116 105.113281 L 116 113.199219 L 87 113.199219 Z M 87 105.113281 "/>
<path style=" stroke:none;fill-rule:nonzero;fill:rgb(82.745098%,82.745098%,82.745098%);fill-opacity:1;" d="M 0 113.199219 L 19.332031 113.199219 L 19.332031 121.285156 L 0 121.285156 Z M 0 113.199219 "/>
<path style=" stroke:none;fill-rule:nonzero;fill:rgb(0%,0%,0%);fill-opacity:1;" d="M 38.667969 113.199219 L 58 113.199219 L 58 121.285156 L 38.667969 121.285156 Z M 38.667969 113.199219 "/>
<path style=" stroke:none;fill-rule:nonzero;fill:rgb(42.358287%,42.358287%,42.358287%);fill-opacity:1;" d="M 58 113.199219 L 96.667969 113.199219 L 96.667969 121.285156 L 58 121.285156 Z M 58 113.199219 "/>
<path style=" stroke:none;fill-rule:nonzero;fill:rgb(68.24589%,68.24589%,68.24589%);fill-opacity:1;" d="M 96.667969 113.199219 L 109.558594 113.199219 L 109.558594 121.285156 L 96.667969 121.285156 Z M 96.667969 113.199219 "/>
<path style=" stroke:none;fill-rule:nonzero;fill:rgb(60.609127%,60.609127%,60.609127%);fill-opacity:1;" d="M 9.667969 121.285156 L 29 121.285156 L 29 129.371094 L 9.667969 129.371094 Z M 9.667969 121.285156 "/>
<path style=" stroke:none;fill-rule:nonzero;fill:rgb(71.912129%,71.912129%,71.912129%);fill-opacity:1;" d="M 29 121.285156 L 67.667969 121.285156 L 67.667969 129.371094 L 29 129.371094 Z M 29 121.285156 "/>
<path style=" stroke:none;fill-rule:nonzero;fill:rgb(34.530893%,34.530893%,34.530893%);fill-opacity:1;" d="M 67.667969 121.285156 L 80.558594 121.285156 L 80.558594 129.371094 L 67.667969 129.371094 Z M 67.667969 121.285156 "/>
<path style=" stroke:none;fill-rule:nonzero;fill:rgb(60.609127%,60.609127%,60.609127%);fill-opacity:1;" d="M 93.445312 121.285156 L 106.335938 121.285156 L 106.335938 129.371094 L 93.445312 129.371094 Z M 93.445312 121.285156 "/>
<path style=" stroke:none;fill-rule:nonzero;fill:rgb(91.90824%,91.90824%,91.90824%);fill-opacity:1;" d="M 106.332031 121.285156 L 116 121.285156 L 116 129.371094 L 106.332031 129.371094 Z M 106.332031 121.285156 "/>
<path style=" stroke:none;fill-rule:nonzero;fill:rgb(71.912129%,71.912129%,71.912129%);fill-opacity:1;" d="M 0 129.371094 L 38.667969 129.371094 L 38.667969 137.457031 L 0 137.457031 Z M 0 129.371094 "/>
<path style=" stroke:none;fill-rule:nonzero;fill:rgb(34.530893%,34.530893%,34.530893%);fill-opacity:1;" d="M 38.667969 129.371094 L 51.558594 129.371094 L 51.558594 137.457031 L 38.667969 137.457031 Z M 38.667969 129.371094 "/>
<path style=" stroke:none;fill-rule:nonzero;fill:rgb(0%,0%,0%);fill-opacity:1;" d="M 64.445312 129.371094 L 77.335938 129.371094 L 77.335938 137.457031 L 64.445312 137.457031 Z M 64.445312 129.371094 "/>
<path style=" stroke:none;fill-rule:nonzero;fill:rgb(91.90824%,91.90824%,91.90824%);fill-opacity:1;" d="M 77.332031 129.371094 L 116 129.371094 L 116 137.457031 L 77.332031 137.457031 Z M 77.332031 129.371094 "/>
<path style=" stroke:none;fill-rule:nonzero;fill:rgb(68.24589%,68.24589%,68.24589%);fill-opacity:1;" d="M 9.667969 137.457031 L 22.558594 137.457031 L 22.558594 145.542969 L 9.667969 145.542969 Z M 9.667969 137.457031 "/>
<path style=" stroke:none;fill-rule:nonzero;fill:rgb(60.609127%,60.609127%,60.609127%);fill-opacity:1;" d="M 35.445312 137.457031 L 48.335938 137.457031 L 48.335938 145.542969 L 35.445312 145.542969 Z M 35.445312 137.457031 "/>
<path style=" stroke:none;fill-rule:nonzero;fill:rgb(73.535698%,73.535698%,73.535698%);fill-opacity:1;" d="M 48.332031 137.457031 L 87 137.457031 L 87 145.542969 L 48.332031 145.542969 Z M 48.332031 137.457031 "/>
<path style=" stroke:none;fill-rule:nonzero;fill:rgb(91.90824%,91.90824%,91.90824%);fill-opacity:1;" d="M 87 137.457031 L 116 137.457031 L 116 145.542969 L 87 145.542969 Z M 87 137.457031 "/>
<path style=" stroke:none;fill-rule:nonzero;fill:rgb(60.609127%,60.609127%,60.609127%);fill-opacity:1;" d="M 6.445312 145.542969 L 19.335938 145.542969 L 19.335938 153.628906 L 6.445312 153.628906 Z M 6.445312 145.542969 "/>
<path style=" stroke:none;fill-rule:nonzero;fill:rgb(91.90824%,91.90824%,91.90824%);fill-opacity:1;" d="M 19.332031 145.542969 L 58 145.542969 L 58 153.628906 L 19.332031 153.628906 Z M 19.332031 145.542969 "/>
<path style=" stroke:none;fill-rule:nonzero;fill:rgb(73.535698%,73.535698%,73.535698%);fill-opacity:1;" d="M 58 145.542969 L 116 145.542969 L 116 153.628906 L 58 153.628906 Z M 58 145.542969 "/>
<path style=" stroke:none;fill-rule:nonzero;fill:rgb(91.90824%,91.90824%,91.90824%);fill-opacity:1;" d="M 29 153.628906 L 87 153.628906 L 87 161.714844 L 29 161.714844 Z M 29 153.628906 "/>
<path style=" stroke:none;fill-rule:nonzero;fill:rgb(82.745098%,82.745098%,82.745098%);fill-opacity:1;" d="M 87 153.628906 L 106.332031 153.628906 L 106.332031 161.714844 L 87 161.714844 Z M 87 153.628906 "/>
<path style=" stroke:none;fill-rule:nonzero;fill:rgb(91.90824%,91.90824%,91.90824%);fill-opacity:1;" d="M 0 161.714844 L 58 161.714844 L 58 169.800781 L 0 169.800781 Z M 0 161.714844 "/>
<path style=" stroke:none;fill-rule:nonzero;fill:rgb(60.609127%,60.609127%,60.609127%);fill-opacity:1;" d="M 58 161.714844 L 77.332031 161.714844 L 77.332031 169.800781 L 58 169.800781 Z M 58 161.714844 "/>
<path style=" stroke:none;fill-rule:nonzero;fill:rgb(60.609127%,60.609127%,60.609127%);fill-opacity:1;" d="M 96.667969 161.714844 L 116 161.714844 L 116 169.800781 L 96.667969 169.800781 Z M 96.667969 161.714844 "/>
<path style=" stroke:none;fill-rule:nonzero;fill:rgb(82.745098%,82.745098%,82.745098%);fill-opacity:1;" d="M 29 169.800781 L 48.332031 169.800781 L 48.332031 177.886719 L 29 177.886719 Z M 29 169.800781 "/>
<path style=" stroke:none;fill-rule:nonzero;fill:rgb(0%,0%,0%);fill-opacity:1;" d="M 67.667969 169.800781 L 87 169.800781 L 87 177.886719 L 67.667969 177.886719 Z M 67.667969 169.800781 "/>
<path style=" stroke:none;fill-rule:nonzero;fill:rgb(71.912129%,71.912129%,71.912129%);fill-opacity:1;" d="M 87 169.800781 L 116 169.800781 L 116 177.886719 L 87 177.886719 Z M 87 169.800781 "/>
<path style=" stroke:none;fill-rule:nonzero;fill:rgb(82.745098%,82.745098%,82.745098%);fill-opacity:1;" d="M 0 177.886719 L 19.332031 177.886719 L 19.332031 185.972656 L 0 185.972656 Z M 0 177.886719 "/>
<path style=" stroke:none;fill-rule:nonzero;fill:rgb(0%,0%,0%);fill-opacity:1;" d="M 38.667969 177.886719 L 58 177.886719 L 58 185.972656 L 38.667969 185.972656 Z M 38.667969 177.886719 "/>
<path style=" stroke:none;fill-rule:nonzero;fill:rgb(42.358287%,42.358287%,42.358287%);fill-opacity:1;" d="M 58 177.886719 L 96.667969 177.886719 L 96.667969 185.972656 L 58 185.972656 Z M 58 177.886719 "/>
<path style=" stroke:none;fill-rule:nonzero;fill:rgb(68.24589%,68.24589%,68.24589%);fill-opacity:1;" d="M 96.667969 177.886719 L 109.558594 177.886719 L 109.558594 185.972656 L 96.667969 185.972656 Z M 96.667969 177.886719 "/>
<path style=" stroke:none;fill-rule:nonzero;fill:rgb(60.609127%,60.609127%,60.609127%);fill-opacity:1;" d="M 9.667969 185.972656 L 29 185.972656 L 29 194.058594 L 9.667969 194.058594 Z M 9.667969 185.972656 "/>
<path style=" stroke:none;fill-rule:nonzero;fill:rgb(71.912129%,71.912129%,71.912129%);fill-opacity:1;" d="M 29 185.972656 L 67.667969 185.972656 L 67.667969 194.058594 L 29 194.058594 Z M 29 185.972656 "/>
<path style=" stroke:none;fill-rule:nonzero;fill:rgb(34.530893%,34.530893%,34.530893%);fill-opacity:1;" d="M 67.667969 185.972656 L 80.558594 185.972656 L 80.558594 194.058594 L 67.667969 194.058594 Z M 67.667969 185.972656 "/>
<path style=" stroke:none;fill-rule:nonzero;fill:rgb(60.609127%,60.609127%,60.609127%);fill-opacity:1;" d="M 93.445312 185.972656 L 106.335938 185.972656 L 106.335938 194.058594 L 93.445312 194.058594 Z M 93.445312 185.972656 "/>
<path style=" stroke:none;fill-rule:nonzero;fill:rgb(91.90824%,91.90824%,91.90824%);fill-opacity:1;" d="M 106.332031 185.972656 L 116 185.972656 L 116 194.058594 L 106.332031 194.058594 Z M 106.332031 185.972656 "/>
<path style=" stroke:none;fill-rule:nonzero;fill:rgb(71.912129%,71.912129%,71.912129%);fill-opacity:1;" d="M 0 194.058594 L 38.667969 194.058594 L 38.667969 202.144531 L 0 202.144531 Z M 0 194.058594 "/>
<path style=" stroke:none;fill-rule:nonzero;fill:rgb(34.530893%,34.530893%,34.530893%);fill-opacity:1;" d="M 38.667969 194.058594 L 51.558594 194.058594 L 51.558594 202.144531 L 38.667969 202.144531 Z M 38.667969 194.058594 "/>
<path style=" stroke:none;fill-rule:nonzero;fill:rgb(0%,0%,0%);fill-opacity:1;" d="M 64.445312 194.058594 L 77.335938 194.058594 L 77.335938 202.144531 L 64.445312 202.144531 Z M 64.445312 194.058594 "/>
<path style=" stroke:none;fill-rule:nonzero;fill:rgb(91.90824%,91.90824%,91.90824%);fill-opacity:1;" d="M 77.332031 194.058594 L 116 194.058594 L 116 202.144531 L 77.332031 202.144531 Z M 77.332031 194.058594 "/>
<path style=" stroke:none;fill-rule:nonzero;fill:rgb(68.24589%,68.24589%,68.24589%);fill-opacity:1;" d="M 9.667969 202.144531 L 22.558594 202.144531 L 22.558594 210.230469 L 9.667969 210.230469 Z M 9.667969 202.144531 "/>
<path style=" stroke:none;fill-rule:nonzero;fill:rgb(60.609127%,60.609127%,60.609127%);fill-opacity:1;" d="M 35.445312 202.144531 L 48.335938 202.144531 L 48.335938 210.230469 L 35.445312 210.230469 Z M 35.445312 202.144531 "/>
<path style=" stroke:none;fill-rule:nonzero;fill:rgb(73.535698%,73.535698%,73.535698%);fill-opacity:1;" d="M 48.332031 202.144531 L 87 202.144531 L 87 210.230469 L 48.332031 210.230469 Z M 48.332031 202.144531 "/>
<path style=" stroke:none;fill-rule:nonzero;fill:rgb(91.90824%,91.90824%,91.90824%);fill-opacity:1;" d="M 87 202.144531 L 116 202.144531 L 116 210.230469 L 87 210.230469 Z M 87 202.144531 "/>
<path style=" stroke:none;fill-rule:nonzero;fill:rgb(60.609127%,60.609127%,60.609127%);fill-opacity:1;" d="M 6.445312 210.230469 L 19.335938 210.230469 L 19.335938 218.316406 L 6.445312 218.316406 Z M 6.445312 210.230469 "/>
<path style=" stroke:none;fill-rule:nonzero;fill:rgb(91.90824%,91.90824%,91.90824%);fill-opacity:1;" d="M 19.332031 210.230469 L 58 210.230469 L 58 218.316406 L 19.332031 218.316406 Z M 19.332031 210.230469 "/>
<path style=" stroke:none;fill-rule:nonzero;fill:rgb(73.535698%,73.535698%,73.535698%);fill-opacity:1;" d="M 58 210.230469 L 116 210.230469 L 116 218.316406 L 58 218.316406 Z M 58 210.230469 "/>
<path style=" stroke:none;fill-rule:nonzero;fill:rgb(91.90824%,91.90824%,91.90824%);fill-opacity:1;" d="M 29 218.3125 L 87 218.3125 L 87 226.398438 L 29 226.398438 Z M 29 218.3125 "/>
<path style=" stroke:none;fill-rule:nonzero;fill:rgb(82.745098%,82.745098%,82.745098%);fill-opacity:1;" d="M 87 218.3125 L 106.332031 218.3125 L 106.332031 226.398438 L 87 226.398438 Z M 87 218.3125 "/>
<path style=" stroke:none;fill-rule:nonzero;fill:rgb(91.90824%,91.90824%,91.90824%);fill-opacity:1;" d="M 0 226.398438 L 58 226.398438 L 58 234.484375 L 0 234.484375 Z M 0 226.398438 "/>
<path style=" stroke:none;fill-rule:nonzero;fill:rgb(60.609127%,60.609127%,60.609127%);fill-opacity:1;" d="M 58 226.398438 L 77.332031 226.398438 L 77.332031 234.484375 L 58 234.484375 Z M 58 226.398438 "/>
<path style=" stroke:none;fill-rule:nonzero;fill:rgb(60.609127%,60.609127%,60.609127%);fill-opacity:1;" d="M 96.667969 226.398438 L 116 226.398438 L 116 234.484375 L 96.667969 234.484375 Z M 96.667969 226.398438 "/>
<path style=" stroke:none;fill-rule:nonzero;fill:rgb(68.24589%,68.24589%,68.24589%);fill-opacity:1;" d="M 29 234.484375 L 48.332031 234.484375 L 48.332031 242.570312 L 29 242.570312 Z M 29 234.484375 "/>
<path style=" stroke:none;fill-rule:nonzero;fill:rgb(0%,0%,0%);fill-opacity:1;" d="M 67.667969 234.484375 L 87 234.484375 L 87 242.570312 L 67.667969 242.570312 Z M 67.667969 234.484375 "/>
<path style=" stroke:none;fill-rule:nonzero;fill:rgb(71.912129%,71.912129%,71.912129%);fill-opacity:1;" d="M 87 234.484375 L 116 234.484375 L 116 242.570312 L 87 242.570312 Z M 87 234.484375 "/>
<path style=" stroke:none;fill-rule:nonzero;fill:rgb(68.24589%,68.24589%,68.24589%);fill-opacity:1;" d="M 0 242.570312 L 19.332031 242.570312 L 19.332031 250.65625 L 0 250.65625 Z M 0 242.570312 "/>
<path style=" stroke:none;fill-rule:nonzero;fill:rgb(0%,0%,0%);fill-opacity:1;" d="M 38.667969 242.570312 L 58 242.570312 L 58 250.65625 L 38.667969 250.65625 Z M 38.667969 242.570312 "/>
<path style=" stroke:none;fill-rule:nonzero;fill:rgb(42.358287%,42.358287%,42.358287%);fill-opacity:1;" d="M 58 242.570312 L 96.667969 242.570312 L 96.667969 250.65625 L 58 250.65625 Z M 58 242.570312 "/>
<path style=" stroke:none;fill-rule:nonzero;fill:rgb(68.24589%,68.24589%,68.24589%);fill-opacity:1;" d="M 96.667969 242.570312 L 109.558594 242.570312 L 109.558594 250.65625 L 96.667969 250.65625 Z M 96.667969 242.570312 "/>
<path style=" stroke:none;fill-rule:nonzero;fill:rgb(60.609127%,60.609127%,60.609127%);fill-opacity:1;" d="M 9.667969 250.65625 L 29 250.65625 L 29 258.742188 L 9.667969 258.742188 Z M 9.667969 250.65625 "/>
<path style=" stroke:none;fill-rule:nonzero;fill:rgb(71.912129%,71.912129%,71.912129%);fill-opacity:1;" d="M 29 250.65625 L 67.667969 250.65625 L 67.667969 258.742188 L 29 258.742188 Z M 29 250.65625 "/>
<path style=" stroke:none;fill-rule:nonzero;fill:rgb(34.530893%,34.530893%,34.530893%);fill-opacity:1;" d="M 67.667969 250.65625 L 80.558594 250.65625 L 80.558594 258.742188 L 67.667969 258.742188 Z M 67.667969 250.65625 "/>
<path style=" stroke:none;fill-rule:nonzero;fill:rgb(60.609127%,60.609127%,60.609127%);fill-opacity:1;" d="M 93.445312 250.65625 L 106.335938 250.65625 L 106.335938 258.742188 L 93.445312 258.742188 Z M 93.445312 250.65625 "/>
<path style=" stroke:none;fill-rule:nonzero;fill:rgb(91.90824%,91.90824%,91.90824%);fill-opacity:1;" d="M 106.332031 250.65625 L 116 250.65625 L 116 258.742188 L 106.332031 258.742188 Z M 106.332031 250.65625 "/>
<path style=" stroke:none;fill-rule:nonzero;fill:rgb(71.912129%,71.912129%,71.912129%);fill-opacity:1;" d="M 0 258.742188 L 38.667969 258.742188 L 38.667969 266.828125 L 0 266.828125 Z M 0 258.742188 "/>
<path style=" stroke:none;fill-rule:nonzero;fill:rgb(34.530893%,34.530893%,34.530893%);fill-opacity:1;" d="M 38.667969 258.742188 L 51.558594 258.742188 L 51.558594 266.828125 L 38.667969 266.828125 Z M 38.667969 258.742188 "/>
<path style=" stroke:none;fill-rule:nonzero;fill:rgb(0%,0%,0%);fill-opacity:1;" d="M 64.445312 258.742188 L 77.335938 258.742188 L 77.335938 266.828125 L 64.445312 266.828125 Z M 64.445312 258.742188 "/>
<path style=" stroke:none;fill-rule:nonzero;fill:rgb(91.90824%,91.90824%,91.90824%);fill-opacity:1;" d="M 77.332031 258.742188 L 116 258.742188 L 116 266.828125 L 77.332031 266.828125 Z M 77.332031 258.742188 "/>
<path style=" stroke:none;fill-rule:nonzero;fill:rgb(68.24589%,68.24589%,68.24589%);fill-opacity:1;" d="M 9.667969 266.828125 L 22.558594 266.828125 L 22.558594 274.914062 L 9.667969 274.914062 Z M 9.667969 266.828125 "/>
<path style=" stroke:none;fill-rule:nonzero;fill:rgb(60.609127%,60.609127%,60.609127%);fill-opacity:1;" d="M 35.445312 266.828125 L 48.335938 266.828125 L 48.335938 274.914062 L 35.445312 274.914062 Z M 35.445312 266.828125 "/>
<path style=" stroke:none;fill-rule:nonzero;fill:rgb(73.535698%,73.535698%,73.535698%);fill-opacity:1;" d="M 48.332031 266.828125 L 87 266.828125 L 87 274.914062 L 48.332031 274.914062 Z M 48.332031 266.828125 "/>
<path style=" stroke:none;fill-rule:nonzero;fill:rgb(71.912129%,71.912129%,71.912129%);fill-opacity:1;" d="M 87 266.828125 L 116 266.828125 L 116 274.914062 L 87 274.914062 Z M 87 266.828125 "/>
<path style=" stroke:none;fill-rule:nonzero;fill:rgb(60.609127%,60.609127%,60.609127%);fill-opacity:1;" d="M 6.445312 274.914062 L 19.335938 274.914062 L 19.335938 283 L 6.445312 283 Z M 6.445312 274.914062 "/>
<path style=" stroke:none;fill-rule:nonzero;fill:rgb(91.90824%,91.90824%,91.90824%);fill-opacity:1;" d="M 19.332031 274.914062 L 58 274.914062 L 58 283 L 19.332031 283 Z M 19.332031 274.914062 "/>
<path style=" stroke:none;fill-rule:nonzero;fill:rgb(42.358287%,42.358287%,42.358287%);fill-opacity:1;" d="M 58 274.914062 L 116 274.914062 L 116 283 L 58 283 Z M 58 274.914062 "/>
<path style=" stroke:none;fill-rule:nonzero;fill:rgb(71.912129%,71.912129%,71.912129%);fill-opacity:1;" d="M 29 283 L 87 283 L 87 291.085938 L 29 291.085938 Z M 29 283 "/>
<path style=" stroke:none;fill-rule:nonzero;fill:rgb(68.24589%,68.24589%,68.24589%);fill-opacity:1;" d="M 87 283 L 106.332031 283 L 106.332031 291.085938 L 87 291.085938 Z M 87 283 "/>
<path style=" stroke:none;fill-rule:nonzero;fill:rgb(71.912129%,71.912129%,71.912129%);fill-opacity:1;" d="M 0 291.085938 L 58 291.085938 L 58 299.171875 L 0 299.171875 Z M 0 291.085938 "/>
<path style=" stroke:none;fill-rule:nonzero;fill:rgb(34.530893%,34.530893%,34.530893%);fill-opacity:1;" d="M 58 291.085938 L 77.332031 291.085938 L 77.332031 299.171875 L 58 299.171875 Z M 58 291.085938 "/>
<path style=" stroke:none;fill-rule:nonzero;fill:rgb(60.609127%,60.609127%,60.609127%);fill-opacity:1;" d="M 96.667969 291.085938 L 116 291.085938 L 116 299.171875 L 96.667969 299.171875 Z M 96.667969 291.085938 "/>
<path style=" stroke:none;fill-rule:nonzero;fill:rgb(82.745098%,82.745098%,82.745098%);fill-opacity:1;" d="M 29 299.171875 L 48.332031 299.171875 L 48.332031 307.257812 L 29 307.257812 Z M 29 299.171875 "/>
<path style=" stroke:none;fill-rule:nonzero;fill:rgb(0%,0%,0%);fill-opacity:1;" d="M 67.667969 299.171875 L 87 299.171875 L 87 307.257812 L 67.667969 307.257812 Z M 67.667969 299.171875 "/>
<path style=" stroke:none;fill-rule:nonzero;fill:rgb(71.912129%,71.912129%,71.912129%);fill-opacity:1;" d="M 87 299.171875 L 116 299.171875 L 116 307.257812 L 87 307.257812 Z M 87 299.171875 "/>
<path style=" stroke:none;fill-rule:nonzero;fill:rgb(82.745098%,82.745098%,82.745098%);fill-opacity:1;" d="M 0 307.257812 L 19.332031 307.257812 L 19.332031 315.34375 L 0 315.34375 Z M 0 307.257812 "/>
<path style=" stroke:none;fill-rule:nonzero;fill:rgb(0%,0%,0%);fill-opacity:1;" d="M 38.667969 307.257812 L 58 307.257812 L 58 315.34375 L 38.667969 315.34375 Z M 38.667969 307.257812 "/>
<path style=" stroke:none;fill-rule:nonzero;fill:rgb(42.358287%,42.358287%,42.358287%);fill-opacity:1;" d="M 58 307.257812 L 96.667969 307.257812 L 96.667969 315.34375 L 58 315.34375 Z M 58 307.257812 "/>
<path style=" stroke:none;fill-rule:nonzero;fill:rgb(68.24589%,68.24589%,68.24589%);fill-opacity:1;" d="M 96.667969 307.257812 L 109.558594 307.257812 L 109.558594 315.34375 L 96.667969 315.34375 Z M 96.667969 307.257812 "/>
<path style=" stroke:none;fill-rule:nonzero;fill:rgb(60.609127%,60.609127%,60.609127%);fill-opacity:1;" d="M 9.667969 315.34375 L 29 315.34375 L 29 323.429688 L 9.667969 323.429688 Z M 9.667969 315.34375 "/>
<path style=" stroke:none;fill-rule:nonzero;fill:rgb(71.912129%,71.912129%,71.912129%);fill-opacity:1;" d="M 29 315.34375 L 67.667969 315.34375 L 67.667969 323.429688 L 29 323.429688 Z M 29 315.34375 "/>
<path style=" stroke:none;fill-rule:nonzero;fill:rgb(34.530893%,34.530893%,34.530893%);fill-opacity:1;" d="M 67.667969 315.34375 L 80.558594 315.34375 L 80.558594 323.429688 L 67.667969 323.429688 Z M 67.667969 315.34375 "/>
<path style=" stroke:none;fill-rule:nonzero;fill:rgb(60.609127%,60.609127%,60.609127%);fill-opacity:1;" d="M 93.445312 315.34375 L 106.335938 315.34375 L 106.335938 323.429688 L 93.445312 323.429688 Z M 93.445312 315.34375 "/>
<path style=" stroke:none;fill-rule:nonzero;fill:rgb(91.90824%,91.90824%,91.90824%);fill-opacity:1;" d="M 106.332031 315.34375 L 116 315.34375 L 116 323.429688 L 106.332031 323.429688 Z M 106.332031 315.34375 "/>
<path style=" stroke:none;fill-rule:nonzero;fill:rgb(71.912129%,71.912129%,71.912129%);fill-opacity:1;" d="M 0 323.429688 L 38.667969 323.429688 L 38.667969 331.515625 L 0 331.515625 Z M 0 323.429688 "/>
<path style=" stroke:none;fill-rule:nonzero;fill:rgb(34.530893%,34.530893%,34.530893%);fill-opacity:1;" d="M 38.667969 323.429688 L 51.558594 323.429688 L 51.558594 331.515625 L 38.667969 331.515625 Z M 38.667969 323.429688 "/>
<path style=" stroke:none;fill-rule:nonzero;fill:rgb(0%,0%,0%);fill-opacity:1;" d="M 64.445312 323.429688 L 77.335938 323.429688 L 77.335938 331.515625 L 64.445312 331.515625 Z M 64.445312 323.429688 "/>
<path style=" stroke:none;fill-rule:nonzero;fill:rgb(91.90824%,91.90824%,91.90824%);fill-opacity:1;" d="M 77.332031 323.429688 L 116 323.429688 L 116 331.515625 L 77.332031 331.515625 Z M 77.332031 323.429688 "/>
<path style=" stroke:none;fill-rule:nonzero;fill:rgb(68.24589%,68.24589%,68.24589%);fill-opacity:1;" d="M 9.667969 331.515625 L 22.558594 331.515625 L 22.558594 339.601562 L 9.667969 339.601562 Z M 9.667969 331.515625 "/>
<path style=" stroke:none;fill-rule:nonzero;fill:rgb(60.609127%,60.609127%,60.609127%);fill-opacity:1;" d="M 35.445312 331.515625 L 48.335938 331.515625 L 48.335938 339.601562 L 35.445312 339.601562 Z M 35.445312 331.515625 "/>
<path style=" stroke:none;fill-rule:nonzero;fill:rgb(73.535698%,73.535698%,73.535698%);fill-opacity:1;" d="M 48.332031 331.515625 L 87 331.515625 L 87 339.601562 L 48.332031 339.601562 Z M 48.332031 331.515625 "/>
<path style=" stroke:none;fill-rule:nonzero;fill:rgb(91.90824%,91.90824%,91.90824%);fill-opacity:1;" d="M 87 331.515625 L 116 331.515625 L 116 339.601562 L 87 339.601562 Z M 87 331.515625 "/>
<path style=" stroke:none;fill-rule:nonzero;fill:rgb(60.609127%,60.609127%,60.609127%);fill-opacity:1;" d="M 6.445312 339.601562 L 19.335938 339.601562 L 19.335938 347.6875 L 6.445312 347.6875 Z M 6.445312 339.601562 "/>
<path style=" stroke:none;fill-rule:nonzero;fill:rgb(91.90824%,91.90824%,91.90824%);fill-opacity:1;" d="M 19.332031 339.601562 L 58 339.601562 L 58 347.6875 L 19.332031 347.6875 Z M 19.332031 339.601562 "/>
<path style=" stroke:none;fill-rule:nonzero;fill:rgb(73.535698%,73.535698%,73.535698%);fill-opacity:1;" d="M 58 339.601562 L 116 339.601562 L 116 347.6875 L 58 347.6875 Z M 58 339.601562 "/>
<path style=" stroke:none;fill-rule:nonzero;fill:rgb(91.90824%,91.90824%,91.90824%);fill-opacity:1;" d="M 29 347.6875 L 87 347.6875 L 87 355.773438 L 29 355.773438 Z M 29 347.6875 "/>
<path style=" stroke:none;fill-rule:nonzero;fill:rgb(82.745098%,82.745098%,82.745098%);fill-opacity:1;" d="M 87 347.6875 L 106.332031 347.6875 L 106.332031 355.773438 L 87 355.773438 Z M 87 347.6875 "/>
<path style=" stroke:none;fill-rule:nonzero;fill:rgb(91.90824%,91.90824%,91.90824%);fill-opacity:1;" d="M 0 355.769531 L 58 355.769531 L 58 363.855469 L 0 363.855469 Z M 0 355.769531 "/>
<path style=" stroke:none;fill-rule:nonzero;fill:rgb(60.609127%,60.609127%,60.609127%);fill-opacity:1;" d="M 58 355.769531 L 77.332031 355.769531 L 77.332031 363.855469 L 58 363.855469 Z M 58 355.769531 "/>
<path style=" stroke:none;fill-rule:nonzero;fill:rgb(60.609127%,60.609127%,60.609127%);fill-opacity:1;" d="M 96.667969 355.769531 L 116 355.769531 L 116 363.855469 L 96.667969 363.855469 Z M 96.667969 355.769531 "/>
<path style=" stroke:none;fill-rule:nonzero;fill:rgb(82.745098%,82.745098%,82.745098%);fill-opacity:1;" d="M 29 363.855469 L 48.332031 363.855469 L 48.332031 371.941406 L 29 371.941406 Z M 29 363.855469 "/>
<path style=" stroke:none;fill-rule:nonzero;fill:rgb(0%,0%,0%);fill-opacity:1;" d="M 67.667969 363.855469 L 87 363.855469 L 87 371.941406 L 67.667969 371.941406 Z M 67.667969 363.855469 "/>
<path style=" stroke:none;fill-rule:nonzero;fill:rgb(71.912129%,71.912129%,71.912129%);fill-opacity:1;" d="M 87 363.855469 L 116 363.855469 L 116 371.941406 L 87 371.941406 Z M 87 363.855469 "/>
<path style=" stroke:none;fill-rule:nonzero;fill:rgb(82.745098%,82.745098%,82.745098%);fill-opacity:1;" d="M 0 371.941406 L 19.332031 371.941406 L 19.332031 380.027344 L 0 380.027344 Z M 0 371.941406 "/>
<path style=" stroke:none;fill-rule:nonzero;fill:rgb(0%,0%,0%);fill-opacity:1;" d="M 38.667969 371.941406 L 58 371.941406 L 58 380.027344 L 38.667969 380.027344 Z M 38.667969 371.941406 "/>
<path style=" stroke:none;fill-rule:nonzero;fill:rgb(42.358287%,42.358287%,42.358287%);fill-opacity:1;" d="M 58 371.941406 L 96.667969 371.941406 L 96.667969 380.027344 L 58 380.027344 Z M 58 371.941406 "/>
<path style=" stroke:none;fill-rule:nonzero;fill:rgb(68.24589%,68.24589%,68.24589%);fill-opacity:1;" d="M 96.667969 371.941406 L 109.558594 371.941406 L 109.558594 380.027344 L 96.667969 380.027344 Z M 96.667969 371.941406 "/>
<path style=" stroke:none;fill-rule:nonzero;fill:rgb(60.609127%,60.609127%,60.609127%);fill-opacity:1;" d="M 9.667969 380.027344 L 29 380.027344 L 29 388.113281 L 9.667969 388.113281 Z M 9.667969 380.027344 "/>
<path style=" stroke:none;fill-rule:nonzero;fill:rgb(71.912129%,71.912129%,71.912129%);fill-opacity:1;" d="M 29 380.027344 L 67.667969 380.027344 L 67.667969 388.113281 L 29 388.113281 Z M 29 380.027344 "/>
<path style=" stroke:none;fill-rule:nonzero;fill:rgb(34.530893%,34.530893%,34.530893%);fill-opacity:1;" d="M 67.667969 380.027344 L 80.558594 380.027344 L 80.558594 388.113281 L 67.667969 388.113281 Z M 67.667969 380.027344 "/>
<path style=" stroke:none;fill-rule:nonzero;fill:rgb(60.609127%,60.609127%,60.609127%);fill-opacity:1;" d="M 93.445312 380.027344 L 106.335938 380.027344 L 106.335938 388.113281 L 93.445312 388.113281 Z M 93.445312 380.027344 "/>
<path style=" stroke:none;fill-rule:nonzero;fill:rgb(91.90824%,91.90824%,91.90824%);fill-opacity:1;" d="M 106.332031 380.027344 L 116 380.027344 L 116 388.113281 L 106.332031 388.113281 Z M 106.332031 380.027344 "/>
<path style=" stroke:none;fill-rule:nonzero;fill:rgb(71.912129%,71.912129%,71.912129%);fill-opacity:1;" d="M 0 388.113281 L 38.667969 388.113281 L 38.667969 396.199219 L 0 396.199219 Z M 0 388.113281 "/>
<path style=" stroke:none;fill-rule:nonzero;fill:rgb(34.530893%,34.530893%,34.530893%);fill-opacity:1;" d="M 38.667969 388.113281 L 51.558594 388.113281 L 51.558594 396.199219 L 38.667969 396.199219 Z M 38.667969 388.113281 "/>
<path style=" stroke:none;fill-rule:nonzero;fill:rgb(0%,0%,0%);fill-opacity:1;" d="M 64.445312 388.113281 L 77.335938 388.113281 L 77.335938 396.199219 L 64.445312 396.199219 Z M 64.445312 388.113281 "/>
<path style=" stroke:none;fill-rule:nonzero;fill:rgb(91.90824%,91.90824%,91.90824%);fill-opacity:1;" d="M 77.332031 388.113281 L 116 388.113281 L 116 396.199219 L 77.332031 396.199219 Z M 77.332031 388.113281 "/>
<path style=" stroke:none;fill-rule:nonzero;fill:rgb(68.24589%,68.24589%,68.24589%);fill-opacity:1;" d="M 9.667969 396.199219 L 22.558594 396.199219 L 22.558594 404.285156 L 9.667969 404.285156 Z M 9.667969 396.199219 "/>
<path style=" stroke:none;fill-rule:nonzero;fill:rgb(60.609127%,60.609127%,60.609127%);fill-opacity:1;" d="M 35.445312 396.199219 L 48.335938 396.199219 L 48.335938 404.285156 L 35.445312 404.285156 Z M 35.445312 396.199219 "/>
<path style=" stroke:none;fill-rule:nonzero;fill:rgb(73.535698%,73.535698%,73.535698%);fill-opacity:1;" d="M 48.332031 396.199219 L 87 396.199219 L 87 404.285156 L 48.332031 404.285156 Z M 48.332031 396.199219 "/>
<path style=" stroke:none;fill-rule:nonzero;fill:rgb(91.90824%,91.90824%,91.90824%);fill-opacity:1;" d="M 87 396.199219 L 116 396.199219 L 116 404.285156 L 87 404.285156 Z M 87 396.199219 "/>
<path style=" stroke:none;fill-rule:nonzero;fill:rgb(60.609127%,60.609127%,60.609127%);fill-opacity:1;" d="M 6.445312 404.285156 L 19.335938 404.285156 L 19.335938 412.371094 L 6.445312 412.371094 Z M 6.445312 404.285156 "/>
<path style=" stroke:none;fill-rule:nonzero;fill:rgb(91.90824%,91.90824%,91.90824%);fill-opacity:1;" d="M 19.332031 404.285156 L 58 404.285156 L 58 412.371094 L 19.332031 412.371094 Z M 19.332031 404.285156 "/>
<path style=" stroke:none;fill-rule:nonzero;fill:rgb(73.535698%,73.535698%,73.535698%);fill-opacity:1;" d="M 58 404.285156 L 116 404.285156 L 116 412.371094 L 58 412.371094 Z M 58 404.285156 "/>
<path style=" stroke:none;fill-rule:nonzero;fill:rgb(91.90824%,91.90824%,91.90824%);fill-opacity:1;" d="M 29 412.371094 L 87 412.371094 L 87 420.457031 L 29 420.457031 Z M 29 412.371094 "/>
<path style=" stroke:none;fill-rule:nonzero;fill:rgb(82.745098%,82.745098%,82.745098%);fill-opacity:1;" d="M 87 412.371094 L 106.332031 412.371094 L 106.332031 420.457031 L 87 420.457031 Z M 87 412.371094 "/>
<path style=" stroke:none;fill-rule:nonzero;fill:rgb(91.90824%,91.90824%,91.90824%);fill-opacity:1;" d="M 0 420.457031 L 58 420.457031 L 58 428.542969 L 0 428.542969 Z M 0 420.457031 "/>
<path style=" stroke:none;fill-rule:nonzero;fill:rgb(60.609127%,60.609127%,60.609127%);fill-opacity:1;" d="M 58 420.457031 L 77.332031 420.457031 L 77.332031 428.542969 L 58 428.542969 Z M 58 420.457031 "/>
<path style=" stroke:none;fill-rule:nonzero;fill:rgb(60.609127%,60.609127%,60.609127%);fill-opacity:1;" d="M 96.667969 420.457031 L 116 420.457031 L 116 428.542969 L 96.667969 428.542969 Z M 96.667969 420.457031 "/>
<path style=" stroke:none;fill-rule:nonzero;fill:rgb(68.24589%,68.24589%,68.24589%);fill-opacity:1;" d="M 29 428.542969 L 48.332031 428.542969 L 48.332031 436.628906 L 29 436.628906 Z M 29 428.542969 "/>
<path style=" stroke:none;fill-rule:nonzero;fill:rgb(0%,0%,0%);fill-opacity:1;" d="M 67.667969 428.542969 L 87 428.542969 L 87 436.628906 L 67.667969 436.628906 Z M 67.667969 428.542969 "/>
<path style=" stroke:none;fill-rule:nonzero;fill:rgb(71.912129%,71.912129%,71.912129%);fill-opacity:1;" d="M 87 428.542969 L 116 428.542969 L 116 436.628906 L 87 436.628906 Z M 87 428.542969 "/>
<path style=" stroke:none;fill-rule:nonzero;fill:rgb(68.24589%,68.24589%,68.24589%);fill-opacity:1;" d="M 0 436.628906 L 19.332031 436.628906 L 19.332031 444.714844 L 0 444.714844 Z M 0 436.628906 "/>
<path style=" stroke:none;fill-rule:nonzero;fill:rgb(0%,0%,0%);fill-opacity:1;" d="M 38.667969 436.628906 L 58 436.628906 L 58 444.714844 L 38.667969 444.714844 Z M 38.667969 436.628906 "/>
<path style=" stroke:none;fill-rule:nonzero;fill:rgb(42.358287%,42.358287%,42.358287%);fill-opacity:1;" d="M 58 436.628906 L 96.667969 436.628906 L 96.667969 444.714844 L 58 444.714844 Z M 58 436.628906 "/>
<path style=" stroke:none;fill-rule:nonzero;fill:rgb(68.24589%,68.24589%,68.24589%);fill-opacity:1;" d="M 96.667969 436.628906 L 109.558594 436.628906 L 109.558594 444.714844 L 96.667969 444.714844 Z M 96.667969 436.628906 "/>
<path style=" stroke:none;fill-rule:nonzero;fill:rgb(60.609127%,60.609127%,60.609127%);fill-opacity:1;" d="M 9.667969 444.714844 L 29 444.714844 L 29 452.800781 L 9.667969 452.800781 Z M 9.667969 444.714844 "/>
<path style=" stroke:none;fill-rule:nonzero;fill:rgb(71.912129%,71.912129%,71.912129%);fill-opacity:1;" d="M 29 444.714844 L 67.667969 444.714844 L 67.667969 452.800781 L 29 452.800781 Z M 29 444.714844 "/>
<path style=" stroke:none;fill-rule:nonzero;fill:rgb(34.530893%,34.530893%,34.530893%);fill-opacity:1;" d="M 67.667969 444.714844 L 80.558594 444.714844 L 80.558594 452.800781 L 67.667969 452.800781 Z M 67.667969 444.714844 "/>
<path style=" stroke:none;fill-rule:nonzero;fill:rgb(60.609127%,60.609127%,60.609127%);fill-opacity:1;" d="M 93.445312 444.714844 L 106.335938 444.714844 L 106.335938 452.800781 L 93.445312 452.800781 Z M 93.445312 444.714844 "/>
<path style=" stroke:none;fill-rule:nonzero;fill:rgb(91.90824%,91.90824%,91.90824%);fill-opacity:1;" d="M 106.332031 444.714844 L 116 444.714844 L 116 452.800781 L 106.332031 452.800781 Z M 106.332031 444.714844 "/>
<path style=" stroke:none;fill-rule:nonzero;fill:rgb(71.912129%,71.912129%,71.912129%);fill-opacity:1;" d="M 0 452.800781 L 38.667969 452.800781 L 38.667969 460.886719 L 0 460.886719 Z M 0 452.800781 "/>
<path style=" stroke:none;fill-rule:nonzero;fill:rgb(34.530893%,34.530893%,34.530893%);fill-opacity:1;" d="M 38.667969 452.800781 L 51.558594 452.800781 L 51.558594 460.886719 L 38.667969 460.886719 Z M 38.667969 452.800781 "/>
<path style=" stroke:none;fill-rule:nonzero;fill:rgb(0%,0%,0%);fill-opacity:1;" d="M 64.445312 452.800781 L 77.335938 452.800781 L 77.335938 460.886719 L 64.445312 460.886719 Z M 64.445312 452.800781 "/>
<path style=" stroke:none;fill-rule:nonzero;fill:rgb(91.90824%,91.90824%,91.90824%);fill-opacity:1;" d="M 77.332031 452.800781 L 116 452.800781 L 116 460.886719 L 77.332031 460.886719 Z M 77.332031 452.800781 "/>
<path style=" stroke:none;fill-rule:nonzero;fill:rgb(68.24589%,68.24589%,68.24589%);fill-opacity:1;" d="M 9.667969 460.886719 L 22.558594 460.886719 L 22.558594 468.972656 L 9.667969 468.972656 Z M 9.667969 460.886719 "/>
<path style=" stroke:none;fill-rule:nonzero;fill:rgb(60.609127%,60.609127%,60.609127%);fill-opacity:1;" d="M 35.445312 460.886719 L 48.335938 460.886719 L 48.335938 468.972656 L 35.445312 468.972656 Z M 35.445312 460.886719 "/>
<path style=" stroke:none;fill-rule:nonzero;fill:rgb(73.535698%,73.535698%,73.535698%);fill-opacity:1;" d="M 48.332031 460.886719 L 87 460.886719 L 87 468.972656 L 48.332031 468.972656 Z M 48.332031 460.886719 "/>
<path style=" stroke:none;fill-rule:nonzero;fill:rgb(71.912129%,71.912129%,71.912129%);fill-opacity:1;" d="M 87 460.886719 L 116 460.886719 L 116 468.972656 L 87 468.972656 Z M 87 460.886719 "/>
<path style=" stroke:none;fill-rule:nonzero;fill:rgb(60.609127%,60.609127%,60.609127%);fill-opacity:1;" d="M 6.445312 468.972656 L 19.335938 468.972656 L 19.335938 477.058594 L 6.445312 477.058594 Z M 6.445312 468.972656 "/>
<path style=" stroke:none;fill-rule:nonzero;fill:rgb(91.90824%,91.90824%,91.90824%);fill-opacity:1;" d="M 19.332031 468.972656 L 58 468.972656 L 58 477.058594 L 19.332031 477.058594 Z M 19.332031 468.972656 "/>
<path style=" stroke:none;fill-rule:nonzero;fill:rgb(42.358287%,42.358287%,42.358287%);fill-opacity:1;" d="M 58 468.972656 L 116 468.972656 L 116 477.058594 L 58 477.058594 Z M 58 468.972656 "/>
<path style=" stroke:none;fill-rule:nonzero;fill:rgb(71.912129%,71.912129%,71.912129%);fill-opacity:1;" d="M 29 477.058594 L 87 477.058594 L 87 485.144531 L 29 485.144531 Z M 29 477.058594 "/>
<path style=" stroke:none;fill-rule:nonzero;fill:rgb(68.24589%,68.24589%,68.24589%);fill-opacity:1;" d="M 87 477.058594 L 106.332031 477.058594 L 106.332031 485.144531 L 87 485.144531 Z M 87 477.058594 "/>
<path style=" stroke:none;fill-rule:nonzero;fill:rgb(71.912129%,71.912129%,71.912129%);fill-opacity:1;" d="M 0 485.144531 L 58 485.144531 L 58 493.230469 L 0 493.230469 Z M 0 485.144531 "/>
<path style=" stroke:none;fill-rule:nonzero;fill:rgb(34.530893%,34.530893%,34.530893%);fill-opacity:1;" d="M 58 485.144531 L 77.332031 485.144531 L 77.332031 493.230469 L 58 493.230469 Z M 58 485.144531 "/>
<path style=" stroke:none;fill-rule:nonzero;fill:rgb(60.609127%,60.609127%,60.609127%);fill-opacity:1;" d="M 96.667969 485.144531 L 116 485.144531 L 116 493.230469 L 96.667969 493.230469 Z M 96.667969 485.144531 "/>
<path style=" stroke:none;fill-rule:nonzero;fill:rgb(82.745098%,82.745098%,82.745098%);fill-opacity:1;" d="M 29 493.230469 L 48.332031 493.230469 L 48.332031 501.316406 L 29 501.316406 Z M 29 493.230469 "/>
<path style=" stroke:none;fill-rule:nonzero;fill:rgb(0%,0%,0%);fill-opacity:1;" d="M 67.667969 493.230469 L 87 493.230469 L 87 501.316406 L 67.667969 501.316406 Z M 67.667969 493.230469 "/>
<path style=" stroke:none;fill-rule:nonzero;fill:rgb(71.912129%,71.912129%,71.912129%);fill-opacity:1;" d="M 87 493.230469 L 116 493.230469 L 116 501.316406 L 87 501.316406 Z M 87 493.230469 "/>
<path style=" stroke:none;fill-rule:nonzero;fill:rgb(82.745098%,82.745098%,82.745098%);fill-opacity:1;" d="M 0 501.3125 L 19.332031 501.3125 L 19.332031 509.398438 L 0 509.398438 Z M 0 501.3125 "/>
<path style=" stroke:none;fill-rule:nonzero;fill:rgb(0%,0%,0%);fill-opacity:1;" d="M 38.667969 501.3125 L 58 501.3125 L 58 509.398438 L 38.667969 509.398438 Z M 38.667969 501.3125 "/>
<path style=" stroke:none;fill-rule:nonzero;fill:rgb(42.358287%,42.358287%,42.358287%);fill-opacity:1;" d="M 58 501.3125 L 96.667969 501.3125 L 96.667969 509.398438 L 58 509.398438 Z M 58 501.3125 "/>
<path style=" stroke:none;fill-rule:nonzero;fill:rgb(68.24589%,68.24589%,68.24589%);fill-opacity:1;" d="M 96.667969 501.3125 L 109.558594 501.3125 L 109.558594 509.398438 L 96.667969 509.398438 Z M 96.667969 501.3125 "/>
<path style=" stroke:none;fill-rule:nonzero;fill:rgb(60.609127%,60.609127%,60.609127%);fill-opacity:1;" d="M 9.667969 509.398438 L 29 509.398438 L 29 517.484375 L 9.667969 517.484375 Z M 9.667969 509.398438 "/>
<path style=" stroke:none;fill-rule:nonzero;fill:rgb(71.912129%,71.912129%,71.912129%);fill-opacity:1;" d="M 29 509.398438 L 67.667969 509.398438 L 67.667969 517.484375 L 29 517.484375 Z M 29 509.398438 "/>
<path style=" stroke:none;fill-rule:nonzero;fill:rgb(34.530893%,34.530893%,34.530893%);fill-opacity:1;" d="M 67.667969 509.398438 L 80.558594 509.398438 L 80.558594 517.484375 L 67.667969 517.484375 Z M 67.667969 509.398438 "/>
<path style=" stroke:none;fill-rule:nonzero;fill:rgb(60.609127%,60.609127%,60.609127%);fill-opacity:1;" d="M 93.445312 509.398438 L 106.335938 509.398438 L 106.335938 517.484375 L 93.445312 517.484375 Z M 93.445312 509.398438 "/>
<path style=" stroke:none;fill-rule:nonzero;fill:rgb(91.90824%,91.90824%,91.90824%);fill-opacity:1;" d="M 106.332031 509.398438 L 116 509.398438 L 116 517.484375 L 106.332031 517.484375 Z M 106.332031 509.398438 "/>
<path style=" stroke:none;fill-rule:nonzero;fill:rgb(71.912129%,71.912129%,71.912129%);fill-opacity:1;" d="M 0 517.484375 L 38.667969 517.484375 L 38.667969 525.570312 L 0 525.570312 Z M 0 517.484375 "/>
<path style=" stroke:none;fill-rule:nonzero;fill:rgb(34.530893%,34.530893%,34.530893%);fill-opacity:1;" d="M 38.667969 517.484375 L 51.558594 517.484375 L 51.558594 525.570312 L 38.667969 525.570312 Z M 38.667969 517.484375 "/>
<path style=" stroke:none;fill-rule:nonzero;fill:rgb(0%,0%,0%);fill-opacity:1;" d="M 64.445312 517.484375 L 77.335938 517.484375 L 77.335938 525.570312 L 64.445312 525.570312 Z M 64.445312 517.484375 "/>
<path style=" stroke:none;fill-rule:nonzero;fill:rgb(91.90824%,91.90824%,91.90824%);fill-opacity:1;" d="M 77.332031 517.484375 L 116 517.484375 L 116 525.570312 L 77.332031 525.570312 Z M 77.332031 517.484375 "/>
<path style=" stroke:none;fill-rule:nonzero;fill:rgb(68.24589%,68.24589%,68.24589%);fill-opacity:1;" d="M 9.667969 525.570312 L 22.558594 525.570312 L 22.558594 533.65625 L 9.667969 533.65625 Z M 9.667969 525.570312 "/>
<path style=" stroke:none;fill-rule:nonzero;fill:rgb(60.609127%,60.609127%,60.609127%);fill-opacity:1;" d="M 35.445312 525.570312 L 48.335938 525.570312 L 48.335938 533.65625 L 35.445312 533.65625 Z M 35.445312 525.570312 "/>
<path style=" stroke:none;fill-rule:nonzero;fill:rgb(73.535698%,73.535698%,73.535698%);fill-opacity:1;" d="M 48.332031 525.570312 L 87 525.570312 L 87 533.65625 L 48.332031 533.65625 Z M 48.332031 525.570312 "/>
<path style=" stroke:none;fill-rule:nonzero;fill:rgb(91.90824%,91.90824%,91.90824%);fill-opacity:1;" d="M 87 525.570312 L 116 525.570312 L 116 533.65625 L 87 533.65625 Z M 87 525.570312 "/>
<path style=" stroke:none;fill-rule:nonzero;fill:rgb(60.609127%,60.609127%,60.609127%);fill-opacity:1;" d="M 6.445312 533.65625 L 19.335938 533.65625 L 19.335938 541.742188 L 6.445312 541.742188 Z M 6.445312 533.65625 "/>
<path style=" stroke:none;fill-rule:nonzero;fill:rgb(91.90824%,91.90824%,91.90824%);fill-opacity:1;" d="M 19.332031 533.65625 L 58 533.65625 L 58 541.742188 L 19.332031 541.742188 Z M 19.332031 533.65625 "/>
<path style=" stroke:none;fill-rule:nonzero;fill:rgb(73.535698%,73.535698%,73.535698%);fill-opacity:1;" d="M 58 533.65625 L 116 533.65625 L 116 541.742188 L 58 541.742188 Z M 58 533.65625 "/>
<path style=" stroke:none;fill-rule:nonzero;fill:rgb(91.90824%,91.90824%,91.90824%);fill-opacity:1;" d="M 29 541.742188 L 87 541.742188 L 87 549.828125 L 29 549.828125 Z M 29 541.742188 "/>
<path style=" stroke:none;fill-rule:nonzero;fill:rgb(82.745098%,82.745098%,82.745098%);fill-opacity:1;" d="M 87 541.742188 L 106.332031 541.742188 L 106.332031 549.828125 L 87 549.828125 Z M 87 541.742188 "/>
<path style=" stroke:none;fill-rule:nonzero;fill:rgb(91.90824%,91.90824%,91.90824%);fill-opacity:1;" d="M 0 549.828125 L 58 549.828125 L 58 557.914062 L 0 557.914062 Z M 0 549.828125 "/>
<path style=" stroke:none;fill-rule:nonzero;fill:rgb(60.609127%,60.609127%,60.609127%);fill-opacity:1;" d="M 58 549.828125 L 77.332031 549.828125 L 77.332031 557.914062 L 58 557.914062 Z M 58 549.828125 "/>
<path style=" stroke:none;fill-rule:nonzero;fill:rgb(60.609127%,60.609127%,60.609127%);fill-opacity:1;" d="M 96.667969 549.828125 L 116 549.828125 L 116 557.914062 L 96.667969 557.914062 Z M 96.667969 549.828125 "/>
<path style=" stroke:none;fill-rule:nonzero;fill:rgb(82.745098%,82.745098%,82.745098%);fill-opacity:1;" d="M 29 557.914062 L 48.332031 557.914062 L 48.332031 566 L 29 566 Z M 29 557.914062 "/>
<path style=" stroke:none;fill-rule:nonzero;fill:rgb(0%,0%,0%);fill-opacity:1;" d="M 67.667969 557.914062 L 87 557.914062 L 87 566 L 67.667969 566 Z M 67.667969 557.914062 "/>
<path style=" stroke:none;fill-rule:nonzero;fill:rgb(71.912129%,71.912129%,71.912129%);fill-opacity:1;" d="M 87 557.914062 L 116 557.914062 L 116 566 L 87 566 Z M 87 557.914062 "/>
<path style=" stroke:none;fill-rule:nonzero;fill:rgb(0%,0%,0%);fill-opacity:1;" d="M 122.8125 5.6875 L 128.984375 5.6875 C 129.085938 5.6875 129.171875 5.738281 129.234375 5.84375 C 129.304688 5.945312 129.34375 6.054688 129.34375 6.171875 C 129.34375 6.304688 129.304688 6.425781 129.234375 6.53125 C 129.171875 6.632812 129.085938 6.6875 128.984375 6.6875 L 126.6875 6.6875 L 126.6875 8.1875 C 126.6875 8.28125 126.644531 8.351562 126.5625 8.40625 C 126.488281 8.457031 126.398438 8.484375 126.296875 8.484375 C 126.191406 8.484375 126.097656 8.457031 126.015625 8.40625 C 125.941406 8.351562 125.90625 8.28125 125.90625 8.1875 L 125.90625 6.6875 L 122.8125 6.6875 C 122.46875 6.6875 122.222656 6.757812 122.078125 6.90625 C 121.941406 7.050781 121.875 7.304688 121.875 7.671875 L 121.875 8.046875 C 121.875 8.179688 121.832031 8.285156 121.75 8.359375 C 121.664062 8.441406 121.5625 8.484375 121.4375 8.484375 C 121.320312 8.484375 121.21875 8.441406 121.125 8.359375 C 121.039062 8.273438 121 8.171875 121 8.046875 L 121 7.671875 C 121 6.347656 121.601562 5.6875 122.8125 5.6875 Z M 123.234375 9.203125 L 124.484375 9.203125 C 125.109375 9.203125 125.644531 9.4375 126.09375 9.90625 C 126.539062 10.375 126.765625 10.9375 126.765625 11.59375 C 126.765625 12.21875 126.550781 12.757812 126.125 13.21875 C 125.707031 13.675781 125.179688 13.90625 124.546875 13.90625 C 124.316406 13.90625 124.128906 13.875 123.984375 13.8125 C 123.847656 13.757812 123.75 13.675781 123.6875 13.5625 C 123.632812 13.445312 123.597656 13.335938 123.578125 13.234375 C 123.566406 13.140625 123.5625 13.003906 123.5625 12.828125 L 123.5625 10.203125 L 123.203125 10.203125 C 122.753906 10.203125 122.398438 10.359375 122.140625 10.671875 C 121.878906 10.992188 121.75 11.40625 121.75 11.90625 C 121.75 12.175781 121.785156 12.40625 121.859375 12.59375 C 121.941406 12.789062 122.019531 12.945312 122.09375 13.0625 C 122.175781 13.1875 122.21875 13.285156 122.21875 13.359375 C 122.21875 13.472656 122.164062 13.566406 122.0625 13.640625 C 121.957031 13.722656 121.851562 13.765625 121.75 13.765625 C 121.570312 13.765625 121.382812 13.582031 121.1875 13.21875 C 121 12.851562 120.90625 12.40625 120.90625 11.875 C 120.90625 11.09375 121.117188 10.453125 121.546875 9.953125 C 121.972656 9.453125 122.535156 9.203125 123.234375 9.203125 Z M 124.234375 10.203125 L 124.234375 12.421875 C 124.234375 12.628906 124.257812 12.769531 124.3125 12.84375 C 124.363281 12.914062 124.460938 12.953125 124.609375 12.953125 C 124.972656 12.953125 125.289062 12.816406 125.5625 12.546875 C 125.832031 12.285156 125.96875 11.96875 125.96875 11.59375 C 125.96875 11.207031 125.84375 10.878906 125.59375 10.609375 C 125.34375 10.335938 125.03125 10.203125 124.65625 10.203125 Z M 121.8125 14.660156 C 121.914062 14.660156 122.015625 14.691406 122.109375 14.753906 C 122.210938 14.824219 122.265625 14.910156 122.265625 15.003906 C 122.265625 15.066406 122.21875 15.152344 122.125 15.269531 C 122.03125 15.394531 121.9375 15.570312 121.84375 15.800781 C 121.75 16.027344 121.703125 16.292969 121.703125 16.597656 C 121.703125 16.992188 121.773438 17.277344 121.921875 17.457031 C 122.066406 17.644531 122.25 17.738281 122.46875 17.738281 C 122.726562 17.738281 122.9375 17.632812 123.09375 17.425781 C 123.25 17.226562 123.363281 16.980469 123.4375 16.691406 C 123.519531 16.410156 123.609375 16.121094 123.703125 15.832031 C 123.804688 15.550781 123.96875 15.304688 124.1875 15.097656 C 124.414062 14.898438 124.710938 14.800781 125.078125 14.800781 C 125.535156 14.800781 125.929688 14.960938 126.265625 15.285156 C 126.597656 15.605469 126.765625 16.101562 126.765625 16.769531 C 126.765625 17.195312 126.695312 17.582031 126.5625 17.925781 C 126.425781 18.277344 126.273438 18.457031 126.109375 18.457031 C 126.015625 18.457031 125.90625 18.417969 125.78125 18.347656 C 125.664062 18.273438 125.609375 18.179688 125.609375 18.066406 C 125.609375 18.035156 125.664062 17.878906 125.78125 17.597656 C 125.894531 17.324219 125.953125 17.054688 125.953125 16.785156 C 125.953125 16.417969 125.863281 16.144531 125.6875 15.957031 C 125.519531 15.777344 125.328125 15.691406 125.109375 15.691406 C 124.890625 15.691406 124.710938 15.789062 124.578125 15.988281 C 124.453125 16.183594 124.351562 16.429688 124.28125 16.722656 C 124.21875 17.023438 124.132812 17.316406 124.03125 17.597656 C 123.925781 17.886719 123.742188 18.132812 123.484375 18.332031 C 123.234375 18.527344 122.910156 18.628906 122.515625 18.628906 C 122.015625 18.628906 121.617188 18.449219 121.328125 18.097656 C 121.046875 17.753906 120.90625 17.261719 120.90625 16.628906 C 120.90625 16.085938 121 15.621094 121.1875 15.238281 C 121.382812 14.851562 121.59375 14.660156 121.8125 14.660156 Z M 122.8125 19.691406 L 128.984375 19.691406 C 129.085938 19.691406 129.171875 19.742188 129.234375 19.847656 C 129.304688 19.949219 129.34375 20.058594 129.34375 20.175781 C 129.34375 20.308594 129.304688 20.429688 129.234375 20.535156 C 129.171875 20.636719 129.085938 20.691406 128.984375 20.691406 L 126.6875 20.691406 L 126.6875 22.191406 C 126.6875 22.285156 126.644531 22.355469 126.5625 22.410156 C 126.488281 22.460938 126.398438 22.488281 126.296875 22.488281 C 126.191406 22.488281 126.097656 22.460938 126.015625 22.410156 C 125.941406 22.355469 125.90625 22.285156 125.90625 22.191406 L 125.90625 20.691406 L 122.8125 20.691406 C 122.46875 20.691406 122.222656 20.761719 122.078125 20.910156 C 121.941406 21.054688 121.875 21.308594 121.875 21.675781 L 121.875 22.050781 C 121.875 22.183594 121.832031 22.289062 121.75 22.363281 C 121.664062 22.445312 121.5625 22.488281 121.4375 22.488281 C 121.320312 22.488281 121.21875 22.445312 121.125 22.363281 C 121.039062 22.277344 121 22.175781 121 22.050781 L 121 21.675781 C 121 20.351562 121.601562 19.691406 122.8125 19.691406 Z M 121 22.722656 "/>
</g>
</svg>
