<?xml version="1.0" encoding="UTF-8"?>
<svg xmlns="http://www.w3.org/2000/svg" xmlns:xlink="http://www.w3.org/1999/xlink" width="136pt" height="566pt" viewBox="0 0 136 566" version="1.1">
<g id="surface193">
<path style=" stroke:none;fill-rule:nonzero;fill:rgb(0%,0%,0%);fill-opacity:1;" d="M 0 0 L 96 0 L 96 566 L 0 566 Z M 0 0 "/>
<path style=" stroke:none;fill-rule:nonzero;fill:rgb(50.196078%,50.196078%,50.196078%);fill-opacity:1;" d="M 0 0 L 12 0 L 12 566 L 0 566 Z M 0 0 "/>
<path style=" stroke:none;fill-rule:nonzero;fill:rgb(0%,0%,0%);fill-opacity:1;" d="M 12 0 L 24 0 L 24 566 L 12 566 Z M 12 0 "/>
<path style=" stroke:none;fill-rule:nonzero;fill:rgb(50.196078%,50.196078%,50.196078%);fill-opacity:1;" d="M 24 0 L 36 0 L 36 566 L 24 566 Z M 24 0 "/>
<path style=" stroke:none;fill-rule:nonzero;fill:rgb(0%,0%,0%);fill-opacity:1;" d="M 36 0 L 48 0 L 48 566 L 36 566 Z M 36 0 "/>
<path style=" stroke:none;fill-rule:nonzero;fill:rgb(50.196078%,50.196078%,50.196078%);fill-opacity:1;" d="M 48 0 L 60 0 L 60 566 L 48 566 Z M 48 0 "/>
<path style=" stroke:none;fill-rule:nonzero;fill:rgb(0%,0%,0%);fill-opacity:1;" d="M 60 0 L 72 0 L 72 566 L 60 566 Z M 60 0 "/>
<path style=" stroke:none;fill-rule:nonzero;fill:rgb(50.196078%,50.196078%,50.196078%);fill-opacity:1;" d="M 72 0 L 84 0 L 84 566 L 72 566 Z M 72 0 "/>
<path style=" stroke:none;fill-rule:nonzero;fill:rgb(0%,0%,0%);fill-opacity:1;" d="M 84 0 L 96 0 L 96 566 L 84 566 Z M 84 0 "/>
<path style=" stroke:none;fill-rule:nonzero;fill:rgb(0%,0%,0%);fill-opacity:1;" d="M 136.578125 11.203125 L 147.453125 11.203125 C 148.492188 11.203125 149.378906 11.550781 150.109375 12.25 C 150.835938 12.945312 151.203125 13.773438 151.203125 14.734375 L 151.203125 15.4375 C 151.203125 15.65625 151.128906 15.820312 150.984375 15.9375 C 150.835938 16.0625 150.660156 16.125 150.453125 16.125 C 150.253906 16.125 150.082031 16.0625 149.9375 15.9375 C 149.800781 15.820312 149.734375 15.65625 149.734375 15.4375 L 149.734375 15.015625 C 149.734375 14.398438 149.523438 13.890625 149.109375 13.484375 C 148.703125 13.078125 148.195312 12.867188 147.59375 12.859375 L 145.484375 12.859375 L 145.484375 15.59375 C 145.484375 15.757812 145.414062 15.890625 145.28125 15.984375 C 145.144531 16.078125 144.988281 16.125 144.8125 16.125 C 144.644531 16.125 144.5 16.078125 144.375 15.984375 C 144.25 15.890625 144.1875 15.757812 144.1875 15.59375 L 144.1875 12.859375 L 136.578125 12.859375 C 136.421875 12.859375 136.285156 12.773438 136.171875 12.609375 C 136.054688 12.441406 136 12.238281 136 12 C 136 11.769531 136.050781 11.578125 136.15625 11.421875 C 136.257812 11.273438 136.398438 11.203125 136.578125 11.203125 Z M 139.71875 17.113281 L 141.765625 17.113281 C 142.785156 17.113281 143.675781 17.503906 144.4375 18.285156 C 145.207031 19.066406 145.59375 19.988281 145.59375 21.050781 C 145.59375 22.121094 145.210938 23.050781 144.453125 23.832031 C 143.691406 24.621094 142.796875 25.019531 141.765625 25.019531 L 139.71875 25.019531 C 138.707031 25.019531 137.804688 24.621094 137.015625 23.832031 C 136.234375 23.039062 135.84375 22.117188 135.84375 21.066406 C 135.84375 20.011719 136.234375 19.089844 137.015625 18.300781 C 137.796875 17.507812 138.695312 17.113281 139.71875 17.113281 Z M 139.71875 18.785156 C 139.09375 18.785156 138.539062 19.007812 138.0625 19.457031 C 137.582031 19.914062 137.34375 20.449219 137.34375 21.066406 C 137.34375 21.691406 137.582031 22.226562 138.0625 22.675781 C 138.550781 23.132812 139.101562 23.363281 139.71875 23.363281 L 141.765625 23.363281 C 142.359375 23.363281 142.894531 23.132812 143.375 22.675781 C 143.851562 22.226562 144.09375 21.683594 144.09375 21.050781 C 144.09375 20.425781 143.851562 19.886719 143.375 19.441406 C 142.894531 19.003906 142.359375 18.785156 141.765625 18.785156 Z M 136.59375 27.199219 L 150.625 27.199219 C 150.789062 27.199219 150.925781 27.269531 151.03125 27.417969 C 151.144531 27.574219 151.203125 27.769531 151.203125 28.011719 C 151.203125 28.261719 151.144531 28.464844 151.03125 28.621094 C 150.925781 28.777344 150.789062 28.855469 150.625 28.855469 L 136.59375 28.855469 C 136.445312 28.855469 136.3125 28.769531 136.1875 28.605469 C 136.0625 28.4375 136 28.238281 136 28.011719 C 136 27.792969 136.054688 27.597656 136.171875 27.433594 C 136.296875 27.277344 136.4375 27.199219 136.59375 27.199219 Z M 139.71875 31.03125 L 141.765625 31.03125 C 142.816406 31.03125 143.71875 31.382812 144.46875 32.09375 C 145.21875 32.800781 145.59375 33.644531 145.59375 34.625 C 145.59375 35.21875 145.445312 35.738281 145.15625 36.1875 C 144.863281 36.644531 144.503906 36.992188 144.078125 37.234375 L 150.625 37.234375 C 150.789062 37.234375 150.925781 37.3125 151.03125 37.46875 C 151.144531 37.632812 151.203125 37.835938 151.203125 38.078125 C 151.203125 38.316406 151.144531 38.515625 151.03125 38.671875 C 150.925781 38.828125 150.789062 38.90625 150.625 38.90625 L 136.59375 38.90625 C 136.4375 38.90625 136.296875 38.820312 136.171875 38.65625 C 136.054688 38.5 136 38.304688 136 38.078125 C 136 37.878906 136.054688 37.703125 136.171875 37.546875 C 136.296875 37.390625 136.4375 37.3125 136.59375 37.3125 L 137.40625 37.3125 C 136.976562 37.09375 136.609375 36.726562 136.296875 36.21875 C 135.996094 35.707031 135.84375 35.15625 135.84375 34.5625 C 135.84375 33.625 136.234375 32.800781 137.015625 32.09375 C 137.804688 31.382812 138.707031 31.03125 139.71875 31.03125 Z M 139.71875 32.703125 C 139.101562 32.703125 138.550781 32.925781 138.0625 33.375 C 137.582031 33.832031 137.34375 34.359375 137.34375 34.953125 C 137.34375 35.546875 137.566406 36.070312 138.015625 36.53125 C 138.460938 37 138.851562 37.234375 139.1875 37.234375 L 141.765625 37.234375 C 142.453125 37.234375 143.007812 37.003906 143.4375 36.546875 C 143.875 36.097656 144.09375 35.578125 144.09375 34.984375 C 144.09375 34.367188 143.851562 33.832031 143.375 33.375 C 142.894531 32.925781 142.359375 32.703125 141.765625 32.703125 Z M 136.59375 41.523438 L 150.015625 41.523438 C 150.203125 41.523438 150.347656 41.59375 150.453125 41.742188 C 150.566406 41.898438 150.625 42.078125 150.625 42.289062 L 150.625 49.398438 C 150.625 49.585938 150.550781 49.726562 150.40625 49.820312 C 150.257812 49.921875 150.082031 49.976562 149.875 49.976562 C 149.664062 49.976562 149.484375 49.921875 149.328125 49.820312 C 149.171875 49.714844 149.09375 49.574219 149.09375 49.398438 L 149.09375 43.195312 L 144.015625 43.195312 L 144.015625 46.320312 C 144.015625 46.496094 143.941406 46.636719 143.796875 46.742188 C 143.660156 46.84375 143.492188 46.898438 143.296875 46.898438 C 143.128906 46.898438 142.972656 46.84375 142.828125 46.742188 C 142.691406 46.648438 142.625 46.507812 142.625 46.320312 L 142.625 43.195312 L 137.515625 43.195312 L 137.515625 49.398438 C 137.515625 49.574219 137.4375 49.714844 137.28125 49.820312 C 137.132812 49.921875 136.953125 49.976562 136.734375 49.976562 C 136.535156 49.976562 136.363281 49.921875 136.21875 49.820312 C 136.070312 49.726562 136 49.585938 136 49.398438 L 136 42.289062 C 136 42.078125 136.050781 41.898438 136.15625 41.742188 C 136.257812 41.59375 136.40625 41.523438 136.59375 41.523438 Z M 144.796875 50.613281 C 144.984375 50.613281 145.148438 50.726562 145.296875 50.957031 C 145.441406 51.195312 145.515625 51.433594 145.515625 51.675781 C 145.515625 51.957031 145.410156 52.136719 145.203125 52.222656 L 138.40625 54.753906 L 145.125 57.253906 C 145.382812 57.367188 145.515625 57.550781 145.515625 57.800781 C 145.515625 58.007812 145.441406 58.238281 145.296875 58.488281 C 145.148438 58.746094 144.984375 58.878906 144.796875 58.878906 C 144.691406 58.878906 144.585938 58.851562 144.484375 58.800781 L 136.1875 55.519531 C 135.9375 55.414062 135.8125 55.160156 135.8125 54.753906 C 135.8125 54.347656 135.9375 54.085938 136.1875 53.972656 L 144.484375 50.691406 C 144.640625 50.636719 144.742188 50.613281 144.796875 50.613281 Z M 139.71875 59.933594 L 141.8125 59.933594 C 142.84375 59.933594 143.726562 60.324219 144.46875 61.105469 C 145.21875 61.886719 145.59375 62.824219 145.59375 63.917969 C 145.59375 64.957031 145.242188 65.859375 144.546875 66.621094 C 143.847656 67.378906 142.972656 67.761719 141.921875 67.761719 C 141.535156 67.761719 141.222656 67.714844 140.984375 67.621094 C 140.753906 67.527344 140.585938 67.378906 140.484375 67.183594 C 140.390625 66.996094 140.328125 66.816406 140.296875 66.652344 C 140.273438 66.484375 140.265625 66.261719 140.265625 65.980469 L 140.265625 61.605469 L 139.65625 61.605469 C 138.925781 61.605469 138.335938 61.863281 137.890625 62.386719 C 137.453125 62.917969 137.234375 63.597656 137.234375 64.433594 C 137.234375 64.878906 137.300781 65.265625 137.4375 65.589844 C 137.570312 65.910156 137.703125 66.171875 137.828125 66.371094 C 137.953125 66.578125 138.015625 66.738281 138.015625 66.855469 C 138.015625 67.042969 137.929688 67.203125 137.765625 67.339844 C 137.597656 67.472656 137.429688 67.542969 137.265625 67.542969 C 136.953125 67.542969 136.632812 67.234375 136.3125 66.621094 C 136 66.015625 135.84375 65.269531 135.84375 64.386719 C 135.84375 63.074219 136.195312 62 136.90625 61.167969 C 137.625 60.34375 138.5625 59.933594 139.71875 59.933594 Z M 141.375 61.605469 L 141.375 65.308594 C 141.375 65.652344 141.414062 65.878906 141.5 65.996094 C 141.59375 66.121094 141.765625 66.183594 142.015625 66.183594 C 142.617188 66.183594 143.144531 65.957031 143.59375 65.511719 C 144.050781 65.074219 144.28125 64.535156 144.28125 63.902344 C 144.28125 63.277344 144.066406 62.734375 143.640625 62.277344 C 143.222656 61.828125 142.707031 61.605469 142.09375 61.605469 Z M 136.59375 69.609375 L 144.90625 69.609375 C 145.070312 69.609375 145.207031 69.679688 145.3125 69.828125 C 145.425781 69.984375 145.484375 70.179688 145.484375 70.421875 C 145.484375 70.628906 145.425781 70.804688 145.3125 70.953125 C 145.207031 71.109375 145.070312 71.1875 144.90625 71.1875 L 143.953125 71.1875 C 144.410156 71.425781 144.796875 71.773438 145.109375 72.234375 C 145.429688 72.703125 145.59375 73.222656 145.59375 73.796875 L 145.59375 74.484375 C 145.59375 74.648438 145.515625 74.796875 145.359375 74.921875 C 145.210938 75.054688 145.039062 75.125 144.84375 75.125 C 144.644531 75.125 144.46875 75.054688 144.3125 74.921875 C 144.164062 74.796875 144.09375 74.648438 144.09375 74.484375 L 144.09375 73.796875 C 144.09375 73.117188 143.816406 72.523438 143.265625 72.015625 C 142.722656 71.515625 142.019531 71.265625 141.15625 71.265625 L 136.59375 71.265625 C 136.445312 71.265625 136.3125 71.179688 136.1875 71.015625 C 136.0625 70.847656 136 70.648438 136 70.421875 C 136 70.191406 136.054688 70 136.171875 69.84375 C 136.296875 69.6875 136.4375 69.609375 136.59375 69.609375 Z M 144.796875 75.535156 C 145.015625 75.535156 145.203125 75.652344 145.359375 75.894531 C 145.515625 76.132812 145.59375 76.371094 145.59375 76.613281 C 145.59375 76.894531 145.484375 77.074219 145.265625 77.160156 L 138.296875 79.800781 L 145.265625 82.175781 C 145.484375 82.269531 145.59375 82.445312 145.59375 82.707031 C 145.59375 82.925781 145.515625 83.160156 145.359375 83.410156 C 145.203125 83.660156 145.007812 83.785156 144.78125 83.785156 C 144.71875 83.785156 144.648438 83.761719 144.578125 83.722656 L 136.4375 80.675781 L 135.4375 80.300781 C 135.25 80.238281 134.933594 80.101562 134.484375 79.894531 C 134.027344 79.695312 133.699219 79.527344 133.5 79.394531 C 133.304688 79.269531 133.042969 79.085938 132.71875 78.847656 C 132.386719 78.605469 132.148438 78.371094 132 78.144531 C 131.855469 77.914062 131.726562 77.644531 131.609375 77.332031 C 131.484375 77.019531 131.421875 76.691406 131.421875 76.347656 C 131.421875 75.824219 131.667969 75.566406 132.15625 75.566406 C 132.636719 75.566406 132.875 75.722656 132.875 76.035156 C 132.875 76.636719 133.214844 77.222656 133.890625 77.785156 C 134.570312 78.355469 135.433594 78.742188 136.484375 78.941406 L 144.578125 75.613281 C 144.660156 75.558594 144.734375 75.535156 144.796875 75.535156 Z M 136.15625 89.335938 L 150.78125 89.335938 C 150.957031 89.335938 151.097656 89.414062 151.203125 89.570312 C 151.304688 89.726562 151.359375 89.902344 151.359375 90.101562 L 151.359375 93.382812 C 151.359375 93.546875 151.285156 93.683594 151.140625 93.789062 C 150.992188 93.902344 150.820312 93.960938 150.625 93.960938 C 150.40625 93.960938 150.222656 93.902344 150.078125 93.789062 C 149.929688 93.683594 149.859375 93.546875 149.859375 93.382812 L 149.859375 91.023438 L 137.078125 91.023438 L 137.078125 93.382812 C 137.078125 93.546875 137.003906 93.683594 136.859375 93.789062 C 136.710938 93.902344 136.53125 93.960938 136.3125 93.960938 C 136.113281 93.960938 135.945312 93.902344 135.796875 93.789062 C 135.652344 93.683594 135.578125 93.546875 135.578125 93.382812 L 135.578125 90.101562 C 135.578125 89.902344 135.636719 89.726562 135.75 89.570312 C 135.855469 89.414062 135.992188 89.335938 136.15625 89.335938 Z M 139.28125 94.835938 C 139.582031 94.835938 139.785156 94.890625 139.890625 95.007812 C 140.003906 95.121094 140.0625 95.324219 140.0625 95.617188 C 140.0625 95.9375 140.003906 96.164062 139.890625 96.289062 C 139.785156 96.414062 139.625 96.476562 139.40625 96.476562 C 138.894531 96.476562 138.429688 96.6875 138.015625 97.117188 C 137.609375 97.554688 137.40625 98.214844 137.40625 99.101562 C 137.40625 100.882812 138.320312 101.773438 140.15625 101.773438 L 140.546875 101.773438 C 142.171875 101.773438 142.984375 100.882812 142.984375 99.101562 C 142.984375 98.714844 143.210938 98.523438 143.671875 98.523438 C 144.140625 98.523438 144.375 98.714844 144.375 99.101562 C 144.375 99.871094 144.546875 100.449219 144.890625 100.835938 C 145.242188 101.21875 145.875 101.414062 146.78125 101.414062 C 148.34375 101.414062 149.125 100.667969 149.125 99.179688 C 149.125 98.324219 148.929688 97.71875 148.546875 97.367188 C 148.171875 97.011719 147.722656 96.835938 147.203125 96.835938 C 146.703125 96.835938 146.453125 96.570312 146.453125 96.039062 C 146.453125 95.683594 146.507812 95.449219 146.625 95.335938 C 146.75 95.21875 146.976562 95.164062 147.3125 95.164062 C 147.644531 95.164062 147.988281 95.226562 148.34375 95.351562 C 148.695312 95.476562 149.050781 95.679688 149.40625 95.960938 C 149.757812 96.242188 150.050781 96.664062 150.28125 97.226562 C 150.507812 97.796875 150.625 98.464844 150.625 99.226562 C 150.625 101.765625 149.441406 103.039062 147.078125 103.039062 C 146.234375 103.039062 145.519531 102.890625 144.9375 102.601562 C 144.351562 102.308594 143.945312 101.914062 143.71875 101.414062 C 143.175781 102.777344 142.117188 103.460938 140.546875 103.460938 L 140.15625 103.460938 C 138.6875 103.460938 137.601562 103.058594 136.90625 102.257812 C 136.21875 101.453125 135.875 100.402344 135.875 99.101562 C 135.875 97.726562 136.222656 96.667969 136.921875 95.929688 C 137.628906 95.199219 138.414062 94.835938 139.28125 94.835938 Z M 136.921875 104.980469 C 137.210938 104.980469 137.460938 105.074219 137.671875 105.261719 C 137.878906 105.457031 137.984375 105.703125 137.984375 105.996094 C 137.984375 106.277344 137.878906 106.519531 137.671875 106.730469 C 137.472656 106.9375 137.222656 107.042969 136.921875 107.042969 C 136.679688 107.042969 135.875 106.753906 134.5 106.183594 C 134.3125 106.097656 134.21875 105.953125 134.21875 105.746094 C 134.21875 105.597656 134.265625 105.464844 134.359375 105.339844 C 134.445312 105.222656 134.558594 105.167969 134.703125 105.167969 C 134.796875 105.167969 134.871094 105.175781 134.921875 105.199219 L 135.953125 105.621094 C 136.128906 105.191406 136.453125 104.980469 136.921875 104.980469 Z M 139.34375 108.28125 C 139.875 108.28125 140.140625 108.5625 140.140625 109.125 C 140.140625 109.6875 139.910156 109.96875 139.453125 109.96875 C 138.816406 109.96875 138.316406 110.210938 137.953125 110.703125 C 137.585938 111.191406 137.40625 111.816406 137.40625 112.578125 C 137.40625 113.421875 137.632812 114.070312 138.09375 114.53125 C 138.5625 114.988281 139.265625 115.21875 140.203125 115.21875 L 140.578125 115.21875 C 141.484375 115.21875 142.164062 114.988281 142.625 114.53125 C 143.082031 114.070312 143.3125 113.425781 143.3125 112.59375 L 143.3125 109.765625 C 143.3125 109.242188 143.535156 108.984375 143.984375 108.984375 C 144.117188 108.984375 144.265625 108.992188 144.421875 109.015625 L 150.015625 109.4375 C 150.421875 109.46875 150.625 109.613281 150.625 109.875 L 150.625 115.640625 C 150.625 115.816406 150.546875 115.953125 150.390625 116.046875 C 150.234375 116.140625 150.054688 116.1875 149.859375 116.1875 C 149.660156 116.1875 149.484375 116.140625 149.328125 116.046875 C 149.171875 115.953125 149.09375 115.816406 149.09375 115.640625 L 149.09375 110.90625 L 144.71875 110.59375 L 144.71875 112.59375 C 144.71875 113.90625 144.382812 114.953125 143.71875 115.734375 C 143.050781 116.515625 142.003906 116.90625 140.578125 116.90625 L 140.203125 116.90625 C 138.722656 116.90625 137.628906 116.507812 136.921875 115.71875 C 136.222656 114.9375 135.875 113.894531 135.875 112.59375 C 135.875 111.257812 136.210938 110.207031 136.890625 109.4375 C 137.566406 108.664062 138.382812 108.28125 139.34375 108.28125 Z M 136.3125 117.839844 C 136.53125 117.839844 136.710938 117.890625 136.859375 117.996094 C 137.003906 118.109375 137.078125 118.25 137.078125 118.417969 L 137.078125 120.777344 L 149.859375 120.777344 L 149.859375 118.417969 C 149.859375 118.25 149.929688 118.109375 150.078125 117.996094 C 150.222656 117.890625 150.40625 117.839844 150.625 117.839844 C 150.820312 117.839844 150.992188 117.890625 151.140625 117.996094 C 151.285156 118.109375 151.359375 118.25 151.359375 118.417969 L 151.359375 121.699219 C 151.359375 121.894531 151.304688 122.074219 151.203125 122.230469 C 151.097656 122.386719 150.957031 122.464844 150.78125 122.464844 L 136.15625 122.464844 C 135.992188 122.464844 135.855469 122.386719 135.75 122.230469 C 135.636719 122.074219 135.578125 121.894531 135.578125 121.699219 L 135.578125 118.417969 C 135.578125 118.25 135.652344 118.109375 135.796875 117.996094 C 135.945312 117.890625 136.113281 117.839844 136.3125 117.839844 Z M 139.09375 128.902344 L 147.578125 128.902344 C 148.628906 128.902344 149.519531 129.285156 150.25 130.058594 C 150.988281 130.828125 151.359375 131.734375 151.359375 132.777344 C 151.359375 133.328125 151.113281 133.605469 150.625 133.605469 C 150.394531 133.605469 150.207031 133.546875 150.0625 133.433594 C 149.925781 133.328125 149.859375 133.191406 149.859375 133.027344 C 149.859375 132.285156 149.628906 131.691406 149.171875 131.246094 C 148.710938 130.796875 148.179688 130.574219 147.578125 130.574219 L 139.09375 130.574219 C 138.363281 130.574219 137.847656 130.8125 137.546875 131.292969 C 137.242188 131.78125 137.09375 132.359375 137.09375 133.027344 C 137.09375 133.410156 136.84375 133.605469 136.34375 133.605469 C 135.84375 133.605469 135.59375 133.316406 135.59375 132.746094 C 135.59375 131.660156 135.898438 130.75 136.5 130.011719 C 137.113281 129.269531 137.976562 128.902344 139.09375 128.902344 Z M 137.359375 134.554688 C 137.535156 134.554688 137.707031 134.609375 137.875 134.726562 C 138.039062 134.839844 138.125 134.980469 138.125 135.148438 C 138.125 135.25 138.039062 135.402344 137.875 135.601562 C 137.71875 135.796875 137.5625 136.085938 137.40625 136.460938 C 137.257812 136.835938 137.1875 137.273438 137.1875 137.773438 C 137.1875 138.4375 137.304688 138.921875 137.546875 139.226562 C 137.785156 139.527344 138.082031 139.679688 138.4375 139.679688 C 138.875 139.679688 139.222656 139.511719 139.484375 139.179688 C 139.742188 138.84375 139.941406 138.4375 140.078125 137.960938 C 140.210938 137.480469 140.359375 137 140.515625 136.523438 C 140.679688 136.042969 140.945312 135.636719 141.3125 135.304688 C 141.6875 134.96875 142.179688 134.804688 142.796875 134.804688 C 143.554688 134.804688 144.210938 135.070312 144.765625 135.601562 C 145.316406 136.140625 145.59375 136.96875 145.59375 138.085938 C 145.59375 138.792969 145.484375 139.4375 145.265625 140.023438 C 145.046875 140.605469 144.796875 140.898438 144.515625 140.898438 C 144.359375 140.898438 144.179688 140.835938 143.984375 140.710938 C 143.785156 140.585938 143.6875 140.429688 143.6875 140.242188 C 143.6875 140.1875 143.78125 139.929688 143.96875 139.460938 C 144.164062 139 144.265625 138.546875 144.265625 138.101562 C 144.265625 137.484375 144.117188 137.027344 143.828125 136.726562 C 143.546875 136.421875 143.222656 136.273438 142.859375 136.273438 C 142.484375 136.273438 142.1875 136.4375 141.96875 136.773438 C 141.757812 137.105469 141.59375 137.515625 141.46875 138.007812 C 141.351562 138.496094 141.207031 138.980469 141.03125 139.460938 C 140.863281 139.9375 140.566406 140.34375 140.140625 140.679688 C 139.722656 141.011719 139.179688 141.179688 138.515625 141.179688 C 137.691406 141.179688 137.039062 140.882812 136.5625 140.289062 C 136.082031 139.703125 135.84375 138.886719 135.84375 137.835938 C 135.84375 136.929688 136.003906 136.152344 136.328125 135.507812 C 136.648438 134.871094 136.992188 134.554688 137.359375 134.554688 Z M 136.59375 143.160156 L 150.625 143.160156 C 150.789062 143.160156 150.925781 143.230469 151.03125 143.378906 C 151.144531 143.535156 151.203125 143.730469 151.203125 143.972656 C 151.203125 144.222656 151.144531 144.425781 151.03125 144.582031 C 150.925781 144.738281 150.789062 144.816406 150.625 144.816406 L 136.59375 144.816406 C 136.445312 144.816406 136.3125 144.730469 136.1875 144.566406 C 136.0625 144.398438 136 144.199219 136 143.972656 C 136 143.753906 136.054688 143.558594 136.171875 143.394531 C 136.296875 143.238281 136.4375 143.160156 136.59375 143.160156 Z M 139.71875 146.992188 L 141.765625 146.992188 C 142.785156 146.992188 143.675781 147.382812 144.4375 148.164062 C 145.207031 148.945312 145.59375 149.867188 145.59375 150.929688 C 145.59375 152 145.210938 152.929688 144.453125 153.710938 C 143.691406 154.5 142.796875 154.898438 141.765625 154.898438 L 139.71875 154.898438 C 138.707031 154.898438 137.804688 154.5 137.015625 153.710938 C 136.234375 152.917969 135.84375 151.996094 135.84375 150.945312 C 135.84375 149.890625 136.234375 148.96875 137.015625 148.179688 C 137.796875 147.386719 138.695312 146.992188 139.71875 146.992188 Z M 139.71875 148.664062 C 139.09375 148.664062 138.539062 148.886719 138.0625 149.335938 C 137.582031 149.792969 137.34375 150.328125 137.34375 150.945312 C 137.34375 151.570312 137.582031 152.105469 138.0625 152.554688 C 138.550781 153.011719 139.101562 153.242188 139.71875 153.242188 L 141.765625 153.242188 C 142.359375 153.242188 142.894531 153.011719 143.375 152.554688 C 143.851562 152.105469 144.09375 151.5625 144.09375 150.929688 C 144.09375 150.304688 143.851562 149.765625 143.375 149.320312 C 142.894531 148.882812 142.359375 148.664062 141.765625 148.664062 Z M 144.796875 156 C 144.992188 156 145.160156 156.109375 145.296875 156.328125 C 145.441406 156.546875 145.515625 156.773438 145.515625 157.015625 C 145.515625 157.296875 145.410156 157.476562 145.203125 157.5625 L 138.484375 159.984375 L 144.546875 161.859375 C 144.804688 161.953125 144.9375 162.160156 144.9375 162.484375 C 144.9375 162.816406 144.804688 163.03125 144.546875 163.125 L 138.421875 164.953125 L 145.203125 167.40625 C 145.410156 167.46875 145.515625 167.640625 145.515625 167.921875 C 145.515625 168.160156 145.441406 168.390625 145.296875 168.609375 C 145.160156 168.835938 144.992188 168.953125 144.796875 168.953125 C 144.691406 168.953125 144.585938 168.925781 144.484375 168.875 L 136.1875 165.765625 C 135.9375 165.671875 135.8125 165.445312 135.8125 165.09375 C 135.8125 164.738281 135.9375 164.515625 136.1875 164.421875 L 142.0625 162.484375 L 136.234375 160.578125 C 135.953125 160.484375 135.8125 160.242188 135.8125 159.859375 C 135.8125 159.515625 135.953125 159.285156 136.234375 159.171875 L 144.484375 156.078125 C 144.640625 156.023438 144.742188 156 144.796875 156 Z M 136.59375 173.859375 L 138.546875 173.859375 C 139.140625 173.859375 139.726562 174.085938 140.3125 174.546875 C 140.894531 175.003906 141.414062 175.5625 141.875 176.21875 L 143.3125 178.15625 C 143.78125 178.8125 144.304688 179.367188 144.890625 179.828125 C 145.472656 180.285156 146.0625 180.515625 146.65625 180.515625 C 147.300781 180.515625 147.863281 180.304688 148.34375 179.890625 C 148.820312 179.472656 149.0625 178.867188 149.0625 178.078125 C 149.0625 177.410156 148.875 176.863281 148.5 176.4375 C 148.125 176.019531 147.582031 175.8125 146.875 175.8125 C 146.707031 175.8125 146.554688 175.734375 146.421875 175.578125 C 146.285156 175.421875 146.21875 175.207031 146.21875 174.9375 C 146.21875 174.425781 146.546875 174.171875 147.203125 174.171875 C 148.203125 174.171875 149.019531 174.546875 149.65625 175.296875 C 150.300781 176.054688 150.625 176.984375 150.625 178.078125 C 150.625 179.253906 150.253906 180.234375 149.515625 181.015625 C 148.773438 181.804688 147.84375 182.203125 146.71875 182.203125 C 146.050781 182.203125 145.410156 182.035156 144.796875 181.703125 C 144.179688 181.378906 143.660156 180.972656 143.234375 180.484375 C 142.804688 180.003906 142.378906 179.476562 141.953125 178.90625 L 140.8125 177.296875 C 140.476562 176.816406 140.113281 176.410156 139.71875 176.078125 C 139.320312 175.753906 138.929688 175.59375 138.546875 175.59375 L 137.515625 175.59375 L 137.515625 181.734375 C 137.515625 181.898438 137.441406 182.035156 137.296875 182.140625 C 137.148438 182.253906 136.972656 182.3125 136.765625 182.3125 C 136.554688 182.3125 136.375 182.253906 136.21875 182.140625 C 136.070312 182.035156 136 181.898438 136 181.734375 L 136 174.625 C 136 174.445312 136.054688 174.273438 136.171875 174.109375 C 136.285156 173.941406 136.425781 173.859375 136.59375 173.859375 Z M 136.34375 183.257812 C 136.84375 183.257812 137.09375 183.449219 137.09375 183.835938 C 137.09375 184.5 137.242188 185.074219 137.546875 185.554688 C 137.847656 186.03125 138.363281 186.273438 139.09375 186.273438 L 147.578125 186.273438 C 148.179688 186.273438 148.710938 186.046875 149.171875 185.601562 C 149.628906 185.164062 149.859375 184.574219 149.859375 183.835938 C 149.859375 183.667969 149.925781 183.527344 150.0625 183.414062 C 150.207031 183.308594 150.394531 183.257812 150.625 183.257812 C 151.113281 183.257812 151.359375 183.53125 151.359375 184.085938 C 151.359375 185.117188 150.988281 186.015625 150.25 186.789062 C 149.519531 187.570312 148.628906 187.960938 147.578125 187.960938 L 139.09375 187.960938 C 137.976562 187.960938 137.113281 187.589844 136.5 186.851562 C 135.898438 186.109375 135.59375 185.195312 135.59375 184.101562 C 135.59375 183.539062 135.84375 183.257812 136.34375 183.257812 Z M 138.296875 193.804688 C 138.515625 193.804688 138.722656 193.875 138.921875 194.023438 C 139.117188 194.179688 139.21875 194.351562 139.21875 194.539062 C 139.21875 194.640625 139.132812 194.789062 138.96875 194.976562 C 138.8125 195.164062 138.632812 195.351562 138.4375 195.539062 C 138.25 195.734375 138.070312 196.042969 137.90625 196.460938 C 137.738281 196.875 137.644531 197.34375 137.625 197.867188 L 142.9375 197.867188 L 143.34375 196.789062 C 143.4375 196.527344 143.59375 196.199219 143.8125 195.804688 C 144.039062 195.417969 144.269531 195.125 144.5 194.929688 C 144.738281 194.742188 145.054688 194.5625 145.453125 194.398438 C 145.847656 194.242188 146.289062 194.164062 146.78125 194.164062 C 147.382812 194.164062 147.914062 194.265625 148.375 194.476562 C 148.832031 194.695312 149.191406 194.984375 149.453125 195.351562 C 149.722656 195.714844 149.925781 196.105469 150.0625 196.523438 C 150.207031 196.9375 150.300781 197.386719 150.34375 197.867188 L 150.9375 197.867188 C 151.039062 197.867188 151.132812 197.914062 151.21875 198.007812 C 151.3125 198.109375 151.359375 198.234375 151.359375 198.382812 C 151.359375 198.515625 151.3125 198.636719 151.21875 198.742188 C 151.132812 198.84375 151.039062 198.898438 150.9375 198.898438 L 150.375 198.898438 C 150.332031 199.699219 150.195312 200.421875 149.96875 201.070312 C 149.738281 201.726562 149.4375 202.054688 149.0625 202.054688 C 148.875 202.054688 148.671875 201.984375 148.453125 201.851562 C 148.242188 201.726562 148.140625 201.554688 148.140625 201.335938 C 148.140625 201.273438 148.253906 200.992188 148.484375 200.492188 C 148.722656 200 148.851562 199.46875 148.875 198.898438 L 144.3125 198.898438 C 144.132812 199.417969 143.953125 199.84375 143.765625 200.179688 C 143.585938 200.523438 143.34375 200.882812 143.03125 201.257812 C 142.71875 201.640625 142.316406 201.929688 141.828125 202.117188 C 141.335938 202.3125 140.769531 202.414062 140.125 202.414062 C 138.945312 202.414062 138.015625 202.09375 137.328125 201.460938 C 136.648438 200.835938 136.238281 199.980469 136.09375 198.898438 L 135.375 198.898438 C 135.273438 198.898438 135.179688 198.84375 135.09375 198.742188 C 135 198.636719 134.953125 198.515625 134.953125 198.382812 C 134.953125 198.234375 135 198.109375 135.09375 198.007812 C 135.179688 197.914062 135.273438 197.867188 135.375 197.867188 L 136.046875 197.867188 C 136.054688 196.71875 136.3125 195.757812 136.8125 194.976562 C 137.320312 194.195312 137.816406 193.804688 138.296875 193.804688 Z M 146.9375 195.757812 C 146.3125 195.757812 145.84375 195.933594 145.53125 196.289062 C 145.21875 196.652344 144.925781 197.203125 144.65625 197.945312 L 148.859375 197.945312 C 148.710938 196.484375 148.070312 195.757812 146.9375 195.757812 Z M 137.65625 198.820312 C 137.875 200.152344 138.640625 200.820312 139.953125 200.820312 C 140.648438 200.820312 141.191406 200.648438 141.578125 200.304688 C 141.960938 199.960938 142.289062 199.464844 142.5625 198.820312 Z M 139.71875 208.03125 L 141.765625 208.03125 C 142.816406 208.03125 143.71875 208.382812 144.46875 209.09375 C 145.21875 209.800781 145.59375 210.644531 145.59375 211.625 C 145.59375 212.21875 145.445312 212.738281 145.15625 213.1875 C 144.863281 213.644531 144.503906 213.992188 144.078125 214.234375 L 150.625 214.234375 C 150.789062 214.234375 150.925781 214.3125 151.03125 214.46875 C 151.144531 214.632812 151.203125 214.835938 151.203125 215.078125 C 151.203125 215.316406 151.144531 215.515625 151.03125 215.671875 C 150.925781 215.828125 150.789062 215.90625 150.625 215.90625 L 136.59375 215.90625 C 136.4375 215.90625 136.296875 215.820312 136.171875 215.65625 C 136.054688 215.5 136 215.304688 136 215.078125 C 136 214.878906 136.054688 214.703125 136.171875 214.546875 C 136.296875 214.390625 136.4375 214.3125 136.59375 214.3125 L 137.40625 214.3125 C 136.976562 214.09375 136.609375 213.726562 136.296875 213.21875 C 135.996094 212.707031 135.84375 212.15625 135.84375 211.5625 C 135.84375 210.625 136.234375 209.800781 137.015625 209.09375 C 137.804688 208.382812 138.707031 208.03125 139.71875 208.03125 Z M 139.71875 209.703125 C 139.101562 209.703125 138.550781 209.925781 138.0625 210.375 C 137.582031 210.832031 137.34375 211.359375 137.34375 211.953125 C 137.34375 212.546875 137.566406 213.070312 138.015625 213.53125 C 138.460938 214 138.851562 214.234375 139.1875 214.234375 L 141.765625 214.234375 C 142.453125 214.234375 143.007812 214.003906 143.4375 213.546875 C 143.875 213.097656 144.09375 212.578125 144.09375 211.984375 C 144.09375 211.367188 143.851562 210.832031 143.375 210.375 C 142.894531 209.925781 142.359375 209.703125 141.765625 209.703125 Z M 139.71875 217.914062 L 141.8125 217.914062 C 142.84375 217.914062 143.726562 218.304688 144.46875 219.085938 C 145.21875 219.867188 145.59375 220.804688 145.59375 221.898438 C 145.59375 222.9375 145.242188 223.839844 144.546875 224.601562 C 143.847656 225.359375 142.972656 225.742188 141.921875 225.742188 C 141.535156 225.742188 141.222656 225.695312 140.984375 225.601562 C 140.753906 225.507812 140.585938 225.359375 140.484375 225.164062 C 140.390625 224.976562 140.328125 224.796875 140.296875 224.632812 C 140.273438 224.464844 140.265625 224.242188 140.265625 223.960938 L 140.265625 219.585938 L 139.65625 219.585938 C 138.925781 219.585938 138.335938 219.84375 137.890625 220.367188 C 137.453125 220.898438 137.234375 221.578125 137.234375 222.414062 C 137.234375 222.859375 137.300781 223.246094 137.4375 223.570312 C 137.570312 223.890625 137.703125 224.152344 137.828125 224.351562 C 137.953125 224.558594 138.015625 224.71875 138.015625 224.835938 C 138.015625 225.023438 137.929688 225.183594 137.765625 225.320312 C 137.597656 225.453125 137.429688 225.523438 137.265625 225.523438 C 136.953125 225.523438 136.632812 225.214844 136.3125 224.601562 C 136 223.996094 135.84375 223.25 135.84375 222.367188 C 135.84375 221.054688 136.195312 219.980469 136.90625 219.148438 C 137.625 218.324219 138.5625 217.914062 139.71875 217.914062 Z M 141.375 219.585938 L 141.375 223.289062 C 141.375 223.632812 141.414062 223.859375 141.5 223.976562 C 141.59375 224.101562 141.765625 224.164062 142.015625 224.164062 C 142.617188 224.164062 143.144531 223.9375 143.59375 223.492188 C 144.050781 223.054688 144.28125 222.515625 144.28125 221.882812 C 144.28125 221.257812 144.066406 220.714844 143.640625 220.257812 C 143.222656 219.808594 142.707031 219.585938 142.09375 219.585938 Z M 136.59375 227.585938 L 144.90625 227.585938 C 145.070312 227.585938 145.207031 227.65625 145.3125 227.804688 C 145.425781 227.960938 145.484375 228.15625 145.484375 228.398438 C 145.484375 228.59375 145.425781 228.773438 145.3125 228.929688 C 145.195312 229.085938 145.0625 229.164062 144.90625 229.164062 L 144.078125 229.164062 C 144.503906 229.371094 144.863281 229.710938 145.15625 230.179688 C 145.445312 230.65625 145.59375 231.210938 145.59375 231.835938 C 145.59375 232.78125 145.21875 233.605469 144.46875 234.304688 C 143.71875 235 142.816406 235.351562 141.765625 235.351562 L 136.59375 235.351562 C 136.40625 235.351562 136.257812 235.265625 136.15625 235.101562 C 136.050781 234.933594 136 234.742188 136 234.523438 C 136 234.304688 136.050781 234.109375 136.15625 233.945312 C 136.257812 233.777344 136.40625 233.695312 136.59375 233.695312 L 141.765625 233.695312 C 142.359375 233.695312 142.894531 233.464844 143.375 233.007812 C 143.851562 232.558594 144.09375 232.027344 144.09375 231.414062 C 144.09375 230.839844 143.875 230.335938 143.4375 229.898438 C 143.007812 229.460938 142.453125 229.242188 141.765625 229.242188 L 136.59375 229.242188 C 136.445312 229.242188 136.3125 229.152344 136.1875 228.976562 C 136.0625 228.796875 136 228.605469 136 228.398438 C 136 228.167969 136.054688 227.976562 136.171875 227.820312 C 136.296875 227.664062 136.4375 227.585938 136.59375 227.585938 Z M 137.359375 237.054688 C 137.535156 237.054688 137.707031 237.109375 137.875 237.226562 C 138.039062 237.339844 138.125 237.480469 138.125 237.648438 C 138.125 237.75 138.039062 237.902344 137.875 238.101562 C 137.71875 238.296875 137.5625 238.585938 137.40625 238.960938 C 137.257812 239.335938 137.1875 239.773438 137.1875 240.273438 C 137.1875 240.9375 137.304688 241.421875 137.546875 241.726562 C 137.785156 242.027344 138.082031 242.179688 138.4375 242.179688 C 138.875 242.179688 139.222656 242.011719 139.484375 241.679688 C 139.742188 241.34375 139.941406 240.9375 140.078125 240.460938 C 140.210938 239.980469 140.359375 239.5 140.515625 239.023438 C 140.679688 238.542969 140.945312 238.136719 141.3125 237.804688 C 141.6875 237.46875 142.179688 237.304688 142.796875 237.304688 C 143.554688 237.304688 144.210938 237.570312 144.765625 238.101562 C 145.316406 238.640625 145.59375 239.46875 145.59375 240.585938 C 145.59375 241.292969 145.484375 241.9375 145.265625 242.523438 C 145.046875 243.105469 144.796875 243.398438 144.515625 243.398438 C 144.359375 243.398438 144.179688 243.335938 143.984375 243.210938 C 143.785156 243.085938 143.6875 242.929688 143.6875 242.742188 C 143.6875 242.6875 143.78125 242.429688 143.96875 241.960938 C 144.164062 241.5 144.265625 241.046875 144.265625 240.601562 C 144.265625 239.984375 144.117188 239.527344 143.828125 239.226562 C 143.546875 238.921875 143.222656 238.773438 142.859375 238.773438 C 142.484375 238.773438 142.1875 238.9375 141.96875 239.273438 C 141.757812 239.605469 141.59375 240.015625 141.46875 240.507812 C 141.351562 240.996094 141.207031 241.480469 141.03125 241.960938 C 140.863281 242.4375 140.566406 242.84375 140.140625 243.179688 C 139.722656 243.511719 139.179688 243.679688 138.515625 243.679688 C 137.691406 243.679688 137.039062 243.382812 136.5625 242.789062 C 136.082031 242.203125 135.84375 241.386719 135.84375 240.335938 C 135.84375 239.429688 136.003906 238.652344 136.328125 238.007812 C 136.648438 237.371094 136.992188 237.054688 137.359375 237.054688 Z M 148.359375 245.566406 C 148.554688 245.355469 148.78125 245.253906 149.03125 245.253906 C 149.289062 245.253906 149.515625 245.351562 149.703125 245.550781 C 149.890625 245.757812 149.984375 246.007812 149.984375 246.300781 C 149.984375 246.582031 149.890625 246.820312 149.703125 247.019531 C 149.515625 247.214844 149.289062 247.316406 149.03125 247.316406 C 148.78125 247.316406 148.554688 247.214844 148.359375 247.019531 C 148.171875 246.820312 148.078125 246.582031 148.078125 246.300781 C 148.078125 246.019531 148.171875 245.773438 148.359375 245.566406 Z M 136.59375 245.488281 L 144.90625 245.488281 C 145.070312 245.488281 145.207031 245.566406 145.3125 245.722656 C 145.425781 245.878906 145.484375 246.070312 145.484375 246.300781 C 145.484375 246.539062 145.425781 246.738281 145.3125 246.894531 C 145.207031 247.058594 145.070312 247.144531 144.90625 247.144531 L 136.59375 247.144531 C 136.445312 247.144531 136.3125 247.058594 136.1875 246.894531 C 136.0625 246.726562 136 246.527344 136 246.300781 C 136 246.070312 136.054688 245.878906 136.171875 245.722656 C 136.296875 245.566406 136.4375 245.488281 136.59375 245.488281 Z M 139.015625 249.460938 L 149.3125 249.460938 C 149.476562 249.460938 149.617188 249.542969 149.734375 249.710938 C 149.847656 249.886719 149.90625 250.074219 149.90625 250.273438 C 149.90625 250.492188 149.847656 250.683594 149.734375 250.851562 C 149.617188 251.027344 149.476562 251.117188 149.3125 251.117188 L 145.484375 251.117188 L 145.484375 253.632812 C 145.484375 253.789062 145.414062 253.90625 145.28125 253.992188 C 145.144531 254.085938 144.988281 254.132812 144.8125 254.132812 C 144.644531 254.132812 144.5 254.085938 144.375 253.992188 C 144.25 253.90625 144.1875 253.789062 144.1875 253.632812 L 144.1875 251.117188 L 139.015625 251.117188 C 138.441406 251.117188 138.035156 251.242188 137.796875 251.492188 C 137.566406 251.742188 137.453125 252.167969 137.453125 252.773438 L 137.453125 253.398438 C 137.453125 253.625 137.382812 253.804688 137.25 253.929688 C 137.113281 254.054688 136.941406 254.117188 136.734375 254.117188 C 136.535156 254.117188 136.363281 254.046875 136.21875 253.914062 C 136.070312 253.789062 136 253.617188 136 253.398438 L 136 252.773438 C 136 250.5625 137.003906 249.460938 139.015625 249.460938 Z M 144.796875 254.753906 C 145.015625 254.753906 145.203125 254.871094 145.359375 255.113281 C 145.515625 255.351562 145.59375 255.589844 145.59375 255.832031 C 145.59375 256.113281 145.484375 256.292969 145.265625 256.378906 L 138.296875 259.019531 L 145.265625 261.394531 C 145.484375 261.488281 145.59375 261.664062 145.59375 261.925781 C 145.59375 262.144531 145.515625 262.378906 145.359375 262.628906 C 145.203125 262.878906 145.007812 263.003906 144.78125 263.003906 C 144.71875 263.003906 144.648438 262.980469 144.578125 262.941406 L 136.4375 259.894531 L 135.4375 259.519531 C 135.25 259.457031 134.933594 259.320312 134.484375 259.113281 C 134.027344 258.914062 133.699219 258.746094 133.5 258.613281 C 133.304688 258.488281 133.042969 258.304688 132.71875 258.066406 C 132.386719 257.824219 132.148438 257.589844 132 257.363281 C 131.855469 257.132812 131.726562 256.863281 131.609375 256.550781 C 131.484375 256.238281 131.421875 255.910156 131.421875 255.566406 C 131.421875 255.042969 131.667969 254.785156 132.15625 254.785156 C 132.636719 254.785156 132.875 254.941406 132.875 255.253906 C 132.875 255.855469 133.214844 256.441406 133.890625 257.003906 C 134.570312 257.574219 135.433594 257.960938 136.484375 258.160156 L 144.578125 254.832031 C 144.660156 254.777344 144.734375 254.753906 144.796875 254.753906 Z M 147.5 267.449219 C 147.78125 267.449219 148.015625 267.566406 148.203125 267.808594 L 150.375 269.636719 C 150.550781 269.8125 150.640625 269.988281 150.640625 270.167969 C 150.640625 270.355469 150.582031 270.519531 150.46875 270.667969 C 150.363281 270.824219 150.222656 270.902344 150.046875 270.902344 L 136.59375 270.902344 C 136.40625 270.902344 136.257812 270.816406 136.15625 270.652344 C 136.050781 270.484375 136 270.285156 136 270.058594 C 136 269.828125 136.050781 269.628906 136.15625 269.464844 C 136.257812 269.296875 136.40625 269.214844 136.59375 269.214844 L 148.125 269.214844 L 147.015625 268.480469 C 146.867188 268.34375 146.796875 268.203125 146.796875 268.058594 C 146.796875 267.890625 146.863281 267.746094 147 267.621094 C 147.144531 267.503906 147.3125 267.449219 147.5 267.449219 Z M 140.234375 273.3125 L 146.265625 273.3125 C 147.765625 273.3125 148.863281 273.707031 149.5625 274.5 C 150.269531 275.300781 150.625 276.367188 150.625 277.703125 C 150.625 279.035156 150.273438 280.070312 149.578125 280.8125 C 148.890625 281.5625 148.078125 281.9375 147.140625 281.9375 C 146.648438 281.9375 146.40625 281.675781 146.40625 281.15625 C 146.40625 280.570312 146.625 280.28125 147.0625 280.28125 C 147.675781 280.28125 148.164062 280.03125 148.53125 279.53125 C 148.90625 279.03125 149.09375 278.40625 149.09375 277.65625 C 149.09375 275.882812 148.148438 275 146.265625 275 L 143.453125 275 C 144.285156 275.632812 144.703125 276.609375 144.703125 277.921875 C 144.703125 280.597656 143.351562 281.9375 140.65625 281.9375 L 140.234375 281.9375 C 138.734375 281.9375 137.628906 281.546875 136.921875 280.765625 C 136.222656 279.984375 135.875 278.9375 135.875 277.625 C 135.875 276.320312 136.222656 275.273438 136.921875 274.484375 C 137.628906 273.703125 138.734375 273.3125 140.234375 273.3125 Z M 140.15625 275 C 138.257812 275 137.3125 275.878906 137.3125 277.640625 C 137.3125 279.390625 138.257812 280.265625 140.15625 280.265625 L 140.578125 280.265625 C 142.390625 280.265625 143.296875 279.390625 143.296875 277.640625 C 143.296875 275.878906 142.453125 275 140.765625 275 Z M 136 286.738281 "/>
<path style=" stroke:none;fill-rule:nonzero;fill:rgb(0%,0%,0%);fill-opacity:1;" d="M 118.296875 10.703125 C 118.515625 10.703125 118.722656 10.773438 118.921875 10.921875 C 119.117188 11.078125 119.21875 11.25 119.21875 11.4375 C 119.21875 11.539062 119.132812 11.6875 118.96875 11.875 C 118.8125 12.0625 118.632812 12.25 118.4375 12.4375 C 118.25 12.632812 118.070312 12.941406 117.90625 13.359375 C 117.738281 13.773438 117.644531 14.242188 117.625 14.765625 L 122.9375 14.765625 L 123.34375 13.6875 C 123.4375 13.425781 123.59375 13.097656 123.8125 12.703125 C 124.039062 12.316406 124.269531 12.023438 124.5 11.828125 C 124.738281 11.640625 125.054688 11.460938 125.453125 11.296875 C 125.847656 11.140625 126.289062 11.0625 126.78125 11.0625 C 127.382812 11.0625 127.914062 11.164062 128.375 11.375 C 128.832031 11.59375 129.191406 11.882812 129.453125 12.25 C 129.722656 12.613281 129.925781 13.003906 130.0625 13.421875 C 130.207031 13.835938 130.300781 14.285156 130.34375 14.765625 L 130.9375 14.765625 C 131.039062 14.765625 131.132812 14.8125 131.21875 14.90625 C 131.3125 15.007812 131.359375 15.132812 131.359375 15.28125 C 131.359375 15.414062 131.3125 15.535156 131.21875 15.640625 C 131.132812 15.742188 131.039062 15.796875 130.9375 15.796875 L 130.375 15.796875 C 130.332031 16.597656 130.195312 17.320312 129.96875 17.96875 C 129.738281 18.625 129.4375 18.953125 129.0625 18.953125 C 128.875 18.953125 128.671875 18.882812 128.453125 18.75 C 128.242188 18.625 128.140625 18.453125 128.140625 18.234375 C 128.140625 18.171875 128.253906 17.890625 128.484375 17.390625 C 128.722656 16.898438 128.851562 16.367188 128.875 15.796875 L 124.3125 15.796875 C 124.132812 16.316406 123.953125 16.742188 123.765625 17.078125 C 123.585938 17.421875 123.34375 17.78125 123.03125 18.15625 C 122.71875 18.539062 122.316406 18.828125 121.828125 19.015625 C 121.335938 19.210938 120.769531 19.3125 120.125 19.3125 C 118.945312 19.3125 118.015625 18.992188 117.328125 18.359375 C 116.648438 17.734375 116.238281 16.878906 116.09375 15.796875 L 115.375 15.796875 C 115.273438 15.796875 115.179688 15.742188 115.09375 15.640625 C 115 15.535156 114.953125 15.414062 114.953125 15.28125 C 114.953125 15.132812 115 15.007812 115.09375 14.90625 C 115.179688 14.8125 115.273438 14.765625 115.375 14.765625 L 116.046875 14.765625 C 116.054688 13.617188 116.3125 12.65625 116.8125 11.875 C 117.320312 11.09375 117.816406 10.703125 118.296875 10.703125 Z M 126.9375 12.65625 C 126.3125 12.65625 125.84375 12.832031 125.53125 13.1875 C 125.21875 13.550781 124.925781 14.101562 124.65625 14.84375 L 128.859375 14.84375 C 128.710938 13.382812 128.070312 12.65625 126.9375 12.65625 Z M 117.65625 15.71875 C 117.875 17.050781 118.640625 17.71875 119.953125 17.71875 C 120.648438 17.71875 121.191406 17.546875 121.578125 17.203125 C 121.960938 16.859375 122.289062 16.363281 122.5625 15.71875 Z M 130.859375 24.824219 C 131.003906 24.824219 131.125 24.894531 131.21875 25.042969 C 131.3125 25.1875 131.359375 25.355469 131.359375 25.542969 C 131.359375 25.730469 131.3125 25.894531 131.21875 26.042969 C 131.125 26.199219 131.003906 26.277344 130.859375 26.277344 L 127.953125 26.074219 C 127.804688 26.074219 127.679688 26.027344 127.578125 25.933594 C 127.484375 25.847656 127.4375 25.71875 127.4375 25.542969 C 127.4375 25.199219 127.609375 25.027344 127.953125 25.027344 Z M 130.859375 27.542969 C 131.003906 27.542969 131.125 27.613281 131.21875 27.761719 C 131.3125 27.90625 131.359375 28.074219 131.359375 28.261719 C 131.359375 28.449219 131.3125 28.613281 131.21875 28.761719 C 131.125 28.917969 131.003906 28.996094 130.859375 28.996094 L 127.953125 28.808594 C 127.804688 28.808594 127.679688 28.761719 127.578125 28.667969 C 127.484375 28.574219 127.4375 28.4375 127.4375 28.261719 C 127.4375 27.917969 127.609375 27.746094 127.953125 27.746094 Z M 114.125 30.136719 C 115.09375 30.136719 115.820312 30.675781 116.296875 31.761719 C 116.554688 31.082031 117.003906 30.746094 117.640625 30.746094 C 118.253906 30.746094 118.75 31.078125 119.125 31.746094 C 119.738281 30.984375 120.578125 30.605469 121.640625 30.605469 L 122.296875 30.605469 C 123.273438 30.605469 124.066406 30.925781 124.671875 31.574219 C 125.285156 32.230469 125.59375 33.089844 125.59375 34.152344 C 125.59375 35.058594 125.332031 35.839844 124.8125 36.496094 C 125.6875 36.902344 126.125 37.355469 126.125 37.855469 C 126.125 38.074219 126.054688 38.246094 125.921875 38.371094 C 125.796875 38.503906 125.65625 38.574219 125.5 38.574219 C 125.300781 38.574219 125.148438 38.464844 125.046875 38.246094 C 124.921875 37.785156 124.640625 37.421875 124.203125 37.152344 C 123.703125 37.566406 123.066406 37.777344 122.296875 37.777344 L 121.640625 37.777344 C 120.679688 37.777344 119.882812 37.4375 119.25 36.761719 C 118.625 36.082031 118.3125 35.214844 118.3125 34.152344 C 118.3125 33.609375 118.414062 33.121094 118.625 32.683594 C 118.414062 32.347656 118.1875 32.183594 117.9375 32.183594 C 117.6875 32.183594 117.488281 32.332031 117.34375 32.636719 C 117.207031 32.949219 117.125 33.328125 117.09375 33.777344 C 117.0625 34.234375 117 34.730469 116.90625 35.261719 C 116.8125 35.792969 116.6875 36.28125 116.53125 36.730469 C 116.382812 37.1875 116.128906 37.566406 115.765625 37.871094 C 115.390625 38.183594 114.917969 38.339844 114.34375 38.339844 C 113.398438 38.339844 112.671875 37.957031 112.171875 37.199219 C 111.671875 36.449219 111.421875 35.472656 111.421875 34.277344 C 111.421875 33.078125 111.667969 32.089844 112.15625 31.308594 C 112.636719 30.527344 113.292969 30.136719 114.125 30.136719 Z M 114.296875 31.714844 C 113.777344 31.714844 113.359375 31.941406 113.046875 32.402344 C 112.734375 32.871094 112.578125 33.488281 112.578125 34.261719 C 112.578125 35.011719 112.734375 35.605469 113.046875 36.042969 C 113.359375 36.488281 113.777344 36.714844 114.296875 36.714844 C 114.515625 36.714844 114.703125 36.675781 114.859375 36.605469 C 115.015625 36.53125 115.152344 36.410156 115.265625 36.246094 C 115.371094 36.089844 115.460938 35.933594 115.53125 35.777344 C 115.605469 35.621094 115.667969 35.410156 115.71875 35.152344 C 115.761719 34.902344 115.792969 34.691406 115.8125 34.527344 C 115.835938 34.359375 115.859375 34.140625 115.890625 33.871094 C 115.914062 33.597656 115.929688 33.40625 115.9375 33.292969 C 115.59375 32.238281 115.046875 31.714844 114.296875 31.714844 Z M 121.65625 32.214844 C 121.019531 32.214844 120.492188 32.390625 120.078125 32.746094 C 119.660156 33.097656 119.453125 33.582031 119.453125 34.199219 C 119.453125 34.78125 119.65625 35.25 120.0625 35.605469 C 120.476562 35.96875 121.003906 36.152344 121.640625 36.152344 L 122.296875 36.152344 C 122.910156 36.152344 123.421875 35.96875 123.828125 35.605469 C 124.242188 35.25 124.453125 34.777344 124.453125 34.183594 C 124.453125 33.566406 124.25 33.082031 123.84375 32.730469 C 123.4375 32.386719 122.921875 32.214844 122.296875 32.214844 Z M 116.59375 40.027344 L 124.90625 40.027344 C 125.070312 40.027344 125.207031 40.097656 125.3125 40.246094 C 125.425781 40.402344 125.484375 40.597656 125.484375 40.839844 C 125.484375 41.046875 125.425781 41.222656 125.3125 41.371094 C 125.207031 41.527344 125.070312 41.605469 124.90625 41.605469 L 123.953125 41.605469 C 124.410156 41.84375 124.796875 42.191406 125.109375 42.652344 C 125.429688 43.121094 125.59375 43.640625 125.59375 44.214844 L 125.59375 44.902344 C 125.59375 45.066406 125.515625 45.214844 125.359375 45.339844 C 125.210938 45.472656 125.039062 45.542969 124.84375 45.542969 C 124.644531 45.542969 124.46875 45.472656 124.3125 45.339844 C 124.164062 45.214844 124.09375 45.066406 124.09375 44.902344 L 124.09375 44.214844 C 124.09375 43.535156 123.816406 42.941406 123.265625 42.433594 C 122.722656 41.933594 122.019531 41.683594 121.15625 41.683594 L 116.59375 41.683594 C 116.445312 41.683594 116.3125 41.597656 116.1875 41.433594 C 116.0625 41.265625 116 41.066406 116 40.839844 C 116 40.609375 116.054688 40.417969 116.171875 40.261719 C 116.296875 40.105469 116.4375 40.027344 116.59375 40.027344 Z M 119.71875 46.53125 L 121.8125 46.53125 C 122.84375 46.53125 123.726562 46.921875 124.46875 47.703125 C 125.21875 48.484375 125.59375 49.421875 125.59375 50.515625 C 125.59375 51.554688 125.242188 52.457031 124.546875 53.21875 C 123.847656 53.976562 122.972656 54.359375 121.921875 54.359375 C 121.535156 54.359375 121.222656 54.3125 120.984375 54.21875 C 120.753906 54.125 120.585938 53.976562 120.484375 53.78125 C 120.390625 53.59375 120.328125 53.414062 120.296875 53.25 C 120.273438 53.082031 120.265625 52.859375 120.265625 52.578125 L 120.265625 48.203125 L 119.65625 48.203125 C 118.925781 48.203125 118.335938 48.460938 117.890625 48.984375 C 117.453125 49.515625 117.234375 50.195312 117.234375 51.03125 C 117.234375 51.476562 117.300781 51.863281 117.4375 52.1875 C 117.570312 52.507812 117.703125 52.769531 117.828125 52.96875 C 117.953125 53.175781 118.015625 53.335938 118.015625 53.453125 C 118.015625 53.640625 117.929688 53.800781 117.765625 53.9375 C 117.597656 54.070312 117.429688 54.140625 117.265625 54.140625 C 116.953125 54.140625 116.632812 53.832031 116.3125 53.21875 C 116 52.613281 115.84375 51.867188 115.84375 50.984375 C 115.84375 49.671875 116.195312 48.597656 116.90625 47.765625 C 117.625 46.941406 118.5625 46.53125 119.71875 46.53125 Z M 121.375 48.203125 L 121.375 51.90625 C 121.375 52.25 121.414062 52.476562 121.5 52.59375 C 121.59375 52.71875 121.765625 52.78125 122.015625 52.78125 C 122.617188 52.78125 123.144531 52.554688 123.59375 52.109375 C 124.050781 51.671875 124.28125 51.132812 124.28125 50.5 C 124.28125 49.875 124.066406 49.332031 123.640625 48.875 C 123.222656 48.425781 122.707031 48.203125 122.09375 48.203125 Z M 124.796875 55.253906 C 125.015625 55.253906 125.203125 55.371094 125.359375 55.613281 C 125.515625 55.851562 125.59375 56.089844 125.59375 56.332031 C 125.59375 56.613281 125.484375 56.792969 125.265625 56.878906 L 118.296875 59.519531 L 125.265625 61.894531 C 125.484375 61.988281 125.59375 62.164062 125.59375 62.425781 C 125.59375 62.644531 125.515625 62.878906 125.359375 63.128906 C 125.203125 63.378906 125.007812 63.503906 124.78125 63.503906 C 124.71875 63.503906 124.648438 63.480469 124.578125 63.441406 L 116.4375 60.394531 L 115.4375 60.019531 C 115.25 59.957031 114.933594 59.820312 114.484375 59.613281 C 114.027344 59.414062 113.699219 59.246094 113.5 59.113281 C 113.304688 58.988281 113.042969 58.804688 112.71875 58.566406 C 112.386719 58.324219 112.148438 58.089844 112 57.863281 C 111.855469 57.632812 111.726562 57.363281 111.609375 57.050781 C 111.484375 56.738281 111.421875 56.410156 111.421875 56.066406 C 111.421875 55.542969 111.667969 55.285156 112.15625 55.285156 C 112.636719 55.285156 112.875 55.441406 112.875 55.753906 C 112.875 56.355469 113.214844 56.941406 113.890625 57.503906 C 114.570312 58.074219 115.433594 58.460938 116.484375 58.660156 L 124.578125 55.332031 C 124.660156 55.277344 124.734375 55.253906 124.796875 55.253906 Z M 116.59375 68.964844 L 130.625 68.964844 C 130.789062 68.964844 130.925781 69.035156 131.03125 69.183594 C 131.144531 69.339844 131.203125 69.535156 131.203125 69.777344 C 131.203125 70.015625 131.144531 70.214844 131.03125 70.371094 C 130.925781 70.535156 130.789062 70.621094 130.625 70.621094 L 124.078125 70.621094 C 124.503906 70.859375 124.863281 71.203125 125.15625 71.652344 C 125.445312 72.109375 125.59375 72.640625 125.59375 73.246094 C 125.59375 74.214844 125.21875 75.050781 124.46875 75.761719 C 123.71875 76.46875 122.816406 76.824219 121.765625 76.824219 L 119.71875 76.824219 C 118.707031 76.824219 117.804688 76.46875 117.015625 75.761719 C 116.234375 75.050781 115.84375 74.234375 115.84375 73.308594 C 115.84375 72.703125 115.996094 72.144531 116.296875 71.636719 C 116.609375 71.136719 116.976562 70.769531 117.40625 70.542969 L 116.59375 70.542969 C 116.4375 70.542969 116.296875 70.464844 116.171875 70.308594 C 116.054688 70.152344 116 69.972656 116 69.777344 C 116 69.558594 116.054688 69.363281 116.171875 69.199219 C 116.296875 69.042969 116.4375 68.964844 116.59375 68.964844 Z M 119.1875 70.621094 C 118.851562 70.621094 118.460938 70.855469 118.015625 71.324219 C 117.566406 71.792969 117.34375 72.316406 117.34375 72.902344 C 117.34375 73.503906 117.582031 74.03125 118.0625 74.480469 C 118.550781 74.9375 119.101562 75.167969 119.71875 75.167969 L 121.765625 75.167969 C 122.359375 75.167969 122.894531 74.9375 123.375 74.480469 C 123.851562 74.03125 124.09375 73.5 124.09375 72.886719 C 124.09375 72.28125 123.875 71.75 123.4375 71.292969 C 123.007812 70.84375 122.453125 70.621094 121.765625 70.621094 Z M 116.59375 79 L 130.625 79 C 130.789062 79 130.925781 79.070312 131.03125 79.21875 C 131.144531 79.375 131.203125 79.570312 131.203125 79.8125 C 131.203125 80.0625 131.144531 80.265625 131.03125 80.421875 C 130.925781 80.578125 130.789062 80.65625 130.625 80.65625 L 116.59375 80.65625 C 116.445312 80.65625 116.3125 80.570312 116.1875 80.40625 C 116.0625 80.238281 116 80.039062 116 79.8125 C 116 79.59375 116.054688 79.398438 116.171875 79.234375 C 116.296875 79.078125 116.4375 79 116.59375 79 Z M 118.5 82.582031 C 119.539062 82.582031 120.265625 82.976562 120.671875 83.769531 C 121.078125 84.570312 121.28125 85.730469 121.28125 87.253906 L 121.28125 88.222656 L 121.703125 88.222656 C 122.367188 88.222656 122.945312 88.035156 123.4375 87.660156 C 123.9375 87.292969 124.1875 86.746094 124.1875 86.019531 C 124.1875 85.457031 124.085938 84.960938 123.890625 84.535156 C 123.691406 84.105469 123.59375 83.871094 123.59375 83.832031 C 123.59375 83.652344 123.679688 83.507812 123.859375 83.394531 C 124.046875 83.277344 124.238281 83.222656 124.4375 83.222656 C 124.75 83.222656 125.019531 83.523438 125.25 84.128906 C 125.476562 84.730469 125.59375 85.378906 125.59375 86.066406 C 125.59375 87.367188 125.222656 88.324219 124.484375 88.941406 C 123.742188 89.566406 122.820312 89.878906 121.71875 89.878906 L 116.59375 89.878906 C 116.425781 89.878906 116.285156 89.800781 116.171875 89.644531 C 116.054688 89.496094 116 89.304688 116 89.066406 C 116 88.847656 116.054688 88.664062 116.171875 88.519531 C 116.285156 88.371094 116.425781 88.300781 116.59375 88.300781 L 117.40625 88.300781 C 116.363281 87.394531 115.84375 86.386719 115.84375 85.285156 C 115.84375 84.480469 116.066406 83.832031 116.515625 83.332031 C 116.972656 82.832031 117.632812 82.582031 118.5 82.582031 Z M 118.6875 84.253906 C 118.1875 84.253906 117.8125 84.394531 117.5625 84.675781 C 117.3125 84.957031 117.1875 85.332031 117.1875 85.800781 C 117.1875 86.363281 117.40625 86.902344 117.84375 87.425781 C 118.289062 87.957031 118.75 88.222656 119.21875 88.222656 L 120.265625 88.222656 L 120.265625 87.519531 C 120.265625 87.132812 120.253906 86.800781 120.234375 86.519531 C 120.210938 86.238281 120.171875 85.945312 120.109375 85.644531 C 120.046875 85.351562 119.957031 85.105469 119.84375 84.910156 C 119.738281 84.710938 119.585938 84.550781 119.390625 84.425781 C 119.191406 84.308594 118.957031 84.253906 118.6875 84.253906 Z M 119.71875 91.824219 L 121.71875 91.824219 C 122.863281 91.824219 123.796875 92.15625 124.515625 92.824219 C 125.234375 93.5 125.59375 94.488281 125.59375 95.792969 C 125.59375 96.625 125.445312 97.324219 125.15625 97.886719 C 124.863281 98.457031 124.550781 98.746094 124.21875 98.746094 C 124.03125 98.746094 123.847656 98.671875 123.671875 98.527344 C 123.492188 98.390625 123.40625 98.230469 123.40625 98.042969 C 123.40625 97.988281 123.519531 97.761719 123.75 97.355469 C 123.976562 96.949219 124.09375 96.46875 124.09375 95.917969 C 124.09375 95.113281 123.882812 94.503906 123.46875 94.089844 C 123.0625 93.683594 122.476562 93.480469 121.71875 93.480469 L 119.71875 93.480469 C 118.132812 93.480469 117.34375 94.296875 117.34375 95.933594 C 117.34375 96.496094 117.460938 96.984375 117.703125 97.402344 C 117.941406 97.816406 118.0625 98.058594 118.0625 98.121094 C 118.0625 98.328125 117.972656 98.5 117.796875 98.636719 C 117.628906 98.78125 117.453125 98.855469 117.265625 98.855469 C 116.929688 98.855469 116.609375 98.5625 116.296875 97.980469 C 115.996094 97.394531 115.84375 96.675781 115.84375 95.824219 C 115.84375 94.5 116.195312 93.5 116.90625 92.824219 C 117.625 92.15625 118.5625 91.824219 119.71875 91.824219 Z M 116.59375 100.523438 L 130.625 100.523438 C 130.789062 100.523438 130.925781 100.59375 131.03125 100.742188 C 131.144531 100.898438 131.203125 101.09375 131.203125 101.335938 C 131.203125 101.574219 131.144531 101.773438 131.03125 101.929688 C 130.925781 102.09375 130.789062 102.179688 130.625 102.179688 L 121.265625 102.179688 L 125.375 106.742188 C 125.46875 106.855469 125.515625 106.976562 125.515625 107.101562 C 125.515625 107.296875 125.4375 107.484375 125.28125 107.664062 C 125.125 107.851562 124.941406 107.945312 124.734375 107.945312 C 124.578125 107.945312 124.445312 107.882812 124.34375 107.757812 L 121.875 104.976562 L 117.0625 108.304688 C 116.957031 108.367188 116.859375 108.398438 116.765625 108.398438 C 116.554688 108.398438 116.363281 108.296875 116.1875 108.101562 C 116.007812 107.902344 115.921875 107.695312 115.921875 107.476562 C 115.921875 107.289062 116.007812 107.136719 116.1875 107.023438 L 120.84375 103.835938 L 119.359375 102.179688 L 116.59375 102.179688 C 116.445312 102.179688 116.3125 102.09375 116.1875 101.929688 C 116.0625 101.761719 116 101.5625 116 101.335938 C 116 101.117188 116.054688 100.921875 116.171875 100.757812 C 116.296875 100.601562 116.4375 100.523438 116.59375 100.523438 Z M 130.859375 109.363281 C 131.003906 109.363281 131.125 109.433594 131.21875 109.582031 C 131.3125 109.726562 131.359375 109.894531 131.359375 110.082031 C 131.359375 110.269531 131.3125 110.433594 131.21875 110.582031 C 131.125 110.738281 131.003906 110.816406 130.859375 110.816406 L 127.953125 110.613281 C 127.804688 110.613281 127.679688 110.566406 127.578125 110.472656 C 127.484375 110.386719 127.4375 110.257812 127.4375 110.082031 C 127.4375 109.738281 127.609375 109.566406 127.953125 109.566406 Z M 130.859375 112.082031 C 131.003906 112.082031 131.125 112.152344 131.21875 112.300781 C 131.3125 112.445312 131.359375 112.613281 131.359375 112.800781 C 131.359375 112.988281 131.3125 113.152344 131.21875 113.300781 C 131.125 113.457031 131.003906 113.535156 130.859375 113.535156 L 127.953125 113.347656 C 127.804688 113.347656 127.679688 113.300781 127.578125 113.207031 C 127.484375 113.113281 127.4375 112.976562 127.4375 112.800781 C 127.4375 112.457031 127.609375 112.285156 127.953125 112.285156 Z M 116 114.238281 "/>
</g>
</svg>
