<?xml version="1.0" encoding="UTF-8"?>
<svg xmlns="http://www.w3.org/2000/svg" xmlns:xlink="http://www.w3.org/1999/xlink" width="136pt" height="566pt" viewBox="0 0 136 566" version="1.1">
<g id="surface1">
<path style=" stroke:none;fill-rule:nonzero;fill:rgb(0%,0%,0%);fill-opacity:1;" d="M 0 0 L 116 0 L 116 566 L 0 566 Z M 0 0 "/>
<path style=" stroke:none;fill-rule:nonzero;fill:rgb(0%,0%,0%);fill-opacity:1;" d="M 0 0 L 116 0 L 116 18.867188 L 0 18.867188 Z M 0 0 "/>
<path style=" stroke:none;fill-rule:nonzero;fill:rgb(100%,64.705882%,0%);fill-opacity:1;" d="M 0 0 L 58 0 L 58 18.867188 L 0 18.867188 Z M 0 0 "/>
<path style=" stroke:none;fill-rule:nonzero;fill:rgb(0%,50.196078%,0%);fill-opacity:1;" d="M 58 0 L 116 0 L 116 18.867188 L 58 18.867188 Z M 58 0 "/>
<path style=" stroke:none;fill-rule:nonzero;fill:rgb(100%,64.705882%,0%);fill-opacity:1;" d="M 0 18.867188 L 58 18.867188 L 58 37.734375 L 0 37.734375 Z M 0 18.867188 "/>
<path style=" stroke:none;fill-rule:nonzero;fill:rgb(0%,50.196078%,0%);fill-opacity:1;" d="M 58 18.867188 L 116 18.867188 L 116 37.734375 L 58 37.734375 Z M 58 18.867188 "/>
<path style=" stroke:none;fill-rule:nonzero;fill:rgb(100%,64.705882%,0%);fill-opacity:1;" d="M 0 37.734375 L 58 37.734375 L 58 56.601562 L 0 56.601562 Z M 0 37.734375 "/>
<path style=" stroke:none;fill-rule:nonzero;fill:rgb(0%,50.196078%,0%);fill-opacity:1;" d="M 58 37.734375 L 116 37.734375 L 116 56.601562 L 58 56.601562 Z M 58 37.734375 "/>
<path style=" stroke:none;fill-rule:nonzero;fill:rgb(100%,64.705882%,0%);fill-opacity:1;" d="M 0 56.601562 L 58 56.601562 L 58 75.46875 L 0 75.46875 Z M 0 56.601562 "/>
<path style=" stroke:none;fill-rule:nonzero;fill:rgb(0%,50.196078%,0%);fill-opacity:1;" d="M 58 56.601562 L 116 56.601562 L 116 75.46875 L 58 75.46875 Z M 58 56.601562 "/>
<path style=" stroke:none;fill-rule:nonzero;fill:rgb(100%,64.705882%,0%);fill-opacity:1;" d="M 0 75.464844 L 58 75.464844 L 58 94.332031 L 0 94.332031 Z M 0 75.464844 "/>
<path style=" stroke:none;fill-rule:nonzero;fill:rgb(0%,50.196078%,0%);fill-opacity:1;" d="M 58 75.464844 L 116 75.464844 L 116 94.332031 L 58 94.332031 Z M 58 75.464844 "/>
<path style=" stroke:none;fill-rule:nonzero;fill:rgb(100%,64.705882%,0%);fill-opacity:1;" d="M 0 94.332031 L 58 94.332031 L 58 113.199219 L 0 113.199219 Z M 0 94.332031 "/>
<path style=" stroke:none;fill-rule:nonzero;fill:rgb(0%,50.196078%,0%);fill-opacity:1;" d="M 58 94.332031 L 116 94.332031 L 116 113.199219 L 58 113.199219 Z M 58 94.332031 "/>
<path style=" stroke:none;fill-rule:nonzero;fill:rgb(100%,64.705882%,0%);fill-opacity:1;" d="M 0 113.199219 L 58 113.199219 L 58 132.066406 L 0 132.066406 Z M 0 113.199219 "/>
<path style=" stroke:none;fill-rule:nonzero;fill:rgb(0%,50.196078%,0%);fill-opacity:1;" d="M 58 113.199219 L 116 113.199219 L 116 132.066406 L 58 132.066406 Z M 58 113.199219 "/>
<path style=" stroke:none;fill-rule:nonzero;fill:rgb(100%,64.705882%,0%);fill-opacity:1;" d="M 0 132.066406 L 58 132.066406 L 58 150.933594 L 0 150.933594 Z M 0 132.066406 "/>
<path style=" stroke:none;fill-rule:nonzero;fill:rgb(0%,50.196078%,0%);fill-opacity:1;" d="M 58 132.066406 L 116 132.066406 L 116 150.933594 L 58 150.933594 Z M 58 132.066406 "/>
<path style=" stroke:none;fill-rule:nonzero;fill:rgb(100%,64.705882%,0%);fill-opacity:1;" d="M 0 150.933594 L 58 150.933594 L 58 169.800781 L 0 169.800781 Z M 0 150.933594 "/>
<path style=" stroke:none;fill-rule:nonzero;fill:rgb(0%,50.196078%,0%);fill-opacity:1;" d="M 58 150.933594 L 116 150.933594 L 116 169.800781 L 58 169.800781 Z M 58 150.933594 "/>
<path style=" stroke:none;fill-rule:nonzero;fill:rgb(100%,64.705882%,0%);fill-opacity:1;" d="M 0 169.800781 L 58 169.800781 L 58 188.667969 L 0 188.667969 Z M 0 169.800781 "/>
<path style=" stroke:none;fill-rule:nonzero;fill:rgb(0%,50.196078%,0%);fill-opacity:1;" d="M 58 169.800781 L 116 169.800781 L 116 188.667969 L 58 188.667969 Z M 58 169.800781 "/>
<path style=" stroke:none;fill-rule:nonzero;fill:rgb(100%,64.705882%,0%);fill-opacity:1;" d="M 0 188.667969 L 58 188.667969 L 58 207.535156 L 0 207.535156 Z M 0 188.667969 "/>
<path style=" stroke:none;fill-rule:nonzero;fill:rgb(0%,50.196078%,0%);fill-opacity:1;" d="M 58 188.667969 L 116 188.667969 L 116 207.535156 L 58 207.535156 Z M 58 188.667969 "/>
<path style=" stroke:none;fill-rule:nonzero;fill:rgb(100%,64.705882%,0%);fill-opacity:1;" d="M 0 207.535156 L 58 207.535156 L 58 226.402344 L 0 226.402344 Z M 0 207.535156 "/>
<path style=" stroke:none;fill-rule:nonzero;fill:rgb(0%,50.196078%,0%);fill-opacity:1;" d="M 58 207.535156 L 116 207.535156 L 116 226.402344 L 58 226.402344 Z M 58 207.535156 "/>
<path style=" stroke:none;fill-rule:nonzero;fill:rgb(100%,64.705882%,0%);fill-opacity:1;" d="M 0 226.398438 L 58 226.398438 L 58 245.265625 L 0 245.265625 Z M 0 226.398438 "/>
<path style=" stroke:none;fill-rule:nonzero;fill:rgb(0%,50.196078%,0%);fill-opacity:1;" d="M 58 226.398438 L 116 226.398438 L 116 245.265625 L 58 245.265625 Z M 58 226.398438 "/>
<path style=" stroke:none;fill-rule:nonzero;fill:rgb(100%,64.705882%,0%);fill-opacity:1;" d="M 0 245.265625 L 58 245.265625 L 58 264.132812 L 0 264.132812 Z M 0 245.265625 "/>
<path style=" stroke:none;fill-rule:nonzero;fill:rgb(0%,50.196078%,0%);fill-opacity:1;" d="M 58 245.265625 L 116 245.265625 L 116 264.132812 L 58 264.132812 Z M 58 245.265625 "/>
<path style=" stroke:none;fill-rule:nonzero;fill:rgb(100%,64.705882%,0%);fill-opacity:1;" d="M 0 264.132812 L 58 264.132812 L 58 283 L 0 283 Z M 0 264.132812 "/>
<path style=" stroke:none;fill-rule:nonzero;fill:rgb(0%,50.196078%,0%);fill-opacity:1;" d="M 58 264.132812 L 116 264.132812 L 116 283 L 58 283 Z M 58 264.132812 "/>
<path style=" stroke:none;fill-rule:nonzero;fill:rgb(100%,64.705882%,0%);fill-opacity:1;" d="M 0 283 L 58 283 L 58 301.867188 L 0 301.867188 Z M 0 283 "/>
<path style=" stroke:none;fill-rule:nonzero;fill:rgb(0%,50.196078%,0%);fill-opacity:1;" d="M 58 283 L 116 283 L 116 301.867188 L 58 301.867188 Z M 58 283 "/>
<path style=" stroke:none;fill-rule:nonzero;fill:rgb(100%,64.705882%,0%);fill-opacity:1;" d="M 0 301.867188 L 58 301.867188 L 58 320.734375 L 0 320.734375 Z M 0 301.867188 "/>
<path style=" stroke:none;fill-rule:nonzero;fill:rgb(0%,50.196078%,0%);fill-opacity:1;" d="M 58 301.867188 L 116 301.867188 L 116 320.734375 L 58 320.734375 Z M 58 301.867188 "/>
<path style=" stroke:none;fill-rule:nonzero;fill:rgb(100%,64.705882%,0%);fill-opacity:1;" d="M 0 320.734375 L 58 320.734375 L 58 339.601562 L 0 339.601562 Z M 0 320.734375 "/>
<path style=" stroke:none;fill-rule:nonzero;fill:rgb(0%,50.196078%,0%);fill-opacity:1;" d="M 58 320.734375 L 116 320.734375 L 116 339.601562 L 58 339.601562 Z M 58 320.734375 "/>
<path style=" stroke:none;fill-rule:nonzero;fill:rgb(100%,64.705882%,0%);fill-opacity:1;" d="M 0 339.601562 L 58 339.601562 L 58 358.46875 L 0 358.46875 Z M 0 339.601562 "/>
<path style=" stroke:none;fill-rule:nonzero;fill:rgb(0%,50.196078%,0%);fill-opacity:1;" d="M 58 339.601562 L 116 339.601562 L 116 358.46875 L 58 358.46875 Z M 58 339.601562 "/>
<path style=" stroke:none;fill-rule:nonzero;fill:rgb(100%,64.705882%,0%);fill-opacity:1;" d="M 0 358.464844 L 58 358.464844 L 58 377.332031 L 0 377.332031 Z M 0 358.464844 "/>
<path style=" stroke:none;fill-rule:nonzero;fill:rgb(0%,50.196078%,0%);fill-opacity:1;" d="M 58 358.464844 L 116 358.464844 L 116 377.332031 L 58 377.332031 Z M 58 358.464844 "/>
<path style=" stroke:none;fill-rule:nonzero;fill:rgb(100%,64.705882%,0%);fill-opacity:1;" d="M 0 377.332031 L 58 377.332031 L 58 396.199219 L 0 396.199219 Z M 0 377.332031 "/>
<path style=" stroke:none;fill-rule:nonzero;fill:rgb(0%,50.196078%,0%);fill-opacity:1;" d="M 58 377.332031 L 116 377.332031 L 116 396.199219 L 58 396.199219 Z M 58 377.332031 "/>
<path style=" stroke:none;fill-rule:nonzero;fill:rgb(100%,64.705882%,0%);fill-opacity:1;" d="M 0 396.199219 L 58 396.199219 L 58 415.066406 L 0 415.066406 Z M 0 396.199219 "/>
<path style=" stroke:none;fill-rule:nonzero;fill:rgb(0%,50.196078%,0%);fill-opacity:1;" d="M 58 396.199219 L 116 396.199219 L 116 415.066406 L 58 415.066406 Z M 58 396.199219 "/>
<path style=" stroke:none;fill-rule:nonzero;fill:rgb(100%,64.705882%,0%);fill-opacity:1;" d="M 0 415.066406 L 58 415.066406 L 58 433.933594 L 0 433.933594 Z M 0 415.066406 "/>
<path style=" stroke:none;fill-rule:nonzero;fill:rgb(0%,50.196078%,0%);fill-opacity:1;" d="M 58 415.066406 L 116 415.066406 L 116 433.933594 L 58 433.933594 Z M 58 415.066406 "/>
<path style=" stroke:none;fill-rule:nonzero;fill:rgb(100%,64.705882%,0%);fill-opacity:1;" d="M 0 433.933594 L 58 433.933594 L 58 452.800781 L 0 452.800781 Z M 0 433.933594 "/>
<path style=" stroke:none;fill-rule:nonzero;fill:rgb(0%,50.196078%,0%);fill-opacity:1;" d="M 58 433.933594 L 116 433.933594 L 116 452.800781 L 58 452.800781 Z M 58 433.933594 "/>
<path style=" stroke:none;fill-rule:nonzero;fill:rgb(100%,64.705882%,0%);fill-opacity:1;" d="M 0 452.800781 L 58 452.800781 L 58 471.667969 L 0 471.667969 Z M 0 452.800781 "/>
<path style=" stroke:none;fill-rule:nonzero;fill:rgb(0%,50.196078%,0%);fill-opacity:1;" d="M 58 452.800781 L 116 452.800781 L 116 471.667969 L 58 471.667969 Z M 58 452.800781 "/>
<path style=" stroke:none;fill-rule:nonzero;fill:rgb(100%,64.705882%,0%);fill-opacity:1;" d="M 0 471.667969 L 58 471.667969 L 58 490.535156 L 0 490.535156 Z M 0 471.667969 "/>
<path style=" stroke:none;fill-rule:nonzero;fill:rgb(0%,50.196078%,0%);fill-opacity:1;" d="M 58 471.667969 L 116 471.667969 L 116 490.535156 L 58 490.535156 Z M 58 471.667969 "/>
<path style=" stroke:none;fill-rule:nonzero;fill:rgb(100%,64.705882%,0%);fill-opacity:1;" d="M 0 490.535156 L 58 490.535156 L 58 509.402344 L 0 509.402344 Z M 0 490.535156 "/>
<path style=" stroke:none;fill-rule:nonzero;fill:rgb(0%,50.196078%,0%);fill-opacity:1;" d="M 58 490.535156 L 116 490.535156 L 116 509.402344 L 58 509.402344 Z M 58 490.535156 "/>
<path style=" stroke:none;fill-rule:nonzero;fill:rgb(100%,64.705882%,0%);fill-opacity:1;" d="M 0 509.398438 L 58 509.398438 L 58 528.265625 L 0 528.265625 Z M 0 509.398438 "/>
<path style=" stroke:none;fill-rule:nonzero;fill:rgb(0%,50.196078%,0%);fill-opacity:1;" d="M 58 509.398438 L 116 509.398438 L 116 528.265625 L 58 528.265625 Z M 58 509.398438 "/>
<path style=" stroke:none;fill-rule:nonzero;fill:rgb(100%,64.705882%,0%);fill-opacity:1;" d="M 0 528.265625 L 58 528.265625 L 58 547.132812 L 0 547.132812 Z M 0 528.265625 "/>
<path style=" stroke:none;fill-rule:nonzero;fill:rgb(0%,50.196078%,0%);fill-opacity:1;" d="M 58 528.265625 L 116 528.265625 L 116 547.132812 L 58 547.132812 Z M 58 528.265625 "/>
<path style=" stroke:none;fill-rule:nonzero;fill:rgb(100%,64.705882%,0%);fill-opacity:1;" d="M 0 547.132812 L 58 547.132812 L 58 566 L 0 566 Z M 0 547.132812 "/>
<path style=" stroke:none;fill-rule:nonzero;fill:rgb(0%,50.196078%,0%);fill-opacity:1;" d="M 58 547.132812 L 116 547.132812 L 116 566 L 58 566 Z M 58 547.132812 "/>
<path style=" stroke:none;fill-rule:nonzero;fill:rgb(0%,0%,0%);fill-opacity:1;" d="M 118.609375 5.71875 L 126.34375 5.71875 C 126.445312 5.71875 126.53125 5.765625 126.59375 5.859375 C 126.65625 5.953125 126.6875 6.066406 126.6875 6.203125 C 126.6875 6.335938 126.65625 6.445312 126.59375 6.53125 C 126.53125 6.625 126.445312 6.671875 126.34375 6.671875 L 125.84375 6.671875 C 126.101562 6.816406 126.320312 7.023438 126.5 7.296875 C 126.675781 7.578125 126.765625 7.90625 126.765625 8.28125 C 126.765625 8.875 126.535156 9.378906 126.078125 9.796875 C 125.628906 10.222656 125.085938 10.4375 124.453125 10.4375 L 123.234375 10.4375 C 122.617188 10.4375 122.078125 10.222656 121.609375 9.796875 C 121.140625 9.367188 120.90625 8.878906 120.90625 8.328125 C 120.90625 7.972656 120.996094 7.648438 121.171875 7.359375 C 121.347656 7.066406 121.570312 6.851562 121.84375 6.71875 L 118.609375 6.71875 C 118.527344 6.71875 118.449219 6.664062 118.375 6.5625 C 118.292969 6.46875 118.25 6.351562 118.25 6.21875 C 118.25 6.082031 118.289062 5.960938 118.359375 5.859375 C 118.433594 5.765625 118.515625 5.71875 118.609375 5.71875 Z M 122.90625 6.71875 C 122.707031 6.71875 122.472656 6.851562 122.203125 7.125 C 121.929688 7.40625 121.796875 7.722656 121.796875 8.078125 C 121.796875 8.429688 121.941406 8.742188 122.234375 9.015625 C 122.535156 9.296875 122.867188 9.4375 123.234375 9.4375 L 124.453125 9.4375 C 124.816406 9.4375 125.140625 9.296875 125.421875 9.015625 C 125.710938 8.742188 125.859375 8.421875 125.859375 8.046875 C 125.859375 7.691406 125.726562 7.378906 125.46875 7.109375 C 125.207031 6.847656 124.867188 6.71875 124.453125 6.71875 Z M 129.921875 13.75 C 130.003906 13.75 130.070312 13.789062 130.125 13.875 C 130.1875 13.96875 130.21875 14.066406 130.21875 14.171875 C 130.21875 14.285156 130.1875 14.390625 130.125 14.484375 C 130.070312 14.578125 130.003906 14.625 129.921875 14.625 L 128.171875 14.5 C 128.085938 14.5 128.015625 14.472656 127.953125 14.421875 C 127.890625 14.367188 127.859375 14.289062 127.859375 14.1875 C 127.859375 13.976562 127.960938 13.875 128.171875 13.875 Z M 129.921875 15.375 C 130.003906 15.375 130.070312 15.414062 130.125 15.5 C 130.1875 15.59375 130.21875 15.695312 130.21875 15.8125 C 130.21875 15.925781 130.1875 16.023438 130.125 16.109375 C 130.070312 16.203125 130.003906 16.25 129.921875 16.25 L 128.171875 16.140625 C 128.085938 16.140625 128.015625 16.109375 127.953125 16.046875 C 127.890625 15.992188 127.859375 15.914062 127.859375 15.8125 C 127.859375 15.601562 127.960938 15.5 128.171875 15.5 Z M 123.234375 17.160156 L 124.453125 17.160156 C 125.066406 17.160156 125.601562 17.394531 126.0625 17.863281 C 126.53125 18.332031 126.765625 18.882812 126.765625 19.519531 C 126.765625 20.164062 126.535156 20.722656 126.078125 21.191406 C 125.617188 21.667969 125.078125 21.910156 124.453125 21.910156 L 123.234375 21.910156 C 122.617188 21.910156 122.078125 21.667969 121.609375 21.191406 C 121.140625 20.710938 120.90625 20.152344 120.90625 19.519531 C 120.90625 18.894531 121.140625 18.339844 121.609375 17.863281 C 122.078125 17.394531 122.617188 17.160156 123.234375 17.160156 Z M 123.234375 18.160156 C 122.859375 18.160156 122.523438 18.292969 122.234375 18.566406 C 121.941406 18.835938 121.796875 19.160156 121.796875 19.535156 C 121.796875 19.910156 121.941406 20.230469 122.234375 20.503906 C 122.535156 20.773438 122.867188 20.910156 123.234375 20.910156 L 124.453125 20.910156 C 124.816406 20.910156 125.140625 20.773438 125.421875 20.503906 C 125.710938 20.230469 125.859375 19.910156 125.859375 19.535156 C 125.859375 19.160156 125.710938 18.835938 125.421875 18.566406 C 125.140625 18.292969 124.816406 18.160156 124.453125 18.160156 Z M 121.359375 23.101562 L 126.34375 23.101562 C 126.445312 23.101562 126.53125 23.148438 126.59375 23.242188 C 126.65625 23.335938 126.6875 23.453125 126.6875 23.601562 C 126.6875 23.726562 126.65625 23.828125 126.59375 23.914062 C 126.53125 24.007812 126.445312 24.054688 126.34375 24.054688 L 125.78125 24.054688 C 126.050781 24.199219 126.28125 24.414062 126.46875 24.695312 C 126.664062 24.976562 126.765625 25.289062 126.765625 25.632812 L 126.765625 26.039062 C 126.765625 26.140625 126.71875 26.230469 126.625 26.304688 C 126.53125 26.375 126.421875 26.414062 126.296875 26.414062 C 126.179688 26.414062 126.078125 26.375 125.984375 26.304688 C 125.898438 26.230469 125.859375 26.140625 125.859375 26.039062 L 125.859375 25.632812 C 125.859375 25.214844 125.691406 24.855469 125.359375 24.554688 C 125.035156 24.25 124.613281 24.101562 124.09375 24.101562 L 121.359375 24.101562 C 121.273438 24.101562 121.191406 24.046875 121.109375 23.945312 C 121.035156 23.851562 121 23.734375 121 23.601562 C 121 23.464844 121.035156 23.34375 121.109375 23.242188 C 121.179688 23.148438 121.265625 23.101562 121.359375 23.101562 Z M 122.5 26.871094 C 123.125 26.871094 123.554688 27.109375 123.796875 27.589844 C 124.046875 28.066406 124.171875 28.761719 124.171875 29.667969 L 124.171875 30.246094 L 124.421875 30.246094 C 124.816406 30.246094 125.160156 30.136719 125.453125 29.917969 C 125.753906 29.699219 125.90625 29.371094 125.90625 28.933594 C 125.90625 28.589844 125.847656 28.285156 125.734375 28.027344 C 125.617188 27.777344 125.5625 27.640625 125.5625 27.621094 C 125.5625 27.503906 125.613281 27.410156 125.71875 27.339844 C 125.832031 27.277344 125.945312 27.246094 126.0625 27.246094 C 126.25 27.246094 126.410156 27.425781 126.546875 27.792969 C 126.691406 28.15625 126.765625 28.542969 126.765625 28.949219 C 126.765625 29.730469 126.539062 30.308594 126.09375 30.683594 C 125.644531 31.058594 125.09375 31.246094 124.4375 31.246094 L 121.359375 31.246094 C 121.253906 31.246094 121.164062 31.199219 121.09375 31.105469 C 121.03125 31.011719 121 30.890625 121 30.746094 C 121 30.621094 121.03125 30.511719 121.09375 30.417969 C 121.164062 30.332031 121.253906 30.292969 121.359375 30.292969 L 121.84375 30.292969 C 121.21875 29.75 120.90625 29.144531 120.90625 28.480469 C 120.90625 28 121.039062 27.609375 121.3125 27.308594 C 121.582031 27.015625 121.976562 26.871094 122.5 26.871094 Z M 122.609375 27.871094 C 122.304688 27.871094 122.078125 27.953125 121.921875 28.121094 C 121.773438 28.285156 121.703125 28.511719 121.703125 28.792969 C 121.703125 29.125 121.835938 29.449219 122.109375 29.761719 C 122.378906 30.082031 122.65625 30.246094 122.9375 30.246094 L 123.5625 30.246094 L 123.5625 29.824219 C 123.5625 29.59375 123.550781 29.394531 123.53125 29.230469 C 123.519531 29.0625 123.492188 28.886719 123.453125 28.699219 C 123.421875 28.519531 123.367188 28.375 123.296875 28.261719 C 123.234375 28.144531 123.144531 28.050781 123.03125 27.980469 C 122.914062 27.90625 122.773438 27.871094 122.609375 27.871094 Z M 121.359375 32.605469 L 126.34375 32.605469 C 126.445312 32.605469 126.53125 32.652344 126.59375 32.746094 C 126.65625 32.839844 126.6875 32.957031 126.6875 33.105469 C 126.6875 33.21875 126.648438 33.324219 126.578125 33.417969 C 126.515625 33.511719 126.4375 33.558594 126.34375 33.558594 L 125.84375 33.558594 C 126.101562 33.683594 126.320312 33.886719 126.5 34.167969 C 126.675781 34.457031 126.765625 34.792969 126.765625 35.167969 C 126.765625 35.730469 126.535156 36.21875 126.078125 36.636719 C 125.628906 37.0625 125.085938 37.277344 124.453125 37.277344 L 121.359375 37.277344 C 121.242188 37.277344 121.15625 37.222656 121.09375 37.121094 C 121.03125 37.027344 121 36.910156 121 36.777344 C 121 36.652344 121.03125 36.535156 121.09375 36.433594 C 121.15625 36.328125 121.242188 36.277344 121.359375 36.277344 L 124.453125 36.277344 C 124.816406 36.277344 125.140625 36.140625 125.421875 35.871094 C 125.710938 35.597656 125.859375 35.28125 125.859375 34.917969 C 125.859375 34.574219 125.726562 34.265625 125.46875 33.996094 C 125.207031 33.734375 124.867188 33.605469 124.453125 33.605469 L 121.359375 33.605469 C 121.273438 33.605469 121.191406 33.550781 121.109375 33.449219 C 121.035156 33.34375 121 33.230469 121 33.105469 C 121 32.96875 121.035156 32.847656 121.109375 32.746094 C 121.179688 32.652344 121.265625 32.605469 121.359375 32.605469 Z M 119.875 38.207031 C 120.460938 38.207031 120.898438 38.527344 121.1875 39.175781 C 121.332031 38.769531 121.597656 38.566406 121.984375 38.566406 C 122.347656 38.566406 122.644531 38.761719 122.875 39.160156 C 123.238281 38.710938 123.742188 38.488281 124.390625 38.488281 L 124.78125 38.488281 C 125.363281 38.488281 125.835938 38.679688 126.203125 39.066406 C 126.578125 39.460938 126.765625 39.976562 126.765625 40.613281 C 126.765625 41.152344 126.609375 41.621094 126.296875 42.019531 C 126.816406 42.257812 127.078125 42.527344 127.078125 42.832031 C 127.078125 42.964844 127.035156 43.070312 126.953125 43.144531 C 126.878906 43.226562 126.796875 43.269531 126.703125 43.269531 C 126.578125 43.269531 126.484375 43.199219 126.421875 43.066406 C 126.347656 42.792969 126.179688 42.574219 125.921875 42.410156 C 125.617188 42.660156 125.238281 42.785156 124.78125 42.785156 L 124.390625 42.785156 C 123.804688 42.785156 123.328125 42.582031 122.953125 42.175781 C 122.578125 41.769531 122.390625 41.246094 122.390625 40.613281 C 122.390625 40.289062 122.453125 39.992188 122.578125 39.722656 C 122.453125 39.523438 122.3125 39.425781 122.15625 39.425781 C 122.007812 39.425781 121.894531 39.519531 121.8125 39.707031 C 121.726562 39.894531 121.675781 40.121094 121.65625 40.394531 C 121.632812 40.664062 121.59375 40.957031 121.53125 41.269531 C 121.476562 41.589844 121.40625 41.886719 121.3125 42.160156 C 121.226562 42.429688 121.078125 42.660156 120.859375 42.847656 C 120.632812 43.035156 120.34375 43.128906 120 43.128906 C 119.4375 43.128906 119.007812 42.898438 118.703125 42.441406 C 118.402344 41.992188 118.25 41.410156 118.25 40.691406 C 118.25 39.972656 118.398438 39.378906 118.6875 38.910156 C 118.980469 38.441406 119.375 38.207031 119.875 38.207031 Z M 119.984375 39.160156 C 119.671875 39.160156 119.421875 39.292969 119.234375 39.566406 C 119.046875 39.847656 118.953125 40.214844 118.953125 40.675781 C 118.953125 41.121094 119.046875 41.480469 119.234375 41.753906 C 119.421875 42.023438 119.671875 42.160156 119.984375 42.160156 C 120.109375 42.160156 120.21875 42.132812 120.3125 42.082031 C 120.40625 42.039062 120.492188 41.972656 120.5625 41.878906 C 120.625 41.785156 120.679688 41.683594 120.71875 41.582031 C 120.761719 41.488281 120.796875 41.363281 120.828125 41.207031 C 120.859375 41.058594 120.882812 40.933594 120.890625 40.832031 C 120.902344 40.738281 120.917969 40.605469 120.9375 40.441406 C 120.949219 40.273438 120.960938 40.160156 120.96875 40.097656 C 120.761719 39.472656 120.433594 39.160156 119.984375 39.160156 Z M 124.390625 39.457031 C 124.003906 39.457031 123.6875 39.558594 123.4375 39.769531 C 123.195312 39.976562 123.078125 40.269531 123.078125 40.644531 C 123.078125 40.996094 123.195312 41.277344 123.4375 41.488281 C 123.6875 41.707031 124.003906 41.816406 124.390625 41.816406 L 124.78125 41.816406 C 125.144531 41.816406 125.453125 41.707031 125.703125 41.488281 C 125.953125 41.277344 126.078125 40.992188 126.078125 40.628906 C 126.078125 40.261719 125.953125 39.976562 125.703125 39.769531 C 125.460938 39.558594 125.15625 39.457031 124.78125 39.457031 Z M 123.234375 43.910156 L 124.484375 43.910156 C 125.109375 43.910156 125.644531 44.144531 126.09375 44.613281 C 126.539062 45.082031 126.765625 45.644531 126.765625 46.300781 C 126.765625 46.925781 126.550781 47.464844 126.125 47.925781 C 125.707031 48.382812 125.179688 48.613281 124.546875 48.613281 C 124.316406 48.613281 124.128906 48.582031 123.984375 48.519531 C 123.847656 48.464844 123.75 48.382812 123.6875 48.269531 C 123.632812 48.152344 123.597656 48.042969 123.578125 47.941406 C 123.566406 47.847656 123.5625 47.710938 123.5625 47.535156 L 123.5625 44.910156 L 123.203125 44.910156 C 122.753906 44.910156 122.398438 45.066406 122.140625 45.378906 C 121.878906 45.699219 121.75 46.113281 121.75 46.613281 C 121.75 46.882812 121.785156 47.113281 121.859375 47.300781 C 121.941406 47.496094 122.019531 47.652344 122.09375 47.769531 C 122.175781 47.894531 122.21875 47.992188 122.21875 48.066406 C 122.21875 48.179688 122.164062 48.273438 122.0625 48.347656 C 121.957031 48.429688 121.851562 48.472656 121.75 48.472656 C 121.570312 48.472656 121.382812 48.289062 121.1875 47.925781 C 121 47.558594 120.90625 47.113281 120.90625 46.582031 C 120.90625 45.800781 121.117188 45.160156 121.546875 44.660156 C 121.972656 44.160156 122.535156 43.910156 123.234375 43.910156 Z M 124.234375 44.910156 L 124.234375 47.128906 C 124.234375 47.335938 124.257812 47.476562 124.3125 47.550781 C 124.363281 47.621094 124.460938 47.660156 124.609375 47.660156 C 124.972656 47.660156 125.289062 47.523438 125.5625 47.253906 C 125.832031 46.992188 125.96875 46.675781 125.96875 46.300781 C 125.96875 45.914062 125.84375 45.585938 125.59375 45.316406 C 125.34375 45.042969 125.03125 44.910156 124.65625 44.910156 Z M 119.875 51.671875 C 120.460938 51.671875 120.898438 51.992188 121.1875 52.640625 C 121.332031 52.234375 121.597656 52.03125 121.984375 52.03125 C 122.347656 52.03125 122.644531 52.226562 122.875 52.625 C 123.238281 52.175781 123.742188 51.953125 124.390625 51.953125 L 124.78125 51.953125 C 125.363281 51.953125 125.835938 52.144531 126.203125 52.53125 C 126.578125 52.925781 126.765625 53.441406 126.765625 54.078125 C 126.765625 54.617188 126.609375 55.085938 126.296875 55.484375 C 126.816406 55.722656 127.078125 55.992188 127.078125 56.296875 C 127.078125 56.429688 127.035156 56.535156 126.953125 56.609375 C 126.878906 56.691406 126.796875 56.734375 126.703125 56.734375 C 126.578125 56.734375 126.484375 56.664062 126.421875 56.53125 C 126.347656 56.257812 126.179688 56.039062 125.921875 55.875 C 125.617188 56.125 125.238281 56.25 124.78125 56.25 L 124.390625 56.25 C 123.804688 56.25 123.328125 56.046875 122.953125 55.640625 C 122.578125 55.234375 122.390625 54.710938 122.390625 54.078125 C 122.390625 53.753906 122.453125 53.457031 122.578125 53.1875 C 122.453125 52.988281 122.3125 52.890625 122.15625 52.890625 C 122.007812 52.890625 121.894531 52.984375 121.8125 53.171875 C 121.726562 53.359375 121.675781 53.585938 121.65625 53.859375 C 121.632812 54.128906 121.59375 54.421875 121.53125 54.734375 C 121.476562 55.054688 121.40625 55.351562 121.3125 55.625 C 121.226562 55.894531 121.078125 56.125 120.859375 56.3125 C 120.632812 56.5 120.34375 56.59375 120 56.59375 C 119.4375 56.59375 119.007812 56.363281 118.703125 55.90625 C 118.402344 55.457031 118.25 54.875 118.25 54.15625 C 118.25 53.4375 118.398438 52.84375 118.6875 52.375 C 118.980469 51.90625 119.375 51.671875 119.875 51.671875 Z M 119.984375 52.625 C 119.671875 52.625 119.421875 52.757812 119.234375 53.03125 C 119.046875 53.3125 118.953125 53.679688 118.953125 54.140625 C 118.953125 54.585938 119.046875 54.945312 119.234375 55.21875 C 119.421875 55.488281 119.671875 55.625 119.984375 55.625 C 120.109375 55.625 120.21875 55.597656 120.3125 55.546875 C 120.40625 55.503906 120.492188 55.4375 120.5625 55.34375 C 120.625 55.25 120.679688 55.148438 120.71875 55.046875 C 120.761719 54.953125 120.796875 54.828125 120.828125 54.671875 C 120.859375 54.523438 120.882812 54.398438 120.890625 54.296875 C 120.902344 54.203125 120.917969 54.070312 120.9375 53.90625 C 120.949219 53.738281 120.960938 53.625 120.96875 53.5625 C 120.761719 52.9375 120.433594 52.625 119.984375 52.625 Z M 124.390625 52.921875 C 124.003906 52.921875 123.6875 53.023438 123.4375 53.234375 C 123.195312 53.441406 123.078125 53.734375 123.078125 54.109375 C 123.078125 54.460938 123.195312 54.742188 123.4375 54.953125 C 123.6875 55.171875 124.003906 55.28125 124.390625 55.28125 L 124.78125 55.28125 C 125.144531 55.28125 125.453125 55.171875 125.703125 54.953125 C 125.953125 54.742188 126.078125 54.457031 126.078125 54.09375 C 126.078125 53.726562 125.953125 53.441406 125.703125 53.234375 C 125.460938 53.023438 125.15625 52.921875 124.78125 52.921875 Z M 121.359375 57.589844 L 126.34375 57.589844 C 126.445312 57.589844 126.53125 57.636719 126.59375 57.730469 C 126.65625 57.824219 126.6875 57.941406 126.6875 58.089844 C 126.6875 58.214844 126.65625 58.316406 126.59375 58.402344 C 126.53125 58.496094 126.445312 58.542969 126.34375 58.542969 L 125.78125 58.542969 C 126.050781 58.6875 126.28125 58.902344 126.46875 59.183594 C 126.664062 59.464844 126.765625 59.777344 126.765625 60.121094 L 126.765625 60.527344 C 126.765625 60.628906 126.71875 60.71875 126.625 60.792969 C 126.53125 60.863281 126.421875 60.902344 126.296875 60.902344 C 126.179688 60.902344 126.078125 60.863281 125.984375 60.792969 C 125.898438 60.71875 125.859375 60.628906 125.859375 60.527344 L 125.859375 60.121094 C 125.859375 59.703125 125.691406 59.34375 125.359375 59.042969 C 125.035156 58.738281 124.613281 58.589844 124.09375 58.589844 L 121.359375 58.589844 C 121.273438 58.589844 121.191406 58.535156 121.109375 58.433594 C 121.035156 58.339844 121 58.222656 121 58.089844 C 121 57.953125 121.035156 57.832031 121.109375 57.730469 C 121.179688 57.636719 121.265625 57.589844 121.359375 57.589844 Z M 123.234375 61.5 L 124.484375 61.5 C 125.109375 61.5 125.644531 61.734375 126.09375 62.203125 C 126.539062 62.671875 126.765625 63.234375 126.765625 63.890625 C 126.765625 64.515625 126.550781 65.054688 126.125 65.515625 C 125.707031 65.972656 125.179688 66.203125 124.546875 66.203125 C 124.316406 66.203125 124.128906 66.171875 123.984375 66.109375 C 123.847656 66.054688 123.75 65.972656 123.6875 65.859375 C 123.632812 65.742188 123.597656 65.632812 123.578125 65.53125 C 123.566406 65.4375 123.5625 65.300781 123.5625 65.125 L 123.5625 62.5 L 123.203125 62.5 C 122.753906 62.5 122.398438 62.65625 122.140625 62.96875 C 121.878906 63.289062 121.75 63.703125 121.75 64.203125 C 121.75 64.472656 121.785156 64.703125 121.859375 64.890625 C 121.941406 65.085938 122.019531 65.242188 122.09375 65.359375 C 122.175781 65.484375 122.21875 65.582031 122.21875 65.65625 C 122.21875 65.769531 122.164062 65.863281 122.0625 65.9375 C 121.957031 66.019531 121.851562 66.0625 121.75 66.0625 C 121.570312 66.0625 121.382812 65.878906 121.1875 65.515625 C 121 65.148438 120.90625 64.703125 120.90625 64.171875 C 120.90625 63.390625 121.117188 62.75 121.546875 62.25 C 121.972656 61.75 122.535156 61.5 123.234375 61.5 Z M 124.234375 62.5 L 124.234375 64.71875 C 124.234375 64.925781 124.257812 65.066406 124.3125 65.140625 C 124.363281 65.210938 124.460938 65.25 124.609375 65.25 C 124.972656 65.25 125.289062 65.113281 125.5625 64.84375 C 125.832031 64.582031 125.96875 64.265625 125.96875 63.890625 C 125.96875 63.503906 125.84375 63.175781 125.59375 62.90625 C 125.34375 62.632812 125.03125 62.5 124.65625 62.5 Z M 123.234375 67.082031 L 124.484375 67.082031 C 125.109375 67.082031 125.644531 67.316406 126.09375 67.785156 C 126.539062 68.253906 126.765625 68.816406 126.765625 69.472656 C 126.765625 70.097656 126.550781 70.636719 126.125 71.097656 C 125.707031 71.554688 125.179688 71.785156 124.546875 71.785156 C 124.316406 71.785156 124.128906 71.753906 123.984375 71.691406 C 123.847656 71.636719 123.75 71.554688 123.6875 71.441406 C 123.632812 71.324219 123.597656 71.214844 123.578125 71.113281 C 123.566406 71.019531 123.5625 70.882812 123.5625 70.707031 L 123.5625 68.082031 L 123.203125 68.082031 C 122.753906 68.082031 122.398438 68.238281 122.140625 68.550781 C 121.878906 68.871094 121.75 69.285156 121.75 69.785156 C 121.75 70.054688 121.785156 70.285156 121.859375 70.472656 C 121.941406 70.667969 122.019531 70.824219 122.09375 70.941406 C 122.175781 71.066406 122.21875 71.164062 122.21875 71.238281 C 122.21875 71.351562 122.164062 71.445312 122.0625 71.519531 C 121.957031 71.601562 121.851562 71.644531 121.75 71.644531 C 121.570312 71.644531 121.382812 71.460938 121.1875 71.097656 C 121 70.730469 120.90625 70.285156 120.90625 69.753906 C 120.90625 68.972656 121.117188 68.332031 121.546875 67.832031 C 121.972656 67.332031 122.535156 67.082031 123.234375 67.082031 Z M 124.234375 68.082031 L 124.234375 70.300781 C 124.234375 70.507812 124.257812 70.648438 124.3125 70.722656 C 124.363281 70.792969 124.460938 70.832031 124.609375 70.832031 C 124.972656 70.832031 125.289062 70.695312 125.5625 70.425781 C 125.832031 70.164062 125.96875 69.847656 125.96875 69.472656 C 125.96875 69.085938 125.84375 68.757812 125.59375 68.488281 C 125.34375 68.214844 125.03125 68.082031 124.65625 68.082031 Z M 121.359375 72.878906 L 126.34375 72.878906 C 126.445312 72.878906 126.53125 72.925781 126.59375 73.019531 C 126.65625 73.113281 126.6875 73.230469 126.6875 73.378906 C 126.6875 73.492188 126.648438 73.597656 126.578125 73.691406 C 126.515625 73.785156 126.4375 73.832031 126.34375 73.832031 L 125.84375 73.832031 C 126.101562 73.957031 126.320312 74.160156 126.5 74.441406 C 126.675781 74.730469 126.765625 75.066406 126.765625 75.441406 C 126.765625 76.003906 126.535156 76.492188 126.078125 76.910156 C 125.628906 77.335938 125.085938 77.550781 124.453125 77.550781 L 121.359375 77.550781 C 121.242188 77.550781 121.15625 77.496094 121.09375 77.394531 C 121.03125 77.300781 121 77.183594 121 77.050781 C 121 76.925781 121.03125 76.808594 121.09375 76.707031 C 121.15625 76.601562 121.242188 76.550781 121.359375 76.550781 L 124.453125 76.550781 C 124.816406 76.550781 125.140625 76.414062 125.421875 76.144531 C 125.710938 75.871094 125.859375 75.554688 125.859375 75.191406 C 125.859375 74.847656 125.726562 74.539062 125.46875 74.269531 C 125.207031 74.007812 124.867188 73.878906 124.453125 73.878906 L 121.359375 73.878906 C 121.273438 73.878906 121.191406 73.824219 121.109375 73.722656 C 121.035156 73.617188 121 73.503906 121 73.378906 C 121 73.242188 121.035156 73.121094 121.109375 73.019531 C 121.179688 72.925781 121.265625 72.878906 121.359375 72.878906 Z M 129.921875 78.632812 C 130.003906 78.632812 130.070312 78.671875 130.125 78.757812 C 130.1875 78.851562 130.21875 78.949219 130.21875 79.054688 C 130.21875 79.167969 130.1875 79.273438 130.125 79.367188 C 130.070312 79.460938 130.003906 79.507812 129.921875 79.507812 L 128.171875 79.382812 C 128.085938 79.382812 128.015625 79.355469 127.953125 79.304688 C 127.890625 79.25 127.859375 79.171875 127.859375 79.070312 C 127.859375 78.859375 127.960938 78.757812 128.171875 78.757812 Z M 129.921875 80.257812 C 130.003906 80.257812 130.070312 80.296875 130.125 80.382812 C 130.1875 80.476562 130.21875 80.578125 130.21875 80.695312 C 130.21875 80.808594 130.1875 80.90625 130.125 80.992188 C 130.070312 81.085938 130.003906 81.132812 129.921875 81.132812 L 128.171875 81.023438 C 128.085938 81.023438 128.015625 80.992188 127.953125 80.929688 C 127.890625 80.875 127.859375 80.796875 127.859375 80.695312 C 127.859375 80.484375 127.960938 80.382812 128.171875 80.382812 Z M 121 81.558594 "/>
</g>
</svg>
