<?xml version="1.0" encoding="UTF-8"?>
<svg xmlns="http://www.w3.org/2000/svg" xmlns:xlink="http://www.w3.org/1999/xlink" width="384pt" height="288pt" viewBox="0 0 384 288" version="1.1">
<g id="surface181">
<path style=" stroke:none;fill-rule:nonzero;fill:rgb(0%,0%,0%);fill-opacity:1;" d="M 0 0 L 284 0 L 284 288 L 0 288 Z M 0 0 "/>
<path style=" stroke:none;fill-rule:nonzero;fill:rgb(50.196078%,50.196078%,50.196078%);fill-opacity:1;" d="M 0 0 L 35.5 0 L 35.5 288 L 0 288 Z M 0 0 "/>
<path style=" stroke:none;fill-rule:nonzero;fill:rgb(0%,0%,0%);fill-opacity:1;" d="M 35.5 0 L 71 0 L 71 288 L 35.5 288 Z M 35.5 0 "/>
<path style=" stroke:none;fill-rule:nonzero;fill:rgb(50.196078%,50.196078%,50.196078%);fill-opacity:1;" d="M 71 0 L 106.5 0 L 106.5 288 L 71 288 Z M 71 0 "/>
<path style=" stroke:none;fill-rule:nonzero;fill:rgb(0%,0%,0%);fill-opacity:1;" d="M 106.5 0 L 142 0 L 142 288 L 106.5 288 Z M 106.5 0 "/>
<path style=" stroke:none;fill-rule:nonzero;fill:rgb(50.196078%,50.196078%,50.196078%);fill-opacity:1;" d="M 142 0 L 177.5 0 L 177.5 288 L 142 288 Z M 142 0 "/>
<path style=" stroke:none;fill-rule:nonzero;fill:rgb(0%,0%,0%);fill-opacity:1;" d="M 177.5 0 L 213 0 L 213 288 L 177.5 288 Z M 177.5 0 "/>
<path style=" stroke:none;fill-rule:nonzero;fill:rgb(50.196078%,50.196078%,50.196078%);fill-opacity:1;" d="M 213 0 L 248.5 0 L 248.5 288 L 213 288 Z M 213 0 "/>
<path style=" stroke:none;fill-rule:nonzero;fill:rgb(0%,0%,0%);fill-opacity:1;" d="M 248.5 0 L 284 0 L 284 288 L 248.5 288 Z M 248.5 0 "/>
<path style=" stroke:none;fill-rule:nonzero;fill:rgb(0%,0%,0%);fill-opacity:1;" d="M 355.34375 10.71875 L 361.875 10.71875 C 362.5 10.71875 363.03125 10.925781 363.46875 11.34375 C 363.90625 11.769531 364.125 12.269531 364.125 12.84375 L 364.125 13.265625 C 364.125 13.390625 364.078125 13.488281 363.984375 13.5625 C 363.898438 13.632812 363.796875 13.671875 363.671875 13.671875 C 363.554688 13.671875 363.457031 13.632812 363.375 13.5625 C 363.289062 13.488281 363.25 13.390625 363.25 13.265625 L 363.25 13.015625 C 363.25 12.640625 363.125 12.332031 362.875 12.09375 C 362.625 11.851562 362.316406 11.726562 361.953125 11.71875 L 360.6875 11.71875 L 360.6875 13.359375 C 360.6875 13.453125 360.644531 13.523438 360.5625 13.578125 C 360.488281 13.640625 360.398438 13.671875 360.296875 13.671875 C 360.191406 13.671875 360.097656 13.640625 360.015625 13.578125 C 359.941406 13.523438 359.90625 13.453125 359.90625 13.359375 L 359.90625 11.71875 L 355.34375 11.71875 C 355.25 11.71875 355.164062 11.664062 355.09375 11.5625 C 355.03125 11.46875 355 11.347656 355 11.203125 C 355 11.066406 355.03125 10.953125 355.09375 10.859375 C 355.15625 10.765625 355.238281 10.71875 355.34375 10.71875 Z M 357.234375 14.265625 L 358.453125 14.265625 C 359.066406 14.265625 359.601562 14.5 360.0625 14.96875 C 360.53125 15.4375 360.765625 15.988281 360.765625 16.625 C 360.765625 17.269531 360.535156 17.828125 360.078125 18.296875 C 359.617188 18.773438 359.078125 19.015625 358.453125 19.015625 L 357.234375 19.015625 C 356.617188 19.015625 356.078125 18.773438 355.609375 18.296875 C 355.140625 17.816406 354.90625 17.257812 354.90625 16.625 C 354.90625 16 355.140625 15.445312 355.609375 14.96875 C 356.078125 14.5 356.617188 14.265625 357.234375 14.265625 Z M 357.234375 15.265625 C 356.859375 15.265625 356.523438 15.398438 356.234375 15.671875 C 355.941406 15.941406 355.796875 16.265625 355.796875 16.640625 C 355.796875 17.015625 355.941406 17.335938 356.234375 17.609375 C 356.535156 17.878906 356.867188 18.015625 357.234375 18.015625 L 358.453125 18.015625 C 358.816406 18.015625 359.140625 17.878906 359.421875 17.609375 C 359.710938 17.335938 359.859375 17.015625 359.859375 16.640625 C 359.859375 16.265625 359.710938 15.941406 359.421875 15.671875 C 359.140625 15.398438 358.816406 15.265625 358.453125 15.265625 Z M 355.359375 20.316406 L 363.765625 20.316406 C 363.867188 20.316406 363.953125 20.363281 364.015625 20.457031 C 364.085938 20.550781 364.125 20.667969 364.125 20.816406 C 364.125 20.960938 364.085938 21.082031 364.015625 21.175781 C 363.953125 21.269531 363.867188 21.316406 363.765625 21.316406 L 355.359375 21.316406 C 355.273438 21.316406 355.191406 21.261719 355.109375 21.160156 C 355.035156 21.066406 355 20.949219 355 20.816406 C 355 20.679688 355.035156 20.558594 355.109375 20.457031 C 355.179688 20.363281 355.265625 20.316406 355.359375 20.316406 Z M 357.234375 22.617188 L 358.453125 22.617188 C 359.085938 22.617188 359.628906 22.828125 360.078125 23.257812 C 360.535156 23.683594 360.765625 24.1875 360.765625 24.773438 C 360.765625 25.136719 360.675781 25.453125 360.5 25.726562 C 360.320312 25.996094 360.101562 26.203125 359.84375 26.351562 L 363.765625 26.351562 C 363.867188 26.351562 363.953125 26.398438 364.015625 26.492188 C 364.085938 26.585938 364.125 26.703125 364.125 26.851562 C 364.125 26.996094 364.085938 27.109375 364.015625 27.195312 C 363.953125 27.289062 363.867188 27.335938 363.765625 27.335938 L 355.359375 27.335938 C 355.265625 27.335938 355.179688 27.289062 355.109375 27.195312 C 355.035156 27.101562 355 26.984375 355 26.851562 C 355 26.726562 355.035156 26.617188 355.109375 26.523438 C 355.179688 26.4375 355.265625 26.398438 355.359375 26.398438 L 355.84375 26.398438 C 355.582031 26.261719 355.359375 26.039062 355.171875 25.726562 C 354.996094 25.421875 354.90625 25.09375 354.90625 24.742188 C 354.90625 24.179688 355.140625 23.683594 355.609375 23.257812 C 356.078125 22.828125 356.617188 22.617188 357.234375 22.617188 Z M 357.234375 23.617188 C 356.867188 23.617188 356.535156 23.75 356.234375 24.023438 C 355.941406 24.292969 355.796875 24.609375 355.796875 24.976562 C 355.796875 25.328125 355.929688 25.648438 356.203125 25.929688 C 356.472656 26.210938 356.707031 26.351562 356.90625 26.351562 L 358.453125 26.351562 C 358.867188 26.351562 359.207031 26.210938 359.46875 25.929688 C 359.726562 25.65625 359.859375 25.34375 359.859375 24.992188 C 359.859375 24.617188 359.710938 24.292969 359.421875 24.023438 C 359.140625 23.75 358.816406 23.617188 358.453125 23.617188 Z M 355.359375 28.917969 L 363.40625 28.917969 C 363.519531 28.917969 363.609375 28.957031 363.671875 29.042969 C 363.734375 29.136719 363.765625 29.246094 363.765625 29.371094 L 363.765625 33.636719 C 363.765625 33.75 363.722656 33.832031 363.640625 33.886719 C 363.554688 33.949219 363.453125 33.980469 363.328125 33.980469 C 363.203125 33.980469 363.09375 33.949219 363 33.886719 C 362.90625 33.824219 362.859375 33.738281 362.859375 33.636719 L 362.859375 29.917969 L 359.8125 29.917969 L 359.8125 31.792969 C 359.8125 31.894531 359.769531 31.980469 359.6875 32.042969 C 359.601562 32.105469 359.5 32.136719 359.375 32.136719 C 359.269531 32.136719 359.175781 32.105469 359.09375 32.042969 C 359.007812 31.988281 358.96875 31.90625 358.96875 31.792969 L 358.96875 29.917969 L 355.90625 29.917969 L 355.90625 33.636719 C 355.90625 33.738281 355.859375 33.824219 355.765625 33.886719 C 355.679688 33.949219 355.570312 33.980469 355.4375 33.980469 C 355.320312 33.980469 355.21875 33.949219 355.125 33.886719 C 355.039062 33.832031 355 33.75 355 33.636719 L 355 29.371094 C 355 29.246094 355.03125 29.136719 355.09375 29.042969 C 355.15625 28.957031 355.242188 28.917969 355.359375 28.917969 Z M 360.28125 34.367188 C 360.394531 34.367188 360.492188 34.433594 360.578125 34.570312 C 360.671875 34.714844 360.71875 34.859375 360.71875 35.007812 C 360.71875 35.171875 360.648438 35.28125 360.515625 35.335938 L 356.4375 36.851562 L 360.46875 38.351562 C 360.632812 38.414062 360.71875 38.523438 360.71875 38.679688 C 360.71875 38.804688 360.671875 38.9375 360.578125 39.085938 C 360.492188 39.242188 360.394531 39.320312 360.28125 39.320312 C 360.21875 39.320312 360.15625 39.304688 360.09375 39.273438 L 355.109375 37.304688 C 354.964844 37.242188 354.890625 37.089844 354.890625 36.851562 C 354.890625 36.601562 354.964844 36.445312 355.109375 36.382812 L 360.09375 34.414062 C 360.1875 34.382812 360.25 34.367188 360.28125 34.367188 Z M 357.234375 39.957031 L 358.484375 39.957031 C 359.109375 39.957031 359.644531 40.191406 360.09375 40.660156 C 360.539062 41.128906 360.765625 41.691406 360.765625 42.347656 C 360.765625 42.972656 360.550781 43.511719 360.125 43.972656 C 359.707031 44.429688 359.179688 44.660156 358.546875 44.660156 C 358.316406 44.660156 358.128906 44.628906 357.984375 44.566406 C 357.847656 44.511719 357.75 44.429688 357.6875 44.316406 C 357.632812 44.199219 357.597656 44.089844 357.578125 43.988281 C 357.566406 43.894531 357.5625 43.757812 357.5625 43.582031 L 357.5625 40.957031 L 357.203125 40.957031 C 356.753906 40.957031 356.398438 41.113281 356.140625 41.425781 C 355.878906 41.746094 355.75 42.160156 355.75 42.660156 C 355.75 42.929688 355.785156 43.160156 355.859375 43.347656 C 355.941406 43.542969 356.019531 43.699219 356.09375 43.816406 C 356.175781 43.941406 356.21875 44.039062 356.21875 44.113281 C 356.21875 44.226562 356.164062 44.320312 356.0625 44.394531 C 355.957031 44.476562 355.851562 44.519531 355.75 44.519531 C 355.570312 44.519531 355.382812 44.335938 355.1875 43.972656 C 355 43.605469 354.90625 43.160156 354.90625 42.628906 C 354.90625 41.847656 355.117188 41.207031 355.546875 40.707031 C 355.972656 40.207031 356.535156 39.957031 357.234375 39.957031 Z M 358.234375 40.957031 L 358.234375 43.175781 C 358.234375 43.382812 358.257812 43.523438 358.3125 43.597656 C 358.363281 43.667969 358.460938 43.707031 358.609375 43.707031 C 358.972656 43.707031 359.289062 43.570312 359.5625 43.300781 C 359.832031 43.039062 359.96875 42.722656 359.96875 42.347656 C 359.96875 41.960938 359.84375 41.632812 359.59375 41.363281 C 359.34375 41.089844 359.03125 40.957031 358.65625 40.957031 Z M 355.359375 45.753906 L 360.34375 45.753906 C 360.445312 45.753906 360.53125 45.800781 360.59375 45.894531 C 360.65625 45.988281 360.6875 46.105469 360.6875 46.253906 C 360.6875 46.378906 360.65625 46.480469 360.59375 46.566406 C 360.53125 46.660156 360.445312 46.707031 360.34375 46.707031 L 359.78125 46.707031 C 360.050781 46.851562 360.28125 47.066406 360.46875 47.347656 C 360.664062 47.628906 360.765625 47.941406 360.765625 48.285156 L 360.765625 48.691406 C 360.765625 48.792969 360.71875 48.882812 360.625 48.957031 C 360.53125 49.027344 360.421875 49.066406 360.296875 49.066406 C 360.179688 49.066406 360.078125 49.027344 359.984375 48.957031 C 359.898438 48.882812 359.859375 48.792969 359.859375 48.691406 L 359.859375 48.285156 C 359.859375 47.867188 359.691406 47.507812 359.359375 47.207031 C 359.035156 46.902344 358.613281 46.753906 358.09375 46.753906 L 355.359375 46.753906 C 355.273438 46.753906 355.191406 46.699219 355.109375 46.597656 C 355.035156 46.503906 355 46.386719 355 46.253906 C 355 46.117188 355.035156 45.996094 355.109375 45.894531 C 355.179688 45.800781 355.265625 45.753906 355.359375 45.753906 Z M 360.28125 49.320312 C 360.40625 49.320312 360.515625 49.390625 360.609375 49.539062 C 360.710938 49.683594 360.765625 49.828125 360.765625 49.976562 C 360.765625 50.140625 360.695312 50.246094 360.5625 50.289062 L 356.375 51.882812 L 360.5625 53.304688 C 360.695312 53.367188 360.765625 53.46875 360.765625 53.617188 C 360.765625 53.75 360.710938 53.890625 360.609375 54.039062 C 360.515625 54.195312 360.398438 54.273438 360.265625 54.273438 C 360.222656 54.273438 360.179688 54.257812 360.140625 54.226562 L 355.265625 52.414062 L 354.65625 52.179688 C 354.554688 52.136719 354.367188 52.054688 354.09375 51.929688 C 353.824219 51.8125 353.625 51.714844 353.5 51.632812 C 353.375 51.558594 353.21875 51.449219 353.03125 51.304688 C 352.835938 51.15625 352.695312 51.015625 352.609375 50.882812 C 352.515625 50.746094 352.433594 50.585938 352.359375 50.398438 C 352.289062 50.210938 352.25 50.011719 352.25 49.804688 C 352.25 49.492188 352.402344 49.335938 352.703125 49.335938 C 352.984375 49.335938 353.125 49.429688 353.125 49.617188 C 353.125 49.980469 353.328125 50.328125 353.734375 50.664062 C 354.140625 51.007812 354.65625 51.242188 355.28125 51.367188 L 360.140625 49.367188 C 360.191406 49.335938 360.238281 49.320312 360.28125 49.320312 Z M 355.09375 57.605469 L 363.875 57.605469 C 363.976562 57.605469 364.0625 57.652344 364.125 57.746094 C 364.1875 57.839844 364.21875 57.941406 364.21875 58.058594 L 364.21875 60.027344 C 364.21875 60.128906 364.171875 60.214844 364.078125 60.277344 C 363.992188 60.339844 363.890625 60.371094 363.765625 60.371094 C 363.640625 60.371094 363.53125 60.339844 363.4375 60.277344 C 363.351562 60.214844 363.3125 60.128906 363.3125 60.027344 L 363.3125 58.605469 L 355.640625 58.605469 L 355.640625 60.027344 C 355.640625 60.128906 355.597656 60.214844 355.515625 60.277344 C 355.429688 60.339844 355.320312 60.371094 355.1875 60.371094 C 355.070312 60.371094 354.976562 60.339844 354.890625 60.277344 C 354.796875 60.214844 354.75 60.128906 354.75 60.027344 L 354.75 58.058594 C 354.75 57.941406 354.78125 57.839844 354.84375 57.746094 C 354.90625 57.652344 354.992188 57.605469 355.09375 57.605469 Z M 356.96875 60.90625 C 357.15625 60.90625 357.28125 60.9375 357.34375 61 C 357.40625 61.070312 357.4375 61.195312 357.4375 61.375 C 357.4375 61.5625 357.40625 61.691406 357.34375 61.765625 C 357.28125 61.847656 357.179688 61.890625 357.046875 61.890625 C 356.734375 61.890625 356.453125 62.019531 356.203125 62.28125 C 355.960938 62.539062 355.84375 62.9375 355.84375 63.46875 C 355.84375 64.53125 356.394531 65.0625 357.5 65.0625 L 357.71875 65.0625 C 358.695312 65.0625 359.1875 64.53125 359.1875 63.46875 C 359.1875 63.226562 359.328125 63.109375 359.609375 63.109375 C 359.890625 63.109375 360.03125 63.226562 360.03125 63.46875 C 360.03125 63.925781 360.132812 64.269531 360.34375 64.5 C 360.550781 64.738281 360.925781 64.859375 361.46875 64.859375 C 362.40625 64.859375 362.875 64.410156 362.875 63.515625 C 362.875 62.992188 362.757812 62.628906 362.53125 62.421875 C 362.300781 62.210938 362.03125 62.109375 361.71875 62.109375 C 361.425781 62.109375 361.28125 61.945312 361.28125 61.625 C 361.28125 61.40625 361.3125 61.257812 361.375 61.1875 C 361.445312 61.125 361.582031 61.09375 361.78125 61.09375 C 361.988281 61.09375 362.195312 61.128906 362.40625 61.203125 C 362.625 61.285156 362.835938 61.410156 363.046875 61.578125 C 363.253906 61.742188 363.425781 61.992188 363.5625 62.328125 C 363.695312 62.671875 363.765625 63.070312 363.765625 63.53125 C 363.765625 65.0625 363.054688 65.828125 361.640625 65.828125 C 361.140625 65.828125 360.710938 65.738281 360.359375 65.5625 C 360.015625 65.382812 359.769531 65.148438 359.625 64.859375 C 359.300781 65.671875 358.664062 66.078125 357.71875 66.078125 L 357.5 66.078125 C 356.613281 66.078125 355.960938 65.835938 355.546875 65.359375 C 355.128906 64.878906 354.921875 64.25 354.921875 63.46875 C 354.921875 62.632812 355.128906 62 355.546875 61.5625 C 355.972656 61.125 356.445312 60.90625 356.96875 60.90625 Z M 355.546875 66.992188 C 355.722656 66.992188 355.875 67.046875 356 67.164062 C 356.125 67.277344 356.1875 67.421875 356.1875 67.601562 C 356.1875 67.765625 356.125 67.914062 356 68.039062 C 355.882812 68.164062 355.734375 68.226562 355.546875 68.226562 C 355.410156 68.226562 354.929688 68.054688 354.09375 67.710938 C 353.992188 67.65625 353.9375 67.570312 353.9375 67.445312 C 353.9375 67.351562 353.964844 67.265625 354.015625 67.195312 C 354.070312 67.132812 354.136719 67.101562 354.21875 67.101562 C 354.273438 67.101562 354.320312 67.105469 354.359375 67.117188 L 354.96875 67.367188 C 355.070312 67.117188 355.265625 66.992188 355.546875 66.992188 Z M 357 68.964844 C 357.320312 68.964844 357.484375 69.128906 357.484375 69.464844 C 357.484375 69.808594 357.347656 69.980469 357.078125 69.980469 C 356.691406 69.980469 356.390625 70.125 356.171875 70.417969 C 355.953125 70.71875 355.84375 71.09375 355.84375 71.542969 C 355.84375 72.050781 355.984375 72.441406 356.265625 72.714844 C 356.546875 72.996094 356.960938 73.136719 357.515625 73.136719 L 357.75 73.136719 C 358.289062 73.136719 358.695312 72.996094 358.96875 72.714844 C 359.25 72.441406 359.390625 72.058594 359.390625 71.558594 L 359.390625 69.855469 C 359.390625 69.542969 359.519531 69.386719 359.78125 69.386719 C 359.863281 69.386719 359.953125 69.394531 360.046875 69.417969 L 363.40625 69.667969 C 363.644531 69.675781 363.765625 69.765625 363.765625 69.933594 L 363.765625 73.386719 C 363.765625 73.488281 363.71875 73.566406 363.625 73.621094 C 363.539062 73.683594 363.4375 73.714844 363.3125 73.714844 C 363.195312 73.714844 363.09375 73.683594 363 73.621094 C 362.90625 73.566406 362.859375 73.488281 362.859375 73.386719 L 362.859375 70.542969 L 360.234375 70.355469 L 360.234375 71.558594 C 360.234375 72.339844 360.03125 72.964844 359.625 73.433594 C 359.226562 73.902344 358.601562 74.136719 357.75 74.136719 L 357.515625 74.136719 C 356.628906 74.136719 355.972656 73.902344 355.546875 73.433594 C 355.128906 72.964844 354.921875 72.339844 354.921875 71.558594 C 354.921875 70.753906 355.125 70.121094 355.53125 69.652344 C 355.9375 69.191406 356.425781 68.964844 357 68.964844 Z M 355.1875 74.707031 C 355.320312 74.707031 355.429688 74.738281 355.515625 74.800781 C 355.597656 74.863281 355.640625 74.945312 355.640625 75.050781 L 355.640625 76.472656 L 363.3125 76.472656 L 363.3125 75.050781 C 363.3125 74.945312 363.351562 74.863281 363.4375 74.800781 C 363.53125 74.738281 363.640625 74.707031 363.765625 74.707031 C 363.890625 74.707031 363.992188 74.738281 364.078125 74.800781 C 364.171875 74.863281 364.21875 74.945312 364.21875 75.050781 L 364.21875 77.019531 C 364.21875 77.144531 364.1875 77.246094 364.125 77.332031 C 364.0625 77.425781 363.976562 77.472656 363.875 77.472656 L 355.09375 77.472656 C 354.992188 77.472656 354.90625 77.425781 354.84375 77.332031 C 354.78125 77.246094 354.75 77.144531 354.75 77.019531 L 354.75 75.050781 C 354.75 74.945312 354.796875 74.863281 354.890625 74.800781 C 354.976562 74.738281 355.070312 74.707031 355.1875 74.707031 Z M 356.859375 81.34375 L 361.953125 81.34375 C 362.578125 81.34375 363.109375 81.570312 363.546875 82.03125 C 363.992188 82.5 364.21875 83.046875 364.21875 83.671875 C 364.21875 83.992188 364.066406 84.15625 363.765625 84.15625 C 363.628906 84.15625 363.519531 84.125 363.4375 84.0625 C 363.351562 84 363.3125 83.914062 363.3125 83.8125 C 363.3125 83.375 363.171875 83.019531 362.890625 82.75 C 362.617188 82.476562 362.304688 82.34375 361.953125 82.34375 L 356.859375 82.34375 C 356.421875 82.34375 356.109375 82.488281 355.921875 82.78125 C 355.742188 83.070312 355.65625 83.414062 355.65625 83.8125 C 355.65625 84.039062 355.503906 84.15625 355.203125 84.15625 C 354.914062 84.15625 354.765625 83.984375 354.765625 83.640625 C 354.765625 82.992188 354.949219 82.445312 355.3125 82 C 355.675781 81.5625 356.191406 81.34375 356.859375 81.34375 Z M 355.8125 84.734375 C 355.914062 84.734375 356.015625 84.765625 356.109375 84.828125 C 356.210938 84.898438 356.265625 84.984375 356.265625 85.078125 C 356.265625 85.140625 356.21875 85.226562 356.125 85.34375 C 356.03125 85.46875 355.9375 85.644531 355.84375 85.875 C 355.75 86.101562 355.703125 86.367188 355.703125 86.671875 C 355.703125 87.066406 355.773438 87.351562 355.921875 87.53125 C 356.066406 87.71875 356.25 87.8125 356.46875 87.8125 C 356.726562 87.8125 356.9375 87.707031 357.09375 87.5 C 357.25 87.300781 357.363281 87.054688 357.4375 86.765625 C 357.519531 86.484375 357.609375 86.195312 357.703125 85.90625 C 357.804688 85.625 357.96875 85.378906 358.1875 85.171875 C 358.414062 84.972656 358.710938 84.875 359.078125 84.875 C 359.535156 84.875 359.929688 85.035156 360.265625 85.359375 C 360.597656 85.679688 360.765625 86.175781 360.765625 86.84375 C 360.765625 87.269531 360.695312 87.65625 360.5625 88 C 360.425781 88.351562 360.273438 88.53125 360.109375 88.53125 C 360.015625 88.53125 359.90625 88.492188 359.78125 88.421875 C 359.664062 88.347656 359.609375 88.253906 359.609375 88.140625 C 359.609375 88.109375 359.664062 87.953125 359.78125 87.671875 C 359.894531 87.398438 359.953125 87.128906 359.953125 86.859375 C 359.953125 86.492188 359.863281 86.21875 359.6875 86.03125 C 359.519531 85.851562 359.328125 85.765625 359.109375 85.765625 C 358.890625 85.765625 358.710938 85.863281 358.578125 86.0625 C 358.453125 86.257812 358.351562 86.503906 358.28125 86.796875 C 358.21875 87.097656 358.132812 87.390625 358.03125 87.671875 C 357.925781 87.960938 357.742188 88.207031 357.484375 88.40625 C 357.234375 88.601562 356.910156 88.703125 356.515625 88.703125 C 356.015625 88.703125 355.617188 88.523438 355.328125 88.171875 C 355.046875 87.828125 354.90625 87.335938 354.90625 86.703125 C 354.90625 86.160156 355 85.695312 355.1875 85.3125 C 355.382812 84.925781 355.59375 84.734375 355.8125 84.734375 Z M 355.359375 89.894531 L 363.765625 89.894531 C 363.867188 89.894531 363.953125 89.941406 364.015625 90.035156 C 364.085938 90.128906 364.125 90.246094 364.125 90.394531 C 364.125 90.539062 364.085938 90.660156 364.015625 90.753906 C 363.953125 90.847656 363.867188 90.894531 363.765625 90.894531 L 355.359375 90.894531 C 355.273438 90.894531 355.191406 90.839844 355.109375 90.738281 C 355.035156 90.644531 355 90.527344 355 90.394531 C 355 90.257812 355.035156 90.136719 355.109375 90.035156 C 355.179688 89.941406 355.265625 89.894531 355.359375 89.894531 Z M 357.234375 92.191406 L 358.453125 92.191406 C 359.066406 92.191406 359.601562 92.425781 360.0625 92.894531 C 360.53125 93.363281 360.765625 93.914062 360.765625 94.550781 C 360.765625 95.195312 360.535156 95.753906 360.078125 96.222656 C 359.617188 96.699219 359.078125 96.941406 358.453125 96.941406 L 357.234375 96.941406 C 356.617188 96.941406 356.078125 96.699219 355.609375 96.222656 C 355.140625 95.742188 354.90625 95.183594 354.90625 94.550781 C 354.90625 93.925781 355.140625 93.371094 355.609375 92.894531 C 356.078125 92.425781 356.617188 92.191406 357.234375 92.191406 Z M 357.234375 93.191406 C 356.859375 93.191406 356.523438 93.324219 356.234375 93.597656 C 355.941406 93.867188 355.796875 94.191406 355.796875 94.566406 C 355.796875 94.941406 355.941406 95.261719 356.234375 95.535156 C 356.535156 95.804688 356.867188 95.941406 357.234375 95.941406 L 358.453125 95.941406 C 358.816406 95.941406 359.140625 95.804688 359.421875 95.535156 C 359.710938 95.261719 359.859375 94.941406 359.859375 94.566406 C 359.859375 94.191406 359.710938 93.867188 359.421875 93.597656 C 359.140625 93.324219 358.816406 93.191406 358.453125 93.191406 Z M 360.28125 97.605469 C 360.394531 97.605469 360.492188 97.667969 360.578125 97.792969 C 360.671875 97.925781 360.71875 98.066406 360.71875 98.214844 C 360.71875 98.378906 360.648438 98.488281 360.515625 98.542969 L 356.484375 99.996094 L 360.125 101.121094 C 360.28125 101.171875 360.359375 101.296875 360.359375 101.496094 C 360.359375 101.691406 360.28125 101.816406 360.125 101.871094 L 356.453125 102.980469 L 360.515625 104.449219 C 360.648438 104.480469 360.71875 104.578125 360.71875 104.746094 C 360.71875 104.890625 360.671875 105.03125 360.578125 105.167969 C 360.492188 105.300781 360.394531 105.371094 360.28125 105.371094 C 360.21875 105.371094 360.15625 105.355469 360.09375 105.324219 L 355.109375 103.464844 C 354.964844 103.402344 354.890625 103.265625 354.890625 103.058594 C 354.890625 102.839844 354.964844 102.703125 355.109375 102.652344 L 358.640625 101.496094 L 355.140625 100.355469 C 354.976562 100.292969 354.890625 100.144531 354.890625 99.917969 C 354.890625 99.707031 354.976562 99.574219 355.140625 99.511719 L 360.09375 97.652344 C 360.1875 97.621094 360.25 97.605469 360.28125 97.605469 Z M 355.359375 108.324219 L 356.53125 108.324219 C 356.882812 108.324219 357.234375 108.457031 357.578125 108.730469 C 357.929688 109.011719 358.25 109.34375 358.53125 109.730469 L 359.390625 110.902344 C 359.671875 111.285156 359.984375 111.613281 360.328125 111.886719 C 360.679688 112.167969 361.035156 112.308594 361.390625 112.308594 C 361.773438 112.308594 362.113281 112.183594 362.40625 111.933594 C 362.695312 111.683594 362.84375 111.324219 362.84375 110.855469 C 362.84375 110.449219 362.726562 110.121094 362.5 109.871094 C 362.269531 109.621094 361.945312 109.496094 361.53125 109.496094 C 361.425781 109.496094 361.332031 109.441406 361.25 109.339844 C 361.164062 109.246094 361.125 109.121094 361.125 108.964844 C 361.125 108.660156 361.320312 108.511719 361.71875 108.511719 C 362.320312 108.511719 362.8125 108.734375 363.1875 109.183594 C 363.570312 109.640625 363.765625 110.199219 363.765625 110.855469 C 363.765625 111.550781 363.539062 112.136719 363.09375 112.605469 C 362.65625 113.082031 362.101562 113.324219 361.4375 113.324219 C 361.03125 113.324219 360.644531 113.222656 360.28125 113.027344 C 359.914062 112.828125 359.601562 112.582031 359.34375 112.292969 C 359.082031 112 358.828125 111.683594 358.578125 111.339844 L 357.890625 110.386719 C 357.691406 110.09375 357.472656 109.847656 357.234375 109.652344 C 356.992188 109.453125 356.757812 109.355469 356.53125 109.355469 L 355.90625 109.355469 L 355.90625 113.042969 C 355.90625 113.136719 355.859375 113.214844 355.765625 113.277344 C 355.679688 113.347656 355.578125 113.386719 355.453125 113.386719 C 355.335938 113.386719 355.234375 113.347656 355.140625 113.277344 C 355.046875 113.214844 355 113.136719 355 113.042969 L 355 108.777344 C 355 108.671875 355.03125 108.566406 355.09375 108.464844 C 355.164062 108.371094 355.253906 108.324219 355.359375 108.324219 Z M 355.203125 113.960938 C 355.503906 113.960938 355.65625 114.074219 355.65625 114.304688 C 355.65625 114.699219 355.742188 115.042969 355.921875 115.335938 C 356.109375 115.625 356.421875 115.773438 356.859375 115.773438 L 361.953125 115.773438 C 362.304688 115.773438 362.617188 115.636719 362.890625 115.367188 C 363.171875 115.09375 363.3125 114.742188 363.3125 114.304688 C 363.3125 114.199219 363.351562 114.117188 363.4375 114.054688 C 363.519531 113.992188 363.628906 113.960938 363.765625 113.960938 C 364.066406 113.960938 364.21875 114.121094 364.21875 114.445312 C 364.21875 115.070312 363.992188 115.609375 363.546875 116.070312 C 363.109375 116.539062 362.578125 116.773438 361.953125 116.773438 L 356.859375 116.773438 C 356.191406 116.773438 355.675781 116.546875 355.3125 116.101562 C 354.949219 115.664062 354.765625 115.117188 354.765625 114.460938 C 354.765625 114.125 354.914062 113.960938 355.203125 113.960938 Z M 356.375 120.28125 C 356.507812 120.28125 356.632812 120.328125 356.75 120.421875 C 356.875 120.515625 356.9375 120.613281 356.9375 120.71875 C 356.9375 120.78125 356.882812 120.867188 356.78125 120.984375 C 356.6875 121.097656 356.582031 121.210938 356.46875 121.328125 C 356.351562 121.441406 356.242188 121.625 356.140625 121.875 C 356.046875 122.125 355.988281 122.40625 355.96875 122.71875 L 359.15625 122.71875 L 359.40625 122.0625 C 359.457031 121.914062 359.550781 121.722656 359.6875 121.484375 C 359.820312 121.242188 359.957031 121.066406 360.09375 120.953125 C 360.238281 120.835938 360.429688 120.734375 360.671875 120.640625 C 360.910156 120.546875 361.175781 120.5 361.46875 120.5 C 361.832031 120.5 362.148438 120.5625 362.421875 120.6875 C 362.703125 120.8125 362.921875 120.984375 363.078125 121.203125 C 363.234375 121.429688 363.351562 121.664062 363.4375 121.90625 C 363.519531 122.15625 363.578125 122.425781 363.609375 122.71875 L 363.96875 122.71875 C 364.03125 122.71875 364.085938 122.742188 364.140625 122.796875 C 364.191406 122.859375 364.21875 122.9375 364.21875 123.03125 C 364.21875 123.101562 364.191406 123.171875 364.140625 123.234375 C 364.085938 123.304688 364.03125 123.34375 363.96875 123.34375 L 363.625 123.34375 C 363.601562 123.820312 363.519531 124.253906 363.375 124.640625 C 363.238281 125.035156 363.0625 125.234375 362.84375 125.234375 C 362.726562 125.234375 362.601562 125.191406 362.46875 125.109375 C 362.34375 125.035156 362.28125 124.929688 362.28125 124.796875 C 362.28125 124.765625 362.347656 124.597656 362.484375 124.296875 C 362.628906 124.003906 362.710938 123.6875 362.734375 123.34375 L 359.984375 123.34375 C 359.878906 123.65625 359.769531 123.910156 359.65625 124.109375 C 359.550781 124.316406 359.40625 124.535156 359.21875 124.765625 C 359.03125 124.992188 358.789062 125.164062 358.5 125.28125 C 358.207031 125.394531 357.863281 125.453125 357.46875 125.453125 C 356.769531 125.453125 356.210938 125.257812 355.796875 124.875 C 355.390625 124.5 355.144531 123.988281 355.0625 123.34375 L 354.625 123.34375 C 354.5625 123.34375 354.507812 123.304688 354.453125 123.234375 C 354.402344 123.171875 354.375 123.101562 354.375 123.03125 C 354.375 122.9375 354.402344 122.859375 354.453125 122.796875 C 354.507812 122.742188 354.5625 122.71875 354.625 122.71875 L 355.03125 122.71875 C 355.03125 122.03125 355.179688 121.453125 355.484375 120.984375 C 355.796875 120.515625 356.09375 120.28125 356.375 120.28125 Z M 361.5625 121.453125 C 361.1875 121.453125 360.90625 121.5625 360.71875 121.78125 C 360.53125 122 360.359375 122.328125 360.203125 122.765625 L 362.71875 122.765625 C 362.625 121.890625 362.238281 121.453125 361.5625 121.453125 Z M 356 123.296875 C 356.125 124.085938 356.582031 124.484375 357.375 124.484375 C 357.789062 124.484375 358.113281 124.378906 358.34375 124.171875 C 358.582031 123.972656 358.78125 123.679688 358.9375 123.296875 Z M 357.234375 128.816406 L 358.453125 128.816406 C 359.085938 128.816406 359.628906 129.027344 360.078125 129.457031 C 360.535156 129.882812 360.765625 130.386719 360.765625 130.972656 C 360.765625 131.335938 360.675781 131.652344 360.5 131.925781 C 360.320312 132.195312 360.101562 132.402344 359.84375 132.550781 L 363.765625 132.550781 C 363.867188 132.550781 363.953125 132.597656 364.015625 132.691406 C 364.085938 132.785156 364.125 132.902344 364.125 133.050781 C 364.125 133.195312 364.085938 133.308594 364.015625 133.394531 C 363.953125 133.488281 363.867188 133.535156 363.765625 133.535156 L 355.359375 133.535156 C 355.265625 133.535156 355.179688 133.488281 355.109375 133.394531 C 355.035156 133.300781 355 133.183594 355 133.050781 C 355 132.925781 355.035156 132.816406 355.109375 132.722656 C 355.179688 132.636719 355.265625 132.597656 355.359375 132.597656 L 355.84375 132.597656 C 355.582031 132.460938 355.359375 132.238281 355.171875 131.925781 C 354.996094 131.621094 354.90625 131.292969 354.90625 130.941406 C 354.90625 130.378906 355.140625 129.882812 355.609375 129.457031 C 356.078125 129.027344 356.617188 128.816406 357.234375 128.816406 Z M 357.234375 129.816406 C 356.867188 129.816406 356.535156 129.949219 356.234375 130.222656 C 355.941406 130.492188 355.796875 130.808594 355.796875 131.175781 C 355.796875 131.527344 355.929688 131.847656 356.203125 132.128906 C 356.472656 132.410156 356.707031 132.550781 356.90625 132.550781 L 358.453125 132.550781 C 358.867188 132.550781 359.207031 132.410156 359.46875 132.128906 C 359.726562 131.855469 359.859375 131.542969 359.859375 131.191406 C 359.859375 130.816406 359.710938 130.492188 359.421875 130.222656 C 359.140625 129.949219 358.816406 129.816406 358.453125 129.816406 Z M 357.234375 134.746094 L 358.484375 134.746094 C 359.109375 134.746094 359.644531 134.980469 360.09375 135.449219 C 360.539062 135.917969 360.765625 136.480469 360.765625 137.136719 C 360.765625 137.761719 360.550781 138.300781 360.125 138.761719 C 359.707031 139.21875 359.179688 139.449219 358.546875 139.449219 C 358.316406 139.449219 358.128906 139.417969 357.984375 139.355469 C 357.847656 139.300781 357.75 139.21875 357.6875 139.105469 C 357.632812 138.988281 357.597656 138.878906 357.578125 138.777344 C 357.566406 138.683594 357.5625 138.546875 357.5625 138.371094 L 357.5625 135.746094 L 357.203125 135.746094 C 356.753906 135.746094 356.398438 135.902344 356.140625 136.214844 C 355.878906 136.535156 355.75 136.949219 355.75 137.449219 C 355.75 137.71875 355.785156 137.949219 355.859375 138.136719 C 355.941406 138.332031 356.019531 138.488281 356.09375 138.605469 C 356.175781 138.730469 356.21875 138.828125 356.21875 138.902344 C 356.21875 139.015625 356.164062 139.109375 356.0625 139.183594 C 355.957031 139.265625 355.851562 139.308594 355.75 139.308594 C 355.570312 139.308594 355.382812 139.125 355.1875 138.761719 C 355 138.394531 354.90625 137.949219 354.90625 137.417969 C 354.90625 136.636719 355.117188 135.996094 355.546875 135.496094 C 355.972656 134.996094 356.535156 134.746094 357.234375 134.746094 Z M 358.234375 135.746094 L 358.234375 137.964844 C 358.234375 138.171875 358.257812 138.3125 358.3125 138.386719 C 358.363281 138.457031 358.460938 138.496094 358.609375 138.496094 C 358.972656 138.496094 359.289062 138.359375 359.5625 138.089844 C 359.832031 137.828125 359.96875 137.511719 359.96875 137.136719 C 359.96875 136.75 359.84375 136.421875 359.59375 136.152344 C 359.34375 135.878906 359.03125 135.746094 358.65625 135.746094 Z M 355.359375 140.542969 L 360.34375 140.542969 C 360.445312 140.542969 360.53125 140.589844 360.59375 140.683594 C 360.65625 140.777344 360.6875 140.894531 360.6875 141.042969 C 360.6875 141.15625 360.648438 141.261719 360.578125 141.355469 C 360.515625 141.449219 360.4375 141.496094 360.34375 141.496094 L 359.84375 141.496094 C 360.101562 141.621094 360.320312 141.824219 360.5 142.105469 C 360.675781 142.394531 360.765625 142.730469 360.765625 143.105469 C 360.765625 143.667969 360.535156 144.15625 360.078125 144.574219 C 359.628906 145 359.085938 145.214844 358.453125 145.214844 L 355.359375 145.214844 C 355.242188 145.214844 355.15625 145.160156 355.09375 145.058594 C 355.03125 144.964844 355 144.847656 355 144.714844 C 355 144.589844 355.03125 144.472656 355.09375 144.371094 C 355.15625 144.265625 355.242188 144.214844 355.359375 144.214844 L 358.453125 144.214844 C 358.816406 144.214844 359.140625 144.078125 359.421875 143.808594 C 359.710938 143.535156 359.859375 143.21875 359.859375 142.855469 C 359.859375 142.511719 359.726562 142.203125 359.46875 141.933594 C 359.207031 141.671875 358.867188 141.542969 358.453125 141.542969 L 355.359375 141.542969 C 355.273438 141.542969 355.191406 141.488281 355.109375 141.386719 C 355.035156 141.28125 355 141.167969 355 141.042969 C 355 140.90625 355.035156 140.785156 355.109375 140.683594 C 355.179688 140.589844 355.265625 140.542969 355.359375 140.542969 Z M 355.8125 146.238281 C 355.914062 146.238281 356.015625 146.269531 356.109375 146.332031 C 356.210938 146.402344 356.265625 146.488281 356.265625 146.582031 C 356.265625 146.644531 356.21875 146.730469 356.125 146.847656 C 356.03125 146.972656 355.9375 147.148438 355.84375 147.378906 C 355.75 147.605469 355.703125 147.871094 355.703125 148.175781 C 355.703125 148.570312 355.773438 148.855469 355.921875 149.035156 C 356.066406 149.222656 356.25 149.316406 356.46875 149.316406 C 356.726562 149.316406 356.9375 149.210938 357.09375 149.003906 C 357.25 148.804688 357.363281 148.558594 357.4375 148.269531 C 357.519531 147.988281 357.609375 147.699219 357.703125 147.410156 C 357.804688 147.128906 357.96875 146.882812 358.1875 146.675781 C 358.414062 146.476562 358.710938 146.378906 359.078125 146.378906 C 359.535156 146.378906 359.929688 146.539062 360.265625 146.863281 C 360.597656 147.183594 360.765625 147.679688 360.765625 148.347656 C 360.765625 148.773438 360.695312 149.160156 360.5625 149.503906 C 360.425781 149.855469 360.273438 150.035156 360.109375 150.035156 C 360.015625 150.035156 359.90625 149.996094 359.78125 149.925781 C 359.664062 149.851562 359.609375 149.757812 359.609375 149.644531 C 359.609375 149.613281 359.664062 149.457031 359.78125 149.175781 C 359.894531 148.902344 359.953125 148.632812 359.953125 148.363281 C 359.953125 147.996094 359.863281 147.722656 359.6875 147.535156 C 359.519531 147.355469 359.328125 147.269531 359.109375 147.269531 C 358.890625 147.269531 358.710938 147.367188 358.578125 147.566406 C 358.453125 147.761719 358.351562 148.007812 358.28125 148.300781 C 358.21875 148.601562 358.132812 148.894531 358.03125 149.175781 C 357.925781 149.464844 357.742188 149.710938 357.484375 149.910156 C 357.234375 150.105469 356.910156 150.207031 356.515625 150.207031 C 356.015625 150.207031 355.617188 150.027344 355.328125 149.675781 C 355.046875 149.332031 354.90625 148.839844 354.90625 148.207031 C 354.90625 147.664062 355 147.199219 355.1875 146.816406 C 355.382812 146.429688 355.59375 146.238281 355.8125 146.238281 Z M 362.421875 151.347656 C 362.535156 151.222656 362.664062 151.160156 362.8125 151.160156 C 362.96875 151.160156 363.101562 151.214844 363.21875 151.332031 C 363.332031 151.457031 363.390625 151.605469 363.390625 151.785156 C 363.390625 151.949219 363.332031 152.089844 363.21875 152.207031 C 363.101562 152.332031 362.96875 152.394531 362.8125 152.394531 C 362.664062 152.394531 362.535156 152.332031 362.421875 152.207031 C 362.304688 152.089844 362.25 151.949219 362.25 151.785156 C 362.25 151.617188 362.304688 151.472656 362.421875 151.347656 Z M 355.359375 151.285156 L 360.34375 151.285156 C 360.445312 151.285156 360.53125 151.332031 360.59375 151.425781 C 360.65625 151.527344 360.6875 151.648438 360.6875 151.785156 C 360.6875 151.929688 360.65625 152.050781 360.59375 152.144531 C 360.53125 152.238281 360.445312 152.285156 360.34375 152.285156 L 355.359375 152.285156 C 355.273438 152.285156 355.191406 152.230469 355.109375 152.128906 C 355.035156 152.035156 355 151.917969 355 151.785156 C 355 151.648438 355.035156 151.527344 355.109375 151.425781 C 355.179688 151.332031 355.265625 151.285156 355.359375 151.285156 Z M 356.8125 153.679688 L 362.984375 153.679688 C 363.085938 153.679688 363.171875 153.730469 363.234375 153.835938 C 363.304688 153.9375 363.34375 154.046875 363.34375 154.164062 C 363.34375 154.296875 363.304688 154.417969 363.234375 154.523438 C 363.171875 154.625 363.085938 154.679688 362.984375 154.679688 L 360.6875 154.679688 L 360.6875 156.179688 C 360.6875 156.273438 360.644531 156.34375 360.5625 156.398438 C 360.488281 156.449219 360.398438 156.476562 360.296875 156.476562 C 360.191406 156.476562 360.097656 156.449219 360.015625 156.398438 C 359.941406 156.34375 359.90625 156.273438 359.90625 156.179688 L 359.90625 154.679688 L 356.8125 154.679688 C 356.46875 154.679688 356.222656 154.75 356.078125 154.898438 C 355.941406 155.042969 355.875 155.296875 355.875 155.664062 L 355.875 156.039062 C 355.875 156.171875 355.832031 156.277344 355.75 156.351562 C 355.664062 156.433594 355.5625 156.476562 355.4375 156.476562 C 355.320312 156.476562 355.21875 156.433594 355.125 156.351562 C 355.039062 156.265625 355 156.164062 355 156.039062 L 355 155.664062 C 355 154.339844 355.601562 153.679688 356.8125 153.679688 Z M 360.28125 156.855469 C 360.40625 156.855469 360.515625 156.925781 360.609375 157.074219 C 360.710938 157.21875 360.765625 157.363281 360.765625 157.511719 C 360.765625 157.675781 360.695312 157.78125 360.5625 157.824219 L 356.375 159.417969 L 360.5625 160.839844 C 360.695312 160.902344 360.765625 161.003906 360.765625 161.152344 C 360.765625 161.285156 360.710938 161.425781 360.609375 161.574219 C 360.515625 161.730469 360.398438 161.808594 360.265625 161.808594 C 360.222656 161.808594 360.179688 161.792969 360.140625 161.761719 L 355.265625 159.949219 L 354.65625 159.714844 C 354.554688 159.671875 354.367188 159.589844 354.09375 159.464844 C 353.824219 159.347656 353.625 159.25 353.5 159.167969 C 353.375 159.09375 353.21875 158.984375 353.03125 158.839844 C 352.835938 158.691406 352.695312 158.550781 352.609375 158.417969 C 352.515625 158.28125 352.433594 158.121094 352.359375 157.933594 C 352.289062 157.746094 352.25 157.546875 352.25 157.339844 C 352.25 157.027344 352.402344 156.871094 352.703125 156.871094 C 352.984375 156.871094 353.125 156.964844 353.125 157.152344 C 353.125 157.515625 353.328125 157.863281 353.734375 158.199219 C 354.140625 158.542969 354.65625 158.777344 355.28125 158.902344 L 360.140625 156.902344 C 360.191406 156.871094 360.238281 156.855469 360.28125 156.855469 Z M 361.90625 164.464844 C 362.070312 164.464844 362.207031 164.535156 362.3125 164.683594 L 363.625 165.777344 C 363.726562 165.878906 363.78125 165.984375 363.78125 166.089844 C 363.78125 166.203125 363.75 166.308594 363.6875 166.402344 C 363.625 166.496094 363.535156 166.542969 363.421875 166.542969 L 355.359375 166.542969 C 355.242188 166.542969 355.15625 166.488281 355.09375 166.386719 C 355.03125 166.292969 355 166.171875 355 166.027344 C 355 165.890625 355.03125 165.769531 355.09375 165.667969 C 355.15625 165.574219 355.242188 165.527344 355.359375 165.527344 L 362.265625 165.527344 L 361.609375 165.089844 C 361.523438 165.003906 361.484375 164.921875 361.484375 164.839844 C 361.484375 164.734375 361.523438 164.644531 361.609375 164.574219 C 361.691406 164.5 361.789062 164.464844 361.90625 164.464844 Z M 357.546875 167.988281 L 361.15625 167.988281 C 362.0625 167.988281 362.722656 168.226562 363.140625 168.707031 C 363.554688 169.183594 363.765625 169.820312 363.765625 170.613281 C 363.765625 171.414062 363.554688 172.039062 363.140625 172.488281 C 362.734375 172.933594 362.25 173.160156 361.6875 173.160156 C 361.382812 173.160156 361.234375 173.003906 361.234375 172.691406 C 361.234375 172.347656 361.367188 172.175781 361.640625 172.175781 C 362.003906 172.175781 362.296875 172.023438 362.515625 171.722656 C 362.742188 171.417969 362.859375 171.042969 362.859375 170.597656 C 362.859375 169.535156 362.289062 169.003906 361.15625 169.003906 L 359.46875 169.003906 C 359.96875 169.386719 360.21875 169.972656 360.21875 170.753906 C 360.21875 172.355469 359.410156 173.160156 357.796875 173.160156 L 357.546875 173.160156 C 356.640625 173.160156 355.972656 172.925781 355.546875 172.457031 C 355.128906 171.988281 354.921875 171.363281 354.921875 170.582031 C 354.921875 169.800781 355.128906 169.167969 355.546875 168.691406 C 355.972656 168.222656 356.640625 167.988281 357.546875 167.988281 Z M 357.5 169.003906 C 356.363281 169.003906 355.796875 169.527344 355.796875 170.582031 C 355.796875 171.632812 356.363281 172.160156 357.5 172.160156 L 357.75 172.160156 C 358.832031 172.160156 359.375 171.632812 359.375 170.582031 C 359.375 169.527344 358.867188 169.003906 357.859375 169.003906 Z M 356.375 176.46875 C 356.507812 176.46875 356.632812 176.515625 356.75 176.609375 C 356.875 176.703125 356.9375 176.800781 356.9375 176.90625 C 356.9375 176.96875 356.882812 177.054688 356.78125 177.171875 C 356.6875 177.285156 356.582031 177.398438 356.46875 177.515625 C 356.351562 177.628906 356.242188 177.8125 356.140625 178.0625 C 356.046875 178.3125 355.988281 178.59375 355.96875 178.90625 L 359.15625 178.90625 L 359.40625 178.25 C 359.457031 178.101562 359.550781 177.910156 359.6875 177.671875 C 359.820312 177.429688 359.957031 177.253906 360.09375 177.140625 C 360.238281 177.023438 360.429688 176.921875 360.671875 176.828125 C 360.910156 176.734375 361.175781 176.6875 361.46875 176.6875 C 361.832031 176.6875 362.148438 176.75 362.421875 176.875 C 362.703125 177 362.921875 177.171875 363.078125 177.390625 C 363.234375 177.617188 363.351562 177.851562 363.4375 178.09375 C 363.519531 178.34375 363.578125 178.613281 363.609375 178.90625 L 363.96875 178.90625 C 364.03125 178.90625 364.085938 178.929688 364.140625 178.984375 C 364.191406 179.046875 364.21875 179.125 364.21875 179.21875 C 364.21875 179.289062 364.191406 179.359375 364.140625 179.421875 C 364.085938 179.492188 364.03125 179.53125 363.96875 179.53125 L 363.625 179.53125 C 363.601562 180.007812 363.519531 180.441406 363.375 180.828125 C 363.238281 181.222656 363.0625 181.421875 362.84375 181.421875 C 362.726562 181.421875 362.601562 181.378906 362.46875 181.296875 C 362.34375 181.222656 362.28125 181.117188 362.28125 180.984375 C 362.28125 180.953125 362.347656 180.785156 362.484375 180.484375 C 362.628906 180.191406 362.710938 179.875 362.734375 179.53125 L 359.984375 179.53125 C 359.878906 179.84375 359.769531 180.097656 359.65625 180.296875 C 359.550781 180.503906 359.40625 180.722656 359.21875 180.953125 C 359.03125 181.179688 358.789062 181.351562 358.5 181.46875 C 358.207031 181.582031 357.863281 181.640625 357.46875 181.640625 C 356.769531 181.640625 356.210938 181.445312 355.796875 181.0625 C 355.390625 180.6875 355.144531 180.175781 355.0625 179.53125 L 354.625 179.53125 C 354.5625 179.53125 354.507812 179.492188 354.453125 179.421875 C 354.402344 179.359375 354.375 179.289062 354.375 179.21875 C 354.375 179.125 354.402344 179.046875 354.453125 178.984375 C 354.507812 178.929688 354.5625 178.90625 354.625 178.90625 L 355.03125 178.90625 C 355.03125 178.21875 355.179688 177.640625 355.484375 177.171875 C 355.796875 176.703125 356.09375 176.46875 356.375 176.46875 Z M 361.5625 177.640625 C 361.1875 177.640625 360.90625 177.75 360.71875 177.96875 C 360.53125 178.1875 360.359375 178.515625 360.203125 178.953125 L 362.71875 178.953125 C 362.625 178.078125 362.238281 177.640625 361.5625 177.640625 Z M 356 179.484375 C 356.125 180.273438 356.582031 180.671875 357.375 180.671875 C 357.789062 180.671875 358.113281 180.566406 358.34375 180.359375 C 358.582031 180.160156 358.78125 179.867188 358.9375 179.484375 Z M 363.921875 184.9375 C 364.003906 184.9375 364.070312 184.976562 364.125 185.0625 C 364.1875 185.15625 364.21875 185.253906 364.21875 185.359375 C 364.21875 185.472656 364.1875 185.578125 364.125 185.671875 C 364.070312 185.765625 364.003906 185.8125 363.921875 185.8125 L 362.171875 185.6875 C 362.085938 185.6875 362.015625 185.660156 361.953125 185.609375 C 361.890625 185.554688 361.859375 185.476562 361.859375 185.375 C 361.859375 185.164062 361.960938 185.0625 362.171875 185.0625 Z M 363.921875 186.5625 C 364.003906 186.5625 364.070312 186.601562 364.125 186.6875 C 364.1875 186.78125 364.21875 186.882812 364.21875 187 C 364.21875 187.113281 364.1875 187.210938 364.125 187.296875 C 364.070312 187.390625 364.003906 187.4375 363.921875 187.4375 L 362.171875 187.328125 C 362.085938 187.328125 362.015625 187.296875 361.953125 187.234375 C 361.890625 187.179688 361.859375 187.101562 361.859375 187 C 361.859375 186.789062 361.960938 186.6875 362.171875 186.6875 Z M 353.875 188.132812 C 354.460938 188.132812 354.898438 188.453125 355.1875 189.101562 C 355.332031 188.695312 355.597656 188.492188 355.984375 188.492188 C 356.347656 188.492188 356.644531 188.6875 356.875 189.085938 C 357.238281 188.636719 357.742188 188.414062 358.390625 188.414062 L 358.78125 188.414062 C 359.363281 188.414062 359.835938 188.605469 360.203125 188.992188 C 360.578125 189.386719 360.765625 189.902344 360.765625 190.539062 C 360.765625 191.078125 360.609375 191.546875 360.296875 191.945312 C 360.816406 192.183594 361.078125 192.453125 361.078125 192.757812 C 361.078125 192.890625 361.035156 192.996094 360.953125 193.070312 C 360.878906 193.152344 360.796875 193.195312 360.703125 193.195312 C 360.578125 193.195312 360.484375 193.125 360.421875 192.992188 C 360.347656 192.71875 360.179688 192.5 359.921875 192.335938 C 359.617188 192.585938 359.238281 192.710938 358.78125 192.710938 L 358.390625 192.710938 C 357.804688 192.710938 357.328125 192.507812 356.953125 192.101562 C 356.578125 191.695312 356.390625 191.171875 356.390625 190.539062 C 356.390625 190.214844 356.453125 189.917969 356.578125 189.648438 C 356.453125 189.449219 356.3125 189.351562 356.15625 189.351562 C 356.007812 189.351562 355.894531 189.445312 355.8125 189.632812 C 355.726562 189.820312 355.675781 190.046875 355.65625 190.320312 C 355.632812 190.589844 355.59375 190.882812 355.53125 191.195312 C 355.476562 191.515625 355.40625 191.8125 355.3125 192.085938 C 355.226562 192.355469 355.078125 192.585938 354.859375 192.773438 C 354.632812 192.960938 354.34375 193.054688 354 193.054688 C 353.4375 193.054688 353.007812 192.824219 352.703125 192.367188 C 352.402344 191.917969 352.25 191.335938 352.25 190.617188 C 352.25 189.898438 352.398438 189.304688 352.6875 188.835938 C 352.980469 188.367188 353.375 188.132812 353.875 188.132812 Z M 353.984375 189.085938 C 353.671875 189.085938 353.421875 189.21875 353.234375 189.492188 C 353.046875 189.773438 352.953125 190.140625 352.953125 190.601562 C 352.953125 191.046875 353.046875 191.40625 353.234375 191.679688 C 353.421875 191.949219 353.671875 192.085938 353.984375 192.085938 C 354.109375 192.085938 354.21875 192.058594 354.3125 192.007812 C 354.40625 191.964844 354.492188 191.898438 354.5625 191.804688 C 354.625 191.710938 354.679688 191.609375 354.71875 191.507812 C 354.761719 191.414062 354.796875 191.289062 354.828125 191.132812 C 354.859375 190.984375 354.882812 190.859375 354.890625 190.757812 C 354.902344 190.664062 354.917969 190.53125 354.9375 190.367188 C 354.949219 190.199219 354.960938 190.085938 354.96875 190.023438 C 354.761719 189.398438 354.433594 189.085938 353.984375 189.085938 Z M 358.390625 189.382812 C 358.003906 189.382812 357.6875 189.484375 357.4375 189.695312 C 357.195312 189.902344 357.078125 190.195312 357.078125 190.570312 C 357.078125 190.921875 357.195312 191.203125 357.4375 191.414062 C 357.6875 191.632812 358.003906 191.742188 358.390625 191.742188 L 358.78125 191.742188 C 359.144531 191.742188 359.453125 191.632812 359.703125 191.414062 C 359.953125 191.203125 360.078125 190.917969 360.078125 190.554688 C 360.078125 190.1875 359.953125 189.902344 359.703125 189.695312 C 359.460938 189.484375 359.15625 189.382812 358.78125 189.382812 Z M 355.359375 194.050781 L 360.34375 194.050781 C 360.445312 194.050781 360.53125 194.097656 360.59375 194.191406 C 360.65625 194.285156 360.6875 194.402344 360.6875 194.550781 C 360.6875 194.675781 360.65625 194.777344 360.59375 194.863281 C 360.53125 194.957031 360.445312 195.003906 360.34375 195.003906 L 359.78125 195.003906 C 360.050781 195.148438 360.28125 195.363281 360.46875 195.644531 C 360.664062 195.925781 360.765625 196.238281 360.765625 196.582031 L 360.765625 196.988281 C 360.765625 197.089844 360.71875 197.179688 360.625 197.253906 C 360.53125 197.324219 360.421875 197.363281 360.296875 197.363281 C 360.179688 197.363281 360.078125 197.324219 359.984375 197.253906 C 359.898438 197.179688 359.859375 197.089844 359.859375 196.988281 L 359.859375 196.582031 C 359.859375 196.164062 359.691406 195.804688 359.359375 195.503906 C 359.035156 195.199219 358.613281 195.050781 358.09375 195.050781 L 355.359375 195.050781 C 355.273438 195.050781 355.191406 194.996094 355.109375 194.894531 C 355.035156 194.800781 355 194.683594 355 194.550781 C 355 194.414062 355.035156 194.292969 355.109375 194.191406 C 355.179688 194.097656 355.265625 194.050781 355.359375 194.050781 Z M 357.234375 197.960938 L 358.484375 197.960938 C 359.109375 197.960938 359.644531 198.195312 360.09375 198.664062 C 360.539062 199.132812 360.765625 199.695312 360.765625 200.351562 C 360.765625 200.976562 360.550781 201.515625 360.125 201.976562 C 359.707031 202.433594 359.179688 202.664062 358.546875 202.664062 C 358.316406 202.664062 358.128906 202.632812 357.984375 202.570312 C 357.847656 202.515625 357.75 202.433594 357.6875 202.320312 C 357.632812 202.203125 357.597656 202.09375 357.578125 201.992188 C 357.566406 201.898438 357.5625 201.761719 357.5625 201.585938 L 357.5625 198.960938 L 357.203125 198.960938 C 356.753906 198.960938 356.398438 199.117188 356.140625 199.429688 C 355.878906 199.75 355.75 200.164062 355.75 200.664062 C 355.75 200.933594 355.785156 201.164062 355.859375 201.351562 C 355.941406 201.546875 356.019531 201.703125 356.09375 201.820312 C 356.175781 201.945312 356.21875 202.042969 356.21875 202.117188 C 356.21875 202.230469 356.164062 202.324219 356.0625 202.398438 C 355.957031 202.480469 355.851562 202.523438 355.75 202.523438 C 355.570312 202.523438 355.382812 202.339844 355.1875 201.976562 C 355 201.609375 354.90625 201.164062 354.90625 200.632812 C 354.90625 199.851562 355.117188 199.210938 355.546875 198.710938 C 355.972656 198.210938 356.535156 197.960938 357.234375 197.960938 Z M 358.234375 198.960938 L 358.234375 201.179688 C 358.234375 201.386719 358.257812 201.527344 358.3125 201.601562 C 358.363281 201.671875 358.460938 201.710938 358.609375 201.710938 C 358.972656 201.710938 359.289062 201.574219 359.5625 201.304688 C 359.832031 201.042969 359.96875 200.726562 359.96875 200.351562 C 359.96875 199.964844 359.84375 199.636719 359.59375 199.367188 C 359.34375 199.09375 359.03125 198.960938 358.65625 198.960938 Z M 360.28125 203.199219 C 360.40625 203.199219 360.515625 203.269531 360.609375 203.417969 C 360.710938 203.5625 360.765625 203.707031 360.765625 203.855469 C 360.765625 204.019531 360.695312 204.125 360.5625 204.167969 L 356.375 205.761719 L 360.5625 207.183594 C 360.695312 207.246094 360.765625 207.347656 360.765625 207.496094 C 360.765625 207.628906 360.710938 207.769531 360.609375 207.917969 C 360.515625 208.074219 360.398438 208.152344 360.265625 208.152344 C 360.222656 208.152344 360.179688 208.136719 360.140625 208.105469 L 355.265625 206.292969 L 354.65625 206.058594 C 354.554688 206.015625 354.367188 205.933594 354.09375 205.808594 C 353.824219 205.691406 353.625 205.59375 353.5 205.511719 C 353.375 205.4375 353.21875 205.328125 353.03125 205.183594 C 352.835938 205.035156 352.695312 204.894531 352.609375 204.761719 C 352.515625 204.625 352.433594 204.464844 352.359375 204.277344 C 352.289062 204.089844 352.25 203.890625 352.25 203.683594 C 352.25 203.371094 352.402344 203.214844 352.703125 203.214844 C 352.984375 203.214844 353.125 203.308594 353.125 203.496094 C 353.125 203.859375 353.328125 204.207031 353.734375 204.542969 C 354.140625 204.886719 354.65625 205.121094 355.28125 205.246094 L 360.140625 203.246094 C 360.191406 203.214844 360.238281 203.199219 360.28125 203.199219 Z M 355.359375 211.421875 L 363.765625 211.421875 C 363.867188 211.421875 363.953125 211.46875 364.015625 211.5625 C 364.085938 211.65625 364.125 211.769531 364.125 211.90625 C 364.125 212.050781 364.085938 212.171875 364.015625 212.265625 C 363.953125 212.367188 363.867188 212.421875 363.765625 212.421875 L 359.84375 212.421875 C 360.101562 212.566406 360.320312 212.773438 360.5 213.046875 C 360.675781 213.316406 360.765625 213.628906 360.765625 213.984375 C 360.765625 214.566406 360.535156 215.070312 360.078125 215.5 C 359.628906 215.925781 359.085938 216.140625 358.453125 216.140625 L 357.234375 216.140625 C 356.617188 216.140625 356.078125 215.925781 355.609375 215.5 C 355.140625 215.070312 354.90625 214.582031 354.90625 214.03125 C 354.90625 213.664062 354.996094 213.332031 355.171875 213.03125 C 355.359375 212.726562 355.582031 212.507812 355.84375 212.375 L 355.359375 212.375 C 355.265625 212.375 355.179688 212.328125 355.109375 212.234375 C 355.035156 212.140625 355 212.035156 355 211.921875 C 355 211.785156 355.035156 211.664062 355.109375 211.5625 C 355.179688 211.46875 355.265625 211.421875 355.359375 211.421875 Z M 356.90625 212.421875 C 356.707031 212.421875 356.472656 212.5625 356.203125 212.84375 C 355.929688 213.125 355.796875 213.4375 355.796875 213.78125 C 355.796875 214.144531 355.941406 214.460938 356.234375 214.734375 C 356.535156 215.003906 356.867188 215.140625 357.234375 215.140625 L 358.453125 215.140625 C 358.816406 215.140625 359.140625 215.003906 359.421875 214.734375 C 359.710938 214.460938 359.859375 214.144531 359.859375 213.78125 C 359.859375 213.414062 359.726562 213.097656 359.46875 212.828125 C 359.207031 212.554688 358.867188 212.421875 358.453125 212.421875 Z M 355.359375 217.441406 L 363.765625 217.441406 C 363.867188 217.441406 363.953125 217.488281 364.015625 217.582031 C 364.085938 217.675781 364.125 217.792969 364.125 217.941406 C 364.125 218.085938 364.085938 218.207031 364.015625 218.300781 C 363.953125 218.394531 363.867188 218.441406 363.765625 218.441406 L 355.359375 218.441406 C 355.273438 218.441406 355.191406 218.386719 355.109375 218.285156 C 355.035156 218.191406 355 218.074219 355 217.941406 C 355 217.804688 355.035156 217.683594 355.109375 217.582031 C 355.179688 217.488281 355.265625 217.441406 355.359375 217.441406 Z M 356.5 219.601562 C 357.125 219.601562 357.554688 219.839844 357.796875 220.320312 C 358.046875 220.796875 358.171875 221.492188 358.171875 222.398438 L 358.171875 222.976562 L 358.421875 222.976562 C 358.816406 222.976562 359.160156 222.867188 359.453125 222.648438 C 359.753906 222.429688 359.90625 222.101562 359.90625 221.664062 C 359.90625 221.320312 359.847656 221.015625 359.734375 220.757812 C 359.617188 220.507812 359.5625 220.371094 359.5625 220.351562 C 359.5625 220.234375 359.613281 220.140625 359.71875 220.070312 C 359.832031 220.007812 359.945312 219.976562 360.0625 219.976562 C 360.25 219.976562 360.410156 220.15625 360.546875 220.523438 C 360.691406 220.886719 360.765625 221.273438 360.765625 221.679688 C 360.765625 222.460938 360.539062 223.039062 360.09375 223.414062 C 359.644531 223.789062 359.09375 223.976562 358.4375 223.976562 L 355.359375 223.976562 C 355.253906 223.976562 355.164062 223.929688 355.09375 223.835938 C 355.03125 223.742188 355 223.621094 355 223.476562 C 355 223.351562 355.03125 223.242188 355.09375 223.148438 C 355.164062 223.0625 355.253906 223.023438 355.359375 223.023438 L 355.84375 223.023438 C 355.21875 222.480469 354.90625 221.875 354.90625 221.210938 C 354.90625 220.730469 355.039062 220.339844 355.3125 220.039062 C 355.582031 219.746094 355.976562 219.601562 356.5 219.601562 Z M 356.609375 220.601562 C 356.304688 220.601562 356.078125 220.683594 355.921875 220.851562 C 355.773438 221.015625 355.703125 221.242188 355.703125 221.523438 C 355.703125 221.855469 355.835938 222.179688 356.109375 222.492188 C 356.378906 222.8125 356.65625 222.976562 356.9375 222.976562 L 357.5625 222.976562 L 357.5625 222.554688 C 357.5625 222.324219 357.550781 222.125 357.53125 221.960938 C 357.519531 221.792969 357.492188 221.617188 357.453125 221.429688 C 357.421875 221.25 357.367188 221.105469 357.296875 220.992188 C 357.234375 220.875 357.144531 220.78125 357.03125 220.710938 C 356.914062 220.636719 356.773438 220.601562 356.609375 220.601562 Z M 357.234375 225.132812 L 358.4375 225.132812 C 359.125 225.132812 359.679688 225.335938 360.109375 225.742188 C 360.546875 226.148438 360.765625 226.742188 360.765625 227.523438 C 360.765625 228.023438 360.675781 228.4375 360.5 228.773438 C 360.320312 229.117188 360.132812 229.289062 359.9375 229.289062 C 359.820312 229.289062 359.707031 229.246094 359.59375 229.164062 C 359.488281 229.078125 359.4375 228.980469 359.4375 228.867188 C 359.4375 228.835938 359.503906 228.695312 359.640625 228.445312 C 359.785156 228.203125 359.859375 227.921875 359.859375 227.601562 C 359.859375 227.121094 359.734375 226.757812 359.484375 226.507812 C 359.234375 226.257812 358.882812 226.132812 358.4375 226.132812 L 357.234375 226.132812 C 356.273438 226.132812 355.796875 226.621094 355.796875 227.601562 C 355.796875 227.945312 355.867188 228.234375 356.015625 228.476562 C 356.160156 228.726562 356.234375 228.871094 356.234375 228.914062 C 356.234375 229.039062 356.179688 229.140625 356.078125 229.226562 C 355.972656 229.320312 355.863281 229.367188 355.75 229.367188 C 355.550781 229.367188 355.359375 229.1875 355.171875 228.835938 C 354.996094 228.480469 354.90625 228.046875 354.90625 227.539062 C 354.90625 226.746094 355.117188 226.148438 355.546875 225.742188 C 355.972656 225.335938 356.535156 225.132812 357.234375 225.132812 Z M 355.359375 230.355469 L 363.765625 230.355469 C 363.867188 230.355469 363.953125 230.402344 364.015625 230.496094 C 364.085938 230.589844 364.125 230.703125 364.125 230.839844 C 364.125 230.984375 364.085938 231.105469 364.015625 231.199219 C 363.953125 231.300781 363.867188 231.355469 363.765625 231.355469 L 358.15625 231.355469 L 360.625 234.089844 C 360.6875 234.160156 360.71875 234.234375 360.71875 234.308594 C 360.71875 234.421875 360.664062 234.53125 360.5625 234.636719 C 360.46875 234.75 360.363281 234.808594 360.25 234.808594 C 360.144531 234.808594 360.0625 234.769531 360 234.699219 L 358.53125 233.027344 L 355.640625 235.027344 C 355.578125 235.066406 355.515625 235.089844 355.453125 235.089844 C 355.335938 235.089844 355.222656 235.027344 355.109375 234.902344 C 355.003906 234.785156 354.953125 234.660156 354.953125 234.527344 C 354.953125 234.421875 355.003906 234.332031 355.109375 234.261719 L 357.90625 232.355469 L 357.015625 231.355469 L 355.359375 231.355469 C 355.273438 231.355469 355.191406 231.300781 355.109375 231.199219 C 355.035156 231.105469 355 230.988281 355 230.855469 C 355 230.71875 355.035156 230.597656 355.109375 230.496094 C 355.179688 230.402344 355.265625 230.355469 355.359375 230.355469 Z M 363.921875 235.664062 C 364.003906 235.664062 364.070312 235.703125 364.125 235.789062 C 364.1875 235.882812 364.21875 235.980469 364.21875 236.085938 C 364.21875 236.199219 364.1875 236.304688 364.125 236.398438 C 364.070312 236.492188 364.003906 236.539062 363.921875 236.539062 L 362.171875 236.414062 C 362.085938 236.414062 362.015625 236.386719 361.953125 236.335938 C 361.890625 236.28125 361.859375 236.203125 361.859375 236.101562 C 361.859375 235.890625 361.960938 235.789062 362.171875 235.789062 Z M 363.921875 237.289062 C 364.003906 237.289062 364.070312 237.328125 364.125 237.414062 C 364.1875 237.507812 364.21875 237.609375 364.21875 237.726562 C 364.21875 237.839844 364.1875 237.9375 364.125 238.023438 C 364.070312 238.117188 364.003906 238.164062 363.921875 238.164062 L 362.171875 238.054688 C 362.085938 238.054688 362.015625 238.023438 361.953125 237.960938 C 361.890625 237.90625 361.859375 237.828125 361.859375 237.726562 C 361.859375 237.515625 361.960938 237.414062 362.171875 237.414062 Z M 355 238.589844 "/>
</g>
</svg>
