<?xml version="1.0" encoding="UTF-8"?>
<svg xmlns="http://www.w3.org/2000/svg" xmlns:xlink="http://www.w3.org/1999/xlink" width="100pt" height="697pt" viewBox="0 0 100 697" version="1.1">
<g id="surface1">
<rect x="0" y="0" width="100" height="697" style="fill:rgb(100%,100%,100%);fill-opacity:1;stroke:none;"/>
<path style=" stroke:none;fill-rule:nonzero;fill:rgb(0%,0%,0%);fill-opacity:1;" d="M 4 0 L 20 0 L 20 4 L 4 4 Z M 4 0 "/>
<path style=" stroke:none;fill-rule:nonzero;fill:rgb(0%,0%,0%);fill-opacity:1;" d="M 24 0 L 36 0 L 36 4 L 24 4 Z M 24 0 "/>
<path style=" stroke:none;fill-rule:nonzero;fill:rgb(0%,0%,0%);fill-opacity:1;" d="M 40 0 L 44 0 L 44 4 L 40 4 Z M 40 0 "/>
<path style=" stroke:none;fill-rule:nonzero;fill:rgb(0%,0%,0%);fill-opacity:1;" d="M 48 0 L 64 0 L 64 4 L 48 4 Z M 48 0 "/>
<path style=" stroke:none;fill-rule:nonzero;fill:rgb(0%,0%,0%);fill-opacity:1;" d="M 68 0 L 100 0 L 100 4 L 68 4 Z M 68 0 "/>
<path style=" stroke:none;fill-rule:nonzero;fill:rgb(0%,0%,0%);fill-opacity:1;" d="M 0 4 L 8 4 L 8 8 L 0 8 Z M 0 4 "/>
<path style=" stroke:none;fill-rule:nonzero;fill:rgb(0%,0%,0%);fill-opacity:1;" d="M 16 4 L 28 4 L 28 8 L 16 8 Z M 16 4 "/>
<path style=" stroke:none;fill-rule:nonzero;fill:rgb(0%,0%,0%);fill-opacity:1;" d="M 32 4 L 48 4 L 48 8 L 32 8 Z M 32 4 "/>
<path style=" stroke:none;fill-rule:nonzero;fill:rgb(0%,0%,0%);fill-opacity:1;" d="M 52 4 L 68 4 L 68 8 L 52 8 Z M 52 4 "/>
<path style=" stroke:none;fill-rule:nonzero;fill:rgb(0%,0%,0%);fill-opacity:1;" d="M 72 4 L 76 4 L 76 8 L 72 8 Z M 72 4 "/>
<path style=" stroke:none;fill-rule:nonzero;fill:rgb(0%,0%,0%);fill-opacity:1;" d="M 80 4 L 96 4 L 96 8 L 80 8 Z M 80 4 "/>
<path style=" stroke:none;fill-rule:nonzero;fill:rgb(0%,0%,0%);fill-opacity:1;" d="M 0 8 L 12 8 L 12 12 L 0 12 Z M 0 8 "/>
<path style=" stroke:none;fill-rule:nonzero;fill:rgb(0%,0%,0%);fill-opacity:1;" d="M 20 8 L 100 8 L 100 12 L 20 12 Z M 20 8 "/>
<path style=" stroke:none;fill-rule:nonzero;fill:rgb(0%,0%,0%);fill-opacity:1;" d="M 0 12 L 12 12 L 12 16 L 0 16 Z M 0 12 "/>
<path style=" stroke:none;fill-rule:nonzero;fill:rgb(0%,0%,0%);fill-opacity:1;" d="M 16 12 L 40 12 L 40 16 L 16 16 Z M 16 12 "/>
<path style=" stroke:none;fill-rule:nonzero;fill:rgb(0%,0%,0%);fill-opacity:1;" d="M 44 12 L 64 12 L 64 16 L 44 16 Z M 44 12 "/>
<path style=" stroke:none;fill-rule:nonzero;fill:rgb(0%,0%,0%);fill-opacity:1;" d="M 72 12 L 100 12 L 100 16 L 72 16 Z M 72 12 "/>
<path style=" stroke:none;fill-rule:nonzero;fill:rgb(0%,0%,0%);fill-opacity:1;" d="M 0 16 L 4 16 L 4 20 L 0 20 Z M 0 16 "/>
<path style=" stroke:none;fill-rule:nonzero;fill:rgb(0%,0%,0%);fill-opacity:1;" d="M 8 16 L 32 16 L 32 20 L 8 20 Z M 8 16 "/>
<path style=" stroke:none;fill-rule:nonzero;fill:rgb(0%,0%,0%);fill-opacity:1;" d="M 36 16 L 96 16 L 96 20 L 36 20 Z M 36 16 "/>
<path style=" stroke:none;fill-rule:nonzero;fill:rgb(0%,0%,0%);fill-opacity:1;" d="M 0 20 L 12 20 L 12 24 L 0 24 Z M 0 20 "/>
<path style=" stroke:none;fill-rule:nonzero;fill:rgb(0%,0%,0%);fill-opacity:1;" d="M 16 20 L 24 20 L 24 24 L 16 24 Z M 16 20 "/>
<path style=" stroke:none;fill-rule:nonzero;fill:rgb(0%,0%,0%);fill-opacity:1;" d="M 28 20 L 36 20 L 36 24 L 28 24 Z M 28 20 "/>
<path style=" stroke:none;fill-rule:nonzero;fill:rgb(0%,0%,0%);fill-opacity:1;" d="M 40 20 L 52 20 L 52 24 L 40 24 Z M 40 20 "/>
<path style=" stroke:none;fill-rule:nonzero;fill:rgb(0%,0%,0%);fill-opacity:1;" d="M 56 20 L 92 20 L 92 24 L 56 24 Z M 56 20 "/>
<path style=" stroke:none;fill-rule:nonzero;fill:rgb(0%,0%,0%);fill-opacity:1;" d="M 96 20 L 100 20 L 100 24 L 96 24 Z M 96 20 "/>
<path style=" stroke:none;fill-rule:nonzero;fill:rgb(0%,0%,0%);fill-opacity:1;" d="M 0 24 L 4 24 L 4 28 L 0 28 Z M 0 24 "/>
<path style=" stroke:none;fill-rule:nonzero;fill:rgb(0%,0%,0%);fill-opacity:1;" d="M 8 24 L 24 24 L 24 28 L 8 28 Z M 8 24 "/>
<path style=" stroke:none;fill-rule:nonzero;fill:rgb(0%,0%,0%);fill-opacity:1;" d="M 28 24 L 36 24 L 36 28 L 28 28 Z M 28 24 "/>
<path style=" stroke:none;fill-rule:nonzero;fill:rgb(0%,0%,0%);fill-opacity:1;" d="M 40 24 L 52 24 L 52 28 L 40 28 Z M 40 24 "/>
<path style=" stroke:none;fill-rule:nonzero;fill:rgb(0%,0%,0%);fill-opacity:1;" d="M 56 24 L 100 24 L 100 28 L 56 28 Z M 56 24 "/>
<path style=" stroke:none;fill-rule:nonzero;fill:rgb(0%,0%,0%);fill-opacity:1;" d="M 4 28 L 44 28 L 44 32 L 4 32 Z M 4 28 "/>
<path style=" stroke:none;fill-rule:nonzero;fill:rgb(0%,0%,0%);fill-opacity:1;" d="M 48 28 L 60 28 L 60 32 L 48 32 Z M 48 28 "/>
<path style=" stroke:none;fill-rule:nonzero;fill:rgb(0%,0%,0%);fill-opacity:1;" d="M 64 28 L 72 28 L 72 32 L 64 32 Z M 64 28 "/>
<path style=" stroke:none;fill-rule:nonzero;fill:rgb(0%,0%,0%);fill-opacity:1;" d="M 76 28 L 100 28 L 100 32 L 76 32 Z M 76 28 "/>
<path style=" stroke:none;fill-rule:nonzero;fill:rgb(0%,0%,0%);fill-opacity:1;" d="M 0 32 L 8 32 L 8 36 L 0 36 Z M 0 32 "/>
<path style=" stroke:none;fill-rule:nonzero;fill:rgb(0%,0%,0%);fill-opacity:1;" d="M 56 32 L 68 32 L 68 36 L 56 36 Z M 56 32 "/>
<path style=" stroke:none;fill-rule:nonzero;fill:rgb(0%,0%,0%);fill-opacity:1;" d="M 80 32 L 84 32 L 84 36 L 80 36 Z M 80 32 "/>
<path style=" stroke:none;fill-rule:nonzero;fill:rgb(0%,0%,0%);fill-opacity:1;" d="M 88 32 L 92 32 L 92 36 L 88 36 Z M 88 32 "/>
<path style=" stroke:none;fill-rule:nonzero;fill:rgb(0%,0%,0%);fill-opacity:1;" d="M 0 36 L 4 36 L 4 40 L 0 40 Z M 0 36 "/>
<path style=" stroke:none;fill-rule:nonzero;fill:rgb(0%,0%,0%);fill-opacity:1;" d="M 24 36 L 36 36 L 36 40 L 24 40 Z M 24 36 "/>
<path style=" stroke:none;fill-rule:nonzero;fill:rgb(0%,0%,0%);fill-opacity:1;" d="M 40 36 L 48 36 L 48 40 L 40 40 Z M 40 36 "/>
<path style=" stroke:none;fill-rule:nonzero;fill:rgb(0%,0%,0%);fill-opacity:1;" d="M 56 36 L 60 36 L 60 40 L 56 40 Z M 56 36 "/>
<path style=" stroke:none;fill-rule:nonzero;fill:rgb(0%,0%,0%);fill-opacity:1;" d="M 64 36 L 68 36 L 68 40 L 64 40 Z M 64 36 "/>
<path style=" stroke:none;fill-rule:nonzero;fill:rgb(0%,0%,0%);fill-opacity:1;" d="M 72 36 L 92 36 L 92 40 L 72 40 Z M 72 36 "/>
<path style=" stroke:none;fill-rule:nonzero;fill:rgb(0%,0%,0%);fill-opacity:1;" d="M 0 40 L 16 40 L 16 44 L 0 44 Z M 0 40 "/>
<path style=" stroke:none;fill-rule:nonzero;fill:rgb(0%,0%,0%);fill-opacity:1;" d="M 20 40 L 28 40 L 28 44 L 20 44 Z M 20 40 "/>
<path style=" stroke:none;fill-rule:nonzero;fill:rgb(0%,0%,0%);fill-opacity:1;" d="M 32 40 L 56 40 L 56 44 L 32 44 Z M 32 40 "/>
<path style=" stroke:none;fill-rule:nonzero;fill:rgb(0%,0%,0%);fill-opacity:1;" d="M 64 40 L 84 40 L 84 44 L 64 44 Z M 64 40 "/>
<path style=" stroke:none;fill-rule:nonzero;fill:rgb(0%,0%,0%);fill-opacity:1;" d="M 88 40 L 100 40 L 100 44 L 88 44 Z M 88 40 "/>
<path style=" stroke:none;fill-rule:nonzero;fill:rgb(0%,0%,0%);fill-opacity:1;" d="M 32 44 L 36 44 L 36 48 L 32 48 Z M 32 44 "/>
<path style=" stroke:none;fill-rule:nonzero;fill:rgb(0%,0%,0%);fill-opacity:1;" d="M 48 44 L 52 44 L 52 48 L 48 48 Z M 48 44 "/>
<path style=" stroke:none;fill-rule:nonzero;fill:rgb(0%,0%,0%);fill-opacity:1;" d="M 76 44 L 80 44 L 80 48 L 76 48 Z M 76 44 "/>
<path style=" stroke:none;fill-rule:nonzero;fill:rgb(0%,0%,0%);fill-opacity:1;" d="M 40 48 L 44 48 L 44 52 L 40 52 Z M 40 48 "/>
<path style=" stroke:none;fill-rule:nonzero;fill:rgb(0%,0%,0%);fill-opacity:1;" d="M 52 48 L 56 48 L 56 52 L 52 52 Z M 52 48 "/>
<path style=" stroke:none;fill-rule:nonzero;fill:rgb(0%,0%,0%);fill-opacity:1;" d="M 0 52 L 4 52 L 4 56 L 0 56 Z M 0 52 "/>
<path style=" stroke:none;fill-rule:nonzero;fill:rgb(0%,0%,0%);fill-opacity:1;" d="M 44 52 L 48 52 L 48 56 L 44 56 Z M 44 52 "/>
<path style=" stroke:none;fill-rule:nonzero;fill:rgb(0%,0%,0%);fill-opacity:1;" d="M 60 52 L 64 52 L 64 56 L 60 56 Z M 60 52 "/>
<path style=" stroke:none;fill-rule:nonzero;fill:rgb(0%,0%,0%);fill-opacity:1;" d="M 80 52 L 84 52 L 84 56 L 80 56 Z M 80 52 "/>
<path style=" stroke:none;fill-rule:nonzero;fill:rgb(0%,0%,0%);fill-opacity:1;" d="M 28 56 L 32 56 L 32 60 L 28 60 Z M 28 56 "/>
<path style=" stroke:none;fill-rule:nonzero;fill:rgb(0%,0%,0%);fill-opacity:1;" d="M 40 56 L 44 56 L 44 60 L 40 60 Z M 40 56 "/>
<path style=" stroke:none;fill-rule:nonzero;fill:rgb(0%,0%,0%);fill-opacity:1;" d="M 64 56 L 68 56 L 68 60 L 64 60 Z M 64 56 "/>
<path style=" stroke:none;fill-rule:nonzero;fill:rgb(0%,0%,0%);fill-opacity:1;" d="M 72 56 L 76 56 L 76 60 L 72 60 Z M 72 56 "/>
<path style=" stroke:none;fill-rule:nonzero;fill:rgb(0%,0%,0%);fill-opacity:1;" d="M 0 60 L 4 60 L 4 64 L 0 64 Z M 0 60 "/>
<path style=" stroke:none;fill-rule:nonzero;fill:rgb(0%,0%,0%);fill-opacity:1;" d="M 12 60 L 16 60 L 16 64 L 12 64 Z M 12 60 "/>
<path style=" stroke:none;fill-rule:nonzero;fill:rgb(0%,0%,0%);fill-opacity:1;" d="M 40 60 L 44 60 L 44 64 L 40 64 Z M 40 60 "/>
<path style=" stroke:none;fill-rule:nonzero;fill:rgb(0%,0%,0%);fill-opacity:1;" d="M 48 60 L 52 60 L 52 64 L 48 64 Z M 48 60 "/>
<path style=" stroke:none;fill-rule:nonzero;fill:rgb(0%,0%,0%);fill-opacity:1;" d="M 76 60 L 80 60 L 80 64 L 76 64 Z M 76 60 "/>
<path style=" stroke:none;fill-rule:nonzero;fill:rgb(0%,0%,0%);fill-opacity:1;" d="M 12 64 L 16 64 L 16 68 L 12 68 Z M 12 64 "/>
<path style=" stroke:none;fill-rule:nonzero;fill:rgb(0%,0%,0%);fill-opacity:1;" d="M 44 64 L 48 64 L 48 68 L 44 68 Z M 44 64 "/>
<path style=" stroke:none;fill-rule:nonzero;fill:rgb(0%,0%,0%);fill-opacity:1;" d="M 68 64 L 72 64 L 72 68 L 68 68 Z M 68 64 "/>
<path style=" stroke:none;fill-rule:nonzero;fill:rgb(0%,0%,0%);fill-opacity:1;" d="M 20 68 L 24 68 L 24 72 L 20 72 Z M 20 68 "/>
<path style=" stroke:none;fill-rule:nonzero;fill:rgb(0%,0%,0%);fill-opacity:1;" d="M 60 72 L 64 72 L 64 76 L 60 76 Z M 60 72 "/>
<path style=" stroke:none;fill-rule:nonzero;fill:rgb(0%,0%,0%);fill-opacity:1;" d="M 72 72 L 76 72 L 76 76 L 72 76 Z M 72 72 "/>
<path style=" stroke:none;fill-rule:nonzero;fill:rgb(0%,0%,0%);fill-opacity:1;" d="M 88 72 L 92 72 L 92 76 L 88 76 Z M 88 72 "/>
<path style=" stroke:none;fill-rule:nonzero;fill:rgb(0%,0%,0%);fill-opacity:1;" d="M 24 76 L 28 76 L 28 80 L 24 80 Z M 24 76 "/>
<path style=" stroke:none;fill-rule:nonzero;fill:rgb(0%,0%,0%);fill-opacity:1;" d="M 60 76 L 64 76 L 64 80 L 60 80 Z M 60 76 "/>
<path style=" stroke:none;fill-rule:nonzero;fill:rgb(0%,0%,0%);fill-opacity:1;" d="M 96 76 L 100 76 L 100 80 L 96 80 Z M 96 76 "/>
<path style=" stroke:none;fill-rule:nonzero;fill:rgb(0%,0%,0%);fill-opacity:1;" d="M 4 80 L 12 80 L 12 84 L 4 84 Z M 4 80 "/>
<path style=" stroke:none;fill-rule:nonzero;fill:rgb(0%,0%,0%);fill-opacity:1;" d="M 64 80 L 72 80 L 72 84 L 64 84 Z M 64 80 "/>
<path style=" stroke:none;fill-rule:nonzero;fill:rgb(0%,0%,0%);fill-opacity:1;" d="M 24 84 L 28 84 L 28 88 L 24 88 Z M 24 84 "/>
<path style=" stroke:none;fill-rule:nonzero;fill:rgb(0%,0%,0%);fill-opacity:1;" d="M 44 84 L 48 84 L 48 88 L 44 88 Z M 44 84 "/>
<path style=" stroke:none;fill-rule:nonzero;fill:rgb(0%,0%,0%);fill-opacity:1;" d="M 72 84 L 76 84 L 76 88 L 72 88 Z M 72 84 "/>
<path style=" stroke:none;fill-rule:nonzero;fill:rgb(0%,0%,0%);fill-opacity:1;" d="M 88 84 L 92 84 L 92 88 L 88 88 Z M 88 84 "/>
<path style=" stroke:none;fill-rule:nonzero;fill:rgb(0%,0%,0%);fill-opacity:1;" d="M 12 88 L 16 88 L 16 92 L 12 92 Z M 12 88 "/>
<path style=" stroke:none;fill-rule:nonzero;fill:rgb(0%,0%,0%);fill-opacity:1;" d="M 20 88 L 24 88 L 24 92 L 20 92 Z M 20 88 "/>
<path style=" stroke:none;fill-rule:nonzero;fill:rgb(0%,0%,0%);fill-opacity:1;" d="M 48 88 L 52 88 L 52 92 L 48 92 Z M 48 88 "/>
<path style=" stroke:none;fill-rule:nonzero;fill:rgb(0%,0%,0%);fill-opacity:1;" d="M 68 88 L 72 88 L 72 92 L 68 92 Z M 68 88 "/>
<path style=" stroke:none;fill-rule:nonzero;fill:rgb(0%,0%,0%);fill-opacity:1;" d="M 12 92 L 16 92 L 16 96 L 12 96 Z M 12 92 "/>
<path style=" stroke:none;fill-rule:nonzero;fill:rgb(0%,0%,0%);fill-opacity:1;" d="M 24 92 L 32 92 L 32 96 L 24 96 Z M 24 92 "/>
<path style=" stroke:none;fill-rule:nonzero;fill:rgb(0%,0%,0%);fill-opacity:1;" d="M 0 96 L 4 96 L 4 100 L 0 100 Z M 0 96 "/>
<path style=" stroke:none;fill-rule:nonzero;fill:rgb(0%,0%,0%);fill-opacity:1;" d="M 40 96 L 48 96 L 48 100 L 40 100 Z M 40 96 "/>
<path style=" stroke:none;fill-rule:nonzero;fill:rgb(0%,0%,0%);fill-opacity:1;" d="M 64 96 L 68 96 L 68 100 L 64 100 Z M 64 96 "/>
<path style=" stroke:none;fill-rule:nonzero;fill:rgb(0%,0%,0%);fill-opacity:1;" d="M 0 100 L 4 100 L 4 104 L 0 104 Z M 0 100 "/>
<path style=" stroke:none;fill-rule:nonzero;fill:rgb(0%,0%,0%);fill-opacity:1;" d="M 76 100 L 80 100 L 80 104 L 76 104 Z M 76 100 "/>
<path style=" stroke:none;fill-rule:nonzero;fill:rgb(0%,0%,0%);fill-opacity:1;" d="M 8 104 L 12 104 L 12 108 L 8 108 Z M 8 104 "/>
<path style=" stroke:none;fill-rule:nonzero;fill:rgb(0%,0%,0%);fill-opacity:1;" d="M 80 104 L 84 104 L 84 108 L 80 108 Z M 80 104 "/>
<path style=" stroke:none;fill-rule:nonzero;fill:rgb(0%,0%,0%);fill-opacity:1;" d="M 4 108 L 12 108 L 12 112 L 4 112 Z M 4 108 "/>
<path style=" stroke:none;fill-rule:nonzero;fill:rgb(0%,0%,0%);fill-opacity:1;" d="M 48 108 L 56 108 L 56 112 L 48 112 Z M 48 108 "/>
<path style=" stroke:none;fill-rule:nonzero;fill:rgb(0%,0%,0%);fill-opacity:1;" d="M 76 108 L 80 108 L 80 112 L 76 112 Z M 76 108 "/>
<path style=" stroke:none;fill-rule:nonzero;fill:rgb(0%,0%,0%);fill-opacity:1;" d="M 96 108 L 100 108 L 100 112 L 96 112 Z M 96 108 "/>
<path style=" stroke:none;fill-rule:nonzero;fill:rgb(0%,0%,0%);fill-opacity:1;" d="M 20 112 L 24 112 L 24 116 L 20 116 Z M 20 112 "/>
<path style=" stroke:none;fill-rule:nonzero;fill:rgb(0%,0%,0%);fill-opacity:1;" d="M 72 112 L 76 112 L 76 116 L 72 116 Z M 72 112 "/>
<path style=" stroke:none;fill-rule:nonzero;fill:rgb(0%,0%,0%);fill-opacity:1;" d="M 36 116 L 40 116 L 40 120 L 36 120 Z M 36 116 "/>
<path style=" stroke:none;fill-rule:nonzero;fill:rgb(0%,0%,0%);fill-opacity:1;" d="M 56 116 L 60 116 L 60 120 L 56 120 Z M 56 116 "/>
<path style=" stroke:none;fill-rule:nonzero;fill:rgb(0%,0%,0%);fill-opacity:1;" d="M 72 116 L 76 116 L 76 120 L 72 120 Z M 72 116 "/>
<path style=" stroke:none;fill-rule:nonzero;fill:rgb(0%,0%,0%);fill-opacity:1;" d="M 8 120 L 16 120 L 16 124 L 8 124 Z M 8 120 "/>
<path style=" stroke:none;fill-rule:nonzero;fill:rgb(0%,0%,0%);fill-opacity:1;" d="M 24 120 L 28 120 L 28 124 L 24 124 Z M 24 120 "/>
<path style=" stroke:none;fill-rule:nonzero;fill:rgb(0%,0%,0%);fill-opacity:1;" d="M 48 120 L 52 120 L 52 124 L 48 124 Z M 48 120 "/>
<path style=" stroke:none;fill-rule:nonzero;fill:rgb(0%,0%,0%);fill-opacity:1;" d="M 56 120 L 60 120 L 60 124 L 56 124 Z M 56 120 "/>
<path style=" stroke:none;fill-rule:nonzero;fill:rgb(0%,0%,0%);fill-opacity:1;" d="M 80 120 L 84 120 L 84 124 L 80 124 Z M 80 120 "/>
<path style=" stroke:none;fill-rule:nonzero;fill:rgb(0%,0%,0%);fill-opacity:1;" d="M 88 120 L 100 120 L 100 124 L 88 124 Z M 88 120 "/>
<path style=" stroke:none;fill-rule:nonzero;fill:rgb(0%,0%,0%);fill-opacity:1;" d="M 8 124 L 12 124 L 12 128 L 8 128 Z M 8 124 "/>
<path style=" stroke:none;fill-rule:nonzero;fill:rgb(0%,0%,0%);fill-opacity:1;" d="M 68 124 L 76 124 L 76 128 L 68 128 Z M 68 124 "/>
<path style=" stroke:none;fill-rule:nonzero;fill:rgb(0%,0%,0%);fill-opacity:1;" d="M 96 124 L 100 124 L 100 128 L 96 128 Z M 96 124 "/>
<path style=" stroke:none;fill-rule:nonzero;fill:rgb(0%,0%,0%);fill-opacity:1;" d="M 12 132 L 16 132 L 16 136 L 12 136 Z M 12 132 "/>
<path style=" stroke:none;fill-rule:nonzero;fill:rgb(0%,0%,0%);fill-opacity:1;" d="M 36 132 L 44 132 L 44 136 L 36 136 Z M 36 132 "/>
<path style=" stroke:none;fill-rule:nonzero;fill:rgb(0%,0%,0%);fill-opacity:1;" d="M 52 132 L 56 132 L 56 136 L 52 136 Z M 52 132 "/>
<path style=" stroke:none;fill-rule:nonzero;fill:rgb(0%,0%,0%);fill-opacity:1;" d="M 36 136 L 40 136 L 40 140 L 36 140 Z M 36 136 "/>
<path style=" stroke:none;fill-rule:nonzero;fill:rgb(0%,0%,0%);fill-opacity:1;" d="M 76 136 L 80 136 L 80 140 L 76 140 Z M 76 136 "/>
<path style=" stroke:none;fill-rule:nonzero;fill:rgb(0%,0%,0%);fill-opacity:1;" d="M 0 140 L 12 140 L 12 144 L 0 144 Z M 0 140 "/>
<path style=" stroke:none;fill-rule:nonzero;fill:rgb(0%,0%,0%);fill-opacity:1;" d="M 12 144 L 16 144 L 16 148 L 12 148 Z M 12 144 "/>
<path style=" stroke:none;fill-rule:nonzero;fill:rgb(0%,0%,0%);fill-opacity:1;" d="M 40 144 L 44 144 L 44 148 L 40 148 Z M 40 144 "/>
<path style=" stroke:none;fill-rule:nonzero;fill:rgb(0%,0%,0%);fill-opacity:1;" d="M 52 144 L 56 144 L 56 148 L 52 148 Z M 52 144 "/>
<path style=" stroke:none;fill-rule:nonzero;fill:rgb(0%,0%,0%);fill-opacity:1;" d="M 20 148 L 24 148 L 24 152 L 20 152 Z M 20 148 "/>
<path style=" stroke:none;fill-rule:nonzero;fill:rgb(0%,0%,0%);fill-opacity:1;" d="M 48 148 L 56 148 L 56 152 L 48 152 Z M 48 148 "/>
<path style=" stroke:none;fill-rule:nonzero;fill:rgb(0%,0%,0%);fill-opacity:1;" d="M 88 148 L 92 148 L 92 152 L 88 152 Z M 88 148 "/>
<path style=" stroke:none;fill-rule:nonzero;fill:rgb(0%,0%,0%);fill-opacity:1;" d="M 96 148 L 100 148 L 100 152 L 96 152 Z M 96 148 "/>
<path style=" stroke:none;fill-rule:nonzero;fill:rgb(0%,0%,0%);fill-opacity:1;" d="M 56 152 L 64 152 L 64 156 L 56 156 Z M 56 152 "/>
<path style=" stroke:none;fill-rule:nonzero;fill:rgb(0%,0%,0%);fill-opacity:1;" d="M 32 156 L 36 156 L 36 160 L 32 160 Z M 32 156 "/>
<path style=" stroke:none;fill-rule:nonzero;fill:rgb(0%,0%,0%);fill-opacity:1;" d="M 4 160 L 12 160 L 12 164 L 4 164 Z M 4 160 "/>
<path style=" stroke:none;fill-rule:nonzero;fill:rgb(0%,0%,0%);fill-opacity:1;" d="M 28 160 L 32 160 L 32 164 L 28 164 Z M 28 160 "/>
<path style=" stroke:none;fill-rule:nonzero;fill:rgb(0%,0%,0%);fill-opacity:1;" d="M 52 160 L 56 160 L 56 164 L 52 164 Z M 52 160 "/>
<path style=" stroke:none;fill-rule:nonzero;fill:rgb(0%,0%,0%);fill-opacity:1;" d="M 64 160 L 68 160 L 68 164 L 64 164 Z M 64 160 "/>
<path style=" stroke:none;fill-rule:nonzero;fill:rgb(0%,0%,0%);fill-opacity:1;" d="M 96 160 L 100 160 L 100 164 L 96 164 Z M 96 160 "/>
<path style=" stroke:none;fill-rule:nonzero;fill:rgb(0%,0%,0%);fill-opacity:1;" d="M 0 164 L 12 164 L 12 168 L 0 168 Z M 0 164 "/>
<path style=" stroke:none;fill-rule:nonzero;fill:rgb(0%,0%,0%);fill-opacity:1;" d="M 56 164 L 60 164 L 60 168 L 56 168 Z M 56 164 "/>
<path style=" stroke:none;fill-rule:nonzero;fill:rgb(0%,0%,0%);fill-opacity:1;" d="M 64 164 L 68 164 L 68 168 L 64 168 Z M 64 164 "/>
<path style=" stroke:none;fill-rule:nonzero;fill:rgb(0%,0%,0%);fill-opacity:1;" d="M 16 168 L 20 168 L 20 172 L 16 172 Z M 16 168 "/>
<path style=" stroke:none;fill-rule:nonzero;fill:rgb(0%,0%,0%);fill-opacity:1;" d="M 24 168 L 28 168 L 28 172 L 24 172 Z M 24 168 "/>
<path style=" stroke:none;fill-rule:nonzero;fill:rgb(0%,0%,0%);fill-opacity:1;" d="M 56 168 L 60 168 L 60 172 L 56 172 Z M 56 168 "/>
<path style=" stroke:none;fill-rule:nonzero;fill:rgb(0%,0%,0%);fill-opacity:1;" d="M 0 172 L 4 172 L 4 176 L 0 176 Z M 0 172 "/>
<path style=" stroke:none;fill-rule:nonzero;fill:rgb(0%,0%,0%);fill-opacity:1;" d="M 48 172 L 52 172 L 52 176 L 48 176 Z M 48 172 "/>
<path style=" stroke:none;fill-rule:nonzero;fill:rgb(0%,0%,0%);fill-opacity:1;" d="M 76 172 L 80 172 L 80 176 L 76 176 Z M 76 172 "/>
<path style=" stroke:none;fill-rule:nonzero;fill:rgb(0%,0%,0%);fill-opacity:1;" d="M 36 176 L 40 176 L 40 180 L 36 180 Z M 36 176 "/>
<path style=" stroke:none;fill-rule:nonzero;fill:rgb(0%,0%,0%);fill-opacity:1;" d="M 72 176 L 80 176 L 80 180 L 72 180 Z M 72 176 "/>
<path style=" stroke:none;fill-rule:nonzero;fill:rgb(0%,0%,0%);fill-opacity:1;" d="M 24 180 L 32 180 L 32 184 L 24 184 Z M 24 180 "/>
<path style=" stroke:none;fill-rule:nonzero;fill:rgb(0%,0%,0%);fill-opacity:1;" d="M 76 180 L 84 180 L 84 184 L 76 184 Z M 76 180 "/>
<path style=" stroke:none;fill-rule:nonzero;fill:rgb(0%,0%,0%);fill-opacity:1;" d="M 32 184 L 40 184 L 40 188 L 32 188 Z M 32 184 "/>
<path style=" stroke:none;fill-rule:nonzero;fill:rgb(0%,0%,0%);fill-opacity:1;" d="M 44 184 L 48 184 L 48 188 L 44 188 Z M 44 184 "/>
<path style=" stroke:none;fill-rule:nonzero;fill:rgb(0%,0%,0%);fill-opacity:1;" d="M 68 184 L 72 184 L 72 188 L 68 188 Z M 68 184 "/>
<path style=" stroke:none;fill-rule:nonzero;fill:rgb(0%,0%,0%);fill-opacity:1;" d="M 80 184 L 88 184 L 88 188 L 80 188 Z M 80 184 "/>
<path style=" stroke:none;fill-rule:nonzero;fill:rgb(0%,0%,0%);fill-opacity:1;" d="M 36 188 L 48 188 L 48 192 L 36 192 Z M 36 188 "/>
<path style=" stroke:none;fill-rule:nonzero;fill:rgb(0%,0%,0%);fill-opacity:1;" d="M 0 192 L 8 192 L 8 196 L 0 196 Z M 0 192 "/>
<path style=" stroke:none;fill-rule:nonzero;fill:rgb(0%,0%,0%);fill-opacity:1;" d="M 88 208 L 92 208 L 92 212 L 88 212 Z M 88 208 "/>
<path style=" stroke:none;fill-rule:nonzero;fill:rgb(0%,0%,0%);fill-opacity:1;" d="M 4 212 L 8 212 L 8 216 L 4 216 Z M 4 212 "/>
<path style=" stroke:none;fill-rule:nonzero;fill:rgb(0%,0%,0%);fill-opacity:1;" d="M 48 212 L 52 212 L 52 216 L 48 216 Z M 48 212 "/>
<path style=" stroke:none;fill-rule:nonzero;fill:rgb(0%,0%,0%);fill-opacity:1;" d="M 4 216 L 8 216 L 8 220 L 4 220 Z M 4 216 "/>
<path style=" stroke:none;fill-rule:nonzero;fill:rgb(0%,0%,0%);fill-opacity:1;" d="M 64 216 L 68 216 L 68 220 L 64 220 Z M 64 216 "/>
<path style=" stroke:none;fill-rule:nonzero;fill:rgb(0%,0%,0%);fill-opacity:1;" d="M 80 216 L 88 216 L 88 220 L 80 220 Z M 80 216 "/>
<path style=" stroke:none;fill-rule:nonzero;fill:rgb(0%,0%,0%);fill-opacity:1;" d="M 96 216 L 100 216 L 100 220 L 96 220 Z M 96 216 "/>
<path style=" stroke:none;fill-rule:nonzero;fill:rgb(0%,0%,0%);fill-opacity:1;" d="M 0 220 L 4 220 L 4 224 L 0 224 Z M 0 220 "/>
<path style=" stroke:none;fill-rule:nonzero;fill:rgb(0%,0%,0%);fill-opacity:1;" d="M 36 220 L 40 220 L 40 224 L 36 224 Z M 36 220 "/>
<path style=" stroke:none;fill-rule:nonzero;fill:rgb(0%,0%,0%);fill-opacity:1;" d="M 64 220 L 68 220 L 68 224 L 64 224 Z M 64 220 "/>
<path style=" stroke:none;fill-rule:nonzero;fill:rgb(0%,0%,0%);fill-opacity:1;" d="M 88 220 L 92 220 L 92 224 L 88 224 Z M 88 220 "/>
<path style=" stroke:none;fill-rule:nonzero;fill:rgb(0%,0%,0%);fill-opacity:1;" d="M 16 224 L 24 224 L 24 228 L 16 228 Z M 16 224 "/>
<path style=" stroke:none;fill-rule:nonzero;fill:rgb(0%,0%,0%);fill-opacity:1;" d="M 52 224 L 56 224 L 56 228 L 52 228 Z M 52 224 "/>
<path style=" stroke:none;fill-rule:nonzero;fill:rgb(0%,0%,0%);fill-opacity:1;" d="M 60 224 L 64 224 L 64 228 L 60 228 Z M 60 224 "/>
<path style=" stroke:none;fill-rule:nonzero;fill:rgb(0%,0%,0%);fill-opacity:1;" d="M 68 224 L 72 224 L 72 228 L 68 228 Z M 68 224 "/>
<path style=" stroke:none;fill-rule:nonzero;fill:rgb(0%,0%,0%);fill-opacity:1;" d="M 76 224 L 80 224 L 80 228 L 76 228 Z M 76 224 "/>
<path style=" stroke:none;fill-rule:nonzero;fill:rgb(0%,0%,0%);fill-opacity:1;" d="M 84 224 L 88 224 L 88 228 L 84 228 Z M 84 224 "/>
<path style=" stroke:none;fill-rule:nonzero;fill:rgb(0%,0%,0%);fill-opacity:1;" d="M 40 228 L 44 228 L 44 232 L 40 232 Z M 40 228 "/>
<path style=" stroke:none;fill-rule:nonzero;fill:rgb(0%,0%,0%);fill-opacity:1;" d="M 56 228 L 60 228 L 60 232 L 56 232 Z M 56 228 "/>
<path style=" stroke:none;fill-rule:nonzero;fill:rgb(0%,0%,0%);fill-opacity:1;" d="M 96 228 L 100 228 L 100 232 L 96 232 Z M 96 228 "/>
<path style=" stroke:none;fill-rule:nonzero;fill:rgb(0%,0%,0%);fill-opacity:1;" d="M 0 232 L 4 232 L 4 236 L 0 236 Z M 0 232 "/>
<path style=" stroke:none;fill-rule:nonzero;fill:rgb(0%,0%,0%);fill-opacity:1;" d="M 20 232 L 32 232 L 32 236 L 20 236 Z M 20 232 "/>
<path style=" stroke:none;fill-rule:nonzero;fill:rgb(0%,0%,0%);fill-opacity:1;" d="M 52 236 L 64 236 L 64 240 L 52 240 Z M 52 236 "/>
<path style=" stroke:none;fill-rule:nonzero;fill:rgb(0%,0%,0%);fill-opacity:1;" d="M 80 236 L 84 236 L 84 240 L 80 240 Z M 80 236 "/>
<path style=" stroke:none;fill-rule:nonzero;fill:rgb(0%,0%,0%);fill-opacity:1;" d="M 8 240 L 12 240 L 12 244 L 8 244 Z M 8 240 "/>
<path style=" stroke:none;fill-rule:nonzero;fill:rgb(0%,0%,0%);fill-opacity:1;" d="M 32 240 L 36 240 L 36 244 L 32 244 Z M 32 240 "/>
<path style=" stroke:none;fill-rule:nonzero;fill:rgb(0%,0%,0%);fill-opacity:1;" d="M 40 240 L 44 240 L 44 244 L 40 244 Z M 40 240 "/>
<path style=" stroke:none;fill-rule:nonzero;fill:rgb(0%,0%,0%);fill-opacity:1;" d="M 76 240 L 80 240 L 80 244 L 76 244 Z M 76 240 "/>
<path style=" stroke:none;fill-rule:nonzero;fill:rgb(0%,0%,0%);fill-opacity:1;" d="M 84 240 L 88 240 L 88 244 L 84 244 Z M 84 240 "/>
<path style=" stroke:none;fill-rule:nonzero;fill:rgb(0%,0%,0%);fill-opacity:1;" d="M 92 240 L 96 240 L 96 244 L 92 244 Z M 92 240 "/>
<path style=" stroke:none;fill-rule:nonzero;fill:rgb(0%,0%,0%);fill-opacity:1;" d="M 4 244 L 8 244 L 8 248 L 4 248 Z M 4 244 "/>
<path style=" stroke:none;fill-rule:nonzero;fill:rgb(0%,0%,0%);fill-opacity:1;" d="M 56 244 L 60 244 L 60 248 L 56 248 Z M 56 244 "/>
<path style=" stroke:none;fill-rule:nonzero;fill:rgb(0%,0%,0%);fill-opacity:1;" d="M 80 244 L 84 244 L 84 248 L 80 248 Z M 80 244 "/>
<path style=" stroke:none;fill-rule:nonzero;fill:rgb(0%,0%,0%);fill-opacity:1;" d="M 96 244 L 100 244 L 100 248 L 96 248 Z M 96 244 "/>
<path style=" stroke:none;fill-rule:nonzero;fill:rgb(0%,0%,0%);fill-opacity:1;" d="M 0 248 L 4 248 L 4 252 L 0 252 Z M 0 248 "/>
<path style=" stroke:none;fill-rule:nonzero;fill:rgb(0%,0%,0%);fill-opacity:1;" d="M 48 248 L 52 248 L 52 252 L 48 252 Z M 48 248 "/>
<path style=" stroke:none;fill-rule:nonzero;fill:rgb(0%,0%,0%);fill-opacity:1;" d="M 68 248 L 72 248 L 72 252 L 68 252 Z M 68 248 "/>
<path style=" stroke:none;fill-rule:nonzero;fill:rgb(0%,0%,0%);fill-opacity:1;" d="M 48 252 L 52 252 L 52 256 L 48 256 Z M 48 252 "/>
<path style=" stroke:none;fill-rule:nonzero;fill:rgb(0%,0%,0%);fill-opacity:1;" d="M 60 252 L 64 252 L 64 256 L 60 256 Z M 60 252 "/>
<path style=" stroke:none;fill-rule:nonzero;fill:rgb(0%,0%,0%);fill-opacity:1;" d="M 92 252 L 100 252 L 100 256 L 92 256 Z M 92 252 "/>
<path style=" stroke:none;fill-rule:nonzero;fill:rgb(0%,0%,0%);fill-opacity:1;" d="M 96 256 L 100 256 L 100 260 L 96 260 Z M 96 256 "/>
<path style=" stroke:none;fill-rule:nonzero;fill:rgb(0%,0%,0%);fill-opacity:1;" d="M 68 260 L 76 260 L 76 264 L 68 264 Z M 68 260 "/>
<path style=" stroke:none;fill-rule:nonzero;fill:rgb(0%,0%,0%);fill-opacity:1;" d="M 84 260 L 88 260 L 88 264 L 84 264 Z M 84 260 "/>
<path style=" stroke:none;fill-rule:nonzero;fill:rgb(0%,0%,0%);fill-opacity:1;" d="M 52 264 L 56 264 L 56 268 L 52 268 Z M 52 264 "/>
<path style=" stroke:none;fill-rule:nonzero;fill:rgb(0%,0%,0%);fill-opacity:1;" d="M 68 264 L 72 264 L 72 268 L 68 268 Z M 68 264 "/>
<path style=" stroke:none;fill-rule:nonzero;fill:rgb(0%,0%,0%);fill-opacity:1;" d="M 84 264 L 88 264 L 88 268 L 84 268 Z M 84 264 "/>
<path style=" stroke:none;fill-rule:nonzero;fill:rgb(0%,0%,0%);fill-opacity:1;" d="M 64 268 L 68 268 L 68 272 L 64 272 Z M 64 268 "/>
<path style=" stroke:none;fill-rule:nonzero;fill:rgb(0%,0%,0%);fill-opacity:1;" d="M 4 272 L 8 272 L 8 276 L 4 276 Z M 4 272 "/>
<path style=" stroke:none;fill-rule:nonzero;fill:rgb(0%,0%,0%);fill-opacity:1;" d="M 76 272 L 80 272 L 80 276 L 76 276 Z M 76 272 "/>
<path style=" stroke:none;fill-rule:nonzero;fill:rgb(0%,0%,0%);fill-opacity:1;" d="M 48 276 L 52 276 L 52 280 L 48 280 Z M 48 276 "/>
<path style=" stroke:none;fill-rule:nonzero;fill:rgb(0%,0%,0%);fill-opacity:1;" d="M 64 276 L 68 276 L 68 280 L 64 280 Z M 64 276 "/>
<path style=" stroke:none;fill-rule:nonzero;fill:rgb(0%,0%,0%);fill-opacity:1;" d="M 44 280 L 48 280 L 48 284 L 44 284 Z M 44 280 "/>
<path style=" stroke:none;fill-rule:nonzero;fill:rgb(0%,0%,0%);fill-opacity:1;" d="M 80 284 L 84 284 L 84 288 L 80 288 Z M 80 284 "/>
<path style=" stroke:none;fill-rule:nonzero;fill:rgb(0%,0%,0%);fill-opacity:1;" d="M 96 284 L 100 284 L 100 288 L 96 288 Z M 96 284 "/>
<path style=" stroke:none;fill-rule:nonzero;fill:rgb(0%,0%,0%);fill-opacity:1;" d="M 28 288 L 32 288 L 32 292 L 28 292 Z M 28 288 "/>
<path style=" stroke:none;fill-rule:nonzero;fill:rgb(0%,0%,0%);fill-opacity:1;" d="M 76 288 L 80 288 L 80 292 L 76 292 Z M 76 288 "/>
<path style=" stroke:none;fill-rule:nonzero;fill:rgb(0%,0%,0%);fill-opacity:1;" d="M 84 288 L 88 288 L 88 292 L 84 292 Z M 84 288 "/>
<path style=" stroke:none;fill-rule:nonzero;fill:rgb(0%,0%,0%);fill-opacity:1;" d="M 4 292 L 8 292 L 8 296 L 4 296 Z M 4 292 "/>
<path style=" stroke:none;fill-rule:nonzero;fill:rgb(0%,0%,0%);fill-opacity:1;" d="M 64 292 L 72 292 L 72 296 L 64 296 Z M 64 292 "/>
<path style=" stroke:none;fill-rule:nonzero;fill:rgb(0%,0%,0%);fill-opacity:1;" d="M 96 292 L 100 292 L 100 296 L 96 296 Z M 96 292 "/>
<path style=" stroke:none;fill-rule:nonzero;fill:rgb(0%,0%,0%);fill-opacity:1;" d="M 0 296 L 4 296 L 4 300 L 0 300 Z M 0 296 "/>
<path style=" stroke:none;fill-rule:nonzero;fill:rgb(0%,0%,0%);fill-opacity:1;" d="M 48 296 L 52 296 L 52 300 L 48 300 Z M 48 296 "/>
<path style=" stroke:none;fill-rule:nonzero;fill:rgb(0%,0%,0%);fill-opacity:1;" d="M 60 296 L 64 296 L 64 300 L 60 300 Z M 60 296 "/>
<path style=" stroke:none;fill-rule:nonzero;fill:rgb(0%,0%,0%);fill-opacity:1;" d="M 68 296 L 72 296 L 72 300 L 68 300 Z M 68 296 "/>
<path style=" stroke:none;fill-rule:nonzero;fill:rgb(0%,0%,0%);fill-opacity:1;" d="M 92 296 L 96 296 L 96 300 L 92 300 Z M 92 296 "/>
<path style=" stroke:none;fill-rule:nonzero;fill:rgb(0%,0%,0%);fill-opacity:1;" d="M 0 300 L 8 300 L 8 304 L 0 304 Z M 0 300 "/>
<path style=" stroke:none;fill-rule:nonzero;fill:rgb(0%,0%,0%);fill-opacity:1;" d="M 12 300 L 16 300 L 16 304 L 12 304 Z M 12 300 "/>
<path style=" stroke:none;fill-rule:nonzero;fill:rgb(0%,0%,0%);fill-opacity:1;" d="M 36 300 L 40 300 L 40 304 L 36 304 Z M 36 300 "/>
<path style=" stroke:none;fill-rule:nonzero;fill:rgb(0%,0%,0%);fill-opacity:1;" d="M 52 300 L 56 300 L 56 304 L 52 304 Z M 52 300 "/>
<path style=" stroke:none;fill-rule:nonzero;fill:rgb(0%,0%,0%);fill-opacity:1;" d="M 76 300 L 80 300 L 80 304 L 76 304 Z M 76 300 "/>
<path style=" stroke:none;fill-rule:nonzero;fill:rgb(0%,0%,0%);fill-opacity:1;" d="M 8 304 L 12 304 L 12 308 L 8 308 Z M 8 304 "/>
<path style=" stroke:none;fill-rule:nonzero;fill:rgb(0%,0%,0%);fill-opacity:1;" d="M 24 304 L 28 304 L 28 308 L 24 308 Z M 24 304 "/>
<path style=" stroke:none;fill-rule:nonzero;fill:rgb(0%,0%,0%);fill-opacity:1;" d="M 44 304 L 52 304 L 52 308 L 44 308 Z M 44 304 "/>
<path style=" stroke:none;fill-rule:nonzero;fill:rgb(0%,0%,0%);fill-opacity:1;" d="M 56 304 L 68 304 L 68 308 L 56 308 Z M 56 304 "/>
<path style=" stroke:none;fill-rule:nonzero;fill:rgb(0%,0%,0%);fill-opacity:1;" d="M 80 304 L 84 304 L 84 308 L 80 308 Z M 80 304 "/>
<path style=" stroke:none;fill-rule:nonzero;fill:rgb(0%,0%,0%);fill-opacity:1;" d="M 0 308 L 4 308 L 4 312 L 0 312 Z M 0 308 "/>
<path style=" stroke:none;fill-rule:nonzero;fill:rgb(0%,0%,0%);fill-opacity:1;" d="M 40 308 L 44 308 L 44 312 L 40 312 Z M 40 308 "/>
<path style=" stroke:none;fill-rule:nonzero;fill:rgb(0%,0%,0%);fill-opacity:1;" d="M 96 308 L 100 308 L 100 312 L 96 312 Z M 96 308 "/>
<path style=" stroke:none;fill-rule:nonzero;fill:rgb(0%,0%,0%);fill-opacity:1;" d="M 12 312 L 16 312 L 16 316 L 12 316 Z M 12 312 "/>
<path style=" stroke:none;fill-rule:nonzero;fill:rgb(0%,0%,0%);fill-opacity:1;" d="M 20 312 L 28 312 L 28 316 L 20 316 Z M 20 312 "/>
<path style=" stroke:none;fill-rule:nonzero;fill:rgb(0%,0%,0%);fill-opacity:1;" d="M 36 312 L 40 312 L 40 316 L 36 316 Z M 36 312 "/>
<path style=" stroke:none;fill-rule:nonzero;fill:rgb(0%,0%,0%);fill-opacity:1;" d="M 64 312 L 80 312 L 80 316 L 64 316 Z M 64 312 "/>
<path style=" stroke:none;fill-rule:nonzero;fill:rgb(0%,0%,0%);fill-opacity:1;" d="M 84 312 L 92 312 L 92 316 L 84 316 Z M 84 312 "/>
<path style=" stroke:none;fill-rule:nonzero;fill:rgb(0%,0%,0%);fill-opacity:1;" d="M 4 316 L 8 316 L 8 320 L 4 320 Z M 4 316 "/>
<path style=" stroke:none;fill-rule:nonzero;fill:rgb(0%,0%,0%);fill-opacity:1;" d="M 12 316 L 16 316 L 16 320 L 12 320 Z M 12 316 "/>
<path style=" stroke:none;fill-rule:nonzero;fill:rgb(0%,0%,0%);fill-opacity:1;" d="M 40 316 L 44 316 L 44 320 L 40 320 Z M 40 316 "/>
<path style=" stroke:none;fill-rule:nonzero;fill:rgb(0%,0%,0%);fill-opacity:1;" d="M 76 316 L 80 316 L 80 320 L 76 320 Z M 76 316 "/>
<path style=" stroke:none;fill-rule:nonzero;fill:rgb(0%,0%,0%);fill-opacity:1;" d="M 84 316 L 88 316 L 88 320 L 84 320 Z M 84 316 "/>
<path style=" stroke:none;fill-rule:nonzero;fill:rgb(0%,0%,0%);fill-opacity:1;" d="M 92 316 L 96 316 L 96 320 L 92 320 Z M 92 316 "/>
<path style=" stroke:none;fill-rule:nonzero;fill:rgb(0%,0%,0%);fill-opacity:1;" d="M 12 320 L 16 320 L 16 324 L 12 324 Z M 12 320 "/>
<path style=" stroke:none;fill-rule:nonzero;fill:rgb(0%,0%,0%);fill-opacity:1;" d="M 24 320 L 28 320 L 28 324 L 24 324 Z M 24 320 "/>
<path style=" stroke:none;fill-rule:nonzero;fill:rgb(0%,0%,0%);fill-opacity:1;" d="M 56 320 L 60 320 L 60 324 L 56 324 Z M 56 320 "/>
<path style=" stroke:none;fill-rule:nonzero;fill:rgb(0%,0%,0%);fill-opacity:1;" d="M 64 320 L 68 320 L 68 324 L 64 324 Z M 64 320 "/>
<path style=" stroke:none;fill-rule:nonzero;fill:rgb(0%,0%,0%);fill-opacity:1;" d="M 36 324 L 44 324 L 44 328 L 36 328 Z M 36 324 "/>
<path style=" stroke:none;fill-rule:nonzero;fill:rgb(0%,0%,0%);fill-opacity:1;" d="M 52 324 L 60 324 L 60 328 L 52 328 Z M 52 324 "/>
<path style=" stroke:none;fill-rule:nonzero;fill:rgb(0%,0%,0%);fill-opacity:1;" d="M 64 324 L 68 324 L 68 328 L 64 328 Z M 64 324 "/>
<path style=" stroke:none;fill-rule:nonzero;fill:rgb(0%,0%,0%);fill-opacity:1;" d="M 92 324 L 96 324 L 96 328 L 92 328 Z M 92 324 "/>
<path style=" stroke:none;fill-rule:nonzero;fill:rgb(0%,0%,0%);fill-opacity:1;" d="M 12 328 L 16 328 L 16 332 L 12 332 Z M 12 328 "/>
<path style=" stroke:none;fill-rule:nonzero;fill:rgb(0%,0%,0%);fill-opacity:1;" d="M 32 328 L 36 328 L 36 332 L 32 332 Z M 32 328 "/>
<path style=" stroke:none;fill-rule:nonzero;fill:rgb(0%,0%,0%);fill-opacity:1;" d="M 48 332 L 60 332 L 60 336 L 48 336 Z M 48 332 "/>
<path style=" stroke:none;fill-rule:nonzero;fill:rgb(0%,0%,0%);fill-opacity:1;" d="M 4 336 L 12 336 L 12 340 L 4 340 Z M 4 336 "/>
<path style=" stroke:none;fill-rule:nonzero;fill:rgb(0%,0%,0%);fill-opacity:1;" d="M 4 340 L 8 340 L 8 344 L 4 344 Z M 4 340 "/>
<path style=" stroke:none;fill-rule:nonzero;fill:rgb(0%,0%,0%);fill-opacity:1;" d="M 64 340 L 68 340 L 68 344 L 64 344 Z M 64 340 "/>
<path style=" stroke:none;fill-rule:nonzero;fill:rgb(0%,0%,0%);fill-opacity:1;" d="M 72 340 L 80 340 L 80 344 L 72 344 Z M 72 340 "/>
<path style=" stroke:none;fill-rule:nonzero;fill:rgb(0%,0%,0%);fill-opacity:1;" d="M 92 340 L 100 340 L 100 344 L 92 344 Z M 92 340 "/>
<path style=" stroke:none;fill-rule:nonzero;fill:rgb(0%,0%,0%);fill-opacity:1;" d="M 92 344 L 100 344 L 100 348 L 92 348 Z M 92 344 "/>
<path style=" stroke:none;fill-rule:nonzero;fill:rgb(0%,0%,0%);fill-opacity:1;" d="M 4 348 L 8 348 L 8 352 L 4 352 Z M 4 348 "/>
<path style=" stroke:none;fill-rule:nonzero;fill:rgb(0%,0%,0%);fill-opacity:1;" d="M 52 348 L 56 348 L 56 352 L 52 352 Z M 52 348 "/>
<path style=" stroke:none;fill-rule:nonzero;fill:rgb(0%,0%,0%);fill-opacity:1;" d="M 76 348 L 80 348 L 80 352 L 76 352 Z M 76 348 "/>
<path style=" stroke:none;fill-rule:nonzero;fill:rgb(0%,0%,0%);fill-opacity:1;" d="M 84 348 L 88 348 L 88 352 L 84 352 Z M 84 348 "/>
<path style=" stroke:none;fill-rule:nonzero;fill:rgb(0%,0%,0%);fill-opacity:1;" d="M 96 348 L 100 348 L 100 352 L 96 352 Z M 96 348 "/>
<path style=" stroke:none;fill-rule:nonzero;fill:rgb(0%,0%,0%);fill-opacity:1;" d="M 4 352 L 8 352 L 8 356 L 4 356 Z M 4 352 "/>
<path style=" stroke:none;fill-rule:nonzero;fill:rgb(0%,0%,0%);fill-opacity:1;" d="M 24 352 L 28 352 L 28 356 L 24 356 Z M 24 352 "/>
<path style=" stroke:none;fill-rule:nonzero;fill:rgb(0%,0%,0%);fill-opacity:1;" d="M 40 352 L 44 352 L 44 356 L 40 356 Z M 40 352 "/>
<path style=" stroke:none;fill-rule:nonzero;fill:rgb(0%,0%,0%);fill-opacity:1;" d="M 56 352 L 64 352 L 64 356 L 56 356 Z M 56 352 "/>
<path style=" stroke:none;fill-rule:nonzero;fill:rgb(0%,0%,0%);fill-opacity:1;" d="M 80 352 L 88 352 L 88 356 L 80 356 Z M 80 352 "/>
<path style=" stroke:none;fill-rule:nonzero;fill:rgb(0%,0%,0%);fill-opacity:1;" d="M 72 356 L 88 356 L 88 360 L 72 360 Z M 72 356 "/>
<path style=" stroke:none;fill-rule:nonzero;fill:rgb(0%,0%,0%);fill-opacity:1;" d="M 44 360 L 48 360 L 48 364 L 44 364 Z M 44 360 "/>
<path style=" stroke:none;fill-rule:nonzero;fill:rgb(0%,0%,0%);fill-opacity:1;" d="M 64 360 L 68 360 L 68 364 L 64 364 Z M 64 360 "/>
<path style=" stroke:none;fill-rule:nonzero;fill:rgb(0%,0%,0%);fill-opacity:1;" d="M 4 364 L 8 364 L 8 368 L 4 368 Z M 4 364 "/>
<path style=" stroke:none;fill-rule:nonzero;fill:rgb(0%,0%,0%);fill-opacity:1;" d="M 12 364 L 16 364 L 16 368 L 12 368 Z M 12 364 "/>
<path style=" stroke:none;fill-rule:nonzero;fill:rgb(0%,0%,0%);fill-opacity:1;" d="M 52 364 L 56 364 L 56 368 L 52 368 Z M 52 364 "/>
<path style=" stroke:none;fill-rule:nonzero;fill:rgb(0%,0%,0%);fill-opacity:1;" d="M 24 368 L 32 368 L 32 372 L 24 372 Z M 24 368 "/>
<path style=" stroke:none;fill-rule:nonzero;fill:rgb(0%,0%,0%);fill-opacity:1;" d="M 72 368 L 84 368 L 84 372 L 72 372 Z M 72 368 "/>
<path style=" stroke:none;fill-rule:nonzero;fill:rgb(0%,0%,0%);fill-opacity:1;" d="M 12 372 L 20 372 L 20 376 L 12 376 Z M 12 372 "/>
<path style=" stroke:none;fill-rule:nonzero;fill:rgb(0%,0%,0%);fill-opacity:1;" d="M 40 372 L 44 372 L 44 376 L 40 376 Z M 40 372 "/>
<path style=" stroke:none;fill-rule:nonzero;fill:rgb(0%,0%,0%);fill-opacity:1;" d="M 64 372 L 68 372 L 68 376 L 64 376 Z M 64 372 "/>
<path style=" stroke:none;fill-rule:nonzero;fill:rgb(0%,0%,0%);fill-opacity:1;" d="M 96 372 L 100 372 L 100 376 L 96 376 Z M 96 372 "/>
<path style=" stroke:none;fill-rule:nonzero;fill:rgb(0%,0%,0%);fill-opacity:1;" d="M 0 376 L 8 376 L 8 380 L 0 380 Z M 0 376 "/>
<path style=" stroke:none;fill-rule:nonzero;fill:rgb(0%,0%,0%);fill-opacity:1;" d="M 32 376 L 40 376 L 40 380 L 32 380 Z M 32 376 "/>
<path style=" stroke:none;fill-rule:nonzero;fill:rgb(0%,0%,0%);fill-opacity:1;" d="M 44 376 L 48 376 L 48 380 L 44 380 Z M 44 376 "/>
<path style=" stroke:none;fill-rule:nonzero;fill:rgb(0%,0%,0%);fill-opacity:1;" d="M 60 376 L 64 376 L 64 380 L 60 380 Z M 60 376 "/>
<path style=" stroke:none;fill-rule:nonzero;fill:rgb(0%,0%,0%);fill-opacity:1;" d="M 80 376 L 84 376 L 84 380 L 80 380 Z M 80 376 "/>
<path style=" stroke:none;fill-rule:nonzero;fill:rgb(0%,0%,0%);fill-opacity:1;" d="M 0 380 L 8 380 L 8 384 L 0 384 Z M 0 380 "/>
<path style=" stroke:none;fill-rule:nonzero;fill:rgb(0%,0%,0%);fill-opacity:1;" d="M 56 380 L 64 380 L 64 384 L 56 384 Z M 56 380 "/>
<path style=" stroke:none;fill-rule:nonzero;fill:rgb(0%,0%,0%);fill-opacity:1;" d="M 0 384 L 4 384 L 4 388 L 0 388 Z M 0 384 "/>
<path style=" stroke:none;fill-rule:nonzero;fill:rgb(0%,0%,0%);fill-opacity:1;" d="M 24 384 L 28 384 L 28 388 L 24 388 Z M 24 384 "/>
<path style=" stroke:none;fill-rule:nonzero;fill:rgb(0%,0%,0%);fill-opacity:1;" d="M 32 384 L 36 384 L 36 388 L 32 388 Z M 32 384 "/>
<path style=" stroke:none;fill-rule:nonzero;fill:rgb(0%,0%,0%);fill-opacity:1;" d="M 72 384 L 80 384 L 80 388 L 72 388 Z M 72 384 "/>
<path style=" stroke:none;fill-rule:nonzero;fill:rgb(0%,0%,0%);fill-opacity:1;" d="M 20 388 L 24 388 L 24 392 L 20 392 Z M 20 388 "/>
<path style=" stroke:none;fill-rule:nonzero;fill:rgb(0%,0%,0%);fill-opacity:1;" d="M 72 388 L 80 388 L 80 392 L 72 392 Z M 72 388 "/>
<path style=" stroke:none;fill-rule:nonzero;fill:rgb(0%,0%,0%);fill-opacity:1;" d="M 84 388 L 88 388 L 88 392 L 84 392 Z M 84 388 "/>
<path style=" stroke:none;fill-rule:nonzero;fill:rgb(0%,0%,0%);fill-opacity:1;" d="M 92 388 L 96 388 L 96 392 L 92 392 Z M 92 388 "/>
<path style=" stroke:none;fill-rule:nonzero;fill:rgb(0%,0%,0%);fill-opacity:1;" d="M 84 392 L 100 392 L 100 396 L 84 396 Z M 84 392 "/>
<path style=" stroke:none;fill-rule:nonzero;fill:rgb(0%,0%,0%);fill-opacity:1;" d="M 8 396 L 16 396 L 16 400 L 8 400 Z M 8 396 "/>
<path style=" stroke:none;fill-rule:nonzero;fill:rgb(0%,0%,0%);fill-opacity:1;" d="M 60 396 L 68 396 L 68 400 L 60 400 Z M 60 396 "/>
<path style=" stroke:none;fill-rule:nonzero;fill:rgb(0%,0%,0%);fill-opacity:1;" d="M 80 396 L 84 396 L 84 400 L 80 400 Z M 80 396 "/>
<path style=" stroke:none;fill-rule:nonzero;fill:rgb(0%,0%,0%);fill-opacity:1;" d="M 88 396 L 100 396 L 100 400 L 88 400 Z M 88 396 "/>
<path style=" stroke:none;fill-rule:nonzero;fill:rgb(0%,0%,0%);fill-opacity:1;" d="M 0 400 L 4 400 L 4 404 L 0 404 Z M 0 400 "/>
<path style=" stroke:none;fill-rule:nonzero;fill:rgb(0%,0%,0%);fill-opacity:1;" d="M 16 400 L 28 400 L 28 404 L 16 404 Z M 16 400 "/>
<path style=" stroke:none;fill-rule:nonzero;fill:rgb(0%,0%,0%);fill-opacity:1;" d="M 40 400 L 44 400 L 44 404 L 40 404 Z M 40 400 "/>
<path style=" stroke:none;fill-rule:nonzero;fill:rgb(0%,0%,0%);fill-opacity:1;" d="M 52 400 L 56 400 L 56 404 L 52 404 Z M 52 400 "/>
<path style=" stroke:none;fill-rule:nonzero;fill:rgb(0%,0%,0%);fill-opacity:1;" d="M 88 400 L 92 400 L 92 404 L 88 404 Z M 88 400 "/>
<path style=" stroke:none;fill-rule:nonzero;fill:rgb(0%,0%,0%);fill-opacity:1;" d="M 12 404 L 20 404 L 20 408 L 12 408 Z M 12 404 "/>
<path style=" stroke:none;fill-rule:nonzero;fill:rgb(0%,0%,0%);fill-opacity:1;" d="M 56 404 L 60 404 L 60 408 L 56 408 Z M 56 404 "/>
<path style=" stroke:none;fill-rule:nonzero;fill:rgb(0%,0%,0%);fill-opacity:1;" d="M 72 404 L 88 404 L 88 408 L 72 408 Z M 72 404 "/>
<path style=" stroke:none;fill-rule:nonzero;fill:rgb(0%,0%,0%);fill-opacity:1;" d="M 8 408 L 20 408 L 20 412 L 8 412 Z M 8 408 "/>
<path style=" stroke:none;fill-rule:nonzero;fill:rgb(0%,0%,0%);fill-opacity:1;" d="M 36 408 L 40 408 L 40 412 L 36 412 Z M 36 408 "/>
<path style=" stroke:none;fill-rule:nonzero;fill:rgb(0%,0%,0%);fill-opacity:1;" d="M 44 408 L 52 408 L 52 412 L 44 412 Z M 44 408 "/>
<path style=" stroke:none;fill-rule:nonzero;fill:rgb(0%,0%,0%);fill-opacity:1;" d="M 56 408 L 68 408 L 68 412 L 56 412 Z M 56 408 "/>
<path style=" stroke:none;fill-rule:nonzero;fill:rgb(0%,0%,0%);fill-opacity:1;" d="M 84 408 L 88 408 L 88 412 L 84 412 Z M 84 408 "/>
<path style=" stroke:none;fill-rule:nonzero;fill:rgb(0%,0%,0%);fill-opacity:1;" d="M 92 408 L 96 408 L 96 412 L 92 412 Z M 92 408 "/>
<path style=" stroke:none;fill-rule:nonzero;fill:rgb(0%,0%,0%);fill-opacity:1;" d="M 12 412 L 16 412 L 16 416 L 12 416 Z M 12 412 "/>
<path style=" stroke:none;fill-rule:nonzero;fill:rgb(0%,0%,0%);fill-opacity:1;" d="M 40 412 L 44 412 L 44 416 L 40 416 Z M 40 412 "/>
<path style=" stroke:none;fill-rule:nonzero;fill:rgb(0%,0%,0%);fill-opacity:1;" d="M 48 412 L 52 412 L 52 416 L 48 416 Z M 48 412 "/>
<path style=" stroke:none;fill-rule:nonzero;fill:rgb(0%,0%,0%);fill-opacity:1;" d="M 60 412 L 68 412 L 68 416 L 60 416 Z M 60 412 "/>
<path style=" stroke:none;fill-rule:nonzero;fill:rgb(0%,0%,0%);fill-opacity:1;" d="M 92 412 L 100 412 L 100 416 L 92 416 Z M 92 412 "/>
<path style=" stroke:none;fill-rule:nonzero;fill:rgb(0%,0%,0%);fill-opacity:1;" d="M 4 416 L 8 416 L 8 420 L 4 420 Z M 4 416 "/>
<path style=" stroke:none;fill-rule:nonzero;fill:rgb(0%,0%,0%);fill-opacity:1;" d="M 40 416 L 48 416 L 48 420 L 40 420 Z M 40 416 "/>
<path style=" stroke:none;fill-rule:nonzero;fill:rgb(0%,0%,0%);fill-opacity:1;" d="M 4 420 L 8 420 L 8 424 L 4 424 Z M 4 420 "/>
<path style=" stroke:none;fill-rule:nonzero;fill:rgb(0%,0%,0%);fill-opacity:1;" d="M 40 420 L 52 420 L 52 424 L 40 424 Z M 40 420 "/>
<path style=" stroke:none;fill-rule:nonzero;fill:rgb(0%,0%,0%);fill-opacity:1;" d="M 76 420 L 84 420 L 84 424 L 76 424 Z M 76 420 "/>
<path style=" stroke:none;fill-rule:nonzero;fill:rgb(0%,0%,0%);fill-opacity:1;" d="M 96 420 L 100 420 L 100 424 L 96 424 Z M 96 420 "/>
<path style=" stroke:none;fill-rule:nonzero;fill:rgb(0%,0%,0%);fill-opacity:1;" d="M 8 424 L 12 424 L 12 428 L 8 428 Z M 8 424 "/>
<path style=" stroke:none;fill-rule:nonzero;fill:rgb(0%,0%,0%);fill-opacity:1;" d="M 36 424 L 40 424 L 40 428 L 36 428 Z M 36 424 "/>
<path style=" stroke:none;fill-rule:nonzero;fill:rgb(0%,0%,0%);fill-opacity:1;" d="M 56 424 L 60 424 L 60 428 L 56 428 Z M 56 424 "/>
<path style=" stroke:none;fill-rule:nonzero;fill:rgb(0%,0%,0%);fill-opacity:1;" d="M 72 424 L 76 424 L 76 428 L 72 428 Z M 72 424 "/>
<path style=" stroke:none;fill-rule:nonzero;fill:rgb(0%,0%,0%);fill-opacity:1;" d="M 80 424 L 84 424 L 84 428 L 80 428 Z M 80 424 "/>
<path style=" stroke:none;fill-rule:nonzero;fill:rgb(0%,0%,0%);fill-opacity:1;" d="M 72 428 L 84 428 L 84 432 L 72 432 Z M 72 428 "/>
<path style=" stroke:none;fill-rule:nonzero;fill:rgb(0%,0%,0%);fill-opacity:1;" d="M 96 428 L 100 428 L 100 432 L 96 432 Z M 96 428 "/>
<path style=" stroke:none;fill-rule:nonzero;fill:rgb(0%,0%,0%);fill-opacity:1;" d="M 8 432 L 20 432 L 20 436 L 8 436 Z M 8 432 "/>
<path style=" stroke:none;fill-rule:nonzero;fill:rgb(0%,0%,0%);fill-opacity:1;" d="M 32 432 L 40 432 L 40 436 L 32 436 Z M 32 432 "/>
<path style=" stroke:none;fill-rule:nonzero;fill:rgb(0%,0%,0%);fill-opacity:1;" d="M 60 432 L 76 432 L 76 436 L 60 436 Z M 60 432 "/>
<path style=" stroke:none;fill-rule:nonzero;fill:rgb(0%,0%,0%);fill-opacity:1;" d="M 80 432 L 84 432 L 84 436 L 80 436 Z M 80 432 "/>
<path style=" stroke:none;fill-rule:nonzero;fill:rgb(0%,0%,0%);fill-opacity:1;" d="M 88 432 L 92 432 L 92 436 L 88 436 Z M 88 432 "/>
<path style=" stroke:none;fill-rule:nonzero;fill:rgb(0%,0%,0%);fill-opacity:1;" d="M 24 436 L 28 436 L 28 440 L 24 440 Z M 24 436 "/>
<path style=" stroke:none;fill-rule:nonzero;fill:rgb(0%,0%,0%);fill-opacity:1;" d="M 44 436 L 48 436 L 48 440 L 44 440 Z M 44 436 "/>
<path style=" stroke:none;fill-rule:nonzero;fill:rgb(0%,0%,0%);fill-opacity:1;" d="M 60 436 L 80 436 L 80 440 L 60 440 Z M 60 436 "/>
<path style=" stroke:none;fill-rule:nonzero;fill:rgb(0%,0%,0%);fill-opacity:1;" d="M 92 436 L 100 436 L 100 440 L 92 440 Z M 92 436 "/>
<path style=" stroke:none;fill-rule:nonzero;fill:rgb(0%,0%,0%);fill-opacity:1;" d="M 0 440 L 24 440 L 24 444 L 0 444 Z M 0 440 "/>
<path style=" stroke:none;fill-rule:nonzero;fill:rgb(0%,0%,0%);fill-opacity:1;" d="M 36 440 L 48 440 L 48 444 L 36 444 Z M 36 440 "/>
<path style=" stroke:none;fill-rule:nonzero;fill:rgb(0%,0%,0%);fill-opacity:1;" d="M 68 440 L 72 440 L 72 444 L 68 444 Z M 68 440 "/>
<path style=" stroke:none;fill-rule:nonzero;fill:rgb(0%,0%,0%);fill-opacity:1;" d="M 84 440 L 100 440 L 100 444 L 84 444 Z M 84 440 "/>
<path style=" stroke:none;fill-rule:nonzero;fill:rgb(0%,0%,0%);fill-opacity:1;" d="M 0 444 L 4 444 L 4 448 L 0 448 Z M 0 444 "/>
<path style=" stroke:none;fill-rule:nonzero;fill:rgb(0%,0%,0%);fill-opacity:1;" d="M 8 444 L 16 444 L 16 448 L 8 448 Z M 8 444 "/>
<path style=" stroke:none;fill-rule:nonzero;fill:rgb(0%,0%,0%);fill-opacity:1;" d="M 24 444 L 28 444 L 28 448 L 24 448 Z M 24 444 "/>
<path style=" stroke:none;fill-rule:nonzero;fill:rgb(0%,0%,0%);fill-opacity:1;" d="M 40 444 L 44 444 L 44 448 L 40 448 Z M 40 444 "/>
<path style=" stroke:none;fill-rule:nonzero;fill:rgb(0%,0%,0%);fill-opacity:1;" d="M 56 444 L 100 444 L 100 448 L 56 448 Z M 56 444 "/>
<path style=" stroke:none;fill-rule:nonzero;fill:rgb(0%,0%,0%);fill-opacity:1;" d="M 12 448 L 16 448 L 16 452 L 12 452 Z M 12 448 "/>
<path style=" stroke:none;fill-rule:nonzero;fill:rgb(0%,0%,0%);fill-opacity:1;" d="M 20 448 L 24 448 L 24 452 L 20 452 Z M 20 448 "/>
<path style=" stroke:none;fill-rule:nonzero;fill:rgb(0%,0%,0%);fill-opacity:1;" d="M 28 448 L 32 448 L 32 452 L 28 452 Z M 28 448 "/>
<path style=" stroke:none;fill-rule:nonzero;fill:rgb(0%,0%,0%);fill-opacity:1;" d="M 48 448 L 52 448 L 52 452 L 48 452 Z M 48 448 "/>
<path style=" stroke:none;fill-rule:nonzero;fill:rgb(0%,0%,0%);fill-opacity:1;" d="M 68 448 L 76 448 L 76 452 L 68 452 Z M 68 448 "/>
<path style=" stroke:none;fill-rule:nonzero;fill:rgb(0%,0%,0%);fill-opacity:1;" d="M 56 452 L 60 452 L 60 456 L 56 456 Z M 56 452 "/>
<path style=" stroke:none;fill-rule:nonzero;fill:rgb(0%,0%,0%);fill-opacity:1;" d="M 68 452 L 72 452 L 72 456 L 68 456 Z M 68 452 "/>
<path style=" stroke:none;fill-rule:nonzero;fill:rgb(0%,0%,0%);fill-opacity:1;" d="M 84 452 L 92 452 L 92 456 L 84 456 Z M 84 452 "/>
<path style=" stroke:none;fill-rule:nonzero;fill:rgb(0%,0%,0%);fill-opacity:1;" d="M 8 456 L 16 456 L 16 460 L 8 460 Z M 8 456 "/>
<path style=" stroke:none;fill-rule:nonzero;fill:rgb(0%,0%,0%);fill-opacity:1;" d="M 8 460 L 28 460 L 28 464 L 8 464 Z M 8 460 "/>
<path style=" stroke:none;fill-rule:nonzero;fill:rgb(0%,0%,0%);fill-opacity:1;" d="M 32 460 L 36 460 L 36 464 L 32 464 Z M 32 460 "/>
<path style=" stroke:none;fill-rule:nonzero;fill:rgb(0%,0%,0%);fill-opacity:1;" d="M 40 460 L 44 460 L 44 464 L 40 464 Z M 40 460 "/>
<path style=" stroke:none;fill-rule:nonzero;fill:rgb(0%,0%,0%);fill-opacity:1;" d="M 84 460 L 88 460 L 88 464 L 84 464 Z M 84 460 "/>
<path style=" stroke:none;fill-rule:nonzero;fill:rgb(0%,0%,0%);fill-opacity:1;" d="M 96 460 L 100 460 L 100 464 L 96 464 Z M 96 460 "/>
<path style=" stroke:none;fill-rule:nonzero;fill:rgb(0%,0%,0%);fill-opacity:1;" d="M 0 464 L 4 464 L 4 468 L 0 468 Z M 0 464 "/>
<path style=" stroke:none;fill-rule:nonzero;fill:rgb(0%,0%,0%);fill-opacity:1;" d="M 72 464 L 92 464 L 92 468 L 72 468 Z M 72 464 "/>
<path style=" stroke:none;fill-rule:nonzero;fill:rgb(0%,0%,0%);fill-opacity:1;" d="M 4 468 L 8 468 L 8 472 L 4 472 Z M 4 468 "/>
<path style=" stroke:none;fill-rule:nonzero;fill:rgb(0%,0%,0%);fill-opacity:1;" d="M 16 468 L 20 468 L 20 472 L 16 472 Z M 16 468 "/>
<path style=" stroke:none;fill-rule:nonzero;fill:rgb(0%,0%,0%);fill-opacity:1;" d="M 24 468 L 40 468 L 40 472 L 24 472 Z M 24 468 "/>
<path style=" stroke:none;fill-rule:nonzero;fill:rgb(0%,0%,0%);fill-opacity:1;" d="M 48 468 L 56 468 L 56 472 L 48 472 Z M 48 468 "/>
<path style=" stroke:none;fill-rule:nonzero;fill:rgb(0%,0%,0%);fill-opacity:1;" d="M 60 468 L 68 468 L 68 472 L 60 472 Z M 60 468 "/>
<path style=" stroke:none;fill-rule:nonzero;fill:rgb(0%,0%,0%);fill-opacity:1;" d="M 4 472 L 8 472 L 8 476 L 4 476 Z M 4 472 "/>
<path style=" stroke:none;fill-rule:nonzero;fill:rgb(0%,0%,0%);fill-opacity:1;" d="M 32 472 L 36 472 L 36 476 L 32 476 Z M 32 472 "/>
<path style=" stroke:none;fill-rule:nonzero;fill:rgb(0%,0%,0%);fill-opacity:1;" d="M 56 472 L 60 472 L 60 476 L 56 476 Z M 56 472 "/>
<path style=" stroke:none;fill-rule:nonzero;fill:rgb(0%,0%,0%);fill-opacity:1;" d="M 76 472 L 80 472 L 80 476 L 76 476 Z M 76 472 "/>
<path style=" stroke:none;fill-rule:nonzero;fill:rgb(0%,0%,0%);fill-opacity:1;" d="M 84 472 L 88 472 L 88 476 L 84 476 Z M 84 472 "/>
<path style=" stroke:none;fill-rule:nonzero;fill:rgb(0%,0%,0%);fill-opacity:1;" d="M 96 472 L 100 472 L 100 476 L 96 476 Z M 96 472 "/>
<path style=" stroke:none;fill-rule:nonzero;fill:rgb(0%,0%,0%);fill-opacity:1;" d="M 12 476 L 16 476 L 16 480 L 12 480 Z M 12 476 "/>
<path style=" stroke:none;fill-rule:nonzero;fill:rgb(0%,0%,0%);fill-opacity:1;" d="M 20 476 L 28 476 L 28 480 L 20 480 Z M 20 476 "/>
<path style=" stroke:none;fill-rule:nonzero;fill:rgb(0%,0%,0%);fill-opacity:1;" d="M 56 476 L 60 476 L 60 480 L 56 480 Z M 56 476 "/>
<path style=" stroke:none;fill-rule:nonzero;fill:rgb(0%,0%,0%);fill-opacity:1;" d="M 64 476 L 68 476 L 68 480 L 64 480 Z M 64 476 "/>
<path style=" stroke:none;fill-rule:nonzero;fill:rgb(0%,0%,0%);fill-opacity:1;" d="M 32 480 L 40 480 L 40 484 L 32 484 Z M 32 480 "/>
<path style=" stroke:none;fill-rule:nonzero;fill:rgb(0%,0%,0%);fill-opacity:1;" d="M 64 480 L 72 480 L 72 484 L 64 484 Z M 64 480 "/>
<path style=" stroke:none;fill-rule:nonzero;fill:rgb(0%,0%,0%);fill-opacity:1;" d="M 76 480 L 80 480 L 80 484 L 76 484 Z M 76 480 "/>
<path style=" stroke:none;fill-rule:nonzero;fill:rgb(0%,0%,0%);fill-opacity:1;" d="M 36 484 L 40 484 L 40 488 L 36 488 Z M 36 484 "/>
<path style=" stroke:none;fill-rule:nonzero;fill:rgb(0%,0%,0%);fill-opacity:1;" d="M 64 484 L 68 484 L 68 488 L 64 488 Z M 64 484 "/>
<path style=" stroke:none;fill-rule:nonzero;fill:rgb(0%,0%,0%);fill-opacity:1;" d="M 72 484 L 84 484 L 84 488 L 72 488 Z M 72 484 "/>
<path style=" stroke:none;fill-rule:nonzero;fill:rgb(0%,0%,0%);fill-opacity:1;" d="M 0 488 L 24 488 L 24 492 L 0 492 Z M 0 488 "/>
<path style=" stroke:none;fill-rule:nonzero;fill:rgb(0%,0%,0%);fill-opacity:1;" d="M 56 488 L 60 488 L 60 492 L 56 492 Z M 56 488 "/>
<path style=" stroke:none;fill-rule:nonzero;fill:rgb(0%,0%,0%);fill-opacity:1;" d="M 64 488 L 68 488 L 68 492 L 64 492 Z M 64 488 "/>
<path style=" stroke:none;fill-rule:nonzero;fill:rgb(0%,0%,0%);fill-opacity:1;" d="M 96 488 L 100 488 L 100 492 L 96 492 Z M 96 488 "/>
<path style=" stroke:none;fill-rule:nonzero;fill:rgb(0%,0%,0%);fill-opacity:1;" d="M 4 492 L 8 492 L 8 496 L 4 496 Z M 4 492 "/>
<path style=" stroke:none;fill-rule:nonzero;fill:rgb(0%,0%,0%);fill-opacity:1;" d="M 24 492 L 28 492 L 28 496 L 24 496 Z M 24 492 "/>
<path style=" stroke:none;fill-rule:nonzero;fill:rgb(0%,0%,0%);fill-opacity:1;" d="M 68 492 L 72 492 L 72 496 L 68 496 Z M 68 492 "/>
<path style=" stroke:none;fill-rule:nonzero;fill:rgb(0%,0%,0%);fill-opacity:1;" d="M 80 492 L 84 492 L 84 496 L 80 496 Z M 80 492 "/>
<path style=" stroke:none;fill-rule:nonzero;fill:rgb(0%,0%,0%);fill-opacity:1;" d="M 92 492 L 96 492 L 96 496 L 92 496 Z M 92 492 "/>
<path style=" stroke:none;fill-rule:nonzero;fill:rgb(0%,0%,0%);fill-opacity:1;" d="M 12 496 L 16 496 L 16 500 L 12 500 Z M 12 496 "/>
<path style=" stroke:none;fill-rule:nonzero;fill:rgb(0%,0%,0%);fill-opacity:1;" d="M 40 496 L 56 496 L 56 500 L 40 500 Z M 40 496 "/>
<path style=" stroke:none;fill-rule:nonzero;fill:rgb(0%,0%,0%);fill-opacity:1;" d="M 80 496 L 84 496 L 84 500 L 80 500 Z M 80 496 "/>
<path style=" stroke:none;fill-rule:nonzero;fill:rgb(0%,0%,0%);fill-opacity:1;" d="M 88 496 L 100 496 L 100 500 L 88 500 Z M 88 496 "/>
<path style=" stroke:none;fill-rule:nonzero;fill:rgb(0%,0%,0%);fill-opacity:1;" d="M 0 500 L 4 500 L 4 504 L 0 504 Z M 0 500 "/>
<path style=" stroke:none;fill-rule:nonzero;fill:rgb(0%,0%,0%);fill-opacity:1;" d="M 8 500 L 12 500 L 12 504 L 8 504 Z M 8 500 "/>
<path style=" stroke:none;fill-rule:nonzero;fill:rgb(0%,0%,0%);fill-opacity:1;" d="M 60 500 L 64 500 L 64 504 L 60 504 Z M 60 500 "/>
<path style=" stroke:none;fill-rule:nonzero;fill:rgb(0%,0%,0%);fill-opacity:1;" d="M 72 500 L 76 500 L 76 504 L 72 504 Z M 72 500 "/>
<path style=" stroke:none;fill-rule:nonzero;fill:rgb(0%,0%,0%);fill-opacity:1;" d="M 0 504 L 4 504 L 4 508 L 0 508 Z M 0 504 "/>
<path style=" stroke:none;fill-rule:nonzero;fill:rgb(0%,0%,0%);fill-opacity:1;" d="M 8 504 L 12 504 L 12 508 L 8 508 Z M 8 504 "/>
<path style=" stroke:none;fill-rule:nonzero;fill:rgb(0%,0%,0%);fill-opacity:1;" d="M 48 504 L 68 504 L 68 508 L 48 508 Z M 48 504 "/>
<path style=" stroke:none;fill-rule:nonzero;fill:rgb(0%,0%,0%);fill-opacity:1;" d="M 88 504 L 100 504 L 100 508 L 88 508 Z M 88 504 "/>
<path style=" stroke:none;fill-rule:nonzero;fill:rgb(0%,0%,0%);fill-opacity:1;" d="M 16 508 L 20 508 L 20 512 L 16 512 Z M 16 508 "/>
<path style=" stroke:none;fill-rule:nonzero;fill:rgb(0%,0%,0%);fill-opacity:1;" d="M 28 508 L 36 508 L 36 512 L 28 512 Z M 28 508 "/>
<path style=" stroke:none;fill-rule:nonzero;fill:rgb(0%,0%,0%);fill-opacity:1;" d="M 40 508 L 48 508 L 48 512 L 40 512 Z M 40 508 "/>
<path style=" stroke:none;fill-rule:nonzero;fill:rgb(0%,0%,0%);fill-opacity:1;" d="M 76 508 L 80 508 L 80 512 L 76 512 Z M 76 508 "/>
<path style=" stroke:none;fill-rule:nonzero;fill:rgb(0%,0%,0%);fill-opacity:1;" d="M 84 508 L 88 508 L 88 512 L 84 512 Z M 84 508 "/>
<path style=" stroke:none;fill-rule:nonzero;fill:rgb(0%,0%,0%);fill-opacity:1;" d="M 96 508 L 100 508 L 100 512 L 96 512 Z M 96 508 "/>
<path style=" stroke:none;fill-rule:nonzero;fill:rgb(0%,0%,0%);fill-opacity:1;" d="M 20 512 L 24 512 L 24 516 L 20 516 Z M 20 512 "/>
<path style=" stroke:none;fill-rule:nonzero;fill:rgb(0%,0%,0%);fill-opacity:1;" d="M 36 512 L 40 512 L 40 516 L 36 516 Z M 36 512 "/>
<path style=" stroke:none;fill-rule:nonzero;fill:rgb(0%,0%,0%);fill-opacity:1;" d="M 44 512 L 48 512 L 48 516 L 44 516 Z M 44 512 "/>
<path style=" stroke:none;fill-rule:nonzero;fill:rgb(0%,0%,0%);fill-opacity:1;" d="M 76 512 L 80 512 L 80 516 L 76 516 Z M 76 512 "/>
<path style=" stroke:none;fill-rule:nonzero;fill:rgb(0%,0%,0%);fill-opacity:1;" d="M 88 512 L 92 512 L 92 516 L 88 516 Z M 88 512 "/>
<path style=" stroke:none;fill-rule:nonzero;fill:rgb(0%,0%,0%);fill-opacity:1;" d="M 0 516 L 4 516 L 4 520 L 0 520 Z M 0 516 "/>
<path style=" stroke:none;fill-rule:nonzero;fill:rgb(0%,0%,0%);fill-opacity:1;" d="M 8 516 L 12 516 L 12 520 L 8 520 Z M 8 516 "/>
<path style=" stroke:none;fill-rule:nonzero;fill:rgb(0%,0%,0%);fill-opacity:1;" d="M 24 516 L 28 516 L 28 520 L 24 520 Z M 24 516 "/>
<path style=" stroke:none;fill-rule:nonzero;fill:rgb(0%,0%,0%);fill-opacity:1;" d="M 64 516 L 88 516 L 88 520 L 64 520 Z M 64 516 "/>
<path style=" stroke:none;fill-rule:nonzero;fill:rgb(0%,0%,0%);fill-opacity:1;" d="M 32 520 L 40 520 L 40 524 L 32 524 Z M 32 520 "/>
<path style=" stroke:none;fill-rule:nonzero;fill:rgb(0%,0%,0%);fill-opacity:1;" d="M 64 520 L 68 520 L 68 524 L 64 524 Z M 64 520 "/>
<path style=" stroke:none;fill-rule:nonzero;fill:rgb(0%,0%,0%);fill-opacity:1;" d="M 80 520 L 84 520 L 84 524 L 80 524 Z M 80 520 "/>
<path style=" stroke:none;fill-rule:nonzero;fill:rgb(0%,0%,0%);fill-opacity:1;" d="M 88 520 L 96 520 L 96 524 L 88 524 Z M 88 520 "/>
<path style=" stroke:none;fill-rule:nonzero;fill:rgb(0%,0%,0%);fill-opacity:1;" d="M 20 532 L 24 532 L 24 536 L 20 536 Z M 20 532 "/>
<path style=" stroke:none;fill-rule:nonzero;fill:rgb(0%,0%,0%);fill-opacity:1;" d="M 32 532 L 44 532 L 44 536 L 32 536 Z M 32 532 "/>
<path style=" stroke:none;fill-rule:nonzero;fill:rgb(0%,0%,0%);fill-opacity:1;" d="M 48 532 L 60 532 L 60 536 L 48 536 Z M 48 532 "/>
<path style=" stroke:none;fill-rule:nonzero;fill:rgb(0%,0%,0%);fill-opacity:1;" d="M 72 532 L 92 532 L 92 536 L 72 536 Z M 72 532 "/>
<path style=" stroke:none;fill-rule:nonzero;fill:rgb(0%,0%,0%);fill-opacity:1;" d="M 96 532 L 100 532 L 100 536 L 96 536 Z M 96 532 "/>
<path style=" stroke:none;fill-rule:nonzero;fill:rgb(0%,0%,0%);fill-opacity:1;" d="M 8 536 L 16 536 L 16 540 L 8 540 Z M 8 536 "/>
<path style=" stroke:none;fill-rule:nonzero;fill:rgb(0%,0%,0%);fill-opacity:1;" d="M 24 536 L 100 536 L 100 540 L 24 540 Z M 24 536 "/>
<path style=" stroke:none;fill-rule:nonzero;fill:rgb(0%,0%,0%);fill-opacity:1;" d="M 0 540 L 12 540 L 12 544 L 0 544 Z M 0 540 "/>
<path style=" stroke:none;fill-rule:nonzero;fill:rgb(0%,0%,0%);fill-opacity:1;" d="M 16 540 L 20 540 L 20 544 L 16 544 Z M 16 540 "/>
<path style=" stroke:none;fill-rule:nonzero;fill:rgb(0%,0%,0%);fill-opacity:1;" d="M 24 540 L 28 540 L 28 544 L 24 544 Z M 24 540 "/>
<path style=" stroke:none;fill-rule:nonzero;fill:rgb(0%,0%,0%);fill-opacity:1;" d="M 36 540 L 40 540 L 40 544 L 36 544 Z M 36 540 "/>
<path style=" stroke:none;fill-rule:nonzero;fill:rgb(0%,0%,0%);fill-opacity:1;" d="M 48 540 L 80 540 L 80 544 L 48 544 Z M 48 540 "/>
<path style=" stroke:none;fill-rule:nonzero;fill:rgb(0%,0%,0%);fill-opacity:1;" d="M 84 540 L 88 540 L 88 544 L 84 544 Z M 84 540 "/>
<path style=" stroke:none;fill-rule:nonzero;fill:rgb(0%,0%,0%);fill-opacity:1;" d="M 96 540 L 100 540 L 100 544 L 96 544 Z M 96 540 "/>
<path style=" stroke:none;fill-rule:nonzero;fill:rgb(0%,0%,0%);fill-opacity:1;" d="M 0 544 L 8 544 L 8 548 L 0 548 Z M 0 544 "/>
<path style=" stroke:none;fill-rule:nonzero;fill:rgb(0%,0%,0%);fill-opacity:1;" d="M 36 544 L 48 544 L 48 548 L 36 548 Z M 36 544 "/>
<path style=" stroke:none;fill-rule:nonzero;fill:rgb(0%,0%,0%);fill-opacity:1;" d="M 52 544 L 56 544 L 56 548 L 52 548 Z M 52 544 "/>
<path style=" stroke:none;fill-rule:nonzero;fill:rgb(0%,0%,0%);fill-opacity:1;" d="M 68 544 L 84 544 L 84 548 L 68 548 Z M 68 544 "/>
<path style=" stroke:none;fill-rule:nonzero;fill:rgb(0%,0%,0%);fill-opacity:1;" d="M 92 544 L 96 544 L 96 548 L 92 548 Z M 92 544 "/>
<path style=" stroke:none;fill-rule:nonzero;fill:rgb(0%,0%,0%);fill-opacity:1;" d="M 12 548 L 28 548 L 28 552 L 12 552 Z M 12 548 "/>
<path style=" stroke:none;fill-rule:nonzero;fill:rgb(0%,0%,0%);fill-opacity:1;" d="M 32 548 L 36 548 L 36 552 L 32 552 Z M 32 548 "/>
<path style=" stroke:none;fill-rule:nonzero;fill:rgb(0%,0%,0%);fill-opacity:1;" d="M 60 548 L 68 548 L 68 552 L 60 552 Z M 60 548 "/>
<path style=" stroke:none;fill-rule:nonzero;fill:rgb(0%,0%,0%);fill-opacity:1;" d="M 80 548 L 100 548 L 100 552 L 80 552 Z M 80 548 "/>
<path style=" stroke:none;fill-rule:nonzero;fill:rgb(0%,0%,0%);fill-opacity:1;" d="M 16 552 L 20 552 L 20 556 L 16 556 Z M 16 552 "/>
<path style=" stroke:none;fill-rule:nonzero;fill:rgb(0%,0%,0%);fill-opacity:1;" d="M 56 552 L 76 552 L 76 556 L 56 556 Z M 56 552 "/>
<path style=" stroke:none;fill-rule:nonzero;fill:rgb(0%,0%,0%);fill-opacity:1;" d="M 80 552 L 88 552 L 88 556 L 80 556 Z M 80 552 "/>
<path style=" stroke:none;fill-rule:nonzero;fill:rgb(0%,0%,0%);fill-opacity:1;" d="M 4 556 L 12 556 L 12 560 L 4 560 Z M 4 556 "/>
<path style=" stroke:none;fill-rule:nonzero;fill:rgb(0%,0%,0%);fill-opacity:1;" d="M 52 556 L 96 556 L 96 560 L 52 560 Z M 52 556 "/>
<path style=" stroke:none;fill-rule:nonzero;fill:rgb(0%,0%,0%);fill-opacity:1;" d="M 8 560 L 16 560 L 16 564 L 8 564 Z M 8 560 "/>
<path style=" stroke:none;fill-rule:nonzero;fill:rgb(0%,0%,0%);fill-opacity:1;" d="M 28 560 L 32 560 L 32 564 L 28 564 Z M 28 560 "/>
<path style=" stroke:none;fill-rule:nonzero;fill:rgb(0%,0%,0%);fill-opacity:1;" d="M 44 560 L 48 560 L 48 564 L 44 564 Z M 44 560 "/>
<path style=" stroke:none;fill-rule:nonzero;fill:rgb(0%,0%,0%);fill-opacity:1;" d="M 92 560 L 100 560 L 100 564 L 92 564 Z M 92 560 "/>
<path style=" stroke:none;fill-rule:nonzero;fill:rgb(0%,0%,0%);fill-opacity:1;" d="M 28 564 L 36 564 L 36 568 L 28 568 Z M 28 564 "/>
<path style=" stroke:none;fill-rule:nonzero;fill:rgb(0%,0%,0%);fill-opacity:1;" d="M 52 564 L 60 564 L 60 568 L 52 568 Z M 52 564 "/>
<path style=" stroke:none;fill-rule:nonzero;fill:rgb(0%,0%,0%);fill-opacity:1;" d="M 68 564 L 96 564 L 96 568 L 68 568 Z M 68 564 "/>
<path style=" stroke:none;fill-rule:nonzero;fill:rgb(0%,0%,0%);fill-opacity:1;" d="M 12 568 L 24 568 L 24 572 L 12 572 Z M 12 568 "/>
<path style=" stroke:none;fill-rule:nonzero;fill:rgb(0%,0%,0%);fill-opacity:1;" d="M 44 568 L 48 568 L 48 572 L 44 572 Z M 44 568 "/>
<path style=" stroke:none;fill-rule:nonzero;fill:rgb(0%,0%,0%);fill-opacity:1;" d="M 76 568 L 80 568 L 80 572 L 76 572 Z M 76 568 "/>
<path style=" stroke:none;fill-rule:nonzero;fill:rgb(0%,0%,0%);fill-opacity:1;" d="M 4 572 L 8 572 L 8 576 L 4 576 Z M 4 572 "/>
<path style=" stroke:none;fill-rule:nonzero;fill:rgb(0%,0%,0%);fill-opacity:1;" d="M 24 572 L 36 572 L 36 576 L 24 576 Z M 24 572 "/>
<path style=" stroke:none;fill-rule:nonzero;fill:rgb(0%,0%,0%);fill-opacity:1;" d="M 52 572 L 60 572 L 60 576 L 52 576 Z M 52 572 "/>
<path style=" stroke:none;fill-rule:nonzero;fill:rgb(0%,0%,0%);fill-opacity:1;" d="M 92 572 L 100 572 L 100 576 L 92 576 Z M 92 572 "/>
<path style=" stroke:none;fill-rule:nonzero;fill:rgb(0%,0%,0%);fill-opacity:1;" d="M 0 576 L 12 576 L 12 580 L 0 580 Z M 0 576 "/>
<path style=" stroke:none;fill-rule:nonzero;fill:rgb(0%,0%,0%);fill-opacity:1;" d="M 28 576 L 52 576 L 52 580 L 28 580 Z M 28 576 "/>
<path style=" stroke:none;fill-rule:nonzero;fill:rgb(0%,0%,0%);fill-opacity:1;" d="M 88 576 L 92 576 L 92 580 L 88 580 Z M 88 576 "/>
<path style=" stroke:none;fill-rule:nonzero;fill:rgb(0%,0%,0%);fill-opacity:1;" d="M 8 580 L 16 580 L 16 584 L 8 584 Z M 8 580 "/>
<path style=" stroke:none;fill-rule:nonzero;fill:rgb(0%,0%,0%);fill-opacity:1;" d="M 52 580 L 64 580 L 64 584 L 52 584 Z M 52 580 "/>
<path style=" stroke:none;fill-rule:nonzero;fill:rgb(0%,0%,0%);fill-opacity:1;" d="M 68 580 L 76 580 L 76 584 L 68 584 Z M 68 580 "/>
<path style=" stroke:none;fill-rule:nonzero;fill:rgb(0%,0%,0%);fill-opacity:1;" d="M 96 580 L 100 580 L 100 584 L 96 584 Z M 96 580 "/>
<path style=" stroke:none;fill-rule:nonzero;fill:rgb(0%,0%,0%);fill-opacity:1;" d="M 0 584 L 4 584 L 4 588 L 0 588 Z M 0 584 "/>
<path style=" stroke:none;fill-rule:nonzero;fill:rgb(0%,0%,0%);fill-opacity:1;" d="M 20 584 L 28 584 L 28 588 L 20 588 Z M 20 584 "/>
<path style=" stroke:none;fill-rule:nonzero;fill:rgb(0%,0%,0%);fill-opacity:1;" d="M 52 584 L 60 584 L 60 588 L 52 588 Z M 52 584 "/>
<path style=" stroke:none;fill-rule:nonzero;fill:rgb(0%,0%,0%);fill-opacity:1;" d="M 92 584 L 96 584 L 96 588 L 92 588 Z M 92 584 "/>
<path style=" stroke:none;fill-rule:nonzero;fill:rgb(0%,0%,0%);fill-opacity:1;" d="M 0 588 L 4 588 L 4 592 L 0 592 Z M 0 588 "/>
<path style=" stroke:none;fill-rule:nonzero;fill:rgb(0%,0%,0%);fill-opacity:1;" d="M 16 588 L 20 588 L 20 592 L 16 592 Z M 16 588 "/>
<path style=" stroke:none;fill-rule:nonzero;fill:rgb(0%,0%,0%);fill-opacity:1;" d="M 44 588 L 64 588 L 64 592 L 44 592 Z M 44 588 "/>
<path style=" stroke:none;fill-rule:nonzero;fill:rgb(0%,0%,0%);fill-opacity:1;" d="M 76 588 L 84 588 L 84 592 L 76 592 Z M 76 588 "/>
<path style=" stroke:none;fill-rule:nonzero;fill:rgb(0%,0%,0%);fill-opacity:1;" d="M 92 596 L 96 596 L 96 600 L 92 600 Z M 92 596 "/>
<path style=" stroke:none;fill-rule:nonzero;fill:rgb(0%,0%,0%);fill-opacity:1;" d="M 0 600 L 4 600 L 4 604 L 0 604 Z M 0 600 "/>
<path style=" stroke:none;fill-rule:nonzero;fill:rgb(0%,0%,0%);fill-opacity:1;" d="M 8 600 L 12 600 L 12 604 L 8 604 Z M 8 600 "/>
<path style=" stroke:none;fill-rule:nonzero;fill:rgb(0%,0%,0%);fill-opacity:1;" d="M 60 600 L 68 600 L 68 604 L 60 604 Z M 60 600 "/>
<path style=" stroke:none;fill-rule:nonzero;fill:rgb(0%,0%,0%);fill-opacity:1;" d="M 24 604 L 28 604 L 28 608 L 24 608 Z M 24 604 "/>
<path style=" stroke:none;fill-rule:nonzero;fill:rgb(0%,0%,0%);fill-opacity:1;" d="M 32 604 L 52 604 L 52 608 L 32 608 Z M 32 604 "/>
<path style=" stroke:none;fill-rule:nonzero;fill:rgb(0%,0%,0%);fill-opacity:1;" d="M 56 604 L 60 604 L 60 608 L 56 608 Z M 56 604 "/>
<path style=" stroke:none;fill-rule:nonzero;fill:rgb(0%,0%,0%);fill-opacity:1;" d="M 76 604 L 80 604 L 80 608 L 76 608 Z M 76 604 "/>
<path style=" stroke:none;fill-rule:nonzero;fill:rgb(0%,0%,0%);fill-opacity:1;" d="M 92 604 L 96 604 L 96 608 L 92 608 Z M 92 604 "/>
<path style=" stroke:none;fill-rule:nonzero;fill:rgb(0%,0%,0%);fill-opacity:1;" d="M 12 608 L 16 608 L 16 612 L 12 612 Z M 12 608 "/>
<path style=" stroke:none;fill-rule:nonzero;fill:rgb(0%,0%,0%);fill-opacity:1;" d="M 20 608 L 28 608 L 28 612 L 20 612 Z M 20 608 "/>
<path style=" stroke:none;fill-rule:nonzero;fill:rgb(0%,0%,0%);fill-opacity:1;" d="M 36 608 L 40 608 L 40 612 L 36 612 Z M 36 608 "/>
<path style=" stroke:none;fill-rule:nonzero;fill:rgb(0%,0%,0%);fill-opacity:1;" d="M 44 608 L 48 608 L 48 612 L 44 612 Z M 44 608 "/>
<path style=" stroke:none;fill-rule:nonzero;fill:rgb(0%,0%,0%);fill-opacity:1;" d="M 56 608 L 64 608 L 64 612 L 56 612 Z M 56 608 "/>
<path style=" stroke:none;fill-rule:nonzero;fill:rgb(0%,0%,0%);fill-opacity:1;" d="M 68 608 L 72 608 L 72 612 L 68 612 Z M 68 608 "/>
<path style=" stroke:none;fill-rule:nonzero;fill:rgb(0%,0%,0%);fill-opacity:1;" d="M 88 608 L 96 608 L 96 612 L 88 612 Z M 88 608 "/>
<path style=" stroke:none;fill-rule:nonzero;fill:rgb(0%,0%,0%);fill-opacity:1;" d="M 4 612 L 12 612 L 12 616 L 4 616 Z M 4 612 "/>
<path style=" stroke:none;fill-rule:nonzero;fill:rgb(0%,0%,0%);fill-opacity:1;" d="M 24 612 L 28 612 L 28 616 L 24 616 Z M 24 612 "/>
<path style=" stroke:none;fill-rule:nonzero;fill:rgb(0%,0%,0%);fill-opacity:1;" d="M 32 612 L 52 612 L 52 616 L 32 616 Z M 32 612 "/>
<path style=" stroke:none;fill-rule:nonzero;fill:rgb(0%,0%,0%);fill-opacity:1;" d="M 64 612 L 76 612 L 76 616 L 64 616 Z M 64 612 "/>
<path style=" stroke:none;fill-rule:nonzero;fill:rgb(0%,0%,0%);fill-opacity:1;" d="M 84 612 L 88 612 L 88 616 L 84 616 Z M 84 612 "/>
<path style=" stroke:none;fill-rule:nonzero;fill:rgb(0%,0%,0%);fill-opacity:1;" d="M 92 612 L 100 612 L 100 616 L 92 616 Z M 92 612 "/>
<path style=" stroke:none;fill-rule:nonzero;fill:rgb(0%,0%,0%);fill-opacity:1;" d="M 0 616 L 16 616 L 16 620 L 0 620 Z M 0 616 "/>
<path style=" stroke:none;fill-rule:nonzero;fill:rgb(0%,0%,0%);fill-opacity:1;" d="M 20 616 L 100 616 L 100 620 L 20 620 Z M 20 616 "/>
<path style=" stroke:none;fill-rule:nonzero;fill:rgb(0%,0%,0%);fill-opacity:1;" d="M 0 620 L 20 620 L 20 624 L 0 624 Z M 0 620 "/>
<path style=" stroke:none;fill-rule:nonzero;fill:rgb(0%,0%,0%);fill-opacity:1;" d="M 24 620 L 40 620 L 40 624 L 24 624 Z M 24 620 "/>
<path style=" stroke:none;fill-rule:nonzero;fill:rgb(0%,0%,0%);fill-opacity:1;" d="M 60 620 L 64 620 L 64 624 L 60 624 Z M 60 620 "/>
<path style=" stroke:none;fill-rule:nonzero;fill:rgb(0%,0%,0%);fill-opacity:1;" d="M 72 620 L 84 620 L 84 624 L 72 624 Z M 72 620 "/>
<path style=" stroke:none;fill-rule:nonzero;fill:rgb(0%,0%,0%);fill-opacity:1;" d="M 88 620 L 92 620 L 92 624 L 88 624 Z M 88 620 "/>
<path style=" stroke:none;fill-rule:nonzero;fill:rgb(0%,0%,0%);fill-opacity:1;" d="M 0 624 L 4 624 L 4 628 L 0 628 Z M 0 624 "/>
<path style=" stroke:none;fill-rule:nonzero;fill:rgb(0%,0%,0%);fill-opacity:1;" d="M 8 624 L 12 624 L 12 628 L 8 628 Z M 8 624 "/>
<path style=" stroke:none;fill-rule:nonzero;fill:rgb(0%,0%,0%);fill-opacity:1;" d="M 20 624 L 32 624 L 32 628 L 20 628 Z M 20 624 "/>
<path style=" stroke:none;fill-rule:nonzero;fill:rgb(0%,0%,0%);fill-opacity:1;" d="M 48 624 L 56 624 L 56 628 L 48 628 Z M 48 624 "/>
<path style=" stroke:none;fill-rule:nonzero;fill:rgb(0%,0%,0%);fill-opacity:1;" d="M 60 624 L 68 624 L 68 628 L 60 628 Z M 60 624 "/>
<path style=" stroke:none;fill-rule:nonzero;fill:rgb(0%,0%,0%);fill-opacity:1;" d="M 84 624 L 88 624 L 88 628 L 84 628 Z M 84 624 "/>
<path style=" stroke:none;fill-rule:nonzero;fill:rgb(0%,0%,0%);fill-opacity:1;" d="M 24 628 L 32 628 L 32 632 L 24 632 Z M 24 628 "/>
<path style=" stroke:none;fill-rule:nonzero;fill:rgb(0%,0%,0%);fill-opacity:1;" d="M 48 628 L 52 628 L 52 632 L 48 632 Z M 48 628 "/>
<path style=" stroke:none;fill-rule:nonzero;fill:rgb(0%,0%,0%);fill-opacity:1;" d="M 56 628 L 60 628 L 60 632 L 56 632 Z M 56 628 "/>
<path style=" stroke:none;fill-rule:nonzero;fill:rgb(0%,0%,0%);fill-opacity:1;" d="M 68 628 L 72 628 L 72 632 L 68 632 Z M 68 628 "/>
<path style=" stroke:none;fill-rule:nonzero;fill:rgb(0%,0%,0%);fill-opacity:1;" d="M 76 628 L 84 628 L 84 632 L 76 632 Z M 76 628 "/>
<path style=" stroke:none;fill-rule:nonzero;fill:rgb(0%,0%,0%);fill-opacity:1;" d="M 88 628 L 100 628 L 100 632 L 88 632 Z M 88 628 "/>
<path style=" stroke:none;fill-rule:nonzero;fill:rgb(0%,0%,0%);fill-opacity:1;" d="M 0 632 L 4 632 L 4 636 L 0 636 Z M 0 632 "/>
<path style=" stroke:none;fill-rule:nonzero;fill:rgb(0%,0%,0%);fill-opacity:1;" d="M 12 632 L 16 632 L 16 636 L 12 636 Z M 12 632 "/>
<path style=" stroke:none;fill-rule:nonzero;fill:rgb(0%,0%,0%);fill-opacity:1;" d="M 24 632 L 32 632 L 32 636 L 24 636 Z M 24 632 "/>
<path style=" stroke:none;fill-rule:nonzero;fill:rgb(0%,0%,0%);fill-opacity:1;" d="M 48 632 L 56 632 L 56 636 L 48 636 Z M 48 632 "/>
<path style=" stroke:none;fill-rule:nonzero;fill:rgb(0%,0%,0%);fill-opacity:1;" d="M 64 632 L 80 632 L 80 636 L 64 636 Z M 64 632 "/>
<path style=" stroke:none;fill-rule:nonzero;fill:rgb(0%,0%,0%);fill-opacity:1;" d="M 32 636 L 36 636 L 36 640 L 32 640 Z M 32 636 "/>
<path style=" stroke:none;fill-rule:nonzero;fill:rgb(0%,0%,0%);fill-opacity:1;" d="M 44 636 L 64 636 L 64 640 L 44 640 Z M 44 636 "/>
<path style=" stroke:none;fill-rule:nonzero;fill:rgb(0%,0%,0%);fill-opacity:1;" d="M 72 636 L 96 636 L 96 640 L 72 640 Z M 72 636 "/>
<path style=" stroke:none;fill-rule:nonzero;fill:rgb(0%,0%,0%);fill-opacity:1;" d="M 4 640 L 8 640 L 8 644 L 4 644 Z M 4 640 "/>
<path style=" stroke:none;fill-rule:nonzero;fill:rgb(0%,0%,0%);fill-opacity:1;" d="M 24 640 L 40 640 L 40 644 L 24 644 Z M 24 640 "/>
<path style=" stroke:none;fill-rule:nonzero;fill:rgb(0%,0%,0%);fill-opacity:1;" d="M 48 640 L 52 640 L 52 644 L 48 644 Z M 48 640 "/>
<path style=" stroke:none;fill-rule:nonzero;fill:rgb(0%,0%,0%);fill-opacity:1;" d="M 56 640 L 60 640 L 60 644 L 56 644 Z M 56 640 "/>
<path style=" stroke:none;fill-rule:nonzero;fill:rgb(0%,0%,0%);fill-opacity:1;" d="M 64 640 L 80 640 L 80 644 L 64 644 Z M 64 640 "/>
<path style=" stroke:none;fill-rule:nonzero;fill:rgb(0%,0%,0%);fill-opacity:1;" d="M 84 640 L 88 640 L 88 644 L 84 644 Z M 84 640 "/>
<path style=" stroke:none;fill-rule:nonzero;fill:rgb(0%,0%,0%);fill-opacity:1;" d="M 96 640 L 100 640 L 100 644 L 96 644 Z M 96 640 "/>
<path style=" stroke:none;fill-rule:nonzero;fill:rgb(0%,0%,0%);fill-opacity:1;" d="M 0 644 L 4 644 L 4 648 L 0 648 Z M 0 644 "/>
<path style=" stroke:none;fill-rule:nonzero;fill:rgb(0%,0%,0%);fill-opacity:1;" d="M 20 644 L 32 644 L 32 648 L 20 648 Z M 20 644 "/>
<path style=" stroke:none;fill-rule:nonzero;fill:rgb(0%,0%,0%);fill-opacity:1;" d="M 36 644 L 44 644 L 44 648 L 36 648 Z M 36 644 "/>
<path style=" stroke:none;fill-rule:nonzero;fill:rgb(0%,0%,0%);fill-opacity:1;" d="M 60 644 L 64 644 L 64 648 L 60 648 Z M 60 644 "/>
<path style=" stroke:none;fill-rule:nonzero;fill:rgb(0%,0%,0%);fill-opacity:1;" d="M 72 644 L 76 644 L 76 648 L 72 648 Z M 72 644 "/>
<path style=" stroke:none;fill-rule:nonzero;fill:rgb(0%,0%,0%);fill-opacity:1;" d="M 84 644 L 88 644 L 88 648 L 84 648 Z M 84 644 "/>
<path style=" stroke:none;fill-rule:nonzero;fill:rgb(0%,0%,0%);fill-opacity:1;" d="M 96 644 L 100 644 L 100 648 L 96 648 Z M 96 644 "/>
<path style=" stroke:none;fill-rule:nonzero;fill:rgb(0%,0%,0%);fill-opacity:1;" d="M 16 648 L 28 648 L 28 652 L 16 652 Z M 16 648 "/>
<path style=" stroke:none;fill-rule:nonzero;fill:rgb(0%,0%,0%);fill-opacity:1;" d="M 68 648 L 80 648 L 80 652 L 68 652 Z M 68 648 "/>
<path style=" stroke:none;fill-rule:nonzero;fill:rgb(0%,0%,0%);fill-opacity:1;" d="M 4 652 L 12 652 L 12 656 L 4 656 Z M 4 652 "/>
<path style=" stroke:none;fill-rule:nonzero;fill:rgb(0%,0%,0%);fill-opacity:1;" d="M 16 652 L 24 652 L 24 656 L 16 656 Z M 16 652 "/>
<path style=" stroke:none;fill-rule:nonzero;fill:rgb(0%,0%,0%);fill-opacity:1;" d="M 96 656 L 100 656 L 100 660 L 96 660 Z M 96 656 "/>
<path style=" stroke:none;fill-rule:nonzero;fill:rgb(0%,0%,0%);fill-opacity:1;" d="M 0 660 L 4 660 L 4 664 L 0 664 Z M 0 660 "/>
<path style=" stroke:none;fill-rule:nonzero;fill:rgb(0%,0%,0%);fill-opacity:1;" d="M 8 660 L 12 660 L 12 664 L 8 664 Z M 8 660 "/>
<path style=" stroke:none;fill-rule:nonzero;fill:rgb(0%,0%,0%);fill-opacity:1;" d="M 56 660 L 60 660 L 60 664 L 56 664 Z M 56 660 "/>
<path style=" stroke:none;fill-rule:nonzero;fill:rgb(0%,0%,0%);fill-opacity:1;" d="M 64 660 L 80 660 L 80 664 L 64 664 Z M 64 660 "/>
<path style=" stroke:none;fill-rule:nonzero;fill:rgb(0%,0%,0%);fill-opacity:1;" d="M 88 660 L 92 660 L 92 664 L 88 664 Z M 88 660 "/>
<path style=" stroke:none;fill-rule:nonzero;fill:rgb(0%,0%,0%);fill-opacity:1;" d="M 0 664 L 4 664 L 4 668 L 0 668 Z M 0 664 "/>
<path style=" stroke:none;fill-rule:nonzero;fill:rgb(0%,0%,0%);fill-opacity:1;" d="M 16 664 L 28 664 L 28 668 L 16 668 Z M 16 664 "/>
<path style=" stroke:none;fill-rule:nonzero;fill:rgb(0%,0%,0%);fill-opacity:1;" d="M 48 664 L 56 664 L 56 668 L 48 668 Z M 48 664 "/>
<path style=" stroke:none;fill-rule:nonzero;fill:rgb(0%,0%,0%);fill-opacity:1;" d="M 64 664 L 72 664 L 72 668 L 64 668 Z M 64 664 "/>
<path style=" stroke:none;fill-rule:nonzero;fill:rgb(0%,0%,0%);fill-opacity:1;" d="M 92 664 L 96 664 L 96 668 L 92 668 Z M 92 664 "/>
<path style=" stroke:none;fill-rule:nonzero;fill:rgb(0%,0%,0%);fill-opacity:1;" d="M 0 668 L 4 668 L 4 672 L 0 672 Z M 0 668 "/>
<path style=" stroke:none;fill-rule:nonzero;fill:rgb(0%,0%,0%);fill-opacity:1;" d="M 12 668 L 44 668 L 44 672 L 12 672 Z M 12 668 "/>
<path style=" stroke:none;fill-rule:nonzero;fill:rgb(0%,0%,0%);fill-opacity:1;" d="M 48 668 L 100 668 L 100 672 L 48 672 Z M 48 668 "/>
<path style=" stroke:none;fill-rule:nonzero;fill:rgb(0%,0%,0%);fill-opacity:1;" d="M 0 672 L 32 672 L 32 676 L 0 676 Z M 0 672 "/>
<path style=" stroke:none;fill-rule:nonzero;fill:rgb(0%,0%,0%);fill-opacity:1;" d="M 36 672 L 40 672 L 40 676 L 36 676 Z M 36 672 "/>
<path style=" stroke:none;fill-rule:nonzero;fill:rgb(0%,0%,0%);fill-opacity:1;" d="M 60 672 L 68 672 L 68 676 L 60 676 Z M 60 672 "/>
<path style=" stroke:none;fill-rule:nonzero;fill:rgb(0%,0%,0%);fill-opacity:1;" d="M 92 672 L 100 672 L 100 676 L 92 676 Z M 92 672 "/>
<path style=" stroke:none;fill-rule:nonzero;fill:rgb(0%,0%,0%);fill-opacity:1;" d="M 0 676 L 4 676 L 4 680 L 0 680 Z M 0 676 "/>
<path style=" stroke:none;fill-rule:nonzero;fill:rgb(0%,0%,0%);fill-opacity:1;" d="M 20 676 L 24 676 L 24 680 L 20 680 Z M 20 676 "/>
<path style=" stroke:none;fill-rule:nonzero;fill:rgb(0%,0%,0%);fill-opacity:1;" d="M 28 676 L 44 676 L 44 680 L 28 680 Z M 28 676 "/>
<path style=" stroke:none;fill-rule:nonzero;fill:rgb(0%,0%,0%);fill-opacity:1;" d="M 48 676 L 68 676 L 68 680 L 48 680 Z M 48 676 "/>
<path style=" stroke:none;fill-rule:nonzero;fill:rgb(0%,0%,0%);fill-opacity:1;" d="M 76 676 L 80 676 L 80 680 L 76 680 Z M 76 676 "/>
<path style=" stroke:none;fill-rule:nonzero;fill:rgb(0%,0%,0%);fill-opacity:1;" d="M 96 676 L 100 676 L 100 680 L 96 680 Z M 96 676 "/>
<path style=" stroke:none;fill-rule:nonzero;fill:rgb(0%,0%,0%);fill-opacity:1;" d="M 36 680 L 44 680 L 44 684 L 36 684 Z M 36 680 "/>
<path style=" stroke:none;fill-rule:nonzero;fill:rgb(0%,0%,0%);fill-opacity:1;" d="M 60 680 L 64 680 L 64 684 L 60 684 Z M 60 680 "/>
<path style=" stroke:none;fill-rule:nonzero;fill:rgb(0%,0%,0%);fill-opacity:1;" d="M 80 680 L 84 680 L 84 684 L 80 684 Z M 80 680 "/>
<path style=" stroke:none;fill-rule:nonzero;fill:rgb(0%,0%,0%);fill-opacity:1;" d="M 0 684 L 4 684 L 4 688 L 0 688 Z M 0 684 "/>
<path style=" stroke:none;fill-rule:nonzero;fill:rgb(0%,0%,0%);fill-opacity:1;" d="M 12 684 L 16 684 L 16 688 L 12 688 Z M 12 684 "/>
<path style=" stroke:none;fill-rule:nonzero;fill:rgb(0%,0%,0%);fill-opacity:1;" d="M 20 684 L 28 684 L 28 688 L 20 688 Z M 20 684 "/>
<path style=" stroke:none;fill-rule:nonzero;fill:rgb(0%,0%,0%);fill-opacity:1;" d="M 80 684 L 100 684 L 100 688 L 80 688 Z M 80 684 "/>
<path style=" stroke:none;fill-rule:nonzero;fill:rgb(0%,0%,0%);fill-opacity:1;" d="M 0 688 L 36 688 L 36 692 L 0 692 Z M 0 688 "/>
<path style=" stroke:none;fill-rule:nonzero;fill:rgb(0%,0%,0%);fill-opacity:1;" d="M 68 688 L 76 688 L 76 692 L 68 692 Z M 68 688 "/>
<path style=" stroke:none;fill-rule:nonzero;fill:rgb(0%,0%,0%);fill-opacity:1;" d="M 92 688 L 96 688 L 96 692 L 92 692 Z M 92 688 "/>
<path style=" stroke:none;fill-rule:nonzero;fill:rgb(0%,0%,0%);fill-opacity:1;" d="M 32 692 L 36 692 L 36 696 L 32 696 Z M 32 692 "/>
<path style=" stroke:none;fill-rule:nonzero;fill:rgb(0%,0%,0%);fill-opacity:1;" d="M 52 692 L 76 692 L 76 696 L 52 696 Z M 52 692 "/>
<path style=" stroke:none;fill-rule:nonzero;fill:rgb(0%,0%,0%);fill-opacity:1;" d="M 80 692 L 84 692 L 84 696 L 80 696 Z M 80 692 "/>
<path style=" stroke:none;fill-rule:nonzero;fill:rgb(0%,0%,0%);fill-opacity:1;" d="M 92 692 L 100 692 L 100 696 L 92 696 Z M 92 692 "/>
<path style=" stroke:none;fill-rule:nonzero;fill:rgb(0%,0%,0%);fill-opacity:1;" d="M 0 696 L 4 696 L 4 700 L 0 700 Z M 0 696 "/>
<path style=" stroke:none;fill-rule:nonzero;fill:rgb(0%,0%,0%);fill-opacity:1;" d="M 32 696 L 36 696 L 36 700 L 32 700 Z M 32 696 "/>
<path style=" stroke:none;fill-rule:nonzero;fill:rgb(0%,0%,0%);fill-opacity:1;" d="M 44 696 L 48 696 L 48 700 L 44 700 Z M 44 696 "/>
<path style=" stroke:none;fill-rule:nonzero;fill:rgb(0%,0%,0%);fill-opacity:1;" d="M 0.859375 -0.359375 L 0.859375 -8.421875 C 0.859375 -8.535156 0.90625 -8.617188 1 -8.671875 C 1.101562 -8.734375 1.222656 -8.765625 1.359375 -8.765625 C 1.492188 -8.765625 1.609375 -8.734375 1.703125 -8.671875 C 1.804688 -8.617188 1.859375 -8.535156 1.859375 -8.421875 L 1.859375 -4.96875 L 5.109375 -4.96875 L 5.109375 -8.421875 C 5.109375 -8.535156 5.15625 -8.617188 5.25 -8.671875 C 5.351562 -8.734375 5.472656 -8.765625 5.609375 -8.765625 C 5.742188 -8.765625 5.863281 -8.734375 5.96875 -8.671875 C 6.070312 -8.617188 6.125 -8.535156 6.125 -8.421875 L 6.125 -0.359375 C 6.125 -0.242188 6.070312 -0.15625 5.96875 -0.09375 C 5.863281 -0.03125 5.742188 0 5.609375 0 C 5.472656 0 5.351562 -0.03125 5.25 -0.09375 C 5.15625 -0.15625 5.109375 -0.242188 5.109375 -0.359375 L 5.109375 -4.125 L 1.859375 -4.125 L 1.859375 -0.359375 C 1.859375 -0.242188 1.804688 -0.15625 1.703125 -0.09375 C 1.609375 -0.03125 1.492188 0 1.359375 0 C 1.222656 0 1.101562 -0.03125 1 -0.09375 C 0.90625 -0.15625 0.859375 -0.242188 0.859375 -0.359375 Z M 7.457031 -2.234375 L 7.457031 -3.484375 C 7.457031 -4.109375 7.691406 -4.644531 8.160156 -5.09375 C 8.628906 -5.539062 9.191406 -5.765625 9.847656 -5.765625 C 10.472656 -5.765625 11.011719 -5.550781 11.472656 -5.125 C 11.929688 -4.707031 12.160156 -4.179688 12.160156 -3.546875 C 12.160156 -3.316406 12.128906 -3.128906 12.066406 -2.984375 C 12.011719 -2.847656 11.929688 -2.75 11.816406 -2.6875 C 11.699219 -2.632812 11.589844 -2.597656 11.488281 -2.578125 C 11.394531 -2.566406 11.257812 -2.5625 11.082031 -2.5625 L 8.457031 -2.5625 L 8.457031 -2.203125 C 8.457031 -1.753906 8.613281 -1.398438 8.925781 -1.140625 C 9.246094 -0.878906 9.660156 -0.75 10.160156 -0.75 C 10.429688 -0.75 10.660156 -0.785156 10.847656 -0.859375 C 11.042969 -0.941406 11.199219 -1.019531 11.316406 -1.09375 C 11.441406 -1.175781 11.539062 -1.21875 11.613281 -1.21875 C 11.726562 -1.21875 11.820312 -1.164062 11.894531 -1.0625 C 11.976562 -0.957031 12.019531 -0.851562 12.019531 -0.75 C 12.019531 -0.570312 11.835938 -0.382812 11.472656 -0.1875 C 11.105469 0 10.660156 0.09375 10.128906 0.09375 C 9.347656 0.09375 8.707031 -0.117188 8.207031 -0.546875 C 7.707031 -0.972656 7.457031 -1.535156 7.457031 -2.234375 Z M 8.457031 -3.234375 L 10.675781 -3.234375 C 10.882812 -3.234375 11.023438 -3.257812 11.097656 -3.3125 C 11.167969 -3.363281 11.207031 -3.460938 11.207031 -3.609375 C 11.207031 -3.972656 11.070312 -4.289062 10.800781 -4.5625 C 10.539062 -4.832031 10.222656 -4.96875 9.847656 -4.96875 C 9.460938 -4.96875 9.132812 -4.84375 8.863281 -4.59375 C 8.589844 -4.34375 8.457031 -4.03125 8.457031 -3.65625 Z M 13.363281 -0.359375 L 13.363281 -8.765625 C 13.363281 -8.867188 13.410156 -8.953125 13.503906 -9.015625 C 13.597656 -9.085938 13.714844 -9.125 13.863281 -9.125 C 14.007812 -9.125 14.128906 -9.085938 14.222656 -9.015625 C 14.316406 -8.953125 14.363281 -8.867188 14.363281 -8.765625 L 14.363281 -0.359375 C 14.363281 -0.273438 14.308594 -0.191406 14.207031 -0.109375 C 14.113281 -0.0351562 13.996094 0 13.863281 0 C 13.726562 0 13.605469 -0.0351562 13.503906 -0.109375 C 13.410156 -0.179688 13.363281 -0.265625 13.363281 -0.359375 Z M 15.992188 -0.359375 L 15.992188 -8.765625 C 15.992188 -8.867188 16.039062 -8.953125 16.132812 -9.015625 C 16.226562 -9.085938 16.34375 -9.125 16.492188 -9.125 C 16.636719 -9.125 16.757812 -9.085938 16.851562 -9.015625 C 16.945312 -8.953125 16.992188 -8.867188 16.992188 -8.765625 L 16.992188 -0.359375 C 16.992188 -0.273438 16.9375 -0.191406 16.835938 -0.109375 C 16.742188 -0.0351562 16.625 0 16.492188 0 C 16.355469 0 16.234375 -0.0351562 16.132812 -0.109375 C 16.039062 -0.179688 15.992188 -0.265625 15.992188 -0.359375 Z M 18.292969 -2.234375 L 18.292969 -3.453125 C 18.292969 -4.066406 18.527344 -4.601562 18.996094 -5.0625 C 19.464844 -5.53125 20.015625 -5.765625 20.652344 -5.765625 C 21.296875 -5.765625 21.855469 -5.535156 22.324219 -5.078125 C 22.800781 -4.617188 23.042969 -4.078125 23.042969 -3.453125 L 23.042969 -2.234375 C 23.042969 -1.617188 22.800781 -1.078125 22.324219 -0.609375 C 21.84375 -0.140625 21.285156 0.09375 20.652344 0.09375 C 20.027344 0.09375 19.472656 -0.140625 18.996094 -0.609375 C 18.527344 -1.078125 18.292969 -1.617188 18.292969 -2.234375 Z M 19.292969 -2.234375 C 19.292969 -1.859375 19.425781 -1.523438 19.699219 -1.234375 C 19.96875 -0.941406 20.292969 -0.796875 20.667969 -0.796875 C 21.042969 -0.796875 21.363281 -0.941406 21.636719 -1.234375 C 21.90625 -1.535156 22.042969 -1.867188 22.042969 -2.234375 L 22.042969 -3.453125 C 22.042969 -3.816406 21.90625 -4.140625 21.636719 -4.421875 C 21.363281 -4.710938 21.042969 -4.859375 20.667969 -4.859375 C 20.292969 -4.859375 19.96875 -4.710938 19.699219 -4.421875 C 19.425781 -4.140625 19.292969 -3.816406 19.292969 -3.453125 Z M 26.105469 -5.28125 C 26.105469 -5.394531 26.167969 -5.492188 26.292969 -5.578125 C 26.425781 -5.671875 26.566406 -5.71875 26.714844 -5.71875 C 26.878906 -5.71875 26.988281 -5.648438 27.042969 -5.515625 L 28.496094 -1.484375 L 29.621094 -5.125 C 29.671875 -5.28125 29.796875 -5.359375 29.996094 -5.359375 C 30.191406 -5.359375 30.316406 -5.28125 30.371094 -5.125 L 31.480469 -1.453125 L 32.949219 -5.515625 C 32.980469 -5.648438 33.078125 -5.71875 33.246094 -5.71875 C 33.390625 -5.71875 33.53125 -5.671875 33.667969 -5.578125 C 33.800781 -5.492188 33.871094 -5.394531 33.871094 -5.28125 C 33.871094 -5.21875 33.855469 -5.15625 33.824219 -5.09375 L 31.964844 -0.109375 C 31.902344 0.0351562 31.765625 0.109375 31.558594 0.109375 C 31.339844 0.109375 31.203125 0.0351562 31.152344 -0.109375 L 29.996094 -3.640625 L 28.855469 -0.140625 C 28.792969 0.0234375 28.644531 0.109375 28.417969 0.109375 C 28.207031 0.109375 28.074219 0.0234375 28.011719 -0.140625 L 26.152344 -5.09375 C 26.121094 -5.1875 26.105469 -5.25 26.105469 -5.28125 Z M 34.515625 -2.234375 L 34.515625 -3.453125 C 34.515625 -4.066406 34.75 -4.601562 35.21875 -5.0625 C 35.6875 -5.53125 36.238281 -5.765625 36.875 -5.765625 C 37.519531 -5.765625 38.078125 -5.535156 38.546875 -5.078125 C 39.023438 -4.617188 39.265625 -4.078125 39.265625 -3.453125 L 39.265625 -2.234375 C 39.265625 -1.617188 39.023438 -1.078125 38.546875 -0.609375 C 38.066406 -0.140625 37.507812 0.09375 36.875 0.09375 C 36.25 0.09375 35.695312 -0.140625 35.21875 -0.609375 C 34.75 -1.078125 34.515625 -1.617188 34.515625 -2.234375 Z M 35.515625 -2.234375 C 35.515625 -1.859375 35.648438 -1.523438 35.921875 -1.234375 C 36.191406 -0.941406 36.515625 -0.796875 36.890625 -0.796875 C 37.265625 -0.796875 37.585938 -0.941406 37.859375 -1.234375 C 38.128906 -1.535156 38.265625 -1.867188 38.265625 -2.234375 L 38.265625 -3.453125 C 38.265625 -3.816406 38.128906 -4.140625 37.859375 -4.421875 C 37.585938 -4.710938 37.265625 -4.859375 36.890625 -4.859375 C 36.515625 -4.859375 36.191406 -4.710938 35.921875 -4.421875 C 35.648438 -4.140625 35.515625 -3.816406 35.515625 -3.453125 Z M 40.460938 -0.359375 L 40.460938 -5.34375 C 40.460938 -5.445312 40.507812 -5.53125 40.601562 -5.59375 C 40.695312 -5.65625 40.8125 -5.6875 40.960938 -5.6875 C 41.085938 -5.6875 41.1875 -5.65625 41.273438 -5.59375 C 41.367188 -5.53125 41.414062 -5.445312 41.414062 -5.34375 L 41.414062 -4.78125 C 41.558594 -5.050781 41.773438 -5.28125 42.054688 -5.46875 C 42.335938 -5.664062 42.648438 -5.765625 42.992188 -5.765625 L 43.398438 -5.765625 C 43.5 -5.765625 43.589844 -5.71875 43.664062 -5.625 C 43.734375 -5.53125 43.773438 -5.421875 43.773438 -5.296875 C 43.773438 -5.179688 43.734375 -5.078125 43.664062 -4.984375 C 43.589844 -4.898438 43.5 -4.859375 43.398438 -4.859375 L 42.992188 -4.859375 C 42.574219 -4.859375 42.214844 -4.691406 41.914062 -4.359375 C 41.609375 -4.035156 41.460938 -3.613281 41.460938 -3.09375 L 41.460938 -0.359375 C 41.460938 -0.273438 41.40625 -0.191406 41.304688 -0.109375 C 41.210938 -0.0351562 41.09375 0 40.960938 0 C 40.824219 0 40.703125 -0.0351562 40.601562 -0.109375 C 40.507812 -0.179688 40.460938 -0.265625 40.460938 -0.359375 Z M 44.695312 -0.359375 L 44.695312 -8.765625 C 44.695312 -8.867188 44.742188 -8.953125 44.835938 -9.015625 C 44.929688 -9.085938 45.046875 -9.125 45.195312 -9.125 C 45.339844 -9.125 45.460938 -9.085938 45.554688 -9.015625 C 45.648438 -8.953125 45.695312 -8.867188 45.695312 -8.765625 L 45.695312 -0.359375 C 45.695312 -0.273438 45.640625 -0.191406 45.539062 -0.109375 C 45.445312 -0.0351562 45.328125 0 45.195312 0 C 45.058594 0 44.9375 -0.0351562 44.835938 -0.109375 C 44.742188 -0.179688 44.695312 -0.265625 44.695312 -0.359375 Z M 46.996094 -2.234375 L 46.996094 -3.453125 C 46.996094 -4.085938 47.207031 -4.628906 47.636719 -5.078125 C 48.0625 -5.535156 48.566406 -5.765625 49.152344 -5.765625 C 49.515625 -5.765625 49.832031 -5.675781 50.105469 -5.5 C 50.375 -5.320312 50.582031 -5.101562 50.730469 -4.84375 L 50.730469 -8.765625 C 50.730469 -8.867188 50.777344 -8.953125 50.871094 -9.015625 C 50.964844 -9.085938 51.082031 -9.125 51.230469 -9.125 C 51.375 -9.125 51.488281 -9.085938 51.574219 -9.015625 C 51.667969 -8.953125 51.714844 -8.867188 51.714844 -8.765625 L 51.714844 -0.359375 C 51.714844 -0.265625 51.667969 -0.179688 51.574219 -0.109375 C 51.480469 -0.0351562 51.363281 0 51.230469 0 C 51.105469 0 50.996094 -0.0351562 50.902344 -0.109375 C 50.816406 -0.179688 50.777344 -0.265625 50.777344 -0.359375 L 50.777344 -0.84375 C 50.640625 -0.582031 50.417969 -0.359375 50.105469 -0.171875 C 49.800781 0.00390625 49.472656 0.09375 49.121094 0.09375 C 48.558594 0.09375 48.0625 -0.140625 47.636719 -0.609375 C 47.207031 -1.078125 46.996094 -1.617188 46.996094 -2.234375 Z M 47.996094 -2.234375 C 47.996094 -1.867188 48.128906 -1.535156 48.402344 -1.234375 C 48.671875 -0.941406 48.988281 -0.796875 49.355469 -0.796875 C 49.707031 -0.796875 50.027344 -0.929688 50.308594 -1.203125 C 50.589844 -1.472656 50.730469 -1.707031 50.730469 -1.90625 L 50.730469 -3.453125 C 50.730469 -3.867188 50.589844 -4.207031 50.308594 -4.46875 C 50.035156 -4.726562 49.722656 -4.859375 49.371094 -4.859375 C 48.996094 -4.859375 48.671875 -4.710938 48.402344 -4.421875 C 48.128906 -4.140625 47.996094 -3.816406 47.996094 -3.453125 Z M 52.441406 0 "/>
</g>
</svg>
